M48
;DRILL file {KiCad (5.0.0-rc2-dev-586-g888c43477)} date 06/17/18 22:52:00
;FORMAT={-:-/ absolute / inch / decimal}
FMAT,2
INCH,TZ
T1C0.0236
T2C0.0276
T3C0.0300
T4C0.0315
T5C0.0394
T6C0.0472
T7C0.0591
T8C0.0866
T9C0.1181
T10C0.1969
T11C0.1417
%
G90
G05
M72
T1
X3.73Y-1.81
X3.76Y-4.08
X3.76Y-4.68
X4.04Y-2.99
X4.04Y-3.99
X4.05Y-5.0729
X4.05Y-5.21
X4.06Y-4.64
X4.06Y-4.79
X4.06Y-4.95
X4.16Y-2.38
X4.4397Y-4.3519
X4.44Y-4.27
X4.56Y-5.25
X4.5605Y-5.3585
X5.03Y-1.61
X5.25Y-1.61
X5.47Y-1.61
X5.51Y-5.04
X5.5108Y-4.95
X5.69Y-1.61
X6.19Y-4.38
X6.19Y-4.48
X7.31Y-5.07
X7.31Y-5.41
X7.53Y-2.58
X7.53Y-2.71
X7.53Y-4.71
X7.53Y-4.86
T2
X3.73Y-2.28
X3.89Y-1.98
X3.89Y-2.07
T3
X4.15Y-2.54
X4.15Y-2.64
X4.15Y-2.74
X4.15Y-2.84
X4.15Y-2.99
X4.15Y-3.09
X4.15Y-3.19
X4.15Y-3.29
X4.15Y-3.44
X4.15Y-3.54
X4.15Y-3.64
X4.15Y-3.74
X4.15Y-3.84
X4.15Y-3.99
X4.15Y-4.09
X4.15Y-4.19
X4.15Y-4.29
T4
X6.29Y-4.38
X6.29Y-4.48
X6.29Y-4.58
X6.29Y-4.68
X6.29Y-4.78
X6.29Y-4.88
X6.29Y-4.98
X3.64Y-1.78
X3.64Y-1.88
X3.64Y-1.98
X3.64Y-2.08
X3.64Y-2.18
X3.64Y-2.28
X3.64Y-2.38
X3.64Y-2.48
X3.64Y-2.58
X3.64Y-2.78
X3.64Y-2.88
X3.64Y-2.98
X3.64Y-3.08
X3.64Y-3.18
X3.64Y-3.28
X3.64Y-3.38
X3.64Y-3.48
X3.64Y-3.58
X3.64Y-3.68
X3.64Y-3.78
X3.64Y-3.88
X3.64Y-3.98
X3.64Y-4.08
X3.64Y-4.18
X3.64Y-4.28
X3.64Y-4.38
X3.64Y-4.48
X3.64Y-4.58
X3.64Y-4.68
X3.64Y-4.93
X3.64Y-5.03
X3.64Y-5.13
X3.64Y-5.23
X3.64Y-5.33
X3.64Y-5.43
X3.64Y-5.53
X3.64Y-5.63
T5
X8.23Y-5.405
X9.114Y-5.405
X5.82Y-4.77
X5.92Y-4.77
X6.02Y-4.77
T6
X8.45Y-3.0373
X8.45Y-4.12
T7
X8.2Y-1.7773
X8.2Y-2.86
X8.95Y-3.0373
X8.95Y-4.12
X8.45Y-4.5
X8.45Y-5.0906
X7.45Y-3.0373
X7.45Y-4.12
X8.05Y-4.5
X8.05Y-5.0906
X6.54Y-4.12
X6.7546Y-4.12
X6.9691Y-4.12
X8.85Y-4.5
X8.85Y-5.0906
X8.7Y-1.7773
X8.7Y-2.86
X6.54Y-3.01
X6.7546Y-3.01
X6.9691Y-3.01
X7.7Y-1.7773
X7.7Y-2.86
X7.95Y-3.0373
X7.95Y-4.12
T8
X2.455Y-4.525
X2.875Y-1.825
X3.4341Y-2.805
X3.357Y-3.58
T9
X4.89Y-2.825
X4.89Y-3.97
X6.035Y-2.825
X6.035Y-3.97
T10
X9.5Y-2.17
X9.5Y-4.2
X9.5Y-3.18
X9.5Y-5.33
T11
X6.7546Y-4.9019
X6.7546Y-2.2281
T0
M30
