M48
;DRILL file {KiCad (5.0.0)} date 09/03/18 01:16:17
;FORMAT={-:-/ absolute / inch / decimal}
FMAT,2
INCH,TZ
T1C0.0236
T2C0.0394
T3C0.0866
%
G90
G05
M72
T1
X1.48Y-1.17
X1.6154Y-1.17
X2.22Y-1.11
X2.37Y-1.11
X2.69Y-0.6384
X2.75Y-0.9754
X2.9413Y-1.4162
X2.95Y-0.62
X2.9554Y-0.9712
X3.05Y-1.59
T2
X1.0778Y-0.7506
X1.1778Y-0.7506
X1.2778Y-0.7506
X1.3778Y-0.7506
X1.5778Y-0.7506
X1.6778Y-0.7506
X1.7778Y-0.7506
X1.8778Y-0.7506
X1.9778Y-0.7506
X2.1778Y-0.7506
X2.2778Y-0.7506
X2.3778Y-0.7506
X2.4778Y-0.7506
X2.6778Y-0.7506
X2.7778Y-0.7506
X2.8778Y-0.7506
X2.9778Y-0.7506
T3
X1.89Y-1.5938
T0
M30
