G04 #@! TF.GenerationSoftware,KiCad,Pcbnew,(5.0.0)*
G04 #@! TF.CreationDate,2018-09-03T01:16:15-03:00*
G04 #@! TF.ProjectId,Signal,5369676E616C2E6B696361645F706362,rev?*
G04 #@! TF.SameCoordinates,Original*
G04 #@! TF.FileFunction,Copper,L1,Top,Signal*
G04 #@! TF.FilePolarity,Positive*
%FSLAX46Y46*%
G04 Gerber Fmt 4.6, Leading zero omitted, Abs format (unit mm)*
G04 Created by KiCad (PCBNEW (5.0.0)) date 09/03/18 01:16:15*
%MOMM*%
%LPD*%
G01*
G04 APERTURE LIST*
G04 #@! TA.AperFunction,ComponentPad*
%ADD10R,1.900000X3.000000*%
G04 #@! TD*
G04 #@! TA.AperFunction,ComponentPad*
%ADD11C,3.800000*%
G04 #@! TD*
G04 #@! TA.AperFunction,ViaPad*
%ADD12C,1.524000*%
G04 #@! TD*
G04 #@! TA.AperFunction,Conductor*
%ADD13C,0.800000*%
G04 #@! TD*
G04 #@! TA.AperFunction,Conductor*
%ADD14C,0.508000*%
G04 #@! TD*
G04 APERTURE END LIST*
D10*
G04 #@! TO.P,U2,14*
G04 #@! TO.N,/BatOVInterrupt*
X68017005Y-19064395D03*
G04 #@! TO.P,U2,13*
G04 #@! TO.N,/Vbat*
X62937005Y-19064395D03*
G04 #@! TO.P,U2,12*
G04 #@! TO.N,GNDA*
X60397005Y-19064395D03*
G04 #@! TO.P,U2,11*
X57857005Y-19064395D03*
G04 #@! TO.P,U2,10*
G04 #@! TO.N,/Vbat_SIG_IN*
X55317005Y-19064395D03*
G04 #@! TO.P,U2,9*
G04 #@! TO.N,/Ipanel*
X50237005Y-19064395D03*
G04 #@! TO.P,U2,8*
G04 #@! TO.N,GNDA*
X47697005Y-19064395D03*
G04 #@! TO.P,U2,7*
G04 #@! TO.N,/Ipanel_Ref*
X45157005Y-19064395D03*
G04 #@! TO.P,U2,6*
G04 #@! TO.N,/Ipanel_SIG*
X42617005Y-19064395D03*
G04 #@! TO.P,U2,5*
G04 #@! TO.N,GNDA*
X40077005Y-19064395D03*
G04 #@! TO.P,U2,4*
G04 #@! TO.N,/Vpanel*
X34997005Y-19064395D03*
G04 #@! TO.P,U2,3*
G04 #@! TO.N,GNDA*
X32457005Y-19064395D03*
G04 #@! TO.P,U2,2*
G04 #@! TO.N,/Vpanel_SIG*
X29917005Y-19064395D03*
G04 #@! TO.P,U2,1*
G04 #@! TO.N,/Vpanel_Ref*
X27377005Y-19064395D03*
G04 #@! TO.P,U2,15*
G04 #@! TO.N,/PWM*
X70557005Y-19064395D03*
G04 #@! TO.P,U2,16*
G04 #@! TO.N,GNDA*
X73097005Y-19064395D03*
G04 #@! TO.P,U2,17*
G04 #@! TO.N,+5VA*
X75637005Y-19064395D03*
G04 #@! TD*
D11*
G04 #@! TO.P,MK1,1*
G04 #@! TO.N,N/C*
X48006000Y-40482000D03*
G04 #@! TD*
D12*
G04 #@! TO.N,GNDA*
X37592000Y-29718000D03*
X41032000Y-29718000D03*
G04 #@! TO.N,+5VA*
X75068000Y-24667544D03*
X69850000Y-24776010D03*
X77470000Y-40386000D03*
X74708288Y-35971288D03*
G04 #@! TO.N,/BatOVInterrupt*
X74930000Y-15748000D03*
X68326000Y-16216199D03*
G04 #@! TO.N,/Vbat_SIG_IN*
X60198000Y-28194000D03*
X56388000Y-28194000D03*
G04 #@! TD*
D13*
G04 #@! TO.N,GNDA*
X37592000Y-29718000D02*
X41032000Y-29718000D01*
G04 #@! TO.N,+5VA*
X75068000Y-24667544D02*
X69958466Y-24667544D01*
X69958466Y-24667544D02*
X69850000Y-24776010D01*
X77470000Y-40386000D02*
X77470000Y-38733000D01*
X77470000Y-38733000D02*
X74708288Y-35971288D01*
G04 #@! TO.N,/BatOVInterrupt*
X74930000Y-15748000D02*
X68794199Y-15748000D01*
X68794199Y-15748000D02*
X68326000Y-16216199D01*
G04 #@! TO.N,/Vbat_SIG_IN*
X60198000Y-28194000D02*
X56388000Y-28194000D01*
G04 #@! TD*
D14*
G04 #@! TO.N,GNDA*
G36*
X79401200Y-45619200D02*
X23976800Y-45619200D01*
X23976800Y-39914304D01*
X45152000Y-39914304D01*
X45152000Y-41049696D01*
X45586496Y-42098661D01*
X46389339Y-42901504D01*
X47438304Y-43336000D01*
X48573696Y-43336000D01*
X49622661Y-42901504D01*
X50425504Y-42098661D01*
X50860000Y-41049696D01*
X50860000Y-39914304D01*
X50425504Y-38865339D01*
X49622661Y-38062496D01*
X48573696Y-37628000D01*
X47438304Y-37628000D01*
X46389339Y-38062496D01*
X45586496Y-38865339D01*
X45152000Y-39914304D01*
X23976800Y-39914304D01*
X23976800Y-35629954D01*
X72992288Y-35629954D01*
X72992288Y-36312622D01*
X73253534Y-36943324D01*
X73736252Y-37426042D01*
X74366954Y-37687288D01*
X74509443Y-37687288D01*
X76116000Y-39293846D01*
X76116000Y-39313210D01*
X76015246Y-39413964D01*
X75754000Y-40044666D01*
X75754000Y-40727334D01*
X76015246Y-41358036D01*
X76497964Y-41840754D01*
X77128666Y-42102000D01*
X77811334Y-42102000D01*
X78442036Y-41840754D01*
X78924754Y-41358036D01*
X79186000Y-40727334D01*
X79186000Y-40044666D01*
X78924754Y-39413964D01*
X78824000Y-39313210D01*
X78824000Y-38866351D01*
X78850525Y-38733000D01*
X78824000Y-38599649D01*
X78824000Y-38599645D01*
X78745440Y-38204696D01*
X78650425Y-38062496D01*
X78521719Y-37869873D01*
X78521716Y-37869870D01*
X78446179Y-37756821D01*
X78333129Y-37681284D01*
X76424288Y-35772443D01*
X76424288Y-35629954D01*
X76163042Y-34999252D01*
X75680324Y-34516534D01*
X75049622Y-34255288D01*
X74366954Y-34255288D01*
X73736252Y-34516534D01*
X73253534Y-34999252D01*
X72992288Y-35629954D01*
X23976800Y-35629954D01*
X23976800Y-27852666D01*
X54672000Y-27852666D01*
X54672000Y-28535334D01*
X54933246Y-29166036D01*
X55415964Y-29648754D01*
X56046666Y-29910000D01*
X56729334Y-29910000D01*
X57360036Y-29648754D01*
X57460790Y-29548000D01*
X59125210Y-29548000D01*
X59225964Y-29648754D01*
X59856666Y-29910000D01*
X60539334Y-29910000D01*
X61170036Y-29648754D01*
X61652754Y-29166036D01*
X61914000Y-28535334D01*
X61914000Y-27852666D01*
X61652754Y-27221964D01*
X61170036Y-26739246D01*
X60539334Y-26478000D01*
X59856666Y-26478000D01*
X59225964Y-26739246D01*
X59125210Y-26840000D01*
X57460790Y-26840000D01*
X57360036Y-26739246D01*
X56729334Y-26478000D01*
X56046666Y-26478000D01*
X55415964Y-26739246D01*
X54933246Y-27221964D01*
X54672000Y-27852666D01*
X23976800Y-27852666D01*
X23976800Y-24434676D01*
X68134000Y-24434676D01*
X68134000Y-25117344D01*
X68395246Y-25748046D01*
X68877964Y-26230764D01*
X69508666Y-26492010D01*
X70191334Y-26492010D01*
X70822036Y-26230764D01*
X71031256Y-26021544D01*
X73995210Y-26021544D01*
X74095964Y-26122298D01*
X74726666Y-26383544D01*
X75409334Y-26383544D01*
X76040036Y-26122298D01*
X76522754Y-25639580D01*
X76784000Y-25008878D01*
X76784000Y-24326210D01*
X76522754Y-23695508D01*
X76040036Y-23212790D01*
X75409334Y-22951544D01*
X74726666Y-22951544D01*
X74095964Y-23212790D01*
X73995210Y-23313544D01*
X70803418Y-23313544D01*
X70191334Y-23060010D01*
X69508666Y-23060010D01*
X68877964Y-23321256D01*
X68395246Y-23803974D01*
X68134000Y-24434676D01*
X23976800Y-24434676D01*
X23976800Y-17564395D01*
X25454316Y-17564395D01*
X25454316Y-20564395D01*
X25528358Y-20936627D01*
X25739210Y-21252190D01*
X26054773Y-21463042D01*
X26427005Y-21537084D01*
X28327005Y-21537084D01*
X28647005Y-21473432D01*
X28967005Y-21537084D01*
X30867005Y-21537084D01*
X31239237Y-21463042D01*
X31554800Y-21252190D01*
X31765652Y-20936627D01*
X31839694Y-20564395D01*
X31839694Y-17564395D01*
X33074316Y-17564395D01*
X33074316Y-20564395D01*
X33148358Y-20936627D01*
X33359210Y-21252190D01*
X33674773Y-21463042D01*
X34047005Y-21537084D01*
X35947005Y-21537084D01*
X36319237Y-21463042D01*
X36634800Y-21252190D01*
X36845652Y-20936627D01*
X36919694Y-20564395D01*
X36919694Y-17564395D01*
X40694316Y-17564395D01*
X40694316Y-20564395D01*
X40768358Y-20936627D01*
X40979210Y-21252190D01*
X41294773Y-21463042D01*
X41667005Y-21537084D01*
X43567005Y-21537084D01*
X43887005Y-21473432D01*
X44207005Y-21537084D01*
X46107005Y-21537084D01*
X46479237Y-21463042D01*
X46794800Y-21252190D01*
X47005652Y-20936627D01*
X47079694Y-20564395D01*
X47079694Y-17564395D01*
X48314316Y-17564395D01*
X48314316Y-20564395D01*
X48388358Y-20936627D01*
X48599210Y-21252190D01*
X48914773Y-21463042D01*
X49287005Y-21537084D01*
X51187005Y-21537084D01*
X51559237Y-21463042D01*
X51874800Y-21252190D01*
X52085652Y-20936627D01*
X52159694Y-20564395D01*
X52159694Y-17564395D01*
X53394316Y-17564395D01*
X53394316Y-20564395D01*
X53468358Y-20936627D01*
X53679210Y-21252190D01*
X53994773Y-21463042D01*
X54367005Y-21537084D01*
X56267005Y-21537084D01*
X56639237Y-21463042D01*
X56954800Y-21252190D01*
X57165652Y-20936627D01*
X57239694Y-20564395D01*
X57239694Y-17564395D01*
X61014316Y-17564395D01*
X61014316Y-20564395D01*
X61088358Y-20936627D01*
X61299210Y-21252190D01*
X61614773Y-21463042D01*
X61987005Y-21537084D01*
X63887005Y-21537084D01*
X64259237Y-21463042D01*
X64574800Y-21252190D01*
X64785652Y-20936627D01*
X64859694Y-20564395D01*
X64859694Y-17564395D01*
X66094316Y-17564395D01*
X66094316Y-20564395D01*
X66168358Y-20936627D01*
X66379210Y-21252190D01*
X66694773Y-21463042D01*
X67067005Y-21537084D01*
X68967005Y-21537084D01*
X69287005Y-21473432D01*
X69607005Y-21537084D01*
X71507005Y-21537084D01*
X71879237Y-21463042D01*
X72194800Y-21252190D01*
X72405652Y-20936627D01*
X72479694Y-20564395D01*
X72479694Y-17564395D01*
X72405652Y-17192163D01*
X72345407Y-17102000D01*
X73848603Y-17102000D01*
X73788358Y-17192163D01*
X73714316Y-17564395D01*
X73714316Y-20564395D01*
X73788358Y-20936627D01*
X73999210Y-21252190D01*
X74314773Y-21463042D01*
X74687005Y-21537084D01*
X76587005Y-21537084D01*
X76959237Y-21463042D01*
X77274800Y-21252190D01*
X77485652Y-20936627D01*
X77559694Y-20564395D01*
X77559694Y-17564395D01*
X77485652Y-17192163D01*
X77274800Y-16876600D01*
X76959237Y-16665748D01*
X76587005Y-16591706D01*
X76437910Y-16591706D01*
X76646000Y-16089334D01*
X76646000Y-15406666D01*
X76384754Y-14775964D01*
X75902036Y-14293246D01*
X75271334Y-14032000D01*
X74588666Y-14032000D01*
X73957964Y-14293246D01*
X73857210Y-14394000D01*
X68927549Y-14394000D01*
X68794198Y-14367475D01*
X68660848Y-14394000D01*
X68660844Y-14394000D01*
X68265895Y-14472560D01*
X68224530Y-14500199D01*
X67984666Y-14500199D01*
X67353964Y-14761445D01*
X66871246Y-15244163D01*
X66610000Y-15874865D01*
X66610000Y-16557533D01*
X66663484Y-16686655D01*
X66379210Y-16876600D01*
X66168358Y-17192163D01*
X66094316Y-17564395D01*
X64859694Y-17564395D01*
X64785652Y-17192163D01*
X64574800Y-16876600D01*
X64259237Y-16665748D01*
X63887005Y-16591706D01*
X61987005Y-16591706D01*
X61614773Y-16665748D01*
X61299210Y-16876600D01*
X61088358Y-17192163D01*
X61014316Y-17564395D01*
X57239694Y-17564395D01*
X57165652Y-17192163D01*
X56954800Y-16876600D01*
X56639237Y-16665748D01*
X56267005Y-16591706D01*
X54367005Y-16591706D01*
X53994773Y-16665748D01*
X53679210Y-16876600D01*
X53468358Y-17192163D01*
X53394316Y-17564395D01*
X52159694Y-17564395D01*
X52085652Y-17192163D01*
X51874800Y-16876600D01*
X51559237Y-16665748D01*
X51187005Y-16591706D01*
X49287005Y-16591706D01*
X48914773Y-16665748D01*
X48599210Y-16876600D01*
X48388358Y-17192163D01*
X48314316Y-17564395D01*
X47079694Y-17564395D01*
X47005652Y-17192163D01*
X46794800Y-16876600D01*
X46479237Y-16665748D01*
X46107005Y-16591706D01*
X44207005Y-16591706D01*
X43887005Y-16655358D01*
X43567005Y-16591706D01*
X41667005Y-16591706D01*
X41294773Y-16665748D01*
X40979210Y-16876600D01*
X40768358Y-17192163D01*
X40694316Y-17564395D01*
X36919694Y-17564395D01*
X36845652Y-17192163D01*
X36634800Y-16876600D01*
X36319237Y-16665748D01*
X35947005Y-16591706D01*
X34047005Y-16591706D01*
X33674773Y-16665748D01*
X33359210Y-16876600D01*
X33148358Y-17192163D01*
X33074316Y-17564395D01*
X31839694Y-17564395D01*
X31765652Y-17192163D01*
X31554800Y-16876600D01*
X31239237Y-16665748D01*
X30867005Y-16591706D01*
X28967005Y-16591706D01*
X28647005Y-16655358D01*
X28327005Y-16591706D01*
X26427005Y-16591706D01*
X26054773Y-16665748D01*
X25739210Y-16876600D01*
X25528358Y-17192163D01*
X25454316Y-17564395D01*
X23976800Y-17564395D01*
X23976800Y-12546800D01*
X79401201Y-12546800D01*
X79401200Y-45619200D01*
X79401200Y-45619200D01*
G37*
X79401200Y-45619200D02*
X23976800Y-45619200D01*
X23976800Y-39914304D01*
X45152000Y-39914304D01*
X45152000Y-41049696D01*
X45586496Y-42098661D01*
X46389339Y-42901504D01*
X47438304Y-43336000D01*
X48573696Y-43336000D01*
X49622661Y-42901504D01*
X50425504Y-42098661D01*
X50860000Y-41049696D01*
X50860000Y-39914304D01*
X50425504Y-38865339D01*
X49622661Y-38062496D01*
X48573696Y-37628000D01*
X47438304Y-37628000D01*
X46389339Y-38062496D01*
X45586496Y-38865339D01*
X45152000Y-39914304D01*
X23976800Y-39914304D01*
X23976800Y-35629954D01*
X72992288Y-35629954D01*
X72992288Y-36312622D01*
X73253534Y-36943324D01*
X73736252Y-37426042D01*
X74366954Y-37687288D01*
X74509443Y-37687288D01*
X76116000Y-39293846D01*
X76116000Y-39313210D01*
X76015246Y-39413964D01*
X75754000Y-40044666D01*
X75754000Y-40727334D01*
X76015246Y-41358036D01*
X76497964Y-41840754D01*
X77128666Y-42102000D01*
X77811334Y-42102000D01*
X78442036Y-41840754D01*
X78924754Y-41358036D01*
X79186000Y-40727334D01*
X79186000Y-40044666D01*
X78924754Y-39413964D01*
X78824000Y-39313210D01*
X78824000Y-38866351D01*
X78850525Y-38733000D01*
X78824000Y-38599649D01*
X78824000Y-38599645D01*
X78745440Y-38204696D01*
X78650425Y-38062496D01*
X78521719Y-37869873D01*
X78521716Y-37869870D01*
X78446179Y-37756821D01*
X78333129Y-37681284D01*
X76424288Y-35772443D01*
X76424288Y-35629954D01*
X76163042Y-34999252D01*
X75680324Y-34516534D01*
X75049622Y-34255288D01*
X74366954Y-34255288D01*
X73736252Y-34516534D01*
X73253534Y-34999252D01*
X72992288Y-35629954D01*
X23976800Y-35629954D01*
X23976800Y-27852666D01*
X54672000Y-27852666D01*
X54672000Y-28535334D01*
X54933246Y-29166036D01*
X55415964Y-29648754D01*
X56046666Y-29910000D01*
X56729334Y-29910000D01*
X57360036Y-29648754D01*
X57460790Y-29548000D01*
X59125210Y-29548000D01*
X59225964Y-29648754D01*
X59856666Y-29910000D01*
X60539334Y-29910000D01*
X61170036Y-29648754D01*
X61652754Y-29166036D01*
X61914000Y-28535334D01*
X61914000Y-27852666D01*
X61652754Y-27221964D01*
X61170036Y-26739246D01*
X60539334Y-26478000D01*
X59856666Y-26478000D01*
X59225964Y-26739246D01*
X59125210Y-26840000D01*
X57460790Y-26840000D01*
X57360036Y-26739246D01*
X56729334Y-26478000D01*
X56046666Y-26478000D01*
X55415964Y-26739246D01*
X54933246Y-27221964D01*
X54672000Y-27852666D01*
X23976800Y-27852666D01*
X23976800Y-24434676D01*
X68134000Y-24434676D01*
X68134000Y-25117344D01*
X68395246Y-25748046D01*
X68877964Y-26230764D01*
X69508666Y-26492010D01*
X70191334Y-26492010D01*
X70822036Y-26230764D01*
X71031256Y-26021544D01*
X73995210Y-26021544D01*
X74095964Y-26122298D01*
X74726666Y-26383544D01*
X75409334Y-26383544D01*
X76040036Y-26122298D01*
X76522754Y-25639580D01*
X76784000Y-25008878D01*
X76784000Y-24326210D01*
X76522754Y-23695508D01*
X76040036Y-23212790D01*
X75409334Y-22951544D01*
X74726666Y-22951544D01*
X74095964Y-23212790D01*
X73995210Y-23313544D01*
X70803418Y-23313544D01*
X70191334Y-23060010D01*
X69508666Y-23060010D01*
X68877964Y-23321256D01*
X68395246Y-23803974D01*
X68134000Y-24434676D01*
X23976800Y-24434676D01*
X23976800Y-17564395D01*
X25454316Y-17564395D01*
X25454316Y-20564395D01*
X25528358Y-20936627D01*
X25739210Y-21252190D01*
X26054773Y-21463042D01*
X26427005Y-21537084D01*
X28327005Y-21537084D01*
X28647005Y-21473432D01*
X28967005Y-21537084D01*
X30867005Y-21537084D01*
X31239237Y-21463042D01*
X31554800Y-21252190D01*
X31765652Y-20936627D01*
X31839694Y-20564395D01*
X31839694Y-17564395D01*
X33074316Y-17564395D01*
X33074316Y-20564395D01*
X33148358Y-20936627D01*
X33359210Y-21252190D01*
X33674773Y-21463042D01*
X34047005Y-21537084D01*
X35947005Y-21537084D01*
X36319237Y-21463042D01*
X36634800Y-21252190D01*
X36845652Y-20936627D01*
X36919694Y-20564395D01*
X36919694Y-17564395D01*
X40694316Y-17564395D01*
X40694316Y-20564395D01*
X40768358Y-20936627D01*
X40979210Y-21252190D01*
X41294773Y-21463042D01*
X41667005Y-21537084D01*
X43567005Y-21537084D01*
X43887005Y-21473432D01*
X44207005Y-21537084D01*
X46107005Y-21537084D01*
X46479237Y-21463042D01*
X46794800Y-21252190D01*
X47005652Y-20936627D01*
X47079694Y-20564395D01*
X47079694Y-17564395D01*
X48314316Y-17564395D01*
X48314316Y-20564395D01*
X48388358Y-20936627D01*
X48599210Y-21252190D01*
X48914773Y-21463042D01*
X49287005Y-21537084D01*
X51187005Y-21537084D01*
X51559237Y-21463042D01*
X51874800Y-21252190D01*
X52085652Y-20936627D01*
X52159694Y-20564395D01*
X52159694Y-17564395D01*
X53394316Y-17564395D01*
X53394316Y-20564395D01*
X53468358Y-20936627D01*
X53679210Y-21252190D01*
X53994773Y-21463042D01*
X54367005Y-21537084D01*
X56267005Y-21537084D01*
X56639237Y-21463042D01*
X56954800Y-21252190D01*
X57165652Y-20936627D01*
X57239694Y-20564395D01*
X57239694Y-17564395D01*
X61014316Y-17564395D01*
X61014316Y-20564395D01*
X61088358Y-20936627D01*
X61299210Y-21252190D01*
X61614773Y-21463042D01*
X61987005Y-21537084D01*
X63887005Y-21537084D01*
X64259237Y-21463042D01*
X64574800Y-21252190D01*
X64785652Y-20936627D01*
X64859694Y-20564395D01*
X64859694Y-17564395D01*
X66094316Y-17564395D01*
X66094316Y-20564395D01*
X66168358Y-20936627D01*
X66379210Y-21252190D01*
X66694773Y-21463042D01*
X67067005Y-21537084D01*
X68967005Y-21537084D01*
X69287005Y-21473432D01*
X69607005Y-21537084D01*
X71507005Y-21537084D01*
X71879237Y-21463042D01*
X72194800Y-21252190D01*
X72405652Y-20936627D01*
X72479694Y-20564395D01*
X72479694Y-17564395D01*
X72405652Y-17192163D01*
X72345407Y-17102000D01*
X73848603Y-17102000D01*
X73788358Y-17192163D01*
X73714316Y-17564395D01*
X73714316Y-20564395D01*
X73788358Y-20936627D01*
X73999210Y-21252190D01*
X74314773Y-21463042D01*
X74687005Y-21537084D01*
X76587005Y-21537084D01*
X76959237Y-21463042D01*
X77274800Y-21252190D01*
X77485652Y-20936627D01*
X77559694Y-20564395D01*
X77559694Y-17564395D01*
X77485652Y-17192163D01*
X77274800Y-16876600D01*
X76959237Y-16665748D01*
X76587005Y-16591706D01*
X76437910Y-16591706D01*
X76646000Y-16089334D01*
X76646000Y-15406666D01*
X76384754Y-14775964D01*
X75902036Y-14293246D01*
X75271334Y-14032000D01*
X74588666Y-14032000D01*
X73957964Y-14293246D01*
X73857210Y-14394000D01*
X68927549Y-14394000D01*
X68794198Y-14367475D01*
X68660848Y-14394000D01*
X68660844Y-14394000D01*
X68265895Y-14472560D01*
X68224530Y-14500199D01*
X67984666Y-14500199D01*
X67353964Y-14761445D01*
X66871246Y-15244163D01*
X66610000Y-15874865D01*
X66610000Y-16557533D01*
X66663484Y-16686655D01*
X66379210Y-16876600D01*
X66168358Y-17192163D01*
X66094316Y-17564395D01*
X64859694Y-17564395D01*
X64785652Y-17192163D01*
X64574800Y-16876600D01*
X64259237Y-16665748D01*
X63887005Y-16591706D01*
X61987005Y-16591706D01*
X61614773Y-16665748D01*
X61299210Y-16876600D01*
X61088358Y-17192163D01*
X61014316Y-17564395D01*
X57239694Y-17564395D01*
X57165652Y-17192163D01*
X56954800Y-16876600D01*
X56639237Y-16665748D01*
X56267005Y-16591706D01*
X54367005Y-16591706D01*
X53994773Y-16665748D01*
X53679210Y-16876600D01*
X53468358Y-17192163D01*
X53394316Y-17564395D01*
X52159694Y-17564395D01*
X52085652Y-17192163D01*
X51874800Y-16876600D01*
X51559237Y-16665748D01*
X51187005Y-16591706D01*
X49287005Y-16591706D01*
X48914773Y-16665748D01*
X48599210Y-16876600D01*
X48388358Y-17192163D01*
X48314316Y-17564395D01*
X47079694Y-17564395D01*
X47005652Y-17192163D01*
X46794800Y-16876600D01*
X46479237Y-16665748D01*
X46107005Y-16591706D01*
X44207005Y-16591706D01*
X43887005Y-16655358D01*
X43567005Y-16591706D01*
X41667005Y-16591706D01*
X41294773Y-16665748D01*
X40979210Y-16876600D01*
X40768358Y-17192163D01*
X40694316Y-17564395D01*
X36919694Y-17564395D01*
X36845652Y-17192163D01*
X36634800Y-16876600D01*
X36319237Y-16665748D01*
X35947005Y-16591706D01*
X34047005Y-16591706D01*
X33674773Y-16665748D01*
X33359210Y-16876600D01*
X33148358Y-17192163D01*
X33074316Y-17564395D01*
X31839694Y-17564395D01*
X31765652Y-17192163D01*
X31554800Y-16876600D01*
X31239237Y-16665748D01*
X30867005Y-16591706D01*
X28967005Y-16591706D01*
X28647005Y-16655358D01*
X28327005Y-16591706D01*
X26427005Y-16591706D01*
X26054773Y-16665748D01*
X25739210Y-16876600D01*
X25528358Y-17192163D01*
X25454316Y-17564395D01*
X23976800Y-17564395D01*
X23976800Y-12546800D01*
X79401201Y-12546800D01*
X79401200Y-45619200D01*
G04 #@! TD*
M02*
