G04 #@! TF.GenerationSoftware,KiCad,Pcbnew,(5.0.0)*
G04 #@! TF.CreationDate,2018-09-03T01:16:15-03:00*
G04 #@! TF.ProjectId,Signal,5369676E616C2E6B696361645F706362,rev?*
G04 #@! TF.SameCoordinates,Original*
G04 #@! TF.FileFunction,Copper,L2,Bot,Signal*
G04 #@! TF.FilePolarity,Positive*
%FSLAX46Y46*%
G04 Gerber Fmt 4.6, Leading zero omitted, Abs format (unit mm)*
G04 Created by KiCad (PCBNEW (5.0.0)) date 09/03/18 01:16:15*
%MOMM*%
%LPD*%
G01*
G04 APERTURE LIST*
G04 #@! TA.AperFunction,ComponentPad*
%ADD10R,1.900000X3.000000*%
G04 #@! TD*
G04 #@! TA.AperFunction,Conductor*
%ADD11C,0.100000*%
G04 #@! TD*
G04 #@! TA.AperFunction,SMDPad,CuDef*
%ADD12C,1.150000*%
G04 #@! TD*
G04 #@! TA.AperFunction,SMDPad,CuDef*
%ADD13C,1.300000*%
G04 #@! TD*
G04 #@! TA.AperFunction,SMDPad,CuDef*
%ADD14R,0.600000X1.550000*%
G04 #@! TD*
G04 #@! TA.AperFunction,SMDPad,CuDef*
%ADD15R,0.600000X1.500000*%
G04 #@! TD*
G04 #@! TA.AperFunction,ComponentPad*
%ADD16C,3.800000*%
G04 #@! TD*
G04 #@! TA.AperFunction,SMDPad,CuDef*
%ADD17R,0.900000X0.800000*%
G04 #@! TD*
G04 #@! TA.AperFunction,ViaPad*
%ADD18C,1.524000*%
G04 #@! TD*
G04 #@! TA.AperFunction,Conductor*
%ADD19C,0.800000*%
G04 #@! TD*
G04 #@! TA.AperFunction,Conductor*
%ADD20C,0.508000*%
G04 #@! TD*
G04 #@! TA.AperFunction,Conductor*
%ADD21C,0.304800*%
G04 #@! TD*
G04 APERTURE END LIST*
D10*
G04 #@! TO.P,U2,14*
G04 #@! TO.N,/BatOVInterrupt*
X68017005Y-19064395D03*
G04 #@! TO.P,U2,13*
G04 #@! TO.N,/Vbat*
X62937005Y-19064395D03*
G04 #@! TO.P,U2,12*
G04 #@! TO.N,GNDA*
X60397005Y-19064395D03*
G04 #@! TO.P,U2,11*
X57857005Y-19064395D03*
G04 #@! TO.P,U2,10*
G04 #@! TO.N,/Vbat_SIG_IN*
X55317005Y-19064395D03*
G04 #@! TO.P,U2,9*
G04 #@! TO.N,/Ipanel*
X50237005Y-19064395D03*
G04 #@! TO.P,U2,8*
G04 #@! TO.N,GNDA*
X47697005Y-19064395D03*
G04 #@! TO.P,U2,7*
G04 #@! TO.N,/Ipanel_Ref*
X45157005Y-19064395D03*
G04 #@! TO.P,U2,6*
G04 #@! TO.N,/Ipanel_SIG*
X42617005Y-19064395D03*
G04 #@! TO.P,U2,5*
G04 #@! TO.N,GNDA*
X40077005Y-19064395D03*
G04 #@! TO.P,U2,4*
G04 #@! TO.N,/Vpanel*
X34997005Y-19064395D03*
G04 #@! TO.P,U2,3*
G04 #@! TO.N,GNDA*
X32457005Y-19064395D03*
G04 #@! TO.P,U2,2*
G04 #@! TO.N,/Vpanel_SIG*
X29917005Y-19064395D03*
G04 #@! TO.P,U2,1*
G04 #@! TO.N,/Vpanel_Ref*
X27377005Y-19064395D03*
G04 #@! TO.P,U2,15*
G04 #@! TO.N,/PWM*
X70557005Y-19064395D03*
G04 #@! TO.P,U2,16*
G04 #@! TO.N,GNDA*
X73097005Y-19064395D03*
G04 #@! TO.P,U2,17*
G04 #@! TO.N,+5VA*
X75637005Y-19064395D03*
G04 #@! TD*
D11*
G04 #@! TO.N,/PWM*
G04 #@! TO.C,R1*
G36*
X73880505Y-26595204D02*
X73904773Y-26598804D01*
X73928572Y-26604765D01*
X73951671Y-26613030D01*
X73973850Y-26623520D01*
X73994893Y-26636132D01*
X74014599Y-26650747D01*
X74032777Y-26667223D01*
X74049253Y-26685401D01*
X74063868Y-26705107D01*
X74076480Y-26726150D01*
X74086970Y-26748329D01*
X74095235Y-26771428D01*
X74101196Y-26795227D01*
X74104796Y-26819495D01*
X74106000Y-26843999D01*
X74106000Y-27494001D01*
X74104796Y-27518505D01*
X74101196Y-27542773D01*
X74095235Y-27566572D01*
X74086970Y-27589671D01*
X74076480Y-27611850D01*
X74063868Y-27632893D01*
X74049253Y-27652599D01*
X74032777Y-27670777D01*
X74014599Y-27687253D01*
X73994893Y-27701868D01*
X73973850Y-27714480D01*
X73951671Y-27724970D01*
X73928572Y-27733235D01*
X73904773Y-27739196D01*
X73880505Y-27742796D01*
X73856001Y-27744000D01*
X72955999Y-27744000D01*
X72931495Y-27742796D01*
X72907227Y-27739196D01*
X72883428Y-27733235D01*
X72860329Y-27724970D01*
X72838150Y-27714480D01*
X72817107Y-27701868D01*
X72797401Y-27687253D01*
X72779223Y-27670777D01*
X72762747Y-27652599D01*
X72748132Y-27632893D01*
X72735520Y-27611850D01*
X72725030Y-27589671D01*
X72716765Y-27566572D01*
X72710804Y-27542773D01*
X72707204Y-27518505D01*
X72706000Y-27494001D01*
X72706000Y-26843999D01*
X72707204Y-26819495D01*
X72710804Y-26795227D01*
X72716765Y-26771428D01*
X72725030Y-26748329D01*
X72735520Y-26726150D01*
X72748132Y-26705107D01*
X72762747Y-26685401D01*
X72779223Y-26667223D01*
X72797401Y-26650747D01*
X72817107Y-26636132D01*
X72838150Y-26623520D01*
X72860329Y-26613030D01*
X72883428Y-26604765D01*
X72907227Y-26598804D01*
X72931495Y-26595204D01*
X72955999Y-26594000D01*
X73856001Y-26594000D01*
X73880505Y-26595204D01*
X73880505Y-26595204D01*
G37*
D12*
G04 #@! TD*
G04 #@! TO.P,R1,1*
G04 #@! TO.N,/PWM*
X73406000Y-27169000D03*
D11*
G04 #@! TO.N,Net-(Q1-Pad3)*
G04 #@! TO.C,R1*
G36*
X73880505Y-28645204D02*
X73904773Y-28648804D01*
X73928572Y-28654765D01*
X73951671Y-28663030D01*
X73973850Y-28673520D01*
X73994893Y-28686132D01*
X74014599Y-28700747D01*
X74032777Y-28717223D01*
X74049253Y-28735401D01*
X74063868Y-28755107D01*
X74076480Y-28776150D01*
X74086970Y-28798329D01*
X74095235Y-28821428D01*
X74101196Y-28845227D01*
X74104796Y-28869495D01*
X74106000Y-28893999D01*
X74106000Y-29544001D01*
X74104796Y-29568505D01*
X74101196Y-29592773D01*
X74095235Y-29616572D01*
X74086970Y-29639671D01*
X74076480Y-29661850D01*
X74063868Y-29682893D01*
X74049253Y-29702599D01*
X74032777Y-29720777D01*
X74014599Y-29737253D01*
X73994893Y-29751868D01*
X73973850Y-29764480D01*
X73951671Y-29774970D01*
X73928572Y-29783235D01*
X73904773Y-29789196D01*
X73880505Y-29792796D01*
X73856001Y-29794000D01*
X72955999Y-29794000D01*
X72931495Y-29792796D01*
X72907227Y-29789196D01*
X72883428Y-29783235D01*
X72860329Y-29774970D01*
X72838150Y-29764480D01*
X72817107Y-29751868D01*
X72797401Y-29737253D01*
X72779223Y-29720777D01*
X72762747Y-29702599D01*
X72748132Y-29682893D01*
X72735520Y-29661850D01*
X72725030Y-29639671D01*
X72716765Y-29616572D01*
X72710804Y-29592773D01*
X72707204Y-29568505D01*
X72706000Y-29544001D01*
X72706000Y-28893999D01*
X72707204Y-28869495D01*
X72710804Y-28845227D01*
X72716765Y-28821428D01*
X72725030Y-28798329D01*
X72735520Y-28776150D01*
X72748132Y-28755107D01*
X72762747Y-28735401D01*
X72779223Y-28717223D01*
X72797401Y-28700747D01*
X72817107Y-28686132D01*
X72838150Y-28673520D01*
X72860329Y-28663030D01*
X72883428Y-28654765D01*
X72907227Y-28648804D01*
X72931495Y-28645204D01*
X72955999Y-28644000D01*
X73856001Y-28644000D01*
X73880505Y-28645204D01*
X73880505Y-28645204D01*
G37*
D12*
G04 #@! TD*
G04 #@! TO.P,R1,2*
G04 #@! TO.N,Net-(Q1-Pad3)*
X73406000Y-29219000D03*
D11*
G04 #@! TO.N,+5VA*
G04 #@! TO.C,C1*
G36*
X56989505Y-35376204D02*
X57013773Y-35379804D01*
X57037572Y-35385765D01*
X57060671Y-35394030D01*
X57082850Y-35404520D01*
X57103893Y-35417132D01*
X57123599Y-35431747D01*
X57141777Y-35448223D01*
X57158253Y-35466401D01*
X57172868Y-35486107D01*
X57185480Y-35507150D01*
X57195970Y-35529329D01*
X57204235Y-35552428D01*
X57210196Y-35576227D01*
X57213796Y-35600495D01*
X57215000Y-35624999D01*
X57215000Y-36275001D01*
X57213796Y-36299505D01*
X57210196Y-36323773D01*
X57204235Y-36347572D01*
X57195970Y-36370671D01*
X57185480Y-36392850D01*
X57172868Y-36413893D01*
X57158253Y-36433599D01*
X57141777Y-36451777D01*
X57123599Y-36468253D01*
X57103893Y-36482868D01*
X57082850Y-36495480D01*
X57060671Y-36505970D01*
X57037572Y-36514235D01*
X57013773Y-36520196D01*
X56989505Y-36523796D01*
X56965001Y-36525000D01*
X56064999Y-36525000D01*
X56040495Y-36523796D01*
X56016227Y-36520196D01*
X55992428Y-36514235D01*
X55969329Y-36505970D01*
X55947150Y-36495480D01*
X55926107Y-36482868D01*
X55906401Y-36468253D01*
X55888223Y-36451777D01*
X55871747Y-36433599D01*
X55857132Y-36413893D01*
X55844520Y-36392850D01*
X55834030Y-36370671D01*
X55825765Y-36347572D01*
X55819804Y-36323773D01*
X55816204Y-36299505D01*
X55815000Y-36275001D01*
X55815000Y-35624999D01*
X55816204Y-35600495D01*
X55819804Y-35576227D01*
X55825765Y-35552428D01*
X55834030Y-35529329D01*
X55844520Y-35507150D01*
X55857132Y-35486107D01*
X55871747Y-35466401D01*
X55888223Y-35448223D01*
X55906401Y-35431747D01*
X55926107Y-35417132D01*
X55947150Y-35404520D01*
X55969329Y-35394030D01*
X55992428Y-35385765D01*
X56016227Y-35379804D01*
X56040495Y-35376204D01*
X56064999Y-35375000D01*
X56965001Y-35375000D01*
X56989505Y-35376204D01*
X56989505Y-35376204D01*
G37*
D12*
G04 #@! TD*
G04 #@! TO.P,C1,2*
G04 #@! TO.N,+5VA*
X56515000Y-35950000D03*
D11*
G04 #@! TO.N,GNDA*
G04 #@! TO.C,C1*
G36*
X56989505Y-33326204D02*
X57013773Y-33329804D01*
X57037572Y-33335765D01*
X57060671Y-33344030D01*
X57082850Y-33354520D01*
X57103893Y-33367132D01*
X57123599Y-33381747D01*
X57141777Y-33398223D01*
X57158253Y-33416401D01*
X57172868Y-33436107D01*
X57185480Y-33457150D01*
X57195970Y-33479329D01*
X57204235Y-33502428D01*
X57210196Y-33526227D01*
X57213796Y-33550495D01*
X57215000Y-33574999D01*
X57215000Y-34225001D01*
X57213796Y-34249505D01*
X57210196Y-34273773D01*
X57204235Y-34297572D01*
X57195970Y-34320671D01*
X57185480Y-34342850D01*
X57172868Y-34363893D01*
X57158253Y-34383599D01*
X57141777Y-34401777D01*
X57123599Y-34418253D01*
X57103893Y-34432868D01*
X57082850Y-34445480D01*
X57060671Y-34455970D01*
X57037572Y-34464235D01*
X57013773Y-34470196D01*
X56989505Y-34473796D01*
X56965001Y-34475000D01*
X56064999Y-34475000D01*
X56040495Y-34473796D01*
X56016227Y-34470196D01*
X55992428Y-34464235D01*
X55969329Y-34455970D01*
X55947150Y-34445480D01*
X55926107Y-34432868D01*
X55906401Y-34418253D01*
X55888223Y-34401777D01*
X55871747Y-34383599D01*
X55857132Y-34363893D01*
X55844520Y-34342850D01*
X55834030Y-34320671D01*
X55825765Y-34297572D01*
X55819804Y-34273773D01*
X55816204Y-34249505D01*
X55815000Y-34225001D01*
X55815000Y-33574999D01*
X55816204Y-33550495D01*
X55819804Y-33526227D01*
X55825765Y-33502428D01*
X55834030Y-33479329D01*
X55844520Y-33457150D01*
X55857132Y-33436107D01*
X55871747Y-33416401D01*
X55888223Y-33398223D01*
X55906401Y-33381747D01*
X55926107Y-33367132D01*
X55947150Y-33354520D01*
X55969329Y-33344030D01*
X55992428Y-33335765D01*
X56016227Y-33329804D01*
X56040495Y-33326204D01*
X56064999Y-33325000D01*
X56965001Y-33325000D01*
X56989505Y-33326204D01*
X56989505Y-33326204D01*
G37*
D12*
G04 #@! TD*
G04 #@! TO.P,C1,1*
G04 #@! TO.N,GNDA*
X56515000Y-33900000D03*
D11*
G04 #@! TO.N,Net-(R12-Pad2)*
G04 #@! TO.C,R7*
G36*
X67022505Y-26232204D02*
X67046773Y-26235804D01*
X67070572Y-26241765D01*
X67093671Y-26250030D01*
X67115850Y-26260520D01*
X67136893Y-26273132D01*
X67156599Y-26287747D01*
X67174777Y-26304223D01*
X67191253Y-26322401D01*
X67205868Y-26342107D01*
X67218480Y-26363150D01*
X67228970Y-26385329D01*
X67237235Y-26408428D01*
X67243196Y-26432227D01*
X67246796Y-26456495D01*
X67248000Y-26480999D01*
X67248000Y-27131001D01*
X67246796Y-27155505D01*
X67243196Y-27179773D01*
X67237235Y-27203572D01*
X67228970Y-27226671D01*
X67218480Y-27248850D01*
X67205868Y-27269893D01*
X67191253Y-27289599D01*
X67174777Y-27307777D01*
X67156599Y-27324253D01*
X67136893Y-27338868D01*
X67115850Y-27351480D01*
X67093671Y-27361970D01*
X67070572Y-27370235D01*
X67046773Y-27376196D01*
X67022505Y-27379796D01*
X66998001Y-27381000D01*
X66097999Y-27381000D01*
X66073495Y-27379796D01*
X66049227Y-27376196D01*
X66025428Y-27370235D01*
X66002329Y-27361970D01*
X65980150Y-27351480D01*
X65959107Y-27338868D01*
X65939401Y-27324253D01*
X65921223Y-27307777D01*
X65904747Y-27289599D01*
X65890132Y-27269893D01*
X65877520Y-27248850D01*
X65867030Y-27226671D01*
X65858765Y-27203572D01*
X65852804Y-27179773D01*
X65849204Y-27155505D01*
X65848000Y-27131001D01*
X65848000Y-26480999D01*
X65849204Y-26456495D01*
X65852804Y-26432227D01*
X65858765Y-26408428D01*
X65867030Y-26385329D01*
X65877520Y-26363150D01*
X65890132Y-26342107D01*
X65904747Y-26322401D01*
X65921223Y-26304223D01*
X65939401Y-26287747D01*
X65959107Y-26273132D01*
X65980150Y-26260520D01*
X66002329Y-26250030D01*
X66025428Y-26241765D01*
X66049227Y-26235804D01*
X66073495Y-26232204D01*
X66097999Y-26231000D01*
X66998001Y-26231000D01*
X67022505Y-26232204D01*
X67022505Y-26232204D01*
G37*
D12*
G04 #@! TD*
G04 #@! TO.P,R7,1*
G04 #@! TO.N,Net-(R12-Pad2)*
X66548000Y-26806000D03*
D11*
G04 #@! TO.N,+5VA*
G04 #@! TO.C,R7*
G36*
X67022505Y-24182204D02*
X67046773Y-24185804D01*
X67070572Y-24191765D01*
X67093671Y-24200030D01*
X67115850Y-24210520D01*
X67136893Y-24223132D01*
X67156599Y-24237747D01*
X67174777Y-24254223D01*
X67191253Y-24272401D01*
X67205868Y-24292107D01*
X67218480Y-24313150D01*
X67228970Y-24335329D01*
X67237235Y-24358428D01*
X67243196Y-24382227D01*
X67246796Y-24406495D01*
X67248000Y-24430999D01*
X67248000Y-25081001D01*
X67246796Y-25105505D01*
X67243196Y-25129773D01*
X67237235Y-25153572D01*
X67228970Y-25176671D01*
X67218480Y-25198850D01*
X67205868Y-25219893D01*
X67191253Y-25239599D01*
X67174777Y-25257777D01*
X67156599Y-25274253D01*
X67136893Y-25288868D01*
X67115850Y-25301480D01*
X67093671Y-25311970D01*
X67070572Y-25320235D01*
X67046773Y-25326196D01*
X67022505Y-25329796D01*
X66998001Y-25331000D01*
X66097999Y-25331000D01*
X66073495Y-25329796D01*
X66049227Y-25326196D01*
X66025428Y-25320235D01*
X66002329Y-25311970D01*
X65980150Y-25301480D01*
X65959107Y-25288868D01*
X65939401Y-25274253D01*
X65921223Y-25257777D01*
X65904747Y-25239599D01*
X65890132Y-25219893D01*
X65877520Y-25198850D01*
X65867030Y-25176671D01*
X65858765Y-25153572D01*
X65852804Y-25129773D01*
X65849204Y-25105505D01*
X65848000Y-25081001D01*
X65848000Y-24430999D01*
X65849204Y-24406495D01*
X65852804Y-24382227D01*
X65858765Y-24358428D01*
X65867030Y-24335329D01*
X65877520Y-24313150D01*
X65890132Y-24292107D01*
X65904747Y-24272401D01*
X65921223Y-24254223D01*
X65939401Y-24237747D01*
X65959107Y-24223132D01*
X65980150Y-24210520D01*
X66002329Y-24200030D01*
X66025428Y-24191765D01*
X66049227Y-24185804D01*
X66073495Y-24182204D01*
X66097999Y-24181000D01*
X66998001Y-24181000D01*
X67022505Y-24182204D01*
X67022505Y-24182204D01*
G37*
D12*
G04 #@! TD*
G04 #@! TO.P,R7,2*
G04 #@! TO.N,+5VA*
X66548000Y-24756000D03*
D11*
G04 #@! TO.N,Net-(R12-Pad2)*
G04 #@! TO.C,R12*
G36*
X65117505Y-26232204D02*
X65141773Y-26235804D01*
X65165572Y-26241765D01*
X65188671Y-26250030D01*
X65210850Y-26260520D01*
X65231893Y-26273132D01*
X65251599Y-26287747D01*
X65269777Y-26304223D01*
X65286253Y-26322401D01*
X65300868Y-26342107D01*
X65313480Y-26363150D01*
X65323970Y-26385329D01*
X65332235Y-26408428D01*
X65338196Y-26432227D01*
X65341796Y-26456495D01*
X65343000Y-26480999D01*
X65343000Y-27131001D01*
X65341796Y-27155505D01*
X65338196Y-27179773D01*
X65332235Y-27203572D01*
X65323970Y-27226671D01*
X65313480Y-27248850D01*
X65300868Y-27269893D01*
X65286253Y-27289599D01*
X65269777Y-27307777D01*
X65251599Y-27324253D01*
X65231893Y-27338868D01*
X65210850Y-27351480D01*
X65188671Y-27361970D01*
X65165572Y-27370235D01*
X65141773Y-27376196D01*
X65117505Y-27379796D01*
X65093001Y-27381000D01*
X64192999Y-27381000D01*
X64168495Y-27379796D01*
X64144227Y-27376196D01*
X64120428Y-27370235D01*
X64097329Y-27361970D01*
X64075150Y-27351480D01*
X64054107Y-27338868D01*
X64034401Y-27324253D01*
X64016223Y-27307777D01*
X63999747Y-27289599D01*
X63985132Y-27269893D01*
X63972520Y-27248850D01*
X63962030Y-27226671D01*
X63953765Y-27203572D01*
X63947804Y-27179773D01*
X63944204Y-27155505D01*
X63943000Y-27131001D01*
X63943000Y-26480999D01*
X63944204Y-26456495D01*
X63947804Y-26432227D01*
X63953765Y-26408428D01*
X63962030Y-26385329D01*
X63972520Y-26363150D01*
X63985132Y-26342107D01*
X63999747Y-26322401D01*
X64016223Y-26304223D01*
X64034401Y-26287747D01*
X64054107Y-26273132D01*
X64075150Y-26260520D01*
X64097329Y-26250030D01*
X64120428Y-26241765D01*
X64144227Y-26235804D01*
X64168495Y-26232204D01*
X64192999Y-26231000D01*
X65093001Y-26231000D01*
X65117505Y-26232204D01*
X65117505Y-26232204D01*
G37*
D12*
G04 #@! TD*
G04 #@! TO.P,R12,2*
G04 #@! TO.N,Net-(R12-Pad2)*
X64643000Y-26806000D03*
D11*
G04 #@! TO.N,GNDA*
G04 #@! TO.C,R12*
G36*
X65117505Y-24182204D02*
X65141773Y-24185804D01*
X65165572Y-24191765D01*
X65188671Y-24200030D01*
X65210850Y-24210520D01*
X65231893Y-24223132D01*
X65251599Y-24237747D01*
X65269777Y-24254223D01*
X65286253Y-24272401D01*
X65300868Y-24292107D01*
X65313480Y-24313150D01*
X65323970Y-24335329D01*
X65332235Y-24358428D01*
X65338196Y-24382227D01*
X65341796Y-24406495D01*
X65343000Y-24430999D01*
X65343000Y-25081001D01*
X65341796Y-25105505D01*
X65338196Y-25129773D01*
X65332235Y-25153572D01*
X65323970Y-25176671D01*
X65313480Y-25198850D01*
X65300868Y-25219893D01*
X65286253Y-25239599D01*
X65269777Y-25257777D01*
X65251599Y-25274253D01*
X65231893Y-25288868D01*
X65210850Y-25301480D01*
X65188671Y-25311970D01*
X65165572Y-25320235D01*
X65141773Y-25326196D01*
X65117505Y-25329796D01*
X65093001Y-25331000D01*
X64192999Y-25331000D01*
X64168495Y-25329796D01*
X64144227Y-25326196D01*
X64120428Y-25320235D01*
X64097329Y-25311970D01*
X64075150Y-25301480D01*
X64054107Y-25288868D01*
X64034401Y-25274253D01*
X64016223Y-25257777D01*
X63999747Y-25239599D01*
X63985132Y-25219893D01*
X63972520Y-25198850D01*
X63962030Y-25176671D01*
X63953765Y-25153572D01*
X63947804Y-25129773D01*
X63944204Y-25105505D01*
X63943000Y-25081001D01*
X63943000Y-24430999D01*
X63944204Y-24406495D01*
X63947804Y-24382227D01*
X63953765Y-24358428D01*
X63962030Y-24335329D01*
X63972520Y-24313150D01*
X63985132Y-24292107D01*
X63999747Y-24272401D01*
X64016223Y-24254223D01*
X64034401Y-24237747D01*
X64054107Y-24223132D01*
X64075150Y-24210520D01*
X64097329Y-24200030D01*
X64120428Y-24191765D01*
X64144227Y-24185804D01*
X64168495Y-24182204D01*
X64192999Y-24181000D01*
X65093001Y-24181000D01*
X65117505Y-24182204D01*
X65117505Y-24182204D01*
G37*
D12*
G04 #@! TD*
G04 #@! TO.P,R12,1*
G04 #@! TO.N,GNDA*
X64643000Y-24756000D03*
D11*
G04 #@! TO.N,Net-(R8-Pad1)*
G04 #@! TO.C,R8*
G36*
X67160505Y-28511204D02*
X67184773Y-28514804D01*
X67208572Y-28520765D01*
X67231671Y-28529030D01*
X67253850Y-28539520D01*
X67274893Y-28552132D01*
X67294599Y-28566747D01*
X67312777Y-28583223D01*
X67329253Y-28601401D01*
X67343868Y-28621107D01*
X67356480Y-28642150D01*
X67366970Y-28664329D01*
X67375235Y-28687428D01*
X67381196Y-28711227D01*
X67384796Y-28735495D01*
X67386000Y-28759999D01*
X67386000Y-29660001D01*
X67384796Y-29684505D01*
X67381196Y-29708773D01*
X67375235Y-29732572D01*
X67366970Y-29755671D01*
X67356480Y-29777850D01*
X67343868Y-29798893D01*
X67329253Y-29818599D01*
X67312777Y-29836777D01*
X67294599Y-29853253D01*
X67274893Y-29867868D01*
X67253850Y-29880480D01*
X67231671Y-29890970D01*
X67208572Y-29899235D01*
X67184773Y-29905196D01*
X67160505Y-29908796D01*
X67136001Y-29910000D01*
X66485999Y-29910000D01*
X66461495Y-29908796D01*
X66437227Y-29905196D01*
X66413428Y-29899235D01*
X66390329Y-29890970D01*
X66368150Y-29880480D01*
X66347107Y-29867868D01*
X66327401Y-29853253D01*
X66309223Y-29836777D01*
X66292747Y-29818599D01*
X66278132Y-29798893D01*
X66265520Y-29777850D01*
X66255030Y-29755671D01*
X66246765Y-29732572D01*
X66240804Y-29708773D01*
X66237204Y-29684505D01*
X66236000Y-29660001D01*
X66236000Y-28759999D01*
X66237204Y-28735495D01*
X66240804Y-28711227D01*
X66246765Y-28687428D01*
X66255030Y-28664329D01*
X66265520Y-28642150D01*
X66278132Y-28621107D01*
X66292747Y-28601401D01*
X66309223Y-28583223D01*
X66327401Y-28566747D01*
X66347107Y-28552132D01*
X66368150Y-28539520D01*
X66390329Y-28529030D01*
X66413428Y-28520765D01*
X66437227Y-28514804D01*
X66461495Y-28511204D01*
X66485999Y-28510000D01*
X67136001Y-28510000D01*
X67160505Y-28511204D01*
X67160505Y-28511204D01*
G37*
D12*
G04 #@! TD*
G04 #@! TO.P,R8,1*
G04 #@! TO.N,Net-(R8-Pad1)*
X66811000Y-29210000D03*
D11*
G04 #@! TO.N,Net-(R12-Pad2)*
G04 #@! TO.C,R8*
G36*
X65110505Y-28511204D02*
X65134773Y-28514804D01*
X65158572Y-28520765D01*
X65181671Y-28529030D01*
X65203850Y-28539520D01*
X65224893Y-28552132D01*
X65244599Y-28566747D01*
X65262777Y-28583223D01*
X65279253Y-28601401D01*
X65293868Y-28621107D01*
X65306480Y-28642150D01*
X65316970Y-28664329D01*
X65325235Y-28687428D01*
X65331196Y-28711227D01*
X65334796Y-28735495D01*
X65336000Y-28759999D01*
X65336000Y-29660001D01*
X65334796Y-29684505D01*
X65331196Y-29708773D01*
X65325235Y-29732572D01*
X65316970Y-29755671D01*
X65306480Y-29777850D01*
X65293868Y-29798893D01*
X65279253Y-29818599D01*
X65262777Y-29836777D01*
X65244599Y-29853253D01*
X65224893Y-29867868D01*
X65203850Y-29880480D01*
X65181671Y-29890970D01*
X65158572Y-29899235D01*
X65134773Y-29905196D01*
X65110505Y-29908796D01*
X65086001Y-29910000D01*
X64435999Y-29910000D01*
X64411495Y-29908796D01*
X64387227Y-29905196D01*
X64363428Y-29899235D01*
X64340329Y-29890970D01*
X64318150Y-29880480D01*
X64297107Y-29867868D01*
X64277401Y-29853253D01*
X64259223Y-29836777D01*
X64242747Y-29818599D01*
X64228132Y-29798893D01*
X64215520Y-29777850D01*
X64205030Y-29755671D01*
X64196765Y-29732572D01*
X64190804Y-29708773D01*
X64187204Y-29684505D01*
X64186000Y-29660001D01*
X64186000Y-28759999D01*
X64187204Y-28735495D01*
X64190804Y-28711227D01*
X64196765Y-28687428D01*
X64205030Y-28664329D01*
X64215520Y-28642150D01*
X64228132Y-28621107D01*
X64242747Y-28601401D01*
X64259223Y-28583223D01*
X64277401Y-28566747D01*
X64297107Y-28552132D01*
X64318150Y-28539520D01*
X64340329Y-28529030D01*
X64363428Y-28520765D01*
X64387227Y-28514804D01*
X64411495Y-28511204D01*
X64435999Y-28510000D01*
X65086001Y-28510000D01*
X65110505Y-28511204D01*
X65110505Y-28511204D01*
G37*
D12*
G04 #@! TD*
G04 #@! TO.P,R8,2*
G04 #@! TO.N,Net-(R12-Pad2)*
X64761000Y-29210000D03*
D11*
G04 #@! TO.N,GNDA*
G04 #@! TO.C,D1*
G36*
X62613504Y-23227204D02*
X62637773Y-23230804D01*
X62661571Y-23236765D01*
X62684671Y-23245030D01*
X62706849Y-23255520D01*
X62727893Y-23268133D01*
X62747598Y-23282747D01*
X62765777Y-23299223D01*
X62782253Y-23317402D01*
X62796867Y-23337107D01*
X62809480Y-23358151D01*
X62819970Y-23380329D01*
X62828235Y-23403429D01*
X62834196Y-23427227D01*
X62837796Y-23451496D01*
X62839000Y-23476000D01*
X62839000Y-24276000D01*
X62837796Y-24300504D01*
X62834196Y-24324773D01*
X62828235Y-24348571D01*
X62819970Y-24371671D01*
X62809480Y-24393849D01*
X62796867Y-24414893D01*
X62782253Y-24434598D01*
X62765777Y-24452777D01*
X62747598Y-24469253D01*
X62727893Y-24483867D01*
X62706849Y-24496480D01*
X62684671Y-24506970D01*
X62661571Y-24515235D01*
X62637773Y-24521196D01*
X62613504Y-24524796D01*
X62589000Y-24526000D01*
X61764000Y-24526000D01*
X61739496Y-24524796D01*
X61715227Y-24521196D01*
X61691429Y-24515235D01*
X61668329Y-24506970D01*
X61646151Y-24496480D01*
X61625107Y-24483867D01*
X61605402Y-24469253D01*
X61587223Y-24452777D01*
X61570747Y-24434598D01*
X61556133Y-24414893D01*
X61543520Y-24393849D01*
X61533030Y-24371671D01*
X61524765Y-24348571D01*
X61518804Y-24324773D01*
X61515204Y-24300504D01*
X61514000Y-24276000D01*
X61514000Y-23476000D01*
X61515204Y-23451496D01*
X61518804Y-23427227D01*
X61524765Y-23403429D01*
X61533030Y-23380329D01*
X61543520Y-23358151D01*
X61556133Y-23337107D01*
X61570747Y-23317402D01*
X61587223Y-23299223D01*
X61605402Y-23282747D01*
X61625107Y-23268133D01*
X61646151Y-23255520D01*
X61668329Y-23245030D01*
X61691429Y-23236765D01*
X61715227Y-23230804D01*
X61739496Y-23227204D01*
X61764000Y-23226000D01*
X62589000Y-23226000D01*
X62613504Y-23227204D01*
X62613504Y-23227204D01*
G37*
D13*
G04 #@! TD*
G04 #@! TO.P,D1,2*
G04 #@! TO.N,GNDA*
X62176500Y-23876000D03*
D11*
G04 #@! TO.N,/Vbat*
G04 #@! TO.C,D1*
G36*
X60688504Y-23227204D02*
X60712773Y-23230804D01*
X60736571Y-23236765D01*
X60759671Y-23245030D01*
X60781849Y-23255520D01*
X60802893Y-23268133D01*
X60822598Y-23282747D01*
X60840777Y-23299223D01*
X60857253Y-23317402D01*
X60871867Y-23337107D01*
X60884480Y-23358151D01*
X60894970Y-23380329D01*
X60903235Y-23403429D01*
X60909196Y-23427227D01*
X60912796Y-23451496D01*
X60914000Y-23476000D01*
X60914000Y-24276000D01*
X60912796Y-24300504D01*
X60909196Y-24324773D01*
X60903235Y-24348571D01*
X60894970Y-24371671D01*
X60884480Y-24393849D01*
X60871867Y-24414893D01*
X60857253Y-24434598D01*
X60840777Y-24452777D01*
X60822598Y-24469253D01*
X60802893Y-24483867D01*
X60781849Y-24496480D01*
X60759671Y-24506970D01*
X60736571Y-24515235D01*
X60712773Y-24521196D01*
X60688504Y-24524796D01*
X60664000Y-24526000D01*
X59839000Y-24526000D01*
X59814496Y-24524796D01*
X59790227Y-24521196D01*
X59766429Y-24515235D01*
X59743329Y-24506970D01*
X59721151Y-24496480D01*
X59700107Y-24483867D01*
X59680402Y-24469253D01*
X59662223Y-24452777D01*
X59645747Y-24434598D01*
X59631133Y-24414893D01*
X59618520Y-24393849D01*
X59608030Y-24371671D01*
X59599765Y-24348571D01*
X59593804Y-24324773D01*
X59590204Y-24300504D01*
X59589000Y-24276000D01*
X59589000Y-23476000D01*
X59590204Y-23451496D01*
X59593804Y-23427227D01*
X59599765Y-23403429D01*
X59608030Y-23380329D01*
X59618520Y-23358151D01*
X59631133Y-23337107D01*
X59645747Y-23317402D01*
X59662223Y-23299223D01*
X59680402Y-23282747D01*
X59700107Y-23268133D01*
X59721151Y-23255520D01*
X59743329Y-23245030D01*
X59766429Y-23236765D01*
X59790227Y-23230804D01*
X59814496Y-23227204D01*
X59839000Y-23226000D01*
X60664000Y-23226000D01*
X60688504Y-23227204D01*
X60688504Y-23227204D01*
G37*
D13*
G04 #@! TD*
G04 #@! TO.P,D1,1*
G04 #@! TO.N,/Vbat*
X60251500Y-23876000D03*
D11*
G04 #@! TO.N,/Vpanel*
G04 #@! TO.C,D2*
G36*
X35984504Y-23776204D02*
X36008773Y-23779804D01*
X36032571Y-23785765D01*
X36055671Y-23794030D01*
X36077849Y-23804520D01*
X36098893Y-23817133D01*
X36118598Y-23831747D01*
X36136777Y-23848223D01*
X36153253Y-23866402D01*
X36167867Y-23886107D01*
X36180480Y-23907151D01*
X36190970Y-23929329D01*
X36199235Y-23952429D01*
X36205196Y-23976227D01*
X36208796Y-24000496D01*
X36210000Y-24025000D01*
X36210000Y-24850000D01*
X36208796Y-24874504D01*
X36205196Y-24898773D01*
X36199235Y-24922571D01*
X36190970Y-24945671D01*
X36180480Y-24967849D01*
X36167867Y-24988893D01*
X36153253Y-25008598D01*
X36136777Y-25026777D01*
X36118598Y-25043253D01*
X36098893Y-25057867D01*
X36077849Y-25070480D01*
X36055671Y-25080970D01*
X36032571Y-25089235D01*
X36008773Y-25095196D01*
X35984504Y-25098796D01*
X35960000Y-25100000D01*
X35160000Y-25100000D01*
X35135496Y-25098796D01*
X35111227Y-25095196D01*
X35087429Y-25089235D01*
X35064329Y-25080970D01*
X35042151Y-25070480D01*
X35021107Y-25057867D01*
X35001402Y-25043253D01*
X34983223Y-25026777D01*
X34966747Y-25008598D01*
X34952133Y-24988893D01*
X34939520Y-24967849D01*
X34929030Y-24945671D01*
X34920765Y-24922571D01*
X34914804Y-24898773D01*
X34911204Y-24874504D01*
X34910000Y-24850000D01*
X34910000Y-24025000D01*
X34911204Y-24000496D01*
X34914804Y-23976227D01*
X34920765Y-23952429D01*
X34929030Y-23929329D01*
X34939520Y-23907151D01*
X34952133Y-23886107D01*
X34966747Y-23866402D01*
X34983223Y-23848223D01*
X35001402Y-23831747D01*
X35021107Y-23817133D01*
X35042151Y-23804520D01*
X35064329Y-23794030D01*
X35087429Y-23785765D01*
X35111227Y-23779804D01*
X35135496Y-23776204D01*
X35160000Y-23775000D01*
X35960000Y-23775000D01*
X35984504Y-23776204D01*
X35984504Y-23776204D01*
G37*
D13*
G04 #@! TD*
G04 #@! TO.P,D2,1*
G04 #@! TO.N,/Vpanel*
X35560000Y-24437500D03*
D11*
G04 #@! TO.N,GNDA*
G04 #@! TO.C,D2*
G36*
X35984504Y-25701204D02*
X36008773Y-25704804D01*
X36032571Y-25710765D01*
X36055671Y-25719030D01*
X36077849Y-25729520D01*
X36098893Y-25742133D01*
X36118598Y-25756747D01*
X36136777Y-25773223D01*
X36153253Y-25791402D01*
X36167867Y-25811107D01*
X36180480Y-25832151D01*
X36190970Y-25854329D01*
X36199235Y-25877429D01*
X36205196Y-25901227D01*
X36208796Y-25925496D01*
X36210000Y-25950000D01*
X36210000Y-26775000D01*
X36208796Y-26799504D01*
X36205196Y-26823773D01*
X36199235Y-26847571D01*
X36190970Y-26870671D01*
X36180480Y-26892849D01*
X36167867Y-26913893D01*
X36153253Y-26933598D01*
X36136777Y-26951777D01*
X36118598Y-26968253D01*
X36098893Y-26982867D01*
X36077849Y-26995480D01*
X36055671Y-27005970D01*
X36032571Y-27014235D01*
X36008773Y-27020196D01*
X35984504Y-27023796D01*
X35960000Y-27025000D01*
X35160000Y-27025000D01*
X35135496Y-27023796D01*
X35111227Y-27020196D01*
X35087429Y-27014235D01*
X35064329Y-27005970D01*
X35042151Y-26995480D01*
X35021107Y-26982867D01*
X35001402Y-26968253D01*
X34983223Y-26951777D01*
X34966747Y-26933598D01*
X34952133Y-26913893D01*
X34939520Y-26892849D01*
X34929030Y-26870671D01*
X34920765Y-26847571D01*
X34914804Y-26823773D01*
X34911204Y-26799504D01*
X34910000Y-26775000D01*
X34910000Y-25950000D01*
X34911204Y-25925496D01*
X34914804Y-25901227D01*
X34920765Y-25877429D01*
X34929030Y-25854329D01*
X34939520Y-25832151D01*
X34952133Y-25811107D01*
X34966747Y-25791402D01*
X34983223Y-25773223D01*
X35001402Y-25756747D01*
X35021107Y-25742133D01*
X35042151Y-25729520D01*
X35064329Y-25719030D01*
X35087429Y-25710765D01*
X35111227Y-25704804D01*
X35135496Y-25701204D01*
X35160000Y-25700000D01*
X35960000Y-25700000D01*
X35984504Y-25701204D01*
X35984504Y-25701204D01*
G37*
D13*
G04 #@! TD*
G04 #@! TO.P,D2,2*
G04 #@! TO.N,GNDA*
X35560000Y-26362500D03*
D11*
G04 #@! TO.N,+5VA*
G04 #@! TO.C,R2*
G36*
X62062505Y-40957204D02*
X62086773Y-40960804D01*
X62110572Y-40966765D01*
X62133671Y-40975030D01*
X62155850Y-40985520D01*
X62176893Y-40998132D01*
X62196599Y-41012747D01*
X62214777Y-41029223D01*
X62231253Y-41047401D01*
X62245868Y-41067107D01*
X62258480Y-41088150D01*
X62268970Y-41110329D01*
X62277235Y-41133428D01*
X62283196Y-41157227D01*
X62286796Y-41181495D01*
X62288000Y-41205999D01*
X62288000Y-42106001D01*
X62286796Y-42130505D01*
X62283196Y-42154773D01*
X62277235Y-42178572D01*
X62268970Y-42201671D01*
X62258480Y-42223850D01*
X62245868Y-42244893D01*
X62231253Y-42264599D01*
X62214777Y-42282777D01*
X62196599Y-42299253D01*
X62176893Y-42313868D01*
X62155850Y-42326480D01*
X62133671Y-42336970D01*
X62110572Y-42345235D01*
X62086773Y-42351196D01*
X62062505Y-42354796D01*
X62038001Y-42356000D01*
X61387999Y-42356000D01*
X61363495Y-42354796D01*
X61339227Y-42351196D01*
X61315428Y-42345235D01*
X61292329Y-42336970D01*
X61270150Y-42326480D01*
X61249107Y-42313868D01*
X61229401Y-42299253D01*
X61211223Y-42282777D01*
X61194747Y-42264599D01*
X61180132Y-42244893D01*
X61167520Y-42223850D01*
X61157030Y-42201671D01*
X61148765Y-42178572D01*
X61142804Y-42154773D01*
X61139204Y-42130505D01*
X61138000Y-42106001D01*
X61138000Y-41205999D01*
X61139204Y-41181495D01*
X61142804Y-41157227D01*
X61148765Y-41133428D01*
X61157030Y-41110329D01*
X61167520Y-41088150D01*
X61180132Y-41067107D01*
X61194747Y-41047401D01*
X61211223Y-41029223D01*
X61229401Y-41012747D01*
X61249107Y-40998132D01*
X61270150Y-40985520D01*
X61292329Y-40975030D01*
X61315428Y-40966765D01*
X61339227Y-40960804D01*
X61363495Y-40957204D01*
X61387999Y-40956000D01*
X62038001Y-40956000D01*
X62062505Y-40957204D01*
X62062505Y-40957204D01*
G37*
D12*
G04 #@! TD*
G04 #@! TO.P,R2,2*
G04 #@! TO.N,+5VA*
X61713000Y-41656000D03*
D11*
G04 #@! TO.N,Net-(R2-Pad1)*
G04 #@! TO.C,R2*
G36*
X64112505Y-40957204D02*
X64136773Y-40960804D01*
X64160572Y-40966765D01*
X64183671Y-40975030D01*
X64205850Y-40985520D01*
X64226893Y-40998132D01*
X64246599Y-41012747D01*
X64264777Y-41029223D01*
X64281253Y-41047401D01*
X64295868Y-41067107D01*
X64308480Y-41088150D01*
X64318970Y-41110329D01*
X64327235Y-41133428D01*
X64333196Y-41157227D01*
X64336796Y-41181495D01*
X64338000Y-41205999D01*
X64338000Y-42106001D01*
X64336796Y-42130505D01*
X64333196Y-42154773D01*
X64327235Y-42178572D01*
X64318970Y-42201671D01*
X64308480Y-42223850D01*
X64295868Y-42244893D01*
X64281253Y-42264599D01*
X64264777Y-42282777D01*
X64246599Y-42299253D01*
X64226893Y-42313868D01*
X64205850Y-42326480D01*
X64183671Y-42336970D01*
X64160572Y-42345235D01*
X64136773Y-42351196D01*
X64112505Y-42354796D01*
X64088001Y-42356000D01*
X63437999Y-42356000D01*
X63413495Y-42354796D01*
X63389227Y-42351196D01*
X63365428Y-42345235D01*
X63342329Y-42336970D01*
X63320150Y-42326480D01*
X63299107Y-42313868D01*
X63279401Y-42299253D01*
X63261223Y-42282777D01*
X63244747Y-42264599D01*
X63230132Y-42244893D01*
X63217520Y-42223850D01*
X63207030Y-42201671D01*
X63198765Y-42178572D01*
X63192804Y-42154773D01*
X63189204Y-42130505D01*
X63188000Y-42106001D01*
X63188000Y-41205999D01*
X63189204Y-41181495D01*
X63192804Y-41157227D01*
X63198765Y-41133428D01*
X63207030Y-41110329D01*
X63217520Y-41088150D01*
X63230132Y-41067107D01*
X63244747Y-41047401D01*
X63261223Y-41029223D01*
X63279401Y-41012747D01*
X63299107Y-40998132D01*
X63320150Y-40985520D01*
X63342329Y-40975030D01*
X63365428Y-40966765D01*
X63389227Y-40960804D01*
X63413495Y-40957204D01*
X63437999Y-40956000D01*
X64088001Y-40956000D01*
X64112505Y-40957204D01*
X64112505Y-40957204D01*
G37*
D12*
G04 #@! TD*
G04 #@! TO.P,R2,1*
G04 #@! TO.N,Net-(R2-Pad1)*
X63763000Y-41656000D03*
D11*
G04 #@! TO.N,GNDA*
G04 #@! TO.C,C4*
G36*
X37939505Y-25851204D02*
X37963773Y-25854804D01*
X37987572Y-25860765D01*
X38010671Y-25869030D01*
X38032850Y-25879520D01*
X38053893Y-25892132D01*
X38073599Y-25906747D01*
X38091777Y-25923223D01*
X38108253Y-25941401D01*
X38122868Y-25961107D01*
X38135480Y-25982150D01*
X38145970Y-26004329D01*
X38154235Y-26027428D01*
X38160196Y-26051227D01*
X38163796Y-26075495D01*
X38165000Y-26099999D01*
X38165000Y-26750001D01*
X38163796Y-26774505D01*
X38160196Y-26798773D01*
X38154235Y-26822572D01*
X38145970Y-26845671D01*
X38135480Y-26867850D01*
X38122868Y-26888893D01*
X38108253Y-26908599D01*
X38091777Y-26926777D01*
X38073599Y-26943253D01*
X38053893Y-26957868D01*
X38032850Y-26970480D01*
X38010671Y-26980970D01*
X37987572Y-26989235D01*
X37963773Y-26995196D01*
X37939505Y-26998796D01*
X37915001Y-27000000D01*
X37014999Y-27000000D01*
X36990495Y-26998796D01*
X36966227Y-26995196D01*
X36942428Y-26989235D01*
X36919329Y-26980970D01*
X36897150Y-26970480D01*
X36876107Y-26957868D01*
X36856401Y-26943253D01*
X36838223Y-26926777D01*
X36821747Y-26908599D01*
X36807132Y-26888893D01*
X36794520Y-26867850D01*
X36784030Y-26845671D01*
X36775765Y-26822572D01*
X36769804Y-26798773D01*
X36766204Y-26774505D01*
X36765000Y-26750001D01*
X36765000Y-26099999D01*
X36766204Y-26075495D01*
X36769804Y-26051227D01*
X36775765Y-26027428D01*
X36784030Y-26004329D01*
X36794520Y-25982150D01*
X36807132Y-25961107D01*
X36821747Y-25941401D01*
X36838223Y-25923223D01*
X36856401Y-25906747D01*
X36876107Y-25892132D01*
X36897150Y-25879520D01*
X36919329Y-25869030D01*
X36942428Y-25860765D01*
X36966227Y-25854804D01*
X36990495Y-25851204D01*
X37014999Y-25850000D01*
X37915001Y-25850000D01*
X37939505Y-25851204D01*
X37939505Y-25851204D01*
G37*
D12*
G04 #@! TD*
G04 #@! TO.P,C4,2*
G04 #@! TO.N,GNDA*
X37465000Y-26425000D03*
D11*
G04 #@! TO.N,/Vpanel*
G04 #@! TO.C,C4*
G36*
X37939505Y-23801204D02*
X37963773Y-23804804D01*
X37987572Y-23810765D01*
X38010671Y-23819030D01*
X38032850Y-23829520D01*
X38053893Y-23842132D01*
X38073599Y-23856747D01*
X38091777Y-23873223D01*
X38108253Y-23891401D01*
X38122868Y-23911107D01*
X38135480Y-23932150D01*
X38145970Y-23954329D01*
X38154235Y-23977428D01*
X38160196Y-24001227D01*
X38163796Y-24025495D01*
X38165000Y-24049999D01*
X38165000Y-24700001D01*
X38163796Y-24724505D01*
X38160196Y-24748773D01*
X38154235Y-24772572D01*
X38145970Y-24795671D01*
X38135480Y-24817850D01*
X38122868Y-24838893D01*
X38108253Y-24858599D01*
X38091777Y-24876777D01*
X38073599Y-24893253D01*
X38053893Y-24907868D01*
X38032850Y-24920480D01*
X38010671Y-24930970D01*
X37987572Y-24939235D01*
X37963773Y-24945196D01*
X37939505Y-24948796D01*
X37915001Y-24950000D01*
X37014999Y-24950000D01*
X36990495Y-24948796D01*
X36966227Y-24945196D01*
X36942428Y-24939235D01*
X36919329Y-24930970D01*
X36897150Y-24920480D01*
X36876107Y-24907868D01*
X36856401Y-24893253D01*
X36838223Y-24876777D01*
X36821747Y-24858599D01*
X36807132Y-24838893D01*
X36794520Y-24817850D01*
X36784030Y-24795671D01*
X36775765Y-24772572D01*
X36769804Y-24748773D01*
X36766204Y-24724505D01*
X36765000Y-24700001D01*
X36765000Y-24049999D01*
X36766204Y-24025495D01*
X36769804Y-24001227D01*
X36775765Y-23977428D01*
X36784030Y-23954329D01*
X36794520Y-23932150D01*
X36807132Y-23911107D01*
X36821747Y-23891401D01*
X36838223Y-23873223D01*
X36856401Y-23856747D01*
X36876107Y-23842132D01*
X36897150Y-23829520D01*
X36919329Y-23819030D01*
X36942428Y-23810765D01*
X36966227Y-23804804D01*
X36990495Y-23801204D01*
X37014999Y-23800000D01*
X37915001Y-23800000D01*
X37939505Y-23801204D01*
X37939505Y-23801204D01*
G37*
D12*
G04 #@! TD*
G04 #@! TO.P,C4,1*
G04 #@! TO.N,/Vpanel*
X37465000Y-24375000D03*
D11*
G04 #@! TO.N,+5VA*
G04 #@! TO.C,C3*
G36*
X31328505Y-37655204D02*
X31352773Y-37658804D01*
X31376572Y-37664765D01*
X31399671Y-37673030D01*
X31421850Y-37683520D01*
X31442893Y-37696132D01*
X31462599Y-37710747D01*
X31480777Y-37727223D01*
X31497253Y-37745401D01*
X31511868Y-37765107D01*
X31524480Y-37786150D01*
X31534970Y-37808329D01*
X31543235Y-37831428D01*
X31549196Y-37855227D01*
X31552796Y-37879495D01*
X31554000Y-37903999D01*
X31554000Y-38804001D01*
X31552796Y-38828505D01*
X31549196Y-38852773D01*
X31543235Y-38876572D01*
X31534970Y-38899671D01*
X31524480Y-38921850D01*
X31511868Y-38942893D01*
X31497253Y-38962599D01*
X31480777Y-38980777D01*
X31462599Y-38997253D01*
X31442893Y-39011868D01*
X31421850Y-39024480D01*
X31399671Y-39034970D01*
X31376572Y-39043235D01*
X31352773Y-39049196D01*
X31328505Y-39052796D01*
X31304001Y-39054000D01*
X30653999Y-39054000D01*
X30629495Y-39052796D01*
X30605227Y-39049196D01*
X30581428Y-39043235D01*
X30558329Y-39034970D01*
X30536150Y-39024480D01*
X30515107Y-39011868D01*
X30495401Y-38997253D01*
X30477223Y-38980777D01*
X30460747Y-38962599D01*
X30446132Y-38942893D01*
X30433520Y-38921850D01*
X30423030Y-38899671D01*
X30414765Y-38876572D01*
X30408804Y-38852773D01*
X30405204Y-38828505D01*
X30404000Y-38804001D01*
X30404000Y-37903999D01*
X30405204Y-37879495D01*
X30408804Y-37855227D01*
X30414765Y-37831428D01*
X30423030Y-37808329D01*
X30433520Y-37786150D01*
X30446132Y-37765107D01*
X30460747Y-37745401D01*
X30477223Y-37727223D01*
X30495401Y-37710747D01*
X30515107Y-37696132D01*
X30536150Y-37683520D01*
X30558329Y-37673030D01*
X30581428Y-37664765D01*
X30605227Y-37658804D01*
X30629495Y-37655204D01*
X30653999Y-37654000D01*
X31304001Y-37654000D01*
X31328505Y-37655204D01*
X31328505Y-37655204D01*
G37*
D12*
G04 #@! TD*
G04 #@! TO.P,C3,1*
G04 #@! TO.N,+5VA*
X30979000Y-38354000D03*
D11*
G04 #@! TO.N,GNDA*
G04 #@! TO.C,C3*
G36*
X33378505Y-37655204D02*
X33402773Y-37658804D01*
X33426572Y-37664765D01*
X33449671Y-37673030D01*
X33471850Y-37683520D01*
X33492893Y-37696132D01*
X33512599Y-37710747D01*
X33530777Y-37727223D01*
X33547253Y-37745401D01*
X33561868Y-37765107D01*
X33574480Y-37786150D01*
X33584970Y-37808329D01*
X33593235Y-37831428D01*
X33599196Y-37855227D01*
X33602796Y-37879495D01*
X33604000Y-37903999D01*
X33604000Y-38804001D01*
X33602796Y-38828505D01*
X33599196Y-38852773D01*
X33593235Y-38876572D01*
X33584970Y-38899671D01*
X33574480Y-38921850D01*
X33561868Y-38942893D01*
X33547253Y-38962599D01*
X33530777Y-38980777D01*
X33512599Y-38997253D01*
X33492893Y-39011868D01*
X33471850Y-39024480D01*
X33449671Y-39034970D01*
X33426572Y-39043235D01*
X33402773Y-39049196D01*
X33378505Y-39052796D01*
X33354001Y-39054000D01*
X32703999Y-39054000D01*
X32679495Y-39052796D01*
X32655227Y-39049196D01*
X32631428Y-39043235D01*
X32608329Y-39034970D01*
X32586150Y-39024480D01*
X32565107Y-39011868D01*
X32545401Y-38997253D01*
X32527223Y-38980777D01*
X32510747Y-38962599D01*
X32496132Y-38942893D01*
X32483520Y-38921850D01*
X32473030Y-38899671D01*
X32464765Y-38876572D01*
X32458804Y-38852773D01*
X32455204Y-38828505D01*
X32454000Y-38804001D01*
X32454000Y-37903999D01*
X32455204Y-37879495D01*
X32458804Y-37855227D01*
X32464765Y-37831428D01*
X32473030Y-37808329D01*
X32483520Y-37786150D01*
X32496132Y-37765107D01*
X32510747Y-37745401D01*
X32527223Y-37727223D01*
X32545401Y-37710747D01*
X32565107Y-37696132D01*
X32586150Y-37683520D01*
X32608329Y-37673030D01*
X32631428Y-37664765D01*
X32655227Y-37658804D01*
X32679495Y-37655204D01*
X32703999Y-37654000D01*
X33354001Y-37654000D01*
X33378505Y-37655204D01*
X33378505Y-37655204D01*
G37*
D12*
G04 #@! TD*
G04 #@! TO.P,C3,2*
G04 #@! TO.N,GNDA*
X33029000Y-38354000D03*
D11*
G04 #@! TO.N,/Vpanel*
G04 #@! TO.C,R5*
G36*
X39844505Y-23801204D02*
X39868773Y-23804804D01*
X39892572Y-23810765D01*
X39915671Y-23819030D01*
X39937850Y-23829520D01*
X39958893Y-23842132D01*
X39978599Y-23856747D01*
X39996777Y-23873223D01*
X40013253Y-23891401D01*
X40027868Y-23911107D01*
X40040480Y-23932150D01*
X40050970Y-23954329D01*
X40059235Y-23977428D01*
X40065196Y-24001227D01*
X40068796Y-24025495D01*
X40070000Y-24049999D01*
X40070000Y-24700001D01*
X40068796Y-24724505D01*
X40065196Y-24748773D01*
X40059235Y-24772572D01*
X40050970Y-24795671D01*
X40040480Y-24817850D01*
X40027868Y-24838893D01*
X40013253Y-24858599D01*
X39996777Y-24876777D01*
X39978599Y-24893253D01*
X39958893Y-24907868D01*
X39937850Y-24920480D01*
X39915671Y-24930970D01*
X39892572Y-24939235D01*
X39868773Y-24945196D01*
X39844505Y-24948796D01*
X39820001Y-24950000D01*
X38919999Y-24950000D01*
X38895495Y-24948796D01*
X38871227Y-24945196D01*
X38847428Y-24939235D01*
X38824329Y-24930970D01*
X38802150Y-24920480D01*
X38781107Y-24907868D01*
X38761401Y-24893253D01*
X38743223Y-24876777D01*
X38726747Y-24858599D01*
X38712132Y-24838893D01*
X38699520Y-24817850D01*
X38689030Y-24795671D01*
X38680765Y-24772572D01*
X38674804Y-24748773D01*
X38671204Y-24724505D01*
X38670000Y-24700001D01*
X38670000Y-24049999D01*
X38671204Y-24025495D01*
X38674804Y-24001227D01*
X38680765Y-23977428D01*
X38689030Y-23954329D01*
X38699520Y-23932150D01*
X38712132Y-23911107D01*
X38726747Y-23891401D01*
X38743223Y-23873223D01*
X38761401Y-23856747D01*
X38781107Y-23842132D01*
X38802150Y-23829520D01*
X38824329Y-23819030D01*
X38847428Y-23810765D01*
X38871227Y-23804804D01*
X38895495Y-23801204D01*
X38919999Y-23800000D01*
X39820001Y-23800000D01*
X39844505Y-23801204D01*
X39844505Y-23801204D01*
G37*
D12*
G04 #@! TD*
G04 #@! TO.P,R5,1*
G04 #@! TO.N,/Vpanel*
X39370000Y-24375000D03*
D11*
G04 #@! TO.N,Net-(R5-Pad2)*
G04 #@! TO.C,R5*
G36*
X39844505Y-25851204D02*
X39868773Y-25854804D01*
X39892572Y-25860765D01*
X39915671Y-25869030D01*
X39937850Y-25879520D01*
X39958893Y-25892132D01*
X39978599Y-25906747D01*
X39996777Y-25923223D01*
X40013253Y-25941401D01*
X40027868Y-25961107D01*
X40040480Y-25982150D01*
X40050970Y-26004329D01*
X40059235Y-26027428D01*
X40065196Y-26051227D01*
X40068796Y-26075495D01*
X40070000Y-26099999D01*
X40070000Y-26750001D01*
X40068796Y-26774505D01*
X40065196Y-26798773D01*
X40059235Y-26822572D01*
X40050970Y-26845671D01*
X40040480Y-26867850D01*
X40027868Y-26888893D01*
X40013253Y-26908599D01*
X39996777Y-26926777D01*
X39978599Y-26943253D01*
X39958893Y-26957868D01*
X39937850Y-26970480D01*
X39915671Y-26980970D01*
X39892572Y-26989235D01*
X39868773Y-26995196D01*
X39844505Y-26998796D01*
X39820001Y-27000000D01*
X38919999Y-27000000D01*
X38895495Y-26998796D01*
X38871227Y-26995196D01*
X38847428Y-26989235D01*
X38824329Y-26980970D01*
X38802150Y-26970480D01*
X38781107Y-26957868D01*
X38761401Y-26943253D01*
X38743223Y-26926777D01*
X38726747Y-26908599D01*
X38712132Y-26888893D01*
X38699520Y-26867850D01*
X38689030Y-26845671D01*
X38680765Y-26822572D01*
X38674804Y-26798773D01*
X38671204Y-26774505D01*
X38670000Y-26750001D01*
X38670000Y-26099999D01*
X38671204Y-26075495D01*
X38674804Y-26051227D01*
X38680765Y-26027428D01*
X38689030Y-26004329D01*
X38699520Y-25982150D01*
X38712132Y-25961107D01*
X38726747Y-25941401D01*
X38743223Y-25923223D01*
X38761401Y-25906747D01*
X38781107Y-25892132D01*
X38802150Y-25879520D01*
X38824329Y-25869030D01*
X38847428Y-25860765D01*
X38871227Y-25854804D01*
X38895495Y-25851204D01*
X38919999Y-25850000D01*
X39820001Y-25850000D01*
X39844505Y-25851204D01*
X39844505Y-25851204D01*
G37*
D12*
G04 #@! TD*
G04 #@! TO.P,R5,2*
G04 #@! TO.N,Net-(R5-Pad2)*
X39370000Y-26425000D03*
D11*
G04 #@! TO.N,Net-(R6-Pad2)*
G04 #@! TO.C,R6*
G36*
X25874505Y-29389204D02*
X25898773Y-29392804D01*
X25922572Y-29398765D01*
X25945671Y-29407030D01*
X25967850Y-29417520D01*
X25988893Y-29430132D01*
X26008599Y-29444747D01*
X26026777Y-29461223D01*
X26043253Y-29479401D01*
X26057868Y-29499107D01*
X26070480Y-29520150D01*
X26080970Y-29542329D01*
X26089235Y-29565428D01*
X26095196Y-29589227D01*
X26098796Y-29613495D01*
X26100000Y-29637999D01*
X26100000Y-30288001D01*
X26098796Y-30312505D01*
X26095196Y-30336773D01*
X26089235Y-30360572D01*
X26080970Y-30383671D01*
X26070480Y-30405850D01*
X26057868Y-30426893D01*
X26043253Y-30446599D01*
X26026777Y-30464777D01*
X26008599Y-30481253D01*
X25988893Y-30495868D01*
X25967850Y-30508480D01*
X25945671Y-30518970D01*
X25922572Y-30527235D01*
X25898773Y-30533196D01*
X25874505Y-30536796D01*
X25850001Y-30538000D01*
X24949999Y-30538000D01*
X24925495Y-30536796D01*
X24901227Y-30533196D01*
X24877428Y-30527235D01*
X24854329Y-30518970D01*
X24832150Y-30508480D01*
X24811107Y-30495868D01*
X24791401Y-30481253D01*
X24773223Y-30464777D01*
X24756747Y-30446599D01*
X24742132Y-30426893D01*
X24729520Y-30405850D01*
X24719030Y-30383671D01*
X24710765Y-30360572D01*
X24704804Y-30336773D01*
X24701204Y-30312505D01*
X24700000Y-30288001D01*
X24700000Y-29637999D01*
X24701204Y-29613495D01*
X24704804Y-29589227D01*
X24710765Y-29565428D01*
X24719030Y-29542329D01*
X24729520Y-29520150D01*
X24742132Y-29499107D01*
X24756747Y-29479401D01*
X24773223Y-29461223D01*
X24791401Y-29444747D01*
X24811107Y-29430132D01*
X24832150Y-29417520D01*
X24854329Y-29407030D01*
X24877428Y-29398765D01*
X24901227Y-29392804D01*
X24925495Y-29389204D01*
X24949999Y-29388000D01*
X25850001Y-29388000D01*
X25874505Y-29389204D01*
X25874505Y-29389204D01*
G37*
D12*
G04 #@! TD*
G04 #@! TO.P,R6,2*
G04 #@! TO.N,Net-(R6-Pad2)*
X25400000Y-29963000D03*
D11*
G04 #@! TO.N,Net-(R6-Pad1)*
G04 #@! TO.C,R6*
G36*
X25874505Y-31439204D02*
X25898773Y-31442804D01*
X25922572Y-31448765D01*
X25945671Y-31457030D01*
X25967850Y-31467520D01*
X25988893Y-31480132D01*
X26008599Y-31494747D01*
X26026777Y-31511223D01*
X26043253Y-31529401D01*
X26057868Y-31549107D01*
X26070480Y-31570150D01*
X26080970Y-31592329D01*
X26089235Y-31615428D01*
X26095196Y-31639227D01*
X26098796Y-31663495D01*
X26100000Y-31687999D01*
X26100000Y-32338001D01*
X26098796Y-32362505D01*
X26095196Y-32386773D01*
X26089235Y-32410572D01*
X26080970Y-32433671D01*
X26070480Y-32455850D01*
X26057868Y-32476893D01*
X26043253Y-32496599D01*
X26026777Y-32514777D01*
X26008599Y-32531253D01*
X25988893Y-32545868D01*
X25967850Y-32558480D01*
X25945671Y-32568970D01*
X25922572Y-32577235D01*
X25898773Y-32583196D01*
X25874505Y-32586796D01*
X25850001Y-32588000D01*
X24949999Y-32588000D01*
X24925495Y-32586796D01*
X24901227Y-32583196D01*
X24877428Y-32577235D01*
X24854329Y-32568970D01*
X24832150Y-32558480D01*
X24811107Y-32545868D01*
X24791401Y-32531253D01*
X24773223Y-32514777D01*
X24756747Y-32496599D01*
X24742132Y-32476893D01*
X24729520Y-32455850D01*
X24719030Y-32433671D01*
X24710765Y-32410572D01*
X24704804Y-32386773D01*
X24701204Y-32362505D01*
X24700000Y-32338001D01*
X24700000Y-31687999D01*
X24701204Y-31663495D01*
X24704804Y-31639227D01*
X24710765Y-31615428D01*
X24719030Y-31592329D01*
X24729520Y-31570150D01*
X24742132Y-31549107D01*
X24756747Y-31529401D01*
X24773223Y-31511223D01*
X24791401Y-31494747D01*
X24811107Y-31480132D01*
X24832150Y-31467520D01*
X24854329Y-31457030D01*
X24877428Y-31448765D01*
X24901227Y-31442804D01*
X24925495Y-31439204D01*
X24949999Y-31438000D01*
X25850001Y-31438000D01*
X25874505Y-31439204D01*
X25874505Y-31439204D01*
G37*
D12*
G04 #@! TD*
G04 #@! TO.P,R6,1*
G04 #@! TO.N,Net-(R6-Pad1)*
X25400000Y-32013000D03*
D11*
G04 #@! TO.N,/Vpanel_Ref*
G04 #@! TO.C,R11*
G36*
X28800505Y-25059204D02*
X28824773Y-25062804D01*
X28848572Y-25068765D01*
X28871671Y-25077030D01*
X28893850Y-25087520D01*
X28914893Y-25100132D01*
X28934599Y-25114747D01*
X28952777Y-25131223D01*
X28969253Y-25149401D01*
X28983868Y-25169107D01*
X28996480Y-25190150D01*
X29006970Y-25212329D01*
X29015235Y-25235428D01*
X29021196Y-25259227D01*
X29024796Y-25283495D01*
X29026000Y-25307999D01*
X29026000Y-26208001D01*
X29024796Y-26232505D01*
X29021196Y-26256773D01*
X29015235Y-26280572D01*
X29006970Y-26303671D01*
X28996480Y-26325850D01*
X28983868Y-26346893D01*
X28969253Y-26366599D01*
X28952777Y-26384777D01*
X28934599Y-26401253D01*
X28914893Y-26415868D01*
X28893850Y-26428480D01*
X28871671Y-26438970D01*
X28848572Y-26447235D01*
X28824773Y-26453196D01*
X28800505Y-26456796D01*
X28776001Y-26458000D01*
X28125999Y-26458000D01*
X28101495Y-26456796D01*
X28077227Y-26453196D01*
X28053428Y-26447235D01*
X28030329Y-26438970D01*
X28008150Y-26428480D01*
X27987107Y-26415868D01*
X27967401Y-26401253D01*
X27949223Y-26384777D01*
X27932747Y-26366599D01*
X27918132Y-26346893D01*
X27905520Y-26325850D01*
X27895030Y-26303671D01*
X27886765Y-26280572D01*
X27880804Y-26256773D01*
X27877204Y-26232505D01*
X27876000Y-26208001D01*
X27876000Y-25307999D01*
X27877204Y-25283495D01*
X27880804Y-25259227D01*
X27886765Y-25235428D01*
X27895030Y-25212329D01*
X27905520Y-25190150D01*
X27918132Y-25169107D01*
X27932747Y-25149401D01*
X27949223Y-25131223D01*
X27967401Y-25114747D01*
X27987107Y-25100132D01*
X28008150Y-25087520D01*
X28030329Y-25077030D01*
X28053428Y-25068765D01*
X28077227Y-25062804D01*
X28101495Y-25059204D01*
X28125999Y-25058000D01*
X28776001Y-25058000D01*
X28800505Y-25059204D01*
X28800505Y-25059204D01*
G37*
D12*
G04 #@! TD*
G04 #@! TO.P,R11,2*
G04 #@! TO.N,/Vpanel_Ref*
X28451000Y-25758000D03*
D11*
G04 #@! TO.N,/Vpanel_SIG*
G04 #@! TO.C,R11*
G36*
X30850505Y-25059204D02*
X30874773Y-25062804D01*
X30898572Y-25068765D01*
X30921671Y-25077030D01*
X30943850Y-25087520D01*
X30964893Y-25100132D01*
X30984599Y-25114747D01*
X31002777Y-25131223D01*
X31019253Y-25149401D01*
X31033868Y-25169107D01*
X31046480Y-25190150D01*
X31056970Y-25212329D01*
X31065235Y-25235428D01*
X31071196Y-25259227D01*
X31074796Y-25283495D01*
X31076000Y-25307999D01*
X31076000Y-26208001D01*
X31074796Y-26232505D01*
X31071196Y-26256773D01*
X31065235Y-26280572D01*
X31056970Y-26303671D01*
X31046480Y-26325850D01*
X31033868Y-26346893D01*
X31019253Y-26366599D01*
X31002777Y-26384777D01*
X30984599Y-26401253D01*
X30964893Y-26415868D01*
X30943850Y-26428480D01*
X30921671Y-26438970D01*
X30898572Y-26447235D01*
X30874773Y-26453196D01*
X30850505Y-26456796D01*
X30826001Y-26458000D01*
X30175999Y-26458000D01*
X30151495Y-26456796D01*
X30127227Y-26453196D01*
X30103428Y-26447235D01*
X30080329Y-26438970D01*
X30058150Y-26428480D01*
X30037107Y-26415868D01*
X30017401Y-26401253D01*
X29999223Y-26384777D01*
X29982747Y-26366599D01*
X29968132Y-26346893D01*
X29955520Y-26325850D01*
X29945030Y-26303671D01*
X29936765Y-26280572D01*
X29930804Y-26256773D01*
X29927204Y-26232505D01*
X29926000Y-26208001D01*
X29926000Y-25307999D01*
X29927204Y-25283495D01*
X29930804Y-25259227D01*
X29936765Y-25235428D01*
X29945030Y-25212329D01*
X29955520Y-25190150D01*
X29968132Y-25169107D01*
X29982747Y-25149401D01*
X29999223Y-25131223D01*
X30017401Y-25114747D01*
X30037107Y-25100132D01*
X30058150Y-25087520D01*
X30080329Y-25077030D01*
X30103428Y-25068765D01*
X30127227Y-25062804D01*
X30151495Y-25059204D01*
X30175999Y-25058000D01*
X30826001Y-25058000D01*
X30850505Y-25059204D01*
X30850505Y-25059204D01*
G37*
D12*
G04 #@! TD*
G04 #@! TO.P,R11,1*
G04 #@! TO.N,/Vpanel_SIG*
X30501000Y-25758000D03*
D11*
G04 #@! TO.N,GNDA*
G04 #@! TO.C,R10*
G36*
X33100505Y-22809204D02*
X33124773Y-22812804D01*
X33148572Y-22818765D01*
X33171671Y-22827030D01*
X33193850Y-22837520D01*
X33214893Y-22850132D01*
X33234599Y-22864747D01*
X33252777Y-22881223D01*
X33269253Y-22899401D01*
X33283868Y-22919107D01*
X33296480Y-22940150D01*
X33306970Y-22962329D01*
X33315235Y-22985428D01*
X33321196Y-23009227D01*
X33324796Y-23033495D01*
X33326000Y-23057999D01*
X33326000Y-23958001D01*
X33324796Y-23982505D01*
X33321196Y-24006773D01*
X33315235Y-24030572D01*
X33306970Y-24053671D01*
X33296480Y-24075850D01*
X33283868Y-24096893D01*
X33269253Y-24116599D01*
X33252777Y-24134777D01*
X33234599Y-24151253D01*
X33214893Y-24165868D01*
X33193850Y-24178480D01*
X33171671Y-24188970D01*
X33148572Y-24197235D01*
X33124773Y-24203196D01*
X33100505Y-24206796D01*
X33076001Y-24208000D01*
X32425999Y-24208000D01*
X32401495Y-24206796D01*
X32377227Y-24203196D01*
X32353428Y-24197235D01*
X32330329Y-24188970D01*
X32308150Y-24178480D01*
X32287107Y-24165868D01*
X32267401Y-24151253D01*
X32249223Y-24134777D01*
X32232747Y-24116599D01*
X32218132Y-24096893D01*
X32205520Y-24075850D01*
X32195030Y-24053671D01*
X32186765Y-24030572D01*
X32180804Y-24006773D01*
X32177204Y-23982505D01*
X32176000Y-23958001D01*
X32176000Y-23057999D01*
X32177204Y-23033495D01*
X32180804Y-23009227D01*
X32186765Y-22985428D01*
X32195030Y-22962329D01*
X32205520Y-22940150D01*
X32218132Y-22919107D01*
X32232747Y-22899401D01*
X32249223Y-22881223D01*
X32267401Y-22864747D01*
X32287107Y-22850132D01*
X32308150Y-22837520D01*
X32330329Y-22827030D01*
X32353428Y-22818765D01*
X32377227Y-22812804D01*
X32401495Y-22809204D01*
X32425999Y-22808000D01*
X33076001Y-22808000D01*
X33100505Y-22809204D01*
X33100505Y-22809204D01*
G37*
D12*
G04 #@! TD*
G04 #@! TO.P,R10,1*
G04 #@! TO.N,GNDA*
X32751000Y-23508000D03*
D11*
G04 #@! TO.N,/Vpanel_SIG*
G04 #@! TO.C,R10*
G36*
X31050505Y-22809204D02*
X31074773Y-22812804D01*
X31098572Y-22818765D01*
X31121671Y-22827030D01*
X31143850Y-22837520D01*
X31164893Y-22850132D01*
X31184599Y-22864747D01*
X31202777Y-22881223D01*
X31219253Y-22899401D01*
X31233868Y-22919107D01*
X31246480Y-22940150D01*
X31256970Y-22962329D01*
X31265235Y-22985428D01*
X31271196Y-23009227D01*
X31274796Y-23033495D01*
X31276000Y-23057999D01*
X31276000Y-23958001D01*
X31274796Y-23982505D01*
X31271196Y-24006773D01*
X31265235Y-24030572D01*
X31256970Y-24053671D01*
X31246480Y-24075850D01*
X31233868Y-24096893D01*
X31219253Y-24116599D01*
X31202777Y-24134777D01*
X31184599Y-24151253D01*
X31164893Y-24165868D01*
X31143850Y-24178480D01*
X31121671Y-24188970D01*
X31098572Y-24197235D01*
X31074773Y-24203196D01*
X31050505Y-24206796D01*
X31026001Y-24208000D01*
X30375999Y-24208000D01*
X30351495Y-24206796D01*
X30327227Y-24203196D01*
X30303428Y-24197235D01*
X30280329Y-24188970D01*
X30258150Y-24178480D01*
X30237107Y-24165868D01*
X30217401Y-24151253D01*
X30199223Y-24134777D01*
X30182747Y-24116599D01*
X30168132Y-24096893D01*
X30155520Y-24075850D01*
X30145030Y-24053671D01*
X30136765Y-24030572D01*
X30130804Y-24006773D01*
X30127204Y-23982505D01*
X30126000Y-23958001D01*
X30126000Y-23057999D01*
X30127204Y-23033495D01*
X30130804Y-23009227D01*
X30136765Y-22985428D01*
X30145030Y-22962329D01*
X30155520Y-22940150D01*
X30168132Y-22919107D01*
X30182747Y-22899401D01*
X30199223Y-22881223D01*
X30217401Y-22864747D01*
X30237107Y-22850132D01*
X30258150Y-22837520D01*
X30280329Y-22827030D01*
X30303428Y-22818765D01*
X30327227Y-22812804D01*
X30351495Y-22809204D01*
X30375999Y-22808000D01*
X31026001Y-22808000D01*
X31050505Y-22809204D01*
X31050505Y-22809204D01*
G37*
D12*
G04 #@! TD*
G04 #@! TO.P,R10,2*
G04 #@! TO.N,/Vpanel_SIG*
X30701000Y-23508000D03*
D11*
G04 #@! TO.N,GNDA*
G04 #@! TO.C,R9*
G36*
X26550505Y-22809204D02*
X26574773Y-22812804D01*
X26598572Y-22818765D01*
X26621671Y-22827030D01*
X26643850Y-22837520D01*
X26664893Y-22850132D01*
X26684599Y-22864747D01*
X26702777Y-22881223D01*
X26719253Y-22899401D01*
X26733868Y-22919107D01*
X26746480Y-22940150D01*
X26756970Y-22962329D01*
X26765235Y-22985428D01*
X26771196Y-23009227D01*
X26774796Y-23033495D01*
X26776000Y-23057999D01*
X26776000Y-23958001D01*
X26774796Y-23982505D01*
X26771196Y-24006773D01*
X26765235Y-24030572D01*
X26756970Y-24053671D01*
X26746480Y-24075850D01*
X26733868Y-24096893D01*
X26719253Y-24116599D01*
X26702777Y-24134777D01*
X26684599Y-24151253D01*
X26664893Y-24165868D01*
X26643850Y-24178480D01*
X26621671Y-24188970D01*
X26598572Y-24197235D01*
X26574773Y-24203196D01*
X26550505Y-24206796D01*
X26526001Y-24208000D01*
X25875999Y-24208000D01*
X25851495Y-24206796D01*
X25827227Y-24203196D01*
X25803428Y-24197235D01*
X25780329Y-24188970D01*
X25758150Y-24178480D01*
X25737107Y-24165868D01*
X25717401Y-24151253D01*
X25699223Y-24134777D01*
X25682747Y-24116599D01*
X25668132Y-24096893D01*
X25655520Y-24075850D01*
X25645030Y-24053671D01*
X25636765Y-24030572D01*
X25630804Y-24006773D01*
X25627204Y-23982505D01*
X25626000Y-23958001D01*
X25626000Y-23057999D01*
X25627204Y-23033495D01*
X25630804Y-23009227D01*
X25636765Y-22985428D01*
X25645030Y-22962329D01*
X25655520Y-22940150D01*
X25668132Y-22919107D01*
X25682747Y-22899401D01*
X25699223Y-22881223D01*
X25717401Y-22864747D01*
X25737107Y-22850132D01*
X25758150Y-22837520D01*
X25780329Y-22827030D01*
X25803428Y-22818765D01*
X25827227Y-22812804D01*
X25851495Y-22809204D01*
X25875999Y-22808000D01*
X26526001Y-22808000D01*
X26550505Y-22809204D01*
X26550505Y-22809204D01*
G37*
D12*
G04 #@! TD*
G04 #@! TO.P,R9,2*
G04 #@! TO.N,GNDA*
X26201000Y-23508000D03*
D11*
G04 #@! TO.N,/Vpanel_Ref*
G04 #@! TO.C,R9*
G36*
X28600505Y-22809204D02*
X28624773Y-22812804D01*
X28648572Y-22818765D01*
X28671671Y-22827030D01*
X28693850Y-22837520D01*
X28714893Y-22850132D01*
X28734599Y-22864747D01*
X28752777Y-22881223D01*
X28769253Y-22899401D01*
X28783868Y-22919107D01*
X28796480Y-22940150D01*
X28806970Y-22962329D01*
X28815235Y-22985428D01*
X28821196Y-23009227D01*
X28824796Y-23033495D01*
X28826000Y-23057999D01*
X28826000Y-23958001D01*
X28824796Y-23982505D01*
X28821196Y-24006773D01*
X28815235Y-24030572D01*
X28806970Y-24053671D01*
X28796480Y-24075850D01*
X28783868Y-24096893D01*
X28769253Y-24116599D01*
X28752777Y-24134777D01*
X28734599Y-24151253D01*
X28714893Y-24165868D01*
X28693850Y-24178480D01*
X28671671Y-24188970D01*
X28648572Y-24197235D01*
X28624773Y-24203196D01*
X28600505Y-24206796D01*
X28576001Y-24208000D01*
X27925999Y-24208000D01*
X27901495Y-24206796D01*
X27877227Y-24203196D01*
X27853428Y-24197235D01*
X27830329Y-24188970D01*
X27808150Y-24178480D01*
X27787107Y-24165868D01*
X27767401Y-24151253D01*
X27749223Y-24134777D01*
X27732747Y-24116599D01*
X27718132Y-24096893D01*
X27705520Y-24075850D01*
X27695030Y-24053671D01*
X27686765Y-24030572D01*
X27680804Y-24006773D01*
X27677204Y-23982505D01*
X27676000Y-23958001D01*
X27676000Y-23057999D01*
X27677204Y-23033495D01*
X27680804Y-23009227D01*
X27686765Y-22985428D01*
X27695030Y-22962329D01*
X27705520Y-22940150D01*
X27718132Y-22919107D01*
X27732747Y-22899401D01*
X27749223Y-22881223D01*
X27767401Y-22864747D01*
X27787107Y-22850132D01*
X27808150Y-22837520D01*
X27830329Y-22827030D01*
X27853428Y-22818765D01*
X27877227Y-22812804D01*
X27901495Y-22809204D01*
X27925999Y-22808000D01*
X28576001Y-22808000D01*
X28600505Y-22809204D01*
X28600505Y-22809204D01*
G37*
D12*
G04 #@! TD*
G04 #@! TO.P,R9,1*
G04 #@! TO.N,/Vpanel_Ref*
X28251000Y-23508000D03*
D14*
G04 #@! TO.P,U3,1*
G04 #@! TO.N,/Vpanel_Ref*
X27559000Y-28288000D03*
G04 #@! TO.P,U3,2*
G04 #@! TO.N,Net-(R6-Pad2)*
X28829000Y-28288000D03*
G04 #@! TO.P,U3,3*
G04 #@! TO.N,Net-(R6-Pad1)*
X30099000Y-28288000D03*
G04 #@! TO.P,U3,4*
G04 #@! TO.N,/Vpanel_SIG*
X31369000Y-28288000D03*
G04 #@! TO.P,U3,5*
G04 #@! TO.N,GNDA*
X31369000Y-33688000D03*
G04 #@! TO.P,U3,6*
X30099000Y-33688000D03*
G04 #@! TO.P,U3,7*
G04 #@! TO.N,Net-(R5-Pad2)*
X28829000Y-33688000D03*
G04 #@! TO.P,U3,8*
G04 #@! TO.N,+5VA*
X27559000Y-33688000D03*
G04 #@! TD*
D11*
G04 #@! TO.N,/Vbat_SIG_IN*
G04 #@! TO.C,C5*
G36*
X60538505Y-25336204D02*
X60562773Y-25339804D01*
X60586572Y-25345765D01*
X60609671Y-25354030D01*
X60631850Y-25364520D01*
X60652893Y-25377132D01*
X60672599Y-25391747D01*
X60690777Y-25408223D01*
X60707253Y-25426401D01*
X60721868Y-25446107D01*
X60734480Y-25467150D01*
X60744970Y-25489329D01*
X60753235Y-25512428D01*
X60759196Y-25536227D01*
X60762796Y-25560495D01*
X60764000Y-25584999D01*
X60764000Y-26485001D01*
X60762796Y-26509505D01*
X60759196Y-26533773D01*
X60753235Y-26557572D01*
X60744970Y-26580671D01*
X60734480Y-26602850D01*
X60721868Y-26623893D01*
X60707253Y-26643599D01*
X60690777Y-26661777D01*
X60672599Y-26678253D01*
X60652893Y-26692868D01*
X60631850Y-26705480D01*
X60609671Y-26715970D01*
X60586572Y-26724235D01*
X60562773Y-26730196D01*
X60538505Y-26733796D01*
X60514001Y-26735000D01*
X59863999Y-26735000D01*
X59839495Y-26733796D01*
X59815227Y-26730196D01*
X59791428Y-26724235D01*
X59768329Y-26715970D01*
X59746150Y-26705480D01*
X59725107Y-26692868D01*
X59705401Y-26678253D01*
X59687223Y-26661777D01*
X59670747Y-26643599D01*
X59656132Y-26623893D01*
X59643520Y-26602850D01*
X59633030Y-26580671D01*
X59624765Y-26557572D01*
X59618804Y-26533773D01*
X59615204Y-26509505D01*
X59614000Y-26485001D01*
X59614000Y-25584999D01*
X59615204Y-25560495D01*
X59618804Y-25536227D01*
X59624765Y-25512428D01*
X59633030Y-25489329D01*
X59643520Y-25467150D01*
X59656132Y-25446107D01*
X59670747Y-25426401D01*
X59687223Y-25408223D01*
X59705401Y-25391747D01*
X59725107Y-25377132D01*
X59746150Y-25364520D01*
X59768329Y-25354030D01*
X59791428Y-25345765D01*
X59815227Y-25339804D01*
X59839495Y-25336204D01*
X59863999Y-25335000D01*
X60514001Y-25335000D01*
X60538505Y-25336204D01*
X60538505Y-25336204D01*
G37*
D12*
G04 #@! TD*
G04 #@! TO.P,C5,1*
G04 #@! TO.N,/Vbat_SIG_IN*
X60189000Y-26035000D03*
D11*
G04 #@! TO.N,GNDA*
G04 #@! TO.C,C5*
G36*
X62588505Y-25336204D02*
X62612773Y-25339804D01*
X62636572Y-25345765D01*
X62659671Y-25354030D01*
X62681850Y-25364520D01*
X62702893Y-25377132D01*
X62722599Y-25391747D01*
X62740777Y-25408223D01*
X62757253Y-25426401D01*
X62771868Y-25446107D01*
X62784480Y-25467150D01*
X62794970Y-25489329D01*
X62803235Y-25512428D01*
X62809196Y-25536227D01*
X62812796Y-25560495D01*
X62814000Y-25584999D01*
X62814000Y-26485001D01*
X62812796Y-26509505D01*
X62809196Y-26533773D01*
X62803235Y-26557572D01*
X62794970Y-26580671D01*
X62784480Y-26602850D01*
X62771868Y-26623893D01*
X62757253Y-26643599D01*
X62740777Y-26661777D01*
X62722599Y-26678253D01*
X62702893Y-26692868D01*
X62681850Y-26705480D01*
X62659671Y-26715970D01*
X62636572Y-26724235D01*
X62612773Y-26730196D01*
X62588505Y-26733796D01*
X62564001Y-26735000D01*
X61913999Y-26735000D01*
X61889495Y-26733796D01*
X61865227Y-26730196D01*
X61841428Y-26724235D01*
X61818329Y-26715970D01*
X61796150Y-26705480D01*
X61775107Y-26692868D01*
X61755401Y-26678253D01*
X61737223Y-26661777D01*
X61720747Y-26643599D01*
X61706132Y-26623893D01*
X61693520Y-26602850D01*
X61683030Y-26580671D01*
X61674765Y-26557572D01*
X61668804Y-26533773D01*
X61665204Y-26509505D01*
X61664000Y-26485001D01*
X61664000Y-25584999D01*
X61665204Y-25560495D01*
X61668804Y-25536227D01*
X61674765Y-25512428D01*
X61683030Y-25489329D01*
X61693520Y-25467150D01*
X61706132Y-25446107D01*
X61720747Y-25426401D01*
X61737223Y-25408223D01*
X61755401Y-25391747D01*
X61775107Y-25377132D01*
X61796150Y-25364520D01*
X61818329Y-25354030D01*
X61841428Y-25345765D01*
X61865227Y-25339804D01*
X61889495Y-25336204D01*
X61913999Y-25335000D01*
X62564001Y-25335000D01*
X62588505Y-25336204D01*
X62588505Y-25336204D01*
G37*
D12*
G04 #@! TD*
G04 #@! TO.P,C5,2*
G04 #@! TO.N,GNDA*
X62239000Y-26035000D03*
D15*
G04 #@! TO.P,U1,1*
G04 #@! TO.N,/BatOVInterrupt*
X66675000Y-37625000D03*
G04 #@! TO.P,U1,2*
G04 #@! TO.N,Net-(R8-Pad1)*
X65405000Y-37625000D03*
G04 #@! TO.P,U1,3*
G04 #@! TO.N,Net-(R2-Pad1)*
X64135000Y-37625000D03*
G04 #@! TO.P,U1,4*
G04 #@! TO.N,+5VA*
X62865000Y-37625000D03*
G04 #@! TO.P,U1,5*
G04 #@! TO.N,GNDA*
X61595000Y-37625000D03*
G04 #@! TO.P,U1,6*
G04 #@! TO.N,Net-(U1-Pad6)*
X60325000Y-37625000D03*
G04 #@! TO.P,U1,7*
X59055000Y-37625000D03*
G04 #@! TO.P,U1,8*
G04 #@! TO.N,/Vbat*
X59055000Y-32225000D03*
G04 #@! TO.P,U1,9*
X60325000Y-32225000D03*
G04 #@! TO.P,U1,10*
G04 #@! TO.N,/Vbat_SIG_IN*
X61595000Y-32225000D03*
G04 #@! TO.P,U1,11*
G04 #@! TO.N,GNDA*
X62865000Y-32225000D03*
G04 #@! TO.P,U1,12*
G04 #@! TO.N,Net-(R12-Pad2)*
X64135000Y-32225000D03*
G04 #@! TO.P,U1,13*
G04 #@! TO.N,/Vbat_SIG_IN*
X65405000Y-32225000D03*
G04 #@! TO.P,U1,14*
G04 #@! TO.N,Net-(R8-Pad1)*
X66675000Y-32225000D03*
G04 #@! TD*
D11*
G04 #@! TO.N,Net-(R2-Pad1)*
G04 #@! TO.C,R4*
G36*
X65872505Y-40957204D02*
X65896773Y-40960804D01*
X65920572Y-40966765D01*
X65943671Y-40975030D01*
X65965850Y-40985520D01*
X65986893Y-40998132D01*
X66006599Y-41012747D01*
X66024777Y-41029223D01*
X66041253Y-41047401D01*
X66055868Y-41067107D01*
X66068480Y-41088150D01*
X66078970Y-41110329D01*
X66087235Y-41133428D01*
X66093196Y-41157227D01*
X66096796Y-41181495D01*
X66098000Y-41205999D01*
X66098000Y-42106001D01*
X66096796Y-42130505D01*
X66093196Y-42154773D01*
X66087235Y-42178572D01*
X66078970Y-42201671D01*
X66068480Y-42223850D01*
X66055868Y-42244893D01*
X66041253Y-42264599D01*
X66024777Y-42282777D01*
X66006599Y-42299253D01*
X65986893Y-42313868D01*
X65965850Y-42326480D01*
X65943671Y-42336970D01*
X65920572Y-42345235D01*
X65896773Y-42351196D01*
X65872505Y-42354796D01*
X65848001Y-42356000D01*
X65197999Y-42356000D01*
X65173495Y-42354796D01*
X65149227Y-42351196D01*
X65125428Y-42345235D01*
X65102329Y-42336970D01*
X65080150Y-42326480D01*
X65059107Y-42313868D01*
X65039401Y-42299253D01*
X65021223Y-42282777D01*
X65004747Y-42264599D01*
X64990132Y-42244893D01*
X64977520Y-42223850D01*
X64967030Y-42201671D01*
X64958765Y-42178572D01*
X64952804Y-42154773D01*
X64949204Y-42130505D01*
X64948000Y-42106001D01*
X64948000Y-41205999D01*
X64949204Y-41181495D01*
X64952804Y-41157227D01*
X64958765Y-41133428D01*
X64967030Y-41110329D01*
X64977520Y-41088150D01*
X64990132Y-41067107D01*
X65004747Y-41047401D01*
X65021223Y-41029223D01*
X65039401Y-41012747D01*
X65059107Y-40998132D01*
X65080150Y-40985520D01*
X65102329Y-40975030D01*
X65125428Y-40966765D01*
X65149227Y-40960804D01*
X65173495Y-40957204D01*
X65197999Y-40956000D01*
X65848001Y-40956000D01*
X65872505Y-40957204D01*
X65872505Y-40957204D01*
G37*
D12*
G04 #@! TD*
G04 #@! TO.P,R4,2*
G04 #@! TO.N,Net-(R2-Pad1)*
X65523000Y-41656000D03*
D11*
G04 #@! TO.N,GNDA*
G04 #@! TO.C,R4*
G36*
X67922505Y-40957204D02*
X67946773Y-40960804D01*
X67970572Y-40966765D01*
X67993671Y-40975030D01*
X68015850Y-40985520D01*
X68036893Y-40998132D01*
X68056599Y-41012747D01*
X68074777Y-41029223D01*
X68091253Y-41047401D01*
X68105868Y-41067107D01*
X68118480Y-41088150D01*
X68128970Y-41110329D01*
X68137235Y-41133428D01*
X68143196Y-41157227D01*
X68146796Y-41181495D01*
X68148000Y-41205999D01*
X68148000Y-42106001D01*
X68146796Y-42130505D01*
X68143196Y-42154773D01*
X68137235Y-42178572D01*
X68128970Y-42201671D01*
X68118480Y-42223850D01*
X68105868Y-42244893D01*
X68091253Y-42264599D01*
X68074777Y-42282777D01*
X68056599Y-42299253D01*
X68036893Y-42313868D01*
X68015850Y-42326480D01*
X67993671Y-42336970D01*
X67970572Y-42345235D01*
X67946773Y-42351196D01*
X67922505Y-42354796D01*
X67898001Y-42356000D01*
X67247999Y-42356000D01*
X67223495Y-42354796D01*
X67199227Y-42351196D01*
X67175428Y-42345235D01*
X67152329Y-42336970D01*
X67130150Y-42326480D01*
X67109107Y-42313868D01*
X67089401Y-42299253D01*
X67071223Y-42282777D01*
X67054747Y-42264599D01*
X67040132Y-42244893D01*
X67027520Y-42223850D01*
X67017030Y-42201671D01*
X67008765Y-42178572D01*
X67002804Y-42154773D01*
X66999204Y-42130505D01*
X66998000Y-42106001D01*
X66998000Y-41205999D01*
X66999204Y-41181495D01*
X67002804Y-41157227D01*
X67008765Y-41133428D01*
X67017030Y-41110329D01*
X67027520Y-41088150D01*
X67040132Y-41067107D01*
X67054747Y-41047401D01*
X67071223Y-41029223D01*
X67089401Y-41012747D01*
X67109107Y-40998132D01*
X67130150Y-40985520D01*
X67152329Y-40975030D01*
X67175428Y-40966765D01*
X67199227Y-40960804D01*
X67223495Y-40957204D01*
X67247999Y-40956000D01*
X67898001Y-40956000D01*
X67922505Y-40957204D01*
X67922505Y-40957204D01*
G37*
D12*
G04 #@! TD*
G04 #@! TO.P,R4,1*
G04 #@! TO.N,GNDA*
X67573000Y-41656000D03*
D11*
G04 #@! TO.N,Net-(Q1-Pad1)*
G04 #@! TO.C,R3*
G36*
X69816505Y-35231204D02*
X69840773Y-35234804D01*
X69864572Y-35240765D01*
X69887671Y-35249030D01*
X69909850Y-35259520D01*
X69930893Y-35272132D01*
X69950599Y-35286747D01*
X69968777Y-35303223D01*
X69985253Y-35321401D01*
X69999868Y-35341107D01*
X70012480Y-35362150D01*
X70022970Y-35384329D01*
X70031235Y-35407428D01*
X70037196Y-35431227D01*
X70040796Y-35455495D01*
X70042000Y-35479999D01*
X70042000Y-36130001D01*
X70040796Y-36154505D01*
X70037196Y-36178773D01*
X70031235Y-36202572D01*
X70022970Y-36225671D01*
X70012480Y-36247850D01*
X69999868Y-36268893D01*
X69985253Y-36288599D01*
X69968777Y-36306777D01*
X69950599Y-36323253D01*
X69930893Y-36337868D01*
X69909850Y-36350480D01*
X69887671Y-36360970D01*
X69864572Y-36369235D01*
X69840773Y-36375196D01*
X69816505Y-36378796D01*
X69792001Y-36380000D01*
X68891999Y-36380000D01*
X68867495Y-36378796D01*
X68843227Y-36375196D01*
X68819428Y-36369235D01*
X68796329Y-36360970D01*
X68774150Y-36350480D01*
X68753107Y-36337868D01*
X68733401Y-36323253D01*
X68715223Y-36306777D01*
X68698747Y-36288599D01*
X68684132Y-36268893D01*
X68671520Y-36247850D01*
X68661030Y-36225671D01*
X68652765Y-36202572D01*
X68646804Y-36178773D01*
X68643204Y-36154505D01*
X68642000Y-36130001D01*
X68642000Y-35479999D01*
X68643204Y-35455495D01*
X68646804Y-35431227D01*
X68652765Y-35407428D01*
X68661030Y-35384329D01*
X68671520Y-35362150D01*
X68684132Y-35341107D01*
X68698747Y-35321401D01*
X68715223Y-35303223D01*
X68733401Y-35286747D01*
X68753107Y-35272132D01*
X68774150Y-35259520D01*
X68796329Y-35249030D01*
X68819428Y-35240765D01*
X68843227Y-35234804D01*
X68867495Y-35231204D01*
X68891999Y-35230000D01*
X69792001Y-35230000D01*
X69816505Y-35231204D01*
X69816505Y-35231204D01*
G37*
D12*
G04 #@! TD*
G04 #@! TO.P,R3,1*
G04 #@! TO.N,Net-(Q1-Pad1)*
X69342000Y-35805000D03*
D11*
G04 #@! TO.N,/BatOVInterrupt*
G04 #@! TO.C,R3*
G36*
X69816505Y-37281204D02*
X69840773Y-37284804D01*
X69864572Y-37290765D01*
X69887671Y-37299030D01*
X69909850Y-37309520D01*
X69930893Y-37322132D01*
X69950599Y-37336747D01*
X69968777Y-37353223D01*
X69985253Y-37371401D01*
X69999868Y-37391107D01*
X70012480Y-37412150D01*
X70022970Y-37434329D01*
X70031235Y-37457428D01*
X70037196Y-37481227D01*
X70040796Y-37505495D01*
X70042000Y-37529999D01*
X70042000Y-38180001D01*
X70040796Y-38204505D01*
X70037196Y-38228773D01*
X70031235Y-38252572D01*
X70022970Y-38275671D01*
X70012480Y-38297850D01*
X69999868Y-38318893D01*
X69985253Y-38338599D01*
X69968777Y-38356777D01*
X69950599Y-38373253D01*
X69930893Y-38387868D01*
X69909850Y-38400480D01*
X69887671Y-38410970D01*
X69864572Y-38419235D01*
X69840773Y-38425196D01*
X69816505Y-38428796D01*
X69792001Y-38430000D01*
X68891999Y-38430000D01*
X68867495Y-38428796D01*
X68843227Y-38425196D01*
X68819428Y-38419235D01*
X68796329Y-38410970D01*
X68774150Y-38400480D01*
X68753107Y-38387868D01*
X68733401Y-38373253D01*
X68715223Y-38356777D01*
X68698747Y-38338599D01*
X68684132Y-38318893D01*
X68671520Y-38297850D01*
X68661030Y-38275671D01*
X68652765Y-38252572D01*
X68646804Y-38228773D01*
X68643204Y-38204505D01*
X68642000Y-38180001D01*
X68642000Y-37529999D01*
X68643204Y-37505495D01*
X68646804Y-37481227D01*
X68652765Y-37457428D01*
X68661030Y-37434329D01*
X68671520Y-37412150D01*
X68684132Y-37391107D01*
X68698747Y-37371401D01*
X68715223Y-37353223D01*
X68733401Y-37336747D01*
X68753107Y-37322132D01*
X68774150Y-37309520D01*
X68796329Y-37299030D01*
X68819428Y-37290765D01*
X68843227Y-37284804D01*
X68867495Y-37281204D01*
X68891999Y-37280000D01*
X69792001Y-37280000D01*
X69816505Y-37281204D01*
X69816505Y-37281204D01*
G37*
D12*
G04 #@! TD*
G04 #@! TO.P,R3,2*
G04 #@! TO.N,/BatOVInterrupt*
X69342000Y-37855000D03*
D16*
G04 #@! TO.P,MK1,1*
G04 #@! TO.N,N/C*
X48006000Y-40482000D03*
G04 #@! TD*
D17*
G04 #@! TO.P,Q1,1*
G04 #@! TO.N,Net-(Q1-Pad1)*
X70628000Y-33462000D03*
G04 #@! TO.P,Q1,2*
G04 #@! TO.N,GNDA*
X70628000Y-31562000D03*
G04 #@! TO.P,Q1,3*
G04 #@! TO.N,Net-(Q1-Pad3)*
X72628000Y-32512000D03*
G04 #@! TD*
D18*
G04 #@! TO.N,GNDA*
X37592000Y-29718000D03*
X41032000Y-29718000D03*
G04 #@! TO.N,+5VA*
X75068000Y-24667544D03*
X69850000Y-24776010D03*
X77470000Y-40386000D03*
X74708288Y-35971288D03*
G04 #@! TO.N,/BatOVInterrupt*
X74930000Y-15748000D03*
X68326000Y-16216199D03*
G04 #@! TO.N,/Vbat_SIG_IN*
X60198000Y-28194000D03*
X56388000Y-28194000D03*
G04 #@! TD*
D19*
G04 #@! TO.N,Net-(Q1-Pad3)*
X73406000Y-31734000D02*
X72628000Y-32512000D01*
X73406000Y-29219000D02*
X73406000Y-31734000D01*
G04 #@! TO.N,GNDA*
X34798000Y-16764000D02*
X35052000Y-16764000D01*
X35052000Y-16764000D02*
X37006786Y-16764000D01*
X32282500Y-19074500D02*
X32258000Y-19050000D01*
X32751000Y-19329600D02*
X32457005Y-19035605D01*
X32751000Y-23508000D02*
X32751000Y-19329600D01*
X32193400Y-16764000D02*
X32004000Y-16764000D01*
X32457005Y-17027605D02*
X32193400Y-16764000D01*
X32457005Y-19035605D02*
X32457005Y-17027605D01*
X32004000Y-16764000D02*
X35052000Y-16764000D01*
X25781000Y-16764000D02*
X32004000Y-16764000D01*
X24892000Y-17653000D02*
X25781000Y-16764000D01*
X24892000Y-22874000D02*
X24892000Y-17653000D01*
X26201000Y-23508000D02*
X25526000Y-23508000D01*
X25526000Y-23508000D02*
X24892000Y-22874000D01*
X40077005Y-16836005D02*
X40005000Y-16764000D01*
X40077005Y-19035605D02*
X40077005Y-16836005D01*
X37006786Y-16764000D02*
X40005000Y-16764000D01*
X40005000Y-16764000D02*
X41148000Y-16764000D01*
X47433400Y-16764000D02*
X46990000Y-16764000D01*
X47697005Y-17027605D02*
X47433400Y-16764000D01*
X47697005Y-19035605D02*
X47697005Y-17027605D01*
X41148000Y-16764000D02*
X46990000Y-16764000D01*
X46990000Y-16764000D02*
X48768000Y-16764000D01*
X34810000Y-26362500D02*
X35560000Y-26362500D01*
X34805500Y-26362500D02*
X34810000Y-26362500D01*
X32751000Y-24308000D02*
X34805500Y-26362500D01*
X32751000Y-23508000D02*
X32751000Y-24308000D01*
X63500000Y-16764000D02*
X63754000Y-16764000D01*
X57857005Y-16836005D02*
X57785000Y-16764000D01*
X57857005Y-19035605D02*
X57857005Y-16836005D01*
X48768000Y-16764000D02*
X57785000Y-16764000D01*
X60397005Y-16836005D02*
X60397005Y-19035605D01*
X60325000Y-16764000D02*
X60397005Y-16836005D01*
X60325000Y-16764000D02*
X63500000Y-16764000D01*
X57785000Y-16764000D02*
X60325000Y-16764000D01*
X35560000Y-30597000D02*
X32469000Y-33688000D01*
X37465000Y-27305000D02*
X35560000Y-29210000D01*
X37465000Y-26425000D02*
X37465000Y-27305000D01*
X35560000Y-26362500D02*
X35560000Y-29210000D01*
X35560000Y-29210000D02*
X35560000Y-30597000D01*
D20*
X30099000Y-33688000D02*
X31369000Y-33688000D01*
X30099000Y-33688000D02*
X32469000Y-33688000D01*
D19*
X35560000Y-30597000D02*
X36713000Y-30597000D01*
X36713000Y-30597000D02*
X37592000Y-29718000D01*
X44590000Y-33900000D02*
X48768000Y-33900000D01*
X41032000Y-30342000D02*
X44590000Y-33900000D01*
X56515000Y-33900000D02*
X48768000Y-33900000D01*
X41032000Y-29718000D02*
X41032000Y-30342000D01*
X42790000Y-33900000D02*
X48768000Y-33900000D01*
X39760000Y-33900000D02*
X42790000Y-33900000D01*
X33029000Y-38354000D02*
X35306000Y-38354000D01*
X35306000Y-38354000D02*
X39760000Y-33900000D01*
X62239000Y-23938500D02*
X62176500Y-23876000D01*
X62239000Y-26035000D02*
X62239000Y-23938500D01*
X63056500Y-24756000D02*
X62176500Y-23876000D01*
X64643000Y-24756000D02*
X63056500Y-24756000D01*
X62239000Y-26035000D02*
X62239000Y-29474140D01*
X62239000Y-29474140D02*
X62764991Y-30000131D01*
D20*
X62865000Y-30100140D02*
X62764991Y-30000131D01*
X62865000Y-32225000D02*
X62865000Y-30100140D01*
D19*
X70628000Y-30362000D02*
X70628000Y-31562000D01*
X71766002Y-29223998D02*
X70628000Y-30362000D01*
X70358000Y-22860000D02*
X71766002Y-24268002D01*
X71766002Y-24268002D02*
X71766002Y-29223998D01*
X63056500Y-24756000D02*
X64952500Y-22860000D01*
X64952500Y-22860000D02*
X70358000Y-22860000D01*
X64262000Y-16764000D02*
X66940001Y-14085999D01*
X76567101Y-14085999D02*
X77470000Y-14988898D01*
X63500000Y-16764000D02*
X64262000Y-16764000D01*
X77470000Y-14988898D02*
X76929094Y-14447992D01*
X73097005Y-17852005D02*
X73097005Y-14140994D01*
X73097005Y-14140994D02*
X73152000Y-14085999D01*
X66940001Y-14085999D02*
X73152000Y-14085999D01*
X73152000Y-14085999D02*
X76567101Y-14085999D01*
X78787016Y-16305914D02*
X77470000Y-14988898D01*
X78787016Y-36274984D02*
X78787016Y-16305914D01*
X73406000Y-41656000D02*
X78787016Y-36274984D01*
X67573000Y-41656000D02*
X73406000Y-41656000D01*
G04 #@! TO.N,Net-(Q1-Pad1)*
X69215000Y-35805000D02*
X69215000Y-34875000D01*
X69215000Y-34875000D02*
X70628000Y-33462000D01*
D20*
G04 #@! TO.N,+5VA*
X27559000Y-33688000D02*
X27559000Y-34971000D01*
D19*
X27559000Y-36195000D02*
X27559000Y-34971000D01*
X30979000Y-38354000D02*
X29718000Y-38354000D01*
X29718000Y-38354000D02*
X27559000Y-36195000D01*
X37229000Y-40386000D02*
X41665000Y-35950000D01*
X32211000Y-40386000D02*
X37229000Y-40386000D01*
X41665000Y-35950000D02*
X56515000Y-35950000D01*
X30979000Y-38354000D02*
X30979000Y-39154000D01*
X30979000Y-39154000D02*
X32211000Y-40386000D01*
X56515000Y-35950000D02*
X62366000Y-35950000D01*
X62366000Y-35950000D02*
X62738000Y-36322000D01*
D20*
X62820000Y-36322000D02*
X62738000Y-36322000D01*
X62865000Y-36367000D02*
X62820000Y-36322000D01*
X62865000Y-37625000D02*
X62865000Y-36367000D01*
X62865000Y-37625000D02*
X62865000Y-38481000D01*
D19*
X75637005Y-21274995D02*
X75637005Y-19064395D01*
X75637005Y-24098539D02*
X75068000Y-24667544D01*
X75637005Y-19064395D02*
X75637005Y-24098539D01*
X66548000Y-24756000D02*
X69829990Y-24756000D01*
X69829990Y-24756000D02*
X69850000Y-24776010D01*
X75470287Y-25069831D02*
X75068000Y-24667544D01*
X75470287Y-35209289D02*
X75470287Y-25069831D01*
X74708288Y-35971288D02*
X75470287Y-35209289D01*
X73914000Y-43942000D02*
X77470000Y-40386000D01*
X62691000Y-43942000D02*
X73914000Y-43942000D01*
X61713000Y-42964000D02*
X61713000Y-41656000D01*
X62691000Y-43942000D02*
X61713000Y-42964000D01*
X61713000Y-40856000D02*
X61713000Y-41656000D01*
X61760000Y-40856000D02*
X61713000Y-40856000D01*
X62865000Y-38481000D02*
X62865000Y-39751000D01*
X62865000Y-39751000D02*
X61760000Y-40856000D01*
G04 #@! TO.N,Net-(R6-Pad1)*
X25400000Y-32013000D02*
X28693000Y-32013000D01*
X28693000Y-32013000D02*
X30099000Y-30607000D01*
X30099000Y-30607000D02*
X30099000Y-29718000D01*
D20*
X30099000Y-29718000D02*
X30099000Y-28288000D01*
D19*
G04 #@! TO.N,Net-(R6-Pad2)*
X28579002Y-29963000D02*
X28798990Y-29743012D01*
X25400000Y-29963000D02*
X28579002Y-29963000D01*
D20*
X28829000Y-29713002D02*
X28829000Y-28288000D01*
X28579002Y-29963000D02*
X28829000Y-29713002D01*
D19*
G04 #@! TO.N,Net-(R5-Pad2)*
X28859010Y-35463010D02*
X28859010Y-34971000D01*
D20*
X28859010Y-34971000D02*
X28829000Y-34971000D01*
D19*
X39370000Y-26425000D02*
X39370000Y-30734000D01*
D20*
X28829000Y-33688000D02*
X28859010Y-34971000D01*
D19*
X33782000Y-36322000D02*
X29718000Y-36322000D01*
X39370000Y-30734000D02*
X33782000Y-36322000D01*
X29718000Y-36322000D02*
X28859010Y-35463010D01*
G04 #@! TO.N,/Vpanel*
X34997005Y-19585605D02*
X34997005Y-19035605D01*
X35622500Y-24375000D02*
X35560000Y-24437500D01*
X39370000Y-24375000D02*
X35622500Y-24375000D01*
X34997005Y-23874505D02*
X35560000Y-24437500D01*
X34997005Y-19035605D02*
X34997005Y-23874505D01*
G04 #@! TO.N,/PWM*
X70557005Y-20792748D02*
X70557005Y-19064395D01*
X73406000Y-27169000D02*
X73406000Y-23641743D01*
X73406000Y-23641743D02*
X70557005Y-20792748D01*
G04 #@! TO.N,/BatOVInterrupt*
X67056000Y-37846000D02*
X69366000Y-37846000D01*
D20*
X66835000Y-37625000D02*
X67056000Y-37846000D01*
X66675000Y-37625000D02*
X66835000Y-37625000D01*
D19*
X68326000Y-18755400D02*
X68017005Y-19064395D01*
X68326000Y-16216199D02*
X68326000Y-18755400D01*
X76390612Y-15748000D02*
X74930000Y-15748000D01*
X77487006Y-35542994D02*
X77487006Y-16844394D01*
X69342000Y-37855000D02*
X75175000Y-37855000D01*
X77487006Y-16844394D02*
X76390612Y-15748000D01*
X75175000Y-37855000D02*
X77487006Y-35542994D01*
G04 #@! TO.N,/Vbat_SIG_IN*
X60189000Y-26035000D02*
X60189000Y-28185000D01*
X60189000Y-28185000D02*
X60198000Y-28194000D01*
X56388000Y-28194000D02*
X55317005Y-27123005D01*
X55317005Y-27123005D02*
X55317005Y-19064395D01*
X60198000Y-29271630D02*
X61468000Y-30541630D01*
X60198000Y-28194000D02*
X60198000Y-29271630D01*
D20*
X61595000Y-30668630D02*
X61468000Y-30541630D01*
X61595000Y-32225000D02*
X61595000Y-30668630D01*
X61595000Y-32225000D02*
X61595000Y-32893000D01*
X65405000Y-32225000D02*
X65405000Y-32893000D01*
D19*
X61595000Y-33775000D02*
X62110000Y-34290000D01*
X64890000Y-34290000D02*
X65405000Y-33775000D01*
X62110000Y-34290000D02*
X64890000Y-34290000D01*
D20*
X61595000Y-32225000D02*
X61595000Y-33775000D01*
X65405000Y-32225000D02*
X65405000Y-33775000D01*
D19*
G04 #@! TO.N,/Vpanel_Ref*
X28508500Y-25758000D02*
X28508500Y-23823000D01*
X28508500Y-23823000D02*
X28193500Y-23508000D01*
X27559000Y-26675000D02*
X28374500Y-25859500D01*
X27559000Y-28288000D02*
X27559000Y-26675000D01*
X28374500Y-25859500D02*
X28407000Y-25859500D01*
X28407000Y-25859500D02*
X28508500Y-25758000D01*
X27940000Y-23197000D02*
X28251000Y-23508000D01*
X27377005Y-19035605D02*
X27940000Y-19598600D01*
X27940000Y-19598600D02*
X27940000Y-23197000D01*
G04 #@! TO.N,/Vpanel_SIG*
X29717500Y-19050500D02*
X29718000Y-19050000D01*
X30443500Y-25758000D02*
X31369000Y-26683500D01*
X31369000Y-26683500D02*
X31369000Y-28288000D01*
X30443500Y-23540500D02*
X30726000Y-23258000D01*
X30443500Y-25758000D02*
X30443500Y-23540500D01*
X30480000Y-23287000D02*
X30701000Y-23508000D01*
X29917005Y-19035605D02*
X30480000Y-19598600D01*
X30480000Y-19598600D02*
X30480000Y-23287000D01*
G04 #@! TO.N,/Vbat*
X59436000Y-32225000D02*
X60071000Y-32225000D01*
X60251500Y-23126000D02*
X60251500Y-23876000D01*
X62937005Y-20440495D02*
X60251500Y-23126000D01*
X62937005Y-19064395D02*
X62937005Y-20440495D01*
X59489000Y-23876000D02*
X58166000Y-25199000D01*
X60251500Y-23876000D02*
X59489000Y-23876000D01*
X60071000Y-31691000D02*
X60071000Y-32225000D01*
X58166000Y-29786000D02*
X60071000Y-31691000D01*
X58166000Y-25199000D02*
X58166000Y-29786000D01*
D20*
G04 #@! TO.N,Net-(R8-Pad1)*
X66675000Y-33483000D02*
X66675000Y-32225000D01*
X66675000Y-35097000D02*
X66675000Y-33483000D01*
X65405000Y-36367000D02*
X66675000Y-35097000D01*
X65405000Y-37625000D02*
X65405000Y-36367000D01*
D19*
X66811000Y-29210000D02*
X66811000Y-31106000D01*
D20*
X66675000Y-32225000D02*
X66675000Y-31242000D01*
D19*
G04 #@! TO.N,Net-(R12-Pad2)*
X64065001Y-29905999D02*
X64065001Y-30754999D01*
X64761000Y-29210000D02*
X64065001Y-29905999D01*
D20*
X64135000Y-30824998D02*
X64065001Y-30754999D01*
X64135000Y-32225000D02*
X64135000Y-30824998D01*
D19*
X64761000Y-26924000D02*
X64643000Y-26806000D01*
X64761000Y-29210000D02*
X64761000Y-26924000D01*
X64643000Y-26806000D02*
X66548000Y-26806000D01*
G04 #@! TO.N,Net-(R2-Pad1)*
X64135000Y-41656000D02*
X65015000Y-41656000D01*
D20*
X64135000Y-38227000D02*
X64135000Y-41656000D01*
X64135000Y-37625000D02*
X64135000Y-38227000D01*
G04 #@! TO.N,Net-(U1-Pad6)*
X59055000Y-37625000D02*
X60325000Y-37625000D01*
G04 #@! TD*
D21*
G04 #@! TO.N,GNDA*
G36*
X79502800Y-45720800D02*
X23875200Y-45720800D01*
X23875200Y-32560708D01*
X23916087Y-32766261D01*
X24158677Y-33129323D01*
X24521739Y-33371913D01*
X24949999Y-33457099D01*
X25850001Y-33457099D01*
X26278261Y-33371913D01*
X26389901Y-33297318D01*
X26389901Y-34463000D01*
X26390425Y-34465637D01*
X26379266Y-34482338D01*
X26306600Y-34847654D01*
X26306600Y-36071658D01*
X26282066Y-36195000D01*
X26306600Y-36318342D01*
X26306600Y-36318345D01*
X26379266Y-36683661D01*
X26656071Y-37097929D01*
X26760640Y-37167800D01*
X28745202Y-39152363D01*
X28815071Y-39256929D01*
X28919637Y-39326798D01*
X28919638Y-39326799D01*
X29213580Y-39523205D01*
X29229338Y-39533734D01*
X29594654Y-39606400D01*
X29594657Y-39606400D01*
X29717999Y-39630934D01*
X29793929Y-39615831D01*
X29799266Y-39642662D01*
X29821720Y-39676266D01*
X29969437Y-39897339D01*
X30076072Y-40056929D01*
X30180637Y-40126798D01*
X31238202Y-41184363D01*
X31308071Y-41288929D01*
X31412637Y-41358798D01*
X31412638Y-41358799D01*
X31672830Y-41532654D01*
X31722338Y-41565734D01*
X32087654Y-41638400D01*
X32087657Y-41638400D01*
X32210999Y-41662934D01*
X32334341Y-41638400D01*
X37105658Y-41638400D01*
X37229000Y-41662934D01*
X37352342Y-41638400D01*
X37352346Y-41638400D01*
X37717662Y-41565734D01*
X38131929Y-41288929D01*
X38201800Y-41184360D01*
X39451646Y-39934514D01*
X45253600Y-39934514D01*
X45253600Y-41029486D01*
X45672628Y-42041110D01*
X46446890Y-42815372D01*
X47458514Y-43234400D01*
X48553486Y-43234400D01*
X49565110Y-42815372D01*
X50339372Y-42041110D01*
X50758400Y-41029486D01*
X50758400Y-39934514D01*
X50339372Y-38922890D01*
X49565110Y-38148628D01*
X48553486Y-37729600D01*
X47458514Y-37729600D01*
X46446890Y-38148628D01*
X45672628Y-38922890D01*
X45253600Y-39934514D01*
X39451646Y-39934514D01*
X42183761Y-37202400D01*
X55477331Y-37202400D01*
X55636739Y-37308913D01*
X56064999Y-37394099D01*
X56965001Y-37394099D01*
X57393261Y-37308913D01*
X57552669Y-37202400D01*
X57885901Y-37202400D01*
X57885901Y-38375000D01*
X57952057Y-38707590D01*
X58140454Y-38989546D01*
X58422410Y-39177943D01*
X58755000Y-39244099D01*
X59355000Y-39244099D01*
X59687590Y-39177943D01*
X59690000Y-39176333D01*
X59692410Y-39177943D01*
X60025000Y-39244099D01*
X60625000Y-39244099D01*
X60957590Y-39177943D01*
X61239546Y-38989546D01*
X61427943Y-38707590D01*
X61494099Y-38375000D01*
X61494099Y-37202400D01*
X61695901Y-37202400D01*
X61695901Y-37976423D01*
X61685266Y-37992339D01*
X61612600Y-38357655D01*
X61612600Y-39232239D01*
X61056282Y-39788557D01*
X60810071Y-39953071D01*
X60533266Y-40367338D01*
X60492980Y-40569871D01*
X60354087Y-40777739D01*
X60268901Y-41205999D01*
X60268901Y-42106001D01*
X60354087Y-42534261D01*
X60460600Y-42693669D01*
X60460600Y-42840658D01*
X60436066Y-42964000D01*
X60460600Y-43087342D01*
X60460600Y-43087345D01*
X60533266Y-43452661D01*
X60810071Y-43866929D01*
X60914639Y-43936799D01*
X61718202Y-44740363D01*
X61788071Y-44844929D01*
X61892637Y-44914798D01*
X61892638Y-44914799D01*
X62202338Y-45121734D01*
X62567654Y-45194400D01*
X62567658Y-45194400D01*
X62691000Y-45218934D01*
X62814342Y-45194400D01*
X73790658Y-45194400D01*
X73914000Y-45218934D01*
X74037342Y-45194400D01*
X74037346Y-45194400D01*
X74402662Y-45121734D01*
X74816929Y-44844929D01*
X74886800Y-44740360D01*
X77626762Y-42000400D01*
X77791124Y-42000400D01*
X78384484Y-41754622D01*
X78838622Y-41300484D01*
X79084400Y-40707124D01*
X79084400Y-40064876D01*
X78838622Y-39471516D01*
X78384484Y-39017378D01*
X77791124Y-38771600D01*
X77148876Y-38771600D01*
X76555516Y-39017378D01*
X76101378Y-39471516D01*
X75855600Y-40064876D01*
X75855600Y-40229238D01*
X73395240Y-42689600D01*
X66778119Y-42689600D01*
X66881913Y-42534261D01*
X66967099Y-42106001D01*
X66967099Y-41205999D01*
X66881913Y-40777739D01*
X66639323Y-40414677D01*
X66276261Y-40172087D01*
X65848001Y-40086901D01*
X65241400Y-40086901D01*
X65241400Y-39244099D01*
X65705000Y-39244099D01*
X66037590Y-39177943D01*
X66040000Y-39176333D01*
X66042410Y-39177943D01*
X66375000Y-39244099D01*
X66975000Y-39244099D01*
X67307590Y-39177943D01*
X67426634Y-39098400D01*
X68290861Y-39098400D01*
X68463739Y-39213913D01*
X68891999Y-39299099D01*
X69792001Y-39299099D01*
X70220261Y-39213913D01*
X70379669Y-39107400D01*
X75051658Y-39107400D01*
X75175000Y-39131934D01*
X75298342Y-39107400D01*
X75298346Y-39107400D01*
X75663662Y-39034734D01*
X76077929Y-38757929D01*
X76147800Y-38653360D01*
X78285370Y-36515791D01*
X78389935Y-36445923D01*
X78475180Y-36318346D01*
X78557597Y-36195000D01*
X78666740Y-36031656D01*
X78739406Y-35666340D01*
X78739406Y-35666335D01*
X78763940Y-35542995D01*
X78739406Y-35419654D01*
X78739406Y-16967734D01*
X78763940Y-16844393D01*
X78739406Y-16721053D01*
X78739406Y-16721048D01*
X78666740Y-16355732D01*
X78491090Y-16092854D01*
X78459805Y-16046032D01*
X78459804Y-16046031D01*
X78389935Y-15941465D01*
X78285369Y-15871596D01*
X77363412Y-14949639D01*
X77293541Y-14845071D01*
X76879274Y-14568266D01*
X76513958Y-14495600D01*
X76513954Y-14495600D01*
X76390612Y-14471066D01*
X76267270Y-14495600D01*
X75960706Y-14495600D01*
X75844484Y-14379378D01*
X75251124Y-14133600D01*
X74608876Y-14133600D01*
X74015516Y-14379378D01*
X73561378Y-14833516D01*
X73315600Y-15426876D01*
X73315600Y-16069124D01*
X73561378Y-16662484D01*
X73982851Y-17083957D01*
X73884062Y-17231805D01*
X73817906Y-17564395D01*
X73817906Y-20564395D01*
X73884062Y-20896985D01*
X74072459Y-21178941D01*
X74354415Y-21367338D01*
X74384605Y-21373343D01*
X74384606Y-22852070D01*
X74378799Y-22843380D01*
X74378796Y-22843377D01*
X74308929Y-22738814D01*
X74204366Y-22668947D01*
X72330264Y-20794847D01*
X72376104Y-20564395D01*
X72376104Y-17564395D01*
X72309948Y-17231805D01*
X72121551Y-16949849D01*
X71839595Y-16761452D01*
X71507005Y-16695296D01*
X69874965Y-16695296D01*
X69940400Y-16537323D01*
X69940400Y-15895075D01*
X69694622Y-15301715D01*
X69240484Y-14847577D01*
X68647124Y-14601799D01*
X68004876Y-14601799D01*
X67411516Y-14847577D01*
X66957378Y-15301715D01*
X66711600Y-15895075D01*
X66711600Y-16537323D01*
X66799107Y-16748584D01*
X66734415Y-16761452D01*
X66452459Y-16949849D01*
X66264062Y-17231805D01*
X66197906Y-17564395D01*
X66197906Y-20564395D01*
X66264062Y-20896985D01*
X66452459Y-21178941D01*
X66734415Y-21367338D01*
X67067005Y-21433494D01*
X68967005Y-21433494D01*
X69287005Y-21369842D01*
X69459254Y-21404105D01*
X69654076Y-21695677D01*
X69758644Y-21765548D01*
X72153601Y-24160506D01*
X72153600Y-26069254D01*
X71922087Y-26415739D01*
X71836901Y-26843999D01*
X71836901Y-27494001D01*
X71922087Y-27922261D01*
X72103657Y-28194000D01*
X71922087Y-28465739D01*
X71836901Y-28893999D01*
X71836901Y-29544001D01*
X71922087Y-29972261D01*
X72153600Y-30318746D01*
X72153601Y-31215239D01*
X72113012Y-31255828D01*
X71845410Y-31309057D01*
X71563454Y-31497454D01*
X71375057Y-31779410D01*
X71308901Y-32112000D01*
X71308901Y-32238830D01*
X71078000Y-32192901D01*
X70667389Y-32192901D01*
X70628000Y-32185066D01*
X70588610Y-32192901D01*
X70178000Y-32192901D01*
X69845410Y-32259057D01*
X69563454Y-32447454D01*
X69375057Y-32729410D01*
X69321828Y-32997011D01*
X68416637Y-33902202D01*
X68312072Y-33972071D01*
X68242202Y-34076638D01*
X68242201Y-34076639D01*
X68169078Y-34186076D01*
X68035266Y-34386338D01*
X67962600Y-34751654D01*
X67962600Y-34751658D01*
X67938066Y-34875000D01*
X67946809Y-34918956D01*
X67858087Y-35051739D01*
X67772901Y-35479999D01*
X67772901Y-36130001D01*
X67858087Y-36558261D01*
X67881700Y-36593600D01*
X67788125Y-36593600D01*
X67777943Y-36542410D01*
X67589546Y-36260454D01*
X67307590Y-36072057D01*
X67271757Y-36064929D01*
X67380294Y-35956392D01*
X67472669Y-35894669D01*
X67544543Y-35787103D01*
X67717205Y-35528696D01*
X67747139Y-35378207D01*
X67781400Y-35205967D01*
X67781400Y-35205964D01*
X67803074Y-35097001D01*
X67781400Y-34988038D01*
X67781400Y-33290210D01*
X67844099Y-32975000D01*
X67844099Y-31814116D01*
X67990734Y-31594662D01*
X68063400Y-31229346D01*
X68063400Y-30247669D01*
X68169913Y-30088261D01*
X68255099Y-29660001D01*
X68255099Y-28759999D01*
X68169913Y-28331739D01*
X67927323Y-27968677D01*
X67810505Y-27890622D01*
X68031913Y-27559261D01*
X68117099Y-27131001D01*
X68117099Y-26480999D01*
X68031913Y-26052739D01*
X68002287Y-26008400D01*
X68799284Y-26008400D01*
X68935516Y-26144632D01*
X69528876Y-26390410D01*
X70171124Y-26390410D01*
X70764484Y-26144632D01*
X71218622Y-25690494D01*
X71464400Y-25097134D01*
X71464400Y-24454886D01*
X71218622Y-23861526D01*
X70764484Y-23407388D01*
X70171124Y-23161610D01*
X69528876Y-23161610D01*
X68935516Y-23407388D01*
X68839304Y-23503600D01*
X67585669Y-23503600D01*
X67426261Y-23397087D01*
X66998001Y-23311901D01*
X66097999Y-23311901D01*
X65669739Y-23397087D01*
X65306677Y-23639677D01*
X65064087Y-24002739D01*
X64978901Y-24430999D01*
X64978901Y-25081001D01*
X65034775Y-25361901D01*
X64192999Y-25361901D01*
X63764739Y-25447087D01*
X63401677Y-25689677D01*
X63159087Y-26052739D01*
X63073901Y-26480999D01*
X63073901Y-27131001D01*
X63159087Y-27559261D01*
X63401677Y-27922323D01*
X63508601Y-27993767D01*
X63508600Y-28172330D01*
X63402087Y-28331739D01*
X63316901Y-28759999D01*
X63316901Y-28882939D01*
X63266641Y-28933199D01*
X63162072Y-29003070D01*
X62885267Y-29417338D01*
X62812601Y-29782654D01*
X62812601Y-29782657D01*
X62788067Y-29905999D01*
X62812601Y-30029341D01*
X62812601Y-30878345D01*
X62885267Y-31243661D01*
X62982863Y-31389724D01*
X62965901Y-31475000D01*
X62965901Y-32975000D01*
X62978353Y-33037600D01*
X62751647Y-33037600D01*
X62764099Y-32975000D01*
X62764099Y-31475000D01*
X62701400Y-31159790D01*
X62701400Y-30777592D01*
X62723074Y-30668629D01*
X62721373Y-30660078D01*
X62744934Y-30541629D01*
X62647733Y-30052968D01*
X62440799Y-29743268D01*
X61636738Y-28939208D01*
X61812400Y-28515124D01*
X61812400Y-27872876D01*
X61566622Y-27279516D01*
X61441400Y-27154294D01*
X61441400Y-27072669D01*
X61547913Y-26913261D01*
X61633099Y-26485001D01*
X61633099Y-25584999D01*
X61547913Y-25156739D01*
X61471744Y-25042744D01*
X61697913Y-24704261D01*
X61783099Y-24276000D01*
X61783099Y-23476000D01*
X61764776Y-23383884D01*
X63715167Y-21433494D01*
X63887005Y-21433494D01*
X64219595Y-21367338D01*
X64501551Y-21178941D01*
X64689948Y-20896985D01*
X64756104Y-20564395D01*
X64756104Y-17564395D01*
X64689948Y-17231805D01*
X64501551Y-16949849D01*
X64219595Y-16761452D01*
X63887005Y-16695296D01*
X61987005Y-16695296D01*
X61654415Y-16761452D01*
X61372459Y-16949849D01*
X61184062Y-17231805D01*
X61117906Y-17564395D01*
X61117906Y-20488433D01*
X59453140Y-22153200D01*
X59348571Y-22223071D01*
X59071766Y-22637339D01*
X59064599Y-22673372D01*
X59047678Y-22684678D01*
X59046005Y-22687182D01*
X59000338Y-22696266D01*
X58690638Y-22903201D01*
X58690637Y-22903202D01*
X58586071Y-22973071D01*
X58516202Y-23077637D01*
X57367639Y-24226200D01*
X57263071Y-24296071D01*
X56986266Y-24710339D01*
X56913600Y-25075655D01*
X56913600Y-25075658D01*
X56889066Y-25199000D01*
X56913600Y-25322342D01*
X56913600Y-26664297D01*
X56709124Y-26579600D01*
X56569405Y-26579600D01*
X56569405Y-21373343D01*
X56599595Y-21367338D01*
X56881551Y-21178941D01*
X57069948Y-20896985D01*
X57136104Y-20564395D01*
X57136104Y-17564395D01*
X57069948Y-17231805D01*
X56881551Y-16949849D01*
X56599595Y-16761452D01*
X56267005Y-16695296D01*
X54367005Y-16695296D01*
X54034415Y-16761452D01*
X53752459Y-16949849D01*
X53564062Y-17231805D01*
X53497906Y-17564395D01*
X53497906Y-20564395D01*
X53564062Y-20896985D01*
X53752459Y-21178941D01*
X54034415Y-21367338D01*
X54064606Y-21373343D01*
X54064605Y-26999663D01*
X54040071Y-27123005D01*
X54064605Y-27246347D01*
X54064605Y-27246350D01*
X54137271Y-27611666D01*
X54414076Y-28025934D01*
X54518644Y-28095805D01*
X54773600Y-28350760D01*
X54773600Y-28515124D01*
X55019378Y-29108484D01*
X55473516Y-29562622D01*
X56066876Y-29808400D01*
X56709124Y-29808400D01*
X56900367Y-29729184D01*
X56889066Y-29786000D01*
X56986266Y-30274661D01*
X57193201Y-30584361D01*
X57193203Y-30584363D01*
X57263072Y-30688929D01*
X57367638Y-30758798D01*
X57918741Y-31309901D01*
X57885901Y-31475000D01*
X57885901Y-32975000D01*
X57952057Y-33307590D01*
X58140454Y-33589546D01*
X58422410Y-33777943D01*
X58755000Y-33844099D01*
X59355000Y-33844099D01*
X59687590Y-33777943D01*
X59690000Y-33776333D01*
X59692410Y-33777943D01*
X60025000Y-33844099D01*
X60331811Y-33844099D01*
X60415266Y-34263661D01*
X60622201Y-34573361D01*
X60746440Y-34697600D01*
X57552669Y-34697600D01*
X57393261Y-34591087D01*
X56965001Y-34505901D01*
X56064999Y-34505901D01*
X55636739Y-34591087D01*
X55477331Y-34697600D01*
X41788340Y-34697600D01*
X41664999Y-34673066D01*
X41541659Y-34697600D01*
X41541654Y-34697600D01*
X41176338Y-34770266D01*
X41019593Y-34875000D01*
X40866638Y-34977201D01*
X40866637Y-34977202D01*
X40762071Y-35047071D01*
X40692202Y-35151637D01*
X36710240Y-39133600D01*
X32729761Y-39133600D01*
X32419293Y-38823133D01*
X32423099Y-38804001D01*
X32423099Y-37903999D01*
X32357538Y-37574400D01*
X33658658Y-37574400D01*
X33782000Y-37598934D01*
X33905342Y-37574400D01*
X33905346Y-37574400D01*
X34270662Y-37501734D01*
X34684929Y-37224929D01*
X34754800Y-37120360D01*
X40168366Y-31706796D01*
X40272929Y-31636929D01*
X40342796Y-31532366D01*
X40342799Y-31532363D01*
X40483416Y-31321913D01*
X40549734Y-31222662D01*
X40622400Y-30857346D01*
X40622400Y-30857341D01*
X40646934Y-30734001D01*
X40622400Y-30610660D01*
X40622400Y-27524745D01*
X40853913Y-27178261D01*
X40939099Y-26750001D01*
X40939099Y-26099999D01*
X40853913Y-25671739D01*
X40672343Y-25400000D01*
X40853913Y-25128261D01*
X40939099Y-24700001D01*
X40939099Y-24049999D01*
X40853913Y-23621739D01*
X40611323Y-23258677D01*
X40248261Y-23016087D01*
X39820001Y-22930901D01*
X38919999Y-22930901D01*
X38491739Y-23016087D01*
X38417500Y-23065692D01*
X38343261Y-23016087D01*
X37915001Y-22930901D01*
X37014999Y-22930901D01*
X36586739Y-23016087D01*
X36506207Y-23069897D01*
X36388261Y-22991087D01*
X36249405Y-22963467D01*
X36249405Y-21373343D01*
X36279595Y-21367338D01*
X36561551Y-21178941D01*
X36749948Y-20896985D01*
X36816104Y-20564395D01*
X36816104Y-17564395D01*
X40797906Y-17564395D01*
X40797906Y-20564395D01*
X40864062Y-20896985D01*
X41052459Y-21178941D01*
X41334415Y-21367338D01*
X41667005Y-21433494D01*
X43567005Y-21433494D01*
X43887005Y-21369842D01*
X44207005Y-21433494D01*
X46107005Y-21433494D01*
X46439595Y-21367338D01*
X46721551Y-21178941D01*
X46909948Y-20896985D01*
X46976104Y-20564395D01*
X46976104Y-17564395D01*
X48417906Y-17564395D01*
X48417906Y-20564395D01*
X48484062Y-20896985D01*
X48672459Y-21178941D01*
X48954415Y-21367338D01*
X49287005Y-21433494D01*
X51187005Y-21433494D01*
X51519595Y-21367338D01*
X51801551Y-21178941D01*
X51989948Y-20896985D01*
X52056104Y-20564395D01*
X52056104Y-17564395D01*
X51989948Y-17231805D01*
X51801551Y-16949849D01*
X51519595Y-16761452D01*
X51187005Y-16695296D01*
X49287005Y-16695296D01*
X48954415Y-16761452D01*
X48672459Y-16949849D01*
X48484062Y-17231805D01*
X48417906Y-17564395D01*
X46976104Y-17564395D01*
X46909948Y-17231805D01*
X46721551Y-16949849D01*
X46439595Y-16761452D01*
X46107005Y-16695296D01*
X44207005Y-16695296D01*
X43887005Y-16758948D01*
X43567005Y-16695296D01*
X41667005Y-16695296D01*
X41334415Y-16761452D01*
X41052459Y-16949849D01*
X40864062Y-17231805D01*
X40797906Y-17564395D01*
X36816104Y-17564395D01*
X36749948Y-17231805D01*
X36561551Y-16949849D01*
X36279595Y-16761452D01*
X35947005Y-16695296D01*
X34047005Y-16695296D01*
X33714415Y-16761452D01*
X33432459Y-16949849D01*
X33244062Y-17231805D01*
X33177906Y-17564395D01*
X33177906Y-20564395D01*
X33244062Y-20896985D01*
X33432459Y-21178941D01*
X33714415Y-21367338D01*
X33744605Y-21373343D01*
X33744606Y-23751159D01*
X33720071Y-23874505D01*
X33817271Y-24363166D01*
X34024206Y-24672866D01*
X34024208Y-24672868D01*
X34040901Y-24697851D01*
X34040901Y-24850000D01*
X34126087Y-25278261D01*
X34368678Y-25641322D01*
X34731739Y-25883913D01*
X35160000Y-25969099D01*
X35960000Y-25969099D01*
X36388261Y-25883913D01*
X36606784Y-25737900D01*
X37014999Y-25819099D01*
X37856775Y-25819099D01*
X37800901Y-26099999D01*
X37800901Y-26750001D01*
X37886087Y-27178261D01*
X38117600Y-27524745D01*
X38117601Y-30215237D01*
X33263240Y-35069600D01*
X30236761Y-35069600D01*
X30111410Y-34944250D01*
X30111410Y-34847655D01*
X30038744Y-34482339D01*
X29998099Y-34421509D01*
X29998099Y-32913000D01*
X29931943Y-32580410D01*
X29917847Y-32559314D01*
X30897363Y-31579798D01*
X31001929Y-31509929D01*
X31278734Y-31095662D01*
X31351400Y-30730346D01*
X31351400Y-30730341D01*
X31375934Y-30607001D01*
X31351400Y-30483660D01*
X31351400Y-29932099D01*
X31669000Y-29932099D01*
X32001590Y-29865943D01*
X32283546Y-29677546D01*
X32471943Y-29395590D01*
X32538099Y-29063000D01*
X32538099Y-28792578D01*
X32548734Y-28776662D01*
X32621400Y-28411346D01*
X32621400Y-26806842D01*
X32645934Y-26683500D01*
X32621400Y-26560158D01*
X32621400Y-26560154D01*
X32548734Y-26194838D01*
X32486654Y-26101929D01*
X32341799Y-25885138D01*
X32341798Y-25885137D01*
X32271929Y-25780571D01*
X32167363Y-25710702D01*
X31945099Y-25488438D01*
X31945099Y-25307999D01*
X31859913Y-24879739D01*
X31786523Y-24769903D01*
X31817323Y-24749323D01*
X32059913Y-24386261D01*
X32145099Y-23958001D01*
X32145099Y-23057999D01*
X32059913Y-22629739D01*
X31817323Y-22266677D01*
X31732400Y-22209933D01*
X31732400Y-20583016D01*
X31736104Y-20564395D01*
X31736104Y-19703319D01*
X31756934Y-19598599D01*
X31736104Y-19493879D01*
X31736104Y-17564395D01*
X31669948Y-17231805D01*
X31481551Y-16949849D01*
X31199595Y-16761452D01*
X30867005Y-16695296D01*
X28967005Y-16695296D01*
X28647005Y-16758948D01*
X28327005Y-16695296D01*
X26427005Y-16695296D01*
X26094415Y-16761452D01*
X25812459Y-16949849D01*
X25624062Y-17231805D01*
X25557906Y-17564395D01*
X25557906Y-20564395D01*
X25624062Y-20896985D01*
X25812459Y-21178941D01*
X26094415Y-21367338D01*
X26427005Y-21433494D01*
X26687601Y-21433494D01*
X26687601Y-23073654D01*
X26663066Y-23197000D01*
X26760266Y-23685661D01*
X26806901Y-23755455D01*
X26806901Y-23958001D01*
X26892087Y-24386261D01*
X27134677Y-24749323D01*
X27165477Y-24769903D01*
X27092087Y-24879739D01*
X27006901Y-25307999D01*
X27006901Y-25455939D01*
X26760637Y-25702203D01*
X26656072Y-25772071D01*
X26586203Y-25876637D01*
X26586201Y-25876639D01*
X26379266Y-26186339D01*
X26353209Y-26317338D01*
X26306600Y-26551654D01*
X26306600Y-26551658D01*
X26282066Y-26675000D01*
X26306600Y-26798342D01*
X26306600Y-28411345D01*
X26355159Y-28655469D01*
X26278261Y-28604087D01*
X25850001Y-28518901D01*
X24949999Y-28518901D01*
X24521739Y-28604087D01*
X24158677Y-28846677D01*
X23916087Y-29209739D01*
X23875200Y-29415292D01*
X23875200Y-12445200D01*
X79502801Y-12445200D01*
X79502800Y-45720800D01*
X79502800Y-45720800D01*
G37*
X79502800Y-45720800D02*
X23875200Y-45720800D01*
X23875200Y-32560708D01*
X23916087Y-32766261D01*
X24158677Y-33129323D01*
X24521739Y-33371913D01*
X24949999Y-33457099D01*
X25850001Y-33457099D01*
X26278261Y-33371913D01*
X26389901Y-33297318D01*
X26389901Y-34463000D01*
X26390425Y-34465637D01*
X26379266Y-34482338D01*
X26306600Y-34847654D01*
X26306600Y-36071658D01*
X26282066Y-36195000D01*
X26306600Y-36318342D01*
X26306600Y-36318345D01*
X26379266Y-36683661D01*
X26656071Y-37097929D01*
X26760640Y-37167800D01*
X28745202Y-39152363D01*
X28815071Y-39256929D01*
X28919637Y-39326798D01*
X28919638Y-39326799D01*
X29213580Y-39523205D01*
X29229338Y-39533734D01*
X29594654Y-39606400D01*
X29594657Y-39606400D01*
X29717999Y-39630934D01*
X29793929Y-39615831D01*
X29799266Y-39642662D01*
X29821720Y-39676266D01*
X29969437Y-39897339D01*
X30076072Y-40056929D01*
X30180637Y-40126798D01*
X31238202Y-41184363D01*
X31308071Y-41288929D01*
X31412637Y-41358798D01*
X31412638Y-41358799D01*
X31672830Y-41532654D01*
X31722338Y-41565734D01*
X32087654Y-41638400D01*
X32087657Y-41638400D01*
X32210999Y-41662934D01*
X32334341Y-41638400D01*
X37105658Y-41638400D01*
X37229000Y-41662934D01*
X37352342Y-41638400D01*
X37352346Y-41638400D01*
X37717662Y-41565734D01*
X38131929Y-41288929D01*
X38201800Y-41184360D01*
X39451646Y-39934514D01*
X45253600Y-39934514D01*
X45253600Y-41029486D01*
X45672628Y-42041110D01*
X46446890Y-42815372D01*
X47458514Y-43234400D01*
X48553486Y-43234400D01*
X49565110Y-42815372D01*
X50339372Y-42041110D01*
X50758400Y-41029486D01*
X50758400Y-39934514D01*
X50339372Y-38922890D01*
X49565110Y-38148628D01*
X48553486Y-37729600D01*
X47458514Y-37729600D01*
X46446890Y-38148628D01*
X45672628Y-38922890D01*
X45253600Y-39934514D01*
X39451646Y-39934514D01*
X42183761Y-37202400D01*
X55477331Y-37202400D01*
X55636739Y-37308913D01*
X56064999Y-37394099D01*
X56965001Y-37394099D01*
X57393261Y-37308913D01*
X57552669Y-37202400D01*
X57885901Y-37202400D01*
X57885901Y-38375000D01*
X57952057Y-38707590D01*
X58140454Y-38989546D01*
X58422410Y-39177943D01*
X58755000Y-39244099D01*
X59355000Y-39244099D01*
X59687590Y-39177943D01*
X59690000Y-39176333D01*
X59692410Y-39177943D01*
X60025000Y-39244099D01*
X60625000Y-39244099D01*
X60957590Y-39177943D01*
X61239546Y-38989546D01*
X61427943Y-38707590D01*
X61494099Y-38375000D01*
X61494099Y-37202400D01*
X61695901Y-37202400D01*
X61695901Y-37976423D01*
X61685266Y-37992339D01*
X61612600Y-38357655D01*
X61612600Y-39232239D01*
X61056282Y-39788557D01*
X60810071Y-39953071D01*
X60533266Y-40367338D01*
X60492980Y-40569871D01*
X60354087Y-40777739D01*
X60268901Y-41205999D01*
X60268901Y-42106001D01*
X60354087Y-42534261D01*
X60460600Y-42693669D01*
X60460600Y-42840658D01*
X60436066Y-42964000D01*
X60460600Y-43087342D01*
X60460600Y-43087345D01*
X60533266Y-43452661D01*
X60810071Y-43866929D01*
X60914639Y-43936799D01*
X61718202Y-44740363D01*
X61788071Y-44844929D01*
X61892637Y-44914798D01*
X61892638Y-44914799D01*
X62202338Y-45121734D01*
X62567654Y-45194400D01*
X62567658Y-45194400D01*
X62691000Y-45218934D01*
X62814342Y-45194400D01*
X73790658Y-45194400D01*
X73914000Y-45218934D01*
X74037342Y-45194400D01*
X74037346Y-45194400D01*
X74402662Y-45121734D01*
X74816929Y-44844929D01*
X74886800Y-44740360D01*
X77626762Y-42000400D01*
X77791124Y-42000400D01*
X78384484Y-41754622D01*
X78838622Y-41300484D01*
X79084400Y-40707124D01*
X79084400Y-40064876D01*
X78838622Y-39471516D01*
X78384484Y-39017378D01*
X77791124Y-38771600D01*
X77148876Y-38771600D01*
X76555516Y-39017378D01*
X76101378Y-39471516D01*
X75855600Y-40064876D01*
X75855600Y-40229238D01*
X73395240Y-42689600D01*
X66778119Y-42689600D01*
X66881913Y-42534261D01*
X66967099Y-42106001D01*
X66967099Y-41205999D01*
X66881913Y-40777739D01*
X66639323Y-40414677D01*
X66276261Y-40172087D01*
X65848001Y-40086901D01*
X65241400Y-40086901D01*
X65241400Y-39244099D01*
X65705000Y-39244099D01*
X66037590Y-39177943D01*
X66040000Y-39176333D01*
X66042410Y-39177943D01*
X66375000Y-39244099D01*
X66975000Y-39244099D01*
X67307590Y-39177943D01*
X67426634Y-39098400D01*
X68290861Y-39098400D01*
X68463739Y-39213913D01*
X68891999Y-39299099D01*
X69792001Y-39299099D01*
X70220261Y-39213913D01*
X70379669Y-39107400D01*
X75051658Y-39107400D01*
X75175000Y-39131934D01*
X75298342Y-39107400D01*
X75298346Y-39107400D01*
X75663662Y-39034734D01*
X76077929Y-38757929D01*
X76147800Y-38653360D01*
X78285370Y-36515791D01*
X78389935Y-36445923D01*
X78475180Y-36318346D01*
X78557597Y-36195000D01*
X78666740Y-36031656D01*
X78739406Y-35666340D01*
X78739406Y-35666335D01*
X78763940Y-35542995D01*
X78739406Y-35419654D01*
X78739406Y-16967734D01*
X78763940Y-16844393D01*
X78739406Y-16721053D01*
X78739406Y-16721048D01*
X78666740Y-16355732D01*
X78491090Y-16092854D01*
X78459805Y-16046032D01*
X78459804Y-16046031D01*
X78389935Y-15941465D01*
X78285369Y-15871596D01*
X77363412Y-14949639D01*
X77293541Y-14845071D01*
X76879274Y-14568266D01*
X76513958Y-14495600D01*
X76513954Y-14495600D01*
X76390612Y-14471066D01*
X76267270Y-14495600D01*
X75960706Y-14495600D01*
X75844484Y-14379378D01*
X75251124Y-14133600D01*
X74608876Y-14133600D01*
X74015516Y-14379378D01*
X73561378Y-14833516D01*
X73315600Y-15426876D01*
X73315600Y-16069124D01*
X73561378Y-16662484D01*
X73982851Y-17083957D01*
X73884062Y-17231805D01*
X73817906Y-17564395D01*
X73817906Y-20564395D01*
X73884062Y-20896985D01*
X74072459Y-21178941D01*
X74354415Y-21367338D01*
X74384605Y-21373343D01*
X74384606Y-22852070D01*
X74378799Y-22843380D01*
X74378796Y-22843377D01*
X74308929Y-22738814D01*
X74204366Y-22668947D01*
X72330264Y-20794847D01*
X72376104Y-20564395D01*
X72376104Y-17564395D01*
X72309948Y-17231805D01*
X72121551Y-16949849D01*
X71839595Y-16761452D01*
X71507005Y-16695296D01*
X69874965Y-16695296D01*
X69940400Y-16537323D01*
X69940400Y-15895075D01*
X69694622Y-15301715D01*
X69240484Y-14847577D01*
X68647124Y-14601799D01*
X68004876Y-14601799D01*
X67411516Y-14847577D01*
X66957378Y-15301715D01*
X66711600Y-15895075D01*
X66711600Y-16537323D01*
X66799107Y-16748584D01*
X66734415Y-16761452D01*
X66452459Y-16949849D01*
X66264062Y-17231805D01*
X66197906Y-17564395D01*
X66197906Y-20564395D01*
X66264062Y-20896985D01*
X66452459Y-21178941D01*
X66734415Y-21367338D01*
X67067005Y-21433494D01*
X68967005Y-21433494D01*
X69287005Y-21369842D01*
X69459254Y-21404105D01*
X69654076Y-21695677D01*
X69758644Y-21765548D01*
X72153601Y-24160506D01*
X72153600Y-26069254D01*
X71922087Y-26415739D01*
X71836901Y-26843999D01*
X71836901Y-27494001D01*
X71922087Y-27922261D01*
X72103657Y-28194000D01*
X71922087Y-28465739D01*
X71836901Y-28893999D01*
X71836901Y-29544001D01*
X71922087Y-29972261D01*
X72153600Y-30318746D01*
X72153601Y-31215239D01*
X72113012Y-31255828D01*
X71845410Y-31309057D01*
X71563454Y-31497454D01*
X71375057Y-31779410D01*
X71308901Y-32112000D01*
X71308901Y-32238830D01*
X71078000Y-32192901D01*
X70667389Y-32192901D01*
X70628000Y-32185066D01*
X70588610Y-32192901D01*
X70178000Y-32192901D01*
X69845410Y-32259057D01*
X69563454Y-32447454D01*
X69375057Y-32729410D01*
X69321828Y-32997011D01*
X68416637Y-33902202D01*
X68312072Y-33972071D01*
X68242202Y-34076638D01*
X68242201Y-34076639D01*
X68169078Y-34186076D01*
X68035266Y-34386338D01*
X67962600Y-34751654D01*
X67962600Y-34751658D01*
X67938066Y-34875000D01*
X67946809Y-34918956D01*
X67858087Y-35051739D01*
X67772901Y-35479999D01*
X67772901Y-36130001D01*
X67858087Y-36558261D01*
X67881700Y-36593600D01*
X67788125Y-36593600D01*
X67777943Y-36542410D01*
X67589546Y-36260454D01*
X67307590Y-36072057D01*
X67271757Y-36064929D01*
X67380294Y-35956392D01*
X67472669Y-35894669D01*
X67544543Y-35787103D01*
X67717205Y-35528696D01*
X67747139Y-35378207D01*
X67781400Y-35205967D01*
X67781400Y-35205964D01*
X67803074Y-35097001D01*
X67781400Y-34988038D01*
X67781400Y-33290210D01*
X67844099Y-32975000D01*
X67844099Y-31814116D01*
X67990734Y-31594662D01*
X68063400Y-31229346D01*
X68063400Y-30247669D01*
X68169913Y-30088261D01*
X68255099Y-29660001D01*
X68255099Y-28759999D01*
X68169913Y-28331739D01*
X67927323Y-27968677D01*
X67810505Y-27890622D01*
X68031913Y-27559261D01*
X68117099Y-27131001D01*
X68117099Y-26480999D01*
X68031913Y-26052739D01*
X68002287Y-26008400D01*
X68799284Y-26008400D01*
X68935516Y-26144632D01*
X69528876Y-26390410D01*
X70171124Y-26390410D01*
X70764484Y-26144632D01*
X71218622Y-25690494D01*
X71464400Y-25097134D01*
X71464400Y-24454886D01*
X71218622Y-23861526D01*
X70764484Y-23407388D01*
X70171124Y-23161610D01*
X69528876Y-23161610D01*
X68935516Y-23407388D01*
X68839304Y-23503600D01*
X67585669Y-23503600D01*
X67426261Y-23397087D01*
X66998001Y-23311901D01*
X66097999Y-23311901D01*
X65669739Y-23397087D01*
X65306677Y-23639677D01*
X65064087Y-24002739D01*
X64978901Y-24430999D01*
X64978901Y-25081001D01*
X65034775Y-25361901D01*
X64192999Y-25361901D01*
X63764739Y-25447087D01*
X63401677Y-25689677D01*
X63159087Y-26052739D01*
X63073901Y-26480999D01*
X63073901Y-27131001D01*
X63159087Y-27559261D01*
X63401677Y-27922323D01*
X63508601Y-27993767D01*
X63508600Y-28172330D01*
X63402087Y-28331739D01*
X63316901Y-28759999D01*
X63316901Y-28882939D01*
X63266641Y-28933199D01*
X63162072Y-29003070D01*
X62885267Y-29417338D01*
X62812601Y-29782654D01*
X62812601Y-29782657D01*
X62788067Y-29905999D01*
X62812601Y-30029341D01*
X62812601Y-30878345D01*
X62885267Y-31243661D01*
X62982863Y-31389724D01*
X62965901Y-31475000D01*
X62965901Y-32975000D01*
X62978353Y-33037600D01*
X62751647Y-33037600D01*
X62764099Y-32975000D01*
X62764099Y-31475000D01*
X62701400Y-31159790D01*
X62701400Y-30777592D01*
X62723074Y-30668629D01*
X62721373Y-30660078D01*
X62744934Y-30541629D01*
X62647733Y-30052968D01*
X62440799Y-29743268D01*
X61636738Y-28939208D01*
X61812400Y-28515124D01*
X61812400Y-27872876D01*
X61566622Y-27279516D01*
X61441400Y-27154294D01*
X61441400Y-27072669D01*
X61547913Y-26913261D01*
X61633099Y-26485001D01*
X61633099Y-25584999D01*
X61547913Y-25156739D01*
X61471744Y-25042744D01*
X61697913Y-24704261D01*
X61783099Y-24276000D01*
X61783099Y-23476000D01*
X61764776Y-23383884D01*
X63715167Y-21433494D01*
X63887005Y-21433494D01*
X64219595Y-21367338D01*
X64501551Y-21178941D01*
X64689948Y-20896985D01*
X64756104Y-20564395D01*
X64756104Y-17564395D01*
X64689948Y-17231805D01*
X64501551Y-16949849D01*
X64219595Y-16761452D01*
X63887005Y-16695296D01*
X61987005Y-16695296D01*
X61654415Y-16761452D01*
X61372459Y-16949849D01*
X61184062Y-17231805D01*
X61117906Y-17564395D01*
X61117906Y-20488433D01*
X59453140Y-22153200D01*
X59348571Y-22223071D01*
X59071766Y-22637339D01*
X59064599Y-22673372D01*
X59047678Y-22684678D01*
X59046005Y-22687182D01*
X59000338Y-22696266D01*
X58690638Y-22903201D01*
X58690637Y-22903202D01*
X58586071Y-22973071D01*
X58516202Y-23077637D01*
X57367639Y-24226200D01*
X57263071Y-24296071D01*
X56986266Y-24710339D01*
X56913600Y-25075655D01*
X56913600Y-25075658D01*
X56889066Y-25199000D01*
X56913600Y-25322342D01*
X56913600Y-26664297D01*
X56709124Y-26579600D01*
X56569405Y-26579600D01*
X56569405Y-21373343D01*
X56599595Y-21367338D01*
X56881551Y-21178941D01*
X57069948Y-20896985D01*
X57136104Y-20564395D01*
X57136104Y-17564395D01*
X57069948Y-17231805D01*
X56881551Y-16949849D01*
X56599595Y-16761452D01*
X56267005Y-16695296D01*
X54367005Y-16695296D01*
X54034415Y-16761452D01*
X53752459Y-16949849D01*
X53564062Y-17231805D01*
X53497906Y-17564395D01*
X53497906Y-20564395D01*
X53564062Y-20896985D01*
X53752459Y-21178941D01*
X54034415Y-21367338D01*
X54064606Y-21373343D01*
X54064605Y-26999663D01*
X54040071Y-27123005D01*
X54064605Y-27246347D01*
X54064605Y-27246350D01*
X54137271Y-27611666D01*
X54414076Y-28025934D01*
X54518644Y-28095805D01*
X54773600Y-28350760D01*
X54773600Y-28515124D01*
X55019378Y-29108484D01*
X55473516Y-29562622D01*
X56066876Y-29808400D01*
X56709124Y-29808400D01*
X56900367Y-29729184D01*
X56889066Y-29786000D01*
X56986266Y-30274661D01*
X57193201Y-30584361D01*
X57193203Y-30584363D01*
X57263072Y-30688929D01*
X57367638Y-30758798D01*
X57918741Y-31309901D01*
X57885901Y-31475000D01*
X57885901Y-32975000D01*
X57952057Y-33307590D01*
X58140454Y-33589546D01*
X58422410Y-33777943D01*
X58755000Y-33844099D01*
X59355000Y-33844099D01*
X59687590Y-33777943D01*
X59690000Y-33776333D01*
X59692410Y-33777943D01*
X60025000Y-33844099D01*
X60331811Y-33844099D01*
X60415266Y-34263661D01*
X60622201Y-34573361D01*
X60746440Y-34697600D01*
X57552669Y-34697600D01*
X57393261Y-34591087D01*
X56965001Y-34505901D01*
X56064999Y-34505901D01*
X55636739Y-34591087D01*
X55477331Y-34697600D01*
X41788340Y-34697600D01*
X41664999Y-34673066D01*
X41541659Y-34697600D01*
X41541654Y-34697600D01*
X41176338Y-34770266D01*
X41019593Y-34875000D01*
X40866638Y-34977201D01*
X40866637Y-34977202D01*
X40762071Y-35047071D01*
X40692202Y-35151637D01*
X36710240Y-39133600D01*
X32729761Y-39133600D01*
X32419293Y-38823133D01*
X32423099Y-38804001D01*
X32423099Y-37903999D01*
X32357538Y-37574400D01*
X33658658Y-37574400D01*
X33782000Y-37598934D01*
X33905342Y-37574400D01*
X33905346Y-37574400D01*
X34270662Y-37501734D01*
X34684929Y-37224929D01*
X34754800Y-37120360D01*
X40168366Y-31706796D01*
X40272929Y-31636929D01*
X40342796Y-31532366D01*
X40342799Y-31532363D01*
X40483416Y-31321913D01*
X40549734Y-31222662D01*
X40622400Y-30857346D01*
X40622400Y-30857341D01*
X40646934Y-30734001D01*
X40622400Y-30610660D01*
X40622400Y-27524745D01*
X40853913Y-27178261D01*
X40939099Y-26750001D01*
X40939099Y-26099999D01*
X40853913Y-25671739D01*
X40672343Y-25400000D01*
X40853913Y-25128261D01*
X40939099Y-24700001D01*
X40939099Y-24049999D01*
X40853913Y-23621739D01*
X40611323Y-23258677D01*
X40248261Y-23016087D01*
X39820001Y-22930901D01*
X38919999Y-22930901D01*
X38491739Y-23016087D01*
X38417500Y-23065692D01*
X38343261Y-23016087D01*
X37915001Y-22930901D01*
X37014999Y-22930901D01*
X36586739Y-23016087D01*
X36506207Y-23069897D01*
X36388261Y-22991087D01*
X36249405Y-22963467D01*
X36249405Y-21373343D01*
X36279595Y-21367338D01*
X36561551Y-21178941D01*
X36749948Y-20896985D01*
X36816104Y-20564395D01*
X36816104Y-17564395D01*
X40797906Y-17564395D01*
X40797906Y-20564395D01*
X40864062Y-20896985D01*
X41052459Y-21178941D01*
X41334415Y-21367338D01*
X41667005Y-21433494D01*
X43567005Y-21433494D01*
X43887005Y-21369842D01*
X44207005Y-21433494D01*
X46107005Y-21433494D01*
X46439595Y-21367338D01*
X46721551Y-21178941D01*
X46909948Y-20896985D01*
X46976104Y-20564395D01*
X46976104Y-17564395D01*
X48417906Y-17564395D01*
X48417906Y-20564395D01*
X48484062Y-20896985D01*
X48672459Y-21178941D01*
X48954415Y-21367338D01*
X49287005Y-21433494D01*
X51187005Y-21433494D01*
X51519595Y-21367338D01*
X51801551Y-21178941D01*
X51989948Y-20896985D01*
X52056104Y-20564395D01*
X52056104Y-17564395D01*
X51989948Y-17231805D01*
X51801551Y-16949849D01*
X51519595Y-16761452D01*
X51187005Y-16695296D01*
X49287005Y-16695296D01*
X48954415Y-16761452D01*
X48672459Y-16949849D01*
X48484062Y-17231805D01*
X48417906Y-17564395D01*
X46976104Y-17564395D01*
X46909948Y-17231805D01*
X46721551Y-16949849D01*
X46439595Y-16761452D01*
X46107005Y-16695296D01*
X44207005Y-16695296D01*
X43887005Y-16758948D01*
X43567005Y-16695296D01*
X41667005Y-16695296D01*
X41334415Y-16761452D01*
X41052459Y-16949849D01*
X40864062Y-17231805D01*
X40797906Y-17564395D01*
X36816104Y-17564395D01*
X36749948Y-17231805D01*
X36561551Y-16949849D01*
X36279595Y-16761452D01*
X35947005Y-16695296D01*
X34047005Y-16695296D01*
X33714415Y-16761452D01*
X33432459Y-16949849D01*
X33244062Y-17231805D01*
X33177906Y-17564395D01*
X33177906Y-20564395D01*
X33244062Y-20896985D01*
X33432459Y-21178941D01*
X33714415Y-21367338D01*
X33744605Y-21373343D01*
X33744606Y-23751159D01*
X33720071Y-23874505D01*
X33817271Y-24363166D01*
X34024206Y-24672866D01*
X34024208Y-24672868D01*
X34040901Y-24697851D01*
X34040901Y-24850000D01*
X34126087Y-25278261D01*
X34368678Y-25641322D01*
X34731739Y-25883913D01*
X35160000Y-25969099D01*
X35960000Y-25969099D01*
X36388261Y-25883913D01*
X36606784Y-25737900D01*
X37014999Y-25819099D01*
X37856775Y-25819099D01*
X37800901Y-26099999D01*
X37800901Y-26750001D01*
X37886087Y-27178261D01*
X38117600Y-27524745D01*
X38117601Y-30215237D01*
X33263240Y-35069600D01*
X30236761Y-35069600D01*
X30111410Y-34944250D01*
X30111410Y-34847655D01*
X30038744Y-34482339D01*
X29998099Y-34421509D01*
X29998099Y-32913000D01*
X29931943Y-32580410D01*
X29917847Y-32559314D01*
X30897363Y-31579798D01*
X31001929Y-31509929D01*
X31278734Y-31095662D01*
X31351400Y-30730346D01*
X31351400Y-30730341D01*
X31375934Y-30607001D01*
X31351400Y-30483660D01*
X31351400Y-29932099D01*
X31669000Y-29932099D01*
X32001590Y-29865943D01*
X32283546Y-29677546D01*
X32471943Y-29395590D01*
X32538099Y-29063000D01*
X32538099Y-28792578D01*
X32548734Y-28776662D01*
X32621400Y-28411346D01*
X32621400Y-26806842D01*
X32645934Y-26683500D01*
X32621400Y-26560158D01*
X32621400Y-26560154D01*
X32548734Y-26194838D01*
X32486654Y-26101929D01*
X32341799Y-25885138D01*
X32341798Y-25885137D01*
X32271929Y-25780571D01*
X32167363Y-25710702D01*
X31945099Y-25488438D01*
X31945099Y-25307999D01*
X31859913Y-24879739D01*
X31786523Y-24769903D01*
X31817323Y-24749323D01*
X32059913Y-24386261D01*
X32145099Y-23958001D01*
X32145099Y-23057999D01*
X32059913Y-22629739D01*
X31817323Y-22266677D01*
X31732400Y-22209933D01*
X31732400Y-20583016D01*
X31736104Y-20564395D01*
X31736104Y-19703319D01*
X31756934Y-19598599D01*
X31736104Y-19493879D01*
X31736104Y-17564395D01*
X31669948Y-17231805D01*
X31481551Y-16949849D01*
X31199595Y-16761452D01*
X30867005Y-16695296D01*
X28967005Y-16695296D01*
X28647005Y-16758948D01*
X28327005Y-16695296D01*
X26427005Y-16695296D01*
X26094415Y-16761452D01*
X25812459Y-16949849D01*
X25624062Y-17231805D01*
X25557906Y-17564395D01*
X25557906Y-20564395D01*
X25624062Y-20896985D01*
X25812459Y-21178941D01*
X26094415Y-21367338D01*
X26427005Y-21433494D01*
X26687601Y-21433494D01*
X26687601Y-23073654D01*
X26663066Y-23197000D01*
X26760266Y-23685661D01*
X26806901Y-23755455D01*
X26806901Y-23958001D01*
X26892087Y-24386261D01*
X27134677Y-24749323D01*
X27165477Y-24769903D01*
X27092087Y-24879739D01*
X27006901Y-25307999D01*
X27006901Y-25455939D01*
X26760637Y-25702203D01*
X26656072Y-25772071D01*
X26586203Y-25876637D01*
X26586201Y-25876639D01*
X26379266Y-26186339D01*
X26353209Y-26317338D01*
X26306600Y-26551654D01*
X26306600Y-26551658D01*
X26282066Y-26675000D01*
X26306600Y-26798342D01*
X26306600Y-28411345D01*
X26355159Y-28655469D01*
X26278261Y-28604087D01*
X25850001Y-28518901D01*
X24949999Y-28518901D01*
X24521739Y-28604087D01*
X24158677Y-28846677D01*
X23916087Y-29209739D01*
X23875200Y-29415292D01*
X23875200Y-12445200D01*
X79502801Y-12445200D01*
X79502800Y-45720800D01*
G04 #@! TD*
M02*
