G04 #@! TF.GenerationSoftware,KiCad,Pcbnew,(5.0.0-rc2-dev-586-g888c43477)*
G04 #@! TF.CreationDate,2018-06-04T01:03:36-03:00*
G04 #@! TF.ProjectId,Signal,5369676E616C2E6B696361645F706362,rev?*
G04 #@! TF.SameCoordinates,Original*
G04 #@! TF.FileFunction,Soldermask,Bot*
G04 #@! TF.FilePolarity,Negative*
%FSLAX46Y46*%
G04 Gerber Fmt 4.6, Leading zero omitted, Abs format (unit mm)*
G04 Created by KiCad (PCBNEW (5.0.0-rc2-dev-586-g888c43477)) date 06/04/18 01:03:36*
%MOMM*%
%LPD*%
G01*
G04 APERTURE LIST*
%ADD10R,1.295000X1.400000*%
%ADD11R,0.900000X0.800000*%
%ADD12C,1.524000*%
%ADD13R,1.400000X1.295000*%
%ADD14R,1.200000X0.900000*%
%ADD15R,1.500000X0.600000*%
G04 APERTURE END LIST*
D10*
X32463500Y-23000000D03*
X30528500Y-23000000D03*
D11*
X73644000Y-24958000D03*
X73644000Y-26858000D03*
X71644000Y-25908000D03*
D12*
X71628000Y-20320000D03*
X69088000Y-20320000D03*
X66548000Y-20320000D03*
X62738000Y-20320000D03*
X60198000Y-20320000D03*
X57658000Y-20320000D03*
X55118000Y-20320000D03*
X51308000Y-20320000D03*
X48768000Y-20320000D03*
X46228000Y-20320000D03*
X43688000Y-20320000D03*
X41148000Y-20320000D03*
X37338000Y-20320000D03*
X34798000Y-20320000D03*
X32258000Y-20320000D03*
X29718000Y-20320000D03*
X74168000Y-20320000D03*
D10*
X46179500Y-42164000D03*
X44244500Y-42164000D03*
X32560500Y-34544000D03*
X34495500Y-34544000D03*
D13*
X37084000Y-37894500D03*
X37084000Y-39829500D03*
D10*
X32560500Y-29972000D03*
X34495500Y-29972000D03*
X28653500Y-29464000D03*
X26718500Y-29464000D03*
D13*
X76200000Y-32717500D03*
X76200000Y-30782500D03*
D10*
X68628500Y-38862000D03*
X70563500Y-38862000D03*
X51610500Y-29972000D03*
X53545500Y-29972000D03*
X58625500Y-29718000D03*
X56690500Y-29718000D03*
D13*
X61516500Y-36370500D03*
X61516500Y-38305500D03*
D10*
X59387500Y-34290000D03*
X57452500Y-34290000D03*
D14*
X78740000Y-30608000D03*
X78740000Y-33908000D03*
D13*
X41910000Y-37035500D03*
X41910000Y-35100500D03*
X59436000Y-41861500D03*
X59436000Y-39926500D03*
X44196000Y-33987500D03*
X44196000Y-32052500D03*
X75438000Y-36116500D03*
X75438000Y-38051500D03*
D10*
X68120500Y-17780000D03*
X70055500Y-17780000D03*
X75994500Y-28448000D03*
X77929500Y-28448000D03*
D13*
X69088000Y-24892000D03*
X69088000Y-22957000D03*
D10*
X50594500Y-43434000D03*
X52529500Y-43434000D03*
D13*
X57404000Y-41861500D03*
X57404000Y-39926500D03*
D10*
X48967500Y-25250000D03*
X47032500Y-25250000D03*
X19352500Y-41910000D03*
X21287500Y-41910000D03*
D13*
X19304000Y-39575500D03*
X19304000Y-37640500D03*
X61468000Y-32306500D03*
X61468000Y-34241500D03*
D10*
X32560500Y-32258000D03*
X34495500Y-32258000D03*
D13*
X37084000Y-34495500D03*
X37084000Y-32560500D03*
X34798000Y-39926500D03*
X34798000Y-41861500D03*
X19304000Y-33987500D03*
X19304000Y-32052500D03*
X32512000Y-41861500D03*
X32512000Y-39926500D03*
D10*
X25194500Y-43434000D03*
X27129500Y-43434000D03*
X57452500Y-37338000D03*
X59387500Y-37338000D03*
D13*
X44196000Y-37640500D03*
X44196000Y-39575500D03*
X17272000Y-37035500D03*
X17272000Y-35100500D03*
D10*
X59387500Y-32004000D03*
X57452500Y-32004000D03*
X34495500Y-37592000D03*
X32560500Y-37592000D03*
D13*
X27178000Y-19606500D03*
X27178000Y-21541500D03*
D15*
X48608000Y-40132000D03*
X48608000Y-38862000D03*
X48608000Y-37592000D03*
X48608000Y-36322000D03*
X48608000Y-35052000D03*
X48608000Y-33782000D03*
X48608000Y-32512000D03*
X54008000Y-32512000D03*
X54008000Y-33782000D03*
X54008000Y-35052000D03*
X54008000Y-36322000D03*
X54008000Y-37592000D03*
X54008000Y-38862000D03*
X54008000Y-40132000D03*
D10*
X30528500Y-17750000D03*
X32463500Y-17750000D03*
X58976500Y-24384000D03*
X60911500Y-24384000D03*
X57101500Y-23114000D03*
X55166500Y-23114000D03*
D15*
X28989000Y-39751000D03*
X28989000Y-38481000D03*
X28989000Y-37211000D03*
X28989000Y-35941000D03*
X28989000Y-34671000D03*
X28989000Y-33401000D03*
X28989000Y-32131000D03*
X23589000Y-32131000D03*
X23589000Y-33401000D03*
X23589000Y-34671000D03*
X23589000Y-35941000D03*
X23589000Y-37211000D03*
X23589000Y-38481000D03*
X23589000Y-39751000D03*
X66896000Y-36830000D03*
X66896000Y-35560000D03*
X66896000Y-34290000D03*
X66896000Y-33020000D03*
X66896000Y-31750000D03*
X66896000Y-30480000D03*
X66896000Y-29210000D03*
X72296000Y-29210000D03*
X72296000Y-30480000D03*
X72296000Y-31750000D03*
X72296000Y-33020000D03*
X72296000Y-34290000D03*
X72296000Y-35560000D03*
X72296000Y-36830000D03*
M02*
