G04 #@! TF.GenerationSoftware,KiCad,Pcbnew,(5.0.0-rc2-dev-586-g888c43477)*
G04 #@! TF.CreationDate,2018-06-03T13:56:12-03:00*
G04 #@! TF.ProjectId,Signal,5369676E616C2E6B696361645F706362,rev?*
G04 #@! TF.SameCoordinates,Original*
G04 #@! TF.FileFunction,Legend,Bot*
G04 #@! TF.FilePolarity,Positive*
%FSLAX46Y46*%
G04 Gerber Fmt 4.6, Leading zero omitted, Abs format (unit mm)*
G04 Created by KiCad (PCBNEW (5.0.0-rc2-dev-586-g888c43477)) date 06/03/18 13:56:12*
%MOMM*%
%LPD*%
G01*
G04 APERTURE LIST*
%ADD10C,0.120000*%
%ADD11C,0.150000*%
G04 APERTURE END LIST*
D10*
X71376000Y-26472000D02*
X71376000Y-25542000D01*
X71376000Y-23312000D02*
X71376000Y-24242000D01*
X71376000Y-23312000D02*
X73536000Y-23312000D01*
X71376000Y-26472000D02*
X72836000Y-26472000D01*
X77740000Y-30008000D02*
X79740000Y-30008000D01*
X79740000Y-30008000D02*
X79740000Y-33908000D01*
X77740000Y-30008000D02*
X77740000Y-33908000D01*
D11*
X49233000Y-40772000D02*
X49233000Y-40747000D01*
X53383000Y-40772000D02*
X53383000Y-40657000D01*
X53383000Y-31872000D02*
X53383000Y-31987000D01*
X49233000Y-31872000D02*
X49233000Y-31987000D01*
X49233000Y-40772000D02*
X53383000Y-40772000D01*
X49233000Y-31872000D02*
X53383000Y-31872000D01*
X49233000Y-40747000D02*
X47858000Y-40747000D01*
X24214000Y-40366000D02*
X22839000Y-40366000D01*
X24214000Y-31491000D02*
X28364000Y-31491000D01*
X24214000Y-40391000D02*
X28364000Y-40391000D01*
X24214000Y-31491000D02*
X24214000Y-31606000D01*
X28364000Y-31491000D02*
X28364000Y-31606000D01*
X28364000Y-40391000D02*
X28364000Y-40276000D01*
X24214000Y-40391000D02*
X24214000Y-40366000D01*
X67521000Y-37470000D02*
X67521000Y-37445000D01*
X71671000Y-37470000D02*
X71671000Y-37355000D01*
X71671000Y-28570000D02*
X71671000Y-28685000D01*
X67521000Y-28570000D02*
X67521000Y-28685000D01*
X67521000Y-37470000D02*
X71671000Y-37470000D01*
X67521000Y-28570000D02*
X71671000Y-28570000D01*
X67521000Y-37445000D02*
X66146000Y-37445000D01*
X30892857Y-25102380D02*
X31226190Y-24626190D01*
X31464285Y-25102380D02*
X31464285Y-24102380D01*
X31083333Y-24102380D01*
X30988095Y-24150000D01*
X30940476Y-24197619D01*
X30892857Y-24292857D01*
X30892857Y-24435714D01*
X30940476Y-24530952D01*
X30988095Y-24578571D01*
X31083333Y-24626190D01*
X31464285Y-24626190D01*
X30559523Y-24102380D02*
X29940476Y-24102380D01*
X30273809Y-24483333D01*
X30130952Y-24483333D01*
X30035714Y-24530952D01*
X29988095Y-24578571D01*
X29940476Y-24673809D01*
X29940476Y-24911904D01*
X29988095Y-25007142D01*
X30035714Y-25054761D01*
X30130952Y-25102380D01*
X30416666Y-25102380D01*
X30511904Y-25054761D01*
X30559523Y-25007142D01*
X29559523Y-24197619D02*
X29511904Y-24150000D01*
X29416666Y-24102380D01*
X29178571Y-24102380D01*
X29083333Y-24150000D01*
X29035714Y-24197619D01*
X28988095Y-24292857D01*
X28988095Y-24388095D01*
X29035714Y-24530952D01*
X29607142Y-25102380D01*
X28988095Y-25102380D01*
X72231238Y-22939619D02*
X72326476Y-22892000D01*
X72421714Y-22796761D01*
X72564571Y-22653904D01*
X72659809Y-22606285D01*
X72755047Y-22606285D01*
X72707428Y-22844380D02*
X72802666Y-22796761D01*
X72897904Y-22701523D01*
X72945523Y-22511047D01*
X72945523Y-22177714D01*
X72897904Y-21987238D01*
X72802666Y-21892000D01*
X72707428Y-21844380D01*
X72516952Y-21844380D01*
X72421714Y-21892000D01*
X72326476Y-21987238D01*
X72278857Y-22177714D01*
X72278857Y-22511047D01*
X72326476Y-22701523D01*
X72421714Y-22796761D01*
X72516952Y-22844380D01*
X72707428Y-22844380D01*
X71326476Y-22844380D02*
X71897904Y-22844380D01*
X71612190Y-22844380D02*
X71612190Y-21844380D01*
X71707428Y-21987238D01*
X71802666Y-22082476D01*
X71897904Y-22130095D01*
X45854857Y-44266380D02*
X46188190Y-43790190D01*
X46426285Y-44266380D02*
X46426285Y-43266380D01*
X46045333Y-43266380D01*
X45950095Y-43314000D01*
X45902476Y-43361619D01*
X45854857Y-43456857D01*
X45854857Y-43599714D01*
X45902476Y-43694952D01*
X45950095Y-43742571D01*
X46045333Y-43790190D01*
X46426285Y-43790190D01*
X44902476Y-44266380D02*
X45473904Y-44266380D01*
X45188190Y-44266380D02*
X45188190Y-43266380D01*
X45283428Y-43409238D01*
X45378666Y-43504476D01*
X45473904Y-43552095D01*
X44331047Y-43694952D02*
X44426285Y-43647333D01*
X44473904Y-43599714D01*
X44521523Y-43504476D01*
X44521523Y-43456857D01*
X44473904Y-43361619D01*
X44426285Y-43314000D01*
X44331047Y-43266380D01*
X44140571Y-43266380D01*
X44045333Y-43314000D01*
X43997714Y-43361619D01*
X43950095Y-43456857D01*
X43950095Y-43504476D01*
X43997714Y-43599714D01*
X44045333Y-43647333D01*
X44140571Y-43694952D01*
X44331047Y-43694952D01*
X44426285Y-43742571D01*
X44473904Y-43790190D01*
X44521523Y-43885428D01*
X44521523Y-44075904D01*
X44473904Y-44171142D01*
X44426285Y-44218761D01*
X44331047Y-44266380D01*
X44140571Y-44266380D01*
X44045333Y-44218761D01*
X43997714Y-44171142D01*
X43950095Y-44075904D01*
X43950095Y-43885428D01*
X43997714Y-43790190D01*
X44045333Y-43742571D01*
X44140571Y-43694952D01*
X34170857Y-33251142D02*
X34218476Y-33298761D01*
X34361333Y-33346380D01*
X34456571Y-33346380D01*
X34599428Y-33298761D01*
X34694666Y-33203523D01*
X34742285Y-33108285D01*
X34789904Y-32917809D01*
X34789904Y-32774952D01*
X34742285Y-32584476D01*
X34694666Y-32489238D01*
X34599428Y-32394000D01*
X34456571Y-32346380D01*
X34361333Y-32346380D01*
X34218476Y-32394000D01*
X34170857Y-32441619D01*
X33218476Y-33346380D02*
X33789904Y-33346380D01*
X33504190Y-33346380D02*
X33504190Y-32346380D01*
X33599428Y-32489238D01*
X33694666Y-32584476D01*
X33789904Y-32632095D01*
X32361333Y-32679714D02*
X32361333Y-33346380D01*
X32599428Y-32298761D02*
X32837523Y-33013047D01*
X32218476Y-33013047D01*
X35791142Y-38219142D02*
X35838761Y-38171523D01*
X35886380Y-38028666D01*
X35886380Y-37933428D01*
X35838761Y-37790571D01*
X35743523Y-37695333D01*
X35648285Y-37647714D01*
X35457809Y-37600095D01*
X35314952Y-37600095D01*
X35124476Y-37647714D01*
X35029238Y-37695333D01*
X34934000Y-37790571D01*
X34886380Y-37933428D01*
X34886380Y-38028666D01*
X34934000Y-38171523D01*
X34981619Y-38219142D01*
X35886380Y-39171523D02*
X35886380Y-38600095D01*
X35886380Y-38885809D02*
X34886380Y-38885809D01*
X35029238Y-38790571D01*
X35124476Y-38695333D01*
X35172095Y-38600095D01*
X34886380Y-39504857D02*
X34886380Y-40123904D01*
X35267333Y-39790571D01*
X35267333Y-39933428D01*
X35314952Y-40028666D01*
X35362571Y-40076285D01*
X35457809Y-40123904D01*
X35695904Y-40123904D01*
X35791142Y-40076285D01*
X35838761Y-40028666D01*
X35886380Y-39933428D01*
X35886380Y-39647714D01*
X35838761Y-39552476D01*
X35791142Y-39504857D01*
X34170857Y-28679142D02*
X34218476Y-28726761D01*
X34361333Y-28774380D01*
X34456571Y-28774380D01*
X34599428Y-28726761D01*
X34694666Y-28631523D01*
X34742285Y-28536285D01*
X34789904Y-28345809D01*
X34789904Y-28202952D01*
X34742285Y-28012476D01*
X34694666Y-27917238D01*
X34599428Y-27822000D01*
X34456571Y-27774380D01*
X34361333Y-27774380D01*
X34218476Y-27822000D01*
X34170857Y-27869619D01*
X33218476Y-28774380D02*
X33789904Y-28774380D01*
X33504190Y-28774380D02*
X33504190Y-27774380D01*
X33599428Y-27917238D01*
X33694666Y-28012476D01*
X33789904Y-28060095D01*
X32837523Y-27869619D02*
X32789904Y-27822000D01*
X32694666Y-27774380D01*
X32456571Y-27774380D01*
X32361333Y-27822000D01*
X32313714Y-27869619D01*
X32266095Y-27964857D01*
X32266095Y-28060095D01*
X32313714Y-28202952D01*
X32885142Y-28774380D01*
X32266095Y-28774380D01*
X28328857Y-28171142D02*
X28376476Y-28218761D01*
X28519333Y-28266380D01*
X28614571Y-28266380D01*
X28757428Y-28218761D01*
X28852666Y-28123523D01*
X28900285Y-28028285D01*
X28947904Y-27837809D01*
X28947904Y-27694952D01*
X28900285Y-27504476D01*
X28852666Y-27409238D01*
X28757428Y-27314000D01*
X28614571Y-27266380D01*
X28519333Y-27266380D01*
X28376476Y-27314000D01*
X28328857Y-27361619D01*
X27376476Y-28266380D02*
X27947904Y-28266380D01*
X27662190Y-28266380D02*
X27662190Y-27266380D01*
X27757428Y-27409238D01*
X27852666Y-27504476D01*
X27947904Y-27552095D01*
X26424095Y-28266380D02*
X26995523Y-28266380D01*
X26709809Y-28266380D02*
X26709809Y-27266380D01*
X26805047Y-27409238D01*
X26900285Y-27504476D01*
X26995523Y-27552095D01*
X74907142Y-31583333D02*
X74954761Y-31535714D01*
X75002380Y-31392857D01*
X75002380Y-31297619D01*
X74954761Y-31154761D01*
X74859523Y-31059523D01*
X74764285Y-31011904D01*
X74573809Y-30964285D01*
X74430952Y-30964285D01*
X74240476Y-31011904D01*
X74145238Y-31059523D01*
X74050000Y-31154761D01*
X74002380Y-31297619D01*
X74002380Y-31392857D01*
X74050000Y-31535714D01*
X74097619Y-31583333D01*
X75002380Y-32535714D02*
X75002380Y-31964285D01*
X75002380Y-32250000D02*
X74002380Y-32250000D01*
X74145238Y-32154761D01*
X74240476Y-32059523D01*
X74288095Y-31964285D01*
X69762666Y-40869142D02*
X69810285Y-40916761D01*
X69953142Y-40964380D01*
X70048380Y-40964380D01*
X70191238Y-40916761D01*
X70286476Y-40821523D01*
X70334095Y-40726285D01*
X70381714Y-40535809D01*
X70381714Y-40392952D01*
X70334095Y-40202476D01*
X70286476Y-40107238D01*
X70191238Y-40012000D01*
X70048380Y-39964380D01*
X69953142Y-39964380D01*
X69810285Y-40012000D01*
X69762666Y-40059619D01*
X69381714Y-40059619D02*
X69334095Y-40012000D01*
X69238857Y-39964380D01*
X69000761Y-39964380D01*
X68905523Y-40012000D01*
X68857904Y-40059619D01*
X68810285Y-40154857D01*
X68810285Y-40250095D01*
X68857904Y-40392952D01*
X69429333Y-40964380D01*
X68810285Y-40964380D01*
X52744666Y-28679142D02*
X52792285Y-28726761D01*
X52935142Y-28774380D01*
X53030380Y-28774380D01*
X53173238Y-28726761D01*
X53268476Y-28631523D01*
X53316095Y-28536285D01*
X53363714Y-28345809D01*
X53363714Y-28202952D01*
X53316095Y-28012476D01*
X53268476Y-27917238D01*
X53173238Y-27822000D01*
X53030380Y-27774380D01*
X52935142Y-27774380D01*
X52792285Y-27822000D01*
X52744666Y-27869619D01*
X52411333Y-27774380D02*
X51744666Y-27774380D01*
X52173238Y-28774380D01*
X57824666Y-31725142D02*
X57872285Y-31772761D01*
X58015142Y-31820380D01*
X58110380Y-31820380D01*
X58253238Y-31772761D01*
X58348476Y-31677523D01*
X58396095Y-31582285D01*
X58443714Y-31391809D01*
X58443714Y-31248952D01*
X58396095Y-31058476D01*
X58348476Y-30963238D01*
X58253238Y-30868000D01*
X58110380Y-30820380D01*
X58015142Y-30820380D01*
X57872285Y-30868000D01*
X57824666Y-30915619D01*
X57253238Y-31248952D02*
X57348476Y-31201333D01*
X57396095Y-31153714D01*
X57443714Y-31058476D01*
X57443714Y-31010857D01*
X57396095Y-30915619D01*
X57348476Y-30868000D01*
X57253238Y-30820380D01*
X57062761Y-30820380D01*
X56967523Y-30868000D01*
X56919904Y-30915619D01*
X56872285Y-31010857D01*
X56872285Y-31058476D01*
X56919904Y-31153714D01*
X56967523Y-31201333D01*
X57062761Y-31248952D01*
X57253238Y-31248952D01*
X57348476Y-31296571D01*
X57396095Y-31344190D01*
X57443714Y-31439428D01*
X57443714Y-31629904D01*
X57396095Y-31725142D01*
X57348476Y-31772761D01*
X57253238Y-31820380D01*
X57062761Y-31820380D01*
X56967523Y-31772761D01*
X56919904Y-31725142D01*
X56872285Y-31629904D01*
X56872285Y-31439428D01*
X56919904Y-31344190D01*
X56967523Y-31296571D01*
X57062761Y-31248952D01*
X63523642Y-37171333D02*
X63571261Y-37123714D01*
X63618880Y-36980857D01*
X63618880Y-36885619D01*
X63571261Y-36742761D01*
X63476023Y-36647523D01*
X63380785Y-36599904D01*
X63190309Y-36552285D01*
X63047452Y-36552285D01*
X62856976Y-36599904D01*
X62761738Y-36647523D01*
X62666500Y-36742761D01*
X62618880Y-36885619D01*
X62618880Y-36980857D01*
X62666500Y-37123714D01*
X62714119Y-37171333D01*
X63618880Y-37647523D02*
X63618880Y-37838000D01*
X63571261Y-37933238D01*
X63523642Y-37980857D01*
X63380785Y-38076095D01*
X63190309Y-38123714D01*
X62809357Y-38123714D01*
X62714119Y-38076095D01*
X62666500Y-38028476D01*
X62618880Y-37933238D01*
X62618880Y-37742761D01*
X62666500Y-37647523D01*
X62714119Y-37599904D01*
X62809357Y-37552285D01*
X63047452Y-37552285D01*
X63142690Y-37599904D01*
X63190309Y-37647523D01*
X63237928Y-37742761D01*
X63237928Y-37933238D01*
X63190309Y-38028476D01*
X63142690Y-38076095D01*
X63047452Y-38123714D01*
X59062857Y-32997142D02*
X59110476Y-33044761D01*
X59253333Y-33092380D01*
X59348571Y-33092380D01*
X59491428Y-33044761D01*
X59586666Y-32949523D01*
X59634285Y-32854285D01*
X59681904Y-32663809D01*
X59681904Y-32520952D01*
X59634285Y-32330476D01*
X59586666Y-32235238D01*
X59491428Y-32140000D01*
X59348571Y-32092380D01*
X59253333Y-32092380D01*
X59110476Y-32140000D01*
X59062857Y-32187619D01*
X58110476Y-33092380D02*
X58681904Y-33092380D01*
X58396190Y-33092380D02*
X58396190Y-32092380D01*
X58491428Y-32235238D01*
X58586666Y-32330476D01*
X58681904Y-32378095D01*
X57491428Y-32092380D02*
X57396190Y-32092380D01*
X57300952Y-32140000D01*
X57253333Y-32187619D01*
X57205714Y-32282857D01*
X57158095Y-32473333D01*
X57158095Y-32711428D01*
X57205714Y-32901904D01*
X57253333Y-32997142D01*
X57300952Y-33044761D01*
X57396190Y-33092380D01*
X57491428Y-33092380D01*
X57586666Y-33044761D01*
X57634285Y-32997142D01*
X57681904Y-32901904D01*
X57729523Y-32711428D01*
X57729523Y-32473333D01*
X57681904Y-32282857D01*
X57634285Y-32187619D01*
X57586666Y-32140000D01*
X57491428Y-32092380D01*
X77192380Y-31519904D02*
X76192380Y-31519904D01*
X76192380Y-31758000D01*
X76240000Y-31900857D01*
X76335238Y-31996095D01*
X76430476Y-32043714D01*
X76620952Y-32091333D01*
X76763809Y-32091333D01*
X76954285Y-32043714D01*
X77049523Y-31996095D01*
X77144761Y-31900857D01*
X77192380Y-31758000D01*
X77192380Y-31519904D01*
X77192380Y-33043714D02*
X77192380Y-32472285D01*
X77192380Y-32758000D02*
X76192380Y-32758000D01*
X76335238Y-32662761D01*
X76430476Y-32567523D01*
X76478095Y-32472285D01*
X40712380Y-35425142D02*
X40236190Y-35091809D01*
X40712380Y-34853714D02*
X39712380Y-34853714D01*
X39712380Y-35234666D01*
X39760000Y-35329904D01*
X39807619Y-35377523D01*
X39902857Y-35425142D01*
X40045714Y-35425142D01*
X40140952Y-35377523D01*
X40188571Y-35329904D01*
X40236190Y-35234666D01*
X40236190Y-34853714D01*
X40712380Y-36377523D02*
X40712380Y-35806095D01*
X40712380Y-36091809D02*
X39712380Y-36091809D01*
X39855238Y-35996571D01*
X39950476Y-35901333D01*
X39998095Y-35806095D01*
X39712380Y-37234666D02*
X39712380Y-37044190D01*
X39760000Y-36948952D01*
X39807619Y-36901333D01*
X39950476Y-36806095D01*
X40140952Y-36758476D01*
X40521904Y-36758476D01*
X40617142Y-36806095D01*
X40664761Y-36853714D01*
X40712380Y-36948952D01*
X40712380Y-37139428D01*
X40664761Y-37234666D01*
X40617142Y-37282285D01*
X40521904Y-37329904D01*
X40283809Y-37329904D01*
X40188571Y-37282285D01*
X40140952Y-37234666D01*
X40093333Y-37139428D01*
X40093333Y-36948952D01*
X40140952Y-36853714D01*
X40188571Y-36806095D01*
X40283809Y-36758476D01*
X61538380Y-39346380D02*
X61538380Y-38774952D01*
X61538380Y-39060666D02*
X60538380Y-39060666D01*
X60681238Y-38965428D01*
X60776476Y-38870190D01*
X60824095Y-38774952D01*
X60538380Y-39965428D02*
X60538380Y-40060666D01*
X60586000Y-40155904D01*
X60633619Y-40203523D01*
X60728857Y-40251142D01*
X60919333Y-40298761D01*
X61157428Y-40298761D01*
X61347904Y-40251142D01*
X61443142Y-40203523D01*
X61490761Y-40155904D01*
X61538380Y-40060666D01*
X61538380Y-39965428D01*
X61490761Y-39870190D01*
X61443142Y-39822571D01*
X61347904Y-39774952D01*
X61157428Y-39727333D01*
X60919333Y-39727333D01*
X60728857Y-39774952D01*
X60633619Y-39822571D01*
X60586000Y-39870190D01*
X60538380Y-39965428D01*
X60538380Y-40917809D02*
X60538380Y-41013047D01*
X60586000Y-41108285D01*
X60633619Y-41155904D01*
X60728857Y-41203523D01*
X60919333Y-41251142D01*
X61157428Y-41251142D01*
X61347904Y-41203523D01*
X61443142Y-41155904D01*
X61490761Y-41108285D01*
X61538380Y-41013047D01*
X61538380Y-40917809D01*
X61490761Y-40822571D01*
X61443142Y-40774952D01*
X61347904Y-40727333D01*
X61157428Y-40679714D01*
X60919333Y-40679714D01*
X60728857Y-40727333D01*
X60633619Y-40774952D01*
X60586000Y-40822571D01*
X60538380Y-40917809D01*
X61538380Y-41679714D02*
X60538380Y-41679714D01*
X61157428Y-41774952D02*
X61538380Y-42060666D01*
X60871714Y-42060666D02*
X61252666Y-41679714D01*
X60538380Y-42394000D02*
X60538380Y-43060666D01*
X61538380Y-42632095D01*
X42998380Y-32377142D02*
X42522190Y-32043809D01*
X42998380Y-31805714D02*
X41998380Y-31805714D01*
X41998380Y-32186666D01*
X42046000Y-32281904D01*
X42093619Y-32329523D01*
X42188857Y-32377142D01*
X42331714Y-32377142D01*
X42426952Y-32329523D01*
X42474571Y-32281904D01*
X42522190Y-32186666D01*
X42522190Y-31805714D01*
X42998380Y-33329523D02*
X42998380Y-32758095D01*
X42998380Y-33043809D02*
X41998380Y-33043809D01*
X42141238Y-32948571D01*
X42236476Y-32853333D01*
X42284095Y-32758095D01*
X42093619Y-33710476D02*
X42046000Y-33758095D01*
X41998380Y-33853333D01*
X41998380Y-34091428D01*
X42046000Y-34186666D01*
X42093619Y-34234285D01*
X42188857Y-34281904D01*
X42284095Y-34281904D01*
X42426952Y-34234285D01*
X42998380Y-33662857D01*
X42998380Y-34281904D01*
X74240380Y-36917333D02*
X73764190Y-36584000D01*
X74240380Y-36345904D02*
X73240380Y-36345904D01*
X73240380Y-36726857D01*
X73288000Y-36822095D01*
X73335619Y-36869714D01*
X73430857Y-36917333D01*
X73573714Y-36917333D01*
X73668952Y-36869714D01*
X73716571Y-36822095D01*
X73764190Y-36726857D01*
X73764190Y-36345904D01*
X74240380Y-37869714D02*
X74240380Y-37298285D01*
X74240380Y-37584000D02*
X73240380Y-37584000D01*
X73383238Y-37488761D01*
X73478476Y-37393523D01*
X73526095Y-37298285D01*
X69254666Y-16582380D02*
X69588000Y-16106190D01*
X69826095Y-16582380D02*
X69826095Y-15582380D01*
X69445142Y-15582380D01*
X69349904Y-15630000D01*
X69302285Y-15677619D01*
X69254666Y-15772857D01*
X69254666Y-15915714D01*
X69302285Y-16010952D01*
X69349904Y-16058571D01*
X69445142Y-16106190D01*
X69826095Y-16106190D01*
X68873714Y-15677619D02*
X68826095Y-15630000D01*
X68730857Y-15582380D01*
X68492761Y-15582380D01*
X68397523Y-15630000D01*
X68349904Y-15677619D01*
X68302285Y-15772857D01*
X68302285Y-15868095D01*
X68349904Y-16010952D01*
X68921333Y-16582380D01*
X68302285Y-16582380D01*
X77128666Y-30550380D02*
X77462000Y-30074190D01*
X77700095Y-30550380D02*
X77700095Y-29550380D01*
X77319142Y-29550380D01*
X77223904Y-29598000D01*
X77176285Y-29645619D01*
X77128666Y-29740857D01*
X77128666Y-29883714D01*
X77176285Y-29978952D01*
X77223904Y-30026571D01*
X77319142Y-30074190D01*
X77700095Y-30074190D01*
X76795333Y-29550380D02*
X76176285Y-29550380D01*
X76509619Y-29931333D01*
X76366761Y-29931333D01*
X76271523Y-29978952D01*
X76223904Y-30026571D01*
X76176285Y-30121809D01*
X76176285Y-30359904D01*
X76223904Y-30455142D01*
X76271523Y-30502761D01*
X76366761Y-30550380D01*
X76652476Y-30550380D01*
X76747714Y-30502761D01*
X76795333Y-30455142D01*
X67890380Y-23757833D02*
X67414190Y-23424500D01*
X67890380Y-23186404D02*
X66890380Y-23186404D01*
X66890380Y-23567357D01*
X66938000Y-23662595D01*
X66985619Y-23710214D01*
X67080857Y-23757833D01*
X67223714Y-23757833D01*
X67318952Y-23710214D01*
X67366571Y-23662595D01*
X67414190Y-23567357D01*
X67414190Y-23186404D01*
X67223714Y-24614976D02*
X67890380Y-24614976D01*
X66842761Y-24376880D02*
X67557047Y-24138785D01*
X67557047Y-24757833D01*
X52204857Y-45536380D02*
X52538190Y-45060190D01*
X52776285Y-45536380D02*
X52776285Y-44536380D01*
X52395333Y-44536380D01*
X52300095Y-44584000D01*
X52252476Y-44631619D01*
X52204857Y-44726857D01*
X52204857Y-44869714D01*
X52252476Y-44964952D01*
X52300095Y-45012571D01*
X52395333Y-45060190D01*
X52776285Y-45060190D01*
X51252476Y-45536380D02*
X51823904Y-45536380D01*
X51538190Y-45536380D02*
X51538190Y-44536380D01*
X51633428Y-44679238D01*
X51728666Y-44774476D01*
X51823904Y-44822095D01*
X50633428Y-44536380D02*
X50538190Y-44536380D01*
X50442952Y-44584000D01*
X50395333Y-44631619D01*
X50347714Y-44726857D01*
X50300095Y-44917333D01*
X50300095Y-45155428D01*
X50347714Y-45345904D01*
X50395333Y-45441142D01*
X50442952Y-45488761D01*
X50538190Y-45536380D01*
X50633428Y-45536380D01*
X50728666Y-45488761D01*
X50776285Y-45441142D01*
X50823904Y-45345904D01*
X50871523Y-45155428D01*
X50871523Y-44917333D01*
X50823904Y-44726857D01*
X50776285Y-44631619D01*
X50728666Y-44584000D01*
X50633428Y-44536380D01*
X56206380Y-40251142D02*
X55730190Y-39917809D01*
X56206380Y-39679714D02*
X55206380Y-39679714D01*
X55206380Y-40060666D01*
X55254000Y-40155904D01*
X55301619Y-40203523D01*
X55396857Y-40251142D01*
X55539714Y-40251142D01*
X55634952Y-40203523D01*
X55682571Y-40155904D01*
X55730190Y-40060666D01*
X55730190Y-39679714D01*
X56206380Y-41203523D02*
X56206380Y-40632095D01*
X56206380Y-40917809D02*
X55206380Y-40917809D01*
X55349238Y-40822571D01*
X55444476Y-40727333D01*
X55492095Y-40632095D01*
X56206380Y-42155904D02*
X56206380Y-41584476D01*
X56206380Y-41870190D02*
X55206380Y-41870190D01*
X55349238Y-41774952D01*
X55444476Y-41679714D01*
X55492095Y-41584476D01*
X50595238Y-24052380D02*
X50928571Y-23576190D01*
X51166666Y-24052380D02*
X51166666Y-23052380D01*
X50785714Y-23052380D01*
X50690476Y-23100000D01*
X50642857Y-23147619D01*
X50595238Y-23242857D01*
X50595238Y-23385714D01*
X50642857Y-23480952D01*
X50690476Y-23528571D01*
X50785714Y-23576190D01*
X51166666Y-23576190D01*
X50404761Y-24147619D02*
X49642857Y-24147619D01*
X49452380Y-24004761D02*
X49357142Y-24052380D01*
X49166666Y-24052380D01*
X49071428Y-24004761D01*
X49023809Y-23909523D01*
X49023809Y-23861904D01*
X49071428Y-23766666D01*
X49166666Y-23719047D01*
X49309523Y-23719047D01*
X49404761Y-23671428D01*
X49452380Y-23576190D01*
X49452380Y-23528571D01*
X49404761Y-23433333D01*
X49309523Y-23385714D01*
X49166666Y-23385714D01*
X49071428Y-23433333D01*
X48595238Y-24052380D02*
X48595238Y-23052380D01*
X48166666Y-24052380D02*
X48166666Y-23528571D01*
X48214285Y-23433333D01*
X48309523Y-23385714D01*
X48452380Y-23385714D01*
X48547619Y-23433333D01*
X48595238Y-23480952D01*
X47261904Y-23385714D02*
X47261904Y-24052380D01*
X47690476Y-23385714D02*
X47690476Y-23909523D01*
X47642857Y-24004761D01*
X47547619Y-24052380D01*
X47404761Y-24052380D01*
X47309523Y-24004761D01*
X47261904Y-23957142D01*
X46785714Y-23385714D02*
X46785714Y-24052380D01*
X46785714Y-23480952D02*
X46738095Y-23433333D01*
X46642857Y-23385714D01*
X46500000Y-23385714D01*
X46404761Y-23433333D01*
X46357142Y-23528571D01*
X46357142Y-24052380D01*
X46023809Y-23385714D02*
X45642857Y-23385714D01*
X45880952Y-23052380D02*
X45880952Y-23909523D01*
X45833333Y-24004761D01*
X45738095Y-24052380D01*
X45642857Y-24052380D01*
X44785714Y-24052380D02*
X45357142Y-24052380D01*
X45071428Y-24052380D02*
X45071428Y-23052380D01*
X45166666Y-23195238D01*
X45261904Y-23290476D01*
X45357142Y-23338095D01*
X20962857Y-40712380D02*
X21296190Y-40236190D01*
X21534285Y-40712380D02*
X21534285Y-39712380D01*
X21153333Y-39712380D01*
X21058095Y-39760000D01*
X21010476Y-39807619D01*
X20962857Y-39902857D01*
X20962857Y-40045714D01*
X21010476Y-40140952D01*
X21058095Y-40188571D01*
X21153333Y-40236190D01*
X21534285Y-40236190D01*
X20581904Y-39807619D02*
X20534285Y-39760000D01*
X20439047Y-39712380D01*
X20200952Y-39712380D01*
X20105714Y-39760000D01*
X20058095Y-39807619D01*
X20010476Y-39902857D01*
X20010476Y-39998095D01*
X20058095Y-40140952D01*
X20629523Y-40712380D01*
X20010476Y-40712380D01*
X19439047Y-40140952D02*
X19534285Y-40093333D01*
X19581904Y-40045714D01*
X19629523Y-39950476D01*
X19629523Y-39902857D01*
X19581904Y-39807619D01*
X19534285Y-39760000D01*
X19439047Y-39712380D01*
X19248571Y-39712380D01*
X19153333Y-39760000D01*
X19105714Y-39807619D01*
X19058095Y-39902857D01*
X19058095Y-39950476D01*
X19105714Y-40045714D01*
X19153333Y-40093333D01*
X19248571Y-40140952D01*
X19439047Y-40140952D01*
X19534285Y-40188571D01*
X19581904Y-40236190D01*
X19629523Y-40331428D01*
X19629523Y-40521904D01*
X19581904Y-40617142D01*
X19534285Y-40664761D01*
X19439047Y-40712380D01*
X19248571Y-40712380D01*
X19153333Y-40664761D01*
X19105714Y-40617142D01*
X19058095Y-40521904D01*
X19058095Y-40331428D01*
X19105714Y-40236190D01*
X19153333Y-40188571D01*
X19248571Y-40140952D01*
X21406380Y-37965142D02*
X20930190Y-37631809D01*
X21406380Y-37393714D02*
X20406380Y-37393714D01*
X20406380Y-37774666D01*
X20454000Y-37869904D01*
X20501619Y-37917523D01*
X20596857Y-37965142D01*
X20739714Y-37965142D01*
X20834952Y-37917523D01*
X20882571Y-37869904D01*
X20930190Y-37774666D01*
X20930190Y-37393714D01*
X20501619Y-38346095D02*
X20454000Y-38393714D01*
X20406380Y-38488952D01*
X20406380Y-38727047D01*
X20454000Y-38822285D01*
X20501619Y-38869904D01*
X20596857Y-38917523D01*
X20692095Y-38917523D01*
X20834952Y-38869904D01*
X21406380Y-38298476D01*
X21406380Y-38917523D01*
X20406380Y-39250857D02*
X20406380Y-39917523D01*
X21406380Y-39488952D01*
X63570380Y-31726380D02*
X63570380Y-31154952D01*
X63570380Y-31440666D02*
X62570380Y-31440666D01*
X62713238Y-31345428D01*
X62808476Y-31250190D01*
X62856095Y-31154952D01*
X62570380Y-32345428D02*
X62570380Y-32440666D01*
X62618000Y-32535904D01*
X62665619Y-32583523D01*
X62760857Y-32631142D01*
X62951333Y-32678761D01*
X63189428Y-32678761D01*
X63379904Y-32631142D01*
X63475142Y-32583523D01*
X63522761Y-32535904D01*
X63570380Y-32440666D01*
X63570380Y-32345428D01*
X63522761Y-32250190D01*
X63475142Y-32202571D01*
X63379904Y-32154952D01*
X63189428Y-32107333D01*
X62951333Y-32107333D01*
X62760857Y-32154952D01*
X62665619Y-32202571D01*
X62618000Y-32250190D01*
X62570380Y-32345428D01*
X62570380Y-33297809D02*
X62570380Y-33393047D01*
X62618000Y-33488285D01*
X62665619Y-33535904D01*
X62760857Y-33583523D01*
X62951333Y-33631142D01*
X63189428Y-33631142D01*
X63379904Y-33583523D01*
X63475142Y-33535904D01*
X63522761Y-33488285D01*
X63570380Y-33393047D01*
X63570380Y-33297809D01*
X63522761Y-33202571D01*
X63475142Y-33154952D01*
X63379904Y-33107333D01*
X63189428Y-33059714D01*
X62951333Y-33059714D01*
X62760857Y-33107333D01*
X62665619Y-33154952D01*
X62618000Y-33202571D01*
X62570380Y-33297809D01*
X63570380Y-34059714D02*
X62570380Y-34059714D01*
X63189428Y-34154952D02*
X63570380Y-34440666D01*
X62903714Y-34440666D02*
X63284666Y-34059714D01*
X62998952Y-35012095D02*
X62951333Y-34916857D01*
X62903714Y-34869238D01*
X62808476Y-34821619D01*
X62760857Y-34821619D01*
X62665619Y-34869238D01*
X62618000Y-34916857D01*
X62570380Y-35012095D01*
X62570380Y-35202571D01*
X62618000Y-35297809D01*
X62665619Y-35345428D01*
X62760857Y-35393047D01*
X62808476Y-35393047D01*
X62903714Y-35345428D01*
X62951333Y-35297809D01*
X62998952Y-35202571D01*
X62998952Y-35012095D01*
X63046571Y-34916857D01*
X63094190Y-34869238D01*
X63189428Y-34821619D01*
X63379904Y-34821619D01*
X63475142Y-34869238D01*
X63522761Y-34916857D01*
X63570380Y-35012095D01*
X63570380Y-35202571D01*
X63522761Y-35297809D01*
X63475142Y-35345428D01*
X63379904Y-35393047D01*
X63189428Y-35393047D01*
X63094190Y-35345428D01*
X63046571Y-35297809D01*
X62998952Y-35202571D01*
X34170857Y-34360380D02*
X34504190Y-33884190D01*
X34742285Y-34360380D02*
X34742285Y-33360380D01*
X34361333Y-33360380D01*
X34266095Y-33408000D01*
X34218476Y-33455619D01*
X34170857Y-33550857D01*
X34170857Y-33693714D01*
X34218476Y-33788952D01*
X34266095Y-33836571D01*
X34361333Y-33884190D01*
X34742285Y-33884190D01*
X33789904Y-33455619D02*
X33742285Y-33408000D01*
X33647047Y-33360380D01*
X33408952Y-33360380D01*
X33313714Y-33408000D01*
X33266095Y-33455619D01*
X33218476Y-33550857D01*
X33218476Y-33646095D01*
X33266095Y-33788952D01*
X33837523Y-34360380D01*
X33218476Y-34360380D01*
X32313714Y-33360380D02*
X32789904Y-33360380D01*
X32837523Y-33836571D01*
X32789904Y-33788952D01*
X32694666Y-33741333D01*
X32456571Y-33741333D01*
X32361333Y-33788952D01*
X32313714Y-33836571D01*
X32266095Y-33931809D01*
X32266095Y-34169904D01*
X32313714Y-34265142D01*
X32361333Y-34312761D01*
X32456571Y-34360380D01*
X32694666Y-34360380D01*
X32789904Y-34312761D01*
X32837523Y-34265142D01*
X35886380Y-32885142D02*
X35410190Y-32551809D01*
X35886380Y-32313714D02*
X34886380Y-32313714D01*
X34886380Y-32694666D01*
X34934000Y-32789904D01*
X34981619Y-32837523D01*
X35076857Y-32885142D01*
X35219714Y-32885142D01*
X35314952Y-32837523D01*
X35362571Y-32789904D01*
X35410190Y-32694666D01*
X35410190Y-32313714D01*
X34981619Y-33266095D02*
X34934000Y-33313714D01*
X34886380Y-33408952D01*
X34886380Y-33647047D01*
X34934000Y-33742285D01*
X34981619Y-33789904D01*
X35076857Y-33837523D01*
X35172095Y-33837523D01*
X35314952Y-33789904D01*
X35886380Y-33218476D01*
X35886380Y-33837523D01*
X35219714Y-34694666D02*
X35886380Y-34694666D01*
X34838761Y-34456571D02*
X35553047Y-34218476D01*
X35553047Y-34837523D01*
X33600380Y-40251142D02*
X33124190Y-39917809D01*
X33600380Y-39679714D02*
X32600380Y-39679714D01*
X32600380Y-40060666D01*
X32648000Y-40155904D01*
X32695619Y-40203523D01*
X32790857Y-40251142D01*
X32933714Y-40251142D01*
X33028952Y-40203523D01*
X33076571Y-40155904D01*
X33124190Y-40060666D01*
X33124190Y-39679714D01*
X32695619Y-40632095D02*
X32648000Y-40679714D01*
X32600380Y-40774952D01*
X32600380Y-41013047D01*
X32648000Y-41108285D01*
X32695619Y-41155904D01*
X32790857Y-41203523D01*
X32886095Y-41203523D01*
X33028952Y-41155904D01*
X33600380Y-40584476D01*
X33600380Y-41203523D01*
X32600380Y-41536857D02*
X32600380Y-42155904D01*
X32981333Y-41822571D01*
X32981333Y-41965428D01*
X33028952Y-42060666D01*
X33076571Y-42108285D01*
X33171809Y-42155904D01*
X33409904Y-42155904D01*
X33505142Y-42108285D01*
X33552761Y-42060666D01*
X33600380Y-41965428D01*
X33600380Y-41679714D01*
X33552761Y-41584476D01*
X33505142Y-41536857D01*
X18106380Y-32377142D02*
X17630190Y-32043809D01*
X18106380Y-31805714D02*
X17106380Y-31805714D01*
X17106380Y-32186666D01*
X17154000Y-32281904D01*
X17201619Y-32329523D01*
X17296857Y-32377142D01*
X17439714Y-32377142D01*
X17534952Y-32329523D01*
X17582571Y-32281904D01*
X17630190Y-32186666D01*
X17630190Y-31805714D01*
X17201619Y-32758095D02*
X17154000Y-32805714D01*
X17106380Y-32900952D01*
X17106380Y-33139047D01*
X17154000Y-33234285D01*
X17201619Y-33281904D01*
X17296857Y-33329523D01*
X17392095Y-33329523D01*
X17534952Y-33281904D01*
X18106380Y-32710476D01*
X18106380Y-33329523D01*
X17201619Y-33710476D02*
X17154000Y-33758095D01*
X17106380Y-33853333D01*
X17106380Y-34091428D01*
X17154000Y-34186666D01*
X17201619Y-34234285D01*
X17296857Y-34281904D01*
X17392095Y-34281904D01*
X17534952Y-34234285D01*
X18106380Y-33662857D01*
X18106380Y-34281904D01*
X34614380Y-40251142D02*
X34138190Y-39917809D01*
X34614380Y-39679714D02*
X33614380Y-39679714D01*
X33614380Y-40060666D01*
X33662000Y-40155904D01*
X33709619Y-40203523D01*
X33804857Y-40251142D01*
X33947714Y-40251142D01*
X34042952Y-40203523D01*
X34090571Y-40155904D01*
X34138190Y-40060666D01*
X34138190Y-39679714D01*
X33709619Y-40632095D02*
X33662000Y-40679714D01*
X33614380Y-40774952D01*
X33614380Y-41013047D01*
X33662000Y-41108285D01*
X33709619Y-41155904D01*
X33804857Y-41203523D01*
X33900095Y-41203523D01*
X34042952Y-41155904D01*
X34614380Y-40584476D01*
X34614380Y-41203523D01*
X34614380Y-42155904D02*
X34614380Y-41584476D01*
X34614380Y-41870190D02*
X33614380Y-41870190D01*
X33757238Y-41774952D01*
X33852476Y-41679714D01*
X33900095Y-41584476D01*
X26804857Y-42236380D02*
X27138190Y-41760190D01*
X27376285Y-42236380D02*
X27376285Y-41236380D01*
X26995333Y-41236380D01*
X26900095Y-41284000D01*
X26852476Y-41331619D01*
X26804857Y-41426857D01*
X26804857Y-41569714D01*
X26852476Y-41664952D01*
X26900095Y-41712571D01*
X26995333Y-41760190D01*
X27376285Y-41760190D01*
X26423904Y-41331619D02*
X26376285Y-41284000D01*
X26281047Y-41236380D01*
X26042952Y-41236380D01*
X25947714Y-41284000D01*
X25900095Y-41331619D01*
X25852476Y-41426857D01*
X25852476Y-41522095D01*
X25900095Y-41664952D01*
X26471523Y-42236380D01*
X25852476Y-42236380D01*
X25233428Y-41236380D02*
X25138190Y-41236380D01*
X25042952Y-41284000D01*
X24995333Y-41331619D01*
X24947714Y-41426857D01*
X24900095Y-41617333D01*
X24900095Y-41855428D01*
X24947714Y-42045904D01*
X24995333Y-42141142D01*
X25042952Y-42188761D01*
X25138190Y-42236380D01*
X25233428Y-42236380D01*
X25328666Y-42188761D01*
X25376285Y-42141142D01*
X25423904Y-42045904D01*
X25471523Y-41855428D01*
X25471523Y-41617333D01*
X25423904Y-41426857D01*
X25376285Y-41331619D01*
X25328666Y-41284000D01*
X25233428Y-41236380D01*
X59062857Y-39440380D02*
X59396190Y-38964190D01*
X59634285Y-39440380D02*
X59634285Y-38440380D01*
X59253333Y-38440380D01*
X59158095Y-38488000D01*
X59110476Y-38535619D01*
X59062857Y-38630857D01*
X59062857Y-38773714D01*
X59110476Y-38868952D01*
X59158095Y-38916571D01*
X59253333Y-38964190D01*
X59634285Y-38964190D01*
X58110476Y-39440380D02*
X58681904Y-39440380D01*
X58396190Y-39440380D02*
X58396190Y-38440380D01*
X58491428Y-38583238D01*
X58586666Y-38678476D01*
X58681904Y-38726095D01*
X57634285Y-39440380D02*
X57443809Y-39440380D01*
X57348571Y-39392761D01*
X57300952Y-39345142D01*
X57205714Y-39202285D01*
X57158095Y-39011809D01*
X57158095Y-38630857D01*
X57205714Y-38535619D01*
X57253333Y-38488000D01*
X57348571Y-38440380D01*
X57539047Y-38440380D01*
X57634285Y-38488000D01*
X57681904Y-38535619D01*
X57729523Y-38630857D01*
X57729523Y-38868952D01*
X57681904Y-38964190D01*
X57634285Y-39011809D01*
X57539047Y-39059428D01*
X57348571Y-39059428D01*
X57253333Y-39011809D01*
X57205714Y-38964190D01*
X57158095Y-38868952D01*
X42998380Y-37965142D02*
X42522190Y-37631809D01*
X42998380Y-37393714D02*
X41998380Y-37393714D01*
X41998380Y-37774666D01*
X42046000Y-37869904D01*
X42093619Y-37917523D01*
X42188857Y-37965142D01*
X42331714Y-37965142D01*
X42426952Y-37917523D01*
X42474571Y-37869904D01*
X42522190Y-37774666D01*
X42522190Y-37393714D01*
X42998380Y-38917523D02*
X42998380Y-38346095D01*
X42998380Y-38631809D02*
X41998380Y-38631809D01*
X42141238Y-38536571D01*
X42236476Y-38441333D01*
X42284095Y-38346095D01*
X41998380Y-39250857D02*
X41998380Y-39917523D01*
X42998380Y-39488952D01*
X16074380Y-35425142D02*
X15598190Y-35091809D01*
X16074380Y-34853714D02*
X15074380Y-34853714D01*
X15074380Y-35234666D01*
X15122000Y-35329904D01*
X15169619Y-35377523D01*
X15264857Y-35425142D01*
X15407714Y-35425142D01*
X15502952Y-35377523D01*
X15550571Y-35329904D01*
X15598190Y-35234666D01*
X15598190Y-34853714D01*
X15169619Y-35806095D02*
X15122000Y-35853714D01*
X15074380Y-35948952D01*
X15074380Y-36187047D01*
X15122000Y-36282285D01*
X15169619Y-36329904D01*
X15264857Y-36377523D01*
X15360095Y-36377523D01*
X15502952Y-36329904D01*
X16074380Y-35758476D01*
X16074380Y-36377523D01*
X15074380Y-37234666D02*
X15074380Y-37044190D01*
X15122000Y-36948952D01*
X15169619Y-36901333D01*
X15312476Y-36806095D01*
X15502952Y-36758476D01*
X15883904Y-36758476D01*
X15979142Y-36806095D01*
X16026761Y-36853714D01*
X16074380Y-36948952D01*
X16074380Y-37139428D01*
X16026761Y-37234666D01*
X15979142Y-37282285D01*
X15883904Y-37329904D01*
X15645809Y-37329904D01*
X15550571Y-37282285D01*
X15502952Y-37234666D01*
X15455333Y-37139428D01*
X15455333Y-36948952D01*
X15502952Y-36853714D01*
X15550571Y-36806095D01*
X15645809Y-36758476D01*
X59967619Y-30806380D02*
X60539047Y-30806380D01*
X60253333Y-30806380D02*
X60253333Y-29806380D01*
X60348571Y-29949238D01*
X60443809Y-30044476D01*
X60539047Y-30092095D01*
X59348571Y-29806380D02*
X59253333Y-29806380D01*
X59158095Y-29854000D01*
X59110476Y-29901619D01*
X59062857Y-29996857D01*
X59015238Y-30187333D01*
X59015238Y-30425428D01*
X59062857Y-30615904D01*
X59110476Y-30711142D01*
X59158095Y-30758761D01*
X59253333Y-30806380D01*
X59348571Y-30806380D01*
X59443809Y-30758761D01*
X59491428Y-30711142D01*
X59539047Y-30615904D01*
X59586666Y-30425428D01*
X59586666Y-30187333D01*
X59539047Y-29996857D01*
X59491428Y-29901619D01*
X59443809Y-29854000D01*
X59348571Y-29806380D01*
X58396190Y-29806380D02*
X58300952Y-29806380D01*
X58205714Y-29854000D01*
X58158095Y-29901619D01*
X58110476Y-29996857D01*
X58062857Y-30187333D01*
X58062857Y-30425428D01*
X58110476Y-30615904D01*
X58158095Y-30711142D01*
X58205714Y-30758761D01*
X58300952Y-30806380D01*
X58396190Y-30806380D01*
X58491428Y-30758761D01*
X58539047Y-30711142D01*
X58586666Y-30615904D01*
X58634285Y-30425428D01*
X58634285Y-30187333D01*
X58586666Y-29996857D01*
X58539047Y-29901619D01*
X58491428Y-29854000D01*
X58396190Y-29806380D01*
X57634285Y-30806380D02*
X57634285Y-29806380D01*
X57539047Y-30425428D02*
X57253333Y-30806380D01*
X57253333Y-30139714D02*
X57634285Y-30520666D01*
X56777142Y-30806380D02*
X56586666Y-30806380D01*
X56491428Y-30758761D01*
X56443809Y-30711142D01*
X56348571Y-30568285D01*
X56300952Y-30377809D01*
X56300952Y-29996857D01*
X56348571Y-29901619D01*
X56396190Y-29854000D01*
X56491428Y-29806380D01*
X56681904Y-29806380D01*
X56777142Y-29854000D01*
X56824761Y-29901619D01*
X56872380Y-29996857D01*
X56872380Y-30234952D01*
X56824761Y-30330190D01*
X56777142Y-30377809D01*
X56681904Y-30425428D01*
X56491428Y-30425428D01*
X56396190Y-30377809D01*
X56348571Y-30330190D01*
X56300952Y-30234952D01*
X34170857Y-39694380D02*
X34504190Y-39218190D01*
X34742285Y-39694380D02*
X34742285Y-38694380D01*
X34361333Y-38694380D01*
X34266095Y-38742000D01*
X34218476Y-38789619D01*
X34170857Y-38884857D01*
X34170857Y-39027714D01*
X34218476Y-39122952D01*
X34266095Y-39170571D01*
X34361333Y-39218190D01*
X34742285Y-39218190D01*
X33789904Y-38789619D02*
X33742285Y-38742000D01*
X33647047Y-38694380D01*
X33408952Y-38694380D01*
X33313714Y-38742000D01*
X33266095Y-38789619D01*
X33218476Y-38884857D01*
X33218476Y-38980095D01*
X33266095Y-39122952D01*
X33837523Y-39694380D01*
X33218476Y-39694380D01*
X32742285Y-39694380D02*
X32551809Y-39694380D01*
X32456571Y-39646761D01*
X32408952Y-39599142D01*
X32313714Y-39456285D01*
X32266095Y-39265809D01*
X32266095Y-38884857D01*
X32313714Y-38789619D01*
X32361333Y-38742000D01*
X32456571Y-38694380D01*
X32647047Y-38694380D01*
X32742285Y-38742000D01*
X32789904Y-38789619D01*
X32837523Y-38884857D01*
X32837523Y-39122952D01*
X32789904Y-39218190D01*
X32742285Y-39265809D01*
X32647047Y-39313428D01*
X32456571Y-39313428D01*
X32361333Y-39265809D01*
X32313714Y-39218190D01*
X32266095Y-39122952D01*
X25802380Y-19857142D02*
X25326190Y-19523809D01*
X25802380Y-19285714D02*
X24802380Y-19285714D01*
X24802380Y-19666666D01*
X24850000Y-19761904D01*
X24897619Y-19809523D01*
X24992857Y-19857142D01*
X25135714Y-19857142D01*
X25230952Y-19809523D01*
X25278571Y-19761904D01*
X25326190Y-19666666D01*
X25326190Y-19285714D01*
X24802380Y-20190476D02*
X24802380Y-20809523D01*
X25183333Y-20476190D01*
X25183333Y-20619047D01*
X25230952Y-20714285D01*
X25278571Y-20761904D01*
X25373809Y-20809523D01*
X25611904Y-20809523D01*
X25707142Y-20761904D01*
X25754761Y-20714285D01*
X25802380Y-20619047D01*
X25802380Y-20333333D01*
X25754761Y-20238095D01*
X25707142Y-20190476D01*
X24802380Y-21714285D02*
X24802380Y-21238095D01*
X25278571Y-21190476D01*
X25230952Y-21238095D01*
X25183333Y-21333333D01*
X25183333Y-21571428D01*
X25230952Y-21666666D01*
X25278571Y-21714285D01*
X25373809Y-21761904D01*
X25611904Y-21761904D01*
X25707142Y-21714285D01*
X25754761Y-21666666D01*
X25802380Y-21571428D01*
X25802380Y-21333333D01*
X25754761Y-21238095D01*
X25707142Y-21190476D01*
X52069904Y-41149380D02*
X52069904Y-41958904D01*
X52022285Y-42054142D01*
X51974666Y-42101761D01*
X51879428Y-42149380D01*
X51688952Y-42149380D01*
X51593714Y-42101761D01*
X51546095Y-42054142D01*
X51498476Y-41958904D01*
X51498476Y-41149380D01*
X51117523Y-41149380D02*
X50498476Y-41149380D01*
X50831809Y-41530333D01*
X50688952Y-41530333D01*
X50593714Y-41577952D01*
X50546095Y-41625571D01*
X50498476Y-41720809D01*
X50498476Y-41958904D01*
X50546095Y-42054142D01*
X50593714Y-42101761D01*
X50688952Y-42149380D01*
X50974666Y-42149380D01*
X51069904Y-42101761D01*
X51117523Y-42054142D01*
X31642857Y-16552380D02*
X31976190Y-16076190D01*
X32214285Y-16552380D02*
X32214285Y-15552380D01*
X31833333Y-15552380D01*
X31738095Y-15600000D01*
X31690476Y-15647619D01*
X31642857Y-15742857D01*
X31642857Y-15885714D01*
X31690476Y-15980952D01*
X31738095Y-16028571D01*
X31833333Y-16076190D01*
X32214285Y-16076190D01*
X31309523Y-15552380D02*
X30690476Y-15552380D01*
X31023809Y-15933333D01*
X30880952Y-15933333D01*
X30785714Y-15980952D01*
X30738095Y-16028571D01*
X30690476Y-16123809D01*
X30690476Y-16361904D01*
X30738095Y-16457142D01*
X30785714Y-16504761D01*
X30880952Y-16552380D01*
X31166666Y-16552380D01*
X31261904Y-16504761D01*
X31309523Y-16457142D01*
X29738095Y-16552380D02*
X30309523Y-16552380D01*
X30023809Y-16552380D02*
X30023809Y-15552380D01*
X30119047Y-15695238D01*
X30214285Y-15790476D01*
X30309523Y-15838095D01*
X60586857Y-25216380D02*
X60920190Y-24740190D01*
X61158285Y-25216380D02*
X61158285Y-24216380D01*
X60777333Y-24216380D01*
X60682095Y-24264000D01*
X60634476Y-24311619D01*
X60586857Y-24406857D01*
X60586857Y-24549714D01*
X60634476Y-24644952D01*
X60682095Y-24692571D01*
X60777333Y-24740190D01*
X61158285Y-24740190D01*
X60253523Y-24216380D02*
X59634476Y-24216380D01*
X59967809Y-24597333D01*
X59824952Y-24597333D01*
X59729714Y-24644952D01*
X59682095Y-24692571D01*
X59634476Y-24787809D01*
X59634476Y-25025904D01*
X59682095Y-25121142D01*
X59729714Y-25168761D01*
X59824952Y-25216380D01*
X60110666Y-25216380D01*
X60205904Y-25168761D01*
X60253523Y-25121142D01*
X59301142Y-24216380D02*
X58682095Y-24216380D01*
X59015428Y-24597333D01*
X58872571Y-24597333D01*
X58777333Y-24644952D01*
X58729714Y-24692571D01*
X58682095Y-24787809D01*
X58682095Y-25025904D01*
X58729714Y-25121142D01*
X58777333Y-25168761D01*
X58872571Y-25216380D01*
X59158285Y-25216380D01*
X59253523Y-25168761D01*
X59301142Y-25121142D01*
X56776857Y-21916380D02*
X57110190Y-21440190D01*
X57348285Y-21916380D02*
X57348285Y-20916380D01*
X56967333Y-20916380D01*
X56872095Y-20964000D01*
X56824476Y-21011619D01*
X56776857Y-21106857D01*
X56776857Y-21249714D01*
X56824476Y-21344952D01*
X56872095Y-21392571D01*
X56967333Y-21440190D01*
X57348285Y-21440190D01*
X56443523Y-20916380D02*
X55824476Y-20916380D01*
X56157809Y-21297333D01*
X56014952Y-21297333D01*
X55919714Y-21344952D01*
X55872095Y-21392571D01*
X55824476Y-21487809D01*
X55824476Y-21725904D01*
X55872095Y-21821142D01*
X55919714Y-21868761D01*
X56014952Y-21916380D01*
X56300666Y-21916380D01*
X56395904Y-21868761D01*
X56443523Y-21821142D01*
X54967333Y-21249714D02*
X54967333Y-21916380D01*
X55205428Y-20868761D02*
X55443523Y-21583047D01*
X54824476Y-21583047D01*
X29590904Y-30313380D02*
X29590904Y-31122904D01*
X29543285Y-31218142D01*
X29495666Y-31265761D01*
X29400428Y-31313380D01*
X29209952Y-31313380D01*
X29114714Y-31265761D01*
X29067095Y-31218142D01*
X29019476Y-31122904D01*
X29019476Y-30313380D01*
X28114714Y-30646714D02*
X28114714Y-31313380D01*
X28352809Y-30265761D02*
X28590904Y-30980047D01*
X27971857Y-30980047D01*
X70357904Y-37847380D02*
X70357904Y-38656904D01*
X70310285Y-38752142D01*
X70262666Y-38799761D01*
X70167428Y-38847380D01*
X69976952Y-38847380D01*
X69881714Y-38799761D01*
X69834095Y-38752142D01*
X69786476Y-38656904D01*
X69786476Y-37847380D01*
X69357904Y-37942619D02*
X69310285Y-37895000D01*
X69215047Y-37847380D01*
X68976952Y-37847380D01*
X68881714Y-37895000D01*
X68834095Y-37942619D01*
X68786476Y-38037857D01*
X68786476Y-38133095D01*
X68834095Y-38275952D01*
X69405523Y-38847380D01*
X68786476Y-38847380D01*
M02*
