G04 #@! TF.GenerationSoftware,KiCad,Pcbnew,(5.0.0-rc2-dev-586-g888c43477)*
G04 #@! TF.CreationDate,2018-06-04T01:03:36-03:00*
G04 #@! TF.ProjectId,Signal,5369676E616C2E6B696361645F706362,rev?*
G04 #@! TF.SameCoordinates,Original*
G04 #@! TF.FileFunction,Other,Fab,Bot*
%FSLAX46Y46*%
G04 Gerber Fmt 4.6, Leading zero omitted, Abs format (unit mm)*
G04 Created by KiCad (PCBNEW (5.0.0-rc2-dev-586-g888c43477)) date 06/04/18 01:03:36*
%MOMM*%
%LPD*%
G01*
G04 APERTURE LIST*
%ADD10C,0.100000*%
%ADD11C,0.150000*%
%ADD12C,0.080000*%
%ADD13C,0.075000*%
%ADD14C,0.135000*%
G04 APERTURE END LIST*
D10*
X32496000Y-22400000D02*
X30496000Y-22400000D01*
X32496000Y-23600000D02*
X32496000Y-22400000D01*
X30496000Y-23600000D02*
X32496000Y-23600000D01*
X30496000Y-22400000D02*
X30496000Y-23600000D01*
X73344000Y-24958000D02*
X73344000Y-27408000D01*
X72794000Y-24388000D02*
X71944000Y-24388000D01*
X73344000Y-24958000D02*
X72794000Y-24388000D01*
X71944000Y-24388000D02*
X71944000Y-27428000D01*
X73344000Y-27428000D02*
X71944000Y-27428000D01*
X46212000Y-41564000D02*
X44212000Y-41564000D01*
X46212000Y-42764000D02*
X46212000Y-41564000D01*
X44212000Y-42764000D02*
X46212000Y-42764000D01*
X44212000Y-41564000D02*
X44212000Y-42764000D01*
X32528000Y-35144000D02*
X34528000Y-35144000D01*
X32528000Y-33944000D02*
X32528000Y-35144000D01*
X34528000Y-33944000D02*
X32528000Y-33944000D01*
X34528000Y-35144000D02*
X34528000Y-33944000D01*
X37684000Y-37862000D02*
X36484000Y-37862000D01*
X36484000Y-37862000D02*
X36484000Y-39862000D01*
X36484000Y-39862000D02*
X37684000Y-39862000D01*
X37684000Y-39862000D02*
X37684000Y-37862000D01*
X32528000Y-30572000D02*
X34528000Y-30572000D01*
X32528000Y-29372000D02*
X32528000Y-30572000D01*
X34528000Y-29372000D02*
X32528000Y-29372000D01*
X34528000Y-30572000D02*
X34528000Y-29372000D01*
X28686000Y-30064000D02*
X28686000Y-28864000D01*
X28686000Y-28864000D02*
X26686000Y-28864000D01*
X26686000Y-28864000D02*
X26686000Y-30064000D01*
X26686000Y-30064000D02*
X28686000Y-30064000D01*
X76800000Y-32750000D02*
X76800000Y-30750000D01*
X75600000Y-32750000D02*
X76800000Y-32750000D01*
X75600000Y-30750000D02*
X75600000Y-32750000D01*
X76800000Y-30750000D02*
X75600000Y-30750000D01*
X68596000Y-38262000D02*
X68596000Y-39462000D01*
X68596000Y-39462000D02*
X70596000Y-39462000D01*
X70596000Y-39462000D02*
X70596000Y-38262000D01*
X70596000Y-38262000D02*
X68596000Y-38262000D01*
X51578000Y-30572000D02*
X53578000Y-30572000D01*
X51578000Y-29372000D02*
X51578000Y-30572000D01*
X53578000Y-29372000D02*
X51578000Y-29372000D01*
X53578000Y-30572000D02*
X53578000Y-29372000D01*
X58658000Y-29118000D02*
X56658000Y-29118000D01*
X58658000Y-30318000D02*
X58658000Y-29118000D01*
X56658000Y-30318000D02*
X58658000Y-30318000D01*
X56658000Y-29118000D02*
X56658000Y-30318000D01*
X60916500Y-36338000D02*
X60916500Y-38338000D01*
X62116500Y-36338000D02*
X60916500Y-36338000D01*
X62116500Y-38338000D02*
X62116500Y-36338000D01*
X60916500Y-38338000D02*
X62116500Y-38338000D01*
X59420000Y-34890000D02*
X59420000Y-33690000D01*
X59420000Y-33690000D02*
X57420000Y-33690000D01*
X57420000Y-33690000D02*
X57420000Y-34890000D01*
X57420000Y-34890000D02*
X59420000Y-34890000D01*
X78740000Y-32508000D02*
X78740000Y-33008000D01*
X79140000Y-32508000D02*
X78740000Y-31908000D01*
X78340000Y-32508000D02*
X79140000Y-32508000D01*
X78740000Y-31908000D02*
X78340000Y-32508000D01*
X78740000Y-31908000D02*
X79290000Y-31908000D01*
X78740000Y-31908000D02*
X78190000Y-31908000D01*
X78740000Y-31508000D02*
X78740000Y-31908000D01*
X79640000Y-30858000D02*
X77840000Y-30858000D01*
X79640000Y-33658000D02*
X79640000Y-30858000D01*
X77840000Y-33658000D02*
X79640000Y-33658000D01*
X77840000Y-30858000D02*
X77840000Y-33658000D01*
X42510000Y-37068000D02*
X42510000Y-35068000D01*
X41310000Y-37068000D02*
X42510000Y-37068000D01*
X41310000Y-35068000D02*
X41310000Y-37068000D01*
X42510000Y-35068000D02*
X41310000Y-35068000D01*
X58836000Y-41894000D02*
X60036000Y-41894000D01*
X60036000Y-41894000D02*
X60036000Y-39894000D01*
X60036000Y-39894000D02*
X58836000Y-39894000D01*
X58836000Y-39894000D02*
X58836000Y-41894000D01*
X44796000Y-34020000D02*
X44796000Y-32020000D01*
X43596000Y-34020000D02*
X44796000Y-34020000D01*
X43596000Y-32020000D02*
X43596000Y-34020000D01*
X44796000Y-32020000D02*
X43596000Y-32020000D01*
X76038000Y-36084000D02*
X74838000Y-36084000D01*
X74838000Y-36084000D02*
X74838000Y-38084000D01*
X74838000Y-38084000D02*
X76038000Y-38084000D01*
X76038000Y-38084000D02*
X76038000Y-36084000D01*
X68088000Y-18380000D02*
X70088000Y-18380000D01*
X68088000Y-17180000D02*
X68088000Y-18380000D01*
X70088000Y-17180000D02*
X68088000Y-17180000D01*
X70088000Y-18380000D02*
X70088000Y-17180000D01*
X75962000Y-27848000D02*
X75962000Y-29048000D01*
X75962000Y-29048000D02*
X77962000Y-29048000D01*
X77962000Y-29048000D02*
X77962000Y-27848000D01*
X77962000Y-27848000D02*
X75962000Y-27848000D01*
X69688000Y-24924500D02*
X69688000Y-22924500D01*
X68488000Y-24924500D02*
X69688000Y-24924500D01*
X68488000Y-22924500D02*
X68488000Y-24924500D01*
X69688000Y-22924500D02*
X68488000Y-22924500D01*
X50562000Y-42834000D02*
X50562000Y-44034000D01*
X50562000Y-44034000D02*
X52562000Y-44034000D01*
X52562000Y-44034000D02*
X52562000Y-42834000D01*
X52562000Y-42834000D02*
X50562000Y-42834000D01*
X58004000Y-41894000D02*
X58004000Y-39894000D01*
X56804000Y-41894000D02*
X58004000Y-41894000D01*
X56804000Y-39894000D02*
X56804000Y-41894000D01*
X58004000Y-39894000D02*
X56804000Y-39894000D01*
X49000000Y-25850000D02*
X49000000Y-24650000D01*
X49000000Y-24650000D02*
X47000000Y-24650000D01*
X47000000Y-24650000D02*
X47000000Y-25850000D01*
X47000000Y-25850000D02*
X49000000Y-25850000D01*
X19320000Y-42510000D02*
X21320000Y-42510000D01*
X19320000Y-41310000D02*
X19320000Y-42510000D01*
X21320000Y-41310000D02*
X19320000Y-41310000D01*
X21320000Y-42510000D02*
X21320000Y-41310000D01*
X18704000Y-39608000D02*
X19904000Y-39608000D01*
X19904000Y-39608000D02*
X19904000Y-37608000D01*
X19904000Y-37608000D02*
X18704000Y-37608000D01*
X18704000Y-37608000D02*
X18704000Y-39608000D01*
X60868000Y-32274000D02*
X60868000Y-34274000D01*
X62068000Y-32274000D02*
X60868000Y-32274000D01*
X62068000Y-34274000D02*
X62068000Y-32274000D01*
X60868000Y-34274000D02*
X62068000Y-34274000D01*
X32528000Y-31658000D02*
X32528000Y-32858000D01*
X32528000Y-32858000D02*
X34528000Y-32858000D01*
X34528000Y-32858000D02*
X34528000Y-31658000D01*
X34528000Y-31658000D02*
X32528000Y-31658000D01*
X37684000Y-34528000D02*
X37684000Y-32528000D01*
X36484000Y-34528000D02*
X37684000Y-34528000D01*
X36484000Y-32528000D02*
X36484000Y-34528000D01*
X37684000Y-32528000D02*
X36484000Y-32528000D01*
X35398000Y-39894000D02*
X34198000Y-39894000D01*
X34198000Y-39894000D02*
X34198000Y-41894000D01*
X34198000Y-41894000D02*
X35398000Y-41894000D01*
X35398000Y-41894000D02*
X35398000Y-39894000D01*
X19904000Y-34020000D02*
X19904000Y-32020000D01*
X18704000Y-34020000D02*
X19904000Y-34020000D01*
X18704000Y-32020000D02*
X18704000Y-34020000D01*
X19904000Y-32020000D02*
X18704000Y-32020000D01*
X31912000Y-41894000D02*
X33112000Y-41894000D01*
X33112000Y-41894000D02*
X33112000Y-39894000D01*
X33112000Y-39894000D02*
X31912000Y-39894000D01*
X31912000Y-39894000D02*
X31912000Y-41894000D01*
X25162000Y-44034000D02*
X27162000Y-44034000D01*
X25162000Y-42834000D02*
X25162000Y-44034000D01*
X27162000Y-42834000D02*
X25162000Y-42834000D01*
X27162000Y-44034000D02*
X27162000Y-42834000D01*
X57420000Y-36738000D02*
X57420000Y-37938000D01*
X57420000Y-37938000D02*
X59420000Y-37938000D01*
X59420000Y-37938000D02*
X59420000Y-36738000D01*
X59420000Y-36738000D02*
X57420000Y-36738000D01*
X44796000Y-37608000D02*
X43596000Y-37608000D01*
X43596000Y-37608000D02*
X43596000Y-39608000D01*
X43596000Y-39608000D02*
X44796000Y-39608000D01*
X44796000Y-39608000D02*
X44796000Y-37608000D01*
X17872000Y-37068000D02*
X17872000Y-35068000D01*
X16672000Y-37068000D02*
X17872000Y-37068000D01*
X16672000Y-35068000D02*
X16672000Y-37068000D01*
X17872000Y-35068000D02*
X16672000Y-35068000D01*
X59420000Y-32604000D02*
X59420000Y-31404000D01*
X59420000Y-31404000D02*
X57420000Y-31404000D01*
X57420000Y-31404000D02*
X57420000Y-32604000D01*
X57420000Y-32604000D02*
X59420000Y-32604000D01*
X34528000Y-36992000D02*
X32528000Y-36992000D01*
X34528000Y-38192000D02*
X34528000Y-36992000D01*
X32528000Y-38192000D02*
X34528000Y-38192000D01*
X32528000Y-36992000D02*
X32528000Y-38192000D01*
X27778000Y-19574000D02*
X26578000Y-19574000D01*
X26578000Y-19574000D02*
X26578000Y-21574000D01*
X26578000Y-21574000D02*
X27778000Y-21574000D01*
X27778000Y-21574000D02*
X27778000Y-19574000D01*
D11*
X50358000Y-40672000D02*
X53258000Y-40672000D01*
X53258000Y-40672000D02*
X53258000Y-31972000D01*
X53258000Y-31972000D02*
X49358000Y-31972000D01*
X49358000Y-31972000D02*
X49358000Y-39672000D01*
X49358000Y-39672000D02*
X50358000Y-40672000D01*
D10*
X30496000Y-18350000D02*
X32496000Y-18350000D01*
X30496000Y-17150000D02*
X30496000Y-18350000D01*
X32496000Y-17150000D02*
X30496000Y-17150000D01*
X32496000Y-18350000D02*
X32496000Y-17150000D01*
X58944000Y-23784000D02*
X58944000Y-24984000D01*
X58944000Y-24984000D02*
X60944000Y-24984000D01*
X60944000Y-24984000D02*
X60944000Y-23784000D01*
X60944000Y-23784000D02*
X58944000Y-23784000D01*
X57134000Y-23714000D02*
X57134000Y-22514000D01*
X57134000Y-22514000D02*
X55134000Y-22514000D01*
X55134000Y-22514000D02*
X55134000Y-23714000D01*
X55134000Y-23714000D02*
X57134000Y-23714000D01*
D11*
X24339000Y-39291000D02*
X25339000Y-40291000D01*
X24339000Y-31591000D02*
X24339000Y-39291000D01*
X28239000Y-31591000D02*
X24339000Y-31591000D01*
X28239000Y-40291000D02*
X28239000Y-31591000D01*
X25339000Y-40291000D02*
X28239000Y-40291000D01*
X68646000Y-37370000D02*
X71546000Y-37370000D01*
X71546000Y-37370000D02*
X71546000Y-28670000D01*
X71546000Y-28670000D02*
X67646000Y-28670000D01*
X67646000Y-28670000D02*
X67646000Y-36370000D01*
X67646000Y-36370000D02*
X68646000Y-37370000D01*
X31972190Y-21707142D02*
X31924571Y-21754761D01*
X31972190Y-21802380D01*
X32019809Y-21754761D01*
X31972190Y-21707142D01*
X31972190Y-21802380D01*
X32162666Y-20850000D02*
X32067428Y-20802380D01*
X31829333Y-20802380D01*
X31734095Y-20850000D01*
X31686476Y-20945238D01*
X31686476Y-21040476D01*
X31734095Y-21135714D01*
X31781714Y-21183333D01*
X31876952Y-21230952D01*
X31924571Y-21278571D01*
X31972190Y-21373809D01*
X31972190Y-21421428D01*
X31115047Y-21707142D02*
X31067428Y-21754761D01*
X31115047Y-21802380D01*
X31162666Y-21754761D01*
X31115047Y-21707142D01*
X31115047Y-21802380D01*
X31305523Y-20850000D02*
X31210285Y-20802380D01*
X30972190Y-20802380D01*
X30876952Y-20850000D01*
X30829333Y-20945238D01*
X30829333Y-21040476D01*
X30876952Y-21135714D01*
X30924571Y-21183333D01*
X31019809Y-21230952D01*
X31067428Y-21278571D01*
X31115047Y-21373809D01*
X31115047Y-21421428D01*
D12*
X31817428Y-23226190D02*
X31984095Y-22988095D01*
X32103142Y-23226190D02*
X32103142Y-22726190D01*
X31912666Y-22726190D01*
X31865047Y-22750000D01*
X31841238Y-22773809D01*
X31817428Y-22821428D01*
X31817428Y-22892857D01*
X31841238Y-22940476D01*
X31865047Y-22964285D01*
X31912666Y-22988095D01*
X32103142Y-22988095D01*
X31650761Y-22726190D02*
X31341238Y-22726190D01*
X31507904Y-22916666D01*
X31436476Y-22916666D01*
X31388857Y-22940476D01*
X31365047Y-22964285D01*
X31341238Y-23011904D01*
X31341238Y-23130952D01*
X31365047Y-23178571D01*
X31388857Y-23202380D01*
X31436476Y-23226190D01*
X31579333Y-23226190D01*
X31626952Y-23202380D01*
X31650761Y-23178571D01*
X31150761Y-22773809D02*
X31126952Y-22750000D01*
X31079333Y-22726190D01*
X30960285Y-22726190D01*
X30912666Y-22750000D01*
X30888857Y-22773809D01*
X30865047Y-22821428D01*
X30865047Y-22869047D01*
X30888857Y-22940476D01*
X31174571Y-23226190D01*
X30865047Y-23226190D01*
D11*
X80263047Y-28955619D02*
X80358285Y-28908000D01*
X80453523Y-28812761D01*
X80596380Y-28669904D01*
X80691619Y-28622285D01*
X80786857Y-28622285D01*
X80739238Y-28860380D02*
X80834476Y-28812761D01*
X80929714Y-28717523D01*
X80977333Y-28527047D01*
X80977333Y-28193714D01*
X80929714Y-28003238D01*
X80834476Y-27908000D01*
X80739238Y-27860380D01*
X80548761Y-27860380D01*
X80453523Y-27908000D01*
X80358285Y-28003238D01*
X80310666Y-28193714D01*
X80310666Y-28527047D01*
X80358285Y-28717523D01*
X80453523Y-28812761D01*
X80548761Y-28860380D01*
X80739238Y-28860380D01*
X80120190Y-28955619D02*
X79358285Y-28955619D01*
X79120190Y-28860380D02*
X79120190Y-27860380D01*
X78548761Y-28860380D01*
X78548761Y-27860380D01*
X78072571Y-28860380D02*
X78072571Y-27860380D01*
X77691619Y-27860380D01*
X77596380Y-27908000D01*
X77548761Y-27955619D01*
X77501142Y-28050857D01*
X77501142Y-28193714D01*
X77548761Y-28288952D01*
X77596380Y-28336571D01*
X77691619Y-28384190D01*
X78072571Y-28384190D01*
X77072571Y-28860380D02*
X77072571Y-27860380D01*
X76501142Y-28860380D01*
X76501142Y-27860380D01*
X76263047Y-28955619D02*
X75501142Y-28955619D01*
X75263047Y-28860380D02*
X75263047Y-27860380D01*
X75024952Y-27860380D01*
X74882095Y-27908000D01*
X74786857Y-28003238D01*
X74739238Y-28098476D01*
X74691619Y-28288952D01*
X74691619Y-28431809D01*
X74739238Y-28622285D01*
X74786857Y-28717523D01*
X74882095Y-28812761D01*
X75024952Y-28860380D01*
X75263047Y-28860380D01*
X73834476Y-28860380D02*
X73834476Y-28336571D01*
X73882095Y-28241333D01*
X73977333Y-28193714D01*
X74167809Y-28193714D01*
X74263047Y-28241333D01*
X73834476Y-28812761D02*
X73929714Y-28860380D01*
X74167809Y-28860380D01*
X74263047Y-28812761D01*
X74310666Y-28717523D01*
X74310666Y-28622285D01*
X74263047Y-28527047D01*
X74167809Y-28479428D01*
X73929714Y-28479428D01*
X73834476Y-28431809D01*
X73358285Y-28860380D02*
X73358285Y-28193714D01*
X73358285Y-28384190D02*
X73310666Y-28288952D01*
X73263047Y-28241333D01*
X73167809Y-28193714D01*
X73072571Y-28193714D01*
X72596380Y-28860380D02*
X72691619Y-28812761D01*
X72739238Y-28717523D01*
X72739238Y-27860380D01*
X72215428Y-28860380D02*
X72215428Y-28193714D01*
X72215428Y-27860380D02*
X72263047Y-27908000D01*
X72215428Y-27955619D01*
X72167809Y-27908000D01*
X72215428Y-27860380D01*
X72215428Y-27955619D01*
X71739238Y-28193714D02*
X71739238Y-28860380D01*
X71739238Y-28288952D02*
X71691619Y-28241333D01*
X71596380Y-28193714D01*
X71453523Y-28193714D01*
X71358285Y-28241333D01*
X71310666Y-28336571D01*
X71310666Y-28860380D01*
X70405904Y-28193714D02*
X70405904Y-29003238D01*
X70453523Y-29098476D01*
X70501142Y-29146095D01*
X70596380Y-29193714D01*
X70739238Y-29193714D01*
X70834476Y-29146095D01*
X70405904Y-28812761D02*
X70501142Y-28860380D01*
X70691619Y-28860380D01*
X70786857Y-28812761D01*
X70834476Y-28765142D01*
X70882095Y-28669904D01*
X70882095Y-28384190D01*
X70834476Y-28288952D01*
X70786857Y-28241333D01*
X70691619Y-28193714D01*
X70501142Y-28193714D01*
X70405904Y-28241333D01*
X70072571Y-28193714D02*
X69691619Y-28193714D01*
X69929714Y-27860380D02*
X69929714Y-28717523D01*
X69882095Y-28812761D01*
X69786857Y-28860380D01*
X69691619Y-28860380D01*
X69215428Y-28860380D02*
X69310666Y-28812761D01*
X69358285Y-28765142D01*
X69405904Y-28669904D01*
X69405904Y-28384190D01*
X69358285Y-28288952D01*
X69310666Y-28241333D01*
X69215428Y-28193714D01*
X69072571Y-28193714D01*
X68977333Y-28241333D01*
X68929714Y-28288952D01*
X68882095Y-28384190D01*
X68882095Y-28669904D01*
X68929714Y-28765142D01*
X68977333Y-28812761D01*
X69072571Y-28860380D01*
X69215428Y-28860380D01*
X68453523Y-28193714D02*
X68453523Y-28860380D01*
X68453523Y-28288952D02*
X68405904Y-28241333D01*
X68310666Y-28193714D01*
X68167809Y-28193714D01*
X68072571Y-28241333D01*
X68024952Y-28336571D01*
X68024952Y-28860380D01*
X67786857Y-28955619D02*
X67024952Y-28955619D01*
X66453523Y-28336571D02*
X66310666Y-28384190D01*
X66263047Y-28431809D01*
X66215428Y-28527047D01*
X66215428Y-28669904D01*
X66263047Y-28765142D01*
X66310666Y-28812761D01*
X66405904Y-28860380D01*
X66786857Y-28860380D01*
X66786857Y-27860380D01*
X66453523Y-27860380D01*
X66358285Y-27908000D01*
X66310666Y-27955619D01*
X66263047Y-28050857D01*
X66263047Y-28146095D01*
X66310666Y-28241333D01*
X66358285Y-28288952D01*
X66453523Y-28336571D01*
X66786857Y-28336571D01*
X65786857Y-28336571D02*
X65453523Y-28336571D01*
X65310666Y-28860380D02*
X65786857Y-28860380D01*
X65786857Y-27860380D01*
X65310666Y-27860380D01*
X64310666Y-28765142D02*
X64358285Y-28812761D01*
X64501142Y-28860380D01*
X64596380Y-28860380D01*
X64739238Y-28812761D01*
X64834476Y-28717523D01*
X64882095Y-28622285D01*
X64929714Y-28431809D01*
X64929714Y-28288952D01*
X64882095Y-28098476D01*
X64834476Y-28003238D01*
X64739238Y-27908000D01*
X64596380Y-27860380D01*
X64501142Y-27860380D01*
X64358285Y-27908000D01*
X64310666Y-27955619D01*
D13*
X72917809Y-25860380D02*
X72894000Y-25812761D01*
X72846380Y-25765142D01*
X72774952Y-25693714D01*
X72751142Y-25646095D01*
X72751142Y-25598476D01*
X72870190Y-25622285D02*
X72846380Y-25574666D01*
X72798761Y-25527047D01*
X72703523Y-25503238D01*
X72536857Y-25503238D01*
X72441619Y-25527047D01*
X72394000Y-25574666D01*
X72370190Y-25622285D01*
X72370190Y-25717523D01*
X72394000Y-25765142D01*
X72441619Y-25812761D01*
X72536857Y-25836571D01*
X72703523Y-25836571D01*
X72798761Y-25812761D01*
X72846380Y-25765142D01*
X72870190Y-25717523D01*
X72870190Y-25622285D01*
X72870190Y-26312761D02*
X72870190Y-26027047D01*
X72870190Y-26169904D02*
X72370190Y-26169904D01*
X72441619Y-26122285D01*
X72489238Y-26074666D01*
X72513047Y-26027047D01*
D11*
X46283428Y-40966380D02*
X46854857Y-40966380D01*
X46569142Y-40966380D02*
X46569142Y-39966380D01*
X46664380Y-40109238D01*
X46759619Y-40204476D01*
X46854857Y-40252095D01*
X45664380Y-39966380D02*
X45569142Y-39966380D01*
X45473904Y-40014000D01*
X45426285Y-40061619D01*
X45378666Y-40156857D01*
X45331047Y-40347333D01*
X45331047Y-40585428D01*
X45378666Y-40775904D01*
X45426285Y-40871142D01*
X45473904Y-40918761D01*
X45569142Y-40966380D01*
X45664380Y-40966380D01*
X45759619Y-40918761D01*
X45807238Y-40871142D01*
X45854857Y-40775904D01*
X45902476Y-40585428D01*
X45902476Y-40347333D01*
X45854857Y-40156857D01*
X45807238Y-40061619D01*
X45759619Y-40014000D01*
X45664380Y-39966380D01*
X44712000Y-39966380D02*
X44616761Y-39966380D01*
X44521523Y-40014000D01*
X44473904Y-40061619D01*
X44426285Y-40156857D01*
X44378666Y-40347333D01*
X44378666Y-40585428D01*
X44426285Y-40775904D01*
X44473904Y-40871142D01*
X44521523Y-40918761D01*
X44616761Y-40966380D01*
X44712000Y-40966380D01*
X44807238Y-40918761D01*
X44854857Y-40871142D01*
X44902476Y-40775904D01*
X44950095Y-40585428D01*
X44950095Y-40347333D01*
X44902476Y-40156857D01*
X44854857Y-40061619D01*
X44807238Y-40014000D01*
X44712000Y-39966380D01*
X43950095Y-40966380D02*
X43950095Y-39966380D01*
X43854857Y-40585428D02*
X43569142Y-40966380D01*
X43569142Y-40299714D02*
X43950095Y-40680666D01*
D12*
X45533428Y-42390190D02*
X45700095Y-42152095D01*
X45819142Y-42390190D02*
X45819142Y-41890190D01*
X45628666Y-41890190D01*
X45581047Y-41914000D01*
X45557238Y-41937809D01*
X45533428Y-41985428D01*
X45533428Y-42056857D01*
X45557238Y-42104476D01*
X45581047Y-42128285D01*
X45628666Y-42152095D01*
X45819142Y-42152095D01*
X45057238Y-42390190D02*
X45342952Y-42390190D01*
X45200095Y-42390190D02*
X45200095Y-41890190D01*
X45247714Y-41961619D01*
X45295333Y-42009238D01*
X45342952Y-42033047D01*
X44771523Y-42104476D02*
X44819142Y-42080666D01*
X44842952Y-42056857D01*
X44866761Y-42009238D01*
X44866761Y-41985428D01*
X44842952Y-41937809D01*
X44819142Y-41914000D01*
X44771523Y-41890190D01*
X44676285Y-41890190D01*
X44628666Y-41914000D01*
X44604857Y-41937809D01*
X44581047Y-41985428D01*
X44581047Y-42009238D01*
X44604857Y-42056857D01*
X44628666Y-42080666D01*
X44676285Y-42104476D01*
X44771523Y-42104476D01*
X44819142Y-42128285D01*
X44842952Y-42152095D01*
X44866761Y-42199714D01*
X44866761Y-42294952D01*
X44842952Y-42342571D01*
X44819142Y-42366380D01*
X44771523Y-42390190D01*
X44676285Y-42390190D01*
X44628666Y-42366380D01*
X44604857Y-42342571D01*
X44581047Y-42294952D01*
X44581047Y-42199714D01*
X44604857Y-42152095D01*
X44628666Y-42128285D01*
X44676285Y-42104476D01*
D11*
X34266095Y-35979714D02*
X34266095Y-36646380D01*
X34504190Y-35598761D02*
X34742285Y-36313047D01*
X34123238Y-36313047D01*
X33837523Y-35646380D02*
X33170857Y-35646380D01*
X33599428Y-36646380D01*
X32789904Y-35979714D02*
X32789904Y-36979714D01*
X32789904Y-36027333D02*
X32694666Y-35979714D01*
X32504190Y-35979714D01*
X32408952Y-36027333D01*
X32361333Y-36074952D01*
X32313714Y-36170190D01*
X32313714Y-36455904D01*
X32361333Y-36551142D01*
X32408952Y-36598761D01*
X32504190Y-36646380D01*
X32694666Y-36646380D01*
X32789904Y-36598761D01*
D12*
X33849428Y-34722571D02*
X33873238Y-34746380D01*
X33944666Y-34770190D01*
X33992285Y-34770190D01*
X34063714Y-34746380D01*
X34111333Y-34698761D01*
X34135142Y-34651142D01*
X34158952Y-34555904D01*
X34158952Y-34484476D01*
X34135142Y-34389238D01*
X34111333Y-34341619D01*
X34063714Y-34294000D01*
X33992285Y-34270190D01*
X33944666Y-34270190D01*
X33873238Y-34294000D01*
X33849428Y-34317809D01*
X33373238Y-34770190D02*
X33658952Y-34770190D01*
X33516095Y-34770190D02*
X33516095Y-34270190D01*
X33563714Y-34341619D01*
X33611333Y-34389238D01*
X33658952Y-34413047D01*
X32944666Y-34436857D02*
X32944666Y-34770190D01*
X33063714Y-34246380D02*
X33182761Y-34603523D01*
X32873238Y-34603523D01*
D11*
X38186380Y-37123904D02*
X38186380Y-37742952D01*
X38567333Y-37409619D01*
X38567333Y-37552476D01*
X38614952Y-37647714D01*
X38662571Y-37695333D01*
X38757809Y-37742952D01*
X38995904Y-37742952D01*
X39091142Y-37695333D01*
X39138761Y-37647714D01*
X39186380Y-37552476D01*
X39186380Y-37266761D01*
X39138761Y-37171523D01*
X39091142Y-37123904D01*
X38186380Y-38076285D02*
X38186380Y-38695333D01*
X38567333Y-38362000D01*
X38567333Y-38504857D01*
X38614952Y-38600095D01*
X38662571Y-38647714D01*
X38757809Y-38695333D01*
X38995904Y-38695333D01*
X39091142Y-38647714D01*
X39138761Y-38600095D01*
X39186380Y-38504857D01*
X39186380Y-38219142D01*
X39138761Y-38123904D01*
X39091142Y-38076285D01*
X38186380Y-39314380D02*
X38186380Y-39409619D01*
X38234000Y-39504857D01*
X38281619Y-39552476D01*
X38376857Y-39600095D01*
X38567333Y-39647714D01*
X38805428Y-39647714D01*
X38995904Y-39600095D01*
X39091142Y-39552476D01*
X39138761Y-39504857D01*
X39186380Y-39409619D01*
X39186380Y-39314380D01*
X39138761Y-39219142D01*
X39091142Y-39171523D01*
X38995904Y-39123904D01*
X38805428Y-39076285D01*
X38567333Y-39076285D01*
X38376857Y-39123904D01*
X38281619Y-39171523D01*
X38234000Y-39219142D01*
X38186380Y-39314380D01*
X38519714Y-40076285D02*
X39519714Y-40076285D01*
X38567333Y-40076285D02*
X38519714Y-40171523D01*
X38519714Y-40362000D01*
X38567333Y-40457238D01*
X38614952Y-40504857D01*
X38710190Y-40552476D01*
X38995904Y-40552476D01*
X39091142Y-40504857D01*
X39138761Y-40457238D01*
X39186380Y-40362000D01*
X39186380Y-40171523D01*
X39138761Y-40076285D01*
D12*
X37262571Y-38540571D02*
X37286380Y-38516761D01*
X37310190Y-38445333D01*
X37310190Y-38397714D01*
X37286380Y-38326285D01*
X37238761Y-38278666D01*
X37191142Y-38254857D01*
X37095904Y-38231047D01*
X37024476Y-38231047D01*
X36929238Y-38254857D01*
X36881619Y-38278666D01*
X36834000Y-38326285D01*
X36810190Y-38397714D01*
X36810190Y-38445333D01*
X36834000Y-38516761D01*
X36857809Y-38540571D01*
X37310190Y-39016761D02*
X37310190Y-38731047D01*
X37310190Y-38873904D02*
X36810190Y-38873904D01*
X36881619Y-38826285D01*
X36929238Y-38778666D01*
X36953047Y-38731047D01*
X36810190Y-39183428D02*
X36810190Y-39492952D01*
X37000666Y-39326285D01*
X37000666Y-39397714D01*
X37024476Y-39445333D01*
X37048285Y-39469142D01*
X37095904Y-39492952D01*
X37214952Y-39492952D01*
X37262571Y-39469142D01*
X37286380Y-39445333D01*
X37310190Y-39397714D01*
X37310190Y-39254857D01*
X37286380Y-39207238D01*
X37262571Y-39183428D01*
D11*
X35266095Y-31074380D02*
X34647047Y-31074380D01*
X34980380Y-31455333D01*
X34837523Y-31455333D01*
X34742285Y-31502952D01*
X34694666Y-31550571D01*
X34647047Y-31645809D01*
X34647047Y-31883904D01*
X34694666Y-31979142D01*
X34742285Y-32026761D01*
X34837523Y-32074380D01*
X35123238Y-32074380D01*
X35218476Y-32026761D01*
X35266095Y-31979142D01*
X34313714Y-31074380D02*
X33694666Y-31074380D01*
X34028000Y-31455333D01*
X33885142Y-31455333D01*
X33789904Y-31502952D01*
X33742285Y-31550571D01*
X33694666Y-31645809D01*
X33694666Y-31883904D01*
X33742285Y-31979142D01*
X33789904Y-32026761D01*
X33885142Y-32074380D01*
X34170857Y-32074380D01*
X34266095Y-32026761D01*
X34313714Y-31979142D01*
X33075619Y-31074380D02*
X32980380Y-31074380D01*
X32885142Y-31122000D01*
X32837523Y-31169619D01*
X32789904Y-31264857D01*
X32742285Y-31455333D01*
X32742285Y-31693428D01*
X32789904Y-31883904D01*
X32837523Y-31979142D01*
X32885142Y-32026761D01*
X32980380Y-32074380D01*
X33075619Y-32074380D01*
X33170857Y-32026761D01*
X33218476Y-31979142D01*
X33266095Y-31883904D01*
X33313714Y-31693428D01*
X33313714Y-31455333D01*
X33266095Y-31264857D01*
X33218476Y-31169619D01*
X33170857Y-31122000D01*
X33075619Y-31074380D01*
X32313714Y-31407714D02*
X32313714Y-32407714D01*
X32313714Y-31455333D02*
X32218476Y-31407714D01*
X32028000Y-31407714D01*
X31932761Y-31455333D01*
X31885142Y-31502952D01*
X31837523Y-31598190D01*
X31837523Y-31883904D01*
X31885142Y-31979142D01*
X31932761Y-32026761D01*
X32028000Y-32074380D01*
X32218476Y-32074380D01*
X32313714Y-32026761D01*
D12*
X33849428Y-30150571D02*
X33873238Y-30174380D01*
X33944666Y-30198190D01*
X33992285Y-30198190D01*
X34063714Y-30174380D01*
X34111333Y-30126761D01*
X34135142Y-30079142D01*
X34158952Y-29983904D01*
X34158952Y-29912476D01*
X34135142Y-29817238D01*
X34111333Y-29769619D01*
X34063714Y-29722000D01*
X33992285Y-29698190D01*
X33944666Y-29698190D01*
X33873238Y-29722000D01*
X33849428Y-29745809D01*
X33373238Y-30198190D02*
X33658952Y-30198190D01*
X33516095Y-30198190D02*
X33516095Y-29698190D01*
X33563714Y-29769619D01*
X33611333Y-29817238D01*
X33658952Y-29841047D01*
X33182761Y-29745809D02*
X33158952Y-29722000D01*
X33111333Y-29698190D01*
X32992285Y-29698190D01*
X32944666Y-29722000D01*
X32920857Y-29745809D01*
X32897047Y-29793428D01*
X32897047Y-29841047D01*
X32920857Y-29912476D01*
X33206571Y-30198190D01*
X32897047Y-30198190D01*
D11*
X29233619Y-31566380D02*
X29805047Y-31566380D01*
X29519333Y-31566380D02*
X29519333Y-30566380D01*
X29614571Y-30709238D01*
X29709809Y-30804476D01*
X29805047Y-30852095D01*
X28614571Y-30566380D02*
X28519333Y-30566380D01*
X28424095Y-30614000D01*
X28376476Y-30661619D01*
X28328857Y-30756857D01*
X28281238Y-30947333D01*
X28281238Y-31185428D01*
X28328857Y-31375904D01*
X28376476Y-31471142D01*
X28424095Y-31518761D01*
X28519333Y-31566380D01*
X28614571Y-31566380D01*
X28709809Y-31518761D01*
X28757428Y-31471142D01*
X28805047Y-31375904D01*
X28852666Y-31185428D01*
X28852666Y-30947333D01*
X28805047Y-30756857D01*
X28757428Y-30661619D01*
X28709809Y-30614000D01*
X28614571Y-30566380D01*
X27662190Y-30566380D02*
X27566952Y-30566380D01*
X27471714Y-30614000D01*
X27424095Y-30661619D01*
X27376476Y-30756857D01*
X27328857Y-30947333D01*
X27328857Y-31185428D01*
X27376476Y-31375904D01*
X27424095Y-31471142D01*
X27471714Y-31518761D01*
X27566952Y-31566380D01*
X27662190Y-31566380D01*
X27757428Y-31518761D01*
X27805047Y-31471142D01*
X27852666Y-31375904D01*
X27900285Y-31185428D01*
X27900285Y-30947333D01*
X27852666Y-30756857D01*
X27805047Y-30661619D01*
X27757428Y-30614000D01*
X27662190Y-30566380D01*
X26900285Y-30899714D02*
X26900285Y-31566380D01*
X26900285Y-30994952D02*
X26852666Y-30947333D01*
X26757428Y-30899714D01*
X26614571Y-30899714D01*
X26519333Y-30947333D01*
X26471714Y-31042571D01*
X26471714Y-31566380D01*
X25662190Y-31042571D02*
X25995523Y-31042571D01*
X25995523Y-31566380D02*
X25995523Y-30566380D01*
X25519333Y-30566380D01*
D12*
X28007428Y-29642571D02*
X28031238Y-29666380D01*
X28102666Y-29690190D01*
X28150285Y-29690190D01*
X28221714Y-29666380D01*
X28269333Y-29618761D01*
X28293142Y-29571142D01*
X28316952Y-29475904D01*
X28316952Y-29404476D01*
X28293142Y-29309238D01*
X28269333Y-29261619D01*
X28221714Y-29214000D01*
X28150285Y-29190190D01*
X28102666Y-29190190D01*
X28031238Y-29214000D01*
X28007428Y-29237809D01*
X27531238Y-29690190D02*
X27816952Y-29690190D01*
X27674095Y-29690190D02*
X27674095Y-29190190D01*
X27721714Y-29261619D01*
X27769333Y-29309238D01*
X27816952Y-29333047D01*
X27055047Y-29690190D02*
X27340761Y-29690190D01*
X27197904Y-29690190D02*
X27197904Y-29190190D01*
X27245523Y-29261619D01*
X27293142Y-29309238D01*
X27340761Y-29333047D01*
D11*
X78207142Y-29559523D02*
X78254761Y-29511904D01*
X78302380Y-29369047D01*
X78302380Y-29273809D01*
X78254761Y-29130952D01*
X78159523Y-29035714D01*
X78064285Y-28988095D01*
X77873809Y-28940476D01*
X77730952Y-28940476D01*
X77540476Y-28988095D01*
X77445238Y-29035714D01*
X77350000Y-29130952D01*
X77302380Y-29273809D01*
X77302380Y-29369047D01*
X77350000Y-29511904D01*
X77397619Y-29559523D01*
X78397619Y-29750000D02*
X78397619Y-30511904D01*
X78254761Y-30702380D02*
X78302380Y-30845238D01*
X78302380Y-31083333D01*
X78254761Y-31178571D01*
X78207142Y-31226190D01*
X78111904Y-31273809D01*
X78016666Y-31273809D01*
X77921428Y-31226190D01*
X77873809Y-31178571D01*
X77826190Y-31083333D01*
X77778571Y-30892857D01*
X77730952Y-30797619D01*
X77683333Y-30750000D01*
X77588095Y-30702380D01*
X77492857Y-30702380D01*
X77397619Y-30750000D01*
X77350000Y-30797619D01*
X77302380Y-30892857D01*
X77302380Y-31130952D01*
X77350000Y-31273809D01*
X78302380Y-31702380D02*
X77635714Y-31702380D01*
X77730952Y-31702380D02*
X77683333Y-31750000D01*
X77635714Y-31845238D01*
X77635714Y-31988095D01*
X77683333Y-32083333D01*
X77778571Y-32130952D01*
X78302380Y-32130952D01*
X77778571Y-32130952D02*
X77683333Y-32178571D01*
X77635714Y-32273809D01*
X77635714Y-32416666D01*
X77683333Y-32511904D01*
X77778571Y-32559523D01*
X78302380Y-32559523D01*
X78302380Y-33464285D02*
X77778571Y-33464285D01*
X77683333Y-33416666D01*
X77635714Y-33321428D01*
X77635714Y-33130952D01*
X77683333Y-33035714D01*
X78254761Y-33464285D02*
X78302380Y-33369047D01*
X78302380Y-33130952D01*
X78254761Y-33035714D01*
X78159523Y-32988095D01*
X78064285Y-32988095D01*
X77969047Y-33035714D01*
X77921428Y-33130952D01*
X77921428Y-33369047D01*
X77873809Y-33464285D01*
X78302380Y-34083333D02*
X78254761Y-33988095D01*
X78159523Y-33940476D01*
X77302380Y-33940476D01*
X78302380Y-34607142D02*
X78254761Y-34511904D01*
X78159523Y-34464285D01*
X77302380Y-34464285D01*
D12*
X76378571Y-31666666D02*
X76402380Y-31642857D01*
X76426190Y-31571428D01*
X76426190Y-31523809D01*
X76402380Y-31452380D01*
X76354761Y-31404761D01*
X76307142Y-31380952D01*
X76211904Y-31357142D01*
X76140476Y-31357142D01*
X76045238Y-31380952D01*
X75997619Y-31404761D01*
X75950000Y-31452380D01*
X75926190Y-31523809D01*
X75926190Y-31571428D01*
X75950000Y-31642857D01*
X75973809Y-31666666D01*
X76426190Y-32142857D02*
X76426190Y-31857142D01*
X76426190Y-32000000D02*
X75926190Y-32000000D01*
X75997619Y-31952380D01*
X76045238Y-31904761D01*
X76069047Y-31857142D01*
D11*
X71786476Y-37569142D02*
X71834095Y-37616761D01*
X71976952Y-37664380D01*
X72072190Y-37664380D01*
X72215047Y-37616761D01*
X72310285Y-37521523D01*
X72357904Y-37426285D01*
X72405523Y-37235809D01*
X72405523Y-37092952D01*
X72357904Y-36902476D01*
X72310285Y-36807238D01*
X72215047Y-36712000D01*
X72072190Y-36664380D01*
X71976952Y-36664380D01*
X71834095Y-36712000D01*
X71786476Y-36759619D01*
X71596000Y-37759619D02*
X70834095Y-37759619D01*
X70643619Y-37616761D02*
X70500761Y-37664380D01*
X70262666Y-37664380D01*
X70167428Y-37616761D01*
X70119809Y-37569142D01*
X70072190Y-37473904D01*
X70072190Y-37378666D01*
X70119809Y-37283428D01*
X70167428Y-37235809D01*
X70262666Y-37188190D01*
X70453142Y-37140571D01*
X70548380Y-37092952D01*
X70596000Y-37045333D01*
X70643619Y-36950095D01*
X70643619Y-36854857D01*
X70596000Y-36759619D01*
X70548380Y-36712000D01*
X70453142Y-36664380D01*
X70215047Y-36664380D01*
X70072190Y-36712000D01*
X69643619Y-37664380D02*
X69643619Y-36997714D01*
X69643619Y-37092952D02*
X69596000Y-37045333D01*
X69500761Y-36997714D01*
X69357904Y-36997714D01*
X69262666Y-37045333D01*
X69215047Y-37140571D01*
X69215047Y-37664380D01*
X69215047Y-37140571D02*
X69167428Y-37045333D01*
X69072190Y-36997714D01*
X68929333Y-36997714D01*
X68834095Y-37045333D01*
X68786476Y-37140571D01*
X68786476Y-37664380D01*
X67881714Y-37664380D02*
X67881714Y-37140571D01*
X67929333Y-37045333D01*
X68024571Y-36997714D01*
X68215047Y-36997714D01*
X68310285Y-37045333D01*
X67881714Y-37616761D02*
X67976952Y-37664380D01*
X68215047Y-37664380D01*
X68310285Y-37616761D01*
X68357904Y-37521523D01*
X68357904Y-37426285D01*
X68310285Y-37331047D01*
X68215047Y-37283428D01*
X67976952Y-37283428D01*
X67881714Y-37235809D01*
X67262666Y-37664380D02*
X67357904Y-37616761D01*
X67405523Y-37521523D01*
X67405523Y-36664380D01*
X66738857Y-37664380D02*
X66834095Y-37616761D01*
X66881714Y-37521523D01*
X66881714Y-36664380D01*
D12*
X69679333Y-39040571D02*
X69703142Y-39064380D01*
X69774571Y-39088190D01*
X69822190Y-39088190D01*
X69893619Y-39064380D01*
X69941238Y-39016761D01*
X69965047Y-38969142D01*
X69988857Y-38873904D01*
X69988857Y-38802476D01*
X69965047Y-38707238D01*
X69941238Y-38659619D01*
X69893619Y-38612000D01*
X69822190Y-38588190D01*
X69774571Y-38588190D01*
X69703142Y-38612000D01*
X69679333Y-38635809D01*
X69488857Y-38635809D02*
X69465047Y-38612000D01*
X69417428Y-38588190D01*
X69298380Y-38588190D01*
X69250761Y-38612000D01*
X69226952Y-38635809D01*
X69203142Y-38683428D01*
X69203142Y-38731047D01*
X69226952Y-38802476D01*
X69512666Y-39088190D01*
X69203142Y-39088190D01*
D11*
X54125619Y-32074380D02*
X54697047Y-32074380D01*
X54411333Y-32074380D02*
X54411333Y-31074380D01*
X54506571Y-31217238D01*
X54601809Y-31312476D01*
X54697047Y-31360095D01*
X53506571Y-31074380D02*
X53411333Y-31074380D01*
X53316095Y-31122000D01*
X53268476Y-31169619D01*
X53220857Y-31264857D01*
X53173238Y-31455333D01*
X53173238Y-31693428D01*
X53220857Y-31883904D01*
X53268476Y-31979142D01*
X53316095Y-32026761D01*
X53411333Y-32074380D01*
X53506571Y-32074380D01*
X53601809Y-32026761D01*
X53649428Y-31979142D01*
X53697047Y-31883904D01*
X53744666Y-31693428D01*
X53744666Y-31455333D01*
X53697047Y-31264857D01*
X53649428Y-31169619D01*
X53601809Y-31122000D01*
X53506571Y-31074380D01*
X52554190Y-31074380D02*
X52458952Y-31074380D01*
X52363714Y-31122000D01*
X52316095Y-31169619D01*
X52268476Y-31264857D01*
X52220857Y-31455333D01*
X52220857Y-31693428D01*
X52268476Y-31883904D01*
X52316095Y-31979142D01*
X52363714Y-32026761D01*
X52458952Y-32074380D01*
X52554190Y-32074380D01*
X52649428Y-32026761D01*
X52697047Y-31979142D01*
X52744666Y-31883904D01*
X52792285Y-31693428D01*
X52792285Y-31455333D01*
X52744666Y-31264857D01*
X52697047Y-31169619D01*
X52649428Y-31122000D01*
X52554190Y-31074380D01*
X51792285Y-31407714D02*
X51792285Y-32074380D01*
X51792285Y-31502952D02*
X51744666Y-31455333D01*
X51649428Y-31407714D01*
X51506571Y-31407714D01*
X51411333Y-31455333D01*
X51363714Y-31550571D01*
X51363714Y-32074380D01*
X50554190Y-31550571D02*
X50887523Y-31550571D01*
X50887523Y-32074380D02*
X50887523Y-31074380D01*
X50411333Y-31074380D01*
D12*
X52661333Y-30150571D02*
X52685142Y-30174380D01*
X52756571Y-30198190D01*
X52804190Y-30198190D01*
X52875619Y-30174380D01*
X52923238Y-30126761D01*
X52947047Y-30079142D01*
X52970857Y-29983904D01*
X52970857Y-29912476D01*
X52947047Y-29817238D01*
X52923238Y-29769619D01*
X52875619Y-29722000D01*
X52804190Y-29698190D01*
X52756571Y-29698190D01*
X52685142Y-29722000D01*
X52661333Y-29745809D01*
X52494666Y-29698190D02*
X52161333Y-29698190D01*
X52375619Y-30198190D01*
D11*
X59396095Y-27520380D02*
X58777047Y-27520380D01*
X59110380Y-27901333D01*
X58967523Y-27901333D01*
X58872285Y-27948952D01*
X58824666Y-27996571D01*
X58777047Y-28091809D01*
X58777047Y-28329904D01*
X58824666Y-28425142D01*
X58872285Y-28472761D01*
X58967523Y-28520380D01*
X59253238Y-28520380D01*
X59348476Y-28472761D01*
X59396095Y-28425142D01*
X58443714Y-27520380D02*
X57824666Y-27520380D01*
X58158000Y-27901333D01*
X58015142Y-27901333D01*
X57919904Y-27948952D01*
X57872285Y-27996571D01*
X57824666Y-28091809D01*
X57824666Y-28329904D01*
X57872285Y-28425142D01*
X57919904Y-28472761D01*
X58015142Y-28520380D01*
X58300857Y-28520380D01*
X58396095Y-28472761D01*
X58443714Y-28425142D01*
X57205619Y-27520380D02*
X57110380Y-27520380D01*
X57015142Y-27568000D01*
X56967523Y-27615619D01*
X56919904Y-27710857D01*
X56872285Y-27901333D01*
X56872285Y-28139428D01*
X56919904Y-28329904D01*
X56967523Y-28425142D01*
X57015142Y-28472761D01*
X57110380Y-28520380D01*
X57205619Y-28520380D01*
X57300857Y-28472761D01*
X57348476Y-28425142D01*
X57396095Y-28329904D01*
X57443714Y-28139428D01*
X57443714Y-27901333D01*
X57396095Y-27710857D01*
X57348476Y-27615619D01*
X57300857Y-27568000D01*
X57205619Y-27520380D01*
X56443714Y-27853714D02*
X56443714Y-28853714D01*
X56443714Y-27901333D02*
X56348476Y-27853714D01*
X56158000Y-27853714D01*
X56062761Y-27901333D01*
X56015142Y-27948952D01*
X55967523Y-28044190D01*
X55967523Y-28329904D01*
X56015142Y-28425142D01*
X56062761Y-28472761D01*
X56158000Y-28520380D01*
X56348476Y-28520380D01*
X56443714Y-28472761D01*
D12*
X57741333Y-29896571D02*
X57765142Y-29920380D01*
X57836571Y-29944190D01*
X57884190Y-29944190D01*
X57955619Y-29920380D01*
X58003238Y-29872761D01*
X58027047Y-29825142D01*
X58050857Y-29729904D01*
X58050857Y-29658476D01*
X58027047Y-29563238D01*
X58003238Y-29515619D01*
X57955619Y-29468000D01*
X57884190Y-29444190D01*
X57836571Y-29444190D01*
X57765142Y-29468000D01*
X57741333Y-29491809D01*
X57455619Y-29658476D02*
X57503238Y-29634666D01*
X57527047Y-29610857D01*
X57550857Y-29563238D01*
X57550857Y-29539428D01*
X57527047Y-29491809D01*
X57503238Y-29468000D01*
X57455619Y-29444190D01*
X57360380Y-29444190D01*
X57312761Y-29468000D01*
X57288952Y-29491809D01*
X57265142Y-29539428D01*
X57265142Y-29563238D01*
X57288952Y-29610857D01*
X57312761Y-29634666D01*
X57360380Y-29658476D01*
X57455619Y-29658476D01*
X57503238Y-29682285D01*
X57527047Y-29706095D01*
X57550857Y-29753714D01*
X57550857Y-29848952D01*
X57527047Y-29896571D01*
X57503238Y-29920380D01*
X57455619Y-29944190D01*
X57360380Y-29944190D01*
X57312761Y-29920380D01*
X57288952Y-29896571D01*
X57265142Y-29848952D01*
X57265142Y-29753714D01*
X57288952Y-29706095D01*
X57312761Y-29682285D01*
X57360380Y-29658476D01*
D11*
X59318880Y-35599904D02*
X59318880Y-36218952D01*
X59699833Y-35885619D01*
X59699833Y-36028476D01*
X59747452Y-36123714D01*
X59795071Y-36171333D01*
X59890309Y-36218952D01*
X60128404Y-36218952D01*
X60223642Y-36171333D01*
X60271261Y-36123714D01*
X60318880Y-36028476D01*
X60318880Y-35742761D01*
X60271261Y-35647523D01*
X60223642Y-35599904D01*
X59318880Y-36552285D02*
X59318880Y-37171333D01*
X59699833Y-36838000D01*
X59699833Y-36980857D01*
X59747452Y-37076095D01*
X59795071Y-37123714D01*
X59890309Y-37171333D01*
X60128404Y-37171333D01*
X60223642Y-37123714D01*
X60271261Y-37076095D01*
X60318880Y-36980857D01*
X60318880Y-36695142D01*
X60271261Y-36599904D01*
X60223642Y-36552285D01*
X59318880Y-37790380D02*
X59318880Y-37885619D01*
X59366500Y-37980857D01*
X59414119Y-38028476D01*
X59509357Y-38076095D01*
X59699833Y-38123714D01*
X59937928Y-38123714D01*
X60128404Y-38076095D01*
X60223642Y-38028476D01*
X60271261Y-37980857D01*
X60318880Y-37885619D01*
X60318880Y-37790380D01*
X60271261Y-37695142D01*
X60223642Y-37647523D01*
X60128404Y-37599904D01*
X59937928Y-37552285D01*
X59699833Y-37552285D01*
X59509357Y-37599904D01*
X59414119Y-37647523D01*
X59366500Y-37695142D01*
X59318880Y-37790380D01*
X59652214Y-38552285D02*
X60652214Y-38552285D01*
X59699833Y-38552285D02*
X59652214Y-38647523D01*
X59652214Y-38838000D01*
X59699833Y-38933238D01*
X59747452Y-38980857D01*
X59842690Y-39028476D01*
X60128404Y-39028476D01*
X60223642Y-38980857D01*
X60271261Y-38933238D01*
X60318880Y-38838000D01*
X60318880Y-38647523D01*
X60271261Y-38552285D01*
D12*
X61695071Y-37254666D02*
X61718880Y-37230857D01*
X61742690Y-37159428D01*
X61742690Y-37111809D01*
X61718880Y-37040380D01*
X61671261Y-36992761D01*
X61623642Y-36968952D01*
X61528404Y-36945142D01*
X61456976Y-36945142D01*
X61361738Y-36968952D01*
X61314119Y-36992761D01*
X61266500Y-37040380D01*
X61242690Y-37111809D01*
X61242690Y-37159428D01*
X61266500Y-37230857D01*
X61290309Y-37254666D01*
X61742690Y-37492761D02*
X61742690Y-37588000D01*
X61718880Y-37635619D01*
X61695071Y-37659428D01*
X61623642Y-37707047D01*
X61528404Y-37730857D01*
X61337928Y-37730857D01*
X61290309Y-37707047D01*
X61266500Y-37683238D01*
X61242690Y-37635619D01*
X61242690Y-37540380D01*
X61266500Y-37492761D01*
X61290309Y-37468952D01*
X61337928Y-37445142D01*
X61456976Y-37445142D01*
X61504595Y-37468952D01*
X61528404Y-37492761D01*
X61552214Y-37540380D01*
X61552214Y-37635619D01*
X61528404Y-37683238D01*
X61504595Y-37707047D01*
X61456976Y-37730857D01*
D11*
X59158095Y-35725714D02*
X59158095Y-36392380D01*
X59396190Y-35344761D02*
X59634285Y-36059047D01*
X59015238Y-36059047D01*
X58729523Y-35392380D02*
X58062857Y-35392380D01*
X58491428Y-36392380D01*
X57681904Y-35725714D02*
X57681904Y-36725714D01*
X57681904Y-35773333D02*
X57586666Y-35725714D01*
X57396190Y-35725714D01*
X57300952Y-35773333D01*
X57253333Y-35820952D01*
X57205714Y-35916190D01*
X57205714Y-36201904D01*
X57253333Y-36297142D01*
X57300952Y-36344761D01*
X57396190Y-36392380D01*
X57586666Y-36392380D01*
X57681904Y-36344761D01*
D12*
X58741428Y-34468571D02*
X58765238Y-34492380D01*
X58836666Y-34516190D01*
X58884285Y-34516190D01*
X58955714Y-34492380D01*
X59003333Y-34444761D01*
X59027142Y-34397142D01*
X59050952Y-34301904D01*
X59050952Y-34230476D01*
X59027142Y-34135238D01*
X59003333Y-34087619D01*
X58955714Y-34040000D01*
X58884285Y-34016190D01*
X58836666Y-34016190D01*
X58765238Y-34040000D01*
X58741428Y-34063809D01*
X58265238Y-34516190D02*
X58550952Y-34516190D01*
X58408095Y-34516190D02*
X58408095Y-34016190D01*
X58455714Y-34087619D01*
X58503333Y-34135238D01*
X58550952Y-34159047D01*
X57955714Y-34016190D02*
X57908095Y-34016190D01*
X57860476Y-34040000D01*
X57836666Y-34063809D01*
X57812857Y-34111428D01*
X57789047Y-34206666D01*
X57789047Y-34325714D01*
X57812857Y-34420952D01*
X57836666Y-34468571D01*
X57860476Y-34492380D01*
X57908095Y-34516190D01*
X57955714Y-34516190D01*
X58003333Y-34492380D01*
X58027142Y-34468571D01*
X58050952Y-34420952D01*
X58074761Y-34325714D01*
X58074761Y-34206666D01*
X58050952Y-34111428D01*
X58027142Y-34063809D01*
X58003333Y-34040000D01*
X57955714Y-34016190D01*
D11*
X81292380Y-27138952D02*
X80292380Y-27138952D01*
X81006666Y-27472285D01*
X80292380Y-27805619D01*
X81292380Y-27805619D01*
X81292380Y-28281809D02*
X80292380Y-28281809D01*
X81006666Y-28615142D01*
X80292380Y-28948476D01*
X81292380Y-28948476D01*
X81244761Y-29377047D02*
X81292380Y-29519904D01*
X81292380Y-29758000D01*
X81244761Y-29853238D01*
X81197142Y-29900857D01*
X81101904Y-29948476D01*
X81006666Y-29948476D01*
X80911428Y-29900857D01*
X80863809Y-29853238D01*
X80816190Y-29758000D01*
X80768571Y-29567523D01*
X80720952Y-29472285D01*
X80673333Y-29424666D01*
X80578095Y-29377047D01*
X80482857Y-29377047D01*
X80387619Y-29424666D01*
X80340000Y-29472285D01*
X80292380Y-29567523D01*
X80292380Y-29805619D01*
X80340000Y-29948476D01*
X80292380Y-30281809D02*
X80292380Y-30948476D01*
X81292380Y-30281809D01*
X81292380Y-30948476D01*
X80292380Y-31805619D02*
X80292380Y-31329428D01*
X80768571Y-31281809D01*
X80720952Y-31329428D01*
X80673333Y-31424666D01*
X80673333Y-31662761D01*
X80720952Y-31758000D01*
X80768571Y-31805619D01*
X80863809Y-31853238D01*
X81101904Y-31853238D01*
X81197142Y-31805619D01*
X81244761Y-31758000D01*
X81292380Y-31662761D01*
X81292380Y-31424666D01*
X81244761Y-31329428D01*
X81197142Y-31281809D01*
X80387619Y-32234190D02*
X80340000Y-32281809D01*
X80292380Y-32377047D01*
X80292380Y-32615142D01*
X80340000Y-32710380D01*
X80387619Y-32758000D01*
X80482857Y-32805619D01*
X80578095Y-32805619D01*
X80720952Y-32758000D01*
X81292380Y-32186571D01*
X81292380Y-32805619D01*
X80292380Y-33138952D02*
X80292380Y-33758000D01*
X80673333Y-33424666D01*
X80673333Y-33567523D01*
X80720952Y-33662761D01*
X80768571Y-33710380D01*
X80863809Y-33758000D01*
X81101904Y-33758000D01*
X81197142Y-33710380D01*
X81244761Y-33662761D01*
X81292380Y-33567523D01*
X81292380Y-33281809D01*
X81244761Y-33186571D01*
X81197142Y-33138952D01*
X80292380Y-34377047D02*
X80292380Y-34472285D01*
X80340000Y-34567523D01*
X80387619Y-34615142D01*
X80482857Y-34662761D01*
X80673333Y-34710380D01*
X80911428Y-34710380D01*
X81101904Y-34662761D01*
X81197142Y-34615142D01*
X81244761Y-34567523D01*
X81292380Y-34472285D01*
X81292380Y-34377047D01*
X81244761Y-34281809D01*
X81197142Y-34234190D01*
X81101904Y-34186571D01*
X80911428Y-34138952D01*
X80673333Y-34138952D01*
X80482857Y-34186571D01*
X80387619Y-34234190D01*
X80340000Y-34281809D01*
X80292380Y-34377047D01*
X80768571Y-35472285D02*
X80816190Y-35615142D01*
X80863809Y-35662761D01*
X80959047Y-35710380D01*
X81101904Y-35710380D01*
X81197142Y-35662761D01*
X81244761Y-35615142D01*
X81292380Y-35519904D01*
X81292380Y-35138952D01*
X80292380Y-35138952D01*
X80292380Y-35472285D01*
X80340000Y-35567523D01*
X80387619Y-35615142D01*
X80482857Y-35662761D01*
X80578095Y-35662761D01*
X80673333Y-35615142D01*
X80720952Y-35567523D01*
X80768571Y-35472285D01*
X80768571Y-35138952D01*
X80292380Y-35996095D02*
X80292380Y-36567523D01*
X81292380Y-36281809D02*
X80292380Y-36281809D01*
X81292380Y-37424666D02*
X81292380Y-36853238D01*
X81292380Y-37138952D02*
X80292380Y-37138952D01*
X80435238Y-37043714D01*
X80530476Y-36948476D01*
X80578095Y-36853238D01*
X77192380Y-31519904D02*
X76192380Y-31519904D01*
X76192380Y-31758000D01*
X76240000Y-31900857D01*
X76335238Y-31996095D01*
X76430476Y-32043714D01*
X76620952Y-32091333D01*
X76763809Y-32091333D01*
X76954285Y-32043714D01*
X77049523Y-31996095D01*
X77144761Y-31900857D01*
X77192380Y-31758000D01*
X77192380Y-31519904D01*
X77192380Y-33043714D02*
X77192380Y-32472285D01*
X77192380Y-32758000D02*
X76192380Y-32758000D01*
X76335238Y-32662761D01*
X76430476Y-32567523D01*
X76478095Y-32472285D01*
X44012380Y-34996571D02*
X44012380Y-34425142D01*
X44012380Y-34710857D02*
X43012380Y-34710857D01*
X43155238Y-34615619D01*
X43250476Y-34520380D01*
X43298095Y-34425142D01*
X43012380Y-35615619D02*
X43012380Y-35710857D01*
X43060000Y-35806095D01*
X43107619Y-35853714D01*
X43202857Y-35901333D01*
X43393333Y-35948952D01*
X43631428Y-35948952D01*
X43821904Y-35901333D01*
X43917142Y-35853714D01*
X43964761Y-35806095D01*
X44012380Y-35710857D01*
X44012380Y-35615619D01*
X43964761Y-35520380D01*
X43917142Y-35472761D01*
X43821904Y-35425142D01*
X43631428Y-35377523D01*
X43393333Y-35377523D01*
X43202857Y-35425142D01*
X43107619Y-35472761D01*
X43060000Y-35520380D01*
X43012380Y-35615619D01*
X43012380Y-36568000D02*
X43012380Y-36663238D01*
X43060000Y-36758476D01*
X43107619Y-36806095D01*
X43202857Y-36853714D01*
X43393333Y-36901333D01*
X43631428Y-36901333D01*
X43821904Y-36853714D01*
X43917142Y-36806095D01*
X43964761Y-36758476D01*
X44012380Y-36663238D01*
X44012380Y-36568000D01*
X43964761Y-36472761D01*
X43917142Y-36425142D01*
X43821904Y-36377523D01*
X43631428Y-36329904D01*
X43393333Y-36329904D01*
X43202857Y-36377523D01*
X43107619Y-36425142D01*
X43060000Y-36472761D01*
X43012380Y-36568000D01*
X44012380Y-37329904D02*
X43012380Y-37329904D01*
X43631428Y-37425142D02*
X44012380Y-37710857D01*
X43345714Y-37710857D02*
X43726666Y-37329904D01*
D12*
X42136190Y-35746571D02*
X41898095Y-35579904D01*
X42136190Y-35460857D02*
X41636190Y-35460857D01*
X41636190Y-35651333D01*
X41660000Y-35698952D01*
X41683809Y-35722761D01*
X41731428Y-35746571D01*
X41802857Y-35746571D01*
X41850476Y-35722761D01*
X41874285Y-35698952D01*
X41898095Y-35651333D01*
X41898095Y-35460857D01*
X42136190Y-36222761D02*
X42136190Y-35937047D01*
X42136190Y-36079904D02*
X41636190Y-36079904D01*
X41707619Y-36032285D01*
X41755238Y-35984666D01*
X41779047Y-35937047D01*
X41636190Y-36651333D02*
X41636190Y-36556095D01*
X41660000Y-36508476D01*
X41683809Y-36484666D01*
X41755238Y-36437047D01*
X41850476Y-36413238D01*
X42040952Y-36413238D01*
X42088571Y-36437047D01*
X42112380Y-36460857D01*
X42136190Y-36508476D01*
X42136190Y-36603714D01*
X42112380Y-36651333D01*
X42088571Y-36675142D01*
X42040952Y-36698952D01*
X41921904Y-36698952D01*
X41874285Y-36675142D01*
X41850476Y-36651333D01*
X41826666Y-36603714D01*
X41826666Y-36508476D01*
X41850476Y-36460857D01*
X41874285Y-36437047D01*
X41921904Y-36413238D01*
D11*
X58238380Y-40251142D02*
X57762190Y-39917809D01*
X58238380Y-39679714D02*
X57238380Y-39679714D01*
X57238380Y-40060666D01*
X57286000Y-40155904D01*
X57333619Y-40203523D01*
X57428857Y-40251142D01*
X57571714Y-40251142D01*
X57666952Y-40203523D01*
X57714571Y-40155904D01*
X57762190Y-40060666D01*
X57762190Y-39679714D01*
X58238380Y-41203523D02*
X58238380Y-40632095D01*
X58238380Y-40917809D02*
X57238380Y-40917809D01*
X57381238Y-40822571D01*
X57476476Y-40727333D01*
X57524095Y-40632095D01*
X57238380Y-41536857D02*
X57238380Y-42155904D01*
X57619333Y-41822571D01*
X57619333Y-41965428D01*
X57666952Y-42060666D01*
X57714571Y-42108285D01*
X57809809Y-42155904D01*
X58047904Y-42155904D01*
X58143142Y-42108285D01*
X58190761Y-42060666D01*
X58238380Y-41965428D01*
X58238380Y-41679714D01*
X58190761Y-41584476D01*
X58143142Y-41536857D01*
D12*
X59662190Y-40120190D02*
X59662190Y-39834476D01*
X59662190Y-39977333D02*
X59162190Y-39977333D01*
X59233619Y-39929714D01*
X59281238Y-39882095D01*
X59305047Y-39834476D01*
X59162190Y-40429714D02*
X59162190Y-40477333D01*
X59186000Y-40524952D01*
X59209809Y-40548761D01*
X59257428Y-40572571D01*
X59352666Y-40596380D01*
X59471714Y-40596380D01*
X59566952Y-40572571D01*
X59614571Y-40548761D01*
X59638380Y-40524952D01*
X59662190Y-40477333D01*
X59662190Y-40429714D01*
X59638380Y-40382095D01*
X59614571Y-40358285D01*
X59566952Y-40334476D01*
X59471714Y-40310666D01*
X59352666Y-40310666D01*
X59257428Y-40334476D01*
X59209809Y-40358285D01*
X59186000Y-40382095D01*
X59162190Y-40429714D01*
X59162190Y-40905904D02*
X59162190Y-40953523D01*
X59186000Y-41001142D01*
X59209809Y-41024952D01*
X59257428Y-41048761D01*
X59352666Y-41072571D01*
X59471714Y-41072571D01*
X59566952Y-41048761D01*
X59614571Y-41024952D01*
X59638380Y-41001142D01*
X59662190Y-40953523D01*
X59662190Y-40905904D01*
X59638380Y-40858285D01*
X59614571Y-40834476D01*
X59566952Y-40810666D01*
X59471714Y-40786857D01*
X59352666Y-40786857D01*
X59257428Y-40810666D01*
X59209809Y-40834476D01*
X59186000Y-40858285D01*
X59162190Y-40905904D01*
X59662190Y-41286857D02*
X59162190Y-41286857D01*
X59471714Y-41334476D02*
X59662190Y-41477333D01*
X59328857Y-41477333D02*
X59519333Y-41286857D01*
X59162190Y-41644000D02*
X59162190Y-41977333D01*
X59662190Y-41763047D01*
D11*
X46298380Y-31948571D02*
X46298380Y-31377142D01*
X46298380Y-31662857D02*
X45298380Y-31662857D01*
X45441238Y-31567619D01*
X45536476Y-31472380D01*
X45584095Y-31377142D01*
X45298380Y-32567619D02*
X45298380Y-32662857D01*
X45346000Y-32758095D01*
X45393619Y-32805714D01*
X45488857Y-32853333D01*
X45679333Y-32900952D01*
X45917428Y-32900952D01*
X46107904Y-32853333D01*
X46203142Y-32805714D01*
X46250761Y-32758095D01*
X46298380Y-32662857D01*
X46298380Y-32567619D01*
X46250761Y-32472380D01*
X46203142Y-32424761D01*
X46107904Y-32377142D01*
X45917428Y-32329523D01*
X45679333Y-32329523D01*
X45488857Y-32377142D01*
X45393619Y-32424761D01*
X45346000Y-32472380D01*
X45298380Y-32567619D01*
X45298380Y-33520000D02*
X45298380Y-33615238D01*
X45346000Y-33710476D01*
X45393619Y-33758095D01*
X45488857Y-33805714D01*
X45679333Y-33853333D01*
X45917428Y-33853333D01*
X46107904Y-33805714D01*
X46203142Y-33758095D01*
X46250761Y-33710476D01*
X46298380Y-33615238D01*
X46298380Y-33520000D01*
X46250761Y-33424761D01*
X46203142Y-33377142D01*
X46107904Y-33329523D01*
X45917428Y-33281904D01*
X45679333Y-33281904D01*
X45488857Y-33329523D01*
X45393619Y-33377142D01*
X45346000Y-33424761D01*
X45298380Y-33520000D01*
X46298380Y-34281904D02*
X45298380Y-34281904D01*
X45917428Y-34377142D02*
X46298380Y-34662857D01*
X45631714Y-34662857D02*
X46012666Y-34281904D01*
D12*
X44422190Y-32698571D02*
X44184095Y-32531904D01*
X44422190Y-32412857D02*
X43922190Y-32412857D01*
X43922190Y-32603333D01*
X43946000Y-32650952D01*
X43969809Y-32674761D01*
X44017428Y-32698571D01*
X44088857Y-32698571D01*
X44136476Y-32674761D01*
X44160285Y-32650952D01*
X44184095Y-32603333D01*
X44184095Y-32412857D01*
X44422190Y-33174761D02*
X44422190Y-32889047D01*
X44422190Y-33031904D02*
X43922190Y-33031904D01*
X43993619Y-32984285D01*
X44041238Y-32936666D01*
X44065047Y-32889047D01*
X43969809Y-33365238D02*
X43946000Y-33389047D01*
X43922190Y-33436666D01*
X43922190Y-33555714D01*
X43946000Y-33603333D01*
X43969809Y-33627142D01*
X44017428Y-33650952D01*
X44065047Y-33650952D01*
X44136476Y-33627142D01*
X44422190Y-33341428D01*
X44422190Y-33650952D01*
D11*
X77540380Y-36012571D02*
X77064190Y-35679238D01*
X77540380Y-35441142D02*
X76540380Y-35441142D01*
X76540380Y-35822095D01*
X76588000Y-35917333D01*
X76635619Y-35964952D01*
X76730857Y-36012571D01*
X76873714Y-36012571D01*
X76968952Y-35964952D01*
X77016571Y-35917333D01*
X77064190Y-35822095D01*
X77064190Y-35441142D01*
X77635619Y-36203047D02*
X77635619Y-36964952D01*
X76540380Y-37203047D02*
X77349904Y-37203047D01*
X77445142Y-37250666D01*
X77492761Y-37298285D01*
X77540380Y-37393523D01*
X77540380Y-37584000D01*
X77492761Y-37679238D01*
X77445142Y-37726857D01*
X77349904Y-37774476D01*
X76540380Y-37774476D01*
X77492761Y-38203047D02*
X77540380Y-38345904D01*
X77540380Y-38584000D01*
X77492761Y-38679238D01*
X77445142Y-38726857D01*
X77349904Y-38774476D01*
X77254666Y-38774476D01*
X77159428Y-38726857D01*
X77111809Y-38679238D01*
X77064190Y-38584000D01*
X77016571Y-38393523D01*
X76968952Y-38298285D01*
X76921333Y-38250666D01*
X76826095Y-38203047D01*
X76730857Y-38203047D01*
X76635619Y-38250666D01*
X76588000Y-38298285D01*
X76540380Y-38393523D01*
X76540380Y-38631619D01*
X76588000Y-38774476D01*
D12*
X75664190Y-37000666D02*
X75426095Y-36834000D01*
X75664190Y-36714952D02*
X75164190Y-36714952D01*
X75164190Y-36905428D01*
X75188000Y-36953047D01*
X75211809Y-36976857D01*
X75259428Y-37000666D01*
X75330857Y-37000666D01*
X75378476Y-36976857D01*
X75402285Y-36953047D01*
X75426095Y-36905428D01*
X75426095Y-36714952D01*
X75664190Y-37476857D02*
X75664190Y-37191142D01*
X75664190Y-37334000D02*
X75164190Y-37334000D01*
X75235619Y-37286380D01*
X75283238Y-37238761D01*
X75307047Y-37191142D01*
D11*
X70159428Y-19882380D02*
X70492761Y-19406190D01*
X70730857Y-19882380D02*
X70730857Y-18882380D01*
X70349904Y-18882380D01*
X70254666Y-18930000D01*
X70207047Y-18977619D01*
X70159428Y-19072857D01*
X70159428Y-19215714D01*
X70207047Y-19310952D01*
X70254666Y-19358571D01*
X70349904Y-19406190D01*
X70730857Y-19406190D01*
X69968952Y-19977619D02*
X69207047Y-19977619D01*
X68968952Y-18882380D02*
X68968952Y-19691904D01*
X68921333Y-19787142D01*
X68873714Y-19834761D01*
X68778476Y-19882380D01*
X68588000Y-19882380D01*
X68492761Y-19834761D01*
X68445142Y-19787142D01*
X68397523Y-19691904D01*
X68397523Y-18882380D01*
X67968952Y-19834761D02*
X67826095Y-19882380D01*
X67588000Y-19882380D01*
X67492761Y-19834761D01*
X67445142Y-19787142D01*
X67397523Y-19691904D01*
X67397523Y-19596666D01*
X67445142Y-19501428D01*
X67492761Y-19453809D01*
X67588000Y-19406190D01*
X67778476Y-19358571D01*
X67873714Y-19310952D01*
X67921333Y-19263333D01*
X67968952Y-19168095D01*
X67968952Y-19072857D01*
X67921333Y-18977619D01*
X67873714Y-18930000D01*
X67778476Y-18882380D01*
X67540380Y-18882380D01*
X67397523Y-18930000D01*
D12*
X69171333Y-18006190D02*
X69338000Y-17768095D01*
X69457047Y-18006190D02*
X69457047Y-17506190D01*
X69266571Y-17506190D01*
X69218952Y-17530000D01*
X69195142Y-17553809D01*
X69171333Y-17601428D01*
X69171333Y-17672857D01*
X69195142Y-17720476D01*
X69218952Y-17744285D01*
X69266571Y-17768095D01*
X69457047Y-17768095D01*
X68980857Y-17553809D02*
X68957047Y-17530000D01*
X68909428Y-17506190D01*
X68790380Y-17506190D01*
X68742761Y-17530000D01*
X68718952Y-17553809D01*
X68695142Y-17601428D01*
X68695142Y-17649047D01*
X68718952Y-17720476D01*
X69004666Y-18006190D01*
X68695142Y-18006190D01*
D11*
X78033428Y-27250380D02*
X78366761Y-26774190D01*
X78604857Y-27250380D02*
X78604857Y-26250380D01*
X78223904Y-26250380D01*
X78128666Y-26298000D01*
X78081047Y-26345619D01*
X78033428Y-26440857D01*
X78033428Y-26583714D01*
X78081047Y-26678952D01*
X78128666Y-26726571D01*
X78223904Y-26774190D01*
X78604857Y-26774190D01*
X77842952Y-27345619D02*
X77081047Y-27345619D01*
X76842952Y-26250380D02*
X76842952Y-27059904D01*
X76795333Y-27155142D01*
X76747714Y-27202761D01*
X76652476Y-27250380D01*
X76462000Y-27250380D01*
X76366761Y-27202761D01*
X76319142Y-27155142D01*
X76271523Y-27059904D01*
X76271523Y-26250380D01*
X75842952Y-27202761D02*
X75700095Y-27250380D01*
X75462000Y-27250380D01*
X75366761Y-27202761D01*
X75319142Y-27155142D01*
X75271523Y-27059904D01*
X75271523Y-26964666D01*
X75319142Y-26869428D01*
X75366761Y-26821809D01*
X75462000Y-26774190D01*
X75652476Y-26726571D01*
X75747714Y-26678952D01*
X75795333Y-26631333D01*
X75842952Y-26536095D01*
X75842952Y-26440857D01*
X75795333Y-26345619D01*
X75747714Y-26298000D01*
X75652476Y-26250380D01*
X75414380Y-26250380D01*
X75271523Y-26298000D01*
D12*
X77045333Y-28674190D02*
X77212000Y-28436095D01*
X77331047Y-28674190D02*
X77331047Y-28174190D01*
X77140571Y-28174190D01*
X77092952Y-28198000D01*
X77069142Y-28221809D01*
X77045333Y-28269428D01*
X77045333Y-28340857D01*
X77069142Y-28388476D01*
X77092952Y-28412285D01*
X77140571Y-28436095D01*
X77331047Y-28436095D01*
X76878666Y-28174190D02*
X76569142Y-28174190D01*
X76735809Y-28364666D01*
X76664380Y-28364666D01*
X76616761Y-28388476D01*
X76592952Y-28412285D01*
X76569142Y-28459904D01*
X76569142Y-28578952D01*
X76592952Y-28626571D01*
X76616761Y-28650380D01*
X76664380Y-28674190D01*
X76807238Y-28674190D01*
X76854857Y-28650380D01*
X76878666Y-28626571D01*
D11*
X71190380Y-22853071D02*
X70714190Y-22519738D01*
X71190380Y-22281642D02*
X70190380Y-22281642D01*
X70190380Y-22662595D01*
X70238000Y-22757833D01*
X70285619Y-22805452D01*
X70380857Y-22853071D01*
X70523714Y-22853071D01*
X70618952Y-22805452D01*
X70666571Y-22757833D01*
X70714190Y-22662595D01*
X70714190Y-22281642D01*
X71285619Y-23043547D02*
X71285619Y-23805452D01*
X70190380Y-24043547D02*
X70999904Y-24043547D01*
X71095142Y-24091166D01*
X71142761Y-24138785D01*
X71190380Y-24234023D01*
X71190380Y-24424500D01*
X71142761Y-24519738D01*
X71095142Y-24567357D01*
X70999904Y-24614976D01*
X70190380Y-24614976D01*
X71142761Y-25043547D02*
X71190380Y-25186404D01*
X71190380Y-25424500D01*
X71142761Y-25519738D01*
X71095142Y-25567357D01*
X70999904Y-25614976D01*
X70904666Y-25614976D01*
X70809428Y-25567357D01*
X70761809Y-25519738D01*
X70714190Y-25424500D01*
X70666571Y-25234023D01*
X70618952Y-25138785D01*
X70571333Y-25091166D01*
X70476095Y-25043547D01*
X70380857Y-25043547D01*
X70285619Y-25091166D01*
X70238000Y-25138785D01*
X70190380Y-25234023D01*
X70190380Y-25472119D01*
X70238000Y-25614976D01*
D12*
X69314190Y-23841166D02*
X69076095Y-23674500D01*
X69314190Y-23555452D02*
X68814190Y-23555452D01*
X68814190Y-23745928D01*
X68838000Y-23793547D01*
X68861809Y-23817357D01*
X68909428Y-23841166D01*
X68980857Y-23841166D01*
X69028476Y-23817357D01*
X69052285Y-23793547D01*
X69076095Y-23745928D01*
X69076095Y-23555452D01*
X68980857Y-24269738D02*
X69314190Y-24269738D01*
X68790380Y-24150690D02*
X69147523Y-24031642D01*
X69147523Y-24341166D01*
D11*
X52633428Y-42236380D02*
X53204857Y-42236380D01*
X52919142Y-42236380D02*
X52919142Y-41236380D01*
X53014380Y-41379238D01*
X53109619Y-41474476D01*
X53204857Y-41522095D01*
X52014380Y-41236380D02*
X51919142Y-41236380D01*
X51823904Y-41284000D01*
X51776285Y-41331619D01*
X51728666Y-41426857D01*
X51681047Y-41617333D01*
X51681047Y-41855428D01*
X51728666Y-42045904D01*
X51776285Y-42141142D01*
X51823904Y-42188761D01*
X51919142Y-42236380D01*
X52014380Y-42236380D01*
X52109619Y-42188761D01*
X52157238Y-42141142D01*
X52204857Y-42045904D01*
X52252476Y-41855428D01*
X52252476Y-41617333D01*
X52204857Y-41426857D01*
X52157238Y-41331619D01*
X52109619Y-41284000D01*
X52014380Y-41236380D01*
X51062000Y-41236380D02*
X50966761Y-41236380D01*
X50871523Y-41284000D01*
X50823904Y-41331619D01*
X50776285Y-41426857D01*
X50728666Y-41617333D01*
X50728666Y-41855428D01*
X50776285Y-42045904D01*
X50823904Y-42141142D01*
X50871523Y-42188761D01*
X50966761Y-42236380D01*
X51062000Y-42236380D01*
X51157238Y-42188761D01*
X51204857Y-42141142D01*
X51252476Y-42045904D01*
X51300095Y-41855428D01*
X51300095Y-41617333D01*
X51252476Y-41426857D01*
X51204857Y-41331619D01*
X51157238Y-41284000D01*
X51062000Y-41236380D01*
X50300095Y-42236380D02*
X50300095Y-41236380D01*
X50204857Y-41855428D02*
X49919142Y-42236380D01*
X49919142Y-41569714D02*
X50300095Y-41950666D01*
D12*
X51883428Y-43660190D02*
X52050095Y-43422095D01*
X52169142Y-43660190D02*
X52169142Y-43160190D01*
X51978666Y-43160190D01*
X51931047Y-43184000D01*
X51907238Y-43207809D01*
X51883428Y-43255428D01*
X51883428Y-43326857D01*
X51907238Y-43374476D01*
X51931047Y-43398285D01*
X51978666Y-43422095D01*
X52169142Y-43422095D01*
X51407238Y-43660190D02*
X51692952Y-43660190D01*
X51550095Y-43660190D02*
X51550095Y-43160190D01*
X51597714Y-43231619D01*
X51645333Y-43279238D01*
X51692952Y-43303047D01*
X51097714Y-43160190D02*
X51050095Y-43160190D01*
X51002476Y-43184000D01*
X50978666Y-43207809D01*
X50954857Y-43255428D01*
X50931047Y-43350666D01*
X50931047Y-43469714D01*
X50954857Y-43564952D01*
X50978666Y-43612571D01*
X51002476Y-43636380D01*
X51050095Y-43660190D01*
X51097714Y-43660190D01*
X51145333Y-43636380D01*
X51169142Y-43612571D01*
X51192952Y-43564952D01*
X51216761Y-43469714D01*
X51216761Y-43350666D01*
X51192952Y-43255428D01*
X51169142Y-43207809D01*
X51145333Y-43184000D01*
X51097714Y-43160190D01*
D11*
X59506380Y-39822571D02*
X59506380Y-39251142D01*
X59506380Y-39536857D02*
X58506380Y-39536857D01*
X58649238Y-39441619D01*
X58744476Y-39346380D01*
X58792095Y-39251142D01*
X58506380Y-40441619D02*
X58506380Y-40536857D01*
X58554000Y-40632095D01*
X58601619Y-40679714D01*
X58696857Y-40727333D01*
X58887333Y-40774952D01*
X59125428Y-40774952D01*
X59315904Y-40727333D01*
X59411142Y-40679714D01*
X59458761Y-40632095D01*
X59506380Y-40536857D01*
X59506380Y-40441619D01*
X59458761Y-40346380D01*
X59411142Y-40298761D01*
X59315904Y-40251142D01*
X59125428Y-40203523D01*
X58887333Y-40203523D01*
X58696857Y-40251142D01*
X58601619Y-40298761D01*
X58554000Y-40346380D01*
X58506380Y-40441619D01*
X58506380Y-41394000D02*
X58506380Y-41489238D01*
X58554000Y-41584476D01*
X58601619Y-41632095D01*
X58696857Y-41679714D01*
X58887333Y-41727333D01*
X59125428Y-41727333D01*
X59315904Y-41679714D01*
X59411142Y-41632095D01*
X59458761Y-41584476D01*
X59506380Y-41489238D01*
X59506380Y-41394000D01*
X59458761Y-41298761D01*
X59411142Y-41251142D01*
X59315904Y-41203523D01*
X59125428Y-41155904D01*
X58887333Y-41155904D01*
X58696857Y-41203523D01*
X58601619Y-41251142D01*
X58554000Y-41298761D01*
X58506380Y-41394000D01*
X59506380Y-42155904D02*
X58506380Y-42155904D01*
X59125428Y-42251142D02*
X59506380Y-42536857D01*
X58839714Y-42536857D02*
X59220666Y-42155904D01*
D12*
X57630190Y-40572571D02*
X57392095Y-40405904D01*
X57630190Y-40286857D02*
X57130190Y-40286857D01*
X57130190Y-40477333D01*
X57154000Y-40524952D01*
X57177809Y-40548761D01*
X57225428Y-40572571D01*
X57296857Y-40572571D01*
X57344476Y-40548761D01*
X57368285Y-40524952D01*
X57392095Y-40477333D01*
X57392095Y-40286857D01*
X57630190Y-41048761D02*
X57630190Y-40763047D01*
X57630190Y-40905904D02*
X57130190Y-40905904D01*
X57201619Y-40858285D01*
X57249238Y-40810666D01*
X57273047Y-40763047D01*
X57630190Y-41524952D02*
X57630190Y-41239238D01*
X57630190Y-41382095D02*
X57130190Y-41382095D01*
X57201619Y-41334476D01*
X57249238Y-41286857D01*
X57273047Y-41239238D01*
D11*
X49071428Y-27352380D02*
X49642857Y-27352380D01*
X49357142Y-27352380D02*
X49357142Y-26352380D01*
X49452380Y-26495238D01*
X49547619Y-26590476D01*
X49642857Y-26638095D01*
X48452380Y-26352380D02*
X48357142Y-26352380D01*
X48261904Y-26400000D01*
X48214285Y-26447619D01*
X48166666Y-26542857D01*
X48119047Y-26733333D01*
X48119047Y-26971428D01*
X48166666Y-27161904D01*
X48214285Y-27257142D01*
X48261904Y-27304761D01*
X48357142Y-27352380D01*
X48452380Y-27352380D01*
X48547619Y-27304761D01*
X48595238Y-27257142D01*
X48642857Y-27161904D01*
X48690476Y-26971428D01*
X48690476Y-26733333D01*
X48642857Y-26542857D01*
X48595238Y-26447619D01*
X48547619Y-26400000D01*
X48452380Y-26352380D01*
X47500000Y-26352380D02*
X47404761Y-26352380D01*
X47309523Y-26400000D01*
X47261904Y-26447619D01*
X47214285Y-26542857D01*
X47166666Y-26733333D01*
X47166666Y-26971428D01*
X47214285Y-27161904D01*
X47261904Y-27257142D01*
X47309523Y-27304761D01*
X47404761Y-27352380D01*
X47500000Y-27352380D01*
X47595238Y-27304761D01*
X47642857Y-27257142D01*
X47690476Y-27161904D01*
X47738095Y-26971428D01*
X47738095Y-26733333D01*
X47690476Y-26542857D01*
X47642857Y-26447619D01*
X47595238Y-26400000D01*
X47500000Y-26352380D01*
X46738095Y-27352380D02*
X46738095Y-26352380D01*
X46642857Y-26971428D02*
X46357142Y-27352380D01*
X46357142Y-26685714D02*
X46738095Y-27066666D01*
D12*
X49297619Y-25476190D02*
X49464285Y-25238095D01*
X49583333Y-25476190D02*
X49583333Y-24976190D01*
X49392857Y-24976190D01*
X49345238Y-25000000D01*
X49321428Y-25023809D01*
X49297619Y-25071428D01*
X49297619Y-25142857D01*
X49321428Y-25190476D01*
X49345238Y-25214285D01*
X49392857Y-25238095D01*
X49583333Y-25238095D01*
X49202380Y-25523809D02*
X48821428Y-25523809D01*
X48726190Y-25452380D02*
X48678571Y-25476190D01*
X48583333Y-25476190D01*
X48535714Y-25452380D01*
X48511904Y-25404761D01*
X48511904Y-25380952D01*
X48535714Y-25333333D01*
X48583333Y-25309523D01*
X48654761Y-25309523D01*
X48702380Y-25285714D01*
X48726190Y-25238095D01*
X48726190Y-25214285D01*
X48702380Y-25166666D01*
X48654761Y-25142857D01*
X48583333Y-25142857D01*
X48535714Y-25166666D01*
X48297619Y-25476190D02*
X48297619Y-24976190D01*
X48083333Y-25476190D02*
X48083333Y-25214285D01*
X48107142Y-25166666D01*
X48154761Y-25142857D01*
X48226190Y-25142857D01*
X48273809Y-25166666D01*
X48297619Y-25190476D01*
X47630952Y-25142857D02*
X47630952Y-25476190D01*
X47845238Y-25142857D02*
X47845238Y-25404761D01*
X47821428Y-25452380D01*
X47773809Y-25476190D01*
X47702380Y-25476190D01*
X47654761Y-25452380D01*
X47630952Y-25428571D01*
X47392857Y-25142857D02*
X47392857Y-25476190D01*
X47392857Y-25190476D02*
X47369047Y-25166666D01*
X47321428Y-25142857D01*
X47250000Y-25142857D01*
X47202380Y-25166666D01*
X47178571Y-25214285D01*
X47178571Y-25476190D01*
X47011904Y-25142857D02*
X46821428Y-25142857D01*
X46940476Y-24976190D02*
X46940476Y-25404761D01*
X46916666Y-25452380D01*
X46869047Y-25476190D01*
X46821428Y-25476190D01*
X46392857Y-25476190D02*
X46678571Y-25476190D01*
X46535714Y-25476190D02*
X46535714Y-24976190D01*
X46583333Y-25047619D01*
X46630952Y-25095238D01*
X46678571Y-25119047D01*
D11*
X21391428Y-44012380D02*
X21962857Y-44012380D01*
X21677142Y-44012380D02*
X21677142Y-43012380D01*
X21772380Y-43155238D01*
X21867619Y-43250476D01*
X21962857Y-43298095D01*
X20772380Y-43012380D02*
X20677142Y-43012380D01*
X20581904Y-43060000D01*
X20534285Y-43107619D01*
X20486666Y-43202857D01*
X20439047Y-43393333D01*
X20439047Y-43631428D01*
X20486666Y-43821904D01*
X20534285Y-43917142D01*
X20581904Y-43964761D01*
X20677142Y-44012380D01*
X20772380Y-44012380D01*
X20867619Y-43964761D01*
X20915238Y-43917142D01*
X20962857Y-43821904D01*
X21010476Y-43631428D01*
X21010476Y-43393333D01*
X20962857Y-43202857D01*
X20915238Y-43107619D01*
X20867619Y-43060000D01*
X20772380Y-43012380D01*
X19820000Y-43012380D02*
X19724761Y-43012380D01*
X19629523Y-43060000D01*
X19581904Y-43107619D01*
X19534285Y-43202857D01*
X19486666Y-43393333D01*
X19486666Y-43631428D01*
X19534285Y-43821904D01*
X19581904Y-43917142D01*
X19629523Y-43964761D01*
X19724761Y-44012380D01*
X19820000Y-44012380D01*
X19915238Y-43964761D01*
X19962857Y-43917142D01*
X20010476Y-43821904D01*
X20058095Y-43631428D01*
X20058095Y-43393333D01*
X20010476Y-43202857D01*
X19962857Y-43107619D01*
X19915238Y-43060000D01*
X19820000Y-43012380D01*
X19058095Y-44012380D02*
X19058095Y-43012380D01*
X18962857Y-43631428D02*
X18677142Y-44012380D01*
X18677142Y-43345714D02*
X19058095Y-43726666D01*
D12*
X20641428Y-42136190D02*
X20808095Y-41898095D01*
X20927142Y-42136190D02*
X20927142Y-41636190D01*
X20736666Y-41636190D01*
X20689047Y-41660000D01*
X20665238Y-41683809D01*
X20641428Y-41731428D01*
X20641428Y-41802857D01*
X20665238Y-41850476D01*
X20689047Y-41874285D01*
X20736666Y-41898095D01*
X20927142Y-41898095D01*
X20450952Y-41683809D02*
X20427142Y-41660000D01*
X20379523Y-41636190D01*
X20260476Y-41636190D01*
X20212857Y-41660000D01*
X20189047Y-41683809D01*
X20165238Y-41731428D01*
X20165238Y-41779047D01*
X20189047Y-41850476D01*
X20474761Y-42136190D01*
X20165238Y-42136190D01*
X19879523Y-41850476D02*
X19927142Y-41826666D01*
X19950952Y-41802857D01*
X19974761Y-41755238D01*
X19974761Y-41731428D01*
X19950952Y-41683809D01*
X19927142Y-41660000D01*
X19879523Y-41636190D01*
X19784285Y-41636190D01*
X19736666Y-41660000D01*
X19712857Y-41683809D01*
X19689047Y-41731428D01*
X19689047Y-41755238D01*
X19712857Y-41802857D01*
X19736666Y-41826666D01*
X19784285Y-41850476D01*
X19879523Y-41850476D01*
X19927142Y-41874285D01*
X19950952Y-41898095D01*
X19974761Y-41945714D01*
X19974761Y-42040952D01*
X19950952Y-42088571D01*
X19927142Y-42112380D01*
X19879523Y-42136190D01*
X19784285Y-42136190D01*
X19736666Y-42112380D01*
X19712857Y-42088571D01*
X19689047Y-42040952D01*
X19689047Y-41945714D01*
X19712857Y-41898095D01*
X19736666Y-41874285D01*
X19784285Y-41850476D01*
D11*
X18106380Y-37536571D02*
X18106380Y-36965142D01*
X18106380Y-37250857D02*
X17106380Y-37250857D01*
X17249238Y-37155619D01*
X17344476Y-37060380D01*
X17392095Y-36965142D01*
X17106380Y-38155619D02*
X17106380Y-38250857D01*
X17154000Y-38346095D01*
X17201619Y-38393714D01*
X17296857Y-38441333D01*
X17487333Y-38488952D01*
X17725428Y-38488952D01*
X17915904Y-38441333D01*
X18011142Y-38393714D01*
X18058761Y-38346095D01*
X18106380Y-38250857D01*
X18106380Y-38155619D01*
X18058761Y-38060380D01*
X18011142Y-38012761D01*
X17915904Y-37965142D01*
X17725428Y-37917523D01*
X17487333Y-37917523D01*
X17296857Y-37965142D01*
X17201619Y-38012761D01*
X17154000Y-38060380D01*
X17106380Y-38155619D01*
X17106380Y-39108000D02*
X17106380Y-39203238D01*
X17154000Y-39298476D01*
X17201619Y-39346095D01*
X17296857Y-39393714D01*
X17487333Y-39441333D01*
X17725428Y-39441333D01*
X17915904Y-39393714D01*
X18011142Y-39346095D01*
X18058761Y-39298476D01*
X18106380Y-39203238D01*
X18106380Y-39108000D01*
X18058761Y-39012761D01*
X18011142Y-38965142D01*
X17915904Y-38917523D01*
X17725428Y-38869904D01*
X17487333Y-38869904D01*
X17296857Y-38917523D01*
X17201619Y-38965142D01*
X17154000Y-39012761D01*
X17106380Y-39108000D01*
X18106380Y-39869904D02*
X17106380Y-39869904D01*
X17725428Y-39965142D02*
X18106380Y-40250857D01*
X17439714Y-40250857D02*
X17820666Y-39869904D01*
D12*
X19530190Y-38286571D02*
X19292095Y-38119904D01*
X19530190Y-38000857D02*
X19030190Y-38000857D01*
X19030190Y-38191333D01*
X19054000Y-38238952D01*
X19077809Y-38262761D01*
X19125428Y-38286571D01*
X19196857Y-38286571D01*
X19244476Y-38262761D01*
X19268285Y-38238952D01*
X19292095Y-38191333D01*
X19292095Y-38000857D01*
X19077809Y-38477047D02*
X19054000Y-38500857D01*
X19030190Y-38548476D01*
X19030190Y-38667523D01*
X19054000Y-38715142D01*
X19077809Y-38738952D01*
X19125428Y-38762761D01*
X19173047Y-38762761D01*
X19244476Y-38738952D01*
X19530190Y-38453238D01*
X19530190Y-38762761D01*
X19030190Y-38929428D02*
X19030190Y-39262761D01*
X19530190Y-39048476D01*
D11*
X60270380Y-32631142D02*
X59794190Y-32297809D01*
X60270380Y-32059714D02*
X59270380Y-32059714D01*
X59270380Y-32440666D01*
X59318000Y-32535904D01*
X59365619Y-32583523D01*
X59460857Y-32631142D01*
X59603714Y-32631142D01*
X59698952Y-32583523D01*
X59746571Y-32535904D01*
X59794190Y-32440666D01*
X59794190Y-32059714D01*
X60270380Y-33583523D02*
X60270380Y-33012095D01*
X60270380Y-33297809D02*
X59270380Y-33297809D01*
X59413238Y-33202571D01*
X59508476Y-33107333D01*
X59556095Y-33012095D01*
X59603714Y-34440666D02*
X60270380Y-34440666D01*
X59222761Y-34202571D02*
X59937047Y-33964476D01*
X59937047Y-34583523D01*
D12*
X61694190Y-32500190D02*
X61694190Y-32214476D01*
X61694190Y-32357333D02*
X61194190Y-32357333D01*
X61265619Y-32309714D01*
X61313238Y-32262095D01*
X61337047Y-32214476D01*
X61194190Y-32809714D02*
X61194190Y-32857333D01*
X61218000Y-32904952D01*
X61241809Y-32928761D01*
X61289428Y-32952571D01*
X61384666Y-32976380D01*
X61503714Y-32976380D01*
X61598952Y-32952571D01*
X61646571Y-32928761D01*
X61670380Y-32904952D01*
X61694190Y-32857333D01*
X61694190Y-32809714D01*
X61670380Y-32762095D01*
X61646571Y-32738285D01*
X61598952Y-32714476D01*
X61503714Y-32690666D01*
X61384666Y-32690666D01*
X61289428Y-32714476D01*
X61241809Y-32738285D01*
X61218000Y-32762095D01*
X61194190Y-32809714D01*
X61194190Y-33285904D02*
X61194190Y-33333523D01*
X61218000Y-33381142D01*
X61241809Y-33404952D01*
X61289428Y-33428761D01*
X61384666Y-33452571D01*
X61503714Y-33452571D01*
X61598952Y-33428761D01*
X61646571Y-33404952D01*
X61670380Y-33381142D01*
X61694190Y-33333523D01*
X61694190Y-33285904D01*
X61670380Y-33238285D01*
X61646571Y-33214476D01*
X61598952Y-33190666D01*
X61503714Y-33166857D01*
X61384666Y-33166857D01*
X61289428Y-33190666D01*
X61241809Y-33214476D01*
X61218000Y-33238285D01*
X61194190Y-33285904D01*
X61694190Y-33666857D02*
X61194190Y-33666857D01*
X61503714Y-33714476D02*
X61694190Y-33857333D01*
X61360857Y-33857333D02*
X61551333Y-33666857D01*
X61408476Y-34143047D02*
X61384666Y-34095428D01*
X61360857Y-34071619D01*
X61313238Y-34047809D01*
X61289428Y-34047809D01*
X61241809Y-34071619D01*
X61218000Y-34095428D01*
X61194190Y-34143047D01*
X61194190Y-34238285D01*
X61218000Y-34285904D01*
X61241809Y-34309714D01*
X61289428Y-34333523D01*
X61313238Y-34333523D01*
X61360857Y-34309714D01*
X61384666Y-34285904D01*
X61408476Y-34238285D01*
X61408476Y-34143047D01*
X61432285Y-34095428D01*
X61456095Y-34071619D01*
X61503714Y-34047809D01*
X61598952Y-34047809D01*
X61646571Y-34071619D01*
X61670380Y-34095428D01*
X61694190Y-34143047D01*
X61694190Y-34238285D01*
X61670380Y-34285904D01*
X61646571Y-34309714D01*
X61598952Y-34333523D01*
X61503714Y-34333523D01*
X61456095Y-34309714D01*
X61432285Y-34285904D01*
X61408476Y-34238285D01*
D11*
X34599428Y-31060380D02*
X35170857Y-31060380D01*
X34885142Y-31060380D02*
X34885142Y-30060380D01*
X34980380Y-30203238D01*
X35075619Y-30298476D01*
X35170857Y-30346095D01*
X33980380Y-30060380D02*
X33885142Y-30060380D01*
X33789904Y-30108000D01*
X33742285Y-30155619D01*
X33694666Y-30250857D01*
X33647047Y-30441333D01*
X33647047Y-30679428D01*
X33694666Y-30869904D01*
X33742285Y-30965142D01*
X33789904Y-31012761D01*
X33885142Y-31060380D01*
X33980380Y-31060380D01*
X34075619Y-31012761D01*
X34123238Y-30965142D01*
X34170857Y-30869904D01*
X34218476Y-30679428D01*
X34218476Y-30441333D01*
X34170857Y-30250857D01*
X34123238Y-30155619D01*
X34075619Y-30108000D01*
X33980380Y-30060380D01*
X33028000Y-30060380D02*
X32932761Y-30060380D01*
X32837523Y-30108000D01*
X32789904Y-30155619D01*
X32742285Y-30250857D01*
X32694666Y-30441333D01*
X32694666Y-30679428D01*
X32742285Y-30869904D01*
X32789904Y-30965142D01*
X32837523Y-31012761D01*
X32932761Y-31060380D01*
X33028000Y-31060380D01*
X33123238Y-31012761D01*
X33170857Y-30965142D01*
X33218476Y-30869904D01*
X33266095Y-30679428D01*
X33266095Y-30441333D01*
X33218476Y-30250857D01*
X33170857Y-30155619D01*
X33123238Y-30108000D01*
X33028000Y-30060380D01*
X32266095Y-31060380D02*
X32266095Y-30060380D01*
X32170857Y-30679428D02*
X31885142Y-31060380D01*
X31885142Y-30393714D02*
X32266095Y-30774666D01*
D12*
X33849428Y-32484190D02*
X34016095Y-32246095D01*
X34135142Y-32484190D02*
X34135142Y-31984190D01*
X33944666Y-31984190D01*
X33897047Y-32008000D01*
X33873238Y-32031809D01*
X33849428Y-32079428D01*
X33849428Y-32150857D01*
X33873238Y-32198476D01*
X33897047Y-32222285D01*
X33944666Y-32246095D01*
X34135142Y-32246095D01*
X33658952Y-32031809D02*
X33635142Y-32008000D01*
X33587523Y-31984190D01*
X33468476Y-31984190D01*
X33420857Y-32008000D01*
X33397047Y-32031809D01*
X33373238Y-32079428D01*
X33373238Y-32127047D01*
X33397047Y-32198476D01*
X33682761Y-32484190D01*
X33373238Y-32484190D01*
X32920857Y-31984190D02*
X33158952Y-31984190D01*
X33182761Y-32222285D01*
X33158952Y-32198476D01*
X33111333Y-32174666D01*
X32992285Y-32174666D01*
X32944666Y-32198476D01*
X32920857Y-32222285D01*
X32897047Y-32269904D01*
X32897047Y-32388952D01*
X32920857Y-32436571D01*
X32944666Y-32460380D01*
X32992285Y-32484190D01*
X33111333Y-32484190D01*
X33158952Y-32460380D01*
X33182761Y-32436571D01*
D11*
X39186380Y-32456571D02*
X39186380Y-31885142D01*
X39186380Y-32170857D02*
X38186380Y-32170857D01*
X38329238Y-32075619D01*
X38424476Y-31980380D01*
X38472095Y-31885142D01*
X38186380Y-33075619D02*
X38186380Y-33170857D01*
X38234000Y-33266095D01*
X38281619Y-33313714D01*
X38376857Y-33361333D01*
X38567333Y-33408952D01*
X38805428Y-33408952D01*
X38995904Y-33361333D01*
X39091142Y-33313714D01*
X39138761Y-33266095D01*
X39186380Y-33170857D01*
X39186380Y-33075619D01*
X39138761Y-32980380D01*
X39091142Y-32932761D01*
X38995904Y-32885142D01*
X38805428Y-32837523D01*
X38567333Y-32837523D01*
X38376857Y-32885142D01*
X38281619Y-32932761D01*
X38234000Y-32980380D01*
X38186380Y-33075619D01*
X38186380Y-34028000D02*
X38186380Y-34123238D01*
X38234000Y-34218476D01*
X38281619Y-34266095D01*
X38376857Y-34313714D01*
X38567333Y-34361333D01*
X38805428Y-34361333D01*
X38995904Y-34313714D01*
X39091142Y-34266095D01*
X39138761Y-34218476D01*
X39186380Y-34123238D01*
X39186380Y-34028000D01*
X39138761Y-33932761D01*
X39091142Y-33885142D01*
X38995904Y-33837523D01*
X38805428Y-33789904D01*
X38567333Y-33789904D01*
X38376857Y-33837523D01*
X38281619Y-33885142D01*
X38234000Y-33932761D01*
X38186380Y-34028000D01*
X39186380Y-34789904D02*
X38186380Y-34789904D01*
X38805428Y-34885142D02*
X39186380Y-35170857D01*
X38519714Y-35170857D02*
X38900666Y-34789904D01*
D12*
X37310190Y-33206571D02*
X37072095Y-33039904D01*
X37310190Y-32920857D02*
X36810190Y-32920857D01*
X36810190Y-33111333D01*
X36834000Y-33158952D01*
X36857809Y-33182761D01*
X36905428Y-33206571D01*
X36976857Y-33206571D01*
X37024476Y-33182761D01*
X37048285Y-33158952D01*
X37072095Y-33111333D01*
X37072095Y-32920857D01*
X36857809Y-33397047D02*
X36834000Y-33420857D01*
X36810190Y-33468476D01*
X36810190Y-33587523D01*
X36834000Y-33635142D01*
X36857809Y-33658952D01*
X36905428Y-33682761D01*
X36953047Y-33682761D01*
X37024476Y-33658952D01*
X37310190Y-33373238D01*
X37310190Y-33682761D01*
X36976857Y-34111333D02*
X37310190Y-34111333D01*
X36786380Y-33992285D02*
X37143523Y-33873238D01*
X37143523Y-34182761D01*
D11*
X36900380Y-39822571D02*
X36900380Y-39251142D01*
X36900380Y-39536857D02*
X35900380Y-39536857D01*
X36043238Y-39441619D01*
X36138476Y-39346380D01*
X36186095Y-39251142D01*
X35900380Y-40441619D02*
X35900380Y-40536857D01*
X35948000Y-40632095D01*
X35995619Y-40679714D01*
X36090857Y-40727333D01*
X36281333Y-40774952D01*
X36519428Y-40774952D01*
X36709904Y-40727333D01*
X36805142Y-40679714D01*
X36852761Y-40632095D01*
X36900380Y-40536857D01*
X36900380Y-40441619D01*
X36852761Y-40346380D01*
X36805142Y-40298761D01*
X36709904Y-40251142D01*
X36519428Y-40203523D01*
X36281333Y-40203523D01*
X36090857Y-40251142D01*
X35995619Y-40298761D01*
X35948000Y-40346380D01*
X35900380Y-40441619D01*
X35900380Y-41394000D02*
X35900380Y-41489238D01*
X35948000Y-41584476D01*
X35995619Y-41632095D01*
X36090857Y-41679714D01*
X36281333Y-41727333D01*
X36519428Y-41727333D01*
X36709904Y-41679714D01*
X36805142Y-41632095D01*
X36852761Y-41584476D01*
X36900380Y-41489238D01*
X36900380Y-41394000D01*
X36852761Y-41298761D01*
X36805142Y-41251142D01*
X36709904Y-41203523D01*
X36519428Y-41155904D01*
X36281333Y-41155904D01*
X36090857Y-41203523D01*
X35995619Y-41251142D01*
X35948000Y-41298761D01*
X35900380Y-41394000D01*
X36900380Y-42155904D02*
X35900380Y-42155904D01*
X36519428Y-42251142D02*
X36900380Y-42536857D01*
X36233714Y-42536857D02*
X36614666Y-42155904D01*
D12*
X35024190Y-40572571D02*
X34786095Y-40405904D01*
X35024190Y-40286857D02*
X34524190Y-40286857D01*
X34524190Y-40477333D01*
X34548000Y-40524952D01*
X34571809Y-40548761D01*
X34619428Y-40572571D01*
X34690857Y-40572571D01*
X34738476Y-40548761D01*
X34762285Y-40524952D01*
X34786095Y-40477333D01*
X34786095Y-40286857D01*
X34571809Y-40763047D02*
X34548000Y-40786857D01*
X34524190Y-40834476D01*
X34524190Y-40953523D01*
X34548000Y-41001142D01*
X34571809Y-41024952D01*
X34619428Y-41048761D01*
X34667047Y-41048761D01*
X34738476Y-41024952D01*
X35024190Y-40739238D01*
X35024190Y-41048761D01*
X34524190Y-41215428D02*
X34524190Y-41524952D01*
X34714666Y-41358285D01*
X34714666Y-41429714D01*
X34738476Y-41477333D01*
X34762285Y-41501142D01*
X34809904Y-41524952D01*
X34928952Y-41524952D01*
X34976571Y-41501142D01*
X35000380Y-41477333D01*
X35024190Y-41429714D01*
X35024190Y-41286857D01*
X35000380Y-41239238D01*
X34976571Y-41215428D01*
D11*
X21406380Y-31948571D02*
X21406380Y-31377142D01*
X21406380Y-31662857D02*
X20406380Y-31662857D01*
X20549238Y-31567619D01*
X20644476Y-31472380D01*
X20692095Y-31377142D01*
X20406380Y-32567619D02*
X20406380Y-32662857D01*
X20454000Y-32758095D01*
X20501619Y-32805714D01*
X20596857Y-32853333D01*
X20787333Y-32900952D01*
X21025428Y-32900952D01*
X21215904Y-32853333D01*
X21311142Y-32805714D01*
X21358761Y-32758095D01*
X21406380Y-32662857D01*
X21406380Y-32567619D01*
X21358761Y-32472380D01*
X21311142Y-32424761D01*
X21215904Y-32377142D01*
X21025428Y-32329523D01*
X20787333Y-32329523D01*
X20596857Y-32377142D01*
X20501619Y-32424761D01*
X20454000Y-32472380D01*
X20406380Y-32567619D01*
X20406380Y-33520000D02*
X20406380Y-33615238D01*
X20454000Y-33710476D01*
X20501619Y-33758095D01*
X20596857Y-33805714D01*
X20787333Y-33853333D01*
X21025428Y-33853333D01*
X21215904Y-33805714D01*
X21311142Y-33758095D01*
X21358761Y-33710476D01*
X21406380Y-33615238D01*
X21406380Y-33520000D01*
X21358761Y-33424761D01*
X21311142Y-33377142D01*
X21215904Y-33329523D01*
X21025428Y-33281904D01*
X20787333Y-33281904D01*
X20596857Y-33329523D01*
X20501619Y-33377142D01*
X20454000Y-33424761D01*
X20406380Y-33520000D01*
X21406380Y-34281904D02*
X20406380Y-34281904D01*
X21025428Y-34377142D02*
X21406380Y-34662857D01*
X20739714Y-34662857D02*
X21120666Y-34281904D01*
D12*
X19530190Y-32698571D02*
X19292095Y-32531904D01*
X19530190Y-32412857D02*
X19030190Y-32412857D01*
X19030190Y-32603333D01*
X19054000Y-32650952D01*
X19077809Y-32674761D01*
X19125428Y-32698571D01*
X19196857Y-32698571D01*
X19244476Y-32674761D01*
X19268285Y-32650952D01*
X19292095Y-32603333D01*
X19292095Y-32412857D01*
X19077809Y-32889047D02*
X19054000Y-32912857D01*
X19030190Y-32960476D01*
X19030190Y-33079523D01*
X19054000Y-33127142D01*
X19077809Y-33150952D01*
X19125428Y-33174761D01*
X19173047Y-33174761D01*
X19244476Y-33150952D01*
X19530190Y-32865238D01*
X19530190Y-33174761D01*
X19077809Y-33365238D02*
X19054000Y-33389047D01*
X19030190Y-33436666D01*
X19030190Y-33555714D01*
X19054000Y-33603333D01*
X19077809Y-33627142D01*
X19125428Y-33650952D01*
X19173047Y-33650952D01*
X19244476Y-33627142D01*
X19530190Y-33341428D01*
X19530190Y-33650952D01*
D11*
X31314380Y-39822571D02*
X31314380Y-39251142D01*
X31314380Y-39536857D02*
X30314380Y-39536857D01*
X30457238Y-39441619D01*
X30552476Y-39346380D01*
X30600095Y-39251142D01*
X30314380Y-40441619D02*
X30314380Y-40536857D01*
X30362000Y-40632095D01*
X30409619Y-40679714D01*
X30504857Y-40727333D01*
X30695333Y-40774952D01*
X30933428Y-40774952D01*
X31123904Y-40727333D01*
X31219142Y-40679714D01*
X31266761Y-40632095D01*
X31314380Y-40536857D01*
X31314380Y-40441619D01*
X31266761Y-40346380D01*
X31219142Y-40298761D01*
X31123904Y-40251142D01*
X30933428Y-40203523D01*
X30695333Y-40203523D01*
X30504857Y-40251142D01*
X30409619Y-40298761D01*
X30362000Y-40346380D01*
X30314380Y-40441619D01*
X30314380Y-41394000D02*
X30314380Y-41489238D01*
X30362000Y-41584476D01*
X30409619Y-41632095D01*
X30504857Y-41679714D01*
X30695333Y-41727333D01*
X30933428Y-41727333D01*
X31123904Y-41679714D01*
X31219142Y-41632095D01*
X31266761Y-41584476D01*
X31314380Y-41489238D01*
X31314380Y-41394000D01*
X31266761Y-41298761D01*
X31219142Y-41251142D01*
X31123904Y-41203523D01*
X30933428Y-41155904D01*
X30695333Y-41155904D01*
X30504857Y-41203523D01*
X30409619Y-41251142D01*
X30362000Y-41298761D01*
X30314380Y-41394000D01*
X31314380Y-42155904D02*
X30314380Y-42155904D01*
X30933428Y-42251142D02*
X31314380Y-42536857D01*
X30647714Y-42536857D02*
X31028666Y-42155904D01*
D12*
X32738190Y-40572571D02*
X32500095Y-40405904D01*
X32738190Y-40286857D02*
X32238190Y-40286857D01*
X32238190Y-40477333D01*
X32262000Y-40524952D01*
X32285809Y-40548761D01*
X32333428Y-40572571D01*
X32404857Y-40572571D01*
X32452476Y-40548761D01*
X32476285Y-40524952D01*
X32500095Y-40477333D01*
X32500095Y-40286857D01*
X32285809Y-40763047D02*
X32262000Y-40786857D01*
X32238190Y-40834476D01*
X32238190Y-40953523D01*
X32262000Y-41001142D01*
X32285809Y-41024952D01*
X32333428Y-41048761D01*
X32381047Y-41048761D01*
X32452476Y-41024952D01*
X32738190Y-40739238D01*
X32738190Y-41048761D01*
X32738190Y-41524952D02*
X32738190Y-41239238D01*
X32738190Y-41382095D02*
X32238190Y-41382095D01*
X32309619Y-41334476D01*
X32357238Y-41286857D01*
X32381047Y-41239238D01*
D11*
X27233428Y-45536380D02*
X27804857Y-45536380D01*
X27519142Y-45536380D02*
X27519142Y-44536380D01*
X27614380Y-44679238D01*
X27709619Y-44774476D01*
X27804857Y-44822095D01*
X26614380Y-44536380D02*
X26519142Y-44536380D01*
X26423904Y-44584000D01*
X26376285Y-44631619D01*
X26328666Y-44726857D01*
X26281047Y-44917333D01*
X26281047Y-45155428D01*
X26328666Y-45345904D01*
X26376285Y-45441142D01*
X26423904Y-45488761D01*
X26519142Y-45536380D01*
X26614380Y-45536380D01*
X26709619Y-45488761D01*
X26757238Y-45441142D01*
X26804857Y-45345904D01*
X26852476Y-45155428D01*
X26852476Y-44917333D01*
X26804857Y-44726857D01*
X26757238Y-44631619D01*
X26709619Y-44584000D01*
X26614380Y-44536380D01*
X25662000Y-44536380D02*
X25566761Y-44536380D01*
X25471523Y-44584000D01*
X25423904Y-44631619D01*
X25376285Y-44726857D01*
X25328666Y-44917333D01*
X25328666Y-45155428D01*
X25376285Y-45345904D01*
X25423904Y-45441142D01*
X25471523Y-45488761D01*
X25566761Y-45536380D01*
X25662000Y-45536380D01*
X25757238Y-45488761D01*
X25804857Y-45441142D01*
X25852476Y-45345904D01*
X25900095Y-45155428D01*
X25900095Y-44917333D01*
X25852476Y-44726857D01*
X25804857Y-44631619D01*
X25757238Y-44584000D01*
X25662000Y-44536380D01*
X24900095Y-45536380D02*
X24900095Y-44536380D01*
X24804857Y-45155428D02*
X24519142Y-45536380D01*
X24519142Y-44869714D02*
X24900095Y-45250666D01*
D12*
X26483428Y-43660190D02*
X26650095Y-43422095D01*
X26769142Y-43660190D02*
X26769142Y-43160190D01*
X26578666Y-43160190D01*
X26531047Y-43184000D01*
X26507238Y-43207809D01*
X26483428Y-43255428D01*
X26483428Y-43326857D01*
X26507238Y-43374476D01*
X26531047Y-43398285D01*
X26578666Y-43422095D01*
X26769142Y-43422095D01*
X26292952Y-43207809D02*
X26269142Y-43184000D01*
X26221523Y-43160190D01*
X26102476Y-43160190D01*
X26054857Y-43184000D01*
X26031047Y-43207809D01*
X26007238Y-43255428D01*
X26007238Y-43303047D01*
X26031047Y-43374476D01*
X26316761Y-43660190D01*
X26007238Y-43660190D01*
X25697714Y-43160190D02*
X25650095Y-43160190D01*
X25602476Y-43184000D01*
X25578666Y-43207809D01*
X25554857Y-43255428D01*
X25531047Y-43350666D01*
X25531047Y-43469714D01*
X25554857Y-43564952D01*
X25578666Y-43612571D01*
X25602476Y-43636380D01*
X25650095Y-43660190D01*
X25697714Y-43660190D01*
X25745333Y-43636380D01*
X25769142Y-43612571D01*
X25792952Y-43564952D01*
X25816761Y-43469714D01*
X25816761Y-43350666D01*
X25792952Y-43255428D01*
X25769142Y-43207809D01*
X25745333Y-43184000D01*
X25697714Y-43160190D01*
D11*
X59491428Y-36140380D02*
X60062857Y-36140380D01*
X59777142Y-36140380D02*
X59777142Y-35140380D01*
X59872380Y-35283238D01*
X59967619Y-35378476D01*
X60062857Y-35426095D01*
X58872380Y-35140380D02*
X58777142Y-35140380D01*
X58681904Y-35188000D01*
X58634285Y-35235619D01*
X58586666Y-35330857D01*
X58539047Y-35521333D01*
X58539047Y-35759428D01*
X58586666Y-35949904D01*
X58634285Y-36045142D01*
X58681904Y-36092761D01*
X58777142Y-36140380D01*
X58872380Y-36140380D01*
X58967619Y-36092761D01*
X59015238Y-36045142D01*
X59062857Y-35949904D01*
X59110476Y-35759428D01*
X59110476Y-35521333D01*
X59062857Y-35330857D01*
X59015238Y-35235619D01*
X58967619Y-35188000D01*
X58872380Y-35140380D01*
X57920000Y-35140380D02*
X57824761Y-35140380D01*
X57729523Y-35188000D01*
X57681904Y-35235619D01*
X57634285Y-35330857D01*
X57586666Y-35521333D01*
X57586666Y-35759428D01*
X57634285Y-35949904D01*
X57681904Y-36045142D01*
X57729523Y-36092761D01*
X57824761Y-36140380D01*
X57920000Y-36140380D01*
X58015238Y-36092761D01*
X58062857Y-36045142D01*
X58110476Y-35949904D01*
X58158095Y-35759428D01*
X58158095Y-35521333D01*
X58110476Y-35330857D01*
X58062857Y-35235619D01*
X58015238Y-35188000D01*
X57920000Y-35140380D01*
X57158095Y-36140380D02*
X57158095Y-35140380D01*
X57062857Y-35759428D02*
X56777142Y-36140380D01*
X56777142Y-35473714D02*
X57158095Y-35854666D01*
D12*
X58741428Y-37564190D02*
X58908095Y-37326095D01*
X59027142Y-37564190D02*
X59027142Y-37064190D01*
X58836666Y-37064190D01*
X58789047Y-37088000D01*
X58765238Y-37111809D01*
X58741428Y-37159428D01*
X58741428Y-37230857D01*
X58765238Y-37278476D01*
X58789047Y-37302285D01*
X58836666Y-37326095D01*
X59027142Y-37326095D01*
X58265238Y-37564190D02*
X58550952Y-37564190D01*
X58408095Y-37564190D02*
X58408095Y-37064190D01*
X58455714Y-37135619D01*
X58503333Y-37183238D01*
X58550952Y-37207047D01*
X58027142Y-37564190D02*
X57931904Y-37564190D01*
X57884285Y-37540380D01*
X57860476Y-37516571D01*
X57812857Y-37445142D01*
X57789047Y-37349904D01*
X57789047Y-37159428D01*
X57812857Y-37111809D01*
X57836666Y-37088000D01*
X57884285Y-37064190D01*
X57979523Y-37064190D01*
X58027142Y-37088000D01*
X58050952Y-37111809D01*
X58074761Y-37159428D01*
X58074761Y-37278476D01*
X58050952Y-37326095D01*
X58027142Y-37349904D01*
X57979523Y-37373714D01*
X57884285Y-37373714D01*
X57836666Y-37349904D01*
X57812857Y-37326095D01*
X57789047Y-37278476D01*
D11*
X46298380Y-37536571D02*
X46298380Y-36965142D01*
X46298380Y-37250857D02*
X45298380Y-37250857D01*
X45441238Y-37155619D01*
X45536476Y-37060380D01*
X45584095Y-36965142D01*
X45298380Y-38155619D02*
X45298380Y-38250857D01*
X45346000Y-38346095D01*
X45393619Y-38393714D01*
X45488857Y-38441333D01*
X45679333Y-38488952D01*
X45917428Y-38488952D01*
X46107904Y-38441333D01*
X46203142Y-38393714D01*
X46250761Y-38346095D01*
X46298380Y-38250857D01*
X46298380Y-38155619D01*
X46250761Y-38060380D01*
X46203142Y-38012761D01*
X46107904Y-37965142D01*
X45917428Y-37917523D01*
X45679333Y-37917523D01*
X45488857Y-37965142D01*
X45393619Y-38012761D01*
X45346000Y-38060380D01*
X45298380Y-38155619D01*
X45298380Y-39108000D02*
X45298380Y-39203238D01*
X45346000Y-39298476D01*
X45393619Y-39346095D01*
X45488857Y-39393714D01*
X45679333Y-39441333D01*
X45917428Y-39441333D01*
X46107904Y-39393714D01*
X46203142Y-39346095D01*
X46250761Y-39298476D01*
X46298380Y-39203238D01*
X46298380Y-39108000D01*
X46250761Y-39012761D01*
X46203142Y-38965142D01*
X46107904Y-38917523D01*
X45917428Y-38869904D01*
X45679333Y-38869904D01*
X45488857Y-38917523D01*
X45393619Y-38965142D01*
X45346000Y-39012761D01*
X45298380Y-39108000D01*
X46298380Y-39869904D02*
X45298380Y-39869904D01*
X45917428Y-39965142D02*
X46298380Y-40250857D01*
X45631714Y-40250857D02*
X46012666Y-39869904D01*
D12*
X44422190Y-38286571D02*
X44184095Y-38119904D01*
X44422190Y-38000857D02*
X43922190Y-38000857D01*
X43922190Y-38191333D01*
X43946000Y-38238952D01*
X43969809Y-38262761D01*
X44017428Y-38286571D01*
X44088857Y-38286571D01*
X44136476Y-38262761D01*
X44160285Y-38238952D01*
X44184095Y-38191333D01*
X44184095Y-38000857D01*
X44422190Y-38762761D02*
X44422190Y-38477047D01*
X44422190Y-38619904D02*
X43922190Y-38619904D01*
X43993619Y-38572285D01*
X44041238Y-38524666D01*
X44065047Y-38477047D01*
X43922190Y-38929428D02*
X43922190Y-39262761D01*
X44422190Y-39048476D01*
D11*
X19374380Y-34996571D02*
X19374380Y-34425142D01*
X19374380Y-34710857D02*
X18374380Y-34710857D01*
X18517238Y-34615619D01*
X18612476Y-34520380D01*
X18660095Y-34425142D01*
X18374380Y-35615619D02*
X18374380Y-35710857D01*
X18422000Y-35806095D01*
X18469619Y-35853714D01*
X18564857Y-35901333D01*
X18755333Y-35948952D01*
X18993428Y-35948952D01*
X19183904Y-35901333D01*
X19279142Y-35853714D01*
X19326761Y-35806095D01*
X19374380Y-35710857D01*
X19374380Y-35615619D01*
X19326761Y-35520380D01*
X19279142Y-35472761D01*
X19183904Y-35425142D01*
X18993428Y-35377523D01*
X18755333Y-35377523D01*
X18564857Y-35425142D01*
X18469619Y-35472761D01*
X18422000Y-35520380D01*
X18374380Y-35615619D01*
X18374380Y-36568000D02*
X18374380Y-36663238D01*
X18422000Y-36758476D01*
X18469619Y-36806095D01*
X18564857Y-36853714D01*
X18755333Y-36901333D01*
X18993428Y-36901333D01*
X19183904Y-36853714D01*
X19279142Y-36806095D01*
X19326761Y-36758476D01*
X19374380Y-36663238D01*
X19374380Y-36568000D01*
X19326761Y-36472761D01*
X19279142Y-36425142D01*
X19183904Y-36377523D01*
X18993428Y-36329904D01*
X18755333Y-36329904D01*
X18564857Y-36377523D01*
X18469619Y-36425142D01*
X18422000Y-36472761D01*
X18374380Y-36568000D01*
X19374380Y-37329904D02*
X18374380Y-37329904D01*
X18993428Y-37425142D02*
X19374380Y-37710857D01*
X18707714Y-37710857D02*
X19088666Y-37329904D01*
D12*
X17498190Y-35746571D02*
X17260095Y-35579904D01*
X17498190Y-35460857D02*
X16998190Y-35460857D01*
X16998190Y-35651333D01*
X17022000Y-35698952D01*
X17045809Y-35722761D01*
X17093428Y-35746571D01*
X17164857Y-35746571D01*
X17212476Y-35722761D01*
X17236285Y-35698952D01*
X17260095Y-35651333D01*
X17260095Y-35460857D01*
X17045809Y-35937047D02*
X17022000Y-35960857D01*
X16998190Y-36008476D01*
X16998190Y-36127523D01*
X17022000Y-36175142D01*
X17045809Y-36198952D01*
X17093428Y-36222761D01*
X17141047Y-36222761D01*
X17212476Y-36198952D01*
X17498190Y-35913238D01*
X17498190Y-36222761D01*
X16998190Y-36651333D02*
X16998190Y-36556095D01*
X17022000Y-36508476D01*
X17045809Y-36484666D01*
X17117238Y-36437047D01*
X17212476Y-36413238D01*
X17402952Y-36413238D01*
X17450571Y-36437047D01*
X17474380Y-36460857D01*
X17498190Y-36508476D01*
X17498190Y-36603714D01*
X17474380Y-36651333D01*
X17450571Y-36675142D01*
X17402952Y-36698952D01*
X17283904Y-36698952D01*
X17236285Y-36675142D01*
X17212476Y-36651333D01*
X17188666Y-36603714D01*
X17188666Y-36508476D01*
X17212476Y-36460857D01*
X17236285Y-36437047D01*
X17283904Y-36413238D01*
D11*
X59062857Y-34106380D02*
X59396190Y-33630190D01*
X59634285Y-34106380D02*
X59634285Y-33106380D01*
X59253333Y-33106380D01*
X59158095Y-33154000D01*
X59110476Y-33201619D01*
X59062857Y-33296857D01*
X59062857Y-33439714D01*
X59110476Y-33534952D01*
X59158095Y-33582571D01*
X59253333Y-33630190D01*
X59634285Y-33630190D01*
X58110476Y-34106380D02*
X58681904Y-34106380D01*
X58396190Y-34106380D02*
X58396190Y-33106380D01*
X58491428Y-33249238D01*
X58586666Y-33344476D01*
X58681904Y-33392095D01*
X57205714Y-33106380D02*
X57681904Y-33106380D01*
X57729523Y-33582571D01*
X57681904Y-33534952D01*
X57586666Y-33487333D01*
X57348571Y-33487333D01*
X57253333Y-33534952D01*
X57205714Y-33582571D01*
X57158095Y-33677809D01*
X57158095Y-33915904D01*
X57205714Y-34011142D01*
X57253333Y-34058761D01*
X57348571Y-34106380D01*
X57586666Y-34106380D01*
X57681904Y-34058761D01*
X57729523Y-34011142D01*
D12*
X59193809Y-32230190D02*
X59479523Y-32230190D01*
X59336666Y-32230190D02*
X59336666Y-31730190D01*
X59384285Y-31801619D01*
X59431904Y-31849238D01*
X59479523Y-31873047D01*
X58884285Y-31730190D02*
X58836666Y-31730190D01*
X58789047Y-31754000D01*
X58765238Y-31777809D01*
X58741428Y-31825428D01*
X58717619Y-31920666D01*
X58717619Y-32039714D01*
X58741428Y-32134952D01*
X58765238Y-32182571D01*
X58789047Y-32206380D01*
X58836666Y-32230190D01*
X58884285Y-32230190D01*
X58931904Y-32206380D01*
X58955714Y-32182571D01*
X58979523Y-32134952D01*
X59003333Y-32039714D01*
X59003333Y-31920666D01*
X58979523Y-31825428D01*
X58955714Y-31777809D01*
X58931904Y-31754000D01*
X58884285Y-31730190D01*
X58408095Y-31730190D02*
X58360476Y-31730190D01*
X58312857Y-31754000D01*
X58289047Y-31777809D01*
X58265238Y-31825428D01*
X58241428Y-31920666D01*
X58241428Y-32039714D01*
X58265238Y-32134952D01*
X58289047Y-32182571D01*
X58312857Y-32206380D01*
X58360476Y-32230190D01*
X58408095Y-32230190D01*
X58455714Y-32206380D01*
X58479523Y-32182571D01*
X58503333Y-32134952D01*
X58527142Y-32039714D01*
X58527142Y-31920666D01*
X58503333Y-31825428D01*
X58479523Y-31777809D01*
X58455714Y-31754000D01*
X58408095Y-31730190D01*
X58027142Y-32230190D02*
X58027142Y-31730190D01*
X57979523Y-32039714D02*
X57836666Y-32230190D01*
X57836666Y-31896857D02*
X58027142Y-32087333D01*
X57598571Y-32230190D02*
X57503333Y-32230190D01*
X57455714Y-32206380D01*
X57431904Y-32182571D01*
X57384285Y-32111142D01*
X57360476Y-32015904D01*
X57360476Y-31825428D01*
X57384285Y-31777809D01*
X57408095Y-31754000D01*
X57455714Y-31730190D01*
X57550952Y-31730190D01*
X57598571Y-31754000D01*
X57622380Y-31777809D01*
X57646190Y-31825428D01*
X57646190Y-31944476D01*
X57622380Y-31992095D01*
X57598571Y-32015904D01*
X57550952Y-32039714D01*
X57455714Y-32039714D01*
X57408095Y-32015904D01*
X57384285Y-31992095D01*
X57360476Y-31944476D01*
D11*
X34599428Y-36394380D02*
X35170857Y-36394380D01*
X34885142Y-36394380D02*
X34885142Y-35394380D01*
X34980380Y-35537238D01*
X35075619Y-35632476D01*
X35170857Y-35680095D01*
X33980380Y-35394380D02*
X33885142Y-35394380D01*
X33789904Y-35442000D01*
X33742285Y-35489619D01*
X33694666Y-35584857D01*
X33647047Y-35775333D01*
X33647047Y-36013428D01*
X33694666Y-36203904D01*
X33742285Y-36299142D01*
X33789904Y-36346761D01*
X33885142Y-36394380D01*
X33980380Y-36394380D01*
X34075619Y-36346761D01*
X34123238Y-36299142D01*
X34170857Y-36203904D01*
X34218476Y-36013428D01*
X34218476Y-35775333D01*
X34170857Y-35584857D01*
X34123238Y-35489619D01*
X34075619Y-35442000D01*
X33980380Y-35394380D01*
X33028000Y-35394380D02*
X32932761Y-35394380D01*
X32837523Y-35442000D01*
X32789904Y-35489619D01*
X32742285Y-35584857D01*
X32694666Y-35775333D01*
X32694666Y-36013428D01*
X32742285Y-36203904D01*
X32789904Y-36299142D01*
X32837523Y-36346761D01*
X32932761Y-36394380D01*
X33028000Y-36394380D01*
X33123238Y-36346761D01*
X33170857Y-36299142D01*
X33218476Y-36203904D01*
X33266095Y-36013428D01*
X33266095Y-35775333D01*
X33218476Y-35584857D01*
X33170857Y-35489619D01*
X33123238Y-35442000D01*
X33028000Y-35394380D01*
X32266095Y-36394380D02*
X32266095Y-35394380D01*
X32170857Y-36013428D02*
X31885142Y-36394380D01*
X31885142Y-35727714D02*
X32266095Y-36108666D01*
D12*
X33849428Y-37818190D02*
X34016095Y-37580095D01*
X34135142Y-37818190D02*
X34135142Y-37318190D01*
X33944666Y-37318190D01*
X33897047Y-37342000D01*
X33873238Y-37365809D01*
X33849428Y-37413428D01*
X33849428Y-37484857D01*
X33873238Y-37532476D01*
X33897047Y-37556285D01*
X33944666Y-37580095D01*
X34135142Y-37580095D01*
X33658952Y-37365809D02*
X33635142Y-37342000D01*
X33587523Y-37318190D01*
X33468476Y-37318190D01*
X33420857Y-37342000D01*
X33397047Y-37365809D01*
X33373238Y-37413428D01*
X33373238Y-37461047D01*
X33397047Y-37532476D01*
X33682761Y-37818190D01*
X33373238Y-37818190D01*
X33135142Y-37818190D02*
X33039904Y-37818190D01*
X32992285Y-37794380D01*
X32968476Y-37770571D01*
X32920857Y-37699142D01*
X32897047Y-37603904D01*
X32897047Y-37413428D01*
X32920857Y-37365809D01*
X32944666Y-37342000D01*
X32992285Y-37318190D01*
X33087523Y-37318190D01*
X33135142Y-37342000D01*
X33158952Y-37365809D01*
X33182761Y-37413428D01*
X33182761Y-37532476D01*
X33158952Y-37580095D01*
X33135142Y-37603904D01*
X33087523Y-37627714D01*
X32992285Y-37627714D01*
X32944666Y-37603904D01*
X32920857Y-37580095D01*
X32897047Y-37532476D01*
D11*
X29185142Y-20097809D02*
X29232761Y-20145428D01*
X29280380Y-20097809D01*
X29232761Y-20050190D01*
X29185142Y-20097809D01*
X29280380Y-20097809D01*
X28328000Y-19907333D02*
X28280380Y-20002571D01*
X28280380Y-20240666D01*
X28328000Y-20335904D01*
X28423238Y-20383523D01*
X28518476Y-20383523D01*
X28613714Y-20335904D01*
X28661333Y-20288285D01*
X28708952Y-20193047D01*
X28756571Y-20145428D01*
X28851809Y-20097809D01*
X28899428Y-20097809D01*
X29185142Y-20954952D02*
X29232761Y-21002571D01*
X29280380Y-20954952D01*
X29232761Y-20907333D01*
X29185142Y-20954952D01*
X29280380Y-20954952D01*
X28328000Y-20764476D02*
X28280380Y-20859714D01*
X28280380Y-21097809D01*
X28328000Y-21193047D01*
X28423238Y-21240666D01*
X28518476Y-21240666D01*
X28613714Y-21193047D01*
X28661333Y-21145428D01*
X28708952Y-21050190D01*
X28756571Y-21002571D01*
X28851809Y-20954952D01*
X28899428Y-20954952D01*
D12*
X25880190Y-22030571D02*
X25642095Y-21863904D01*
X25880190Y-21744857D02*
X25380190Y-21744857D01*
X25380190Y-21935333D01*
X25404000Y-21982952D01*
X25427809Y-22006761D01*
X25475428Y-22030571D01*
X25546857Y-22030571D01*
X25594476Y-22006761D01*
X25618285Y-21982952D01*
X25642095Y-21935333D01*
X25642095Y-21744857D01*
X25380190Y-22197238D02*
X25380190Y-22506761D01*
X25570666Y-22340095D01*
X25570666Y-22411523D01*
X25594476Y-22459142D01*
X25618285Y-22482952D01*
X25665904Y-22506761D01*
X25784952Y-22506761D01*
X25832571Y-22482952D01*
X25856380Y-22459142D01*
X25880190Y-22411523D01*
X25880190Y-22268666D01*
X25856380Y-22221047D01*
X25832571Y-22197238D01*
X25380190Y-22959142D02*
X25380190Y-22721047D01*
X25618285Y-22697238D01*
X25594476Y-22721047D01*
X25570666Y-22768666D01*
X25570666Y-22887714D01*
X25594476Y-22935333D01*
X25618285Y-22959142D01*
X25665904Y-22982952D01*
X25784952Y-22982952D01*
X25832571Y-22959142D01*
X25856380Y-22935333D01*
X25880190Y-22887714D01*
X25880190Y-22768666D01*
X25856380Y-22721047D01*
X25832571Y-22697238D01*
D11*
X52998476Y-31399380D02*
X53474666Y-31399380D01*
X53474666Y-30399380D01*
X52665142Y-31399380D02*
X52665142Y-30399380D01*
X52331809Y-31113666D01*
X51998476Y-30399380D01*
X51998476Y-31399380D01*
X51617523Y-30399380D02*
X50998476Y-30399380D01*
X51331809Y-30780333D01*
X51188952Y-30780333D01*
X51093714Y-30827952D01*
X51046095Y-30875571D01*
X50998476Y-30970809D01*
X50998476Y-31208904D01*
X51046095Y-31304142D01*
X51093714Y-31351761D01*
X51188952Y-31399380D01*
X51474666Y-31399380D01*
X51569904Y-31351761D01*
X51617523Y-31304142D01*
X50617523Y-30494619D02*
X50569904Y-30447000D01*
X50474666Y-30399380D01*
X50236571Y-30399380D01*
X50141333Y-30447000D01*
X50093714Y-30494619D01*
X50046095Y-30589857D01*
X50046095Y-30685095D01*
X50093714Y-30827952D01*
X50665142Y-31399380D01*
X50046095Y-31399380D01*
X49188952Y-30732714D02*
X49188952Y-31399380D01*
X49427047Y-30351761D02*
X49665142Y-31066047D01*
X49046095Y-31066047D01*
D14*
X51993714Y-35829142D02*
X51993714Y-36557714D01*
X51950857Y-36643428D01*
X51908000Y-36686285D01*
X51822285Y-36729142D01*
X51650857Y-36729142D01*
X51565142Y-36686285D01*
X51522285Y-36643428D01*
X51479428Y-36557714D01*
X51479428Y-35829142D01*
X51136571Y-35829142D02*
X50579428Y-35829142D01*
X50879428Y-36172000D01*
X50750857Y-36172000D01*
X50665142Y-36214857D01*
X50622285Y-36257714D01*
X50579428Y-36343428D01*
X50579428Y-36557714D01*
X50622285Y-36643428D01*
X50665142Y-36686285D01*
X50750857Y-36729142D01*
X51008000Y-36729142D01*
X51093714Y-36686285D01*
X51136571Y-36643428D01*
D11*
X31972190Y-19757142D02*
X31924571Y-19804761D01*
X31972190Y-19852380D01*
X32019809Y-19804761D01*
X31972190Y-19757142D01*
X31972190Y-19852380D01*
X32162666Y-18900000D02*
X32067428Y-18852380D01*
X31829333Y-18852380D01*
X31734095Y-18900000D01*
X31686476Y-18995238D01*
X31686476Y-19090476D01*
X31734095Y-19185714D01*
X31781714Y-19233333D01*
X31876952Y-19280952D01*
X31924571Y-19328571D01*
X31972190Y-19423809D01*
X31972190Y-19471428D01*
X31115047Y-19757142D02*
X31067428Y-19804761D01*
X31115047Y-19852380D01*
X31162666Y-19804761D01*
X31115047Y-19757142D01*
X31115047Y-19852380D01*
X31305523Y-18900000D02*
X31210285Y-18852380D01*
X30972190Y-18852380D01*
X30876952Y-18900000D01*
X30829333Y-18995238D01*
X30829333Y-19090476D01*
X30876952Y-19185714D01*
X30924571Y-19233333D01*
X31019809Y-19280952D01*
X31067428Y-19328571D01*
X31115047Y-19423809D01*
X31115047Y-19471428D01*
D12*
X31817428Y-17976190D02*
X31984095Y-17738095D01*
X32103142Y-17976190D02*
X32103142Y-17476190D01*
X31912666Y-17476190D01*
X31865047Y-17500000D01*
X31841238Y-17523809D01*
X31817428Y-17571428D01*
X31817428Y-17642857D01*
X31841238Y-17690476D01*
X31865047Y-17714285D01*
X31912666Y-17738095D01*
X32103142Y-17738095D01*
X31650761Y-17476190D02*
X31341238Y-17476190D01*
X31507904Y-17666666D01*
X31436476Y-17666666D01*
X31388857Y-17690476D01*
X31365047Y-17714285D01*
X31341238Y-17761904D01*
X31341238Y-17880952D01*
X31365047Y-17928571D01*
X31388857Y-17952380D01*
X31436476Y-17976190D01*
X31579333Y-17976190D01*
X31626952Y-17952380D01*
X31650761Y-17928571D01*
X30865047Y-17976190D02*
X31150761Y-17976190D01*
X31007904Y-17976190D02*
X31007904Y-17476190D01*
X31055523Y-17547619D01*
X31103142Y-17595238D01*
X31150761Y-17619047D01*
D11*
X60420190Y-23091142D02*
X60372571Y-23138761D01*
X60420190Y-23186380D01*
X60467809Y-23138761D01*
X60420190Y-23091142D01*
X60420190Y-23186380D01*
X60610666Y-22234000D02*
X60515428Y-22186380D01*
X60277333Y-22186380D01*
X60182095Y-22234000D01*
X60134476Y-22329238D01*
X60134476Y-22424476D01*
X60182095Y-22519714D01*
X60229714Y-22567333D01*
X60324952Y-22614952D01*
X60372571Y-22662571D01*
X60420190Y-22757809D01*
X60420190Y-22805428D01*
X59563047Y-23091142D02*
X59515428Y-23138761D01*
X59563047Y-23186380D01*
X59610666Y-23138761D01*
X59563047Y-23091142D01*
X59563047Y-23186380D01*
X59753523Y-22234000D02*
X59658285Y-22186380D01*
X59420190Y-22186380D01*
X59324952Y-22234000D01*
X59277333Y-22329238D01*
X59277333Y-22424476D01*
X59324952Y-22519714D01*
X59372571Y-22567333D01*
X59467809Y-22614952D01*
X59515428Y-22662571D01*
X59563047Y-22757809D01*
X59563047Y-22805428D01*
D12*
X60265428Y-24610190D02*
X60432095Y-24372095D01*
X60551142Y-24610190D02*
X60551142Y-24110190D01*
X60360666Y-24110190D01*
X60313047Y-24134000D01*
X60289238Y-24157809D01*
X60265428Y-24205428D01*
X60265428Y-24276857D01*
X60289238Y-24324476D01*
X60313047Y-24348285D01*
X60360666Y-24372095D01*
X60551142Y-24372095D01*
X60098761Y-24110190D02*
X59789238Y-24110190D01*
X59955904Y-24300666D01*
X59884476Y-24300666D01*
X59836857Y-24324476D01*
X59813047Y-24348285D01*
X59789238Y-24395904D01*
X59789238Y-24514952D01*
X59813047Y-24562571D01*
X59836857Y-24586380D01*
X59884476Y-24610190D01*
X60027333Y-24610190D01*
X60074952Y-24586380D01*
X60098761Y-24562571D01*
X59622571Y-24110190D02*
X59313047Y-24110190D01*
X59479714Y-24300666D01*
X59408285Y-24300666D01*
X59360666Y-24324476D01*
X59336857Y-24348285D01*
X59313047Y-24395904D01*
X59313047Y-24514952D01*
X59336857Y-24562571D01*
X59360666Y-24586380D01*
X59408285Y-24610190D01*
X59551142Y-24610190D01*
X59598761Y-24586380D01*
X59622571Y-24562571D01*
D11*
X56610190Y-25121142D02*
X56562571Y-25168761D01*
X56610190Y-25216380D01*
X56657809Y-25168761D01*
X56610190Y-25121142D01*
X56610190Y-25216380D01*
X56800666Y-24264000D02*
X56705428Y-24216380D01*
X56467333Y-24216380D01*
X56372095Y-24264000D01*
X56324476Y-24359238D01*
X56324476Y-24454476D01*
X56372095Y-24549714D01*
X56419714Y-24597333D01*
X56514952Y-24644952D01*
X56562571Y-24692571D01*
X56610190Y-24787809D01*
X56610190Y-24835428D01*
X55753047Y-25121142D02*
X55705428Y-25168761D01*
X55753047Y-25216380D01*
X55800666Y-25168761D01*
X55753047Y-25121142D01*
X55753047Y-25216380D01*
X55943523Y-24264000D02*
X55848285Y-24216380D01*
X55610190Y-24216380D01*
X55514952Y-24264000D01*
X55467333Y-24359238D01*
X55467333Y-24454476D01*
X55514952Y-24549714D01*
X55562571Y-24597333D01*
X55657809Y-24644952D01*
X55705428Y-24692571D01*
X55753047Y-24787809D01*
X55753047Y-24835428D01*
D12*
X56455428Y-23340190D02*
X56622095Y-23102095D01*
X56741142Y-23340190D02*
X56741142Y-22840190D01*
X56550666Y-22840190D01*
X56503047Y-22864000D01*
X56479238Y-22887809D01*
X56455428Y-22935428D01*
X56455428Y-23006857D01*
X56479238Y-23054476D01*
X56503047Y-23078285D01*
X56550666Y-23102095D01*
X56741142Y-23102095D01*
X56288761Y-22840190D02*
X55979238Y-22840190D01*
X56145904Y-23030666D01*
X56074476Y-23030666D01*
X56026857Y-23054476D01*
X56003047Y-23078285D01*
X55979238Y-23125904D01*
X55979238Y-23244952D01*
X56003047Y-23292571D01*
X56026857Y-23316380D01*
X56074476Y-23340190D01*
X56217333Y-23340190D01*
X56264952Y-23316380D01*
X56288761Y-23292571D01*
X55550666Y-23006857D02*
X55550666Y-23340190D01*
X55669714Y-22816380D02*
X55788761Y-23173523D01*
X55479238Y-23173523D01*
D11*
X27106619Y-36361476D02*
X27106619Y-36837666D01*
X28106619Y-36837666D01*
X27106619Y-36028142D02*
X28106619Y-36028142D01*
X27392333Y-35694809D01*
X28106619Y-35361476D01*
X27106619Y-35361476D01*
X28106619Y-34980523D02*
X28106619Y-34361476D01*
X27725666Y-34694809D01*
X27725666Y-34551952D01*
X27678047Y-34456714D01*
X27630428Y-34409095D01*
X27535190Y-34361476D01*
X27297095Y-34361476D01*
X27201857Y-34409095D01*
X27154238Y-34456714D01*
X27106619Y-34551952D01*
X27106619Y-34837666D01*
X27154238Y-34932904D01*
X27201857Y-34980523D01*
X28011380Y-33980523D02*
X28059000Y-33932904D01*
X28106619Y-33837666D01*
X28106619Y-33599571D01*
X28059000Y-33504333D01*
X28011380Y-33456714D01*
X27916142Y-33409095D01*
X27820904Y-33409095D01*
X27678047Y-33456714D01*
X27106619Y-34028142D01*
X27106619Y-33409095D01*
X27773285Y-32551952D02*
X27106619Y-32551952D01*
X28154238Y-32790047D02*
X27439952Y-33028142D01*
X27439952Y-32409095D01*
D14*
X26781857Y-34086714D02*
X26053285Y-34086714D01*
X25967571Y-34043857D01*
X25924714Y-34001000D01*
X25881857Y-33915285D01*
X25881857Y-33743857D01*
X25924714Y-33658142D01*
X25967571Y-33615285D01*
X26053285Y-33572428D01*
X26781857Y-33572428D01*
X26481857Y-32758142D02*
X25881857Y-32758142D01*
X26824714Y-32972428D02*
X26181857Y-33186714D01*
X26181857Y-32629571D01*
D11*
X71286476Y-28097380D02*
X71762666Y-28097380D01*
X71762666Y-27097380D01*
X70953142Y-28097380D02*
X70953142Y-27097380D01*
X70619809Y-27811666D01*
X70286476Y-27097380D01*
X70286476Y-28097380D01*
X69905523Y-27097380D02*
X69286476Y-27097380D01*
X69619809Y-27478333D01*
X69476952Y-27478333D01*
X69381714Y-27525952D01*
X69334095Y-27573571D01*
X69286476Y-27668809D01*
X69286476Y-27906904D01*
X69334095Y-28002142D01*
X69381714Y-28049761D01*
X69476952Y-28097380D01*
X69762666Y-28097380D01*
X69857904Y-28049761D01*
X69905523Y-28002142D01*
X68905523Y-27192619D02*
X68857904Y-27145000D01*
X68762666Y-27097380D01*
X68524571Y-27097380D01*
X68429333Y-27145000D01*
X68381714Y-27192619D01*
X68334095Y-27287857D01*
X68334095Y-27383095D01*
X68381714Y-27525952D01*
X68953142Y-28097380D01*
X68334095Y-28097380D01*
X67476952Y-27430714D02*
X67476952Y-28097380D01*
X67715047Y-27049761D02*
X67953142Y-27764047D01*
X67334095Y-27764047D01*
D14*
X70281714Y-32527142D02*
X70281714Y-33255714D01*
X70238857Y-33341428D01*
X70196000Y-33384285D01*
X70110285Y-33427142D01*
X69938857Y-33427142D01*
X69853142Y-33384285D01*
X69810285Y-33341428D01*
X69767428Y-33255714D01*
X69767428Y-32527142D01*
X69381714Y-32612857D02*
X69338857Y-32570000D01*
X69253142Y-32527142D01*
X69038857Y-32527142D01*
X68953142Y-32570000D01*
X68910285Y-32612857D01*
X68867428Y-32698571D01*
X68867428Y-32784285D01*
X68910285Y-32912857D01*
X69424571Y-33427142D01*
X68867428Y-33427142D01*
M02*
