G04 #@! TF.GenerationSoftware,KiCad,Pcbnew,(5.0.0-rc2-dev-586-g888c43477)*
G04 #@! TF.CreationDate,2018-06-03T13:56:12-03:00*
G04 #@! TF.ProjectId,Signal,5369676E616C2E6B696361645F706362,rev?*
G04 #@! TF.SameCoordinates,Original*
G04 #@! TF.FileFunction,Copper,L1,Top,Signal*
G04 #@! TF.FilePolarity,Positive*
%FSLAX46Y46*%
G04 Gerber Fmt 4.6, Leading zero omitted, Abs format (unit mm)*
G04 Created by KiCad (PCBNEW (5.0.0-rc2-dev-586-g888c43477)) date 06/03/18 13:56:12*
%MOMM*%
%LPD*%
G01*
G04 APERTURE LIST*
%ADD10C,1.524000*%
%ADD11C,0.508000*%
G04 APERTURE END LIST*
D10*
X71628000Y-20320000D03*
X69088000Y-20320000D03*
X66548000Y-20320000D03*
X62738000Y-20320000D03*
X60198000Y-20320000D03*
X57658000Y-20320000D03*
X55118000Y-20320000D03*
X51308000Y-20320000D03*
X48768000Y-20320000D03*
X46228000Y-20320000D03*
X43688000Y-20320000D03*
X41148000Y-20320000D03*
X37338000Y-20320000D03*
X34798000Y-20320000D03*
X32258000Y-20320000D03*
X29718000Y-20320000D03*
X74168000Y-20320000D03*
X72898000Y-41441601D03*
X72898000Y-38800001D03*
X64262000Y-28448000D03*
X64262000Y-33274000D03*
X42081947Y-40722053D03*
X39878000Y-42925992D03*
X51816000Y-27940000D03*
X57658000Y-25908000D03*
X32004000Y-25654000D03*
X37084002Y-25654000D03*
X51704309Y-26019705D03*
X45500010Y-28000000D03*
X21082000Y-35560000D03*
X21000000Y-30750000D03*
X45974014Y-30734000D03*
X45974000Y-35560000D03*
D11*
X72898000Y-41441601D02*
X72898000Y-38800001D01*
X64262000Y-33274000D02*
X64262000Y-28448000D01*
X39878008Y-42925992D02*
X39878000Y-42925992D01*
X42081947Y-40722053D02*
X39878008Y-42925992D01*
X32004000Y-25654000D02*
X37084002Y-25654000D01*
X57658000Y-25908000D02*
X51816014Y-25908000D01*
X51816014Y-25908000D02*
X51704309Y-26019705D01*
X51816000Y-27940000D02*
X45560010Y-27940000D01*
X45560010Y-27940000D02*
X45500010Y-28000000D01*
X21082000Y-30832000D02*
X21000000Y-30750000D01*
X21082000Y-35560000D02*
X21082000Y-30832000D01*
X45974014Y-30734000D02*
X45974014Y-35559986D01*
X45974014Y-35559986D02*
X45974000Y-35560000D01*
M02*
