M48
;DRILL file {KiCad (5.0.0-rc2-dev-586-g888c43477)} date 06/03/18 13:53:15
;FORMAT={-:-/ absolute / inch / decimal}
FMAT,2
INCH,TZ
T1C0.0236
T2C0.0300
T3C0.1575
%
G90
G05
M72
T1
X1.49Y-1.16
X1.49Y-1.24
X1.68Y-1.24
X1.68Y-1.16
X2.36Y-1.14
X2.36Y-1.4
X2.72Y-1.54
X2.72Y-1.68
X1.7719Y-1.49
X1.8065Y-1.4065
X1.8065Y-1.5735
X1.89Y-1.3719
X1.89Y-1.6081
X1.9735Y-1.4065
X1.9735Y-1.5735
X2.0081Y-1.49
T2
X1.17Y-0.8
X1.27Y-0.8
X1.37Y-0.8
X1.47Y-0.8
X1.62Y-0.8
X1.72Y-0.8
X1.82Y-0.8
X1.92Y-0.8
X2.02Y-0.8
X2.17Y-0.8
X2.27Y-0.8
X2.37Y-0.8
X2.47Y-0.8
X2.62Y-0.8
X2.72Y-0.8
X2.82Y-0.8
X2.92Y-0.8
T3
X1.89Y-1.49
T0
M30
