G04 #@! TF.GenerationSoftware,KiCad,Pcbnew,(5.0.0-rc2-dev-586-g888c43477)*
G04 #@! TF.CreationDate,2018-06-03T12:09:19-03:00*
G04 #@! TF.ProjectId,Signal,5369676E616C2E6B696361645F706362,rev?*
G04 #@! TF.SameCoordinates,Original*
G04 #@! TF.FileFunction,Other,User*
%FSLAX46Y46*%
G04 Gerber Fmt 4.6, Leading zero omitted, Abs format (unit mm)*
G04 Created by KiCad (PCBNEW (5.0.0-rc2-dev-586-g888c43477)) date 06/03/18 12:09:19*
%MOMM*%
%LPD*%
G01*
G04 APERTURE LIST*
%ADD10C,0.050000*%
G04 APERTURE END LIST*
D10*
X33086000Y-22524000D02*
X33086000Y-26244000D01*
X34986000Y-22524000D02*
X33086000Y-22524000D01*
X34986000Y-26244000D02*
X34986000Y-22524000D01*
X33086000Y-26244000D02*
X34986000Y-26244000D01*
X26604000Y-22524000D02*
X24704000Y-22524000D01*
X24704000Y-22524000D02*
X24704000Y-26244000D01*
X24704000Y-26244000D02*
X26604000Y-26244000D01*
X26604000Y-26244000D02*
X26604000Y-22524000D01*
X37272000Y-26244000D02*
X37272000Y-22524000D01*
X35372000Y-26244000D02*
X37272000Y-26244000D01*
X35372000Y-22524000D02*
X35372000Y-26244000D01*
X37272000Y-22524000D02*
X35372000Y-22524000D01*
X26990000Y-26244000D02*
X28890000Y-26244000D01*
X28890000Y-26244000D02*
X28890000Y-22524000D01*
X28890000Y-22524000D02*
X26990000Y-22524000D01*
X26990000Y-22524000D02*
X26990000Y-26244000D01*
X36256000Y-32340000D02*
X36256000Y-28620000D01*
X34356000Y-32340000D02*
X36256000Y-32340000D01*
X34356000Y-28620000D02*
X34356000Y-32340000D01*
X36256000Y-28620000D02*
X34356000Y-28620000D01*
X40320000Y-22524000D02*
X38420000Y-22524000D01*
X38420000Y-22524000D02*
X38420000Y-26244000D01*
X38420000Y-26244000D02*
X40320000Y-26244000D01*
X40320000Y-26244000D02*
X40320000Y-22524000D01*
X28288000Y-26750000D02*
X33688000Y-26750000D01*
X28288000Y-34210000D02*
X33688000Y-34210000D01*
X28288000Y-26750000D02*
X28288000Y-34210000D01*
X33688000Y-26750000D02*
X33688000Y-34210000D01*
X42606000Y-26244000D02*
X42606000Y-22524000D01*
X40706000Y-26244000D02*
X42606000Y-26244000D01*
X40706000Y-22524000D02*
X40706000Y-26244000D01*
X42606000Y-22524000D02*
X40706000Y-22524000D01*
X32848000Y-24318000D02*
X32848000Y-22418000D01*
X32848000Y-22418000D02*
X29128000Y-22418000D01*
X29128000Y-22418000D02*
X29128000Y-24318000D01*
X29128000Y-24318000D02*
X32848000Y-24318000D01*
X73836000Y-23142000D02*
X70436000Y-23142000D01*
X70436000Y-23142000D02*
X70436000Y-26642000D01*
X70436000Y-26642000D02*
X73836000Y-26642000D01*
X73836000Y-26642000D02*
X73836000Y-23142000D01*
X73086000Y-34118000D02*
X73086000Y-30398000D01*
X71186000Y-34118000D02*
X73086000Y-34118000D01*
X71186000Y-30398000D02*
X71186000Y-34118000D01*
X73086000Y-30398000D02*
X71186000Y-30398000D01*
X63672000Y-38420000D02*
X63672000Y-40320000D01*
X63672000Y-40320000D02*
X67392000Y-40320000D01*
X67392000Y-40320000D02*
X67392000Y-38420000D01*
X67392000Y-38420000D02*
X63672000Y-38420000D01*
X73526000Y-30416000D02*
X73526000Y-35116000D01*
X73526000Y-35116000D02*
X75826000Y-35116000D01*
X75826000Y-35116000D02*
X75826000Y-30416000D01*
X73526000Y-30416000D02*
X75826000Y-30416000D01*
X72324000Y-35732000D02*
X70424000Y-35732000D01*
X70424000Y-35732000D02*
X70424000Y-39452000D01*
X70424000Y-39452000D02*
X72324000Y-39452000D01*
X72324000Y-39452000D02*
X72324000Y-35732000D01*
X67228000Y-18730000D02*
X70948000Y-18730000D01*
X67228000Y-16830000D02*
X67228000Y-18730000D01*
X70948000Y-16830000D02*
X67228000Y-16830000D01*
X70948000Y-18730000D02*
X70948000Y-16830000D01*
X71038000Y-28006000D02*
X71038000Y-29906000D01*
X71038000Y-29906000D02*
X74758000Y-29906000D01*
X74758000Y-29906000D02*
X74758000Y-28006000D01*
X74758000Y-28006000D02*
X71038000Y-28006000D01*
X70038000Y-25784500D02*
X70038000Y-22064500D01*
X68138000Y-25784500D02*
X70038000Y-25784500D01*
X68138000Y-22064500D02*
X68138000Y-25784500D01*
X70038000Y-22064500D02*
X68138000Y-22064500D01*
X58084000Y-22164000D02*
X58084000Y-24064000D01*
X58084000Y-24064000D02*
X61804000Y-24064000D01*
X61804000Y-24064000D02*
X61804000Y-22164000D01*
X61804000Y-22164000D02*
X58084000Y-22164000D01*
X57994000Y-24064000D02*
X57994000Y-22164000D01*
X57994000Y-22164000D02*
X54274000Y-22164000D01*
X54274000Y-22164000D02*
X54274000Y-24064000D01*
X54274000Y-24064000D02*
X57994000Y-24064000D01*
X61832000Y-38178000D02*
X61832000Y-28878000D01*
X69232000Y-38178000D02*
X69232000Y-28878000D01*
X61832000Y-38178000D02*
X69232000Y-38178000D01*
X61832000Y-28878000D02*
X69232000Y-28878000D01*
M02*
