G04 #@! TF.GenerationSoftware,KiCad,Pcbnew,(5.0.0-rc2-dev-586-g888c43477)*
G04 #@! TF.CreationDate,2018-06-03T12:09:18-03:00*
G04 #@! TF.ProjectId,Signal,5369676E616C2E6B696361645F706362,rev?*
G04 #@! TF.SameCoordinates,Original*
G04 #@! TF.FileFunction,Copper,L2,Bot,Signal*
G04 #@! TF.FilePolarity,Positive*
%FSLAX46Y46*%
G04 Gerber Fmt 4.6, Leading zero omitted, Abs format (unit mm)*
G04 Created by KiCad (PCBNEW (5.0.0-rc2-dev-586-g888c43477)) date 06/03/18 12:09:18*
%MOMM*%
%LPD*%
G01*
G04 APERTURE LIST*
%ADD10R,1.400000X1.295000*%
%ADD11C,8.000000*%
%ADD12C,0.900000*%
%ADD13R,0.600000X1.550000*%
%ADD14R,1.295000X1.400000*%
%ADD15R,0.900000X0.800000*%
%ADD16C,1.524000*%
%ADD17R,1.200000X0.900000*%
%ADD18R,1.500000X0.600000*%
%ADD19C,0.508000*%
%ADD20C,0.800000*%
%ADD21C,0.304800*%
G04 APERTURE END LIST*
D10*
X34036000Y-23416500D03*
X34036000Y-25351500D03*
X25654000Y-23416500D03*
X25654000Y-25351500D03*
X36322000Y-25351500D03*
X36322000Y-23416500D03*
X27940000Y-25351500D03*
X27940000Y-23416500D03*
X35306000Y-31447500D03*
X35306000Y-29512500D03*
X39370000Y-23416500D03*
X39370000Y-25351500D03*
D11*
X48006000Y-37846000D03*
D12*
X51006000Y-37846000D03*
X50127320Y-39967320D03*
X48006000Y-40846000D03*
X45884680Y-39967320D03*
X45006000Y-37846000D03*
X45884680Y-35724680D03*
X48006000Y-34846000D03*
X50127320Y-35724680D03*
D13*
X29083000Y-27780000D03*
X30353000Y-27780000D03*
X31623000Y-27780000D03*
X32893000Y-27780000D03*
X32893000Y-33180000D03*
X31623000Y-33180000D03*
X30353000Y-33180000D03*
X29083000Y-33180000D03*
D10*
X41656000Y-25351500D03*
X41656000Y-23416500D03*
D14*
X31955500Y-23368000D03*
X30020500Y-23368000D03*
D15*
X73136000Y-23942000D03*
X73136000Y-25842000D03*
X71136000Y-24892000D03*
D16*
X71628000Y-20320000D03*
X69088000Y-20320000D03*
X66548000Y-20320000D03*
X62738000Y-20320000D03*
X60198000Y-20320000D03*
X57658000Y-20320000D03*
X55118000Y-20320000D03*
X51308000Y-20320000D03*
X48768000Y-20320000D03*
X46228000Y-20320000D03*
X43688000Y-20320000D03*
X41148000Y-20320000D03*
X37338000Y-20320000D03*
X34798000Y-20320000D03*
X32258000Y-20320000D03*
X29718000Y-20320000D03*
X74168000Y-20320000D03*
D10*
X72136000Y-33225500D03*
X72136000Y-31290500D03*
D14*
X64564500Y-39370000D03*
X66499500Y-39370000D03*
D17*
X74676000Y-31116000D03*
X74676000Y-34416000D03*
D10*
X71374000Y-36624500D03*
X71374000Y-38559500D03*
D14*
X68120500Y-17780000D03*
X70055500Y-17780000D03*
X71930500Y-28956000D03*
X73865500Y-28956000D03*
D10*
X69088000Y-24892000D03*
X69088000Y-22957000D03*
D14*
X58976500Y-23114000D03*
X60911500Y-23114000D03*
X57101500Y-23114000D03*
X55166500Y-23114000D03*
D18*
X62832000Y-37338000D03*
X62832000Y-36068000D03*
X62832000Y-34798000D03*
X62832000Y-33528000D03*
X62832000Y-32258000D03*
X62832000Y-30988000D03*
X62832000Y-29718000D03*
X68232000Y-29718000D03*
X68232000Y-30988000D03*
X68232000Y-32258000D03*
X68232000Y-33528000D03*
X68232000Y-34798000D03*
X68232000Y-36068000D03*
X68232000Y-37338000D03*
D16*
X59944000Y-28956000D03*
X59944000Y-35559978D03*
X69088026Y-42672000D03*
X69088000Y-39116000D03*
X42672000Y-31496000D03*
X37846000Y-31496000D03*
X42672002Y-29464000D03*
X37846000Y-29464000D03*
D19*
X71136000Y-24892000D02*
X69088000Y-24892000D01*
X48465500Y-20622500D02*
X48768000Y-20320000D01*
X67782000Y-33528000D02*
X68232000Y-33528000D01*
X66974000Y-33528000D02*
X68232000Y-33528000D01*
X66499500Y-34002500D02*
X66974000Y-33528000D01*
X66499500Y-39370000D02*
X66499500Y-34002500D01*
X73580500Y-34416000D02*
X72390000Y-33225500D01*
X74676000Y-34416000D02*
X73580500Y-34416000D01*
X70309500Y-33528000D02*
X68232000Y-33528000D01*
X72390000Y-33225500D02*
X72087500Y-33528000D01*
X70928000Y-33225500D02*
X72136000Y-33225500D01*
X70309500Y-33528000D02*
X70612000Y-33225500D01*
X70612000Y-33225500D02*
X70928000Y-33225500D01*
X71628000Y-19558000D02*
X71628000Y-20320000D01*
X70055500Y-17780000D02*
X70055500Y-17985500D01*
X70055500Y-17985500D02*
X71628000Y-19558000D01*
X62832000Y-34798000D02*
X61574000Y-34798000D01*
X61574000Y-34798000D02*
X61523199Y-34848801D01*
X68232000Y-34798000D02*
X68232000Y-33528000D01*
X48514000Y-20574000D02*
X48768000Y-20320000D01*
X48514000Y-20707486D02*
X48514000Y-20574000D01*
X60911500Y-21033500D02*
X60198000Y-20320000D01*
X60911500Y-23114000D02*
X60911500Y-21033500D01*
X60198000Y-20320000D02*
X57658000Y-20320000D01*
X60198000Y-20320000D02*
X64389000Y-16129000D01*
X70055500Y-16572000D02*
X70055500Y-17780000D01*
X64389000Y-16129000D02*
X69612500Y-16129000D01*
X69612500Y-16129000D02*
X70055500Y-16572000D01*
X34798000Y-20320000D02*
X36576000Y-18542000D01*
X39370000Y-18542000D02*
X41148000Y-20320000D01*
X36576000Y-18542000D02*
X39370000Y-18542000D01*
X46990000Y-18542000D02*
X48768000Y-20320000D01*
X39370000Y-18542000D02*
X46990000Y-18542000D01*
X58420000Y-18542000D02*
X60198000Y-20320000D01*
X46990000Y-18542000D02*
X58420000Y-18542000D01*
X60960000Y-27940000D02*
X60705999Y-28194001D01*
X60960000Y-22462500D02*
X60960000Y-27940000D01*
X60705999Y-28194001D02*
X59944000Y-28956000D01*
X61472377Y-34797979D02*
X60705999Y-34797979D01*
X61523199Y-34848801D02*
X61472377Y-34797979D01*
X60705999Y-34797979D02*
X59944000Y-35559978D01*
X68010396Y-42672000D02*
X69088026Y-42672000D01*
X65470370Y-42672000D02*
X68010396Y-42672000D01*
X61523199Y-38724829D02*
X65470370Y-42672000D01*
X61523199Y-34848801D02*
X61523199Y-38724829D01*
X68834000Y-39370000D02*
X69088000Y-39116000D01*
X66499500Y-39370000D02*
X68834000Y-39370000D01*
D20*
X59944000Y-35559978D02*
X58866370Y-35559978D01*
X58866370Y-35559978D02*
X54294387Y-30987995D01*
D19*
X34625500Y-31447500D02*
X32893000Y-33180000D01*
X34798000Y-31447500D02*
X34625500Y-31447500D01*
X25654000Y-23416500D02*
X25654000Y-21590000D01*
X25654000Y-21590000D02*
X28448000Y-18796000D01*
X33274000Y-18796000D02*
X34798000Y-20320000D01*
X28448000Y-18796000D02*
X33274000Y-18796000D01*
X34798000Y-20320000D02*
X36576000Y-22098000D01*
X36576000Y-22098000D02*
X36576000Y-25146000D01*
D20*
X42672000Y-31496000D02*
X42926000Y-31496000D01*
X43434005Y-30987995D02*
X54294387Y-30987995D01*
X42926000Y-31496000D02*
X43434005Y-30987995D01*
D19*
X39370000Y-26416000D02*
X39370000Y-25351500D01*
X31623000Y-34463000D02*
X31958000Y-34798000D01*
X31623000Y-33180000D02*
X31623000Y-34463000D01*
X31958000Y-34798000D02*
X36322000Y-34798000D01*
X36322000Y-34798000D02*
X40132000Y-30988000D01*
X40132000Y-30988000D02*
X40132000Y-27178000D01*
X40132000Y-27178000D02*
X39370000Y-26416000D01*
X37846000Y-23368000D02*
X36576000Y-22098000D01*
X37846000Y-25035500D02*
X37846000Y-23368000D01*
X39370000Y-25351500D02*
X38162000Y-25351500D01*
X38162000Y-25351500D02*
X37846000Y-25035500D01*
X34798000Y-31447500D02*
X37797500Y-31447500D01*
X37797500Y-31447500D02*
X37846000Y-31496000D01*
X74094000Y-23942000D02*
X73136000Y-23942000D01*
X73865500Y-27748000D02*
X75057000Y-26556500D01*
X73865500Y-28956000D02*
X73865500Y-27748000D01*
X75057000Y-24905000D02*
X74094000Y-23942000D01*
X75057000Y-26556500D02*
X75057000Y-24905000D01*
X74501500Y-31290500D02*
X74676000Y-31116000D01*
X72390000Y-31290500D02*
X74501500Y-31290500D01*
X70309500Y-30988000D02*
X68232000Y-30988000D01*
X72390000Y-31290500D02*
X72087500Y-30988000D01*
X70612000Y-31290500D02*
X72136000Y-31290500D01*
X70309500Y-30988000D02*
X70612000Y-31290500D01*
X71422500Y-36576000D02*
X71374000Y-36624500D01*
X74676000Y-36576000D02*
X71422500Y-36576000D01*
X76200000Y-35052000D02*
X74676000Y-36576000D01*
X76200000Y-31532000D02*
X76200000Y-35052000D01*
X74676000Y-31116000D02*
X75784000Y-31116000D01*
X75784000Y-31116000D02*
X76200000Y-31532000D01*
X64564500Y-38162000D02*
X64564500Y-39370000D01*
X64564500Y-34002500D02*
X64564500Y-38162000D01*
X62832000Y-33528000D02*
X64090000Y-33528000D01*
X64090000Y-33528000D02*
X64564500Y-34002500D01*
X64564500Y-40180500D02*
X64564500Y-39370000D01*
X65024000Y-40640000D02*
X64564500Y-40180500D01*
X65035199Y-40628801D02*
X65024000Y-40640000D01*
D20*
X64564500Y-37870000D02*
X64564500Y-39370000D01*
X64564500Y-33710500D02*
X64564500Y-37870000D01*
X62832000Y-33528000D02*
X64382000Y-33528000D01*
X64382000Y-33528000D02*
X64564500Y-33710500D01*
X64564500Y-40158102D02*
X65035199Y-40628801D01*
X64564500Y-39370000D02*
X64564500Y-40158102D01*
X65035199Y-40628801D02*
X65181199Y-40774801D01*
X71374000Y-40007000D02*
X71374000Y-38559500D01*
X70606199Y-40774801D02*
X71374000Y-40007000D01*
X65181199Y-40774801D02*
X70606199Y-40774801D01*
X74168000Y-20828000D02*
X74168000Y-20320000D01*
X77216000Y-23876000D02*
X74168000Y-20828000D01*
X77216000Y-35560000D02*
X77216000Y-23876000D01*
X71374000Y-38559500D02*
X74216500Y-38559500D01*
X74216500Y-38559500D02*
X77216000Y-35560000D01*
D19*
X29083000Y-31897000D02*
X29083000Y-33180000D01*
X34798000Y-29512500D02*
X31467500Y-29512500D01*
X31467500Y-29512500D02*
X29083000Y-31897000D01*
D20*
X43091187Y-29883185D02*
X42672002Y-29464000D01*
X54752014Y-29883185D02*
X43091187Y-29883185D01*
X62832000Y-33528000D02*
X58396828Y-33528000D01*
X58396828Y-33528000D02*
X54752014Y-29883185D01*
D19*
X37797500Y-29512500D02*
X37846000Y-29464000D01*
X34798000Y-29512500D02*
X37797500Y-29512500D01*
X68232000Y-37338000D02*
X68232000Y-36068000D01*
X62832000Y-37338000D02*
X62832000Y-36068000D01*
X31623000Y-23700500D02*
X31955500Y-23368000D01*
X31623000Y-27780000D02*
X31623000Y-23700500D01*
X30353000Y-23700500D02*
X30020500Y-23368000D01*
X30353000Y-26497000D02*
X30353000Y-25908000D01*
X30353000Y-27780000D02*
X30353000Y-26497000D01*
X30353000Y-26256000D02*
X30353000Y-25908000D01*
X30353000Y-25908000D02*
X30353000Y-23700500D01*
X30353000Y-33180000D02*
X30353000Y-34463000D01*
X40944811Y-27218189D02*
X41656000Y-26507000D01*
X41656000Y-26507000D02*
X41656000Y-25351500D01*
X40944811Y-31324677D02*
X40944811Y-27218189D01*
X36658677Y-35610811D02*
X40944811Y-31324677D01*
X31500810Y-35610810D02*
X36658677Y-35610811D01*
X30353000Y-34463000D02*
X31500810Y-35610810D01*
X37592000Y-20574000D02*
X37338000Y-20320000D01*
X39370000Y-23416500D02*
X41656000Y-23416500D01*
X37338000Y-21384500D02*
X39370000Y-23416500D01*
X37338000Y-20320000D02*
X37338000Y-21384500D01*
X69088000Y-20320000D02*
X69088000Y-22957000D01*
X66548000Y-19352500D02*
X68120500Y-17780000D01*
X66548000Y-20320000D02*
X66548000Y-19352500D01*
X68994000Y-28956000D02*
X68232000Y-29718000D01*
X70152500Y-28956000D02*
X68994000Y-28956000D01*
X70152500Y-28956000D02*
X71930500Y-28956000D01*
X68072000Y-29718000D02*
X68232000Y-29718000D01*
X66548000Y-20320000D02*
X66548000Y-28194000D01*
X66548000Y-28194000D02*
X68072000Y-29718000D01*
X68232000Y-32258000D02*
X62832000Y-32258000D01*
X57101500Y-23114000D02*
X58976500Y-23114000D01*
X58976500Y-23166500D02*
X58976500Y-23114000D01*
X57821000Y-24322000D02*
X58976500Y-23166500D01*
X57821000Y-30897000D02*
X57821000Y-24322000D01*
X62832000Y-32258000D02*
X59182000Y-32258000D01*
X59182000Y-32258000D02*
X57821000Y-30897000D01*
X55118000Y-20320000D02*
X55118000Y-22860000D01*
X55118000Y-22860000D02*
X55069500Y-22908500D01*
X27940000Y-22098000D02*
X27940000Y-23416500D01*
X29718000Y-20320000D02*
X27940000Y-22098000D01*
X33274000Y-21336000D02*
X32258000Y-20320000D01*
X34036000Y-23416500D02*
X34036000Y-22098000D01*
X34036000Y-22098000D02*
X33274000Y-21336000D01*
X62382000Y-29718000D02*
X62832000Y-29718000D01*
X62738000Y-20320000D02*
X62738000Y-24130000D01*
X62738000Y-30894000D02*
X62832000Y-30988000D01*
X62738000Y-20320000D02*
X62738000Y-30894000D01*
X62832000Y-29718000D02*
X62832000Y-30988000D01*
X46308000Y-20400000D02*
X46228000Y-20320000D01*
X46005500Y-20542500D02*
X46228000Y-20320000D01*
X45925500Y-20622500D02*
X46228000Y-20320000D01*
X43608000Y-20400000D02*
X43688000Y-20320000D01*
X27940000Y-26637000D02*
X29083000Y-27780000D01*
X27940000Y-25351500D02*
X27940000Y-26637000D01*
X25654000Y-25351500D02*
X27940000Y-25351500D01*
X32893000Y-26494500D02*
X34036000Y-25351500D01*
X32893000Y-27780000D02*
X32893000Y-26494500D01*
X35632014Y-25351500D02*
X35977007Y-25696493D01*
X34036000Y-25351500D02*
X35632014Y-25351500D01*
D21*
G36*
X78232800Y-43688800D02*
X23875200Y-43688800D01*
X23875200Y-36959408D01*
X43548800Y-36959408D01*
X43548800Y-38732592D01*
X44227368Y-40370801D01*
X45481199Y-41624632D01*
X47119408Y-42303200D01*
X48892592Y-42303200D01*
X50530801Y-41624632D01*
X51784632Y-40370801D01*
X52463200Y-38732592D01*
X52463200Y-36959408D01*
X51784632Y-35321199D01*
X50530801Y-34067368D01*
X48892592Y-33388800D01*
X47119408Y-33388800D01*
X45481199Y-34067368D01*
X44227368Y-35321199D01*
X43548800Y-36959408D01*
X23875200Y-36959408D01*
X23875200Y-24704000D01*
X24487843Y-24704000D01*
X24487843Y-25999000D01*
X24523327Y-26177391D01*
X24624377Y-26328623D01*
X24775609Y-26429673D01*
X24954000Y-26465157D01*
X26354000Y-26465157D01*
X26532391Y-26429673D01*
X26683623Y-26328623D01*
X26784673Y-26177391D01*
X26797000Y-26115419D01*
X26809327Y-26177391D01*
X26910377Y-26328623D01*
X27061609Y-26429673D01*
X27228801Y-26462929D01*
X27228801Y-26566954D01*
X27214868Y-26637000D01*
X27270065Y-26914496D01*
X27387576Y-27090364D01*
X27387579Y-27090367D01*
X27427255Y-27149746D01*
X27486634Y-27189422D01*
X28316843Y-28019632D01*
X28316843Y-28555000D01*
X28352327Y-28733391D01*
X28453377Y-28884623D01*
X28604609Y-28985673D01*
X28783000Y-29021157D01*
X29383000Y-29021157D01*
X29561391Y-28985673D01*
X29712623Y-28884623D01*
X29718000Y-28876576D01*
X29723377Y-28884623D01*
X29874609Y-28985673D01*
X30053000Y-29021157D01*
X30653000Y-29021157D01*
X30831391Y-28985673D01*
X30982623Y-28884623D01*
X30988000Y-28876576D01*
X30993377Y-28884623D01*
X31060218Y-28929284D01*
X31014135Y-28960076D01*
X31014133Y-28960078D01*
X30954754Y-28999754D01*
X30915078Y-29059133D01*
X28629634Y-31344578D01*
X28570254Y-31384255D01*
X28530578Y-31443634D01*
X28530576Y-31443636D01*
X28461644Y-31546800D01*
X28413064Y-31619505D01*
X28371800Y-31826955D01*
X28371800Y-31826959D01*
X28357868Y-31897000D01*
X28371800Y-31967042D01*
X28371800Y-32197465D01*
X28352327Y-32226609D01*
X28316843Y-32405000D01*
X28316843Y-33955000D01*
X28352327Y-34133391D01*
X28453377Y-34284623D01*
X28604609Y-34385673D01*
X28783000Y-34421157D01*
X29383000Y-34421157D01*
X29561391Y-34385673D01*
X29641801Y-34331945D01*
X29641801Y-34392954D01*
X29627868Y-34463000D01*
X29683065Y-34740496D01*
X29800576Y-34916364D01*
X29800579Y-34916367D01*
X29840255Y-34975746D01*
X29899634Y-35015422D01*
X30948390Y-36064179D01*
X30988064Y-36123555D01*
X31047440Y-36163229D01*
X31047445Y-36163234D01*
X31223312Y-36280745D01*
X31500809Y-36335942D01*
X31570855Y-36322009D01*
X36588635Y-36322011D01*
X36658677Y-36335943D01*
X36728718Y-36322011D01*
X36728722Y-36322011D01*
X36936172Y-36280747D01*
X36999298Y-36238567D01*
X37112041Y-36163235D01*
X37112043Y-36163233D01*
X37171422Y-36123557D01*
X37211098Y-36064178D01*
X41398180Y-31877097D01*
X41457556Y-31837423D01*
X41497231Y-31778046D01*
X41497235Y-31778042D01*
X41603166Y-31619505D01*
X41614747Y-31602173D01*
X41656011Y-31394723D01*
X41656011Y-31394719D01*
X41669943Y-31324677D01*
X41656011Y-31254635D01*
X41656011Y-30172219D01*
X41981380Y-30497588D01*
X42429488Y-30683200D01*
X42745576Y-30683200D01*
X42756724Y-30690649D01*
X43006763Y-30740385D01*
X43006766Y-30740385D01*
X43091186Y-30757177D01*
X43175606Y-30740385D01*
X54396951Y-30740385D01*
X57731001Y-34074437D01*
X57778822Y-34146006D01*
X57850391Y-34193827D01*
X57850392Y-34193828D01*
X57986276Y-34284623D01*
X58062365Y-34335464D01*
X58312404Y-34385200D01*
X58312407Y-34385200D01*
X58396827Y-34401992D01*
X58481247Y-34385200D01*
X63707300Y-34385200D01*
X63707300Y-35326767D01*
X63582000Y-35301843D01*
X62082000Y-35301843D01*
X61903609Y-35337327D01*
X61752377Y-35438377D01*
X61651327Y-35589609D01*
X61615843Y-35768000D01*
X61615843Y-36368000D01*
X61651327Y-36546391D01*
X61752377Y-36697623D01*
X61760424Y-36703000D01*
X61752377Y-36708377D01*
X61651327Y-36859609D01*
X61615843Y-37038000D01*
X61615843Y-37638000D01*
X61651327Y-37816391D01*
X61752377Y-37967623D01*
X61903609Y-38068673D01*
X62082000Y-38104157D01*
X63582000Y-38104157D01*
X63707300Y-38079233D01*
X63707300Y-38260247D01*
X63587377Y-38340377D01*
X63486327Y-38491609D01*
X63450843Y-38670000D01*
X63450843Y-40070000D01*
X63486327Y-40248391D01*
X63587377Y-40399623D01*
X63738609Y-40500673D01*
X63766109Y-40506143D01*
X63898672Y-40704537D01*
X63898674Y-40704539D01*
X63946495Y-40776108D01*
X64018064Y-40823929D01*
X64515370Y-41321235D01*
X64563193Y-41392807D01*
X64846736Y-41582265D01*
X65096775Y-41632001D01*
X65096778Y-41632001D01*
X65181198Y-41648793D01*
X65265618Y-41632001D01*
X70521779Y-41632001D01*
X70606199Y-41648793D01*
X70690619Y-41632001D01*
X70690623Y-41632001D01*
X70940662Y-41582265D01*
X71224205Y-41392807D01*
X71272028Y-41321235D01*
X71920437Y-40672827D01*
X71992006Y-40625006D01*
X72039827Y-40553437D01*
X72039829Y-40553435D01*
X72115398Y-40440338D01*
X72181464Y-40341463D01*
X72231200Y-40091424D01*
X72231200Y-40091420D01*
X72247992Y-40007000D01*
X72231200Y-39922580D01*
X72231200Y-39641888D01*
X72252391Y-39637673D01*
X72403623Y-39536623D01*
X72483753Y-39416700D01*
X74132080Y-39416700D01*
X74216500Y-39433492D01*
X74300920Y-39416700D01*
X74300924Y-39416700D01*
X74550963Y-39366964D01*
X74834506Y-39177506D01*
X74882329Y-39105934D01*
X77762437Y-36225827D01*
X77834006Y-36178006D01*
X77881827Y-36106437D01*
X77881829Y-36106435D01*
X77968314Y-35977000D01*
X78023464Y-35894463D01*
X78073200Y-35644424D01*
X78073200Y-35644420D01*
X78089992Y-35560000D01*
X78073200Y-35475580D01*
X78073200Y-23960420D01*
X78089992Y-23876000D01*
X78073200Y-23791580D01*
X78073200Y-23791576D01*
X78023464Y-23541537D01*
X77939917Y-23416500D01*
X77881828Y-23329564D01*
X77881827Y-23329563D01*
X77834006Y-23257994D01*
X77762437Y-23210173D01*
X75307409Y-20755146D01*
X75387200Y-20562514D01*
X75387200Y-20077486D01*
X75201588Y-19629378D01*
X74858622Y-19286412D01*
X74410514Y-19100800D01*
X73925486Y-19100800D01*
X73477378Y-19286412D01*
X73134412Y-19629378D01*
X72948800Y-20077486D01*
X72948800Y-20562514D01*
X73134412Y-21010622D01*
X73477378Y-21353588D01*
X73492400Y-21359810D01*
X73549994Y-21446006D01*
X73621566Y-21493829D01*
X76358801Y-24231065D01*
X76358800Y-30685012D01*
X76336424Y-30662636D01*
X76296746Y-30603254D01*
X76061496Y-30446064D01*
X75854046Y-30404800D01*
X75854041Y-30404800D01*
X75784000Y-30390868D01*
X75713959Y-30404800D01*
X75651342Y-30404800D01*
X75605623Y-30336377D01*
X75454391Y-30235327D01*
X75276000Y-30199843D01*
X74076000Y-30199843D01*
X73897609Y-30235327D01*
X73746377Y-30336377D01*
X73645327Y-30487609D01*
X73627089Y-30579300D01*
X73289486Y-30579300D01*
X73266673Y-30464609D01*
X73165623Y-30313377D01*
X73014391Y-30212327D01*
X72836000Y-30176843D01*
X71436000Y-30176843D01*
X71257609Y-30212327D01*
X71106377Y-30313377D01*
X71005327Y-30464609D01*
X70982514Y-30579300D01*
X70906588Y-30579300D01*
X70861924Y-30534636D01*
X70822246Y-30475254D01*
X70586996Y-30318064D01*
X70379546Y-30276800D01*
X70379541Y-30276800D01*
X70309500Y-30262868D01*
X70239459Y-30276800D01*
X69358945Y-30276800D01*
X69412673Y-30196391D01*
X69448157Y-30018000D01*
X69448157Y-29667200D01*
X70819071Y-29667200D01*
X70852327Y-29834391D01*
X70953377Y-29985623D01*
X71104609Y-30086673D01*
X71283000Y-30122157D01*
X72578000Y-30122157D01*
X72756391Y-30086673D01*
X72898000Y-29992053D01*
X73039609Y-30086673D01*
X73218000Y-30122157D01*
X74513000Y-30122157D01*
X74691391Y-30086673D01*
X74842623Y-29985623D01*
X74943673Y-29834391D01*
X74979157Y-29656000D01*
X74979157Y-28256000D01*
X74943673Y-28077609D01*
X74842623Y-27926377D01*
X74752877Y-27866411D01*
X75510369Y-27108920D01*
X75569745Y-27069246D01*
X75609420Y-27009869D01*
X75609424Y-27009865D01*
X75726935Y-26833998D01*
X75726935Y-26833997D01*
X75726936Y-26833996D01*
X75768200Y-26626546D01*
X75768200Y-26626543D01*
X75782132Y-26556501D01*
X75768200Y-26486459D01*
X75768200Y-24975042D01*
X75782132Y-24905000D01*
X75768200Y-24834958D01*
X75768200Y-24834954D01*
X75726936Y-24627504D01*
X75664563Y-24534157D01*
X75609424Y-24451635D01*
X75609422Y-24451633D01*
X75569746Y-24392254D01*
X75510367Y-24352578D01*
X74646424Y-23488636D01*
X74606746Y-23429254D01*
X74371496Y-23272064D01*
X74164046Y-23230800D01*
X74164041Y-23230800D01*
X74094000Y-23216868D01*
X74023959Y-23230800D01*
X73927933Y-23230800D01*
X73915623Y-23212377D01*
X73764391Y-23111327D01*
X73586000Y-23075843D01*
X72686000Y-23075843D01*
X72507609Y-23111327D01*
X72356377Y-23212377D01*
X72255327Y-23363609D01*
X72219843Y-23542000D01*
X72219843Y-24342000D01*
X72255327Y-24520391D01*
X72356377Y-24671623D01*
X72507609Y-24772673D01*
X72686000Y-24808157D01*
X73586000Y-24808157D01*
X73764391Y-24772673D01*
X73857003Y-24710791D01*
X74345801Y-25199590D01*
X74345800Y-26261911D01*
X73412134Y-27195578D01*
X73352755Y-27235254D01*
X73313079Y-27294633D01*
X73313076Y-27294636D01*
X73195565Y-27470504D01*
X73140368Y-27748000D01*
X73151329Y-27803105D01*
X73039609Y-27825327D01*
X72898000Y-27919947D01*
X72756391Y-27825327D01*
X72578000Y-27789843D01*
X71283000Y-27789843D01*
X71104609Y-27825327D01*
X70953377Y-27926377D01*
X70852327Y-28077609D01*
X70819071Y-28244800D01*
X69064042Y-28244800D01*
X68994000Y-28230868D01*
X68923958Y-28244800D01*
X68923954Y-28244800D01*
X68716504Y-28286064D01*
X68706504Y-28292746D01*
X68540635Y-28403576D01*
X68540633Y-28403578D01*
X68481254Y-28443254D01*
X68441578Y-28502633D01*
X68152000Y-28792211D01*
X67259200Y-27899412D01*
X67259200Y-21333010D01*
X67581588Y-21010622D01*
X67767200Y-20562514D01*
X67767200Y-20077486D01*
X67868800Y-20077486D01*
X67868800Y-20562514D01*
X68054412Y-21010622D01*
X68376800Y-21333010D01*
X68376801Y-21845571D01*
X68209609Y-21878827D01*
X68058377Y-21979877D01*
X67957327Y-22131109D01*
X67921843Y-22309500D01*
X67921843Y-23604500D01*
X67957327Y-23782891D01*
X68051947Y-23924500D01*
X67957327Y-24066109D01*
X67921843Y-24244500D01*
X67921843Y-25539500D01*
X67957327Y-25717891D01*
X68058377Y-25869123D01*
X68209609Y-25970173D01*
X68388000Y-26005657D01*
X69788000Y-26005657D01*
X69966391Y-25970173D01*
X70117623Y-25869123D01*
X70218673Y-25717891D01*
X70241486Y-25603200D01*
X70344067Y-25603200D01*
X70356377Y-25621623D01*
X70507609Y-25722673D01*
X70686000Y-25758157D01*
X71586000Y-25758157D01*
X71764391Y-25722673D01*
X71915623Y-25621623D01*
X72016673Y-25470391D01*
X72052157Y-25292000D01*
X72052157Y-24492000D01*
X72016673Y-24313609D01*
X71915623Y-24162377D01*
X71764391Y-24061327D01*
X71586000Y-24025843D01*
X70686000Y-24025843D01*
X70507609Y-24061327D01*
X70356377Y-24162377D01*
X70344067Y-24180800D01*
X70241486Y-24180800D01*
X70218673Y-24066109D01*
X70124053Y-23924500D01*
X70218673Y-23782891D01*
X70254157Y-23604500D01*
X70254157Y-22309500D01*
X70218673Y-22131109D01*
X70117623Y-21979877D01*
X69966391Y-21878827D01*
X69799200Y-21845571D01*
X69799200Y-21333010D01*
X70121588Y-21010622D01*
X70307200Y-20562514D01*
X70307200Y-20077486D01*
X70121588Y-19629378D01*
X69778622Y-19286412D01*
X69330514Y-19100800D01*
X68845486Y-19100800D01*
X68397378Y-19286412D01*
X68054412Y-19629378D01*
X67868800Y-20077486D01*
X67767200Y-20077486D01*
X67581588Y-19629378D01*
X67429249Y-19477039D01*
X67960132Y-18946157D01*
X68768000Y-18946157D01*
X68946391Y-18910673D01*
X69097623Y-18809623D01*
X69198673Y-18658391D01*
X69234157Y-18480000D01*
X69234157Y-17080000D01*
X69198673Y-16901609D01*
X69097623Y-16750377D01*
X68946391Y-16649327D01*
X68768000Y-16613843D01*
X67473000Y-16613843D01*
X67294609Y-16649327D01*
X67143377Y-16750377D01*
X67042327Y-16901609D01*
X67006843Y-17080000D01*
X67006843Y-17887868D01*
X66094634Y-18800078D01*
X66035255Y-18839754D01*
X65995579Y-18899133D01*
X65995576Y-18899136D01*
X65878065Y-19075004D01*
X65830709Y-19313081D01*
X65514412Y-19629378D01*
X65328800Y-20077486D01*
X65328800Y-20562514D01*
X65514412Y-21010622D01*
X65836800Y-21333010D01*
X65836801Y-28123954D01*
X65822868Y-28194000D01*
X65878065Y-28471496D01*
X65995576Y-28647364D01*
X65995579Y-28647367D01*
X66035255Y-28706746D01*
X66094634Y-28746422D01*
X67015843Y-29667632D01*
X67015843Y-30018000D01*
X67051327Y-30196391D01*
X67152377Y-30347623D01*
X67160424Y-30353000D01*
X67152377Y-30358377D01*
X67051327Y-30509609D01*
X67015843Y-30688000D01*
X67015843Y-31288000D01*
X67051327Y-31466391D01*
X67105055Y-31546800D01*
X63958945Y-31546800D01*
X64012673Y-31466391D01*
X64048157Y-31288000D01*
X64048157Y-30688000D01*
X64012673Y-30509609D01*
X63911623Y-30358377D01*
X63903576Y-30353000D01*
X63911623Y-30347623D01*
X64012673Y-30196391D01*
X64048157Y-30018000D01*
X64048157Y-29418000D01*
X64012673Y-29239609D01*
X63911623Y-29088377D01*
X63760391Y-28987327D01*
X63582000Y-28951843D01*
X63449200Y-28951843D01*
X63449200Y-21333010D01*
X63771588Y-21010622D01*
X63957200Y-20562514D01*
X63957200Y-20077486D01*
X63771588Y-19629378D01*
X63428622Y-19286412D01*
X62980514Y-19100800D01*
X62495486Y-19100800D01*
X62047378Y-19286412D01*
X61704412Y-19629378D01*
X61518800Y-20077486D01*
X61518800Y-20562514D01*
X61704412Y-21010622D01*
X62026800Y-21333010D01*
X62026801Y-28962823D01*
X61903609Y-28987327D01*
X61752377Y-29088377D01*
X61651327Y-29239609D01*
X61615843Y-29418000D01*
X61615843Y-30018000D01*
X61651327Y-30196391D01*
X61752377Y-30347623D01*
X61760424Y-30353000D01*
X61752377Y-30358377D01*
X61651327Y-30509609D01*
X61615843Y-30688000D01*
X61615843Y-31288000D01*
X61651327Y-31466391D01*
X61705055Y-31546800D01*
X59476589Y-31546800D01*
X58532200Y-30602412D01*
X58532200Y-24616588D01*
X58868631Y-24280157D01*
X59624000Y-24280157D01*
X59802391Y-24244673D01*
X59953623Y-24143623D01*
X60054673Y-23992391D01*
X60090157Y-23814000D01*
X60090157Y-22414000D01*
X60054673Y-22235609D01*
X59953623Y-22084377D01*
X59802391Y-21983327D01*
X59624000Y-21947843D01*
X58329000Y-21947843D01*
X58150609Y-21983327D01*
X58039000Y-22057902D01*
X57927391Y-21983327D01*
X57749000Y-21947843D01*
X56454000Y-21947843D01*
X56275609Y-21983327D01*
X56134000Y-22077947D01*
X55992391Y-21983327D01*
X55829200Y-21950866D01*
X55829200Y-21333010D01*
X56151588Y-21010622D01*
X56337200Y-20562514D01*
X56337200Y-20077486D01*
X56151588Y-19629378D01*
X55808622Y-19286412D01*
X55360514Y-19100800D01*
X54875486Y-19100800D01*
X54427378Y-19286412D01*
X54084412Y-19629378D01*
X53898800Y-20077486D01*
X53898800Y-20562514D01*
X54084412Y-21010622D01*
X54406800Y-21333010D01*
X54406801Y-21970161D01*
X54340609Y-21983327D01*
X54189377Y-22084377D01*
X54088327Y-22235609D01*
X54052843Y-22414000D01*
X54052843Y-23814000D01*
X54088327Y-23992391D01*
X54189377Y-24143623D01*
X54340609Y-24244673D01*
X54519000Y-24280157D01*
X55814000Y-24280157D01*
X55992391Y-24244673D01*
X56134000Y-24150053D01*
X56275609Y-24244673D01*
X56454000Y-24280157D01*
X57104191Y-24280157D01*
X57095868Y-24322000D01*
X57109801Y-24392046D01*
X57109800Y-30826959D01*
X57095868Y-30897000D01*
X57109800Y-30967041D01*
X57109800Y-30967045D01*
X57125111Y-31044019D01*
X55417842Y-29336750D01*
X55370020Y-29265179D01*
X55086477Y-29075721D01*
X54836438Y-29025985D01*
X54836434Y-29025985D01*
X54752014Y-29009193D01*
X54667594Y-29025985D01*
X43810223Y-29025985D01*
X43705590Y-28773378D01*
X43362624Y-28430412D01*
X42914516Y-28244800D01*
X42429488Y-28244800D01*
X41981380Y-28430412D01*
X41656011Y-28755781D01*
X41656011Y-27512777D01*
X42109369Y-27059420D01*
X42168745Y-27019746D01*
X42208420Y-26960369D01*
X42208424Y-26960365D01*
X42325935Y-26784498D01*
X42325935Y-26784497D01*
X42325936Y-26784496D01*
X42367200Y-26577046D01*
X42367200Y-26577043D01*
X42381132Y-26507001D01*
X42372169Y-26461941D01*
X42534391Y-26429673D01*
X42685623Y-26328623D01*
X42786673Y-26177391D01*
X42822157Y-25999000D01*
X42822157Y-24704000D01*
X42786673Y-24525609D01*
X42692053Y-24384000D01*
X42786673Y-24242391D01*
X42822157Y-24064000D01*
X42822157Y-22769000D01*
X42786673Y-22590609D01*
X42685623Y-22439377D01*
X42534391Y-22338327D01*
X42356000Y-22302843D01*
X40956000Y-22302843D01*
X40777609Y-22338327D01*
X40626377Y-22439377D01*
X40525327Y-22590609D01*
X40513000Y-22652581D01*
X40500673Y-22590609D01*
X40399623Y-22439377D01*
X40248391Y-22338327D01*
X40070000Y-22302843D01*
X39262132Y-22302843D01*
X38170749Y-21211461D01*
X38371588Y-21010622D01*
X38557200Y-20562514D01*
X38557200Y-20077486D01*
X42468800Y-20077486D01*
X42468800Y-20562514D01*
X42654412Y-21010622D01*
X42997378Y-21353588D01*
X43445486Y-21539200D01*
X43930514Y-21539200D01*
X44378622Y-21353588D01*
X44721588Y-21010622D01*
X44907200Y-20562514D01*
X44907200Y-20077486D01*
X45008800Y-20077486D01*
X45008800Y-20562514D01*
X45194412Y-21010622D01*
X45537378Y-21353588D01*
X45985486Y-21539200D01*
X46470514Y-21539200D01*
X46918622Y-21353588D01*
X47261588Y-21010622D01*
X47447200Y-20562514D01*
X47447200Y-20077486D01*
X50088800Y-20077486D01*
X50088800Y-20562514D01*
X50274412Y-21010622D01*
X50617378Y-21353588D01*
X51065486Y-21539200D01*
X51550514Y-21539200D01*
X51998622Y-21353588D01*
X52341588Y-21010622D01*
X52527200Y-20562514D01*
X52527200Y-20077486D01*
X52341588Y-19629378D01*
X51998622Y-19286412D01*
X51550514Y-19100800D01*
X51065486Y-19100800D01*
X50617378Y-19286412D01*
X50274412Y-19629378D01*
X50088800Y-20077486D01*
X47447200Y-20077486D01*
X47261588Y-19629378D01*
X46918622Y-19286412D01*
X46470514Y-19100800D01*
X45985486Y-19100800D01*
X45537378Y-19286412D01*
X45194412Y-19629378D01*
X45008800Y-20077486D01*
X44907200Y-20077486D01*
X44721588Y-19629378D01*
X44378622Y-19286412D01*
X43930514Y-19100800D01*
X43445486Y-19100800D01*
X42997378Y-19286412D01*
X42654412Y-19629378D01*
X42468800Y-20077486D01*
X38557200Y-20077486D01*
X38371588Y-19629378D01*
X38028622Y-19286412D01*
X37580514Y-19100800D01*
X37095486Y-19100800D01*
X36647378Y-19286412D01*
X36304412Y-19629378D01*
X36118800Y-20077486D01*
X36118800Y-20562514D01*
X36304412Y-21010622D01*
X36623722Y-21329932D01*
X36612868Y-21384500D01*
X36668065Y-21661996D01*
X36785576Y-21837864D01*
X36785579Y-21837867D01*
X36825255Y-21897246D01*
X36884634Y-21936922D01*
X38203843Y-23256132D01*
X38203843Y-24064000D01*
X38239327Y-24242391D01*
X38340377Y-24393623D01*
X38491609Y-24494673D01*
X38670000Y-24530157D01*
X40070000Y-24530157D01*
X40248391Y-24494673D01*
X40399623Y-24393623D01*
X40500673Y-24242391D01*
X40513000Y-24180419D01*
X40525327Y-24242391D01*
X40619947Y-24384000D01*
X40525327Y-24525609D01*
X40489843Y-24704000D01*
X40489843Y-25999000D01*
X40525327Y-26177391D01*
X40626377Y-26328623D01*
X40747594Y-26409618D01*
X40491445Y-26665767D01*
X40432066Y-26705443D01*
X40392390Y-26764822D01*
X40392387Y-26764825D01*
X40274876Y-26940693D01*
X40219679Y-27218189D01*
X40233612Y-27288235D01*
X40233611Y-31030088D01*
X36364088Y-34899612D01*
X31795399Y-34899610D01*
X31064200Y-34168412D01*
X31064200Y-34162534D01*
X31083673Y-34133391D01*
X31119157Y-33955000D01*
X31119157Y-32405000D01*
X31083673Y-32226609D01*
X30982623Y-32075377D01*
X30831391Y-31974327D01*
X30653000Y-31938843D01*
X30053000Y-31938843D01*
X30045442Y-31940346D01*
X31762089Y-30223700D01*
X34152514Y-30223700D01*
X34175327Y-30338391D01*
X34276377Y-30489623D01*
X34427609Y-30590673D01*
X34606000Y-30626157D01*
X36006000Y-30626157D01*
X36184391Y-30590673D01*
X36335623Y-30489623D01*
X36436673Y-30338391D01*
X36459486Y-30223700D01*
X36881490Y-30223700D01*
X37155378Y-30497588D01*
X37603486Y-30683200D01*
X38088514Y-30683200D01*
X38536622Y-30497588D01*
X38879588Y-30154622D01*
X39065200Y-29706514D01*
X39065200Y-29221486D01*
X38879588Y-28773378D01*
X38536622Y-28430412D01*
X38088514Y-28244800D01*
X37603486Y-28244800D01*
X37155378Y-28430412D01*
X36812412Y-28773378D01*
X36800846Y-28801300D01*
X36459486Y-28801300D01*
X36436673Y-28686609D01*
X36335623Y-28535377D01*
X36184391Y-28434327D01*
X36006000Y-28398843D01*
X34606000Y-28398843D01*
X34427609Y-28434327D01*
X34276377Y-28535377D01*
X34175327Y-28686609D01*
X34152514Y-28801300D01*
X33578298Y-28801300D01*
X33623673Y-28733391D01*
X33659157Y-28555000D01*
X33659157Y-27005000D01*
X33623673Y-26826609D01*
X33604200Y-26797466D01*
X33604200Y-26789088D01*
X33928131Y-26465157D01*
X34736000Y-26465157D01*
X34914391Y-26429673D01*
X35065623Y-26328623D01*
X35166673Y-26177391D01*
X35179000Y-26115419D01*
X35191327Y-26177391D01*
X35292377Y-26328623D01*
X35443609Y-26429673D01*
X35622000Y-26465157D01*
X37022000Y-26465157D01*
X37200391Y-26429673D01*
X37351623Y-26328623D01*
X37452673Y-26177391D01*
X37488157Y-25999000D01*
X37488157Y-24704000D01*
X37452673Y-24525609D01*
X37351623Y-24374377D01*
X37200391Y-24273327D01*
X37022000Y-24237843D01*
X35622000Y-24237843D01*
X35443609Y-24273327D01*
X35292377Y-24374377D01*
X35191327Y-24525609D01*
X35179000Y-24587581D01*
X35166673Y-24525609D01*
X35072053Y-24384000D01*
X35166673Y-24242391D01*
X35202157Y-24064000D01*
X35202157Y-22769000D01*
X35166673Y-22590609D01*
X35065623Y-22439377D01*
X34914391Y-22338327D01*
X34747200Y-22305071D01*
X34747200Y-22168042D01*
X34761132Y-22098000D01*
X34747200Y-22027958D01*
X34747200Y-22027954D01*
X34705936Y-21820504D01*
X34600024Y-21661996D01*
X34588424Y-21644635D01*
X34588422Y-21644633D01*
X34548746Y-21585254D01*
X34489367Y-21545578D01*
X33826426Y-20882638D01*
X33826424Y-20882635D01*
X33477200Y-20533411D01*
X33477200Y-20077486D01*
X33291588Y-19629378D01*
X32948622Y-19286412D01*
X32500514Y-19100800D01*
X32015486Y-19100800D01*
X31567378Y-19286412D01*
X31224412Y-19629378D01*
X31038800Y-20077486D01*
X31038800Y-20562514D01*
X31224412Y-21010622D01*
X31567378Y-21353588D01*
X32015486Y-21539200D01*
X32471411Y-21539200D01*
X32820635Y-21888424D01*
X32820638Y-21888426D01*
X33251802Y-22319591D01*
X33157609Y-22338327D01*
X33006377Y-22439377D01*
X33003243Y-22444067D01*
X32932623Y-22338377D01*
X32781391Y-22237327D01*
X32603000Y-22201843D01*
X31308000Y-22201843D01*
X31129609Y-22237327D01*
X30988000Y-22331947D01*
X30846391Y-22237327D01*
X30668000Y-22201843D01*
X29373000Y-22201843D01*
X29194609Y-22237327D01*
X29043377Y-22338377D01*
X28972757Y-22444067D01*
X28969623Y-22439377D01*
X28818391Y-22338327D01*
X28724197Y-22319591D01*
X29504589Y-21539200D01*
X29960514Y-21539200D01*
X30408622Y-21353588D01*
X30751588Y-21010622D01*
X30937200Y-20562514D01*
X30937200Y-20077486D01*
X30751588Y-19629378D01*
X30408622Y-19286412D01*
X29960514Y-19100800D01*
X29475486Y-19100800D01*
X29027378Y-19286412D01*
X28684412Y-19629378D01*
X28498800Y-20077486D01*
X28498800Y-20533411D01*
X27486634Y-21545578D01*
X27427254Y-21585255D01*
X27387578Y-21644634D01*
X27387576Y-21644636D01*
X27310267Y-21760337D01*
X27270064Y-21820505D01*
X27228800Y-22027955D01*
X27228800Y-22027959D01*
X27214868Y-22098000D01*
X27228800Y-22168042D01*
X27228800Y-22305071D01*
X27061609Y-22338327D01*
X26910377Y-22439377D01*
X26809327Y-22590609D01*
X26773843Y-22769000D01*
X26773843Y-24064000D01*
X26809327Y-24242391D01*
X26903947Y-24384000D01*
X26809327Y-24525609D01*
X26797000Y-24587581D01*
X26784673Y-24525609D01*
X26683623Y-24374377D01*
X26532391Y-24273327D01*
X26354000Y-24237843D01*
X24954000Y-24237843D01*
X24775609Y-24273327D01*
X24624377Y-24374377D01*
X24523327Y-24525609D01*
X24487843Y-24704000D01*
X23875200Y-24704000D01*
X23875200Y-15239200D01*
X78232801Y-15239200D01*
X78232800Y-43688800D01*
X78232800Y-43688800D01*
G37*
X78232800Y-43688800D02*
X23875200Y-43688800D01*
X23875200Y-36959408D01*
X43548800Y-36959408D01*
X43548800Y-38732592D01*
X44227368Y-40370801D01*
X45481199Y-41624632D01*
X47119408Y-42303200D01*
X48892592Y-42303200D01*
X50530801Y-41624632D01*
X51784632Y-40370801D01*
X52463200Y-38732592D01*
X52463200Y-36959408D01*
X51784632Y-35321199D01*
X50530801Y-34067368D01*
X48892592Y-33388800D01*
X47119408Y-33388800D01*
X45481199Y-34067368D01*
X44227368Y-35321199D01*
X43548800Y-36959408D01*
X23875200Y-36959408D01*
X23875200Y-24704000D01*
X24487843Y-24704000D01*
X24487843Y-25999000D01*
X24523327Y-26177391D01*
X24624377Y-26328623D01*
X24775609Y-26429673D01*
X24954000Y-26465157D01*
X26354000Y-26465157D01*
X26532391Y-26429673D01*
X26683623Y-26328623D01*
X26784673Y-26177391D01*
X26797000Y-26115419D01*
X26809327Y-26177391D01*
X26910377Y-26328623D01*
X27061609Y-26429673D01*
X27228801Y-26462929D01*
X27228801Y-26566954D01*
X27214868Y-26637000D01*
X27270065Y-26914496D01*
X27387576Y-27090364D01*
X27387579Y-27090367D01*
X27427255Y-27149746D01*
X27486634Y-27189422D01*
X28316843Y-28019632D01*
X28316843Y-28555000D01*
X28352327Y-28733391D01*
X28453377Y-28884623D01*
X28604609Y-28985673D01*
X28783000Y-29021157D01*
X29383000Y-29021157D01*
X29561391Y-28985673D01*
X29712623Y-28884623D01*
X29718000Y-28876576D01*
X29723377Y-28884623D01*
X29874609Y-28985673D01*
X30053000Y-29021157D01*
X30653000Y-29021157D01*
X30831391Y-28985673D01*
X30982623Y-28884623D01*
X30988000Y-28876576D01*
X30993377Y-28884623D01*
X31060218Y-28929284D01*
X31014135Y-28960076D01*
X31014133Y-28960078D01*
X30954754Y-28999754D01*
X30915078Y-29059133D01*
X28629634Y-31344578D01*
X28570254Y-31384255D01*
X28530578Y-31443634D01*
X28530576Y-31443636D01*
X28461644Y-31546800D01*
X28413064Y-31619505D01*
X28371800Y-31826955D01*
X28371800Y-31826959D01*
X28357868Y-31897000D01*
X28371800Y-31967042D01*
X28371800Y-32197465D01*
X28352327Y-32226609D01*
X28316843Y-32405000D01*
X28316843Y-33955000D01*
X28352327Y-34133391D01*
X28453377Y-34284623D01*
X28604609Y-34385673D01*
X28783000Y-34421157D01*
X29383000Y-34421157D01*
X29561391Y-34385673D01*
X29641801Y-34331945D01*
X29641801Y-34392954D01*
X29627868Y-34463000D01*
X29683065Y-34740496D01*
X29800576Y-34916364D01*
X29800579Y-34916367D01*
X29840255Y-34975746D01*
X29899634Y-35015422D01*
X30948390Y-36064179D01*
X30988064Y-36123555D01*
X31047440Y-36163229D01*
X31047445Y-36163234D01*
X31223312Y-36280745D01*
X31500809Y-36335942D01*
X31570855Y-36322009D01*
X36588635Y-36322011D01*
X36658677Y-36335943D01*
X36728718Y-36322011D01*
X36728722Y-36322011D01*
X36936172Y-36280747D01*
X36999298Y-36238567D01*
X37112041Y-36163235D01*
X37112043Y-36163233D01*
X37171422Y-36123557D01*
X37211098Y-36064178D01*
X41398180Y-31877097D01*
X41457556Y-31837423D01*
X41497231Y-31778046D01*
X41497235Y-31778042D01*
X41603166Y-31619505D01*
X41614747Y-31602173D01*
X41656011Y-31394723D01*
X41656011Y-31394719D01*
X41669943Y-31324677D01*
X41656011Y-31254635D01*
X41656011Y-30172219D01*
X41981380Y-30497588D01*
X42429488Y-30683200D01*
X42745576Y-30683200D01*
X42756724Y-30690649D01*
X43006763Y-30740385D01*
X43006766Y-30740385D01*
X43091186Y-30757177D01*
X43175606Y-30740385D01*
X54396951Y-30740385D01*
X57731001Y-34074437D01*
X57778822Y-34146006D01*
X57850391Y-34193827D01*
X57850392Y-34193828D01*
X57986276Y-34284623D01*
X58062365Y-34335464D01*
X58312404Y-34385200D01*
X58312407Y-34385200D01*
X58396827Y-34401992D01*
X58481247Y-34385200D01*
X63707300Y-34385200D01*
X63707300Y-35326767D01*
X63582000Y-35301843D01*
X62082000Y-35301843D01*
X61903609Y-35337327D01*
X61752377Y-35438377D01*
X61651327Y-35589609D01*
X61615843Y-35768000D01*
X61615843Y-36368000D01*
X61651327Y-36546391D01*
X61752377Y-36697623D01*
X61760424Y-36703000D01*
X61752377Y-36708377D01*
X61651327Y-36859609D01*
X61615843Y-37038000D01*
X61615843Y-37638000D01*
X61651327Y-37816391D01*
X61752377Y-37967623D01*
X61903609Y-38068673D01*
X62082000Y-38104157D01*
X63582000Y-38104157D01*
X63707300Y-38079233D01*
X63707300Y-38260247D01*
X63587377Y-38340377D01*
X63486327Y-38491609D01*
X63450843Y-38670000D01*
X63450843Y-40070000D01*
X63486327Y-40248391D01*
X63587377Y-40399623D01*
X63738609Y-40500673D01*
X63766109Y-40506143D01*
X63898672Y-40704537D01*
X63898674Y-40704539D01*
X63946495Y-40776108D01*
X64018064Y-40823929D01*
X64515370Y-41321235D01*
X64563193Y-41392807D01*
X64846736Y-41582265D01*
X65096775Y-41632001D01*
X65096778Y-41632001D01*
X65181198Y-41648793D01*
X65265618Y-41632001D01*
X70521779Y-41632001D01*
X70606199Y-41648793D01*
X70690619Y-41632001D01*
X70690623Y-41632001D01*
X70940662Y-41582265D01*
X71224205Y-41392807D01*
X71272028Y-41321235D01*
X71920437Y-40672827D01*
X71992006Y-40625006D01*
X72039827Y-40553437D01*
X72039829Y-40553435D01*
X72115398Y-40440338D01*
X72181464Y-40341463D01*
X72231200Y-40091424D01*
X72231200Y-40091420D01*
X72247992Y-40007000D01*
X72231200Y-39922580D01*
X72231200Y-39641888D01*
X72252391Y-39637673D01*
X72403623Y-39536623D01*
X72483753Y-39416700D01*
X74132080Y-39416700D01*
X74216500Y-39433492D01*
X74300920Y-39416700D01*
X74300924Y-39416700D01*
X74550963Y-39366964D01*
X74834506Y-39177506D01*
X74882329Y-39105934D01*
X77762437Y-36225827D01*
X77834006Y-36178006D01*
X77881827Y-36106437D01*
X77881829Y-36106435D01*
X77968314Y-35977000D01*
X78023464Y-35894463D01*
X78073200Y-35644424D01*
X78073200Y-35644420D01*
X78089992Y-35560000D01*
X78073200Y-35475580D01*
X78073200Y-23960420D01*
X78089992Y-23876000D01*
X78073200Y-23791580D01*
X78073200Y-23791576D01*
X78023464Y-23541537D01*
X77939917Y-23416500D01*
X77881828Y-23329564D01*
X77881827Y-23329563D01*
X77834006Y-23257994D01*
X77762437Y-23210173D01*
X75307409Y-20755146D01*
X75387200Y-20562514D01*
X75387200Y-20077486D01*
X75201588Y-19629378D01*
X74858622Y-19286412D01*
X74410514Y-19100800D01*
X73925486Y-19100800D01*
X73477378Y-19286412D01*
X73134412Y-19629378D01*
X72948800Y-20077486D01*
X72948800Y-20562514D01*
X73134412Y-21010622D01*
X73477378Y-21353588D01*
X73492400Y-21359810D01*
X73549994Y-21446006D01*
X73621566Y-21493829D01*
X76358801Y-24231065D01*
X76358800Y-30685012D01*
X76336424Y-30662636D01*
X76296746Y-30603254D01*
X76061496Y-30446064D01*
X75854046Y-30404800D01*
X75854041Y-30404800D01*
X75784000Y-30390868D01*
X75713959Y-30404800D01*
X75651342Y-30404800D01*
X75605623Y-30336377D01*
X75454391Y-30235327D01*
X75276000Y-30199843D01*
X74076000Y-30199843D01*
X73897609Y-30235327D01*
X73746377Y-30336377D01*
X73645327Y-30487609D01*
X73627089Y-30579300D01*
X73289486Y-30579300D01*
X73266673Y-30464609D01*
X73165623Y-30313377D01*
X73014391Y-30212327D01*
X72836000Y-30176843D01*
X71436000Y-30176843D01*
X71257609Y-30212327D01*
X71106377Y-30313377D01*
X71005327Y-30464609D01*
X70982514Y-30579300D01*
X70906588Y-30579300D01*
X70861924Y-30534636D01*
X70822246Y-30475254D01*
X70586996Y-30318064D01*
X70379546Y-30276800D01*
X70379541Y-30276800D01*
X70309500Y-30262868D01*
X70239459Y-30276800D01*
X69358945Y-30276800D01*
X69412673Y-30196391D01*
X69448157Y-30018000D01*
X69448157Y-29667200D01*
X70819071Y-29667200D01*
X70852327Y-29834391D01*
X70953377Y-29985623D01*
X71104609Y-30086673D01*
X71283000Y-30122157D01*
X72578000Y-30122157D01*
X72756391Y-30086673D01*
X72898000Y-29992053D01*
X73039609Y-30086673D01*
X73218000Y-30122157D01*
X74513000Y-30122157D01*
X74691391Y-30086673D01*
X74842623Y-29985623D01*
X74943673Y-29834391D01*
X74979157Y-29656000D01*
X74979157Y-28256000D01*
X74943673Y-28077609D01*
X74842623Y-27926377D01*
X74752877Y-27866411D01*
X75510369Y-27108920D01*
X75569745Y-27069246D01*
X75609420Y-27009869D01*
X75609424Y-27009865D01*
X75726935Y-26833998D01*
X75726935Y-26833997D01*
X75726936Y-26833996D01*
X75768200Y-26626546D01*
X75768200Y-26626543D01*
X75782132Y-26556501D01*
X75768200Y-26486459D01*
X75768200Y-24975042D01*
X75782132Y-24905000D01*
X75768200Y-24834958D01*
X75768200Y-24834954D01*
X75726936Y-24627504D01*
X75664563Y-24534157D01*
X75609424Y-24451635D01*
X75609422Y-24451633D01*
X75569746Y-24392254D01*
X75510367Y-24352578D01*
X74646424Y-23488636D01*
X74606746Y-23429254D01*
X74371496Y-23272064D01*
X74164046Y-23230800D01*
X74164041Y-23230800D01*
X74094000Y-23216868D01*
X74023959Y-23230800D01*
X73927933Y-23230800D01*
X73915623Y-23212377D01*
X73764391Y-23111327D01*
X73586000Y-23075843D01*
X72686000Y-23075843D01*
X72507609Y-23111327D01*
X72356377Y-23212377D01*
X72255327Y-23363609D01*
X72219843Y-23542000D01*
X72219843Y-24342000D01*
X72255327Y-24520391D01*
X72356377Y-24671623D01*
X72507609Y-24772673D01*
X72686000Y-24808157D01*
X73586000Y-24808157D01*
X73764391Y-24772673D01*
X73857003Y-24710791D01*
X74345801Y-25199590D01*
X74345800Y-26261911D01*
X73412134Y-27195578D01*
X73352755Y-27235254D01*
X73313079Y-27294633D01*
X73313076Y-27294636D01*
X73195565Y-27470504D01*
X73140368Y-27748000D01*
X73151329Y-27803105D01*
X73039609Y-27825327D01*
X72898000Y-27919947D01*
X72756391Y-27825327D01*
X72578000Y-27789843D01*
X71283000Y-27789843D01*
X71104609Y-27825327D01*
X70953377Y-27926377D01*
X70852327Y-28077609D01*
X70819071Y-28244800D01*
X69064042Y-28244800D01*
X68994000Y-28230868D01*
X68923958Y-28244800D01*
X68923954Y-28244800D01*
X68716504Y-28286064D01*
X68706504Y-28292746D01*
X68540635Y-28403576D01*
X68540633Y-28403578D01*
X68481254Y-28443254D01*
X68441578Y-28502633D01*
X68152000Y-28792211D01*
X67259200Y-27899412D01*
X67259200Y-21333010D01*
X67581588Y-21010622D01*
X67767200Y-20562514D01*
X67767200Y-20077486D01*
X67868800Y-20077486D01*
X67868800Y-20562514D01*
X68054412Y-21010622D01*
X68376800Y-21333010D01*
X68376801Y-21845571D01*
X68209609Y-21878827D01*
X68058377Y-21979877D01*
X67957327Y-22131109D01*
X67921843Y-22309500D01*
X67921843Y-23604500D01*
X67957327Y-23782891D01*
X68051947Y-23924500D01*
X67957327Y-24066109D01*
X67921843Y-24244500D01*
X67921843Y-25539500D01*
X67957327Y-25717891D01*
X68058377Y-25869123D01*
X68209609Y-25970173D01*
X68388000Y-26005657D01*
X69788000Y-26005657D01*
X69966391Y-25970173D01*
X70117623Y-25869123D01*
X70218673Y-25717891D01*
X70241486Y-25603200D01*
X70344067Y-25603200D01*
X70356377Y-25621623D01*
X70507609Y-25722673D01*
X70686000Y-25758157D01*
X71586000Y-25758157D01*
X71764391Y-25722673D01*
X71915623Y-25621623D01*
X72016673Y-25470391D01*
X72052157Y-25292000D01*
X72052157Y-24492000D01*
X72016673Y-24313609D01*
X71915623Y-24162377D01*
X71764391Y-24061327D01*
X71586000Y-24025843D01*
X70686000Y-24025843D01*
X70507609Y-24061327D01*
X70356377Y-24162377D01*
X70344067Y-24180800D01*
X70241486Y-24180800D01*
X70218673Y-24066109D01*
X70124053Y-23924500D01*
X70218673Y-23782891D01*
X70254157Y-23604500D01*
X70254157Y-22309500D01*
X70218673Y-22131109D01*
X70117623Y-21979877D01*
X69966391Y-21878827D01*
X69799200Y-21845571D01*
X69799200Y-21333010D01*
X70121588Y-21010622D01*
X70307200Y-20562514D01*
X70307200Y-20077486D01*
X70121588Y-19629378D01*
X69778622Y-19286412D01*
X69330514Y-19100800D01*
X68845486Y-19100800D01*
X68397378Y-19286412D01*
X68054412Y-19629378D01*
X67868800Y-20077486D01*
X67767200Y-20077486D01*
X67581588Y-19629378D01*
X67429249Y-19477039D01*
X67960132Y-18946157D01*
X68768000Y-18946157D01*
X68946391Y-18910673D01*
X69097623Y-18809623D01*
X69198673Y-18658391D01*
X69234157Y-18480000D01*
X69234157Y-17080000D01*
X69198673Y-16901609D01*
X69097623Y-16750377D01*
X68946391Y-16649327D01*
X68768000Y-16613843D01*
X67473000Y-16613843D01*
X67294609Y-16649327D01*
X67143377Y-16750377D01*
X67042327Y-16901609D01*
X67006843Y-17080000D01*
X67006843Y-17887868D01*
X66094634Y-18800078D01*
X66035255Y-18839754D01*
X65995579Y-18899133D01*
X65995576Y-18899136D01*
X65878065Y-19075004D01*
X65830709Y-19313081D01*
X65514412Y-19629378D01*
X65328800Y-20077486D01*
X65328800Y-20562514D01*
X65514412Y-21010622D01*
X65836800Y-21333010D01*
X65836801Y-28123954D01*
X65822868Y-28194000D01*
X65878065Y-28471496D01*
X65995576Y-28647364D01*
X65995579Y-28647367D01*
X66035255Y-28706746D01*
X66094634Y-28746422D01*
X67015843Y-29667632D01*
X67015843Y-30018000D01*
X67051327Y-30196391D01*
X67152377Y-30347623D01*
X67160424Y-30353000D01*
X67152377Y-30358377D01*
X67051327Y-30509609D01*
X67015843Y-30688000D01*
X67015843Y-31288000D01*
X67051327Y-31466391D01*
X67105055Y-31546800D01*
X63958945Y-31546800D01*
X64012673Y-31466391D01*
X64048157Y-31288000D01*
X64048157Y-30688000D01*
X64012673Y-30509609D01*
X63911623Y-30358377D01*
X63903576Y-30353000D01*
X63911623Y-30347623D01*
X64012673Y-30196391D01*
X64048157Y-30018000D01*
X64048157Y-29418000D01*
X64012673Y-29239609D01*
X63911623Y-29088377D01*
X63760391Y-28987327D01*
X63582000Y-28951843D01*
X63449200Y-28951843D01*
X63449200Y-21333010D01*
X63771588Y-21010622D01*
X63957200Y-20562514D01*
X63957200Y-20077486D01*
X63771588Y-19629378D01*
X63428622Y-19286412D01*
X62980514Y-19100800D01*
X62495486Y-19100800D01*
X62047378Y-19286412D01*
X61704412Y-19629378D01*
X61518800Y-20077486D01*
X61518800Y-20562514D01*
X61704412Y-21010622D01*
X62026800Y-21333010D01*
X62026801Y-28962823D01*
X61903609Y-28987327D01*
X61752377Y-29088377D01*
X61651327Y-29239609D01*
X61615843Y-29418000D01*
X61615843Y-30018000D01*
X61651327Y-30196391D01*
X61752377Y-30347623D01*
X61760424Y-30353000D01*
X61752377Y-30358377D01*
X61651327Y-30509609D01*
X61615843Y-30688000D01*
X61615843Y-31288000D01*
X61651327Y-31466391D01*
X61705055Y-31546800D01*
X59476589Y-31546800D01*
X58532200Y-30602412D01*
X58532200Y-24616588D01*
X58868631Y-24280157D01*
X59624000Y-24280157D01*
X59802391Y-24244673D01*
X59953623Y-24143623D01*
X60054673Y-23992391D01*
X60090157Y-23814000D01*
X60090157Y-22414000D01*
X60054673Y-22235609D01*
X59953623Y-22084377D01*
X59802391Y-21983327D01*
X59624000Y-21947843D01*
X58329000Y-21947843D01*
X58150609Y-21983327D01*
X58039000Y-22057902D01*
X57927391Y-21983327D01*
X57749000Y-21947843D01*
X56454000Y-21947843D01*
X56275609Y-21983327D01*
X56134000Y-22077947D01*
X55992391Y-21983327D01*
X55829200Y-21950866D01*
X55829200Y-21333010D01*
X56151588Y-21010622D01*
X56337200Y-20562514D01*
X56337200Y-20077486D01*
X56151588Y-19629378D01*
X55808622Y-19286412D01*
X55360514Y-19100800D01*
X54875486Y-19100800D01*
X54427378Y-19286412D01*
X54084412Y-19629378D01*
X53898800Y-20077486D01*
X53898800Y-20562514D01*
X54084412Y-21010622D01*
X54406800Y-21333010D01*
X54406801Y-21970161D01*
X54340609Y-21983327D01*
X54189377Y-22084377D01*
X54088327Y-22235609D01*
X54052843Y-22414000D01*
X54052843Y-23814000D01*
X54088327Y-23992391D01*
X54189377Y-24143623D01*
X54340609Y-24244673D01*
X54519000Y-24280157D01*
X55814000Y-24280157D01*
X55992391Y-24244673D01*
X56134000Y-24150053D01*
X56275609Y-24244673D01*
X56454000Y-24280157D01*
X57104191Y-24280157D01*
X57095868Y-24322000D01*
X57109801Y-24392046D01*
X57109800Y-30826959D01*
X57095868Y-30897000D01*
X57109800Y-30967041D01*
X57109800Y-30967045D01*
X57125111Y-31044019D01*
X55417842Y-29336750D01*
X55370020Y-29265179D01*
X55086477Y-29075721D01*
X54836438Y-29025985D01*
X54836434Y-29025985D01*
X54752014Y-29009193D01*
X54667594Y-29025985D01*
X43810223Y-29025985D01*
X43705590Y-28773378D01*
X43362624Y-28430412D01*
X42914516Y-28244800D01*
X42429488Y-28244800D01*
X41981380Y-28430412D01*
X41656011Y-28755781D01*
X41656011Y-27512777D01*
X42109369Y-27059420D01*
X42168745Y-27019746D01*
X42208420Y-26960369D01*
X42208424Y-26960365D01*
X42325935Y-26784498D01*
X42325935Y-26784497D01*
X42325936Y-26784496D01*
X42367200Y-26577046D01*
X42367200Y-26577043D01*
X42381132Y-26507001D01*
X42372169Y-26461941D01*
X42534391Y-26429673D01*
X42685623Y-26328623D01*
X42786673Y-26177391D01*
X42822157Y-25999000D01*
X42822157Y-24704000D01*
X42786673Y-24525609D01*
X42692053Y-24384000D01*
X42786673Y-24242391D01*
X42822157Y-24064000D01*
X42822157Y-22769000D01*
X42786673Y-22590609D01*
X42685623Y-22439377D01*
X42534391Y-22338327D01*
X42356000Y-22302843D01*
X40956000Y-22302843D01*
X40777609Y-22338327D01*
X40626377Y-22439377D01*
X40525327Y-22590609D01*
X40513000Y-22652581D01*
X40500673Y-22590609D01*
X40399623Y-22439377D01*
X40248391Y-22338327D01*
X40070000Y-22302843D01*
X39262132Y-22302843D01*
X38170749Y-21211461D01*
X38371588Y-21010622D01*
X38557200Y-20562514D01*
X38557200Y-20077486D01*
X42468800Y-20077486D01*
X42468800Y-20562514D01*
X42654412Y-21010622D01*
X42997378Y-21353588D01*
X43445486Y-21539200D01*
X43930514Y-21539200D01*
X44378622Y-21353588D01*
X44721588Y-21010622D01*
X44907200Y-20562514D01*
X44907200Y-20077486D01*
X45008800Y-20077486D01*
X45008800Y-20562514D01*
X45194412Y-21010622D01*
X45537378Y-21353588D01*
X45985486Y-21539200D01*
X46470514Y-21539200D01*
X46918622Y-21353588D01*
X47261588Y-21010622D01*
X47447200Y-20562514D01*
X47447200Y-20077486D01*
X50088800Y-20077486D01*
X50088800Y-20562514D01*
X50274412Y-21010622D01*
X50617378Y-21353588D01*
X51065486Y-21539200D01*
X51550514Y-21539200D01*
X51998622Y-21353588D01*
X52341588Y-21010622D01*
X52527200Y-20562514D01*
X52527200Y-20077486D01*
X52341588Y-19629378D01*
X51998622Y-19286412D01*
X51550514Y-19100800D01*
X51065486Y-19100800D01*
X50617378Y-19286412D01*
X50274412Y-19629378D01*
X50088800Y-20077486D01*
X47447200Y-20077486D01*
X47261588Y-19629378D01*
X46918622Y-19286412D01*
X46470514Y-19100800D01*
X45985486Y-19100800D01*
X45537378Y-19286412D01*
X45194412Y-19629378D01*
X45008800Y-20077486D01*
X44907200Y-20077486D01*
X44721588Y-19629378D01*
X44378622Y-19286412D01*
X43930514Y-19100800D01*
X43445486Y-19100800D01*
X42997378Y-19286412D01*
X42654412Y-19629378D01*
X42468800Y-20077486D01*
X38557200Y-20077486D01*
X38371588Y-19629378D01*
X38028622Y-19286412D01*
X37580514Y-19100800D01*
X37095486Y-19100800D01*
X36647378Y-19286412D01*
X36304412Y-19629378D01*
X36118800Y-20077486D01*
X36118800Y-20562514D01*
X36304412Y-21010622D01*
X36623722Y-21329932D01*
X36612868Y-21384500D01*
X36668065Y-21661996D01*
X36785576Y-21837864D01*
X36785579Y-21837867D01*
X36825255Y-21897246D01*
X36884634Y-21936922D01*
X38203843Y-23256132D01*
X38203843Y-24064000D01*
X38239327Y-24242391D01*
X38340377Y-24393623D01*
X38491609Y-24494673D01*
X38670000Y-24530157D01*
X40070000Y-24530157D01*
X40248391Y-24494673D01*
X40399623Y-24393623D01*
X40500673Y-24242391D01*
X40513000Y-24180419D01*
X40525327Y-24242391D01*
X40619947Y-24384000D01*
X40525327Y-24525609D01*
X40489843Y-24704000D01*
X40489843Y-25999000D01*
X40525327Y-26177391D01*
X40626377Y-26328623D01*
X40747594Y-26409618D01*
X40491445Y-26665767D01*
X40432066Y-26705443D01*
X40392390Y-26764822D01*
X40392387Y-26764825D01*
X40274876Y-26940693D01*
X40219679Y-27218189D01*
X40233612Y-27288235D01*
X40233611Y-31030088D01*
X36364088Y-34899612D01*
X31795399Y-34899610D01*
X31064200Y-34168412D01*
X31064200Y-34162534D01*
X31083673Y-34133391D01*
X31119157Y-33955000D01*
X31119157Y-32405000D01*
X31083673Y-32226609D01*
X30982623Y-32075377D01*
X30831391Y-31974327D01*
X30653000Y-31938843D01*
X30053000Y-31938843D01*
X30045442Y-31940346D01*
X31762089Y-30223700D01*
X34152514Y-30223700D01*
X34175327Y-30338391D01*
X34276377Y-30489623D01*
X34427609Y-30590673D01*
X34606000Y-30626157D01*
X36006000Y-30626157D01*
X36184391Y-30590673D01*
X36335623Y-30489623D01*
X36436673Y-30338391D01*
X36459486Y-30223700D01*
X36881490Y-30223700D01*
X37155378Y-30497588D01*
X37603486Y-30683200D01*
X38088514Y-30683200D01*
X38536622Y-30497588D01*
X38879588Y-30154622D01*
X39065200Y-29706514D01*
X39065200Y-29221486D01*
X38879588Y-28773378D01*
X38536622Y-28430412D01*
X38088514Y-28244800D01*
X37603486Y-28244800D01*
X37155378Y-28430412D01*
X36812412Y-28773378D01*
X36800846Y-28801300D01*
X36459486Y-28801300D01*
X36436673Y-28686609D01*
X36335623Y-28535377D01*
X36184391Y-28434327D01*
X36006000Y-28398843D01*
X34606000Y-28398843D01*
X34427609Y-28434327D01*
X34276377Y-28535377D01*
X34175327Y-28686609D01*
X34152514Y-28801300D01*
X33578298Y-28801300D01*
X33623673Y-28733391D01*
X33659157Y-28555000D01*
X33659157Y-27005000D01*
X33623673Y-26826609D01*
X33604200Y-26797466D01*
X33604200Y-26789088D01*
X33928131Y-26465157D01*
X34736000Y-26465157D01*
X34914391Y-26429673D01*
X35065623Y-26328623D01*
X35166673Y-26177391D01*
X35179000Y-26115419D01*
X35191327Y-26177391D01*
X35292377Y-26328623D01*
X35443609Y-26429673D01*
X35622000Y-26465157D01*
X37022000Y-26465157D01*
X37200391Y-26429673D01*
X37351623Y-26328623D01*
X37452673Y-26177391D01*
X37488157Y-25999000D01*
X37488157Y-24704000D01*
X37452673Y-24525609D01*
X37351623Y-24374377D01*
X37200391Y-24273327D01*
X37022000Y-24237843D01*
X35622000Y-24237843D01*
X35443609Y-24273327D01*
X35292377Y-24374377D01*
X35191327Y-24525609D01*
X35179000Y-24587581D01*
X35166673Y-24525609D01*
X35072053Y-24384000D01*
X35166673Y-24242391D01*
X35202157Y-24064000D01*
X35202157Y-22769000D01*
X35166673Y-22590609D01*
X35065623Y-22439377D01*
X34914391Y-22338327D01*
X34747200Y-22305071D01*
X34747200Y-22168042D01*
X34761132Y-22098000D01*
X34747200Y-22027958D01*
X34747200Y-22027954D01*
X34705936Y-21820504D01*
X34600024Y-21661996D01*
X34588424Y-21644635D01*
X34588422Y-21644633D01*
X34548746Y-21585254D01*
X34489367Y-21545578D01*
X33826426Y-20882638D01*
X33826424Y-20882635D01*
X33477200Y-20533411D01*
X33477200Y-20077486D01*
X33291588Y-19629378D01*
X32948622Y-19286412D01*
X32500514Y-19100800D01*
X32015486Y-19100800D01*
X31567378Y-19286412D01*
X31224412Y-19629378D01*
X31038800Y-20077486D01*
X31038800Y-20562514D01*
X31224412Y-21010622D01*
X31567378Y-21353588D01*
X32015486Y-21539200D01*
X32471411Y-21539200D01*
X32820635Y-21888424D01*
X32820638Y-21888426D01*
X33251802Y-22319591D01*
X33157609Y-22338327D01*
X33006377Y-22439377D01*
X33003243Y-22444067D01*
X32932623Y-22338377D01*
X32781391Y-22237327D01*
X32603000Y-22201843D01*
X31308000Y-22201843D01*
X31129609Y-22237327D01*
X30988000Y-22331947D01*
X30846391Y-22237327D01*
X30668000Y-22201843D01*
X29373000Y-22201843D01*
X29194609Y-22237327D01*
X29043377Y-22338377D01*
X28972757Y-22444067D01*
X28969623Y-22439377D01*
X28818391Y-22338327D01*
X28724197Y-22319591D01*
X29504589Y-21539200D01*
X29960514Y-21539200D01*
X30408622Y-21353588D01*
X30751588Y-21010622D01*
X30937200Y-20562514D01*
X30937200Y-20077486D01*
X30751588Y-19629378D01*
X30408622Y-19286412D01*
X29960514Y-19100800D01*
X29475486Y-19100800D01*
X29027378Y-19286412D01*
X28684412Y-19629378D01*
X28498800Y-20077486D01*
X28498800Y-20533411D01*
X27486634Y-21545578D01*
X27427254Y-21585255D01*
X27387578Y-21644634D01*
X27387576Y-21644636D01*
X27310267Y-21760337D01*
X27270064Y-21820505D01*
X27228800Y-22027955D01*
X27228800Y-22027959D01*
X27214868Y-22098000D01*
X27228800Y-22168042D01*
X27228800Y-22305071D01*
X27061609Y-22338327D01*
X26910377Y-22439377D01*
X26809327Y-22590609D01*
X26773843Y-22769000D01*
X26773843Y-24064000D01*
X26809327Y-24242391D01*
X26903947Y-24384000D01*
X26809327Y-24525609D01*
X26797000Y-24587581D01*
X26784673Y-24525609D01*
X26683623Y-24374377D01*
X26532391Y-24273327D01*
X26354000Y-24237843D01*
X24954000Y-24237843D01*
X24775609Y-24273327D01*
X24624377Y-24374377D01*
X24523327Y-24525609D01*
X24487843Y-24704000D01*
X23875200Y-24704000D01*
X23875200Y-15239200D01*
X78232801Y-15239200D01*
X78232800Y-43688800D01*
G36*
X70059576Y-31743864D02*
X70099254Y-31803246D01*
X70334504Y-31960436D01*
X70541954Y-32001700D01*
X70541958Y-32001700D01*
X70612000Y-32015632D01*
X70682042Y-32001700D01*
X70982514Y-32001700D01*
X71005327Y-32116391D01*
X71106377Y-32267623D01*
X71257609Y-32368673D01*
X71436000Y-32404157D01*
X72836000Y-32404157D01*
X73014391Y-32368673D01*
X73165623Y-32267623D01*
X73266673Y-32116391D01*
X73289486Y-32001700D01*
X73922882Y-32001700D01*
X74076000Y-32032157D01*
X75276000Y-32032157D01*
X75454391Y-31996673D01*
X75488800Y-31973682D01*
X75488801Y-34757410D01*
X74381412Y-35864800D01*
X72517839Y-35864800D01*
X72504673Y-35798609D01*
X72403623Y-35647377D01*
X72252391Y-35546327D01*
X72074000Y-35510843D01*
X70674000Y-35510843D01*
X70495609Y-35546327D01*
X70344377Y-35647377D01*
X70243327Y-35798609D01*
X70207843Y-35977000D01*
X70207843Y-37272000D01*
X70243327Y-37450391D01*
X70337947Y-37592000D01*
X70243327Y-37733609D01*
X70207843Y-37912000D01*
X70207843Y-39207000D01*
X70243327Y-39385391D01*
X70344377Y-39536623D01*
X70495609Y-39637673D01*
X70516800Y-39641888D01*
X70516800Y-39651936D01*
X70251136Y-39917601D01*
X65678157Y-39917601D01*
X65678157Y-38670000D01*
X65642673Y-38491609D01*
X65541623Y-38340377D01*
X65421700Y-38260247D01*
X65421700Y-35768000D01*
X67015843Y-35768000D01*
X67015843Y-36368000D01*
X67051327Y-36546391D01*
X67152377Y-36697623D01*
X67160424Y-36703000D01*
X67152377Y-36708377D01*
X67051327Y-36859609D01*
X67015843Y-37038000D01*
X67015843Y-37638000D01*
X67051327Y-37816391D01*
X67152377Y-37967623D01*
X67303609Y-38068673D01*
X67482000Y-38104157D01*
X68982000Y-38104157D01*
X69160391Y-38068673D01*
X69311623Y-37967623D01*
X69412673Y-37816391D01*
X69448157Y-37638000D01*
X69448157Y-37038000D01*
X69412673Y-36859609D01*
X69311623Y-36708377D01*
X69303576Y-36703000D01*
X69311623Y-36697623D01*
X69412673Y-36546391D01*
X69448157Y-36368000D01*
X69448157Y-35768000D01*
X69412673Y-35589609D01*
X69311623Y-35438377D01*
X69160391Y-35337327D01*
X68982000Y-35301843D01*
X67482000Y-35301843D01*
X67303609Y-35337327D01*
X67152377Y-35438377D01*
X67051327Y-35589609D01*
X67015843Y-35768000D01*
X65421700Y-35768000D01*
X65421700Y-33794920D01*
X65438492Y-33710500D01*
X65421700Y-33626080D01*
X65421700Y-33626076D01*
X65371964Y-33376037D01*
X65182506Y-33092494D01*
X65110934Y-33044671D01*
X65047829Y-32981566D01*
X65039566Y-32969200D01*
X67274466Y-32969200D01*
X67303609Y-32988673D01*
X67482000Y-33024157D01*
X68982000Y-33024157D01*
X69160391Y-32988673D01*
X69311623Y-32887623D01*
X69412673Y-32736391D01*
X69448157Y-32558000D01*
X69448157Y-31958000D01*
X69412673Y-31779609D01*
X69358945Y-31699200D01*
X70014912Y-31699200D01*
X70059576Y-31743864D01*
X70059576Y-31743864D01*
G37*
X70059576Y-31743864D02*
X70099254Y-31803246D01*
X70334504Y-31960436D01*
X70541954Y-32001700D01*
X70541958Y-32001700D01*
X70612000Y-32015632D01*
X70682042Y-32001700D01*
X70982514Y-32001700D01*
X71005327Y-32116391D01*
X71106377Y-32267623D01*
X71257609Y-32368673D01*
X71436000Y-32404157D01*
X72836000Y-32404157D01*
X73014391Y-32368673D01*
X73165623Y-32267623D01*
X73266673Y-32116391D01*
X73289486Y-32001700D01*
X73922882Y-32001700D01*
X74076000Y-32032157D01*
X75276000Y-32032157D01*
X75454391Y-31996673D01*
X75488800Y-31973682D01*
X75488801Y-34757410D01*
X74381412Y-35864800D01*
X72517839Y-35864800D01*
X72504673Y-35798609D01*
X72403623Y-35647377D01*
X72252391Y-35546327D01*
X72074000Y-35510843D01*
X70674000Y-35510843D01*
X70495609Y-35546327D01*
X70344377Y-35647377D01*
X70243327Y-35798609D01*
X70207843Y-35977000D01*
X70207843Y-37272000D01*
X70243327Y-37450391D01*
X70337947Y-37592000D01*
X70243327Y-37733609D01*
X70207843Y-37912000D01*
X70207843Y-39207000D01*
X70243327Y-39385391D01*
X70344377Y-39536623D01*
X70495609Y-39637673D01*
X70516800Y-39641888D01*
X70516800Y-39651936D01*
X70251136Y-39917601D01*
X65678157Y-39917601D01*
X65678157Y-38670000D01*
X65642673Y-38491609D01*
X65541623Y-38340377D01*
X65421700Y-38260247D01*
X65421700Y-35768000D01*
X67015843Y-35768000D01*
X67015843Y-36368000D01*
X67051327Y-36546391D01*
X67152377Y-36697623D01*
X67160424Y-36703000D01*
X67152377Y-36708377D01*
X67051327Y-36859609D01*
X67015843Y-37038000D01*
X67015843Y-37638000D01*
X67051327Y-37816391D01*
X67152377Y-37967623D01*
X67303609Y-38068673D01*
X67482000Y-38104157D01*
X68982000Y-38104157D01*
X69160391Y-38068673D01*
X69311623Y-37967623D01*
X69412673Y-37816391D01*
X69448157Y-37638000D01*
X69448157Y-37038000D01*
X69412673Y-36859609D01*
X69311623Y-36708377D01*
X69303576Y-36703000D01*
X69311623Y-36697623D01*
X69412673Y-36546391D01*
X69448157Y-36368000D01*
X69448157Y-35768000D01*
X69412673Y-35589609D01*
X69311623Y-35438377D01*
X69160391Y-35337327D01*
X68982000Y-35301843D01*
X67482000Y-35301843D01*
X67303609Y-35337327D01*
X67152377Y-35438377D01*
X67051327Y-35589609D01*
X67015843Y-35768000D01*
X65421700Y-35768000D01*
X65421700Y-33794920D01*
X65438492Y-33710500D01*
X65421700Y-33626080D01*
X65421700Y-33626076D01*
X65371964Y-33376037D01*
X65182506Y-33092494D01*
X65110934Y-33044671D01*
X65047829Y-32981566D01*
X65039566Y-32969200D01*
X67274466Y-32969200D01*
X67303609Y-32988673D01*
X67482000Y-33024157D01*
X68982000Y-33024157D01*
X69160391Y-32988673D01*
X69311623Y-32887623D01*
X69412673Y-32736391D01*
X69448157Y-32558000D01*
X69448157Y-31958000D01*
X69412673Y-31779609D01*
X69358945Y-31699200D01*
X70014912Y-31699200D01*
X70059576Y-31743864D01*
M02*
