G04 #@! TF.GenerationSoftware,KiCad,Pcbnew,(5.0.0-rc2-dev-586-g888c43477)*
G04 #@! TF.CreationDate,2018-06-03T12:09:18-03:00*
G04 #@! TF.ProjectId,Signal,5369676E616C2E6B696361645F706362,rev?*
G04 #@! TF.SameCoordinates,Original*
G04 #@! TF.FileFunction,Paste,Bot*
G04 #@! TF.FilePolarity,Positive*
%FSLAX46Y46*%
G04 Gerber Fmt 4.6, Leading zero omitted, Abs format (unit mm)*
G04 Created by KiCad (PCBNEW (5.0.0-rc2-dev-586-g888c43477)) date 06/03/18 12:09:18*
%MOMM*%
%LPD*%
G01*
G04 APERTURE LIST*
%ADD10R,1.400000X1.295000*%
%ADD11R,0.600000X1.550000*%
%ADD12R,1.295000X1.400000*%
%ADD13R,0.900000X0.800000*%
%ADD14R,1.200000X0.900000*%
%ADD15R,1.500000X0.600000*%
G04 APERTURE END LIST*
D10*
X34036000Y-23416500D03*
X34036000Y-25351500D03*
X25654000Y-23416500D03*
X25654000Y-25351500D03*
X36322000Y-25351500D03*
X36322000Y-23416500D03*
X27940000Y-25351500D03*
X27940000Y-23416500D03*
X35306000Y-31447500D03*
X35306000Y-29512500D03*
X39370000Y-23416500D03*
X39370000Y-25351500D03*
D11*
X29083000Y-27780000D03*
X30353000Y-27780000D03*
X31623000Y-27780000D03*
X32893000Y-27780000D03*
X32893000Y-33180000D03*
X31623000Y-33180000D03*
X30353000Y-33180000D03*
X29083000Y-33180000D03*
D10*
X41656000Y-25351500D03*
X41656000Y-23416500D03*
D12*
X31955500Y-23368000D03*
X30020500Y-23368000D03*
D13*
X73136000Y-23942000D03*
X73136000Y-25842000D03*
X71136000Y-24892000D03*
D10*
X72136000Y-33225500D03*
X72136000Y-31290500D03*
D12*
X64564500Y-39370000D03*
X66499500Y-39370000D03*
D14*
X74676000Y-31116000D03*
X74676000Y-34416000D03*
D10*
X71374000Y-36624500D03*
X71374000Y-38559500D03*
D12*
X68120500Y-17780000D03*
X70055500Y-17780000D03*
X71930500Y-28956000D03*
X73865500Y-28956000D03*
D10*
X69088000Y-24892000D03*
X69088000Y-22957000D03*
D12*
X58976500Y-23114000D03*
X60911500Y-23114000D03*
X57101500Y-23114000D03*
X55166500Y-23114000D03*
D15*
X62832000Y-37338000D03*
X62832000Y-36068000D03*
X62832000Y-34798000D03*
X62832000Y-33528000D03*
X62832000Y-32258000D03*
X62832000Y-30988000D03*
X62832000Y-29718000D03*
X68232000Y-29718000D03*
X68232000Y-30988000D03*
X68232000Y-32258000D03*
X68232000Y-33528000D03*
X68232000Y-34798000D03*
X68232000Y-36068000D03*
X68232000Y-37338000D03*
M02*
