G04 #@! TF.GenerationSoftware,KiCad,Pcbnew,(5.0.0-rc2-dev-586-g888c43477)*
G04 #@! TF.CreationDate,2018-06-03T12:09:19-03:00*
G04 #@! TF.ProjectId,Signal,5369676E616C2E6B696361645F706362,rev?*
G04 #@! TF.SameCoordinates,Original*
G04 #@! TF.FileFunction,Legend,Bot*
G04 #@! TF.FilePolarity,Positive*
%FSLAX46Y46*%
G04 Gerber Fmt 4.6, Leading zero omitted, Abs format (unit mm)*
G04 Created by KiCad (PCBNEW (5.0.0-rc2-dev-586-g888c43477)) date 06/03/18 12:09:19*
%MOMM*%
%LPD*%
G01*
G04 APERTURE LIST*
%ADD10C,0.150000*%
%ADD11C,0.120000*%
G04 APERTURE END LIST*
D10*
X28413000Y-28405000D02*
X28463000Y-28405000D01*
X28413000Y-32555000D02*
X28558000Y-32555000D01*
X33563000Y-32555000D02*
X33418000Y-32555000D01*
X33563000Y-28405000D02*
X33418000Y-28405000D01*
X28413000Y-28405000D02*
X28413000Y-32555000D01*
X33563000Y-28405000D02*
X33563000Y-32555000D01*
X28463000Y-28405000D02*
X28463000Y-27005000D01*
D11*
X71376000Y-26472000D02*
X71376000Y-25542000D01*
X71376000Y-23312000D02*
X71376000Y-24242000D01*
X71376000Y-23312000D02*
X73536000Y-23312000D01*
X71376000Y-26472000D02*
X72836000Y-26472000D01*
X73676000Y-30516000D02*
X75676000Y-30516000D01*
X75676000Y-30516000D02*
X75676000Y-34416000D01*
X73676000Y-30516000D02*
X73676000Y-34416000D01*
D10*
X63457000Y-37978000D02*
X63457000Y-37953000D01*
X67607000Y-37978000D02*
X67607000Y-37863000D01*
X67607000Y-29078000D02*
X67607000Y-29193000D01*
X63457000Y-29078000D02*
X63457000Y-29193000D01*
X63457000Y-37978000D02*
X67607000Y-37978000D01*
X63457000Y-29078000D02*
X67607000Y-29078000D01*
X63457000Y-37953000D02*
X62082000Y-37953000D01*
X36138380Y-24217333D02*
X35662190Y-23884000D01*
X36138380Y-23645904D02*
X35138380Y-23645904D01*
X35138380Y-24026857D01*
X35186000Y-24122095D01*
X35233619Y-24169714D01*
X35328857Y-24217333D01*
X35471714Y-24217333D01*
X35566952Y-24169714D01*
X35614571Y-24122095D01*
X35662190Y-24026857D01*
X35662190Y-23645904D01*
X35566952Y-24788761D02*
X35519333Y-24693523D01*
X35471714Y-24645904D01*
X35376476Y-24598285D01*
X35328857Y-24598285D01*
X35233619Y-24645904D01*
X35186000Y-24693523D01*
X35138380Y-24788761D01*
X35138380Y-24979238D01*
X35186000Y-25074476D01*
X35233619Y-25122095D01*
X35328857Y-25169714D01*
X35376476Y-25169714D01*
X35471714Y-25122095D01*
X35519333Y-25074476D01*
X35566952Y-24979238D01*
X35566952Y-24788761D01*
X35614571Y-24693523D01*
X35662190Y-24645904D01*
X35757428Y-24598285D01*
X35947904Y-24598285D01*
X36043142Y-24645904D01*
X36090761Y-24693523D01*
X36138380Y-24788761D01*
X36138380Y-24979238D01*
X36090761Y-25074476D01*
X36043142Y-25122095D01*
X35947904Y-25169714D01*
X35757428Y-25169714D01*
X35662190Y-25122095D01*
X35614571Y-25074476D01*
X35566952Y-24979238D01*
X24456380Y-24217333D02*
X23980190Y-23884000D01*
X24456380Y-23645904D02*
X23456380Y-23645904D01*
X23456380Y-24026857D01*
X23504000Y-24122095D01*
X23551619Y-24169714D01*
X23646857Y-24217333D01*
X23789714Y-24217333D01*
X23884952Y-24169714D01*
X23932571Y-24122095D01*
X23980190Y-24026857D01*
X23980190Y-23645904D01*
X24456380Y-24693523D02*
X24456380Y-24884000D01*
X24408761Y-24979238D01*
X24361142Y-25026857D01*
X24218285Y-25122095D01*
X24027809Y-25169714D01*
X23646857Y-25169714D01*
X23551619Y-25122095D01*
X23504000Y-25074476D01*
X23456380Y-24979238D01*
X23456380Y-24788761D01*
X23504000Y-24693523D01*
X23551619Y-24645904D01*
X23646857Y-24598285D01*
X23884952Y-24598285D01*
X23980190Y-24645904D01*
X24027809Y-24693523D01*
X24075428Y-24788761D01*
X24075428Y-24979238D01*
X24027809Y-25074476D01*
X23980190Y-25122095D01*
X23884952Y-25169714D01*
X35124380Y-23741142D02*
X34648190Y-23407809D01*
X35124380Y-23169714D02*
X34124380Y-23169714D01*
X34124380Y-23550666D01*
X34172000Y-23645904D01*
X34219619Y-23693523D01*
X34314857Y-23741142D01*
X34457714Y-23741142D01*
X34552952Y-23693523D01*
X34600571Y-23645904D01*
X34648190Y-23550666D01*
X34648190Y-23169714D01*
X35124380Y-24693523D02*
X35124380Y-24122095D01*
X35124380Y-24407809D02*
X34124380Y-24407809D01*
X34267238Y-24312571D01*
X34362476Y-24217333D01*
X34410095Y-24122095D01*
X34124380Y-25312571D02*
X34124380Y-25407809D01*
X34172000Y-25503047D01*
X34219619Y-25550666D01*
X34314857Y-25598285D01*
X34505333Y-25645904D01*
X34743428Y-25645904D01*
X34933904Y-25598285D01*
X35029142Y-25550666D01*
X35076761Y-25503047D01*
X35124380Y-25407809D01*
X35124380Y-25312571D01*
X35076761Y-25217333D01*
X35029142Y-25169714D01*
X34933904Y-25122095D01*
X34743428Y-25074476D01*
X34505333Y-25074476D01*
X34314857Y-25122095D01*
X34219619Y-25169714D01*
X34172000Y-25217333D01*
X34124380Y-25312571D01*
X30042380Y-24217333D02*
X29566190Y-23884000D01*
X30042380Y-23645904D02*
X29042380Y-23645904D01*
X29042380Y-24026857D01*
X29090000Y-24122095D01*
X29137619Y-24169714D01*
X29232857Y-24217333D01*
X29375714Y-24217333D01*
X29470952Y-24169714D01*
X29518571Y-24122095D01*
X29566190Y-24026857D01*
X29566190Y-23645904D01*
X29042380Y-24550666D02*
X29042380Y-25217333D01*
X30042380Y-24788761D01*
X34013142Y-30313333D02*
X34060761Y-30265714D01*
X34108380Y-30122857D01*
X34108380Y-30027619D01*
X34060761Y-29884761D01*
X33965523Y-29789523D01*
X33870285Y-29741904D01*
X33679809Y-29694285D01*
X33536952Y-29694285D01*
X33346476Y-29741904D01*
X33251238Y-29789523D01*
X33156000Y-29884761D01*
X33108380Y-30027619D01*
X33108380Y-30122857D01*
X33156000Y-30265714D01*
X33203619Y-30313333D01*
X33108380Y-30646666D02*
X33108380Y-31265714D01*
X33489333Y-30932380D01*
X33489333Y-31075238D01*
X33536952Y-31170476D01*
X33584571Y-31218095D01*
X33679809Y-31265714D01*
X33917904Y-31265714D01*
X34013142Y-31218095D01*
X34060761Y-31170476D01*
X34108380Y-31075238D01*
X34108380Y-30789523D01*
X34060761Y-30694285D01*
X34013142Y-30646666D01*
X38077142Y-24217333D02*
X38124761Y-24169714D01*
X38172380Y-24026857D01*
X38172380Y-23931619D01*
X38124761Y-23788761D01*
X38029523Y-23693523D01*
X37934285Y-23645904D01*
X37743809Y-23598285D01*
X37600952Y-23598285D01*
X37410476Y-23645904D01*
X37315238Y-23693523D01*
X37220000Y-23788761D01*
X37172380Y-23931619D01*
X37172380Y-24026857D01*
X37220000Y-24169714D01*
X37267619Y-24217333D01*
X37505714Y-25074476D02*
X38172380Y-25074476D01*
X37124761Y-24836380D02*
X37839047Y-24598285D01*
X37839047Y-25217333D01*
X26940380Y-29718095D02*
X27749904Y-29718095D01*
X27845142Y-29765714D01*
X27892761Y-29813333D01*
X27940380Y-29908571D01*
X27940380Y-30099047D01*
X27892761Y-30194285D01*
X27845142Y-30241904D01*
X27749904Y-30289523D01*
X26940380Y-30289523D01*
X26940380Y-30670476D02*
X26940380Y-31289523D01*
X27321333Y-30956190D01*
X27321333Y-31099047D01*
X27368952Y-31194285D01*
X27416571Y-31241904D01*
X27511809Y-31289523D01*
X27749904Y-31289523D01*
X27845142Y-31241904D01*
X27892761Y-31194285D01*
X27940380Y-31099047D01*
X27940380Y-30813333D01*
X27892761Y-30718095D01*
X27845142Y-30670476D01*
X40458380Y-24217333D02*
X39982190Y-23884000D01*
X40458380Y-23645904D02*
X39458380Y-23645904D01*
X39458380Y-24026857D01*
X39506000Y-24122095D01*
X39553619Y-24169714D01*
X39648857Y-24217333D01*
X39791714Y-24217333D01*
X39886952Y-24169714D01*
X39934571Y-24122095D01*
X39982190Y-24026857D01*
X39982190Y-23645904D01*
X39458380Y-25122095D02*
X39458380Y-24645904D01*
X39934571Y-24598285D01*
X39886952Y-24645904D01*
X39839333Y-24741142D01*
X39839333Y-24979238D01*
X39886952Y-25074476D01*
X39934571Y-25122095D01*
X40029809Y-25169714D01*
X40267904Y-25169714D01*
X40363142Y-25122095D01*
X40410761Y-25074476D01*
X40458380Y-24979238D01*
X40458380Y-24741142D01*
X40410761Y-24645904D01*
X40363142Y-24598285D01*
X31154666Y-22170380D02*
X31488000Y-21694190D01*
X31726095Y-22170380D02*
X31726095Y-21170380D01*
X31345142Y-21170380D01*
X31249904Y-21218000D01*
X31202285Y-21265619D01*
X31154666Y-21360857D01*
X31154666Y-21503714D01*
X31202285Y-21598952D01*
X31249904Y-21646571D01*
X31345142Y-21694190D01*
X31726095Y-21694190D01*
X30297523Y-21170380D02*
X30488000Y-21170380D01*
X30583238Y-21218000D01*
X30630857Y-21265619D01*
X30726095Y-21408476D01*
X30773714Y-21598952D01*
X30773714Y-21979904D01*
X30726095Y-22075142D01*
X30678476Y-22122761D01*
X30583238Y-22170380D01*
X30392761Y-22170380D01*
X30297523Y-22122761D01*
X30249904Y-22075142D01*
X30202285Y-21979904D01*
X30202285Y-21741809D01*
X30249904Y-21646571D01*
X30297523Y-21598952D01*
X30392761Y-21551333D01*
X30583238Y-21551333D01*
X30678476Y-21598952D01*
X30726095Y-21646571D01*
X30773714Y-21741809D01*
X72231238Y-22939619D02*
X72326476Y-22892000D01*
X72421714Y-22796761D01*
X72564571Y-22653904D01*
X72659809Y-22606285D01*
X72755047Y-22606285D01*
X72707428Y-22844380D02*
X72802666Y-22796761D01*
X72897904Y-22701523D01*
X72945523Y-22511047D01*
X72945523Y-22177714D01*
X72897904Y-21987238D01*
X72802666Y-21892000D01*
X72707428Y-21844380D01*
X72516952Y-21844380D01*
X72421714Y-21892000D01*
X72326476Y-21987238D01*
X72278857Y-22177714D01*
X72278857Y-22511047D01*
X72326476Y-22701523D01*
X72421714Y-22796761D01*
X72516952Y-22844380D01*
X72707428Y-22844380D01*
X71326476Y-22844380D02*
X71897904Y-22844380D01*
X71612190Y-22844380D02*
X71612190Y-21844380D01*
X71707428Y-21987238D01*
X71802666Y-22082476D01*
X71897904Y-22130095D01*
X70843142Y-32091333D02*
X70890761Y-32043714D01*
X70938380Y-31900857D01*
X70938380Y-31805619D01*
X70890761Y-31662761D01*
X70795523Y-31567523D01*
X70700285Y-31519904D01*
X70509809Y-31472285D01*
X70366952Y-31472285D01*
X70176476Y-31519904D01*
X70081238Y-31567523D01*
X69986000Y-31662761D01*
X69938380Y-31805619D01*
X69938380Y-31900857D01*
X69986000Y-32043714D01*
X70033619Y-32091333D01*
X70938380Y-33043714D02*
X70938380Y-32472285D01*
X70938380Y-32758000D02*
X69938380Y-32758000D01*
X70081238Y-32662761D01*
X70176476Y-32567523D01*
X70224095Y-32472285D01*
X65698666Y-41377142D02*
X65746285Y-41424761D01*
X65889142Y-41472380D01*
X65984380Y-41472380D01*
X66127238Y-41424761D01*
X66222476Y-41329523D01*
X66270095Y-41234285D01*
X66317714Y-41043809D01*
X66317714Y-40900952D01*
X66270095Y-40710476D01*
X66222476Y-40615238D01*
X66127238Y-40520000D01*
X65984380Y-40472380D01*
X65889142Y-40472380D01*
X65746285Y-40520000D01*
X65698666Y-40567619D01*
X65317714Y-40567619D02*
X65270095Y-40520000D01*
X65174857Y-40472380D01*
X64936761Y-40472380D01*
X64841523Y-40520000D01*
X64793904Y-40567619D01*
X64746285Y-40662857D01*
X64746285Y-40758095D01*
X64793904Y-40900952D01*
X65365333Y-41472380D01*
X64746285Y-41472380D01*
X73128380Y-32027904D02*
X72128380Y-32027904D01*
X72128380Y-32266000D01*
X72176000Y-32408857D01*
X72271238Y-32504095D01*
X72366476Y-32551714D01*
X72556952Y-32599333D01*
X72699809Y-32599333D01*
X72890285Y-32551714D01*
X72985523Y-32504095D01*
X73080761Y-32408857D01*
X73128380Y-32266000D01*
X73128380Y-32027904D01*
X73128380Y-33551714D02*
X73128380Y-32980285D01*
X73128380Y-33266000D02*
X72128380Y-33266000D01*
X72271238Y-33170761D01*
X72366476Y-33075523D01*
X72414095Y-32980285D01*
X70176380Y-37425333D02*
X69700190Y-37092000D01*
X70176380Y-36853904D02*
X69176380Y-36853904D01*
X69176380Y-37234857D01*
X69224000Y-37330095D01*
X69271619Y-37377714D01*
X69366857Y-37425333D01*
X69509714Y-37425333D01*
X69604952Y-37377714D01*
X69652571Y-37330095D01*
X69700190Y-37234857D01*
X69700190Y-36853904D01*
X70176380Y-38377714D02*
X70176380Y-37806285D01*
X70176380Y-38092000D02*
X69176380Y-38092000D01*
X69319238Y-37996761D01*
X69414476Y-37901523D01*
X69462095Y-37806285D01*
X69254666Y-16582380D02*
X69588000Y-16106190D01*
X69826095Y-16582380D02*
X69826095Y-15582380D01*
X69445142Y-15582380D01*
X69349904Y-15630000D01*
X69302285Y-15677619D01*
X69254666Y-15772857D01*
X69254666Y-15915714D01*
X69302285Y-16010952D01*
X69349904Y-16058571D01*
X69445142Y-16106190D01*
X69826095Y-16106190D01*
X68873714Y-15677619D02*
X68826095Y-15630000D01*
X68730857Y-15582380D01*
X68492761Y-15582380D01*
X68397523Y-15630000D01*
X68349904Y-15677619D01*
X68302285Y-15772857D01*
X68302285Y-15868095D01*
X68349904Y-16010952D01*
X68921333Y-16582380D01*
X68302285Y-16582380D01*
X73064666Y-31058380D02*
X73398000Y-30582190D01*
X73636095Y-31058380D02*
X73636095Y-30058380D01*
X73255142Y-30058380D01*
X73159904Y-30106000D01*
X73112285Y-30153619D01*
X73064666Y-30248857D01*
X73064666Y-30391714D01*
X73112285Y-30486952D01*
X73159904Y-30534571D01*
X73255142Y-30582190D01*
X73636095Y-30582190D01*
X72731333Y-30058380D02*
X72112285Y-30058380D01*
X72445619Y-30439333D01*
X72302761Y-30439333D01*
X72207523Y-30486952D01*
X72159904Y-30534571D01*
X72112285Y-30629809D01*
X72112285Y-30867904D01*
X72159904Y-30963142D01*
X72207523Y-31010761D01*
X72302761Y-31058380D01*
X72588476Y-31058380D01*
X72683714Y-31010761D01*
X72731333Y-30963142D01*
X67890380Y-23757833D02*
X67414190Y-23424500D01*
X67890380Y-23186404D02*
X66890380Y-23186404D01*
X66890380Y-23567357D01*
X66938000Y-23662595D01*
X66985619Y-23710214D01*
X67080857Y-23757833D01*
X67223714Y-23757833D01*
X67318952Y-23710214D01*
X67366571Y-23662595D01*
X67414190Y-23567357D01*
X67414190Y-23186404D01*
X67223714Y-24614976D02*
X67890380Y-24614976D01*
X66842761Y-24376880D02*
X67557047Y-24138785D01*
X67557047Y-24757833D01*
X60586857Y-25216380D02*
X60920190Y-24740190D01*
X61158285Y-25216380D02*
X61158285Y-24216380D01*
X60777333Y-24216380D01*
X60682095Y-24264000D01*
X60634476Y-24311619D01*
X60586857Y-24406857D01*
X60586857Y-24549714D01*
X60634476Y-24644952D01*
X60682095Y-24692571D01*
X60777333Y-24740190D01*
X61158285Y-24740190D01*
X60253523Y-24216380D02*
X59634476Y-24216380D01*
X59967809Y-24597333D01*
X59824952Y-24597333D01*
X59729714Y-24644952D01*
X59682095Y-24692571D01*
X59634476Y-24787809D01*
X59634476Y-25025904D01*
X59682095Y-25121142D01*
X59729714Y-25168761D01*
X59824952Y-25216380D01*
X60110666Y-25216380D01*
X60205904Y-25168761D01*
X60253523Y-25121142D01*
X59301142Y-24216380D02*
X58682095Y-24216380D01*
X59015428Y-24597333D01*
X58872571Y-24597333D01*
X58777333Y-24644952D01*
X58729714Y-24692571D01*
X58682095Y-24787809D01*
X58682095Y-25025904D01*
X58729714Y-25121142D01*
X58777333Y-25168761D01*
X58872571Y-25216380D01*
X59158285Y-25216380D01*
X59253523Y-25168761D01*
X59301142Y-25121142D01*
X56776857Y-21916380D02*
X57110190Y-21440190D01*
X57348285Y-21916380D02*
X57348285Y-20916380D01*
X56967333Y-20916380D01*
X56872095Y-20964000D01*
X56824476Y-21011619D01*
X56776857Y-21106857D01*
X56776857Y-21249714D01*
X56824476Y-21344952D01*
X56872095Y-21392571D01*
X56967333Y-21440190D01*
X57348285Y-21440190D01*
X56443523Y-20916380D02*
X55824476Y-20916380D01*
X56157809Y-21297333D01*
X56014952Y-21297333D01*
X55919714Y-21344952D01*
X55872095Y-21392571D01*
X55824476Y-21487809D01*
X55824476Y-21725904D01*
X55872095Y-21821142D01*
X55919714Y-21868761D01*
X56014952Y-21916380D01*
X56300666Y-21916380D01*
X56395904Y-21868761D01*
X56443523Y-21821142D01*
X54967333Y-21249714D02*
X54967333Y-21916380D01*
X55205428Y-20868761D02*
X55443523Y-21583047D01*
X54824476Y-21583047D01*
X66293904Y-38355380D02*
X66293904Y-39164904D01*
X66246285Y-39260142D01*
X66198666Y-39307761D01*
X66103428Y-39355380D01*
X65912952Y-39355380D01*
X65817714Y-39307761D01*
X65770095Y-39260142D01*
X65722476Y-39164904D01*
X65722476Y-38355380D01*
X65293904Y-38450619D02*
X65246285Y-38403000D01*
X65151047Y-38355380D01*
X64912952Y-38355380D01*
X64817714Y-38403000D01*
X64770095Y-38450619D01*
X64722476Y-38545857D01*
X64722476Y-38641095D01*
X64770095Y-38783952D01*
X65341523Y-39355380D01*
X64722476Y-39355380D01*
M02*
