G04 #@! TF.GenerationSoftware,KiCad,Pcbnew,(5.0.0-rc2-dev-586-g888c43477)*
G04 #@! TF.CreationDate,2018-06-03T12:09:19-03:00*
G04 #@! TF.ProjectId,Signal,5369676E616C2E6B696361645F706362,rev?*
G04 #@! TF.SameCoordinates,Original*
G04 #@! TF.FileFunction,Other,Fab,Bot*
%FSLAX46Y46*%
G04 Gerber Fmt 4.6, Leading zero omitted, Abs format (unit mm)*
G04 Created by KiCad (PCBNEW (5.0.0-rc2-dev-586-g888c43477)) date 06/03/18 12:09:19*
%MOMM*%
%LPD*%
G01*
G04 APERTURE LIST*
%ADD10C,0.100000*%
%ADD11C,0.150000*%
%ADD12C,0.080000*%
%ADD13C,0.075000*%
%ADD14C,0.135000*%
G04 APERTURE END LIST*
D10*
X33436000Y-23384000D02*
X33436000Y-25384000D01*
X34636000Y-23384000D02*
X33436000Y-23384000D01*
X34636000Y-25384000D02*
X34636000Y-23384000D01*
X33436000Y-25384000D02*
X34636000Y-25384000D01*
X26254000Y-23384000D02*
X25054000Y-23384000D01*
X25054000Y-23384000D02*
X25054000Y-25384000D01*
X25054000Y-25384000D02*
X26254000Y-25384000D01*
X26254000Y-25384000D02*
X26254000Y-23384000D01*
X36922000Y-25384000D02*
X36922000Y-23384000D01*
X35722000Y-25384000D02*
X36922000Y-25384000D01*
X35722000Y-23384000D02*
X35722000Y-25384000D01*
X36922000Y-23384000D02*
X35722000Y-23384000D01*
X27340000Y-25384000D02*
X28540000Y-25384000D01*
X28540000Y-25384000D02*
X28540000Y-23384000D01*
X28540000Y-23384000D02*
X27340000Y-23384000D01*
X27340000Y-23384000D02*
X27340000Y-25384000D01*
X35906000Y-31480000D02*
X35906000Y-29480000D01*
X34706000Y-31480000D02*
X35906000Y-31480000D01*
X34706000Y-29480000D02*
X34706000Y-31480000D01*
X35906000Y-29480000D02*
X34706000Y-29480000D01*
X39970000Y-23384000D02*
X38770000Y-23384000D01*
X38770000Y-23384000D02*
X38770000Y-25384000D01*
X38770000Y-25384000D02*
X39970000Y-25384000D01*
X39970000Y-25384000D02*
X39970000Y-23384000D01*
X28538000Y-29530000D02*
X28538000Y-32430000D01*
X28538000Y-32430000D02*
X33438000Y-32430000D01*
X33438000Y-32430000D02*
X33438000Y-28530000D01*
X33438000Y-28530000D02*
X29538000Y-28530000D01*
X29538000Y-28530000D02*
X28538000Y-29530000D01*
X42256000Y-25384000D02*
X42256000Y-23384000D01*
X41056000Y-25384000D02*
X42256000Y-25384000D01*
X41056000Y-23384000D02*
X41056000Y-25384000D01*
X42256000Y-23384000D02*
X41056000Y-23384000D01*
X31988000Y-23968000D02*
X31988000Y-22768000D01*
X31988000Y-22768000D02*
X29988000Y-22768000D01*
X29988000Y-22768000D02*
X29988000Y-23968000D01*
X29988000Y-23968000D02*
X31988000Y-23968000D01*
X72836000Y-23942000D02*
X72836000Y-26392000D01*
X72286000Y-23372000D02*
X71436000Y-23372000D01*
X72836000Y-23942000D02*
X72286000Y-23372000D01*
X71436000Y-23372000D02*
X71436000Y-26412000D01*
X72836000Y-26412000D02*
X71436000Y-26412000D01*
X72736000Y-33258000D02*
X72736000Y-31258000D01*
X71536000Y-33258000D02*
X72736000Y-33258000D01*
X71536000Y-31258000D02*
X71536000Y-33258000D01*
X72736000Y-31258000D02*
X71536000Y-31258000D01*
X64532000Y-38770000D02*
X64532000Y-39970000D01*
X64532000Y-39970000D02*
X66532000Y-39970000D01*
X66532000Y-39970000D02*
X66532000Y-38770000D01*
X66532000Y-38770000D02*
X64532000Y-38770000D01*
X74676000Y-33016000D02*
X74676000Y-33516000D01*
X75076000Y-33016000D02*
X74676000Y-32416000D01*
X74276000Y-33016000D02*
X75076000Y-33016000D01*
X74676000Y-32416000D02*
X74276000Y-33016000D01*
X74676000Y-32416000D02*
X75226000Y-32416000D01*
X74676000Y-32416000D02*
X74126000Y-32416000D01*
X74676000Y-32016000D02*
X74676000Y-32416000D01*
X75576000Y-31366000D02*
X73776000Y-31366000D01*
X75576000Y-34166000D02*
X75576000Y-31366000D01*
X73776000Y-34166000D02*
X75576000Y-34166000D01*
X73776000Y-31366000D02*
X73776000Y-34166000D01*
X71974000Y-36592000D02*
X70774000Y-36592000D01*
X70774000Y-36592000D02*
X70774000Y-38592000D01*
X70774000Y-38592000D02*
X71974000Y-38592000D01*
X71974000Y-38592000D02*
X71974000Y-36592000D01*
X68088000Y-18380000D02*
X70088000Y-18380000D01*
X68088000Y-17180000D02*
X68088000Y-18380000D01*
X70088000Y-17180000D02*
X68088000Y-17180000D01*
X70088000Y-18380000D02*
X70088000Y-17180000D01*
X71898000Y-28356000D02*
X71898000Y-29556000D01*
X71898000Y-29556000D02*
X73898000Y-29556000D01*
X73898000Y-29556000D02*
X73898000Y-28356000D01*
X73898000Y-28356000D02*
X71898000Y-28356000D01*
X69688000Y-24924500D02*
X69688000Y-22924500D01*
X68488000Y-24924500D02*
X69688000Y-24924500D01*
X68488000Y-22924500D02*
X68488000Y-24924500D01*
X69688000Y-22924500D02*
X68488000Y-22924500D01*
X58944000Y-22514000D02*
X58944000Y-23714000D01*
X58944000Y-23714000D02*
X60944000Y-23714000D01*
X60944000Y-23714000D02*
X60944000Y-22514000D01*
X60944000Y-22514000D02*
X58944000Y-22514000D01*
X57134000Y-23714000D02*
X57134000Y-22514000D01*
X57134000Y-22514000D02*
X55134000Y-22514000D01*
X55134000Y-22514000D02*
X55134000Y-23714000D01*
X55134000Y-23714000D02*
X57134000Y-23714000D01*
D11*
X64582000Y-37878000D02*
X67482000Y-37878000D01*
X67482000Y-37878000D02*
X67482000Y-29178000D01*
X67482000Y-29178000D02*
X63582000Y-29178000D01*
X63582000Y-29178000D02*
X63582000Y-36878000D01*
X63582000Y-36878000D02*
X64582000Y-37878000D01*
X32743142Y-23907809D02*
X32790761Y-23955428D01*
X32838380Y-23907809D01*
X32790761Y-23860190D01*
X32743142Y-23907809D01*
X32838380Y-23907809D01*
X31886000Y-23717333D02*
X31838380Y-23812571D01*
X31838380Y-24050666D01*
X31886000Y-24145904D01*
X31981238Y-24193523D01*
X32076476Y-24193523D01*
X32171714Y-24145904D01*
X32219333Y-24098285D01*
X32266952Y-24003047D01*
X32314571Y-23955428D01*
X32409809Y-23907809D01*
X32457428Y-23907809D01*
X32743142Y-24764952D02*
X32790761Y-24812571D01*
X32838380Y-24764952D01*
X32790761Y-24717333D01*
X32743142Y-24764952D01*
X32838380Y-24764952D01*
X31886000Y-24574476D02*
X31838380Y-24669714D01*
X31838380Y-24907809D01*
X31886000Y-25003047D01*
X31981238Y-25050666D01*
X32076476Y-25050666D01*
X32171714Y-25003047D01*
X32219333Y-24955428D01*
X32266952Y-24860190D01*
X32314571Y-24812571D01*
X32409809Y-24764952D01*
X32457428Y-24764952D01*
D12*
X34262190Y-24300666D02*
X34024095Y-24134000D01*
X34262190Y-24014952D02*
X33762190Y-24014952D01*
X33762190Y-24205428D01*
X33786000Y-24253047D01*
X33809809Y-24276857D01*
X33857428Y-24300666D01*
X33928857Y-24300666D01*
X33976476Y-24276857D01*
X34000285Y-24253047D01*
X34024095Y-24205428D01*
X34024095Y-24014952D01*
X33976476Y-24586380D02*
X33952666Y-24538761D01*
X33928857Y-24514952D01*
X33881238Y-24491142D01*
X33857428Y-24491142D01*
X33809809Y-24514952D01*
X33786000Y-24538761D01*
X33762190Y-24586380D01*
X33762190Y-24681619D01*
X33786000Y-24729238D01*
X33809809Y-24753047D01*
X33857428Y-24776857D01*
X33881238Y-24776857D01*
X33928857Y-24753047D01*
X33952666Y-24729238D01*
X33976476Y-24681619D01*
X33976476Y-24586380D01*
X34000285Y-24538761D01*
X34024095Y-24514952D01*
X34071714Y-24491142D01*
X34166952Y-24491142D01*
X34214571Y-24514952D01*
X34238380Y-24538761D01*
X34262190Y-24586380D01*
X34262190Y-24681619D01*
X34238380Y-24729238D01*
X34214571Y-24753047D01*
X34166952Y-24776857D01*
X34071714Y-24776857D01*
X34024095Y-24753047D01*
X34000285Y-24729238D01*
X33976476Y-24681619D01*
D11*
X27661142Y-23907809D02*
X27708761Y-23955428D01*
X27756380Y-23907809D01*
X27708761Y-23860190D01*
X27661142Y-23907809D01*
X27756380Y-23907809D01*
X26804000Y-23717333D02*
X26756380Y-23812571D01*
X26756380Y-24050666D01*
X26804000Y-24145904D01*
X26899238Y-24193523D01*
X26994476Y-24193523D01*
X27089714Y-24145904D01*
X27137333Y-24098285D01*
X27184952Y-24003047D01*
X27232571Y-23955428D01*
X27327809Y-23907809D01*
X27375428Y-23907809D01*
X27661142Y-24764952D02*
X27708761Y-24812571D01*
X27756380Y-24764952D01*
X27708761Y-24717333D01*
X27661142Y-24764952D01*
X27756380Y-24764952D01*
X26804000Y-24574476D02*
X26756380Y-24669714D01*
X26756380Y-24907809D01*
X26804000Y-25003047D01*
X26899238Y-25050666D01*
X26994476Y-25050666D01*
X27089714Y-25003047D01*
X27137333Y-24955428D01*
X27184952Y-24860190D01*
X27232571Y-24812571D01*
X27327809Y-24764952D01*
X27375428Y-24764952D01*
D12*
X25880190Y-24300666D02*
X25642095Y-24134000D01*
X25880190Y-24014952D02*
X25380190Y-24014952D01*
X25380190Y-24205428D01*
X25404000Y-24253047D01*
X25427809Y-24276857D01*
X25475428Y-24300666D01*
X25546857Y-24300666D01*
X25594476Y-24276857D01*
X25618285Y-24253047D01*
X25642095Y-24205428D01*
X25642095Y-24014952D01*
X25880190Y-24538761D02*
X25880190Y-24634000D01*
X25856380Y-24681619D01*
X25832571Y-24705428D01*
X25761142Y-24753047D01*
X25665904Y-24776857D01*
X25475428Y-24776857D01*
X25427809Y-24753047D01*
X25404000Y-24729238D01*
X25380190Y-24681619D01*
X25380190Y-24586380D01*
X25404000Y-24538761D01*
X25427809Y-24514952D01*
X25475428Y-24491142D01*
X25594476Y-24491142D01*
X25642095Y-24514952D01*
X25665904Y-24538761D01*
X25689714Y-24586380D01*
X25689714Y-24681619D01*
X25665904Y-24729238D01*
X25642095Y-24753047D01*
X25594476Y-24776857D01*
D11*
X38329142Y-23907809D02*
X38376761Y-23955428D01*
X38424380Y-23907809D01*
X38376761Y-23860190D01*
X38329142Y-23907809D01*
X38424380Y-23907809D01*
X37472000Y-23717333D02*
X37424380Y-23812571D01*
X37424380Y-24050666D01*
X37472000Y-24145904D01*
X37567238Y-24193523D01*
X37662476Y-24193523D01*
X37757714Y-24145904D01*
X37805333Y-24098285D01*
X37852952Y-24003047D01*
X37900571Y-23955428D01*
X37995809Y-23907809D01*
X38043428Y-23907809D01*
X38329142Y-24764952D02*
X38376761Y-24812571D01*
X38424380Y-24764952D01*
X38376761Y-24717333D01*
X38329142Y-24764952D01*
X38424380Y-24764952D01*
X37472000Y-24574476D02*
X37424380Y-24669714D01*
X37424380Y-24907809D01*
X37472000Y-25003047D01*
X37567238Y-25050666D01*
X37662476Y-25050666D01*
X37757714Y-25003047D01*
X37805333Y-24955428D01*
X37852952Y-24860190D01*
X37900571Y-24812571D01*
X37995809Y-24764952D01*
X38043428Y-24764952D01*
D12*
X36548190Y-24062571D02*
X36310095Y-23895904D01*
X36548190Y-23776857D02*
X36048190Y-23776857D01*
X36048190Y-23967333D01*
X36072000Y-24014952D01*
X36095809Y-24038761D01*
X36143428Y-24062571D01*
X36214857Y-24062571D01*
X36262476Y-24038761D01*
X36286285Y-24014952D01*
X36310095Y-23967333D01*
X36310095Y-23776857D01*
X36548190Y-24538761D02*
X36548190Y-24253047D01*
X36548190Y-24395904D02*
X36048190Y-24395904D01*
X36119619Y-24348285D01*
X36167238Y-24300666D01*
X36191047Y-24253047D01*
X36048190Y-24848285D02*
X36048190Y-24895904D01*
X36072000Y-24943523D01*
X36095809Y-24967333D01*
X36143428Y-24991142D01*
X36238666Y-25014952D01*
X36357714Y-25014952D01*
X36452952Y-24991142D01*
X36500571Y-24967333D01*
X36524380Y-24943523D01*
X36548190Y-24895904D01*
X36548190Y-24848285D01*
X36524380Y-24800666D01*
X36500571Y-24776857D01*
X36452952Y-24753047D01*
X36357714Y-24729238D01*
X36238666Y-24729238D01*
X36143428Y-24753047D01*
X36095809Y-24776857D01*
X36072000Y-24800666D01*
X36048190Y-24848285D01*
D11*
X26647142Y-23907809D02*
X26694761Y-23955428D01*
X26742380Y-23907809D01*
X26694761Y-23860190D01*
X26647142Y-23907809D01*
X26742380Y-23907809D01*
X25790000Y-23717333D02*
X25742380Y-23812571D01*
X25742380Y-24050666D01*
X25790000Y-24145904D01*
X25885238Y-24193523D01*
X25980476Y-24193523D01*
X26075714Y-24145904D01*
X26123333Y-24098285D01*
X26170952Y-24003047D01*
X26218571Y-23955428D01*
X26313809Y-23907809D01*
X26361428Y-23907809D01*
X26647142Y-24764952D02*
X26694761Y-24812571D01*
X26742380Y-24764952D01*
X26694761Y-24717333D01*
X26647142Y-24764952D01*
X26742380Y-24764952D01*
X25790000Y-24574476D02*
X25742380Y-24669714D01*
X25742380Y-24907809D01*
X25790000Y-25003047D01*
X25885238Y-25050666D01*
X25980476Y-25050666D01*
X26075714Y-25003047D01*
X26123333Y-24955428D01*
X26170952Y-24860190D01*
X26218571Y-24812571D01*
X26313809Y-24764952D01*
X26361428Y-24764952D01*
D12*
X28166190Y-24300666D02*
X27928095Y-24134000D01*
X28166190Y-24014952D02*
X27666190Y-24014952D01*
X27666190Y-24205428D01*
X27690000Y-24253047D01*
X27713809Y-24276857D01*
X27761428Y-24300666D01*
X27832857Y-24300666D01*
X27880476Y-24276857D01*
X27904285Y-24253047D01*
X27928095Y-24205428D01*
X27928095Y-24014952D01*
X27666190Y-24467333D02*
X27666190Y-24800666D01*
X28166190Y-24586380D01*
D11*
X37408380Y-28932380D02*
X37408380Y-28360952D01*
X37408380Y-28646666D02*
X36408380Y-28646666D01*
X36551238Y-28551428D01*
X36646476Y-28456190D01*
X36694095Y-28360952D01*
X36408380Y-29551428D02*
X36408380Y-29646666D01*
X36456000Y-29741904D01*
X36503619Y-29789523D01*
X36598857Y-29837142D01*
X36789333Y-29884761D01*
X37027428Y-29884761D01*
X37217904Y-29837142D01*
X37313142Y-29789523D01*
X37360761Y-29741904D01*
X37408380Y-29646666D01*
X37408380Y-29551428D01*
X37360761Y-29456190D01*
X37313142Y-29408571D01*
X37217904Y-29360952D01*
X37027428Y-29313333D01*
X36789333Y-29313333D01*
X36598857Y-29360952D01*
X36503619Y-29408571D01*
X36456000Y-29456190D01*
X36408380Y-29551428D01*
X36408380Y-30503809D02*
X36408380Y-30599047D01*
X36456000Y-30694285D01*
X36503619Y-30741904D01*
X36598857Y-30789523D01*
X36789333Y-30837142D01*
X37027428Y-30837142D01*
X37217904Y-30789523D01*
X37313142Y-30741904D01*
X37360761Y-30694285D01*
X37408380Y-30599047D01*
X37408380Y-30503809D01*
X37360761Y-30408571D01*
X37313142Y-30360952D01*
X37217904Y-30313333D01*
X37027428Y-30265714D01*
X36789333Y-30265714D01*
X36598857Y-30313333D01*
X36503619Y-30360952D01*
X36456000Y-30408571D01*
X36408380Y-30503809D01*
X36741714Y-31265714D02*
X37408380Y-31265714D01*
X36836952Y-31265714D02*
X36789333Y-31313333D01*
X36741714Y-31408571D01*
X36741714Y-31551428D01*
X36789333Y-31646666D01*
X36884571Y-31694285D01*
X37408380Y-31694285D01*
X36884571Y-32503809D02*
X36884571Y-32170476D01*
X37408380Y-32170476D02*
X36408380Y-32170476D01*
X36408380Y-32646666D01*
D12*
X35484571Y-30396666D02*
X35508380Y-30372857D01*
X35532190Y-30301428D01*
X35532190Y-30253809D01*
X35508380Y-30182380D01*
X35460761Y-30134761D01*
X35413142Y-30110952D01*
X35317904Y-30087142D01*
X35246476Y-30087142D01*
X35151238Y-30110952D01*
X35103619Y-30134761D01*
X35056000Y-30182380D01*
X35032190Y-30253809D01*
X35032190Y-30301428D01*
X35056000Y-30372857D01*
X35079809Y-30396666D01*
X35032190Y-30563333D02*
X35032190Y-30872857D01*
X35222666Y-30706190D01*
X35222666Y-30777619D01*
X35246476Y-30825238D01*
X35270285Y-30849047D01*
X35317904Y-30872857D01*
X35436952Y-30872857D01*
X35484571Y-30849047D01*
X35508380Y-30825238D01*
X35532190Y-30777619D01*
X35532190Y-30634761D01*
X35508380Y-30587142D01*
X35484571Y-30563333D01*
D11*
X41377142Y-22193523D02*
X41424761Y-22145904D01*
X41472380Y-22003047D01*
X41472380Y-21907809D01*
X41424761Y-21764952D01*
X41329523Y-21669714D01*
X41234285Y-21622095D01*
X41043809Y-21574476D01*
X40900952Y-21574476D01*
X40710476Y-21622095D01*
X40615238Y-21669714D01*
X40520000Y-21764952D01*
X40472380Y-21907809D01*
X40472380Y-22003047D01*
X40520000Y-22145904D01*
X40567619Y-22193523D01*
X41567619Y-22384000D02*
X41567619Y-23145904D01*
X41424761Y-23336380D02*
X41472380Y-23479238D01*
X41472380Y-23717333D01*
X41424761Y-23812571D01*
X41377142Y-23860190D01*
X41281904Y-23907809D01*
X41186666Y-23907809D01*
X41091428Y-23860190D01*
X41043809Y-23812571D01*
X40996190Y-23717333D01*
X40948571Y-23526857D01*
X40900952Y-23431619D01*
X40853333Y-23384000D01*
X40758095Y-23336380D01*
X40662857Y-23336380D01*
X40567619Y-23384000D01*
X40520000Y-23431619D01*
X40472380Y-23526857D01*
X40472380Y-23764952D01*
X40520000Y-23907809D01*
X41472380Y-24336380D02*
X40805714Y-24336380D01*
X40900952Y-24336380D02*
X40853333Y-24384000D01*
X40805714Y-24479238D01*
X40805714Y-24622095D01*
X40853333Y-24717333D01*
X40948571Y-24764952D01*
X41472380Y-24764952D01*
X40948571Y-24764952D02*
X40853333Y-24812571D01*
X40805714Y-24907809D01*
X40805714Y-25050666D01*
X40853333Y-25145904D01*
X40948571Y-25193523D01*
X41472380Y-25193523D01*
X41472380Y-26098285D02*
X40948571Y-26098285D01*
X40853333Y-26050666D01*
X40805714Y-25955428D01*
X40805714Y-25764952D01*
X40853333Y-25669714D01*
X41424761Y-26098285D02*
X41472380Y-26003047D01*
X41472380Y-25764952D01*
X41424761Y-25669714D01*
X41329523Y-25622095D01*
X41234285Y-25622095D01*
X41139047Y-25669714D01*
X41091428Y-25764952D01*
X41091428Y-26003047D01*
X41043809Y-26098285D01*
X41472380Y-26717333D02*
X41424761Y-26622095D01*
X41329523Y-26574476D01*
X40472380Y-26574476D01*
X41472380Y-27241142D02*
X41424761Y-27145904D01*
X41329523Y-27098285D01*
X40472380Y-27098285D01*
D12*
X39548571Y-24300666D02*
X39572380Y-24276857D01*
X39596190Y-24205428D01*
X39596190Y-24157809D01*
X39572380Y-24086380D01*
X39524761Y-24038761D01*
X39477142Y-24014952D01*
X39381904Y-23991142D01*
X39310476Y-23991142D01*
X39215238Y-24014952D01*
X39167619Y-24038761D01*
X39120000Y-24086380D01*
X39096190Y-24157809D01*
X39096190Y-24205428D01*
X39120000Y-24276857D01*
X39143809Y-24300666D01*
X39262857Y-24729238D02*
X39596190Y-24729238D01*
X39072380Y-24610190D02*
X39429523Y-24491142D01*
X39429523Y-24800666D01*
D11*
X34940380Y-26360952D02*
X33940380Y-26360952D01*
X34940380Y-26837142D02*
X33940380Y-26837142D01*
X34940380Y-27408571D01*
X33940380Y-27408571D01*
X34654666Y-27837142D02*
X34654666Y-28313333D01*
X34940380Y-27741904D02*
X33940380Y-28075238D01*
X34940380Y-28408571D01*
X34368952Y-28884761D02*
X34321333Y-28789523D01*
X34273714Y-28741904D01*
X34178476Y-28694285D01*
X34130857Y-28694285D01*
X34035619Y-28741904D01*
X33988000Y-28789523D01*
X33940380Y-28884761D01*
X33940380Y-29075238D01*
X33988000Y-29170476D01*
X34035619Y-29218095D01*
X34130857Y-29265714D01*
X34178476Y-29265714D01*
X34273714Y-29218095D01*
X34321333Y-29170476D01*
X34368952Y-29075238D01*
X34368952Y-28884761D01*
X34416571Y-28789523D01*
X34464190Y-28741904D01*
X34559428Y-28694285D01*
X34749904Y-28694285D01*
X34845142Y-28741904D01*
X34892761Y-28789523D01*
X34940380Y-28884761D01*
X34940380Y-29075238D01*
X34892761Y-29170476D01*
X34845142Y-29218095D01*
X34749904Y-29265714D01*
X34559428Y-29265714D01*
X34464190Y-29218095D01*
X34416571Y-29170476D01*
X34368952Y-29075238D01*
X34035619Y-29646666D02*
X33988000Y-29694285D01*
X33940380Y-29789523D01*
X33940380Y-30027619D01*
X33988000Y-30122857D01*
X34035619Y-30170476D01*
X34130857Y-30218095D01*
X34226095Y-30218095D01*
X34368952Y-30170476D01*
X34940380Y-29599047D01*
X34940380Y-30218095D01*
X33940380Y-31075238D02*
X33940380Y-30884761D01*
X33988000Y-30789523D01*
X34035619Y-30741904D01*
X34178476Y-30646666D01*
X34368952Y-30599047D01*
X34749904Y-30599047D01*
X34845142Y-30646666D01*
X34892761Y-30694285D01*
X34940380Y-30789523D01*
X34940380Y-30980000D01*
X34892761Y-31075238D01*
X34845142Y-31122857D01*
X34749904Y-31170476D01*
X34511809Y-31170476D01*
X34416571Y-31122857D01*
X34368952Y-31075238D01*
X34321333Y-30980000D01*
X34321333Y-30789523D01*
X34368952Y-30694285D01*
X34416571Y-30646666D01*
X34511809Y-30599047D01*
X35035619Y-31360952D02*
X35035619Y-32122857D01*
X34940380Y-32360952D02*
X33940380Y-32360952D01*
X33940380Y-32599047D01*
X33988000Y-32741904D01*
X34083238Y-32837142D01*
X34178476Y-32884761D01*
X34368952Y-32932380D01*
X34511809Y-32932380D01*
X34702285Y-32884761D01*
X34797523Y-32837142D01*
X34892761Y-32741904D01*
X34940380Y-32599047D01*
X34940380Y-32360952D01*
X35035619Y-33122857D02*
X35035619Y-33884761D01*
X34368952Y-34265714D02*
X34321333Y-34170476D01*
X34273714Y-34122857D01*
X34178476Y-34075238D01*
X34130857Y-34075238D01*
X34035619Y-34122857D01*
X33988000Y-34170476D01*
X33940380Y-34265714D01*
X33940380Y-34456190D01*
X33988000Y-34551428D01*
X34035619Y-34599047D01*
X34130857Y-34646666D01*
X34178476Y-34646666D01*
X34273714Y-34599047D01*
X34321333Y-34551428D01*
X34368952Y-34456190D01*
X34368952Y-34265714D01*
X34416571Y-34170476D01*
X34464190Y-34122857D01*
X34559428Y-34075238D01*
X34749904Y-34075238D01*
X34845142Y-34122857D01*
X34892761Y-34170476D01*
X34940380Y-34265714D01*
X34940380Y-34456190D01*
X34892761Y-34551428D01*
X34845142Y-34599047D01*
X34749904Y-34646666D01*
X34559428Y-34646666D01*
X34464190Y-34599047D01*
X34416571Y-34551428D01*
X34368952Y-34456190D01*
X30440380Y-29718095D02*
X31249904Y-29718095D01*
X31345142Y-29765714D01*
X31392761Y-29813333D01*
X31440380Y-29908571D01*
X31440380Y-30099047D01*
X31392761Y-30194285D01*
X31345142Y-30241904D01*
X31249904Y-30289523D01*
X30440380Y-30289523D01*
X30440380Y-30670476D02*
X30440380Y-31289523D01*
X30821333Y-30956190D01*
X30821333Y-31099047D01*
X30868952Y-31194285D01*
X30916571Y-31241904D01*
X31011809Y-31289523D01*
X31249904Y-31289523D01*
X31345142Y-31241904D01*
X31392761Y-31194285D01*
X31440380Y-31099047D01*
X31440380Y-30813333D01*
X31392761Y-30718095D01*
X31345142Y-30670476D01*
X43663142Y-23907809D02*
X43710761Y-23955428D01*
X43758380Y-23907809D01*
X43710761Y-23860190D01*
X43663142Y-23907809D01*
X43758380Y-23907809D01*
X42806000Y-23717333D02*
X42758380Y-23812571D01*
X42758380Y-24050666D01*
X42806000Y-24145904D01*
X42901238Y-24193523D01*
X42996476Y-24193523D01*
X43091714Y-24145904D01*
X43139333Y-24098285D01*
X43186952Y-24003047D01*
X43234571Y-23955428D01*
X43329809Y-23907809D01*
X43377428Y-23907809D01*
X43663142Y-24764952D02*
X43710761Y-24812571D01*
X43758380Y-24764952D01*
X43710761Y-24717333D01*
X43663142Y-24764952D01*
X43758380Y-24764952D01*
X42806000Y-24574476D02*
X42758380Y-24669714D01*
X42758380Y-24907809D01*
X42806000Y-25003047D01*
X42901238Y-25050666D01*
X42996476Y-25050666D01*
X43091714Y-25003047D01*
X43139333Y-24955428D01*
X43186952Y-24860190D01*
X43234571Y-24812571D01*
X43329809Y-24764952D01*
X43377428Y-24764952D01*
D12*
X41882190Y-24300666D02*
X41644095Y-24134000D01*
X41882190Y-24014952D02*
X41382190Y-24014952D01*
X41382190Y-24205428D01*
X41406000Y-24253047D01*
X41429809Y-24276857D01*
X41477428Y-24300666D01*
X41548857Y-24300666D01*
X41596476Y-24276857D01*
X41620285Y-24253047D01*
X41644095Y-24205428D01*
X41644095Y-24014952D01*
X41382190Y-24753047D02*
X41382190Y-24514952D01*
X41620285Y-24491142D01*
X41596476Y-24514952D01*
X41572666Y-24562571D01*
X41572666Y-24681619D01*
X41596476Y-24729238D01*
X41620285Y-24753047D01*
X41667904Y-24776857D01*
X41786952Y-24776857D01*
X41834571Y-24753047D01*
X41858380Y-24729238D01*
X41882190Y-24681619D01*
X41882190Y-24562571D01*
X41858380Y-24514952D01*
X41834571Y-24491142D01*
D11*
X32702285Y-25470380D02*
X33035619Y-24994190D01*
X33273714Y-25470380D02*
X33273714Y-24470380D01*
X32892761Y-24470380D01*
X32797523Y-24518000D01*
X32749904Y-24565619D01*
X32702285Y-24660857D01*
X32702285Y-24803714D01*
X32749904Y-24898952D01*
X32797523Y-24946571D01*
X32892761Y-24994190D01*
X33273714Y-24994190D01*
X32511809Y-25565619D02*
X31749904Y-25565619D01*
X30988000Y-24518000D02*
X31083238Y-24470380D01*
X31226095Y-24470380D01*
X31368952Y-24518000D01*
X31464190Y-24613238D01*
X31511809Y-24708476D01*
X31559428Y-24898952D01*
X31559428Y-25041809D01*
X31511809Y-25232285D01*
X31464190Y-25327523D01*
X31368952Y-25422761D01*
X31226095Y-25470380D01*
X31130857Y-25470380D01*
X30988000Y-25422761D01*
X30940380Y-25375142D01*
X30940380Y-25041809D01*
X31130857Y-25041809D01*
X30083238Y-25470380D02*
X30083238Y-24946571D01*
X30130857Y-24851333D01*
X30226095Y-24803714D01*
X30416571Y-24803714D01*
X30511809Y-24851333D01*
X30083238Y-25422761D02*
X30178476Y-25470380D01*
X30416571Y-25470380D01*
X30511809Y-25422761D01*
X30559428Y-25327523D01*
X30559428Y-25232285D01*
X30511809Y-25137047D01*
X30416571Y-25089428D01*
X30178476Y-25089428D01*
X30083238Y-25041809D01*
X29607047Y-25470380D02*
X29607047Y-24803714D01*
X29607047Y-24470380D02*
X29654666Y-24518000D01*
X29607047Y-24565619D01*
X29559428Y-24518000D01*
X29607047Y-24470380D01*
X29607047Y-24565619D01*
X29130857Y-24803714D02*
X29130857Y-25470380D01*
X29130857Y-24898952D02*
X29083238Y-24851333D01*
X28988000Y-24803714D01*
X28845142Y-24803714D01*
X28749904Y-24851333D01*
X28702285Y-24946571D01*
X28702285Y-25470380D01*
D12*
X31071333Y-23594190D02*
X31238000Y-23356095D01*
X31357047Y-23594190D02*
X31357047Y-23094190D01*
X31166571Y-23094190D01*
X31118952Y-23118000D01*
X31095142Y-23141809D01*
X31071333Y-23189428D01*
X31071333Y-23260857D01*
X31095142Y-23308476D01*
X31118952Y-23332285D01*
X31166571Y-23356095D01*
X31357047Y-23356095D01*
X30642761Y-23094190D02*
X30738000Y-23094190D01*
X30785619Y-23118000D01*
X30809428Y-23141809D01*
X30857047Y-23213238D01*
X30880857Y-23308476D01*
X30880857Y-23498952D01*
X30857047Y-23546571D01*
X30833238Y-23570380D01*
X30785619Y-23594190D01*
X30690380Y-23594190D01*
X30642761Y-23570380D01*
X30618952Y-23546571D01*
X30595142Y-23498952D01*
X30595142Y-23379904D01*
X30618952Y-23332285D01*
X30642761Y-23308476D01*
X30690380Y-23284666D01*
X30785619Y-23284666D01*
X30833238Y-23308476D01*
X30857047Y-23332285D01*
X30880857Y-23379904D01*
D11*
X79755047Y-27939619D02*
X79850285Y-27892000D01*
X79945523Y-27796761D01*
X80088380Y-27653904D01*
X80183619Y-27606285D01*
X80278857Y-27606285D01*
X80231238Y-27844380D02*
X80326476Y-27796761D01*
X80421714Y-27701523D01*
X80469333Y-27511047D01*
X80469333Y-27177714D01*
X80421714Y-26987238D01*
X80326476Y-26892000D01*
X80231238Y-26844380D01*
X80040761Y-26844380D01*
X79945523Y-26892000D01*
X79850285Y-26987238D01*
X79802666Y-27177714D01*
X79802666Y-27511047D01*
X79850285Y-27701523D01*
X79945523Y-27796761D01*
X80040761Y-27844380D01*
X80231238Y-27844380D01*
X79612190Y-27939619D02*
X78850285Y-27939619D01*
X78612190Y-27844380D02*
X78612190Y-26844380D01*
X78040761Y-27844380D01*
X78040761Y-26844380D01*
X77564571Y-27844380D02*
X77564571Y-26844380D01*
X77183619Y-26844380D01*
X77088380Y-26892000D01*
X77040761Y-26939619D01*
X76993142Y-27034857D01*
X76993142Y-27177714D01*
X77040761Y-27272952D01*
X77088380Y-27320571D01*
X77183619Y-27368190D01*
X77564571Y-27368190D01*
X76564571Y-27844380D02*
X76564571Y-26844380D01*
X75993142Y-27844380D01*
X75993142Y-26844380D01*
X75755047Y-27939619D02*
X74993142Y-27939619D01*
X74755047Y-27844380D02*
X74755047Y-26844380D01*
X74516952Y-26844380D01*
X74374095Y-26892000D01*
X74278857Y-26987238D01*
X74231238Y-27082476D01*
X74183619Y-27272952D01*
X74183619Y-27415809D01*
X74231238Y-27606285D01*
X74278857Y-27701523D01*
X74374095Y-27796761D01*
X74516952Y-27844380D01*
X74755047Y-27844380D01*
X73326476Y-27844380D02*
X73326476Y-27320571D01*
X73374095Y-27225333D01*
X73469333Y-27177714D01*
X73659809Y-27177714D01*
X73755047Y-27225333D01*
X73326476Y-27796761D02*
X73421714Y-27844380D01*
X73659809Y-27844380D01*
X73755047Y-27796761D01*
X73802666Y-27701523D01*
X73802666Y-27606285D01*
X73755047Y-27511047D01*
X73659809Y-27463428D01*
X73421714Y-27463428D01*
X73326476Y-27415809D01*
X72850285Y-27844380D02*
X72850285Y-27177714D01*
X72850285Y-27368190D02*
X72802666Y-27272952D01*
X72755047Y-27225333D01*
X72659809Y-27177714D01*
X72564571Y-27177714D01*
X72088380Y-27844380D02*
X72183619Y-27796761D01*
X72231238Y-27701523D01*
X72231238Y-26844380D01*
X71707428Y-27844380D02*
X71707428Y-27177714D01*
X71707428Y-26844380D02*
X71755047Y-26892000D01*
X71707428Y-26939619D01*
X71659809Y-26892000D01*
X71707428Y-26844380D01*
X71707428Y-26939619D01*
X71231238Y-27177714D02*
X71231238Y-27844380D01*
X71231238Y-27272952D02*
X71183619Y-27225333D01*
X71088380Y-27177714D01*
X70945523Y-27177714D01*
X70850285Y-27225333D01*
X70802666Y-27320571D01*
X70802666Y-27844380D01*
X69897904Y-27177714D02*
X69897904Y-27987238D01*
X69945523Y-28082476D01*
X69993142Y-28130095D01*
X70088380Y-28177714D01*
X70231238Y-28177714D01*
X70326476Y-28130095D01*
X69897904Y-27796761D02*
X69993142Y-27844380D01*
X70183619Y-27844380D01*
X70278857Y-27796761D01*
X70326476Y-27749142D01*
X70374095Y-27653904D01*
X70374095Y-27368190D01*
X70326476Y-27272952D01*
X70278857Y-27225333D01*
X70183619Y-27177714D01*
X69993142Y-27177714D01*
X69897904Y-27225333D01*
X69564571Y-27177714D02*
X69183619Y-27177714D01*
X69421714Y-26844380D02*
X69421714Y-27701523D01*
X69374095Y-27796761D01*
X69278857Y-27844380D01*
X69183619Y-27844380D01*
X68707428Y-27844380D02*
X68802666Y-27796761D01*
X68850285Y-27749142D01*
X68897904Y-27653904D01*
X68897904Y-27368190D01*
X68850285Y-27272952D01*
X68802666Y-27225333D01*
X68707428Y-27177714D01*
X68564571Y-27177714D01*
X68469333Y-27225333D01*
X68421714Y-27272952D01*
X68374095Y-27368190D01*
X68374095Y-27653904D01*
X68421714Y-27749142D01*
X68469333Y-27796761D01*
X68564571Y-27844380D01*
X68707428Y-27844380D01*
X67945523Y-27177714D02*
X67945523Y-27844380D01*
X67945523Y-27272952D02*
X67897904Y-27225333D01*
X67802666Y-27177714D01*
X67659809Y-27177714D01*
X67564571Y-27225333D01*
X67516952Y-27320571D01*
X67516952Y-27844380D01*
X67278857Y-27939619D02*
X66516952Y-27939619D01*
X65945523Y-27320571D02*
X65802666Y-27368190D01*
X65755047Y-27415809D01*
X65707428Y-27511047D01*
X65707428Y-27653904D01*
X65755047Y-27749142D01*
X65802666Y-27796761D01*
X65897904Y-27844380D01*
X66278857Y-27844380D01*
X66278857Y-26844380D01*
X65945523Y-26844380D01*
X65850285Y-26892000D01*
X65802666Y-26939619D01*
X65755047Y-27034857D01*
X65755047Y-27130095D01*
X65802666Y-27225333D01*
X65850285Y-27272952D01*
X65945523Y-27320571D01*
X66278857Y-27320571D01*
X65278857Y-27320571D02*
X64945523Y-27320571D01*
X64802666Y-27844380D02*
X65278857Y-27844380D01*
X65278857Y-26844380D01*
X64802666Y-26844380D01*
X63802666Y-27749142D02*
X63850285Y-27796761D01*
X63993142Y-27844380D01*
X64088380Y-27844380D01*
X64231238Y-27796761D01*
X64326476Y-27701523D01*
X64374095Y-27606285D01*
X64421714Y-27415809D01*
X64421714Y-27272952D01*
X64374095Y-27082476D01*
X64326476Y-26987238D01*
X64231238Y-26892000D01*
X64088380Y-26844380D01*
X63993142Y-26844380D01*
X63850285Y-26892000D01*
X63802666Y-26939619D01*
D13*
X72409809Y-24844380D02*
X72386000Y-24796761D01*
X72338380Y-24749142D01*
X72266952Y-24677714D01*
X72243142Y-24630095D01*
X72243142Y-24582476D01*
X72362190Y-24606285D02*
X72338380Y-24558666D01*
X72290761Y-24511047D01*
X72195523Y-24487238D01*
X72028857Y-24487238D01*
X71933619Y-24511047D01*
X71886000Y-24558666D01*
X71862190Y-24606285D01*
X71862190Y-24701523D01*
X71886000Y-24749142D01*
X71933619Y-24796761D01*
X72028857Y-24820571D01*
X72195523Y-24820571D01*
X72290761Y-24796761D01*
X72338380Y-24749142D01*
X72362190Y-24701523D01*
X72362190Y-24606285D01*
X72362190Y-25296761D02*
X72362190Y-25011047D01*
X72362190Y-25153904D02*
X71862190Y-25153904D01*
X71933619Y-25106285D01*
X71981238Y-25058666D01*
X72005047Y-25011047D01*
D11*
X74143142Y-30067523D02*
X74190761Y-30019904D01*
X74238380Y-29877047D01*
X74238380Y-29781809D01*
X74190761Y-29638952D01*
X74095523Y-29543714D01*
X74000285Y-29496095D01*
X73809809Y-29448476D01*
X73666952Y-29448476D01*
X73476476Y-29496095D01*
X73381238Y-29543714D01*
X73286000Y-29638952D01*
X73238380Y-29781809D01*
X73238380Y-29877047D01*
X73286000Y-30019904D01*
X73333619Y-30067523D01*
X74333619Y-30258000D02*
X74333619Y-31019904D01*
X74190761Y-31210380D02*
X74238380Y-31353238D01*
X74238380Y-31591333D01*
X74190761Y-31686571D01*
X74143142Y-31734190D01*
X74047904Y-31781809D01*
X73952666Y-31781809D01*
X73857428Y-31734190D01*
X73809809Y-31686571D01*
X73762190Y-31591333D01*
X73714571Y-31400857D01*
X73666952Y-31305619D01*
X73619333Y-31258000D01*
X73524095Y-31210380D01*
X73428857Y-31210380D01*
X73333619Y-31258000D01*
X73286000Y-31305619D01*
X73238380Y-31400857D01*
X73238380Y-31638952D01*
X73286000Y-31781809D01*
X74238380Y-32210380D02*
X73571714Y-32210380D01*
X73666952Y-32210380D02*
X73619333Y-32258000D01*
X73571714Y-32353238D01*
X73571714Y-32496095D01*
X73619333Y-32591333D01*
X73714571Y-32638952D01*
X74238380Y-32638952D01*
X73714571Y-32638952D02*
X73619333Y-32686571D01*
X73571714Y-32781809D01*
X73571714Y-32924666D01*
X73619333Y-33019904D01*
X73714571Y-33067523D01*
X74238380Y-33067523D01*
X74238380Y-33972285D02*
X73714571Y-33972285D01*
X73619333Y-33924666D01*
X73571714Y-33829428D01*
X73571714Y-33638952D01*
X73619333Y-33543714D01*
X74190761Y-33972285D02*
X74238380Y-33877047D01*
X74238380Y-33638952D01*
X74190761Y-33543714D01*
X74095523Y-33496095D01*
X74000285Y-33496095D01*
X73905047Y-33543714D01*
X73857428Y-33638952D01*
X73857428Y-33877047D01*
X73809809Y-33972285D01*
X74238380Y-34591333D02*
X74190761Y-34496095D01*
X74095523Y-34448476D01*
X73238380Y-34448476D01*
X74238380Y-35115142D02*
X74190761Y-35019904D01*
X74095523Y-34972285D01*
X73238380Y-34972285D01*
D12*
X72314571Y-32174666D02*
X72338380Y-32150857D01*
X72362190Y-32079428D01*
X72362190Y-32031809D01*
X72338380Y-31960380D01*
X72290761Y-31912761D01*
X72243142Y-31888952D01*
X72147904Y-31865142D01*
X72076476Y-31865142D01*
X71981238Y-31888952D01*
X71933619Y-31912761D01*
X71886000Y-31960380D01*
X71862190Y-32031809D01*
X71862190Y-32079428D01*
X71886000Y-32150857D01*
X71909809Y-32174666D01*
X72362190Y-32650857D02*
X72362190Y-32365142D01*
X72362190Y-32508000D02*
X71862190Y-32508000D01*
X71933619Y-32460380D01*
X71981238Y-32412761D01*
X72005047Y-32365142D01*
D11*
X67079619Y-38172380D02*
X67651047Y-38172380D01*
X67365333Y-38172380D02*
X67365333Y-37172380D01*
X67460571Y-37315238D01*
X67555809Y-37410476D01*
X67651047Y-37458095D01*
X66460571Y-37172380D02*
X66365333Y-37172380D01*
X66270095Y-37220000D01*
X66222476Y-37267619D01*
X66174857Y-37362857D01*
X66127238Y-37553333D01*
X66127238Y-37791428D01*
X66174857Y-37981904D01*
X66222476Y-38077142D01*
X66270095Y-38124761D01*
X66365333Y-38172380D01*
X66460571Y-38172380D01*
X66555809Y-38124761D01*
X66603428Y-38077142D01*
X66651047Y-37981904D01*
X66698666Y-37791428D01*
X66698666Y-37553333D01*
X66651047Y-37362857D01*
X66603428Y-37267619D01*
X66555809Y-37220000D01*
X66460571Y-37172380D01*
X65508190Y-37172380D02*
X65412952Y-37172380D01*
X65317714Y-37220000D01*
X65270095Y-37267619D01*
X65222476Y-37362857D01*
X65174857Y-37553333D01*
X65174857Y-37791428D01*
X65222476Y-37981904D01*
X65270095Y-38077142D01*
X65317714Y-38124761D01*
X65412952Y-38172380D01*
X65508190Y-38172380D01*
X65603428Y-38124761D01*
X65651047Y-38077142D01*
X65698666Y-37981904D01*
X65746285Y-37791428D01*
X65746285Y-37553333D01*
X65698666Y-37362857D01*
X65651047Y-37267619D01*
X65603428Y-37220000D01*
X65508190Y-37172380D01*
X64746285Y-37505714D02*
X64746285Y-38172380D01*
X64746285Y-37600952D02*
X64698666Y-37553333D01*
X64603428Y-37505714D01*
X64460571Y-37505714D01*
X64365333Y-37553333D01*
X64317714Y-37648571D01*
X64317714Y-38172380D01*
X63508190Y-37648571D02*
X63841523Y-37648571D01*
X63841523Y-38172380D02*
X63841523Y-37172380D01*
X63365333Y-37172380D01*
D12*
X65615333Y-39548571D02*
X65639142Y-39572380D01*
X65710571Y-39596190D01*
X65758190Y-39596190D01*
X65829619Y-39572380D01*
X65877238Y-39524761D01*
X65901047Y-39477142D01*
X65924857Y-39381904D01*
X65924857Y-39310476D01*
X65901047Y-39215238D01*
X65877238Y-39167619D01*
X65829619Y-39120000D01*
X65758190Y-39096190D01*
X65710571Y-39096190D01*
X65639142Y-39120000D01*
X65615333Y-39143809D01*
X65424857Y-39143809D02*
X65401047Y-39120000D01*
X65353428Y-39096190D01*
X65234380Y-39096190D01*
X65186761Y-39120000D01*
X65162952Y-39143809D01*
X65139142Y-39191428D01*
X65139142Y-39239047D01*
X65162952Y-39310476D01*
X65448666Y-39596190D01*
X65139142Y-39596190D01*
D11*
X77228380Y-27646952D02*
X76228380Y-27646952D01*
X76942666Y-27980285D01*
X76228380Y-28313619D01*
X77228380Y-28313619D01*
X77228380Y-28789809D02*
X76228380Y-28789809D01*
X76942666Y-29123142D01*
X76228380Y-29456476D01*
X77228380Y-29456476D01*
X77180761Y-29885047D02*
X77228380Y-30027904D01*
X77228380Y-30266000D01*
X77180761Y-30361238D01*
X77133142Y-30408857D01*
X77037904Y-30456476D01*
X76942666Y-30456476D01*
X76847428Y-30408857D01*
X76799809Y-30361238D01*
X76752190Y-30266000D01*
X76704571Y-30075523D01*
X76656952Y-29980285D01*
X76609333Y-29932666D01*
X76514095Y-29885047D01*
X76418857Y-29885047D01*
X76323619Y-29932666D01*
X76276000Y-29980285D01*
X76228380Y-30075523D01*
X76228380Y-30313619D01*
X76276000Y-30456476D01*
X76228380Y-30789809D02*
X76228380Y-31456476D01*
X77228380Y-30789809D01*
X77228380Y-31456476D01*
X76228380Y-32313619D02*
X76228380Y-31837428D01*
X76704571Y-31789809D01*
X76656952Y-31837428D01*
X76609333Y-31932666D01*
X76609333Y-32170761D01*
X76656952Y-32266000D01*
X76704571Y-32313619D01*
X76799809Y-32361238D01*
X77037904Y-32361238D01*
X77133142Y-32313619D01*
X77180761Y-32266000D01*
X77228380Y-32170761D01*
X77228380Y-31932666D01*
X77180761Y-31837428D01*
X77133142Y-31789809D01*
X76323619Y-32742190D02*
X76276000Y-32789809D01*
X76228380Y-32885047D01*
X76228380Y-33123142D01*
X76276000Y-33218380D01*
X76323619Y-33266000D01*
X76418857Y-33313619D01*
X76514095Y-33313619D01*
X76656952Y-33266000D01*
X77228380Y-32694571D01*
X77228380Y-33313619D01*
X76228380Y-33646952D02*
X76228380Y-34266000D01*
X76609333Y-33932666D01*
X76609333Y-34075523D01*
X76656952Y-34170761D01*
X76704571Y-34218380D01*
X76799809Y-34266000D01*
X77037904Y-34266000D01*
X77133142Y-34218380D01*
X77180761Y-34170761D01*
X77228380Y-34075523D01*
X77228380Y-33789809D01*
X77180761Y-33694571D01*
X77133142Y-33646952D01*
X76228380Y-34885047D02*
X76228380Y-34980285D01*
X76276000Y-35075523D01*
X76323619Y-35123142D01*
X76418857Y-35170761D01*
X76609333Y-35218380D01*
X76847428Y-35218380D01*
X77037904Y-35170761D01*
X77133142Y-35123142D01*
X77180761Y-35075523D01*
X77228380Y-34980285D01*
X77228380Y-34885047D01*
X77180761Y-34789809D01*
X77133142Y-34742190D01*
X77037904Y-34694571D01*
X76847428Y-34646952D01*
X76609333Y-34646952D01*
X76418857Y-34694571D01*
X76323619Y-34742190D01*
X76276000Y-34789809D01*
X76228380Y-34885047D01*
X76704571Y-35980285D02*
X76752190Y-36123142D01*
X76799809Y-36170761D01*
X76895047Y-36218380D01*
X77037904Y-36218380D01*
X77133142Y-36170761D01*
X77180761Y-36123142D01*
X77228380Y-36027904D01*
X77228380Y-35646952D01*
X76228380Y-35646952D01*
X76228380Y-35980285D01*
X76276000Y-36075523D01*
X76323619Y-36123142D01*
X76418857Y-36170761D01*
X76514095Y-36170761D01*
X76609333Y-36123142D01*
X76656952Y-36075523D01*
X76704571Y-35980285D01*
X76704571Y-35646952D01*
X76228380Y-36504095D02*
X76228380Y-37075523D01*
X77228380Y-36789809D02*
X76228380Y-36789809D01*
X77228380Y-37932666D02*
X77228380Y-37361238D01*
X77228380Y-37646952D02*
X76228380Y-37646952D01*
X76371238Y-37551714D01*
X76466476Y-37456476D01*
X76514095Y-37361238D01*
X73128380Y-32027904D02*
X72128380Y-32027904D01*
X72128380Y-32266000D01*
X72176000Y-32408857D01*
X72271238Y-32504095D01*
X72366476Y-32551714D01*
X72556952Y-32599333D01*
X72699809Y-32599333D01*
X72890285Y-32551714D01*
X72985523Y-32504095D01*
X73080761Y-32408857D01*
X73128380Y-32266000D01*
X73128380Y-32027904D01*
X73128380Y-33551714D02*
X73128380Y-32980285D01*
X73128380Y-33266000D02*
X72128380Y-33266000D01*
X72271238Y-33170761D01*
X72366476Y-33075523D01*
X72414095Y-32980285D01*
X73476380Y-36520571D02*
X73000190Y-36187238D01*
X73476380Y-35949142D02*
X72476380Y-35949142D01*
X72476380Y-36330095D01*
X72524000Y-36425333D01*
X72571619Y-36472952D01*
X72666857Y-36520571D01*
X72809714Y-36520571D01*
X72904952Y-36472952D01*
X72952571Y-36425333D01*
X73000190Y-36330095D01*
X73000190Y-35949142D01*
X73571619Y-36711047D02*
X73571619Y-37472952D01*
X72476380Y-37711047D02*
X73285904Y-37711047D01*
X73381142Y-37758666D01*
X73428761Y-37806285D01*
X73476380Y-37901523D01*
X73476380Y-38092000D01*
X73428761Y-38187238D01*
X73381142Y-38234857D01*
X73285904Y-38282476D01*
X72476380Y-38282476D01*
X73428761Y-38711047D02*
X73476380Y-38853904D01*
X73476380Y-39092000D01*
X73428761Y-39187238D01*
X73381142Y-39234857D01*
X73285904Y-39282476D01*
X73190666Y-39282476D01*
X73095428Y-39234857D01*
X73047809Y-39187238D01*
X73000190Y-39092000D01*
X72952571Y-38901523D01*
X72904952Y-38806285D01*
X72857333Y-38758666D01*
X72762095Y-38711047D01*
X72666857Y-38711047D01*
X72571619Y-38758666D01*
X72524000Y-38806285D01*
X72476380Y-38901523D01*
X72476380Y-39139619D01*
X72524000Y-39282476D01*
D12*
X71600190Y-37508666D02*
X71362095Y-37342000D01*
X71600190Y-37222952D02*
X71100190Y-37222952D01*
X71100190Y-37413428D01*
X71124000Y-37461047D01*
X71147809Y-37484857D01*
X71195428Y-37508666D01*
X71266857Y-37508666D01*
X71314476Y-37484857D01*
X71338285Y-37461047D01*
X71362095Y-37413428D01*
X71362095Y-37222952D01*
X71600190Y-37984857D02*
X71600190Y-37699142D01*
X71600190Y-37842000D02*
X71100190Y-37842000D01*
X71171619Y-37794380D01*
X71219238Y-37746761D01*
X71243047Y-37699142D01*
D11*
X70159428Y-19882380D02*
X70492761Y-19406190D01*
X70730857Y-19882380D02*
X70730857Y-18882380D01*
X70349904Y-18882380D01*
X70254666Y-18930000D01*
X70207047Y-18977619D01*
X70159428Y-19072857D01*
X70159428Y-19215714D01*
X70207047Y-19310952D01*
X70254666Y-19358571D01*
X70349904Y-19406190D01*
X70730857Y-19406190D01*
X69968952Y-19977619D02*
X69207047Y-19977619D01*
X68968952Y-18882380D02*
X68968952Y-19691904D01*
X68921333Y-19787142D01*
X68873714Y-19834761D01*
X68778476Y-19882380D01*
X68588000Y-19882380D01*
X68492761Y-19834761D01*
X68445142Y-19787142D01*
X68397523Y-19691904D01*
X68397523Y-18882380D01*
X67968952Y-19834761D02*
X67826095Y-19882380D01*
X67588000Y-19882380D01*
X67492761Y-19834761D01*
X67445142Y-19787142D01*
X67397523Y-19691904D01*
X67397523Y-19596666D01*
X67445142Y-19501428D01*
X67492761Y-19453809D01*
X67588000Y-19406190D01*
X67778476Y-19358571D01*
X67873714Y-19310952D01*
X67921333Y-19263333D01*
X67968952Y-19168095D01*
X67968952Y-19072857D01*
X67921333Y-18977619D01*
X67873714Y-18930000D01*
X67778476Y-18882380D01*
X67540380Y-18882380D01*
X67397523Y-18930000D01*
D12*
X69171333Y-18006190D02*
X69338000Y-17768095D01*
X69457047Y-18006190D02*
X69457047Y-17506190D01*
X69266571Y-17506190D01*
X69218952Y-17530000D01*
X69195142Y-17553809D01*
X69171333Y-17601428D01*
X69171333Y-17672857D01*
X69195142Y-17720476D01*
X69218952Y-17744285D01*
X69266571Y-17768095D01*
X69457047Y-17768095D01*
X68980857Y-17553809D02*
X68957047Y-17530000D01*
X68909428Y-17506190D01*
X68790380Y-17506190D01*
X68742761Y-17530000D01*
X68718952Y-17553809D01*
X68695142Y-17601428D01*
X68695142Y-17649047D01*
X68718952Y-17720476D01*
X69004666Y-18006190D01*
X68695142Y-18006190D01*
D11*
X73969428Y-27758380D02*
X74302761Y-27282190D01*
X74540857Y-27758380D02*
X74540857Y-26758380D01*
X74159904Y-26758380D01*
X74064666Y-26806000D01*
X74017047Y-26853619D01*
X73969428Y-26948857D01*
X73969428Y-27091714D01*
X74017047Y-27186952D01*
X74064666Y-27234571D01*
X74159904Y-27282190D01*
X74540857Y-27282190D01*
X73778952Y-27853619D02*
X73017047Y-27853619D01*
X72778952Y-26758380D02*
X72778952Y-27567904D01*
X72731333Y-27663142D01*
X72683714Y-27710761D01*
X72588476Y-27758380D01*
X72398000Y-27758380D01*
X72302761Y-27710761D01*
X72255142Y-27663142D01*
X72207523Y-27567904D01*
X72207523Y-26758380D01*
X71778952Y-27710761D02*
X71636095Y-27758380D01*
X71398000Y-27758380D01*
X71302761Y-27710761D01*
X71255142Y-27663142D01*
X71207523Y-27567904D01*
X71207523Y-27472666D01*
X71255142Y-27377428D01*
X71302761Y-27329809D01*
X71398000Y-27282190D01*
X71588476Y-27234571D01*
X71683714Y-27186952D01*
X71731333Y-27139333D01*
X71778952Y-27044095D01*
X71778952Y-26948857D01*
X71731333Y-26853619D01*
X71683714Y-26806000D01*
X71588476Y-26758380D01*
X71350380Y-26758380D01*
X71207523Y-26806000D01*
D12*
X72981333Y-29182190D02*
X73148000Y-28944095D01*
X73267047Y-29182190D02*
X73267047Y-28682190D01*
X73076571Y-28682190D01*
X73028952Y-28706000D01*
X73005142Y-28729809D01*
X72981333Y-28777428D01*
X72981333Y-28848857D01*
X73005142Y-28896476D01*
X73028952Y-28920285D01*
X73076571Y-28944095D01*
X73267047Y-28944095D01*
X72814666Y-28682190D02*
X72505142Y-28682190D01*
X72671809Y-28872666D01*
X72600380Y-28872666D01*
X72552761Y-28896476D01*
X72528952Y-28920285D01*
X72505142Y-28967904D01*
X72505142Y-29086952D01*
X72528952Y-29134571D01*
X72552761Y-29158380D01*
X72600380Y-29182190D01*
X72743238Y-29182190D01*
X72790857Y-29158380D01*
X72814666Y-29134571D01*
D11*
X71190380Y-22853071D02*
X70714190Y-22519738D01*
X71190380Y-22281642D02*
X70190380Y-22281642D01*
X70190380Y-22662595D01*
X70238000Y-22757833D01*
X70285619Y-22805452D01*
X70380857Y-22853071D01*
X70523714Y-22853071D01*
X70618952Y-22805452D01*
X70666571Y-22757833D01*
X70714190Y-22662595D01*
X70714190Y-22281642D01*
X71285619Y-23043547D02*
X71285619Y-23805452D01*
X70190380Y-24043547D02*
X70999904Y-24043547D01*
X71095142Y-24091166D01*
X71142761Y-24138785D01*
X71190380Y-24234023D01*
X71190380Y-24424500D01*
X71142761Y-24519738D01*
X71095142Y-24567357D01*
X70999904Y-24614976D01*
X70190380Y-24614976D01*
X71142761Y-25043547D02*
X71190380Y-25186404D01*
X71190380Y-25424500D01*
X71142761Y-25519738D01*
X71095142Y-25567357D01*
X70999904Y-25614976D01*
X70904666Y-25614976D01*
X70809428Y-25567357D01*
X70761809Y-25519738D01*
X70714190Y-25424500D01*
X70666571Y-25234023D01*
X70618952Y-25138785D01*
X70571333Y-25091166D01*
X70476095Y-25043547D01*
X70380857Y-25043547D01*
X70285619Y-25091166D01*
X70238000Y-25138785D01*
X70190380Y-25234023D01*
X70190380Y-25472119D01*
X70238000Y-25614976D01*
D12*
X69314190Y-23841166D02*
X69076095Y-23674500D01*
X69314190Y-23555452D02*
X68814190Y-23555452D01*
X68814190Y-23745928D01*
X68838000Y-23793547D01*
X68861809Y-23817357D01*
X68909428Y-23841166D01*
X68980857Y-23841166D01*
X69028476Y-23817357D01*
X69052285Y-23793547D01*
X69076095Y-23745928D01*
X69076095Y-23555452D01*
X68980857Y-24269738D02*
X69314190Y-24269738D01*
X68790380Y-24150690D02*
X69147523Y-24031642D01*
X69147523Y-24341166D01*
D11*
X60420190Y-21821142D02*
X60372571Y-21868761D01*
X60420190Y-21916380D01*
X60467809Y-21868761D01*
X60420190Y-21821142D01*
X60420190Y-21916380D01*
X60610666Y-20964000D02*
X60515428Y-20916380D01*
X60277333Y-20916380D01*
X60182095Y-20964000D01*
X60134476Y-21059238D01*
X60134476Y-21154476D01*
X60182095Y-21249714D01*
X60229714Y-21297333D01*
X60324952Y-21344952D01*
X60372571Y-21392571D01*
X60420190Y-21487809D01*
X60420190Y-21535428D01*
X59563047Y-21821142D02*
X59515428Y-21868761D01*
X59563047Y-21916380D01*
X59610666Y-21868761D01*
X59563047Y-21821142D01*
X59563047Y-21916380D01*
X59753523Y-20964000D02*
X59658285Y-20916380D01*
X59420190Y-20916380D01*
X59324952Y-20964000D01*
X59277333Y-21059238D01*
X59277333Y-21154476D01*
X59324952Y-21249714D01*
X59372571Y-21297333D01*
X59467809Y-21344952D01*
X59515428Y-21392571D01*
X59563047Y-21487809D01*
X59563047Y-21535428D01*
D12*
X60265428Y-23340190D02*
X60432095Y-23102095D01*
X60551142Y-23340190D02*
X60551142Y-22840190D01*
X60360666Y-22840190D01*
X60313047Y-22864000D01*
X60289238Y-22887809D01*
X60265428Y-22935428D01*
X60265428Y-23006857D01*
X60289238Y-23054476D01*
X60313047Y-23078285D01*
X60360666Y-23102095D01*
X60551142Y-23102095D01*
X60098761Y-22840190D02*
X59789238Y-22840190D01*
X59955904Y-23030666D01*
X59884476Y-23030666D01*
X59836857Y-23054476D01*
X59813047Y-23078285D01*
X59789238Y-23125904D01*
X59789238Y-23244952D01*
X59813047Y-23292571D01*
X59836857Y-23316380D01*
X59884476Y-23340190D01*
X60027333Y-23340190D01*
X60074952Y-23316380D01*
X60098761Y-23292571D01*
X59622571Y-22840190D02*
X59313047Y-22840190D01*
X59479714Y-23030666D01*
X59408285Y-23030666D01*
X59360666Y-23054476D01*
X59336857Y-23078285D01*
X59313047Y-23125904D01*
X59313047Y-23244952D01*
X59336857Y-23292571D01*
X59360666Y-23316380D01*
X59408285Y-23340190D01*
X59551142Y-23340190D01*
X59598761Y-23316380D01*
X59622571Y-23292571D01*
D11*
X56610190Y-25121142D02*
X56562571Y-25168761D01*
X56610190Y-25216380D01*
X56657809Y-25168761D01*
X56610190Y-25121142D01*
X56610190Y-25216380D01*
X56800666Y-24264000D02*
X56705428Y-24216380D01*
X56467333Y-24216380D01*
X56372095Y-24264000D01*
X56324476Y-24359238D01*
X56324476Y-24454476D01*
X56372095Y-24549714D01*
X56419714Y-24597333D01*
X56514952Y-24644952D01*
X56562571Y-24692571D01*
X56610190Y-24787809D01*
X56610190Y-24835428D01*
X55753047Y-25121142D02*
X55705428Y-25168761D01*
X55753047Y-25216380D01*
X55800666Y-25168761D01*
X55753047Y-25121142D01*
X55753047Y-25216380D01*
X55943523Y-24264000D02*
X55848285Y-24216380D01*
X55610190Y-24216380D01*
X55514952Y-24264000D01*
X55467333Y-24359238D01*
X55467333Y-24454476D01*
X55514952Y-24549714D01*
X55562571Y-24597333D01*
X55657809Y-24644952D01*
X55705428Y-24692571D01*
X55753047Y-24787809D01*
X55753047Y-24835428D01*
D12*
X56455428Y-23340190D02*
X56622095Y-23102095D01*
X56741142Y-23340190D02*
X56741142Y-22840190D01*
X56550666Y-22840190D01*
X56503047Y-22864000D01*
X56479238Y-22887809D01*
X56455428Y-22935428D01*
X56455428Y-23006857D01*
X56479238Y-23054476D01*
X56503047Y-23078285D01*
X56550666Y-23102095D01*
X56741142Y-23102095D01*
X56288761Y-22840190D02*
X55979238Y-22840190D01*
X56145904Y-23030666D01*
X56074476Y-23030666D01*
X56026857Y-23054476D01*
X56003047Y-23078285D01*
X55979238Y-23125904D01*
X55979238Y-23244952D01*
X56003047Y-23292571D01*
X56026857Y-23316380D01*
X56074476Y-23340190D01*
X56217333Y-23340190D01*
X56264952Y-23316380D01*
X56288761Y-23292571D01*
X55550666Y-23006857D02*
X55550666Y-23340190D01*
X55669714Y-22816380D02*
X55788761Y-23173523D01*
X55479238Y-23173523D01*
D11*
X67222476Y-28605380D02*
X67698666Y-28605380D01*
X67698666Y-27605380D01*
X66889142Y-28605380D02*
X66889142Y-27605380D01*
X66555809Y-28319666D01*
X66222476Y-27605380D01*
X66222476Y-28605380D01*
X65841523Y-27605380D02*
X65222476Y-27605380D01*
X65555809Y-27986333D01*
X65412952Y-27986333D01*
X65317714Y-28033952D01*
X65270095Y-28081571D01*
X65222476Y-28176809D01*
X65222476Y-28414904D01*
X65270095Y-28510142D01*
X65317714Y-28557761D01*
X65412952Y-28605380D01*
X65698666Y-28605380D01*
X65793904Y-28557761D01*
X65841523Y-28510142D01*
X64841523Y-27700619D02*
X64793904Y-27653000D01*
X64698666Y-27605380D01*
X64460571Y-27605380D01*
X64365333Y-27653000D01*
X64317714Y-27700619D01*
X64270095Y-27795857D01*
X64270095Y-27891095D01*
X64317714Y-28033952D01*
X64889142Y-28605380D01*
X64270095Y-28605380D01*
X63412952Y-27938714D02*
X63412952Y-28605380D01*
X63651047Y-27557761D02*
X63889142Y-28272047D01*
X63270095Y-28272047D01*
D14*
X66217714Y-33035142D02*
X66217714Y-33763714D01*
X66174857Y-33849428D01*
X66132000Y-33892285D01*
X66046285Y-33935142D01*
X65874857Y-33935142D01*
X65789142Y-33892285D01*
X65746285Y-33849428D01*
X65703428Y-33763714D01*
X65703428Y-33035142D01*
X65317714Y-33120857D02*
X65274857Y-33078000D01*
X65189142Y-33035142D01*
X64974857Y-33035142D01*
X64889142Y-33078000D01*
X64846285Y-33120857D01*
X64803428Y-33206571D01*
X64803428Y-33292285D01*
X64846285Y-33420857D01*
X65360571Y-33935142D01*
X64803428Y-33935142D01*
M02*
