M48
;DRILL file {KiCad (5.0.0-rc2-dev-586-g888c43477)} date 06/03/18 15:17:20
;FORMAT={-:-/ absolute / inch / decimal}
FMAT,2
INCH,TZ
T1C0.0236
T2C0.0300
T3C0.0866
%
G90
G05
M72
T1
X1.4665Y-1.1583
X1.4665Y-1.2402
X1.6142Y-1.1614
X1.6142Y-1.2402
X2.3622Y-1.3878
X2.365Y-1.2106
X2.72Y-1.54
X2.72Y-1.68
T2
X1.17Y-0.8
X1.27Y-0.8
X1.37Y-0.8
X1.47Y-0.8
X1.62Y-0.8
X1.72Y-0.8
X1.82Y-0.8
X1.92Y-0.8
X2.02Y-0.8
X2.17Y-0.8
X2.27Y-0.8
X2.37Y-0.8
X2.47Y-0.8
X2.62Y-0.8
X2.72Y-0.8
X2.82Y-0.8
X2.92Y-0.8
T3
X1.89Y-1.5938
T0
M30
