G04 #@! TF.GenerationSoftware,KiCad,Pcbnew,(5.0.0-rc2-dev-586-g888c43477)*
G04 #@! TF.CreationDate,2018-06-03T15:17:15-03:00*
G04 #@! TF.ProjectId,Signal,5369676E616C2E6B696361645F706362,rev?*
G04 #@! TF.SameCoordinates,Original*
G04 #@! TF.FileFunction,Copper,L2,Bot,Signal*
G04 #@! TF.FilePolarity,Positive*
%FSLAX46Y46*%
G04 Gerber Fmt 4.6, Leading zero omitted, Abs format (unit mm)*
G04 Created by KiCad (PCBNEW (5.0.0-rc2-dev-586-g888c43477)) date 06/03/18 15:17:15*
%MOMM*%
%LPD*%
G01*
G04 APERTURE LIST*
%ADD10C,3.800000*%
%ADD11R,1.295000X1.400000*%
%ADD12R,1.400000X1.295000*%
%ADD13R,0.600000X1.550000*%
%ADD14R,0.900000X0.800000*%
%ADD15C,1.524000*%
%ADD16R,1.200000X0.900000*%
%ADD17R,1.500000X0.600000*%
%ADD18C,0.508000*%
%ADD19C,0.800000*%
%ADD20C,0.304800*%
G04 APERTURE END LIST*
D10*
X48006000Y-40482000D03*
D11*
X31967500Y-25250000D03*
X30032500Y-25250000D03*
X29717500Y-23000000D03*
X27782500Y-23000000D03*
X32282500Y-23000000D03*
X34217500Y-23000000D03*
D12*
X35306000Y-31447500D03*
X35306000Y-29512500D03*
X38000000Y-23782500D03*
X38000000Y-25717500D03*
D13*
X29083000Y-27780000D03*
X30353000Y-27780000D03*
X31623000Y-27780000D03*
X32893000Y-27780000D03*
X32893000Y-33180000D03*
X31623000Y-33180000D03*
X30353000Y-33180000D03*
X29083000Y-33180000D03*
D12*
X40250000Y-25717500D03*
X40250000Y-23782500D03*
X27000000Y-31467500D03*
X27000000Y-29532500D03*
D14*
X73136000Y-23942000D03*
X73136000Y-25842000D03*
X71136000Y-24892000D03*
D15*
X71628000Y-20320000D03*
X69088000Y-20320000D03*
X66548000Y-20320000D03*
X62738000Y-20320000D03*
X60198000Y-20320000D03*
X57658000Y-20320000D03*
X55118000Y-20320000D03*
X51308000Y-20320000D03*
X48768000Y-20320000D03*
X46228000Y-20320000D03*
X43688000Y-20320000D03*
X41148000Y-20320000D03*
X37338000Y-20320000D03*
X34798000Y-20320000D03*
X32258000Y-20320000D03*
X29718000Y-20320000D03*
X74168000Y-20320000D03*
D12*
X72136000Y-33225500D03*
X72136000Y-31290500D03*
D11*
X64564500Y-39370000D03*
X66499500Y-39370000D03*
D16*
X74676000Y-31116000D03*
X74676000Y-34416000D03*
D12*
X71374000Y-36624500D03*
X71374000Y-38559500D03*
D11*
X68120500Y-17780000D03*
X70055500Y-17780000D03*
X71930500Y-28956000D03*
X73865500Y-28956000D03*
D12*
X69088000Y-24892000D03*
X69088000Y-22957000D03*
D11*
X58976500Y-23114000D03*
X60911500Y-23114000D03*
X57101500Y-23114000D03*
X55166500Y-23114000D03*
D17*
X62832000Y-37338000D03*
X62832000Y-36068000D03*
X62832000Y-34798000D03*
X62832000Y-33528000D03*
X62832000Y-32258000D03*
X62832000Y-30988000D03*
X62832000Y-29718000D03*
X68232000Y-29718000D03*
X68232000Y-30988000D03*
X68232000Y-32258000D03*
X68232000Y-33528000D03*
X68232000Y-34798000D03*
X68232000Y-36068000D03*
X68232000Y-37338000D03*
D15*
X69088026Y-42672000D03*
X69088000Y-39116000D03*
X60070810Y-30750000D03*
X37250000Y-31500002D03*
X41000000Y-31500000D03*
X60000000Y-35250000D03*
X37250000Y-29421187D03*
X41000000Y-29500000D03*
D18*
X71136000Y-24892000D02*
X69088000Y-24892000D01*
X48465500Y-20622500D02*
X48768000Y-20320000D01*
X67782000Y-33528000D02*
X68232000Y-33528000D01*
X66974000Y-33528000D02*
X68232000Y-33528000D01*
X66499500Y-34002500D02*
X66974000Y-33528000D01*
X66499500Y-39370000D02*
X66499500Y-34002500D01*
X73580500Y-34416000D02*
X72390000Y-33225500D01*
X74676000Y-34416000D02*
X73580500Y-34416000D01*
X70309500Y-33528000D02*
X68232000Y-33528000D01*
X72390000Y-33225500D02*
X72087500Y-33528000D01*
X70928000Y-33225500D02*
X72136000Y-33225500D01*
X70309500Y-33528000D02*
X70612000Y-33225500D01*
X70612000Y-33225500D02*
X70928000Y-33225500D01*
X71628000Y-19558000D02*
X71628000Y-20320000D01*
X70055500Y-17780000D02*
X70055500Y-17985500D01*
X70055500Y-17985500D02*
X71628000Y-19558000D01*
X68232000Y-34798000D02*
X68232000Y-33528000D01*
X48514000Y-20574000D02*
X48768000Y-20320000D01*
X48514000Y-20707486D02*
X48514000Y-20574000D01*
X60911500Y-21033500D02*
X60198000Y-20320000D01*
X60911500Y-23114000D02*
X60911500Y-21033500D01*
X60198000Y-20320000D02*
X57658000Y-20320000D01*
X60198000Y-20320000D02*
X64389000Y-16129000D01*
X70055500Y-16572000D02*
X70055500Y-17780000D01*
X64389000Y-16129000D02*
X69612500Y-16129000D01*
X69612500Y-16129000D02*
X70055500Y-16572000D01*
X34798000Y-20320000D02*
X36576000Y-18542000D01*
X39370000Y-18542000D02*
X41148000Y-20320000D01*
X36576000Y-18542000D02*
X39370000Y-18542000D01*
X46990000Y-18542000D02*
X48768000Y-20320000D01*
X39370000Y-18542000D02*
X46990000Y-18542000D01*
X58420000Y-18542000D02*
X60198000Y-20320000D01*
X46990000Y-18542000D02*
X58420000Y-18542000D01*
X68834000Y-39370000D02*
X69088000Y-39116000D01*
X66499500Y-39370000D02*
X68834000Y-39370000D01*
X34798000Y-20320000D02*
X36576000Y-22098000D01*
X60960000Y-29860810D02*
X60832809Y-29988001D01*
X60960000Y-22462500D02*
X60960000Y-29860810D01*
X60832809Y-29988001D02*
X60070810Y-30750000D01*
X35674000Y-23000000D02*
X36576000Y-22098000D01*
X33935000Y-23000000D02*
X35674000Y-23000000D01*
X27782500Y-19717500D02*
X27782500Y-23000000D01*
X28704000Y-18796000D02*
X27782500Y-19717500D01*
X34798000Y-20320000D02*
X33274000Y-18796000D01*
X33274000Y-18796000D02*
X28704000Y-18796000D01*
X33573500Y-33180000D02*
X35306000Y-31447500D01*
X32893000Y-33180000D02*
X33573500Y-33180000D01*
X37197498Y-31447500D02*
X37250000Y-31500002D01*
X35306000Y-31447500D02*
X37197498Y-31447500D01*
X38000000Y-26500000D02*
X38000000Y-25717500D01*
X38687189Y-27187189D02*
X38000000Y-26500000D01*
X38687189Y-32432811D02*
X38687189Y-27187189D01*
X37370000Y-33750000D02*
X38687189Y-32432811D01*
X31623000Y-33180000D02*
X32193000Y-33750000D01*
X32193000Y-33750000D02*
X37370000Y-33750000D01*
X36576000Y-24826000D02*
X36576000Y-22098000D01*
X38000000Y-25717500D02*
X37467500Y-25717500D01*
X37467500Y-25717500D02*
X36576000Y-24826000D01*
X61523199Y-34821199D02*
X61500000Y-34798000D01*
X61523199Y-38724829D02*
X61523199Y-34821199D01*
X65470370Y-42672000D02*
X61523199Y-38724829D01*
X69088026Y-42672000D02*
X65470370Y-42672000D01*
X61500000Y-34798000D02*
X62832000Y-34798000D01*
D19*
X58922370Y-35250000D02*
X60000000Y-35250000D01*
X58556393Y-35250000D02*
X58922370Y-35250000D01*
X54806393Y-31500000D02*
X58556393Y-35250000D01*
X41000000Y-31500000D02*
X54806393Y-31500000D01*
D18*
X61077630Y-35250000D02*
X60000000Y-35250000D01*
X61500000Y-34798000D02*
X61500000Y-34827630D01*
X61500000Y-34827630D02*
X61077630Y-35250000D01*
X74094000Y-23942000D02*
X73136000Y-23942000D01*
X73865500Y-27748000D02*
X75057000Y-26556500D01*
X73865500Y-28956000D02*
X73865500Y-27748000D01*
X75057000Y-24905000D02*
X74094000Y-23942000D01*
X75057000Y-26556500D02*
X75057000Y-24905000D01*
X74501500Y-31290500D02*
X74676000Y-31116000D01*
X72390000Y-31290500D02*
X74501500Y-31290500D01*
X70309500Y-30988000D02*
X68232000Y-30988000D01*
X72390000Y-31290500D02*
X72087500Y-30988000D01*
X70612000Y-31290500D02*
X72136000Y-31290500D01*
X70309500Y-30988000D02*
X70612000Y-31290500D01*
X71874500Y-36624500D02*
X71374000Y-36624500D01*
X75784000Y-31116000D02*
X76200000Y-31532000D01*
X76200000Y-31532000D02*
X76200000Y-35052000D01*
X76200000Y-35052000D02*
X74002000Y-37250000D01*
X74676000Y-31116000D02*
X75784000Y-31116000D01*
X74002000Y-37250000D02*
X72500000Y-37250000D01*
X72500000Y-37250000D02*
X71874500Y-36624500D01*
X64564500Y-40180500D02*
X64564500Y-39370000D01*
X65024000Y-40640000D02*
X64564500Y-40180500D01*
X65035199Y-40628801D02*
X65024000Y-40640000D01*
D19*
X64564500Y-40158102D02*
X65035199Y-40628801D01*
X64564500Y-39370000D02*
X64564500Y-40158102D01*
X65035199Y-40628801D02*
X65181199Y-40774801D01*
X71374000Y-40007000D02*
X71374000Y-38559500D01*
X70606199Y-40774801D02*
X71374000Y-40007000D01*
X65181199Y-40774801D02*
X70606199Y-40774801D01*
D18*
X29083000Y-32417000D02*
X29083000Y-33180000D01*
X29083000Y-33180000D02*
X29083000Y-31897000D01*
X31984880Y-31625620D02*
X34098000Y-29512500D01*
X29083000Y-31897000D02*
X29354380Y-31625620D01*
X34098000Y-29512500D02*
X35306000Y-29512500D01*
X29354380Y-31625620D02*
X31984880Y-31625620D01*
X35306000Y-29512500D02*
X37158687Y-29512500D01*
X37328813Y-29500000D02*
X37250000Y-29421187D01*
X37158687Y-29512500D02*
X37250000Y-29421187D01*
D19*
X74168000Y-20828000D02*
X74168000Y-20320000D01*
X77216000Y-23876000D02*
X74168000Y-20828000D01*
X71559500Y-38559500D02*
X71750000Y-38750000D01*
X71374000Y-38559500D02*
X71559500Y-38559500D01*
X71750000Y-38750000D02*
X72250000Y-38250000D01*
X72250000Y-38250000D02*
X74526000Y-38250000D01*
X74526000Y-38250000D02*
X77216000Y-35560000D01*
X77216000Y-35560000D02*
X77216000Y-23876000D01*
X64564500Y-37870000D02*
X64564500Y-39370000D01*
X41250000Y-29500000D02*
X41633185Y-29883185D01*
X40820800Y-29500000D02*
X41250000Y-29500000D01*
X41633185Y-29883185D02*
X54752014Y-29883185D01*
X54752014Y-29883185D02*
X58396828Y-33528000D01*
X64564500Y-34120500D02*
X64564500Y-37870000D01*
X63972000Y-33528000D02*
X64564500Y-34120500D01*
X58396828Y-33528000D02*
X62832000Y-33528000D01*
X62832000Y-33528000D02*
X63972000Y-33528000D01*
D18*
X68232000Y-37338000D02*
X68232000Y-36068000D01*
X62832000Y-37338000D02*
X62832000Y-36068000D01*
X27217500Y-31250000D02*
X27000000Y-31467500D01*
X27750000Y-31250000D02*
X27217500Y-31250000D01*
X28187189Y-30812811D02*
X27750000Y-31250000D01*
X29873189Y-30812811D02*
X28187189Y-30812811D01*
X31623000Y-27780000D02*
X31623000Y-29063000D01*
X31623000Y-29063000D02*
X29873189Y-30812811D01*
X27782500Y-29532500D02*
X27000000Y-29532500D01*
X28250000Y-30000000D02*
X27782500Y-29532500D01*
X29500000Y-30000000D02*
X28250000Y-30000000D01*
X30353000Y-27780000D02*
X30353000Y-29147000D01*
X30353000Y-29147000D02*
X29500000Y-30000000D01*
X40250000Y-26500000D02*
X40250000Y-25717500D01*
X30353000Y-34103000D02*
X31000000Y-34750000D01*
X31000000Y-34750000D02*
X37519488Y-34750000D01*
X37519488Y-34750000D02*
X39500000Y-32769488D01*
X39500000Y-32769488D02*
X39500000Y-27250000D01*
X30353000Y-33180000D02*
X30353000Y-34103000D01*
X39500000Y-27250000D02*
X40250000Y-26500000D01*
X37592000Y-20574000D02*
X37338000Y-20320000D01*
X38000000Y-23782500D02*
X40250000Y-23782500D01*
X37500000Y-20482000D02*
X37338000Y-20320000D01*
X38000000Y-23782500D02*
X37500000Y-23282500D01*
X37500000Y-23282500D02*
X37500000Y-20482000D01*
X69088000Y-20320000D02*
X69088000Y-22957000D01*
X66548000Y-19352500D02*
X68120500Y-17780000D01*
X66548000Y-20320000D02*
X66548000Y-19352500D01*
X68994000Y-28956000D02*
X68232000Y-29718000D01*
X70152500Y-28956000D02*
X68994000Y-28956000D01*
X70152500Y-28956000D02*
X71930500Y-28956000D01*
X68072000Y-29718000D02*
X68232000Y-29718000D01*
X66548000Y-20320000D02*
X66548000Y-28194000D01*
X66548000Y-28194000D02*
X68072000Y-29718000D01*
X68232000Y-32258000D02*
X62832000Y-32258000D01*
X57101500Y-23114000D02*
X58976500Y-23114000D01*
X58976500Y-23166500D02*
X58976500Y-23114000D01*
X58750000Y-23393000D02*
X58976500Y-23166500D01*
X58750000Y-31500000D02*
X58750000Y-23393000D01*
X62832000Y-32258000D02*
X59508000Y-32258000D01*
X59508000Y-32258000D02*
X58750000Y-31500000D01*
X55118000Y-20320000D02*
X55118000Y-22860000D01*
X55118000Y-22860000D02*
X55069500Y-22908500D01*
X29718000Y-24935500D02*
X30032500Y-25250000D01*
X29931000Y-25351500D02*
X30032500Y-25250000D01*
X29898500Y-25351500D02*
X29931000Y-25351500D01*
X29083000Y-27780000D02*
X29083000Y-26167000D01*
X29083000Y-26167000D02*
X29898500Y-25351500D01*
X30032500Y-23315000D02*
X29717500Y-23000000D01*
X30032500Y-25250000D02*
X30032500Y-23315000D01*
X29717500Y-20320500D02*
X29718000Y-20320000D01*
X29717500Y-23000000D02*
X29717500Y-20320500D01*
X32258000Y-24959500D02*
X31967500Y-25250000D01*
X32893000Y-26175500D02*
X32893000Y-27780000D01*
X31967500Y-25250000D02*
X32893000Y-26175500D01*
X32250000Y-20328000D02*
X32258000Y-20320000D01*
X32250000Y-22750000D02*
X32250000Y-20328000D01*
X31967500Y-25250000D02*
X31967500Y-23032500D01*
X31967500Y-23032500D02*
X32250000Y-22750000D01*
X62382000Y-29718000D02*
X62832000Y-29718000D01*
X62738000Y-20320000D02*
X62738000Y-24130000D01*
X62738000Y-30894000D02*
X62832000Y-30988000D01*
X62738000Y-20320000D02*
X62738000Y-30894000D01*
X62832000Y-29718000D02*
X62832000Y-30988000D01*
X46308000Y-20400000D02*
X46228000Y-20320000D01*
X46005500Y-20542500D02*
X46228000Y-20320000D01*
X45925500Y-20622500D02*
X46228000Y-20320000D01*
X43608000Y-20400000D02*
X43688000Y-20320000D01*
D20*
G36*
X78232800Y-43688800D02*
X23875200Y-43688800D01*
X23875200Y-40013124D01*
X45648800Y-40013124D01*
X45648800Y-40950876D01*
X46007663Y-41817246D01*
X46670754Y-42480337D01*
X47537124Y-42839200D01*
X48474876Y-42839200D01*
X49341246Y-42480337D01*
X50004337Y-41817246D01*
X50363200Y-40950876D01*
X50363200Y-40013124D01*
X50004337Y-39146754D01*
X49341246Y-38483663D01*
X48474876Y-38124800D01*
X47537124Y-38124800D01*
X46670754Y-38483663D01*
X46007663Y-39146754D01*
X45648800Y-40013124D01*
X23875200Y-40013124D01*
X23875200Y-28885000D01*
X25833843Y-28885000D01*
X25833843Y-30180000D01*
X25869327Y-30358391D01*
X25963947Y-30500000D01*
X25869327Y-30641609D01*
X25833843Y-30820000D01*
X25833843Y-32115000D01*
X25869327Y-32293391D01*
X25970377Y-32444623D01*
X26121609Y-32545673D01*
X26300000Y-32581157D01*
X27700000Y-32581157D01*
X27878391Y-32545673D01*
X28029623Y-32444623D01*
X28130673Y-32293391D01*
X28166157Y-32115000D01*
X28166157Y-31827285D01*
X28262746Y-31762746D01*
X28302424Y-31703364D01*
X28466993Y-31538795D01*
X28413065Y-31619504D01*
X28357868Y-31897000D01*
X28371801Y-31967046D01*
X28371801Y-32197464D01*
X28352327Y-32226609D01*
X28316843Y-32405000D01*
X28316843Y-33955000D01*
X28352327Y-34133391D01*
X28453377Y-34284623D01*
X28604609Y-34385673D01*
X28783000Y-34421157D01*
X29383000Y-34421157D01*
X29561391Y-34385673D01*
X29669700Y-34313303D01*
X29683065Y-34380496D01*
X29800576Y-34556364D01*
X29800579Y-34556367D01*
X29840255Y-34615746D01*
X29899634Y-34655422D01*
X30447578Y-35203367D01*
X30487254Y-35262746D01*
X30546633Y-35302422D01*
X30546635Y-35302424D01*
X30722502Y-35419935D01*
X30722503Y-35419935D01*
X30722504Y-35419936D01*
X30929954Y-35461200D01*
X30929957Y-35461200D01*
X30999999Y-35475132D01*
X31070041Y-35461200D01*
X37449447Y-35461200D01*
X37519488Y-35475132D01*
X37589529Y-35461200D01*
X37589534Y-35461200D01*
X37796984Y-35419936D01*
X38032234Y-35262746D01*
X38071912Y-35203364D01*
X39953369Y-33321908D01*
X40012745Y-33282234D01*
X40052420Y-33222857D01*
X40052424Y-33222853D01*
X40169935Y-33046985D01*
X40169936Y-33046984D01*
X40211200Y-32839534D01*
X40211200Y-32839530D01*
X40225132Y-32769488D01*
X40211200Y-32699446D01*
X40211200Y-30435410D01*
X40309378Y-30533588D01*
X40757486Y-30719200D01*
X41242514Y-30719200D01*
X41307316Y-30692358D01*
X41548761Y-30740385D01*
X41548764Y-30740385D01*
X41633184Y-30757177D01*
X41717604Y-30740385D01*
X54396951Y-30740385D01*
X57731001Y-34074437D01*
X57778822Y-34146006D01*
X57850391Y-34193827D01*
X57850392Y-34193828D01*
X57986276Y-34284623D01*
X58062365Y-34335464D01*
X58312404Y-34385200D01*
X58312407Y-34385200D01*
X58396827Y-34401992D01*
X58481247Y-34385200D01*
X63616937Y-34385200D01*
X63707300Y-34475564D01*
X63707300Y-35326767D01*
X63582000Y-35301843D01*
X62082000Y-35301843D01*
X61903609Y-35337327D01*
X61752377Y-35438377D01*
X61651327Y-35589609D01*
X61615843Y-35768000D01*
X61615843Y-36368000D01*
X61651327Y-36546391D01*
X61752377Y-36697623D01*
X61760424Y-36703000D01*
X61752377Y-36708377D01*
X61651327Y-36859609D01*
X61615843Y-37038000D01*
X61615843Y-37638000D01*
X61651327Y-37816391D01*
X61752377Y-37967623D01*
X61903609Y-38068673D01*
X62082000Y-38104157D01*
X63582000Y-38104157D01*
X63707300Y-38079233D01*
X63707300Y-38260247D01*
X63587377Y-38340377D01*
X63486327Y-38491609D01*
X63450843Y-38670000D01*
X63450843Y-40070000D01*
X63486327Y-40248391D01*
X63587377Y-40399623D01*
X63738609Y-40500673D01*
X63766109Y-40506143D01*
X63898672Y-40704537D01*
X63898674Y-40704539D01*
X63946495Y-40776108D01*
X64018064Y-40823929D01*
X64515370Y-41321235D01*
X64563193Y-41392807D01*
X64846736Y-41582265D01*
X65096775Y-41632001D01*
X65096778Y-41632001D01*
X65181198Y-41648793D01*
X65265618Y-41632001D01*
X70521779Y-41632001D01*
X70606199Y-41648793D01*
X70690619Y-41632001D01*
X70690623Y-41632001D01*
X70940662Y-41582265D01*
X71224205Y-41392807D01*
X71272028Y-41321235D01*
X71920437Y-40672827D01*
X71992006Y-40625006D01*
X72039827Y-40553437D01*
X72039829Y-40553435D01*
X72115398Y-40440338D01*
X72181464Y-40341463D01*
X72231200Y-40091424D01*
X72231200Y-40091420D01*
X72247992Y-40007000D01*
X72231200Y-39922580D01*
X72231200Y-39641888D01*
X72252391Y-39637673D01*
X72403623Y-39536623D01*
X72504673Y-39385391D01*
X72540157Y-39207000D01*
X72540157Y-39172106D01*
X72605063Y-39107200D01*
X74441580Y-39107200D01*
X74526000Y-39123992D01*
X74610420Y-39107200D01*
X74610424Y-39107200D01*
X74860463Y-39057464D01*
X75144006Y-38868006D01*
X75191829Y-38796434D01*
X77762437Y-36225827D01*
X77834006Y-36178006D01*
X78023464Y-35894463D01*
X78073200Y-35644424D01*
X78073200Y-35644420D01*
X78089992Y-35560001D01*
X78073200Y-35475582D01*
X78073200Y-23960420D01*
X78089992Y-23876000D01*
X78073200Y-23791580D01*
X78073200Y-23791576D01*
X78023464Y-23541537D01*
X77969600Y-23460924D01*
X77881828Y-23329564D01*
X77881827Y-23329563D01*
X77834006Y-23257994D01*
X77762437Y-23210173D01*
X75307409Y-20755146D01*
X75387200Y-20562514D01*
X75387200Y-20077486D01*
X75201588Y-19629378D01*
X74858622Y-19286412D01*
X74410514Y-19100800D01*
X73925486Y-19100800D01*
X73477378Y-19286412D01*
X73134412Y-19629378D01*
X72948800Y-20077486D01*
X72948800Y-20562514D01*
X73134412Y-21010622D01*
X73477378Y-21353588D01*
X73492400Y-21359810D01*
X73549994Y-21446006D01*
X73621566Y-21493829D01*
X76358801Y-24231065D01*
X76358800Y-30685012D01*
X76336424Y-30662636D01*
X76296746Y-30603254D01*
X76061496Y-30446064D01*
X75854046Y-30404800D01*
X75854041Y-30404800D01*
X75784000Y-30390868D01*
X75713959Y-30404800D01*
X75651342Y-30404800D01*
X75605623Y-30336377D01*
X75454391Y-30235327D01*
X75276000Y-30199843D01*
X74076000Y-30199843D01*
X73897609Y-30235327D01*
X73746377Y-30336377D01*
X73645327Y-30487609D01*
X73627089Y-30579300D01*
X73289486Y-30579300D01*
X73266673Y-30464609D01*
X73165623Y-30313377D01*
X73014391Y-30212327D01*
X72836000Y-30176843D01*
X71436000Y-30176843D01*
X71257609Y-30212327D01*
X71106377Y-30313377D01*
X71005327Y-30464609D01*
X70982514Y-30579300D01*
X70906588Y-30579300D01*
X70861924Y-30534636D01*
X70822246Y-30475254D01*
X70586996Y-30318064D01*
X70379546Y-30276800D01*
X70379541Y-30276800D01*
X70309500Y-30262868D01*
X70239459Y-30276800D01*
X69358945Y-30276800D01*
X69412673Y-30196391D01*
X69448157Y-30018000D01*
X69448157Y-29667200D01*
X70819071Y-29667200D01*
X70852327Y-29834391D01*
X70953377Y-29985623D01*
X71104609Y-30086673D01*
X71283000Y-30122157D01*
X72578000Y-30122157D01*
X72756391Y-30086673D01*
X72898000Y-29992053D01*
X73039609Y-30086673D01*
X73218000Y-30122157D01*
X74513000Y-30122157D01*
X74691391Y-30086673D01*
X74842623Y-29985623D01*
X74943673Y-29834391D01*
X74979157Y-29656000D01*
X74979157Y-28256000D01*
X74943673Y-28077609D01*
X74842623Y-27926377D01*
X74752877Y-27866411D01*
X75510369Y-27108920D01*
X75569745Y-27069246D01*
X75609420Y-27009869D01*
X75609424Y-27009865D01*
X75726935Y-26833998D01*
X75726935Y-26833997D01*
X75726936Y-26833996D01*
X75768200Y-26626546D01*
X75768200Y-26626543D01*
X75782132Y-26556501D01*
X75768200Y-26486459D01*
X75768200Y-24975042D01*
X75782132Y-24905000D01*
X75768200Y-24834958D01*
X75768200Y-24834954D01*
X75726936Y-24627504D01*
X75669689Y-24541828D01*
X75609424Y-24451635D01*
X75609422Y-24451633D01*
X75569746Y-24392254D01*
X75510367Y-24352578D01*
X74646424Y-23488636D01*
X74606746Y-23429254D01*
X74371496Y-23272064D01*
X74164046Y-23230800D01*
X74164041Y-23230800D01*
X74094000Y-23216868D01*
X74023959Y-23230800D01*
X73927933Y-23230800D01*
X73915623Y-23212377D01*
X73764391Y-23111327D01*
X73586000Y-23075843D01*
X72686000Y-23075843D01*
X72507609Y-23111327D01*
X72356377Y-23212377D01*
X72255327Y-23363609D01*
X72219843Y-23542000D01*
X72219843Y-24342000D01*
X72255327Y-24520391D01*
X72356377Y-24671623D01*
X72507609Y-24772673D01*
X72686000Y-24808157D01*
X73586000Y-24808157D01*
X73764391Y-24772673D01*
X73857003Y-24710791D01*
X74345801Y-25199590D01*
X74345800Y-26261911D01*
X73412134Y-27195578D01*
X73352755Y-27235254D01*
X73313079Y-27294633D01*
X73313076Y-27294636D01*
X73195565Y-27470504D01*
X73140368Y-27748000D01*
X73151329Y-27803105D01*
X73039609Y-27825327D01*
X72898000Y-27919947D01*
X72756391Y-27825327D01*
X72578000Y-27789843D01*
X71283000Y-27789843D01*
X71104609Y-27825327D01*
X70953377Y-27926377D01*
X70852327Y-28077609D01*
X70819071Y-28244800D01*
X69064042Y-28244800D01*
X68994000Y-28230868D01*
X68923958Y-28244800D01*
X68923954Y-28244800D01*
X68716504Y-28286064D01*
X68706504Y-28292746D01*
X68540635Y-28403576D01*
X68540633Y-28403578D01*
X68481254Y-28443254D01*
X68441578Y-28502633D01*
X68152000Y-28792211D01*
X67259200Y-27899412D01*
X67259200Y-21333010D01*
X67581588Y-21010622D01*
X67767200Y-20562514D01*
X67767200Y-20077486D01*
X67868800Y-20077486D01*
X67868800Y-20562514D01*
X68054412Y-21010622D01*
X68376800Y-21333010D01*
X68376801Y-21845571D01*
X68209609Y-21878827D01*
X68058377Y-21979877D01*
X67957327Y-22131109D01*
X67921843Y-22309500D01*
X67921843Y-23604500D01*
X67957327Y-23782891D01*
X68051947Y-23924500D01*
X67957327Y-24066109D01*
X67921843Y-24244500D01*
X67921843Y-25539500D01*
X67957327Y-25717891D01*
X68058377Y-25869123D01*
X68209609Y-25970173D01*
X68388000Y-26005657D01*
X69788000Y-26005657D01*
X69966391Y-25970173D01*
X70117623Y-25869123D01*
X70218673Y-25717891D01*
X70241486Y-25603200D01*
X70344067Y-25603200D01*
X70356377Y-25621623D01*
X70507609Y-25722673D01*
X70686000Y-25758157D01*
X71586000Y-25758157D01*
X71764391Y-25722673D01*
X71915623Y-25621623D01*
X72016673Y-25470391D01*
X72052157Y-25292000D01*
X72052157Y-24492000D01*
X72016673Y-24313609D01*
X71915623Y-24162377D01*
X71764391Y-24061327D01*
X71586000Y-24025843D01*
X70686000Y-24025843D01*
X70507609Y-24061327D01*
X70356377Y-24162377D01*
X70344067Y-24180800D01*
X70241486Y-24180800D01*
X70218673Y-24066109D01*
X70124053Y-23924500D01*
X70218673Y-23782891D01*
X70254157Y-23604500D01*
X70254157Y-22309500D01*
X70218673Y-22131109D01*
X70117623Y-21979877D01*
X69966391Y-21878827D01*
X69799200Y-21845571D01*
X69799200Y-21333010D01*
X70121588Y-21010622D01*
X70307200Y-20562514D01*
X70307200Y-20077486D01*
X70121588Y-19629378D01*
X69778622Y-19286412D01*
X69330514Y-19100800D01*
X68845486Y-19100800D01*
X68397378Y-19286412D01*
X68054412Y-19629378D01*
X67868800Y-20077486D01*
X67767200Y-20077486D01*
X67581588Y-19629378D01*
X67429249Y-19477039D01*
X67960132Y-18946157D01*
X68768000Y-18946157D01*
X68946391Y-18910673D01*
X69097623Y-18809623D01*
X69198673Y-18658391D01*
X69234157Y-18480000D01*
X69234157Y-17080000D01*
X69198673Y-16901609D01*
X69097623Y-16750377D01*
X68946391Y-16649327D01*
X68768000Y-16613843D01*
X67473000Y-16613843D01*
X67294609Y-16649327D01*
X67143377Y-16750377D01*
X67042327Y-16901609D01*
X67006843Y-17080000D01*
X67006843Y-17887868D01*
X66094634Y-18800078D01*
X66035255Y-18839754D01*
X65995579Y-18899133D01*
X65995576Y-18899136D01*
X65878065Y-19075004D01*
X65830709Y-19313081D01*
X65514412Y-19629378D01*
X65328800Y-20077486D01*
X65328800Y-20562514D01*
X65514412Y-21010622D01*
X65836800Y-21333010D01*
X65836801Y-28123954D01*
X65822868Y-28194000D01*
X65878065Y-28471496D01*
X65995576Y-28647364D01*
X65995579Y-28647367D01*
X66035255Y-28706746D01*
X66094634Y-28746422D01*
X67015843Y-29667632D01*
X67015843Y-30018000D01*
X67051327Y-30196391D01*
X67152377Y-30347623D01*
X67160424Y-30353000D01*
X67152377Y-30358377D01*
X67051327Y-30509609D01*
X67015843Y-30688000D01*
X67015843Y-31288000D01*
X67051327Y-31466391D01*
X67105055Y-31546800D01*
X63958945Y-31546800D01*
X64012673Y-31466391D01*
X64048157Y-31288000D01*
X64048157Y-30688000D01*
X64012673Y-30509609D01*
X63911623Y-30358377D01*
X63903576Y-30353000D01*
X63911623Y-30347623D01*
X64012673Y-30196391D01*
X64048157Y-30018000D01*
X64048157Y-29418000D01*
X64012673Y-29239609D01*
X63911623Y-29088377D01*
X63760391Y-28987327D01*
X63582000Y-28951843D01*
X63449200Y-28951843D01*
X63449200Y-21333010D01*
X63771588Y-21010622D01*
X63957200Y-20562514D01*
X63957200Y-20077486D01*
X63771588Y-19629378D01*
X63428622Y-19286412D01*
X62980514Y-19100800D01*
X62495486Y-19100800D01*
X62047378Y-19286412D01*
X61704412Y-19629378D01*
X61518800Y-20077486D01*
X61518800Y-20562514D01*
X61704412Y-21010622D01*
X62026800Y-21333010D01*
X62026801Y-28962823D01*
X61903609Y-28987327D01*
X61752377Y-29088377D01*
X61651327Y-29239609D01*
X61615843Y-29418000D01*
X61615843Y-30018000D01*
X61651327Y-30196391D01*
X61752377Y-30347623D01*
X61760424Y-30353000D01*
X61752377Y-30358377D01*
X61651327Y-30509609D01*
X61615843Y-30688000D01*
X61615843Y-31288000D01*
X61651327Y-31466391D01*
X61705055Y-31546800D01*
X59802589Y-31546800D01*
X59461200Y-31205412D01*
X59461200Y-24280157D01*
X59624000Y-24280157D01*
X59802391Y-24244673D01*
X59953623Y-24143623D01*
X60054673Y-23992391D01*
X60090157Y-23814000D01*
X60090157Y-22414000D01*
X60054673Y-22235609D01*
X59953623Y-22084377D01*
X59802391Y-21983327D01*
X59624000Y-21947843D01*
X58329000Y-21947843D01*
X58150609Y-21983327D01*
X58039000Y-22057902D01*
X57927391Y-21983327D01*
X57749000Y-21947843D01*
X56454000Y-21947843D01*
X56275609Y-21983327D01*
X56134000Y-22077947D01*
X55992391Y-21983327D01*
X55829200Y-21950866D01*
X55829200Y-21333010D01*
X56151588Y-21010622D01*
X56337200Y-20562514D01*
X56337200Y-20077486D01*
X56151588Y-19629378D01*
X55808622Y-19286412D01*
X55360514Y-19100800D01*
X54875486Y-19100800D01*
X54427378Y-19286412D01*
X54084412Y-19629378D01*
X53898800Y-20077486D01*
X53898800Y-20562514D01*
X54084412Y-21010622D01*
X54406800Y-21333010D01*
X54406801Y-21970161D01*
X54340609Y-21983327D01*
X54189377Y-22084377D01*
X54088327Y-22235609D01*
X54052843Y-22414000D01*
X54052843Y-23814000D01*
X54088327Y-23992391D01*
X54189377Y-24143623D01*
X54340609Y-24244673D01*
X54519000Y-24280157D01*
X55814000Y-24280157D01*
X55992391Y-24244673D01*
X56134000Y-24150053D01*
X56275609Y-24244673D01*
X56454000Y-24280157D01*
X57749000Y-24280157D01*
X57927391Y-24244673D01*
X58038801Y-24170231D01*
X58038800Y-31429959D01*
X58024868Y-31500000D01*
X58038800Y-31570041D01*
X58038800Y-31570045D01*
X58080064Y-31777495D01*
X58101447Y-31809497D01*
X58197576Y-31953364D01*
X58197578Y-31953366D01*
X58237254Y-32012745D01*
X58296633Y-32052422D01*
X58915011Y-32670800D01*
X58751892Y-32670800D01*
X55417842Y-29336750D01*
X55370020Y-29265179D01*
X55086477Y-29075721D01*
X54836438Y-29025985D01*
X54836434Y-29025985D01*
X54752014Y-29009193D01*
X54667594Y-29025985D01*
X42123309Y-29025985D01*
X42033588Y-28809378D01*
X41690622Y-28466412D01*
X41242514Y-28280800D01*
X40757486Y-28280800D01*
X40309378Y-28466412D01*
X40211200Y-28564590D01*
X40211200Y-27544588D01*
X40703369Y-27052420D01*
X40762745Y-27012746D01*
X40802420Y-26953369D01*
X40802424Y-26953365D01*
X40884081Y-26831157D01*
X40950000Y-26831157D01*
X41128391Y-26795673D01*
X41279623Y-26694623D01*
X41380673Y-26543391D01*
X41416157Y-26365000D01*
X41416157Y-25070000D01*
X41380673Y-24891609D01*
X41286053Y-24750000D01*
X41380673Y-24608391D01*
X41416157Y-24430000D01*
X41416157Y-23135000D01*
X41380673Y-22956609D01*
X41279623Y-22805377D01*
X41128391Y-22704327D01*
X40950000Y-22668843D01*
X39550000Y-22668843D01*
X39371609Y-22704327D01*
X39220377Y-22805377D01*
X39125000Y-22948119D01*
X39029623Y-22805377D01*
X38878391Y-22704327D01*
X38700000Y-22668843D01*
X38211200Y-22668843D01*
X38211200Y-21171010D01*
X38371588Y-21010622D01*
X38557200Y-20562514D01*
X38557200Y-20077486D01*
X42468800Y-20077486D01*
X42468800Y-20562514D01*
X42654412Y-21010622D01*
X42997378Y-21353588D01*
X43445486Y-21539200D01*
X43930514Y-21539200D01*
X44378622Y-21353588D01*
X44721588Y-21010622D01*
X44907200Y-20562514D01*
X44907200Y-20077486D01*
X45008800Y-20077486D01*
X45008800Y-20562514D01*
X45194412Y-21010622D01*
X45537378Y-21353588D01*
X45985486Y-21539200D01*
X46470514Y-21539200D01*
X46918622Y-21353588D01*
X47261588Y-21010622D01*
X47447200Y-20562514D01*
X47447200Y-20077486D01*
X50088800Y-20077486D01*
X50088800Y-20562514D01*
X50274412Y-21010622D01*
X50617378Y-21353588D01*
X51065486Y-21539200D01*
X51550514Y-21539200D01*
X51998622Y-21353588D01*
X52341588Y-21010622D01*
X52527200Y-20562514D01*
X52527200Y-20077486D01*
X52341588Y-19629378D01*
X51998622Y-19286412D01*
X51550514Y-19100800D01*
X51065486Y-19100800D01*
X50617378Y-19286412D01*
X50274412Y-19629378D01*
X50088800Y-20077486D01*
X47447200Y-20077486D01*
X47261588Y-19629378D01*
X46918622Y-19286412D01*
X46470514Y-19100800D01*
X45985486Y-19100800D01*
X45537378Y-19286412D01*
X45194412Y-19629378D01*
X45008800Y-20077486D01*
X44907200Y-20077486D01*
X44721588Y-19629378D01*
X44378622Y-19286412D01*
X43930514Y-19100800D01*
X43445486Y-19100800D01*
X42997378Y-19286412D01*
X42654412Y-19629378D01*
X42468800Y-20077486D01*
X38557200Y-20077486D01*
X38371588Y-19629378D01*
X38028622Y-19286412D01*
X37580514Y-19100800D01*
X37095486Y-19100800D01*
X36647378Y-19286412D01*
X36304412Y-19629378D01*
X36118800Y-20077486D01*
X36118800Y-20562514D01*
X36304412Y-21010622D01*
X36647378Y-21353588D01*
X36788801Y-21412167D01*
X36788800Y-23212458D01*
X36774868Y-23282500D01*
X36788800Y-23352541D01*
X36788800Y-23352545D01*
X36830064Y-23559995D01*
X36833843Y-23565651D01*
X36833843Y-24430000D01*
X36869327Y-24608391D01*
X36970377Y-24759623D01*
X37121609Y-24860673D01*
X37300000Y-24896157D01*
X38700000Y-24896157D01*
X38878391Y-24860673D01*
X39029623Y-24759623D01*
X39125000Y-24616881D01*
X39213947Y-24750000D01*
X39119327Y-24891609D01*
X39083843Y-25070000D01*
X39083843Y-26365000D01*
X39119327Y-26543391D01*
X39151969Y-26592243D01*
X39046634Y-26697578D01*
X38987255Y-26737254D01*
X38947579Y-26796633D01*
X38947576Y-26796636D01*
X38830065Y-26972504D01*
X38774868Y-27250000D01*
X38788801Y-27320046D01*
X38788800Y-32474899D01*
X37224900Y-34038800D01*
X31294589Y-34038800D01*
X31119157Y-33863369D01*
X31119157Y-32405000D01*
X31105595Y-32336820D01*
X31914839Y-32336820D01*
X31984880Y-32350752D01*
X32054921Y-32336820D01*
X32054926Y-32336820D01*
X32262376Y-32295556D01*
X32497626Y-32138366D01*
X32537304Y-32078984D01*
X34216411Y-30399878D01*
X34276377Y-30489623D01*
X34427609Y-30590673D01*
X34606000Y-30626157D01*
X36006000Y-30626157D01*
X36184391Y-30590673D01*
X36335623Y-30489623D01*
X36436673Y-30338391D01*
X36437722Y-30333119D01*
X36559378Y-30454775D01*
X37007486Y-30640387D01*
X37492514Y-30640387D01*
X37940622Y-30454775D01*
X38283588Y-30111809D01*
X38469200Y-29663701D01*
X38469200Y-29178673D01*
X38283588Y-28730565D01*
X37940622Y-28387599D01*
X37492514Y-28201987D01*
X37007486Y-28201987D01*
X36559378Y-28387599D01*
X36366055Y-28580922D01*
X36335623Y-28535377D01*
X36184391Y-28434327D01*
X36006000Y-28398843D01*
X34606000Y-28398843D01*
X34427609Y-28434327D01*
X34276377Y-28535377D01*
X34175327Y-28686609D01*
X34153105Y-28798329D01*
X34098000Y-28787368D01*
X34027958Y-28801300D01*
X34027954Y-28801300D01*
X33820504Y-28842564D01*
X33781295Y-28868763D01*
X33644635Y-28960076D01*
X33644633Y-28960078D01*
X33585254Y-28999754D01*
X33545578Y-29059133D01*
X31690292Y-30914420D01*
X30777368Y-30914420D01*
X32076367Y-29615422D01*
X32135746Y-29575746D01*
X32175422Y-29516367D01*
X32175424Y-29516365D01*
X32292935Y-29340498D01*
X32292935Y-29340497D01*
X32292936Y-29340496D01*
X32334200Y-29133046D01*
X32334200Y-29133043D01*
X32348132Y-29063001D01*
X32334200Y-28992959D01*
X32334200Y-28931945D01*
X32414609Y-28985673D01*
X32593000Y-29021157D01*
X33193000Y-29021157D01*
X33371391Y-28985673D01*
X33522623Y-28884623D01*
X33623673Y-28733391D01*
X33659157Y-28555000D01*
X33659157Y-27005000D01*
X33623673Y-26826609D01*
X33604200Y-26797466D01*
X33604200Y-26245542D01*
X33618132Y-26175500D01*
X33604200Y-26105458D01*
X33604200Y-26105454D01*
X33562936Y-25898004D01*
X33499071Y-25802424D01*
X33445424Y-25722135D01*
X33445420Y-25722131D01*
X33405745Y-25662754D01*
X33346369Y-25623080D01*
X33081157Y-25357868D01*
X33081157Y-24550000D01*
X33045673Y-24371609D01*
X32944623Y-24220377D01*
X32863477Y-24166157D01*
X32930000Y-24166157D01*
X33108391Y-24130673D01*
X33259623Y-24029623D01*
X33360673Y-23878391D01*
X33396157Y-23700000D01*
X33396157Y-22300000D01*
X33360673Y-22121609D01*
X33259623Y-21970377D01*
X33108391Y-21869327D01*
X32961200Y-21840049D01*
X32961200Y-21341010D01*
X33291588Y-21010622D01*
X33477200Y-20562514D01*
X33477200Y-20077486D01*
X33291588Y-19629378D01*
X32948622Y-19286412D01*
X32500514Y-19100800D01*
X32015486Y-19100800D01*
X31567378Y-19286412D01*
X31224412Y-19629378D01*
X31038800Y-20077486D01*
X31038800Y-20562514D01*
X31224412Y-21010622D01*
X31538801Y-21325011D01*
X31538800Y-21852978D01*
X31456609Y-21869327D01*
X31305377Y-21970377D01*
X31204327Y-22121609D01*
X31168843Y-22300000D01*
X31168843Y-23700000D01*
X31204327Y-23878391D01*
X31256301Y-23956175D01*
X31256301Y-24096514D01*
X31141609Y-24119327D01*
X31000000Y-24213947D01*
X30858391Y-24119327D01*
X30743700Y-24096514D01*
X30743700Y-23956174D01*
X30795673Y-23878391D01*
X30831157Y-23700000D01*
X30831157Y-22300000D01*
X30795673Y-22121609D01*
X30694623Y-21970377D01*
X30543391Y-21869327D01*
X30428700Y-21846514D01*
X30428700Y-21333510D01*
X30751588Y-21010622D01*
X30937200Y-20562514D01*
X30937200Y-20077486D01*
X30751588Y-19629378D01*
X30408622Y-19286412D01*
X29960514Y-19100800D01*
X29475486Y-19100800D01*
X29027378Y-19286412D01*
X28684412Y-19629378D01*
X28498800Y-20077486D01*
X28498800Y-20562514D01*
X28684412Y-21010622D01*
X29006301Y-21332511D01*
X29006300Y-21846514D01*
X28891609Y-21869327D01*
X28740377Y-21970377D01*
X28639327Y-22121609D01*
X28603843Y-22300000D01*
X28603843Y-23700000D01*
X28639327Y-23878391D01*
X28740377Y-24029623D01*
X28891609Y-24130673D01*
X29070000Y-24166157D01*
X29136523Y-24166157D01*
X29055377Y-24220377D01*
X28954327Y-24371609D01*
X28918843Y-24550000D01*
X28918843Y-25325369D01*
X28629634Y-25614578D01*
X28570255Y-25654254D01*
X28530579Y-25713633D01*
X28530576Y-25713636D01*
X28413065Y-25889504D01*
X28357868Y-26167000D01*
X28371801Y-26237046D01*
X28371801Y-26797465D01*
X28352327Y-26826609D01*
X28316843Y-27005000D01*
X28316843Y-28555000D01*
X28352327Y-28733391D01*
X28453377Y-28884623D01*
X28604609Y-28985673D01*
X28783000Y-29021157D01*
X29383000Y-29021157D01*
X29495415Y-28998796D01*
X29205412Y-29288800D01*
X28544589Y-29288800D01*
X28334924Y-29079136D01*
X28295246Y-29019754D01*
X28166157Y-28933499D01*
X28166157Y-28885000D01*
X28130673Y-28706609D01*
X28029623Y-28555377D01*
X27878391Y-28454327D01*
X27700000Y-28418843D01*
X26300000Y-28418843D01*
X26121609Y-28454327D01*
X25970377Y-28555377D01*
X25869327Y-28706609D01*
X25833843Y-28885000D01*
X23875200Y-28885000D01*
X23875200Y-15239200D01*
X78232801Y-15239200D01*
X78232800Y-43688800D01*
X78232800Y-43688800D01*
G37*
X78232800Y-43688800D02*
X23875200Y-43688800D01*
X23875200Y-40013124D01*
X45648800Y-40013124D01*
X45648800Y-40950876D01*
X46007663Y-41817246D01*
X46670754Y-42480337D01*
X47537124Y-42839200D01*
X48474876Y-42839200D01*
X49341246Y-42480337D01*
X50004337Y-41817246D01*
X50363200Y-40950876D01*
X50363200Y-40013124D01*
X50004337Y-39146754D01*
X49341246Y-38483663D01*
X48474876Y-38124800D01*
X47537124Y-38124800D01*
X46670754Y-38483663D01*
X46007663Y-39146754D01*
X45648800Y-40013124D01*
X23875200Y-40013124D01*
X23875200Y-28885000D01*
X25833843Y-28885000D01*
X25833843Y-30180000D01*
X25869327Y-30358391D01*
X25963947Y-30500000D01*
X25869327Y-30641609D01*
X25833843Y-30820000D01*
X25833843Y-32115000D01*
X25869327Y-32293391D01*
X25970377Y-32444623D01*
X26121609Y-32545673D01*
X26300000Y-32581157D01*
X27700000Y-32581157D01*
X27878391Y-32545673D01*
X28029623Y-32444623D01*
X28130673Y-32293391D01*
X28166157Y-32115000D01*
X28166157Y-31827285D01*
X28262746Y-31762746D01*
X28302424Y-31703364D01*
X28466993Y-31538795D01*
X28413065Y-31619504D01*
X28357868Y-31897000D01*
X28371801Y-31967046D01*
X28371801Y-32197464D01*
X28352327Y-32226609D01*
X28316843Y-32405000D01*
X28316843Y-33955000D01*
X28352327Y-34133391D01*
X28453377Y-34284623D01*
X28604609Y-34385673D01*
X28783000Y-34421157D01*
X29383000Y-34421157D01*
X29561391Y-34385673D01*
X29669700Y-34313303D01*
X29683065Y-34380496D01*
X29800576Y-34556364D01*
X29800579Y-34556367D01*
X29840255Y-34615746D01*
X29899634Y-34655422D01*
X30447578Y-35203367D01*
X30487254Y-35262746D01*
X30546633Y-35302422D01*
X30546635Y-35302424D01*
X30722502Y-35419935D01*
X30722503Y-35419935D01*
X30722504Y-35419936D01*
X30929954Y-35461200D01*
X30929957Y-35461200D01*
X30999999Y-35475132D01*
X31070041Y-35461200D01*
X37449447Y-35461200D01*
X37519488Y-35475132D01*
X37589529Y-35461200D01*
X37589534Y-35461200D01*
X37796984Y-35419936D01*
X38032234Y-35262746D01*
X38071912Y-35203364D01*
X39953369Y-33321908D01*
X40012745Y-33282234D01*
X40052420Y-33222857D01*
X40052424Y-33222853D01*
X40169935Y-33046985D01*
X40169936Y-33046984D01*
X40211200Y-32839534D01*
X40211200Y-32839530D01*
X40225132Y-32769488D01*
X40211200Y-32699446D01*
X40211200Y-30435410D01*
X40309378Y-30533588D01*
X40757486Y-30719200D01*
X41242514Y-30719200D01*
X41307316Y-30692358D01*
X41548761Y-30740385D01*
X41548764Y-30740385D01*
X41633184Y-30757177D01*
X41717604Y-30740385D01*
X54396951Y-30740385D01*
X57731001Y-34074437D01*
X57778822Y-34146006D01*
X57850391Y-34193827D01*
X57850392Y-34193828D01*
X57986276Y-34284623D01*
X58062365Y-34335464D01*
X58312404Y-34385200D01*
X58312407Y-34385200D01*
X58396827Y-34401992D01*
X58481247Y-34385200D01*
X63616937Y-34385200D01*
X63707300Y-34475564D01*
X63707300Y-35326767D01*
X63582000Y-35301843D01*
X62082000Y-35301843D01*
X61903609Y-35337327D01*
X61752377Y-35438377D01*
X61651327Y-35589609D01*
X61615843Y-35768000D01*
X61615843Y-36368000D01*
X61651327Y-36546391D01*
X61752377Y-36697623D01*
X61760424Y-36703000D01*
X61752377Y-36708377D01*
X61651327Y-36859609D01*
X61615843Y-37038000D01*
X61615843Y-37638000D01*
X61651327Y-37816391D01*
X61752377Y-37967623D01*
X61903609Y-38068673D01*
X62082000Y-38104157D01*
X63582000Y-38104157D01*
X63707300Y-38079233D01*
X63707300Y-38260247D01*
X63587377Y-38340377D01*
X63486327Y-38491609D01*
X63450843Y-38670000D01*
X63450843Y-40070000D01*
X63486327Y-40248391D01*
X63587377Y-40399623D01*
X63738609Y-40500673D01*
X63766109Y-40506143D01*
X63898672Y-40704537D01*
X63898674Y-40704539D01*
X63946495Y-40776108D01*
X64018064Y-40823929D01*
X64515370Y-41321235D01*
X64563193Y-41392807D01*
X64846736Y-41582265D01*
X65096775Y-41632001D01*
X65096778Y-41632001D01*
X65181198Y-41648793D01*
X65265618Y-41632001D01*
X70521779Y-41632001D01*
X70606199Y-41648793D01*
X70690619Y-41632001D01*
X70690623Y-41632001D01*
X70940662Y-41582265D01*
X71224205Y-41392807D01*
X71272028Y-41321235D01*
X71920437Y-40672827D01*
X71992006Y-40625006D01*
X72039827Y-40553437D01*
X72039829Y-40553435D01*
X72115398Y-40440338D01*
X72181464Y-40341463D01*
X72231200Y-40091424D01*
X72231200Y-40091420D01*
X72247992Y-40007000D01*
X72231200Y-39922580D01*
X72231200Y-39641888D01*
X72252391Y-39637673D01*
X72403623Y-39536623D01*
X72504673Y-39385391D01*
X72540157Y-39207000D01*
X72540157Y-39172106D01*
X72605063Y-39107200D01*
X74441580Y-39107200D01*
X74526000Y-39123992D01*
X74610420Y-39107200D01*
X74610424Y-39107200D01*
X74860463Y-39057464D01*
X75144006Y-38868006D01*
X75191829Y-38796434D01*
X77762437Y-36225827D01*
X77834006Y-36178006D01*
X78023464Y-35894463D01*
X78073200Y-35644424D01*
X78073200Y-35644420D01*
X78089992Y-35560001D01*
X78073200Y-35475582D01*
X78073200Y-23960420D01*
X78089992Y-23876000D01*
X78073200Y-23791580D01*
X78073200Y-23791576D01*
X78023464Y-23541537D01*
X77969600Y-23460924D01*
X77881828Y-23329564D01*
X77881827Y-23329563D01*
X77834006Y-23257994D01*
X77762437Y-23210173D01*
X75307409Y-20755146D01*
X75387200Y-20562514D01*
X75387200Y-20077486D01*
X75201588Y-19629378D01*
X74858622Y-19286412D01*
X74410514Y-19100800D01*
X73925486Y-19100800D01*
X73477378Y-19286412D01*
X73134412Y-19629378D01*
X72948800Y-20077486D01*
X72948800Y-20562514D01*
X73134412Y-21010622D01*
X73477378Y-21353588D01*
X73492400Y-21359810D01*
X73549994Y-21446006D01*
X73621566Y-21493829D01*
X76358801Y-24231065D01*
X76358800Y-30685012D01*
X76336424Y-30662636D01*
X76296746Y-30603254D01*
X76061496Y-30446064D01*
X75854046Y-30404800D01*
X75854041Y-30404800D01*
X75784000Y-30390868D01*
X75713959Y-30404800D01*
X75651342Y-30404800D01*
X75605623Y-30336377D01*
X75454391Y-30235327D01*
X75276000Y-30199843D01*
X74076000Y-30199843D01*
X73897609Y-30235327D01*
X73746377Y-30336377D01*
X73645327Y-30487609D01*
X73627089Y-30579300D01*
X73289486Y-30579300D01*
X73266673Y-30464609D01*
X73165623Y-30313377D01*
X73014391Y-30212327D01*
X72836000Y-30176843D01*
X71436000Y-30176843D01*
X71257609Y-30212327D01*
X71106377Y-30313377D01*
X71005327Y-30464609D01*
X70982514Y-30579300D01*
X70906588Y-30579300D01*
X70861924Y-30534636D01*
X70822246Y-30475254D01*
X70586996Y-30318064D01*
X70379546Y-30276800D01*
X70379541Y-30276800D01*
X70309500Y-30262868D01*
X70239459Y-30276800D01*
X69358945Y-30276800D01*
X69412673Y-30196391D01*
X69448157Y-30018000D01*
X69448157Y-29667200D01*
X70819071Y-29667200D01*
X70852327Y-29834391D01*
X70953377Y-29985623D01*
X71104609Y-30086673D01*
X71283000Y-30122157D01*
X72578000Y-30122157D01*
X72756391Y-30086673D01*
X72898000Y-29992053D01*
X73039609Y-30086673D01*
X73218000Y-30122157D01*
X74513000Y-30122157D01*
X74691391Y-30086673D01*
X74842623Y-29985623D01*
X74943673Y-29834391D01*
X74979157Y-29656000D01*
X74979157Y-28256000D01*
X74943673Y-28077609D01*
X74842623Y-27926377D01*
X74752877Y-27866411D01*
X75510369Y-27108920D01*
X75569745Y-27069246D01*
X75609420Y-27009869D01*
X75609424Y-27009865D01*
X75726935Y-26833998D01*
X75726935Y-26833997D01*
X75726936Y-26833996D01*
X75768200Y-26626546D01*
X75768200Y-26626543D01*
X75782132Y-26556501D01*
X75768200Y-26486459D01*
X75768200Y-24975042D01*
X75782132Y-24905000D01*
X75768200Y-24834958D01*
X75768200Y-24834954D01*
X75726936Y-24627504D01*
X75669689Y-24541828D01*
X75609424Y-24451635D01*
X75609422Y-24451633D01*
X75569746Y-24392254D01*
X75510367Y-24352578D01*
X74646424Y-23488636D01*
X74606746Y-23429254D01*
X74371496Y-23272064D01*
X74164046Y-23230800D01*
X74164041Y-23230800D01*
X74094000Y-23216868D01*
X74023959Y-23230800D01*
X73927933Y-23230800D01*
X73915623Y-23212377D01*
X73764391Y-23111327D01*
X73586000Y-23075843D01*
X72686000Y-23075843D01*
X72507609Y-23111327D01*
X72356377Y-23212377D01*
X72255327Y-23363609D01*
X72219843Y-23542000D01*
X72219843Y-24342000D01*
X72255327Y-24520391D01*
X72356377Y-24671623D01*
X72507609Y-24772673D01*
X72686000Y-24808157D01*
X73586000Y-24808157D01*
X73764391Y-24772673D01*
X73857003Y-24710791D01*
X74345801Y-25199590D01*
X74345800Y-26261911D01*
X73412134Y-27195578D01*
X73352755Y-27235254D01*
X73313079Y-27294633D01*
X73313076Y-27294636D01*
X73195565Y-27470504D01*
X73140368Y-27748000D01*
X73151329Y-27803105D01*
X73039609Y-27825327D01*
X72898000Y-27919947D01*
X72756391Y-27825327D01*
X72578000Y-27789843D01*
X71283000Y-27789843D01*
X71104609Y-27825327D01*
X70953377Y-27926377D01*
X70852327Y-28077609D01*
X70819071Y-28244800D01*
X69064042Y-28244800D01*
X68994000Y-28230868D01*
X68923958Y-28244800D01*
X68923954Y-28244800D01*
X68716504Y-28286064D01*
X68706504Y-28292746D01*
X68540635Y-28403576D01*
X68540633Y-28403578D01*
X68481254Y-28443254D01*
X68441578Y-28502633D01*
X68152000Y-28792211D01*
X67259200Y-27899412D01*
X67259200Y-21333010D01*
X67581588Y-21010622D01*
X67767200Y-20562514D01*
X67767200Y-20077486D01*
X67868800Y-20077486D01*
X67868800Y-20562514D01*
X68054412Y-21010622D01*
X68376800Y-21333010D01*
X68376801Y-21845571D01*
X68209609Y-21878827D01*
X68058377Y-21979877D01*
X67957327Y-22131109D01*
X67921843Y-22309500D01*
X67921843Y-23604500D01*
X67957327Y-23782891D01*
X68051947Y-23924500D01*
X67957327Y-24066109D01*
X67921843Y-24244500D01*
X67921843Y-25539500D01*
X67957327Y-25717891D01*
X68058377Y-25869123D01*
X68209609Y-25970173D01*
X68388000Y-26005657D01*
X69788000Y-26005657D01*
X69966391Y-25970173D01*
X70117623Y-25869123D01*
X70218673Y-25717891D01*
X70241486Y-25603200D01*
X70344067Y-25603200D01*
X70356377Y-25621623D01*
X70507609Y-25722673D01*
X70686000Y-25758157D01*
X71586000Y-25758157D01*
X71764391Y-25722673D01*
X71915623Y-25621623D01*
X72016673Y-25470391D01*
X72052157Y-25292000D01*
X72052157Y-24492000D01*
X72016673Y-24313609D01*
X71915623Y-24162377D01*
X71764391Y-24061327D01*
X71586000Y-24025843D01*
X70686000Y-24025843D01*
X70507609Y-24061327D01*
X70356377Y-24162377D01*
X70344067Y-24180800D01*
X70241486Y-24180800D01*
X70218673Y-24066109D01*
X70124053Y-23924500D01*
X70218673Y-23782891D01*
X70254157Y-23604500D01*
X70254157Y-22309500D01*
X70218673Y-22131109D01*
X70117623Y-21979877D01*
X69966391Y-21878827D01*
X69799200Y-21845571D01*
X69799200Y-21333010D01*
X70121588Y-21010622D01*
X70307200Y-20562514D01*
X70307200Y-20077486D01*
X70121588Y-19629378D01*
X69778622Y-19286412D01*
X69330514Y-19100800D01*
X68845486Y-19100800D01*
X68397378Y-19286412D01*
X68054412Y-19629378D01*
X67868800Y-20077486D01*
X67767200Y-20077486D01*
X67581588Y-19629378D01*
X67429249Y-19477039D01*
X67960132Y-18946157D01*
X68768000Y-18946157D01*
X68946391Y-18910673D01*
X69097623Y-18809623D01*
X69198673Y-18658391D01*
X69234157Y-18480000D01*
X69234157Y-17080000D01*
X69198673Y-16901609D01*
X69097623Y-16750377D01*
X68946391Y-16649327D01*
X68768000Y-16613843D01*
X67473000Y-16613843D01*
X67294609Y-16649327D01*
X67143377Y-16750377D01*
X67042327Y-16901609D01*
X67006843Y-17080000D01*
X67006843Y-17887868D01*
X66094634Y-18800078D01*
X66035255Y-18839754D01*
X65995579Y-18899133D01*
X65995576Y-18899136D01*
X65878065Y-19075004D01*
X65830709Y-19313081D01*
X65514412Y-19629378D01*
X65328800Y-20077486D01*
X65328800Y-20562514D01*
X65514412Y-21010622D01*
X65836800Y-21333010D01*
X65836801Y-28123954D01*
X65822868Y-28194000D01*
X65878065Y-28471496D01*
X65995576Y-28647364D01*
X65995579Y-28647367D01*
X66035255Y-28706746D01*
X66094634Y-28746422D01*
X67015843Y-29667632D01*
X67015843Y-30018000D01*
X67051327Y-30196391D01*
X67152377Y-30347623D01*
X67160424Y-30353000D01*
X67152377Y-30358377D01*
X67051327Y-30509609D01*
X67015843Y-30688000D01*
X67015843Y-31288000D01*
X67051327Y-31466391D01*
X67105055Y-31546800D01*
X63958945Y-31546800D01*
X64012673Y-31466391D01*
X64048157Y-31288000D01*
X64048157Y-30688000D01*
X64012673Y-30509609D01*
X63911623Y-30358377D01*
X63903576Y-30353000D01*
X63911623Y-30347623D01*
X64012673Y-30196391D01*
X64048157Y-30018000D01*
X64048157Y-29418000D01*
X64012673Y-29239609D01*
X63911623Y-29088377D01*
X63760391Y-28987327D01*
X63582000Y-28951843D01*
X63449200Y-28951843D01*
X63449200Y-21333010D01*
X63771588Y-21010622D01*
X63957200Y-20562514D01*
X63957200Y-20077486D01*
X63771588Y-19629378D01*
X63428622Y-19286412D01*
X62980514Y-19100800D01*
X62495486Y-19100800D01*
X62047378Y-19286412D01*
X61704412Y-19629378D01*
X61518800Y-20077486D01*
X61518800Y-20562514D01*
X61704412Y-21010622D01*
X62026800Y-21333010D01*
X62026801Y-28962823D01*
X61903609Y-28987327D01*
X61752377Y-29088377D01*
X61651327Y-29239609D01*
X61615843Y-29418000D01*
X61615843Y-30018000D01*
X61651327Y-30196391D01*
X61752377Y-30347623D01*
X61760424Y-30353000D01*
X61752377Y-30358377D01*
X61651327Y-30509609D01*
X61615843Y-30688000D01*
X61615843Y-31288000D01*
X61651327Y-31466391D01*
X61705055Y-31546800D01*
X59802589Y-31546800D01*
X59461200Y-31205412D01*
X59461200Y-24280157D01*
X59624000Y-24280157D01*
X59802391Y-24244673D01*
X59953623Y-24143623D01*
X60054673Y-23992391D01*
X60090157Y-23814000D01*
X60090157Y-22414000D01*
X60054673Y-22235609D01*
X59953623Y-22084377D01*
X59802391Y-21983327D01*
X59624000Y-21947843D01*
X58329000Y-21947843D01*
X58150609Y-21983327D01*
X58039000Y-22057902D01*
X57927391Y-21983327D01*
X57749000Y-21947843D01*
X56454000Y-21947843D01*
X56275609Y-21983327D01*
X56134000Y-22077947D01*
X55992391Y-21983327D01*
X55829200Y-21950866D01*
X55829200Y-21333010D01*
X56151588Y-21010622D01*
X56337200Y-20562514D01*
X56337200Y-20077486D01*
X56151588Y-19629378D01*
X55808622Y-19286412D01*
X55360514Y-19100800D01*
X54875486Y-19100800D01*
X54427378Y-19286412D01*
X54084412Y-19629378D01*
X53898800Y-20077486D01*
X53898800Y-20562514D01*
X54084412Y-21010622D01*
X54406800Y-21333010D01*
X54406801Y-21970161D01*
X54340609Y-21983327D01*
X54189377Y-22084377D01*
X54088327Y-22235609D01*
X54052843Y-22414000D01*
X54052843Y-23814000D01*
X54088327Y-23992391D01*
X54189377Y-24143623D01*
X54340609Y-24244673D01*
X54519000Y-24280157D01*
X55814000Y-24280157D01*
X55992391Y-24244673D01*
X56134000Y-24150053D01*
X56275609Y-24244673D01*
X56454000Y-24280157D01*
X57749000Y-24280157D01*
X57927391Y-24244673D01*
X58038801Y-24170231D01*
X58038800Y-31429959D01*
X58024868Y-31500000D01*
X58038800Y-31570041D01*
X58038800Y-31570045D01*
X58080064Y-31777495D01*
X58101447Y-31809497D01*
X58197576Y-31953364D01*
X58197578Y-31953366D01*
X58237254Y-32012745D01*
X58296633Y-32052422D01*
X58915011Y-32670800D01*
X58751892Y-32670800D01*
X55417842Y-29336750D01*
X55370020Y-29265179D01*
X55086477Y-29075721D01*
X54836438Y-29025985D01*
X54836434Y-29025985D01*
X54752014Y-29009193D01*
X54667594Y-29025985D01*
X42123309Y-29025985D01*
X42033588Y-28809378D01*
X41690622Y-28466412D01*
X41242514Y-28280800D01*
X40757486Y-28280800D01*
X40309378Y-28466412D01*
X40211200Y-28564590D01*
X40211200Y-27544588D01*
X40703369Y-27052420D01*
X40762745Y-27012746D01*
X40802420Y-26953369D01*
X40802424Y-26953365D01*
X40884081Y-26831157D01*
X40950000Y-26831157D01*
X41128391Y-26795673D01*
X41279623Y-26694623D01*
X41380673Y-26543391D01*
X41416157Y-26365000D01*
X41416157Y-25070000D01*
X41380673Y-24891609D01*
X41286053Y-24750000D01*
X41380673Y-24608391D01*
X41416157Y-24430000D01*
X41416157Y-23135000D01*
X41380673Y-22956609D01*
X41279623Y-22805377D01*
X41128391Y-22704327D01*
X40950000Y-22668843D01*
X39550000Y-22668843D01*
X39371609Y-22704327D01*
X39220377Y-22805377D01*
X39125000Y-22948119D01*
X39029623Y-22805377D01*
X38878391Y-22704327D01*
X38700000Y-22668843D01*
X38211200Y-22668843D01*
X38211200Y-21171010D01*
X38371588Y-21010622D01*
X38557200Y-20562514D01*
X38557200Y-20077486D01*
X42468800Y-20077486D01*
X42468800Y-20562514D01*
X42654412Y-21010622D01*
X42997378Y-21353588D01*
X43445486Y-21539200D01*
X43930514Y-21539200D01*
X44378622Y-21353588D01*
X44721588Y-21010622D01*
X44907200Y-20562514D01*
X44907200Y-20077486D01*
X45008800Y-20077486D01*
X45008800Y-20562514D01*
X45194412Y-21010622D01*
X45537378Y-21353588D01*
X45985486Y-21539200D01*
X46470514Y-21539200D01*
X46918622Y-21353588D01*
X47261588Y-21010622D01*
X47447200Y-20562514D01*
X47447200Y-20077486D01*
X50088800Y-20077486D01*
X50088800Y-20562514D01*
X50274412Y-21010622D01*
X50617378Y-21353588D01*
X51065486Y-21539200D01*
X51550514Y-21539200D01*
X51998622Y-21353588D01*
X52341588Y-21010622D01*
X52527200Y-20562514D01*
X52527200Y-20077486D01*
X52341588Y-19629378D01*
X51998622Y-19286412D01*
X51550514Y-19100800D01*
X51065486Y-19100800D01*
X50617378Y-19286412D01*
X50274412Y-19629378D01*
X50088800Y-20077486D01*
X47447200Y-20077486D01*
X47261588Y-19629378D01*
X46918622Y-19286412D01*
X46470514Y-19100800D01*
X45985486Y-19100800D01*
X45537378Y-19286412D01*
X45194412Y-19629378D01*
X45008800Y-20077486D01*
X44907200Y-20077486D01*
X44721588Y-19629378D01*
X44378622Y-19286412D01*
X43930514Y-19100800D01*
X43445486Y-19100800D01*
X42997378Y-19286412D01*
X42654412Y-19629378D01*
X42468800Y-20077486D01*
X38557200Y-20077486D01*
X38371588Y-19629378D01*
X38028622Y-19286412D01*
X37580514Y-19100800D01*
X37095486Y-19100800D01*
X36647378Y-19286412D01*
X36304412Y-19629378D01*
X36118800Y-20077486D01*
X36118800Y-20562514D01*
X36304412Y-21010622D01*
X36647378Y-21353588D01*
X36788801Y-21412167D01*
X36788800Y-23212458D01*
X36774868Y-23282500D01*
X36788800Y-23352541D01*
X36788800Y-23352545D01*
X36830064Y-23559995D01*
X36833843Y-23565651D01*
X36833843Y-24430000D01*
X36869327Y-24608391D01*
X36970377Y-24759623D01*
X37121609Y-24860673D01*
X37300000Y-24896157D01*
X38700000Y-24896157D01*
X38878391Y-24860673D01*
X39029623Y-24759623D01*
X39125000Y-24616881D01*
X39213947Y-24750000D01*
X39119327Y-24891609D01*
X39083843Y-25070000D01*
X39083843Y-26365000D01*
X39119327Y-26543391D01*
X39151969Y-26592243D01*
X39046634Y-26697578D01*
X38987255Y-26737254D01*
X38947579Y-26796633D01*
X38947576Y-26796636D01*
X38830065Y-26972504D01*
X38774868Y-27250000D01*
X38788801Y-27320046D01*
X38788800Y-32474899D01*
X37224900Y-34038800D01*
X31294589Y-34038800D01*
X31119157Y-33863369D01*
X31119157Y-32405000D01*
X31105595Y-32336820D01*
X31914839Y-32336820D01*
X31984880Y-32350752D01*
X32054921Y-32336820D01*
X32054926Y-32336820D01*
X32262376Y-32295556D01*
X32497626Y-32138366D01*
X32537304Y-32078984D01*
X34216411Y-30399878D01*
X34276377Y-30489623D01*
X34427609Y-30590673D01*
X34606000Y-30626157D01*
X36006000Y-30626157D01*
X36184391Y-30590673D01*
X36335623Y-30489623D01*
X36436673Y-30338391D01*
X36437722Y-30333119D01*
X36559378Y-30454775D01*
X37007486Y-30640387D01*
X37492514Y-30640387D01*
X37940622Y-30454775D01*
X38283588Y-30111809D01*
X38469200Y-29663701D01*
X38469200Y-29178673D01*
X38283588Y-28730565D01*
X37940622Y-28387599D01*
X37492514Y-28201987D01*
X37007486Y-28201987D01*
X36559378Y-28387599D01*
X36366055Y-28580922D01*
X36335623Y-28535377D01*
X36184391Y-28434327D01*
X36006000Y-28398843D01*
X34606000Y-28398843D01*
X34427609Y-28434327D01*
X34276377Y-28535377D01*
X34175327Y-28686609D01*
X34153105Y-28798329D01*
X34098000Y-28787368D01*
X34027958Y-28801300D01*
X34027954Y-28801300D01*
X33820504Y-28842564D01*
X33781295Y-28868763D01*
X33644635Y-28960076D01*
X33644633Y-28960078D01*
X33585254Y-28999754D01*
X33545578Y-29059133D01*
X31690292Y-30914420D01*
X30777368Y-30914420D01*
X32076367Y-29615422D01*
X32135746Y-29575746D01*
X32175422Y-29516367D01*
X32175424Y-29516365D01*
X32292935Y-29340498D01*
X32292935Y-29340497D01*
X32292936Y-29340496D01*
X32334200Y-29133046D01*
X32334200Y-29133043D01*
X32348132Y-29063001D01*
X32334200Y-28992959D01*
X32334200Y-28931945D01*
X32414609Y-28985673D01*
X32593000Y-29021157D01*
X33193000Y-29021157D01*
X33371391Y-28985673D01*
X33522623Y-28884623D01*
X33623673Y-28733391D01*
X33659157Y-28555000D01*
X33659157Y-27005000D01*
X33623673Y-26826609D01*
X33604200Y-26797466D01*
X33604200Y-26245542D01*
X33618132Y-26175500D01*
X33604200Y-26105458D01*
X33604200Y-26105454D01*
X33562936Y-25898004D01*
X33499071Y-25802424D01*
X33445424Y-25722135D01*
X33445420Y-25722131D01*
X33405745Y-25662754D01*
X33346369Y-25623080D01*
X33081157Y-25357868D01*
X33081157Y-24550000D01*
X33045673Y-24371609D01*
X32944623Y-24220377D01*
X32863477Y-24166157D01*
X32930000Y-24166157D01*
X33108391Y-24130673D01*
X33259623Y-24029623D01*
X33360673Y-23878391D01*
X33396157Y-23700000D01*
X33396157Y-22300000D01*
X33360673Y-22121609D01*
X33259623Y-21970377D01*
X33108391Y-21869327D01*
X32961200Y-21840049D01*
X32961200Y-21341010D01*
X33291588Y-21010622D01*
X33477200Y-20562514D01*
X33477200Y-20077486D01*
X33291588Y-19629378D01*
X32948622Y-19286412D01*
X32500514Y-19100800D01*
X32015486Y-19100800D01*
X31567378Y-19286412D01*
X31224412Y-19629378D01*
X31038800Y-20077486D01*
X31038800Y-20562514D01*
X31224412Y-21010622D01*
X31538801Y-21325011D01*
X31538800Y-21852978D01*
X31456609Y-21869327D01*
X31305377Y-21970377D01*
X31204327Y-22121609D01*
X31168843Y-22300000D01*
X31168843Y-23700000D01*
X31204327Y-23878391D01*
X31256301Y-23956175D01*
X31256301Y-24096514D01*
X31141609Y-24119327D01*
X31000000Y-24213947D01*
X30858391Y-24119327D01*
X30743700Y-24096514D01*
X30743700Y-23956174D01*
X30795673Y-23878391D01*
X30831157Y-23700000D01*
X30831157Y-22300000D01*
X30795673Y-22121609D01*
X30694623Y-21970377D01*
X30543391Y-21869327D01*
X30428700Y-21846514D01*
X30428700Y-21333510D01*
X30751588Y-21010622D01*
X30937200Y-20562514D01*
X30937200Y-20077486D01*
X30751588Y-19629378D01*
X30408622Y-19286412D01*
X29960514Y-19100800D01*
X29475486Y-19100800D01*
X29027378Y-19286412D01*
X28684412Y-19629378D01*
X28498800Y-20077486D01*
X28498800Y-20562514D01*
X28684412Y-21010622D01*
X29006301Y-21332511D01*
X29006300Y-21846514D01*
X28891609Y-21869327D01*
X28740377Y-21970377D01*
X28639327Y-22121609D01*
X28603843Y-22300000D01*
X28603843Y-23700000D01*
X28639327Y-23878391D01*
X28740377Y-24029623D01*
X28891609Y-24130673D01*
X29070000Y-24166157D01*
X29136523Y-24166157D01*
X29055377Y-24220377D01*
X28954327Y-24371609D01*
X28918843Y-24550000D01*
X28918843Y-25325369D01*
X28629634Y-25614578D01*
X28570255Y-25654254D01*
X28530579Y-25713633D01*
X28530576Y-25713636D01*
X28413065Y-25889504D01*
X28357868Y-26167000D01*
X28371801Y-26237046D01*
X28371801Y-26797465D01*
X28352327Y-26826609D01*
X28316843Y-27005000D01*
X28316843Y-28555000D01*
X28352327Y-28733391D01*
X28453377Y-28884623D01*
X28604609Y-28985673D01*
X28783000Y-29021157D01*
X29383000Y-29021157D01*
X29495415Y-28998796D01*
X29205412Y-29288800D01*
X28544589Y-29288800D01*
X28334924Y-29079136D01*
X28295246Y-29019754D01*
X28166157Y-28933499D01*
X28166157Y-28885000D01*
X28130673Y-28706609D01*
X28029623Y-28555377D01*
X27878391Y-28454327D01*
X27700000Y-28418843D01*
X26300000Y-28418843D01*
X26121609Y-28454327D01*
X25970377Y-28555377D01*
X25869327Y-28706609D01*
X25833843Y-28885000D01*
X23875200Y-28885000D01*
X23875200Y-15239200D01*
X78232801Y-15239200D01*
X78232800Y-43688800D01*
G36*
X70059576Y-31743864D02*
X70099254Y-31803246D01*
X70334504Y-31960436D01*
X70541954Y-32001700D01*
X70541958Y-32001700D01*
X70612000Y-32015632D01*
X70682042Y-32001700D01*
X70982514Y-32001700D01*
X71005327Y-32116391D01*
X71106377Y-32267623D01*
X71257609Y-32368673D01*
X71436000Y-32404157D01*
X72836000Y-32404157D01*
X73014391Y-32368673D01*
X73165623Y-32267623D01*
X73266673Y-32116391D01*
X73289486Y-32001700D01*
X73922882Y-32001700D01*
X74076000Y-32032157D01*
X75276000Y-32032157D01*
X75454391Y-31996673D01*
X75488800Y-31973682D01*
X75488801Y-34757410D01*
X73707412Y-36538800D01*
X72794589Y-36538800D01*
X72540157Y-36284369D01*
X72540157Y-35977000D01*
X72504673Y-35798609D01*
X72403623Y-35647377D01*
X72252391Y-35546327D01*
X72074000Y-35510843D01*
X70674000Y-35510843D01*
X70495609Y-35546327D01*
X70344377Y-35647377D01*
X70243327Y-35798609D01*
X70207843Y-35977000D01*
X70207843Y-37272000D01*
X70243327Y-37450391D01*
X70337947Y-37592000D01*
X70243327Y-37733609D01*
X70207843Y-37912000D01*
X70207843Y-39207000D01*
X70243327Y-39385391D01*
X70344377Y-39536623D01*
X70495609Y-39637673D01*
X70516800Y-39641888D01*
X70516800Y-39651936D01*
X70251136Y-39917601D01*
X65678157Y-39917601D01*
X65678157Y-38670000D01*
X65642673Y-38491609D01*
X65541623Y-38340377D01*
X65421700Y-38260247D01*
X65421700Y-35768000D01*
X67015843Y-35768000D01*
X67015843Y-36368000D01*
X67051327Y-36546391D01*
X67152377Y-36697623D01*
X67160424Y-36703000D01*
X67152377Y-36708377D01*
X67051327Y-36859609D01*
X67015843Y-37038000D01*
X67015843Y-37638000D01*
X67051327Y-37816391D01*
X67152377Y-37967623D01*
X67303609Y-38068673D01*
X67482000Y-38104157D01*
X68982000Y-38104157D01*
X69160391Y-38068673D01*
X69311623Y-37967623D01*
X69412673Y-37816391D01*
X69448157Y-37638000D01*
X69448157Y-37038000D01*
X69412673Y-36859609D01*
X69311623Y-36708377D01*
X69303576Y-36703000D01*
X69311623Y-36697623D01*
X69412673Y-36546391D01*
X69448157Y-36368000D01*
X69448157Y-35768000D01*
X69412673Y-35589609D01*
X69311623Y-35438377D01*
X69160391Y-35337327D01*
X68982000Y-35301843D01*
X67482000Y-35301843D01*
X67303609Y-35337327D01*
X67152377Y-35438377D01*
X67051327Y-35589609D01*
X67015843Y-35768000D01*
X65421700Y-35768000D01*
X65421700Y-34204920D01*
X65438492Y-34120500D01*
X65421700Y-34036080D01*
X65421700Y-34036076D01*
X65371964Y-33786037D01*
X65241146Y-33590254D01*
X65230329Y-33574065D01*
X65230327Y-33574063D01*
X65182506Y-33502494D01*
X65110937Y-33454673D01*
X64637829Y-32981566D01*
X64629566Y-32969200D01*
X67274466Y-32969200D01*
X67303609Y-32988673D01*
X67482000Y-33024157D01*
X68982000Y-33024157D01*
X69160391Y-32988673D01*
X69311623Y-32887623D01*
X69412673Y-32736391D01*
X69448157Y-32558000D01*
X69448157Y-31958000D01*
X69412673Y-31779609D01*
X69358945Y-31699200D01*
X70014912Y-31699200D01*
X70059576Y-31743864D01*
X70059576Y-31743864D01*
G37*
X70059576Y-31743864D02*
X70099254Y-31803246D01*
X70334504Y-31960436D01*
X70541954Y-32001700D01*
X70541958Y-32001700D01*
X70612000Y-32015632D01*
X70682042Y-32001700D01*
X70982514Y-32001700D01*
X71005327Y-32116391D01*
X71106377Y-32267623D01*
X71257609Y-32368673D01*
X71436000Y-32404157D01*
X72836000Y-32404157D01*
X73014391Y-32368673D01*
X73165623Y-32267623D01*
X73266673Y-32116391D01*
X73289486Y-32001700D01*
X73922882Y-32001700D01*
X74076000Y-32032157D01*
X75276000Y-32032157D01*
X75454391Y-31996673D01*
X75488800Y-31973682D01*
X75488801Y-34757410D01*
X73707412Y-36538800D01*
X72794589Y-36538800D01*
X72540157Y-36284369D01*
X72540157Y-35977000D01*
X72504673Y-35798609D01*
X72403623Y-35647377D01*
X72252391Y-35546327D01*
X72074000Y-35510843D01*
X70674000Y-35510843D01*
X70495609Y-35546327D01*
X70344377Y-35647377D01*
X70243327Y-35798609D01*
X70207843Y-35977000D01*
X70207843Y-37272000D01*
X70243327Y-37450391D01*
X70337947Y-37592000D01*
X70243327Y-37733609D01*
X70207843Y-37912000D01*
X70207843Y-39207000D01*
X70243327Y-39385391D01*
X70344377Y-39536623D01*
X70495609Y-39637673D01*
X70516800Y-39641888D01*
X70516800Y-39651936D01*
X70251136Y-39917601D01*
X65678157Y-39917601D01*
X65678157Y-38670000D01*
X65642673Y-38491609D01*
X65541623Y-38340377D01*
X65421700Y-38260247D01*
X65421700Y-35768000D01*
X67015843Y-35768000D01*
X67015843Y-36368000D01*
X67051327Y-36546391D01*
X67152377Y-36697623D01*
X67160424Y-36703000D01*
X67152377Y-36708377D01*
X67051327Y-36859609D01*
X67015843Y-37038000D01*
X67015843Y-37638000D01*
X67051327Y-37816391D01*
X67152377Y-37967623D01*
X67303609Y-38068673D01*
X67482000Y-38104157D01*
X68982000Y-38104157D01*
X69160391Y-38068673D01*
X69311623Y-37967623D01*
X69412673Y-37816391D01*
X69448157Y-37638000D01*
X69448157Y-37038000D01*
X69412673Y-36859609D01*
X69311623Y-36708377D01*
X69303576Y-36703000D01*
X69311623Y-36697623D01*
X69412673Y-36546391D01*
X69448157Y-36368000D01*
X69448157Y-35768000D01*
X69412673Y-35589609D01*
X69311623Y-35438377D01*
X69160391Y-35337327D01*
X68982000Y-35301843D01*
X67482000Y-35301843D01*
X67303609Y-35337327D01*
X67152377Y-35438377D01*
X67051327Y-35589609D01*
X67015843Y-35768000D01*
X65421700Y-35768000D01*
X65421700Y-34204920D01*
X65438492Y-34120500D01*
X65421700Y-34036080D01*
X65421700Y-34036076D01*
X65371964Y-33786037D01*
X65241146Y-33590254D01*
X65230329Y-33574065D01*
X65230327Y-33574063D01*
X65182506Y-33502494D01*
X65110937Y-33454673D01*
X64637829Y-32981566D01*
X64629566Y-32969200D01*
X67274466Y-32969200D01*
X67303609Y-32988673D01*
X67482000Y-33024157D01*
X68982000Y-33024157D01*
X69160391Y-32988673D01*
X69311623Y-32887623D01*
X69412673Y-32736391D01*
X69448157Y-32558000D01*
X69448157Y-31958000D01*
X69412673Y-31779609D01*
X69358945Y-31699200D01*
X70014912Y-31699200D01*
X70059576Y-31743864D01*
M02*
