G04 #@! TF.GenerationSoftware,KiCad,Pcbnew,(5.0.0-rc2-dev-586-g888c43477)*
G04 #@! TF.CreationDate,2018-06-03T15:17:15-03:00*
G04 #@! TF.ProjectId,Signal,5369676E616C2E6B696361645F706362,rev?*
G04 #@! TF.SameCoordinates,Original*
G04 #@! TF.FileFunction,Copper,L1,Top,Signal*
G04 #@! TF.FilePolarity,Positive*
%FSLAX46Y46*%
G04 Gerber Fmt 4.6, Leading zero omitted, Abs format (unit mm)*
G04 Created by KiCad (PCBNEW (5.0.0-rc2-dev-586-g888c43477)) date 06/03/18 15:17:15*
%MOMM*%
%LPD*%
G01*
G04 APERTURE LIST*
%ADD10C,3.800000*%
%ADD11C,1.524000*%
%ADD12C,0.508000*%
G04 APERTURE END LIST*
D10*
X48006000Y-40482000D03*
D11*
X71628000Y-20320000D03*
X69088000Y-20320000D03*
X66548000Y-20320000D03*
X62738000Y-20320000D03*
X60198000Y-20320000D03*
X57658000Y-20320000D03*
X55118000Y-20320000D03*
X51308000Y-20320000D03*
X48768000Y-20320000D03*
X46228000Y-20320000D03*
X43688000Y-20320000D03*
X41148000Y-20320000D03*
X37338000Y-20320000D03*
X34798000Y-20320000D03*
X32258000Y-20320000D03*
X29718000Y-20320000D03*
X74168000Y-20320000D03*
X69088026Y-42672000D03*
X69088000Y-39116000D03*
X60070810Y-30750000D03*
X37250000Y-31500002D03*
X41000000Y-31500000D03*
X60000000Y-35250000D03*
X37250000Y-29421187D03*
X41000000Y-29500000D03*
D12*
X69088026Y-42672000D02*
X69088026Y-39116026D01*
X69088026Y-39116026D02*
X69088000Y-39116000D01*
X59944000Y-30876810D02*
X60070810Y-30750000D01*
X37254002Y-31496000D02*
X37250000Y-31500002D01*
X37250000Y-31500002D02*
X40999998Y-31500002D01*
X40999998Y-31500002D02*
X41000000Y-31500000D01*
X60070810Y-35179190D02*
X60000000Y-35250000D01*
X60070810Y-30750000D02*
X60070810Y-35179190D01*
X37292813Y-29464000D02*
X37250000Y-29421187D01*
X37250000Y-29421187D02*
X40399613Y-29421187D01*
X40399613Y-29421187D02*
X40820800Y-29000000D01*
M02*
