G04 #@! TF.GenerationSoftware,KiCad,Pcbnew,(5.0.0)*
G04 #@! TF.CreationDate,2018-09-03T02:12:29-03:00*
G04 #@! TF.ProjectId,Signal,5369676E616C2E6B696361645F706362,rev?*
G04 #@! TF.SameCoordinates,Original*
G04 #@! TF.FileFunction,Copper,L2,Bot,Signal*
G04 #@! TF.FilePolarity,Positive*
%FSLAX46Y46*%
G04 Gerber Fmt 4.6, Leading zero omitted, Abs format (unit mm)*
G04 Created by KiCad (PCBNEW (5.0.0)) date 09/03/18 02:12:29*
%MOMM*%
%LPD*%
G01*
G04 APERTURE LIST*
G04 #@! TA.AperFunction,Conductor*
%ADD10C,0.100000*%
G04 #@! TD*
G04 #@! TA.AperFunction,SMDPad,CuDef*
%ADD11C,1.150000*%
G04 #@! TD*
G04 #@! TA.AperFunction,SMDPad,CuDef*
%ADD12C,1.525000*%
G04 #@! TD*
G04 #@! TA.AperFunction,ComponentPad*
%ADD13R,1.900000X3.000000*%
G04 #@! TD*
G04 #@! TA.AperFunction,SMDPad,CuDef*
%ADD14C,1.300000*%
G04 #@! TD*
G04 #@! TA.AperFunction,SMDPad,CuDef*
%ADD15R,0.600000X1.550000*%
G04 #@! TD*
G04 #@! TA.AperFunction,SMDPad,CuDef*
%ADD16R,0.600000X1.500000*%
G04 #@! TD*
G04 #@! TA.AperFunction,ComponentPad*
%ADD17C,3.800000*%
G04 #@! TD*
G04 #@! TA.AperFunction,SMDPad,CuDef*
%ADD18R,0.900000X0.800000*%
G04 #@! TD*
G04 #@! TA.AperFunction,ViaPad*
%ADD19C,1.524000*%
G04 #@! TD*
G04 #@! TA.AperFunction,Conductor*
%ADD20C,0.508000*%
G04 #@! TD*
G04 #@! TA.AperFunction,Conductor*
%ADD21C,0.304800*%
G04 #@! TD*
G04 APERTURE END LIST*
D10*
G04 #@! TO.N,/Vbat*
G04 #@! TO.C,R13*
G36*
X59656505Y-23801204D02*
X59680773Y-23804804D01*
X59704572Y-23810765D01*
X59727671Y-23819030D01*
X59749850Y-23829520D01*
X59770893Y-23842132D01*
X59790599Y-23856747D01*
X59808777Y-23873223D01*
X59825253Y-23891401D01*
X59839868Y-23911107D01*
X59852480Y-23932150D01*
X59862970Y-23954329D01*
X59871235Y-23977428D01*
X59877196Y-24001227D01*
X59880796Y-24025495D01*
X59882000Y-24049999D01*
X59882000Y-24700001D01*
X59880796Y-24724505D01*
X59877196Y-24748773D01*
X59871235Y-24772572D01*
X59862970Y-24795671D01*
X59852480Y-24817850D01*
X59839868Y-24838893D01*
X59825253Y-24858599D01*
X59808777Y-24876777D01*
X59790599Y-24893253D01*
X59770893Y-24907868D01*
X59749850Y-24920480D01*
X59727671Y-24930970D01*
X59704572Y-24939235D01*
X59680773Y-24945196D01*
X59656505Y-24948796D01*
X59632001Y-24950000D01*
X58731999Y-24950000D01*
X58707495Y-24948796D01*
X58683227Y-24945196D01*
X58659428Y-24939235D01*
X58636329Y-24930970D01*
X58614150Y-24920480D01*
X58593107Y-24907868D01*
X58573401Y-24893253D01*
X58555223Y-24876777D01*
X58538747Y-24858599D01*
X58524132Y-24838893D01*
X58511520Y-24817850D01*
X58501030Y-24795671D01*
X58492765Y-24772572D01*
X58486804Y-24748773D01*
X58483204Y-24724505D01*
X58482000Y-24700001D01*
X58482000Y-24049999D01*
X58483204Y-24025495D01*
X58486804Y-24001227D01*
X58492765Y-23977428D01*
X58501030Y-23954329D01*
X58511520Y-23932150D01*
X58524132Y-23911107D01*
X58538747Y-23891401D01*
X58555223Y-23873223D01*
X58573401Y-23856747D01*
X58593107Y-23842132D01*
X58614150Y-23829520D01*
X58636329Y-23819030D01*
X58659428Y-23810765D01*
X58683227Y-23804804D01*
X58707495Y-23801204D01*
X58731999Y-23800000D01*
X59632001Y-23800000D01*
X59656505Y-23801204D01*
X59656505Y-23801204D01*
G37*
D11*
G04 #@! TD*
G04 #@! TO.P,R13,1*
G04 #@! TO.N,/Vbat*
X59182000Y-24375000D03*
D10*
G04 #@! TO.N,Net-(R13-Pad2)*
G04 #@! TO.C,R13*
G36*
X59656505Y-25851204D02*
X59680773Y-25854804D01*
X59704572Y-25860765D01*
X59727671Y-25869030D01*
X59749850Y-25879520D01*
X59770893Y-25892132D01*
X59790599Y-25906747D01*
X59808777Y-25923223D01*
X59825253Y-25941401D01*
X59839868Y-25961107D01*
X59852480Y-25982150D01*
X59862970Y-26004329D01*
X59871235Y-26027428D01*
X59877196Y-26051227D01*
X59880796Y-26075495D01*
X59882000Y-26099999D01*
X59882000Y-26750001D01*
X59880796Y-26774505D01*
X59877196Y-26798773D01*
X59871235Y-26822572D01*
X59862970Y-26845671D01*
X59852480Y-26867850D01*
X59839868Y-26888893D01*
X59825253Y-26908599D01*
X59808777Y-26926777D01*
X59790599Y-26943253D01*
X59770893Y-26957868D01*
X59749850Y-26970480D01*
X59727671Y-26980970D01*
X59704572Y-26989235D01*
X59680773Y-26995196D01*
X59656505Y-26998796D01*
X59632001Y-27000000D01*
X58731999Y-27000000D01*
X58707495Y-26998796D01*
X58683227Y-26995196D01*
X58659428Y-26989235D01*
X58636329Y-26980970D01*
X58614150Y-26970480D01*
X58593107Y-26957868D01*
X58573401Y-26943253D01*
X58555223Y-26926777D01*
X58538747Y-26908599D01*
X58524132Y-26888893D01*
X58511520Y-26867850D01*
X58501030Y-26845671D01*
X58492765Y-26822572D01*
X58486804Y-26798773D01*
X58483204Y-26774505D01*
X58482000Y-26750001D01*
X58482000Y-26099999D01*
X58483204Y-26075495D01*
X58486804Y-26051227D01*
X58492765Y-26027428D01*
X58501030Y-26004329D01*
X58511520Y-25982150D01*
X58524132Y-25961107D01*
X58538747Y-25941401D01*
X58555223Y-25923223D01*
X58573401Y-25906747D01*
X58593107Y-25892132D01*
X58614150Y-25879520D01*
X58636329Y-25869030D01*
X58659428Y-25860765D01*
X58683227Y-25854804D01*
X58707495Y-25851204D01*
X58731999Y-25850000D01*
X59632001Y-25850000D01*
X59656505Y-25851204D01*
X59656505Y-25851204D01*
G37*
D11*
G04 #@! TD*
G04 #@! TO.P,R13,2*
G04 #@! TO.N,Net-(R13-Pad2)*
X59182000Y-26425000D03*
D10*
G04 #@! TO.N,GNDA*
G04 #@! TO.C,C4*
G36*
X43994505Y-28261204D02*
X44018773Y-28264804D01*
X44042572Y-28270765D01*
X44065671Y-28279030D01*
X44087850Y-28289520D01*
X44108893Y-28302132D01*
X44128599Y-28316747D01*
X44146777Y-28333223D01*
X44163253Y-28351401D01*
X44177868Y-28371107D01*
X44190480Y-28392150D01*
X44200970Y-28414329D01*
X44209235Y-28437428D01*
X44215196Y-28461227D01*
X44218796Y-28485495D01*
X44220000Y-28509999D01*
X44220000Y-29535001D01*
X44218796Y-29559505D01*
X44215196Y-29583773D01*
X44209235Y-29607572D01*
X44200970Y-29630671D01*
X44190480Y-29652850D01*
X44177868Y-29673893D01*
X44163253Y-29693599D01*
X44146777Y-29711777D01*
X44128599Y-29728253D01*
X44108893Y-29742868D01*
X44087850Y-29755480D01*
X44065671Y-29765970D01*
X44042572Y-29774235D01*
X44018773Y-29780196D01*
X43994505Y-29783796D01*
X43970001Y-29785000D01*
X41119999Y-29785000D01*
X41095495Y-29783796D01*
X41071227Y-29780196D01*
X41047428Y-29774235D01*
X41024329Y-29765970D01*
X41002150Y-29755480D01*
X40981107Y-29742868D01*
X40961401Y-29728253D01*
X40943223Y-29711777D01*
X40926747Y-29693599D01*
X40912132Y-29673893D01*
X40899520Y-29652850D01*
X40889030Y-29630671D01*
X40880765Y-29607572D01*
X40874804Y-29583773D01*
X40871204Y-29559505D01*
X40870000Y-29535001D01*
X40870000Y-28509999D01*
X40871204Y-28485495D01*
X40874804Y-28461227D01*
X40880765Y-28437428D01*
X40889030Y-28414329D01*
X40899520Y-28392150D01*
X40912132Y-28371107D01*
X40926747Y-28351401D01*
X40943223Y-28333223D01*
X40961401Y-28316747D01*
X40981107Y-28302132D01*
X41002150Y-28289520D01*
X41024329Y-28279030D01*
X41047428Y-28270765D01*
X41071227Y-28264804D01*
X41095495Y-28261204D01*
X41119999Y-28260000D01*
X43970001Y-28260000D01*
X43994505Y-28261204D01*
X43994505Y-28261204D01*
G37*
D12*
G04 #@! TD*
G04 #@! TO.P,C4,2*
G04 #@! TO.N,GNDA*
X42545000Y-29022500D03*
D10*
G04 #@! TO.N,/Vpanel*
G04 #@! TO.C,C4*
G36*
X43994505Y-22286204D02*
X44018773Y-22289804D01*
X44042572Y-22295765D01*
X44065671Y-22304030D01*
X44087850Y-22314520D01*
X44108893Y-22327132D01*
X44128599Y-22341747D01*
X44146777Y-22358223D01*
X44163253Y-22376401D01*
X44177868Y-22396107D01*
X44190480Y-22417150D01*
X44200970Y-22439329D01*
X44209235Y-22462428D01*
X44215196Y-22486227D01*
X44218796Y-22510495D01*
X44220000Y-22534999D01*
X44220000Y-23560001D01*
X44218796Y-23584505D01*
X44215196Y-23608773D01*
X44209235Y-23632572D01*
X44200970Y-23655671D01*
X44190480Y-23677850D01*
X44177868Y-23698893D01*
X44163253Y-23718599D01*
X44146777Y-23736777D01*
X44128599Y-23753253D01*
X44108893Y-23767868D01*
X44087850Y-23780480D01*
X44065671Y-23790970D01*
X44042572Y-23799235D01*
X44018773Y-23805196D01*
X43994505Y-23808796D01*
X43970001Y-23810000D01*
X41119999Y-23810000D01*
X41095495Y-23808796D01*
X41071227Y-23805196D01*
X41047428Y-23799235D01*
X41024329Y-23790970D01*
X41002150Y-23780480D01*
X40981107Y-23767868D01*
X40961401Y-23753253D01*
X40943223Y-23736777D01*
X40926747Y-23718599D01*
X40912132Y-23698893D01*
X40899520Y-23677850D01*
X40889030Y-23655671D01*
X40880765Y-23632572D01*
X40874804Y-23608773D01*
X40871204Y-23584505D01*
X40870000Y-23560001D01*
X40870000Y-22534999D01*
X40871204Y-22510495D01*
X40874804Y-22486227D01*
X40880765Y-22462428D01*
X40889030Y-22439329D01*
X40899520Y-22417150D01*
X40912132Y-22396107D01*
X40926747Y-22376401D01*
X40943223Y-22358223D01*
X40961401Y-22341747D01*
X40981107Y-22327132D01*
X41002150Y-22314520D01*
X41024329Y-22304030D01*
X41047428Y-22295765D01*
X41071227Y-22289804D01*
X41095495Y-22286204D01*
X41119999Y-22285000D01*
X43970001Y-22285000D01*
X43994505Y-22286204D01*
X43994505Y-22286204D01*
G37*
D12*
G04 #@! TD*
G04 #@! TO.P,C4,1*
G04 #@! TO.N,/Vpanel*
X42545000Y-23047500D03*
D10*
G04 #@! TO.N,/Vbat*
G04 #@! TO.C,C6*
G36*
X57714506Y-21821204D02*
X57738774Y-21824804D01*
X57762573Y-21830765D01*
X57785672Y-21839030D01*
X57807851Y-21849520D01*
X57828894Y-21862132D01*
X57848600Y-21876747D01*
X57866778Y-21893223D01*
X57883254Y-21911401D01*
X57897869Y-21931107D01*
X57910481Y-21952150D01*
X57920971Y-21974329D01*
X57929236Y-21997428D01*
X57935197Y-22021227D01*
X57938797Y-22045495D01*
X57940001Y-22069999D01*
X57940001Y-24920001D01*
X57938797Y-24944505D01*
X57935197Y-24968773D01*
X57929236Y-24992572D01*
X57920971Y-25015671D01*
X57910481Y-25037850D01*
X57897869Y-25058893D01*
X57883254Y-25078599D01*
X57866778Y-25096777D01*
X57848600Y-25113253D01*
X57828894Y-25127868D01*
X57807851Y-25140480D01*
X57785672Y-25150970D01*
X57762573Y-25159235D01*
X57738774Y-25165196D01*
X57714506Y-25168796D01*
X57690002Y-25170000D01*
X56665000Y-25170000D01*
X56640496Y-25168796D01*
X56616228Y-25165196D01*
X56592429Y-25159235D01*
X56569330Y-25150970D01*
X56547151Y-25140480D01*
X56526108Y-25127868D01*
X56506402Y-25113253D01*
X56488224Y-25096777D01*
X56471748Y-25078599D01*
X56457133Y-25058893D01*
X56444521Y-25037850D01*
X56434031Y-25015671D01*
X56425766Y-24992572D01*
X56419805Y-24968773D01*
X56416205Y-24944505D01*
X56415001Y-24920001D01*
X56415001Y-22069999D01*
X56416205Y-22045495D01*
X56419805Y-22021227D01*
X56425766Y-21997428D01*
X56434031Y-21974329D01*
X56444521Y-21952150D01*
X56457133Y-21931107D01*
X56471748Y-21911401D01*
X56488224Y-21893223D01*
X56506402Y-21876747D01*
X56526108Y-21862132D01*
X56547151Y-21849520D01*
X56569330Y-21839030D01*
X56592429Y-21830765D01*
X56616228Y-21824804D01*
X56640496Y-21821204D01*
X56665000Y-21820000D01*
X57690002Y-21820000D01*
X57714506Y-21821204D01*
X57714506Y-21821204D01*
G37*
D12*
G04 #@! TD*
G04 #@! TO.P,C6,1*
G04 #@! TO.N,/Vbat*
X57177501Y-23495000D03*
D10*
G04 #@! TO.N,GNDA*
G04 #@! TO.C,C6*
G36*
X51739506Y-21821204D02*
X51763774Y-21824804D01*
X51787573Y-21830765D01*
X51810672Y-21839030D01*
X51832851Y-21849520D01*
X51853894Y-21862132D01*
X51873600Y-21876747D01*
X51891778Y-21893223D01*
X51908254Y-21911401D01*
X51922869Y-21931107D01*
X51935481Y-21952150D01*
X51945971Y-21974329D01*
X51954236Y-21997428D01*
X51960197Y-22021227D01*
X51963797Y-22045495D01*
X51965001Y-22069999D01*
X51965001Y-24920001D01*
X51963797Y-24944505D01*
X51960197Y-24968773D01*
X51954236Y-24992572D01*
X51945971Y-25015671D01*
X51935481Y-25037850D01*
X51922869Y-25058893D01*
X51908254Y-25078599D01*
X51891778Y-25096777D01*
X51873600Y-25113253D01*
X51853894Y-25127868D01*
X51832851Y-25140480D01*
X51810672Y-25150970D01*
X51787573Y-25159235D01*
X51763774Y-25165196D01*
X51739506Y-25168796D01*
X51715002Y-25170000D01*
X50690000Y-25170000D01*
X50665496Y-25168796D01*
X50641228Y-25165196D01*
X50617429Y-25159235D01*
X50594330Y-25150970D01*
X50572151Y-25140480D01*
X50551108Y-25127868D01*
X50531402Y-25113253D01*
X50513224Y-25096777D01*
X50496748Y-25078599D01*
X50482133Y-25058893D01*
X50469521Y-25037850D01*
X50459031Y-25015671D01*
X50450766Y-24992572D01*
X50444805Y-24968773D01*
X50441205Y-24944505D01*
X50440001Y-24920001D01*
X50440001Y-22069999D01*
X50441205Y-22045495D01*
X50444805Y-22021227D01*
X50450766Y-21997428D01*
X50459031Y-21974329D01*
X50469521Y-21952150D01*
X50482133Y-21931107D01*
X50496748Y-21911401D01*
X50513224Y-21893223D01*
X50531402Y-21876747D01*
X50551108Y-21862132D01*
X50572151Y-21849520D01*
X50594330Y-21839030D01*
X50617429Y-21830765D01*
X50641228Y-21824804D01*
X50665496Y-21821204D01*
X50690000Y-21820000D01*
X51715002Y-21820000D01*
X51739506Y-21821204D01*
X51739506Y-21821204D01*
G37*
D12*
G04 #@! TD*
G04 #@! TO.P,C6,2*
G04 #@! TO.N,GNDA*
X51202501Y-23495000D03*
D13*
G04 #@! TO.P,U2,14*
G04 #@! TO.N,/BatOVInterrupt*
X68017005Y-19064395D03*
G04 #@! TO.P,U2,13*
G04 #@! TO.N,/Vbat*
X62937005Y-19064395D03*
G04 #@! TO.P,U2,12*
G04 #@! TO.N,GNDA*
X60397005Y-19064395D03*
G04 #@! TO.P,U2,11*
X57857005Y-19064395D03*
G04 #@! TO.P,U2,10*
G04 #@! TO.N,/Vbat_SIG_IN*
X55317005Y-19064395D03*
G04 #@! TO.P,U2,9*
G04 #@! TO.N,/Ipanel*
X50237005Y-19064395D03*
G04 #@! TO.P,U2,8*
G04 #@! TO.N,GNDA*
X47697005Y-19064395D03*
G04 #@! TO.P,U2,7*
G04 #@! TO.N,/Ipanel_Ref*
X45157005Y-19064395D03*
G04 #@! TO.P,U2,6*
G04 #@! TO.N,/Ipanel_SIG*
X42617005Y-19064395D03*
G04 #@! TO.P,U2,5*
G04 #@! TO.N,GNDA*
X40077005Y-19064395D03*
G04 #@! TO.P,U2,4*
G04 #@! TO.N,/Vpanel*
X34997005Y-19064395D03*
G04 #@! TO.P,U2,3*
G04 #@! TO.N,GNDA*
X32457005Y-19064395D03*
G04 #@! TO.P,U2,2*
G04 #@! TO.N,/Vpanel_SIG*
X29917005Y-19064395D03*
G04 #@! TO.P,U2,1*
G04 #@! TO.N,/Vpanel_Ref*
X27377005Y-19064395D03*
G04 #@! TO.P,U2,15*
G04 #@! TO.N,/PWM*
X70557005Y-19064395D03*
G04 #@! TO.P,U2,16*
G04 #@! TO.N,GNDA*
X73097005Y-19064395D03*
G04 #@! TO.P,U2,17*
G04 #@! TO.N,+5VA*
X75637005Y-19064395D03*
G04 #@! TD*
D10*
G04 #@! TO.N,/PWM*
G04 #@! TO.C,R1*
G36*
X71594505Y-26341204D02*
X71618773Y-26344804D01*
X71642572Y-26350765D01*
X71665671Y-26359030D01*
X71687850Y-26369520D01*
X71708893Y-26382132D01*
X71728599Y-26396747D01*
X71746777Y-26413223D01*
X71763253Y-26431401D01*
X71777868Y-26451107D01*
X71790480Y-26472150D01*
X71800970Y-26494329D01*
X71809235Y-26517428D01*
X71815196Y-26541227D01*
X71818796Y-26565495D01*
X71820000Y-26589999D01*
X71820000Y-27240001D01*
X71818796Y-27264505D01*
X71815196Y-27288773D01*
X71809235Y-27312572D01*
X71800970Y-27335671D01*
X71790480Y-27357850D01*
X71777868Y-27378893D01*
X71763253Y-27398599D01*
X71746777Y-27416777D01*
X71728599Y-27433253D01*
X71708893Y-27447868D01*
X71687850Y-27460480D01*
X71665671Y-27470970D01*
X71642572Y-27479235D01*
X71618773Y-27485196D01*
X71594505Y-27488796D01*
X71570001Y-27490000D01*
X70669999Y-27490000D01*
X70645495Y-27488796D01*
X70621227Y-27485196D01*
X70597428Y-27479235D01*
X70574329Y-27470970D01*
X70552150Y-27460480D01*
X70531107Y-27447868D01*
X70511401Y-27433253D01*
X70493223Y-27416777D01*
X70476747Y-27398599D01*
X70462132Y-27378893D01*
X70449520Y-27357850D01*
X70439030Y-27335671D01*
X70430765Y-27312572D01*
X70424804Y-27288773D01*
X70421204Y-27264505D01*
X70420000Y-27240001D01*
X70420000Y-26589999D01*
X70421204Y-26565495D01*
X70424804Y-26541227D01*
X70430765Y-26517428D01*
X70439030Y-26494329D01*
X70449520Y-26472150D01*
X70462132Y-26451107D01*
X70476747Y-26431401D01*
X70493223Y-26413223D01*
X70511401Y-26396747D01*
X70531107Y-26382132D01*
X70552150Y-26369520D01*
X70574329Y-26359030D01*
X70597428Y-26350765D01*
X70621227Y-26344804D01*
X70645495Y-26341204D01*
X70669999Y-26340000D01*
X71570001Y-26340000D01*
X71594505Y-26341204D01*
X71594505Y-26341204D01*
G37*
D11*
G04 #@! TD*
G04 #@! TO.P,R1,1*
G04 #@! TO.N,/PWM*
X71120000Y-26915000D03*
D10*
G04 #@! TO.N,Net-(Q1-Pad3)*
G04 #@! TO.C,R1*
G36*
X71594505Y-28391204D02*
X71618773Y-28394804D01*
X71642572Y-28400765D01*
X71665671Y-28409030D01*
X71687850Y-28419520D01*
X71708893Y-28432132D01*
X71728599Y-28446747D01*
X71746777Y-28463223D01*
X71763253Y-28481401D01*
X71777868Y-28501107D01*
X71790480Y-28522150D01*
X71800970Y-28544329D01*
X71809235Y-28567428D01*
X71815196Y-28591227D01*
X71818796Y-28615495D01*
X71820000Y-28639999D01*
X71820000Y-29290001D01*
X71818796Y-29314505D01*
X71815196Y-29338773D01*
X71809235Y-29362572D01*
X71800970Y-29385671D01*
X71790480Y-29407850D01*
X71777868Y-29428893D01*
X71763253Y-29448599D01*
X71746777Y-29466777D01*
X71728599Y-29483253D01*
X71708893Y-29497868D01*
X71687850Y-29510480D01*
X71665671Y-29520970D01*
X71642572Y-29529235D01*
X71618773Y-29535196D01*
X71594505Y-29538796D01*
X71570001Y-29540000D01*
X70669999Y-29540000D01*
X70645495Y-29538796D01*
X70621227Y-29535196D01*
X70597428Y-29529235D01*
X70574329Y-29520970D01*
X70552150Y-29510480D01*
X70531107Y-29497868D01*
X70511401Y-29483253D01*
X70493223Y-29466777D01*
X70476747Y-29448599D01*
X70462132Y-29428893D01*
X70449520Y-29407850D01*
X70439030Y-29385671D01*
X70430765Y-29362572D01*
X70424804Y-29338773D01*
X70421204Y-29314505D01*
X70420000Y-29290001D01*
X70420000Y-28639999D01*
X70421204Y-28615495D01*
X70424804Y-28591227D01*
X70430765Y-28567428D01*
X70439030Y-28544329D01*
X70449520Y-28522150D01*
X70462132Y-28501107D01*
X70476747Y-28481401D01*
X70493223Y-28463223D01*
X70511401Y-28446747D01*
X70531107Y-28432132D01*
X70552150Y-28419520D01*
X70574329Y-28409030D01*
X70597428Y-28400765D01*
X70621227Y-28394804D01*
X70645495Y-28391204D01*
X70669999Y-28390000D01*
X71570001Y-28390000D01*
X71594505Y-28391204D01*
X71594505Y-28391204D01*
G37*
D11*
G04 #@! TD*
G04 #@! TO.P,R1,2*
G04 #@! TO.N,Net-(Q1-Pad3)*
X71120000Y-28965000D03*
D10*
G04 #@! TO.N,+5VA*
G04 #@! TO.C,C1*
G36*
X56989505Y-35376204D02*
X57013773Y-35379804D01*
X57037572Y-35385765D01*
X57060671Y-35394030D01*
X57082850Y-35404520D01*
X57103893Y-35417132D01*
X57123599Y-35431747D01*
X57141777Y-35448223D01*
X57158253Y-35466401D01*
X57172868Y-35486107D01*
X57185480Y-35507150D01*
X57195970Y-35529329D01*
X57204235Y-35552428D01*
X57210196Y-35576227D01*
X57213796Y-35600495D01*
X57215000Y-35624999D01*
X57215000Y-36275001D01*
X57213796Y-36299505D01*
X57210196Y-36323773D01*
X57204235Y-36347572D01*
X57195970Y-36370671D01*
X57185480Y-36392850D01*
X57172868Y-36413893D01*
X57158253Y-36433599D01*
X57141777Y-36451777D01*
X57123599Y-36468253D01*
X57103893Y-36482868D01*
X57082850Y-36495480D01*
X57060671Y-36505970D01*
X57037572Y-36514235D01*
X57013773Y-36520196D01*
X56989505Y-36523796D01*
X56965001Y-36525000D01*
X56064999Y-36525000D01*
X56040495Y-36523796D01*
X56016227Y-36520196D01*
X55992428Y-36514235D01*
X55969329Y-36505970D01*
X55947150Y-36495480D01*
X55926107Y-36482868D01*
X55906401Y-36468253D01*
X55888223Y-36451777D01*
X55871747Y-36433599D01*
X55857132Y-36413893D01*
X55844520Y-36392850D01*
X55834030Y-36370671D01*
X55825765Y-36347572D01*
X55819804Y-36323773D01*
X55816204Y-36299505D01*
X55815000Y-36275001D01*
X55815000Y-35624999D01*
X55816204Y-35600495D01*
X55819804Y-35576227D01*
X55825765Y-35552428D01*
X55834030Y-35529329D01*
X55844520Y-35507150D01*
X55857132Y-35486107D01*
X55871747Y-35466401D01*
X55888223Y-35448223D01*
X55906401Y-35431747D01*
X55926107Y-35417132D01*
X55947150Y-35404520D01*
X55969329Y-35394030D01*
X55992428Y-35385765D01*
X56016227Y-35379804D01*
X56040495Y-35376204D01*
X56064999Y-35375000D01*
X56965001Y-35375000D01*
X56989505Y-35376204D01*
X56989505Y-35376204D01*
G37*
D11*
G04 #@! TD*
G04 #@! TO.P,C1,2*
G04 #@! TO.N,+5VA*
X56515000Y-35950000D03*
D10*
G04 #@! TO.N,GNDA*
G04 #@! TO.C,C1*
G36*
X56989505Y-33326204D02*
X57013773Y-33329804D01*
X57037572Y-33335765D01*
X57060671Y-33344030D01*
X57082850Y-33354520D01*
X57103893Y-33367132D01*
X57123599Y-33381747D01*
X57141777Y-33398223D01*
X57158253Y-33416401D01*
X57172868Y-33436107D01*
X57185480Y-33457150D01*
X57195970Y-33479329D01*
X57204235Y-33502428D01*
X57210196Y-33526227D01*
X57213796Y-33550495D01*
X57215000Y-33574999D01*
X57215000Y-34225001D01*
X57213796Y-34249505D01*
X57210196Y-34273773D01*
X57204235Y-34297572D01*
X57195970Y-34320671D01*
X57185480Y-34342850D01*
X57172868Y-34363893D01*
X57158253Y-34383599D01*
X57141777Y-34401777D01*
X57123599Y-34418253D01*
X57103893Y-34432868D01*
X57082850Y-34445480D01*
X57060671Y-34455970D01*
X57037572Y-34464235D01*
X57013773Y-34470196D01*
X56989505Y-34473796D01*
X56965001Y-34475000D01*
X56064999Y-34475000D01*
X56040495Y-34473796D01*
X56016227Y-34470196D01*
X55992428Y-34464235D01*
X55969329Y-34455970D01*
X55947150Y-34445480D01*
X55926107Y-34432868D01*
X55906401Y-34418253D01*
X55888223Y-34401777D01*
X55871747Y-34383599D01*
X55857132Y-34363893D01*
X55844520Y-34342850D01*
X55834030Y-34320671D01*
X55825765Y-34297572D01*
X55819804Y-34273773D01*
X55816204Y-34249505D01*
X55815000Y-34225001D01*
X55815000Y-33574999D01*
X55816204Y-33550495D01*
X55819804Y-33526227D01*
X55825765Y-33502428D01*
X55834030Y-33479329D01*
X55844520Y-33457150D01*
X55857132Y-33436107D01*
X55871747Y-33416401D01*
X55888223Y-33398223D01*
X55906401Y-33381747D01*
X55926107Y-33367132D01*
X55947150Y-33354520D01*
X55969329Y-33344030D01*
X55992428Y-33335765D01*
X56016227Y-33329804D01*
X56040495Y-33326204D01*
X56064999Y-33325000D01*
X56965001Y-33325000D01*
X56989505Y-33326204D01*
X56989505Y-33326204D01*
G37*
D11*
G04 #@! TD*
G04 #@! TO.P,C1,1*
G04 #@! TO.N,GNDA*
X56515000Y-33900000D03*
D10*
G04 #@! TO.N,Net-(R12-Pad2)*
G04 #@! TO.C,R7*
G36*
X67784505Y-26486204D02*
X67808773Y-26489804D01*
X67832572Y-26495765D01*
X67855671Y-26504030D01*
X67877850Y-26514520D01*
X67898893Y-26527132D01*
X67918599Y-26541747D01*
X67936777Y-26558223D01*
X67953253Y-26576401D01*
X67967868Y-26596107D01*
X67980480Y-26617150D01*
X67990970Y-26639329D01*
X67999235Y-26662428D01*
X68005196Y-26686227D01*
X68008796Y-26710495D01*
X68010000Y-26734999D01*
X68010000Y-27385001D01*
X68008796Y-27409505D01*
X68005196Y-27433773D01*
X67999235Y-27457572D01*
X67990970Y-27480671D01*
X67980480Y-27502850D01*
X67967868Y-27523893D01*
X67953253Y-27543599D01*
X67936777Y-27561777D01*
X67918599Y-27578253D01*
X67898893Y-27592868D01*
X67877850Y-27605480D01*
X67855671Y-27615970D01*
X67832572Y-27624235D01*
X67808773Y-27630196D01*
X67784505Y-27633796D01*
X67760001Y-27635000D01*
X66859999Y-27635000D01*
X66835495Y-27633796D01*
X66811227Y-27630196D01*
X66787428Y-27624235D01*
X66764329Y-27615970D01*
X66742150Y-27605480D01*
X66721107Y-27592868D01*
X66701401Y-27578253D01*
X66683223Y-27561777D01*
X66666747Y-27543599D01*
X66652132Y-27523893D01*
X66639520Y-27502850D01*
X66629030Y-27480671D01*
X66620765Y-27457572D01*
X66614804Y-27433773D01*
X66611204Y-27409505D01*
X66610000Y-27385001D01*
X66610000Y-26734999D01*
X66611204Y-26710495D01*
X66614804Y-26686227D01*
X66620765Y-26662428D01*
X66629030Y-26639329D01*
X66639520Y-26617150D01*
X66652132Y-26596107D01*
X66666747Y-26576401D01*
X66683223Y-26558223D01*
X66701401Y-26541747D01*
X66721107Y-26527132D01*
X66742150Y-26514520D01*
X66764329Y-26504030D01*
X66787428Y-26495765D01*
X66811227Y-26489804D01*
X66835495Y-26486204D01*
X66859999Y-26485000D01*
X67760001Y-26485000D01*
X67784505Y-26486204D01*
X67784505Y-26486204D01*
G37*
D11*
G04 #@! TD*
G04 #@! TO.P,R7,1*
G04 #@! TO.N,Net-(R12-Pad2)*
X67310000Y-27060000D03*
D10*
G04 #@! TO.N,+5VA*
G04 #@! TO.C,R7*
G36*
X67784505Y-24436204D02*
X67808773Y-24439804D01*
X67832572Y-24445765D01*
X67855671Y-24454030D01*
X67877850Y-24464520D01*
X67898893Y-24477132D01*
X67918599Y-24491747D01*
X67936777Y-24508223D01*
X67953253Y-24526401D01*
X67967868Y-24546107D01*
X67980480Y-24567150D01*
X67990970Y-24589329D01*
X67999235Y-24612428D01*
X68005196Y-24636227D01*
X68008796Y-24660495D01*
X68010000Y-24684999D01*
X68010000Y-25335001D01*
X68008796Y-25359505D01*
X68005196Y-25383773D01*
X67999235Y-25407572D01*
X67990970Y-25430671D01*
X67980480Y-25452850D01*
X67967868Y-25473893D01*
X67953253Y-25493599D01*
X67936777Y-25511777D01*
X67918599Y-25528253D01*
X67898893Y-25542868D01*
X67877850Y-25555480D01*
X67855671Y-25565970D01*
X67832572Y-25574235D01*
X67808773Y-25580196D01*
X67784505Y-25583796D01*
X67760001Y-25585000D01*
X66859999Y-25585000D01*
X66835495Y-25583796D01*
X66811227Y-25580196D01*
X66787428Y-25574235D01*
X66764329Y-25565970D01*
X66742150Y-25555480D01*
X66721107Y-25542868D01*
X66701401Y-25528253D01*
X66683223Y-25511777D01*
X66666747Y-25493599D01*
X66652132Y-25473893D01*
X66639520Y-25452850D01*
X66629030Y-25430671D01*
X66620765Y-25407572D01*
X66614804Y-25383773D01*
X66611204Y-25359505D01*
X66610000Y-25335001D01*
X66610000Y-24684999D01*
X66611204Y-24660495D01*
X66614804Y-24636227D01*
X66620765Y-24612428D01*
X66629030Y-24589329D01*
X66639520Y-24567150D01*
X66652132Y-24546107D01*
X66666747Y-24526401D01*
X66683223Y-24508223D01*
X66701401Y-24491747D01*
X66721107Y-24477132D01*
X66742150Y-24464520D01*
X66764329Y-24454030D01*
X66787428Y-24445765D01*
X66811227Y-24439804D01*
X66835495Y-24436204D01*
X66859999Y-24435000D01*
X67760001Y-24435000D01*
X67784505Y-24436204D01*
X67784505Y-24436204D01*
G37*
D11*
G04 #@! TD*
G04 #@! TO.P,R7,2*
G04 #@! TO.N,+5VA*
X67310000Y-25010000D03*
D10*
G04 #@! TO.N,Net-(R12-Pad2)*
G04 #@! TO.C,R12*
G36*
X65879505Y-26486204D02*
X65903773Y-26489804D01*
X65927572Y-26495765D01*
X65950671Y-26504030D01*
X65972850Y-26514520D01*
X65993893Y-26527132D01*
X66013599Y-26541747D01*
X66031777Y-26558223D01*
X66048253Y-26576401D01*
X66062868Y-26596107D01*
X66075480Y-26617150D01*
X66085970Y-26639329D01*
X66094235Y-26662428D01*
X66100196Y-26686227D01*
X66103796Y-26710495D01*
X66105000Y-26734999D01*
X66105000Y-27385001D01*
X66103796Y-27409505D01*
X66100196Y-27433773D01*
X66094235Y-27457572D01*
X66085970Y-27480671D01*
X66075480Y-27502850D01*
X66062868Y-27523893D01*
X66048253Y-27543599D01*
X66031777Y-27561777D01*
X66013599Y-27578253D01*
X65993893Y-27592868D01*
X65972850Y-27605480D01*
X65950671Y-27615970D01*
X65927572Y-27624235D01*
X65903773Y-27630196D01*
X65879505Y-27633796D01*
X65855001Y-27635000D01*
X64954999Y-27635000D01*
X64930495Y-27633796D01*
X64906227Y-27630196D01*
X64882428Y-27624235D01*
X64859329Y-27615970D01*
X64837150Y-27605480D01*
X64816107Y-27592868D01*
X64796401Y-27578253D01*
X64778223Y-27561777D01*
X64761747Y-27543599D01*
X64747132Y-27523893D01*
X64734520Y-27502850D01*
X64724030Y-27480671D01*
X64715765Y-27457572D01*
X64709804Y-27433773D01*
X64706204Y-27409505D01*
X64705000Y-27385001D01*
X64705000Y-26734999D01*
X64706204Y-26710495D01*
X64709804Y-26686227D01*
X64715765Y-26662428D01*
X64724030Y-26639329D01*
X64734520Y-26617150D01*
X64747132Y-26596107D01*
X64761747Y-26576401D01*
X64778223Y-26558223D01*
X64796401Y-26541747D01*
X64816107Y-26527132D01*
X64837150Y-26514520D01*
X64859329Y-26504030D01*
X64882428Y-26495765D01*
X64906227Y-26489804D01*
X64930495Y-26486204D01*
X64954999Y-26485000D01*
X65855001Y-26485000D01*
X65879505Y-26486204D01*
X65879505Y-26486204D01*
G37*
D11*
G04 #@! TD*
G04 #@! TO.P,R12,2*
G04 #@! TO.N,Net-(R12-Pad2)*
X65405000Y-27060000D03*
D10*
G04 #@! TO.N,GNDA*
G04 #@! TO.C,R12*
G36*
X65879505Y-24436204D02*
X65903773Y-24439804D01*
X65927572Y-24445765D01*
X65950671Y-24454030D01*
X65972850Y-24464520D01*
X65993893Y-24477132D01*
X66013599Y-24491747D01*
X66031777Y-24508223D01*
X66048253Y-24526401D01*
X66062868Y-24546107D01*
X66075480Y-24567150D01*
X66085970Y-24589329D01*
X66094235Y-24612428D01*
X66100196Y-24636227D01*
X66103796Y-24660495D01*
X66105000Y-24684999D01*
X66105000Y-25335001D01*
X66103796Y-25359505D01*
X66100196Y-25383773D01*
X66094235Y-25407572D01*
X66085970Y-25430671D01*
X66075480Y-25452850D01*
X66062868Y-25473893D01*
X66048253Y-25493599D01*
X66031777Y-25511777D01*
X66013599Y-25528253D01*
X65993893Y-25542868D01*
X65972850Y-25555480D01*
X65950671Y-25565970D01*
X65927572Y-25574235D01*
X65903773Y-25580196D01*
X65879505Y-25583796D01*
X65855001Y-25585000D01*
X64954999Y-25585000D01*
X64930495Y-25583796D01*
X64906227Y-25580196D01*
X64882428Y-25574235D01*
X64859329Y-25565970D01*
X64837150Y-25555480D01*
X64816107Y-25542868D01*
X64796401Y-25528253D01*
X64778223Y-25511777D01*
X64761747Y-25493599D01*
X64747132Y-25473893D01*
X64734520Y-25452850D01*
X64724030Y-25430671D01*
X64715765Y-25407572D01*
X64709804Y-25383773D01*
X64706204Y-25359505D01*
X64705000Y-25335001D01*
X64705000Y-24684999D01*
X64706204Y-24660495D01*
X64709804Y-24636227D01*
X64715765Y-24612428D01*
X64724030Y-24589329D01*
X64734520Y-24567150D01*
X64747132Y-24546107D01*
X64761747Y-24526401D01*
X64778223Y-24508223D01*
X64796401Y-24491747D01*
X64816107Y-24477132D01*
X64837150Y-24464520D01*
X64859329Y-24454030D01*
X64882428Y-24445765D01*
X64906227Y-24439804D01*
X64930495Y-24436204D01*
X64954999Y-24435000D01*
X65855001Y-24435000D01*
X65879505Y-24436204D01*
X65879505Y-24436204D01*
G37*
D11*
G04 #@! TD*
G04 #@! TO.P,R12,1*
G04 #@! TO.N,GNDA*
X65405000Y-25010000D03*
D10*
G04 #@! TO.N,Net-(R8-Pad1)*
G04 #@! TO.C,R8*
G36*
X67160505Y-28511204D02*
X67184773Y-28514804D01*
X67208572Y-28520765D01*
X67231671Y-28529030D01*
X67253850Y-28539520D01*
X67274893Y-28552132D01*
X67294599Y-28566747D01*
X67312777Y-28583223D01*
X67329253Y-28601401D01*
X67343868Y-28621107D01*
X67356480Y-28642150D01*
X67366970Y-28664329D01*
X67375235Y-28687428D01*
X67381196Y-28711227D01*
X67384796Y-28735495D01*
X67386000Y-28759999D01*
X67386000Y-29660001D01*
X67384796Y-29684505D01*
X67381196Y-29708773D01*
X67375235Y-29732572D01*
X67366970Y-29755671D01*
X67356480Y-29777850D01*
X67343868Y-29798893D01*
X67329253Y-29818599D01*
X67312777Y-29836777D01*
X67294599Y-29853253D01*
X67274893Y-29867868D01*
X67253850Y-29880480D01*
X67231671Y-29890970D01*
X67208572Y-29899235D01*
X67184773Y-29905196D01*
X67160505Y-29908796D01*
X67136001Y-29910000D01*
X66485999Y-29910000D01*
X66461495Y-29908796D01*
X66437227Y-29905196D01*
X66413428Y-29899235D01*
X66390329Y-29890970D01*
X66368150Y-29880480D01*
X66347107Y-29867868D01*
X66327401Y-29853253D01*
X66309223Y-29836777D01*
X66292747Y-29818599D01*
X66278132Y-29798893D01*
X66265520Y-29777850D01*
X66255030Y-29755671D01*
X66246765Y-29732572D01*
X66240804Y-29708773D01*
X66237204Y-29684505D01*
X66236000Y-29660001D01*
X66236000Y-28759999D01*
X66237204Y-28735495D01*
X66240804Y-28711227D01*
X66246765Y-28687428D01*
X66255030Y-28664329D01*
X66265520Y-28642150D01*
X66278132Y-28621107D01*
X66292747Y-28601401D01*
X66309223Y-28583223D01*
X66327401Y-28566747D01*
X66347107Y-28552132D01*
X66368150Y-28539520D01*
X66390329Y-28529030D01*
X66413428Y-28520765D01*
X66437227Y-28514804D01*
X66461495Y-28511204D01*
X66485999Y-28510000D01*
X67136001Y-28510000D01*
X67160505Y-28511204D01*
X67160505Y-28511204D01*
G37*
D11*
G04 #@! TD*
G04 #@! TO.P,R8,1*
G04 #@! TO.N,Net-(R8-Pad1)*
X66811000Y-29210000D03*
D10*
G04 #@! TO.N,Net-(R12-Pad2)*
G04 #@! TO.C,R8*
G36*
X65110505Y-28511204D02*
X65134773Y-28514804D01*
X65158572Y-28520765D01*
X65181671Y-28529030D01*
X65203850Y-28539520D01*
X65224893Y-28552132D01*
X65244599Y-28566747D01*
X65262777Y-28583223D01*
X65279253Y-28601401D01*
X65293868Y-28621107D01*
X65306480Y-28642150D01*
X65316970Y-28664329D01*
X65325235Y-28687428D01*
X65331196Y-28711227D01*
X65334796Y-28735495D01*
X65336000Y-28759999D01*
X65336000Y-29660001D01*
X65334796Y-29684505D01*
X65331196Y-29708773D01*
X65325235Y-29732572D01*
X65316970Y-29755671D01*
X65306480Y-29777850D01*
X65293868Y-29798893D01*
X65279253Y-29818599D01*
X65262777Y-29836777D01*
X65244599Y-29853253D01*
X65224893Y-29867868D01*
X65203850Y-29880480D01*
X65181671Y-29890970D01*
X65158572Y-29899235D01*
X65134773Y-29905196D01*
X65110505Y-29908796D01*
X65086001Y-29910000D01*
X64435999Y-29910000D01*
X64411495Y-29908796D01*
X64387227Y-29905196D01*
X64363428Y-29899235D01*
X64340329Y-29890970D01*
X64318150Y-29880480D01*
X64297107Y-29867868D01*
X64277401Y-29853253D01*
X64259223Y-29836777D01*
X64242747Y-29818599D01*
X64228132Y-29798893D01*
X64215520Y-29777850D01*
X64205030Y-29755671D01*
X64196765Y-29732572D01*
X64190804Y-29708773D01*
X64187204Y-29684505D01*
X64186000Y-29660001D01*
X64186000Y-28759999D01*
X64187204Y-28735495D01*
X64190804Y-28711227D01*
X64196765Y-28687428D01*
X64205030Y-28664329D01*
X64215520Y-28642150D01*
X64228132Y-28621107D01*
X64242747Y-28601401D01*
X64259223Y-28583223D01*
X64277401Y-28566747D01*
X64297107Y-28552132D01*
X64318150Y-28539520D01*
X64340329Y-28529030D01*
X64363428Y-28520765D01*
X64387227Y-28514804D01*
X64411495Y-28511204D01*
X64435999Y-28510000D01*
X65086001Y-28510000D01*
X65110505Y-28511204D01*
X65110505Y-28511204D01*
G37*
D11*
G04 #@! TD*
G04 #@! TO.P,R8,2*
G04 #@! TO.N,Net-(R12-Pad2)*
X64761000Y-29210000D03*
D10*
G04 #@! TO.N,GNDA*
G04 #@! TO.C,D1*
G36*
X63629504Y-23481204D02*
X63653773Y-23484804D01*
X63677571Y-23490765D01*
X63700671Y-23499030D01*
X63722849Y-23509520D01*
X63743893Y-23522133D01*
X63763598Y-23536747D01*
X63781777Y-23553223D01*
X63798253Y-23571402D01*
X63812867Y-23591107D01*
X63825480Y-23612151D01*
X63835970Y-23634329D01*
X63844235Y-23657429D01*
X63850196Y-23681227D01*
X63853796Y-23705496D01*
X63855000Y-23730000D01*
X63855000Y-24530000D01*
X63853796Y-24554504D01*
X63850196Y-24578773D01*
X63844235Y-24602571D01*
X63835970Y-24625671D01*
X63825480Y-24647849D01*
X63812867Y-24668893D01*
X63798253Y-24688598D01*
X63781777Y-24706777D01*
X63763598Y-24723253D01*
X63743893Y-24737867D01*
X63722849Y-24750480D01*
X63700671Y-24760970D01*
X63677571Y-24769235D01*
X63653773Y-24775196D01*
X63629504Y-24778796D01*
X63605000Y-24780000D01*
X62780000Y-24780000D01*
X62755496Y-24778796D01*
X62731227Y-24775196D01*
X62707429Y-24769235D01*
X62684329Y-24760970D01*
X62662151Y-24750480D01*
X62641107Y-24737867D01*
X62621402Y-24723253D01*
X62603223Y-24706777D01*
X62586747Y-24688598D01*
X62572133Y-24668893D01*
X62559520Y-24647849D01*
X62549030Y-24625671D01*
X62540765Y-24602571D01*
X62534804Y-24578773D01*
X62531204Y-24554504D01*
X62530000Y-24530000D01*
X62530000Y-23730000D01*
X62531204Y-23705496D01*
X62534804Y-23681227D01*
X62540765Y-23657429D01*
X62549030Y-23634329D01*
X62559520Y-23612151D01*
X62572133Y-23591107D01*
X62586747Y-23571402D01*
X62603223Y-23553223D01*
X62621402Y-23536747D01*
X62641107Y-23522133D01*
X62662151Y-23509520D01*
X62684329Y-23499030D01*
X62707429Y-23490765D01*
X62731227Y-23484804D01*
X62755496Y-23481204D01*
X62780000Y-23480000D01*
X63605000Y-23480000D01*
X63629504Y-23481204D01*
X63629504Y-23481204D01*
G37*
D14*
G04 #@! TD*
G04 #@! TO.P,D1,2*
G04 #@! TO.N,GNDA*
X63192500Y-24130000D03*
D10*
G04 #@! TO.N,/Vbat*
G04 #@! TO.C,D1*
G36*
X61704504Y-23481204D02*
X61728773Y-23484804D01*
X61752571Y-23490765D01*
X61775671Y-23499030D01*
X61797849Y-23509520D01*
X61818893Y-23522133D01*
X61838598Y-23536747D01*
X61856777Y-23553223D01*
X61873253Y-23571402D01*
X61887867Y-23591107D01*
X61900480Y-23612151D01*
X61910970Y-23634329D01*
X61919235Y-23657429D01*
X61925196Y-23681227D01*
X61928796Y-23705496D01*
X61930000Y-23730000D01*
X61930000Y-24530000D01*
X61928796Y-24554504D01*
X61925196Y-24578773D01*
X61919235Y-24602571D01*
X61910970Y-24625671D01*
X61900480Y-24647849D01*
X61887867Y-24668893D01*
X61873253Y-24688598D01*
X61856777Y-24706777D01*
X61838598Y-24723253D01*
X61818893Y-24737867D01*
X61797849Y-24750480D01*
X61775671Y-24760970D01*
X61752571Y-24769235D01*
X61728773Y-24775196D01*
X61704504Y-24778796D01*
X61680000Y-24780000D01*
X60855000Y-24780000D01*
X60830496Y-24778796D01*
X60806227Y-24775196D01*
X60782429Y-24769235D01*
X60759329Y-24760970D01*
X60737151Y-24750480D01*
X60716107Y-24737867D01*
X60696402Y-24723253D01*
X60678223Y-24706777D01*
X60661747Y-24688598D01*
X60647133Y-24668893D01*
X60634520Y-24647849D01*
X60624030Y-24625671D01*
X60615765Y-24602571D01*
X60609804Y-24578773D01*
X60606204Y-24554504D01*
X60605000Y-24530000D01*
X60605000Y-23730000D01*
X60606204Y-23705496D01*
X60609804Y-23681227D01*
X60615765Y-23657429D01*
X60624030Y-23634329D01*
X60634520Y-23612151D01*
X60647133Y-23591107D01*
X60661747Y-23571402D01*
X60678223Y-23553223D01*
X60696402Y-23536747D01*
X60716107Y-23522133D01*
X60737151Y-23509520D01*
X60759329Y-23499030D01*
X60782429Y-23490765D01*
X60806227Y-23484804D01*
X60830496Y-23481204D01*
X60855000Y-23480000D01*
X61680000Y-23480000D01*
X61704504Y-23481204D01*
X61704504Y-23481204D01*
G37*
D14*
G04 #@! TD*
G04 #@! TO.P,D1,1*
G04 #@! TO.N,/Vbat*
X61267500Y-24130000D03*
D10*
G04 #@! TO.N,/Vpanel*
G04 #@! TO.C,D2*
G36*
X35984504Y-23776204D02*
X36008773Y-23779804D01*
X36032571Y-23785765D01*
X36055671Y-23794030D01*
X36077849Y-23804520D01*
X36098893Y-23817133D01*
X36118598Y-23831747D01*
X36136777Y-23848223D01*
X36153253Y-23866402D01*
X36167867Y-23886107D01*
X36180480Y-23907151D01*
X36190970Y-23929329D01*
X36199235Y-23952429D01*
X36205196Y-23976227D01*
X36208796Y-24000496D01*
X36210000Y-24025000D01*
X36210000Y-24850000D01*
X36208796Y-24874504D01*
X36205196Y-24898773D01*
X36199235Y-24922571D01*
X36190970Y-24945671D01*
X36180480Y-24967849D01*
X36167867Y-24988893D01*
X36153253Y-25008598D01*
X36136777Y-25026777D01*
X36118598Y-25043253D01*
X36098893Y-25057867D01*
X36077849Y-25070480D01*
X36055671Y-25080970D01*
X36032571Y-25089235D01*
X36008773Y-25095196D01*
X35984504Y-25098796D01*
X35960000Y-25100000D01*
X35160000Y-25100000D01*
X35135496Y-25098796D01*
X35111227Y-25095196D01*
X35087429Y-25089235D01*
X35064329Y-25080970D01*
X35042151Y-25070480D01*
X35021107Y-25057867D01*
X35001402Y-25043253D01*
X34983223Y-25026777D01*
X34966747Y-25008598D01*
X34952133Y-24988893D01*
X34939520Y-24967849D01*
X34929030Y-24945671D01*
X34920765Y-24922571D01*
X34914804Y-24898773D01*
X34911204Y-24874504D01*
X34910000Y-24850000D01*
X34910000Y-24025000D01*
X34911204Y-24000496D01*
X34914804Y-23976227D01*
X34920765Y-23952429D01*
X34929030Y-23929329D01*
X34939520Y-23907151D01*
X34952133Y-23886107D01*
X34966747Y-23866402D01*
X34983223Y-23848223D01*
X35001402Y-23831747D01*
X35021107Y-23817133D01*
X35042151Y-23804520D01*
X35064329Y-23794030D01*
X35087429Y-23785765D01*
X35111227Y-23779804D01*
X35135496Y-23776204D01*
X35160000Y-23775000D01*
X35960000Y-23775000D01*
X35984504Y-23776204D01*
X35984504Y-23776204D01*
G37*
D14*
G04 #@! TD*
G04 #@! TO.P,D2,1*
G04 #@! TO.N,/Vpanel*
X35560000Y-24437500D03*
D10*
G04 #@! TO.N,GNDA*
G04 #@! TO.C,D2*
G36*
X35984504Y-25701204D02*
X36008773Y-25704804D01*
X36032571Y-25710765D01*
X36055671Y-25719030D01*
X36077849Y-25729520D01*
X36098893Y-25742133D01*
X36118598Y-25756747D01*
X36136777Y-25773223D01*
X36153253Y-25791402D01*
X36167867Y-25811107D01*
X36180480Y-25832151D01*
X36190970Y-25854329D01*
X36199235Y-25877429D01*
X36205196Y-25901227D01*
X36208796Y-25925496D01*
X36210000Y-25950000D01*
X36210000Y-26775000D01*
X36208796Y-26799504D01*
X36205196Y-26823773D01*
X36199235Y-26847571D01*
X36190970Y-26870671D01*
X36180480Y-26892849D01*
X36167867Y-26913893D01*
X36153253Y-26933598D01*
X36136777Y-26951777D01*
X36118598Y-26968253D01*
X36098893Y-26982867D01*
X36077849Y-26995480D01*
X36055671Y-27005970D01*
X36032571Y-27014235D01*
X36008773Y-27020196D01*
X35984504Y-27023796D01*
X35960000Y-27025000D01*
X35160000Y-27025000D01*
X35135496Y-27023796D01*
X35111227Y-27020196D01*
X35087429Y-27014235D01*
X35064329Y-27005970D01*
X35042151Y-26995480D01*
X35021107Y-26982867D01*
X35001402Y-26968253D01*
X34983223Y-26951777D01*
X34966747Y-26933598D01*
X34952133Y-26913893D01*
X34939520Y-26892849D01*
X34929030Y-26870671D01*
X34920765Y-26847571D01*
X34914804Y-26823773D01*
X34911204Y-26799504D01*
X34910000Y-26775000D01*
X34910000Y-25950000D01*
X34911204Y-25925496D01*
X34914804Y-25901227D01*
X34920765Y-25877429D01*
X34929030Y-25854329D01*
X34939520Y-25832151D01*
X34952133Y-25811107D01*
X34966747Y-25791402D01*
X34983223Y-25773223D01*
X35001402Y-25756747D01*
X35021107Y-25742133D01*
X35042151Y-25729520D01*
X35064329Y-25719030D01*
X35087429Y-25710765D01*
X35111227Y-25704804D01*
X35135496Y-25701204D01*
X35160000Y-25700000D01*
X35960000Y-25700000D01*
X35984504Y-25701204D01*
X35984504Y-25701204D01*
G37*
D14*
G04 #@! TD*
G04 #@! TO.P,D2,2*
G04 #@! TO.N,GNDA*
X35560000Y-26362500D03*
D10*
G04 #@! TO.N,+5VA*
G04 #@! TO.C,R2*
G36*
X61554505Y-39941204D02*
X61578773Y-39944804D01*
X61602572Y-39950765D01*
X61625671Y-39959030D01*
X61647850Y-39969520D01*
X61668893Y-39982132D01*
X61688599Y-39996747D01*
X61706777Y-40013223D01*
X61723253Y-40031401D01*
X61737868Y-40051107D01*
X61750480Y-40072150D01*
X61760970Y-40094329D01*
X61769235Y-40117428D01*
X61775196Y-40141227D01*
X61778796Y-40165495D01*
X61780000Y-40189999D01*
X61780000Y-41090001D01*
X61778796Y-41114505D01*
X61775196Y-41138773D01*
X61769235Y-41162572D01*
X61760970Y-41185671D01*
X61750480Y-41207850D01*
X61737868Y-41228893D01*
X61723253Y-41248599D01*
X61706777Y-41266777D01*
X61688599Y-41283253D01*
X61668893Y-41297868D01*
X61647850Y-41310480D01*
X61625671Y-41320970D01*
X61602572Y-41329235D01*
X61578773Y-41335196D01*
X61554505Y-41338796D01*
X61530001Y-41340000D01*
X60879999Y-41340000D01*
X60855495Y-41338796D01*
X60831227Y-41335196D01*
X60807428Y-41329235D01*
X60784329Y-41320970D01*
X60762150Y-41310480D01*
X60741107Y-41297868D01*
X60721401Y-41283253D01*
X60703223Y-41266777D01*
X60686747Y-41248599D01*
X60672132Y-41228893D01*
X60659520Y-41207850D01*
X60649030Y-41185671D01*
X60640765Y-41162572D01*
X60634804Y-41138773D01*
X60631204Y-41114505D01*
X60630000Y-41090001D01*
X60630000Y-40189999D01*
X60631204Y-40165495D01*
X60634804Y-40141227D01*
X60640765Y-40117428D01*
X60649030Y-40094329D01*
X60659520Y-40072150D01*
X60672132Y-40051107D01*
X60686747Y-40031401D01*
X60703223Y-40013223D01*
X60721401Y-39996747D01*
X60741107Y-39982132D01*
X60762150Y-39969520D01*
X60784329Y-39959030D01*
X60807428Y-39950765D01*
X60831227Y-39944804D01*
X60855495Y-39941204D01*
X60879999Y-39940000D01*
X61530001Y-39940000D01*
X61554505Y-39941204D01*
X61554505Y-39941204D01*
G37*
D11*
G04 #@! TD*
G04 #@! TO.P,R2,2*
G04 #@! TO.N,+5VA*
X61205000Y-40640000D03*
D10*
G04 #@! TO.N,Net-(R2-Pad1)*
G04 #@! TO.C,R2*
G36*
X63604505Y-39941204D02*
X63628773Y-39944804D01*
X63652572Y-39950765D01*
X63675671Y-39959030D01*
X63697850Y-39969520D01*
X63718893Y-39982132D01*
X63738599Y-39996747D01*
X63756777Y-40013223D01*
X63773253Y-40031401D01*
X63787868Y-40051107D01*
X63800480Y-40072150D01*
X63810970Y-40094329D01*
X63819235Y-40117428D01*
X63825196Y-40141227D01*
X63828796Y-40165495D01*
X63830000Y-40189999D01*
X63830000Y-41090001D01*
X63828796Y-41114505D01*
X63825196Y-41138773D01*
X63819235Y-41162572D01*
X63810970Y-41185671D01*
X63800480Y-41207850D01*
X63787868Y-41228893D01*
X63773253Y-41248599D01*
X63756777Y-41266777D01*
X63738599Y-41283253D01*
X63718893Y-41297868D01*
X63697850Y-41310480D01*
X63675671Y-41320970D01*
X63652572Y-41329235D01*
X63628773Y-41335196D01*
X63604505Y-41338796D01*
X63580001Y-41340000D01*
X62929999Y-41340000D01*
X62905495Y-41338796D01*
X62881227Y-41335196D01*
X62857428Y-41329235D01*
X62834329Y-41320970D01*
X62812150Y-41310480D01*
X62791107Y-41297868D01*
X62771401Y-41283253D01*
X62753223Y-41266777D01*
X62736747Y-41248599D01*
X62722132Y-41228893D01*
X62709520Y-41207850D01*
X62699030Y-41185671D01*
X62690765Y-41162572D01*
X62684804Y-41138773D01*
X62681204Y-41114505D01*
X62680000Y-41090001D01*
X62680000Y-40189999D01*
X62681204Y-40165495D01*
X62684804Y-40141227D01*
X62690765Y-40117428D01*
X62699030Y-40094329D01*
X62709520Y-40072150D01*
X62722132Y-40051107D01*
X62736747Y-40031401D01*
X62753223Y-40013223D01*
X62771401Y-39996747D01*
X62791107Y-39982132D01*
X62812150Y-39969520D01*
X62834329Y-39959030D01*
X62857428Y-39950765D01*
X62881227Y-39944804D01*
X62905495Y-39941204D01*
X62929999Y-39940000D01*
X63580001Y-39940000D01*
X63604505Y-39941204D01*
X63604505Y-39941204D01*
G37*
D11*
G04 #@! TD*
G04 #@! TO.P,R2,1*
G04 #@! TO.N,Net-(R2-Pad1)*
X63255000Y-40640000D03*
D10*
G04 #@! TO.N,+5VA*
G04 #@! TO.C,C3*
G36*
X34256505Y-29389204D02*
X34280773Y-29392804D01*
X34304572Y-29398765D01*
X34327671Y-29407030D01*
X34349850Y-29417520D01*
X34370893Y-29430132D01*
X34390599Y-29444747D01*
X34408777Y-29461223D01*
X34425253Y-29479401D01*
X34439868Y-29499107D01*
X34452480Y-29520150D01*
X34462970Y-29542329D01*
X34471235Y-29565428D01*
X34477196Y-29589227D01*
X34480796Y-29613495D01*
X34482000Y-29637999D01*
X34482000Y-30288001D01*
X34480796Y-30312505D01*
X34477196Y-30336773D01*
X34471235Y-30360572D01*
X34462970Y-30383671D01*
X34452480Y-30405850D01*
X34439868Y-30426893D01*
X34425253Y-30446599D01*
X34408777Y-30464777D01*
X34390599Y-30481253D01*
X34370893Y-30495868D01*
X34349850Y-30508480D01*
X34327671Y-30518970D01*
X34304572Y-30527235D01*
X34280773Y-30533196D01*
X34256505Y-30536796D01*
X34232001Y-30538000D01*
X33331999Y-30538000D01*
X33307495Y-30536796D01*
X33283227Y-30533196D01*
X33259428Y-30527235D01*
X33236329Y-30518970D01*
X33214150Y-30508480D01*
X33193107Y-30495868D01*
X33173401Y-30481253D01*
X33155223Y-30464777D01*
X33138747Y-30446599D01*
X33124132Y-30426893D01*
X33111520Y-30405850D01*
X33101030Y-30383671D01*
X33092765Y-30360572D01*
X33086804Y-30336773D01*
X33083204Y-30312505D01*
X33082000Y-30288001D01*
X33082000Y-29637999D01*
X33083204Y-29613495D01*
X33086804Y-29589227D01*
X33092765Y-29565428D01*
X33101030Y-29542329D01*
X33111520Y-29520150D01*
X33124132Y-29499107D01*
X33138747Y-29479401D01*
X33155223Y-29461223D01*
X33173401Y-29444747D01*
X33193107Y-29430132D01*
X33214150Y-29417520D01*
X33236329Y-29407030D01*
X33259428Y-29398765D01*
X33283227Y-29392804D01*
X33307495Y-29389204D01*
X33331999Y-29388000D01*
X34232001Y-29388000D01*
X34256505Y-29389204D01*
X34256505Y-29389204D01*
G37*
D11*
G04 #@! TD*
G04 #@! TO.P,C3,1*
G04 #@! TO.N,+5VA*
X33782000Y-29963000D03*
D10*
G04 #@! TO.N,GNDA*
G04 #@! TO.C,C3*
G36*
X34256505Y-31439204D02*
X34280773Y-31442804D01*
X34304572Y-31448765D01*
X34327671Y-31457030D01*
X34349850Y-31467520D01*
X34370893Y-31480132D01*
X34390599Y-31494747D01*
X34408777Y-31511223D01*
X34425253Y-31529401D01*
X34439868Y-31549107D01*
X34452480Y-31570150D01*
X34462970Y-31592329D01*
X34471235Y-31615428D01*
X34477196Y-31639227D01*
X34480796Y-31663495D01*
X34482000Y-31687999D01*
X34482000Y-32338001D01*
X34480796Y-32362505D01*
X34477196Y-32386773D01*
X34471235Y-32410572D01*
X34462970Y-32433671D01*
X34452480Y-32455850D01*
X34439868Y-32476893D01*
X34425253Y-32496599D01*
X34408777Y-32514777D01*
X34390599Y-32531253D01*
X34370893Y-32545868D01*
X34349850Y-32558480D01*
X34327671Y-32568970D01*
X34304572Y-32577235D01*
X34280773Y-32583196D01*
X34256505Y-32586796D01*
X34232001Y-32588000D01*
X33331999Y-32588000D01*
X33307495Y-32586796D01*
X33283227Y-32583196D01*
X33259428Y-32577235D01*
X33236329Y-32568970D01*
X33214150Y-32558480D01*
X33193107Y-32545868D01*
X33173401Y-32531253D01*
X33155223Y-32514777D01*
X33138747Y-32496599D01*
X33124132Y-32476893D01*
X33111520Y-32455850D01*
X33101030Y-32433671D01*
X33092765Y-32410572D01*
X33086804Y-32386773D01*
X33083204Y-32362505D01*
X33082000Y-32338001D01*
X33082000Y-31687999D01*
X33083204Y-31663495D01*
X33086804Y-31639227D01*
X33092765Y-31615428D01*
X33101030Y-31592329D01*
X33111520Y-31570150D01*
X33124132Y-31549107D01*
X33138747Y-31529401D01*
X33155223Y-31511223D01*
X33173401Y-31494747D01*
X33193107Y-31480132D01*
X33214150Y-31467520D01*
X33236329Y-31457030D01*
X33259428Y-31448765D01*
X33283227Y-31442804D01*
X33307495Y-31439204D01*
X33331999Y-31438000D01*
X34232001Y-31438000D01*
X34256505Y-31439204D01*
X34256505Y-31439204D01*
G37*
D11*
G04 #@! TD*
G04 #@! TO.P,C3,2*
G04 #@! TO.N,GNDA*
X33782000Y-32013000D03*
D10*
G04 #@! TO.N,/Vpanel*
G04 #@! TO.C,R5*
G36*
X37939505Y-23801204D02*
X37963773Y-23804804D01*
X37987572Y-23810765D01*
X38010671Y-23819030D01*
X38032850Y-23829520D01*
X38053893Y-23842132D01*
X38073599Y-23856747D01*
X38091777Y-23873223D01*
X38108253Y-23891401D01*
X38122868Y-23911107D01*
X38135480Y-23932150D01*
X38145970Y-23954329D01*
X38154235Y-23977428D01*
X38160196Y-24001227D01*
X38163796Y-24025495D01*
X38165000Y-24049999D01*
X38165000Y-24700001D01*
X38163796Y-24724505D01*
X38160196Y-24748773D01*
X38154235Y-24772572D01*
X38145970Y-24795671D01*
X38135480Y-24817850D01*
X38122868Y-24838893D01*
X38108253Y-24858599D01*
X38091777Y-24876777D01*
X38073599Y-24893253D01*
X38053893Y-24907868D01*
X38032850Y-24920480D01*
X38010671Y-24930970D01*
X37987572Y-24939235D01*
X37963773Y-24945196D01*
X37939505Y-24948796D01*
X37915001Y-24950000D01*
X37014999Y-24950000D01*
X36990495Y-24948796D01*
X36966227Y-24945196D01*
X36942428Y-24939235D01*
X36919329Y-24930970D01*
X36897150Y-24920480D01*
X36876107Y-24907868D01*
X36856401Y-24893253D01*
X36838223Y-24876777D01*
X36821747Y-24858599D01*
X36807132Y-24838893D01*
X36794520Y-24817850D01*
X36784030Y-24795671D01*
X36775765Y-24772572D01*
X36769804Y-24748773D01*
X36766204Y-24724505D01*
X36765000Y-24700001D01*
X36765000Y-24049999D01*
X36766204Y-24025495D01*
X36769804Y-24001227D01*
X36775765Y-23977428D01*
X36784030Y-23954329D01*
X36794520Y-23932150D01*
X36807132Y-23911107D01*
X36821747Y-23891401D01*
X36838223Y-23873223D01*
X36856401Y-23856747D01*
X36876107Y-23842132D01*
X36897150Y-23829520D01*
X36919329Y-23819030D01*
X36942428Y-23810765D01*
X36966227Y-23804804D01*
X36990495Y-23801204D01*
X37014999Y-23800000D01*
X37915001Y-23800000D01*
X37939505Y-23801204D01*
X37939505Y-23801204D01*
G37*
D11*
G04 #@! TD*
G04 #@! TO.P,R5,1*
G04 #@! TO.N,/Vpanel*
X37465000Y-24375000D03*
D10*
G04 #@! TO.N,Net-(R5-Pad2)*
G04 #@! TO.C,R5*
G36*
X37939505Y-25851204D02*
X37963773Y-25854804D01*
X37987572Y-25860765D01*
X38010671Y-25869030D01*
X38032850Y-25879520D01*
X38053893Y-25892132D01*
X38073599Y-25906747D01*
X38091777Y-25923223D01*
X38108253Y-25941401D01*
X38122868Y-25961107D01*
X38135480Y-25982150D01*
X38145970Y-26004329D01*
X38154235Y-26027428D01*
X38160196Y-26051227D01*
X38163796Y-26075495D01*
X38165000Y-26099999D01*
X38165000Y-26750001D01*
X38163796Y-26774505D01*
X38160196Y-26798773D01*
X38154235Y-26822572D01*
X38145970Y-26845671D01*
X38135480Y-26867850D01*
X38122868Y-26888893D01*
X38108253Y-26908599D01*
X38091777Y-26926777D01*
X38073599Y-26943253D01*
X38053893Y-26957868D01*
X38032850Y-26970480D01*
X38010671Y-26980970D01*
X37987572Y-26989235D01*
X37963773Y-26995196D01*
X37939505Y-26998796D01*
X37915001Y-27000000D01*
X37014999Y-27000000D01*
X36990495Y-26998796D01*
X36966227Y-26995196D01*
X36942428Y-26989235D01*
X36919329Y-26980970D01*
X36897150Y-26970480D01*
X36876107Y-26957868D01*
X36856401Y-26943253D01*
X36838223Y-26926777D01*
X36821747Y-26908599D01*
X36807132Y-26888893D01*
X36794520Y-26867850D01*
X36784030Y-26845671D01*
X36775765Y-26822572D01*
X36769804Y-26798773D01*
X36766204Y-26774505D01*
X36765000Y-26750001D01*
X36765000Y-26099999D01*
X36766204Y-26075495D01*
X36769804Y-26051227D01*
X36775765Y-26027428D01*
X36784030Y-26004329D01*
X36794520Y-25982150D01*
X36807132Y-25961107D01*
X36821747Y-25941401D01*
X36838223Y-25923223D01*
X36856401Y-25906747D01*
X36876107Y-25892132D01*
X36897150Y-25879520D01*
X36919329Y-25869030D01*
X36942428Y-25860765D01*
X36966227Y-25854804D01*
X36990495Y-25851204D01*
X37014999Y-25850000D01*
X37915001Y-25850000D01*
X37939505Y-25851204D01*
X37939505Y-25851204D01*
G37*
D11*
G04 #@! TD*
G04 #@! TO.P,R5,2*
G04 #@! TO.N,Net-(R5-Pad2)*
X37465000Y-26425000D03*
D10*
G04 #@! TO.N,Net-(R6-Pad2)*
G04 #@! TO.C,R6*
G36*
X25950505Y-29409204D02*
X25974773Y-29412804D01*
X25998572Y-29418765D01*
X26021671Y-29427030D01*
X26043850Y-29437520D01*
X26064893Y-29450132D01*
X26084599Y-29464747D01*
X26102777Y-29481223D01*
X26119253Y-29499401D01*
X26133868Y-29519107D01*
X26146480Y-29540150D01*
X26156970Y-29562329D01*
X26165235Y-29585428D01*
X26171196Y-29609227D01*
X26174796Y-29633495D01*
X26176000Y-29657999D01*
X26176000Y-30308001D01*
X26174796Y-30332505D01*
X26171196Y-30356773D01*
X26165235Y-30380572D01*
X26156970Y-30403671D01*
X26146480Y-30425850D01*
X26133868Y-30446893D01*
X26119253Y-30466599D01*
X26102777Y-30484777D01*
X26084599Y-30501253D01*
X26064893Y-30515868D01*
X26043850Y-30528480D01*
X26021671Y-30538970D01*
X25998572Y-30547235D01*
X25974773Y-30553196D01*
X25950505Y-30556796D01*
X25926001Y-30558000D01*
X25025999Y-30558000D01*
X25001495Y-30556796D01*
X24977227Y-30553196D01*
X24953428Y-30547235D01*
X24930329Y-30538970D01*
X24908150Y-30528480D01*
X24887107Y-30515868D01*
X24867401Y-30501253D01*
X24849223Y-30484777D01*
X24832747Y-30466599D01*
X24818132Y-30446893D01*
X24805520Y-30425850D01*
X24795030Y-30403671D01*
X24786765Y-30380572D01*
X24780804Y-30356773D01*
X24777204Y-30332505D01*
X24776000Y-30308001D01*
X24776000Y-29657999D01*
X24777204Y-29633495D01*
X24780804Y-29609227D01*
X24786765Y-29585428D01*
X24795030Y-29562329D01*
X24805520Y-29540150D01*
X24818132Y-29519107D01*
X24832747Y-29499401D01*
X24849223Y-29481223D01*
X24867401Y-29464747D01*
X24887107Y-29450132D01*
X24908150Y-29437520D01*
X24930329Y-29427030D01*
X24953428Y-29418765D01*
X24977227Y-29412804D01*
X25001495Y-29409204D01*
X25025999Y-29408000D01*
X25926001Y-29408000D01*
X25950505Y-29409204D01*
X25950505Y-29409204D01*
G37*
D11*
G04 #@! TD*
G04 #@! TO.P,R6,2*
G04 #@! TO.N,Net-(R6-Pad2)*
X25476000Y-29983000D03*
D10*
G04 #@! TO.N,Net-(R6-Pad1)*
G04 #@! TO.C,R6*
G36*
X25950505Y-31459204D02*
X25974773Y-31462804D01*
X25998572Y-31468765D01*
X26021671Y-31477030D01*
X26043850Y-31487520D01*
X26064893Y-31500132D01*
X26084599Y-31514747D01*
X26102777Y-31531223D01*
X26119253Y-31549401D01*
X26133868Y-31569107D01*
X26146480Y-31590150D01*
X26156970Y-31612329D01*
X26165235Y-31635428D01*
X26171196Y-31659227D01*
X26174796Y-31683495D01*
X26176000Y-31707999D01*
X26176000Y-32358001D01*
X26174796Y-32382505D01*
X26171196Y-32406773D01*
X26165235Y-32430572D01*
X26156970Y-32453671D01*
X26146480Y-32475850D01*
X26133868Y-32496893D01*
X26119253Y-32516599D01*
X26102777Y-32534777D01*
X26084599Y-32551253D01*
X26064893Y-32565868D01*
X26043850Y-32578480D01*
X26021671Y-32588970D01*
X25998572Y-32597235D01*
X25974773Y-32603196D01*
X25950505Y-32606796D01*
X25926001Y-32608000D01*
X25025999Y-32608000D01*
X25001495Y-32606796D01*
X24977227Y-32603196D01*
X24953428Y-32597235D01*
X24930329Y-32588970D01*
X24908150Y-32578480D01*
X24887107Y-32565868D01*
X24867401Y-32551253D01*
X24849223Y-32534777D01*
X24832747Y-32516599D01*
X24818132Y-32496893D01*
X24805520Y-32475850D01*
X24795030Y-32453671D01*
X24786765Y-32430572D01*
X24780804Y-32406773D01*
X24777204Y-32382505D01*
X24776000Y-32358001D01*
X24776000Y-31707999D01*
X24777204Y-31683495D01*
X24780804Y-31659227D01*
X24786765Y-31635428D01*
X24795030Y-31612329D01*
X24805520Y-31590150D01*
X24818132Y-31569107D01*
X24832747Y-31549401D01*
X24849223Y-31531223D01*
X24867401Y-31514747D01*
X24887107Y-31500132D01*
X24908150Y-31487520D01*
X24930329Y-31477030D01*
X24953428Y-31468765D01*
X24977227Y-31462804D01*
X25001495Y-31459204D01*
X25025999Y-31458000D01*
X25926001Y-31458000D01*
X25950505Y-31459204D01*
X25950505Y-31459204D01*
G37*
D11*
G04 #@! TD*
G04 #@! TO.P,R6,1*
G04 #@! TO.N,Net-(R6-Pad1)*
X25476000Y-32033000D03*
D10*
G04 #@! TO.N,/Vpanel_Ref*
G04 #@! TO.C,R11*
G36*
X28800505Y-25059204D02*
X28824773Y-25062804D01*
X28848572Y-25068765D01*
X28871671Y-25077030D01*
X28893850Y-25087520D01*
X28914893Y-25100132D01*
X28934599Y-25114747D01*
X28952777Y-25131223D01*
X28969253Y-25149401D01*
X28983868Y-25169107D01*
X28996480Y-25190150D01*
X29006970Y-25212329D01*
X29015235Y-25235428D01*
X29021196Y-25259227D01*
X29024796Y-25283495D01*
X29026000Y-25307999D01*
X29026000Y-26208001D01*
X29024796Y-26232505D01*
X29021196Y-26256773D01*
X29015235Y-26280572D01*
X29006970Y-26303671D01*
X28996480Y-26325850D01*
X28983868Y-26346893D01*
X28969253Y-26366599D01*
X28952777Y-26384777D01*
X28934599Y-26401253D01*
X28914893Y-26415868D01*
X28893850Y-26428480D01*
X28871671Y-26438970D01*
X28848572Y-26447235D01*
X28824773Y-26453196D01*
X28800505Y-26456796D01*
X28776001Y-26458000D01*
X28125999Y-26458000D01*
X28101495Y-26456796D01*
X28077227Y-26453196D01*
X28053428Y-26447235D01*
X28030329Y-26438970D01*
X28008150Y-26428480D01*
X27987107Y-26415868D01*
X27967401Y-26401253D01*
X27949223Y-26384777D01*
X27932747Y-26366599D01*
X27918132Y-26346893D01*
X27905520Y-26325850D01*
X27895030Y-26303671D01*
X27886765Y-26280572D01*
X27880804Y-26256773D01*
X27877204Y-26232505D01*
X27876000Y-26208001D01*
X27876000Y-25307999D01*
X27877204Y-25283495D01*
X27880804Y-25259227D01*
X27886765Y-25235428D01*
X27895030Y-25212329D01*
X27905520Y-25190150D01*
X27918132Y-25169107D01*
X27932747Y-25149401D01*
X27949223Y-25131223D01*
X27967401Y-25114747D01*
X27987107Y-25100132D01*
X28008150Y-25087520D01*
X28030329Y-25077030D01*
X28053428Y-25068765D01*
X28077227Y-25062804D01*
X28101495Y-25059204D01*
X28125999Y-25058000D01*
X28776001Y-25058000D01*
X28800505Y-25059204D01*
X28800505Y-25059204D01*
G37*
D11*
G04 #@! TD*
G04 #@! TO.P,R11,2*
G04 #@! TO.N,/Vpanel_Ref*
X28451000Y-25758000D03*
D10*
G04 #@! TO.N,/Vpanel_SIG*
G04 #@! TO.C,R11*
G36*
X30850505Y-25059204D02*
X30874773Y-25062804D01*
X30898572Y-25068765D01*
X30921671Y-25077030D01*
X30943850Y-25087520D01*
X30964893Y-25100132D01*
X30984599Y-25114747D01*
X31002777Y-25131223D01*
X31019253Y-25149401D01*
X31033868Y-25169107D01*
X31046480Y-25190150D01*
X31056970Y-25212329D01*
X31065235Y-25235428D01*
X31071196Y-25259227D01*
X31074796Y-25283495D01*
X31076000Y-25307999D01*
X31076000Y-26208001D01*
X31074796Y-26232505D01*
X31071196Y-26256773D01*
X31065235Y-26280572D01*
X31056970Y-26303671D01*
X31046480Y-26325850D01*
X31033868Y-26346893D01*
X31019253Y-26366599D01*
X31002777Y-26384777D01*
X30984599Y-26401253D01*
X30964893Y-26415868D01*
X30943850Y-26428480D01*
X30921671Y-26438970D01*
X30898572Y-26447235D01*
X30874773Y-26453196D01*
X30850505Y-26456796D01*
X30826001Y-26458000D01*
X30175999Y-26458000D01*
X30151495Y-26456796D01*
X30127227Y-26453196D01*
X30103428Y-26447235D01*
X30080329Y-26438970D01*
X30058150Y-26428480D01*
X30037107Y-26415868D01*
X30017401Y-26401253D01*
X29999223Y-26384777D01*
X29982747Y-26366599D01*
X29968132Y-26346893D01*
X29955520Y-26325850D01*
X29945030Y-26303671D01*
X29936765Y-26280572D01*
X29930804Y-26256773D01*
X29927204Y-26232505D01*
X29926000Y-26208001D01*
X29926000Y-25307999D01*
X29927204Y-25283495D01*
X29930804Y-25259227D01*
X29936765Y-25235428D01*
X29945030Y-25212329D01*
X29955520Y-25190150D01*
X29968132Y-25169107D01*
X29982747Y-25149401D01*
X29999223Y-25131223D01*
X30017401Y-25114747D01*
X30037107Y-25100132D01*
X30058150Y-25087520D01*
X30080329Y-25077030D01*
X30103428Y-25068765D01*
X30127227Y-25062804D01*
X30151495Y-25059204D01*
X30175999Y-25058000D01*
X30826001Y-25058000D01*
X30850505Y-25059204D01*
X30850505Y-25059204D01*
G37*
D11*
G04 #@! TD*
G04 #@! TO.P,R11,1*
G04 #@! TO.N,/Vpanel_SIG*
X30501000Y-25758000D03*
D10*
G04 #@! TO.N,GNDA*
G04 #@! TO.C,R10*
G36*
X33100505Y-22809204D02*
X33124773Y-22812804D01*
X33148572Y-22818765D01*
X33171671Y-22827030D01*
X33193850Y-22837520D01*
X33214893Y-22850132D01*
X33234599Y-22864747D01*
X33252777Y-22881223D01*
X33269253Y-22899401D01*
X33283868Y-22919107D01*
X33296480Y-22940150D01*
X33306970Y-22962329D01*
X33315235Y-22985428D01*
X33321196Y-23009227D01*
X33324796Y-23033495D01*
X33326000Y-23057999D01*
X33326000Y-23958001D01*
X33324796Y-23982505D01*
X33321196Y-24006773D01*
X33315235Y-24030572D01*
X33306970Y-24053671D01*
X33296480Y-24075850D01*
X33283868Y-24096893D01*
X33269253Y-24116599D01*
X33252777Y-24134777D01*
X33234599Y-24151253D01*
X33214893Y-24165868D01*
X33193850Y-24178480D01*
X33171671Y-24188970D01*
X33148572Y-24197235D01*
X33124773Y-24203196D01*
X33100505Y-24206796D01*
X33076001Y-24208000D01*
X32425999Y-24208000D01*
X32401495Y-24206796D01*
X32377227Y-24203196D01*
X32353428Y-24197235D01*
X32330329Y-24188970D01*
X32308150Y-24178480D01*
X32287107Y-24165868D01*
X32267401Y-24151253D01*
X32249223Y-24134777D01*
X32232747Y-24116599D01*
X32218132Y-24096893D01*
X32205520Y-24075850D01*
X32195030Y-24053671D01*
X32186765Y-24030572D01*
X32180804Y-24006773D01*
X32177204Y-23982505D01*
X32176000Y-23958001D01*
X32176000Y-23057999D01*
X32177204Y-23033495D01*
X32180804Y-23009227D01*
X32186765Y-22985428D01*
X32195030Y-22962329D01*
X32205520Y-22940150D01*
X32218132Y-22919107D01*
X32232747Y-22899401D01*
X32249223Y-22881223D01*
X32267401Y-22864747D01*
X32287107Y-22850132D01*
X32308150Y-22837520D01*
X32330329Y-22827030D01*
X32353428Y-22818765D01*
X32377227Y-22812804D01*
X32401495Y-22809204D01*
X32425999Y-22808000D01*
X33076001Y-22808000D01*
X33100505Y-22809204D01*
X33100505Y-22809204D01*
G37*
D11*
G04 #@! TD*
G04 #@! TO.P,R10,1*
G04 #@! TO.N,GNDA*
X32751000Y-23508000D03*
D10*
G04 #@! TO.N,/Vpanel_SIG*
G04 #@! TO.C,R10*
G36*
X31050505Y-22809204D02*
X31074773Y-22812804D01*
X31098572Y-22818765D01*
X31121671Y-22827030D01*
X31143850Y-22837520D01*
X31164893Y-22850132D01*
X31184599Y-22864747D01*
X31202777Y-22881223D01*
X31219253Y-22899401D01*
X31233868Y-22919107D01*
X31246480Y-22940150D01*
X31256970Y-22962329D01*
X31265235Y-22985428D01*
X31271196Y-23009227D01*
X31274796Y-23033495D01*
X31276000Y-23057999D01*
X31276000Y-23958001D01*
X31274796Y-23982505D01*
X31271196Y-24006773D01*
X31265235Y-24030572D01*
X31256970Y-24053671D01*
X31246480Y-24075850D01*
X31233868Y-24096893D01*
X31219253Y-24116599D01*
X31202777Y-24134777D01*
X31184599Y-24151253D01*
X31164893Y-24165868D01*
X31143850Y-24178480D01*
X31121671Y-24188970D01*
X31098572Y-24197235D01*
X31074773Y-24203196D01*
X31050505Y-24206796D01*
X31026001Y-24208000D01*
X30375999Y-24208000D01*
X30351495Y-24206796D01*
X30327227Y-24203196D01*
X30303428Y-24197235D01*
X30280329Y-24188970D01*
X30258150Y-24178480D01*
X30237107Y-24165868D01*
X30217401Y-24151253D01*
X30199223Y-24134777D01*
X30182747Y-24116599D01*
X30168132Y-24096893D01*
X30155520Y-24075850D01*
X30145030Y-24053671D01*
X30136765Y-24030572D01*
X30130804Y-24006773D01*
X30127204Y-23982505D01*
X30126000Y-23958001D01*
X30126000Y-23057999D01*
X30127204Y-23033495D01*
X30130804Y-23009227D01*
X30136765Y-22985428D01*
X30145030Y-22962329D01*
X30155520Y-22940150D01*
X30168132Y-22919107D01*
X30182747Y-22899401D01*
X30199223Y-22881223D01*
X30217401Y-22864747D01*
X30237107Y-22850132D01*
X30258150Y-22837520D01*
X30280329Y-22827030D01*
X30303428Y-22818765D01*
X30327227Y-22812804D01*
X30351495Y-22809204D01*
X30375999Y-22808000D01*
X31026001Y-22808000D01*
X31050505Y-22809204D01*
X31050505Y-22809204D01*
G37*
D11*
G04 #@! TD*
G04 #@! TO.P,R10,2*
G04 #@! TO.N,/Vpanel_SIG*
X30701000Y-23508000D03*
D10*
G04 #@! TO.N,GNDA*
G04 #@! TO.C,R9*
G36*
X26550505Y-22809204D02*
X26574773Y-22812804D01*
X26598572Y-22818765D01*
X26621671Y-22827030D01*
X26643850Y-22837520D01*
X26664893Y-22850132D01*
X26684599Y-22864747D01*
X26702777Y-22881223D01*
X26719253Y-22899401D01*
X26733868Y-22919107D01*
X26746480Y-22940150D01*
X26756970Y-22962329D01*
X26765235Y-22985428D01*
X26771196Y-23009227D01*
X26774796Y-23033495D01*
X26776000Y-23057999D01*
X26776000Y-23958001D01*
X26774796Y-23982505D01*
X26771196Y-24006773D01*
X26765235Y-24030572D01*
X26756970Y-24053671D01*
X26746480Y-24075850D01*
X26733868Y-24096893D01*
X26719253Y-24116599D01*
X26702777Y-24134777D01*
X26684599Y-24151253D01*
X26664893Y-24165868D01*
X26643850Y-24178480D01*
X26621671Y-24188970D01*
X26598572Y-24197235D01*
X26574773Y-24203196D01*
X26550505Y-24206796D01*
X26526001Y-24208000D01*
X25875999Y-24208000D01*
X25851495Y-24206796D01*
X25827227Y-24203196D01*
X25803428Y-24197235D01*
X25780329Y-24188970D01*
X25758150Y-24178480D01*
X25737107Y-24165868D01*
X25717401Y-24151253D01*
X25699223Y-24134777D01*
X25682747Y-24116599D01*
X25668132Y-24096893D01*
X25655520Y-24075850D01*
X25645030Y-24053671D01*
X25636765Y-24030572D01*
X25630804Y-24006773D01*
X25627204Y-23982505D01*
X25626000Y-23958001D01*
X25626000Y-23057999D01*
X25627204Y-23033495D01*
X25630804Y-23009227D01*
X25636765Y-22985428D01*
X25645030Y-22962329D01*
X25655520Y-22940150D01*
X25668132Y-22919107D01*
X25682747Y-22899401D01*
X25699223Y-22881223D01*
X25717401Y-22864747D01*
X25737107Y-22850132D01*
X25758150Y-22837520D01*
X25780329Y-22827030D01*
X25803428Y-22818765D01*
X25827227Y-22812804D01*
X25851495Y-22809204D01*
X25875999Y-22808000D01*
X26526001Y-22808000D01*
X26550505Y-22809204D01*
X26550505Y-22809204D01*
G37*
D11*
G04 #@! TD*
G04 #@! TO.P,R9,2*
G04 #@! TO.N,GNDA*
X26201000Y-23508000D03*
D10*
G04 #@! TO.N,/Vpanel_Ref*
G04 #@! TO.C,R9*
G36*
X28600505Y-22809204D02*
X28624773Y-22812804D01*
X28648572Y-22818765D01*
X28671671Y-22827030D01*
X28693850Y-22837520D01*
X28714893Y-22850132D01*
X28734599Y-22864747D01*
X28752777Y-22881223D01*
X28769253Y-22899401D01*
X28783868Y-22919107D01*
X28796480Y-22940150D01*
X28806970Y-22962329D01*
X28815235Y-22985428D01*
X28821196Y-23009227D01*
X28824796Y-23033495D01*
X28826000Y-23057999D01*
X28826000Y-23958001D01*
X28824796Y-23982505D01*
X28821196Y-24006773D01*
X28815235Y-24030572D01*
X28806970Y-24053671D01*
X28796480Y-24075850D01*
X28783868Y-24096893D01*
X28769253Y-24116599D01*
X28752777Y-24134777D01*
X28734599Y-24151253D01*
X28714893Y-24165868D01*
X28693850Y-24178480D01*
X28671671Y-24188970D01*
X28648572Y-24197235D01*
X28624773Y-24203196D01*
X28600505Y-24206796D01*
X28576001Y-24208000D01*
X27925999Y-24208000D01*
X27901495Y-24206796D01*
X27877227Y-24203196D01*
X27853428Y-24197235D01*
X27830329Y-24188970D01*
X27808150Y-24178480D01*
X27787107Y-24165868D01*
X27767401Y-24151253D01*
X27749223Y-24134777D01*
X27732747Y-24116599D01*
X27718132Y-24096893D01*
X27705520Y-24075850D01*
X27695030Y-24053671D01*
X27686765Y-24030572D01*
X27680804Y-24006773D01*
X27677204Y-23982505D01*
X27676000Y-23958001D01*
X27676000Y-23057999D01*
X27677204Y-23033495D01*
X27680804Y-23009227D01*
X27686765Y-22985428D01*
X27695030Y-22962329D01*
X27705520Y-22940150D01*
X27718132Y-22919107D01*
X27732747Y-22899401D01*
X27749223Y-22881223D01*
X27767401Y-22864747D01*
X27787107Y-22850132D01*
X27808150Y-22837520D01*
X27830329Y-22827030D01*
X27853428Y-22818765D01*
X27877227Y-22812804D01*
X27901495Y-22809204D01*
X27925999Y-22808000D01*
X28576001Y-22808000D01*
X28600505Y-22809204D01*
X28600505Y-22809204D01*
G37*
D11*
G04 #@! TD*
G04 #@! TO.P,R9,1*
G04 #@! TO.N,/Vpanel_Ref*
X28251000Y-23508000D03*
D15*
G04 #@! TO.P,U3,1*
G04 #@! TO.N,/Vpanel_Ref*
X27559000Y-28288000D03*
G04 #@! TO.P,U3,2*
G04 #@! TO.N,Net-(R6-Pad2)*
X28829000Y-28288000D03*
G04 #@! TO.P,U3,3*
G04 #@! TO.N,Net-(R6-Pad1)*
X30099000Y-28288000D03*
G04 #@! TO.P,U3,4*
G04 #@! TO.N,/Vpanel_SIG*
X31369000Y-28288000D03*
G04 #@! TO.P,U3,5*
G04 #@! TO.N,GNDA*
X31369000Y-33688000D03*
G04 #@! TO.P,U3,6*
X30099000Y-33688000D03*
G04 #@! TO.P,U3,7*
G04 #@! TO.N,Net-(R5-Pad2)*
X28829000Y-33688000D03*
G04 #@! TO.P,U3,8*
G04 #@! TO.N,+5VA*
X27559000Y-33688000D03*
G04 #@! TD*
D10*
G04 #@! TO.N,/Vbat_SIG_IN*
G04 #@! TO.C,C5*
G36*
X61554505Y-25336204D02*
X61578773Y-25339804D01*
X61602572Y-25345765D01*
X61625671Y-25354030D01*
X61647850Y-25364520D01*
X61668893Y-25377132D01*
X61688599Y-25391747D01*
X61706777Y-25408223D01*
X61723253Y-25426401D01*
X61737868Y-25446107D01*
X61750480Y-25467150D01*
X61760970Y-25489329D01*
X61769235Y-25512428D01*
X61775196Y-25536227D01*
X61778796Y-25560495D01*
X61780000Y-25584999D01*
X61780000Y-26485001D01*
X61778796Y-26509505D01*
X61775196Y-26533773D01*
X61769235Y-26557572D01*
X61760970Y-26580671D01*
X61750480Y-26602850D01*
X61737868Y-26623893D01*
X61723253Y-26643599D01*
X61706777Y-26661777D01*
X61688599Y-26678253D01*
X61668893Y-26692868D01*
X61647850Y-26705480D01*
X61625671Y-26715970D01*
X61602572Y-26724235D01*
X61578773Y-26730196D01*
X61554505Y-26733796D01*
X61530001Y-26735000D01*
X60879999Y-26735000D01*
X60855495Y-26733796D01*
X60831227Y-26730196D01*
X60807428Y-26724235D01*
X60784329Y-26715970D01*
X60762150Y-26705480D01*
X60741107Y-26692868D01*
X60721401Y-26678253D01*
X60703223Y-26661777D01*
X60686747Y-26643599D01*
X60672132Y-26623893D01*
X60659520Y-26602850D01*
X60649030Y-26580671D01*
X60640765Y-26557572D01*
X60634804Y-26533773D01*
X60631204Y-26509505D01*
X60630000Y-26485001D01*
X60630000Y-25584999D01*
X60631204Y-25560495D01*
X60634804Y-25536227D01*
X60640765Y-25512428D01*
X60649030Y-25489329D01*
X60659520Y-25467150D01*
X60672132Y-25446107D01*
X60686747Y-25426401D01*
X60703223Y-25408223D01*
X60721401Y-25391747D01*
X60741107Y-25377132D01*
X60762150Y-25364520D01*
X60784329Y-25354030D01*
X60807428Y-25345765D01*
X60831227Y-25339804D01*
X60855495Y-25336204D01*
X60879999Y-25335000D01*
X61530001Y-25335000D01*
X61554505Y-25336204D01*
X61554505Y-25336204D01*
G37*
D11*
G04 #@! TD*
G04 #@! TO.P,C5,1*
G04 #@! TO.N,/Vbat_SIG_IN*
X61205000Y-26035000D03*
D10*
G04 #@! TO.N,GNDA*
G04 #@! TO.C,C5*
G36*
X63604505Y-25336204D02*
X63628773Y-25339804D01*
X63652572Y-25345765D01*
X63675671Y-25354030D01*
X63697850Y-25364520D01*
X63718893Y-25377132D01*
X63738599Y-25391747D01*
X63756777Y-25408223D01*
X63773253Y-25426401D01*
X63787868Y-25446107D01*
X63800480Y-25467150D01*
X63810970Y-25489329D01*
X63819235Y-25512428D01*
X63825196Y-25536227D01*
X63828796Y-25560495D01*
X63830000Y-25584999D01*
X63830000Y-26485001D01*
X63828796Y-26509505D01*
X63825196Y-26533773D01*
X63819235Y-26557572D01*
X63810970Y-26580671D01*
X63800480Y-26602850D01*
X63787868Y-26623893D01*
X63773253Y-26643599D01*
X63756777Y-26661777D01*
X63738599Y-26678253D01*
X63718893Y-26692868D01*
X63697850Y-26705480D01*
X63675671Y-26715970D01*
X63652572Y-26724235D01*
X63628773Y-26730196D01*
X63604505Y-26733796D01*
X63580001Y-26735000D01*
X62929999Y-26735000D01*
X62905495Y-26733796D01*
X62881227Y-26730196D01*
X62857428Y-26724235D01*
X62834329Y-26715970D01*
X62812150Y-26705480D01*
X62791107Y-26692868D01*
X62771401Y-26678253D01*
X62753223Y-26661777D01*
X62736747Y-26643599D01*
X62722132Y-26623893D01*
X62709520Y-26602850D01*
X62699030Y-26580671D01*
X62690765Y-26557572D01*
X62684804Y-26533773D01*
X62681204Y-26509505D01*
X62680000Y-26485001D01*
X62680000Y-25584999D01*
X62681204Y-25560495D01*
X62684804Y-25536227D01*
X62690765Y-25512428D01*
X62699030Y-25489329D01*
X62709520Y-25467150D01*
X62722132Y-25446107D01*
X62736747Y-25426401D01*
X62753223Y-25408223D01*
X62771401Y-25391747D01*
X62791107Y-25377132D01*
X62812150Y-25364520D01*
X62834329Y-25354030D01*
X62857428Y-25345765D01*
X62881227Y-25339804D01*
X62905495Y-25336204D01*
X62929999Y-25335000D01*
X63580001Y-25335000D01*
X63604505Y-25336204D01*
X63604505Y-25336204D01*
G37*
D11*
G04 #@! TD*
G04 #@! TO.P,C5,2*
G04 #@! TO.N,GNDA*
X63255000Y-26035000D03*
D16*
G04 #@! TO.P,U1,1*
G04 #@! TO.N,/BatOVInterrupt*
X66675000Y-37625000D03*
G04 #@! TO.P,U1,2*
G04 #@! TO.N,Net-(R8-Pad1)*
X65405000Y-37625000D03*
G04 #@! TO.P,U1,3*
G04 #@! TO.N,Net-(R2-Pad1)*
X64135000Y-37625000D03*
G04 #@! TO.P,U1,4*
G04 #@! TO.N,+5VA*
X62865000Y-37625000D03*
G04 #@! TO.P,U1,5*
G04 #@! TO.N,GNDA*
X61595000Y-37625000D03*
G04 #@! TO.P,U1,6*
G04 #@! TO.N,Net-(U1-Pad6)*
X60325000Y-37625000D03*
G04 #@! TO.P,U1,7*
X59055000Y-37625000D03*
G04 #@! TO.P,U1,8*
G04 #@! TO.N,Net-(R13-Pad2)*
X59055000Y-32225000D03*
G04 #@! TO.P,U1,9*
X60325000Y-32225000D03*
G04 #@! TO.P,U1,10*
G04 #@! TO.N,/Vbat_SIG_IN*
X61595000Y-32225000D03*
G04 #@! TO.P,U1,11*
G04 #@! TO.N,GNDA*
X62865000Y-32225000D03*
G04 #@! TO.P,U1,12*
G04 #@! TO.N,Net-(R12-Pad2)*
X64135000Y-32225000D03*
G04 #@! TO.P,U1,13*
G04 #@! TO.N,/Vbat_SIG_IN*
X65405000Y-32225000D03*
G04 #@! TO.P,U1,14*
G04 #@! TO.N,Net-(R8-Pad1)*
X66675000Y-32225000D03*
G04 #@! TD*
D10*
G04 #@! TO.N,Net-(R2-Pad1)*
G04 #@! TO.C,R4*
G36*
X65364505Y-39941204D02*
X65388773Y-39944804D01*
X65412572Y-39950765D01*
X65435671Y-39959030D01*
X65457850Y-39969520D01*
X65478893Y-39982132D01*
X65498599Y-39996747D01*
X65516777Y-40013223D01*
X65533253Y-40031401D01*
X65547868Y-40051107D01*
X65560480Y-40072150D01*
X65570970Y-40094329D01*
X65579235Y-40117428D01*
X65585196Y-40141227D01*
X65588796Y-40165495D01*
X65590000Y-40189999D01*
X65590000Y-41090001D01*
X65588796Y-41114505D01*
X65585196Y-41138773D01*
X65579235Y-41162572D01*
X65570970Y-41185671D01*
X65560480Y-41207850D01*
X65547868Y-41228893D01*
X65533253Y-41248599D01*
X65516777Y-41266777D01*
X65498599Y-41283253D01*
X65478893Y-41297868D01*
X65457850Y-41310480D01*
X65435671Y-41320970D01*
X65412572Y-41329235D01*
X65388773Y-41335196D01*
X65364505Y-41338796D01*
X65340001Y-41340000D01*
X64689999Y-41340000D01*
X64665495Y-41338796D01*
X64641227Y-41335196D01*
X64617428Y-41329235D01*
X64594329Y-41320970D01*
X64572150Y-41310480D01*
X64551107Y-41297868D01*
X64531401Y-41283253D01*
X64513223Y-41266777D01*
X64496747Y-41248599D01*
X64482132Y-41228893D01*
X64469520Y-41207850D01*
X64459030Y-41185671D01*
X64450765Y-41162572D01*
X64444804Y-41138773D01*
X64441204Y-41114505D01*
X64440000Y-41090001D01*
X64440000Y-40189999D01*
X64441204Y-40165495D01*
X64444804Y-40141227D01*
X64450765Y-40117428D01*
X64459030Y-40094329D01*
X64469520Y-40072150D01*
X64482132Y-40051107D01*
X64496747Y-40031401D01*
X64513223Y-40013223D01*
X64531401Y-39996747D01*
X64551107Y-39982132D01*
X64572150Y-39969520D01*
X64594329Y-39959030D01*
X64617428Y-39950765D01*
X64641227Y-39944804D01*
X64665495Y-39941204D01*
X64689999Y-39940000D01*
X65340001Y-39940000D01*
X65364505Y-39941204D01*
X65364505Y-39941204D01*
G37*
D11*
G04 #@! TD*
G04 #@! TO.P,R4,2*
G04 #@! TO.N,Net-(R2-Pad1)*
X65015000Y-40640000D03*
D10*
G04 #@! TO.N,GNDA*
G04 #@! TO.C,R4*
G36*
X67414505Y-39941204D02*
X67438773Y-39944804D01*
X67462572Y-39950765D01*
X67485671Y-39959030D01*
X67507850Y-39969520D01*
X67528893Y-39982132D01*
X67548599Y-39996747D01*
X67566777Y-40013223D01*
X67583253Y-40031401D01*
X67597868Y-40051107D01*
X67610480Y-40072150D01*
X67620970Y-40094329D01*
X67629235Y-40117428D01*
X67635196Y-40141227D01*
X67638796Y-40165495D01*
X67640000Y-40189999D01*
X67640000Y-41090001D01*
X67638796Y-41114505D01*
X67635196Y-41138773D01*
X67629235Y-41162572D01*
X67620970Y-41185671D01*
X67610480Y-41207850D01*
X67597868Y-41228893D01*
X67583253Y-41248599D01*
X67566777Y-41266777D01*
X67548599Y-41283253D01*
X67528893Y-41297868D01*
X67507850Y-41310480D01*
X67485671Y-41320970D01*
X67462572Y-41329235D01*
X67438773Y-41335196D01*
X67414505Y-41338796D01*
X67390001Y-41340000D01*
X66739999Y-41340000D01*
X66715495Y-41338796D01*
X66691227Y-41335196D01*
X66667428Y-41329235D01*
X66644329Y-41320970D01*
X66622150Y-41310480D01*
X66601107Y-41297868D01*
X66581401Y-41283253D01*
X66563223Y-41266777D01*
X66546747Y-41248599D01*
X66532132Y-41228893D01*
X66519520Y-41207850D01*
X66509030Y-41185671D01*
X66500765Y-41162572D01*
X66494804Y-41138773D01*
X66491204Y-41114505D01*
X66490000Y-41090001D01*
X66490000Y-40189999D01*
X66491204Y-40165495D01*
X66494804Y-40141227D01*
X66500765Y-40117428D01*
X66509030Y-40094329D01*
X66519520Y-40072150D01*
X66532132Y-40051107D01*
X66546747Y-40031401D01*
X66563223Y-40013223D01*
X66581401Y-39996747D01*
X66601107Y-39982132D01*
X66622150Y-39969520D01*
X66644329Y-39959030D01*
X66667428Y-39950765D01*
X66691227Y-39944804D01*
X66715495Y-39941204D01*
X66739999Y-39940000D01*
X67390001Y-39940000D01*
X67414505Y-39941204D01*
X67414505Y-39941204D01*
G37*
D11*
G04 #@! TD*
G04 #@! TO.P,R4,1*
G04 #@! TO.N,GNDA*
X67065000Y-40640000D03*
D10*
G04 #@! TO.N,Net-(Q1-Pad1)*
G04 #@! TO.C,R3*
G36*
X69689505Y-35231204D02*
X69713773Y-35234804D01*
X69737572Y-35240765D01*
X69760671Y-35249030D01*
X69782850Y-35259520D01*
X69803893Y-35272132D01*
X69823599Y-35286747D01*
X69841777Y-35303223D01*
X69858253Y-35321401D01*
X69872868Y-35341107D01*
X69885480Y-35362150D01*
X69895970Y-35384329D01*
X69904235Y-35407428D01*
X69910196Y-35431227D01*
X69913796Y-35455495D01*
X69915000Y-35479999D01*
X69915000Y-36130001D01*
X69913796Y-36154505D01*
X69910196Y-36178773D01*
X69904235Y-36202572D01*
X69895970Y-36225671D01*
X69885480Y-36247850D01*
X69872868Y-36268893D01*
X69858253Y-36288599D01*
X69841777Y-36306777D01*
X69823599Y-36323253D01*
X69803893Y-36337868D01*
X69782850Y-36350480D01*
X69760671Y-36360970D01*
X69737572Y-36369235D01*
X69713773Y-36375196D01*
X69689505Y-36378796D01*
X69665001Y-36380000D01*
X68764999Y-36380000D01*
X68740495Y-36378796D01*
X68716227Y-36375196D01*
X68692428Y-36369235D01*
X68669329Y-36360970D01*
X68647150Y-36350480D01*
X68626107Y-36337868D01*
X68606401Y-36323253D01*
X68588223Y-36306777D01*
X68571747Y-36288599D01*
X68557132Y-36268893D01*
X68544520Y-36247850D01*
X68534030Y-36225671D01*
X68525765Y-36202572D01*
X68519804Y-36178773D01*
X68516204Y-36154505D01*
X68515000Y-36130001D01*
X68515000Y-35479999D01*
X68516204Y-35455495D01*
X68519804Y-35431227D01*
X68525765Y-35407428D01*
X68534030Y-35384329D01*
X68544520Y-35362150D01*
X68557132Y-35341107D01*
X68571747Y-35321401D01*
X68588223Y-35303223D01*
X68606401Y-35286747D01*
X68626107Y-35272132D01*
X68647150Y-35259520D01*
X68669329Y-35249030D01*
X68692428Y-35240765D01*
X68716227Y-35234804D01*
X68740495Y-35231204D01*
X68764999Y-35230000D01*
X69665001Y-35230000D01*
X69689505Y-35231204D01*
X69689505Y-35231204D01*
G37*
D11*
G04 #@! TD*
G04 #@! TO.P,R3,1*
G04 #@! TO.N,Net-(Q1-Pad1)*
X69215000Y-35805000D03*
D10*
G04 #@! TO.N,/BatOVInterrupt*
G04 #@! TO.C,R3*
G36*
X69689505Y-37281204D02*
X69713773Y-37284804D01*
X69737572Y-37290765D01*
X69760671Y-37299030D01*
X69782850Y-37309520D01*
X69803893Y-37322132D01*
X69823599Y-37336747D01*
X69841777Y-37353223D01*
X69858253Y-37371401D01*
X69872868Y-37391107D01*
X69885480Y-37412150D01*
X69895970Y-37434329D01*
X69904235Y-37457428D01*
X69910196Y-37481227D01*
X69913796Y-37505495D01*
X69915000Y-37529999D01*
X69915000Y-38180001D01*
X69913796Y-38204505D01*
X69910196Y-38228773D01*
X69904235Y-38252572D01*
X69895970Y-38275671D01*
X69885480Y-38297850D01*
X69872868Y-38318893D01*
X69858253Y-38338599D01*
X69841777Y-38356777D01*
X69823599Y-38373253D01*
X69803893Y-38387868D01*
X69782850Y-38400480D01*
X69760671Y-38410970D01*
X69737572Y-38419235D01*
X69713773Y-38425196D01*
X69689505Y-38428796D01*
X69665001Y-38430000D01*
X68764999Y-38430000D01*
X68740495Y-38428796D01*
X68716227Y-38425196D01*
X68692428Y-38419235D01*
X68669329Y-38410970D01*
X68647150Y-38400480D01*
X68626107Y-38387868D01*
X68606401Y-38373253D01*
X68588223Y-38356777D01*
X68571747Y-38338599D01*
X68557132Y-38318893D01*
X68544520Y-38297850D01*
X68534030Y-38275671D01*
X68525765Y-38252572D01*
X68519804Y-38228773D01*
X68516204Y-38204505D01*
X68515000Y-38180001D01*
X68515000Y-37529999D01*
X68516204Y-37505495D01*
X68519804Y-37481227D01*
X68525765Y-37457428D01*
X68534030Y-37434329D01*
X68544520Y-37412150D01*
X68557132Y-37391107D01*
X68571747Y-37371401D01*
X68588223Y-37353223D01*
X68606401Y-37336747D01*
X68626107Y-37322132D01*
X68647150Y-37309520D01*
X68669329Y-37299030D01*
X68692428Y-37290765D01*
X68716227Y-37284804D01*
X68740495Y-37281204D01*
X68764999Y-37280000D01*
X69665001Y-37280000D01*
X69689505Y-37281204D01*
X69689505Y-37281204D01*
G37*
D11*
G04 #@! TD*
G04 #@! TO.P,R3,2*
G04 #@! TO.N,/BatOVInterrupt*
X69215000Y-37855000D03*
D17*
G04 #@! TO.P,MK1,1*
G04 #@! TO.N,N/C*
X48006000Y-40482000D03*
G04 #@! TD*
D18*
G04 #@! TO.P,Q1,1*
G04 #@! TO.N,Net-(Q1-Pad1)*
X69485000Y-33335000D03*
G04 #@! TO.P,Q1,2*
G04 #@! TO.N,GNDA*
X69485000Y-31435000D03*
G04 #@! TO.P,Q1,3*
G04 #@! TO.N,Net-(Q1-Pad3)*
X71485000Y-32385000D03*
G04 #@! TD*
D19*
G04 #@! TO.N,GNDA*
X35726000Y-32008002D03*
X62865000Y-29845000D03*
X57734190Y-29845000D03*
X40894000Y-32004000D03*
G04 #@! TO.N,+5VA*
X35726000Y-29929187D03*
X67310000Y-22860000D03*
X39370000Y-29845000D03*
X73025000Y-22860000D03*
G04 #@! TO.N,/BatOVInterrupt*
X72974200Y-36830000D03*
X75565000Y-15875000D03*
X70485000Y-15875000D03*
X77623188Y-36830000D03*
G04 #@! TO.N,/Vbat_SIG_IN*
X61010810Y-27939998D03*
X55829190Y-27940000D03*
G04 #@! TD*
D20*
G04 #@! TO.N,Net-(Q1-Pad3)*
X71485000Y-29330000D02*
X71120000Y-28965000D01*
X71485000Y-32385000D02*
X71485000Y-29330000D01*
G04 #@! TO.N,GNDA*
X34798000Y-16764000D02*
X35052000Y-16764000D01*
X35052000Y-16764000D02*
X37006786Y-16764000D01*
X32282500Y-19074500D02*
X32258000Y-19050000D01*
X33782000Y-31955500D02*
X35673498Y-31955500D01*
X35673498Y-31955500D02*
X35726000Y-32008002D01*
X31369000Y-33688000D02*
X32049500Y-33688000D01*
X32049500Y-33688000D02*
X33782000Y-31955500D01*
X32751000Y-19329600D02*
X32457005Y-19035605D01*
X32751000Y-23508000D02*
X32751000Y-19329600D01*
X32193400Y-16764000D02*
X32004000Y-16764000D01*
X32457005Y-17027605D02*
X32193400Y-16764000D01*
X32457005Y-19035605D02*
X32457005Y-17027605D01*
X32004000Y-16764000D02*
X35052000Y-16764000D01*
X25781000Y-16764000D02*
X32004000Y-16764000D01*
X24892000Y-17653000D02*
X25781000Y-16764000D01*
X24892000Y-22874000D02*
X24892000Y-17653000D01*
X26201000Y-23508000D02*
X25526000Y-23508000D01*
X25526000Y-23508000D02*
X24892000Y-22874000D01*
X40077005Y-16836005D02*
X40005000Y-16764000D01*
X40077005Y-19035605D02*
X40077005Y-16836005D01*
X37006786Y-16764000D02*
X40005000Y-16764000D01*
X40005000Y-16764000D02*
X41148000Y-16764000D01*
X47433400Y-16764000D02*
X46990000Y-16764000D01*
X47697005Y-17027605D02*
X47433400Y-16764000D01*
X47697005Y-19035605D02*
X47697005Y-17027605D01*
X41148000Y-16764000D02*
X46990000Y-16764000D01*
X46990000Y-16764000D02*
X48768000Y-16764000D01*
X64262000Y-16764000D02*
X63500000Y-16764000D01*
X63500000Y-16764000D02*
X63754000Y-16764000D01*
X57857005Y-16836005D02*
X57785000Y-16764000D01*
X57857005Y-19035605D02*
X57857005Y-16836005D01*
X48768000Y-16764000D02*
X57785000Y-16764000D01*
X60325000Y-16764000D02*
X63500000Y-16764000D01*
X57785000Y-16764000D02*
X60325000Y-16764000D01*
X62865000Y-29845000D02*
X62865000Y-32225000D01*
X63192500Y-26607500D02*
X63255000Y-26670000D01*
X63192500Y-24765000D02*
X63192500Y-26607500D01*
X63255000Y-29455000D02*
X62865000Y-29845000D01*
X63255000Y-26670000D02*
X63255000Y-29455000D01*
X56972191Y-30606999D02*
X57734190Y-29845000D01*
X56515000Y-31064190D02*
X56972191Y-30606999D01*
X56515000Y-33900000D02*
X56515000Y-31064190D01*
X64525000Y-24130000D02*
X65405000Y-25010000D01*
X63192500Y-24130000D02*
X64525000Y-24130000D01*
X63192500Y-24130000D02*
X64770000Y-22552500D01*
X64770000Y-17272000D02*
X64262000Y-16764000D01*
X64770000Y-17780000D02*
X64770000Y-17272000D01*
X64770000Y-22552500D02*
X64770000Y-17780000D01*
X69485000Y-31385000D02*
X69215000Y-31115000D01*
X69215000Y-22810214D02*
X67943985Y-21539199D01*
X67064757Y-21539199D02*
X64770000Y-19244442D01*
X69485000Y-31435000D02*
X69485000Y-31385000D01*
X64770000Y-19244442D02*
X64770000Y-17780000D01*
X69215000Y-31115000D02*
X69215000Y-22810214D01*
X67943985Y-21539199D02*
X67064757Y-21539199D01*
X73097005Y-17852005D02*
X73097005Y-19035605D01*
X71704199Y-14554199D02*
X73097005Y-15947005D01*
X64262000Y-16764000D02*
X66471801Y-14554199D01*
X73097005Y-15947005D02*
X73097005Y-19035605D01*
X66471801Y-14554199D02*
X71704199Y-14554199D01*
X73097005Y-20247995D02*
X73097005Y-19035605D01*
X72390000Y-40640000D02*
X74295000Y-38735000D01*
X67065000Y-40640000D02*
X72390000Y-40640000D01*
X74295000Y-38735000D02*
X74295000Y-27305000D01*
X74295000Y-27305000D02*
X71704198Y-24714198D01*
X71704198Y-21640802D02*
X73097005Y-20247995D01*
X71704198Y-24714198D02*
X71704198Y-21640802D01*
X42790000Y-33900000D02*
X41655999Y-32765999D01*
X41655999Y-32765999D02*
X40894000Y-32004000D01*
X56515000Y-33900000D02*
X42790000Y-33900000D01*
X30669000Y-34258000D02*
X30099000Y-33688000D01*
X35846000Y-34258000D02*
X30669000Y-34258000D01*
X37163189Y-32940811D02*
X35846000Y-34258000D01*
X37163189Y-28728189D02*
X37163189Y-32940811D01*
X35560000Y-26362500D02*
X35560000Y-27125000D01*
X35560000Y-27125000D02*
X37163189Y-28728189D01*
X42545000Y-30353000D02*
X40894000Y-32004000D01*
X42545000Y-29022500D02*
X42545000Y-30353000D01*
X60397005Y-16836005D02*
X60325000Y-16764000D01*
X60397005Y-19064395D02*
X60397005Y-16836005D01*
X56656560Y-29845000D02*
X57734190Y-29845000D01*
X53975000Y-29845000D02*
X56656560Y-29845000D01*
X51202501Y-23495000D02*
X51202501Y-27072501D01*
X51202501Y-27072501D02*
X53975000Y-29845000D01*
G04 #@! TO.N,Net-(Q1-Pad1)*
X69215000Y-33605000D02*
X69485000Y-33335000D01*
X69215000Y-35805000D02*
X69215000Y-33605000D01*
G04 #@! TO.N,+5VA*
X35634687Y-30020500D02*
X35726000Y-29929187D01*
X35804813Y-30008000D02*
X35726000Y-29929187D01*
X33782000Y-30020500D02*
X35634687Y-30020500D01*
X27830380Y-32133620D02*
X30460880Y-32133620D01*
X32574000Y-30020500D02*
X33782000Y-30020500D01*
X27559000Y-32405000D02*
X27830380Y-32133620D01*
X30460880Y-32133620D02*
X32574000Y-30020500D01*
X27559000Y-33688000D02*
X27559000Y-32405000D01*
X27559000Y-32925000D02*
X27559000Y-33688000D01*
X61205000Y-40640000D02*
X62865000Y-38980000D01*
X62865000Y-37625000D02*
X62865000Y-38980000D01*
X62865000Y-36830000D02*
X62865000Y-37625000D01*
X56515000Y-35950000D02*
X61985000Y-35950000D01*
X61985000Y-35950000D02*
X62865000Y-36830000D01*
X67555000Y-24765000D02*
X67310000Y-25010000D01*
X67310000Y-25010000D02*
X67310000Y-22860000D01*
X39370000Y-33655000D02*
X39370000Y-29845000D01*
X56515000Y-35950000D02*
X41665000Y-35950000D01*
X41665000Y-35950000D02*
X39370000Y-33655000D01*
X75565000Y-38614488D02*
X75565000Y-21115610D01*
X71456678Y-42722810D02*
X75565000Y-38614488D01*
X61205000Y-40640000D02*
X63287810Y-42722810D01*
X63287810Y-42722810D02*
X71456678Y-42722810D01*
X75637005Y-20247995D02*
X75637005Y-19035605D01*
X75565000Y-21115610D02*
X75565000Y-20320000D01*
X73025000Y-22860000D02*
X75565000Y-20320000D01*
X75565000Y-20320000D02*
X75637005Y-20247995D01*
G04 #@! TO.N,Net-(R6-Pad1)*
X30099000Y-29571000D02*
X28349189Y-31320811D01*
X30099000Y-28288000D02*
X30099000Y-29571000D01*
X28349189Y-31320811D02*
X26663189Y-31320811D01*
X26663189Y-31320811D02*
X26226000Y-31758000D01*
X26226000Y-31758000D02*
X25693500Y-31758000D01*
X25693500Y-31758000D02*
X25476000Y-31975500D01*
G04 #@! TO.N,Net-(R6-Pad2)*
X28829000Y-29655000D02*
X27976000Y-30508000D01*
X28829000Y-28288000D02*
X28829000Y-29655000D01*
X27976000Y-30508000D02*
X26726000Y-30508000D01*
X26726000Y-30508000D02*
X26258500Y-30040500D01*
X26258500Y-30040500D02*
X25476000Y-30040500D01*
G04 #@! TO.N,Net-(R5-Pad2)*
X28829000Y-34611000D02*
X28829000Y-33688000D01*
X37465000Y-26425000D02*
X37465000Y-27100000D01*
X37465000Y-27100000D02*
X37976000Y-27611000D01*
X37976000Y-27611000D02*
X37976000Y-33277488D01*
X37976000Y-33277488D02*
X35995488Y-35258000D01*
X35995488Y-35258000D02*
X29476000Y-35258000D01*
X29476000Y-35258000D02*
X28829000Y-34611000D01*
G04 #@! TO.N,/Vpanel*
X34997005Y-19585605D02*
X34997005Y-19035605D01*
X34997005Y-23874505D02*
X35560000Y-24437500D01*
X34997005Y-19064395D02*
X34997005Y-23874505D01*
X37402500Y-24437500D02*
X37465000Y-24375000D01*
X35560000Y-24437500D02*
X37402500Y-24437500D01*
X41217500Y-24375000D02*
X42545000Y-23047500D01*
X37465000Y-24375000D02*
X41217500Y-24375000D01*
G04 #@! TO.N,/PWM*
X70485000Y-19107610D02*
X70557005Y-19035605D01*
X71120000Y-26915000D02*
X70485000Y-26280000D01*
X70485000Y-26280000D02*
X70485000Y-19107610D01*
G04 #@! TO.N,/BatOVInterrupt*
X66675000Y-37625000D02*
X66675000Y-37175000D01*
X66905000Y-37855000D02*
X66675000Y-37625000D01*
X69215000Y-37855000D02*
X66905000Y-37855000D01*
X69215000Y-37855000D02*
X71949200Y-37855000D01*
X71949200Y-37855000D02*
X72974200Y-36830000D01*
X68017005Y-17027605D02*
X68017005Y-19035605D01*
X69169610Y-15875000D02*
X68017005Y-17027605D01*
X70485000Y-15875000D02*
X69169610Y-15875000D01*
X76642630Y-15875000D02*
X77623190Y-16855560D01*
X75565000Y-15875000D02*
X76642630Y-15875000D01*
X77623190Y-35752368D02*
X77623188Y-35752370D01*
X77623190Y-16855560D02*
X77623190Y-35752368D01*
X77623188Y-35752370D02*
X77623188Y-36830000D01*
G04 #@! TO.N,/Vbat_SIG_IN*
X61595000Y-33483000D02*
X62402000Y-34290000D01*
X61595000Y-32225000D02*
X61595000Y-33483000D01*
X65405000Y-33483000D02*
X65405000Y-32225000D01*
X64598000Y-34290000D02*
X65405000Y-33483000D01*
X62402000Y-34290000D02*
X64598000Y-34290000D01*
X61205000Y-26670000D02*
X61203178Y-26670000D01*
X61203178Y-26670000D02*
X61010810Y-26862368D01*
X61010810Y-26862368D02*
X61010810Y-27939998D01*
X61595000Y-32225000D02*
X61595000Y-30967000D01*
X61010810Y-29017628D02*
X61010810Y-27939998D01*
X61595000Y-30967000D02*
X61010810Y-30382810D01*
X61010810Y-30382810D02*
X61010810Y-29017628D01*
X54610000Y-19771400D02*
X55317005Y-19064395D01*
X55829190Y-27940000D02*
X54610000Y-26720810D01*
X54610000Y-26720810D02*
X54610000Y-19771400D01*
G04 #@! TO.N,/Vpanel_Ref*
X28508500Y-25758000D02*
X28508500Y-23823000D01*
X28508500Y-23823000D02*
X28193500Y-23508000D01*
X27559000Y-26675000D02*
X28374500Y-25859500D01*
X27559000Y-28288000D02*
X27559000Y-26675000D01*
X28374500Y-25859500D02*
X28407000Y-25859500D01*
X28407000Y-25859500D02*
X28508500Y-25758000D01*
X28194000Y-25443500D02*
X28508500Y-25758000D01*
X27940000Y-23197000D02*
X28251000Y-23508000D01*
X27377005Y-19035605D02*
X27940000Y-19598600D01*
X27940000Y-19598600D02*
X27940000Y-23197000D01*
G04 #@! TO.N,/Vpanel_SIG*
X29717500Y-19050500D02*
X29718000Y-19050000D01*
X30443500Y-25758000D02*
X31369000Y-26683500D01*
X31369000Y-26683500D02*
X31369000Y-28288000D01*
X30734000Y-25467500D02*
X30443500Y-25758000D01*
X30443500Y-23540500D02*
X30726000Y-23258000D01*
X30443500Y-25758000D02*
X30443500Y-23540500D01*
X30480000Y-23287000D02*
X30701000Y-23508000D01*
X29917005Y-19035605D02*
X30480000Y-19598600D01*
X30480000Y-19598600D02*
X30480000Y-23287000D01*
G04 #@! TO.N,/Vbat*
X62484000Y-20132000D02*
X62484000Y-18796000D01*
X62937005Y-19035605D02*
X62814194Y-19158416D01*
X62865000Y-19107610D02*
X62937005Y-19035605D01*
G04 #@! TO.N,Net-(R13-Pad2)*
X60325000Y-31775000D02*
X60325000Y-32225000D01*
X59055000Y-32225000D02*
X59690000Y-32225000D01*
X59690000Y-32225000D02*
X60325000Y-32225000D01*
G04 #@! TO.N,/Vbat*
X62937005Y-20247995D02*
X62937005Y-19035605D01*
X61595000Y-21590000D02*
X62937005Y-20247995D01*
X61267500Y-24130000D02*
X61595000Y-23802500D01*
X61595000Y-23802500D02*
X61595000Y-21590000D01*
X61022500Y-24375000D02*
X61267500Y-24130000D01*
X59182000Y-24375000D02*
X61022500Y-24375000D01*
X58302000Y-23495000D02*
X59182000Y-24375000D01*
X57177501Y-23495000D02*
X58302000Y-23495000D01*
G04 #@! TO.N,Net-(R8-Pad1)*
X66675000Y-33483000D02*
X66675000Y-32225000D01*
X66675000Y-35097000D02*
X66675000Y-33483000D01*
X65405000Y-36367000D02*
X66675000Y-35097000D01*
X65405000Y-37625000D02*
X65405000Y-36367000D01*
X66675000Y-29346000D02*
X66675000Y-32225000D01*
X66811000Y-29210000D02*
X66675000Y-29346000D01*
G04 #@! TO.N,Net-(R12-Pad2)*
X64135000Y-32225000D02*
X64135000Y-32140000D01*
X64135000Y-32225000D02*
X64135000Y-31895000D01*
X65650000Y-27305000D02*
X65405000Y-27060000D01*
X64135000Y-32225000D02*
X64135000Y-31115000D01*
X65405000Y-27060000D02*
X67310000Y-27060000D01*
X64761000Y-30489000D02*
X64761000Y-29210000D01*
X64135000Y-31115000D02*
X64761000Y-30489000D01*
X64761000Y-27704000D02*
X65405000Y-27060000D01*
X64761000Y-29210000D02*
X64761000Y-27704000D01*
G04 #@! TO.N,Net-(R2-Pad1)*
X64135000Y-40640000D02*
X64135000Y-37625000D01*
X64135000Y-40640000D02*
X65015000Y-40640000D01*
X63255000Y-40640000D02*
X64135000Y-40640000D01*
G04 #@! TO.N,Net-(U1-Pad6)*
X60325000Y-37625000D02*
X59055000Y-37625000D01*
G04 #@! TO.N,Net-(R13-Pad2)*
X59182000Y-31717000D02*
X59182000Y-26425000D01*
X59690000Y-32225000D02*
X59182000Y-31717000D01*
G04 #@! TD*
D21*
G04 #@! TO.N,GNDA*
G36*
X79502800Y-43688800D02*
X23875200Y-43688800D01*
X23875200Y-40013124D01*
X45648800Y-40013124D01*
X45648800Y-40950876D01*
X46007663Y-41817246D01*
X46670754Y-42480337D01*
X47537124Y-42839200D01*
X48474876Y-42839200D01*
X49341246Y-42480337D01*
X50004337Y-41817246D01*
X50363200Y-40950876D01*
X50363200Y-40013124D01*
X50004337Y-39146754D01*
X49341246Y-38483663D01*
X48474876Y-38124800D01*
X47537124Y-38124800D01*
X46670754Y-38483663D01*
X46007663Y-39146754D01*
X45648800Y-40013124D01*
X23875200Y-40013124D01*
X23875200Y-29657999D01*
X24309843Y-29657999D01*
X24309843Y-30308001D01*
X24364357Y-30582062D01*
X24519600Y-30814400D01*
X24751938Y-30969643D01*
X24944772Y-31008000D01*
X24751938Y-31046357D01*
X24519600Y-31201600D01*
X24364357Y-31433938D01*
X24309843Y-31707999D01*
X24309843Y-32358001D01*
X24364357Y-32632062D01*
X24519600Y-32864400D01*
X24751938Y-33019643D01*
X25025999Y-33074157D01*
X25926001Y-33074157D01*
X26200062Y-33019643D01*
X26432400Y-32864400D01*
X26587643Y-32632062D01*
X26642157Y-32358001D01*
X26642157Y-32335285D01*
X26738746Y-32270746D01*
X26778424Y-32211364D01*
X26942993Y-32046795D01*
X26889065Y-32127504D01*
X26833868Y-32405000D01*
X26847801Y-32475046D01*
X26847801Y-32705464D01*
X26828327Y-32734609D01*
X26792843Y-32913000D01*
X26792843Y-34463000D01*
X26828327Y-34641391D01*
X26929377Y-34792623D01*
X27080609Y-34893673D01*
X27259000Y-34929157D01*
X27859000Y-34929157D01*
X28037391Y-34893673D01*
X28145699Y-34821304D01*
X28159064Y-34888495D01*
X28159065Y-34888496D01*
X28276576Y-35064364D01*
X28276578Y-35064366D01*
X28316254Y-35123745D01*
X28375633Y-35163422D01*
X28923578Y-35711367D01*
X28963254Y-35770746D01*
X29022633Y-35810422D01*
X29022635Y-35810424D01*
X29198502Y-35927935D01*
X29198503Y-35927935D01*
X29198504Y-35927936D01*
X29405954Y-35969200D01*
X29405957Y-35969200D01*
X29475999Y-35983132D01*
X29546041Y-35969200D01*
X35925447Y-35969200D01*
X35995488Y-35983132D01*
X36065529Y-35969200D01*
X36065534Y-35969200D01*
X36272984Y-35927936D01*
X36508234Y-35770746D01*
X36547912Y-35711364D01*
X38429367Y-33829910D01*
X38488746Y-33790234D01*
X38528422Y-33730855D01*
X38528424Y-33730853D01*
X38612516Y-33605000D01*
X38645936Y-33554984D01*
X38658800Y-33490311D01*
X38658800Y-33584958D01*
X38644868Y-33655000D01*
X38658800Y-33725041D01*
X38658800Y-33725045D01*
X38700064Y-33932495D01*
X38722114Y-33965495D01*
X38817576Y-34108364D01*
X38817578Y-34108366D01*
X38857254Y-34167745D01*
X38916634Y-34207422D01*
X41112578Y-36403367D01*
X41152254Y-36462746D01*
X41211633Y-36502422D01*
X41211635Y-36502424D01*
X41387502Y-36619935D01*
X41387503Y-36619935D01*
X41387504Y-36619936D01*
X41594954Y-36661200D01*
X41594957Y-36661200D01*
X41664999Y-36675132D01*
X41735041Y-36661200D01*
X55478285Y-36661200D01*
X55558600Y-36781400D01*
X55790938Y-36936643D01*
X56064999Y-36991157D01*
X56965001Y-36991157D01*
X57239062Y-36936643D01*
X57471400Y-36781400D01*
X57551715Y-36661200D01*
X58347987Y-36661200D01*
X58324327Y-36696609D01*
X58288843Y-36875000D01*
X58288843Y-38375000D01*
X58324327Y-38553391D01*
X58425377Y-38704623D01*
X58576609Y-38805673D01*
X58755000Y-38841157D01*
X59355000Y-38841157D01*
X59533391Y-38805673D01*
X59684623Y-38704623D01*
X59690000Y-38696576D01*
X59695377Y-38704623D01*
X59846609Y-38805673D01*
X60025000Y-38841157D01*
X60625000Y-38841157D01*
X60803391Y-38805673D01*
X60954623Y-38704623D01*
X61055673Y-38553391D01*
X61091157Y-38375000D01*
X61091157Y-36875000D01*
X61055673Y-36696609D01*
X61032013Y-36661200D01*
X61690412Y-36661200D01*
X62098843Y-37069632D01*
X62098843Y-38375000D01*
X62134327Y-38553391D01*
X62153801Y-38582535D01*
X62153801Y-38685411D01*
X61365369Y-39473843D01*
X60879999Y-39473843D01*
X60605938Y-39528357D01*
X60373600Y-39683600D01*
X60218357Y-39915938D01*
X60163843Y-40189999D01*
X60163843Y-41090001D01*
X60218357Y-41364062D01*
X60373600Y-41596400D01*
X60605938Y-41751643D01*
X60879999Y-41806157D01*
X61365369Y-41806157D01*
X62735388Y-43176177D01*
X62775064Y-43235556D01*
X62834443Y-43275232D01*
X62834445Y-43275234D01*
X63010312Y-43392745D01*
X63010313Y-43392745D01*
X63010314Y-43392746D01*
X63217764Y-43434010D01*
X63217767Y-43434010D01*
X63287809Y-43447942D01*
X63357851Y-43434010D01*
X71386637Y-43434010D01*
X71456678Y-43447942D01*
X71526719Y-43434010D01*
X71526724Y-43434010D01*
X71734174Y-43392746D01*
X71969424Y-43235556D01*
X72009102Y-43176174D01*
X76018369Y-39166908D01*
X76077745Y-39127234D01*
X76117420Y-39067857D01*
X76117424Y-39067853D01*
X76212232Y-38925962D01*
X76234936Y-38891984D01*
X76276200Y-38684534D01*
X76276200Y-38684530D01*
X76290132Y-38614488D01*
X76276200Y-38544446D01*
X76276200Y-21030552D01*
X76587005Y-21030552D01*
X76765396Y-20995068D01*
X76911990Y-20897117D01*
X76911991Y-35682310D01*
X76911988Y-35682325D01*
X76911988Y-35682329D01*
X76898056Y-35752370D01*
X76911089Y-35817889D01*
X76589600Y-36139378D01*
X76403988Y-36587486D01*
X76403988Y-37072514D01*
X76589600Y-37520622D01*
X76932566Y-37863588D01*
X77380674Y-38049200D01*
X77865702Y-38049200D01*
X78313810Y-37863588D01*
X78656776Y-37520622D01*
X78842388Y-37072514D01*
X78842388Y-36587486D01*
X78656776Y-36139378D01*
X78335289Y-35817891D01*
X78348322Y-35752368D01*
X78334390Y-35682324D01*
X78334390Y-16925601D01*
X78348322Y-16855559D01*
X78334390Y-16785515D01*
X78334390Y-16785514D01*
X78293126Y-16578064D01*
X78290572Y-16574241D01*
X78175614Y-16402195D01*
X78175610Y-16402191D01*
X78135935Y-16342814D01*
X78076559Y-16303140D01*
X77195054Y-15421636D01*
X77155376Y-15362254D01*
X76920126Y-15205064D01*
X76712676Y-15163800D01*
X76712671Y-15163800D01*
X76642630Y-15149868D01*
X76577111Y-15162901D01*
X76255622Y-14841412D01*
X75807514Y-14655800D01*
X75322486Y-14655800D01*
X74874378Y-14841412D01*
X74531412Y-15184378D01*
X74345800Y-15632486D01*
X74345800Y-16117514D01*
X74531412Y-16565622D01*
X74874378Y-16908588D01*
X75322486Y-17094200D01*
X75807514Y-17094200D01*
X76255622Y-16908588D01*
X76463026Y-16701184D01*
X76911990Y-17150149D01*
X76911990Y-17231673D01*
X76765396Y-17133722D01*
X76587005Y-17098238D01*
X74687005Y-17098238D01*
X74508614Y-17133722D01*
X74357382Y-17234772D01*
X74256332Y-17386004D01*
X74220848Y-17564395D01*
X74220848Y-20564395D01*
X74236438Y-20642773D01*
X73238412Y-21640800D01*
X72782486Y-21640800D01*
X72334378Y-21826412D01*
X71991412Y-22169378D01*
X71805800Y-22617486D01*
X71805800Y-23102514D01*
X71991412Y-23550622D01*
X72334378Y-23893588D01*
X72782486Y-24079200D01*
X73267514Y-24079200D01*
X73715622Y-23893588D01*
X74058588Y-23550622D01*
X74244200Y-23102514D01*
X74244200Y-22646588D01*
X74853801Y-22036988D01*
X74853800Y-38319899D01*
X71162090Y-42011610D01*
X63582399Y-42011610D01*
X63376946Y-41806157D01*
X63580001Y-41806157D01*
X63854062Y-41751643D01*
X64086400Y-41596400D01*
X64135000Y-41523665D01*
X64183600Y-41596400D01*
X64415938Y-41751643D01*
X64689999Y-41806157D01*
X65340001Y-41806157D01*
X65614062Y-41751643D01*
X65846400Y-41596400D01*
X66001643Y-41364062D01*
X66056157Y-41090001D01*
X66056157Y-40189999D01*
X66001643Y-39915938D01*
X65846400Y-39683600D01*
X65614062Y-39528357D01*
X65340001Y-39473843D01*
X64846200Y-39473843D01*
X64846200Y-38751945D01*
X64926609Y-38805673D01*
X65105000Y-38841157D01*
X65705000Y-38841157D01*
X65883391Y-38805673D01*
X66034623Y-38704623D01*
X66040000Y-38696576D01*
X66045377Y-38704623D01*
X66196609Y-38805673D01*
X66375000Y-38841157D01*
X66975000Y-38841157D01*
X67153391Y-38805673D01*
X67304623Y-38704623D01*
X67397114Y-38566200D01*
X68178285Y-38566200D01*
X68258600Y-38686400D01*
X68490938Y-38841643D01*
X68764999Y-38896157D01*
X69665001Y-38896157D01*
X69939062Y-38841643D01*
X70171400Y-38686400D01*
X70251715Y-38566200D01*
X71879159Y-38566200D01*
X71949200Y-38580132D01*
X72019241Y-38566200D01*
X72019246Y-38566200D01*
X72226696Y-38524936D01*
X72461946Y-38367746D01*
X72501624Y-38308364D01*
X72760788Y-38049200D01*
X73216714Y-38049200D01*
X73664822Y-37863588D01*
X74007788Y-37520622D01*
X74193400Y-37072514D01*
X74193400Y-36587486D01*
X74007788Y-36139378D01*
X73664822Y-35796412D01*
X73216714Y-35610800D01*
X72731686Y-35610800D01*
X72283578Y-35796412D01*
X71940612Y-36139378D01*
X71755000Y-36587486D01*
X71755000Y-37043412D01*
X71654612Y-37143800D01*
X70251715Y-37143800D01*
X70171400Y-37023600D01*
X69939062Y-36868357D01*
X69746228Y-36830000D01*
X69939062Y-36791643D01*
X70171400Y-36636400D01*
X70326643Y-36404062D01*
X70381157Y-36130001D01*
X70381157Y-35479999D01*
X70326643Y-35205938D01*
X70171400Y-34973600D01*
X69939062Y-34818357D01*
X69926200Y-34815799D01*
X69926200Y-34201157D01*
X69935000Y-34201157D01*
X70113391Y-34165673D01*
X70264623Y-34064623D01*
X70365673Y-33913391D01*
X70401157Y-33735000D01*
X70401157Y-32935000D01*
X70365673Y-32756609D01*
X70264623Y-32605377D01*
X70113391Y-32504327D01*
X69935000Y-32468843D01*
X69035000Y-32468843D01*
X68856609Y-32504327D01*
X68705377Y-32605377D01*
X68604327Y-32756609D01*
X68568843Y-32935000D01*
X68568843Y-33291918D01*
X68545065Y-33327504D01*
X68489868Y-33605000D01*
X68503801Y-33675046D01*
X68503800Y-34815799D01*
X68490938Y-34818357D01*
X68258600Y-34973600D01*
X68103357Y-35205938D01*
X68048843Y-35479999D01*
X68048843Y-36130001D01*
X68103357Y-36404062D01*
X68258600Y-36636400D01*
X68490938Y-36791643D01*
X68683772Y-36830000D01*
X68490938Y-36868357D01*
X68258600Y-37023600D01*
X68178285Y-37143800D01*
X67441157Y-37143800D01*
X67441157Y-36875000D01*
X67405673Y-36696609D01*
X67304623Y-36545377D01*
X67153391Y-36444327D01*
X66975000Y-36408843D01*
X66375000Y-36408843D01*
X66367442Y-36410346D01*
X67128369Y-35649420D01*
X67187745Y-35609746D01*
X67227420Y-35550369D01*
X67227424Y-35550365D01*
X67344935Y-35374498D01*
X67344935Y-35374497D01*
X67344936Y-35374496D01*
X67386200Y-35167046D01*
X67386200Y-35167043D01*
X67400132Y-35097001D01*
X67386200Y-35026959D01*
X67386200Y-33182534D01*
X67405673Y-33153391D01*
X67441157Y-32975000D01*
X67441157Y-31475000D01*
X67405673Y-31296609D01*
X67386200Y-31267466D01*
X67386200Y-30326389D01*
X67410062Y-30321643D01*
X67642400Y-30166400D01*
X67797643Y-29934062D01*
X67852157Y-29660001D01*
X67852157Y-28759999D01*
X67797643Y-28485938D01*
X67642400Y-28253600D01*
X67414253Y-28101157D01*
X67760001Y-28101157D01*
X68034062Y-28046643D01*
X68266400Y-27891400D01*
X68421643Y-27659062D01*
X68476157Y-27385001D01*
X68476157Y-26734999D01*
X68421643Y-26460938D01*
X68266400Y-26228600D01*
X68034062Y-26073357D01*
X67841228Y-26035000D01*
X68034062Y-25996643D01*
X68266400Y-25841400D01*
X68421643Y-25609062D01*
X68476157Y-25335001D01*
X68476157Y-24684999D01*
X68421643Y-24410938D01*
X68266400Y-24178600D01*
X68034062Y-24023357D01*
X68021200Y-24020799D01*
X68021200Y-23873010D01*
X68343588Y-23550622D01*
X68529200Y-23102514D01*
X68529200Y-22617486D01*
X68343588Y-22169378D01*
X68000622Y-21826412D01*
X67552514Y-21640800D01*
X67067486Y-21640800D01*
X66619378Y-21826412D01*
X66276412Y-22169378D01*
X66090800Y-22617486D01*
X66090800Y-23102514D01*
X66276412Y-23550622D01*
X66598801Y-23873011D01*
X66598800Y-24020799D01*
X66585938Y-24023357D01*
X66353600Y-24178600D01*
X66198357Y-24410938D01*
X66143843Y-24684999D01*
X66143843Y-25335001D01*
X66198357Y-25609062D01*
X66353600Y-25841400D01*
X66585938Y-25996643D01*
X66778772Y-26035000D01*
X66585938Y-26073357D01*
X66357500Y-26225994D01*
X66129062Y-26073357D01*
X65855001Y-26018843D01*
X64954999Y-26018843D01*
X64680938Y-26073357D01*
X64448600Y-26228600D01*
X64293357Y-26460938D01*
X64238843Y-26734999D01*
X64238843Y-27205340D01*
X64208579Y-27250633D01*
X64208576Y-27250636D01*
X64091065Y-27426504D01*
X64035868Y-27704000D01*
X64049801Y-27774046D01*
X64049801Y-28173285D01*
X63929600Y-28253600D01*
X63774357Y-28485938D01*
X63719843Y-28759999D01*
X63719843Y-29660001D01*
X63774357Y-29934062D01*
X63929600Y-30166400D01*
X64018446Y-30225765D01*
X63681634Y-30562578D01*
X63622255Y-30602254D01*
X63582579Y-30661633D01*
X63582576Y-30661636D01*
X63465065Y-30837504D01*
X63409868Y-31115000D01*
X63423801Y-31185046D01*
X63423801Y-31267464D01*
X63404327Y-31296609D01*
X63368843Y-31475000D01*
X63368843Y-32975000D01*
X63404327Y-33153391D01*
X63505377Y-33304623D01*
X63656609Y-33405673D01*
X63835000Y-33441157D01*
X64435000Y-33441157D01*
X64442558Y-33439654D01*
X64303412Y-33578800D01*
X62696589Y-33578800D01*
X62306200Y-33188412D01*
X62306200Y-33182534D01*
X62325673Y-33153391D01*
X62361157Y-32975000D01*
X62361157Y-31475000D01*
X62325673Y-31296609D01*
X62306200Y-31267466D01*
X62306200Y-31037041D01*
X62320132Y-30966999D01*
X62306200Y-30896957D01*
X62306200Y-30896954D01*
X62264936Y-30689504D01*
X62246315Y-30661636D01*
X62147424Y-30513635D01*
X62147422Y-30513633D01*
X62107746Y-30454254D01*
X62048366Y-30414578D01*
X61722010Y-30088222D01*
X61722010Y-28953008D01*
X62044398Y-28630620D01*
X62230010Y-28182512D01*
X62230010Y-27697484D01*
X62044398Y-27249376D01*
X61886549Y-27091527D01*
X62036400Y-26991400D01*
X62191643Y-26759062D01*
X62246157Y-26485001D01*
X62246157Y-25584999D01*
X62191643Y-25310938D01*
X62063204Y-25118715D01*
X62186399Y-25036399D01*
X62341643Y-24804061D01*
X62396157Y-24530000D01*
X62396157Y-23730000D01*
X62341643Y-23455939D01*
X62306200Y-23402895D01*
X62306200Y-21884588D01*
X63160237Y-21030552D01*
X63887005Y-21030552D01*
X64065396Y-20995068D01*
X64216628Y-20894018D01*
X64317678Y-20742786D01*
X64353162Y-20564395D01*
X64353162Y-17564395D01*
X66600848Y-17564395D01*
X66600848Y-20564395D01*
X66636332Y-20742786D01*
X66737382Y-20894018D01*
X66888614Y-20995068D01*
X67067005Y-21030552D01*
X68967005Y-21030552D01*
X69145396Y-20995068D01*
X69287005Y-20900448D01*
X69428614Y-20995068D01*
X69607005Y-21030552D01*
X69773801Y-21030552D01*
X69773800Y-26209959D01*
X69759868Y-26280000D01*
X69773800Y-26350041D01*
X69773800Y-26350045D01*
X69815064Y-26557495D01*
X69836783Y-26589999D01*
X69932576Y-26733364D01*
X69932578Y-26733366D01*
X69953843Y-26765191D01*
X69953843Y-27240001D01*
X70008357Y-27514062D01*
X70163600Y-27746400D01*
X70395938Y-27901643D01*
X70588772Y-27940000D01*
X70395938Y-27978357D01*
X70163600Y-28133600D01*
X70008357Y-28365938D01*
X69953843Y-28639999D01*
X69953843Y-29290001D01*
X70008357Y-29564062D01*
X70163600Y-29796400D01*
X70395938Y-29951643D01*
X70669999Y-30006157D01*
X70773801Y-30006157D01*
X70773800Y-31609658D01*
X70705377Y-31655377D01*
X70604327Y-31806609D01*
X70568843Y-31985000D01*
X70568843Y-32785000D01*
X70604327Y-32963391D01*
X70705377Y-33114623D01*
X70856609Y-33215673D01*
X71035000Y-33251157D01*
X71935000Y-33251157D01*
X72113391Y-33215673D01*
X72264623Y-33114623D01*
X72365673Y-32963391D01*
X72401157Y-32785000D01*
X72401157Y-31985000D01*
X72365673Y-31806609D01*
X72264623Y-31655377D01*
X72196200Y-31609658D01*
X72196200Y-29617106D01*
X72231643Y-29564062D01*
X72286157Y-29290001D01*
X72286157Y-28639999D01*
X72231643Y-28365938D01*
X72076400Y-28133600D01*
X71844062Y-27978357D01*
X71651228Y-27940000D01*
X71844062Y-27901643D01*
X72076400Y-27746400D01*
X72231643Y-27514062D01*
X72286157Y-27240001D01*
X72286157Y-26589999D01*
X72231643Y-26315938D01*
X72076400Y-26083600D01*
X71844062Y-25928357D01*
X71570001Y-25873843D01*
X71196200Y-25873843D01*
X71196200Y-21030552D01*
X71507005Y-21030552D01*
X71685396Y-20995068D01*
X71836628Y-20894018D01*
X71937678Y-20742786D01*
X71973162Y-20564395D01*
X71973162Y-17564395D01*
X71937678Y-17386004D01*
X71836628Y-17234772D01*
X71685396Y-17133722D01*
X71507005Y-17098238D01*
X69607005Y-17098238D01*
X69428614Y-17133722D01*
X69287005Y-17228342D01*
X69145396Y-17133722D01*
X68967005Y-17098238D01*
X68952160Y-17098238D01*
X69464199Y-16586200D01*
X69471990Y-16586200D01*
X69794378Y-16908588D01*
X70242486Y-17094200D01*
X70727514Y-17094200D01*
X71175622Y-16908588D01*
X71518588Y-16565622D01*
X71704200Y-16117514D01*
X71704200Y-15632486D01*
X71518588Y-15184378D01*
X71175622Y-14841412D01*
X70727514Y-14655800D01*
X70242486Y-14655800D01*
X69794378Y-14841412D01*
X69471990Y-15163800D01*
X69239652Y-15163800D01*
X69169610Y-15149868D01*
X69099568Y-15163800D01*
X69099564Y-15163800D01*
X68892114Y-15205064D01*
X68892112Y-15205065D01*
X68892113Y-15205065D01*
X68716245Y-15322576D01*
X68716243Y-15322578D01*
X68656864Y-15362254D01*
X68617188Y-15421633D01*
X67563639Y-16475183D01*
X67504259Y-16514860D01*
X67464583Y-16574239D01*
X67464581Y-16574241D01*
X67387272Y-16689942D01*
X67347069Y-16750110D01*
X67305805Y-16957560D01*
X67305805Y-16957564D01*
X67291873Y-17027605D01*
X67305805Y-17097647D01*
X67305805Y-17098238D01*
X67067005Y-17098238D01*
X66888614Y-17133722D01*
X66737382Y-17234772D01*
X66636332Y-17386004D01*
X66600848Y-17564395D01*
X64353162Y-17564395D01*
X64317678Y-17386004D01*
X64216628Y-17234772D01*
X64065396Y-17133722D01*
X63887005Y-17098238D01*
X61987005Y-17098238D01*
X61808614Y-17133722D01*
X61657382Y-17234772D01*
X61556332Y-17386004D01*
X61520848Y-17564395D01*
X61520848Y-20564395D01*
X61536438Y-20642773D01*
X61141634Y-21037578D01*
X61082255Y-21077254D01*
X61042579Y-21136633D01*
X61042576Y-21136636D01*
X60925065Y-21312504D01*
X60869868Y-21590000D01*
X60883801Y-21660046D01*
X60883800Y-23013843D01*
X60855000Y-23013843D01*
X60580939Y-23068357D01*
X60348601Y-23223601D01*
X60193357Y-23455939D01*
X60167313Y-23586871D01*
X60138400Y-23543600D01*
X59906062Y-23388357D01*
X59632001Y-23333843D01*
X59146631Y-23333843D01*
X58854424Y-23041636D01*
X58814746Y-22982254D01*
X58579496Y-22825064D01*
X58406158Y-22790585D01*
X58406158Y-22069999D01*
X58351644Y-21795938D01*
X58196401Y-21563600D01*
X57964063Y-21408357D01*
X57690002Y-21353843D01*
X56665000Y-21353843D01*
X56390939Y-21408357D01*
X56158601Y-21563600D01*
X56003358Y-21795938D01*
X55948844Y-22069999D01*
X55948844Y-24920001D01*
X56003358Y-25194062D01*
X56158601Y-25426400D01*
X56390939Y-25581643D01*
X56665000Y-25636157D01*
X57690002Y-25636157D01*
X57964063Y-25581643D01*
X58196401Y-25426400D01*
X58307040Y-25260816D01*
X58457938Y-25361643D01*
X58650772Y-25400000D01*
X58457938Y-25438357D01*
X58225600Y-25593600D01*
X58070357Y-25825938D01*
X58015843Y-26099999D01*
X58015843Y-26750001D01*
X58070357Y-27024062D01*
X58225600Y-27256400D01*
X58457938Y-27411643D01*
X58470801Y-27414202D01*
X58470800Y-31115026D01*
X58425377Y-31145377D01*
X58324327Y-31296609D01*
X58288843Y-31475000D01*
X58288843Y-32975000D01*
X58324327Y-33153391D01*
X58425377Y-33304623D01*
X58576609Y-33405673D01*
X58755000Y-33441157D01*
X59355000Y-33441157D01*
X59533391Y-33405673D01*
X59684623Y-33304623D01*
X59690000Y-33296576D01*
X59695377Y-33304623D01*
X59846609Y-33405673D01*
X60025000Y-33441157D01*
X60625000Y-33441157D01*
X60803391Y-33405673D01*
X60883801Y-33351945D01*
X60883801Y-33412954D01*
X60869868Y-33483000D01*
X60925065Y-33760496D01*
X61042576Y-33936364D01*
X61042579Y-33936367D01*
X61082255Y-33995746D01*
X61141634Y-34035422D01*
X61849578Y-34743367D01*
X61889254Y-34802746D01*
X61948633Y-34842422D01*
X61948635Y-34842424D01*
X62124502Y-34959935D01*
X62124503Y-34959935D01*
X62124504Y-34959936D01*
X62331954Y-35001200D01*
X62331957Y-35001200D01*
X62401999Y-35015132D01*
X62472041Y-35001200D01*
X64527959Y-35001200D01*
X64598000Y-35015132D01*
X64668041Y-35001200D01*
X64668046Y-35001200D01*
X64875496Y-34959936D01*
X65110746Y-34802746D01*
X65150424Y-34743364D01*
X65858369Y-34035420D01*
X65917745Y-33995746D01*
X65957420Y-33936369D01*
X65957424Y-33936365D01*
X65963801Y-33926822D01*
X65963800Y-34802411D01*
X64951634Y-35814578D01*
X64892255Y-35854254D01*
X64852579Y-35913633D01*
X64852576Y-35913636D01*
X64735065Y-36089504D01*
X64679868Y-36367000D01*
X64693801Y-36437046D01*
X64693801Y-36498055D01*
X64613391Y-36444327D01*
X64435000Y-36408843D01*
X63835000Y-36408843D01*
X63656609Y-36444327D01*
X63522520Y-36533922D01*
X63474961Y-36462746D01*
X63417424Y-36376635D01*
X63417420Y-36376631D01*
X63377745Y-36317254D01*
X63318369Y-36277580D01*
X62537423Y-35496635D01*
X62497746Y-35437254D01*
X62262496Y-35280064D01*
X62055046Y-35238800D01*
X62055041Y-35238800D01*
X61985000Y-35224868D01*
X61914959Y-35238800D01*
X57551715Y-35238800D01*
X57471400Y-35118600D01*
X57239062Y-34963357D01*
X56965001Y-34908843D01*
X56064999Y-34908843D01*
X55790938Y-34963357D01*
X55558600Y-35118600D01*
X55478285Y-35238800D01*
X41959589Y-35238800D01*
X40081200Y-33360412D01*
X40081200Y-30858010D01*
X40403588Y-30535622D01*
X40589200Y-30087514D01*
X40589200Y-29602486D01*
X40403588Y-29154378D01*
X40060622Y-28811412D01*
X39612514Y-28625800D01*
X39127486Y-28625800D01*
X38687200Y-28808172D01*
X38687200Y-27681041D01*
X38701132Y-27610999D01*
X38687200Y-27540955D01*
X38687200Y-27540954D01*
X38645936Y-27333504D01*
X38645935Y-27333502D01*
X38528424Y-27157635D01*
X38528420Y-27157631D01*
X38507907Y-27126932D01*
X38576643Y-27024062D01*
X38631157Y-26750001D01*
X38631157Y-26099999D01*
X38576643Y-25825938D01*
X38421400Y-25593600D01*
X38189062Y-25438357D01*
X37996228Y-25400000D01*
X38189062Y-25361643D01*
X38421400Y-25206400D01*
X38501715Y-25086200D01*
X41147459Y-25086200D01*
X41217500Y-25100132D01*
X41287541Y-25086200D01*
X41287546Y-25086200D01*
X41494996Y-25044936D01*
X41730246Y-24887746D01*
X41769924Y-24828364D01*
X42322131Y-24276157D01*
X43970001Y-24276157D01*
X44244062Y-24221643D01*
X44476400Y-24066400D01*
X44631643Y-23834062D01*
X44686157Y-23560001D01*
X44686157Y-22534999D01*
X44631643Y-22260938D01*
X44476400Y-22028600D01*
X44244062Y-21873357D01*
X43970001Y-21818843D01*
X41119999Y-21818843D01*
X40845938Y-21873357D01*
X40613600Y-22028600D01*
X40458357Y-22260938D01*
X40403843Y-22534999D01*
X40403843Y-23560001D01*
X40424490Y-23663800D01*
X38501715Y-23663800D01*
X38421400Y-23543600D01*
X38189062Y-23388357D01*
X37915001Y-23333843D01*
X37014999Y-23333843D01*
X36740938Y-23388357D01*
X36508600Y-23543600D01*
X36495851Y-23562680D01*
X36466399Y-23518601D01*
X36234061Y-23363357D01*
X35960000Y-23308843D01*
X35708205Y-23308843D01*
X35708205Y-21030552D01*
X35947005Y-21030552D01*
X36125396Y-20995068D01*
X36276628Y-20894018D01*
X36377678Y-20742786D01*
X36413162Y-20564395D01*
X36413162Y-17564395D01*
X41200848Y-17564395D01*
X41200848Y-20564395D01*
X41236332Y-20742786D01*
X41337382Y-20894018D01*
X41488614Y-20995068D01*
X41667005Y-21030552D01*
X43567005Y-21030552D01*
X43745396Y-20995068D01*
X43887005Y-20900448D01*
X44028614Y-20995068D01*
X44207005Y-21030552D01*
X46107005Y-21030552D01*
X46285396Y-20995068D01*
X46436628Y-20894018D01*
X46537678Y-20742786D01*
X46573162Y-20564395D01*
X46573162Y-17564395D01*
X48820848Y-17564395D01*
X48820848Y-20564395D01*
X48856332Y-20742786D01*
X48957382Y-20894018D01*
X49108614Y-20995068D01*
X49287005Y-21030552D01*
X51187005Y-21030552D01*
X51365396Y-20995068D01*
X51516628Y-20894018D01*
X51617678Y-20742786D01*
X51653162Y-20564395D01*
X51653162Y-19771400D01*
X53884868Y-19771400D01*
X53898801Y-19841446D01*
X53898800Y-26650769D01*
X53884868Y-26720810D01*
X53898800Y-26790851D01*
X53898800Y-26790855D01*
X53940064Y-26998305D01*
X53959574Y-27027503D01*
X54057576Y-27174174D01*
X54057578Y-27174176D01*
X54097254Y-27233555D01*
X54156634Y-27273232D01*
X54609990Y-27726588D01*
X54609990Y-28182514D01*
X54795602Y-28630622D01*
X55138568Y-28973588D01*
X55586676Y-29159200D01*
X56071704Y-29159200D01*
X56519812Y-28973588D01*
X56862778Y-28630622D01*
X57048390Y-28182514D01*
X57048390Y-27697486D01*
X56862778Y-27249378D01*
X56519812Y-26906412D01*
X56071704Y-26720800D01*
X55615778Y-26720800D01*
X55321200Y-26426222D01*
X55321200Y-21030552D01*
X56267005Y-21030552D01*
X56445396Y-20995068D01*
X56596628Y-20894018D01*
X56697678Y-20742786D01*
X56733162Y-20564395D01*
X56733162Y-17564395D01*
X56697678Y-17386004D01*
X56596628Y-17234772D01*
X56445396Y-17133722D01*
X56267005Y-17098238D01*
X54367005Y-17098238D01*
X54188614Y-17133722D01*
X54037382Y-17234772D01*
X53936332Y-17386004D01*
X53900848Y-17564395D01*
X53900848Y-19691063D01*
X53884868Y-19771400D01*
X51653162Y-19771400D01*
X51653162Y-17564395D01*
X51617678Y-17386004D01*
X51516628Y-17234772D01*
X51365396Y-17133722D01*
X51187005Y-17098238D01*
X49287005Y-17098238D01*
X49108614Y-17133722D01*
X48957382Y-17234772D01*
X48856332Y-17386004D01*
X48820848Y-17564395D01*
X46573162Y-17564395D01*
X46537678Y-17386004D01*
X46436628Y-17234772D01*
X46285396Y-17133722D01*
X46107005Y-17098238D01*
X44207005Y-17098238D01*
X44028614Y-17133722D01*
X43887005Y-17228342D01*
X43745396Y-17133722D01*
X43567005Y-17098238D01*
X41667005Y-17098238D01*
X41488614Y-17133722D01*
X41337382Y-17234772D01*
X41236332Y-17386004D01*
X41200848Y-17564395D01*
X36413162Y-17564395D01*
X36377678Y-17386004D01*
X36276628Y-17234772D01*
X36125396Y-17133722D01*
X35947005Y-17098238D01*
X34047005Y-17098238D01*
X33868614Y-17133722D01*
X33717382Y-17234772D01*
X33616332Y-17386004D01*
X33580848Y-17564395D01*
X33580848Y-20564395D01*
X33616332Y-20742786D01*
X33717382Y-20894018D01*
X33868614Y-20995068D01*
X34047005Y-21030552D01*
X34285805Y-21030552D01*
X34285806Y-23804459D01*
X34271873Y-23874505D01*
X34327070Y-24152001D01*
X34443843Y-24326765D01*
X34443843Y-24850000D01*
X34498357Y-25124061D01*
X34653601Y-25356399D01*
X34885939Y-25511643D01*
X35160000Y-25566157D01*
X35960000Y-25566157D01*
X36234061Y-25511643D01*
X36466399Y-25356399D01*
X36548715Y-25233204D01*
X36740938Y-25361643D01*
X36933772Y-25400000D01*
X36740938Y-25438357D01*
X36508600Y-25593600D01*
X36353357Y-25825938D01*
X36298843Y-26099999D01*
X36298843Y-26750001D01*
X36353357Y-27024062D01*
X36508600Y-27256400D01*
X36740938Y-27411643D01*
X36829675Y-27429294D01*
X36912576Y-27553364D01*
X36912579Y-27553367D01*
X36952255Y-27612746D01*
X37011634Y-27652422D01*
X37264800Y-27905589D01*
X37264801Y-32982898D01*
X35700900Y-34546800D01*
X29770589Y-34546800D01*
X29595157Y-34371369D01*
X29595157Y-32913000D01*
X29581595Y-32844820D01*
X30390839Y-32844820D01*
X30460880Y-32858752D01*
X30530921Y-32844820D01*
X30530926Y-32844820D01*
X30738376Y-32803556D01*
X30973626Y-32646366D01*
X31013304Y-32586984D01*
X32817705Y-30782584D01*
X32825600Y-30794400D01*
X33057938Y-30949643D01*
X33331999Y-31004157D01*
X34232001Y-31004157D01*
X34506062Y-30949643D01*
X34738400Y-30794400D01*
X34780295Y-30731700D01*
X34804303Y-30731700D01*
X35035378Y-30962775D01*
X35483486Y-31148387D01*
X35968514Y-31148387D01*
X36416622Y-30962775D01*
X36759588Y-30619809D01*
X36945200Y-30171701D01*
X36945200Y-29686673D01*
X36759588Y-29238565D01*
X36416622Y-28895599D01*
X35968514Y-28709987D01*
X35483486Y-28709987D01*
X35035378Y-28895599D01*
X34762824Y-29168153D01*
X34738400Y-29131600D01*
X34506062Y-28976357D01*
X34232001Y-28921843D01*
X33331999Y-28921843D01*
X33057938Y-28976357D01*
X32825600Y-29131600D01*
X32706865Y-29309300D01*
X32644042Y-29309300D01*
X32574000Y-29295368D01*
X32503958Y-29309300D01*
X32503954Y-29309300D01*
X32296504Y-29350564D01*
X32296502Y-29350565D01*
X32296503Y-29350565D01*
X32120635Y-29468076D01*
X32120633Y-29468078D01*
X32061254Y-29507754D01*
X32021578Y-29567133D01*
X30166292Y-31422420D01*
X29253368Y-31422420D01*
X30552367Y-30123422D01*
X30611746Y-30083746D01*
X30651422Y-30024367D01*
X30651424Y-30024365D01*
X30768935Y-29848498D01*
X30768935Y-29848497D01*
X30768936Y-29848496D01*
X30810200Y-29641046D01*
X30810200Y-29641043D01*
X30824132Y-29571001D01*
X30810200Y-29500959D01*
X30810200Y-29439945D01*
X30890609Y-29493673D01*
X31069000Y-29529157D01*
X31669000Y-29529157D01*
X31847391Y-29493673D01*
X31998623Y-29392623D01*
X32099673Y-29241391D01*
X32135157Y-29063000D01*
X32135157Y-27513000D01*
X32099673Y-27334609D01*
X32080200Y-27305466D01*
X32080200Y-26753542D01*
X32094132Y-26683500D01*
X32080200Y-26613458D01*
X32080200Y-26613454D01*
X32038936Y-26406004D01*
X31991404Y-26334868D01*
X31921424Y-26230135D01*
X31921420Y-26230131D01*
X31881745Y-26170754D01*
X31822369Y-26131080D01*
X31542157Y-25850868D01*
X31542157Y-25307999D01*
X31487643Y-25033938D01*
X31332400Y-24801600D01*
X31154700Y-24682865D01*
X31154700Y-24648557D01*
X31300062Y-24619643D01*
X31532400Y-24464400D01*
X31687643Y-24232062D01*
X31742157Y-23958001D01*
X31742157Y-23057999D01*
X31687643Y-22783938D01*
X31532400Y-22551600D01*
X31300062Y-22396357D01*
X31191200Y-22374703D01*
X31191200Y-20897645D01*
X31196628Y-20894018D01*
X31297678Y-20742786D01*
X31333162Y-20564395D01*
X31333162Y-17564395D01*
X31297678Y-17386004D01*
X31196628Y-17234772D01*
X31045396Y-17133722D01*
X30867005Y-17098238D01*
X28967005Y-17098238D01*
X28788614Y-17133722D01*
X28647005Y-17228342D01*
X28505396Y-17133722D01*
X28327005Y-17098238D01*
X26427005Y-17098238D01*
X26248614Y-17133722D01*
X26097382Y-17234772D01*
X25996332Y-17386004D01*
X25960848Y-17564395D01*
X25960848Y-20564395D01*
X25996332Y-20742786D01*
X26097382Y-20894018D01*
X26248614Y-20995068D01*
X26427005Y-21030552D01*
X27228800Y-21030552D01*
X27228801Y-22962691D01*
X27209843Y-23057999D01*
X27209843Y-23958001D01*
X27264357Y-24232062D01*
X27419600Y-24464400D01*
X27651938Y-24619643D01*
X27797301Y-24648557D01*
X27797301Y-24682865D01*
X27619600Y-24801600D01*
X27464357Y-25033938D01*
X27409843Y-25307999D01*
X27409843Y-25818369D01*
X27105634Y-26122578D01*
X27046255Y-26162254D01*
X27006579Y-26221633D01*
X27006576Y-26221636D01*
X26889065Y-26397504D01*
X26833868Y-26675000D01*
X26847801Y-26745046D01*
X26847801Y-27305465D01*
X26828327Y-27334609D01*
X26792843Y-27513000D01*
X26792843Y-29063000D01*
X26828327Y-29241391D01*
X26929377Y-29392623D01*
X27080609Y-29493673D01*
X27259000Y-29529157D01*
X27859000Y-29529157D01*
X27971415Y-29506796D01*
X27681412Y-29796800D01*
X27020589Y-29796800D01*
X26810924Y-29587136D01*
X26771246Y-29527754D01*
X26592492Y-29408313D01*
X26587643Y-29383938D01*
X26432400Y-29151600D01*
X26200062Y-28996357D01*
X25926001Y-28941843D01*
X25025999Y-28941843D01*
X24751938Y-28996357D01*
X24519600Y-29151600D01*
X24364357Y-29383938D01*
X24309843Y-29657999D01*
X23875200Y-29657999D01*
X23875200Y-13969200D01*
X79502801Y-13969200D01*
X79502800Y-43688800D01*
X79502800Y-43688800D01*
G37*
X79502800Y-43688800D02*
X23875200Y-43688800D01*
X23875200Y-40013124D01*
X45648800Y-40013124D01*
X45648800Y-40950876D01*
X46007663Y-41817246D01*
X46670754Y-42480337D01*
X47537124Y-42839200D01*
X48474876Y-42839200D01*
X49341246Y-42480337D01*
X50004337Y-41817246D01*
X50363200Y-40950876D01*
X50363200Y-40013124D01*
X50004337Y-39146754D01*
X49341246Y-38483663D01*
X48474876Y-38124800D01*
X47537124Y-38124800D01*
X46670754Y-38483663D01*
X46007663Y-39146754D01*
X45648800Y-40013124D01*
X23875200Y-40013124D01*
X23875200Y-29657999D01*
X24309843Y-29657999D01*
X24309843Y-30308001D01*
X24364357Y-30582062D01*
X24519600Y-30814400D01*
X24751938Y-30969643D01*
X24944772Y-31008000D01*
X24751938Y-31046357D01*
X24519600Y-31201600D01*
X24364357Y-31433938D01*
X24309843Y-31707999D01*
X24309843Y-32358001D01*
X24364357Y-32632062D01*
X24519600Y-32864400D01*
X24751938Y-33019643D01*
X25025999Y-33074157D01*
X25926001Y-33074157D01*
X26200062Y-33019643D01*
X26432400Y-32864400D01*
X26587643Y-32632062D01*
X26642157Y-32358001D01*
X26642157Y-32335285D01*
X26738746Y-32270746D01*
X26778424Y-32211364D01*
X26942993Y-32046795D01*
X26889065Y-32127504D01*
X26833868Y-32405000D01*
X26847801Y-32475046D01*
X26847801Y-32705464D01*
X26828327Y-32734609D01*
X26792843Y-32913000D01*
X26792843Y-34463000D01*
X26828327Y-34641391D01*
X26929377Y-34792623D01*
X27080609Y-34893673D01*
X27259000Y-34929157D01*
X27859000Y-34929157D01*
X28037391Y-34893673D01*
X28145699Y-34821304D01*
X28159064Y-34888495D01*
X28159065Y-34888496D01*
X28276576Y-35064364D01*
X28276578Y-35064366D01*
X28316254Y-35123745D01*
X28375633Y-35163422D01*
X28923578Y-35711367D01*
X28963254Y-35770746D01*
X29022633Y-35810422D01*
X29022635Y-35810424D01*
X29198502Y-35927935D01*
X29198503Y-35927935D01*
X29198504Y-35927936D01*
X29405954Y-35969200D01*
X29405957Y-35969200D01*
X29475999Y-35983132D01*
X29546041Y-35969200D01*
X35925447Y-35969200D01*
X35995488Y-35983132D01*
X36065529Y-35969200D01*
X36065534Y-35969200D01*
X36272984Y-35927936D01*
X36508234Y-35770746D01*
X36547912Y-35711364D01*
X38429367Y-33829910D01*
X38488746Y-33790234D01*
X38528422Y-33730855D01*
X38528424Y-33730853D01*
X38612516Y-33605000D01*
X38645936Y-33554984D01*
X38658800Y-33490311D01*
X38658800Y-33584958D01*
X38644868Y-33655000D01*
X38658800Y-33725041D01*
X38658800Y-33725045D01*
X38700064Y-33932495D01*
X38722114Y-33965495D01*
X38817576Y-34108364D01*
X38817578Y-34108366D01*
X38857254Y-34167745D01*
X38916634Y-34207422D01*
X41112578Y-36403367D01*
X41152254Y-36462746D01*
X41211633Y-36502422D01*
X41211635Y-36502424D01*
X41387502Y-36619935D01*
X41387503Y-36619935D01*
X41387504Y-36619936D01*
X41594954Y-36661200D01*
X41594957Y-36661200D01*
X41664999Y-36675132D01*
X41735041Y-36661200D01*
X55478285Y-36661200D01*
X55558600Y-36781400D01*
X55790938Y-36936643D01*
X56064999Y-36991157D01*
X56965001Y-36991157D01*
X57239062Y-36936643D01*
X57471400Y-36781400D01*
X57551715Y-36661200D01*
X58347987Y-36661200D01*
X58324327Y-36696609D01*
X58288843Y-36875000D01*
X58288843Y-38375000D01*
X58324327Y-38553391D01*
X58425377Y-38704623D01*
X58576609Y-38805673D01*
X58755000Y-38841157D01*
X59355000Y-38841157D01*
X59533391Y-38805673D01*
X59684623Y-38704623D01*
X59690000Y-38696576D01*
X59695377Y-38704623D01*
X59846609Y-38805673D01*
X60025000Y-38841157D01*
X60625000Y-38841157D01*
X60803391Y-38805673D01*
X60954623Y-38704623D01*
X61055673Y-38553391D01*
X61091157Y-38375000D01*
X61091157Y-36875000D01*
X61055673Y-36696609D01*
X61032013Y-36661200D01*
X61690412Y-36661200D01*
X62098843Y-37069632D01*
X62098843Y-38375000D01*
X62134327Y-38553391D01*
X62153801Y-38582535D01*
X62153801Y-38685411D01*
X61365369Y-39473843D01*
X60879999Y-39473843D01*
X60605938Y-39528357D01*
X60373600Y-39683600D01*
X60218357Y-39915938D01*
X60163843Y-40189999D01*
X60163843Y-41090001D01*
X60218357Y-41364062D01*
X60373600Y-41596400D01*
X60605938Y-41751643D01*
X60879999Y-41806157D01*
X61365369Y-41806157D01*
X62735388Y-43176177D01*
X62775064Y-43235556D01*
X62834443Y-43275232D01*
X62834445Y-43275234D01*
X63010312Y-43392745D01*
X63010313Y-43392745D01*
X63010314Y-43392746D01*
X63217764Y-43434010D01*
X63217767Y-43434010D01*
X63287809Y-43447942D01*
X63357851Y-43434010D01*
X71386637Y-43434010D01*
X71456678Y-43447942D01*
X71526719Y-43434010D01*
X71526724Y-43434010D01*
X71734174Y-43392746D01*
X71969424Y-43235556D01*
X72009102Y-43176174D01*
X76018369Y-39166908D01*
X76077745Y-39127234D01*
X76117420Y-39067857D01*
X76117424Y-39067853D01*
X76212232Y-38925962D01*
X76234936Y-38891984D01*
X76276200Y-38684534D01*
X76276200Y-38684530D01*
X76290132Y-38614488D01*
X76276200Y-38544446D01*
X76276200Y-21030552D01*
X76587005Y-21030552D01*
X76765396Y-20995068D01*
X76911990Y-20897117D01*
X76911991Y-35682310D01*
X76911988Y-35682325D01*
X76911988Y-35682329D01*
X76898056Y-35752370D01*
X76911089Y-35817889D01*
X76589600Y-36139378D01*
X76403988Y-36587486D01*
X76403988Y-37072514D01*
X76589600Y-37520622D01*
X76932566Y-37863588D01*
X77380674Y-38049200D01*
X77865702Y-38049200D01*
X78313810Y-37863588D01*
X78656776Y-37520622D01*
X78842388Y-37072514D01*
X78842388Y-36587486D01*
X78656776Y-36139378D01*
X78335289Y-35817891D01*
X78348322Y-35752368D01*
X78334390Y-35682324D01*
X78334390Y-16925601D01*
X78348322Y-16855559D01*
X78334390Y-16785515D01*
X78334390Y-16785514D01*
X78293126Y-16578064D01*
X78290572Y-16574241D01*
X78175614Y-16402195D01*
X78175610Y-16402191D01*
X78135935Y-16342814D01*
X78076559Y-16303140D01*
X77195054Y-15421636D01*
X77155376Y-15362254D01*
X76920126Y-15205064D01*
X76712676Y-15163800D01*
X76712671Y-15163800D01*
X76642630Y-15149868D01*
X76577111Y-15162901D01*
X76255622Y-14841412D01*
X75807514Y-14655800D01*
X75322486Y-14655800D01*
X74874378Y-14841412D01*
X74531412Y-15184378D01*
X74345800Y-15632486D01*
X74345800Y-16117514D01*
X74531412Y-16565622D01*
X74874378Y-16908588D01*
X75322486Y-17094200D01*
X75807514Y-17094200D01*
X76255622Y-16908588D01*
X76463026Y-16701184D01*
X76911990Y-17150149D01*
X76911990Y-17231673D01*
X76765396Y-17133722D01*
X76587005Y-17098238D01*
X74687005Y-17098238D01*
X74508614Y-17133722D01*
X74357382Y-17234772D01*
X74256332Y-17386004D01*
X74220848Y-17564395D01*
X74220848Y-20564395D01*
X74236438Y-20642773D01*
X73238412Y-21640800D01*
X72782486Y-21640800D01*
X72334378Y-21826412D01*
X71991412Y-22169378D01*
X71805800Y-22617486D01*
X71805800Y-23102514D01*
X71991412Y-23550622D01*
X72334378Y-23893588D01*
X72782486Y-24079200D01*
X73267514Y-24079200D01*
X73715622Y-23893588D01*
X74058588Y-23550622D01*
X74244200Y-23102514D01*
X74244200Y-22646588D01*
X74853801Y-22036988D01*
X74853800Y-38319899D01*
X71162090Y-42011610D01*
X63582399Y-42011610D01*
X63376946Y-41806157D01*
X63580001Y-41806157D01*
X63854062Y-41751643D01*
X64086400Y-41596400D01*
X64135000Y-41523665D01*
X64183600Y-41596400D01*
X64415938Y-41751643D01*
X64689999Y-41806157D01*
X65340001Y-41806157D01*
X65614062Y-41751643D01*
X65846400Y-41596400D01*
X66001643Y-41364062D01*
X66056157Y-41090001D01*
X66056157Y-40189999D01*
X66001643Y-39915938D01*
X65846400Y-39683600D01*
X65614062Y-39528357D01*
X65340001Y-39473843D01*
X64846200Y-39473843D01*
X64846200Y-38751945D01*
X64926609Y-38805673D01*
X65105000Y-38841157D01*
X65705000Y-38841157D01*
X65883391Y-38805673D01*
X66034623Y-38704623D01*
X66040000Y-38696576D01*
X66045377Y-38704623D01*
X66196609Y-38805673D01*
X66375000Y-38841157D01*
X66975000Y-38841157D01*
X67153391Y-38805673D01*
X67304623Y-38704623D01*
X67397114Y-38566200D01*
X68178285Y-38566200D01*
X68258600Y-38686400D01*
X68490938Y-38841643D01*
X68764999Y-38896157D01*
X69665001Y-38896157D01*
X69939062Y-38841643D01*
X70171400Y-38686400D01*
X70251715Y-38566200D01*
X71879159Y-38566200D01*
X71949200Y-38580132D01*
X72019241Y-38566200D01*
X72019246Y-38566200D01*
X72226696Y-38524936D01*
X72461946Y-38367746D01*
X72501624Y-38308364D01*
X72760788Y-38049200D01*
X73216714Y-38049200D01*
X73664822Y-37863588D01*
X74007788Y-37520622D01*
X74193400Y-37072514D01*
X74193400Y-36587486D01*
X74007788Y-36139378D01*
X73664822Y-35796412D01*
X73216714Y-35610800D01*
X72731686Y-35610800D01*
X72283578Y-35796412D01*
X71940612Y-36139378D01*
X71755000Y-36587486D01*
X71755000Y-37043412D01*
X71654612Y-37143800D01*
X70251715Y-37143800D01*
X70171400Y-37023600D01*
X69939062Y-36868357D01*
X69746228Y-36830000D01*
X69939062Y-36791643D01*
X70171400Y-36636400D01*
X70326643Y-36404062D01*
X70381157Y-36130001D01*
X70381157Y-35479999D01*
X70326643Y-35205938D01*
X70171400Y-34973600D01*
X69939062Y-34818357D01*
X69926200Y-34815799D01*
X69926200Y-34201157D01*
X69935000Y-34201157D01*
X70113391Y-34165673D01*
X70264623Y-34064623D01*
X70365673Y-33913391D01*
X70401157Y-33735000D01*
X70401157Y-32935000D01*
X70365673Y-32756609D01*
X70264623Y-32605377D01*
X70113391Y-32504327D01*
X69935000Y-32468843D01*
X69035000Y-32468843D01*
X68856609Y-32504327D01*
X68705377Y-32605377D01*
X68604327Y-32756609D01*
X68568843Y-32935000D01*
X68568843Y-33291918D01*
X68545065Y-33327504D01*
X68489868Y-33605000D01*
X68503801Y-33675046D01*
X68503800Y-34815799D01*
X68490938Y-34818357D01*
X68258600Y-34973600D01*
X68103357Y-35205938D01*
X68048843Y-35479999D01*
X68048843Y-36130001D01*
X68103357Y-36404062D01*
X68258600Y-36636400D01*
X68490938Y-36791643D01*
X68683772Y-36830000D01*
X68490938Y-36868357D01*
X68258600Y-37023600D01*
X68178285Y-37143800D01*
X67441157Y-37143800D01*
X67441157Y-36875000D01*
X67405673Y-36696609D01*
X67304623Y-36545377D01*
X67153391Y-36444327D01*
X66975000Y-36408843D01*
X66375000Y-36408843D01*
X66367442Y-36410346D01*
X67128369Y-35649420D01*
X67187745Y-35609746D01*
X67227420Y-35550369D01*
X67227424Y-35550365D01*
X67344935Y-35374498D01*
X67344935Y-35374497D01*
X67344936Y-35374496D01*
X67386200Y-35167046D01*
X67386200Y-35167043D01*
X67400132Y-35097001D01*
X67386200Y-35026959D01*
X67386200Y-33182534D01*
X67405673Y-33153391D01*
X67441157Y-32975000D01*
X67441157Y-31475000D01*
X67405673Y-31296609D01*
X67386200Y-31267466D01*
X67386200Y-30326389D01*
X67410062Y-30321643D01*
X67642400Y-30166400D01*
X67797643Y-29934062D01*
X67852157Y-29660001D01*
X67852157Y-28759999D01*
X67797643Y-28485938D01*
X67642400Y-28253600D01*
X67414253Y-28101157D01*
X67760001Y-28101157D01*
X68034062Y-28046643D01*
X68266400Y-27891400D01*
X68421643Y-27659062D01*
X68476157Y-27385001D01*
X68476157Y-26734999D01*
X68421643Y-26460938D01*
X68266400Y-26228600D01*
X68034062Y-26073357D01*
X67841228Y-26035000D01*
X68034062Y-25996643D01*
X68266400Y-25841400D01*
X68421643Y-25609062D01*
X68476157Y-25335001D01*
X68476157Y-24684999D01*
X68421643Y-24410938D01*
X68266400Y-24178600D01*
X68034062Y-24023357D01*
X68021200Y-24020799D01*
X68021200Y-23873010D01*
X68343588Y-23550622D01*
X68529200Y-23102514D01*
X68529200Y-22617486D01*
X68343588Y-22169378D01*
X68000622Y-21826412D01*
X67552514Y-21640800D01*
X67067486Y-21640800D01*
X66619378Y-21826412D01*
X66276412Y-22169378D01*
X66090800Y-22617486D01*
X66090800Y-23102514D01*
X66276412Y-23550622D01*
X66598801Y-23873011D01*
X66598800Y-24020799D01*
X66585938Y-24023357D01*
X66353600Y-24178600D01*
X66198357Y-24410938D01*
X66143843Y-24684999D01*
X66143843Y-25335001D01*
X66198357Y-25609062D01*
X66353600Y-25841400D01*
X66585938Y-25996643D01*
X66778772Y-26035000D01*
X66585938Y-26073357D01*
X66357500Y-26225994D01*
X66129062Y-26073357D01*
X65855001Y-26018843D01*
X64954999Y-26018843D01*
X64680938Y-26073357D01*
X64448600Y-26228600D01*
X64293357Y-26460938D01*
X64238843Y-26734999D01*
X64238843Y-27205340D01*
X64208579Y-27250633D01*
X64208576Y-27250636D01*
X64091065Y-27426504D01*
X64035868Y-27704000D01*
X64049801Y-27774046D01*
X64049801Y-28173285D01*
X63929600Y-28253600D01*
X63774357Y-28485938D01*
X63719843Y-28759999D01*
X63719843Y-29660001D01*
X63774357Y-29934062D01*
X63929600Y-30166400D01*
X64018446Y-30225765D01*
X63681634Y-30562578D01*
X63622255Y-30602254D01*
X63582579Y-30661633D01*
X63582576Y-30661636D01*
X63465065Y-30837504D01*
X63409868Y-31115000D01*
X63423801Y-31185046D01*
X63423801Y-31267464D01*
X63404327Y-31296609D01*
X63368843Y-31475000D01*
X63368843Y-32975000D01*
X63404327Y-33153391D01*
X63505377Y-33304623D01*
X63656609Y-33405673D01*
X63835000Y-33441157D01*
X64435000Y-33441157D01*
X64442558Y-33439654D01*
X64303412Y-33578800D01*
X62696589Y-33578800D01*
X62306200Y-33188412D01*
X62306200Y-33182534D01*
X62325673Y-33153391D01*
X62361157Y-32975000D01*
X62361157Y-31475000D01*
X62325673Y-31296609D01*
X62306200Y-31267466D01*
X62306200Y-31037041D01*
X62320132Y-30966999D01*
X62306200Y-30896957D01*
X62306200Y-30896954D01*
X62264936Y-30689504D01*
X62246315Y-30661636D01*
X62147424Y-30513635D01*
X62147422Y-30513633D01*
X62107746Y-30454254D01*
X62048366Y-30414578D01*
X61722010Y-30088222D01*
X61722010Y-28953008D01*
X62044398Y-28630620D01*
X62230010Y-28182512D01*
X62230010Y-27697484D01*
X62044398Y-27249376D01*
X61886549Y-27091527D01*
X62036400Y-26991400D01*
X62191643Y-26759062D01*
X62246157Y-26485001D01*
X62246157Y-25584999D01*
X62191643Y-25310938D01*
X62063204Y-25118715D01*
X62186399Y-25036399D01*
X62341643Y-24804061D01*
X62396157Y-24530000D01*
X62396157Y-23730000D01*
X62341643Y-23455939D01*
X62306200Y-23402895D01*
X62306200Y-21884588D01*
X63160237Y-21030552D01*
X63887005Y-21030552D01*
X64065396Y-20995068D01*
X64216628Y-20894018D01*
X64317678Y-20742786D01*
X64353162Y-20564395D01*
X64353162Y-17564395D01*
X66600848Y-17564395D01*
X66600848Y-20564395D01*
X66636332Y-20742786D01*
X66737382Y-20894018D01*
X66888614Y-20995068D01*
X67067005Y-21030552D01*
X68967005Y-21030552D01*
X69145396Y-20995068D01*
X69287005Y-20900448D01*
X69428614Y-20995068D01*
X69607005Y-21030552D01*
X69773801Y-21030552D01*
X69773800Y-26209959D01*
X69759868Y-26280000D01*
X69773800Y-26350041D01*
X69773800Y-26350045D01*
X69815064Y-26557495D01*
X69836783Y-26589999D01*
X69932576Y-26733364D01*
X69932578Y-26733366D01*
X69953843Y-26765191D01*
X69953843Y-27240001D01*
X70008357Y-27514062D01*
X70163600Y-27746400D01*
X70395938Y-27901643D01*
X70588772Y-27940000D01*
X70395938Y-27978357D01*
X70163600Y-28133600D01*
X70008357Y-28365938D01*
X69953843Y-28639999D01*
X69953843Y-29290001D01*
X70008357Y-29564062D01*
X70163600Y-29796400D01*
X70395938Y-29951643D01*
X70669999Y-30006157D01*
X70773801Y-30006157D01*
X70773800Y-31609658D01*
X70705377Y-31655377D01*
X70604327Y-31806609D01*
X70568843Y-31985000D01*
X70568843Y-32785000D01*
X70604327Y-32963391D01*
X70705377Y-33114623D01*
X70856609Y-33215673D01*
X71035000Y-33251157D01*
X71935000Y-33251157D01*
X72113391Y-33215673D01*
X72264623Y-33114623D01*
X72365673Y-32963391D01*
X72401157Y-32785000D01*
X72401157Y-31985000D01*
X72365673Y-31806609D01*
X72264623Y-31655377D01*
X72196200Y-31609658D01*
X72196200Y-29617106D01*
X72231643Y-29564062D01*
X72286157Y-29290001D01*
X72286157Y-28639999D01*
X72231643Y-28365938D01*
X72076400Y-28133600D01*
X71844062Y-27978357D01*
X71651228Y-27940000D01*
X71844062Y-27901643D01*
X72076400Y-27746400D01*
X72231643Y-27514062D01*
X72286157Y-27240001D01*
X72286157Y-26589999D01*
X72231643Y-26315938D01*
X72076400Y-26083600D01*
X71844062Y-25928357D01*
X71570001Y-25873843D01*
X71196200Y-25873843D01*
X71196200Y-21030552D01*
X71507005Y-21030552D01*
X71685396Y-20995068D01*
X71836628Y-20894018D01*
X71937678Y-20742786D01*
X71973162Y-20564395D01*
X71973162Y-17564395D01*
X71937678Y-17386004D01*
X71836628Y-17234772D01*
X71685396Y-17133722D01*
X71507005Y-17098238D01*
X69607005Y-17098238D01*
X69428614Y-17133722D01*
X69287005Y-17228342D01*
X69145396Y-17133722D01*
X68967005Y-17098238D01*
X68952160Y-17098238D01*
X69464199Y-16586200D01*
X69471990Y-16586200D01*
X69794378Y-16908588D01*
X70242486Y-17094200D01*
X70727514Y-17094200D01*
X71175622Y-16908588D01*
X71518588Y-16565622D01*
X71704200Y-16117514D01*
X71704200Y-15632486D01*
X71518588Y-15184378D01*
X71175622Y-14841412D01*
X70727514Y-14655800D01*
X70242486Y-14655800D01*
X69794378Y-14841412D01*
X69471990Y-15163800D01*
X69239652Y-15163800D01*
X69169610Y-15149868D01*
X69099568Y-15163800D01*
X69099564Y-15163800D01*
X68892114Y-15205064D01*
X68892112Y-15205065D01*
X68892113Y-15205065D01*
X68716245Y-15322576D01*
X68716243Y-15322578D01*
X68656864Y-15362254D01*
X68617188Y-15421633D01*
X67563639Y-16475183D01*
X67504259Y-16514860D01*
X67464583Y-16574239D01*
X67464581Y-16574241D01*
X67387272Y-16689942D01*
X67347069Y-16750110D01*
X67305805Y-16957560D01*
X67305805Y-16957564D01*
X67291873Y-17027605D01*
X67305805Y-17097647D01*
X67305805Y-17098238D01*
X67067005Y-17098238D01*
X66888614Y-17133722D01*
X66737382Y-17234772D01*
X66636332Y-17386004D01*
X66600848Y-17564395D01*
X64353162Y-17564395D01*
X64317678Y-17386004D01*
X64216628Y-17234772D01*
X64065396Y-17133722D01*
X63887005Y-17098238D01*
X61987005Y-17098238D01*
X61808614Y-17133722D01*
X61657382Y-17234772D01*
X61556332Y-17386004D01*
X61520848Y-17564395D01*
X61520848Y-20564395D01*
X61536438Y-20642773D01*
X61141634Y-21037578D01*
X61082255Y-21077254D01*
X61042579Y-21136633D01*
X61042576Y-21136636D01*
X60925065Y-21312504D01*
X60869868Y-21590000D01*
X60883801Y-21660046D01*
X60883800Y-23013843D01*
X60855000Y-23013843D01*
X60580939Y-23068357D01*
X60348601Y-23223601D01*
X60193357Y-23455939D01*
X60167313Y-23586871D01*
X60138400Y-23543600D01*
X59906062Y-23388357D01*
X59632001Y-23333843D01*
X59146631Y-23333843D01*
X58854424Y-23041636D01*
X58814746Y-22982254D01*
X58579496Y-22825064D01*
X58406158Y-22790585D01*
X58406158Y-22069999D01*
X58351644Y-21795938D01*
X58196401Y-21563600D01*
X57964063Y-21408357D01*
X57690002Y-21353843D01*
X56665000Y-21353843D01*
X56390939Y-21408357D01*
X56158601Y-21563600D01*
X56003358Y-21795938D01*
X55948844Y-22069999D01*
X55948844Y-24920001D01*
X56003358Y-25194062D01*
X56158601Y-25426400D01*
X56390939Y-25581643D01*
X56665000Y-25636157D01*
X57690002Y-25636157D01*
X57964063Y-25581643D01*
X58196401Y-25426400D01*
X58307040Y-25260816D01*
X58457938Y-25361643D01*
X58650772Y-25400000D01*
X58457938Y-25438357D01*
X58225600Y-25593600D01*
X58070357Y-25825938D01*
X58015843Y-26099999D01*
X58015843Y-26750001D01*
X58070357Y-27024062D01*
X58225600Y-27256400D01*
X58457938Y-27411643D01*
X58470801Y-27414202D01*
X58470800Y-31115026D01*
X58425377Y-31145377D01*
X58324327Y-31296609D01*
X58288843Y-31475000D01*
X58288843Y-32975000D01*
X58324327Y-33153391D01*
X58425377Y-33304623D01*
X58576609Y-33405673D01*
X58755000Y-33441157D01*
X59355000Y-33441157D01*
X59533391Y-33405673D01*
X59684623Y-33304623D01*
X59690000Y-33296576D01*
X59695377Y-33304623D01*
X59846609Y-33405673D01*
X60025000Y-33441157D01*
X60625000Y-33441157D01*
X60803391Y-33405673D01*
X60883801Y-33351945D01*
X60883801Y-33412954D01*
X60869868Y-33483000D01*
X60925065Y-33760496D01*
X61042576Y-33936364D01*
X61042579Y-33936367D01*
X61082255Y-33995746D01*
X61141634Y-34035422D01*
X61849578Y-34743367D01*
X61889254Y-34802746D01*
X61948633Y-34842422D01*
X61948635Y-34842424D01*
X62124502Y-34959935D01*
X62124503Y-34959935D01*
X62124504Y-34959936D01*
X62331954Y-35001200D01*
X62331957Y-35001200D01*
X62401999Y-35015132D01*
X62472041Y-35001200D01*
X64527959Y-35001200D01*
X64598000Y-35015132D01*
X64668041Y-35001200D01*
X64668046Y-35001200D01*
X64875496Y-34959936D01*
X65110746Y-34802746D01*
X65150424Y-34743364D01*
X65858369Y-34035420D01*
X65917745Y-33995746D01*
X65957420Y-33936369D01*
X65957424Y-33936365D01*
X65963801Y-33926822D01*
X65963800Y-34802411D01*
X64951634Y-35814578D01*
X64892255Y-35854254D01*
X64852579Y-35913633D01*
X64852576Y-35913636D01*
X64735065Y-36089504D01*
X64679868Y-36367000D01*
X64693801Y-36437046D01*
X64693801Y-36498055D01*
X64613391Y-36444327D01*
X64435000Y-36408843D01*
X63835000Y-36408843D01*
X63656609Y-36444327D01*
X63522520Y-36533922D01*
X63474961Y-36462746D01*
X63417424Y-36376635D01*
X63417420Y-36376631D01*
X63377745Y-36317254D01*
X63318369Y-36277580D01*
X62537423Y-35496635D01*
X62497746Y-35437254D01*
X62262496Y-35280064D01*
X62055046Y-35238800D01*
X62055041Y-35238800D01*
X61985000Y-35224868D01*
X61914959Y-35238800D01*
X57551715Y-35238800D01*
X57471400Y-35118600D01*
X57239062Y-34963357D01*
X56965001Y-34908843D01*
X56064999Y-34908843D01*
X55790938Y-34963357D01*
X55558600Y-35118600D01*
X55478285Y-35238800D01*
X41959589Y-35238800D01*
X40081200Y-33360412D01*
X40081200Y-30858010D01*
X40403588Y-30535622D01*
X40589200Y-30087514D01*
X40589200Y-29602486D01*
X40403588Y-29154378D01*
X40060622Y-28811412D01*
X39612514Y-28625800D01*
X39127486Y-28625800D01*
X38687200Y-28808172D01*
X38687200Y-27681041D01*
X38701132Y-27610999D01*
X38687200Y-27540955D01*
X38687200Y-27540954D01*
X38645936Y-27333504D01*
X38645935Y-27333502D01*
X38528424Y-27157635D01*
X38528420Y-27157631D01*
X38507907Y-27126932D01*
X38576643Y-27024062D01*
X38631157Y-26750001D01*
X38631157Y-26099999D01*
X38576643Y-25825938D01*
X38421400Y-25593600D01*
X38189062Y-25438357D01*
X37996228Y-25400000D01*
X38189062Y-25361643D01*
X38421400Y-25206400D01*
X38501715Y-25086200D01*
X41147459Y-25086200D01*
X41217500Y-25100132D01*
X41287541Y-25086200D01*
X41287546Y-25086200D01*
X41494996Y-25044936D01*
X41730246Y-24887746D01*
X41769924Y-24828364D01*
X42322131Y-24276157D01*
X43970001Y-24276157D01*
X44244062Y-24221643D01*
X44476400Y-24066400D01*
X44631643Y-23834062D01*
X44686157Y-23560001D01*
X44686157Y-22534999D01*
X44631643Y-22260938D01*
X44476400Y-22028600D01*
X44244062Y-21873357D01*
X43970001Y-21818843D01*
X41119999Y-21818843D01*
X40845938Y-21873357D01*
X40613600Y-22028600D01*
X40458357Y-22260938D01*
X40403843Y-22534999D01*
X40403843Y-23560001D01*
X40424490Y-23663800D01*
X38501715Y-23663800D01*
X38421400Y-23543600D01*
X38189062Y-23388357D01*
X37915001Y-23333843D01*
X37014999Y-23333843D01*
X36740938Y-23388357D01*
X36508600Y-23543600D01*
X36495851Y-23562680D01*
X36466399Y-23518601D01*
X36234061Y-23363357D01*
X35960000Y-23308843D01*
X35708205Y-23308843D01*
X35708205Y-21030552D01*
X35947005Y-21030552D01*
X36125396Y-20995068D01*
X36276628Y-20894018D01*
X36377678Y-20742786D01*
X36413162Y-20564395D01*
X36413162Y-17564395D01*
X41200848Y-17564395D01*
X41200848Y-20564395D01*
X41236332Y-20742786D01*
X41337382Y-20894018D01*
X41488614Y-20995068D01*
X41667005Y-21030552D01*
X43567005Y-21030552D01*
X43745396Y-20995068D01*
X43887005Y-20900448D01*
X44028614Y-20995068D01*
X44207005Y-21030552D01*
X46107005Y-21030552D01*
X46285396Y-20995068D01*
X46436628Y-20894018D01*
X46537678Y-20742786D01*
X46573162Y-20564395D01*
X46573162Y-17564395D01*
X48820848Y-17564395D01*
X48820848Y-20564395D01*
X48856332Y-20742786D01*
X48957382Y-20894018D01*
X49108614Y-20995068D01*
X49287005Y-21030552D01*
X51187005Y-21030552D01*
X51365396Y-20995068D01*
X51516628Y-20894018D01*
X51617678Y-20742786D01*
X51653162Y-20564395D01*
X51653162Y-19771400D01*
X53884868Y-19771400D01*
X53898801Y-19841446D01*
X53898800Y-26650769D01*
X53884868Y-26720810D01*
X53898800Y-26790851D01*
X53898800Y-26790855D01*
X53940064Y-26998305D01*
X53959574Y-27027503D01*
X54057576Y-27174174D01*
X54057578Y-27174176D01*
X54097254Y-27233555D01*
X54156634Y-27273232D01*
X54609990Y-27726588D01*
X54609990Y-28182514D01*
X54795602Y-28630622D01*
X55138568Y-28973588D01*
X55586676Y-29159200D01*
X56071704Y-29159200D01*
X56519812Y-28973588D01*
X56862778Y-28630622D01*
X57048390Y-28182514D01*
X57048390Y-27697486D01*
X56862778Y-27249378D01*
X56519812Y-26906412D01*
X56071704Y-26720800D01*
X55615778Y-26720800D01*
X55321200Y-26426222D01*
X55321200Y-21030552D01*
X56267005Y-21030552D01*
X56445396Y-20995068D01*
X56596628Y-20894018D01*
X56697678Y-20742786D01*
X56733162Y-20564395D01*
X56733162Y-17564395D01*
X56697678Y-17386004D01*
X56596628Y-17234772D01*
X56445396Y-17133722D01*
X56267005Y-17098238D01*
X54367005Y-17098238D01*
X54188614Y-17133722D01*
X54037382Y-17234772D01*
X53936332Y-17386004D01*
X53900848Y-17564395D01*
X53900848Y-19691063D01*
X53884868Y-19771400D01*
X51653162Y-19771400D01*
X51653162Y-17564395D01*
X51617678Y-17386004D01*
X51516628Y-17234772D01*
X51365396Y-17133722D01*
X51187005Y-17098238D01*
X49287005Y-17098238D01*
X49108614Y-17133722D01*
X48957382Y-17234772D01*
X48856332Y-17386004D01*
X48820848Y-17564395D01*
X46573162Y-17564395D01*
X46537678Y-17386004D01*
X46436628Y-17234772D01*
X46285396Y-17133722D01*
X46107005Y-17098238D01*
X44207005Y-17098238D01*
X44028614Y-17133722D01*
X43887005Y-17228342D01*
X43745396Y-17133722D01*
X43567005Y-17098238D01*
X41667005Y-17098238D01*
X41488614Y-17133722D01*
X41337382Y-17234772D01*
X41236332Y-17386004D01*
X41200848Y-17564395D01*
X36413162Y-17564395D01*
X36377678Y-17386004D01*
X36276628Y-17234772D01*
X36125396Y-17133722D01*
X35947005Y-17098238D01*
X34047005Y-17098238D01*
X33868614Y-17133722D01*
X33717382Y-17234772D01*
X33616332Y-17386004D01*
X33580848Y-17564395D01*
X33580848Y-20564395D01*
X33616332Y-20742786D01*
X33717382Y-20894018D01*
X33868614Y-20995068D01*
X34047005Y-21030552D01*
X34285805Y-21030552D01*
X34285806Y-23804459D01*
X34271873Y-23874505D01*
X34327070Y-24152001D01*
X34443843Y-24326765D01*
X34443843Y-24850000D01*
X34498357Y-25124061D01*
X34653601Y-25356399D01*
X34885939Y-25511643D01*
X35160000Y-25566157D01*
X35960000Y-25566157D01*
X36234061Y-25511643D01*
X36466399Y-25356399D01*
X36548715Y-25233204D01*
X36740938Y-25361643D01*
X36933772Y-25400000D01*
X36740938Y-25438357D01*
X36508600Y-25593600D01*
X36353357Y-25825938D01*
X36298843Y-26099999D01*
X36298843Y-26750001D01*
X36353357Y-27024062D01*
X36508600Y-27256400D01*
X36740938Y-27411643D01*
X36829675Y-27429294D01*
X36912576Y-27553364D01*
X36912579Y-27553367D01*
X36952255Y-27612746D01*
X37011634Y-27652422D01*
X37264800Y-27905589D01*
X37264801Y-32982898D01*
X35700900Y-34546800D01*
X29770589Y-34546800D01*
X29595157Y-34371369D01*
X29595157Y-32913000D01*
X29581595Y-32844820D01*
X30390839Y-32844820D01*
X30460880Y-32858752D01*
X30530921Y-32844820D01*
X30530926Y-32844820D01*
X30738376Y-32803556D01*
X30973626Y-32646366D01*
X31013304Y-32586984D01*
X32817705Y-30782584D01*
X32825600Y-30794400D01*
X33057938Y-30949643D01*
X33331999Y-31004157D01*
X34232001Y-31004157D01*
X34506062Y-30949643D01*
X34738400Y-30794400D01*
X34780295Y-30731700D01*
X34804303Y-30731700D01*
X35035378Y-30962775D01*
X35483486Y-31148387D01*
X35968514Y-31148387D01*
X36416622Y-30962775D01*
X36759588Y-30619809D01*
X36945200Y-30171701D01*
X36945200Y-29686673D01*
X36759588Y-29238565D01*
X36416622Y-28895599D01*
X35968514Y-28709987D01*
X35483486Y-28709987D01*
X35035378Y-28895599D01*
X34762824Y-29168153D01*
X34738400Y-29131600D01*
X34506062Y-28976357D01*
X34232001Y-28921843D01*
X33331999Y-28921843D01*
X33057938Y-28976357D01*
X32825600Y-29131600D01*
X32706865Y-29309300D01*
X32644042Y-29309300D01*
X32574000Y-29295368D01*
X32503958Y-29309300D01*
X32503954Y-29309300D01*
X32296504Y-29350564D01*
X32296502Y-29350565D01*
X32296503Y-29350565D01*
X32120635Y-29468076D01*
X32120633Y-29468078D01*
X32061254Y-29507754D01*
X32021578Y-29567133D01*
X30166292Y-31422420D01*
X29253368Y-31422420D01*
X30552367Y-30123422D01*
X30611746Y-30083746D01*
X30651422Y-30024367D01*
X30651424Y-30024365D01*
X30768935Y-29848498D01*
X30768935Y-29848497D01*
X30768936Y-29848496D01*
X30810200Y-29641046D01*
X30810200Y-29641043D01*
X30824132Y-29571001D01*
X30810200Y-29500959D01*
X30810200Y-29439945D01*
X30890609Y-29493673D01*
X31069000Y-29529157D01*
X31669000Y-29529157D01*
X31847391Y-29493673D01*
X31998623Y-29392623D01*
X32099673Y-29241391D01*
X32135157Y-29063000D01*
X32135157Y-27513000D01*
X32099673Y-27334609D01*
X32080200Y-27305466D01*
X32080200Y-26753542D01*
X32094132Y-26683500D01*
X32080200Y-26613458D01*
X32080200Y-26613454D01*
X32038936Y-26406004D01*
X31991404Y-26334868D01*
X31921424Y-26230135D01*
X31921420Y-26230131D01*
X31881745Y-26170754D01*
X31822369Y-26131080D01*
X31542157Y-25850868D01*
X31542157Y-25307999D01*
X31487643Y-25033938D01*
X31332400Y-24801600D01*
X31154700Y-24682865D01*
X31154700Y-24648557D01*
X31300062Y-24619643D01*
X31532400Y-24464400D01*
X31687643Y-24232062D01*
X31742157Y-23958001D01*
X31742157Y-23057999D01*
X31687643Y-22783938D01*
X31532400Y-22551600D01*
X31300062Y-22396357D01*
X31191200Y-22374703D01*
X31191200Y-20897645D01*
X31196628Y-20894018D01*
X31297678Y-20742786D01*
X31333162Y-20564395D01*
X31333162Y-17564395D01*
X31297678Y-17386004D01*
X31196628Y-17234772D01*
X31045396Y-17133722D01*
X30867005Y-17098238D01*
X28967005Y-17098238D01*
X28788614Y-17133722D01*
X28647005Y-17228342D01*
X28505396Y-17133722D01*
X28327005Y-17098238D01*
X26427005Y-17098238D01*
X26248614Y-17133722D01*
X26097382Y-17234772D01*
X25996332Y-17386004D01*
X25960848Y-17564395D01*
X25960848Y-20564395D01*
X25996332Y-20742786D01*
X26097382Y-20894018D01*
X26248614Y-20995068D01*
X26427005Y-21030552D01*
X27228800Y-21030552D01*
X27228801Y-22962691D01*
X27209843Y-23057999D01*
X27209843Y-23958001D01*
X27264357Y-24232062D01*
X27419600Y-24464400D01*
X27651938Y-24619643D01*
X27797301Y-24648557D01*
X27797301Y-24682865D01*
X27619600Y-24801600D01*
X27464357Y-25033938D01*
X27409843Y-25307999D01*
X27409843Y-25818369D01*
X27105634Y-26122578D01*
X27046255Y-26162254D01*
X27006579Y-26221633D01*
X27006576Y-26221636D01*
X26889065Y-26397504D01*
X26833868Y-26675000D01*
X26847801Y-26745046D01*
X26847801Y-27305465D01*
X26828327Y-27334609D01*
X26792843Y-27513000D01*
X26792843Y-29063000D01*
X26828327Y-29241391D01*
X26929377Y-29392623D01*
X27080609Y-29493673D01*
X27259000Y-29529157D01*
X27859000Y-29529157D01*
X27971415Y-29506796D01*
X27681412Y-29796800D01*
X27020589Y-29796800D01*
X26810924Y-29587136D01*
X26771246Y-29527754D01*
X26592492Y-29408313D01*
X26587643Y-29383938D01*
X26432400Y-29151600D01*
X26200062Y-28996357D01*
X25926001Y-28941843D01*
X25025999Y-28941843D01*
X24751938Y-28996357D01*
X24519600Y-29151600D01*
X24364357Y-29383938D01*
X24309843Y-29657999D01*
X23875200Y-29657999D01*
X23875200Y-13969200D01*
X79502801Y-13969200D01*
X79502800Y-43688800D01*
G04 #@! TD*
M02*
