G04 #@! TF.GenerationSoftware,KiCad,Pcbnew,(5.0.0)*
G04 #@! TF.CreationDate,2018-09-03T02:12:29-03:00*
G04 #@! TF.ProjectId,Signal,5369676E616C2E6B696361645F706362,rev?*
G04 #@! TF.SameCoordinates,Original*
G04 #@! TF.FileFunction,Copper,L1,Top,Signal*
G04 #@! TF.FilePolarity,Positive*
%FSLAX46Y46*%
G04 Gerber Fmt 4.6, Leading zero omitted, Abs format (unit mm)*
G04 Created by KiCad (PCBNEW (5.0.0)) date 09/03/18 02:12:29*
%MOMM*%
%LPD*%
G01*
G04 APERTURE LIST*
G04 #@! TA.AperFunction,ComponentPad*
%ADD10R,1.900000X3.000000*%
G04 #@! TD*
G04 #@! TA.AperFunction,ComponentPad*
%ADD11C,3.800000*%
G04 #@! TD*
G04 #@! TA.AperFunction,ViaPad*
%ADD12C,1.524000*%
G04 #@! TD*
G04 #@! TA.AperFunction,Conductor*
%ADD13C,0.508000*%
G04 #@! TD*
G04 APERTURE END LIST*
D10*
G04 #@! TO.P,U2,14*
G04 #@! TO.N,/BatOVInterrupt*
X68017005Y-19064395D03*
G04 #@! TO.P,U2,13*
G04 #@! TO.N,/Vbat*
X62937005Y-19064395D03*
G04 #@! TO.P,U2,12*
G04 #@! TO.N,GNDA*
X60397005Y-19064395D03*
G04 #@! TO.P,U2,11*
X57857005Y-19064395D03*
G04 #@! TO.P,U2,10*
G04 #@! TO.N,/Vbat_SIG_IN*
X55317005Y-19064395D03*
G04 #@! TO.P,U2,9*
G04 #@! TO.N,/Ipanel*
X50237005Y-19064395D03*
G04 #@! TO.P,U2,8*
G04 #@! TO.N,GNDA*
X47697005Y-19064395D03*
G04 #@! TO.P,U2,7*
G04 #@! TO.N,/Ipanel_Ref*
X45157005Y-19064395D03*
G04 #@! TO.P,U2,6*
G04 #@! TO.N,/Ipanel_SIG*
X42617005Y-19064395D03*
G04 #@! TO.P,U2,5*
G04 #@! TO.N,GNDA*
X40077005Y-19064395D03*
G04 #@! TO.P,U2,4*
G04 #@! TO.N,/Vpanel*
X34997005Y-19064395D03*
G04 #@! TO.P,U2,3*
G04 #@! TO.N,GNDA*
X32457005Y-19064395D03*
G04 #@! TO.P,U2,2*
G04 #@! TO.N,/Vpanel_SIG*
X29917005Y-19064395D03*
G04 #@! TO.P,U2,1*
G04 #@! TO.N,/Vpanel_Ref*
X27377005Y-19064395D03*
G04 #@! TO.P,U2,15*
G04 #@! TO.N,/PWM*
X70557005Y-19064395D03*
G04 #@! TO.P,U2,16*
G04 #@! TO.N,GNDA*
X73097005Y-19064395D03*
G04 #@! TO.P,U2,17*
G04 #@! TO.N,+5VA*
X75637005Y-19064395D03*
G04 #@! TD*
D11*
G04 #@! TO.P,MK1,1*
G04 #@! TO.N,N/C*
X48006000Y-40482000D03*
G04 #@! TD*
D12*
G04 #@! TO.N,GNDA*
X35726000Y-32008002D03*
X62865000Y-29845000D03*
X57734190Y-29845000D03*
X40894000Y-32004000D03*
G04 #@! TO.N,+5VA*
X35726000Y-29929187D03*
X67310000Y-22860000D03*
X39370000Y-29845000D03*
X73025000Y-22860000D03*
G04 #@! TO.N,/BatOVInterrupt*
X72974200Y-36830000D03*
X75565000Y-15875000D03*
X70485000Y-15875000D03*
X77623188Y-36830000D03*
G04 #@! TO.N,/Vbat_SIG_IN*
X61010810Y-27939998D03*
X55829190Y-27940000D03*
G04 #@! TD*
D13*
G04 #@! TO.N,GNDA*
X35730002Y-32004000D02*
X35726000Y-32008002D01*
X62865000Y-29845000D02*
X57734190Y-29845000D01*
X40889998Y-32008002D02*
X40894000Y-32004000D01*
X35726000Y-32008002D02*
X40889998Y-32008002D01*
G04 #@! TO.N,+5VA*
X38875613Y-29929187D02*
X39296800Y-29508000D01*
X35726000Y-29929187D02*
X38875613Y-29929187D01*
X35768813Y-29972000D02*
X35726000Y-29929187D01*
X67310000Y-22860000D02*
X73025000Y-22860000D01*
G04 #@! TO.N,/BatOVInterrupt*
X75565000Y-15875000D02*
X70485000Y-15875000D01*
X72974200Y-36830000D02*
X77623188Y-36830000D01*
G04 #@! TO.N,/Vbat_SIG_IN*
X55829192Y-27939998D02*
X55829190Y-27940000D01*
X61010810Y-27939998D02*
X55829192Y-27939998D01*
G04 #@! TD*
G04 #@! TO.N,GNDA*
G36*
X79401200Y-43587200D02*
X23976800Y-43587200D01*
X23976800Y-39992914D01*
X45547200Y-39992914D01*
X45547200Y-40971086D01*
X45921530Y-41874798D01*
X46613202Y-42566470D01*
X47516914Y-42940800D01*
X48495086Y-42940800D01*
X49398798Y-42566470D01*
X50090470Y-41874798D01*
X50464800Y-40971086D01*
X50464800Y-39992914D01*
X50090470Y-39089202D01*
X49398798Y-38397530D01*
X48495086Y-38023200D01*
X47516914Y-38023200D01*
X46613202Y-38397530D01*
X45921530Y-39089202D01*
X45547200Y-39992914D01*
X23976800Y-39992914D01*
X23976800Y-36567277D01*
X71653400Y-36567277D01*
X71653400Y-37092723D01*
X71854480Y-37578173D01*
X72226027Y-37949720D01*
X72711477Y-38150800D01*
X73236923Y-38150800D01*
X73722373Y-37949720D01*
X74029293Y-37642800D01*
X76568095Y-37642800D01*
X76875015Y-37949720D01*
X77360465Y-38150800D01*
X77885911Y-38150800D01*
X78371361Y-37949720D01*
X78742908Y-37578173D01*
X78943988Y-37092723D01*
X78943988Y-36567277D01*
X78742908Y-36081827D01*
X78371361Y-35710280D01*
X77885911Y-35509200D01*
X77360465Y-35509200D01*
X76875015Y-35710280D01*
X76568095Y-36017200D01*
X74029293Y-36017200D01*
X73722373Y-35710280D01*
X73236923Y-35509200D01*
X72711477Y-35509200D01*
X72226027Y-35710280D01*
X71854480Y-36081827D01*
X71653400Y-36567277D01*
X23976800Y-36567277D01*
X23976800Y-29666464D01*
X34405200Y-29666464D01*
X34405200Y-30191910D01*
X34606280Y-30677360D01*
X34977827Y-31048907D01*
X35463277Y-31249987D01*
X35988723Y-31249987D01*
X36474173Y-31048907D01*
X36781093Y-30741987D01*
X38399094Y-30741987D01*
X38621827Y-30964720D01*
X39107277Y-31165800D01*
X39632723Y-31165800D01*
X40118173Y-30964720D01*
X40489720Y-30593173D01*
X40690800Y-30107723D01*
X40690800Y-29582277D01*
X40489720Y-29096827D01*
X40118173Y-28725280D01*
X39632723Y-28524200D01*
X39107277Y-28524200D01*
X38621827Y-28725280D01*
X38250280Y-29096827D01*
X38242178Y-29116387D01*
X36781093Y-29116387D01*
X36474173Y-28809467D01*
X35988723Y-28608387D01*
X35463277Y-28608387D01*
X34977827Y-28809467D01*
X34606280Y-29181014D01*
X34405200Y-29666464D01*
X23976800Y-29666464D01*
X23976800Y-27677277D01*
X54508390Y-27677277D01*
X54508390Y-28202723D01*
X54709470Y-28688173D01*
X55081017Y-29059720D01*
X55566467Y-29260800D01*
X56091913Y-29260800D01*
X56577363Y-29059720D01*
X56884285Y-28752798D01*
X59955717Y-28752798D01*
X60262637Y-29059718D01*
X60748087Y-29260798D01*
X61273533Y-29260798D01*
X61758983Y-29059718D01*
X62130530Y-28688171D01*
X62331610Y-28202721D01*
X62331610Y-27677275D01*
X62130530Y-27191825D01*
X61758983Y-26820278D01*
X61273533Y-26619198D01*
X60748087Y-26619198D01*
X60262637Y-26820278D01*
X59955717Y-27127198D01*
X56884281Y-27127198D01*
X56577363Y-26820280D01*
X56091913Y-26619200D01*
X55566467Y-26619200D01*
X55081017Y-26820280D01*
X54709470Y-27191827D01*
X54508390Y-27677277D01*
X23976800Y-27677277D01*
X23976800Y-22597277D01*
X65989200Y-22597277D01*
X65989200Y-23122723D01*
X66190280Y-23608173D01*
X66561827Y-23979720D01*
X67047277Y-24180800D01*
X67572723Y-24180800D01*
X68058173Y-23979720D01*
X68365093Y-23672800D01*
X71969907Y-23672800D01*
X72276827Y-23979720D01*
X72762277Y-24180800D01*
X73287723Y-24180800D01*
X73773173Y-23979720D01*
X74144720Y-23608173D01*
X74345800Y-23122723D01*
X74345800Y-22597277D01*
X74144720Y-22111827D01*
X73773173Y-21740280D01*
X73287723Y-21539200D01*
X72762277Y-21539200D01*
X72276827Y-21740280D01*
X71969907Y-22047200D01*
X68365093Y-22047200D01*
X68058173Y-21740280D01*
X67572723Y-21539200D01*
X67047277Y-21539200D01*
X66561827Y-21740280D01*
X66190280Y-22111827D01*
X65989200Y-22597277D01*
X23976800Y-22597277D01*
X23976800Y-17564395D01*
X25857258Y-17564395D01*
X25857258Y-20564395D01*
X25900627Y-20782428D01*
X26024133Y-20967267D01*
X26208972Y-21090773D01*
X26427005Y-21134142D01*
X28327005Y-21134142D01*
X28545038Y-21090773D01*
X28647005Y-21022641D01*
X28748972Y-21090773D01*
X28967005Y-21134142D01*
X30867005Y-21134142D01*
X31085038Y-21090773D01*
X31269877Y-20967267D01*
X31393383Y-20782428D01*
X31436752Y-20564395D01*
X31436752Y-17564395D01*
X33477258Y-17564395D01*
X33477258Y-20564395D01*
X33520627Y-20782428D01*
X33644133Y-20967267D01*
X33828972Y-21090773D01*
X34047005Y-21134142D01*
X35947005Y-21134142D01*
X36165038Y-21090773D01*
X36349877Y-20967267D01*
X36473383Y-20782428D01*
X36516752Y-20564395D01*
X36516752Y-17564395D01*
X41097258Y-17564395D01*
X41097258Y-20564395D01*
X41140627Y-20782428D01*
X41264133Y-20967267D01*
X41448972Y-21090773D01*
X41667005Y-21134142D01*
X43567005Y-21134142D01*
X43785038Y-21090773D01*
X43887005Y-21022641D01*
X43988972Y-21090773D01*
X44207005Y-21134142D01*
X46107005Y-21134142D01*
X46325038Y-21090773D01*
X46509877Y-20967267D01*
X46633383Y-20782428D01*
X46676752Y-20564395D01*
X46676752Y-17564395D01*
X48717258Y-17564395D01*
X48717258Y-20564395D01*
X48760627Y-20782428D01*
X48884133Y-20967267D01*
X49068972Y-21090773D01*
X49287005Y-21134142D01*
X51187005Y-21134142D01*
X51405038Y-21090773D01*
X51589877Y-20967267D01*
X51713383Y-20782428D01*
X51756752Y-20564395D01*
X51756752Y-17564395D01*
X53797258Y-17564395D01*
X53797258Y-20564395D01*
X53840627Y-20782428D01*
X53964133Y-20967267D01*
X54148972Y-21090773D01*
X54367005Y-21134142D01*
X56267005Y-21134142D01*
X56485038Y-21090773D01*
X56669877Y-20967267D01*
X56793383Y-20782428D01*
X56836752Y-20564395D01*
X56836752Y-17564395D01*
X61417258Y-17564395D01*
X61417258Y-20564395D01*
X61460627Y-20782428D01*
X61584133Y-20967267D01*
X61768972Y-21090773D01*
X61987005Y-21134142D01*
X63887005Y-21134142D01*
X64105038Y-21090773D01*
X64289877Y-20967267D01*
X64413383Y-20782428D01*
X64456752Y-20564395D01*
X64456752Y-17564395D01*
X66497258Y-17564395D01*
X66497258Y-20564395D01*
X66540627Y-20782428D01*
X66664133Y-20967267D01*
X66848972Y-21090773D01*
X67067005Y-21134142D01*
X68967005Y-21134142D01*
X69185038Y-21090773D01*
X69287005Y-21022641D01*
X69388972Y-21090773D01*
X69607005Y-21134142D01*
X71507005Y-21134142D01*
X71725038Y-21090773D01*
X71909877Y-20967267D01*
X72033383Y-20782428D01*
X72076752Y-20564395D01*
X72076752Y-17564395D01*
X72033383Y-17346362D01*
X71909877Y-17161523D01*
X71725038Y-17038017D01*
X71507005Y-16994648D01*
X71233245Y-16994648D01*
X71540093Y-16687800D01*
X74509907Y-16687800D01*
X74816755Y-16994648D01*
X74687005Y-16994648D01*
X74468972Y-17038017D01*
X74284133Y-17161523D01*
X74160627Y-17346362D01*
X74117258Y-17564395D01*
X74117258Y-20564395D01*
X74160627Y-20782428D01*
X74284133Y-20967267D01*
X74468972Y-21090773D01*
X74687005Y-21134142D01*
X76587005Y-21134142D01*
X76805038Y-21090773D01*
X76989877Y-20967267D01*
X77113383Y-20782428D01*
X77156752Y-20564395D01*
X77156752Y-17564395D01*
X77113383Y-17346362D01*
X76989877Y-17161523D01*
X76805038Y-17038017D01*
X76587005Y-16994648D01*
X76313245Y-16994648D01*
X76684720Y-16623173D01*
X76885800Y-16137723D01*
X76885800Y-15612277D01*
X76684720Y-15126827D01*
X76313173Y-14755280D01*
X75827723Y-14554200D01*
X75302277Y-14554200D01*
X74816827Y-14755280D01*
X74509907Y-15062200D01*
X71540093Y-15062200D01*
X71233173Y-14755280D01*
X70747723Y-14554200D01*
X70222277Y-14554200D01*
X69736827Y-14755280D01*
X69365280Y-15126827D01*
X69164200Y-15612277D01*
X69164200Y-16137723D01*
X69365280Y-16623173D01*
X69736755Y-16994648D01*
X69607005Y-16994648D01*
X69388972Y-17038017D01*
X69287005Y-17106149D01*
X69185038Y-17038017D01*
X68967005Y-16994648D01*
X67067005Y-16994648D01*
X66848972Y-17038017D01*
X66664133Y-17161523D01*
X66540627Y-17346362D01*
X66497258Y-17564395D01*
X64456752Y-17564395D01*
X64413383Y-17346362D01*
X64289877Y-17161523D01*
X64105038Y-17038017D01*
X63887005Y-16994648D01*
X61987005Y-16994648D01*
X61768972Y-17038017D01*
X61584133Y-17161523D01*
X61460627Y-17346362D01*
X61417258Y-17564395D01*
X56836752Y-17564395D01*
X56793383Y-17346362D01*
X56669877Y-17161523D01*
X56485038Y-17038017D01*
X56267005Y-16994648D01*
X54367005Y-16994648D01*
X54148972Y-17038017D01*
X53964133Y-17161523D01*
X53840627Y-17346362D01*
X53797258Y-17564395D01*
X51756752Y-17564395D01*
X51713383Y-17346362D01*
X51589877Y-17161523D01*
X51405038Y-17038017D01*
X51187005Y-16994648D01*
X49287005Y-16994648D01*
X49068972Y-17038017D01*
X48884133Y-17161523D01*
X48760627Y-17346362D01*
X48717258Y-17564395D01*
X46676752Y-17564395D01*
X46633383Y-17346362D01*
X46509877Y-17161523D01*
X46325038Y-17038017D01*
X46107005Y-16994648D01*
X44207005Y-16994648D01*
X43988972Y-17038017D01*
X43887005Y-17106149D01*
X43785038Y-17038017D01*
X43567005Y-16994648D01*
X41667005Y-16994648D01*
X41448972Y-17038017D01*
X41264133Y-17161523D01*
X41140627Y-17346362D01*
X41097258Y-17564395D01*
X36516752Y-17564395D01*
X36473383Y-17346362D01*
X36349877Y-17161523D01*
X36165038Y-17038017D01*
X35947005Y-16994648D01*
X34047005Y-16994648D01*
X33828972Y-17038017D01*
X33644133Y-17161523D01*
X33520627Y-17346362D01*
X33477258Y-17564395D01*
X31436752Y-17564395D01*
X31393383Y-17346362D01*
X31269877Y-17161523D01*
X31085038Y-17038017D01*
X30867005Y-16994648D01*
X28967005Y-16994648D01*
X28748972Y-17038017D01*
X28647005Y-17106149D01*
X28545038Y-17038017D01*
X28327005Y-16994648D01*
X26427005Y-16994648D01*
X26208972Y-17038017D01*
X26024133Y-17161523D01*
X25900627Y-17346362D01*
X25857258Y-17564395D01*
X23976800Y-17564395D01*
X23976800Y-14070800D01*
X79401201Y-14070800D01*
X79401200Y-43587200D01*
X79401200Y-43587200D01*
G37*
X79401200Y-43587200D02*
X23976800Y-43587200D01*
X23976800Y-39992914D01*
X45547200Y-39992914D01*
X45547200Y-40971086D01*
X45921530Y-41874798D01*
X46613202Y-42566470D01*
X47516914Y-42940800D01*
X48495086Y-42940800D01*
X49398798Y-42566470D01*
X50090470Y-41874798D01*
X50464800Y-40971086D01*
X50464800Y-39992914D01*
X50090470Y-39089202D01*
X49398798Y-38397530D01*
X48495086Y-38023200D01*
X47516914Y-38023200D01*
X46613202Y-38397530D01*
X45921530Y-39089202D01*
X45547200Y-39992914D01*
X23976800Y-39992914D01*
X23976800Y-36567277D01*
X71653400Y-36567277D01*
X71653400Y-37092723D01*
X71854480Y-37578173D01*
X72226027Y-37949720D01*
X72711477Y-38150800D01*
X73236923Y-38150800D01*
X73722373Y-37949720D01*
X74029293Y-37642800D01*
X76568095Y-37642800D01*
X76875015Y-37949720D01*
X77360465Y-38150800D01*
X77885911Y-38150800D01*
X78371361Y-37949720D01*
X78742908Y-37578173D01*
X78943988Y-37092723D01*
X78943988Y-36567277D01*
X78742908Y-36081827D01*
X78371361Y-35710280D01*
X77885911Y-35509200D01*
X77360465Y-35509200D01*
X76875015Y-35710280D01*
X76568095Y-36017200D01*
X74029293Y-36017200D01*
X73722373Y-35710280D01*
X73236923Y-35509200D01*
X72711477Y-35509200D01*
X72226027Y-35710280D01*
X71854480Y-36081827D01*
X71653400Y-36567277D01*
X23976800Y-36567277D01*
X23976800Y-29666464D01*
X34405200Y-29666464D01*
X34405200Y-30191910D01*
X34606280Y-30677360D01*
X34977827Y-31048907D01*
X35463277Y-31249987D01*
X35988723Y-31249987D01*
X36474173Y-31048907D01*
X36781093Y-30741987D01*
X38399094Y-30741987D01*
X38621827Y-30964720D01*
X39107277Y-31165800D01*
X39632723Y-31165800D01*
X40118173Y-30964720D01*
X40489720Y-30593173D01*
X40690800Y-30107723D01*
X40690800Y-29582277D01*
X40489720Y-29096827D01*
X40118173Y-28725280D01*
X39632723Y-28524200D01*
X39107277Y-28524200D01*
X38621827Y-28725280D01*
X38250280Y-29096827D01*
X38242178Y-29116387D01*
X36781093Y-29116387D01*
X36474173Y-28809467D01*
X35988723Y-28608387D01*
X35463277Y-28608387D01*
X34977827Y-28809467D01*
X34606280Y-29181014D01*
X34405200Y-29666464D01*
X23976800Y-29666464D01*
X23976800Y-27677277D01*
X54508390Y-27677277D01*
X54508390Y-28202723D01*
X54709470Y-28688173D01*
X55081017Y-29059720D01*
X55566467Y-29260800D01*
X56091913Y-29260800D01*
X56577363Y-29059720D01*
X56884285Y-28752798D01*
X59955717Y-28752798D01*
X60262637Y-29059718D01*
X60748087Y-29260798D01*
X61273533Y-29260798D01*
X61758983Y-29059718D01*
X62130530Y-28688171D01*
X62331610Y-28202721D01*
X62331610Y-27677275D01*
X62130530Y-27191825D01*
X61758983Y-26820278D01*
X61273533Y-26619198D01*
X60748087Y-26619198D01*
X60262637Y-26820278D01*
X59955717Y-27127198D01*
X56884281Y-27127198D01*
X56577363Y-26820280D01*
X56091913Y-26619200D01*
X55566467Y-26619200D01*
X55081017Y-26820280D01*
X54709470Y-27191827D01*
X54508390Y-27677277D01*
X23976800Y-27677277D01*
X23976800Y-22597277D01*
X65989200Y-22597277D01*
X65989200Y-23122723D01*
X66190280Y-23608173D01*
X66561827Y-23979720D01*
X67047277Y-24180800D01*
X67572723Y-24180800D01*
X68058173Y-23979720D01*
X68365093Y-23672800D01*
X71969907Y-23672800D01*
X72276827Y-23979720D01*
X72762277Y-24180800D01*
X73287723Y-24180800D01*
X73773173Y-23979720D01*
X74144720Y-23608173D01*
X74345800Y-23122723D01*
X74345800Y-22597277D01*
X74144720Y-22111827D01*
X73773173Y-21740280D01*
X73287723Y-21539200D01*
X72762277Y-21539200D01*
X72276827Y-21740280D01*
X71969907Y-22047200D01*
X68365093Y-22047200D01*
X68058173Y-21740280D01*
X67572723Y-21539200D01*
X67047277Y-21539200D01*
X66561827Y-21740280D01*
X66190280Y-22111827D01*
X65989200Y-22597277D01*
X23976800Y-22597277D01*
X23976800Y-17564395D01*
X25857258Y-17564395D01*
X25857258Y-20564395D01*
X25900627Y-20782428D01*
X26024133Y-20967267D01*
X26208972Y-21090773D01*
X26427005Y-21134142D01*
X28327005Y-21134142D01*
X28545038Y-21090773D01*
X28647005Y-21022641D01*
X28748972Y-21090773D01*
X28967005Y-21134142D01*
X30867005Y-21134142D01*
X31085038Y-21090773D01*
X31269877Y-20967267D01*
X31393383Y-20782428D01*
X31436752Y-20564395D01*
X31436752Y-17564395D01*
X33477258Y-17564395D01*
X33477258Y-20564395D01*
X33520627Y-20782428D01*
X33644133Y-20967267D01*
X33828972Y-21090773D01*
X34047005Y-21134142D01*
X35947005Y-21134142D01*
X36165038Y-21090773D01*
X36349877Y-20967267D01*
X36473383Y-20782428D01*
X36516752Y-20564395D01*
X36516752Y-17564395D01*
X41097258Y-17564395D01*
X41097258Y-20564395D01*
X41140627Y-20782428D01*
X41264133Y-20967267D01*
X41448972Y-21090773D01*
X41667005Y-21134142D01*
X43567005Y-21134142D01*
X43785038Y-21090773D01*
X43887005Y-21022641D01*
X43988972Y-21090773D01*
X44207005Y-21134142D01*
X46107005Y-21134142D01*
X46325038Y-21090773D01*
X46509877Y-20967267D01*
X46633383Y-20782428D01*
X46676752Y-20564395D01*
X46676752Y-17564395D01*
X48717258Y-17564395D01*
X48717258Y-20564395D01*
X48760627Y-20782428D01*
X48884133Y-20967267D01*
X49068972Y-21090773D01*
X49287005Y-21134142D01*
X51187005Y-21134142D01*
X51405038Y-21090773D01*
X51589877Y-20967267D01*
X51713383Y-20782428D01*
X51756752Y-20564395D01*
X51756752Y-17564395D01*
X53797258Y-17564395D01*
X53797258Y-20564395D01*
X53840627Y-20782428D01*
X53964133Y-20967267D01*
X54148972Y-21090773D01*
X54367005Y-21134142D01*
X56267005Y-21134142D01*
X56485038Y-21090773D01*
X56669877Y-20967267D01*
X56793383Y-20782428D01*
X56836752Y-20564395D01*
X56836752Y-17564395D01*
X61417258Y-17564395D01*
X61417258Y-20564395D01*
X61460627Y-20782428D01*
X61584133Y-20967267D01*
X61768972Y-21090773D01*
X61987005Y-21134142D01*
X63887005Y-21134142D01*
X64105038Y-21090773D01*
X64289877Y-20967267D01*
X64413383Y-20782428D01*
X64456752Y-20564395D01*
X64456752Y-17564395D01*
X66497258Y-17564395D01*
X66497258Y-20564395D01*
X66540627Y-20782428D01*
X66664133Y-20967267D01*
X66848972Y-21090773D01*
X67067005Y-21134142D01*
X68967005Y-21134142D01*
X69185038Y-21090773D01*
X69287005Y-21022641D01*
X69388972Y-21090773D01*
X69607005Y-21134142D01*
X71507005Y-21134142D01*
X71725038Y-21090773D01*
X71909877Y-20967267D01*
X72033383Y-20782428D01*
X72076752Y-20564395D01*
X72076752Y-17564395D01*
X72033383Y-17346362D01*
X71909877Y-17161523D01*
X71725038Y-17038017D01*
X71507005Y-16994648D01*
X71233245Y-16994648D01*
X71540093Y-16687800D01*
X74509907Y-16687800D01*
X74816755Y-16994648D01*
X74687005Y-16994648D01*
X74468972Y-17038017D01*
X74284133Y-17161523D01*
X74160627Y-17346362D01*
X74117258Y-17564395D01*
X74117258Y-20564395D01*
X74160627Y-20782428D01*
X74284133Y-20967267D01*
X74468972Y-21090773D01*
X74687005Y-21134142D01*
X76587005Y-21134142D01*
X76805038Y-21090773D01*
X76989877Y-20967267D01*
X77113383Y-20782428D01*
X77156752Y-20564395D01*
X77156752Y-17564395D01*
X77113383Y-17346362D01*
X76989877Y-17161523D01*
X76805038Y-17038017D01*
X76587005Y-16994648D01*
X76313245Y-16994648D01*
X76684720Y-16623173D01*
X76885800Y-16137723D01*
X76885800Y-15612277D01*
X76684720Y-15126827D01*
X76313173Y-14755280D01*
X75827723Y-14554200D01*
X75302277Y-14554200D01*
X74816827Y-14755280D01*
X74509907Y-15062200D01*
X71540093Y-15062200D01*
X71233173Y-14755280D01*
X70747723Y-14554200D01*
X70222277Y-14554200D01*
X69736827Y-14755280D01*
X69365280Y-15126827D01*
X69164200Y-15612277D01*
X69164200Y-16137723D01*
X69365280Y-16623173D01*
X69736755Y-16994648D01*
X69607005Y-16994648D01*
X69388972Y-17038017D01*
X69287005Y-17106149D01*
X69185038Y-17038017D01*
X68967005Y-16994648D01*
X67067005Y-16994648D01*
X66848972Y-17038017D01*
X66664133Y-17161523D01*
X66540627Y-17346362D01*
X66497258Y-17564395D01*
X64456752Y-17564395D01*
X64413383Y-17346362D01*
X64289877Y-17161523D01*
X64105038Y-17038017D01*
X63887005Y-16994648D01*
X61987005Y-16994648D01*
X61768972Y-17038017D01*
X61584133Y-17161523D01*
X61460627Y-17346362D01*
X61417258Y-17564395D01*
X56836752Y-17564395D01*
X56793383Y-17346362D01*
X56669877Y-17161523D01*
X56485038Y-17038017D01*
X56267005Y-16994648D01*
X54367005Y-16994648D01*
X54148972Y-17038017D01*
X53964133Y-17161523D01*
X53840627Y-17346362D01*
X53797258Y-17564395D01*
X51756752Y-17564395D01*
X51713383Y-17346362D01*
X51589877Y-17161523D01*
X51405038Y-17038017D01*
X51187005Y-16994648D01*
X49287005Y-16994648D01*
X49068972Y-17038017D01*
X48884133Y-17161523D01*
X48760627Y-17346362D01*
X48717258Y-17564395D01*
X46676752Y-17564395D01*
X46633383Y-17346362D01*
X46509877Y-17161523D01*
X46325038Y-17038017D01*
X46107005Y-16994648D01*
X44207005Y-16994648D01*
X43988972Y-17038017D01*
X43887005Y-17106149D01*
X43785038Y-17038017D01*
X43567005Y-16994648D01*
X41667005Y-16994648D01*
X41448972Y-17038017D01*
X41264133Y-17161523D01*
X41140627Y-17346362D01*
X41097258Y-17564395D01*
X36516752Y-17564395D01*
X36473383Y-17346362D01*
X36349877Y-17161523D01*
X36165038Y-17038017D01*
X35947005Y-16994648D01*
X34047005Y-16994648D01*
X33828972Y-17038017D01*
X33644133Y-17161523D01*
X33520627Y-17346362D01*
X33477258Y-17564395D01*
X31436752Y-17564395D01*
X31393383Y-17346362D01*
X31269877Y-17161523D01*
X31085038Y-17038017D01*
X30867005Y-16994648D01*
X28967005Y-16994648D01*
X28748972Y-17038017D01*
X28647005Y-17106149D01*
X28545038Y-17038017D01*
X28327005Y-16994648D01*
X26427005Y-16994648D01*
X26208972Y-17038017D01*
X26024133Y-17161523D01*
X25900627Y-17346362D01*
X25857258Y-17564395D01*
X23976800Y-17564395D01*
X23976800Y-14070800D01*
X79401201Y-14070800D01*
X79401200Y-43587200D01*
G04 #@! TD*
M02*
