M48
;DRILL file {KiCad (5.0.0)} date 09/03/18 02:12:36
;FORMAT={-:-/ absolute / inch / decimal}
FMAT,2
INCH,TZ
T1C0.0236
T2C0.0394
T3C0.0866
%
G90
G05
M72
T1
X1.4065Y-1.1783
X1.4065Y-1.2602
X1.55Y-1.175
X1.61Y-1.26
X2.198Y-1.1
X2.273Y-1.175
X2.402Y-1.1
X2.475Y-1.175
X2.65Y-0.9
X2.775Y-0.625
X2.873Y-1.45
X2.875Y-0.9
X2.975Y-0.625
X3.056Y-1.45
T2
X1.0778Y-0.7506
X1.1778Y-0.7506
X1.2778Y-0.7506
X1.3778Y-0.7506
X1.5778Y-0.7506
X1.6778Y-0.7506
X1.7778Y-0.7506
X1.8778Y-0.7506
X1.9778Y-0.7506
X2.1778Y-0.7506
X2.2778Y-0.7506
X2.3778Y-0.7506
X2.4778Y-0.7506
X2.6778Y-0.7506
X2.7778Y-0.7506
X2.8778Y-0.7506
X2.9778Y-0.7506
T3
X1.89Y-1.5938
T0
M30
