G04 #@! TF.GenerationSoftware,KiCad,Pcbnew,(5.0.0-rc2-dev-586-g888c43477)*
G04 #@! TF.CreationDate,2018-06-04T00:08:36-03:00*
G04 #@! TF.ProjectId,Mcc18,4D636331382E6B696361645F70636200,rev?*
G04 #@! TF.SameCoordinates,Original*
G04 #@! TF.FileFunction,Drawing*
%FSLAX46Y46*%
G04 Gerber Fmt 4.6, Leading zero omitted, Abs format (unit mm)*
G04 Created by KiCad (PCBNEW (5.0.0-rc2-dev-586-g888c43477)) date 06/04/18 00:08:36*
%MOMM*%
%LPD*%
G01*
G04 APERTURE LIST*
%ADD10C,0.300000*%
%ADD11C,0.152400*%
G04 APERTURE END LIST*
D10*
X143677428Y-160536571D02*
X144677428Y-160536571D01*
X144034571Y-162036571D01*
X145320285Y-161965142D02*
X145320285Y-162036571D01*
X145248857Y-162179428D01*
X145177428Y-162250857D01*
X146177428Y-161179428D02*
X146034571Y-161108000D01*
X145963142Y-161036571D01*
X145891714Y-160893714D01*
X145891714Y-160822285D01*
X145963142Y-160679428D01*
X146034571Y-160608000D01*
X146177428Y-160536571D01*
X146463142Y-160536571D01*
X146606000Y-160608000D01*
X146677428Y-160679428D01*
X146748857Y-160822285D01*
X146748857Y-160893714D01*
X146677428Y-161036571D01*
X146606000Y-161108000D01*
X146463142Y-161179428D01*
X146177428Y-161179428D01*
X146034571Y-161250857D01*
X145963142Y-161322285D01*
X145891714Y-161465142D01*
X145891714Y-161750857D01*
X145963142Y-161893714D01*
X146034571Y-161965142D01*
X146177428Y-162036571D01*
X146463142Y-162036571D01*
X146606000Y-161965142D01*
X146677428Y-161893714D01*
X146748857Y-161750857D01*
X146748857Y-161465142D01*
X146677428Y-161322285D01*
X146606000Y-161250857D01*
X146463142Y-161179428D01*
X148034571Y-161036571D02*
X148034571Y-162036571D01*
X147677428Y-160465142D02*
X147320285Y-161536571D01*
X148248857Y-161536571D01*
X149106000Y-160536571D02*
X149248857Y-160536571D01*
X149391714Y-160608000D01*
X149463142Y-160679428D01*
X149534571Y-160822285D01*
X149606000Y-161108000D01*
X149606000Y-161465142D01*
X149534571Y-161750857D01*
X149463142Y-161893714D01*
X149391714Y-161965142D01*
X149248857Y-162036571D01*
X149106000Y-162036571D01*
X148963142Y-161965142D01*
X148891714Y-161893714D01*
X148820285Y-161750857D01*
X148748857Y-161465142D01*
X148748857Y-161108000D01*
X148820285Y-160822285D01*
X148891714Y-160679428D01*
X148963142Y-160608000D01*
X149106000Y-160536571D01*
X150534571Y-160536571D02*
X150677428Y-160536571D01*
X150820285Y-160608000D01*
X150891714Y-160679428D01*
X150963142Y-160822285D01*
X151034571Y-161108000D01*
X151034571Y-161465142D01*
X150963142Y-161750857D01*
X150891714Y-161893714D01*
X150820285Y-161965142D01*
X150677428Y-162036571D01*
X150534571Y-162036571D01*
X150391714Y-161965142D01*
X150320285Y-161893714D01*
X150248857Y-161750857D01*
X150177428Y-161465142D01*
X150177428Y-161108000D01*
X150248857Y-160822285D01*
X150320285Y-160679428D01*
X150391714Y-160608000D01*
X150534571Y-160536571D01*
X153391714Y-161965142D02*
X153248857Y-162036571D01*
X152963142Y-162036571D01*
X152820285Y-161965142D01*
X152748857Y-161822285D01*
X152748857Y-161250857D01*
X152820285Y-161108000D01*
X152963142Y-161036571D01*
X153248857Y-161036571D01*
X153391714Y-161108000D01*
X153463142Y-161250857D01*
X153463142Y-161393714D01*
X152748857Y-161536571D01*
X154106000Y-162036571D02*
X154106000Y-161036571D01*
X154106000Y-161179428D02*
X154177428Y-161108000D01*
X154320285Y-161036571D01*
X154534571Y-161036571D01*
X154677428Y-161108000D01*
X154748857Y-161250857D01*
X154748857Y-162036571D01*
X154748857Y-161250857D02*
X154820285Y-161108000D01*
X154963142Y-161036571D01*
X155177428Y-161036571D01*
X155320285Y-161108000D01*
X155391714Y-161250857D01*
X155391714Y-162036571D01*
X50038000Y-159258000D02*
X249174000Y-159258000D01*
X50038000Y-152654000D02*
X50038000Y-159844421D01*
X249174000Y-152654000D02*
X249174000Y-159844421D01*
X249174000Y-159258000D02*
X248047496Y-159844421D01*
X249174000Y-159258000D02*
X248047496Y-158671579D01*
X50038000Y-159258000D02*
X51164504Y-159844421D01*
X50038000Y-159258000D02*
X51164504Y-158671579D01*
X143534571Y-158480571D02*
X142677428Y-158480571D01*
X143106000Y-158480571D02*
X143106000Y-156980571D01*
X142963142Y-157194857D01*
X142820285Y-157337714D01*
X142677428Y-157409142D01*
X144248857Y-158480571D02*
X144534571Y-158480571D01*
X144677428Y-158409142D01*
X144748857Y-158337714D01*
X144891714Y-158123428D01*
X144963142Y-157837714D01*
X144963142Y-157266285D01*
X144891714Y-157123428D01*
X144820285Y-157052000D01*
X144677428Y-156980571D01*
X144391714Y-156980571D01*
X144248857Y-157052000D01*
X144177428Y-157123428D01*
X144106000Y-157266285D01*
X144106000Y-157623428D01*
X144177428Y-157766285D01*
X144248857Y-157837714D01*
X144391714Y-157909142D01*
X144677428Y-157909142D01*
X144820285Y-157837714D01*
X144891714Y-157766285D01*
X144963142Y-157623428D01*
X145677428Y-158480571D02*
X145963142Y-158480571D01*
X146106000Y-158409142D01*
X146177428Y-158337714D01*
X146320285Y-158123428D01*
X146391714Y-157837714D01*
X146391714Y-157266285D01*
X146320285Y-157123428D01*
X146248857Y-157052000D01*
X146106000Y-156980571D01*
X145820285Y-156980571D01*
X145677428Y-157052000D01*
X145606000Y-157123428D01*
X145534571Y-157266285D01*
X145534571Y-157623428D01*
X145606000Y-157766285D01*
X145677428Y-157837714D01*
X145820285Y-157909142D01*
X146106000Y-157909142D01*
X146248857Y-157837714D01*
X146320285Y-157766285D01*
X146391714Y-157623428D01*
X147106000Y-158409142D02*
X147106000Y-158480571D01*
X147034571Y-158623428D01*
X146963142Y-158694857D01*
X148534571Y-158480571D02*
X147677428Y-158480571D01*
X148106000Y-158480571D02*
X148106000Y-156980571D01*
X147963142Y-157194857D01*
X147820285Y-157337714D01*
X147677428Y-157409142D01*
X149034571Y-156980571D02*
X149963142Y-156980571D01*
X149463142Y-157552000D01*
X149677428Y-157552000D01*
X149820285Y-157623428D01*
X149891714Y-157694857D01*
X149963142Y-157837714D01*
X149963142Y-158194857D01*
X149891714Y-158337714D01*
X149820285Y-158409142D01*
X149677428Y-158480571D01*
X149248857Y-158480571D01*
X149106000Y-158409142D01*
X149034571Y-158337714D01*
X151248857Y-156980571D02*
X150963142Y-156980571D01*
X150820285Y-157052000D01*
X150748857Y-157123428D01*
X150606000Y-157337714D01*
X150534571Y-157623428D01*
X150534571Y-158194857D01*
X150606000Y-158337714D01*
X150677428Y-158409142D01*
X150820285Y-158480571D01*
X151106000Y-158480571D01*
X151248857Y-158409142D01*
X151320285Y-158337714D01*
X151391714Y-158194857D01*
X151391714Y-157837714D01*
X151320285Y-157694857D01*
X151248857Y-157623428D01*
X151106000Y-157552000D01*
X150820285Y-157552000D01*
X150677428Y-157623428D01*
X150606000Y-157694857D01*
X150534571Y-157837714D01*
X153177428Y-158480571D02*
X153177428Y-157480571D01*
X153177428Y-157623428D02*
X153248857Y-157552000D01*
X153391714Y-157480571D01*
X153606000Y-157480571D01*
X153748857Y-157552000D01*
X153820285Y-157694857D01*
X153820285Y-158480571D01*
X153820285Y-157694857D02*
X153891714Y-157552000D01*
X154034571Y-157480571D01*
X154248857Y-157480571D01*
X154391714Y-157552000D01*
X154463142Y-157694857D01*
X154463142Y-158480571D01*
X155177428Y-158480571D02*
X155177428Y-157480571D01*
X155177428Y-157623428D02*
X155248857Y-157552000D01*
X155391714Y-157480571D01*
X155606000Y-157480571D01*
X155748857Y-157552000D01*
X155820285Y-157694857D01*
X155820285Y-158480571D01*
X155820285Y-157694857D02*
X155891714Y-157552000D01*
X156034571Y-157480571D01*
X156248857Y-157480571D01*
X156391714Y-157552000D01*
X156463142Y-157694857D01*
X156463142Y-158480571D01*
X50038000Y-155702000D02*
X249174000Y-155702000D01*
X50038000Y-152654000D02*
X50038000Y-156288421D01*
X249174000Y-152654000D02*
X249174000Y-156288421D01*
X249174000Y-155702000D02*
X248047496Y-156288421D01*
X249174000Y-155702000D02*
X248047496Y-155115579D01*
X50038000Y-155702000D02*
X51164504Y-156288421D01*
X50038000Y-155702000D02*
X51164504Y-155115579D01*
X43957428Y-87400571D02*
X43957428Y-86543428D01*
X43957428Y-86972000D02*
X45457428Y-86972000D01*
X45243142Y-86829142D01*
X45100285Y-86686285D01*
X45028857Y-86543428D01*
X43957428Y-88829142D02*
X43957428Y-87972000D01*
X43957428Y-88400571D02*
X45457428Y-88400571D01*
X45243142Y-88257714D01*
X45100285Y-88114857D01*
X45028857Y-87972000D01*
X44814571Y-89686285D02*
X44886000Y-89543428D01*
X44957428Y-89472000D01*
X45100285Y-89400571D01*
X45171714Y-89400571D01*
X45314571Y-89472000D01*
X45386000Y-89543428D01*
X45457428Y-89686285D01*
X45457428Y-89972000D01*
X45386000Y-90114857D01*
X45314571Y-90186285D01*
X45171714Y-90257714D01*
X45100285Y-90257714D01*
X44957428Y-90186285D01*
X44886000Y-90114857D01*
X44814571Y-89972000D01*
X44814571Y-89686285D01*
X44743142Y-89543428D01*
X44671714Y-89472000D01*
X44528857Y-89400571D01*
X44243142Y-89400571D01*
X44100285Y-89472000D01*
X44028857Y-89543428D01*
X43957428Y-89686285D01*
X43957428Y-89972000D01*
X44028857Y-90114857D01*
X44100285Y-90186285D01*
X44243142Y-90257714D01*
X44528857Y-90257714D01*
X44671714Y-90186285D01*
X44743142Y-90114857D01*
X44814571Y-89972000D01*
X44028857Y-90972000D02*
X43957428Y-90972000D01*
X43814571Y-90900571D01*
X43743142Y-90829142D01*
X45457428Y-91472000D02*
X45457428Y-92400571D01*
X44886000Y-91900571D01*
X44886000Y-92114857D01*
X44814571Y-92257714D01*
X44743142Y-92329142D01*
X44600285Y-92400571D01*
X44243142Y-92400571D01*
X44100285Y-92329142D01*
X44028857Y-92257714D01*
X43957428Y-92114857D01*
X43957428Y-91686285D01*
X44028857Y-91543428D01*
X44100285Y-91472000D01*
X45457428Y-93686285D02*
X45457428Y-93400571D01*
X45386000Y-93257714D01*
X45314571Y-93186285D01*
X45100285Y-93043428D01*
X44814571Y-92972000D01*
X44243142Y-92972000D01*
X44100285Y-93043428D01*
X44028857Y-93114857D01*
X43957428Y-93257714D01*
X43957428Y-93543428D01*
X44028857Y-93686285D01*
X44100285Y-93757714D01*
X44243142Y-93829142D01*
X44600285Y-93829142D01*
X44743142Y-93757714D01*
X44814571Y-93686285D01*
X44886000Y-93543428D01*
X44886000Y-93257714D01*
X44814571Y-93114857D01*
X44743142Y-93043428D01*
X44600285Y-92972000D01*
X44957428Y-95114857D02*
X43957428Y-95114857D01*
X45528857Y-94757714D02*
X44457428Y-94400571D01*
X44457428Y-95329142D01*
X43957428Y-97043428D02*
X44957428Y-97043428D01*
X44814571Y-97043428D02*
X44886000Y-97114857D01*
X44957428Y-97257714D01*
X44957428Y-97472000D01*
X44886000Y-97614857D01*
X44743142Y-97686285D01*
X43957428Y-97686285D01*
X44743142Y-97686285D02*
X44886000Y-97757714D01*
X44957428Y-97900571D01*
X44957428Y-98114857D01*
X44886000Y-98257714D01*
X44743142Y-98329142D01*
X43957428Y-98329142D01*
X43957428Y-99043428D02*
X44957428Y-99043428D01*
X44814571Y-99043428D02*
X44886000Y-99114857D01*
X44957428Y-99257714D01*
X44957428Y-99472000D01*
X44886000Y-99614857D01*
X44743142Y-99686285D01*
X43957428Y-99686285D01*
X44743142Y-99686285D02*
X44886000Y-99757714D01*
X44957428Y-99900571D01*
X44957428Y-100114857D01*
X44886000Y-100257714D01*
X44743142Y-100329142D01*
X43957428Y-100329142D01*
X46736000Y-34290000D02*
X46736000Y-152654000D01*
X50038000Y-34290000D02*
X46149579Y-34290000D01*
X50038000Y-152654000D02*
X46149579Y-152654000D01*
X46736000Y-152654000D02*
X46149579Y-151527496D01*
X46736000Y-152654000D02*
X47322421Y-151527496D01*
X46736000Y-34290000D02*
X46149579Y-35416504D01*
X46736000Y-34290000D02*
X47322421Y-35416504D01*
X41405661Y-88329142D02*
X40405661Y-88329142D01*
X41977090Y-87972000D02*
X40905661Y-87614857D01*
X40905661Y-88543428D01*
X40477090Y-89186285D02*
X40405661Y-89186285D01*
X40262804Y-89114857D01*
X40191375Y-89043428D01*
X41905661Y-90472000D02*
X41905661Y-90186285D01*
X41834233Y-90043428D01*
X41762804Y-89972000D01*
X41548518Y-89829142D01*
X41262804Y-89757714D01*
X40691375Y-89757714D01*
X40548518Y-89829142D01*
X40477090Y-89900571D01*
X40405661Y-90043428D01*
X40405661Y-90329142D01*
X40477090Y-90472000D01*
X40548518Y-90543428D01*
X40691375Y-90614857D01*
X41048518Y-90614857D01*
X41191375Y-90543428D01*
X41262804Y-90472000D01*
X41334233Y-90329142D01*
X41334233Y-90043428D01*
X41262804Y-89900571D01*
X41191375Y-89829142D01*
X41048518Y-89757714D01*
X41905661Y-91900571D02*
X41905661Y-91614857D01*
X41834233Y-91472000D01*
X41762804Y-91400571D01*
X41548518Y-91257714D01*
X41262804Y-91186285D01*
X40691375Y-91186285D01*
X40548518Y-91257714D01*
X40477090Y-91329142D01*
X40405661Y-91472000D01*
X40405661Y-91757714D01*
X40477090Y-91900571D01*
X40548518Y-91972000D01*
X40691375Y-92043428D01*
X41048518Y-92043428D01*
X41191375Y-91972000D01*
X41262804Y-91900571D01*
X41334233Y-91757714D01*
X41334233Y-91472000D01*
X41262804Y-91329142D01*
X41191375Y-91257714D01*
X41048518Y-91186285D01*
X41905661Y-92972000D02*
X41905661Y-93114857D01*
X41834233Y-93257714D01*
X41762804Y-93329142D01*
X41619947Y-93400571D01*
X41334233Y-93472000D01*
X40977090Y-93472000D01*
X40691375Y-93400571D01*
X40548518Y-93329142D01*
X40477090Y-93257714D01*
X40405661Y-93114857D01*
X40405661Y-92972000D01*
X40477090Y-92829142D01*
X40548518Y-92757714D01*
X40691375Y-92686285D01*
X40977090Y-92614857D01*
X41334233Y-92614857D01*
X41619947Y-92686285D01*
X41762804Y-92757714D01*
X41834233Y-92829142D01*
X41905661Y-92972000D01*
X41905661Y-94400571D02*
X41905661Y-94543428D01*
X41834233Y-94686285D01*
X41762804Y-94757714D01*
X41619947Y-94829142D01*
X41334233Y-94900571D01*
X40977090Y-94900571D01*
X40691375Y-94829142D01*
X40548518Y-94757714D01*
X40477090Y-94686285D01*
X40405661Y-94543428D01*
X40405661Y-94400571D01*
X40477090Y-94257714D01*
X40548518Y-94186285D01*
X40691375Y-94114857D01*
X40977090Y-94043428D01*
X41334233Y-94043428D01*
X41619947Y-94114857D01*
X41762804Y-94186285D01*
X41834233Y-94257714D01*
X41905661Y-94400571D01*
X40477090Y-97257714D02*
X40405661Y-97114857D01*
X40405661Y-96829142D01*
X40477090Y-96686285D01*
X40619947Y-96614857D01*
X41191375Y-96614857D01*
X41334233Y-96686285D01*
X41405661Y-96829142D01*
X41405661Y-97114857D01*
X41334233Y-97257714D01*
X41191375Y-97329142D01*
X41048518Y-97329142D01*
X40905661Y-96614857D01*
X40405661Y-97972000D02*
X41405661Y-97972000D01*
X41262804Y-97972000D02*
X41334233Y-98043428D01*
X41405661Y-98186285D01*
X41405661Y-98400571D01*
X41334233Y-98543428D01*
X41191375Y-98614857D01*
X40405661Y-98614857D01*
X41191375Y-98614857D02*
X41334233Y-98686285D01*
X41405661Y-98829142D01*
X41405661Y-99043428D01*
X41334233Y-99186285D01*
X41191375Y-99257714D01*
X40405661Y-99257714D01*
X43184233Y-34290000D02*
X43184233Y-152654000D01*
X50038000Y-34290000D02*
X42597812Y-34290000D01*
X50038000Y-152654000D02*
X42597812Y-152654000D01*
X43184233Y-152654000D02*
X42597812Y-151527496D01*
X43184233Y-152654000D02*
X43770654Y-151527496D01*
X43184233Y-34290000D02*
X42597812Y-35416504D01*
X43184233Y-34290000D02*
X43770654Y-35416504D01*
D11*
X126746000Y-57663000D02*
G75*
G03X126746000Y-57663000I-762000J0D01*
G01*
X129304000Y-58367000D02*
X122664000Y-58367000D01*
X129304000Y-54917000D02*
X129304000Y-58367000D01*
X122664000Y-54917000D02*
X129304000Y-54917000D01*
X122664000Y-58367000D02*
X122664000Y-54917000D01*
X129304000Y-54917000D02*
X129304000Y-55817000D01*
X122664000Y-54917000D02*
X129304000Y-54917000D01*
X122664000Y-55817000D02*
X122664000Y-54917000D01*
X129304000Y-55817000D02*
X122664000Y-55817000D01*
X122664000Y-58367000D02*
X122664000Y-57467000D01*
X129304000Y-58367000D02*
X122664000Y-58367000D01*
X129304000Y-57467000D02*
X129304000Y-58367000D01*
X122664000Y-57467000D02*
X129304000Y-57467000D01*
X119176800Y-55308500D02*
G75*
G02X118567200Y-55308500I-304800J0D01*
G01*
X119583200Y-55308500D02*
X119583200Y-57467500D01*
X118160800Y-55308500D02*
X119583200Y-55308500D01*
X118160800Y-57467500D02*
X118160800Y-55308500D01*
X119583200Y-57467500D02*
X118160800Y-57467500D01*
X117665500Y-55585600D02*
X118160800Y-55585600D01*
X117665500Y-55890400D02*
X117665500Y-55585600D01*
X118160800Y-55890400D02*
X117665500Y-55890400D01*
X118160800Y-55585600D02*
X118160800Y-55890400D01*
X117665500Y-56235600D02*
X118160800Y-56235600D01*
X117665500Y-56540400D02*
X117665500Y-56235600D01*
X118160800Y-56540400D02*
X117665500Y-56540400D01*
X118160800Y-56235600D02*
X118160800Y-56540400D01*
X117665500Y-56885600D02*
X118160800Y-56885600D01*
X117665500Y-57190400D02*
X117665500Y-56885600D01*
X118160800Y-57190400D02*
X117665500Y-57190400D01*
X118160800Y-56885600D02*
X118160800Y-57190400D01*
X120078500Y-57190400D02*
X119583200Y-57190400D01*
X120078500Y-56885600D02*
X120078500Y-57190400D01*
X119583200Y-56885600D02*
X120078500Y-56885600D01*
X119583200Y-57190400D02*
X119583200Y-56885600D01*
X120078500Y-56540400D02*
X119583200Y-56540400D01*
X120078500Y-56235600D02*
X120078500Y-56540400D01*
X119583200Y-56235600D02*
X120078500Y-56235600D01*
X119583200Y-56540400D02*
X119583200Y-56235600D01*
X120078500Y-55890400D02*
X119583200Y-55890400D01*
X120078500Y-55585600D02*
X120078500Y-55890400D01*
X119583200Y-55585600D02*
X120078500Y-55585600D01*
X119583200Y-55890400D02*
X119583200Y-55585600D01*
M02*
