M48
;DRILL file {KiCad 5.0.0} date Thu Aug 30 21:38:32 2018
;FORMAT={-:-/ absolute / inch / decimal}
FMAT,2
INCH,TZ
T1C0.0236
T2C0.0315
T3C0.0394
T4C0.0433
T5C0.0591
T6C0.0598
T7C0.0787
T8C0.0866
T9C0.1969
T10C0.1417
%
G90
G05
M72
T1
X3.76Y-4.33
X7.15Y-2.85
X7.15Y-2.95
X7.15Y-3.05
X7.15Y-3.15
X7.2Y-3.75
X7.2Y-3.85
X7.2Y-3.95
X7.25Y-3.425
X7.35Y-3.425
X7.45Y-3.425
X7.45Y-4.98
X8.725Y-4.875
X8.725Y-5.725
X9.55Y-4.875
X9.55Y-5.725
T2
X3.15Y-2.8
X3.275Y-1.8
X3.4148Y-3.35
X3.4148Y-4.325
X3.525Y-5.275
X3.73Y-2.28
X3.75Y-4.575
X3.76Y-1.82
X3.76Y-4.08
X3.76Y-4.68
X3.9071Y-1.98
X3.9071Y-2.07
X3.95Y-5.45
X4.02Y-3.98
X4.04Y-2.24
X4.06Y-4.64
X4.06Y-4.79
X4.06Y-4.95
X4.125Y-5.075
X4.2Y-5.25
X4.375Y-1.75
X4.4397Y-4.3519
X4.44Y-4.27
X4.4924Y-4.8571
X4.52Y-4.96
X4.56Y-5.25
X4.5605Y-5.3585
X5.03Y-1.61
X5.25Y-1.61
X5.47Y-1.61
X5.51Y-5.04
X5.5108Y-4.95
X5.69Y-1.61
X6.19Y-4.38
X6.19Y-4.48
X7.445Y-4.62
X7.7222Y-5.5262
X7.725Y-2.575
X7.725Y-2.71
X7.83Y-5.61
X7.93Y-5.72
X8.05Y-5.7
X6.29Y-4.38
X6.29Y-4.48
X6.29Y-4.58
X6.29Y-4.68
X6.29Y-4.78
X6.29Y-4.88
X6.29Y-4.98
X3.64Y-1.78
X3.64Y-1.88
X3.64Y-1.98
X3.64Y-2.08
X3.64Y-2.18
X3.64Y-2.28
X3.64Y-2.38
X3.64Y-2.48
X3.64Y-2.58
X3.64Y-2.78
X3.64Y-2.88
X3.64Y-2.98
X3.64Y-3.08
X3.64Y-3.18
X3.64Y-3.28
X3.64Y-3.38
X3.64Y-3.48
X3.64Y-3.58
X3.64Y-3.68
X3.64Y-3.78
X3.64Y-3.88
X3.64Y-3.98
X3.64Y-4.08
X3.64Y-4.18
X3.64Y-4.28
X3.64Y-4.38
X3.64Y-4.48
X3.64Y-4.58
X3.64Y-4.68
X3.64Y-4.93
X3.64Y-5.03
X3.64Y-5.13
X3.64Y-5.23
X3.64Y-5.33
X3.64Y-5.43
X3.64Y-5.53
X3.64Y-5.63
T3
X8.275Y-5.095
X9.159Y-5.095
X5.82Y-4.77
X5.92Y-4.77
X4.1494Y-2.3822
X4.1494Y-2.4822
X4.1494Y-2.5822
X4.1494Y-2.6822
X4.1494Y-2.8822
X4.1494Y-2.9822
X4.1494Y-3.0822
X4.1494Y-3.1822
X4.1494Y-3.3822
X4.1494Y-3.4822
X4.1494Y-3.5822
X4.1494Y-3.6822
X4.1494Y-3.7822
X4.1494Y-3.9822
X4.1494Y-4.0822
X4.1494Y-4.1822
X4.1494Y-4.2822
T4
X6.02Y-4.77
T5
X6.54Y-4.12
X6.7546Y-4.12
X6.9691Y-4.12
X6.54Y-3.01
X6.7546Y-3.01
X6.9691Y-3.01
T6
X2.12Y-1.6
X2.12Y-1.8
T7
X4.8956Y-4.0531
X6.0244Y-4.0469
X4.8906Y-2.8431
X6.0194Y-2.8369
T8
X2.455Y-4.525
X2.875Y-1.825
X3.4341Y-2.805
X3.357Y-3.58
T9
X9.5Y-2.17
X9.5Y-5.33
X9.5Y-4.2
X9.5Y-3.18
T10
X6.7546Y-4.9019
X6.7546Y-2.2281
T0
M30
