G04 #@! TF.GenerationSoftware,KiCad,Pcbnew,(5.0.0-rc2-dev-586-g888c43477)*
G04 #@! TF.CreationDate,2018-06-04T00:08:36-03:00*
G04 #@! TF.ProjectId,Mcc18,4D636331382E6B696361645F70636200,rev?*
G04 #@! TF.SameCoordinates,Original*
G04 #@! TF.FileFunction,Soldermask,Top*
G04 #@! TF.FilePolarity,Negative*
%FSLAX46Y46*%
G04 Gerber Fmt 4.6, Leading zero omitted, Abs format (unit mm)*
G04 Created by KiCad (PCBNEW (5.0.0-rc2-dev-586-g888c43477)) date 06/04/18 00:08:36*
%MOMM*%
%LPD*%
G01*
G04 APERTURE LIST*
%ADD10C,1.924000*%
%ADD11C,4.800000*%
%ADD12R,1.400000X1.900000*%
%ADD13R,1.695000X1.800000*%
%ADD14O,4.000000X4.000000*%
%ADD15R,2.900000X4.900000*%
%ADD16O,2.900000X4.900000*%
%ADD17C,2.200000*%
%ADD18R,2.200000X2.200000*%
%ADD19C,5.400000*%
%ADD20O,2.400000X1.600000*%
%ADD21R,2.200000X1.795000*%
%ADD22O,2.400000X2.305000*%
%ADD23R,2.400000X2.305000*%
%ADD24O,3.900000X3.900000*%
%ADD25C,2.600000*%
%ADD26R,3.900000X3.100000*%
%ADD27R,3.100000X3.900000*%
%ADD28R,1.800000X1.695000*%
%ADD29R,1.895000X3.800000*%
%ADD30C,2.800000*%
%ADD31C,10.400000*%
%ADD32C,3.400000*%
G04 APERTURE END LIST*
D10*
X105410000Y-67056000D03*
X105410000Y-69596000D03*
X105410000Y-72136000D03*
X105410000Y-75946000D03*
X105410000Y-78486000D03*
X105410000Y-81026000D03*
X105410000Y-83566000D03*
X105410000Y-87376000D03*
X105410000Y-89916000D03*
X105410000Y-92456000D03*
X105410000Y-94996000D03*
X105410000Y-97536000D03*
X105410000Y-101346000D03*
X105410000Y-103886000D03*
X105410000Y-106426000D03*
X105410000Y-108966000D03*
X105410000Y-64516000D03*
D11*
X85267800Y-90932000D03*
D12*
X126888000Y-61722000D03*
X125588000Y-61722000D03*
X125588000Y-64262000D03*
X126888000Y-64262000D03*
D13*
X120093500Y-56388000D03*
X118158500Y-56388000D03*
X186484500Y-65532000D03*
X188419500Y-65532000D03*
D14*
X171566000Y-124508000D03*
D15*
X177016000Y-104648000D03*
D16*
X171566000Y-104648000D03*
X166116000Y-104648000D03*
X177016000Y-76454000D03*
X171566000Y-76454000D03*
D15*
X166116000Y-76454000D03*
D14*
X171566000Y-56594000D03*
D17*
X159766000Y-123952000D03*
D18*
X159766000Y-126492000D03*
D17*
X159766000Y-111252000D03*
X159766000Y-121412000D03*
X159766000Y-118872000D03*
X159766000Y-113792000D03*
X159766000Y-116332000D03*
D19*
X124206000Y-100838000D03*
X124206000Y-71755000D03*
X153289000Y-100838000D03*
X153289000Y-71755000D03*
D11*
X62357000Y-114934000D03*
X73025000Y-46355000D03*
X87225274Y-71247000D03*
D20*
X92456000Y-45212000D03*
X92456000Y-47752000D03*
X92456000Y-50292000D03*
X92456000Y-52832000D03*
X92456000Y-55372000D03*
X92456000Y-57912000D03*
X92456000Y-60452000D03*
X92456000Y-62992000D03*
X92456000Y-65532000D03*
X92456000Y-70612000D03*
X92456000Y-73152000D03*
X92456000Y-75692000D03*
X92456000Y-78232000D03*
X92456000Y-80772000D03*
X92456000Y-83312000D03*
X92456000Y-85852000D03*
X92456000Y-88392000D03*
X92456000Y-90932000D03*
X92456000Y-93472000D03*
X92456000Y-96012000D03*
X92456000Y-98552000D03*
X92456000Y-101092000D03*
X92456000Y-103632000D03*
X92456000Y-106172000D03*
X92456000Y-108712000D03*
X92456000Y-111252000D03*
X92456000Y-113792000D03*
X92456000Y-116332000D03*
X92456000Y-118872000D03*
X92456000Y-125222000D03*
X92456000Y-127762000D03*
X92456000Y-130302000D03*
X92456000Y-132842000D03*
X92456000Y-135382000D03*
X92456000Y-137922000D03*
X92456000Y-140462000D03*
X92456000Y-143002000D03*
D21*
X169164000Y-109480500D03*
X169164000Y-112515500D03*
X162814000Y-96526500D03*
X162814000Y-99561500D03*
X172720000Y-82810500D03*
X172720000Y-85845500D03*
X169926000Y-69094500D03*
X169926000Y-72129500D03*
D22*
X143510000Y-114046000D03*
X143510000Y-116586000D03*
D23*
X143510000Y-119126000D03*
D24*
X126850000Y-116586000D03*
D25*
X220218000Y-74182000D03*
X220218000Y-59182000D03*
X230378000Y-74182000D03*
X230378000Y-59182000D03*
X210058000Y-74182000D03*
X210058000Y-59182000D03*
D26*
X175104000Y-98044000D03*
X168304000Y-98044000D03*
D27*
X177038000Y-83214000D03*
X177038000Y-90014000D03*
D28*
X102616000Y-60500500D03*
X102616000Y-62435500D03*
D29*
X178531500Y-111506000D03*
X172496500Y-111506000D03*
X168371500Y-84328000D03*
X162336500Y-84328000D03*
X166146500Y-91186000D03*
X172181500Y-91186000D03*
X178277500Y-68072000D03*
X172242500Y-68072000D03*
D28*
X102616000Y-64818500D03*
X102616000Y-66753500D03*
X102616000Y-56182500D03*
X102616000Y-58117500D03*
D30*
X214630000Y-107628000D03*
X214630000Y-135128000D03*
X227330000Y-104648000D03*
X227330000Y-77148000D03*
X214630000Y-77148000D03*
X214630000Y-104648000D03*
X201930000Y-104648000D03*
X201930000Y-77148000D03*
X227330000Y-107628000D03*
X227330000Y-135128000D03*
X189230000Y-104648000D03*
X189230000Y-77148000D03*
X201930000Y-107628000D03*
X201930000Y-135128000D03*
D31*
X240202000Y-129972000D03*
X240202000Y-104972000D03*
X240202000Y-79972000D03*
X240202000Y-54972000D03*
D32*
X233273600Y-47371000D03*
X210820000Y-47371000D03*
D13*
X188419500Y-68834000D03*
X186484500Y-68834000D03*
X186484500Y-123444000D03*
X188419500Y-123444000D03*
X188468000Y-120142000D03*
X186533000Y-120142000D03*
M02*
