G04 #@! TF.GenerationSoftware,KiCad,Pcbnew,(5.0.0-rc2-dev-586-g888c43477)*
G04 #@! TF.CreationDate,2018-06-04T00:08:36-03:00*
G04 #@! TF.ProjectId,Mcc18,4D636331382E6B696361645F70636200,rev?*
G04 #@! TF.SameCoordinates,Original*
G04 #@! TF.FileFunction,Soldermask,Bot*
G04 #@! TF.FilePolarity,Negative*
%FSLAX46Y46*%
G04 Gerber Fmt 4.6, Leading zero omitted, Abs format (unit mm)*
G04 Created by KiCad (PCBNEW (5.0.0-rc2-dev-586-g888c43477)) date 06/04/18 00:08:36*
%MOMM*%
%LPD*%
G01*
G04 APERTURE LIST*
%ADD10C,1.924000*%
%ADD11C,4.800000*%
%ADD12R,1.400000X1.900000*%
%ADD13R,1.695000X1.800000*%
%ADD14R,1.800000X1.695000*%
%ADD15R,7.040000X3.332000*%
%ADD16R,1.568400X0.742900*%
%ADD17R,1.000000X1.950000*%
%ADD18O,4.000000X4.000000*%
%ADD19R,2.900000X4.900000*%
%ADD20O,2.900000X4.900000*%
%ADD21C,2.200000*%
%ADD22R,2.200000X2.200000*%
%ADD23C,5.400000*%
%ADD24O,2.400000X1.600000*%
%ADD25O,2.400000X2.305000*%
%ADD26R,2.400000X2.305000*%
%ADD27C,2.600000*%
%ADD28C,2.800000*%
%ADD29C,10.400000*%
%ADD30C,3.400000*%
G04 APERTURE END LIST*
D10*
X105410000Y-67056000D03*
X105410000Y-69596000D03*
X105410000Y-72136000D03*
X105410000Y-75946000D03*
X105410000Y-78486000D03*
X105410000Y-81026000D03*
X105410000Y-83566000D03*
X105410000Y-87376000D03*
X105410000Y-89916000D03*
X105410000Y-92456000D03*
X105410000Y-94996000D03*
X105410000Y-97536000D03*
X105410000Y-101346000D03*
X105410000Y-103886000D03*
X105410000Y-106426000D03*
X105410000Y-108966000D03*
X105410000Y-64516000D03*
D11*
X85267800Y-90932000D03*
D12*
X114920000Y-51562000D03*
X116220000Y-51562000D03*
X114920000Y-49022000D03*
X116220000Y-49022000D03*
D13*
X104853500Y-52578000D03*
X102918500Y-52578000D03*
X104853500Y-50292000D03*
X102918500Y-50292000D03*
D14*
X136652000Y-57863500D03*
X136652000Y-55928500D03*
X100838000Y-50340500D03*
X100838000Y-52275500D03*
D15*
X125984000Y-54351000D03*
X125984000Y-58933000D03*
D16*
X117894100Y-55738001D03*
X117894100Y-56388000D03*
X117894100Y-57037999D03*
X119849900Y-57037999D03*
X119849900Y-56388000D03*
X119849900Y-55738001D03*
D17*
X130683000Y-54008040D03*
X131953000Y-54008040D03*
X133223000Y-54008040D03*
X134493000Y-54008040D03*
X134493000Y-59408040D03*
X133223000Y-59408040D03*
X131953000Y-59408040D03*
X130683000Y-59408040D03*
D18*
X171566000Y-124508000D03*
D19*
X177016000Y-104648000D03*
D20*
X171566000Y-104648000D03*
X166116000Y-104648000D03*
X177016000Y-76454000D03*
X171566000Y-76454000D03*
D19*
X166116000Y-76454000D03*
D18*
X171566000Y-56594000D03*
D21*
X159766000Y-123952000D03*
D22*
X159766000Y-126492000D03*
D21*
X159766000Y-111252000D03*
X159766000Y-121412000D03*
X159766000Y-118872000D03*
X159766000Y-113792000D03*
X159766000Y-116332000D03*
D23*
X124206000Y-100838000D03*
X124206000Y-71755000D03*
X153289000Y-100838000D03*
X153289000Y-71755000D03*
D11*
X62357000Y-114934000D03*
X73025000Y-46355000D03*
X87225274Y-71247000D03*
D24*
X92456000Y-45212000D03*
X92456000Y-47752000D03*
X92456000Y-50292000D03*
X92456000Y-52832000D03*
X92456000Y-55372000D03*
X92456000Y-57912000D03*
X92456000Y-60452000D03*
X92456000Y-62992000D03*
X92456000Y-65532000D03*
X92456000Y-70612000D03*
X92456000Y-73152000D03*
X92456000Y-75692000D03*
X92456000Y-78232000D03*
X92456000Y-80772000D03*
X92456000Y-83312000D03*
X92456000Y-85852000D03*
X92456000Y-88392000D03*
X92456000Y-90932000D03*
X92456000Y-93472000D03*
X92456000Y-96012000D03*
X92456000Y-98552000D03*
X92456000Y-101092000D03*
X92456000Y-103632000D03*
X92456000Y-106172000D03*
X92456000Y-108712000D03*
X92456000Y-111252000D03*
X92456000Y-113792000D03*
X92456000Y-116332000D03*
X92456000Y-118872000D03*
X92456000Y-125222000D03*
X92456000Y-127762000D03*
X92456000Y-130302000D03*
X92456000Y-132842000D03*
X92456000Y-135382000D03*
X92456000Y-137922000D03*
X92456000Y-140462000D03*
X92456000Y-143002000D03*
D14*
X146558000Y-115062000D03*
X146558000Y-116997000D03*
D25*
X143510000Y-114046000D03*
X143510000Y-116586000D03*
D26*
X143510000Y-119126000D03*
D27*
X220218000Y-74182000D03*
X220218000Y-59182000D03*
X230378000Y-74182000D03*
X230378000Y-59182000D03*
X210058000Y-74182000D03*
X210058000Y-59182000D03*
D13*
X155145500Y-114046000D03*
X153210500Y-114046000D03*
D14*
X148844000Y-116997000D03*
X148844000Y-115062000D03*
D13*
X144780000Y-124460000D03*
X146715000Y-124460000D03*
D14*
X154940000Y-118618000D03*
X154940000Y-116683000D03*
X151130000Y-115062000D03*
X151130000Y-116997000D03*
X157226000Y-118618000D03*
X157226000Y-116683000D03*
D13*
X146715000Y-121920000D03*
X144780000Y-121920000D03*
D28*
X214630000Y-107628000D03*
X214630000Y-135128000D03*
X227330000Y-104648000D03*
X227330000Y-77148000D03*
X214630000Y-77148000D03*
X214630000Y-104648000D03*
X201930000Y-104648000D03*
X201930000Y-77148000D03*
X227330000Y-107628000D03*
X227330000Y-135128000D03*
X189230000Y-104648000D03*
X189230000Y-77148000D03*
X201930000Y-107628000D03*
X201930000Y-135128000D03*
D29*
X240202000Y-129972000D03*
X240202000Y-104972000D03*
X240202000Y-79972000D03*
X240202000Y-54972000D03*
D30*
X233273600Y-47371000D03*
X210820000Y-47371000D03*
D14*
X156718000Y-126189500D03*
X156718000Y-124254500D03*
M02*
