G04 #@! TF.GenerationSoftware,KiCad,Pcbnew,(5.0.0-rc2-dev-586-g888c43477)*
G04 #@! TF.CreationDate,2018-06-17T22:52:13-03:00*
G04 #@! TF.ProjectId,Mcc18,4D636331382E6B696361645F70636200,rev?*
G04 #@! TF.SameCoordinates,Original*
G04 #@! TF.FileFunction,Copper,L2,Bot,Signal*
G04 #@! TF.FilePolarity,Positive*
%FSLAX46Y46*%
G04 Gerber Fmt 4.6, Leading zero omitted, Abs format (unit mm)*
G04 Created by KiCad (PCBNEW (5.0.0-rc2-dev-586-g888c43477)) date 06/17/18 22:52:13*
%MOMM*%
%LPD*%
G01*
G04 APERTURE LIST*
%ADD10C,1.524000*%
%ADD11C,1.905000*%
%ADD12R,1.905000X2.000000*%
%ADD13R,1.295000X1.400000*%
%ADD14R,1.500000X1.000000*%
%ADD15R,1.400000X1.295000*%
%ADD16C,2.700000*%
%ADD17C,2.800000*%
%ADD18C,1.800000*%
%ADD19R,1.800000X1.800000*%
%ADD20C,3.000000*%
%ADD21C,10.000000*%
%ADD22C,2.400000*%
%ADD23C,5.000000*%
%ADD24O,2.500000X4.500000*%
%ADD25R,2.500000X4.500000*%
%ADD26R,0.600000X1.550000*%
%ADD27R,6.640000X2.932000*%
%ADD28C,4.400000*%
%ADD29O,2.000000X1.200000*%
%ADD30C,1.700000*%
%ADD31C,1.000000*%
%ADD32C,0.508000*%
%ADD33C,0.762000*%
%ADD34C,9.000000*%
%ADD35C,0.800000*%
%ADD36C,3.000000*%
%ADD37C,0.254000*%
%ADD38C,0.304800*%
G04 APERTURE END LIST*
D10*
X105410000Y-67056000D03*
X105410000Y-69596000D03*
X105410000Y-72136000D03*
X105410000Y-75946000D03*
X105410000Y-78486000D03*
X105410000Y-81026000D03*
X105410000Y-83566000D03*
X105410000Y-87376000D03*
X105410000Y-89916000D03*
X105410000Y-92456000D03*
X105410000Y-94996000D03*
X105410000Y-97536000D03*
X105410000Y-101346000D03*
X105410000Y-103886000D03*
X105410000Y-106426000D03*
X105410000Y-108966000D03*
X105410000Y-64516000D03*
D11*
X147828000Y-121158000D03*
X150368000Y-121158000D03*
D12*
X152908000Y-121158000D03*
D13*
X99011500Y-132588000D03*
X97076500Y-132588000D03*
D14*
X116332000Y-112888000D03*
X116332000Y-114188000D03*
D15*
X99060000Y-130507500D03*
X99060000Y-128572500D03*
X97028000Y-128572500D03*
X97028000Y-130507500D03*
D16*
X214630000Y-129300000D03*
X214630000Y-114300000D03*
X224790000Y-114300000D03*
X224790000Y-129300000D03*
D17*
X220980000Y-72644000D03*
X220980000Y-45144000D03*
X208280000Y-45144000D03*
X208280000Y-72644000D03*
X195580000Y-72644000D03*
X195580000Y-45144000D03*
X227330000Y-77148000D03*
X227330000Y-104648000D03*
D18*
X159766000Y-116332000D03*
X159766000Y-113792000D03*
X159766000Y-118872000D03*
X159766000Y-121412000D03*
X159766000Y-111252000D03*
D19*
X159766000Y-126492000D03*
D18*
X159766000Y-123952000D03*
D15*
X156972000Y-125935500D03*
X156972000Y-124000500D03*
D20*
X231495600Y-137287000D03*
X209042000Y-137287000D03*
D21*
X241300000Y-135382000D03*
X241300000Y-106680000D03*
X241300000Y-80772000D03*
X241300000Y-55118000D03*
D17*
X189230000Y-104648000D03*
X189230000Y-77148000D03*
D22*
X214630000Y-77148000D03*
X214630000Y-104648000D03*
D13*
X150670500Y-125730000D03*
X152605500Y-125730000D03*
D15*
X157480000Y-118618000D03*
X157480000Y-116683000D03*
X152654000Y-116586000D03*
X152654000Y-118521000D03*
X155194000Y-118618000D03*
X155194000Y-116683000D03*
D13*
X152605500Y-123698000D03*
X150670500Y-123698000D03*
D15*
X150368000Y-118521000D03*
X150368000Y-116586000D03*
D13*
X154891500Y-114554000D03*
X152956500Y-114554000D03*
D16*
X204470000Y-129300000D03*
X204470000Y-114300000D03*
D15*
X148082000Y-116586000D03*
X148082000Y-118521000D03*
D23*
X124206000Y-100838000D03*
X124206000Y-71755000D03*
X153289000Y-100838000D03*
X153289000Y-71755000D03*
D24*
X177016000Y-76454000D03*
X171566000Y-76454000D03*
D25*
X166116000Y-76454000D03*
X177016000Y-104648000D03*
D24*
X171566000Y-104648000D03*
X166116000Y-104648000D03*
D26*
X117983000Y-123096000D03*
X116713000Y-123096000D03*
X115443000Y-123096000D03*
X114173000Y-123096000D03*
X114173000Y-117696000D03*
X115443000Y-117696000D03*
X116713000Y-117696000D03*
X117983000Y-117696000D03*
D27*
X122682000Y-122687000D03*
X122682000Y-118105000D03*
D15*
X100838000Y-50340500D03*
X100838000Y-52275500D03*
X112014000Y-119428500D03*
X112014000Y-121363500D03*
D13*
X104853500Y-50292000D03*
X102918500Y-50292000D03*
X104853500Y-52578000D03*
X102918500Y-52578000D03*
D14*
X114046000Y-112888000D03*
X114046000Y-114188000D03*
D28*
X85267800Y-90932000D03*
D29*
X92456000Y-143002000D03*
X92456000Y-140462000D03*
X92456000Y-137922000D03*
X92456000Y-135382000D03*
X92456000Y-132842000D03*
X92456000Y-130302000D03*
X92456000Y-127762000D03*
X92456000Y-125222000D03*
X92456000Y-118872000D03*
X92456000Y-116332000D03*
X92456000Y-113792000D03*
X92456000Y-111252000D03*
X92456000Y-108712000D03*
X92456000Y-106172000D03*
X92456000Y-103632000D03*
X92456000Y-101092000D03*
X92456000Y-98552000D03*
X92456000Y-96012000D03*
X92456000Y-93472000D03*
X92456000Y-90932000D03*
X92456000Y-88392000D03*
X92456000Y-85852000D03*
X92456000Y-83312000D03*
X92456000Y-80772000D03*
X92456000Y-78232000D03*
X92456000Y-75692000D03*
X92456000Y-73152000D03*
X92456000Y-70612000D03*
X92456000Y-65532000D03*
X92456000Y-62992000D03*
X92456000Y-60452000D03*
X92456000Y-57912000D03*
X92456000Y-55372000D03*
X92456000Y-52832000D03*
X92456000Y-50292000D03*
X92456000Y-47752000D03*
X92456000Y-45212000D03*
D28*
X87225274Y-71247000D03*
X73025000Y-46355000D03*
X62357000Y-114934000D03*
D17*
X201930000Y-77148000D03*
X201930000Y-104648000D03*
D30*
X105664000Y-60452000D03*
D18*
X98806000Y-50292000D03*
D30*
X102870000Y-132334000D03*
X102870000Y-128852700D03*
X94742000Y-45973986D03*
X191262000Y-119634000D03*
X191262000Y-68834000D03*
X157226000Y-111252000D03*
X103124000Y-117856000D03*
X103124000Y-121666000D03*
X103124000Y-125730000D03*
X112776000Y-108458000D03*
X115824000Y-133350000D03*
X139973490Y-125730000D03*
X115837542Y-136106800D03*
X139954000Y-128016000D03*
X102616000Y-75946000D03*
X102616000Y-101346000D03*
D18*
X98806000Y-52578000D03*
X94742000Y-57912000D03*
D30*
X95504000Y-103632000D03*
X157226000Y-113792000D03*
X112768344Y-110538090D03*
X95504000Y-118872000D03*
X191262000Y-65532000D03*
X127762000Y-40894000D03*
X133350000Y-40894000D03*
X138938000Y-40894000D03*
X144526000Y-40894000D03*
X191262000Y-123444000D03*
X185674000Y-128778000D03*
X185674000Y-137414000D03*
D31*
X96822500Y-132842000D02*
X97076500Y-132588000D01*
X92456000Y-132842000D02*
X96822500Y-132842000D01*
X90456000Y-132842000D02*
X92456000Y-132842000D01*
X88900000Y-131286000D02*
X90456000Y-132842000D01*
X88900000Y-80010000D02*
X88900000Y-131286000D01*
X82042000Y-73152000D02*
X88900000Y-80010000D01*
X82042000Y-50038000D02*
X82042000Y-73152000D01*
X104140000Y-60452000D02*
X96774000Y-53086000D01*
X105664000Y-60452000D02*
X104140000Y-60452000D01*
X96774000Y-53086000D02*
X96774000Y-44958000D01*
X96774000Y-44958000D02*
X94996000Y-43180000D01*
X94996000Y-43180000D02*
X88900000Y-43180000D01*
X88900000Y-43180000D02*
X82042000Y-50038000D01*
X97028000Y-132539500D02*
X97076500Y-132588000D01*
X96774000Y-130507500D02*
X97028000Y-130761500D01*
X97028000Y-130761500D02*
X97028000Y-132539500D01*
X147066000Y-116586000D02*
X148082000Y-116586000D01*
X146050000Y-117602000D02*
X147066000Y-116586000D01*
X147828000Y-121158000D02*
X146050000Y-119380000D01*
X146050000Y-119380000D02*
X146050000Y-117602000D01*
X148082000Y-116586000D02*
X150368000Y-116586000D01*
X150368000Y-116586000D02*
X152654000Y-116586000D01*
X152702500Y-116537500D02*
X152654000Y-116586000D01*
X152956500Y-116283500D02*
X152654000Y-116586000D01*
X152956500Y-114554000D02*
X152956500Y-116283500D01*
D32*
X101140500Y-50292000D02*
X99314000Y-50292000D01*
X102870000Y-50340500D02*
X102918500Y-50292000D01*
X100838000Y-50340500D02*
X102870000Y-50340500D01*
D31*
X99314000Y-124714000D02*
X99314000Y-128572500D01*
X97282000Y-122682000D02*
X99314000Y-124714000D01*
X92456000Y-45212000D02*
X88713278Y-45212000D01*
X92202000Y-122682000D02*
X97282000Y-122682000D01*
X83346810Y-50578468D02*
X83346810Y-72611532D01*
X83346810Y-72611532D02*
X90204810Y-79469531D01*
X88713278Y-45212000D02*
X83346810Y-50578468D01*
X90204810Y-79469531D02*
X90204810Y-120684810D01*
X90204810Y-120684810D02*
X92202000Y-122682000D01*
X111046500Y-121363500D02*
X110524810Y-121885190D01*
X112014000Y-121363500D02*
X111046500Y-121363500D01*
X108525279Y-132334000D02*
X102870000Y-132334000D01*
X110524810Y-121885190D02*
X110524810Y-130334469D01*
X110524810Y-130334469D02*
X108525279Y-132334000D01*
X99594200Y-128852700D02*
X99314000Y-128572500D01*
X102870000Y-128852700D02*
X99594200Y-128852700D01*
D32*
X116713000Y-118979000D02*
X116713000Y-117696000D01*
X116713000Y-120543000D02*
X116713000Y-118979000D01*
X115443000Y-121813000D02*
X116713000Y-120543000D01*
X115443000Y-123096000D02*
X115443000Y-121813000D01*
X116713000Y-124379000D02*
X116378000Y-124714000D01*
X116713000Y-123096000D02*
X116713000Y-124379000D01*
X116378000Y-124714000D02*
X113284000Y-124714000D01*
X112014000Y-123444000D02*
X112014000Y-121363500D01*
X113284000Y-124714000D02*
X112014000Y-123444000D01*
X113746500Y-123096000D02*
X112014000Y-121363500D01*
X114173000Y-123096000D02*
X113746500Y-123096000D01*
D31*
X94742000Y-45498000D02*
X94742000Y-45973986D01*
X94456000Y-45212000D02*
X94742000Y-45498000D01*
X92456000Y-45212000D02*
X94456000Y-45212000D01*
D33*
X115443000Y-123096000D02*
X116713000Y-123096000D01*
D32*
X115824000Y-114696000D02*
X116332000Y-114188000D01*
X115824000Y-115524000D02*
X115824000Y-114696000D01*
X116713000Y-117696000D02*
X116713000Y-116413000D01*
X116713000Y-116413000D02*
X115824000Y-115524000D01*
D31*
X159415000Y-116683000D02*
X159766000Y-116332000D01*
X157226000Y-116683000D02*
X159415000Y-116683000D01*
X157226000Y-116683000D02*
X154940000Y-116683000D01*
X154940000Y-116683000D02*
X155145500Y-116477500D01*
X154891500Y-116380500D02*
X155194000Y-116683000D01*
X154891500Y-114554000D02*
X154891500Y-116380500D01*
D34*
X239395000Y-137287000D02*
X241300000Y-135382000D01*
X231495600Y-137287000D02*
X239395000Y-137287000D01*
D32*
X159463500Y-124254500D02*
X159766000Y-123952000D01*
D35*
X159717500Y-124000500D02*
X159766000Y-123952000D01*
X156972000Y-124000500D02*
X159717500Y-124000500D01*
X166116000Y-118973144D02*
X166116000Y-104648000D01*
X159766000Y-123952000D02*
X161137144Y-123952000D01*
X161137144Y-123952000D02*
X166116000Y-118973144D01*
D32*
X177016000Y-107406000D02*
X177016000Y-104648000D01*
D35*
X177016000Y-104648000D02*
X177016000Y-108177500D01*
D31*
X177016000Y-104648000D02*
X177016000Y-111142000D01*
X177016000Y-111142000D02*
X161666000Y-126492000D01*
X159463500Y-126189500D02*
X159766000Y-126492000D01*
X159766000Y-126492000D02*
X161666000Y-126492000D01*
D35*
X159209500Y-125935500D02*
X159766000Y-126492000D01*
X156972000Y-125935500D02*
X159209500Y-125935500D01*
D31*
X157480000Y-118872000D02*
X157226000Y-118618000D01*
X159766000Y-118872000D02*
X157480000Y-118872000D01*
X157226000Y-118618000D02*
X154940000Y-118618000D01*
X157226000Y-111252000D02*
X159766000Y-111252000D01*
X95963500Y-127762000D02*
X96774000Y-128572500D01*
X92456000Y-127762000D02*
X95963500Y-127762000D01*
D32*
X97536000Y-105716595D02*
X105560595Y-113741190D01*
X97536000Y-100692000D02*
X97536000Y-105716595D01*
X105560595Y-113741190D02*
X110032810Y-113741190D01*
X110032810Y-113741190D02*
X110998000Y-112776000D01*
X110998000Y-112776000D02*
X110998000Y-110236000D01*
X111926001Y-109307999D02*
X112776000Y-108458000D01*
X92456000Y-96012000D02*
X92856000Y-96012000D01*
X110998000Y-110236000D02*
X111926001Y-109307999D01*
X92856000Y-96012000D02*
X97536000Y-100692000D01*
D31*
X150368000Y-121158000D02*
X150368000Y-118521000D01*
X150368000Y-118521000D02*
X148082000Y-118521000D01*
X152654000Y-118521000D02*
X150368000Y-118521000D01*
X150197310Y-126203190D02*
X150670500Y-125730000D01*
X140427190Y-126203190D02*
X150197310Y-126203190D01*
X139973490Y-125730000D02*
X139973490Y-125749490D01*
X139973490Y-125749490D02*
X140427190Y-126203190D01*
X150670500Y-125730000D02*
X150670500Y-123698000D01*
X150670500Y-121460500D02*
X150368000Y-121158000D01*
X150670500Y-123698000D02*
X150670500Y-121460500D01*
X92456000Y-143002000D02*
X94456000Y-143002000D01*
X108942342Y-143002000D02*
X115837542Y-136106800D01*
X94456000Y-143002000D02*
X108942342Y-143002000D01*
X139954000Y-128016000D02*
X140462000Y-127508000D01*
X152605500Y-125730000D02*
X152605500Y-126540500D01*
X151638000Y-127508000D02*
X151384000Y-127508000D01*
X152605500Y-126540500D02*
X151638000Y-127508000D01*
X140462000Y-127508000D02*
X151384000Y-127508000D01*
X152605500Y-125730000D02*
X152605500Y-123698000D01*
X152605500Y-121460500D02*
X152908000Y-121158000D01*
X152605500Y-123698000D02*
X152605500Y-121460500D01*
D32*
X101413919Y-75946000D02*
X102616000Y-75946000D01*
X100330000Y-74862081D02*
X101413919Y-75946000D01*
X100330000Y-58361580D02*
X100330000Y-74862081D01*
X92456000Y-55372000D02*
X97340420Y-55372000D01*
X97340420Y-55372000D02*
X100330000Y-58361580D01*
X94742000Y-60452000D02*
X92456000Y-60452000D01*
X102616000Y-91694000D02*
X100076000Y-89154000D01*
X102616000Y-101346000D02*
X102616000Y-91694000D01*
X100076000Y-89154000D02*
X100076000Y-80264000D01*
X100076000Y-80264000D02*
X96266000Y-76454000D01*
X96266000Y-76454000D02*
X96266000Y-61976000D01*
X96266000Y-61976000D02*
X94742000Y-60452000D01*
X101140500Y-52578000D02*
X99314000Y-52578000D01*
X102616000Y-52275500D02*
X102918500Y-52578000D01*
X100838000Y-52275500D02*
X102616000Y-52275500D01*
D31*
X94742000Y-57912000D02*
X92456000Y-57912000D01*
X94456000Y-103632000D02*
X92456000Y-103632000D01*
X92456000Y-103632000D02*
X95504000Y-103632000D01*
X159766000Y-113792000D02*
X157226000Y-113792000D01*
D32*
X95504000Y-104834081D02*
X95504000Y-103632000D01*
X105223919Y-114554000D02*
X95504000Y-104834081D01*
X110490000Y-114554000D02*
X105223919Y-114554000D01*
X111918345Y-113125655D02*
X110490000Y-114554000D01*
X112768344Y-110538090D02*
X111918345Y-111388089D01*
X111918345Y-111388089D02*
X111918345Y-113125655D01*
D31*
X92456000Y-118872000D02*
X95504000Y-118872000D01*
D34*
X240202000Y-54972000D02*
X240202000Y-54299400D01*
X240202000Y-54972000D02*
X233426000Y-48196000D01*
D36*
X124388880Y-71572120D02*
X124206000Y-71755000D01*
D32*
X121473000Y-121478000D02*
X122682000Y-122687000D01*
X118872000Y-121478000D02*
X121473000Y-121478000D01*
X118110000Y-122240000D02*
X118872000Y-121478000D01*
X118110000Y-122715000D02*
X118110000Y-122240000D01*
X92075000Y-140716000D02*
X91948000Y-140843000D01*
X105664000Y-109220000D02*
X105410000Y-108966000D01*
X104853500Y-50292000D02*
X105903501Y-50292000D01*
X105903501Y-50292000D02*
X106640101Y-51028600D01*
X106640101Y-51028600D02*
X115103338Y-51028600D01*
X115103338Y-51028600D02*
X116738400Y-52663662D01*
X116332000Y-111243473D02*
X116332000Y-112888000D01*
X116738400Y-52663662D02*
X116738400Y-110837073D01*
X116738400Y-110837073D02*
X116332000Y-111243473D01*
X105903501Y-52578000D02*
X106640101Y-51841400D01*
X104853500Y-52578000D02*
X105903501Y-52578000D01*
X106640101Y-51841400D02*
X114766662Y-51841400D01*
X114766662Y-51841400D02*
X115925600Y-53000338D01*
X115757264Y-110668736D02*
X113538000Y-112888000D01*
X115925600Y-110500400D02*
X115757264Y-110668736D01*
X115925600Y-53000338D02*
X115925600Y-110500400D01*
X114554000Y-114950000D02*
X113792000Y-114188000D01*
X114554000Y-116078000D02*
X114554000Y-114950000D01*
X114173000Y-117696000D02*
X114173000Y-116459000D01*
X114173000Y-116459000D02*
X114554000Y-116078000D01*
X121407000Y-119380000D02*
X122682000Y-118105000D01*
X118938000Y-119380000D02*
X121407000Y-119380000D01*
X118110000Y-118552000D02*
X118938000Y-119380000D01*
X118110000Y-117602000D02*
X118110000Y-118552000D01*
D31*
X99060000Y-130761500D02*
X99314000Y-130507500D01*
X99011500Y-132588000D02*
X99060000Y-132539500D01*
X99060000Y-132539500D02*
X99060000Y-130761500D01*
X110314000Y-119428500D02*
X109220000Y-120522500D01*
X112014000Y-119428500D02*
X110314000Y-119428500D01*
X109220000Y-120522500D02*
X109220000Y-129794000D01*
X108506500Y-130507500D02*
X99314000Y-130507500D01*
X109220000Y-129794000D02*
X108506500Y-130507500D01*
D32*
X115316000Y-117823000D02*
X115443000Y-117696000D01*
X115316000Y-118852000D02*
X115316000Y-117823000D01*
X112014000Y-119428500D02*
X114739500Y-119428500D01*
X114739500Y-119428500D02*
X115316000Y-118852000D01*
G36*
X145960024Y-53594496D02*
X155167424Y-64926681D01*
X155693329Y-65340819D01*
X160585095Y-67677541D01*
X161237731Y-67826374D01*
X165400736Y-67838002D01*
X162498369Y-70740369D01*
X162168008Y-71234790D01*
X162052000Y-71818000D01*
X162052000Y-76454000D01*
X162168008Y-77037210D01*
X162498369Y-77531631D01*
X163208553Y-78241815D01*
X163208553Y-78704000D01*
X163334719Y-79338278D01*
X163694008Y-79875992D01*
X164231722Y-80235281D01*
X164866000Y-80361447D01*
X165472110Y-80361447D01*
X165532790Y-80401992D01*
X166116000Y-80518000D01*
X166243000Y-80518000D01*
X166826210Y-80401992D01*
X166886890Y-80361447D01*
X167366000Y-80361447D01*
X168000278Y-80235281D01*
X168537992Y-79875992D01*
X168897281Y-79338278D01*
X169023447Y-78704000D01*
X169023447Y-78368815D01*
X169733631Y-77658631D01*
X170063992Y-77164210D01*
X170180000Y-76581000D01*
X170180000Y-75369167D01*
X170457419Y-74699419D01*
X171127167Y-74422000D01*
X172460438Y-74422000D01*
X172823581Y-74572419D01*
X172974000Y-74935562D01*
X172974000Y-77315118D01*
X173113426Y-77951932D01*
X174002426Y-79884814D01*
X174395192Y-80405106D01*
X174512787Y-80505902D01*
X174975849Y-80778133D01*
X176545031Y-81358611D01*
X177222816Y-81881742D01*
X178614287Y-87194631D01*
X178766593Y-87566781D01*
X179157399Y-88014957D01*
X179578000Y-88339587D01*
X179578000Y-90589162D01*
X179415011Y-90587310D01*
X174221773Y-90469283D01*
X173619971Y-90578362D01*
X170247825Y-91930472D01*
X169737369Y-92267369D01*
X169407008Y-92761790D01*
X168010008Y-96134446D01*
X167894000Y-96717656D01*
X167894000Y-104775000D01*
X168010008Y-105358210D01*
X168340369Y-105852631D01*
X168757800Y-106270062D01*
X168857244Y-106770002D01*
X169492808Y-107721191D01*
X170443997Y-108356756D01*
X171566000Y-108579936D01*
X172688002Y-108356756D01*
X173639191Y-107721192D01*
X174127061Y-106991044D01*
X174234719Y-107532278D01*
X174594008Y-108069992D01*
X174992001Y-108335922D01*
X174992001Y-110303631D01*
X164617400Y-120678233D01*
X164617400Y-110432600D01*
X164592000Y-110304906D01*
X164592000Y-107188000D01*
X164572665Y-107090798D01*
X164517605Y-107008395D01*
X164435202Y-106953335D01*
X164338000Y-106934000D01*
X161221094Y-106934000D01*
X161093400Y-106908600D01*
X140023600Y-106908600D01*
X139895906Y-106934000D01*
X136652000Y-106934000D01*
X136554798Y-106953335D01*
X136472395Y-107008395D01*
X136417335Y-107090798D01*
X136398000Y-107188000D01*
X136398000Y-128270000D01*
X130869262Y-128270000D01*
X127762000Y-125162738D01*
X127762000Y-121186398D01*
X127721231Y-120836252D01*
X127474331Y-120295297D01*
X127398274Y-120224454D01*
X127437576Y-120165635D01*
X127555856Y-119571000D01*
X127555856Y-117336108D01*
X127645992Y-117201210D01*
X127762000Y-116618000D01*
X127762000Y-112853936D01*
X128298617Y-109153944D01*
X129163031Y-106236546D01*
X129210043Y-106022336D01*
X129778220Y-102104740D01*
X129794000Y-101886000D01*
X129794000Y-98520000D01*
X129677174Y-97934819D01*
X129346120Y-97440861D01*
X127346128Y-95446463D01*
X126849271Y-95115981D01*
X126265739Y-95001608D01*
X121197923Y-95015804D01*
X120617011Y-95132624D01*
X120123053Y-95463678D01*
X118872000Y-96718240D01*
X118872000Y-75609262D01*
X120540369Y-77277631D01*
X121034790Y-77607992D01*
X121618000Y-77724000D01*
X126794000Y-77724000D01*
X127377210Y-77607992D01*
X127871631Y-77277631D01*
X130871631Y-74277631D01*
X131201992Y-73783210D01*
X131318000Y-73200000D01*
X131318000Y-53669262D01*
X133425262Y-51562000D01*
X141689810Y-51562000D01*
X145960024Y-53594496D01*
X145960024Y-53594496D01*
G37*
X145960024Y-53594496D02*
X155167424Y-64926681D01*
X155693329Y-65340819D01*
X160585095Y-67677541D01*
X161237731Y-67826374D01*
X165400736Y-67838002D01*
X162498369Y-70740369D01*
X162168008Y-71234790D01*
X162052000Y-71818000D01*
X162052000Y-76454000D01*
X162168008Y-77037210D01*
X162498369Y-77531631D01*
X163208553Y-78241815D01*
X163208553Y-78704000D01*
X163334719Y-79338278D01*
X163694008Y-79875992D01*
X164231722Y-80235281D01*
X164866000Y-80361447D01*
X165472110Y-80361447D01*
X165532790Y-80401992D01*
X166116000Y-80518000D01*
X166243000Y-80518000D01*
X166826210Y-80401992D01*
X166886890Y-80361447D01*
X167366000Y-80361447D01*
X168000278Y-80235281D01*
X168537992Y-79875992D01*
X168897281Y-79338278D01*
X169023447Y-78704000D01*
X169023447Y-78368815D01*
X169733631Y-77658631D01*
X170063992Y-77164210D01*
X170180000Y-76581000D01*
X170180000Y-75369167D01*
X170457419Y-74699419D01*
X171127167Y-74422000D01*
X172460438Y-74422000D01*
X172823581Y-74572419D01*
X172974000Y-74935562D01*
X172974000Y-77315118D01*
X173113426Y-77951932D01*
X174002426Y-79884814D01*
X174395192Y-80405106D01*
X174512787Y-80505902D01*
X174975849Y-80778133D01*
X176545031Y-81358611D01*
X177222816Y-81881742D01*
X178614287Y-87194631D01*
X178766593Y-87566781D01*
X179157399Y-88014957D01*
X179578000Y-88339587D01*
X179578000Y-90589162D01*
X179415011Y-90587310D01*
X174221773Y-90469283D01*
X173619971Y-90578362D01*
X170247825Y-91930472D01*
X169737369Y-92267369D01*
X169407008Y-92761790D01*
X168010008Y-96134446D01*
X167894000Y-96717656D01*
X167894000Y-104775000D01*
X168010008Y-105358210D01*
X168340369Y-105852631D01*
X168757800Y-106270062D01*
X168857244Y-106770002D01*
X169492808Y-107721191D01*
X170443997Y-108356756D01*
X171566000Y-108579936D01*
X172688002Y-108356756D01*
X173639191Y-107721192D01*
X174127061Y-106991044D01*
X174234719Y-107532278D01*
X174594008Y-108069992D01*
X174992001Y-108335922D01*
X174992001Y-110303631D01*
X164617400Y-120678233D01*
X164617400Y-110432600D01*
X164592000Y-110304906D01*
X164592000Y-107188000D01*
X164572665Y-107090798D01*
X164517605Y-107008395D01*
X164435202Y-106953335D01*
X164338000Y-106934000D01*
X161221094Y-106934000D01*
X161093400Y-106908600D01*
X140023600Y-106908600D01*
X139895906Y-106934000D01*
X136652000Y-106934000D01*
X136554798Y-106953335D01*
X136472395Y-107008395D01*
X136417335Y-107090798D01*
X136398000Y-107188000D01*
X136398000Y-128270000D01*
X130869262Y-128270000D01*
X127762000Y-125162738D01*
X127762000Y-121186398D01*
X127721231Y-120836252D01*
X127474331Y-120295297D01*
X127398274Y-120224454D01*
X127437576Y-120165635D01*
X127555856Y-119571000D01*
X127555856Y-117336108D01*
X127645992Y-117201210D01*
X127762000Y-116618000D01*
X127762000Y-112853936D01*
X128298617Y-109153944D01*
X129163031Y-106236546D01*
X129210043Y-106022336D01*
X129778220Y-102104740D01*
X129794000Y-101886000D01*
X129794000Y-98520000D01*
X129677174Y-97934819D01*
X129346120Y-97440861D01*
X127346128Y-95446463D01*
X126849271Y-95115981D01*
X126265739Y-95001608D01*
X121197923Y-95015804D01*
X120617011Y-95132624D01*
X120123053Y-95463678D01*
X118872000Y-96718240D01*
X118872000Y-75609262D01*
X120540369Y-77277631D01*
X121034790Y-77607992D01*
X121618000Y-77724000D01*
X126794000Y-77724000D01*
X127377210Y-77607992D01*
X127871631Y-77277631D01*
X130871631Y-74277631D01*
X131201992Y-73783210D01*
X131318000Y-73200000D01*
X131318000Y-53669262D01*
X133425262Y-51562000D01*
X141689810Y-51562000D01*
X145960024Y-53594496D01*
G36*
X179383262Y-92365048D02*
X179386147Y-92365098D01*
X187385114Y-92455984D01*
X187388000Y-92456000D01*
X245068790Y-92456000D01*
X247575001Y-94962211D01*
X247575001Y-118397789D01*
X245068790Y-120904000D01*
X185207210Y-120904000D01*
X181356000Y-117052790D01*
X181356000Y-104267000D01*
X181351119Y-104217447D01*
X181336665Y-104169798D01*
X181313193Y-104125885D01*
X181281605Y-104087395D01*
X179899465Y-102705255D01*
X179899465Y-102398000D01*
X179868078Y-102079327D01*
X179775125Y-101772900D01*
X179624177Y-101490495D01*
X179421034Y-101242966D01*
X179173505Y-101039823D01*
X178891100Y-100888875D01*
X178584673Y-100795922D01*
X178266000Y-100764535D01*
X177958745Y-100764535D01*
X177852605Y-100658395D01*
X177814115Y-100626807D01*
X177770202Y-100603335D01*
X177722553Y-100588881D01*
X177673000Y-100584000D01*
X174927916Y-100584000D01*
X174878363Y-100588881D01*
X174830714Y-100603335D01*
X174785516Y-100627671D01*
X173847600Y-101262671D01*
X173809303Y-101294493D01*
X173777950Y-101333175D01*
X173754746Y-101377231D01*
X173740583Y-101424967D01*
X173486583Y-102743883D01*
X173482000Y-102791916D01*
X173482000Y-104669790D01*
X171577000Y-106574790D01*
X169672000Y-104669790D01*
X169672000Y-96768179D01*
X171008754Y-93540969D01*
X174233389Y-92248006D01*
X179383262Y-92365048D01*
X179383262Y-92365048D01*
G37*
X179383262Y-92365048D02*
X179386147Y-92365098D01*
X187385114Y-92455984D01*
X187388000Y-92456000D01*
X245068790Y-92456000D01*
X247575001Y-94962211D01*
X247575001Y-118397789D01*
X245068790Y-120904000D01*
X185207210Y-120904000D01*
X181356000Y-117052790D01*
X181356000Y-104267000D01*
X181351119Y-104217447D01*
X181336665Y-104169798D01*
X181313193Y-104125885D01*
X181281605Y-104087395D01*
X179899465Y-102705255D01*
X179899465Y-102398000D01*
X179868078Y-102079327D01*
X179775125Y-101772900D01*
X179624177Y-101490495D01*
X179421034Y-101242966D01*
X179173505Y-101039823D01*
X178891100Y-100888875D01*
X178584673Y-100795922D01*
X178266000Y-100764535D01*
X177958745Y-100764535D01*
X177852605Y-100658395D01*
X177814115Y-100626807D01*
X177770202Y-100603335D01*
X177722553Y-100588881D01*
X177673000Y-100584000D01*
X174927916Y-100584000D01*
X174878363Y-100588881D01*
X174830714Y-100603335D01*
X174785516Y-100627671D01*
X173847600Y-101262671D01*
X173809303Y-101294493D01*
X173777950Y-101333175D01*
X173754746Y-101377231D01*
X173740583Y-101424967D01*
X173486583Y-102743883D01*
X173482000Y-102791916D01*
X173482000Y-104669790D01*
X171577000Y-106574790D01*
X169672000Y-104669790D01*
X169672000Y-96768179D01*
X171008754Y-93540969D01*
X174233389Y-92248006D01*
X179383262Y-92365048D01*
G36*
X117094000Y-51869789D02*
X115706309Y-50482099D01*
X115680855Y-50451083D01*
X115557090Y-50349512D01*
X115415888Y-50274038D01*
X115262675Y-50227561D01*
X115143261Y-50215800D01*
X115143258Y-50215800D01*
X115103338Y-50211868D01*
X115063418Y-50215800D01*
X108254800Y-50215800D01*
X108254800Y-48006000D01*
X108212264Y-47792156D01*
X108091131Y-47610869D01*
X107329131Y-46848869D01*
X107147844Y-46727736D01*
X106934000Y-46685200D01*
X97832800Y-46685200D01*
X97832800Y-45010007D01*
X97837922Y-44958000D01*
X97832800Y-44905993D01*
X97832800Y-44905985D01*
X97817480Y-44750439D01*
X97816041Y-44745693D01*
X97756937Y-44550854D01*
X97694518Y-44434077D01*
X97658620Y-44366916D01*
X97602257Y-44298238D01*
X97559465Y-44246095D01*
X97559461Y-44246091D01*
X97526307Y-44205693D01*
X97485909Y-44172539D01*
X95781470Y-42468101D01*
X95748307Y-42427693D01*
X95587084Y-42295380D01*
X95403146Y-42197063D01*
X95203561Y-42136520D01*
X95048015Y-42121200D01*
X95048007Y-42121200D01*
X94996000Y-42116078D01*
X94943993Y-42121200D01*
X88952015Y-42121200D01*
X88900000Y-42116077D01*
X88692438Y-42136520D01*
X88492854Y-42197063D01*
X88308916Y-42295380D01*
X88240238Y-42351743D01*
X88188095Y-42394535D01*
X88188091Y-42394539D01*
X88147693Y-42427693D01*
X88114539Y-42468091D01*
X81330102Y-49252530D01*
X81289693Y-49285693D01*
X81157380Y-49446916D01*
X81068654Y-49612912D01*
X81059063Y-49630855D01*
X81009576Y-49793994D01*
X80998520Y-49830440D01*
X80983200Y-49985986D01*
X80983200Y-49985993D01*
X80978078Y-50038000D01*
X80983200Y-50090007D01*
X80983201Y-73099983D01*
X80978078Y-73152000D01*
X80998520Y-73359561D01*
X81059063Y-73559145D01*
X81104829Y-73644766D01*
X81157381Y-73743084D01*
X81289694Y-73904307D01*
X81330097Y-73937465D01*
X87841200Y-80448570D01*
X87841200Y-89935646D01*
X87712617Y-89625218D01*
X87410700Y-89173367D01*
X87026433Y-88789100D01*
X86574582Y-88487183D01*
X86072512Y-88279219D01*
X85539518Y-88173200D01*
X84996082Y-88173200D01*
X84463088Y-88279219D01*
X83961018Y-88487183D01*
X83509167Y-88789100D01*
X83124900Y-89173367D01*
X82822983Y-89625218D01*
X82615019Y-90127288D01*
X82509000Y-90660282D01*
X82509000Y-91203718D01*
X82615019Y-91736712D01*
X82822983Y-92238782D01*
X83124900Y-92690633D01*
X83509167Y-93074900D01*
X83961018Y-93376817D01*
X84463088Y-93584781D01*
X84996082Y-93690800D01*
X85539518Y-93690800D01*
X86072512Y-93584781D01*
X86574582Y-93376817D01*
X87026433Y-93074900D01*
X87410700Y-92690633D01*
X87712617Y-92238782D01*
X87841200Y-91928354D01*
X87841201Y-131233983D01*
X87836078Y-131286000D01*
X87856520Y-131493561D01*
X87917063Y-131693145D01*
X87949610Y-131754036D01*
X88015381Y-131877084D01*
X88147694Y-132038307D01*
X88188097Y-132071465D01*
X89670534Y-133553903D01*
X89703693Y-133594307D01*
X89864916Y-133726620D01*
X90048854Y-133824937D01*
X90201986Y-133871389D01*
X90248438Y-133885480D01*
X90267924Y-133887399D01*
X90403985Y-133900800D01*
X90403992Y-133900800D01*
X90455999Y-133905922D01*
X90508006Y-133900800D01*
X91578651Y-133900800D01*
X91610401Y-133917771D01*
X91828836Y-133984032D01*
X91999082Y-134000800D01*
X92912918Y-134000800D01*
X93083164Y-133984032D01*
X93301599Y-133917771D01*
X93333349Y-133900800D01*
X96770493Y-133900800D01*
X96822500Y-133905922D01*
X96874507Y-133900800D01*
X96874515Y-133900800D01*
X97030061Y-133885480D01*
X97148662Y-133849503D01*
X97724000Y-133849503D01*
X97833544Y-133838714D01*
X97938878Y-133806761D01*
X98035954Y-133754873D01*
X98044000Y-133748270D01*
X98052046Y-133754873D01*
X98149122Y-133806761D01*
X98254456Y-133838714D01*
X98364000Y-133849503D01*
X99659000Y-133849503D01*
X99768544Y-133838714D01*
X99873878Y-133806761D01*
X99970954Y-133754873D01*
X100056043Y-133685043D01*
X100125873Y-133599954D01*
X100177761Y-133502878D01*
X100209714Y-133397544D01*
X100220503Y-133288000D01*
X100220503Y-131888000D01*
X100209714Y-131778456D01*
X100177761Y-131673122D01*
X100126459Y-131577142D01*
X100139671Y-131566300D01*
X101688611Y-131566300D01*
X101621537Y-131666683D01*
X101515339Y-131923068D01*
X101461200Y-132195245D01*
X101461200Y-132472755D01*
X101515339Y-132744932D01*
X101621537Y-133001317D01*
X101775713Y-133232058D01*
X101971942Y-133428287D01*
X102202683Y-133582463D01*
X102459068Y-133688661D01*
X102731245Y-133742800D01*
X103008755Y-133742800D01*
X103280932Y-133688661D01*
X103537317Y-133582463D01*
X103768058Y-133428287D01*
X103803545Y-133392800D01*
X108473272Y-133392800D01*
X108525279Y-133397922D01*
X108577286Y-133392800D01*
X108577294Y-133392800D01*
X108732840Y-133377480D01*
X108932425Y-133316937D01*
X109116363Y-133218620D01*
X109277586Y-133086307D01*
X109310749Y-133045898D01*
X111236713Y-131119935D01*
X111277117Y-131086776D01*
X111409430Y-130925553D01*
X111507747Y-130741615D01*
X111517493Y-130709486D01*
X111568290Y-130542031D01*
X111572377Y-130500536D01*
X111583610Y-130386484D01*
X111583610Y-130386476D01*
X111588732Y-130334469D01*
X111583610Y-130282462D01*
X111583610Y-124163082D01*
X112681033Y-125260506D01*
X112706483Y-125291517D01*
X112830248Y-125393088D01*
X112971450Y-125468562D01*
X113124663Y-125515039D01*
X113244077Y-125526800D01*
X113244079Y-125526800D01*
X113283999Y-125530732D01*
X113323920Y-125526800D01*
X116338080Y-125526800D01*
X116378000Y-125530732D01*
X116417920Y-125526800D01*
X116417923Y-125526800D01*
X116537337Y-125515039D01*
X116690550Y-125468562D01*
X116831752Y-125393088D01*
X116955517Y-125291517D01*
X116980972Y-125260500D01*
X117094000Y-125147472D01*
X117094000Y-135458785D01*
X117086005Y-135439483D01*
X116931829Y-135208742D01*
X116735600Y-135012513D01*
X116504859Y-134858337D01*
X116248474Y-134752139D01*
X115976297Y-134698000D01*
X115698787Y-134698000D01*
X115426610Y-134752139D01*
X115170225Y-134858337D01*
X114939484Y-135012513D01*
X114743255Y-135208742D01*
X114589079Y-135439483D01*
X114482881Y-135695868D01*
X114428742Y-135968045D01*
X114428742Y-136018231D01*
X108503774Y-141943200D01*
X93333349Y-141943200D01*
X93301599Y-141926229D01*
X93083164Y-141859968D01*
X92912918Y-141843200D01*
X91999082Y-141843200D01*
X91828836Y-141859968D01*
X91610401Y-141926229D01*
X91409091Y-142033832D01*
X91232641Y-142178641D01*
X91087832Y-142355091D01*
X90980229Y-142556401D01*
X90913968Y-142774836D01*
X90891594Y-143002000D01*
X90913968Y-143229164D01*
X90980229Y-143447599D01*
X91087832Y-143648909D01*
X91232641Y-143825359D01*
X91409091Y-143970168D01*
X91610401Y-144077771D01*
X91828836Y-144144032D01*
X91999082Y-144160800D01*
X92912918Y-144160800D01*
X93083164Y-144144032D01*
X93301599Y-144077771D01*
X93333349Y-144060800D01*
X108890335Y-144060800D01*
X108942342Y-144065922D01*
X108994349Y-144060800D01*
X108994357Y-144060800D01*
X109149903Y-144045480D01*
X109349488Y-143984937D01*
X109533426Y-143886620D01*
X109694649Y-143754307D01*
X109727812Y-143713898D01*
X115926111Y-137515600D01*
X115976297Y-137515600D01*
X116248474Y-137461461D01*
X116504859Y-137355263D01*
X116735600Y-137201087D01*
X116931829Y-137004858D01*
X117086005Y-136774117D01*
X117094000Y-136754815D01*
X117094000Y-148592016D01*
X53848000Y-149095968D01*
X53848000Y-140462000D01*
X90891594Y-140462000D01*
X90913968Y-140689164D01*
X90980229Y-140907599D01*
X91087832Y-141108909D01*
X91232641Y-141285359D01*
X91315102Y-141353033D01*
X91370484Y-141420516D01*
X91494249Y-141522088D01*
X91635451Y-141597562D01*
X91788664Y-141644038D01*
X91948000Y-141659732D01*
X92107336Y-141644038D01*
X92183943Y-141620800D01*
X92912918Y-141620800D01*
X93083164Y-141604032D01*
X93301599Y-141537771D01*
X93502909Y-141430168D01*
X93679359Y-141285359D01*
X93824168Y-141108909D01*
X93931771Y-140907599D01*
X93998032Y-140689164D01*
X94020406Y-140462000D01*
X93998032Y-140234836D01*
X93931771Y-140016401D01*
X93824168Y-139815091D01*
X93679359Y-139638641D01*
X93502909Y-139493832D01*
X93301599Y-139386229D01*
X93083164Y-139319968D01*
X92912918Y-139303200D01*
X91999082Y-139303200D01*
X91828836Y-139319968D01*
X91610401Y-139386229D01*
X91409091Y-139493832D01*
X91232641Y-139638641D01*
X91087832Y-139815091D01*
X90980229Y-140016401D01*
X90913968Y-140234836D01*
X90891594Y-140462000D01*
X53848000Y-140462000D01*
X53848000Y-135382000D01*
X90891594Y-135382000D01*
X90913968Y-135609164D01*
X90980229Y-135827599D01*
X91087832Y-136028909D01*
X91232641Y-136205359D01*
X91409091Y-136350168D01*
X91610401Y-136457771D01*
X91828836Y-136524032D01*
X91999082Y-136540800D01*
X92912918Y-136540800D01*
X93083164Y-136524032D01*
X93301599Y-136457771D01*
X93502909Y-136350168D01*
X93679359Y-136205359D01*
X93824168Y-136028909D01*
X93931771Y-135827599D01*
X93998032Y-135609164D01*
X94020406Y-135382000D01*
X93998032Y-135154836D01*
X93931771Y-134936401D01*
X93824168Y-134735091D01*
X93679359Y-134558641D01*
X93502909Y-134413832D01*
X93301599Y-134306229D01*
X93083164Y-134239968D01*
X92912918Y-134223200D01*
X91999082Y-134223200D01*
X91828836Y-134239968D01*
X91610401Y-134306229D01*
X91409091Y-134413832D01*
X91232641Y-134558641D01*
X91087832Y-134735091D01*
X90980229Y-134936401D01*
X90913968Y-135154836D01*
X90891594Y-135382000D01*
X53848000Y-135382000D01*
X53848000Y-114662282D01*
X59598200Y-114662282D01*
X59598200Y-115205718D01*
X59704219Y-115738712D01*
X59912183Y-116240782D01*
X60214100Y-116692633D01*
X60598367Y-117076900D01*
X61050218Y-117378817D01*
X61552288Y-117586781D01*
X62085282Y-117692800D01*
X62628718Y-117692800D01*
X63161712Y-117586781D01*
X63663782Y-117378817D01*
X64115633Y-117076900D01*
X64499900Y-116692633D01*
X64801817Y-116240782D01*
X65009781Y-115738712D01*
X65115800Y-115205718D01*
X65115800Y-114662282D01*
X65009781Y-114129288D01*
X64801817Y-113627218D01*
X64499900Y-113175367D01*
X64115633Y-112791100D01*
X63663782Y-112489183D01*
X63161712Y-112281219D01*
X62628718Y-112175200D01*
X62085282Y-112175200D01*
X61552288Y-112281219D01*
X61050218Y-112489183D01*
X60598367Y-112791100D01*
X60214100Y-113175367D01*
X59912183Y-113627218D01*
X59704219Y-114129288D01*
X59598200Y-114662282D01*
X53848000Y-114662282D01*
X53848000Y-46083282D01*
X70266200Y-46083282D01*
X70266200Y-46626718D01*
X70372219Y-47159712D01*
X70580183Y-47661782D01*
X70882100Y-48113633D01*
X71266367Y-48497900D01*
X71718218Y-48799817D01*
X72220288Y-49007781D01*
X72753282Y-49113800D01*
X73296718Y-49113800D01*
X73829712Y-49007781D01*
X74331782Y-48799817D01*
X74783633Y-48497900D01*
X75167900Y-48113633D01*
X75469817Y-47661782D01*
X75677781Y-47159712D01*
X75783800Y-46626718D01*
X75783800Y-46083282D01*
X75677781Y-45550288D01*
X75469817Y-45048218D01*
X75167900Y-44596367D01*
X74783633Y-44212100D01*
X74331782Y-43910183D01*
X73829712Y-43702219D01*
X73296718Y-43596200D01*
X72753282Y-43596200D01*
X72220288Y-43702219D01*
X71718218Y-43910183D01*
X71266367Y-44212100D01*
X70882100Y-44596367D01*
X70580183Y-45048218D01*
X70372219Y-45550288D01*
X70266200Y-46083282D01*
X53848000Y-46083282D01*
X53848000Y-38100000D01*
X117094000Y-38100000D01*
X117094000Y-51869789D01*
X117094000Y-51869789D01*
G37*
X117094000Y-51869789D02*
X115706309Y-50482099D01*
X115680855Y-50451083D01*
X115557090Y-50349512D01*
X115415888Y-50274038D01*
X115262675Y-50227561D01*
X115143261Y-50215800D01*
X115143258Y-50215800D01*
X115103338Y-50211868D01*
X115063418Y-50215800D01*
X108254800Y-50215800D01*
X108254800Y-48006000D01*
X108212264Y-47792156D01*
X108091131Y-47610869D01*
X107329131Y-46848869D01*
X107147844Y-46727736D01*
X106934000Y-46685200D01*
X97832800Y-46685200D01*
X97832800Y-45010007D01*
X97837922Y-44958000D01*
X97832800Y-44905993D01*
X97832800Y-44905985D01*
X97817480Y-44750439D01*
X97816041Y-44745693D01*
X97756937Y-44550854D01*
X97694518Y-44434077D01*
X97658620Y-44366916D01*
X97602257Y-44298238D01*
X97559465Y-44246095D01*
X97559461Y-44246091D01*
X97526307Y-44205693D01*
X97485909Y-44172539D01*
X95781470Y-42468101D01*
X95748307Y-42427693D01*
X95587084Y-42295380D01*
X95403146Y-42197063D01*
X95203561Y-42136520D01*
X95048015Y-42121200D01*
X95048007Y-42121200D01*
X94996000Y-42116078D01*
X94943993Y-42121200D01*
X88952015Y-42121200D01*
X88900000Y-42116077D01*
X88692438Y-42136520D01*
X88492854Y-42197063D01*
X88308916Y-42295380D01*
X88240238Y-42351743D01*
X88188095Y-42394535D01*
X88188091Y-42394539D01*
X88147693Y-42427693D01*
X88114539Y-42468091D01*
X81330102Y-49252530D01*
X81289693Y-49285693D01*
X81157380Y-49446916D01*
X81068654Y-49612912D01*
X81059063Y-49630855D01*
X81009576Y-49793994D01*
X80998520Y-49830440D01*
X80983200Y-49985986D01*
X80983200Y-49985993D01*
X80978078Y-50038000D01*
X80983200Y-50090007D01*
X80983201Y-73099983D01*
X80978078Y-73152000D01*
X80998520Y-73359561D01*
X81059063Y-73559145D01*
X81104829Y-73644766D01*
X81157381Y-73743084D01*
X81289694Y-73904307D01*
X81330097Y-73937465D01*
X87841200Y-80448570D01*
X87841200Y-89935646D01*
X87712617Y-89625218D01*
X87410700Y-89173367D01*
X87026433Y-88789100D01*
X86574582Y-88487183D01*
X86072512Y-88279219D01*
X85539518Y-88173200D01*
X84996082Y-88173200D01*
X84463088Y-88279219D01*
X83961018Y-88487183D01*
X83509167Y-88789100D01*
X83124900Y-89173367D01*
X82822983Y-89625218D01*
X82615019Y-90127288D01*
X82509000Y-90660282D01*
X82509000Y-91203718D01*
X82615019Y-91736712D01*
X82822983Y-92238782D01*
X83124900Y-92690633D01*
X83509167Y-93074900D01*
X83961018Y-93376817D01*
X84463088Y-93584781D01*
X84996082Y-93690800D01*
X85539518Y-93690800D01*
X86072512Y-93584781D01*
X86574582Y-93376817D01*
X87026433Y-93074900D01*
X87410700Y-92690633D01*
X87712617Y-92238782D01*
X87841200Y-91928354D01*
X87841201Y-131233983D01*
X87836078Y-131286000D01*
X87856520Y-131493561D01*
X87917063Y-131693145D01*
X87949610Y-131754036D01*
X88015381Y-131877084D01*
X88147694Y-132038307D01*
X88188097Y-132071465D01*
X89670534Y-133553903D01*
X89703693Y-133594307D01*
X89864916Y-133726620D01*
X90048854Y-133824937D01*
X90201986Y-133871389D01*
X90248438Y-133885480D01*
X90267924Y-133887399D01*
X90403985Y-133900800D01*
X90403992Y-133900800D01*
X90455999Y-133905922D01*
X90508006Y-133900800D01*
X91578651Y-133900800D01*
X91610401Y-133917771D01*
X91828836Y-133984032D01*
X91999082Y-134000800D01*
X92912918Y-134000800D01*
X93083164Y-133984032D01*
X93301599Y-133917771D01*
X93333349Y-133900800D01*
X96770493Y-133900800D01*
X96822500Y-133905922D01*
X96874507Y-133900800D01*
X96874515Y-133900800D01*
X97030061Y-133885480D01*
X97148662Y-133849503D01*
X97724000Y-133849503D01*
X97833544Y-133838714D01*
X97938878Y-133806761D01*
X98035954Y-133754873D01*
X98044000Y-133748270D01*
X98052046Y-133754873D01*
X98149122Y-133806761D01*
X98254456Y-133838714D01*
X98364000Y-133849503D01*
X99659000Y-133849503D01*
X99768544Y-133838714D01*
X99873878Y-133806761D01*
X99970954Y-133754873D01*
X100056043Y-133685043D01*
X100125873Y-133599954D01*
X100177761Y-133502878D01*
X100209714Y-133397544D01*
X100220503Y-133288000D01*
X100220503Y-131888000D01*
X100209714Y-131778456D01*
X100177761Y-131673122D01*
X100126459Y-131577142D01*
X100139671Y-131566300D01*
X101688611Y-131566300D01*
X101621537Y-131666683D01*
X101515339Y-131923068D01*
X101461200Y-132195245D01*
X101461200Y-132472755D01*
X101515339Y-132744932D01*
X101621537Y-133001317D01*
X101775713Y-133232058D01*
X101971942Y-133428287D01*
X102202683Y-133582463D01*
X102459068Y-133688661D01*
X102731245Y-133742800D01*
X103008755Y-133742800D01*
X103280932Y-133688661D01*
X103537317Y-133582463D01*
X103768058Y-133428287D01*
X103803545Y-133392800D01*
X108473272Y-133392800D01*
X108525279Y-133397922D01*
X108577286Y-133392800D01*
X108577294Y-133392800D01*
X108732840Y-133377480D01*
X108932425Y-133316937D01*
X109116363Y-133218620D01*
X109277586Y-133086307D01*
X109310749Y-133045898D01*
X111236713Y-131119935D01*
X111277117Y-131086776D01*
X111409430Y-130925553D01*
X111507747Y-130741615D01*
X111517493Y-130709486D01*
X111568290Y-130542031D01*
X111572377Y-130500536D01*
X111583610Y-130386484D01*
X111583610Y-130386476D01*
X111588732Y-130334469D01*
X111583610Y-130282462D01*
X111583610Y-124163082D01*
X112681033Y-125260506D01*
X112706483Y-125291517D01*
X112830248Y-125393088D01*
X112971450Y-125468562D01*
X113124663Y-125515039D01*
X113244077Y-125526800D01*
X113244079Y-125526800D01*
X113283999Y-125530732D01*
X113323920Y-125526800D01*
X116338080Y-125526800D01*
X116378000Y-125530732D01*
X116417920Y-125526800D01*
X116417923Y-125526800D01*
X116537337Y-125515039D01*
X116690550Y-125468562D01*
X116831752Y-125393088D01*
X116955517Y-125291517D01*
X116980972Y-125260500D01*
X117094000Y-125147472D01*
X117094000Y-135458785D01*
X117086005Y-135439483D01*
X116931829Y-135208742D01*
X116735600Y-135012513D01*
X116504859Y-134858337D01*
X116248474Y-134752139D01*
X115976297Y-134698000D01*
X115698787Y-134698000D01*
X115426610Y-134752139D01*
X115170225Y-134858337D01*
X114939484Y-135012513D01*
X114743255Y-135208742D01*
X114589079Y-135439483D01*
X114482881Y-135695868D01*
X114428742Y-135968045D01*
X114428742Y-136018231D01*
X108503774Y-141943200D01*
X93333349Y-141943200D01*
X93301599Y-141926229D01*
X93083164Y-141859968D01*
X92912918Y-141843200D01*
X91999082Y-141843200D01*
X91828836Y-141859968D01*
X91610401Y-141926229D01*
X91409091Y-142033832D01*
X91232641Y-142178641D01*
X91087832Y-142355091D01*
X90980229Y-142556401D01*
X90913968Y-142774836D01*
X90891594Y-143002000D01*
X90913968Y-143229164D01*
X90980229Y-143447599D01*
X91087832Y-143648909D01*
X91232641Y-143825359D01*
X91409091Y-143970168D01*
X91610401Y-144077771D01*
X91828836Y-144144032D01*
X91999082Y-144160800D01*
X92912918Y-144160800D01*
X93083164Y-144144032D01*
X93301599Y-144077771D01*
X93333349Y-144060800D01*
X108890335Y-144060800D01*
X108942342Y-144065922D01*
X108994349Y-144060800D01*
X108994357Y-144060800D01*
X109149903Y-144045480D01*
X109349488Y-143984937D01*
X109533426Y-143886620D01*
X109694649Y-143754307D01*
X109727812Y-143713898D01*
X115926111Y-137515600D01*
X115976297Y-137515600D01*
X116248474Y-137461461D01*
X116504859Y-137355263D01*
X116735600Y-137201087D01*
X116931829Y-137004858D01*
X117086005Y-136774117D01*
X117094000Y-136754815D01*
X117094000Y-148592016D01*
X53848000Y-149095968D01*
X53848000Y-140462000D01*
X90891594Y-140462000D01*
X90913968Y-140689164D01*
X90980229Y-140907599D01*
X91087832Y-141108909D01*
X91232641Y-141285359D01*
X91315102Y-141353033D01*
X91370484Y-141420516D01*
X91494249Y-141522088D01*
X91635451Y-141597562D01*
X91788664Y-141644038D01*
X91948000Y-141659732D01*
X92107336Y-141644038D01*
X92183943Y-141620800D01*
X92912918Y-141620800D01*
X93083164Y-141604032D01*
X93301599Y-141537771D01*
X93502909Y-141430168D01*
X93679359Y-141285359D01*
X93824168Y-141108909D01*
X93931771Y-140907599D01*
X93998032Y-140689164D01*
X94020406Y-140462000D01*
X93998032Y-140234836D01*
X93931771Y-140016401D01*
X93824168Y-139815091D01*
X93679359Y-139638641D01*
X93502909Y-139493832D01*
X93301599Y-139386229D01*
X93083164Y-139319968D01*
X92912918Y-139303200D01*
X91999082Y-139303200D01*
X91828836Y-139319968D01*
X91610401Y-139386229D01*
X91409091Y-139493832D01*
X91232641Y-139638641D01*
X91087832Y-139815091D01*
X90980229Y-140016401D01*
X90913968Y-140234836D01*
X90891594Y-140462000D01*
X53848000Y-140462000D01*
X53848000Y-135382000D01*
X90891594Y-135382000D01*
X90913968Y-135609164D01*
X90980229Y-135827599D01*
X91087832Y-136028909D01*
X91232641Y-136205359D01*
X91409091Y-136350168D01*
X91610401Y-136457771D01*
X91828836Y-136524032D01*
X91999082Y-136540800D01*
X92912918Y-136540800D01*
X93083164Y-136524032D01*
X93301599Y-136457771D01*
X93502909Y-136350168D01*
X93679359Y-136205359D01*
X93824168Y-136028909D01*
X93931771Y-135827599D01*
X93998032Y-135609164D01*
X94020406Y-135382000D01*
X93998032Y-135154836D01*
X93931771Y-134936401D01*
X93824168Y-134735091D01*
X93679359Y-134558641D01*
X93502909Y-134413832D01*
X93301599Y-134306229D01*
X93083164Y-134239968D01*
X92912918Y-134223200D01*
X91999082Y-134223200D01*
X91828836Y-134239968D01*
X91610401Y-134306229D01*
X91409091Y-134413832D01*
X91232641Y-134558641D01*
X91087832Y-134735091D01*
X90980229Y-134936401D01*
X90913968Y-135154836D01*
X90891594Y-135382000D01*
X53848000Y-135382000D01*
X53848000Y-114662282D01*
X59598200Y-114662282D01*
X59598200Y-115205718D01*
X59704219Y-115738712D01*
X59912183Y-116240782D01*
X60214100Y-116692633D01*
X60598367Y-117076900D01*
X61050218Y-117378817D01*
X61552288Y-117586781D01*
X62085282Y-117692800D01*
X62628718Y-117692800D01*
X63161712Y-117586781D01*
X63663782Y-117378817D01*
X64115633Y-117076900D01*
X64499900Y-116692633D01*
X64801817Y-116240782D01*
X65009781Y-115738712D01*
X65115800Y-115205718D01*
X65115800Y-114662282D01*
X65009781Y-114129288D01*
X64801817Y-113627218D01*
X64499900Y-113175367D01*
X64115633Y-112791100D01*
X63663782Y-112489183D01*
X63161712Y-112281219D01*
X62628718Y-112175200D01*
X62085282Y-112175200D01*
X61552288Y-112281219D01*
X61050218Y-112489183D01*
X60598367Y-112791100D01*
X60214100Y-113175367D01*
X59912183Y-113627218D01*
X59704219Y-114129288D01*
X59598200Y-114662282D01*
X53848000Y-114662282D01*
X53848000Y-46083282D01*
X70266200Y-46083282D01*
X70266200Y-46626718D01*
X70372219Y-47159712D01*
X70580183Y-47661782D01*
X70882100Y-48113633D01*
X71266367Y-48497900D01*
X71718218Y-48799817D01*
X72220288Y-49007781D01*
X72753282Y-49113800D01*
X73296718Y-49113800D01*
X73829712Y-49007781D01*
X74331782Y-48799817D01*
X74783633Y-48497900D01*
X75167900Y-48113633D01*
X75469817Y-47661782D01*
X75677781Y-47159712D01*
X75783800Y-46626718D01*
X75783800Y-46083282D01*
X75677781Y-45550288D01*
X75469817Y-45048218D01*
X75167900Y-44596367D01*
X74783633Y-44212100D01*
X74331782Y-43910183D01*
X73829712Y-43702219D01*
X73296718Y-43596200D01*
X72753282Y-43596200D01*
X72220288Y-43702219D01*
X71718218Y-43910183D01*
X71266367Y-44212100D01*
X70882100Y-44596367D01*
X70580183Y-45048218D01*
X70372219Y-45550288D01*
X70266200Y-46083282D01*
X53848000Y-46083282D01*
X53848000Y-38100000D01*
X117094000Y-38100000D01*
X117094000Y-51869789D01*
G36*
X91416534Y-123393903D02*
X91449693Y-123434307D01*
X91610916Y-123566620D01*
X91794854Y-123664937D01*
X91947986Y-123711389D01*
X91994438Y-123725480D01*
X92013924Y-123727399D01*
X92149985Y-123740800D01*
X92149992Y-123740800D01*
X92201999Y-123745922D01*
X92254006Y-123740800D01*
X96843432Y-123740800D01*
X98255200Y-125152569D01*
X98255201Y-127373819D01*
X98250456Y-127374286D01*
X98145122Y-127406239D01*
X98048046Y-127458127D01*
X97962957Y-127527957D01*
X97893127Y-127613046D01*
X97841239Y-127710122D01*
X97809286Y-127815456D01*
X97798497Y-127925000D01*
X97798497Y-129220000D01*
X97806994Y-129306277D01*
X97728000Y-129298497D01*
X96328000Y-129298497D01*
X96218456Y-129309286D01*
X96113122Y-129341239D01*
X96016046Y-129393127D01*
X95930957Y-129462957D01*
X95861127Y-129548046D01*
X95809239Y-129645122D01*
X95777286Y-129750456D01*
X95766497Y-129860000D01*
X95766497Y-130181338D01*
X95730520Y-130299939D01*
X95710078Y-130507500D01*
X95730520Y-130715061D01*
X95766497Y-130833662D01*
X95766497Y-131155000D01*
X95777286Y-131264544D01*
X95809239Y-131369878D01*
X95861127Y-131466954D01*
X95930957Y-131552043D01*
X95961541Y-131577142D01*
X95910239Y-131673122D01*
X95878286Y-131778456D01*
X95877819Y-131783200D01*
X93333349Y-131783200D01*
X93301599Y-131766229D01*
X93083164Y-131699968D01*
X92912918Y-131683200D01*
X91999082Y-131683200D01*
X91828836Y-131699968D01*
X91610401Y-131766229D01*
X91578651Y-131783200D01*
X90894569Y-131783200D01*
X89958800Y-130847432D01*
X89958800Y-130302000D01*
X90891594Y-130302000D01*
X90913968Y-130529164D01*
X90980229Y-130747599D01*
X91087832Y-130948909D01*
X91232641Y-131125359D01*
X91409091Y-131270168D01*
X91610401Y-131377771D01*
X91828836Y-131444032D01*
X91999082Y-131460800D01*
X92912918Y-131460800D01*
X93083164Y-131444032D01*
X93301599Y-131377771D01*
X93502909Y-131270168D01*
X93679359Y-131125359D01*
X93824168Y-130948909D01*
X93931771Y-130747599D01*
X93998032Y-130529164D01*
X94020406Y-130302000D01*
X93998032Y-130074836D01*
X93931771Y-129856401D01*
X93824168Y-129655091D01*
X93679359Y-129478641D01*
X93502909Y-129333832D01*
X93301599Y-129226229D01*
X93083164Y-129159968D01*
X92912918Y-129143200D01*
X91999082Y-129143200D01*
X91828836Y-129159968D01*
X91610401Y-129226229D01*
X91409091Y-129333832D01*
X91232641Y-129478641D01*
X91087832Y-129655091D01*
X90980229Y-129856401D01*
X90913968Y-130074836D01*
X90891594Y-130302000D01*
X89958800Y-130302000D01*
X89958800Y-125222000D01*
X90891594Y-125222000D01*
X90913968Y-125449164D01*
X90980229Y-125667599D01*
X91087832Y-125868909D01*
X91232641Y-126045359D01*
X91409091Y-126190168D01*
X91610401Y-126297771D01*
X91828836Y-126364032D01*
X91999082Y-126380800D01*
X92912918Y-126380800D01*
X93083164Y-126364032D01*
X93301599Y-126297771D01*
X93502909Y-126190168D01*
X93679359Y-126045359D01*
X93824168Y-125868909D01*
X93931771Y-125667599D01*
X93998032Y-125449164D01*
X94020406Y-125222000D01*
X93998032Y-124994836D01*
X93931771Y-124776401D01*
X93824168Y-124575091D01*
X93679359Y-124398641D01*
X93502909Y-124253832D01*
X93301599Y-124146229D01*
X93083164Y-124079968D01*
X92912918Y-124063200D01*
X91999082Y-124063200D01*
X91828836Y-124079968D01*
X91610401Y-124146229D01*
X91409091Y-124253832D01*
X91232641Y-124398641D01*
X91087832Y-124575091D01*
X90980229Y-124776401D01*
X90913968Y-124994836D01*
X90891594Y-125222000D01*
X89958800Y-125222000D01*
X89958800Y-121936168D01*
X91416534Y-123393903D01*
X91416534Y-123393903D01*
G37*
X91416534Y-123393903D02*
X91449693Y-123434307D01*
X91610916Y-123566620D01*
X91794854Y-123664937D01*
X91947986Y-123711389D01*
X91994438Y-123725480D01*
X92013924Y-123727399D01*
X92149985Y-123740800D01*
X92149992Y-123740800D01*
X92201999Y-123745922D01*
X92254006Y-123740800D01*
X96843432Y-123740800D01*
X98255200Y-125152569D01*
X98255201Y-127373819D01*
X98250456Y-127374286D01*
X98145122Y-127406239D01*
X98048046Y-127458127D01*
X97962957Y-127527957D01*
X97893127Y-127613046D01*
X97841239Y-127710122D01*
X97809286Y-127815456D01*
X97798497Y-127925000D01*
X97798497Y-129220000D01*
X97806994Y-129306277D01*
X97728000Y-129298497D01*
X96328000Y-129298497D01*
X96218456Y-129309286D01*
X96113122Y-129341239D01*
X96016046Y-129393127D01*
X95930957Y-129462957D01*
X95861127Y-129548046D01*
X95809239Y-129645122D01*
X95777286Y-129750456D01*
X95766497Y-129860000D01*
X95766497Y-130181338D01*
X95730520Y-130299939D01*
X95710078Y-130507500D01*
X95730520Y-130715061D01*
X95766497Y-130833662D01*
X95766497Y-131155000D01*
X95777286Y-131264544D01*
X95809239Y-131369878D01*
X95861127Y-131466954D01*
X95930957Y-131552043D01*
X95961541Y-131577142D01*
X95910239Y-131673122D01*
X95878286Y-131778456D01*
X95877819Y-131783200D01*
X93333349Y-131783200D01*
X93301599Y-131766229D01*
X93083164Y-131699968D01*
X92912918Y-131683200D01*
X91999082Y-131683200D01*
X91828836Y-131699968D01*
X91610401Y-131766229D01*
X91578651Y-131783200D01*
X90894569Y-131783200D01*
X89958800Y-130847432D01*
X89958800Y-130302000D01*
X90891594Y-130302000D01*
X90913968Y-130529164D01*
X90980229Y-130747599D01*
X91087832Y-130948909D01*
X91232641Y-131125359D01*
X91409091Y-131270168D01*
X91610401Y-131377771D01*
X91828836Y-131444032D01*
X91999082Y-131460800D01*
X92912918Y-131460800D01*
X93083164Y-131444032D01*
X93301599Y-131377771D01*
X93502909Y-131270168D01*
X93679359Y-131125359D01*
X93824168Y-130948909D01*
X93931771Y-130747599D01*
X93998032Y-130529164D01*
X94020406Y-130302000D01*
X93998032Y-130074836D01*
X93931771Y-129856401D01*
X93824168Y-129655091D01*
X93679359Y-129478641D01*
X93502909Y-129333832D01*
X93301599Y-129226229D01*
X93083164Y-129159968D01*
X92912918Y-129143200D01*
X91999082Y-129143200D01*
X91828836Y-129159968D01*
X91610401Y-129226229D01*
X91409091Y-129333832D01*
X91232641Y-129478641D01*
X91087832Y-129655091D01*
X90980229Y-129856401D01*
X90913968Y-130074836D01*
X90891594Y-130302000D01*
X89958800Y-130302000D01*
X89958800Y-125222000D01*
X90891594Y-125222000D01*
X90913968Y-125449164D01*
X90980229Y-125667599D01*
X91087832Y-125868909D01*
X91232641Y-126045359D01*
X91409091Y-126190168D01*
X91610401Y-126297771D01*
X91828836Y-126364032D01*
X91999082Y-126380800D01*
X92912918Y-126380800D01*
X93083164Y-126364032D01*
X93301599Y-126297771D01*
X93502909Y-126190168D01*
X93679359Y-126045359D01*
X93824168Y-125868909D01*
X93931771Y-125667599D01*
X93998032Y-125449164D01*
X94020406Y-125222000D01*
X93998032Y-124994836D01*
X93931771Y-124776401D01*
X93824168Y-124575091D01*
X93679359Y-124398641D01*
X93502909Y-124253832D01*
X93301599Y-124146229D01*
X93083164Y-124079968D01*
X92912918Y-124063200D01*
X91999082Y-124063200D01*
X91828836Y-124079968D01*
X91610401Y-124146229D01*
X91409091Y-124253832D01*
X91232641Y-124398641D01*
X91087832Y-124575091D01*
X90980229Y-124776401D01*
X90913968Y-124994836D01*
X90891594Y-125222000D01*
X89958800Y-125222000D01*
X89958800Y-121936168D01*
X91416534Y-123393903D01*
G36*
X91409091Y-104600168D02*
X91610401Y-104707771D01*
X91828836Y-104774032D01*
X91999082Y-104790800D01*
X92912918Y-104790800D01*
X93083164Y-104774032D01*
X93301599Y-104707771D01*
X93333349Y-104690800D01*
X94570455Y-104690800D01*
X94605942Y-104726287D01*
X94691200Y-104783255D01*
X94691200Y-104794160D01*
X94687268Y-104834081D01*
X94691200Y-104874001D01*
X94691200Y-104874003D01*
X94702961Y-104993417D01*
X94749438Y-105146630D01*
X94824912Y-105287832D01*
X94926483Y-105411598D01*
X94957500Y-105437053D01*
X104620952Y-115100506D01*
X104646402Y-115131517D01*
X104677412Y-115156966D01*
X104770166Y-115233088D01*
X104800877Y-115249503D01*
X104911369Y-115308562D01*
X105064582Y-115355039D01*
X105183996Y-115366800D01*
X105183998Y-115366800D01*
X105223918Y-115370732D01*
X105263839Y-115366800D01*
X110450080Y-115366800D01*
X110490000Y-115370732D01*
X110529920Y-115366800D01*
X110529923Y-115366800D01*
X110649337Y-115355039D01*
X110802550Y-115308562D01*
X110943752Y-115233088D01*
X111067517Y-115131517D01*
X111092971Y-115100501D01*
X112464851Y-113728622D01*
X112495862Y-113703172D01*
X112597433Y-113579407D01*
X112672907Y-113438205D01*
X112719384Y-113284992D01*
X112731145Y-113165578D01*
X112731145Y-113165576D01*
X112734497Y-113131544D01*
X112734497Y-113388000D01*
X112745286Y-113497544D01*
X112757558Y-113538000D01*
X112745286Y-113578456D01*
X112734497Y-113688000D01*
X112734497Y-114688000D01*
X112745286Y-114797544D01*
X112777239Y-114902878D01*
X112829127Y-114999954D01*
X112898957Y-115085043D01*
X112984046Y-115154873D01*
X113081122Y-115206761D01*
X113186456Y-115238714D01*
X113296000Y-115249503D01*
X113704030Y-115249503D01*
X113741201Y-115286673D01*
X113741200Y-115741328D01*
X113626496Y-115856032D01*
X113595484Y-115881483D01*
X113570034Y-115912494D01*
X113493912Y-116005249D01*
X113418438Y-116146451D01*
X113371962Y-116299664D01*
X113356268Y-116459000D01*
X113360201Y-116498930D01*
X113360201Y-116694968D01*
X113354239Y-116706122D01*
X113322286Y-116811456D01*
X113311497Y-116921000D01*
X113311497Y-118471000D01*
X113322286Y-118580544D01*
X113332951Y-118615700D01*
X113247800Y-118615700D01*
X113232761Y-118566122D01*
X113180873Y-118469046D01*
X113111043Y-118383957D01*
X113025954Y-118314127D01*
X112928878Y-118262239D01*
X112823544Y-118230286D01*
X112714000Y-118219497D01*
X111314000Y-118219497D01*
X111204456Y-118230286D01*
X111099122Y-118262239D01*
X111002046Y-118314127D01*
X110934329Y-118369700D01*
X110366015Y-118369700D01*
X110314000Y-118364577D01*
X110106438Y-118385020D01*
X110052167Y-118401483D01*
X109906854Y-118445563D01*
X109722916Y-118543880D01*
X109694501Y-118567200D01*
X109602095Y-118643035D01*
X109602091Y-118643039D01*
X109561693Y-118676193D01*
X109528539Y-118716591D01*
X108508101Y-119737031D01*
X108467693Y-119770193D01*
X108335380Y-119931416D01*
X108241215Y-120107588D01*
X108237063Y-120115355D01*
X108182479Y-120295297D01*
X108176520Y-120314940D01*
X108161200Y-120470486D01*
X108161200Y-120470493D01*
X108156078Y-120522500D01*
X108161200Y-120574507D01*
X108161201Y-129355430D01*
X108067932Y-129448700D01*
X104148003Y-129448700D01*
X104224661Y-129263632D01*
X104278800Y-128991455D01*
X104278800Y-128713945D01*
X104224661Y-128441768D01*
X104118463Y-128185383D01*
X103964287Y-127954642D01*
X103768058Y-127758413D01*
X103537317Y-127604237D01*
X103280932Y-127498039D01*
X103008755Y-127443900D01*
X102731245Y-127443900D01*
X102459068Y-127498039D01*
X102202683Y-127604237D01*
X101971942Y-127758413D01*
X101936455Y-127793900D01*
X100372800Y-127793900D01*
X100372800Y-124766007D01*
X100377922Y-124714000D01*
X100372800Y-124661993D01*
X100372800Y-124661985D01*
X100357480Y-124506439D01*
X100325633Y-124401451D01*
X100296937Y-124306854D01*
X100272026Y-124260249D01*
X100198620Y-124122916D01*
X100066307Y-123961693D01*
X100025903Y-123928534D01*
X98067470Y-121970102D01*
X98034307Y-121929693D01*
X97873084Y-121797380D01*
X97689146Y-121699063D01*
X97489561Y-121638520D01*
X97334015Y-121623200D01*
X97334007Y-121623200D01*
X97282000Y-121618078D01*
X97229993Y-121623200D01*
X92640569Y-121623200D01*
X91263610Y-120246242D01*
X91263610Y-119720775D01*
X91409091Y-119840168D01*
X91610401Y-119947771D01*
X91828836Y-120014032D01*
X91999082Y-120030800D01*
X92912918Y-120030800D01*
X93083164Y-120014032D01*
X93301599Y-119947771D01*
X93333349Y-119930800D01*
X94570455Y-119930800D01*
X94605942Y-119966287D01*
X94836683Y-120120463D01*
X95093068Y-120226661D01*
X95365245Y-120280800D01*
X95642755Y-120280800D01*
X95914932Y-120226661D01*
X96171317Y-120120463D01*
X96402058Y-119966287D01*
X96598287Y-119770058D01*
X96752463Y-119539317D01*
X96858661Y-119282932D01*
X96912800Y-119010755D01*
X96912800Y-118733245D01*
X96858661Y-118461068D01*
X96752463Y-118204683D01*
X96598287Y-117973942D01*
X96402058Y-117777713D01*
X96171317Y-117623537D01*
X95914932Y-117517339D01*
X95642755Y-117463200D01*
X95365245Y-117463200D01*
X95093068Y-117517339D01*
X94836683Y-117623537D01*
X94605942Y-117777713D01*
X94570455Y-117813200D01*
X93333349Y-117813200D01*
X93301599Y-117796229D01*
X93083164Y-117729968D01*
X92912918Y-117713200D01*
X91999082Y-117713200D01*
X91828836Y-117729968D01*
X91610401Y-117796229D01*
X91409091Y-117903832D01*
X91263610Y-118023225D01*
X91263610Y-117180775D01*
X91409091Y-117300168D01*
X91610401Y-117407771D01*
X91828836Y-117474032D01*
X91999082Y-117490800D01*
X92912918Y-117490800D01*
X93083164Y-117474032D01*
X93301599Y-117407771D01*
X93502909Y-117300168D01*
X93679359Y-117155359D01*
X93824168Y-116978909D01*
X93931771Y-116777599D01*
X93998032Y-116559164D01*
X94020406Y-116332000D01*
X93998032Y-116104836D01*
X93931771Y-115886401D01*
X93824168Y-115685091D01*
X93679359Y-115508641D01*
X93502909Y-115363832D01*
X93301599Y-115256229D01*
X93083164Y-115189968D01*
X92912918Y-115173200D01*
X91999082Y-115173200D01*
X91828836Y-115189968D01*
X91610401Y-115256229D01*
X91409091Y-115363832D01*
X91263610Y-115483225D01*
X91263610Y-114640775D01*
X91409091Y-114760168D01*
X91610401Y-114867771D01*
X91828836Y-114934032D01*
X91999082Y-114950800D01*
X92912918Y-114950800D01*
X93083164Y-114934032D01*
X93301599Y-114867771D01*
X93502909Y-114760168D01*
X93679359Y-114615359D01*
X93824168Y-114438909D01*
X93931771Y-114237599D01*
X93998032Y-114019164D01*
X94020406Y-113792000D01*
X93998032Y-113564836D01*
X93931771Y-113346401D01*
X93824168Y-113145091D01*
X93679359Y-112968641D01*
X93502909Y-112823832D01*
X93301599Y-112716229D01*
X93083164Y-112649968D01*
X92912918Y-112633200D01*
X91999082Y-112633200D01*
X91828836Y-112649968D01*
X91610401Y-112716229D01*
X91409091Y-112823832D01*
X91263610Y-112943225D01*
X91263610Y-112100775D01*
X91409091Y-112220168D01*
X91610401Y-112327771D01*
X91828836Y-112394032D01*
X91999082Y-112410800D01*
X92912918Y-112410800D01*
X93083164Y-112394032D01*
X93301599Y-112327771D01*
X93502909Y-112220168D01*
X93679359Y-112075359D01*
X93824168Y-111898909D01*
X93931771Y-111697599D01*
X93998032Y-111479164D01*
X94020406Y-111252000D01*
X93998032Y-111024836D01*
X93931771Y-110806401D01*
X93824168Y-110605091D01*
X93679359Y-110428641D01*
X93502909Y-110283832D01*
X93301599Y-110176229D01*
X93083164Y-110109968D01*
X92912918Y-110093200D01*
X91999082Y-110093200D01*
X91828836Y-110109968D01*
X91610401Y-110176229D01*
X91409091Y-110283832D01*
X91263610Y-110403225D01*
X91263610Y-109560775D01*
X91409091Y-109680168D01*
X91610401Y-109787771D01*
X91828836Y-109854032D01*
X91999082Y-109870800D01*
X92912918Y-109870800D01*
X93083164Y-109854032D01*
X93301599Y-109787771D01*
X93502909Y-109680168D01*
X93679359Y-109535359D01*
X93824168Y-109358909D01*
X93931771Y-109157599D01*
X93998032Y-108939164D01*
X94020406Y-108712000D01*
X93998032Y-108484836D01*
X93931771Y-108266401D01*
X93824168Y-108065091D01*
X93679359Y-107888641D01*
X93502909Y-107743832D01*
X93301599Y-107636229D01*
X93083164Y-107569968D01*
X92912918Y-107553200D01*
X91999082Y-107553200D01*
X91828836Y-107569968D01*
X91610401Y-107636229D01*
X91409091Y-107743832D01*
X91263610Y-107863225D01*
X91263610Y-107020775D01*
X91409091Y-107140168D01*
X91610401Y-107247771D01*
X91828836Y-107314032D01*
X91999082Y-107330800D01*
X92912918Y-107330800D01*
X93083164Y-107314032D01*
X93301599Y-107247771D01*
X93502909Y-107140168D01*
X93679359Y-106995359D01*
X93824168Y-106818909D01*
X93931771Y-106617599D01*
X93998032Y-106399164D01*
X94020406Y-106172000D01*
X93998032Y-105944836D01*
X93931771Y-105726401D01*
X93824168Y-105525091D01*
X93679359Y-105348641D01*
X93502909Y-105203832D01*
X93301599Y-105096229D01*
X93083164Y-105029968D01*
X92912918Y-105013200D01*
X91999082Y-105013200D01*
X91828836Y-105029968D01*
X91610401Y-105096229D01*
X91409091Y-105203832D01*
X91263610Y-105323225D01*
X91263610Y-104480775D01*
X91409091Y-104600168D01*
X91409091Y-104600168D01*
G37*
X91409091Y-104600168D02*
X91610401Y-104707771D01*
X91828836Y-104774032D01*
X91999082Y-104790800D01*
X92912918Y-104790800D01*
X93083164Y-104774032D01*
X93301599Y-104707771D01*
X93333349Y-104690800D01*
X94570455Y-104690800D01*
X94605942Y-104726287D01*
X94691200Y-104783255D01*
X94691200Y-104794160D01*
X94687268Y-104834081D01*
X94691200Y-104874001D01*
X94691200Y-104874003D01*
X94702961Y-104993417D01*
X94749438Y-105146630D01*
X94824912Y-105287832D01*
X94926483Y-105411598D01*
X94957500Y-105437053D01*
X104620952Y-115100506D01*
X104646402Y-115131517D01*
X104677412Y-115156966D01*
X104770166Y-115233088D01*
X104800877Y-115249503D01*
X104911369Y-115308562D01*
X105064582Y-115355039D01*
X105183996Y-115366800D01*
X105183998Y-115366800D01*
X105223918Y-115370732D01*
X105263839Y-115366800D01*
X110450080Y-115366800D01*
X110490000Y-115370732D01*
X110529920Y-115366800D01*
X110529923Y-115366800D01*
X110649337Y-115355039D01*
X110802550Y-115308562D01*
X110943752Y-115233088D01*
X111067517Y-115131517D01*
X111092971Y-115100501D01*
X112464851Y-113728622D01*
X112495862Y-113703172D01*
X112597433Y-113579407D01*
X112672907Y-113438205D01*
X112719384Y-113284992D01*
X112731145Y-113165578D01*
X112731145Y-113165576D01*
X112734497Y-113131544D01*
X112734497Y-113388000D01*
X112745286Y-113497544D01*
X112757558Y-113538000D01*
X112745286Y-113578456D01*
X112734497Y-113688000D01*
X112734497Y-114688000D01*
X112745286Y-114797544D01*
X112777239Y-114902878D01*
X112829127Y-114999954D01*
X112898957Y-115085043D01*
X112984046Y-115154873D01*
X113081122Y-115206761D01*
X113186456Y-115238714D01*
X113296000Y-115249503D01*
X113704030Y-115249503D01*
X113741201Y-115286673D01*
X113741200Y-115741328D01*
X113626496Y-115856032D01*
X113595484Y-115881483D01*
X113570034Y-115912494D01*
X113493912Y-116005249D01*
X113418438Y-116146451D01*
X113371962Y-116299664D01*
X113356268Y-116459000D01*
X113360201Y-116498930D01*
X113360201Y-116694968D01*
X113354239Y-116706122D01*
X113322286Y-116811456D01*
X113311497Y-116921000D01*
X113311497Y-118471000D01*
X113322286Y-118580544D01*
X113332951Y-118615700D01*
X113247800Y-118615700D01*
X113232761Y-118566122D01*
X113180873Y-118469046D01*
X113111043Y-118383957D01*
X113025954Y-118314127D01*
X112928878Y-118262239D01*
X112823544Y-118230286D01*
X112714000Y-118219497D01*
X111314000Y-118219497D01*
X111204456Y-118230286D01*
X111099122Y-118262239D01*
X111002046Y-118314127D01*
X110934329Y-118369700D01*
X110366015Y-118369700D01*
X110314000Y-118364577D01*
X110106438Y-118385020D01*
X110052167Y-118401483D01*
X109906854Y-118445563D01*
X109722916Y-118543880D01*
X109694501Y-118567200D01*
X109602095Y-118643035D01*
X109602091Y-118643039D01*
X109561693Y-118676193D01*
X109528539Y-118716591D01*
X108508101Y-119737031D01*
X108467693Y-119770193D01*
X108335380Y-119931416D01*
X108241215Y-120107588D01*
X108237063Y-120115355D01*
X108182479Y-120295297D01*
X108176520Y-120314940D01*
X108161200Y-120470486D01*
X108161200Y-120470493D01*
X108156078Y-120522500D01*
X108161200Y-120574507D01*
X108161201Y-129355430D01*
X108067932Y-129448700D01*
X104148003Y-129448700D01*
X104224661Y-129263632D01*
X104278800Y-128991455D01*
X104278800Y-128713945D01*
X104224661Y-128441768D01*
X104118463Y-128185383D01*
X103964287Y-127954642D01*
X103768058Y-127758413D01*
X103537317Y-127604237D01*
X103280932Y-127498039D01*
X103008755Y-127443900D01*
X102731245Y-127443900D01*
X102459068Y-127498039D01*
X102202683Y-127604237D01*
X101971942Y-127758413D01*
X101936455Y-127793900D01*
X100372800Y-127793900D01*
X100372800Y-124766007D01*
X100377922Y-124714000D01*
X100372800Y-124661993D01*
X100372800Y-124661985D01*
X100357480Y-124506439D01*
X100325633Y-124401451D01*
X100296937Y-124306854D01*
X100272026Y-124260249D01*
X100198620Y-124122916D01*
X100066307Y-123961693D01*
X100025903Y-123928534D01*
X98067470Y-121970102D01*
X98034307Y-121929693D01*
X97873084Y-121797380D01*
X97689146Y-121699063D01*
X97489561Y-121638520D01*
X97334015Y-121623200D01*
X97334007Y-121623200D01*
X97282000Y-121618078D01*
X97229993Y-121623200D01*
X92640569Y-121623200D01*
X91263610Y-120246242D01*
X91263610Y-119720775D01*
X91409091Y-119840168D01*
X91610401Y-119947771D01*
X91828836Y-120014032D01*
X91999082Y-120030800D01*
X92912918Y-120030800D01*
X93083164Y-120014032D01*
X93301599Y-119947771D01*
X93333349Y-119930800D01*
X94570455Y-119930800D01*
X94605942Y-119966287D01*
X94836683Y-120120463D01*
X95093068Y-120226661D01*
X95365245Y-120280800D01*
X95642755Y-120280800D01*
X95914932Y-120226661D01*
X96171317Y-120120463D01*
X96402058Y-119966287D01*
X96598287Y-119770058D01*
X96752463Y-119539317D01*
X96858661Y-119282932D01*
X96912800Y-119010755D01*
X96912800Y-118733245D01*
X96858661Y-118461068D01*
X96752463Y-118204683D01*
X96598287Y-117973942D01*
X96402058Y-117777713D01*
X96171317Y-117623537D01*
X95914932Y-117517339D01*
X95642755Y-117463200D01*
X95365245Y-117463200D01*
X95093068Y-117517339D01*
X94836683Y-117623537D01*
X94605942Y-117777713D01*
X94570455Y-117813200D01*
X93333349Y-117813200D01*
X93301599Y-117796229D01*
X93083164Y-117729968D01*
X92912918Y-117713200D01*
X91999082Y-117713200D01*
X91828836Y-117729968D01*
X91610401Y-117796229D01*
X91409091Y-117903832D01*
X91263610Y-118023225D01*
X91263610Y-117180775D01*
X91409091Y-117300168D01*
X91610401Y-117407771D01*
X91828836Y-117474032D01*
X91999082Y-117490800D01*
X92912918Y-117490800D01*
X93083164Y-117474032D01*
X93301599Y-117407771D01*
X93502909Y-117300168D01*
X93679359Y-117155359D01*
X93824168Y-116978909D01*
X93931771Y-116777599D01*
X93998032Y-116559164D01*
X94020406Y-116332000D01*
X93998032Y-116104836D01*
X93931771Y-115886401D01*
X93824168Y-115685091D01*
X93679359Y-115508641D01*
X93502909Y-115363832D01*
X93301599Y-115256229D01*
X93083164Y-115189968D01*
X92912918Y-115173200D01*
X91999082Y-115173200D01*
X91828836Y-115189968D01*
X91610401Y-115256229D01*
X91409091Y-115363832D01*
X91263610Y-115483225D01*
X91263610Y-114640775D01*
X91409091Y-114760168D01*
X91610401Y-114867771D01*
X91828836Y-114934032D01*
X91999082Y-114950800D01*
X92912918Y-114950800D01*
X93083164Y-114934032D01*
X93301599Y-114867771D01*
X93502909Y-114760168D01*
X93679359Y-114615359D01*
X93824168Y-114438909D01*
X93931771Y-114237599D01*
X93998032Y-114019164D01*
X94020406Y-113792000D01*
X93998032Y-113564836D01*
X93931771Y-113346401D01*
X93824168Y-113145091D01*
X93679359Y-112968641D01*
X93502909Y-112823832D01*
X93301599Y-112716229D01*
X93083164Y-112649968D01*
X92912918Y-112633200D01*
X91999082Y-112633200D01*
X91828836Y-112649968D01*
X91610401Y-112716229D01*
X91409091Y-112823832D01*
X91263610Y-112943225D01*
X91263610Y-112100775D01*
X91409091Y-112220168D01*
X91610401Y-112327771D01*
X91828836Y-112394032D01*
X91999082Y-112410800D01*
X92912918Y-112410800D01*
X93083164Y-112394032D01*
X93301599Y-112327771D01*
X93502909Y-112220168D01*
X93679359Y-112075359D01*
X93824168Y-111898909D01*
X93931771Y-111697599D01*
X93998032Y-111479164D01*
X94020406Y-111252000D01*
X93998032Y-111024836D01*
X93931771Y-110806401D01*
X93824168Y-110605091D01*
X93679359Y-110428641D01*
X93502909Y-110283832D01*
X93301599Y-110176229D01*
X93083164Y-110109968D01*
X92912918Y-110093200D01*
X91999082Y-110093200D01*
X91828836Y-110109968D01*
X91610401Y-110176229D01*
X91409091Y-110283832D01*
X91263610Y-110403225D01*
X91263610Y-109560775D01*
X91409091Y-109680168D01*
X91610401Y-109787771D01*
X91828836Y-109854032D01*
X91999082Y-109870800D01*
X92912918Y-109870800D01*
X93083164Y-109854032D01*
X93301599Y-109787771D01*
X93502909Y-109680168D01*
X93679359Y-109535359D01*
X93824168Y-109358909D01*
X93931771Y-109157599D01*
X93998032Y-108939164D01*
X94020406Y-108712000D01*
X93998032Y-108484836D01*
X93931771Y-108266401D01*
X93824168Y-108065091D01*
X93679359Y-107888641D01*
X93502909Y-107743832D01*
X93301599Y-107636229D01*
X93083164Y-107569968D01*
X92912918Y-107553200D01*
X91999082Y-107553200D01*
X91828836Y-107569968D01*
X91610401Y-107636229D01*
X91409091Y-107743832D01*
X91263610Y-107863225D01*
X91263610Y-107020775D01*
X91409091Y-107140168D01*
X91610401Y-107247771D01*
X91828836Y-107314032D01*
X91999082Y-107330800D01*
X92912918Y-107330800D01*
X93083164Y-107314032D01*
X93301599Y-107247771D01*
X93502909Y-107140168D01*
X93679359Y-106995359D01*
X93824168Y-106818909D01*
X93931771Y-106617599D01*
X93998032Y-106399164D01*
X94020406Y-106172000D01*
X93998032Y-105944836D01*
X93931771Y-105726401D01*
X93824168Y-105525091D01*
X93679359Y-105348641D01*
X93502909Y-105203832D01*
X93301599Y-105096229D01*
X93083164Y-105029968D01*
X92912918Y-105013200D01*
X91999082Y-105013200D01*
X91828836Y-105029968D01*
X91610401Y-105096229D01*
X91409091Y-105203832D01*
X91263610Y-105323225D01*
X91263610Y-104480775D01*
X91409091Y-104600168D01*
G36*
X87071200Y-66326000D02*
X87113736Y-66539844D01*
X87234869Y-66721131D01*
X89234869Y-68721131D01*
X89416156Y-68842264D01*
X89630000Y-68884800D01*
X91595612Y-68884800D01*
X92984988Y-69460298D01*
X92912918Y-69453200D01*
X91999082Y-69453200D01*
X91828836Y-69469968D01*
X91610401Y-69536229D01*
X91409091Y-69643832D01*
X91232641Y-69788641D01*
X91087832Y-69965091D01*
X90980229Y-70166401D01*
X90913968Y-70384836D01*
X90891594Y-70612000D01*
X90913968Y-70839164D01*
X90980229Y-71057599D01*
X91087832Y-71258909D01*
X91232641Y-71435359D01*
X91409091Y-71580168D01*
X91610401Y-71687771D01*
X91828836Y-71754032D01*
X91999082Y-71770800D01*
X92912918Y-71770800D01*
X93083164Y-71754032D01*
X93301599Y-71687771D01*
X93502909Y-71580168D01*
X93679359Y-71435359D01*
X93824168Y-71258909D01*
X93931771Y-71057599D01*
X93965429Y-70946642D01*
X94183200Y-71472388D01*
X94183200Y-75978000D01*
X94225736Y-76191844D01*
X95639950Y-79606058D01*
X95761083Y-79787345D01*
X96410057Y-80436319D01*
X97739200Y-83645153D01*
X97739200Y-88373949D01*
X97781736Y-88587793D01*
X100279200Y-94617204D01*
X100279200Y-103156000D01*
X100321736Y-103369844D01*
X100442869Y-103551131D01*
X102442869Y-105551131D01*
X102624156Y-105672264D01*
X102838000Y-105714800D01*
X104296695Y-105714800D01*
X104239522Y-105800366D01*
X104139957Y-106040737D01*
X104089200Y-106295913D01*
X104089200Y-106556087D01*
X104139957Y-106811263D01*
X104239522Y-107051634D01*
X104384067Y-107267961D01*
X104568039Y-107451933D01*
X104784366Y-107596478D01*
X105024633Y-107696000D01*
X104784366Y-107795522D01*
X104568039Y-107940067D01*
X104384067Y-108124039D01*
X104239522Y-108340366D01*
X104139957Y-108580737D01*
X104089200Y-108835913D01*
X104089200Y-109096087D01*
X104139957Y-109351263D01*
X104239522Y-109591634D01*
X104384067Y-109807961D01*
X104568039Y-109991933D01*
X104784366Y-110136478D01*
X105024737Y-110236043D01*
X105279913Y-110286800D01*
X105540087Y-110286800D01*
X105795263Y-110236043D01*
X106035634Y-110136478D01*
X106251961Y-109991933D01*
X106435933Y-109807961D01*
X106580478Y-109591634D01*
X106680043Y-109351263D01*
X106730800Y-109096087D01*
X106730800Y-108835913D01*
X106680043Y-108580737D01*
X106580478Y-108340366D01*
X106435933Y-108124039D01*
X106251961Y-107940067D01*
X106035634Y-107795522D01*
X105795367Y-107696000D01*
X106035634Y-107596478D01*
X106251961Y-107451933D01*
X106435933Y-107267961D01*
X106580478Y-107051634D01*
X106680043Y-106811263D01*
X106730800Y-106556087D01*
X106730800Y-106295913D01*
X106680043Y-106040737D01*
X106580478Y-105800366D01*
X106435933Y-105584039D01*
X106251961Y-105400067D01*
X106246107Y-105396155D01*
X108091131Y-103551131D01*
X108212264Y-103369844D01*
X108254800Y-103156000D01*
X108254800Y-52654200D01*
X114429990Y-52654200D01*
X115112800Y-53337011D01*
X115112801Y-110163726D01*
X113907438Y-111369090D01*
X114016807Y-111205407D01*
X114123005Y-110949022D01*
X114177144Y-110676845D01*
X114177144Y-110399335D01*
X114123005Y-110127158D01*
X114016807Y-109870773D01*
X113862631Y-109640032D01*
X113666402Y-109443803D01*
X113435661Y-109289627D01*
X113179276Y-109183429D01*
X112907099Y-109129290D01*
X112629589Y-109129290D01*
X112357412Y-109183429D01*
X112101027Y-109289627D01*
X111870286Y-109443803D01*
X111674057Y-109640032D01*
X111519881Y-109870773D01*
X111413683Y-110127158D01*
X111359544Y-110399335D01*
X111359544Y-110676845D01*
X111379548Y-110777414D01*
X111371844Y-110785118D01*
X111340828Y-110810572D01*
X111239257Y-110934338D01*
X111163783Y-111075540D01*
X111117306Y-111228753D01*
X111108602Y-111317132D01*
X111101613Y-111388089D01*
X111105545Y-111428010D01*
X111105546Y-112788981D01*
X110153328Y-113741200D01*
X105560592Y-113741200D01*
X96473868Y-104654477D01*
X96598287Y-104530058D01*
X96752463Y-104299317D01*
X96858661Y-104042932D01*
X96912800Y-103770755D01*
X96912800Y-103493245D01*
X96858661Y-103221068D01*
X96752463Y-102964683D01*
X96598287Y-102733942D01*
X96402058Y-102537713D01*
X96171317Y-102383537D01*
X95914932Y-102277339D01*
X95642755Y-102223200D01*
X95365245Y-102223200D01*
X95093068Y-102277339D01*
X94836683Y-102383537D01*
X94605942Y-102537713D01*
X94570455Y-102573200D01*
X93333349Y-102573200D01*
X93301599Y-102556229D01*
X93083164Y-102489968D01*
X92912918Y-102473200D01*
X91999082Y-102473200D01*
X91828836Y-102489968D01*
X91610401Y-102556229D01*
X91409091Y-102663832D01*
X91263610Y-102783225D01*
X91263610Y-101940775D01*
X91409091Y-102060168D01*
X91610401Y-102167771D01*
X91828836Y-102234032D01*
X91999082Y-102250800D01*
X92912918Y-102250800D01*
X93083164Y-102234032D01*
X93301599Y-102167771D01*
X93502909Y-102060168D01*
X93679359Y-101915359D01*
X93824168Y-101738909D01*
X93931771Y-101537599D01*
X93998032Y-101319164D01*
X94020406Y-101092000D01*
X93998032Y-100864836D01*
X93931771Y-100646401D01*
X93824168Y-100445091D01*
X93679359Y-100268641D01*
X93502909Y-100123832D01*
X93301599Y-100016229D01*
X93083164Y-99949968D01*
X92912918Y-99933200D01*
X91999082Y-99933200D01*
X91828836Y-99949968D01*
X91610401Y-100016229D01*
X91409091Y-100123832D01*
X91263610Y-100243225D01*
X91263610Y-99400775D01*
X91409091Y-99520168D01*
X91610401Y-99627771D01*
X91828836Y-99694032D01*
X91999082Y-99710800D01*
X92912918Y-99710800D01*
X93083164Y-99694032D01*
X93301599Y-99627771D01*
X93502909Y-99520168D01*
X93679359Y-99375359D01*
X93824168Y-99198909D01*
X93931771Y-98997599D01*
X93998032Y-98779164D01*
X94020406Y-98552000D01*
X93998032Y-98324836D01*
X93931771Y-98106401D01*
X93824168Y-97905091D01*
X93679359Y-97728641D01*
X93502909Y-97583832D01*
X93301599Y-97476229D01*
X93083164Y-97409968D01*
X92912918Y-97393200D01*
X91999082Y-97393200D01*
X91828836Y-97409968D01*
X91610401Y-97476229D01*
X91409091Y-97583832D01*
X91263610Y-97703225D01*
X91263610Y-94320775D01*
X91409091Y-94440168D01*
X91610401Y-94547771D01*
X91828836Y-94614032D01*
X91999082Y-94630800D01*
X92912918Y-94630800D01*
X93083164Y-94614032D01*
X93301599Y-94547771D01*
X93502909Y-94440168D01*
X93679359Y-94295359D01*
X93824168Y-94118909D01*
X93931771Y-93917599D01*
X93998032Y-93699164D01*
X94020406Y-93472000D01*
X93998032Y-93244836D01*
X93931771Y-93026401D01*
X93824168Y-92825091D01*
X93679359Y-92648641D01*
X93502909Y-92503832D01*
X93301599Y-92396229D01*
X93083164Y-92329968D01*
X92912918Y-92313200D01*
X91999082Y-92313200D01*
X91828836Y-92329968D01*
X91610401Y-92396229D01*
X91409091Y-92503832D01*
X91263610Y-92623225D01*
X91263610Y-91780775D01*
X91409091Y-91900168D01*
X91610401Y-92007771D01*
X91828836Y-92074032D01*
X91999082Y-92090800D01*
X92912918Y-92090800D01*
X93083164Y-92074032D01*
X93301599Y-92007771D01*
X93502909Y-91900168D01*
X93679359Y-91755359D01*
X93824168Y-91578909D01*
X93931771Y-91377599D01*
X93998032Y-91159164D01*
X94020406Y-90932000D01*
X93998032Y-90704836D01*
X93931771Y-90486401D01*
X93824168Y-90285091D01*
X93679359Y-90108641D01*
X93502909Y-89963832D01*
X93301599Y-89856229D01*
X93083164Y-89789968D01*
X92912918Y-89773200D01*
X91999082Y-89773200D01*
X91828836Y-89789968D01*
X91610401Y-89856229D01*
X91409091Y-89963832D01*
X91263610Y-90083225D01*
X91263610Y-89240775D01*
X91409091Y-89360168D01*
X91610401Y-89467771D01*
X91828836Y-89534032D01*
X91999082Y-89550800D01*
X92912918Y-89550800D01*
X93083164Y-89534032D01*
X93301599Y-89467771D01*
X93502909Y-89360168D01*
X93679359Y-89215359D01*
X93824168Y-89038909D01*
X93931771Y-88837599D01*
X93998032Y-88619164D01*
X94020406Y-88392000D01*
X93998032Y-88164836D01*
X93931771Y-87946401D01*
X93824168Y-87745091D01*
X93679359Y-87568641D01*
X93502909Y-87423832D01*
X93301599Y-87316229D01*
X93083164Y-87249968D01*
X92912918Y-87233200D01*
X91999082Y-87233200D01*
X91828836Y-87249968D01*
X91610401Y-87316229D01*
X91409091Y-87423832D01*
X91263610Y-87543225D01*
X91263610Y-86700775D01*
X91409091Y-86820168D01*
X91610401Y-86927771D01*
X91828836Y-86994032D01*
X91999082Y-87010800D01*
X92912918Y-87010800D01*
X93083164Y-86994032D01*
X93301599Y-86927771D01*
X93502909Y-86820168D01*
X93679359Y-86675359D01*
X93824168Y-86498909D01*
X93931771Y-86297599D01*
X93998032Y-86079164D01*
X94020406Y-85852000D01*
X93998032Y-85624836D01*
X93931771Y-85406401D01*
X93824168Y-85205091D01*
X93679359Y-85028641D01*
X93502909Y-84883832D01*
X93301599Y-84776229D01*
X93083164Y-84709968D01*
X92912918Y-84693200D01*
X91999082Y-84693200D01*
X91828836Y-84709968D01*
X91610401Y-84776229D01*
X91409091Y-84883832D01*
X91263610Y-85003225D01*
X91263610Y-84160775D01*
X91409091Y-84280168D01*
X91610401Y-84387771D01*
X91828836Y-84454032D01*
X91999082Y-84470800D01*
X92912918Y-84470800D01*
X93083164Y-84454032D01*
X93301599Y-84387771D01*
X93502909Y-84280168D01*
X93679359Y-84135359D01*
X93824168Y-83958909D01*
X93931771Y-83757599D01*
X93998032Y-83539164D01*
X94020406Y-83312000D01*
X93998032Y-83084836D01*
X93931771Y-82866401D01*
X93824168Y-82665091D01*
X93679359Y-82488641D01*
X93502909Y-82343832D01*
X93301599Y-82236229D01*
X93083164Y-82169968D01*
X92912918Y-82153200D01*
X91999082Y-82153200D01*
X91828836Y-82169968D01*
X91610401Y-82236229D01*
X91409091Y-82343832D01*
X91263610Y-82463225D01*
X91263610Y-81620775D01*
X91409091Y-81740168D01*
X91610401Y-81847771D01*
X91828836Y-81914032D01*
X91999082Y-81930800D01*
X92912918Y-81930800D01*
X93083164Y-81914032D01*
X93301599Y-81847771D01*
X93502909Y-81740168D01*
X93679359Y-81595359D01*
X93824168Y-81418909D01*
X93931771Y-81217599D01*
X93998032Y-80999164D01*
X94020406Y-80772000D01*
X93998032Y-80544836D01*
X93931771Y-80326401D01*
X93824168Y-80125091D01*
X93679359Y-79948641D01*
X93502909Y-79803832D01*
X93301599Y-79696229D01*
X93083164Y-79629968D01*
X92912918Y-79613200D01*
X91999082Y-79613200D01*
X91828836Y-79629968D01*
X91610401Y-79696229D01*
X91409091Y-79803832D01*
X91263610Y-79923225D01*
X91263610Y-79521537D01*
X91268732Y-79469530D01*
X91263610Y-79417523D01*
X91263610Y-79417516D01*
X91248290Y-79261970D01*
X91187747Y-79062385D01*
X91093123Y-78885356D01*
X91232641Y-79055359D01*
X91409091Y-79200168D01*
X91610401Y-79307771D01*
X91828836Y-79374032D01*
X91999082Y-79390800D01*
X92912918Y-79390800D01*
X93083164Y-79374032D01*
X93301599Y-79307771D01*
X93502909Y-79200168D01*
X93679359Y-79055359D01*
X93824168Y-78878909D01*
X93931771Y-78677599D01*
X93998032Y-78459164D01*
X94020406Y-78232000D01*
X93998032Y-78004836D01*
X93931771Y-77786401D01*
X93824168Y-77585091D01*
X93679359Y-77408641D01*
X93502909Y-77263832D01*
X93301599Y-77156229D01*
X93083164Y-77089968D01*
X92912918Y-77073200D01*
X91999082Y-77073200D01*
X91828836Y-77089968D01*
X91610401Y-77156229D01*
X91409091Y-77263832D01*
X91232641Y-77408641D01*
X91087832Y-77585091D01*
X90980229Y-77786401D01*
X90913968Y-78004836D01*
X90891594Y-78232000D01*
X90913968Y-78459164D01*
X90980229Y-78677599D01*
X91084139Y-78872000D01*
X90957117Y-78717224D01*
X90916714Y-78684066D01*
X87924647Y-75692000D01*
X90891594Y-75692000D01*
X90913968Y-75919164D01*
X90980229Y-76137599D01*
X91087832Y-76338909D01*
X91232641Y-76515359D01*
X91409091Y-76660168D01*
X91610401Y-76767771D01*
X91828836Y-76834032D01*
X91999082Y-76850800D01*
X92912918Y-76850800D01*
X93083164Y-76834032D01*
X93301599Y-76767771D01*
X93502909Y-76660168D01*
X93679359Y-76515359D01*
X93824168Y-76338909D01*
X93931771Y-76137599D01*
X93998032Y-75919164D01*
X94020406Y-75692000D01*
X93998032Y-75464836D01*
X93931771Y-75246401D01*
X93824168Y-75045091D01*
X93679359Y-74868641D01*
X93502909Y-74723832D01*
X93301599Y-74616229D01*
X93083164Y-74549968D01*
X92912918Y-74533200D01*
X91999082Y-74533200D01*
X91828836Y-74549968D01*
X91610401Y-74616229D01*
X91409091Y-74723832D01*
X91232641Y-74868641D01*
X91087832Y-75045091D01*
X90980229Y-75246401D01*
X90913968Y-75464836D01*
X90891594Y-75692000D01*
X87924647Y-75692000D01*
X85928686Y-73696040D01*
X86420562Y-73899781D01*
X86953556Y-74005800D01*
X87496992Y-74005800D01*
X88029986Y-73899781D01*
X88532056Y-73691817D01*
X88983907Y-73389900D01*
X89221807Y-73152000D01*
X90891594Y-73152000D01*
X90913968Y-73379164D01*
X90980229Y-73597599D01*
X91087832Y-73798909D01*
X91232641Y-73975359D01*
X91409091Y-74120168D01*
X91610401Y-74227771D01*
X91828836Y-74294032D01*
X91999082Y-74310800D01*
X92912918Y-74310800D01*
X93083164Y-74294032D01*
X93301599Y-74227771D01*
X93502909Y-74120168D01*
X93679359Y-73975359D01*
X93824168Y-73798909D01*
X93931771Y-73597599D01*
X93998032Y-73379164D01*
X94020406Y-73152000D01*
X93998032Y-72924836D01*
X93931771Y-72706401D01*
X93824168Y-72505091D01*
X93679359Y-72328641D01*
X93502909Y-72183832D01*
X93301599Y-72076229D01*
X93083164Y-72009968D01*
X92912918Y-71993200D01*
X91999082Y-71993200D01*
X91828836Y-72009968D01*
X91610401Y-72076229D01*
X91409091Y-72183832D01*
X91232641Y-72328641D01*
X91087832Y-72505091D01*
X90980229Y-72706401D01*
X90913968Y-72924836D01*
X90891594Y-73152000D01*
X89221807Y-73152000D01*
X89368174Y-73005633D01*
X89670091Y-72553782D01*
X89878055Y-72051712D01*
X89984074Y-71518718D01*
X89984074Y-70975282D01*
X89878055Y-70442288D01*
X89670091Y-69940218D01*
X89368174Y-69488367D01*
X88983907Y-69104100D01*
X88532056Y-68802183D01*
X88029986Y-68594219D01*
X87496992Y-68488200D01*
X86953556Y-68488200D01*
X86420562Y-68594219D01*
X85918492Y-68802183D01*
X85466641Y-69104100D01*
X85082374Y-69488367D01*
X84780457Y-69940218D01*
X84572493Y-70442288D01*
X84466474Y-70975282D01*
X84466474Y-71518718D01*
X84572493Y-72051712D01*
X84776235Y-72543589D01*
X84405610Y-72172964D01*
X84405610Y-51017036D01*
X87071200Y-48351447D01*
X87071200Y-66326000D01*
X87071200Y-66326000D01*
G37*
X87071200Y-66326000D02*
X87113736Y-66539844D01*
X87234869Y-66721131D01*
X89234869Y-68721131D01*
X89416156Y-68842264D01*
X89630000Y-68884800D01*
X91595612Y-68884800D01*
X92984988Y-69460298D01*
X92912918Y-69453200D01*
X91999082Y-69453200D01*
X91828836Y-69469968D01*
X91610401Y-69536229D01*
X91409091Y-69643832D01*
X91232641Y-69788641D01*
X91087832Y-69965091D01*
X90980229Y-70166401D01*
X90913968Y-70384836D01*
X90891594Y-70612000D01*
X90913968Y-70839164D01*
X90980229Y-71057599D01*
X91087832Y-71258909D01*
X91232641Y-71435359D01*
X91409091Y-71580168D01*
X91610401Y-71687771D01*
X91828836Y-71754032D01*
X91999082Y-71770800D01*
X92912918Y-71770800D01*
X93083164Y-71754032D01*
X93301599Y-71687771D01*
X93502909Y-71580168D01*
X93679359Y-71435359D01*
X93824168Y-71258909D01*
X93931771Y-71057599D01*
X93965429Y-70946642D01*
X94183200Y-71472388D01*
X94183200Y-75978000D01*
X94225736Y-76191844D01*
X95639950Y-79606058D01*
X95761083Y-79787345D01*
X96410057Y-80436319D01*
X97739200Y-83645153D01*
X97739200Y-88373949D01*
X97781736Y-88587793D01*
X100279200Y-94617204D01*
X100279200Y-103156000D01*
X100321736Y-103369844D01*
X100442869Y-103551131D01*
X102442869Y-105551131D01*
X102624156Y-105672264D01*
X102838000Y-105714800D01*
X104296695Y-105714800D01*
X104239522Y-105800366D01*
X104139957Y-106040737D01*
X104089200Y-106295913D01*
X104089200Y-106556087D01*
X104139957Y-106811263D01*
X104239522Y-107051634D01*
X104384067Y-107267961D01*
X104568039Y-107451933D01*
X104784366Y-107596478D01*
X105024633Y-107696000D01*
X104784366Y-107795522D01*
X104568039Y-107940067D01*
X104384067Y-108124039D01*
X104239522Y-108340366D01*
X104139957Y-108580737D01*
X104089200Y-108835913D01*
X104089200Y-109096087D01*
X104139957Y-109351263D01*
X104239522Y-109591634D01*
X104384067Y-109807961D01*
X104568039Y-109991933D01*
X104784366Y-110136478D01*
X105024737Y-110236043D01*
X105279913Y-110286800D01*
X105540087Y-110286800D01*
X105795263Y-110236043D01*
X106035634Y-110136478D01*
X106251961Y-109991933D01*
X106435933Y-109807961D01*
X106580478Y-109591634D01*
X106680043Y-109351263D01*
X106730800Y-109096087D01*
X106730800Y-108835913D01*
X106680043Y-108580737D01*
X106580478Y-108340366D01*
X106435933Y-108124039D01*
X106251961Y-107940067D01*
X106035634Y-107795522D01*
X105795367Y-107696000D01*
X106035634Y-107596478D01*
X106251961Y-107451933D01*
X106435933Y-107267961D01*
X106580478Y-107051634D01*
X106680043Y-106811263D01*
X106730800Y-106556087D01*
X106730800Y-106295913D01*
X106680043Y-106040737D01*
X106580478Y-105800366D01*
X106435933Y-105584039D01*
X106251961Y-105400067D01*
X106246107Y-105396155D01*
X108091131Y-103551131D01*
X108212264Y-103369844D01*
X108254800Y-103156000D01*
X108254800Y-52654200D01*
X114429990Y-52654200D01*
X115112800Y-53337011D01*
X115112801Y-110163726D01*
X113907438Y-111369090D01*
X114016807Y-111205407D01*
X114123005Y-110949022D01*
X114177144Y-110676845D01*
X114177144Y-110399335D01*
X114123005Y-110127158D01*
X114016807Y-109870773D01*
X113862631Y-109640032D01*
X113666402Y-109443803D01*
X113435661Y-109289627D01*
X113179276Y-109183429D01*
X112907099Y-109129290D01*
X112629589Y-109129290D01*
X112357412Y-109183429D01*
X112101027Y-109289627D01*
X111870286Y-109443803D01*
X111674057Y-109640032D01*
X111519881Y-109870773D01*
X111413683Y-110127158D01*
X111359544Y-110399335D01*
X111359544Y-110676845D01*
X111379548Y-110777414D01*
X111371844Y-110785118D01*
X111340828Y-110810572D01*
X111239257Y-110934338D01*
X111163783Y-111075540D01*
X111117306Y-111228753D01*
X111108602Y-111317132D01*
X111101613Y-111388089D01*
X111105545Y-111428010D01*
X111105546Y-112788981D01*
X110153328Y-113741200D01*
X105560592Y-113741200D01*
X96473868Y-104654477D01*
X96598287Y-104530058D01*
X96752463Y-104299317D01*
X96858661Y-104042932D01*
X96912800Y-103770755D01*
X96912800Y-103493245D01*
X96858661Y-103221068D01*
X96752463Y-102964683D01*
X96598287Y-102733942D01*
X96402058Y-102537713D01*
X96171317Y-102383537D01*
X95914932Y-102277339D01*
X95642755Y-102223200D01*
X95365245Y-102223200D01*
X95093068Y-102277339D01*
X94836683Y-102383537D01*
X94605942Y-102537713D01*
X94570455Y-102573200D01*
X93333349Y-102573200D01*
X93301599Y-102556229D01*
X93083164Y-102489968D01*
X92912918Y-102473200D01*
X91999082Y-102473200D01*
X91828836Y-102489968D01*
X91610401Y-102556229D01*
X91409091Y-102663832D01*
X91263610Y-102783225D01*
X91263610Y-101940775D01*
X91409091Y-102060168D01*
X91610401Y-102167771D01*
X91828836Y-102234032D01*
X91999082Y-102250800D01*
X92912918Y-102250800D01*
X93083164Y-102234032D01*
X93301599Y-102167771D01*
X93502909Y-102060168D01*
X93679359Y-101915359D01*
X93824168Y-101738909D01*
X93931771Y-101537599D01*
X93998032Y-101319164D01*
X94020406Y-101092000D01*
X93998032Y-100864836D01*
X93931771Y-100646401D01*
X93824168Y-100445091D01*
X93679359Y-100268641D01*
X93502909Y-100123832D01*
X93301599Y-100016229D01*
X93083164Y-99949968D01*
X92912918Y-99933200D01*
X91999082Y-99933200D01*
X91828836Y-99949968D01*
X91610401Y-100016229D01*
X91409091Y-100123832D01*
X91263610Y-100243225D01*
X91263610Y-99400775D01*
X91409091Y-99520168D01*
X91610401Y-99627771D01*
X91828836Y-99694032D01*
X91999082Y-99710800D01*
X92912918Y-99710800D01*
X93083164Y-99694032D01*
X93301599Y-99627771D01*
X93502909Y-99520168D01*
X93679359Y-99375359D01*
X93824168Y-99198909D01*
X93931771Y-98997599D01*
X93998032Y-98779164D01*
X94020406Y-98552000D01*
X93998032Y-98324836D01*
X93931771Y-98106401D01*
X93824168Y-97905091D01*
X93679359Y-97728641D01*
X93502909Y-97583832D01*
X93301599Y-97476229D01*
X93083164Y-97409968D01*
X92912918Y-97393200D01*
X91999082Y-97393200D01*
X91828836Y-97409968D01*
X91610401Y-97476229D01*
X91409091Y-97583832D01*
X91263610Y-97703225D01*
X91263610Y-94320775D01*
X91409091Y-94440168D01*
X91610401Y-94547771D01*
X91828836Y-94614032D01*
X91999082Y-94630800D01*
X92912918Y-94630800D01*
X93083164Y-94614032D01*
X93301599Y-94547771D01*
X93502909Y-94440168D01*
X93679359Y-94295359D01*
X93824168Y-94118909D01*
X93931771Y-93917599D01*
X93998032Y-93699164D01*
X94020406Y-93472000D01*
X93998032Y-93244836D01*
X93931771Y-93026401D01*
X93824168Y-92825091D01*
X93679359Y-92648641D01*
X93502909Y-92503832D01*
X93301599Y-92396229D01*
X93083164Y-92329968D01*
X92912918Y-92313200D01*
X91999082Y-92313200D01*
X91828836Y-92329968D01*
X91610401Y-92396229D01*
X91409091Y-92503832D01*
X91263610Y-92623225D01*
X91263610Y-91780775D01*
X91409091Y-91900168D01*
X91610401Y-92007771D01*
X91828836Y-92074032D01*
X91999082Y-92090800D01*
X92912918Y-92090800D01*
X93083164Y-92074032D01*
X93301599Y-92007771D01*
X93502909Y-91900168D01*
X93679359Y-91755359D01*
X93824168Y-91578909D01*
X93931771Y-91377599D01*
X93998032Y-91159164D01*
X94020406Y-90932000D01*
X93998032Y-90704836D01*
X93931771Y-90486401D01*
X93824168Y-90285091D01*
X93679359Y-90108641D01*
X93502909Y-89963832D01*
X93301599Y-89856229D01*
X93083164Y-89789968D01*
X92912918Y-89773200D01*
X91999082Y-89773200D01*
X91828836Y-89789968D01*
X91610401Y-89856229D01*
X91409091Y-89963832D01*
X91263610Y-90083225D01*
X91263610Y-89240775D01*
X91409091Y-89360168D01*
X91610401Y-89467771D01*
X91828836Y-89534032D01*
X91999082Y-89550800D01*
X92912918Y-89550800D01*
X93083164Y-89534032D01*
X93301599Y-89467771D01*
X93502909Y-89360168D01*
X93679359Y-89215359D01*
X93824168Y-89038909D01*
X93931771Y-88837599D01*
X93998032Y-88619164D01*
X94020406Y-88392000D01*
X93998032Y-88164836D01*
X93931771Y-87946401D01*
X93824168Y-87745091D01*
X93679359Y-87568641D01*
X93502909Y-87423832D01*
X93301599Y-87316229D01*
X93083164Y-87249968D01*
X92912918Y-87233200D01*
X91999082Y-87233200D01*
X91828836Y-87249968D01*
X91610401Y-87316229D01*
X91409091Y-87423832D01*
X91263610Y-87543225D01*
X91263610Y-86700775D01*
X91409091Y-86820168D01*
X91610401Y-86927771D01*
X91828836Y-86994032D01*
X91999082Y-87010800D01*
X92912918Y-87010800D01*
X93083164Y-86994032D01*
X93301599Y-86927771D01*
X93502909Y-86820168D01*
X93679359Y-86675359D01*
X93824168Y-86498909D01*
X93931771Y-86297599D01*
X93998032Y-86079164D01*
X94020406Y-85852000D01*
X93998032Y-85624836D01*
X93931771Y-85406401D01*
X93824168Y-85205091D01*
X93679359Y-85028641D01*
X93502909Y-84883832D01*
X93301599Y-84776229D01*
X93083164Y-84709968D01*
X92912918Y-84693200D01*
X91999082Y-84693200D01*
X91828836Y-84709968D01*
X91610401Y-84776229D01*
X91409091Y-84883832D01*
X91263610Y-85003225D01*
X91263610Y-84160775D01*
X91409091Y-84280168D01*
X91610401Y-84387771D01*
X91828836Y-84454032D01*
X91999082Y-84470800D01*
X92912918Y-84470800D01*
X93083164Y-84454032D01*
X93301599Y-84387771D01*
X93502909Y-84280168D01*
X93679359Y-84135359D01*
X93824168Y-83958909D01*
X93931771Y-83757599D01*
X93998032Y-83539164D01*
X94020406Y-83312000D01*
X93998032Y-83084836D01*
X93931771Y-82866401D01*
X93824168Y-82665091D01*
X93679359Y-82488641D01*
X93502909Y-82343832D01*
X93301599Y-82236229D01*
X93083164Y-82169968D01*
X92912918Y-82153200D01*
X91999082Y-82153200D01*
X91828836Y-82169968D01*
X91610401Y-82236229D01*
X91409091Y-82343832D01*
X91263610Y-82463225D01*
X91263610Y-81620775D01*
X91409091Y-81740168D01*
X91610401Y-81847771D01*
X91828836Y-81914032D01*
X91999082Y-81930800D01*
X92912918Y-81930800D01*
X93083164Y-81914032D01*
X93301599Y-81847771D01*
X93502909Y-81740168D01*
X93679359Y-81595359D01*
X93824168Y-81418909D01*
X93931771Y-81217599D01*
X93998032Y-80999164D01*
X94020406Y-80772000D01*
X93998032Y-80544836D01*
X93931771Y-80326401D01*
X93824168Y-80125091D01*
X93679359Y-79948641D01*
X93502909Y-79803832D01*
X93301599Y-79696229D01*
X93083164Y-79629968D01*
X92912918Y-79613200D01*
X91999082Y-79613200D01*
X91828836Y-79629968D01*
X91610401Y-79696229D01*
X91409091Y-79803832D01*
X91263610Y-79923225D01*
X91263610Y-79521537D01*
X91268732Y-79469530D01*
X91263610Y-79417523D01*
X91263610Y-79417516D01*
X91248290Y-79261970D01*
X91187747Y-79062385D01*
X91093123Y-78885356D01*
X91232641Y-79055359D01*
X91409091Y-79200168D01*
X91610401Y-79307771D01*
X91828836Y-79374032D01*
X91999082Y-79390800D01*
X92912918Y-79390800D01*
X93083164Y-79374032D01*
X93301599Y-79307771D01*
X93502909Y-79200168D01*
X93679359Y-79055359D01*
X93824168Y-78878909D01*
X93931771Y-78677599D01*
X93998032Y-78459164D01*
X94020406Y-78232000D01*
X93998032Y-78004836D01*
X93931771Y-77786401D01*
X93824168Y-77585091D01*
X93679359Y-77408641D01*
X93502909Y-77263832D01*
X93301599Y-77156229D01*
X93083164Y-77089968D01*
X92912918Y-77073200D01*
X91999082Y-77073200D01*
X91828836Y-77089968D01*
X91610401Y-77156229D01*
X91409091Y-77263832D01*
X91232641Y-77408641D01*
X91087832Y-77585091D01*
X90980229Y-77786401D01*
X90913968Y-78004836D01*
X90891594Y-78232000D01*
X90913968Y-78459164D01*
X90980229Y-78677599D01*
X91084139Y-78872000D01*
X90957117Y-78717224D01*
X90916714Y-78684066D01*
X87924647Y-75692000D01*
X90891594Y-75692000D01*
X90913968Y-75919164D01*
X90980229Y-76137599D01*
X91087832Y-76338909D01*
X91232641Y-76515359D01*
X91409091Y-76660168D01*
X91610401Y-76767771D01*
X91828836Y-76834032D01*
X91999082Y-76850800D01*
X92912918Y-76850800D01*
X93083164Y-76834032D01*
X93301599Y-76767771D01*
X93502909Y-76660168D01*
X93679359Y-76515359D01*
X93824168Y-76338909D01*
X93931771Y-76137599D01*
X93998032Y-75919164D01*
X94020406Y-75692000D01*
X93998032Y-75464836D01*
X93931771Y-75246401D01*
X93824168Y-75045091D01*
X93679359Y-74868641D01*
X93502909Y-74723832D01*
X93301599Y-74616229D01*
X93083164Y-74549968D01*
X92912918Y-74533200D01*
X91999082Y-74533200D01*
X91828836Y-74549968D01*
X91610401Y-74616229D01*
X91409091Y-74723832D01*
X91232641Y-74868641D01*
X91087832Y-75045091D01*
X90980229Y-75246401D01*
X90913968Y-75464836D01*
X90891594Y-75692000D01*
X87924647Y-75692000D01*
X85928686Y-73696040D01*
X86420562Y-73899781D01*
X86953556Y-74005800D01*
X87496992Y-74005800D01*
X88029986Y-73899781D01*
X88532056Y-73691817D01*
X88983907Y-73389900D01*
X89221807Y-73152000D01*
X90891594Y-73152000D01*
X90913968Y-73379164D01*
X90980229Y-73597599D01*
X91087832Y-73798909D01*
X91232641Y-73975359D01*
X91409091Y-74120168D01*
X91610401Y-74227771D01*
X91828836Y-74294032D01*
X91999082Y-74310800D01*
X92912918Y-74310800D01*
X93083164Y-74294032D01*
X93301599Y-74227771D01*
X93502909Y-74120168D01*
X93679359Y-73975359D01*
X93824168Y-73798909D01*
X93931771Y-73597599D01*
X93998032Y-73379164D01*
X94020406Y-73152000D01*
X93998032Y-72924836D01*
X93931771Y-72706401D01*
X93824168Y-72505091D01*
X93679359Y-72328641D01*
X93502909Y-72183832D01*
X93301599Y-72076229D01*
X93083164Y-72009968D01*
X92912918Y-71993200D01*
X91999082Y-71993200D01*
X91828836Y-72009968D01*
X91610401Y-72076229D01*
X91409091Y-72183832D01*
X91232641Y-72328641D01*
X91087832Y-72505091D01*
X90980229Y-72706401D01*
X90913968Y-72924836D01*
X90891594Y-73152000D01*
X89221807Y-73152000D01*
X89368174Y-73005633D01*
X89670091Y-72553782D01*
X89878055Y-72051712D01*
X89984074Y-71518718D01*
X89984074Y-70975282D01*
X89878055Y-70442288D01*
X89670091Y-69940218D01*
X89368174Y-69488367D01*
X88983907Y-69104100D01*
X88532056Y-68802183D01*
X88029986Y-68594219D01*
X87496992Y-68488200D01*
X86953556Y-68488200D01*
X86420562Y-68594219D01*
X85918492Y-68802183D01*
X85466641Y-69104100D01*
X85082374Y-69488367D01*
X84780457Y-69940218D01*
X84572493Y-70442288D01*
X84466474Y-70975282D01*
X84466474Y-71518718D01*
X84572493Y-72051712D01*
X84776235Y-72543589D01*
X84405610Y-72172964D01*
X84405610Y-51017036D01*
X87071200Y-48351447D01*
X87071200Y-66326000D01*
G36*
X247575000Y-70578210D02*
X247575000Y-87917790D01*
X245068790Y-90424000D01*
X185188621Y-90424000D01*
X180312329Y-86660363D01*
X178811126Y-80928497D01*
X178793850Y-80881797D01*
X178767795Y-80839365D01*
X178720607Y-80791776D01*
X177447194Y-79808926D01*
X177404984Y-79782512D01*
X177380124Y-79771777D01*
X175635369Y-79126350D01*
X175594525Y-79091341D01*
X174752000Y-77259507D01*
X174752000Y-74632420D01*
X174747119Y-74582867D01*
X174732665Y-74535218D01*
X174224665Y-73308798D01*
X174201193Y-73264885D01*
X174169605Y-73226395D01*
X174131115Y-73194807D01*
X174087202Y-73171335D01*
X172860782Y-72663335D01*
X172813133Y-72648881D01*
X172763580Y-72644000D01*
X172208806Y-72644000D01*
X172129715Y-72620008D01*
X171566000Y-72564487D01*
X171002284Y-72620008D01*
X170923193Y-72644000D01*
X170824026Y-72644000D01*
X170774473Y-72648881D01*
X170726824Y-72663335D01*
X169193798Y-73298335D01*
X169149885Y-73321807D01*
X169111395Y-73353395D01*
X169079807Y-73391885D01*
X169056335Y-73435798D01*
X168421335Y-74968824D01*
X168406881Y-75016473D01*
X168402000Y-75066026D01*
X168402000Y-76475790D01*
X166179500Y-78698290D01*
X163830000Y-76348790D01*
X163830000Y-71923210D01*
X167681210Y-68072000D01*
X245068790Y-68072000D01*
X247575000Y-70578210D01*
X247575000Y-70578210D01*
G37*
X247575000Y-70578210D02*
X247575000Y-87917790D01*
X245068790Y-90424000D01*
X185188621Y-90424000D01*
X180312329Y-86660363D01*
X178811126Y-80928497D01*
X178793850Y-80881797D01*
X178767795Y-80839365D01*
X178720607Y-80791776D01*
X177447194Y-79808926D01*
X177404984Y-79782512D01*
X177380124Y-79771777D01*
X175635369Y-79126350D01*
X175594525Y-79091341D01*
X174752000Y-77259507D01*
X174752000Y-74632420D01*
X174747119Y-74582867D01*
X174732665Y-74535218D01*
X174224665Y-73308798D01*
X174201193Y-73264885D01*
X174169605Y-73226395D01*
X174131115Y-73194807D01*
X174087202Y-73171335D01*
X172860782Y-72663335D01*
X172813133Y-72648881D01*
X172763580Y-72644000D01*
X172208806Y-72644000D01*
X172129715Y-72620008D01*
X171566000Y-72564487D01*
X171002284Y-72620008D01*
X170923193Y-72644000D01*
X170824026Y-72644000D01*
X170774473Y-72648881D01*
X170726824Y-72663335D01*
X169193798Y-73298335D01*
X169149885Y-73321807D01*
X169111395Y-73353395D01*
X169079807Y-73391885D01*
X169056335Y-73435798D01*
X168421335Y-74968824D01*
X168406881Y-75016473D01*
X168402000Y-75066026D01*
X168402000Y-76475790D01*
X166179500Y-78698290D01*
X163830000Y-76348790D01*
X163830000Y-71923210D01*
X167681210Y-68072000D01*
X245068790Y-68072000D01*
X247575000Y-70578210D01*
G36*
X247575000Y-41638210D02*
X247575000Y-64783831D01*
X246069304Y-66285327D01*
X161299875Y-66048541D01*
X156511300Y-63761112D01*
X150688022Y-56594000D01*
X168073289Y-56594000D01*
X168339156Y-57930603D01*
X169096280Y-59063720D01*
X170229397Y-59820844D01*
X171228610Y-60019600D01*
X171903390Y-60019600D01*
X172902603Y-59820844D01*
X174035720Y-59063720D01*
X174792844Y-57930603D01*
X175058711Y-56594000D01*
X174792844Y-55257397D01*
X174035720Y-54124280D01*
X172902603Y-53367156D01*
X171903390Y-53168400D01*
X171228610Y-53168400D01*
X170229397Y-53367156D01*
X169096280Y-54124280D01*
X168339156Y-55257397D01*
X168073289Y-56594000D01*
X150688022Y-56594000D01*
X147122911Y-52206171D01*
X147034940Y-52136996D01*
X142143162Y-49808654D01*
X142034000Y-49784000D01*
X132794000Y-49784000D01*
X132696798Y-49803335D01*
X132614395Y-49858395D01*
X129614395Y-52858395D01*
X129559335Y-52940798D01*
X129540000Y-53038000D01*
X129540000Y-73094790D01*
X126688790Y-75946000D01*
X121723210Y-75946000D01*
X118872000Y-73094790D01*
X118872000Y-42983210D01*
X121723210Y-40132000D01*
X246068790Y-40132000D01*
X247575000Y-41638210D01*
X247575000Y-41638210D01*
G37*
X247575000Y-41638210D02*
X247575000Y-64783831D01*
X246069304Y-66285327D01*
X161299875Y-66048541D01*
X156511300Y-63761112D01*
X150688022Y-56594000D01*
X168073289Y-56594000D01*
X168339156Y-57930603D01*
X169096280Y-59063720D01*
X170229397Y-59820844D01*
X171228610Y-60019600D01*
X171903390Y-60019600D01*
X172902603Y-59820844D01*
X174035720Y-59063720D01*
X174792844Y-57930603D01*
X175058711Y-56594000D01*
X174792844Y-55257397D01*
X174035720Y-54124280D01*
X172902603Y-53367156D01*
X171903390Y-53168400D01*
X171228610Y-53168400D01*
X170229397Y-53367156D01*
X169096280Y-54124280D01*
X168339156Y-55257397D01*
X168073289Y-56594000D01*
X150688022Y-56594000D01*
X147122911Y-52206171D01*
X147034940Y-52136996D01*
X142143162Y-49808654D01*
X142034000Y-49784000D01*
X132794000Y-49784000D01*
X132696798Y-49803335D01*
X132614395Y-49858395D01*
X129614395Y-52858395D01*
X129559335Y-52940798D01*
X129540000Y-53038000D01*
X129540000Y-73094790D01*
X126688790Y-75946000D01*
X121723210Y-75946000D01*
X118872000Y-73094790D01*
X118872000Y-42983210D01*
X121723210Y-40132000D01*
X246068790Y-40132000D01*
X247575000Y-41638210D01*
G36*
X248845000Y-39624000D02*
X248075262Y-39624000D01*
X247251631Y-38800369D01*
X246757210Y-38470008D01*
X246174000Y-38354000D01*
X121618000Y-38354000D01*
X121034790Y-38470008D01*
X120540369Y-38800369D01*
X119716738Y-39624000D01*
X118872000Y-39624000D01*
X118872000Y-30047000D01*
X248845000Y-30047000D01*
X248845000Y-39624000D01*
X248845000Y-39624000D01*
G37*
X248845000Y-39624000D02*
X248075262Y-39624000D01*
X247251631Y-38800369D01*
X246757210Y-38470008D01*
X246174000Y-38354000D01*
X121618000Y-38354000D01*
X121034790Y-38470008D01*
X120540369Y-38800369D01*
X119716738Y-39624000D01*
X118872000Y-39624000D01*
X118872000Y-30047000D01*
X248845000Y-30047000D01*
X248845000Y-39624000D01*
D37*
G36*
X117221000Y-37719000D02*
X53594000Y-37719000D01*
X53545399Y-37728667D01*
X53504197Y-37756197D01*
X53476667Y-37797399D01*
X53467000Y-37846000D01*
X53467000Y-149352000D01*
X53476667Y-149400601D01*
X53504197Y-149441803D01*
X53545399Y-149469333D01*
X53595012Y-149478996D01*
X117221000Y-148972016D01*
X117221000Y-157024000D01*
X50240000Y-157024000D01*
X50240000Y-29920000D01*
X117221000Y-29920000D01*
X117221000Y-37719000D01*
X117221000Y-37719000D01*
G37*
X117221000Y-37719000D02*
X53594000Y-37719000D01*
X53545399Y-37728667D01*
X53504197Y-37756197D01*
X53476667Y-37797399D01*
X53467000Y-37846000D01*
X53467000Y-149352000D01*
X53476667Y-149400601D01*
X53504197Y-149441803D01*
X53545399Y-149469333D01*
X53595012Y-149478996D01*
X117221000Y-148972016D01*
X117221000Y-157024000D01*
X50240000Y-157024000D01*
X50240000Y-29920000D01*
X117221000Y-29920000D01*
X117221000Y-37719000D01*
D32*
G36*
X95106121Y-44919331D02*
X95168051Y-44981261D01*
X95715201Y-46302197D01*
X95715200Y-52981722D01*
X95694458Y-53086000D01*
X95715200Y-53190277D01*
X95715200Y-53190281D01*
X95776632Y-53499122D01*
X96010648Y-53849352D01*
X96099054Y-53908423D01*
X96749831Y-54559200D01*
X93706581Y-54559200D01*
X93691448Y-54536552D01*
X93308141Y-54280434D01*
X92970131Y-54213200D01*
X91941869Y-54213200D01*
X91603859Y-54280434D01*
X91220552Y-54536552D01*
X90964434Y-54919859D01*
X90874498Y-55372000D01*
X90964434Y-55824141D01*
X91220552Y-56207448D01*
X91603859Y-56463566D01*
X91941869Y-56530800D01*
X92970131Y-56530800D01*
X93308141Y-56463566D01*
X93691448Y-56207448D01*
X93706581Y-56184800D01*
X97003748Y-56184800D01*
X99517200Y-58698253D01*
X99517201Y-74782026D01*
X99501277Y-74862081D01*
X99564360Y-75179219D01*
X99657264Y-75318260D01*
X99744005Y-75448077D01*
X99811869Y-75493422D01*
X100782577Y-76464131D01*
X100827923Y-76531996D01*
X101070639Y-76694173D01*
X101096780Y-76711640D01*
X101413919Y-76774723D01*
X101445998Y-76768342D01*
X101817979Y-77140323D01*
X102335772Y-77354800D01*
X102896228Y-77354800D01*
X103414021Y-77140323D01*
X103810323Y-76744021D01*
X104024800Y-76226228D01*
X104024800Y-75683277D01*
X104089200Y-75683277D01*
X104089200Y-76208723D01*
X104290280Y-76694173D01*
X104661827Y-77065720D01*
X105147277Y-77266800D01*
X105672723Y-77266800D01*
X106158173Y-77065720D01*
X106529720Y-76694173D01*
X106730800Y-76208723D01*
X106730800Y-75683277D01*
X106529720Y-75197827D01*
X106158173Y-74826280D01*
X105672723Y-74625200D01*
X105147277Y-74625200D01*
X104661827Y-74826280D01*
X104290280Y-75197827D01*
X104089200Y-75683277D01*
X104024800Y-75683277D01*
X104024800Y-75665772D01*
X103810323Y-75147979D01*
X103414021Y-74751677D01*
X102896228Y-74537200D01*
X102335772Y-74537200D01*
X101817979Y-74751677D01*
X101593524Y-74976132D01*
X101142800Y-74525409D01*
X101142800Y-69333277D01*
X104089200Y-69333277D01*
X104089200Y-69858723D01*
X104290280Y-70344173D01*
X104661827Y-70715720D01*
X105024635Y-70866000D01*
X104661827Y-71016280D01*
X104290280Y-71387827D01*
X104089200Y-71873277D01*
X104089200Y-72398723D01*
X104290280Y-72884173D01*
X104661827Y-73255720D01*
X105147277Y-73456800D01*
X105672723Y-73456800D01*
X106158173Y-73255720D01*
X106529720Y-72884173D01*
X106730800Y-72398723D01*
X106730800Y-71873277D01*
X106529720Y-71387827D01*
X106158173Y-71016280D01*
X105795365Y-70866000D01*
X106158173Y-70715720D01*
X106529720Y-70344173D01*
X106730800Y-69858723D01*
X106730800Y-69333277D01*
X106529720Y-68847827D01*
X106158173Y-68476280D01*
X105672723Y-68275200D01*
X105147277Y-68275200D01*
X104661827Y-68476280D01*
X104290280Y-68847827D01*
X104089200Y-69333277D01*
X101142800Y-69333277D01*
X101142800Y-64253277D01*
X104089200Y-64253277D01*
X104089200Y-64778723D01*
X104290280Y-65264173D01*
X104661827Y-65635720D01*
X105147277Y-65836800D01*
X105672723Y-65836800D01*
X106158173Y-65635720D01*
X106529720Y-65264173D01*
X106730800Y-64778723D01*
X106730800Y-64253277D01*
X106529720Y-63767827D01*
X106158173Y-63396280D01*
X105672723Y-63195200D01*
X105147277Y-63195200D01*
X104661827Y-63396280D01*
X104290280Y-63767827D01*
X104089200Y-64253277D01*
X101142800Y-64253277D01*
X101142800Y-58952170D01*
X103317579Y-61126949D01*
X103376648Y-61215352D01*
X103465051Y-61274421D01*
X103465053Y-61274423D01*
X103628403Y-61383570D01*
X103726877Y-61449368D01*
X104035718Y-61510800D01*
X104035722Y-61510800D01*
X104139999Y-61531542D01*
X104244277Y-61510800D01*
X104730456Y-61510800D01*
X104865979Y-61646323D01*
X105383772Y-61860800D01*
X105944228Y-61860800D01*
X106462021Y-61646323D01*
X106858323Y-61250021D01*
X107072800Y-60732228D01*
X107072800Y-60171772D01*
X106858323Y-59653979D01*
X106462021Y-59257677D01*
X105944228Y-59043200D01*
X105383772Y-59043200D01*
X104865979Y-59257677D01*
X104730456Y-59393200D01*
X104578570Y-59393200D01*
X99185266Y-53999897D01*
X99632344Y-53814711D01*
X99984784Y-53462271D01*
X100138000Y-53492747D01*
X101538000Y-53492747D01*
X101736129Y-53453337D01*
X101744622Y-53496033D01*
X101868128Y-53680872D01*
X102052967Y-53804378D01*
X102271000Y-53847747D01*
X103566000Y-53847747D01*
X103784033Y-53804378D01*
X103886000Y-53736246D01*
X103987967Y-53804378D01*
X104206000Y-53847747D01*
X105501000Y-53847747D01*
X105719033Y-53804378D01*
X105903872Y-53680872D01*
X106027378Y-53496033D01*
X106050978Y-53377388D01*
X106220640Y-53343640D01*
X106489497Y-53163996D01*
X106534844Y-53096129D01*
X106976774Y-52654200D01*
X107442000Y-52654200D01*
X107442000Y-103050790D01*
X105590790Y-104902000D01*
X102943210Y-104902000D01*
X101092000Y-103050790D01*
X101092000Y-94506051D01*
X101072665Y-94408849D01*
X98552000Y-88323426D01*
X98552000Y-83534000D01*
X98532665Y-83436798D01*
X97118451Y-80022584D01*
X97063391Y-79940181D01*
X96371545Y-79248335D01*
X94996000Y-75927477D01*
X94996000Y-71361236D01*
X94976665Y-71264034D01*
X94087665Y-69117798D01*
X94032605Y-69035395D01*
X93950202Y-68980335D01*
X91803966Y-68091335D01*
X91706764Y-68072000D01*
X89735210Y-68072000D01*
X87884000Y-66220790D01*
X87884000Y-65532000D01*
X90874498Y-65532000D01*
X90964434Y-65984141D01*
X91220552Y-66367448D01*
X91603859Y-66623566D01*
X91941869Y-66690800D01*
X92970131Y-66690800D01*
X93308141Y-66623566D01*
X93691448Y-66367448D01*
X93947566Y-65984141D01*
X94037502Y-65532000D01*
X93947566Y-65079859D01*
X93691448Y-64696552D01*
X93308141Y-64440434D01*
X92970131Y-64373200D01*
X91941869Y-64373200D01*
X91603859Y-64440434D01*
X91220552Y-64696552D01*
X90964434Y-65079859D01*
X90874498Y-65532000D01*
X87884000Y-65532000D01*
X87884000Y-62992000D01*
X90874498Y-62992000D01*
X90964434Y-63444141D01*
X91220552Y-63827448D01*
X91603859Y-64083566D01*
X91941869Y-64150800D01*
X92970131Y-64150800D01*
X93308141Y-64083566D01*
X93691448Y-63827448D01*
X93947566Y-63444141D01*
X94037502Y-62992000D01*
X93947566Y-62539859D01*
X93691448Y-62156552D01*
X93308141Y-61900434D01*
X92970131Y-61833200D01*
X91941869Y-61833200D01*
X91603859Y-61900434D01*
X91220552Y-62156552D01*
X90964434Y-62539859D01*
X90874498Y-62992000D01*
X87884000Y-62992000D01*
X87884000Y-60452000D01*
X90874498Y-60452000D01*
X90964434Y-60904141D01*
X91220552Y-61287448D01*
X91603859Y-61543566D01*
X91941869Y-61610800D01*
X92970131Y-61610800D01*
X93308141Y-61543566D01*
X93691448Y-61287448D01*
X93706581Y-61264800D01*
X94405328Y-61264800D01*
X95453201Y-62312673D01*
X95453200Y-76373950D01*
X95437277Y-76454000D01*
X95453200Y-76534049D01*
X95500360Y-76771138D01*
X95680004Y-77039996D01*
X95747871Y-77085343D01*
X99263201Y-80600674D01*
X99263200Y-89073950D01*
X99247277Y-89154000D01*
X99263200Y-89234049D01*
X99310360Y-89471138D01*
X99490004Y-89739996D01*
X99557871Y-89785343D01*
X101803201Y-92030673D01*
X101803200Y-100166456D01*
X101421677Y-100547979D01*
X101207200Y-101065772D01*
X101207200Y-101626228D01*
X101421677Y-102144021D01*
X101817979Y-102540323D01*
X102335772Y-102754800D01*
X102896228Y-102754800D01*
X103414021Y-102540323D01*
X103810323Y-102144021D01*
X104024800Y-101626228D01*
X104024800Y-101083277D01*
X104089200Y-101083277D01*
X104089200Y-101608723D01*
X104290280Y-102094173D01*
X104661827Y-102465720D01*
X105147277Y-102666800D01*
X105672723Y-102666800D01*
X106158173Y-102465720D01*
X106529720Y-102094173D01*
X106730800Y-101608723D01*
X106730800Y-101083277D01*
X106529720Y-100597827D01*
X106158173Y-100226280D01*
X105672723Y-100025200D01*
X105147277Y-100025200D01*
X104661827Y-100226280D01*
X104290280Y-100597827D01*
X104089200Y-101083277D01*
X104024800Y-101083277D01*
X104024800Y-101065772D01*
X103810323Y-100547979D01*
X103428800Y-100166456D01*
X103428800Y-91774049D01*
X103444723Y-91693999D01*
X103381640Y-91376861D01*
X103201996Y-91108004D01*
X103134129Y-91062657D01*
X100888800Y-88817328D01*
X100888800Y-87113277D01*
X104089200Y-87113277D01*
X104089200Y-87638723D01*
X104290280Y-88124173D01*
X104661827Y-88495720D01*
X105024635Y-88646000D01*
X104661827Y-88796280D01*
X104290280Y-89167827D01*
X104089200Y-89653277D01*
X104089200Y-90178723D01*
X104290280Y-90664173D01*
X104661827Y-91035720D01*
X105024635Y-91186000D01*
X104661827Y-91336280D01*
X104290280Y-91707827D01*
X104089200Y-92193277D01*
X104089200Y-92718723D01*
X104290280Y-93204173D01*
X104661827Y-93575720D01*
X105024635Y-93726000D01*
X104661827Y-93876280D01*
X104290280Y-94247827D01*
X104089200Y-94733277D01*
X104089200Y-95258723D01*
X104290280Y-95744173D01*
X104661827Y-96115720D01*
X105147277Y-96316800D01*
X105672723Y-96316800D01*
X106158173Y-96115720D01*
X106529720Y-95744173D01*
X106730800Y-95258723D01*
X106730800Y-94733277D01*
X106529720Y-94247827D01*
X106158173Y-93876280D01*
X105795365Y-93726000D01*
X106158173Y-93575720D01*
X106529720Y-93204173D01*
X106730800Y-92718723D01*
X106730800Y-92193277D01*
X106529720Y-91707827D01*
X106158173Y-91336280D01*
X105795365Y-91186000D01*
X106158173Y-91035720D01*
X106529720Y-90664173D01*
X106730800Y-90178723D01*
X106730800Y-89653277D01*
X106529720Y-89167827D01*
X106158173Y-88796280D01*
X105795365Y-88646000D01*
X106158173Y-88495720D01*
X106529720Y-88124173D01*
X106730800Y-87638723D01*
X106730800Y-87113277D01*
X106529720Y-86627827D01*
X106158173Y-86256280D01*
X105672723Y-86055200D01*
X105147277Y-86055200D01*
X104661827Y-86256280D01*
X104290280Y-86627827D01*
X104089200Y-87113277D01*
X100888800Y-87113277D01*
X100888800Y-80763277D01*
X104089200Y-80763277D01*
X104089200Y-81288723D01*
X104290280Y-81774173D01*
X104661827Y-82145720D01*
X105024635Y-82296000D01*
X104661827Y-82446280D01*
X104290280Y-82817827D01*
X104089200Y-83303277D01*
X104089200Y-83828723D01*
X104290280Y-84314173D01*
X104661827Y-84685720D01*
X105147277Y-84886800D01*
X105672723Y-84886800D01*
X106158173Y-84685720D01*
X106529720Y-84314173D01*
X106730800Y-83828723D01*
X106730800Y-83303277D01*
X106529720Y-82817827D01*
X106158173Y-82446280D01*
X105795365Y-82296000D01*
X106158173Y-82145720D01*
X106529720Y-81774173D01*
X106730800Y-81288723D01*
X106730800Y-80763277D01*
X106529720Y-80277827D01*
X106158173Y-79906280D01*
X105672723Y-79705200D01*
X105147277Y-79705200D01*
X104661827Y-79906280D01*
X104290280Y-80277827D01*
X104089200Y-80763277D01*
X100888800Y-80763277D01*
X100888800Y-80344050D01*
X100904723Y-80264000D01*
X100841640Y-79946862D01*
X100841640Y-79946861D01*
X100661996Y-79678004D01*
X100594131Y-79632658D01*
X97078800Y-76117328D01*
X97078800Y-62056049D01*
X97094723Y-61975999D01*
X97031640Y-61658861D01*
X97023262Y-61646323D01*
X96851996Y-61390004D01*
X96784129Y-61344657D01*
X95373343Y-59933871D01*
X95327996Y-59866004D01*
X95059139Y-59686360D01*
X94822050Y-59639200D01*
X94742000Y-59623277D01*
X94661950Y-59639200D01*
X93706581Y-59639200D01*
X93691448Y-59616552D01*
X93308141Y-59360434D01*
X92970131Y-59293200D01*
X91941869Y-59293200D01*
X91603859Y-59360434D01*
X91220552Y-59616552D01*
X90964434Y-59999859D01*
X90874498Y-60452000D01*
X87884000Y-60452000D01*
X87884000Y-57912000D01*
X90874498Y-57912000D01*
X90964434Y-58364141D01*
X91220552Y-58747448D01*
X91603859Y-59003566D01*
X91941869Y-59070800D01*
X92970131Y-59070800D01*
X93308141Y-59003566D01*
X93357179Y-58970800D01*
X93737745Y-58970800D01*
X93915656Y-59148711D01*
X94451827Y-59370800D01*
X95032173Y-59370800D01*
X95568344Y-59148711D01*
X95978711Y-58738344D01*
X96200800Y-58202173D01*
X96200800Y-57621827D01*
X95978711Y-57085656D01*
X95568344Y-56675289D01*
X95032173Y-56453200D01*
X94451827Y-56453200D01*
X93915656Y-56675289D01*
X93737745Y-56853200D01*
X93357179Y-56853200D01*
X93308141Y-56820434D01*
X92970131Y-56753200D01*
X91941869Y-56753200D01*
X91603859Y-56820434D01*
X91220552Y-57076552D01*
X90964434Y-57459859D01*
X90874498Y-57912000D01*
X87884000Y-57912000D01*
X87884000Y-52832000D01*
X90874498Y-52832000D01*
X90964434Y-53284141D01*
X91220552Y-53667448D01*
X91603859Y-53923566D01*
X91941869Y-53990800D01*
X92970131Y-53990800D01*
X93308141Y-53923566D01*
X93691448Y-53667448D01*
X93947566Y-53284141D01*
X94037502Y-52832000D01*
X93947566Y-52379859D01*
X93691448Y-51996552D01*
X93308141Y-51740434D01*
X92970131Y-51673200D01*
X91941869Y-51673200D01*
X91603859Y-51740434D01*
X91220552Y-51996552D01*
X90964434Y-52379859D01*
X90874498Y-52832000D01*
X87884000Y-52832000D01*
X87884000Y-50292000D01*
X90874498Y-50292000D01*
X90964434Y-50744141D01*
X91220552Y-51127448D01*
X91603859Y-51383566D01*
X91941869Y-51450800D01*
X92970131Y-51450800D01*
X93308141Y-51383566D01*
X93691448Y-51127448D01*
X93947566Y-50744141D01*
X94037502Y-50292000D01*
X93947566Y-49839859D01*
X93691448Y-49456552D01*
X93308141Y-49200434D01*
X92970131Y-49133200D01*
X91941869Y-49133200D01*
X91603859Y-49200434D01*
X91220552Y-49456552D01*
X90964434Y-49839859D01*
X90874498Y-50292000D01*
X87884000Y-50292000D01*
X87884000Y-47752000D01*
X90874498Y-47752000D01*
X90964434Y-48204141D01*
X91220552Y-48587448D01*
X91603859Y-48843566D01*
X91941869Y-48910800D01*
X92970131Y-48910800D01*
X93308141Y-48843566D01*
X93691448Y-48587448D01*
X93947566Y-48204141D01*
X94037502Y-47752000D01*
X93947566Y-47299859D01*
X93691448Y-46916552D01*
X93308141Y-46660434D01*
X92970131Y-46593200D01*
X91941869Y-46593200D01*
X91603859Y-46660434D01*
X91220552Y-46916552D01*
X90964434Y-47299859D01*
X90874498Y-47752000D01*
X87884000Y-47752000D01*
X87884000Y-46047210D01*
X89692410Y-44238800D01*
X93463174Y-44238800D01*
X95106121Y-44919331D01*
X95106121Y-44919331D01*
G37*
X95106121Y-44919331D02*
X95168051Y-44981261D01*
X95715201Y-46302197D01*
X95715200Y-52981722D01*
X95694458Y-53086000D01*
X95715200Y-53190277D01*
X95715200Y-53190281D01*
X95776632Y-53499122D01*
X96010648Y-53849352D01*
X96099054Y-53908423D01*
X96749831Y-54559200D01*
X93706581Y-54559200D01*
X93691448Y-54536552D01*
X93308141Y-54280434D01*
X92970131Y-54213200D01*
X91941869Y-54213200D01*
X91603859Y-54280434D01*
X91220552Y-54536552D01*
X90964434Y-54919859D01*
X90874498Y-55372000D01*
X90964434Y-55824141D01*
X91220552Y-56207448D01*
X91603859Y-56463566D01*
X91941869Y-56530800D01*
X92970131Y-56530800D01*
X93308141Y-56463566D01*
X93691448Y-56207448D01*
X93706581Y-56184800D01*
X97003748Y-56184800D01*
X99517200Y-58698253D01*
X99517201Y-74782026D01*
X99501277Y-74862081D01*
X99564360Y-75179219D01*
X99657264Y-75318260D01*
X99744005Y-75448077D01*
X99811869Y-75493422D01*
X100782577Y-76464131D01*
X100827923Y-76531996D01*
X101070639Y-76694173D01*
X101096780Y-76711640D01*
X101413919Y-76774723D01*
X101445998Y-76768342D01*
X101817979Y-77140323D01*
X102335772Y-77354800D01*
X102896228Y-77354800D01*
X103414021Y-77140323D01*
X103810323Y-76744021D01*
X104024800Y-76226228D01*
X104024800Y-75683277D01*
X104089200Y-75683277D01*
X104089200Y-76208723D01*
X104290280Y-76694173D01*
X104661827Y-77065720D01*
X105147277Y-77266800D01*
X105672723Y-77266800D01*
X106158173Y-77065720D01*
X106529720Y-76694173D01*
X106730800Y-76208723D01*
X106730800Y-75683277D01*
X106529720Y-75197827D01*
X106158173Y-74826280D01*
X105672723Y-74625200D01*
X105147277Y-74625200D01*
X104661827Y-74826280D01*
X104290280Y-75197827D01*
X104089200Y-75683277D01*
X104024800Y-75683277D01*
X104024800Y-75665772D01*
X103810323Y-75147979D01*
X103414021Y-74751677D01*
X102896228Y-74537200D01*
X102335772Y-74537200D01*
X101817979Y-74751677D01*
X101593524Y-74976132D01*
X101142800Y-74525409D01*
X101142800Y-69333277D01*
X104089200Y-69333277D01*
X104089200Y-69858723D01*
X104290280Y-70344173D01*
X104661827Y-70715720D01*
X105024635Y-70866000D01*
X104661827Y-71016280D01*
X104290280Y-71387827D01*
X104089200Y-71873277D01*
X104089200Y-72398723D01*
X104290280Y-72884173D01*
X104661827Y-73255720D01*
X105147277Y-73456800D01*
X105672723Y-73456800D01*
X106158173Y-73255720D01*
X106529720Y-72884173D01*
X106730800Y-72398723D01*
X106730800Y-71873277D01*
X106529720Y-71387827D01*
X106158173Y-71016280D01*
X105795365Y-70866000D01*
X106158173Y-70715720D01*
X106529720Y-70344173D01*
X106730800Y-69858723D01*
X106730800Y-69333277D01*
X106529720Y-68847827D01*
X106158173Y-68476280D01*
X105672723Y-68275200D01*
X105147277Y-68275200D01*
X104661827Y-68476280D01*
X104290280Y-68847827D01*
X104089200Y-69333277D01*
X101142800Y-69333277D01*
X101142800Y-64253277D01*
X104089200Y-64253277D01*
X104089200Y-64778723D01*
X104290280Y-65264173D01*
X104661827Y-65635720D01*
X105147277Y-65836800D01*
X105672723Y-65836800D01*
X106158173Y-65635720D01*
X106529720Y-65264173D01*
X106730800Y-64778723D01*
X106730800Y-64253277D01*
X106529720Y-63767827D01*
X106158173Y-63396280D01*
X105672723Y-63195200D01*
X105147277Y-63195200D01*
X104661827Y-63396280D01*
X104290280Y-63767827D01*
X104089200Y-64253277D01*
X101142800Y-64253277D01*
X101142800Y-58952170D01*
X103317579Y-61126949D01*
X103376648Y-61215352D01*
X103465051Y-61274421D01*
X103465053Y-61274423D01*
X103628403Y-61383570D01*
X103726877Y-61449368D01*
X104035718Y-61510800D01*
X104035722Y-61510800D01*
X104139999Y-61531542D01*
X104244277Y-61510800D01*
X104730456Y-61510800D01*
X104865979Y-61646323D01*
X105383772Y-61860800D01*
X105944228Y-61860800D01*
X106462021Y-61646323D01*
X106858323Y-61250021D01*
X107072800Y-60732228D01*
X107072800Y-60171772D01*
X106858323Y-59653979D01*
X106462021Y-59257677D01*
X105944228Y-59043200D01*
X105383772Y-59043200D01*
X104865979Y-59257677D01*
X104730456Y-59393200D01*
X104578570Y-59393200D01*
X99185266Y-53999897D01*
X99632344Y-53814711D01*
X99984784Y-53462271D01*
X100138000Y-53492747D01*
X101538000Y-53492747D01*
X101736129Y-53453337D01*
X101744622Y-53496033D01*
X101868128Y-53680872D01*
X102052967Y-53804378D01*
X102271000Y-53847747D01*
X103566000Y-53847747D01*
X103784033Y-53804378D01*
X103886000Y-53736246D01*
X103987967Y-53804378D01*
X104206000Y-53847747D01*
X105501000Y-53847747D01*
X105719033Y-53804378D01*
X105903872Y-53680872D01*
X106027378Y-53496033D01*
X106050978Y-53377388D01*
X106220640Y-53343640D01*
X106489497Y-53163996D01*
X106534844Y-53096129D01*
X106976774Y-52654200D01*
X107442000Y-52654200D01*
X107442000Y-103050790D01*
X105590790Y-104902000D01*
X102943210Y-104902000D01*
X101092000Y-103050790D01*
X101092000Y-94506051D01*
X101072665Y-94408849D01*
X98552000Y-88323426D01*
X98552000Y-83534000D01*
X98532665Y-83436798D01*
X97118451Y-80022584D01*
X97063391Y-79940181D01*
X96371545Y-79248335D01*
X94996000Y-75927477D01*
X94996000Y-71361236D01*
X94976665Y-71264034D01*
X94087665Y-69117798D01*
X94032605Y-69035395D01*
X93950202Y-68980335D01*
X91803966Y-68091335D01*
X91706764Y-68072000D01*
X89735210Y-68072000D01*
X87884000Y-66220790D01*
X87884000Y-65532000D01*
X90874498Y-65532000D01*
X90964434Y-65984141D01*
X91220552Y-66367448D01*
X91603859Y-66623566D01*
X91941869Y-66690800D01*
X92970131Y-66690800D01*
X93308141Y-66623566D01*
X93691448Y-66367448D01*
X93947566Y-65984141D01*
X94037502Y-65532000D01*
X93947566Y-65079859D01*
X93691448Y-64696552D01*
X93308141Y-64440434D01*
X92970131Y-64373200D01*
X91941869Y-64373200D01*
X91603859Y-64440434D01*
X91220552Y-64696552D01*
X90964434Y-65079859D01*
X90874498Y-65532000D01*
X87884000Y-65532000D01*
X87884000Y-62992000D01*
X90874498Y-62992000D01*
X90964434Y-63444141D01*
X91220552Y-63827448D01*
X91603859Y-64083566D01*
X91941869Y-64150800D01*
X92970131Y-64150800D01*
X93308141Y-64083566D01*
X93691448Y-63827448D01*
X93947566Y-63444141D01*
X94037502Y-62992000D01*
X93947566Y-62539859D01*
X93691448Y-62156552D01*
X93308141Y-61900434D01*
X92970131Y-61833200D01*
X91941869Y-61833200D01*
X91603859Y-61900434D01*
X91220552Y-62156552D01*
X90964434Y-62539859D01*
X90874498Y-62992000D01*
X87884000Y-62992000D01*
X87884000Y-60452000D01*
X90874498Y-60452000D01*
X90964434Y-60904141D01*
X91220552Y-61287448D01*
X91603859Y-61543566D01*
X91941869Y-61610800D01*
X92970131Y-61610800D01*
X93308141Y-61543566D01*
X93691448Y-61287448D01*
X93706581Y-61264800D01*
X94405328Y-61264800D01*
X95453201Y-62312673D01*
X95453200Y-76373950D01*
X95437277Y-76454000D01*
X95453200Y-76534049D01*
X95500360Y-76771138D01*
X95680004Y-77039996D01*
X95747871Y-77085343D01*
X99263201Y-80600674D01*
X99263200Y-89073950D01*
X99247277Y-89154000D01*
X99263200Y-89234049D01*
X99310360Y-89471138D01*
X99490004Y-89739996D01*
X99557871Y-89785343D01*
X101803201Y-92030673D01*
X101803200Y-100166456D01*
X101421677Y-100547979D01*
X101207200Y-101065772D01*
X101207200Y-101626228D01*
X101421677Y-102144021D01*
X101817979Y-102540323D01*
X102335772Y-102754800D01*
X102896228Y-102754800D01*
X103414021Y-102540323D01*
X103810323Y-102144021D01*
X104024800Y-101626228D01*
X104024800Y-101083277D01*
X104089200Y-101083277D01*
X104089200Y-101608723D01*
X104290280Y-102094173D01*
X104661827Y-102465720D01*
X105147277Y-102666800D01*
X105672723Y-102666800D01*
X106158173Y-102465720D01*
X106529720Y-102094173D01*
X106730800Y-101608723D01*
X106730800Y-101083277D01*
X106529720Y-100597827D01*
X106158173Y-100226280D01*
X105672723Y-100025200D01*
X105147277Y-100025200D01*
X104661827Y-100226280D01*
X104290280Y-100597827D01*
X104089200Y-101083277D01*
X104024800Y-101083277D01*
X104024800Y-101065772D01*
X103810323Y-100547979D01*
X103428800Y-100166456D01*
X103428800Y-91774049D01*
X103444723Y-91693999D01*
X103381640Y-91376861D01*
X103201996Y-91108004D01*
X103134129Y-91062657D01*
X100888800Y-88817328D01*
X100888800Y-87113277D01*
X104089200Y-87113277D01*
X104089200Y-87638723D01*
X104290280Y-88124173D01*
X104661827Y-88495720D01*
X105024635Y-88646000D01*
X104661827Y-88796280D01*
X104290280Y-89167827D01*
X104089200Y-89653277D01*
X104089200Y-90178723D01*
X104290280Y-90664173D01*
X104661827Y-91035720D01*
X105024635Y-91186000D01*
X104661827Y-91336280D01*
X104290280Y-91707827D01*
X104089200Y-92193277D01*
X104089200Y-92718723D01*
X104290280Y-93204173D01*
X104661827Y-93575720D01*
X105024635Y-93726000D01*
X104661827Y-93876280D01*
X104290280Y-94247827D01*
X104089200Y-94733277D01*
X104089200Y-95258723D01*
X104290280Y-95744173D01*
X104661827Y-96115720D01*
X105147277Y-96316800D01*
X105672723Y-96316800D01*
X106158173Y-96115720D01*
X106529720Y-95744173D01*
X106730800Y-95258723D01*
X106730800Y-94733277D01*
X106529720Y-94247827D01*
X106158173Y-93876280D01*
X105795365Y-93726000D01*
X106158173Y-93575720D01*
X106529720Y-93204173D01*
X106730800Y-92718723D01*
X106730800Y-92193277D01*
X106529720Y-91707827D01*
X106158173Y-91336280D01*
X105795365Y-91186000D01*
X106158173Y-91035720D01*
X106529720Y-90664173D01*
X106730800Y-90178723D01*
X106730800Y-89653277D01*
X106529720Y-89167827D01*
X106158173Y-88796280D01*
X105795365Y-88646000D01*
X106158173Y-88495720D01*
X106529720Y-88124173D01*
X106730800Y-87638723D01*
X106730800Y-87113277D01*
X106529720Y-86627827D01*
X106158173Y-86256280D01*
X105672723Y-86055200D01*
X105147277Y-86055200D01*
X104661827Y-86256280D01*
X104290280Y-86627827D01*
X104089200Y-87113277D01*
X100888800Y-87113277D01*
X100888800Y-80763277D01*
X104089200Y-80763277D01*
X104089200Y-81288723D01*
X104290280Y-81774173D01*
X104661827Y-82145720D01*
X105024635Y-82296000D01*
X104661827Y-82446280D01*
X104290280Y-82817827D01*
X104089200Y-83303277D01*
X104089200Y-83828723D01*
X104290280Y-84314173D01*
X104661827Y-84685720D01*
X105147277Y-84886800D01*
X105672723Y-84886800D01*
X106158173Y-84685720D01*
X106529720Y-84314173D01*
X106730800Y-83828723D01*
X106730800Y-83303277D01*
X106529720Y-82817827D01*
X106158173Y-82446280D01*
X105795365Y-82296000D01*
X106158173Y-82145720D01*
X106529720Y-81774173D01*
X106730800Y-81288723D01*
X106730800Y-80763277D01*
X106529720Y-80277827D01*
X106158173Y-79906280D01*
X105672723Y-79705200D01*
X105147277Y-79705200D01*
X104661827Y-79906280D01*
X104290280Y-80277827D01*
X104089200Y-80763277D01*
X100888800Y-80763277D01*
X100888800Y-80344050D01*
X100904723Y-80264000D01*
X100841640Y-79946862D01*
X100841640Y-79946861D01*
X100661996Y-79678004D01*
X100594131Y-79632658D01*
X97078800Y-76117328D01*
X97078800Y-62056049D01*
X97094723Y-61975999D01*
X97031640Y-61658861D01*
X97023262Y-61646323D01*
X96851996Y-61390004D01*
X96784129Y-61344657D01*
X95373343Y-59933871D01*
X95327996Y-59866004D01*
X95059139Y-59686360D01*
X94822050Y-59639200D01*
X94742000Y-59623277D01*
X94661950Y-59639200D01*
X93706581Y-59639200D01*
X93691448Y-59616552D01*
X93308141Y-59360434D01*
X92970131Y-59293200D01*
X91941869Y-59293200D01*
X91603859Y-59360434D01*
X91220552Y-59616552D01*
X90964434Y-59999859D01*
X90874498Y-60452000D01*
X87884000Y-60452000D01*
X87884000Y-57912000D01*
X90874498Y-57912000D01*
X90964434Y-58364141D01*
X91220552Y-58747448D01*
X91603859Y-59003566D01*
X91941869Y-59070800D01*
X92970131Y-59070800D01*
X93308141Y-59003566D01*
X93357179Y-58970800D01*
X93737745Y-58970800D01*
X93915656Y-59148711D01*
X94451827Y-59370800D01*
X95032173Y-59370800D01*
X95568344Y-59148711D01*
X95978711Y-58738344D01*
X96200800Y-58202173D01*
X96200800Y-57621827D01*
X95978711Y-57085656D01*
X95568344Y-56675289D01*
X95032173Y-56453200D01*
X94451827Y-56453200D01*
X93915656Y-56675289D01*
X93737745Y-56853200D01*
X93357179Y-56853200D01*
X93308141Y-56820434D01*
X92970131Y-56753200D01*
X91941869Y-56753200D01*
X91603859Y-56820434D01*
X91220552Y-57076552D01*
X90964434Y-57459859D01*
X90874498Y-57912000D01*
X87884000Y-57912000D01*
X87884000Y-52832000D01*
X90874498Y-52832000D01*
X90964434Y-53284141D01*
X91220552Y-53667448D01*
X91603859Y-53923566D01*
X91941869Y-53990800D01*
X92970131Y-53990800D01*
X93308141Y-53923566D01*
X93691448Y-53667448D01*
X93947566Y-53284141D01*
X94037502Y-52832000D01*
X93947566Y-52379859D01*
X93691448Y-51996552D01*
X93308141Y-51740434D01*
X92970131Y-51673200D01*
X91941869Y-51673200D01*
X91603859Y-51740434D01*
X91220552Y-51996552D01*
X90964434Y-52379859D01*
X90874498Y-52832000D01*
X87884000Y-52832000D01*
X87884000Y-50292000D01*
X90874498Y-50292000D01*
X90964434Y-50744141D01*
X91220552Y-51127448D01*
X91603859Y-51383566D01*
X91941869Y-51450800D01*
X92970131Y-51450800D01*
X93308141Y-51383566D01*
X93691448Y-51127448D01*
X93947566Y-50744141D01*
X94037502Y-50292000D01*
X93947566Y-49839859D01*
X93691448Y-49456552D01*
X93308141Y-49200434D01*
X92970131Y-49133200D01*
X91941869Y-49133200D01*
X91603859Y-49200434D01*
X91220552Y-49456552D01*
X90964434Y-49839859D01*
X90874498Y-50292000D01*
X87884000Y-50292000D01*
X87884000Y-47752000D01*
X90874498Y-47752000D01*
X90964434Y-48204141D01*
X91220552Y-48587448D01*
X91603859Y-48843566D01*
X91941869Y-48910800D01*
X92970131Y-48910800D01*
X93308141Y-48843566D01*
X93691448Y-48587448D01*
X93947566Y-48204141D01*
X94037502Y-47752000D01*
X93947566Y-47299859D01*
X93691448Y-46916552D01*
X93308141Y-46660434D01*
X92970131Y-46593200D01*
X91941869Y-46593200D01*
X91603859Y-46660434D01*
X91220552Y-46916552D01*
X90964434Y-47299859D01*
X90874498Y-47752000D01*
X87884000Y-47752000D01*
X87884000Y-46047210D01*
X89692410Y-44238800D01*
X93463174Y-44238800D01*
X95106121Y-44919331D01*
G36*
X107442000Y-48111210D02*
X107442000Y-50215800D01*
X106976774Y-50215800D01*
X106534844Y-49773871D01*
X106489497Y-49706004D01*
X106220640Y-49526360D01*
X106050978Y-49492612D01*
X106027378Y-49373967D01*
X105903872Y-49189128D01*
X105719033Y-49065622D01*
X105501000Y-49022253D01*
X104206000Y-49022253D01*
X103987967Y-49065622D01*
X103803128Y-49189128D01*
X103679622Y-49373967D01*
X103636253Y-49592000D01*
X103636253Y-50992000D01*
X103679622Y-51210033D01*
X103772726Y-51349373D01*
X103566000Y-51308253D01*
X102271000Y-51308253D01*
X102052967Y-51351622D01*
X102033904Y-51364360D01*
X101940872Y-51225128D01*
X101756033Y-51101622D01*
X101538000Y-51058253D01*
X100138000Y-51058253D01*
X99919967Y-51101622D01*
X99735128Y-51225128D01*
X99647431Y-51356376D01*
X99632344Y-51341289D01*
X99096173Y-51119200D01*
X98515827Y-51119200D01*
X97979656Y-51341289D01*
X97832800Y-51488145D01*
X97832800Y-47498000D01*
X106828790Y-47498000D01*
X107442000Y-48111210D01*
X107442000Y-48111210D01*
G37*
X107442000Y-48111210D02*
X107442000Y-50215800D01*
X106976774Y-50215800D01*
X106534844Y-49773871D01*
X106489497Y-49706004D01*
X106220640Y-49526360D01*
X106050978Y-49492612D01*
X106027378Y-49373967D01*
X105903872Y-49189128D01*
X105719033Y-49065622D01*
X105501000Y-49022253D01*
X104206000Y-49022253D01*
X103987967Y-49065622D01*
X103803128Y-49189128D01*
X103679622Y-49373967D01*
X103636253Y-49592000D01*
X103636253Y-50992000D01*
X103679622Y-51210033D01*
X103772726Y-51349373D01*
X103566000Y-51308253D01*
X102271000Y-51308253D01*
X102052967Y-51351622D01*
X102033904Y-51364360D01*
X101940872Y-51225128D01*
X101756033Y-51101622D01*
X101538000Y-51058253D01*
X100138000Y-51058253D01*
X99919967Y-51101622D01*
X99735128Y-51225128D01*
X99647431Y-51356376D01*
X99632344Y-51341289D01*
X99096173Y-51119200D01*
X98515827Y-51119200D01*
X97979656Y-51341289D01*
X97832800Y-51488145D01*
X97832800Y-47498000D01*
X106828790Y-47498000D01*
X107442000Y-48111210D01*
D38*
G36*
X128117600Y-98583251D02*
X128117600Y-101875006D01*
X127552579Y-105770841D01*
X126660056Y-108783109D01*
X126655355Y-108804530D01*
X126087178Y-112722126D01*
X126085600Y-112744000D01*
X126085600Y-116554874D01*
X124174874Y-118465600D01*
X121265326Y-118465600D01*
X119354600Y-116554874D01*
X119354600Y-98608401D01*
X121265620Y-96692021D01*
X126207183Y-96678178D01*
X128117600Y-98583251D01*
X128117600Y-98583251D01*
G37*
X128117600Y-98583251D02*
X128117600Y-101875006D01*
X127552579Y-105770841D01*
X126660056Y-108783109D01*
X126655355Y-108804530D01*
X126087178Y-112722126D01*
X126085600Y-112744000D01*
X126085600Y-116554874D01*
X124174874Y-118465600D01*
X121265326Y-118465600D01*
X119354600Y-116554874D01*
X119354600Y-98608401D01*
X121265620Y-96692021D01*
X126207183Y-96678178D01*
X128117600Y-98583251D01*
G36*
X126085600Y-121335460D02*
X126085600Y-125794000D01*
X126088528Y-125823732D01*
X126097201Y-125852321D01*
X126111284Y-125878669D01*
X126130237Y-125901763D01*
X130130237Y-129901763D01*
X130153331Y-129920716D01*
X130179679Y-129934799D01*
X130208268Y-129943472D01*
X130238000Y-129946400D01*
X138752836Y-129946400D01*
X138877615Y-130029775D01*
X139291165Y-130201073D01*
X139730188Y-130288400D01*
X140177812Y-130288400D01*
X140616835Y-130201073D01*
X141030385Y-130029775D01*
X141155164Y-129946400D01*
X171006000Y-129946400D01*
X171035732Y-129943472D01*
X171073110Y-129930828D01*
X177521803Y-126767933D01*
X177547208Y-126752212D01*
X177575199Y-126724400D01*
X178752166Y-125204151D01*
X184458068Y-122405573D01*
X184557671Y-122472126D01*
X185102000Y-122580400D01*
X245174000Y-122580400D01*
X245544491Y-122506705D01*
X247676601Y-124641878D01*
X247676601Y-134519201D01*
X247475591Y-133508655D01*
X246991457Y-132339853D01*
X246288604Y-131287959D01*
X245394041Y-130393396D01*
X244342147Y-129690543D01*
X243173345Y-129206409D01*
X241932551Y-128959600D01*
X240667449Y-128959600D01*
X239426655Y-129206409D01*
X238257853Y-129690543D01*
X237205959Y-130393396D01*
X236311396Y-131287959D01*
X236260186Y-131364600D01*
X231204661Y-131364600D01*
X230334607Y-131450293D01*
X229218230Y-131788942D01*
X228189371Y-132338879D01*
X227287569Y-133078969D01*
X226547479Y-133980771D01*
X225997542Y-135009630D01*
X225658893Y-136126007D01*
X225544545Y-137287000D01*
X225658893Y-138447993D01*
X225997542Y-139564370D01*
X226547479Y-140593229D01*
X227287569Y-141495031D01*
X228189371Y-142235121D01*
X229218230Y-142785058D01*
X230334607Y-143123707D01*
X231204661Y-143209400D01*
X239104072Y-143209400D01*
X239395000Y-143238054D01*
X239685928Y-143209400D01*
X239685939Y-143209400D01*
X240555993Y-143123707D01*
X241672370Y-142785058D01*
X242701229Y-142235121D01*
X243603031Y-141495031D01*
X243746539Y-141320166D01*
X244342147Y-141073457D01*
X245394041Y-140370604D01*
X246288604Y-139476041D01*
X246991457Y-138424147D01*
X247475591Y-137255345D01*
X247676601Y-136244799D01*
X247676601Y-144239932D01*
X245074917Y-146838384D01*
X122681105Y-146862016D01*
X118770400Y-142952065D01*
X118770400Y-125005897D01*
X122465365Y-121323311D01*
X126085600Y-121335460D01*
X126085600Y-121335460D01*
G37*
X126085600Y-121335460D02*
X126085600Y-125794000D01*
X126088528Y-125823732D01*
X126097201Y-125852321D01*
X126111284Y-125878669D01*
X126130237Y-125901763D01*
X130130237Y-129901763D01*
X130153331Y-129920716D01*
X130179679Y-129934799D01*
X130208268Y-129943472D01*
X130238000Y-129946400D01*
X138752836Y-129946400D01*
X138877615Y-130029775D01*
X139291165Y-130201073D01*
X139730188Y-130288400D01*
X140177812Y-130288400D01*
X140616835Y-130201073D01*
X141030385Y-130029775D01*
X141155164Y-129946400D01*
X171006000Y-129946400D01*
X171035732Y-129943472D01*
X171073110Y-129930828D01*
X177521803Y-126767933D01*
X177547208Y-126752212D01*
X177575199Y-126724400D01*
X178752166Y-125204151D01*
X184458068Y-122405573D01*
X184557671Y-122472126D01*
X185102000Y-122580400D01*
X245174000Y-122580400D01*
X245544491Y-122506705D01*
X247676601Y-124641878D01*
X247676601Y-134519201D01*
X247475591Y-133508655D01*
X246991457Y-132339853D01*
X246288604Y-131287959D01*
X245394041Y-130393396D01*
X244342147Y-129690543D01*
X243173345Y-129206409D01*
X241932551Y-128959600D01*
X240667449Y-128959600D01*
X239426655Y-129206409D01*
X238257853Y-129690543D01*
X237205959Y-130393396D01*
X236311396Y-131287959D01*
X236260186Y-131364600D01*
X231204661Y-131364600D01*
X230334607Y-131450293D01*
X229218230Y-131788942D01*
X228189371Y-132338879D01*
X227287569Y-133078969D01*
X226547479Y-133980771D01*
X225997542Y-135009630D01*
X225658893Y-136126007D01*
X225544545Y-137287000D01*
X225658893Y-138447993D01*
X225997542Y-139564370D01*
X226547479Y-140593229D01*
X227287569Y-141495031D01*
X228189371Y-142235121D01*
X229218230Y-142785058D01*
X230334607Y-143123707D01*
X231204661Y-143209400D01*
X239104072Y-143209400D01*
X239395000Y-143238054D01*
X239685928Y-143209400D01*
X239685939Y-143209400D01*
X240555993Y-143123707D01*
X241672370Y-142785058D01*
X242701229Y-142235121D01*
X243603031Y-141495031D01*
X243746539Y-141320166D01*
X244342147Y-141073457D01*
X245394041Y-140370604D01*
X246288604Y-139476041D01*
X246991457Y-138424147D01*
X247475591Y-137255345D01*
X247676601Y-136244799D01*
X247676601Y-144239932D01*
X245074917Y-146838384D01*
X122681105Y-146862016D01*
X118770400Y-142952065D01*
X118770400Y-125005897D01*
X122465365Y-121323311D01*
X126085600Y-121335460D01*
G36*
X162915600Y-110470326D02*
X162915600Y-119596281D01*
X161934173Y-120577709D01*
X161824084Y-120311931D01*
X161569926Y-119931556D01*
X161246444Y-119608074D01*
X160866069Y-119353916D01*
X160443419Y-119178849D01*
X159994736Y-119089600D01*
X159537264Y-119089600D01*
X159088581Y-119178849D01*
X158665931Y-119353916D01*
X158285556Y-119608074D01*
X157962074Y-119931556D01*
X157707916Y-120311931D01*
X157532849Y-120734581D01*
X157443600Y-121183264D01*
X157443600Y-121640736D01*
X157499889Y-121923718D01*
X156272000Y-121923718D01*
X155993161Y-121951181D01*
X155725037Y-122032516D01*
X155477933Y-122164595D01*
X155272530Y-122333166D01*
X155289782Y-122158000D01*
X155289782Y-120158000D01*
X155262319Y-119879161D01*
X155180984Y-119611037D01*
X155048905Y-119363933D01*
X154871155Y-119147345D01*
X154654567Y-118969595D01*
X154407463Y-118837516D01*
X154139339Y-118756181D01*
X153860500Y-118728718D01*
X151955500Y-118728718D01*
X151676661Y-118756181D01*
X151408537Y-118837516D01*
X151161433Y-118969595D01*
X150944845Y-119147345D01*
X150767095Y-119363933D01*
X150635016Y-119611037D01*
X150553681Y-119879161D01*
X150526218Y-120158000D01*
X150526218Y-122158000D01*
X150553681Y-122436839D01*
X150597752Y-122582121D01*
X150556181Y-122719161D01*
X150528718Y-122998000D01*
X150528718Y-124398000D01*
X150556181Y-124676839D01*
X150567454Y-124714000D01*
X150556181Y-124751161D01*
X150528718Y-125030000D01*
X150528718Y-125585600D01*
X140556426Y-125585600D01*
X140461999Y-125576300D01*
X140367572Y-125585600D01*
X140367565Y-125585600D01*
X140121458Y-125609839D01*
X140085143Y-125613416D01*
X140012125Y-125635566D01*
X139722770Y-125723341D01*
X139658006Y-125757958D01*
X139291165Y-125830927D01*
X138877615Y-126002225D01*
X138505430Y-126250912D01*
X138273834Y-126482508D01*
X138176000Y-126384674D01*
X138176000Y-117602000D01*
X144118299Y-117602000D01*
X144127600Y-117696435D01*
X144127600Y-119285565D01*
X144118299Y-119380000D01*
X144155416Y-119756856D01*
X144184990Y-119854349D01*
X144265341Y-120119229D01*
X144443849Y-120453196D01*
X144684081Y-120745919D01*
X144757441Y-120806124D01*
X145480383Y-121529066D01*
X145544366Y-121850733D01*
X145723391Y-122282937D01*
X145983295Y-122671910D01*
X146314090Y-123002705D01*
X146703063Y-123262609D01*
X147135267Y-123441634D01*
X147594093Y-123532900D01*
X148061907Y-123532900D01*
X148520733Y-123441634D01*
X148952937Y-123262609D01*
X149341910Y-123002705D01*
X149672705Y-122671910D01*
X149932609Y-122282937D01*
X150111634Y-121850733D01*
X150202900Y-121391907D01*
X150202900Y-120924093D01*
X150111634Y-120465267D01*
X149932609Y-120033063D01*
X149672705Y-119644090D01*
X149341910Y-119313295D01*
X148952937Y-119053391D01*
X148520733Y-118874366D01*
X148199066Y-118810383D01*
X148051465Y-118662782D01*
X148782000Y-118662782D01*
X149060839Y-118635319D01*
X149225000Y-118585521D01*
X149389161Y-118635319D01*
X149668000Y-118662782D01*
X151068000Y-118662782D01*
X151346839Y-118635319D01*
X151511000Y-118585521D01*
X151675161Y-118635319D01*
X151954000Y-118662782D01*
X153354000Y-118662782D01*
X153632839Y-118635319D01*
X153814584Y-118580187D01*
X153947037Y-118650984D01*
X154215161Y-118732319D01*
X154494000Y-118759782D01*
X155894000Y-118759782D01*
X156172839Y-118732319D01*
X156337000Y-118682521D01*
X156501161Y-118732319D01*
X156780000Y-118759782D01*
X158180000Y-118759782D01*
X158458839Y-118732319D01*
X158726963Y-118650984D01*
X158812245Y-118605400D01*
X159290925Y-118605400D01*
X159537264Y-118654400D01*
X159994736Y-118654400D01*
X160443419Y-118565151D01*
X160866069Y-118390084D01*
X161246444Y-118135926D01*
X161569926Y-117812444D01*
X161824084Y-117432069D01*
X161999151Y-117009419D01*
X162088400Y-116560736D01*
X162088400Y-116103264D01*
X161999151Y-115654581D01*
X161824084Y-115231931D01*
X161710540Y-115062000D01*
X161824084Y-114892069D01*
X161999151Y-114469419D01*
X162088400Y-114020736D01*
X162088400Y-113563264D01*
X161999151Y-113114581D01*
X161824084Y-112691931D01*
X161569926Y-112311556D01*
X161246444Y-111988074D01*
X160866069Y-111733916D01*
X160443419Y-111558849D01*
X159994736Y-111469600D01*
X159537264Y-111469600D01*
X159088581Y-111558849D01*
X158665931Y-111733916D01*
X158462865Y-111869600D01*
X158439137Y-111869600D01*
X158302385Y-111778225D01*
X157888835Y-111606927D01*
X157449812Y-111519600D01*
X157002188Y-111519600D01*
X156563165Y-111606927D01*
X156149615Y-111778225D01*
X155777430Y-112026912D01*
X155460912Y-112343430D01*
X155406597Y-112424718D01*
X154244000Y-112424718D01*
X153965161Y-112452181D01*
X153924000Y-112464667D01*
X153882839Y-112452181D01*
X153604000Y-112424718D01*
X152309000Y-112424718D01*
X152030161Y-112452181D01*
X151762037Y-112533516D01*
X151514933Y-112665595D01*
X151298345Y-112843345D01*
X151120595Y-113059933D01*
X150988516Y-113307037D01*
X150907181Y-113575161D01*
X150879718Y-113854000D01*
X150879718Y-114509218D01*
X149668000Y-114509218D01*
X149389161Y-114536681D01*
X149225000Y-114586479D01*
X149060839Y-114536681D01*
X148782000Y-114509218D01*
X147382000Y-114509218D01*
X147103161Y-114536681D01*
X146835037Y-114618016D01*
X146699651Y-114690381D01*
X146689143Y-114691416D01*
X146461075Y-114760600D01*
X146326770Y-114801341D01*
X145992804Y-114979849D01*
X145700081Y-115220081D01*
X145639875Y-115293442D01*
X144757437Y-116175880D01*
X144684082Y-116236081D01*
X144443850Y-116528804D01*
X144375959Y-116655819D01*
X144265341Y-116862771D01*
X144155416Y-117225144D01*
X144118299Y-117602000D01*
X138176000Y-117602000D01*
X138176000Y-110495726D01*
X140061326Y-108610400D01*
X161055674Y-108610400D01*
X162915600Y-110470326D01*
X162915600Y-110470326D01*
G37*
X162915600Y-110470326D02*
X162915600Y-119596281D01*
X161934173Y-120577709D01*
X161824084Y-120311931D01*
X161569926Y-119931556D01*
X161246444Y-119608074D01*
X160866069Y-119353916D01*
X160443419Y-119178849D01*
X159994736Y-119089600D01*
X159537264Y-119089600D01*
X159088581Y-119178849D01*
X158665931Y-119353916D01*
X158285556Y-119608074D01*
X157962074Y-119931556D01*
X157707916Y-120311931D01*
X157532849Y-120734581D01*
X157443600Y-121183264D01*
X157443600Y-121640736D01*
X157499889Y-121923718D01*
X156272000Y-121923718D01*
X155993161Y-121951181D01*
X155725037Y-122032516D01*
X155477933Y-122164595D01*
X155272530Y-122333166D01*
X155289782Y-122158000D01*
X155289782Y-120158000D01*
X155262319Y-119879161D01*
X155180984Y-119611037D01*
X155048905Y-119363933D01*
X154871155Y-119147345D01*
X154654567Y-118969595D01*
X154407463Y-118837516D01*
X154139339Y-118756181D01*
X153860500Y-118728718D01*
X151955500Y-118728718D01*
X151676661Y-118756181D01*
X151408537Y-118837516D01*
X151161433Y-118969595D01*
X150944845Y-119147345D01*
X150767095Y-119363933D01*
X150635016Y-119611037D01*
X150553681Y-119879161D01*
X150526218Y-120158000D01*
X150526218Y-122158000D01*
X150553681Y-122436839D01*
X150597752Y-122582121D01*
X150556181Y-122719161D01*
X150528718Y-122998000D01*
X150528718Y-124398000D01*
X150556181Y-124676839D01*
X150567454Y-124714000D01*
X150556181Y-124751161D01*
X150528718Y-125030000D01*
X150528718Y-125585600D01*
X140556426Y-125585600D01*
X140461999Y-125576300D01*
X140367572Y-125585600D01*
X140367565Y-125585600D01*
X140121458Y-125609839D01*
X140085143Y-125613416D01*
X140012125Y-125635566D01*
X139722770Y-125723341D01*
X139658006Y-125757958D01*
X139291165Y-125830927D01*
X138877615Y-126002225D01*
X138505430Y-126250912D01*
X138273834Y-126482508D01*
X138176000Y-126384674D01*
X138176000Y-117602000D01*
X144118299Y-117602000D01*
X144127600Y-117696435D01*
X144127600Y-119285565D01*
X144118299Y-119380000D01*
X144155416Y-119756856D01*
X144184990Y-119854349D01*
X144265341Y-120119229D01*
X144443849Y-120453196D01*
X144684081Y-120745919D01*
X144757441Y-120806124D01*
X145480383Y-121529066D01*
X145544366Y-121850733D01*
X145723391Y-122282937D01*
X145983295Y-122671910D01*
X146314090Y-123002705D01*
X146703063Y-123262609D01*
X147135267Y-123441634D01*
X147594093Y-123532900D01*
X148061907Y-123532900D01*
X148520733Y-123441634D01*
X148952937Y-123262609D01*
X149341910Y-123002705D01*
X149672705Y-122671910D01*
X149932609Y-122282937D01*
X150111634Y-121850733D01*
X150202900Y-121391907D01*
X150202900Y-120924093D01*
X150111634Y-120465267D01*
X149932609Y-120033063D01*
X149672705Y-119644090D01*
X149341910Y-119313295D01*
X148952937Y-119053391D01*
X148520733Y-118874366D01*
X148199066Y-118810383D01*
X148051465Y-118662782D01*
X148782000Y-118662782D01*
X149060839Y-118635319D01*
X149225000Y-118585521D01*
X149389161Y-118635319D01*
X149668000Y-118662782D01*
X151068000Y-118662782D01*
X151346839Y-118635319D01*
X151511000Y-118585521D01*
X151675161Y-118635319D01*
X151954000Y-118662782D01*
X153354000Y-118662782D01*
X153632839Y-118635319D01*
X153814584Y-118580187D01*
X153947037Y-118650984D01*
X154215161Y-118732319D01*
X154494000Y-118759782D01*
X155894000Y-118759782D01*
X156172839Y-118732319D01*
X156337000Y-118682521D01*
X156501161Y-118732319D01*
X156780000Y-118759782D01*
X158180000Y-118759782D01*
X158458839Y-118732319D01*
X158726963Y-118650984D01*
X158812245Y-118605400D01*
X159290925Y-118605400D01*
X159537264Y-118654400D01*
X159994736Y-118654400D01*
X160443419Y-118565151D01*
X160866069Y-118390084D01*
X161246444Y-118135926D01*
X161569926Y-117812444D01*
X161824084Y-117432069D01*
X161999151Y-117009419D01*
X162088400Y-116560736D01*
X162088400Y-116103264D01*
X161999151Y-115654581D01*
X161824084Y-115231931D01*
X161710540Y-115062000D01*
X161824084Y-114892069D01*
X161999151Y-114469419D01*
X162088400Y-114020736D01*
X162088400Y-113563264D01*
X161999151Y-113114581D01*
X161824084Y-112691931D01*
X161569926Y-112311556D01*
X161246444Y-111988074D01*
X160866069Y-111733916D01*
X160443419Y-111558849D01*
X159994736Y-111469600D01*
X159537264Y-111469600D01*
X159088581Y-111558849D01*
X158665931Y-111733916D01*
X158462865Y-111869600D01*
X158439137Y-111869600D01*
X158302385Y-111778225D01*
X157888835Y-111606927D01*
X157449812Y-111519600D01*
X157002188Y-111519600D01*
X156563165Y-111606927D01*
X156149615Y-111778225D01*
X155777430Y-112026912D01*
X155460912Y-112343430D01*
X155406597Y-112424718D01*
X154244000Y-112424718D01*
X153965161Y-112452181D01*
X153924000Y-112464667D01*
X153882839Y-112452181D01*
X153604000Y-112424718D01*
X152309000Y-112424718D01*
X152030161Y-112452181D01*
X151762037Y-112533516D01*
X151514933Y-112665595D01*
X151298345Y-112843345D01*
X151120595Y-113059933D01*
X150988516Y-113307037D01*
X150907181Y-113575161D01*
X150879718Y-113854000D01*
X150879718Y-114509218D01*
X149668000Y-114509218D01*
X149389161Y-114536681D01*
X149225000Y-114586479D01*
X149060839Y-114536681D01*
X148782000Y-114509218D01*
X147382000Y-114509218D01*
X147103161Y-114536681D01*
X146835037Y-114618016D01*
X146699651Y-114690381D01*
X146689143Y-114691416D01*
X146461075Y-114760600D01*
X146326770Y-114801341D01*
X145992804Y-114979849D01*
X145700081Y-115220081D01*
X145639875Y-115293442D01*
X144757437Y-116175880D01*
X144684082Y-116236081D01*
X144443850Y-116528804D01*
X144375959Y-116655819D01*
X144265341Y-116862771D01*
X144155416Y-117225144D01*
X144118299Y-117602000D01*
X138176000Y-117602000D01*
X138176000Y-110495726D01*
X140061326Y-108610400D01*
X161055674Y-108610400D01*
X162915600Y-110470326D01*
D32*
G36*
X248845001Y-156897000D02*
X118872000Y-156897000D01*
X118872000Y-147319949D01*
X120767732Y-147319571D01*
X121540473Y-148092163D01*
X122035062Y-148422533D01*
X122618294Y-148538428D01*
X245138294Y-148514772D01*
X245720334Y-148399127D01*
X246214961Y-148069072D01*
X246990569Y-147294427D01*
X248845001Y-147294058D01*
X248845001Y-156897000D01*
X248845001Y-156897000D01*
G37*
X248845001Y-156897000D02*
X118872000Y-156897000D01*
X118872000Y-147319949D01*
X120767732Y-147319571D01*
X121540473Y-148092163D01*
X122035062Y-148422533D01*
X122618294Y-148538428D01*
X245138294Y-148514772D01*
X245720334Y-148399127D01*
X246214961Y-148069072D01*
X246990569Y-147294427D01*
X248845001Y-147294058D01*
X248845001Y-156897000D01*
M02*
