M48
;DRILL file {KiCad (5.0.0-rc2-dev-586-g888c43477)} date 06/04/18 00:41:47
;FORMAT={-:-/ absolute / inch / decimal}
FMAT,2
INCH,TZ
T1C0.0236
T2C0.0300
T3C0.0315
T4C0.0394
T5C0.0433
T6C0.0472
T7C0.0512
T8C0.0591
T9C0.0866
T10C0.1181
T11C0.1969
T12C0.1417
%
G90
G05
M72
T1
X3.76Y-4.08
X3.76Y-4.68
X4.04Y-2.99
X4.04Y-3.44
X4.04Y-3.99
X4.16Y-2.27
X4.16Y-2.38
X4.27Y-2.71
X4.27Y-3.2005
X4.27Y-3.2795
X4.27Y-3.6505
X4.27Y-3.7295
X4.43Y-2.61
X4.43Y-2.7
X4.43Y-2.79
X4.43Y-3.2005
X4.43Y-3.2795
X4.4805Y-2.46
X4.54Y-4.33
X4.54Y-4.41
X4.54Y-4.51
X4.5595Y-2.46
X4.66Y-5.23
X4.766Y-5.2412
X4.83Y-1.69
X5.07Y-1.69
X5.14Y-2.37
X5.25Y-1.79
X5.33Y-5.55
X5.42Y-2.4
X5.49Y-1.79
X5.52Y-2.32
X5.65Y-5.
X5.7084Y-2.1605
X5.7084Y-2.2395
X5.75Y-5.55
X5.8562Y-4.72
X6.19Y-4.38
X6.19Y-4.48
X7.31Y-5.07
X7.31Y-5.41
X7.53Y-2.58
X7.53Y-2.71
X7.53Y-4.73
X7.53Y-4.86
T2
X4.15Y-2.54
X4.15Y-2.64
X4.15Y-2.74
X4.15Y-2.84
X4.15Y-2.99
X4.15Y-3.09
X4.15Y-3.19
X4.15Y-3.29
X4.15Y-3.44
X4.15Y-3.54
X4.15Y-3.64
X4.15Y-3.74
X4.15Y-3.84
X4.15Y-3.99
X4.15Y-4.09
X4.15Y-4.19
X4.15Y-4.29
X3.64Y-1.78
X3.64Y-1.88
X3.64Y-1.98
X3.64Y-2.08
X3.64Y-2.18
X3.64Y-2.28
X3.64Y-2.38
X3.64Y-2.48
X3.64Y-2.58
X3.64Y-2.78
X3.64Y-2.88
X3.64Y-2.98
X3.64Y-3.08
X3.64Y-3.18
X3.64Y-3.28
X3.64Y-3.38
X3.64Y-3.48
X3.64Y-3.58
X3.64Y-3.68
X3.64Y-3.78
X3.64Y-3.88
X3.64Y-3.98
X3.64Y-4.08
X3.64Y-4.18
X3.64Y-4.28
X3.64Y-4.38
X3.64Y-4.48
X3.64Y-4.58
X3.64Y-4.68
X3.64Y-4.93
X3.64Y-5.03
X3.64Y-5.13
X3.64Y-5.23
X3.64Y-5.33
X3.64Y-5.43
X3.64Y-5.53
X3.64Y-5.63
X6.29Y-4.38
X6.29Y-4.48
X6.29Y-4.58
X6.29Y-4.68
X6.29Y-4.78
X6.29Y-4.88
X6.29Y-4.98
T3
X5.28Y-2.088
X5.28Y-2.164
X5.28Y-2.24
X5.28Y-2.316
T4
X8.3Y-1.865
X9.184Y-1.865
T5
X8.67Y-2.33
X8.67Y-2.9206
X8.27Y-2.33
X8.27Y-2.9206
X5.65Y-4.49
X5.65Y-4.59
X5.65Y-4.69
X9.07Y-2.33
X9.07Y-2.9206
T6
X8.45Y-4.2373
X8.45Y-5.32
X7.95Y-4.2373
X7.95Y-5.32
X8.95Y-4.2373
X8.95Y-5.32
X7.95Y-3.0373
X7.95Y-4.12
X7.45Y-3.0373
X7.45Y-4.12
X8.45Y-3.0373
X8.45Y-4.12
X8.95Y-3.0373
X8.95Y-4.12
T7
X4.78Y-1.95
X4.78Y-2.45
X4.88Y-1.95
X4.88Y-2.45
X4.98Y-1.95
X4.98Y-2.45
T8
X6.54Y-4.12
X6.7546Y-4.12
X6.9691Y-4.12
X6.54Y-3.01
X6.7546Y-3.01
X6.9691Y-3.01
T9
X2.455Y-4.525
X2.875Y-1.825
X3.4341Y-2.805
T10
X4.89Y-2.825
X4.89Y-3.97
X6.035Y-2.825
X6.035Y-3.97
T11
X9.4568Y-4.1328
X9.4568Y-5.117
X9.4568Y-3.1485
X9.4568Y-2.1643
T12
X6.7546Y-4.9019
X6.7546Y-2.2281
T0
M30
