G04 #@! TF.GenerationSoftware,KiCad,Pcbnew,(5.0.0-rc2-dev-586-g888c43477)*
G04 #@! TF.CreationDate,2018-06-03T12:19:04-03:00*
G04 #@! TF.ProjectId,Mcc18,4D636331382E6B696361645F70636200,rev?*
G04 #@! TF.SameCoordinates,Original*
G04 #@! TF.FileFunction,Legend,Bot*
G04 #@! TF.FilePolarity,Positive*
%FSLAX46Y46*%
G04 Gerber Fmt 4.6, Leading zero omitted, Abs format (unit mm)*
G04 Created by KiCad (PCBNEW (5.0.0-rc2-dev-586-g888c43477)) date 06/03/18 12:19:04*
%MOMM*%
%LPD*%
G01*
G04 APERTURE LIST*
%ADD10C,0.150000*%
%ADD11C,0.120000*%
%ADD12C,0.152400*%
%ADD13C,1.924000*%
%ADD14C,4.800000*%
%ADD15R,1.400000X1.900000*%
%ADD16R,1.695000X1.800000*%
%ADD17R,1.800000X1.695000*%
%ADD18R,7.040000X3.332000*%
%ADD19R,1.568400X0.742900*%
%ADD20R,1.000000X1.950000*%
%ADD21O,4.000000X4.000000*%
%ADD22R,2.900000X4.900000*%
%ADD23O,2.900000X4.900000*%
%ADD24C,2.200000*%
%ADD25R,2.200000X2.200000*%
%ADD26C,5.400000*%
%ADD27O,2.400000X1.600000*%
%ADD28O,2.400000X2.305000*%
%ADD29R,2.400000X2.305000*%
%ADD30C,2.600000*%
%ADD31C,2.800000*%
%ADD32C,10.400000*%
%ADD33C,3.400000*%
G04 APERTURE END LIST*
D10*
X106680000Y-98806000D02*
X104140000Y-98806000D01*
X104140000Y-98806000D02*
X104140000Y-86106000D01*
X104140000Y-86106000D02*
X106426000Y-86106000D01*
X106426000Y-86106000D02*
X106680000Y-86106000D01*
X106680000Y-86106000D02*
X106680000Y-98806000D01*
X106680000Y-100076000D02*
X104140000Y-100076000D01*
X104140000Y-100076000D02*
X104140000Y-110236000D01*
X104140000Y-110236000D02*
X106680000Y-110236000D01*
X106680000Y-110236000D02*
X106680000Y-100076000D01*
X106680000Y-84582000D02*
X106680000Y-84836000D01*
X106680000Y-84836000D02*
X104140000Y-84836000D01*
X104140000Y-84836000D02*
X104140000Y-74676000D01*
X104140000Y-74676000D02*
X106680000Y-74676000D01*
X106680000Y-74676000D02*
X106680000Y-84836000D01*
X106680000Y-73406000D02*
X104140000Y-73406000D01*
X104140000Y-73406000D02*
X104140000Y-63246000D01*
X104140000Y-63246000D02*
X106680000Y-63246000D01*
X106680000Y-63246000D02*
X106680000Y-73406000D01*
D11*
X116970000Y-52562000D02*
X116970000Y-50562000D01*
X114170000Y-52562000D02*
X116970000Y-52562000D01*
X114170000Y-50562000D02*
X114170000Y-52562000D01*
X116970000Y-50562000D02*
X114170000Y-50562000D01*
X114170000Y-50022000D02*
X116970000Y-50022000D01*
X116970000Y-50022000D02*
X116970000Y-48022000D01*
X116970000Y-48022000D02*
X114170000Y-48022000D01*
X114170000Y-48022000D02*
X114170000Y-50022000D01*
D12*
X126060200Y-57855900D02*
G75*
G03X126060200Y-57855900I-76200J0D01*
G01*
X118033800Y-55181500D02*
X119710200Y-55181500D01*
X119710200Y-57594500D02*
X118033800Y-57594500D01*
D10*
X130013000Y-54633040D02*
X130063000Y-54633040D01*
X130013000Y-58783040D02*
X130158000Y-58783040D01*
X135163000Y-58783040D02*
X135018000Y-58783040D01*
X135163000Y-54633040D02*
X135018000Y-54633040D01*
X130013000Y-54633040D02*
X130013000Y-58783040D01*
X135163000Y-54633040D02*
X135163000Y-58783040D01*
X130063000Y-54633040D02*
X130063000Y-53233040D01*
X147066000Y-41224000D02*
X197066000Y-41224000D01*
X197066000Y-141224000D02*
X197066000Y-41224000D01*
X147066000Y-141224000D02*
X197066000Y-141224000D01*
X147066000Y-141224000D02*
X147066000Y-41224000D01*
D11*
X179636000Y-109608000D02*
X163496000Y-109608000D01*
X179636000Y-130798000D02*
X163496000Y-130798000D01*
X179636000Y-109608000D02*
X179636000Y-130798000D01*
X163496000Y-109608000D02*
X163496000Y-130798000D01*
X177016000Y-107048000D02*
X177016000Y-109608000D01*
X171566000Y-107048000D02*
X171566000Y-109608000D01*
X166116000Y-107048000D02*
X166116000Y-109608000D01*
X177016000Y-74054000D02*
X177016000Y-71494000D01*
X171566000Y-74054000D02*
X171566000Y-71494000D01*
X166116000Y-74054000D02*
X166116000Y-71494000D01*
X179636000Y-71494000D02*
X179636000Y-50304000D01*
X163496000Y-71494000D02*
X163496000Y-50304000D01*
X163496000Y-50304000D02*
X179636000Y-50304000D01*
X163496000Y-71494000D02*
X179636000Y-71494000D01*
D10*
X117062380Y-109474095D02*
X117871904Y-109474095D01*
X117967142Y-109521714D01*
X118014761Y-109569333D01*
X118062380Y-109664571D01*
X118062380Y-109855047D01*
X118014761Y-109950285D01*
X117967142Y-109997904D01*
X117871904Y-110045523D01*
X117062380Y-110045523D01*
X117395714Y-110950285D02*
X118062380Y-110950285D01*
X117014761Y-110712190D02*
X117729047Y-110474095D01*
X117729047Y-111093142D01*
X116689047Y-50214380D02*
X117022380Y-49738190D01*
X117260476Y-50214380D02*
X117260476Y-49214380D01*
X116879523Y-49214380D01*
X116784285Y-49262000D01*
X116736666Y-49309619D01*
X116689047Y-49404857D01*
X116689047Y-49547714D01*
X116736666Y-49642952D01*
X116784285Y-49690571D01*
X116879523Y-49738190D01*
X117260476Y-49738190D01*
X115736666Y-50214380D02*
X116308095Y-50214380D01*
X116022380Y-50214380D02*
X116022380Y-49214380D01*
X116117619Y-49357238D01*
X116212857Y-49452476D01*
X116308095Y-49500095D01*
X115117619Y-49214380D02*
X115022380Y-49214380D01*
X114927142Y-49262000D01*
X114879523Y-49309619D01*
X114831904Y-49404857D01*
X114784285Y-49595333D01*
X114784285Y-49833428D01*
X114831904Y-50023904D01*
X114879523Y-50119142D01*
X114927142Y-50166761D01*
X115022380Y-50214380D01*
X115117619Y-50214380D01*
X115212857Y-50166761D01*
X115260476Y-50119142D01*
X115308095Y-50023904D01*
X115355714Y-49833428D01*
X115355714Y-49595333D01*
X115308095Y-49404857D01*
X115260476Y-49309619D01*
X115212857Y-49262000D01*
X115117619Y-49214380D01*
X113927142Y-49214380D02*
X114117619Y-49214380D01*
X114212857Y-49262000D01*
X114260476Y-49309619D01*
X114355714Y-49452476D01*
X114403333Y-49642952D01*
X114403333Y-50023904D01*
X114355714Y-50119142D01*
X114308095Y-50166761D01*
X114212857Y-50214380D01*
X114022380Y-50214380D01*
X113927142Y-50166761D01*
X113879523Y-50119142D01*
X113831904Y-50023904D01*
X113831904Y-49785809D01*
X113879523Y-49690571D01*
X113927142Y-49642952D01*
X114022380Y-49595333D01*
X114212857Y-49595333D01*
X114308095Y-49642952D01*
X114355714Y-49690571D01*
X114403333Y-49785809D01*
X116943047Y-47696380D02*
X117276380Y-47220190D01*
X117514476Y-47696380D02*
X117514476Y-46696380D01*
X117133523Y-46696380D01*
X117038285Y-46744000D01*
X116990666Y-46791619D01*
X116943047Y-46886857D01*
X116943047Y-47029714D01*
X116990666Y-47124952D01*
X117038285Y-47172571D01*
X117133523Y-47220190D01*
X117514476Y-47220190D01*
X115990666Y-47696380D02*
X116562095Y-47696380D01*
X116276380Y-47696380D02*
X116276380Y-46696380D01*
X116371619Y-46839238D01*
X116466857Y-46934476D01*
X116562095Y-46982095D01*
X115371619Y-46696380D02*
X115276380Y-46696380D01*
X115181142Y-46744000D01*
X115133523Y-46791619D01*
X115085904Y-46886857D01*
X115038285Y-47077333D01*
X115038285Y-47315428D01*
X115085904Y-47505904D01*
X115133523Y-47601142D01*
X115181142Y-47648761D01*
X115276380Y-47696380D01*
X115371619Y-47696380D01*
X115466857Y-47648761D01*
X115514476Y-47601142D01*
X115562095Y-47505904D01*
X115609714Y-47315428D01*
X115609714Y-47077333D01*
X115562095Y-46886857D01*
X115514476Y-46791619D01*
X115466857Y-46744000D01*
X115371619Y-46696380D01*
X114466857Y-47124952D02*
X114562095Y-47077333D01*
X114609714Y-47029714D01*
X114657333Y-46934476D01*
X114657333Y-46886857D01*
X114609714Y-46791619D01*
X114562095Y-46744000D01*
X114466857Y-46696380D01*
X114276380Y-46696380D01*
X114181142Y-46744000D01*
X114133523Y-46791619D01*
X114085904Y-46886857D01*
X114085904Y-46934476D01*
X114133523Y-47029714D01*
X114181142Y-47077333D01*
X114276380Y-47124952D01*
X114466857Y-47124952D01*
X114562095Y-47172571D01*
X114609714Y-47220190D01*
X114657333Y-47315428D01*
X114657333Y-47505904D01*
X114609714Y-47601142D01*
X114562095Y-47648761D01*
X114466857Y-47696380D01*
X114276380Y-47696380D01*
X114181142Y-47648761D01*
X114133523Y-47601142D01*
X114085904Y-47505904D01*
X114085904Y-47315428D01*
X114133523Y-47220190D01*
X114181142Y-47172571D01*
X114276380Y-47124952D01*
X105005047Y-51380380D02*
X105338380Y-50904190D01*
X105576476Y-51380380D02*
X105576476Y-50380380D01*
X105195523Y-50380380D01*
X105100285Y-50428000D01*
X105052666Y-50475619D01*
X105005047Y-50570857D01*
X105005047Y-50713714D01*
X105052666Y-50808952D01*
X105100285Y-50856571D01*
X105195523Y-50904190D01*
X105576476Y-50904190D01*
X104052666Y-51380380D02*
X104624095Y-51380380D01*
X104338380Y-51380380D02*
X104338380Y-50380380D01*
X104433619Y-50523238D01*
X104528857Y-50618476D01*
X104624095Y-50666095D01*
X103100285Y-51380380D02*
X103671714Y-51380380D01*
X103386000Y-51380380D02*
X103386000Y-50380380D01*
X103481238Y-50523238D01*
X103576476Y-50618476D01*
X103671714Y-50666095D01*
X102481238Y-50380380D02*
X102386000Y-50380380D01*
X102290761Y-50428000D01*
X102243142Y-50475619D01*
X102195523Y-50570857D01*
X102147904Y-50761333D01*
X102147904Y-50999428D01*
X102195523Y-51189904D01*
X102243142Y-51285142D01*
X102290761Y-51332761D01*
X102386000Y-51380380D01*
X102481238Y-51380380D01*
X102576476Y-51332761D01*
X102624095Y-51285142D01*
X102671714Y-51189904D01*
X102719333Y-50999428D01*
X102719333Y-50761333D01*
X102671714Y-50570857D01*
X102624095Y-50475619D01*
X102576476Y-50428000D01*
X102481238Y-50380380D01*
X105005047Y-49094380D02*
X105338380Y-48618190D01*
X105576476Y-49094380D02*
X105576476Y-48094380D01*
X105195523Y-48094380D01*
X105100285Y-48142000D01*
X105052666Y-48189619D01*
X105005047Y-48284857D01*
X105005047Y-48427714D01*
X105052666Y-48522952D01*
X105100285Y-48570571D01*
X105195523Y-48618190D01*
X105576476Y-48618190D01*
X104052666Y-49094380D02*
X104624095Y-49094380D01*
X104338380Y-49094380D02*
X104338380Y-48094380D01*
X104433619Y-48237238D01*
X104528857Y-48332476D01*
X104624095Y-48380095D01*
X103433619Y-48094380D02*
X103338380Y-48094380D01*
X103243142Y-48142000D01*
X103195523Y-48189619D01*
X103147904Y-48284857D01*
X103100285Y-48475333D01*
X103100285Y-48713428D01*
X103147904Y-48903904D01*
X103195523Y-48999142D01*
X103243142Y-49046761D01*
X103338380Y-49094380D01*
X103433619Y-49094380D01*
X103528857Y-49046761D01*
X103576476Y-48999142D01*
X103624095Y-48903904D01*
X103671714Y-48713428D01*
X103671714Y-48475333D01*
X103624095Y-48284857D01*
X103576476Y-48189619D01*
X103528857Y-48142000D01*
X103433619Y-48094380D01*
X102624095Y-49094380D02*
X102433619Y-49094380D01*
X102338380Y-49046761D01*
X102290761Y-48999142D01*
X102195523Y-48856285D01*
X102147904Y-48665809D01*
X102147904Y-48284857D01*
X102195523Y-48189619D01*
X102243142Y-48142000D01*
X102338380Y-48094380D01*
X102528857Y-48094380D01*
X102624095Y-48142000D01*
X102671714Y-48189619D01*
X102719333Y-48284857D01*
X102719333Y-48522952D01*
X102671714Y-48618190D01*
X102624095Y-48665809D01*
X102528857Y-48713428D01*
X102338380Y-48713428D01*
X102243142Y-48665809D01*
X102195523Y-48618190D01*
X102147904Y-48522952D01*
X135359142Y-56253142D02*
X135406761Y-56205523D01*
X135454380Y-56062666D01*
X135454380Y-55967428D01*
X135406761Y-55824571D01*
X135311523Y-55729333D01*
X135216285Y-55681714D01*
X135025809Y-55634095D01*
X134882952Y-55634095D01*
X134692476Y-55681714D01*
X134597238Y-55729333D01*
X134502000Y-55824571D01*
X134454380Y-55967428D01*
X134454380Y-56062666D01*
X134502000Y-56205523D01*
X134549619Y-56253142D01*
X135454380Y-57205523D02*
X135454380Y-56634095D01*
X135454380Y-56919809D02*
X134454380Y-56919809D01*
X134597238Y-56824571D01*
X134692476Y-56729333D01*
X134740095Y-56634095D01*
X135454380Y-58157904D02*
X135454380Y-57586476D01*
X135454380Y-57872190D02*
X134454380Y-57872190D01*
X134597238Y-57776952D01*
X134692476Y-57681714D01*
X134740095Y-57586476D01*
X102845142Y-51141333D02*
X102892761Y-51093714D01*
X102940380Y-50950857D01*
X102940380Y-50855619D01*
X102892761Y-50712761D01*
X102797523Y-50617523D01*
X102702285Y-50569904D01*
X102511809Y-50522285D01*
X102368952Y-50522285D01*
X102178476Y-50569904D01*
X102083238Y-50617523D01*
X101988000Y-50712761D01*
X101940380Y-50855619D01*
X101940380Y-50950857D01*
X101988000Y-51093714D01*
X102035619Y-51141333D01*
X102940380Y-52093714D02*
X102940380Y-51522285D01*
X102940380Y-51808000D02*
X101940380Y-51808000D01*
X102083238Y-51712761D01*
X102178476Y-51617523D01*
X102226095Y-51522285D01*
X130754380Y-53335514D02*
X130278190Y-53002180D01*
X130754380Y-52764085D02*
X129754380Y-52764085D01*
X129754380Y-53145038D01*
X129802000Y-53240276D01*
X129849619Y-53287895D01*
X129944857Y-53335514D01*
X130087714Y-53335514D01*
X130182952Y-53287895D01*
X130230571Y-53240276D01*
X130278190Y-53145038D01*
X130278190Y-52764085D01*
X130706761Y-53716466D02*
X130754380Y-53811704D01*
X130754380Y-54002180D01*
X130706761Y-54097419D01*
X130611523Y-54145038D01*
X130563904Y-54145038D01*
X130468666Y-54097419D01*
X130421047Y-54002180D01*
X130421047Y-53859323D01*
X130373428Y-53764085D01*
X130278190Y-53716466D01*
X130230571Y-53716466D01*
X130135333Y-53764085D01*
X130087714Y-53859323D01*
X130087714Y-54002180D01*
X130135333Y-54097419D01*
X130754380Y-54573609D02*
X129754380Y-54573609D01*
X130754380Y-55002180D02*
X130230571Y-55002180D01*
X130135333Y-54954561D01*
X130087714Y-54859323D01*
X130087714Y-54716466D01*
X130135333Y-54621228D01*
X130182952Y-54573609D01*
X130087714Y-55906942D02*
X130754380Y-55906942D01*
X130087714Y-55478371D02*
X130611523Y-55478371D01*
X130706761Y-55525990D01*
X130754380Y-55621228D01*
X130754380Y-55764085D01*
X130706761Y-55859323D01*
X130659142Y-55906942D01*
X130087714Y-56383133D02*
X130754380Y-56383133D01*
X130182952Y-56383133D02*
X130135333Y-56430752D01*
X130087714Y-56525990D01*
X130087714Y-56668847D01*
X130135333Y-56764085D01*
X130230571Y-56811704D01*
X130754380Y-56811704D01*
X130087714Y-57145038D02*
X130087714Y-57525990D01*
X129754380Y-57287895D02*
X130611523Y-57287895D01*
X130706761Y-57335514D01*
X130754380Y-57430752D01*
X130754380Y-57525990D01*
X130754380Y-58383133D02*
X130754380Y-57811704D01*
X130754380Y-58097419D02*
X129754380Y-58097419D01*
X129897238Y-58002180D01*
X129992476Y-57906942D01*
X130040095Y-57811704D01*
X129678180Y-58785333D02*
X129678180Y-58309142D01*
X130154371Y-58261523D01*
X130106752Y-58309142D01*
X130059133Y-58404380D01*
X130059133Y-58642476D01*
X130106752Y-58737714D01*
X130154371Y-58785333D01*
X130249609Y-58832952D01*
X130487704Y-58832952D01*
X130582942Y-58785333D01*
X130630561Y-58737714D01*
X130678180Y-58642476D01*
X130678180Y-58404380D01*
X130630561Y-58309142D01*
X130582942Y-58261523D01*
X129678180Y-59452000D02*
X129678180Y-59547238D01*
X129725800Y-59642476D01*
X129773419Y-59690095D01*
X129868657Y-59737714D01*
X130059133Y-59785333D01*
X130297228Y-59785333D01*
X130487704Y-59737714D01*
X130582942Y-59690095D01*
X130630561Y-59642476D01*
X130678180Y-59547238D01*
X130678180Y-59452000D01*
X130630561Y-59356761D01*
X130582942Y-59309142D01*
X130487704Y-59261523D01*
X130297228Y-59213904D01*
X130059133Y-59213904D01*
X129868657Y-59261523D01*
X129773419Y-59309142D01*
X129725800Y-59356761D01*
X129678180Y-59452000D01*
X129678180Y-60404380D02*
X129678180Y-60499619D01*
X129725800Y-60594857D01*
X129773419Y-60642476D01*
X129868657Y-60690095D01*
X130059133Y-60737714D01*
X130297228Y-60737714D01*
X130487704Y-60690095D01*
X130582942Y-60642476D01*
X130630561Y-60594857D01*
X130678180Y-60499619D01*
X130678180Y-60404380D01*
X130630561Y-60309142D01*
X130582942Y-60261523D01*
X130487704Y-60213904D01*
X130297228Y-60166285D01*
X130059133Y-60166285D01*
X129868657Y-60213904D01*
X129773419Y-60261523D01*
X129725800Y-60309142D01*
X129678180Y-60404380D01*
X130011514Y-61594857D02*
X130678180Y-61594857D01*
X130011514Y-61166285D02*
X130535323Y-61166285D01*
X130630561Y-61213904D01*
X130678180Y-61309142D01*
X130678180Y-61452000D01*
X130630561Y-61547238D01*
X130582942Y-61594857D01*
X130678180Y-62642476D02*
X130201990Y-62309142D01*
X130678180Y-62071047D02*
X129678180Y-62071047D01*
X129678180Y-62452000D01*
X129725800Y-62547238D01*
X129773419Y-62594857D01*
X129868657Y-62642476D01*
X130011514Y-62642476D01*
X130106752Y-62594857D01*
X130154371Y-62547238D01*
X130201990Y-62452000D01*
X130201990Y-62071047D01*
X119633904Y-52639980D02*
X119633904Y-53449504D01*
X119586285Y-53544742D01*
X119538666Y-53592361D01*
X119443428Y-53639980D01*
X119252952Y-53639980D01*
X119157714Y-53592361D01*
X119110095Y-53544742D01*
X119062476Y-53449504D01*
X119062476Y-52639980D01*
X118157714Y-52639980D02*
X118348190Y-52639980D01*
X118443428Y-52687600D01*
X118491047Y-52735219D01*
X118586285Y-52878076D01*
X118633904Y-53068552D01*
X118633904Y-53449504D01*
X118586285Y-53544742D01*
X118538666Y-53592361D01*
X118443428Y-53639980D01*
X118252952Y-53639980D01*
X118157714Y-53592361D01*
X118110095Y-53544742D01*
X118062476Y-53449504D01*
X118062476Y-53211409D01*
X118110095Y-53116171D01*
X118157714Y-53068552D01*
X118252952Y-53020933D01*
X118443428Y-53020933D01*
X118538666Y-53068552D01*
X118586285Y-53116171D01*
X118633904Y-53211409D01*
X121303752Y-54986180D02*
X121303752Y-53986180D01*
X120827561Y-54986180D02*
X120827561Y-53986180D01*
X120256133Y-54986180D01*
X120256133Y-53986180D01*
X119827561Y-54700466D02*
X119351371Y-54700466D01*
X119922800Y-54986180D02*
X119589466Y-53986180D01*
X119256133Y-54986180D01*
X118970419Y-54081419D02*
X118922800Y-54033800D01*
X118827561Y-53986180D01*
X118589466Y-53986180D01*
X118494228Y-54033800D01*
X118446609Y-54081419D01*
X118398990Y-54176657D01*
X118398990Y-54271895D01*
X118446609Y-54414752D01*
X119018038Y-54986180D01*
X118398990Y-54986180D01*
X117446609Y-54986180D02*
X118018038Y-54986180D01*
X117732323Y-54986180D02*
X117732323Y-53986180D01*
X117827561Y-54129038D01*
X117922800Y-54224276D01*
X118018038Y-54271895D01*
X116494228Y-54986180D02*
X117065657Y-54986180D01*
X116779942Y-54986180D02*
X116779942Y-53986180D01*
X116875180Y-54129038D01*
X116970419Y-54224276D01*
X117065657Y-54271895D01*
X128540380Y-55946135D02*
X129349904Y-55946135D01*
X129445142Y-55993754D01*
X129492761Y-56041373D01*
X129540380Y-56136611D01*
X129540380Y-56327087D01*
X129492761Y-56422325D01*
X129445142Y-56469944D01*
X129349904Y-56517563D01*
X128540380Y-56517563D01*
X129540380Y-57517563D02*
X129540380Y-56946135D01*
X129540380Y-57231849D02*
X128540380Y-57231849D01*
X128683238Y-57136611D01*
X128778476Y-57041373D01*
X128826095Y-56946135D01*
X148304095Y-141176380D02*
X148304095Y-140176380D01*
X148304095Y-140652571D02*
X147732666Y-140652571D01*
X147732666Y-141176380D02*
X147732666Y-140176380D01*
X147304095Y-141128761D02*
X147161238Y-141176380D01*
X146923142Y-141176380D01*
X146827904Y-141128761D01*
X146780285Y-141081142D01*
X146732666Y-140985904D01*
X146732666Y-140890666D01*
X146780285Y-140795428D01*
X146827904Y-140747809D01*
X146923142Y-140700190D01*
X147113619Y-140652571D01*
X147208857Y-140604952D01*
X147256476Y-140557333D01*
X147304095Y-140462095D01*
X147304095Y-140366857D01*
X147256476Y-140271619D01*
X147208857Y-140224000D01*
X147113619Y-140176380D01*
X146875523Y-140176380D01*
X146732666Y-140224000D01*
X145780285Y-141176380D02*
X146351714Y-141176380D01*
X146066000Y-141176380D02*
X146066000Y-140176380D01*
X146161238Y-140319238D01*
X146256476Y-140414476D01*
X146351714Y-140462095D01*
X171661238Y-132345619D02*
X171756476Y-132298000D01*
X171851714Y-132202761D01*
X171994571Y-132059904D01*
X172089809Y-132012285D01*
X172185047Y-132012285D01*
X172137428Y-132250380D02*
X172232666Y-132202761D01*
X172327904Y-132107523D01*
X172375523Y-131917047D01*
X172375523Y-131583714D01*
X172327904Y-131393238D01*
X172232666Y-131298000D01*
X172137428Y-131250380D01*
X171946952Y-131250380D01*
X171851714Y-131298000D01*
X171756476Y-131393238D01*
X171708857Y-131583714D01*
X171708857Y-131917047D01*
X171756476Y-132107523D01*
X171851714Y-132202761D01*
X171946952Y-132250380D01*
X172137428Y-132250380D01*
X170756476Y-132250380D02*
X171327904Y-132250380D01*
X171042190Y-132250380D02*
X171042190Y-131250380D01*
X171137428Y-131393238D01*
X171232666Y-131488476D01*
X171327904Y-131536095D01*
X172304095Y-49756380D02*
X172304095Y-48756380D01*
X172066000Y-48756380D01*
X171923142Y-48804000D01*
X171827904Y-48899238D01*
X171780285Y-48994476D01*
X171732666Y-49184952D01*
X171732666Y-49327809D01*
X171780285Y-49518285D01*
X171827904Y-49613523D01*
X171923142Y-49708761D01*
X172066000Y-49756380D01*
X172304095Y-49756380D01*
X170780285Y-49756380D02*
X171351714Y-49756380D01*
X171066000Y-49756380D02*
X171066000Y-48756380D01*
X171161238Y-48899238D01*
X171256476Y-48994476D01*
X171351714Y-49042095D01*
X145265142Y-115862833D02*
X145312761Y-115815214D01*
X145360380Y-115672357D01*
X145360380Y-115577119D01*
X145312761Y-115434261D01*
X145217523Y-115339023D01*
X145122285Y-115291404D01*
X144931809Y-115243785D01*
X144788952Y-115243785D01*
X144598476Y-115291404D01*
X144503238Y-115339023D01*
X144408000Y-115434261D01*
X144360380Y-115577119D01*
X144360380Y-115672357D01*
X144408000Y-115815214D01*
X144455619Y-115862833D01*
X144693714Y-116719976D02*
X145360380Y-116719976D01*
X144312761Y-116481880D02*
X145027047Y-116243785D01*
X145027047Y-116862833D01*
X154344666Y-116148380D02*
X154820857Y-116148380D01*
X154820857Y-115148380D01*
X154106571Y-115148380D02*
X153487523Y-115148380D01*
X153820857Y-115529333D01*
X153678000Y-115529333D01*
X153582761Y-115576952D01*
X153535142Y-115624571D01*
X153487523Y-115719809D01*
X153487523Y-115957904D01*
X153535142Y-116053142D01*
X153582761Y-116100761D01*
X153678000Y-116148380D01*
X153963714Y-116148380D01*
X154058952Y-116100761D01*
X154106571Y-116053142D01*
X147551142Y-115862833D02*
X147598761Y-115815214D01*
X147646380Y-115672357D01*
X147646380Y-115577119D01*
X147598761Y-115434261D01*
X147503523Y-115339023D01*
X147408285Y-115291404D01*
X147217809Y-115243785D01*
X147074952Y-115243785D01*
X146884476Y-115291404D01*
X146789238Y-115339023D01*
X146694000Y-115434261D01*
X146646380Y-115577119D01*
X146646380Y-115672357D01*
X146694000Y-115815214D01*
X146741619Y-115862833D01*
X146646380Y-116767595D02*
X146646380Y-116291404D01*
X147122571Y-116243785D01*
X147074952Y-116291404D01*
X147027333Y-116386642D01*
X147027333Y-116624738D01*
X147074952Y-116719976D01*
X147122571Y-116767595D01*
X147217809Y-116815214D01*
X147455904Y-116815214D01*
X147551142Y-116767595D01*
X147598761Y-116719976D01*
X147646380Y-116624738D01*
X147646380Y-116386642D01*
X147598761Y-116291404D01*
X147551142Y-116243785D01*
X145914166Y-126467142D02*
X145961785Y-126514761D01*
X146104642Y-126562380D01*
X146199880Y-126562380D01*
X146342738Y-126514761D01*
X146437976Y-126419523D01*
X146485595Y-126324285D01*
X146533214Y-126133809D01*
X146533214Y-125990952D01*
X146485595Y-125800476D01*
X146437976Y-125705238D01*
X146342738Y-125610000D01*
X146199880Y-125562380D01*
X146104642Y-125562380D01*
X145961785Y-125610000D01*
X145914166Y-125657619D01*
X145533214Y-125657619D02*
X145485595Y-125610000D01*
X145390357Y-125562380D01*
X145152261Y-125562380D01*
X145057023Y-125610000D01*
X145009404Y-125657619D01*
X144961785Y-125752857D01*
X144961785Y-125848095D01*
X145009404Y-125990952D01*
X145580833Y-126562380D01*
X144961785Y-126562380D01*
X153647142Y-117007642D02*
X153694761Y-116960023D01*
X153742380Y-116817166D01*
X153742380Y-116721928D01*
X153694761Y-116579071D01*
X153599523Y-116483833D01*
X153504285Y-116436214D01*
X153313809Y-116388595D01*
X153170952Y-116388595D01*
X152980476Y-116436214D01*
X152885238Y-116483833D01*
X152790000Y-116579071D01*
X152742380Y-116721928D01*
X152742380Y-116817166D01*
X152790000Y-116960023D01*
X152837619Y-117007642D01*
X153742380Y-117960023D02*
X153742380Y-117388595D01*
X153742380Y-117674309D02*
X152742380Y-117674309D01*
X152885238Y-117579071D01*
X152980476Y-117483833D01*
X153028095Y-117388595D01*
X152742380Y-118579071D02*
X152742380Y-118674309D01*
X152790000Y-118769547D01*
X152837619Y-118817166D01*
X152932857Y-118864785D01*
X153123333Y-118912404D01*
X153361428Y-118912404D01*
X153551904Y-118864785D01*
X153647142Y-118817166D01*
X153694761Y-118769547D01*
X153742380Y-118674309D01*
X153742380Y-118579071D01*
X153694761Y-118483833D01*
X153647142Y-118436214D01*
X153551904Y-118388595D01*
X153361428Y-118340976D01*
X153123333Y-118340976D01*
X152932857Y-118388595D01*
X152837619Y-118436214D01*
X152790000Y-118483833D01*
X152742380Y-118579071D01*
X149837142Y-115862833D02*
X149884761Y-115815214D01*
X149932380Y-115672357D01*
X149932380Y-115577119D01*
X149884761Y-115434261D01*
X149789523Y-115339023D01*
X149694285Y-115291404D01*
X149503809Y-115243785D01*
X149360952Y-115243785D01*
X149170476Y-115291404D01*
X149075238Y-115339023D01*
X148980000Y-115434261D01*
X148932380Y-115577119D01*
X148932380Y-115672357D01*
X148980000Y-115815214D01*
X149027619Y-115862833D01*
X149360952Y-116434261D02*
X149313333Y-116339023D01*
X149265714Y-116291404D01*
X149170476Y-116243785D01*
X149122857Y-116243785D01*
X149027619Y-116291404D01*
X148980000Y-116339023D01*
X148932380Y-116434261D01*
X148932380Y-116624738D01*
X148980000Y-116719976D01*
X149027619Y-116767595D01*
X149122857Y-116815214D01*
X149170476Y-116815214D01*
X149265714Y-116767595D01*
X149313333Y-116719976D01*
X149360952Y-116624738D01*
X149360952Y-116434261D01*
X149408571Y-116339023D01*
X149456190Y-116291404D01*
X149551428Y-116243785D01*
X149741904Y-116243785D01*
X149837142Y-116291404D01*
X149884761Y-116339023D01*
X149932380Y-116434261D01*
X149932380Y-116624738D01*
X149884761Y-116719976D01*
X149837142Y-116767595D01*
X149741904Y-116815214D01*
X149551428Y-116815214D01*
X149456190Y-116767595D01*
X149408571Y-116719976D01*
X149360952Y-116624738D01*
X155933142Y-117483833D02*
X155980761Y-117436214D01*
X156028380Y-117293357D01*
X156028380Y-117198119D01*
X155980761Y-117055261D01*
X155885523Y-116960023D01*
X155790285Y-116912404D01*
X155599809Y-116864785D01*
X155456952Y-116864785D01*
X155266476Y-116912404D01*
X155171238Y-116960023D01*
X155076000Y-117055261D01*
X155028380Y-117198119D01*
X155028380Y-117293357D01*
X155076000Y-117436214D01*
X155123619Y-117483833D01*
X156028380Y-117960023D02*
X156028380Y-118150500D01*
X155980761Y-118245738D01*
X155933142Y-118293357D01*
X155790285Y-118388595D01*
X155599809Y-118436214D01*
X155218857Y-118436214D01*
X155123619Y-118388595D01*
X155076000Y-118340976D01*
X155028380Y-118245738D01*
X155028380Y-118055261D01*
X155076000Y-117960023D01*
X155123619Y-117912404D01*
X155218857Y-117864785D01*
X155456952Y-117864785D01*
X155552190Y-117912404D01*
X155599809Y-117960023D01*
X155647428Y-118055261D01*
X155647428Y-118245738D01*
X155599809Y-118340976D01*
X155552190Y-118388595D01*
X155456952Y-118436214D01*
X145914166Y-123927142D02*
X145961785Y-123974761D01*
X146104642Y-124022380D01*
X146199880Y-124022380D01*
X146342738Y-123974761D01*
X146437976Y-123879523D01*
X146485595Y-123784285D01*
X146533214Y-123593809D01*
X146533214Y-123450952D01*
X146485595Y-123260476D01*
X146437976Y-123165238D01*
X146342738Y-123070000D01*
X146199880Y-123022380D01*
X146104642Y-123022380D01*
X145961785Y-123070000D01*
X145914166Y-123117619D01*
X145580833Y-123022380D02*
X144961785Y-123022380D01*
X145295119Y-123403333D01*
X145152261Y-123403333D01*
X145057023Y-123450952D01*
X145009404Y-123498571D01*
X144961785Y-123593809D01*
X144961785Y-123831904D01*
X145009404Y-123927142D01*
X145057023Y-123974761D01*
X145152261Y-124022380D01*
X145437976Y-124022380D01*
X145533214Y-123974761D01*
X145580833Y-123927142D01*
X155520380Y-125055333D02*
X155044190Y-124722000D01*
X155520380Y-124483904D02*
X154520380Y-124483904D01*
X154520380Y-124864857D01*
X154568000Y-124960095D01*
X154615619Y-125007714D01*
X154710857Y-125055333D01*
X154853714Y-125055333D01*
X154948952Y-125007714D01*
X154996571Y-124960095D01*
X155044190Y-124864857D01*
X155044190Y-124483904D01*
X155520380Y-126007714D02*
X155520380Y-125436285D01*
X155520380Y-125722000D02*
X154520380Y-125722000D01*
X154663238Y-125626761D01*
X154758476Y-125531523D01*
X154806095Y-125436285D01*
%LPC*%
D13*
X105410000Y-67056000D03*
X105410000Y-69596000D03*
X105410000Y-72136000D03*
X105410000Y-75946000D03*
X105410000Y-78486000D03*
X105410000Y-81026000D03*
X105410000Y-83566000D03*
X105410000Y-87376000D03*
X105410000Y-89916000D03*
X105410000Y-92456000D03*
X105410000Y-94996000D03*
X105410000Y-97536000D03*
X105410000Y-101346000D03*
X105410000Y-103886000D03*
X105410000Y-106426000D03*
X105410000Y-108966000D03*
X105410000Y-64516000D03*
D14*
X85267800Y-90932000D03*
D15*
X114920000Y-51562000D03*
X116220000Y-51562000D03*
X114920000Y-49022000D03*
X116220000Y-49022000D03*
D16*
X104853500Y-52578000D03*
X102918500Y-52578000D03*
X104853500Y-50292000D03*
X102918500Y-50292000D03*
D17*
X136652000Y-57863500D03*
X136652000Y-55928500D03*
X100838000Y-50340500D03*
X100838000Y-52275500D03*
D18*
X125984000Y-54351000D03*
X125984000Y-58933000D03*
D19*
X117894100Y-55738001D03*
X117894100Y-56388000D03*
X117894100Y-57037999D03*
X119849900Y-57037999D03*
X119849900Y-56388000D03*
X119849900Y-55738001D03*
D20*
X130683000Y-54008040D03*
X131953000Y-54008040D03*
X133223000Y-54008040D03*
X134493000Y-54008040D03*
X134493000Y-59408040D03*
X133223000Y-59408040D03*
X131953000Y-59408040D03*
X130683000Y-59408040D03*
D21*
X171566000Y-124508000D03*
D22*
X177016000Y-104648000D03*
D23*
X171566000Y-104648000D03*
X166116000Y-104648000D03*
X177016000Y-76454000D03*
X171566000Y-76454000D03*
D22*
X166116000Y-76454000D03*
D21*
X171566000Y-56594000D03*
D24*
X159766000Y-123952000D03*
D25*
X159766000Y-126492000D03*
D24*
X159766000Y-111252000D03*
X159766000Y-121412000D03*
X159766000Y-118872000D03*
X159766000Y-113792000D03*
X159766000Y-116332000D03*
D26*
X124206000Y-100838000D03*
X124206000Y-71755000D03*
X153289000Y-100838000D03*
X153289000Y-71755000D03*
D14*
X62357000Y-114934000D03*
X73025000Y-46355000D03*
X87225274Y-71247000D03*
D27*
X92456000Y-45212000D03*
X92456000Y-47752000D03*
X92456000Y-50292000D03*
X92456000Y-52832000D03*
X92456000Y-55372000D03*
X92456000Y-57912000D03*
X92456000Y-60452000D03*
X92456000Y-62992000D03*
X92456000Y-65532000D03*
X92456000Y-70612000D03*
X92456000Y-73152000D03*
X92456000Y-75692000D03*
X92456000Y-78232000D03*
X92456000Y-80772000D03*
X92456000Y-83312000D03*
X92456000Y-85852000D03*
X92456000Y-88392000D03*
X92456000Y-90932000D03*
X92456000Y-93472000D03*
X92456000Y-96012000D03*
X92456000Y-98552000D03*
X92456000Y-101092000D03*
X92456000Y-103632000D03*
X92456000Y-106172000D03*
X92456000Y-108712000D03*
X92456000Y-111252000D03*
X92456000Y-113792000D03*
X92456000Y-116332000D03*
X92456000Y-118872000D03*
X92456000Y-125222000D03*
X92456000Y-127762000D03*
X92456000Y-130302000D03*
X92456000Y-132842000D03*
X92456000Y-135382000D03*
X92456000Y-137922000D03*
X92456000Y-140462000D03*
X92456000Y-143002000D03*
D17*
X146558000Y-115062000D03*
X146558000Y-116997000D03*
D28*
X143510000Y-114046000D03*
X143510000Y-116586000D03*
D29*
X143510000Y-119126000D03*
D30*
X220218000Y-74182000D03*
X220218000Y-59182000D03*
X230378000Y-74182000D03*
X230378000Y-59182000D03*
X210058000Y-74182000D03*
X210058000Y-59182000D03*
D16*
X155145500Y-114046000D03*
X153210500Y-114046000D03*
D17*
X148844000Y-116997000D03*
X148844000Y-115062000D03*
D16*
X144780000Y-124460000D03*
X146715000Y-124460000D03*
D17*
X154940000Y-118618000D03*
X154940000Y-116683000D03*
X151130000Y-115062000D03*
X151130000Y-116997000D03*
X157226000Y-118618000D03*
X157226000Y-116683000D03*
D16*
X146715000Y-121920000D03*
X144780000Y-121920000D03*
D31*
X214630000Y-107628000D03*
X214630000Y-135128000D03*
X227330000Y-104648000D03*
X227330000Y-77148000D03*
X214630000Y-77148000D03*
X214630000Y-104648000D03*
X201930000Y-104648000D03*
X201930000Y-77148000D03*
X227330000Y-107628000D03*
X227330000Y-135128000D03*
X189230000Y-104648000D03*
X189230000Y-77148000D03*
X201930000Y-107628000D03*
X201930000Y-135128000D03*
D32*
X240202000Y-129972000D03*
X240202000Y-104972000D03*
X240202000Y-79972000D03*
X240202000Y-54972000D03*
D33*
X233273600Y-47371000D03*
X210820000Y-47371000D03*
D17*
X156718000Y-126189500D03*
X156718000Y-124254500D03*
M02*
