G04 #@! TF.GenerationSoftware,KiCad,Pcbnew,(5.0.0-rc2-dev-586-g888c43477)*
G04 #@! TF.CreationDate,2018-06-03T13:52:13-03:00*
G04 #@! TF.ProjectId,Mcc18,4D636331382E6B696361645F70636200,rev?*
G04 #@! TF.SameCoordinates,Original*
G04 #@! TF.FileFunction,Other,Comment*
%FSLAX46Y46*%
G04 Gerber Fmt 4.6, Leading zero omitted, Abs format (unit mm)*
G04 Created by KiCad (PCBNEW (5.0.0-rc2-dev-586-g888c43477)) date 06/03/18 13:52:13*
%MOMM*%
%LPD*%
G01*
G04 APERTURE LIST*
%ADD10C,0.150000*%
%ADD11C,0.002000*%
G04 APERTURE END LIST*
D10*
X87467800Y-90932000D02*
G75*
G03X87467800Y-90932000I-2200000J0D01*
G01*
X245202000Y-129972000D02*
G75*
G03X245202000Y-129972000I-5000000J0D01*
G01*
X245202000Y-104972000D02*
G75*
G03X245202000Y-104972000I-5000000J0D01*
G01*
X245202000Y-79972000D02*
G75*
G03X245202000Y-79972000I-5000000J0D01*
G01*
X245202000Y-54972000D02*
G75*
G03X245202000Y-54972000I-5000000J0D01*
G01*
D11*
X126029357Y-59287833D02*
X126035404Y-59293880D01*
X126041452Y-59312023D01*
X126041452Y-59324119D01*
X126035404Y-59342261D01*
X126023309Y-59354357D01*
X126011214Y-59360404D01*
X125987023Y-59366452D01*
X125968880Y-59366452D01*
X125944690Y-59360404D01*
X125932595Y-59354357D01*
X125920500Y-59342261D01*
X125914452Y-59324119D01*
X125914452Y-59312023D01*
X125920500Y-59293880D01*
X125926547Y-59287833D01*
X126041452Y-59215261D02*
X126035404Y-59227357D01*
X126029357Y-59233404D01*
X126017261Y-59239452D01*
X125980976Y-59239452D01*
X125968880Y-59233404D01*
X125962833Y-59227357D01*
X125956785Y-59215261D01*
X125956785Y-59197119D01*
X125962833Y-59185023D01*
X125968880Y-59178976D01*
X125980976Y-59172928D01*
X126017261Y-59172928D01*
X126029357Y-59178976D01*
X126035404Y-59185023D01*
X126041452Y-59197119D01*
X126041452Y-59215261D01*
X125956785Y-59118500D02*
X126083785Y-59118500D01*
X125962833Y-59118500D02*
X125956785Y-59106404D01*
X125956785Y-59082214D01*
X125962833Y-59070119D01*
X125968880Y-59064071D01*
X125980976Y-59058023D01*
X126017261Y-59058023D01*
X126029357Y-59064071D01*
X126035404Y-59070119D01*
X126041452Y-59082214D01*
X126041452Y-59106404D01*
X126035404Y-59118500D01*
X125956785Y-59015690D02*
X126041452Y-58985452D01*
X125956785Y-58955214D02*
X126041452Y-58985452D01*
X126071690Y-58997547D01*
X126077738Y-59003595D01*
X126083785Y-59015690D01*
X126041452Y-58906833D02*
X125956785Y-58906833D01*
X125980976Y-58906833D02*
X125968880Y-58900785D01*
X125962833Y-58894738D01*
X125956785Y-58882642D01*
X125956785Y-58870547D01*
X126041452Y-58828214D02*
X125956785Y-58828214D01*
X125914452Y-58828214D02*
X125920500Y-58834261D01*
X125926547Y-58828214D01*
X125920500Y-58822166D01*
X125914452Y-58828214D01*
X125926547Y-58828214D01*
X125956785Y-58713309D02*
X126059595Y-58713309D01*
X126071690Y-58719357D01*
X126077738Y-58725404D01*
X126083785Y-58737500D01*
X126083785Y-58755642D01*
X126077738Y-58767738D01*
X126035404Y-58713309D02*
X126041452Y-58725404D01*
X126041452Y-58749595D01*
X126035404Y-58761690D01*
X126029357Y-58767738D01*
X126017261Y-58773785D01*
X125980976Y-58773785D01*
X125968880Y-58767738D01*
X125962833Y-58761690D01*
X125956785Y-58749595D01*
X125956785Y-58725404D01*
X125962833Y-58713309D01*
X126041452Y-58652833D02*
X125914452Y-58652833D01*
X126041452Y-58598404D02*
X125974928Y-58598404D01*
X125962833Y-58604452D01*
X125956785Y-58616547D01*
X125956785Y-58634690D01*
X125962833Y-58646785D01*
X125968880Y-58652833D01*
X125956785Y-58556071D02*
X125956785Y-58507690D01*
X125914452Y-58537928D02*
X126023309Y-58537928D01*
X126035404Y-58531880D01*
X126041452Y-58519785D01*
X126041452Y-58507690D01*
X125926547Y-58374642D02*
X125920500Y-58368595D01*
X125914452Y-58356500D01*
X125914452Y-58326261D01*
X125920500Y-58314166D01*
X125926547Y-58308119D01*
X125938642Y-58302071D01*
X125950738Y-58302071D01*
X125968880Y-58308119D01*
X126041452Y-58380690D01*
X126041452Y-58302071D01*
X125914452Y-58223452D02*
X125914452Y-58211357D01*
X125920500Y-58199261D01*
X125926547Y-58193214D01*
X125938642Y-58187166D01*
X125962833Y-58181119D01*
X125993071Y-58181119D01*
X126017261Y-58187166D01*
X126029357Y-58193214D01*
X126035404Y-58199261D01*
X126041452Y-58211357D01*
X126041452Y-58223452D01*
X126035404Y-58235547D01*
X126029357Y-58241595D01*
X126017261Y-58247642D01*
X125993071Y-58253690D01*
X125962833Y-58253690D01*
X125938642Y-58247642D01*
X125926547Y-58241595D01*
X125920500Y-58235547D01*
X125914452Y-58223452D01*
X126041452Y-58060166D02*
X126041452Y-58132738D01*
X126041452Y-58096452D02*
X125914452Y-58096452D01*
X125932595Y-58108547D01*
X125944690Y-58120642D01*
X125950738Y-58132738D01*
X125914452Y-57951309D02*
X125914452Y-57975500D01*
X125920500Y-57987595D01*
X125926547Y-57993642D01*
X125944690Y-58005738D01*
X125968880Y-58011785D01*
X126017261Y-58011785D01*
X126029357Y-58005738D01*
X126035404Y-57999690D01*
X126041452Y-57987595D01*
X126041452Y-57963404D01*
X126035404Y-57951309D01*
X126029357Y-57945261D01*
X126017261Y-57939214D01*
X125987023Y-57939214D01*
X125974928Y-57945261D01*
X125968880Y-57951309D01*
X125962833Y-57963404D01*
X125962833Y-57987595D01*
X125968880Y-57999690D01*
X125974928Y-58005738D01*
X125987023Y-58011785D01*
X126005166Y-57794071D02*
X126005166Y-57733595D01*
X126041452Y-57806166D02*
X125914452Y-57763833D01*
X126041452Y-57721500D01*
X126035404Y-57624738D02*
X126041452Y-57636833D01*
X126041452Y-57661023D01*
X126035404Y-57673119D01*
X126029357Y-57679166D01*
X126017261Y-57685214D01*
X125980976Y-57685214D01*
X125968880Y-57679166D01*
X125962833Y-57673119D01*
X125956785Y-57661023D01*
X125956785Y-57636833D01*
X125962833Y-57624738D01*
X126035404Y-57515880D02*
X126041452Y-57527976D01*
X126041452Y-57552166D01*
X126035404Y-57564261D01*
X126029357Y-57570309D01*
X126017261Y-57576357D01*
X125980976Y-57576357D01*
X125968880Y-57570309D01*
X125962833Y-57564261D01*
X125956785Y-57552166D01*
X125956785Y-57527976D01*
X125962833Y-57515880D01*
X126035404Y-57413071D02*
X126041452Y-57425166D01*
X126041452Y-57449357D01*
X126035404Y-57461452D01*
X126023309Y-57467500D01*
X125974928Y-57467500D01*
X125962833Y-57461452D01*
X125956785Y-57449357D01*
X125956785Y-57425166D01*
X125962833Y-57413071D01*
X125974928Y-57407023D01*
X125987023Y-57407023D01*
X125999119Y-57467500D01*
X126041452Y-57334452D02*
X126035404Y-57346547D01*
X126023309Y-57352595D01*
X125914452Y-57352595D01*
X126035404Y-57237690D02*
X126041452Y-57249785D01*
X126041452Y-57273976D01*
X126035404Y-57286071D01*
X126023309Y-57292119D01*
X125974928Y-57292119D01*
X125962833Y-57286071D01*
X125956785Y-57273976D01*
X125956785Y-57249785D01*
X125962833Y-57237690D01*
X125974928Y-57231642D01*
X125987023Y-57231642D01*
X125999119Y-57292119D01*
X126041452Y-57177214D02*
X125956785Y-57177214D01*
X125980976Y-57177214D02*
X125968880Y-57171166D01*
X125962833Y-57165119D01*
X125956785Y-57153023D01*
X125956785Y-57140928D01*
X126041452Y-57044166D02*
X125974928Y-57044166D01*
X125962833Y-57050214D01*
X125956785Y-57062309D01*
X125956785Y-57086500D01*
X125962833Y-57098595D01*
X126035404Y-57044166D02*
X126041452Y-57056261D01*
X126041452Y-57086500D01*
X126035404Y-57098595D01*
X126023309Y-57104642D01*
X126011214Y-57104642D01*
X125999119Y-57098595D01*
X125993071Y-57086500D01*
X125993071Y-57056261D01*
X125987023Y-57044166D01*
X125956785Y-57001833D02*
X125956785Y-56953452D01*
X125914452Y-56983690D02*
X126023309Y-56983690D01*
X126035404Y-56977642D01*
X126041452Y-56965547D01*
X126041452Y-56953452D01*
X126035404Y-56862738D02*
X126041452Y-56874833D01*
X126041452Y-56899023D01*
X126035404Y-56911119D01*
X126023309Y-56917166D01*
X125974928Y-56917166D01*
X125962833Y-56911119D01*
X125956785Y-56899023D01*
X125956785Y-56874833D01*
X125962833Y-56862738D01*
X125974928Y-56856690D01*
X125987023Y-56856690D01*
X125999119Y-56917166D01*
X126041452Y-56747833D02*
X125914452Y-56747833D01*
X126035404Y-56747833D02*
X126041452Y-56759928D01*
X126041452Y-56784119D01*
X126035404Y-56796214D01*
X126029357Y-56802261D01*
X126017261Y-56808309D01*
X125980976Y-56808309D01*
X125968880Y-56802261D01*
X125962833Y-56796214D01*
X125956785Y-56784119D01*
X125956785Y-56759928D01*
X125962833Y-56747833D01*
X126041452Y-56590595D02*
X125914452Y-56590595D01*
X125914452Y-56560357D01*
X125920500Y-56542214D01*
X125932595Y-56530119D01*
X125944690Y-56524071D01*
X125968880Y-56518023D01*
X125987023Y-56518023D01*
X126011214Y-56524071D01*
X126023309Y-56530119D01*
X126035404Y-56542214D01*
X126041452Y-56560357D01*
X126041452Y-56590595D01*
X126035404Y-56415214D02*
X126041452Y-56427309D01*
X126041452Y-56451500D01*
X126035404Y-56463595D01*
X126023309Y-56469642D01*
X125974928Y-56469642D01*
X125962833Y-56463595D01*
X125956785Y-56451500D01*
X125956785Y-56427309D01*
X125962833Y-56415214D01*
X125974928Y-56409166D01*
X125987023Y-56409166D01*
X125999119Y-56469642D01*
X126035404Y-56360785D02*
X126041452Y-56348690D01*
X126041452Y-56324500D01*
X126035404Y-56312404D01*
X126023309Y-56306357D01*
X126017261Y-56306357D01*
X126005166Y-56312404D01*
X125999119Y-56324500D01*
X125999119Y-56342642D01*
X125993071Y-56354738D01*
X125980976Y-56360785D01*
X125974928Y-56360785D01*
X125962833Y-56354738D01*
X125956785Y-56342642D01*
X125956785Y-56324500D01*
X125962833Y-56312404D01*
X126041452Y-56251928D02*
X125956785Y-56251928D01*
X125914452Y-56251928D02*
X125920500Y-56257976D01*
X125926547Y-56251928D01*
X125920500Y-56245880D01*
X125914452Y-56251928D01*
X125926547Y-56251928D01*
X125956785Y-56137023D02*
X126059595Y-56137023D01*
X126071690Y-56143071D01*
X126077738Y-56149119D01*
X126083785Y-56161214D01*
X126083785Y-56179357D01*
X126077738Y-56191452D01*
X126035404Y-56137023D02*
X126041452Y-56149119D01*
X126041452Y-56173309D01*
X126035404Y-56185404D01*
X126029357Y-56191452D01*
X126017261Y-56197500D01*
X125980976Y-56197500D01*
X125968880Y-56191452D01*
X125962833Y-56185404D01*
X125956785Y-56173309D01*
X125956785Y-56149119D01*
X125962833Y-56137023D01*
X125956785Y-56076547D02*
X126041452Y-56076547D01*
X125968880Y-56076547D02*
X125962833Y-56070500D01*
X125956785Y-56058404D01*
X125956785Y-56040261D01*
X125962833Y-56028166D01*
X125974928Y-56022119D01*
X126041452Y-56022119D01*
X126035404Y-55967690D02*
X126041452Y-55955595D01*
X126041452Y-55931404D01*
X126035404Y-55919309D01*
X126023309Y-55913261D01*
X126017261Y-55913261D01*
X126005166Y-55919309D01*
X125999119Y-55931404D01*
X125999119Y-55949547D01*
X125993071Y-55961642D01*
X125980976Y-55967690D01*
X125974928Y-55967690D01*
X125962833Y-55961642D01*
X125956785Y-55949547D01*
X125956785Y-55931404D01*
X125962833Y-55919309D01*
X126029357Y-55858833D02*
X126035404Y-55852785D01*
X126041452Y-55858833D01*
X126035404Y-55864880D01*
X126029357Y-55858833D01*
X126041452Y-55858833D01*
X126005166Y-55707642D02*
X126005166Y-55647166D01*
X126041452Y-55719738D02*
X125914452Y-55677404D01*
X126041452Y-55635071D01*
X126041452Y-55574595D02*
X126035404Y-55586690D01*
X126023309Y-55592738D01*
X125914452Y-55592738D01*
X126041452Y-55508071D02*
X126035404Y-55520166D01*
X126023309Y-55526214D01*
X125914452Y-55526214D01*
X126041452Y-55362928D02*
X125956785Y-55362928D01*
X125980976Y-55362928D02*
X125968880Y-55356880D01*
X125962833Y-55350833D01*
X125956785Y-55338738D01*
X125956785Y-55326642D01*
X126041452Y-55284309D02*
X125956785Y-55284309D01*
X125914452Y-55284309D02*
X125920500Y-55290357D01*
X125926547Y-55284309D01*
X125920500Y-55278261D01*
X125914452Y-55284309D01*
X125926547Y-55284309D01*
X125956785Y-55169404D02*
X126059595Y-55169404D01*
X126071690Y-55175452D01*
X126077738Y-55181500D01*
X126083785Y-55193595D01*
X126083785Y-55211738D01*
X126077738Y-55223833D01*
X126035404Y-55169404D02*
X126041452Y-55181500D01*
X126041452Y-55205690D01*
X126035404Y-55217785D01*
X126029357Y-55223833D01*
X126017261Y-55229880D01*
X125980976Y-55229880D01*
X125968880Y-55223833D01*
X125962833Y-55217785D01*
X125956785Y-55205690D01*
X125956785Y-55181500D01*
X125962833Y-55169404D01*
X126041452Y-55108928D02*
X125914452Y-55108928D01*
X126041452Y-55054500D02*
X125974928Y-55054500D01*
X125962833Y-55060547D01*
X125956785Y-55072642D01*
X125956785Y-55090785D01*
X125962833Y-55102880D01*
X125968880Y-55108928D01*
X125956785Y-55012166D02*
X125956785Y-54963785D01*
X125914452Y-54994023D02*
X126023309Y-54994023D01*
X126035404Y-54987976D01*
X126041452Y-54975880D01*
X126041452Y-54963785D01*
X126035404Y-54927500D02*
X126041452Y-54915404D01*
X126041452Y-54891214D01*
X126035404Y-54879119D01*
X126023309Y-54873071D01*
X126017261Y-54873071D01*
X126005166Y-54879119D01*
X125999119Y-54891214D01*
X125999119Y-54909357D01*
X125993071Y-54921452D01*
X125980976Y-54927500D01*
X125974928Y-54927500D01*
X125962833Y-54921452D01*
X125956785Y-54909357D01*
X125956785Y-54891214D01*
X125962833Y-54879119D01*
X126041452Y-54721880D02*
X125956785Y-54721880D01*
X125980976Y-54721880D02*
X125968880Y-54715833D01*
X125962833Y-54709785D01*
X125956785Y-54697690D01*
X125956785Y-54685595D01*
X126035404Y-54594880D02*
X126041452Y-54606976D01*
X126041452Y-54631166D01*
X126035404Y-54643261D01*
X126023309Y-54649309D01*
X125974928Y-54649309D01*
X125962833Y-54643261D01*
X125956785Y-54631166D01*
X125956785Y-54606976D01*
X125962833Y-54594880D01*
X125974928Y-54588833D01*
X125987023Y-54588833D01*
X125999119Y-54649309D01*
X126035404Y-54540452D02*
X126041452Y-54528357D01*
X126041452Y-54504166D01*
X126035404Y-54492071D01*
X126023309Y-54486023D01*
X126017261Y-54486023D01*
X126005166Y-54492071D01*
X125999119Y-54504166D01*
X125999119Y-54522309D01*
X125993071Y-54534404D01*
X125980976Y-54540452D01*
X125974928Y-54540452D01*
X125962833Y-54534404D01*
X125956785Y-54522309D01*
X125956785Y-54504166D01*
X125962833Y-54492071D01*
X126035404Y-54383214D02*
X126041452Y-54395309D01*
X126041452Y-54419500D01*
X126035404Y-54431595D01*
X126023309Y-54437642D01*
X125974928Y-54437642D01*
X125962833Y-54431595D01*
X125956785Y-54419500D01*
X125956785Y-54395309D01*
X125962833Y-54383214D01*
X125974928Y-54377166D01*
X125987023Y-54377166D01*
X125999119Y-54437642D01*
X126041452Y-54322738D02*
X125956785Y-54322738D01*
X125980976Y-54322738D02*
X125968880Y-54316690D01*
X125962833Y-54310642D01*
X125956785Y-54298547D01*
X125956785Y-54286452D01*
X125956785Y-54256214D02*
X126041452Y-54225976D01*
X125956785Y-54195738D01*
X126035404Y-54098976D02*
X126041452Y-54111071D01*
X126041452Y-54135261D01*
X126035404Y-54147357D01*
X126023309Y-54153404D01*
X125974928Y-54153404D01*
X125962833Y-54147357D01*
X125956785Y-54135261D01*
X125956785Y-54111071D01*
X125962833Y-54098976D01*
X125974928Y-54092928D01*
X125987023Y-54092928D01*
X125999119Y-54153404D01*
X126041452Y-53984071D02*
X125914452Y-53984071D01*
X126035404Y-53984071D02*
X126041452Y-53996166D01*
X126041452Y-54020357D01*
X126035404Y-54032452D01*
X126029357Y-54038500D01*
X126017261Y-54044547D01*
X125980976Y-54044547D01*
X125968880Y-54038500D01*
X125962833Y-54032452D01*
X125956785Y-54020357D01*
X125956785Y-53996166D01*
X125962833Y-53984071D01*
X126029357Y-53923595D02*
X126035404Y-53917547D01*
X126041452Y-53923595D01*
X126035404Y-53929642D01*
X126029357Y-53923595D01*
X126041452Y-53923595D01*
X116226166Y-55925357D02*
X116220119Y-55931404D01*
X116201976Y-55937452D01*
X116189880Y-55937452D01*
X116171738Y-55931404D01*
X116159642Y-55919309D01*
X116153595Y-55907214D01*
X116147547Y-55883023D01*
X116147547Y-55864880D01*
X116153595Y-55840690D01*
X116159642Y-55828595D01*
X116171738Y-55816500D01*
X116189880Y-55810452D01*
X116201976Y-55810452D01*
X116220119Y-55816500D01*
X116226166Y-55822547D01*
X116298738Y-55937452D02*
X116286642Y-55931404D01*
X116280595Y-55925357D01*
X116274547Y-55913261D01*
X116274547Y-55876976D01*
X116280595Y-55864880D01*
X116286642Y-55858833D01*
X116298738Y-55852785D01*
X116316880Y-55852785D01*
X116328976Y-55858833D01*
X116335023Y-55864880D01*
X116341071Y-55876976D01*
X116341071Y-55913261D01*
X116335023Y-55925357D01*
X116328976Y-55931404D01*
X116316880Y-55937452D01*
X116298738Y-55937452D01*
X116395500Y-55852785D02*
X116395500Y-55979785D01*
X116395500Y-55858833D02*
X116407595Y-55852785D01*
X116431785Y-55852785D01*
X116443880Y-55858833D01*
X116449928Y-55864880D01*
X116455976Y-55876976D01*
X116455976Y-55913261D01*
X116449928Y-55925357D01*
X116443880Y-55931404D01*
X116431785Y-55937452D01*
X116407595Y-55937452D01*
X116395500Y-55931404D01*
X116498309Y-55852785D02*
X116528547Y-55937452D01*
X116558785Y-55852785D02*
X116528547Y-55937452D01*
X116516452Y-55967690D01*
X116510404Y-55973738D01*
X116498309Y-55979785D01*
X116607166Y-55937452D02*
X116607166Y-55852785D01*
X116607166Y-55876976D02*
X116613214Y-55864880D01*
X116619261Y-55858833D01*
X116631357Y-55852785D01*
X116643452Y-55852785D01*
X116685785Y-55937452D02*
X116685785Y-55852785D01*
X116685785Y-55810452D02*
X116679738Y-55816500D01*
X116685785Y-55822547D01*
X116691833Y-55816500D01*
X116685785Y-55810452D01*
X116685785Y-55822547D01*
X116800690Y-55852785D02*
X116800690Y-55955595D01*
X116794642Y-55967690D01*
X116788595Y-55973738D01*
X116776500Y-55979785D01*
X116758357Y-55979785D01*
X116746261Y-55973738D01*
X116800690Y-55931404D02*
X116788595Y-55937452D01*
X116764404Y-55937452D01*
X116752309Y-55931404D01*
X116746261Y-55925357D01*
X116740214Y-55913261D01*
X116740214Y-55876976D01*
X116746261Y-55864880D01*
X116752309Y-55858833D01*
X116764404Y-55852785D01*
X116788595Y-55852785D01*
X116800690Y-55858833D01*
X116861166Y-55937452D02*
X116861166Y-55810452D01*
X116915595Y-55937452D02*
X116915595Y-55870928D01*
X116909547Y-55858833D01*
X116897452Y-55852785D01*
X116879309Y-55852785D01*
X116867214Y-55858833D01*
X116861166Y-55864880D01*
X116957928Y-55852785D02*
X117006309Y-55852785D01*
X116976071Y-55810452D02*
X116976071Y-55919309D01*
X116982119Y-55931404D01*
X116994214Y-55937452D01*
X117006309Y-55937452D01*
X117139357Y-55822547D02*
X117145404Y-55816500D01*
X117157500Y-55810452D01*
X117187738Y-55810452D01*
X117199833Y-55816500D01*
X117205880Y-55822547D01*
X117211928Y-55834642D01*
X117211928Y-55846738D01*
X117205880Y-55864880D01*
X117133309Y-55937452D01*
X117211928Y-55937452D01*
X117290547Y-55810452D02*
X117302642Y-55810452D01*
X117314738Y-55816500D01*
X117320785Y-55822547D01*
X117326833Y-55834642D01*
X117332880Y-55858833D01*
X117332880Y-55889071D01*
X117326833Y-55913261D01*
X117320785Y-55925357D01*
X117314738Y-55931404D01*
X117302642Y-55937452D01*
X117290547Y-55937452D01*
X117278452Y-55931404D01*
X117272404Y-55925357D01*
X117266357Y-55913261D01*
X117260309Y-55889071D01*
X117260309Y-55858833D01*
X117266357Y-55834642D01*
X117272404Y-55822547D01*
X117278452Y-55816500D01*
X117290547Y-55810452D01*
X117453833Y-55937452D02*
X117381261Y-55937452D01*
X117417547Y-55937452D02*
X117417547Y-55810452D01*
X117405452Y-55828595D01*
X117393357Y-55840690D01*
X117381261Y-55846738D01*
X117562690Y-55810452D02*
X117538500Y-55810452D01*
X117526404Y-55816500D01*
X117520357Y-55822547D01*
X117508261Y-55840690D01*
X117502214Y-55864880D01*
X117502214Y-55913261D01*
X117508261Y-55925357D01*
X117514309Y-55931404D01*
X117526404Y-55937452D01*
X117550595Y-55937452D01*
X117562690Y-55931404D01*
X117568738Y-55925357D01*
X117574785Y-55913261D01*
X117574785Y-55883023D01*
X117568738Y-55870928D01*
X117562690Y-55864880D01*
X117550595Y-55858833D01*
X117526404Y-55858833D01*
X117514309Y-55864880D01*
X117508261Y-55870928D01*
X117502214Y-55883023D01*
X117719928Y-55901166D02*
X117780404Y-55901166D01*
X117707833Y-55937452D02*
X117750166Y-55810452D01*
X117792500Y-55937452D01*
X117889261Y-55931404D02*
X117877166Y-55937452D01*
X117852976Y-55937452D01*
X117840880Y-55931404D01*
X117834833Y-55925357D01*
X117828785Y-55913261D01*
X117828785Y-55876976D01*
X117834833Y-55864880D01*
X117840880Y-55858833D01*
X117852976Y-55852785D01*
X117877166Y-55852785D01*
X117889261Y-55858833D01*
X117998119Y-55931404D02*
X117986023Y-55937452D01*
X117961833Y-55937452D01*
X117949738Y-55931404D01*
X117943690Y-55925357D01*
X117937642Y-55913261D01*
X117937642Y-55876976D01*
X117943690Y-55864880D01*
X117949738Y-55858833D01*
X117961833Y-55852785D01*
X117986023Y-55852785D01*
X117998119Y-55858833D01*
X118100928Y-55931404D02*
X118088833Y-55937452D01*
X118064642Y-55937452D01*
X118052547Y-55931404D01*
X118046500Y-55919309D01*
X118046500Y-55870928D01*
X118052547Y-55858833D01*
X118064642Y-55852785D01*
X118088833Y-55852785D01*
X118100928Y-55858833D01*
X118106976Y-55870928D01*
X118106976Y-55883023D01*
X118046500Y-55895119D01*
X118179547Y-55937452D02*
X118167452Y-55931404D01*
X118161404Y-55919309D01*
X118161404Y-55810452D01*
X118276309Y-55931404D02*
X118264214Y-55937452D01*
X118240023Y-55937452D01*
X118227928Y-55931404D01*
X118221880Y-55919309D01*
X118221880Y-55870928D01*
X118227928Y-55858833D01*
X118240023Y-55852785D01*
X118264214Y-55852785D01*
X118276309Y-55858833D01*
X118282357Y-55870928D01*
X118282357Y-55883023D01*
X118221880Y-55895119D01*
X118336785Y-55937452D02*
X118336785Y-55852785D01*
X118336785Y-55876976D02*
X118342833Y-55864880D01*
X118348880Y-55858833D01*
X118360976Y-55852785D01*
X118373071Y-55852785D01*
X118469833Y-55937452D02*
X118469833Y-55870928D01*
X118463785Y-55858833D01*
X118451690Y-55852785D01*
X118427500Y-55852785D01*
X118415404Y-55858833D01*
X118469833Y-55931404D02*
X118457738Y-55937452D01*
X118427500Y-55937452D01*
X118415404Y-55931404D01*
X118409357Y-55919309D01*
X118409357Y-55907214D01*
X118415404Y-55895119D01*
X118427500Y-55889071D01*
X118457738Y-55889071D01*
X118469833Y-55883023D01*
X118512166Y-55852785D02*
X118560547Y-55852785D01*
X118530309Y-55810452D02*
X118530309Y-55919309D01*
X118536357Y-55931404D01*
X118548452Y-55937452D01*
X118560547Y-55937452D01*
X118651261Y-55931404D02*
X118639166Y-55937452D01*
X118614976Y-55937452D01*
X118602880Y-55931404D01*
X118596833Y-55919309D01*
X118596833Y-55870928D01*
X118602880Y-55858833D01*
X118614976Y-55852785D01*
X118639166Y-55852785D01*
X118651261Y-55858833D01*
X118657309Y-55870928D01*
X118657309Y-55883023D01*
X118596833Y-55895119D01*
X118766166Y-55937452D02*
X118766166Y-55810452D01*
X118766166Y-55931404D02*
X118754071Y-55937452D01*
X118729880Y-55937452D01*
X118717785Y-55931404D01*
X118711738Y-55925357D01*
X118705690Y-55913261D01*
X118705690Y-55876976D01*
X118711738Y-55864880D01*
X118717785Y-55858833D01*
X118729880Y-55852785D01*
X118754071Y-55852785D01*
X118766166Y-55858833D01*
X118923404Y-55937452D02*
X118923404Y-55810452D01*
X118953642Y-55810452D01*
X118971785Y-55816500D01*
X118983880Y-55828595D01*
X118989928Y-55840690D01*
X118995976Y-55864880D01*
X118995976Y-55883023D01*
X118989928Y-55907214D01*
X118983880Y-55919309D01*
X118971785Y-55931404D01*
X118953642Y-55937452D01*
X118923404Y-55937452D01*
X119098785Y-55931404D02*
X119086690Y-55937452D01*
X119062500Y-55937452D01*
X119050404Y-55931404D01*
X119044357Y-55919309D01*
X119044357Y-55870928D01*
X119050404Y-55858833D01*
X119062500Y-55852785D01*
X119086690Y-55852785D01*
X119098785Y-55858833D01*
X119104833Y-55870928D01*
X119104833Y-55883023D01*
X119044357Y-55895119D01*
X119153214Y-55931404D02*
X119165309Y-55937452D01*
X119189500Y-55937452D01*
X119201595Y-55931404D01*
X119207642Y-55919309D01*
X119207642Y-55913261D01*
X119201595Y-55901166D01*
X119189500Y-55895119D01*
X119171357Y-55895119D01*
X119159261Y-55889071D01*
X119153214Y-55876976D01*
X119153214Y-55870928D01*
X119159261Y-55858833D01*
X119171357Y-55852785D01*
X119189500Y-55852785D01*
X119201595Y-55858833D01*
X119262071Y-55937452D02*
X119262071Y-55852785D01*
X119262071Y-55810452D02*
X119256023Y-55816500D01*
X119262071Y-55822547D01*
X119268119Y-55816500D01*
X119262071Y-55810452D01*
X119262071Y-55822547D01*
X119376976Y-55852785D02*
X119376976Y-55955595D01*
X119370928Y-55967690D01*
X119364880Y-55973738D01*
X119352785Y-55979785D01*
X119334642Y-55979785D01*
X119322547Y-55973738D01*
X119376976Y-55931404D02*
X119364880Y-55937452D01*
X119340690Y-55937452D01*
X119328595Y-55931404D01*
X119322547Y-55925357D01*
X119316500Y-55913261D01*
X119316500Y-55876976D01*
X119322547Y-55864880D01*
X119328595Y-55858833D01*
X119340690Y-55852785D01*
X119364880Y-55852785D01*
X119376976Y-55858833D01*
X119437452Y-55852785D02*
X119437452Y-55937452D01*
X119437452Y-55864880D02*
X119443500Y-55858833D01*
X119455595Y-55852785D01*
X119473738Y-55852785D01*
X119485833Y-55858833D01*
X119491880Y-55870928D01*
X119491880Y-55937452D01*
X119546309Y-55931404D02*
X119558404Y-55937452D01*
X119582595Y-55937452D01*
X119594690Y-55931404D01*
X119600738Y-55919309D01*
X119600738Y-55913261D01*
X119594690Y-55901166D01*
X119582595Y-55895119D01*
X119564452Y-55895119D01*
X119552357Y-55889071D01*
X119546309Y-55876976D01*
X119546309Y-55870928D01*
X119552357Y-55858833D01*
X119564452Y-55852785D01*
X119582595Y-55852785D01*
X119594690Y-55858833D01*
X119655166Y-55925357D02*
X119661214Y-55931404D01*
X119655166Y-55937452D01*
X119649119Y-55931404D01*
X119655166Y-55925357D01*
X119655166Y-55937452D01*
X119806357Y-55901166D02*
X119866833Y-55901166D01*
X119794261Y-55937452D02*
X119836595Y-55810452D01*
X119878928Y-55937452D01*
X119939404Y-55937452D02*
X119927309Y-55931404D01*
X119921261Y-55919309D01*
X119921261Y-55810452D01*
X120005928Y-55937452D02*
X119993833Y-55931404D01*
X119987785Y-55919309D01*
X119987785Y-55810452D01*
X120151071Y-55937452D02*
X120151071Y-55852785D01*
X120151071Y-55876976D02*
X120157119Y-55864880D01*
X120163166Y-55858833D01*
X120175261Y-55852785D01*
X120187357Y-55852785D01*
X120229690Y-55937452D02*
X120229690Y-55852785D01*
X120229690Y-55810452D02*
X120223642Y-55816500D01*
X120229690Y-55822547D01*
X120235738Y-55816500D01*
X120229690Y-55810452D01*
X120229690Y-55822547D01*
X120344595Y-55852785D02*
X120344595Y-55955595D01*
X120338547Y-55967690D01*
X120332500Y-55973738D01*
X120320404Y-55979785D01*
X120302261Y-55979785D01*
X120290166Y-55973738D01*
X120344595Y-55931404D02*
X120332500Y-55937452D01*
X120308309Y-55937452D01*
X120296214Y-55931404D01*
X120290166Y-55925357D01*
X120284119Y-55913261D01*
X120284119Y-55876976D01*
X120290166Y-55864880D01*
X120296214Y-55858833D01*
X120308309Y-55852785D01*
X120332500Y-55852785D01*
X120344595Y-55858833D01*
X120405071Y-55937452D02*
X120405071Y-55810452D01*
X120459500Y-55937452D02*
X120459500Y-55870928D01*
X120453452Y-55858833D01*
X120441357Y-55852785D01*
X120423214Y-55852785D01*
X120411119Y-55858833D01*
X120405071Y-55864880D01*
X120501833Y-55852785D02*
X120550214Y-55852785D01*
X120519976Y-55810452D02*
X120519976Y-55919309D01*
X120526023Y-55931404D01*
X120538119Y-55937452D01*
X120550214Y-55937452D01*
X120586500Y-55931404D02*
X120598595Y-55937452D01*
X120622785Y-55937452D01*
X120634880Y-55931404D01*
X120640928Y-55919309D01*
X120640928Y-55913261D01*
X120634880Y-55901166D01*
X120622785Y-55895119D01*
X120604642Y-55895119D01*
X120592547Y-55889071D01*
X120586500Y-55876976D01*
X120586500Y-55870928D01*
X120592547Y-55858833D01*
X120604642Y-55852785D01*
X120622785Y-55852785D01*
X120634880Y-55858833D01*
X120792119Y-55937452D02*
X120792119Y-55852785D01*
X120792119Y-55876976D02*
X120798166Y-55864880D01*
X120804214Y-55858833D01*
X120816309Y-55852785D01*
X120828404Y-55852785D01*
X120919119Y-55931404D02*
X120907023Y-55937452D01*
X120882833Y-55937452D01*
X120870738Y-55931404D01*
X120864690Y-55919309D01*
X120864690Y-55870928D01*
X120870738Y-55858833D01*
X120882833Y-55852785D01*
X120907023Y-55852785D01*
X120919119Y-55858833D01*
X120925166Y-55870928D01*
X120925166Y-55883023D01*
X120864690Y-55895119D01*
X120973547Y-55931404D02*
X120985642Y-55937452D01*
X121009833Y-55937452D01*
X121021928Y-55931404D01*
X121027976Y-55919309D01*
X121027976Y-55913261D01*
X121021928Y-55901166D01*
X121009833Y-55895119D01*
X120991690Y-55895119D01*
X120979595Y-55889071D01*
X120973547Y-55876976D01*
X120973547Y-55870928D01*
X120979595Y-55858833D01*
X120991690Y-55852785D01*
X121009833Y-55852785D01*
X121021928Y-55858833D01*
X121130785Y-55931404D02*
X121118690Y-55937452D01*
X121094500Y-55937452D01*
X121082404Y-55931404D01*
X121076357Y-55919309D01*
X121076357Y-55870928D01*
X121082404Y-55858833D01*
X121094500Y-55852785D01*
X121118690Y-55852785D01*
X121130785Y-55858833D01*
X121136833Y-55870928D01*
X121136833Y-55883023D01*
X121076357Y-55895119D01*
X121191261Y-55937452D02*
X121191261Y-55852785D01*
X121191261Y-55876976D02*
X121197309Y-55864880D01*
X121203357Y-55858833D01*
X121215452Y-55852785D01*
X121227547Y-55852785D01*
X121257785Y-55852785D02*
X121288023Y-55937452D01*
X121318261Y-55852785D01*
X121415023Y-55931404D02*
X121402928Y-55937452D01*
X121378738Y-55937452D01*
X121366642Y-55931404D01*
X121360595Y-55919309D01*
X121360595Y-55870928D01*
X121366642Y-55858833D01*
X121378738Y-55852785D01*
X121402928Y-55852785D01*
X121415023Y-55858833D01*
X121421071Y-55870928D01*
X121421071Y-55883023D01*
X121360595Y-55895119D01*
X121529928Y-55937452D02*
X121529928Y-55810452D01*
X121529928Y-55931404D02*
X121517833Y-55937452D01*
X121493642Y-55937452D01*
X121481547Y-55931404D01*
X121475500Y-55925357D01*
X121469452Y-55913261D01*
X121469452Y-55876976D01*
X121475500Y-55864880D01*
X121481547Y-55858833D01*
X121493642Y-55852785D01*
X121517833Y-55852785D01*
X121529928Y-55858833D01*
X121590404Y-55925357D02*
X121596452Y-55931404D01*
X121590404Y-55937452D01*
X121584357Y-55931404D01*
X121590404Y-55925357D01*
X121590404Y-55937452D01*
M02*
