G04 #@! TF.GenerationSoftware,KiCad,Pcbnew,(5.0.0-rc2-39-ga12b9db58)*
G04 #@! TF.CreationDate,2018-05-30T02:22:20-03:00*
G04 #@! TF.ProjectId,Mcc18,4D636331382E6B696361645F70636200,rev?*
G04 #@! TF.SameCoordinates,Original*
G04 #@! TF.FileFunction,Other,Fab,Bot*
%FSLAX46Y46*%
G04 Gerber Fmt 4.6, Leading zero omitted, Abs format (unit mm)*
G04 Created by KiCad (PCBNEW (5.0.0-rc2-39-ga12b9db58)) date Wed May 30 02:22:20 2018*
%MOMM*%
%LPD*%
G01*
G04 APERTURE LIST*
%ADD10C,0.100000*%
%ADD11C,0.150000*%
%ADD12C,0.080000*%
G04 APERTURE END LIST*
D10*
G04 #@! TO.C,Q1*
X173371000Y-124508000D02*
G75*
G03X173371000Y-124508000I-1805000J0D01*
G01*
X179516000Y-109728000D02*
X179516000Y-130678000D01*
X179516000Y-130678000D02*
X163616000Y-130678000D01*
X163616000Y-130678000D02*
X163616000Y-109728000D01*
X163616000Y-109728000D02*
X179516000Y-109728000D01*
X177016000Y-109728000D02*
X177016000Y-104648000D01*
X171566000Y-109728000D02*
X171566000Y-104648000D01*
X166116000Y-109728000D02*
X166116000Y-104648000D01*
G04 #@! TO.C,D1*
X177016000Y-71374000D02*
X177016000Y-76454000D01*
X171566000Y-71374000D02*
X171566000Y-76454000D01*
X166116000Y-71374000D02*
X166116000Y-76454000D01*
X179516000Y-71374000D02*
X163616000Y-71374000D01*
X179516000Y-50424000D02*
X179516000Y-71374000D01*
X163616000Y-50424000D02*
X179516000Y-50424000D01*
X163616000Y-71374000D02*
X163616000Y-50424000D01*
X173371000Y-56594000D02*
G75*
G03X173371000Y-56594000I-1805000J0D01*
G01*
G04 #@! TO.C,C4*
X147158000Y-115029500D02*
X145958000Y-115029500D01*
X145958000Y-115029500D02*
X145958000Y-117029500D01*
X145958000Y-117029500D02*
X147158000Y-117029500D01*
X147158000Y-117029500D02*
X147158000Y-115029500D01*
G04 #@! TO.C,L3*
X155178000Y-113446000D02*
X153178000Y-113446000D01*
X155178000Y-114646000D02*
X155178000Y-113446000D01*
X153178000Y-114646000D02*
X155178000Y-114646000D01*
X153178000Y-113446000D02*
X153178000Y-114646000D01*
G04 #@! TO.C,C5*
X149444000Y-117029500D02*
X149444000Y-115029500D01*
X148244000Y-117029500D02*
X149444000Y-117029500D01*
X148244000Y-115029500D02*
X148244000Y-117029500D01*
X149444000Y-115029500D02*
X148244000Y-115029500D01*
G04 #@! TO.C,C2*
X144747500Y-123860000D02*
X144747500Y-125060000D01*
X144747500Y-125060000D02*
X146747500Y-125060000D01*
X146747500Y-125060000D02*
X146747500Y-123860000D01*
X146747500Y-123860000D02*
X144747500Y-123860000D01*
G04 #@! TO.C,C10*
X155540000Y-118650500D02*
X155540000Y-116650500D01*
X154340000Y-118650500D02*
X155540000Y-118650500D01*
X154340000Y-116650500D02*
X154340000Y-118650500D01*
X155540000Y-116650500D02*
X154340000Y-116650500D01*
G04 #@! TO.C,C8*
X151730000Y-115029500D02*
X150530000Y-115029500D01*
X150530000Y-115029500D02*
X150530000Y-117029500D01*
X150530000Y-117029500D02*
X151730000Y-117029500D01*
X151730000Y-117029500D02*
X151730000Y-115029500D01*
G04 #@! TO.C,C9*
X157826000Y-118650500D02*
X157826000Y-116650500D01*
X156626000Y-118650500D02*
X157826000Y-118650500D01*
X156626000Y-116650500D02*
X156626000Y-118650500D01*
X157826000Y-116650500D02*
X156626000Y-116650500D01*
G04 #@! TO.C,C1*
X138268000Y-58960500D02*
X138268000Y-56960500D01*
X137068000Y-58960500D02*
X138268000Y-58960500D01*
X137068000Y-56960500D02*
X137068000Y-58960500D01*
X138268000Y-56960500D02*
X137068000Y-56960500D01*
G04 #@! TO.C,C3*
X146747500Y-121320000D02*
X144747500Y-121320000D01*
X146747500Y-122520000D02*
X146747500Y-121320000D01*
X144747500Y-122520000D02*
X146747500Y-122520000D01*
X144747500Y-121320000D02*
X144747500Y-122520000D01*
G04 #@! TO.C,R1*
X157318000Y-126222000D02*
X157318000Y-124222000D01*
X156118000Y-126222000D02*
X157318000Y-126222000D01*
X156118000Y-124222000D02*
X156118000Y-126222000D01*
X157318000Y-124222000D02*
X156118000Y-124222000D01*
G04 #@! TO.C,R105*
X142224000Y-54264000D02*
X140224000Y-54264000D01*
X142224000Y-55464000D02*
X142224000Y-54264000D01*
X140224000Y-55464000D02*
X142224000Y-55464000D01*
X140224000Y-54264000D02*
X140224000Y-55464000D01*
G04 #@! TO.C,R106*
X140224000Y-56296000D02*
X140224000Y-57496000D01*
X140224000Y-57496000D02*
X142224000Y-57496000D01*
X142224000Y-57496000D02*
X142224000Y-56296000D01*
X142224000Y-56296000D02*
X140224000Y-56296000D01*
G04 #@! TD*
G04 #@! TO.C,U4*
D11*
X119014761Y-105736000D02*
X119062380Y-105878857D01*
X119062380Y-106116952D01*
X119014761Y-106212190D01*
X118967142Y-106259809D01*
X118871904Y-106307428D01*
X118776666Y-106307428D01*
X118681428Y-106259809D01*
X118633809Y-106212190D01*
X118586190Y-106116952D01*
X118538571Y-105926476D01*
X118490952Y-105831238D01*
X118443333Y-105783619D01*
X118348095Y-105736000D01*
X118252857Y-105736000D01*
X118157619Y-105783619D01*
X118110000Y-105831238D01*
X118062380Y-105926476D01*
X118062380Y-106164571D01*
X118110000Y-106307428D01*
X119062380Y-106736000D02*
X118395714Y-106736000D01*
X118062380Y-106736000D02*
X118110000Y-106688380D01*
X118157619Y-106736000D01*
X118110000Y-106783619D01*
X118062380Y-106736000D01*
X118157619Y-106736000D01*
X118395714Y-107640761D02*
X119205238Y-107640761D01*
X119300476Y-107593142D01*
X119348095Y-107545523D01*
X119395714Y-107450285D01*
X119395714Y-107307428D01*
X119348095Y-107212190D01*
X119014761Y-107640761D02*
X119062380Y-107545523D01*
X119062380Y-107355047D01*
X119014761Y-107259809D01*
X118967142Y-107212190D01*
X118871904Y-107164571D01*
X118586190Y-107164571D01*
X118490952Y-107212190D01*
X118443333Y-107259809D01*
X118395714Y-107355047D01*
X118395714Y-107545523D01*
X118443333Y-107640761D01*
X118395714Y-108116952D02*
X119062380Y-108116952D01*
X118490952Y-108116952D02*
X118443333Y-108164571D01*
X118395714Y-108259809D01*
X118395714Y-108402666D01*
X118443333Y-108497904D01*
X118538571Y-108545523D01*
X119062380Y-108545523D01*
X119062380Y-109450285D02*
X118538571Y-109450285D01*
X118443333Y-109402666D01*
X118395714Y-109307428D01*
X118395714Y-109116952D01*
X118443333Y-109021714D01*
X119014761Y-109450285D02*
X119062380Y-109355047D01*
X119062380Y-109116952D01*
X119014761Y-109021714D01*
X118919523Y-108974095D01*
X118824285Y-108974095D01*
X118729047Y-109021714D01*
X118681428Y-109116952D01*
X118681428Y-109355047D01*
X118633809Y-109450285D01*
X119062380Y-110069333D02*
X119014761Y-109974095D01*
X118919523Y-109926476D01*
X118062380Y-109926476D01*
X119014761Y-110402666D02*
X119062380Y-110497904D01*
X119062380Y-110688380D01*
X119014761Y-110783619D01*
X118919523Y-110831238D01*
X118871904Y-110831238D01*
X118776666Y-110783619D01*
X118729047Y-110688380D01*
X118729047Y-110545523D01*
X118681428Y-110450285D01*
X118586190Y-110402666D01*
X118538571Y-110402666D01*
X118443333Y-110450285D01*
X118395714Y-110545523D01*
X118395714Y-110688380D01*
X118443333Y-110783619D01*
X119157619Y-111021714D02*
X119157619Y-111783619D01*
X119062380Y-112021714D02*
X118062380Y-112021714D01*
X118776666Y-112355047D01*
X118062380Y-112688380D01*
X119062380Y-112688380D01*
X118967142Y-113736000D02*
X119014761Y-113688380D01*
X119062380Y-113545523D01*
X119062380Y-113450285D01*
X119014761Y-113307428D01*
X118919523Y-113212190D01*
X118824285Y-113164571D01*
X118633809Y-113116952D01*
X118490952Y-113116952D01*
X118300476Y-113164571D01*
X118205238Y-113212190D01*
X118110000Y-113307428D01*
X118062380Y-113450285D01*
X118062380Y-113545523D01*
X118110000Y-113688380D01*
X118157619Y-113736000D01*
X118967142Y-114736000D02*
X119014761Y-114688380D01*
X119062380Y-114545523D01*
X119062380Y-114450285D01*
X119014761Y-114307428D01*
X118919523Y-114212190D01*
X118824285Y-114164571D01*
X118633809Y-114116952D01*
X118490952Y-114116952D01*
X118300476Y-114164571D01*
X118205238Y-114212190D01*
X118110000Y-114307428D01*
X118062380Y-114450285D01*
X118062380Y-114545523D01*
X118110000Y-114688380D01*
X118157619Y-114736000D01*
G04 #@! TO.C,HS1*
X150018380Y-142176380D02*
X150018380Y-141176380D01*
X150018380Y-141652571D02*
X149446952Y-141652571D01*
X149446952Y-142176380D02*
X149446952Y-141176380D01*
X148589809Y-142128761D02*
X148685047Y-142176380D01*
X148875523Y-142176380D01*
X148970761Y-142128761D01*
X149018380Y-142033523D01*
X149018380Y-141652571D01*
X148970761Y-141557333D01*
X148875523Y-141509714D01*
X148685047Y-141509714D01*
X148589809Y-141557333D01*
X148542190Y-141652571D01*
X148542190Y-141747809D01*
X149018380Y-141843047D01*
X147685047Y-142176380D02*
X147685047Y-141652571D01*
X147732666Y-141557333D01*
X147827904Y-141509714D01*
X148018380Y-141509714D01*
X148113619Y-141557333D01*
X147685047Y-142128761D02*
X147780285Y-142176380D01*
X148018380Y-142176380D01*
X148113619Y-142128761D01*
X148161238Y-142033523D01*
X148161238Y-141938285D01*
X148113619Y-141843047D01*
X148018380Y-141795428D01*
X147780285Y-141795428D01*
X147685047Y-141747809D01*
X147351714Y-141509714D02*
X146970761Y-141509714D01*
X147208857Y-141176380D02*
X147208857Y-142033523D01*
X147161238Y-142128761D01*
X147066000Y-142176380D01*
X146970761Y-142176380D01*
X146685047Y-142128761D02*
X146589809Y-142176380D01*
X146399333Y-142176380D01*
X146304095Y-142128761D01*
X146256476Y-142033523D01*
X146256476Y-141985904D01*
X146304095Y-141890666D01*
X146399333Y-141843047D01*
X146542190Y-141843047D01*
X146637428Y-141795428D01*
X146685047Y-141700190D01*
X146685047Y-141652571D01*
X146637428Y-141557333D01*
X146542190Y-141509714D01*
X146399333Y-141509714D01*
X146304095Y-141557333D01*
X145827904Y-142176380D02*
X145827904Y-141509714D01*
X145827904Y-141176380D02*
X145875523Y-141224000D01*
X145827904Y-141271619D01*
X145780285Y-141224000D01*
X145827904Y-141176380D01*
X145827904Y-141271619D01*
X145351714Y-141509714D02*
X145351714Y-142176380D01*
X145351714Y-141604952D02*
X145304095Y-141557333D01*
X145208857Y-141509714D01*
X145066000Y-141509714D01*
X144970761Y-141557333D01*
X144923142Y-141652571D01*
X144923142Y-142176380D01*
X144446952Y-142176380D02*
X144446952Y-141176380D01*
X144351714Y-141795428D02*
X144066000Y-142176380D01*
X144066000Y-141509714D02*
X144446952Y-141890666D01*
G04 #@! TO.C,Q1*
X176280285Y-101850380D02*
X176280285Y-100850380D01*
X175232666Y-101850380D02*
X175566000Y-101374190D01*
X175804095Y-101850380D02*
X175804095Y-100850380D01*
X175423142Y-100850380D01*
X175327904Y-100898000D01*
X175280285Y-100945619D01*
X175232666Y-101040857D01*
X175232666Y-101183714D01*
X175280285Y-101278952D01*
X175327904Y-101326571D01*
X175423142Y-101374190D01*
X175804095Y-101374190D01*
X174470761Y-101326571D02*
X174804095Y-101326571D01*
X174804095Y-101850380D02*
X174804095Y-100850380D01*
X174327904Y-100850380D01*
X173946952Y-101850380D02*
X173946952Y-100850380D01*
X173566000Y-100850380D01*
X173470761Y-100898000D01*
X173423142Y-100945619D01*
X173375523Y-101040857D01*
X173375523Y-101183714D01*
X173423142Y-101278952D01*
X173470761Y-101326571D01*
X173566000Y-101374190D01*
X173946952Y-101374190D01*
X172518380Y-101183714D02*
X172518380Y-101850380D01*
X172756476Y-100802761D02*
X172994571Y-101517047D01*
X172375523Y-101517047D01*
X172089809Y-100850380D02*
X171470761Y-100850380D01*
X171804095Y-101231333D01*
X171661238Y-101231333D01*
X171566000Y-101278952D01*
X171518380Y-101326571D01*
X171470761Y-101421809D01*
X171470761Y-101659904D01*
X171518380Y-101755142D01*
X171566000Y-101802761D01*
X171661238Y-101850380D01*
X171946952Y-101850380D01*
X172042190Y-101802761D01*
X172089809Y-101755142D01*
X171089809Y-100945619D02*
X171042190Y-100898000D01*
X170946952Y-100850380D01*
X170708857Y-100850380D01*
X170613619Y-100898000D01*
X170566000Y-100945619D01*
X170518380Y-101040857D01*
X170518380Y-101136095D01*
X170566000Y-101278952D01*
X171137428Y-101850380D01*
X170518380Y-101850380D01*
X169566000Y-101850380D02*
X170137428Y-101850380D01*
X169851714Y-101850380D02*
X169851714Y-100850380D01*
X169946952Y-100993238D01*
X170042190Y-101088476D01*
X170137428Y-101136095D01*
X169137428Y-101850380D02*
X169137428Y-100850380D01*
X168756476Y-100850380D01*
X168661238Y-100898000D01*
X168613619Y-100945619D01*
X168566000Y-101040857D01*
X168566000Y-101183714D01*
X168613619Y-101278952D01*
X168661238Y-101326571D01*
X168756476Y-101374190D01*
X169137428Y-101374190D01*
X168137428Y-101850380D02*
X168137428Y-100850380D01*
X168137428Y-101231333D02*
X168042190Y-101183714D01*
X167851714Y-101183714D01*
X167756476Y-101231333D01*
X167708857Y-101278952D01*
X167661238Y-101374190D01*
X167661238Y-101659904D01*
X167708857Y-101755142D01*
X167756476Y-101802761D01*
X167851714Y-101850380D01*
X168042190Y-101850380D01*
X168137428Y-101802761D01*
X166899333Y-101326571D02*
X167232666Y-101326571D01*
X167232666Y-101850380D02*
X167232666Y-100850380D01*
X166756476Y-100850380D01*
X171661238Y-132345619D02*
X171756476Y-132298000D01*
X171851714Y-132202761D01*
X171994571Y-132059904D01*
X172089809Y-132012285D01*
X172185047Y-132012285D01*
X172137428Y-132250380D02*
X172232666Y-132202761D01*
X172327904Y-132107523D01*
X172375523Y-131917047D01*
X172375523Y-131583714D01*
X172327904Y-131393238D01*
X172232666Y-131298000D01*
X172137428Y-131250380D01*
X171946952Y-131250380D01*
X171851714Y-131298000D01*
X171756476Y-131393238D01*
X171708857Y-131583714D01*
X171708857Y-131917047D01*
X171756476Y-132107523D01*
X171851714Y-132202761D01*
X171946952Y-132250380D01*
X172137428Y-132250380D01*
X170756476Y-132250380D02*
X171327904Y-132250380D01*
X171042190Y-132250380D02*
X171042190Y-131250380D01*
X171137428Y-131393238D01*
X171232666Y-131488476D01*
X171327904Y-131536095D01*
G04 #@! TO.C,D1*
X176470761Y-79584952D02*
X176566000Y-79537333D01*
X176613619Y-79489714D01*
X176661238Y-79394476D01*
X176661238Y-79346857D01*
X176613619Y-79251619D01*
X176566000Y-79204000D01*
X176470761Y-79156380D01*
X176280285Y-79156380D01*
X176185047Y-79204000D01*
X176137428Y-79251619D01*
X176089809Y-79346857D01*
X176089809Y-79394476D01*
X176137428Y-79489714D01*
X176185047Y-79537333D01*
X176280285Y-79584952D01*
X176470761Y-79584952D01*
X176566000Y-79632571D01*
X176613619Y-79680190D01*
X176661238Y-79775428D01*
X176661238Y-79965904D01*
X176613619Y-80061142D01*
X176566000Y-80108761D01*
X176470761Y-80156380D01*
X176280285Y-80156380D01*
X176185047Y-80108761D01*
X176137428Y-80061142D01*
X176089809Y-79965904D01*
X176089809Y-79775428D01*
X176137428Y-79680190D01*
X176185047Y-79632571D01*
X176280285Y-79584952D01*
X175470761Y-79156380D02*
X175375523Y-79156380D01*
X175280285Y-79204000D01*
X175232666Y-79251619D01*
X175185047Y-79346857D01*
X175137428Y-79537333D01*
X175137428Y-79775428D01*
X175185047Y-79965904D01*
X175232666Y-80061142D01*
X175280285Y-80108761D01*
X175375523Y-80156380D01*
X175470761Y-80156380D01*
X175566000Y-80108761D01*
X175613619Y-80061142D01*
X175661238Y-79965904D01*
X175708857Y-79775428D01*
X175708857Y-79537333D01*
X175661238Y-79346857D01*
X175613619Y-79251619D01*
X175566000Y-79204000D01*
X175470761Y-79156380D01*
X174137428Y-80061142D02*
X174185047Y-80108761D01*
X174327904Y-80156380D01*
X174423142Y-80156380D01*
X174566000Y-80108761D01*
X174661238Y-80013523D01*
X174708857Y-79918285D01*
X174756476Y-79727809D01*
X174756476Y-79584952D01*
X174708857Y-79394476D01*
X174661238Y-79299238D01*
X174566000Y-79204000D01*
X174423142Y-79156380D01*
X174327904Y-79156380D01*
X174185047Y-79204000D01*
X174137428Y-79251619D01*
X173708857Y-80156380D02*
X173708857Y-79156380D01*
X173327904Y-79156380D01*
X173232666Y-79204000D01*
X173185047Y-79251619D01*
X173137428Y-79346857D01*
X173137428Y-79489714D01*
X173185047Y-79584952D01*
X173232666Y-79632571D01*
X173327904Y-79680190D01*
X173708857Y-79680190D01*
X172042190Y-80251619D02*
X172137428Y-80204000D01*
X172232666Y-80108761D01*
X172375523Y-79965904D01*
X172470761Y-79918285D01*
X172566000Y-79918285D01*
X172518380Y-80156380D02*
X172613619Y-80108761D01*
X172708857Y-80013523D01*
X172756476Y-79823047D01*
X172756476Y-79489714D01*
X172708857Y-79299238D01*
X172613619Y-79204000D01*
X172518380Y-79156380D01*
X172327904Y-79156380D01*
X172232666Y-79204000D01*
X172137428Y-79299238D01*
X172089809Y-79489714D01*
X172089809Y-79823047D01*
X172137428Y-80013523D01*
X172232666Y-80108761D01*
X172327904Y-80156380D01*
X172518380Y-80156380D01*
X171137428Y-80156380D02*
X171708857Y-80156380D01*
X171423142Y-80156380D02*
X171423142Y-79156380D01*
X171518380Y-79299238D01*
X171613619Y-79394476D01*
X171708857Y-79442095D01*
X170232666Y-79156380D02*
X170708857Y-79156380D01*
X170756476Y-79632571D01*
X170708857Y-79584952D01*
X170613619Y-79537333D01*
X170375523Y-79537333D01*
X170280285Y-79584952D01*
X170232666Y-79632571D01*
X170185047Y-79727809D01*
X170185047Y-79965904D01*
X170232666Y-80061142D01*
X170280285Y-80108761D01*
X170375523Y-80156380D01*
X170613619Y-80156380D01*
X170708857Y-80108761D01*
X170756476Y-80061142D01*
X169566000Y-79156380D02*
X169470761Y-79156380D01*
X169375523Y-79204000D01*
X169327904Y-79251619D01*
X169280285Y-79346857D01*
X169232666Y-79537333D01*
X169232666Y-79775428D01*
X169280285Y-79965904D01*
X169327904Y-80061142D01*
X169375523Y-80108761D01*
X169470761Y-80156380D01*
X169566000Y-80156380D01*
X169661238Y-80108761D01*
X169708857Y-80061142D01*
X169756476Y-79965904D01*
X169804095Y-79775428D01*
X169804095Y-79537333D01*
X169756476Y-79346857D01*
X169708857Y-79251619D01*
X169661238Y-79204000D01*
X169566000Y-79156380D01*
X168804095Y-80156380D02*
X168804095Y-79156380D01*
X168423142Y-79156380D01*
X168327904Y-79204000D01*
X168280285Y-79251619D01*
X168232666Y-79346857D01*
X168232666Y-79489714D01*
X168280285Y-79584952D01*
X168327904Y-79632571D01*
X168423142Y-79680190D01*
X168804095Y-79680190D01*
X167804095Y-80156380D02*
X167804095Y-79156380D01*
X167804095Y-79537333D02*
X167708857Y-79489714D01*
X167518380Y-79489714D01*
X167423142Y-79537333D01*
X167375523Y-79584952D01*
X167327904Y-79680190D01*
X167327904Y-79965904D01*
X167375523Y-80061142D01*
X167423142Y-80108761D01*
X167518380Y-80156380D01*
X167708857Y-80156380D01*
X167804095Y-80108761D01*
X166566000Y-79632571D02*
X166899333Y-79632571D01*
X166899333Y-80156380D02*
X166899333Y-79156380D01*
X166423142Y-79156380D01*
X172304095Y-49756380D02*
X172304095Y-48756380D01*
X172066000Y-48756380D01*
X171923142Y-48804000D01*
X171827904Y-48899238D01*
X171780285Y-48994476D01*
X171732666Y-49184952D01*
X171732666Y-49327809D01*
X171780285Y-49518285D01*
X171827904Y-49613523D01*
X171923142Y-49708761D01*
X172066000Y-49756380D01*
X172304095Y-49756380D01*
X170780285Y-49756380D02*
X171351714Y-49756380D01*
X171066000Y-49756380D02*
X171066000Y-48756380D01*
X171161238Y-48899238D01*
X171256476Y-48994476D01*
X171351714Y-49042095D01*
G04 #@! TO.C,C4*
X148660380Y-114481880D02*
X148660380Y-113910452D01*
X148660380Y-114196166D02*
X147660380Y-114196166D01*
X147803238Y-114100928D01*
X147898476Y-114005690D01*
X147946095Y-113910452D01*
X147660380Y-115100928D02*
X147660380Y-115196166D01*
X147708000Y-115291404D01*
X147755619Y-115339023D01*
X147850857Y-115386642D01*
X148041333Y-115434261D01*
X148279428Y-115434261D01*
X148469904Y-115386642D01*
X148565142Y-115339023D01*
X148612761Y-115291404D01*
X148660380Y-115196166D01*
X148660380Y-115100928D01*
X148612761Y-115005690D01*
X148565142Y-114958071D01*
X148469904Y-114910452D01*
X148279428Y-114862833D01*
X148041333Y-114862833D01*
X147850857Y-114910452D01*
X147755619Y-114958071D01*
X147708000Y-115005690D01*
X147660380Y-115100928D01*
X147660380Y-116053309D02*
X147660380Y-116148547D01*
X147708000Y-116243785D01*
X147755619Y-116291404D01*
X147850857Y-116339023D01*
X148041333Y-116386642D01*
X148279428Y-116386642D01*
X148469904Y-116339023D01*
X148565142Y-116291404D01*
X148612761Y-116243785D01*
X148660380Y-116148547D01*
X148660380Y-116053309D01*
X148612761Y-115958071D01*
X148565142Y-115910452D01*
X148469904Y-115862833D01*
X148279428Y-115815214D01*
X148041333Y-115815214D01*
X147850857Y-115862833D01*
X147755619Y-115910452D01*
X147708000Y-115958071D01*
X147660380Y-116053309D01*
X147993714Y-116815214D02*
X148660380Y-116815214D01*
X148088952Y-116815214D02*
X148041333Y-116862833D01*
X147993714Y-116958071D01*
X147993714Y-117100928D01*
X148041333Y-117196166D01*
X148136571Y-117243785D01*
X148660380Y-117243785D01*
X148136571Y-118053309D02*
X148136571Y-117719976D01*
X148660380Y-117719976D02*
X147660380Y-117719976D01*
X147660380Y-118196166D01*
D12*
X146736571Y-115946166D02*
X146760380Y-115922357D01*
X146784190Y-115850928D01*
X146784190Y-115803309D01*
X146760380Y-115731880D01*
X146712761Y-115684261D01*
X146665142Y-115660452D01*
X146569904Y-115636642D01*
X146498476Y-115636642D01*
X146403238Y-115660452D01*
X146355619Y-115684261D01*
X146308000Y-115731880D01*
X146284190Y-115803309D01*
X146284190Y-115850928D01*
X146308000Y-115922357D01*
X146331809Y-115946166D01*
X146450857Y-116374738D02*
X146784190Y-116374738D01*
X146260380Y-116255690D02*
X146617523Y-116136642D01*
X146617523Y-116446166D01*
G04 #@! TO.C,L3*
D11*
X156368476Y-112848380D02*
X156844666Y-112848380D01*
X156844666Y-111848380D01*
X156273238Y-112943619D02*
X155511333Y-112943619D01*
X155320857Y-112800761D02*
X155178000Y-112848380D01*
X154939904Y-112848380D01*
X154844666Y-112800761D01*
X154797047Y-112753142D01*
X154749428Y-112657904D01*
X154749428Y-112562666D01*
X154797047Y-112467428D01*
X154844666Y-112419809D01*
X154939904Y-112372190D01*
X155130380Y-112324571D01*
X155225619Y-112276952D01*
X155273238Y-112229333D01*
X155320857Y-112134095D01*
X155320857Y-112038857D01*
X155273238Y-111943619D01*
X155225619Y-111896000D01*
X155130380Y-111848380D01*
X154892285Y-111848380D01*
X154749428Y-111896000D01*
X154320857Y-112848380D02*
X154320857Y-112181714D01*
X154320857Y-112276952D02*
X154273238Y-112229333D01*
X154178000Y-112181714D01*
X154035142Y-112181714D01*
X153939904Y-112229333D01*
X153892285Y-112324571D01*
X153892285Y-112848380D01*
X153892285Y-112324571D02*
X153844666Y-112229333D01*
X153749428Y-112181714D01*
X153606571Y-112181714D01*
X153511333Y-112229333D01*
X153463714Y-112324571D01*
X153463714Y-112848380D01*
X152558952Y-112848380D02*
X152558952Y-112324571D01*
X152606571Y-112229333D01*
X152701809Y-112181714D01*
X152892285Y-112181714D01*
X152987523Y-112229333D01*
X152558952Y-112800761D02*
X152654190Y-112848380D01*
X152892285Y-112848380D01*
X152987523Y-112800761D01*
X153035142Y-112705523D01*
X153035142Y-112610285D01*
X152987523Y-112515047D01*
X152892285Y-112467428D01*
X152654190Y-112467428D01*
X152558952Y-112419809D01*
X151939904Y-112848380D02*
X152035142Y-112800761D01*
X152082761Y-112705523D01*
X152082761Y-111848380D01*
X151416095Y-112848380D02*
X151511333Y-112800761D01*
X151558952Y-112705523D01*
X151558952Y-111848380D01*
D12*
X154261333Y-114272190D02*
X154499428Y-114272190D01*
X154499428Y-113772190D01*
X154142285Y-113772190D02*
X153832761Y-113772190D01*
X153999428Y-113962666D01*
X153928000Y-113962666D01*
X153880380Y-113986476D01*
X153856571Y-114010285D01*
X153832761Y-114057904D01*
X153832761Y-114176952D01*
X153856571Y-114224571D01*
X153880380Y-114248380D01*
X153928000Y-114272190D01*
X154070857Y-114272190D01*
X154118476Y-114248380D01*
X154142285Y-114224571D01*
G04 #@! TO.C,C5*
D11*
X150946380Y-114958071D02*
X150946380Y-114386642D01*
X150946380Y-114672357D02*
X149946380Y-114672357D01*
X150089238Y-114577119D01*
X150184476Y-114481880D01*
X150232095Y-114386642D01*
X149946380Y-115577119D02*
X149946380Y-115672357D01*
X149994000Y-115767595D01*
X150041619Y-115815214D01*
X150136857Y-115862833D01*
X150327333Y-115910452D01*
X150565428Y-115910452D01*
X150755904Y-115862833D01*
X150851142Y-115815214D01*
X150898761Y-115767595D01*
X150946380Y-115672357D01*
X150946380Y-115577119D01*
X150898761Y-115481880D01*
X150851142Y-115434261D01*
X150755904Y-115386642D01*
X150565428Y-115339023D01*
X150327333Y-115339023D01*
X150136857Y-115386642D01*
X150041619Y-115434261D01*
X149994000Y-115481880D01*
X149946380Y-115577119D01*
X150279714Y-116767595D02*
X150946380Y-116767595D01*
X150279714Y-116339023D02*
X150803523Y-116339023D01*
X150898761Y-116386642D01*
X150946380Y-116481880D01*
X150946380Y-116624738D01*
X150898761Y-116719976D01*
X150851142Y-116767595D01*
X150422571Y-117577119D02*
X150422571Y-117243785D01*
X150946380Y-117243785D02*
X149946380Y-117243785D01*
X149946380Y-117719976D01*
D12*
X148927333Y-116208071D02*
X148951142Y-116231880D01*
X149022571Y-116255690D01*
X149070190Y-116255690D01*
X149141619Y-116231880D01*
X149189238Y-116184261D01*
X149213047Y-116136642D01*
X149236857Y-116041404D01*
X149236857Y-115969976D01*
X149213047Y-115874738D01*
X149189238Y-115827119D01*
X149141619Y-115779500D01*
X149070190Y-115755690D01*
X149022571Y-115755690D01*
X148951142Y-115779500D01*
X148927333Y-115803309D01*
X148474952Y-115755690D02*
X148713047Y-115755690D01*
X148736857Y-115993785D01*
X148713047Y-115969976D01*
X148665428Y-115946166D01*
X148546380Y-115946166D01*
X148498761Y-115969976D01*
X148474952Y-115993785D01*
X148451142Y-116041404D01*
X148451142Y-116160452D01*
X148474952Y-116208071D01*
X148498761Y-116231880D01*
X148546380Y-116255690D01*
X148665428Y-116255690D01*
X148713047Y-116231880D01*
X148736857Y-116208071D01*
G04 #@! TO.C,C2*
D11*
X146818928Y-123262380D02*
X147390357Y-123262380D01*
X147104642Y-123262380D02*
X147104642Y-122262380D01*
X147199880Y-122405238D01*
X147295119Y-122500476D01*
X147390357Y-122548095D01*
X146199880Y-122262380D02*
X146104642Y-122262380D01*
X146009404Y-122310000D01*
X145961785Y-122357619D01*
X145914166Y-122452857D01*
X145866547Y-122643333D01*
X145866547Y-122881428D01*
X145914166Y-123071904D01*
X145961785Y-123167142D01*
X146009404Y-123214761D01*
X146104642Y-123262380D01*
X146199880Y-123262380D01*
X146295119Y-123214761D01*
X146342738Y-123167142D01*
X146390357Y-123071904D01*
X146437976Y-122881428D01*
X146437976Y-122643333D01*
X146390357Y-122452857D01*
X146342738Y-122357619D01*
X146295119Y-122310000D01*
X146199880Y-122262380D01*
X145009404Y-122595714D02*
X145009404Y-123262380D01*
X145437976Y-122595714D02*
X145437976Y-123119523D01*
X145390357Y-123214761D01*
X145295119Y-123262380D01*
X145152261Y-123262380D01*
X145057023Y-123214761D01*
X145009404Y-123167142D01*
X144199880Y-122738571D02*
X144533214Y-122738571D01*
X144533214Y-123262380D02*
X144533214Y-122262380D01*
X144057023Y-122262380D01*
D12*
X145830833Y-124638571D02*
X145854642Y-124662380D01*
X145926071Y-124686190D01*
X145973690Y-124686190D01*
X146045119Y-124662380D01*
X146092738Y-124614761D01*
X146116547Y-124567142D01*
X146140357Y-124471904D01*
X146140357Y-124400476D01*
X146116547Y-124305238D01*
X146092738Y-124257619D01*
X146045119Y-124210000D01*
X145973690Y-124186190D01*
X145926071Y-124186190D01*
X145854642Y-124210000D01*
X145830833Y-124233809D01*
X145640357Y-124233809D02*
X145616547Y-124210000D01*
X145568928Y-124186190D01*
X145449880Y-124186190D01*
X145402261Y-124210000D01*
X145378452Y-124233809D01*
X145354642Y-124281428D01*
X145354642Y-124329047D01*
X145378452Y-124400476D01*
X145664166Y-124686190D01*
X145354642Y-124686190D01*
G04 #@! TO.C,C10*
D11*
X157042380Y-116579071D02*
X157042380Y-116007642D01*
X157042380Y-116293357D02*
X156042380Y-116293357D01*
X156185238Y-116198119D01*
X156280476Y-116102880D01*
X156328095Y-116007642D01*
X156042380Y-117198119D02*
X156042380Y-117293357D01*
X156090000Y-117388595D01*
X156137619Y-117436214D01*
X156232857Y-117483833D01*
X156423333Y-117531452D01*
X156661428Y-117531452D01*
X156851904Y-117483833D01*
X156947142Y-117436214D01*
X156994761Y-117388595D01*
X157042380Y-117293357D01*
X157042380Y-117198119D01*
X156994761Y-117102880D01*
X156947142Y-117055261D01*
X156851904Y-117007642D01*
X156661428Y-116960023D01*
X156423333Y-116960023D01*
X156232857Y-117007642D01*
X156137619Y-117055261D01*
X156090000Y-117102880D01*
X156042380Y-117198119D01*
X156375714Y-118388595D02*
X157042380Y-118388595D01*
X156375714Y-117960023D02*
X156899523Y-117960023D01*
X156994761Y-118007642D01*
X157042380Y-118102880D01*
X157042380Y-118245738D01*
X156994761Y-118340976D01*
X156947142Y-118388595D01*
X156518571Y-119198119D02*
X156518571Y-118864785D01*
X157042380Y-118864785D02*
X156042380Y-118864785D01*
X156042380Y-119340976D01*
D12*
X155118571Y-117329071D02*
X155142380Y-117305261D01*
X155166190Y-117233833D01*
X155166190Y-117186214D01*
X155142380Y-117114785D01*
X155094761Y-117067166D01*
X155047142Y-117043357D01*
X154951904Y-117019547D01*
X154880476Y-117019547D01*
X154785238Y-117043357D01*
X154737619Y-117067166D01*
X154690000Y-117114785D01*
X154666190Y-117186214D01*
X154666190Y-117233833D01*
X154690000Y-117305261D01*
X154713809Y-117329071D01*
X155166190Y-117805261D02*
X155166190Y-117519547D01*
X155166190Y-117662404D02*
X154666190Y-117662404D01*
X154737619Y-117614785D01*
X154785238Y-117567166D01*
X154809047Y-117519547D01*
X154666190Y-118114785D02*
X154666190Y-118162404D01*
X154690000Y-118210023D01*
X154713809Y-118233833D01*
X154761428Y-118257642D01*
X154856666Y-118281452D01*
X154975714Y-118281452D01*
X155070952Y-118257642D01*
X155118571Y-118233833D01*
X155142380Y-118210023D01*
X155166190Y-118162404D01*
X155166190Y-118114785D01*
X155142380Y-118067166D01*
X155118571Y-118043357D01*
X155070952Y-118019547D01*
X154975714Y-117995738D01*
X154856666Y-117995738D01*
X154761428Y-118019547D01*
X154713809Y-118043357D01*
X154690000Y-118067166D01*
X154666190Y-118114785D01*
G04 #@! TO.C,C8*
D11*
X153232380Y-114481880D02*
X153232380Y-113910452D01*
X153232380Y-114196166D02*
X152232380Y-114196166D01*
X152375238Y-114100928D01*
X152470476Y-114005690D01*
X152518095Y-113910452D01*
X152232380Y-115100928D02*
X152232380Y-115196166D01*
X152280000Y-115291404D01*
X152327619Y-115339023D01*
X152422857Y-115386642D01*
X152613333Y-115434261D01*
X152851428Y-115434261D01*
X153041904Y-115386642D01*
X153137142Y-115339023D01*
X153184761Y-115291404D01*
X153232380Y-115196166D01*
X153232380Y-115100928D01*
X153184761Y-115005690D01*
X153137142Y-114958071D01*
X153041904Y-114910452D01*
X152851428Y-114862833D01*
X152613333Y-114862833D01*
X152422857Y-114910452D01*
X152327619Y-114958071D01*
X152280000Y-115005690D01*
X152232380Y-115100928D01*
X152232380Y-116053309D02*
X152232380Y-116148547D01*
X152280000Y-116243785D01*
X152327619Y-116291404D01*
X152422857Y-116339023D01*
X152613333Y-116386642D01*
X152851428Y-116386642D01*
X153041904Y-116339023D01*
X153137142Y-116291404D01*
X153184761Y-116243785D01*
X153232380Y-116148547D01*
X153232380Y-116053309D01*
X153184761Y-115958071D01*
X153137142Y-115910452D01*
X153041904Y-115862833D01*
X152851428Y-115815214D01*
X152613333Y-115815214D01*
X152422857Y-115862833D01*
X152327619Y-115910452D01*
X152280000Y-115958071D01*
X152232380Y-116053309D01*
X152565714Y-116815214D02*
X153232380Y-116815214D01*
X152660952Y-116815214D02*
X152613333Y-116862833D01*
X152565714Y-116958071D01*
X152565714Y-117100928D01*
X152613333Y-117196166D01*
X152708571Y-117243785D01*
X153232380Y-117243785D01*
X152708571Y-118053309D02*
X152708571Y-117719976D01*
X153232380Y-117719976D02*
X152232380Y-117719976D01*
X152232380Y-118196166D01*
D12*
X151308571Y-115946166D02*
X151332380Y-115922357D01*
X151356190Y-115850928D01*
X151356190Y-115803309D01*
X151332380Y-115731880D01*
X151284761Y-115684261D01*
X151237142Y-115660452D01*
X151141904Y-115636642D01*
X151070476Y-115636642D01*
X150975238Y-115660452D01*
X150927619Y-115684261D01*
X150880000Y-115731880D01*
X150856190Y-115803309D01*
X150856190Y-115850928D01*
X150880000Y-115922357D01*
X150903809Y-115946166D01*
X151070476Y-116231880D02*
X151046666Y-116184261D01*
X151022857Y-116160452D01*
X150975238Y-116136642D01*
X150951428Y-116136642D01*
X150903809Y-116160452D01*
X150880000Y-116184261D01*
X150856190Y-116231880D01*
X150856190Y-116327119D01*
X150880000Y-116374738D01*
X150903809Y-116398547D01*
X150951428Y-116422357D01*
X150975238Y-116422357D01*
X151022857Y-116398547D01*
X151046666Y-116374738D01*
X151070476Y-116327119D01*
X151070476Y-116231880D01*
X151094285Y-116184261D01*
X151118095Y-116160452D01*
X151165714Y-116136642D01*
X151260952Y-116136642D01*
X151308571Y-116160452D01*
X151332380Y-116184261D01*
X151356190Y-116231880D01*
X151356190Y-116327119D01*
X151332380Y-116374738D01*
X151308571Y-116398547D01*
X151260952Y-116422357D01*
X151165714Y-116422357D01*
X151118095Y-116398547D01*
X151094285Y-116374738D01*
X151070476Y-116327119D01*
G04 #@! TO.C,C9*
D11*
X159328380Y-116102880D02*
X159328380Y-115531452D01*
X159328380Y-115817166D02*
X158328380Y-115817166D01*
X158471238Y-115721928D01*
X158566476Y-115626690D01*
X158614095Y-115531452D01*
X158328380Y-116721928D02*
X158328380Y-116817166D01*
X158376000Y-116912404D01*
X158423619Y-116960023D01*
X158518857Y-117007642D01*
X158709333Y-117055261D01*
X158947428Y-117055261D01*
X159137904Y-117007642D01*
X159233142Y-116960023D01*
X159280761Y-116912404D01*
X159328380Y-116817166D01*
X159328380Y-116721928D01*
X159280761Y-116626690D01*
X159233142Y-116579071D01*
X159137904Y-116531452D01*
X158947428Y-116483833D01*
X158709333Y-116483833D01*
X158518857Y-116531452D01*
X158423619Y-116579071D01*
X158376000Y-116626690D01*
X158328380Y-116721928D01*
X158328380Y-117674309D02*
X158328380Y-117769547D01*
X158376000Y-117864785D01*
X158423619Y-117912404D01*
X158518857Y-117960023D01*
X158709333Y-118007642D01*
X158947428Y-118007642D01*
X159137904Y-117960023D01*
X159233142Y-117912404D01*
X159280761Y-117864785D01*
X159328380Y-117769547D01*
X159328380Y-117674309D01*
X159280761Y-117579071D01*
X159233142Y-117531452D01*
X159137904Y-117483833D01*
X158947428Y-117436214D01*
X158709333Y-117436214D01*
X158518857Y-117483833D01*
X158423619Y-117531452D01*
X158376000Y-117579071D01*
X158328380Y-117674309D01*
X158661714Y-118436214D02*
X159328380Y-118436214D01*
X158756952Y-118436214D02*
X158709333Y-118483833D01*
X158661714Y-118579071D01*
X158661714Y-118721928D01*
X158709333Y-118817166D01*
X158804571Y-118864785D01*
X159328380Y-118864785D01*
X158804571Y-119674309D02*
X158804571Y-119340976D01*
X159328380Y-119340976D02*
X158328380Y-119340976D01*
X158328380Y-119817166D01*
D12*
X157404571Y-117567166D02*
X157428380Y-117543357D01*
X157452190Y-117471928D01*
X157452190Y-117424309D01*
X157428380Y-117352880D01*
X157380761Y-117305261D01*
X157333142Y-117281452D01*
X157237904Y-117257642D01*
X157166476Y-117257642D01*
X157071238Y-117281452D01*
X157023619Y-117305261D01*
X156976000Y-117352880D01*
X156952190Y-117424309D01*
X156952190Y-117471928D01*
X156976000Y-117543357D01*
X156999809Y-117567166D01*
X157452190Y-117805261D02*
X157452190Y-117900500D01*
X157428380Y-117948119D01*
X157404571Y-117971928D01*
X157333142Y-118019547D01*
X157237904Y-118043357D01*
X157047428Y-118043357D01*
X156999809Y-118019547D01*
X156976000Y-117995738D01*
X156952190Y-117948119D01*
X156952190Y-117852880D01*
X156976000Y-117805261D01*
X156999809Y-117781452D01*
X157047428Y-117757642D01*
X157166476Y-117757642D01*
X157214095Y-117781452D01*
X157237904Y-117805261D01*
X157261714Y-117852880D01*
X157261714Y-117948119D01*
X157237904Y-117995738D01*
X157214095Y-118019547D01*
X157166476Y-118043357D01*
G04 #@! TO.C,C1*
D11*
X139770380Y-56412880D02*
X139770380Y-55841452D01*
X139770380Y-56127166D02*
X138770380Y-56127166D01*
X138913238Y-56031928D01*
X139008476Y-55936690D01*
X139056095Y-55841452D01*
X138770380Y-57031928D02*
X138770380Y-57127166D01*
X138818000Y-57222404D01*
X138865619Y-57270023D01*
X138960857Y-57317642D01*
X139151333Y-57365261D01*
X139389428Y-57365261D01*
X139579904Y-57317642D01*
X139675142Y-57270023D01*
X139722761Y-57222404D01*
X139770380Y-57127166D01*
X139770380Y-57031928D01*
X139722761Y-56936690D01*
X139675142Y-56889071D01*
X139579904Y-56841452D01*
X139389428Y-56793833D01*
X139151333Y-56793833D01*
X138960857Y-56841452D01*
X138865619Y-56889071D01*
X138818000Y-56936690D01*
X138770380Y-57031928D01*
X138770380Y-57984309D02*
X138770380Y-58079547D01*
X138818000Y-58174785D01*
X138865619Y-58222404D01*
X138960857Y-58270023D01*
X139151333Y-58317642D01*
X139389428Y-58317642D01*
X139579904Y-58270023D01*
X139675142Y-58222404D01*
X139722761Y-58174785D01*
X139770380Y-58079547D01*
X139770380Y-57984309D01*
X139722761Y-57889071D01*
X139675142Y-57841452D01*
X139579904Y-57793833D01*
X139389428Y-57746214D01*
X139151333Y-57746214D01*
X138960857Y-57793833D01*
X138865619Y-57841452D01*
X138818000Y-57889071D01*
X138770380Y-57984309D01*
X139103714Y-58746214D02*
X139770380Y-58746214D01*
X139198952Y-58746214D02*
X139151333Y-58793833D01*
X139103714Y-58889071D01*
X139103714Y-59031928D01*
X139151333Y-59127166D01*
X139246571Y-59174785D01*
X139770380Y-59174785D01*
X139246571Y-59984309D02*
X139246571Y-59650976D01*
X139770380Y-59650976D02*
X138770380Y-59650976D01*
X138770380Y-60127166D01*
D12*
X137846571Y-57877166D02*
X137870380Y-57853357D01*
X137894190Y-57781928D01*
X137894190Y-57734309D01*
X137870380Y-57662880D01*
X137822761Y-57615261D01*
X137775142Y-57591452D01*
X137679904Y-57567642D01*
X137608476Y-57567642D01*
X137513238Y-57591452D01*
X137465619Y-57615261D01*
X137418000Y-57662880D01*
X137394190Y-57734309D01*
X137394190Y-57781928D01*
X137418000Y-57853357D01*
X137441809Y-57877166D01*
X137894190Y-58353357D02*
X137894190Y-58067642D01*
X137894190Y-58210500D02*
X137394190Y-58210500D01*
X137465619Y-58162880D01*
X137513238Y-58115261D01*
X137537047Y-58067642D01*
G04 #@! TO.C,C3*
D11*
X147295119Y-120722380D02*
X147866547Y-120722380D01*
X147580833Y-120722380D02*
X147580833Y-119722380D01*
X147676071Y-119865238D01*
X147771309Y-119960476D01*
X147866547Y-120008095D01*
X146676071Y-119722380D02*
X146580833Y-119722380D01*
X146485595Y-119770000D01*
X146437976Y-119817619D01*
X146390357Y-119912857D01*
X146342738Y-120103333D01*
X146342738Y-120341428D01*
X146390357Y-120531904D01*
X146437976Y-120627142D01*
X146485595Y-120674761D01*
X146580833Y-120722380D01*
X146676071Y-120722380D01*
X146771309Y-120674761D01*
X146818928Y-120627142D01*
X146866547Y-120531904D01*
X146914166Y-120341428D01*
X146914166Y-120103333D01*
X146866547Y-119912857D01*
X146818928Y-119817619D01*
X146771309Y-119770000D01*
X146676071Y-119722380D01*
X145723690Y-119722380D02*
X145628452Y-119722380D01*
X145533214Y-119770000D01*
X145485595Y-119817619D01*
X145437976Y-119912857D01*
X145390357Y-120103333D01*
X145390357Y-120341428D01*
X145437976Y-120531904D01*
X145485595Y-120627142D01*
X145533214Y-120674761D01*
X145628452Y-120722380D01*
X145723690Y-120722380D01*
X145818928Y-120674761D01*
X145866547Y-120627142D01*
X145914166Y-120531904D01*
X145961785Y-120341428D01*
X145961785Y-120103333D01*
X145914166Y-119912857D01*
X145866547Y-119817619D01*
X145818928Y-119770000D01*
X145723690Y-119722380D01*
X144961785Y-120055714D02*
X144961785Y-120722380D01*
X144961785Y-120150952D02*
X144914166Y-120103333D01*
X144818928Y-120055714D01*
X144676071Y-120055714D01*
X144580833Y-120103333D01*
X144533214Y-120198571D01*
X144533214Y-120722380D01*
X143723690Y-120198571D02*
X144057023Y-120198571D01*
X144057023Y-120722380D02*
X144057023Y-119722380D01*
X143580833Y-119722380D01*
D12*
X145830833Y-122098571D02*
X145854642Y-122122380D01*
X145926071Y-122146190D01*
X145973690Y-122146190D01*
X146045119Y-122122380D01*
X146092738Y-122074761D01*
X146116547Y-122027142D01*
X146140357Y-121931904D01*
X146140357Y-121860476D01*
X146116547Y-121765238D01*
X146092738Y-121717619D01*
X146045119Y-121670000D01*
X145973690Y-121646190D01*
X145926071Y-121646190D01*
X145854642Y-121670000D01*
X145830833Y-121693809D01*
X145664166Y-121646190D02*
X145354642Y-121646190D01*
X145521309Y-121836666D01*
X145449880Y-121836666D01*
X145402261Y-121860476D01*
X145378452Y-121884285D01*
X145354642Y-121931904D01*
X145354642Y-122050952D01*
X145378452Y-122098571D01*
X145402261Y-122122380D01*
X145449880Y-122146190D01*
X145592738Y-122146190D01*
X145640357Y-122122380D01*
X145664166Y-122098571D01*
G04 #@! TO.C,R1*
D11*
X158820380Y-124626761D02*
X158820380Y-124055333D01*
X158820380Y-124341047D02*
X157820380Y-124341047D01*
X157963238Y-124245809D01*
X158058476Y-124150571D01*
X158106095Y-124055333D01*
X157820380Y-125245809D02*
X157820380Y-125341047D01*
X157868000Y-125436285D01*
X157915619Y-125483904D01*
X158010857Y-125531523D01*
X158201333Y-125579142D01*
X158439428Y-125579142D01*
X158629904Y-125531523D01*
X158725142Y-125483904D01*
X158772761Y-125436285D01*
X158820380Y-125341047D01*
X158820380Y-125245809D01*
X158772761Y-125150571D01*
X158725142Y-125102952D01*
X158629904Y-125055333D01*
X158439428Y-125007714D01*
X158201333Y-125007714D01*
X158010857Y-125055333D01*
X157915619Y-125102952D01*
X157868000Y-125150571D01*
X157820380Y-125245809D01*
X158820380Y-126007714D02*
X157820380Y-126007714D01*
X158439428Y-126102952D02*
X158820380Y-126388666D01*
X158153714Y-126388666D02*
X158534666Y-126007714D01*
G04 #@! TO.C,R105*
X141771619Y-52666380D02*
X141676380Y-52666380D01*
X141581142Y-52714000D01*
X141533523Y-52761619D01*
X141485904Y-52856857D01*
X141438285Y-53047333D01*
X141438285Y-53285428D01*
X141485904Y-53475904D01*
X141533523Y-53571142D01*
X141581142Y-53618761D01*
X141676380Y-53666380D01*
X141771619Y-53666380D01*
X141866857Y-53618761D01*
X141914476Y-53571142D01*
X141962095Y-53475904D01*
X142009714Y-53285428D01*
X142009714Y-53047333D01*
X141962095Y-52856857D01*
X141914476Y-52761619D01*
X141866857Y-52714000D01*
X141771619Y-52666380D01*
X140438285Y-53666380D02*
X140771619Y-53190190D01*
X141009714Y-53666380D02*
X141009714Y-52666380D01*
X140628761Y-52666380D01*
X140533523Y-52714000D01*
X140485904Y-52761619D01*
X140438285Y-52856857D01*
X140438285Y-52999714D01*
X140485904Y-53094952D01*
X140533523Y-53142571D01*
X140628761Y-53190190D01*
X141009714Y-53190190D01*
D12*
X141783523Y-55090190D02*
X141950190Y-54852095D01*
X142069238Y-55090190D02*
X142069238Y-54590190D01*
X141878761Y-54590190D01*
X141831142Y-54614000D01*
X141807333Y-54637809D01*
X141783523Y-54685428D01*
X141783523Y-54756857D01*
X141807333Y-54804476D01*
X141831142Y-54828285D01*
X141878761Y-54852095D01*
X142069238Y-54852095D01*
X141307333Y-55090190D02*
X141593047Y-55090190D01*
X141450190Y-55090190D02*
X141450190Y-54590190D01*
X141497809Y-54661619D01*
X141545428Y-54709238D01*
X141593047Y-54733047D01*
X140997809Y-54590190D02*
X140950190Y-54590190D01*
X140902571Y-54614000D01*
X140878761Y-54637809D01*
X140854952Y-54685428D01*
X140831142Y-54780666D01*
X140831142Y-54899714D01*
X140854952Y-54994952D01*
X140878761Y-55042571D01*
X140902571Y-55066380D01*
X140950190Y-55090190D01*
X140997809Y-55090190D01*
X141045428Y-55066380D01*
X141069238Y-55042571D01*
X141093047Y-54994952D01*
X141116857Y-54899714D01*
X141116857Y-54780666D01*
X141093047Y-54685428D01*
X141069238Y-54637809D01*
X141045428Y-54614000D01*
X140997809Y-54590190D01*
X140378761Y-54590190D02*
X140616857Y-54590190D01*
X140640666Y-54828285D01*
X140616857Y-54804476D01*
X140569238Y-54780666D01*
X140450190Y-54780666D01*
X140402571Y-54804476D01*
X140378761Y-54828285D01*
X140354952Y-54875904D01*
X140354952Y-54994952D01*
X140378761Y-55042571D01*
X140402571Y-55066380D01*
X140450190Y-55090190D01*
X140569238Y-55090190D01*
X140616857Y-55066380D01*
X140640666Y-55042571D01*
G04 #@! TO.C,R106*
D11*
X141771619Y-54698380D02*
X141676380Y-54698380D01*
X141581142Y-54746000D01*
X141533523Y-54793619D01*
X141485904Y-54888857D01*
X141438285Y-55079333D01*
X141438285Y-55317428D01*
X141485904Y-55507904D01*
X141533523Y-55603142D01*
X141581142Y-55650761D01*
X141676380Y-55698380D01*
X141771619Y-55698380D01*
X141866857Y-55650761D01*
X141914476Y-55603142D01*
X141962095Y-55507904D01*
X142009714Y-55317428D01*
X142009714Y-55079333D01*
X141962095Y-54888857D01*
X141914476Y-54793619D01*
X141866857Y-54746000D01*
X141771619Y-54698380D01*
X140438285Y-55698380D02*
X140771619Y-55222190D01*
X141009714Y-55698380D02*
X141009714Y-54698380D01*
X140628761Y-54698380D01*
X140533523Y-54746000D01*
X140485904Y-54793619D01*
X140438285Y-54888857D01*
X140438285Y-55031714D01*
X140485904Y-55126952D01*
X140533523Y-55174571D01*
X140628761Y-55222190D01*
X141009714Y-55222190D01*
D12*
X141783523Y-57122190D02*
X141950190Y-56884095D01*
X142069238Y-57122190D02*
X142069238Y-56622190D01*
X141878761Y-56622190D01*
X141831142Y-56646000D01*
X141807333Y-56669809D01*
X141783523Y-56717428D01*
X141783523Y-56788857D01*
X141807333Y-56836476D01*
X141831142Y-56860285D01*
X141878761Y-56884095D01*
X142069238Y-56884095D01*
X141307333Y-57122190D02*
X141593047Y-57122190D01*
X141450190Y-57122190D02*
X141450190Y-56622190D01*
X141497809Y-56693619D01*
X141545428Y-56741238D01*
X141593047Y-56765047D01*
X140997809Y-56622190D02*
X140950190Y-56622190D01*
X140902571Y-56646000D01*
X140878761Y-56669809D01*
X140854952Y-56717428D01*
X140831142Y-56812666D01*
X140831142Y-56931714D01*
X140854952Y-57026952D01*
X140878761Y-57074571D01*
X140902571Y-57098380D01*
X140950190Y-57122190D01*
X140997809Y-57122190D01*
X141045428Y-57098380D01*
X141069238Y-57074571D01*
X141093047Y-57026952D01*
X141116857Y-56931714D01*
X141116857Y-56812666D01*
X141093047Y-56717428D01*
X141069238Y-56669809D01*
X141045428Y-56646000D01*
X140997809Y-56622190D01*
X140402571Y-56622190D02*
X140497809Y-56622190D01*
X140545428Y-56646000D01*
X140569238Y-56669809D01*
X140616857Y-56741238D01*
X140640666Y-56836476D01*
X140640666Y-57026952D01*
X140616857Y-57074571D01*
X140593047Y-57098380D01*
X140545428Y-57122190D01*
X140450190Y-57122190D01*
X140402571Y-57098380D01*
X140378761Y-57074571D01*
X140354952Y-57026952D01*
X140354952Y-56907904D01*
X140378761Y-56860285D01*
X140402571Y-56836476D01*
X140450190Y-56812666D01*
X140545428Y-56812666D01*
X140593047Y-56836476D01*
X140616857Y-56860285D01*
X140640666Y-56907904D01*
G04 #@! TD*
M02*
