G04 #@! TF.GenerationSoftware,KiCad,Pcbnew,(5.0.0-rc2-dev-586-g888c43477)*
G04 #@! TF.CreationDate,2018-06-04T00:08:36-03:00*
G04 #@! TF.ProjectId,Mcc18,4D636331382E6B696361645F70636200,rev?*
G04 #@! TF.SameCoordinates,Original*
G04 #@! TF.FileFunction,Copper,L1,Top,Signal*
G04 #@! TF.FilePolarity,Positive*
%FSLAX46Y46*%
G04 Gerber Fmt 4.6, Leading zero omitted, Abs format (unit mm)*
G04 Created by KiCad (PCBNEW (5.0.0-rc2-dev-586-g888c43477)) date 06/04/18 00:08:36*
%MOMM*%
%LPD*%
G01*
G04 APERTURE LIST*
%ADD10C,1.524000*%
%ADD11C,4.400000*%
%ADD12R,1.000000X1.500000*%
%ADD13R,1.295000X1.400000*%
%ADD14R,2.500000X4.500000*%
%ADD15O,2.500000X4.500000*%
%ADD16C,1.800000*%
%ADD17R,1.800000X1.800000*%
%ADD18C,5.000000*%
%ADD19O,2.000000X1.200000*%
%ADD20R,1.800000X1.395000*%
%ADD21O,2.000000X1.905000*%
%ADD22R,2.000000X1.905000*%
%ADD23O,3.500000X3.500000*%
%ADD24C,2.200000*%
%ADD25R,3.500000X2.700000*%
%ADD26R,2.700000X3.500000*%
%ADD27R,1.400000X1.295000*%
%ADD28R,1.495000X3.400000*%
%ADD29C,2.400000*%
%ADD30C,10.000000*%
%ADD31C,3.000000*%
%ADD32C,1.700000*%
%ADD33C,1.500000*%
%ADD34C,1.000000*%
%ADD35C,0.508000*%
%ADD36C,0.342900*%
%ADD37C,0.800000*%
%ADD38C,9.000000*%
%ADD39C,0.635000*%
G04 APERTURE END LIST*
D10*
X105410000Y-67056000D03*
X105410000Y-69596000D03*
X105410000Y-72136000D03*
X105410000Y-75946000D03*
X105410000Y-78486000D03*
X105410000Y-81026000D03*
X105410000Y-83566000D03*
X105410000Y-87376000D03*
X105410000Y-89916000D03*
X105410000Y-92456000D03*
X105410000Y-94996000D03*
X105410000Y-97536000D03*
X105410000Y-101346000D03*
X105410000Y-103886000D03*
X105410000Y-106426000D03*
X105410000Y-108966000D03*
X105410000Y-64516000D03*
D11*
X85267800Y-90932000D03*
D12*
X126888000Y-61722000D03*
X125588000Y-61722000D03*
X125588000Y-64262000D03*
X126888000Y-64262000D03*
D13*
X120093500Y-56388000D03*
X118158500Y-56388000D03*
X186484500Y-65532000D03*
X188419500Y-65532000D03*
D14*
X177016000Y-104648000D03*
D15*
X171566000Y-104648000D03*
X166116000Y-104648000D03*
X177016000Y-76454000D03*
X171566000Y-76454000D03*
D14*
X166116000Y-76454000D03*
D16*
X159766000Y-123952000D03*
D17*
X159766000Y-126492000D03*
D16*
X159766000Y-111252000D03*
X159766000Y-121412000D03*
X159766000Y-118872000D03*
X159766000Y-113792000D03*
X159766000Y-116332000D03*
D18*
X124206000Y-100838000D03*
X124206000Y-71755000D03*
X153289000Y-100838000D03*
X153289000Y-71755000D03*
D11*
X62357000Y-114934000D03*
X73025000Y-46355000D03*
X87225274Y-71247000D03*
D19*
X92456000Y-45212000D03*
X92456000Y-47752000D03*
X92456000Y-50292000D03*
X92456000Y-52832000D03*
X92456000Y-55372000D03*
X92456000Y-57912000D03*
X92456000Y-60452000D03*
X92456000Y-62992000D03*
X92456000Y-65532000D03*
X92456000Y-70612000D03*
X92456000Y-73152000D03*
X92456000Y-75692000D03*
X92456000Y-78232000D03*
X92456000Y-80772000D03*
X92456000Y-83312000D03*
X92456000Y-85852000D03*
X92456000Y-88392000D03*
X92456000Y-90932000D03*
X92456000Y-93472000D03*
X92456000Y-96012000D03*
X92456000Y-98552000D03*
X92456000Y-101092000D03*
X92456000Y-103632000D03*
X92456000Y-106172000D03*
X92456000Y-108712000D03*
X92456000Y-111252000D03*
X92456000Y-113792000D03*
X92456000Y-116332000D03*
X92456000Y-118872000D03*
X92456000Y-125222000D03*
X92456000Y-127762000D03*
X92456000Y-130302000D03*
X92456000Y-132842000D03*
X92456000Y-135382000D03*
X92456000Y-137922000D03*
X92456000Y-140462000D03*
X92456000Y-143002000D03*
D20*
X169164000Y-109480500D03*
X169164000Y-112515500D03*
X162814000Y-96526500D03*
X162814000Y-99561500D03*
X172720000Y-82810500D03*
X172720000Y-85845500D03*
X169926000Y-69094500D03*
X169926000Y-72129500D03*
D21*
X143510000Y-114046000D03*
X143510000Y-116586000D03*
D22*
X143510000Y-119126000D03*
D23*
X126850000Y-116586000D03*
D24*
X220218000Y-74182000D03*
X220218000Y-59182000D03*
X230378000Y-74182000D03*
X230378000Y-59182000D03*
X210058000Y-74182000D03*
X210058000Y-59182000D03*
D25*
X175104000Y-98044000D03*
X168304000Y-98044000D03*
D26*
X177038000Y-83214000D03*
X177038000Y-90014000D03*
D27*
X102616000Y-60500500D03*
X102616000Y-62435500D03*
D28*
X178531500Y-111506000D03*
X172496500Y-111506000D03*
X168371500Y-84328000D03*
X162336500Y-84328000D03*
X166146500Y-91186000D03*
X172181500Y-91186000D03*
X178277500Y-68072000D03*
X172242500Y-68072000D03*
D27*
X102616000Y-64818500D03*
X102616000Y-66753500D03*
X102616000Y-56182500D03*
X102616000Y-58117500D03*
D29*
X214630000Y-107628000D03*
X214630000Y-135128000D03*
X227330000Y-104648000D03*
X227330000Y-77148000D03*
X214630000Y-77148000D03*
X214630000Y-104648000D03*
X201930000Y-104648000D03*
X201930000Y-77148000D03*
X227330000Y-107628000D03*
X227330000Y-135128000D03*
X189230000Y-104648000D03*
X189230000Y-77148000D03*
X201930000Y-107628000D03*
X201930000Y-135128000D03*
D30*
X240202000Y-129972000D03*
X240202000Y-104972000D03*
X240202000Y-79972000D03*
X240202000Y-54972000D03*
D31*
X233273600Y-47371000D03*
X210820000Y-47371000D03*
D13*
X188419500Y-68834000D03*
X186484500Y-68834000D03*
X186484500Y-123444000D03*
X188419500Y-123444000D03*
X188468000Y-120142000D03*
X186533000Y-120142000D03*
D32*
X105664000Y-60452000D03*
X94716600Y-45283120D03*
X133096000Y-51816000D03*
D16*
X98806000Y-50292000D03*
D33*
X119888000Y-54356000D03*
X119888000Y-51816000D03*
D32*
X140970000Y-61468000D03*
X113226505Y-68202801D03*
X131445006Y-61468000D03*
D33*
X121666000Y-56642000D03*
D32*
X120314022Y-61837200D03*
D33*
X117856000Y-58928000D03*
D32*
X138176000Y-61214000D03*
X113030000Y-66040000D03*
X118110000Y-61837200D03*
X191262000Y-68834000D03*
X191262000Y-120142000D03*
X148747000Y-119888000D03*
X157226000Y-111252000D03*
X115316000Y-109982000D03*
X115316000Y-114554000D03*
X112522000Y-70866000D03*
X118364000Y-132842000D03*
X108458000Y-70358000D03*
X143510000Y-127000000D03*
X121057396Y-133125570D03*
X102616000Y-75946000D03*
X102616000Y-101346000D03*
D16*
X98806000Y-52578000D03*
X94742000Y-57912000D03*
D32*
X95504000Y-103632000D03*
X157226000Y-113792000D03*
X115316000Y-112014000D03*
X95504000Y-118872000D03*
X191262000Y-123444000D03*
X135382000Y-140970000D03*
X146050000Y-140970000D03*
X185674000Y-128778000D03*
X185674000Y-137414000D03*
X191262000Y-65532000D03*
X133350000Y-45466000D03*
X128778000Y-42926000D03*
X139446000Y-45466000D03*
X108458000Y-83298400D03*
X112522000Y-83298400D03*
X108458000Y-81293600D03*
X112522000Y-81293600D03*
D16*
X112522000Y-52795600D03*
X112522000Y-54900403D03*
D32*
X131445000Y-64071500D03*
D33*
X117856000Y-54356002D03*
X117854038Y-51759750D03*
D34*
X102616000Y-60500500D02*
X102616000Y-58117500D01*
X102664500Y-60452000D02*
X102616000Y-60500500D01*
X105664000Y-60452000D02*
X102664500Y-60452000D01*
X102616000Y-58117500D02*
X103329500Y-58117500D01*
X103303000Y-60452000D02*
X103124000Y-60273000D01*
X104140000Y-60452000D02*
X103303000Y-60452000D01*
X103124000Y-60273000D02*
X103124000Y-59182000D01*
X103124000Y-59182000D02*
X103886000Y-59944000D01*
X104140000Y-59944000D02*
X104648000Y-59436000D01*
X103886000Y-59944000D02*
X104140000Y-59944000D01*
X103329500Y-58117500D02*
X104648000Y-59436000D01*
X104648000Y-59436000D02*
X105664000Y-60452000D01*
X102918500Y-67056000D02*
X102616000Y-66753500D01*
X105410000Y-67056000D02*
X102918500Y-67056000D01*
D35*
X94716600Y-49250600D02*
X94716600Y-48260000D01*
X95758000Y-50292000D02*
X94716600Y-49250600D01*
X98806000Y-50292000D02*
X95758000Y-50292000D01*
X94716600Y-48488600D02*
X94716600Y-48260000D01*
X94716600Y-48260000D02*
X94716600Y-45283120D01*
D36*
X120093500Y-56388000D02*
X120093500Y-56436500D01*
X120093500Y-56436500D02*
X119888000Y-56642000D01*
X119138001Y-53606001D02*
X119888000Y-54356000D01*
D34*
X140120001Y-62317999D02*
X140120001Y-63920001D01*
X140970000Y-61468000D02*
X140120001Y-62317999D01*
X140120001Y-63920001D02*
X140120001Y-65687278D01*
X140120001Y-65687278D02*
X137954469Y-67852810D01*
X113576496Y-67852810D02*
X113226505Y-68202801D01*
X137954469Y-67852810D02*
X113576496Y-67852810D01*
D35*
X119220551Y-53688551D02*
X119220551Y-53606001D01*
X119888000Y-54356000D02*
X119220551Y-53688551D01*
D36*
X119138001Y-53606001D02*
X119220551Y-53606001D01*
X119220551Y-53606001D02*
X119138001Y-52410325D01*
D35*
X119220551Y-53606001D02*
X119220551Y-52410325D01*
D36*
X119138001Y-52410325D02*
X119220551Y-52410325D01*
X119220551Y-52410325D02*
X119212325Y-52336001D01*
D35*
X119220551Y-52327775D02*
X119220551Y-52336001D01*
X119732326Y-51816000D02*
X119220551Y-52327775D01*
X119888000Y-51816000D02*
X119732326Y-51816000D01*
D36*
X119888000Y-51816000D02*
X119220551Y-52336001D01*
X119220551Y-52336001D02*
X119212325Y-52336001D01*
D35*
X130556000Y-62230000D02*
X131318000Y-61468000D01*
X131191006Y-61722000D02*
X131445006Y-61468000D01*
X126888000Y-61722000D02*
X131191006Y-61722000D01*
X131318000Y-61468000D02*
X131445006Y-61468000D01*
X131953000Y-60960006D02*
X131445006Y-61468000D01*
X131953000Y-57340500D02*
X131953000Y-60960006D01*
X133159500Y-56134000D02*
X131953000Y-57340500D01*
X133096000Y-51816000D02*
X133159500Y-51879500D01*
X133159500Y-51879500D02*
X133159500Y-56134000D01*
X121659178Y-56388000D02*
X121661661Y-56390483D01*
D36*
X120095983Y-56390483D02*
X120093500Y-56388000D01*
X121661661Y-56390483D02*
X120095983Y-56390483D01*
D35*
X120093500Y-56388000D02*
X121659178Y-56388000D01*
D37*
X120093500Y-57888000D02*
X119722810Y-58258690D01*
X120093500Y-56388000D02*
X120093500Y-57888000D01*
X119722810Y-58258690D02*
X119722810Y-59232373D01*
X119722810Y-59232373D02*
X119722810Y-61245988D01*
X119722810Y-61245988D02*
X120314022Y-61837200D01*
D34*
X102918500Y-64516000D02*
X102616000Y-64818500D01*
X102616000Y-62435500D02*
X102616000Y-64818500D01*
X102616000Y-63246000D02*
X103886000Y-64516000D01*
X102616000Y-62435500D02*
X102616000Y-63246000D01*
X105410000Y-64516000D02*
X103886000Y-64516000D01*
X103886000Y-64516000D02*
X102918500Y-64516000D01*
D36*
X118158500Y-56388000D02*
X118158500Y-56436500D01*
X118158500Y-56388000D02*
X118158500Y-58625500D01*
X118158500Y-58625500D02*
X117856000Y-58928000D01*
D37*
X118158500Y-57888000D02*
X118618000Y-58347500D01*
X118158500Y-56388000D02*
X118158500Y-57888000D01*
X118618000Y-58347500D02*
X118618000Y-59690000D01*
D34*
X138815191Y-65146809D02*
X137414000Y-66548000D01*
X138815191Y-62107191D02*
X138815191Y-65146809D01*
X138176000Y-61214000D02*
X138176000Y-61468000D01*
X138176000Y-61468000D02*
X138815191Y-62107191D01*
X137414000Y-66548000D02*
X113538000Y-66548000D01*
X113538000Y-66548000D02*
X113030000Y-66040000D01*
D37*
X118618000Y-59690000D02*
X118618000Y-61329200D01*
X118618000Y-61329200D02*
X118110000Y-61837200D01*
D34*
X170948500Y-68072000D02*
X169926000Y-69094500D01*
X172242500Y-68072000D02*
X170948500Y-68072000D01*
X169926000Y-69094500D02*
X170681500Y-69094500D01*
X170681500Y-69094500D02*
X170942000Y-68834000D01*
X171450000Y-68834000D02*
X170942000Y-68834000D01*
X172720000Y-90647500D02*
X172181500Y-91186000D01*
X173353500Y-90014000D02*
X172181500Y-91186000D01*
X177038000Y-90014000D02*
X173353500Y-90014000D01*
X173326000Y-90014000D02*
X172720000Y-89408000D01*
X173353500Y-90014000D02*
X173326000Y-90014000D01*
X172720000Y-85845500D02*
X172720000Y-89408000D01*
X172720000Y-89408000D02*
X172720000Y-90647500D01*
X167379500Y-97790000D02*
X166116000Y-96526500D01*
X168304000Y-97790000D02*
X167379500Y-97790000D01*
X162336500Y-84328000D02*
X162336500Y-85313500D01*
X162067240Y-84597260D02*
X162336500Y-84328000D01*
X162814000Y-96526500D02*
X162202980Y-96526500D01*
X162202980Y-96526500D02*
X162067240Y-96390760D01*
X165554000Y-98044000D02*
X164837720Y-97327720D01*
X168304000Y-98044000D02*
X165554000Y-98044000D01*
X162814000Y-96526500D02*
X163099900Y-96526500D01*
X166917220Y-97327720D02*
X167069620Y-97480120D01*
X165928040Y-97327720D02*
X166917220Y-97327720D01*
X164837720Y-97327720D02*
X167069620Y-97480120D01*
X162067240Y-93178780D02*
X162067240Y-91678760D01*
X165414960Y-96526500D02*
X162067240Y-93178780D01*
X162067240Y-91678760D02*
X162067240Y-84597260D01*
X162067240Y-96390760D02*
X162067240Y-91678760D01*
X166116000Y-96526500D02*
X165414960Y-96526500D01*
X162814000Y-94829000D02*
X162626040Y-94641040D01*
X162814000Y-96526500D02*
X162814000Y-94829000D01*
X162626040Y-94641040D02*
X162626040Y-94736920D01*
X164084000Y-96194880D02*
X164084000Y-96526500D01*
X162626040Y-94736920D02*
X164084000Y-96194880D01*
X165414960Y-96526500D02*
X164084000Y-96526500D01*
X164837720Y-96650220D02*
X164714000Y-96526500D01*
X164714000Y-96526500D02*
X162814000Y-96526500D01*
X164837720Y-97327720D02*
X164837720Y-96650220D01*
X164837720Y-97280220D02*
X164084000Y-96526500D01*
X164837720Y-97327720D02*
X164837720Y-97280220D01*
X169164000Y-112515500D02*
X171487000Y-112515500D01*
X172496500Y-111506000D02*
X171487000Y-112515500D01*
D38*
X233318000Y-48088000D02*
X240094000Y-54864000D01*
D34*
X177016000Y-83192000D02*
X177038000Y-83214000D01*
X177016000Y-76454000D02*
X177016000Y-83192000D01*
X168371500Y-81503500D02*
X166116000Y-79248000D01*
X168371500Y-84328000D02*
X168371500Y-81503500D01*
X166116000Y-76454000D02*
X166116000Y-79248000D01*
X177016000Y-69333500D02*
X178277500Y-68072000D01*
X177016000Y-76454000D02*
X177016000Y-69333500D01*
X191262000Y-68834000D02*
X188902001Y-68834000D01*
X171566000Y-101328000D02*
X175104000Y-97790000D01*
X171566000Y-104648000D02*
X171566000Y-101328000D01*
X191262000Y-120142000D02*
X188950501Y-120142000D01*
X166146500Y-92138500D02*
X166146500Y-91186000D01*
X171656000Y-94742000D02*
X168750000Y-94742000D01*
X175104000Y-97790000D02*
X174704000Y-97790000D01*
X168750000Y-94742000D02*
X166146500Y-92138500D01*
X174704000Y-97790000D02*
X171656000Y-94742000D01*
X171566000Y-104648000D02*
X171566000Y-105780000D01*
X171566000Y-105780000D02*
X171820000Y-105780000D01*
X178531500Y-110553500D02*
X178531500Y-111506000D01*
X174846000Y-108806000D02*
X176784000Y-108806000D01*
X176784000Y-108806000D02*
X178531500Y-110553500D01*
X171820000Y-105780000D02*
X174846000Y-108806000D01*
X171566000Y-81656500D02*
X172720000Y-82810500D01*
X171566000Y-76454000D02*
X171566000Y-81656500D01*
X162814000Y-101346000D02*
X166116000Y-104648000D01*
X162814000Y-99561500D02*
X162814000Y-101346000D01*
X166116000Y-109226500D02*
X166116000Y-104648000D01*
X171566000Y-76454000D02*
X171566000Y-75554000D01*
X171566000Y-73769500D02*
X169926000Y-72129500D01*
X171566000Y-76454000D02*
X171566000Y-73769500D01*
D35*
X115824000Y-110490000D02*
X115316000Y-109982000D01*
X157226000Y-111252000D02*
X156464000Y-110490000D01*
X156464000Y-110490000D02*
X115824000Y-110490000D01*
D34*
X119213999Y-131992001D02*
X118364000Y-132842000D01*
X126238000Y-124968000D02*
X119213999Y-131992001D01*
X145542000Y-124968000D02*
X126238000Y-124968000D01*
X148747000Y-119888000D02*
X148747000Y-121763000D01*
X148747000Y-121763000D02*
X145542000Y-124968000D01*
D35*
X108458000Y-69155919D02*
X108458000Y-70358000D01*
X108458000Y-60816500D02*
X108458000Y-69155919D01*
X102616000Y-56182500D02*
X103824000Y-56182500D01*
X103824000Y-56182500D02*
X108458000Y-60816500D01*
D34*
X102616000Y-56182500D02*
X103843606Y-56182500D01*
X103843606Y-56182500D02*
X108458000Y-60796894D01*
D35*
X108458000Y-65532000D02*
X108458000Y-66548000D01*
D34*
X108458000Y-65532000D02*
X108458000Y-70358000D01*
X108458000Y-60816500D02*
X108458000Y-65532000D01*
X127182966Y-127000000D02*
X121057396Y-133125570D01*
X143510000Y-127000000D02*
X127182966Y-127000000D01*
X105410000Y-75946000D02*
X102616000Y-75946000D01*
X105410000Y-101346000D02*
X102616000Y-101346000D01*
D35*
X98552000Y-52578000D02*
X95758000Y-52578000D01*
X95758000Y-52578000D02*
X94742000Y-53594000D01*
X94742000Y-53594000D02*
X94742000Y-57912000D01*
X105410000Y-69596000D02*
X99060000Y-69596000D01*
X99060000Y-69596000D02*
X96520000Y-72136000D01*
X96520000Y-72136000D02*
X96520000Y-102616000D01*
X96520000Y-102616000D02*
X95504000Y-103632000D01*
X116518081Y-112014000D02*
X115316000Y-112014000D01*
X157226000Y-113792000D02*
X154940000Y-111506000D01*
X117026081Y-111506000D02*
X116518081Y-112014000D01*
X154940000Y-111506000D02*
X117026081Y-111506000D01*
X95758000Y-118872000D02*
X95504000Y-118872000D01*
X98500000Y-116130000D02*
X95758000Y-118872000D01*
X98500000Y-73204000D02*
X98500000Y-116130000D01*
X105410000Y-72136000D02*
X99568000Y-72136000D01*
X99568000Y-72136000D02*
X98500000Y-73204000D01*
D34*
X191262000Y-123444000D02*
X188902001Y-123444000D01*
X191262000Y-65532000D02*
X188902001Y-65532000D01*
D39*
X105810000Y-108966000D02*
X105410000Y-108966000D01*
X103609900Y-108165900D02*
X104410000Y-108966000D01*
X102831900Y-108652640D02*
X103318640Y-108165900D01*
X182333900Y-64575360D02*
X182333900Y-54317900D01*
X185250900Y-66713100D02*
X184471640Y-66713100D01*
X182333900Y-54317900D02*
X182236440Y-54317900D01*
X186484500Y-65532000D02*
X186432000Y-65532000D01*
X113499900Y-48044100D02*
X110020100Y-51523900D01*
X186432000Y-65532000D02*
X185250900Y-66713100D01*
X107988100Y-106993360D02*
X107988100Y-109533360D01*
X184471640Y-66713100D02*
X182333900Y-64575360D01*
X182236440Y-54317900D02*
X175962640Y-48044100D01*
X103318640Y-108165900D02*
X103609900Y-108165900D01*
X175962640Y-48044100D02*
X113499900Y-48044100D01*
X110020100Y-51523900D02*
X110020100Y-104961360D01*
X107988100Y-109533360D02*
X106739360Y-110782100D01*
X106739360Y-110782100D02*
X103826640Y-110782100D01*
X104410000Y-108966000D02*
X105410000Y-108966000D01*
X110020100Y-104961360D02*
X107988100Y-106993360D01*
X103826640Y-110782100D02*
X102831900Y-109787360D01*
X102831900Y-109787360D02*
X102831900Y-108652640D01*
X186484500Y-68834000D02*
X186484500Y-68781500D01*
X104410000Y-106426000D02*
X105410000Y-106426000D01*
X103609900Y-107226100D02*
X104410000Y-106426000D01*
X102929360Y-107226100D02*
X103609900Y-107226100D01*
X181394100Y-54804640D02*
X175573360Y-48983900D01*
X181394100Y-64964640D02*
X181394100Y-54804640D01*
X184082360Y-67652900D02*
X181394100Y-64964640D01*
X185250900Y-67652900D02*
X184082360Y-67652900D01*
X186432000Y-68834000D02*
X185250900Y-67652900D01*
X175573360Y-48983900D02*
X113830100Y-48983900D01*
X110959900Y-51854100D02*
X110959900Y-105350640D01*
X110959900Y-105350640D02*
X108927900Y-107382640D01*
X113830100Y-48983900D02*
X110959900Y-51854100D01*
X103437360Y-111721900D02*
X101892100Y-110176640D01*
X101892100Y-110176640D02*
X101892100Y-108263360D01*
X186484500Y-68834000D02*
X186432000Y-68834000D01*
X108927900Y-107382640D02*
X108927900Y-109922640D01*
X108927900Y-109922640D02*
X107128640Y-111721900D01*
X107128640Y-111721900D02*
X103437360Y-111721900D01*
X101892100Y-108263360D02*
X102929360Y-107226100D01*
X107925500Y-82765900D02*
X108458000Y-83298400D01*
X107210100Y-82765900D02*
X107925500Y-82765900D01*
X106410000Y-83566000D02*
X107210100Y-82765900D01*
X105410000Y-83566000D02*
X106410000Y-83566000D01*
X114359360Y-82765900D02*
X113054500Y-82765900D01*
X114846100Y-83252640D02*
X114359360Y-82765900D01*
X112306100Y-135830640D02*
X112306100Y-88451360D01*
X114613360Y-138137900D02*
X112306100Y-135830640D01*
X114846100Y-85911360D02*
X114846100Y-83252640D01*
X112306100Y-88451360D02*
X114846100Y-85911360D01*
X113054500Y-82765900D02*
X112522000Y-83298400D01*
X186484500Y-123444000D02*
X185327650Y-122287150D01*
X185327650Y-122287150D02*
X183939390Y-122287150D01*
X183939390Y-122287150D02*
X182333900Y-123892640D01*
X182333900Y-123892640D02*
X182333900Y-135576640D01*
X179772640Y-138137900D02*
X114613360Y-138137900D01*
X182333900Y-135576640D02*
X179772640Y-138137900D01*
X107210100Y-81826100D02*
X107925500Y-81826100D01*
X105410000Y-81026000D02*
X106410000Y-81026000D01*
X106410000Y-81026000D02*
X107210100Y-81826100D01*
X107925500Y-81826100D02*
X108458000Y-81293600D01*
X114748640Y-81826100D02*
X113054500Y-81826100D01*
X186533000Y-120142000D02*
X185327650Y-121347350D01*
X113245900Y-88840640D02*
X115785900Y-86300640D01*
X115002640Y-137198100D02*
X113245900Y-135441360D01*
X113245900Y-135441360D02*
X113245900Y-88840640D01*
X115785900Y-82863360D02*
X114748640Y-81826100D01*
X115785900Y-86300640D02*
X115785900Y-82863360D01*
X113054500Y-81826100D02*
X112522000Y-81293600D01*
X185327650Y-121347350D02*
X183550110Y-121347350D01*
X183550110Y-121347350D02*
X181394100Y-123503360D01*
X181394100Y-123503360D02*
X181394100Y-135187360D01*
X181394100Y-135187360D02*
X179383360Y-137198100D01*
X179383360Y-137198100D02*
X115002640Y-137198100D01*
D35*
X125588000Y-61722000D02*
X125588000Y-62076984D01*
X125588000Y-61722000D02*
X125588000Y-62076986D01*
X113436400Y-53441600D02*
X113436390Y-53441610D01*
X113436400Y-53441600D02*
X113168000Y-53441600D01*
X113168000Y-53441600D02*
X112522000Y-52795600D01*
X114027058Y-53441600D02*
X113436400Y-53441600D01*
X125588000Y-61864000D02*
X124206000Y-63246000D01*
X124206000Y-63246000D02*
X116078000Y-63246000D01*
X125588000Y-61722000D02*
X125588000Y-61864000D01*
X116078000Y-63246000D02*
X115112790Y-62280790D01*
X115112790Y-62280790D02*
X115112789Y-54527331D01*
X115112789Y-54527331D02*
X114027058Y-53441600D01*
X125588000Y-64262000D02*
X125588000Y-64012000D01*
X125588000Y-64262000D02*
X125588000Y-64120000D01*
X125649210Y-64262000D02*
X125791210Y-64120000D01*
X113168003Y-54254400D02*
X113690400Y-54254400D01*
X112522000Y-54900403D02*
X113168003Y-54254400D01*
X113690400Y-54254400D02*
X114300000Y-54864000D01*
X114300000Y-54864000D02*
X114300000Y-62738000D01*
X114300000Y-62738000D02*
X115824000Y-64262000D01*
X115824000Y-64262000D02*
X125649210Y-64262000D01*
X126888000Y-64262000D02*
X131254500Y-64262000D01*
X131254500Y-64262000D02*
X131445000Y-64071500D01*
D36*
X118490291Y-52396003D02*
X117854038Y-51759750D01*
X117856000Y-54356002D02*
X117856000Y-54356000D01*
X117856000Y-54356000D02*
X118490291Y-53721709D01*
D35*
X118407741Y-53804259D02*
X118407741Y-53721709D01*
X117856000Y-54356000D02*
X118407741Y-53804259D01*
D36*
X118490291Y-53721709D02*
X118407741Y-53721709D01*
X118407741Y-52396003D02*
X118490291Y-52396003D01*
X118407741Y-53721709D02*
X118407741Y-52396003D01*
D35*
X118407741Y-52313453D02*
X117854038Y-51759750D01*
X118407741Y-52396003D02*
X118407741Y-52313453D01*
X118407741Y-53804259D02*
X118407741Y-52396003D01*
G36*
X95106121Y-44919331D02*
X95168051Y-44981261D01*
X95777335Y-46452202D01*
X95832395Y-46534605D01*
X96721395Y-47423605D01*
X96803798Y-47478665D01*
X96901000Y-47498000D01*
X112806725Y-47498000D01*
X109461494Y-50843232D01*
X109388323Y-50892123D01*
X109194644Y-51181986D01*
X109146468Y-51424184D01*
X109126633Y-51523900D01*
X109143800Y-51610203D01*
X109143800Y-59985325D01*
X104666029Y-55507554D01*
X104606958Y-55419148D01*
X104256729Y-55185132D01*
X103947888Y-55123700D01*
X103947883Y-55123700D01*
X103843606Y-55102958D01*
X103739329Y-55123700D01*
X103706259Y-55123700D01*
X103534033Y-55008622D01*
X103316000Y-54965253D01*
X101916000Y-54965253D01*
X101697967Y-55008622D01*
X101513128Y-55132128D01*
X101389622Y-55316967D01*
X101346253Y-55535000D01*
X101346253Y-56830000D01*
X101389622Y-57048033D01*
X101457754Y-57150000D01*
X101389622Y-57251967D01*
X101346253Y-57470000D01*
X101346253Y-58765000D01*
X101389622Y-58983033D01*
X101513128Y-59167872D01*
X101557201Y-59197320D01*
X101557200Y-59420680D01*
X101513128Y-59450128D01*
X101389622Y-59634967D01*
X101346253Y-59853000D01*
X101346253Y-61148000D01*
X101389622Y-61366033D01*
X101457754Y-61468000D01*
X101389622Y-61569967D01*
X101346253Y-61788000D01*
X101346253Y-63083000D01*
X101389622Y-63301033D01*
X101513128Y-63485872D01*
X101557200Y-63515320D01*
X101557201Y-63738680D01*
X101513128Y-63768128D01*
X101389622Y-63952967D01*
X101346253Y-64171000D01*
X101346253Y-65466000D01*
X101389622Y-65684033D01*
X101513128Y-65868872D01*
X101697967Y-65992378D01*
X101916000Y-66035747D01*
X103316000Y-66035747D01*
X103534033Y-65992378D01*
X103718872Y-65868872D01*
X103842378Y-65684033D01*
X103860970Y-65590563D01*
X103885999Y-65595542D01*
X103990277Y-65574800D01*
X104600907Y-65574800D01*
X104661827Y-65635720D01*
X105147277Y-65836800D01*
X105672723Y-65836800D01*
X106158173Y-65635720D01*
X106529720Y-65264173D01*
X106730800Y-64778723D01*
X106730800Y-64253277D01*
X106529720Y-63767827D01*
X106158173Y-63396280D01*
X105672723Y-63195200D01*
X105147277Y-63195200D01*
X104661827Y-63396280D01*
X104600907Y-63457200D01*
X104324570Y-63457200D01*
X103885747Y-63018378D01*
X103885747Y-61788000D01*
X103842378Y-61569967D01*
X103802844Y-61510800D01*
X104730456Y-61510800D01*
X104865979Y-61646323D01*
X105383772Y-61860800D01*
X105944228Y-61860800D01*
X106462021Y-61646323D01*
X106858323Y-61250021D01*
X107021006Y-60857269D01*
X107399200Y-61235463D01*
X107399201Y-65427714D01*
X107399200Y-65427719D01*
X107399201Y-69424455D01*
X107263677Y-69559979D01*
X107049200Y-70077772D01*
X107049200Y-70638228D01*
X107263677Y-71156021D01*
X107442000Y-71334344D01*
X107442000Y-80317256D01*
X107263677Y-80495579D01*
X107221259Y-80597985D01*
X107090668Y-80467394D01*
X107041777Y-80394223D01*
X106751915Y-80200544D01*
X106496304Y-80149700D01*
X106496303Y-80149700D01*
X106410000Y-80132533D01*
X106388669Y-80136776D01*
X106158173Y-79906280D01*
X105672723Y-79705200D01*
X105147277Y-79705200D01*
X104661827Y-79906280D01*
X104290280Y-80277827D01*
X104089200Y-80763277D01*
X104089200Y-81288723D01*
X104290280Y-81774173D01*
X104661827Y-82145720D01*
X105024635Y-82296000D01*
X104661827Y-82446280D01*
X104290280Y-82817827D01*
X104089200Y-83303277D01*
X104089200Y-83828723D01*
X104290280Y-84314173D01*
X104661827Y-84685720D01*
X105147277Y-84886800D01*
X105672723Y-84886800D01*
X106158173Y-84685720D01*
X106388669Y-84455224D01*
X106410000Y-84459467D01*
X106496303Y-84442300D01*
X106496304Y-84442300D01*
X106751915Y-84391456D01*
X107041777Y-84197777D01*
X107090668Y-84124606D01*
X107221259Y-83994015D01*
X107263677Y-84096421D01*
X107442000Y-84274744D01*
X107442000Y-103050790D01*
X105590790Y-104902000D01*
X102943210Y-104902000D01*
X101092000Y-103050790D01*
X101092000Y-101065772D01*
X101207200Y-101065772D01*
X101207200Y-101626228D01*
X101421677Y-102144021D01*
X101817979Y-102540323D01*
X102335772Y-102754800D01*
X102896228Y-102754800D01*
X103414021Y-102540323D01*
X103549544Y-102404800D01*
X104600907Y-102404800D01*
X104661827Y-102465720D01*
X105147277Y-102666800D01*
X105672723Y-102666800D01*
X106158173Y-102465720D01*
X106529720Y-102094173D01*
X106730800Y-101608723D01*
X106730800Y-101083277D01*
X106529720Y-100597827D01*
X106158173Y-100226280D01*
X105672723Y-100025200D01*
X105147277Y-100025200D01*
X104661827Y-100226280D01*
X104600907Y-100287200D01*
X103549544Y-100287200D01*
X103414021Y-100151677D01*
X102896228Y-99937200D01*
X102335772Y-99937200D01*
X101817979Y-100151677D01*
X101421677Y-100547979D01*
X101207200Y-101065772D01*
X101092000Y-101065772D01*
X101092000Y-94506051D01*
X101072665Y-94408849D01*
X99312800Y-90160159D01*
X99312800Y-87113277D01*
X104089200Y-87113277D01*
X104089200Y-87638723D01*
X104290280Y-88124173D01*
X104661827Y-88495720D01*
X105024635Y-88646000D01*
X104661827Y-88796280D01*
X104290280Y-89167827D01*
X104089200Y-89653277D01*
X104089200Y-90178723D01*
X104290280Y-90664173D01*
X104661827Y-91035720D01*
X105024635Y-91186000D01*
X104661827Y-91336280D01*
X104290280Y-91707827D01*
X104089200Y-92193277D01*
X104089200Y-92718723D01*
X104290280Y-93204173D01*
X104661827Y-93575720D01*
X105024635Y-93726000D01*
X104661827Y-93876280D01*
X104290280Y-94247827D01*
X104089200Y-94733277D01*
X104089200Y-95258723D01*
X104290280Y-95744173D01*
X104661827Y-96115720D01*
X105147277Y-96316800D01*
X105672723Y-96316800D01*
X106158173Y-96115720D01*
X106529720Y-95744173D01*
X106730800Y-95258723D01*
X106730800Y-94733277D01*
X106529720Y-94247827D01*
X106158173Y-93876280D01*
X105795365Y-93726000D01*
X106158173Y-93575720D01*
X106529720Y-93204173D01*
X106730800Y-92718723D01*
X106730800Y-92193277D01*
X106529720Y-91707827D01*
X106158173Y-91336280D01*
X105795365Y-91186000D01*
X106158173Y-91035720D01*
X106529720Y-90664173D01*
X106730800Y-90178723D01*
X106730800Y-89653277D01*
X106529720Y-89167827D01*
X106158173Y-88796280D01*
X105795365Y-88646000D01*
X106158173Y-88495720D01*
X106529720Y-88124173D01*
X106730800Y-87638723D01*
X106730800Y-87113277D01*
X106529720Y-86627827D01*
X106158173Y-86256280D01*
X105672723Y-86055200D01*
X105147277Y-86055200D01*
X104661827Y-86256280D01*
X104290280Y-86627827D01*
X104089200Y-87113277D01*
X99312800Y-87113277D01*
X99312800Y-75665772D01*
X101207200Y-75665772D01*
X101207200Y-76226228D01*
X101421677Y-76744021D01*
X101817979Y-77140323D01*
X102335772Y-77354800D01*
X102896228Y-77354800D01*
X103414021Y-77140323D01*
X103549544Y-77004800D01*
X104600907Y-77004800D01*
X104661827Y-77065720D01*
X105147277Y-77266800D01*
X105672723Y-77266800D01*
X106158173Y-77065720D01*
X106529720Y-76694173D01*
X106730800Y-76208723D01*
X106730800Y-75683277D01*
X106529720Y-75197827D01*
X106158173Y-74826280D01*
X105672723Y-74625200D01*
X105147277Y-74625200D01*
X104661827Y-74826280D01*
X104600907Y-74887200D01*
X103549544Y-74887200D01*
X103414021Y-74751677D01*
X102896228Y-74537200D01*
X102335772Y-74537200D01*
X101817979Y-74751677D01*
X101421677Y-75147979D01*
X101207200Y-75665772D01*
X99312800Y-75665772D01*
X99312800Y-73540672D01*
X99904673Y-72948800D01*
X104354907Y-72948800D01*
X104661827Y-73255720D01*
X105147277Y-73456800D01*
X105672723Y-73456800D01*
X106158173Y-73255720D01*
X106529720Y-72884173D01*
X106730800Y-72398723D01*
X106730800Y-71873277D01*
X106529720Y-71387827D01*
X106158173Y-71016280D01*
X105795365Y-70866000D01*
X106158173Y-70715720D01*
X106529720Y-70344173D01*
X106730800Y-69858723D01*
X106730800Y-69333277D01*
X106529720Y-68847827D01*
X106158173Y-68476280D01*
X105672723Y-68275200D01*
X105147277Y-68275200D01*
X104661827Y-68476280D01*
X104354907Y-68783200D01*
X99140049Y-68783200D01*
X99059999Y-68767277D01*
X98742861Y-68830360D01*
X98474004Y-69010004D01*
X98428657Y-69077871D01*
X96001871Y-71504657D01*
X95934004Y-71550004D01*
X95786474Y-71770800D01*
X95754360Y-71818862D01*
X95691277Y-72136000D01*
X95707200Y-72216050D01*
X95707200Y-77644465D01*
X94996000Y-75927477D01*
X94996000Y-71361236D01*
X94976665Y-71264034D01*
X94087665Y-69117798D01*
X94032605Y-69035395D01*
X93950202Y-68980335D01*
X91803966Y-68091335D01*
X91706764Y-68072000D01*
X89735210Y-68072000D01*
X87884000Y-66220790D01*
X87884000Y-65532000D01*
X90874498Y-65532000D01*
X90964434Y-65984141D01*
X91220552Y-66367448D01*
X91603859Y-66623566D01*
X91941869Y-66690800D01*
X92970131Y-66690800D01*
X93308141Y-66623566D01*
X93691448Y-66367448D01*
X93947566Y-65984141D01*
X94037502Y-65532000D01*
X93947566Y-65079859D01*
X93691448Y-64696552D01*
X93308141Y-64440434D01*
X92970131Y-64373200D01*
X91941869Y-64373200D01*
X91603859Y-64440434D01*
X91220552Y-64696552D01*
X90964434Y-65079859D01*
X90874498Y-65532000D01*
X87884000Y-65532000D01*
X87884000Y-62992000D01*
X90874498Y-62992000D01*
X90964434Y-63444141D01*
X91220552Y-63827448D01*
X91603859Y-64083566D01*
X91941869Y-64150800D01*
X92970131Y-64150800D01*
X93308141Y-64083566D01*
X93691448Y-63827448D01*
X93947566Y-63444141D01*
X94037502Y-62992000D01*
X93947566Y-62539859D01*
X93691448Y-62156552D01*
X93308141Y-61900434D01*
X92970131Y-61833200D01*
X91941869Y-61833200D01*
X91603859Y-61900434D01*
X91220552Y-62156552D01*
X90964434Y-62539859D01*
X90874498Y-62992000D01*
X87884000Y-62992000D01*
X87884000Y-60452000D01*
X90874498Y-60452000D01*
X90964434Y-60904141D01*
X91220552Y-61287448D01*
X91603859Y-61543566D01*
X91941869Y-61610800D01*
X92970131Y-61610800D01*
X93308141Y-61543566D01*
X93691448Y-61287448D01*
X93947566Y-60904141D01*
X94037502Y-60452000D01*
X93947566Y-59999859D01*
X93691448Y-59616552D01*
X93308141Y-59360434D01*
X92970131Y-59293200D01*
X91941869Y-59293200D01*
X91603859Y-59360434D01*
X91220552Y-59616552D01*
X90964434Y-59999859D01*
X90874498Y-60452000D01*
X87884000Y-60452000D01*
X87884000Y-55372000D01*
X90874498Y-55372000D01*
X90964434Y-55824141D01*
X91220552Y-56207448D01*
X91603859Y-56463566D01*
X91941869Y-56530800D01*
X92970131Y-56530800D01*
X93308141Y-56463566D01*
X93691448Y-56207448D01*
X93929201Y-55851627D01*
X93929201Y-56669679D01*
X93915656Y-56675289D01*
X93585311Y-57005634D01*
X93308141Y-56820434D01*
X92970131Y-56753200D01*
X91941869Y-56753200D01*
X91603859Y-56820434D01*
X91220552Y-57076552D01*
X90964434Y-57459859D01*
X90874498Y-57912000D01*
X90964434Y-58364141D01*
X91220552Y-58747448D01*
X91603859Y-59003566D01*
X91941869Y-59070800D01*
X92970131Y-59070800D01*
X93308141Y-59003566D01*
X93585311Y-58818366D01*
X93915656Y-59148711D01*
X94451827Y-59370800D01*
X95032173Y-59370800D01*
X95568344Y-59148711D01*
X95978711Y-58738344D01*
X96200800Y-58202173D01*
X96200800Y-57621827D01*
X95978711Y-57085656D01*
X95568344Y-56675289D01*
X95554800Y-56669679D01*
X95554800Y-53930672D01*
X96094673Y-53390800D01*
X97563679Y-53390800D01*
X97569289Y-53404344D01*
X97979656Y-53814711D01*
X98515827Y-54036800D01*
X99096173Y-54036800D01*
X99632344Y-53814711D01*
X100042711Y-53404344D01*
X100264800Y-52868173D01*
X100264800Y-52287827D01*
X100042711Y-51751656D01*
X99632344Y-51341289D01*
X99096173Y-51119200D01*
X98515827Y-51119200D01*
X97979656Y-51341289D01*
X97569289Y-51751656D01*
X97563679Y-51765200D01*
X95838050Y-51765200D01*
X95758000Y-51749277D01*
X95677950Y-51765200D01*
X95440861Y-51812360D01*
X95172004Y-51992004D01*
X95126658Y-52059869D01*
X94223871Y-52962657D01*
X94156004Y-53008004D01*
X94030906Y-53195228D01*
X93976360Y-53276862D01*
X93913277Y-53594000D01*
X93929200Y-53674050D01*
X93929200Y-54892373D01*
X93691448Y-54536552D01*
X93308141Y-54280434D01*
X92970131Y-54213200D01*
X91941869Y-54213200D01*
X91603859Y-54280434D01*
X91220552Y-54536552D01*
X90964434Y-54919859D01*
X90874498Y-55372000D01*
X87884000Y-55372000D01*
X87884000Y-52832000D01*
X90874498Y-52832000D01*
X90964434Y-53284141D01*
X91220552Y-53667448D01*
X91603859Y-53923566D01*
X91941869Y-53990800D01*
X92970131Y-53990800D01*
X93308141Y-53923566D01*
X93691448Y-53667448D01*
X93947566Y-53284141D01*
X94037502Y-52832000D01*
X93947566Y-52379859D01*
X93691448Y-51996552D01*
X93308141Y-51740434D01*
X92970131Y-51673200D01*
X91941869Y-51673200D01*
X91603859Y-51740434D01*
X91220552Y-51996552D01*
X90964434Y-52379859D01*
X90874498Y-52832000D01*
X87884000Y-52832000D01*
X87884000Y-50292000D01*
X90874498Y-50292000D01*
X90964434Y-50744141D01*
X91220552Y-51127448D01*
X91603859Y-51383566D01*
X91941869Y-51450800D01*
X92970131Y-51450800D01*
X93308141Y-51383566D01*
X93691448Y-51127448D01*
X93947566Y-50744141D01*
X94037502Y-50292000D01*
X93947566Y-49839859D01*
X93691448Y-49456552D01*
X93308141Y-49200434D01*
X92970131Y-49133200D01*
X91941869Y-49133200D01*
X91603859Y-49200434D01*
X91220552Y-49456552D01*
X90964434Y-49839859D01*
X90874498Y-50292000D01*
X87884000Y-50292000D01*
X87884000Y-47752000D01*
X90874498Y-47752000D01*
X90964434Y-48204141D01*
X91220552Y-48587448D01*
X91603859Y-48843566D01*
X91941869Y-48910800D01*
X92970131Y-48910800D01*
X93308141Y-48843566D01*
X93691448Y-48587448D01*
X93947566Y-48204141D01*
X94037502Y-47752000D01*
X93947566Y-47299859D01*
X93691448Y-46916552D01*
X93308141Y-46660434D01*
X92970131Y-46593200D01*
X91941869Y-46593200D01*
X91603859Y-46660434D01*
X91220552Y-46916552D01*
X90964434Y-47299859D01*
X90874498Y-47752000D01*
X87884000Y-47752000D01*
X87884000Y-46047210D01*
X89735210Y-44196000D01*
X93359846Y-44196000D01*
X95106121Y-44919331D01*
X95106121Y-44919331D01*
G37*
X95106121Y-44919331D02*
X95168051Y-44981261D01*
X95777335Y-46452202D01*
X95832395Y-46534605D01*
X96721395Y-47423605D01*
X96803798Y-47478665D01*
X96901000Y-47498000D01*
X112806725Y-47498000D01*
X109461494Y-50843232D01*
X109388323Y-50892123D01*
X109194644Y-51181986D01*
X109146468Y-51424184D01*
X109126633Y-51523900D01*
X109143800Y-51610203D01*
X109143800Y-59985325D01*
X104666029Y-55507554D01*
X104606958Y-55419148D01*
X104256729Y-55185132D01*
X103947888Y-55123700D01*
X103947883Y-55123700D01*
X103843606Y-55102958D01*
X103739329Y-55123700D01*
X103706259Y-55123700D01*
X103534033Y-55008622D01*
X103316000Y-54965253D01*
X101916000Y-54965253D01*
X101697967Y-55008622D01*
X101513128Y-55132128D01*
X101389622Y-55316967D01*
X101346253Y-55535000D01*
X101346253Y-56830000D01*
X101389622Y-57048033D01*
X101457754Y-57150000D01*
X101389622Y-57251967D01*
X101346253Y-57470000D01*
X101346253Y-58765000D01*
X101389622Y-58983033D01*
X101513128Y-59167872D01*
X101557201Y-59197320D01*
X101557200Y-59420680D01*
X101513128Y-59450128D01*
X101389622Y-59634967D01*
X101346253Y-59853000D01*
X101346253Y-61148000D01*
X101389622Y-61366033D01*
X101457754Y-61468000D01*
X101389622Y-61569967D01*
X101346253Y-61788000D01*
X101346253Y-63083000D01*
X101389622Y-63301033D01*
X101513128Y-63485872D01*
X101557200Y-63515320D01*
X101557201Y-63738680D01*
X101513128Y-63768128D01*
X101389622Y-63952967D01*
X101346253Y-64171000D01*
X101346253Y-65466000D01*
X101389622Y-65684033D01*
X101513128Y-65868872D01*
X101697967Y-65992378D01*
X101916000Y-66035747D01*
X103316000Y-66035747D01*
X103534033Y-65992378D01*
X103718872Y-65868872D01*
X103842378Y-65684033D01*
X103860970Y-65590563D01*
X103885999Y-65595542D01*
X103990277Y-65574800D01*
X104600907Y-65574800D01*
X104661827Y-65635720D01*
X105147277Y-65836800D01*
X105672723Y-65836800D01*
X106158173Y-65635720D01*
X106529720Y-65264173D01*
X106730800Y-64778723D01*
X106730800Y-64253277D01*
X106529720Y-63767827D01*
X106158173Y-63396280D01*
X105672723Y-63195200D01*
X105147277Y-63195200D01*
X104661827Y-63396280D01*
X104600907Y-63457200D01*
X104324570Y-63457200D01*
X103885747Y-63018378D01*
X103885747Y-61788000D01*
X103842378Y-61569967D01*
X103802844Y-61510800D01*
X104730456Y-61510800D01*
X104865979Y-61646323D01*
X105383772Y-61860800D01*
X105944228Y-61860800D01*
X106462021Y-61646323D01*
X106858323Y-61250021D01*
X107021006Y-60857269D01*
X107399200Y-61235463D01*
X107399201Y-65427714D01*
X107399200Y-65427719D01*
X107399201Y-69424455D01*
X107263677Y-69559979D01*
X107049200Y-70077772D01*
X107049200Y-70638228D01*
X107263677Y-71156021D01*
X107442000Y-71334344D01*
X107442000Y-80317256D01*
X107263677Y-80495579D01*
X107221259Y-80597985D01*
X107090668Y-80467394D01*
X107041777Y-80394223D01*
X106751915Y-80200544D01*
X106496304Y-80149700D01*
X106496303Y-80149700D01*
X106410000Y-80132533D01*
X106388669Y-80136776D01*
X106158173Y-79906280D01*
X105672723Y-79705200D01*
X105147277Y-79705200D01*
X104661827Y-79906280D01*
X104290280Y-80277827D01*
X104089200Y-80763277D01*
X104089200Y-81288723D01*
X104290280Y-81774173D01*
X104661827Y-82145720D01*
X105024635Y-82296000D01*
X104661827Y-82446280D01*
X104290280Y-82817827D01*
X104089200Y-83303277D01*
X104089200Y-83828723D01*
X104290280Y-84314173D01*
X104661827Y-84685720D01*
X105147277Y-84886800D01*
X105672723Y-84886800D01*
X106158173Y-84685720D01*
X106388669Y-84455224D01*
X106410000Y-84459467D01*
X106496303Y-84442300D01*
X106496304Y-84442300D01*
X106751915Y-84391456D01*
X107041777Y-84197777D01*
X107090668Y-84124606D01*
X107221259Y-83994015D01*
X107263677Y-84096421D01*
X107442000Y-84274744D01*
X107442000Y-103050790D01*
X105590790Y-104902000D01*
X102943210Y-104902000D01*
X101092000Y-103050790D01*
X101092000Y-101065772D01*
X101207200Y-101065772D01*
X101207200Y-101626228D01*
X101421677Y-102144021D01*
X101817979Y-102540323D01*
X102335772Y-102754800D01*
X102896228Y-102754800D01*
X103414021Y-102540323D01*
X103549544Y-102404800D01*
X104600907Y-102404800D01*
X104661827Y-102465720D01*
X105147277Y-102666800D01*
X105672723Y-102666800D01*
X106158173Y-102465720D01*
X106529720Y-102094173D01*
X106730800Y-101608723D01*
X106730800Y-101083277D01*
X106529720Y-100597827D01*
X106158173Y-100226280D01*
X105672723Y-100025200D01*
X105147277Y-100025200D01*
X104661827Y-100226280D01*
X104600907Y-100287200D01*
X103549544Y-100287200D01*
X103414021Y-100151677D01*
X102896228Y-99937200D01*
X102335772Y-99937200D01*
X101817979Y-100151677D01*
X101421677Y-100547979D01*
X101207200Y-101065772D01*
X101092000Y-101065772D01*
X101092000Y-94506051D01*
X101072665Y-94408849D01*
X99312800Y-90160159D01*
X99312800Y-87113277D01*
X104089200Y-87113277D01*
X104089200Y-87638723D01*
X104290280Y-88124173D01*
X104661827Y-88495720D01*
X105024635Y-88646000D01*
X104661827Y-88796280D01*
X104290280Y-89167827D01*
X104089200Y-89653277D01*
X104089200Y-90178723D01*
X104290280Y-90664173D01*
X104661827Y-91035720D01*
X105024635Y-91186000D01*
X104661827Y-91336280D01*
X104290280Y-91707827D01*
X104089200Y-92193277D01*
X104089200Y-92718723D01*
X104290280Y-93204173D01*
X104661827Y-93575720D01*
X105024635Y-93726000D01*
X104661827Y-93876280D01*
X104290280Y-94247827D01*
X104089200Y-94733277D01*
X104089200Y-95258723D01*
X104290280Y-95744173D01*
X104661827Y-96115720D01*
X105147277Y-96316800D01*
X105672723Y-96316800D01*
X106158173Y-96115720D01*
X106529720Y-95744173D01*
X106730800Y-95258723D01*
X106730800Y-94733277D01*
X106529720Y-94247827D01*
X106158173Y-93876280D01*
X105795365Y-93726000D01*
X106158173Y-93575720D01*
X106529720Y-93204173D01*
X106730800Y-92718723D01*
X106730800Y-92193277D01*
X106529720Y-91707827D01*
X106158173Y-91336280D01*
X105795365Y-91186000D01*
X106158173Y-91035720D01*
X106529720Y-90664173D01*
X106730800Y-90178723D01*
X106730800Y-89653277D01*
X106529720Y-89167827D01*
X106158173Y-88796280D01*
X105795365Y-88646000D01*
X106158173Y-88495720D01*
X106529720Y-88124173D01*
X106730800Y-87638723D01*
X106730800Y-87113277D01*
X106529720Y-86627827D01*
X106158173Y-86256280D01*
X105672723Y-86055200D01*
X105147277Y-86055200D01*
X104661827Y-86256280D01*
X104290280Y-86627827D01*
X104089200Y-87113277D01*
X99312800Y-87113277D01*
X99312800Y-75665772D01*
X101207200Y-75665772D01*
X101207200Y-76226228D01*
X101421677Y-76744021D01*
X101817979Y-77140323D01*
X102335772Y-77354800D01*
X102896228Y-77354800D01*
X103414021Y-77140323D01*
X103549544Y-77004800D01*
X104600907Y-77004800D01*
X104661827Y-77065720D01*
X105147277Y-77266800D01*
X105672723Y-77266800D01*
X106158173Y-77065720D01*
X106529720Y-76694173D01*
X106730800Y-76208723D01*
X106730800Y-75683277D01*
X106529720Y-75197827D01*
X106158173Y-74826280D01*
X105672723Y-74625200D01*
X105147277Y-74625200D01*
X104661827Y-74826280D01*
X104600907Y-74887200D01*
X103549544Y-74887200D01*
X103414021Y-74751677D01*
X102896228Y-74537200D01*
X102335772Y-74537200D01*
X101817979Y-74751677D01*
X101421677Y-75147979D01*
X101207200Y-75665772D01*
X99312800Y-75665772D01*
X99312800Y-73540672D01*
X99904673Y-72948800D01*
X104354907Y-72948800D01*
X104661827Y-73255720D01*
X105147277Y-73456800D01*
X105672723Y-73456800D01*
X106158173Y-73255720D01*
X106529720Y-72884173D01*
X106730800Y-72398723D01*
X106730800Y-71873277D01*
X106529720Y-71387827D01*
X106158173Y-71016280D01*
X105795365Y-70866000D01*
X106158173Y-70715720D01*
X106529720Y-70344173D01*
X106730800Y-69858723D01*
X106730800Y-69333277D01*
X106529720Y-68847827D01*
X106158173Y-68476280D01*
X105672723Y-68275200D01*
X105147277Y-68275200D01*
X104661827Y-68476280D01*
X104354907Y-68783200D01*
X99140049Y-68783200D01*
X99059999Y-68767277D01*
X98742861Y-68830360D01*
X98474004Y-69010004D01*
X98428657Y-69077871D01*
X96001871Y-71504657D01*
X95934004Y-71550004D01*
X95786474Y-71770800D01*
X95754360Y-71818862D01*
X95691277Y-72136000D01*
X95707200Y-72216050D01*
X95707200Y-77644465D01*
X94996000Y-75927477D01*
X94996000Y-71361236D01*
X94976665Y-71264034D01*
X94087665Y-69117798D01*
X94032605Y-69035395D01*
X93950202Y-68980335D01*
X91803966Y-68091335D01*
X91706764Y-68072000D01*
X89735210Y-68072000D01*
X87884000Y-66220790D01*
X87884000Y-65532000D01*
X90874498Y-65532000D01*
X90964434Y-65984141D01*
X91220552Y-66367448D01*
X91603859Y-66623566D01*
X91941869Y-66690800D01*
X92970131Y-66690800D01*
X93308141Y-66623566D01*
X93691448Y-66367448D01*
X93947566Y-65984141D01*
X94037502Y-65532000D01*
X93947566Y-65079859D01*
X93691448Y-64696552D01*
X93308141Y-64440434D01*
X92970131Y-64373200D01*
X91941869Y-64373200D01*
X91603859Y-64440434D01*
X91220552Y-64696552D01*
X90964434Y-65079859D01*
X90874498Y-65532000D01*
X87884000Y-65532000D01*
X87884000Y-62992000D01*
X90874498Y-62992000D01*
X90964434Y-63444141D01*
X91220552Y-63827448D01*
X91603859Y-64083566D01*
X91941869Y-64150800D01*
X92970131Y-64150800D01*
X93308141Y-64083566D01*
X93691448Y-63827448D01*
X93947566Y-63444141D01*
X94037502Y-62992000D01*
X93947566Y-62539859D01*
X93691448Y-62156552D01*
X93308141Y-61900434D01*
X92970131Y-61833200D01*
X91941869Y-61833200D01*
X91603859Y-61900434D01*
X91220552Y-62156552D01*
X90964434Y-62539859D01*
X90874498Y-62992000D01*
X87884000Y-62992000D01*
X87884000Y-60452000D01*
X90874498Y-60452000D01*
X90964434Y-60904141D01*
X91220552Y-61287448D01*
X91603859Y-61543566D01*
X91941869Y-61610800D01*
X92970131Y-61610800D01*
X93308141Y-61543566D01*
X93691448Y-61287448D01*
X93947566Y-60904141D01*
X94037502Y-60452000D01*
X93947566Y-59999859D01*
X93691448Y-59616552D01*
X93308141Y-59360434D01*
X92970131Y-59293200D01*
X91941869Y-59293200D01*
X91603859Y-59360434D01*
X91220552Y-59616552D01*
X90964434Y-59999859D01*
X90874498Y-60452000D01*
X87884000Y-60452000D01*
X87884000Y-55372000D01*
X90874498Y-55372000D01*
X90964434Y-55824141D01*
X91220552Y-56207448D01*
X91603859Y-56463566D01*
X91941869Y-56530800D01*
X92970131Y-56530800D01*
X93308141Y-56463566D01*
X93691448Y-56207448D01*
X93929201Y-55851627D01*
X93929201Y-56669679D01*
X93915656Y-56675289D01*
X93585311Y-57005634D01*
X93308141Y-56820434D01*
X92970131Y-56753200D01*
X91941869Y-56753200D01*
X91603859Y-56820434D01*
X91220552Y-57076552D01*
X90964434Y-57459859D01*
X90874498Y-57912000D01*
X90964434Y-58364141D01*
X91220552Y-58747448D01*
X91603859Y-59003566D01*
X91941869Y-59070800D01*
X92970131Y-59070800D01*
X93308141Y-59003566D01*
X93585311Y-58818366D01*
X93915656Y-59148711D01*
X94451827Y-59370800D01*
X95032173Y-59370800D01*
X95568344Y-59148711D01*
X95978711Y-58738344D01*
X96200800Y-58202173D01*
X96200800Y-57621827D01*
X95978711Y-57085656D01*
X95568344Y-56675289D01*
X95554800Y-56669679D01*
X95554800Y-53930672D01*
X96094673Y-53390800D01*
X97563679Y-53390800D01*
X97569289Y-53404344D01*
X97979656Y-53814711D01*
X98515827Y-54036800D01*
X99096173Y-54036800D01*
X99632344Y-53814711D01*
X100042711Y-53404344D01*
X100264800Y-52868173D01*
X100264800Y-52287827D01*
X100042711Y-51751656D01*
X99632344Y-51341289D01*
X99096173Y-51119200D01*
X98515827Y-51119200D01*
X97979656Y-51341289D01*
X97569289Y-51751656D01*
X97563679Y-51765200D01*
X95838050Y-51765200D01*
X95758000Y-51749277D01*
X95677950Y-51765200D01*
X95440861Y-51812360D01*
X95172004Y-51992004D01*
X95126658Y-52059869D01*
X94223871Y-52962657D01*
X94156004Y-53008004D01*
X94030906Y-53195228D01*
X93976360Y-53276862D01*
X93913277Y-53594000D01*
X93929200Y-53674050D01*
X93929200Y-54892373D01*
X93691448Y-54536552D01*
X93308141Y-54280434D01*
X92970131Y-54213200D01*
X91941869Y-54213200D01*
X91603859Y-54280434D01*
X91220552Y-54536552D01*
X90964434Y-54919859D01*
X90874498Y-55372000D01*
X87884000Y-55372000D01*
X87884000Y-52832000D01*
X90874498Y-52832000D01*
X90964434Y-53284141D01*
X91220552Y-53667448D01*
X91603859Y-53923566D01*
X91941869Y-53990800D01*
X92970131Y-53990800D01*
X93308141Y-53923566D01*
X93691448Y-53667448D01*
X93947566Y-53284141D01*
X94037502Y-52832000D01*
X93947566Y-52379859D01*
X93691448Y-51996552D01*
X93308141Y-51740434D01*
X92970131Y-51673200D01*
X91941869Y-51673200D01*
X91603859Y-51740434D01*
X91220552Y-51996552D01*
X90964434Y-52379859D01*
X90874498Y-52832000D01*
X87884000Y-52832000D01*
X87884000Y-50292000D01*
X90874498Y-50292000D01*
X90964434Y-50744141D01*
X91220552Y-51127448D01*
X91603859Y-51383566D01*
X91941869Y-51450800D01*
X92970131Y-51450800D01*
X93308141Y-51383566D01*
X93691448Y-51127448D01*
X93947566Y-50744141D01*
X94037502Y-50292000D01*
X93947566Y-49839859D01*
X93691448Y-49456552D01*
X93308141Y-49200434D01*
X92970131Y-49133200D01*
X91941869Y-49133200D01*
X91603859Y-49200434D01*
X91220552Y-49456552D01*
X90964434Y-49839859D01*
X90874498Y-50292000D01*
X87884000Y-50292000D01*
X87884000Y-47752000D01*
X90874498Y-47752000D01*
X90964434Y-48204141D01*
X91220552Y-48587448D01*
X91603859Y-48843566D01*
X91941869Y-48910800D01*
X92970131Y-48910800D01*
X93308141Y-48843566D01*
X93691448Y-48587448D01*
X93947566Y-48204141D01*
X94037502Y-47752000D01*
X93947566Y-47299859D01*
X93691448Y-46916552D01*
X93308141Y-46660434D01*
X92970131Y-46593200D01*
X91941869Y-46593200D01*
X91603859Y-46660434D01*
X91220552Y-46916552D01*
X90964434Y-47299859D01*
X90874498Y-47752000D01*
X87884000Y-47752000D01*
X87884000Y-46047210D01*
X89735210Y-44196000D01*
X93359846Y-44196000D01*
X95106121Y-44919331D01*
G36*
X121332849Y-50018665D02*
X121430051Y-50038000D01*
X140388790Y-50038000D01*
X142240000Y-51889210D01*
X142240000Y-63934790D01*
X140388790Y-65786000D01*
X139661505Y-65786000D01*
X139812559Y-65559932D01*
X139873991Y-65251091D01*
X139873991Y-65251087D01*
X139894733Y-65146810D01*
X139873991Y-65042532D01*
X139873991Y-62211473D01*
X139894734Y-62107191D01*
X139812559Y-61694067D01*
X139716878Y-61550872D01*
X139584800Y-61353203D01*
X139584800Y-60933772D01*
X139370323Y-60415979D01*
X138974021Y-60019677D01*
X138456228Y-59805200D01*
X137895772Y-59805200D01*
X137377979Y-60019677D01*
X136981677Y-60415979D01*
X136767200Y-60933772D01*
X136767200Y-61494228D01*
X136981677Y-62012021D01*
X137377979Y-62408323D01*
X137756391Y-62565067D01*
X137756392Y-64708239D01*
X136975431Y-65489200D01*
X127679633Y-65489200D01*
X127790872Y-65414872D01*
X127914378Y-65230033D01*
X127945255Y-65074800D01*
X130455956Y-65074800D01*
X130646979Y-65265823D01*
X131164772Y-65480300D01*
X131725228Y-65480300D01*
X132243021Y-65265823D01*
X132639323Y-64869521D01*
X132853800Y-64351728D01*
X132853800Y-63791272D01*
X132639323Y-63273479D01*
X132243021Y-62877177D01*
X131725228Y-62662700D01*
X131164772Y-62662700D01*
X130646979Y-62877177D01*
X130250677Y-63273479D01*
X130177891Y-63449200D01*
X127945255Y-63449200D01*
X127914378Y-63293967D01*
X127790872Y-63109128D01*
X127606033Y-62985622D01*
X127388000Y-62942253D01*
X126390030Y-62942253D01*
X126490872Y-62874872D01*
X126614378Y-62690033D01*
X126657747Y-62472000D01*
X126657747Y-60972000D01*
X126614378Y-60753967D01*
X126490872Y-60569128D01*
X126306033Y-60445622D01*
X126088000Y-60402253D01*
X125088000Y-60402253D01*
X124869967Y-60445622D01*
X124685128Y-60569128D01*
X124561622Y-60753967D01*
X124518253Y-60972000D01*
X124518253Y-61784274D01*
X123869328Y-62433200D01*
X119388003Y-62433200D01*
X119518800Y-62117428D01*
X119518800Y-61706852D01*
X119521170Y-61703305D01*
X119576800Y-61423634D01*
X119576800Y-61423630D01*
X119595583Y-61329201D01*
X119576800Y-61234772D01*
X119576800Y-58441928D01*
X119595583Y-58347499D01*
X119576800Y-58253070D01*
X119576800Y-58253066D01*
X119521170Y-57973395D01*
X119309256Y-57656244D01*
X119229198Y-57602751D01*
X119153990Y-57527543D01*
X119208872Y-57490872D01*
X119332378Y-57306033D01*
X119375747Y-57088000D01*
X119375747Y-55688000D01*
X119332378Y-55469967D01*
X119208872Y-55285128D01*
X119024033Y-55161622D01*
X118921665Y-55141260D01*
X118965547Y-55097378D01*
X119164800Y-54616339D01*
X119164800Y-54134240D01*
X119173381Y-54121398D01*
X119220541Y-53884309D01*
X119220541Y-53884308D01*
X119236464Y-53804259D01*
X119227445Y-53758919D01*
X119234847Y-53721709D01*
X119220541Y-53649788D01*
X119220541Y-52467924D01*
X119234847Y-52396003D01*
X119227445Y-52358792D01*
X119236464Y-52313452D01*
X119173381Y-51996314D01*
X119162838Y-51980535D01*
X119162838Y-51499413D01*
X118963585Y-51018374D01*
X118595414Y-50650203D01*
X118114375Y-50450950D01*
X117593701Y-50450950D01*
X117112662Y-50650203D01*
X116744491Y-51018374D01*
X116545238Y-51499413D01*
X116545238Y-52020087D01*
X116744491Y-52501126D01*
X117112662Y-52869297D01*
X117568913Y-53058282D01*
X117114624Y-53246455D01*
X116746453Y-53614626D01*
X116547200Y-54095665D01*
X116547200Y-54616339D01*
X116746453Y-55097378D01*
X117038463Y-55389388D01*
X116984622Y-55469967D01*
X116941253Y-55688000D01*
X116941253Y-57088000D01*
X116984622Y-57306033D01*
X117108128Y-57490872D01*
X117199701Y-57552059D01*
X117199701Y-57783213D01*
X117114624Y-57818453D01*
X116746453Y-58186624D01*
X116547200Y-58667663D01*
X116547200Y-59188337D01*
X116746453Y-59669376D01*
X117114624Y-60037547D01*
X117595663Y-60236800D01*
X117659200Y-60236800D01*
X117659200Y-60499053D01*
X117311979Y-60642877D01*
X116915677Y-61039179D01*
X116701200Y-61556972D01*
X116701200Y-62117428D01*
X116831997Y-62433200D01*
X116414673Y-62433200D01*
X115925590Y-61944118D01*
X115925588Y-54607386D01*
X115941512Y-54527331D01*
X115878429Y-54210193D01*
X115744129Y-54009198D01*
X115744127Y-54009196D01*
X115698784Y-53941335D01*
X115630922Y-53895991D01*
X114658401Y-52923471D01*
X114613054Y-52855604D01*
X114344197Y-52675960D01*
X114107108Y-52628800D01*
X114027058Y-52612877D01*
X113980800Y-52622078D01*
X113980800Y-52505427D01*
X113758711Y-51969256D01*
X113348344Y-51558889D01*
X112812173Y-51336800D01*
X112716474Y-51336800D01*
X114193075Y-49860200D01*
X120950281Y-49860200D01*
X121332849Y-50018665D01*
X121332849Y-50018665D01*
G37*
X121332849Y-50018665D02*
X121430051Y-50038000D01*
X140388790Y-50038000D01*
X142240000Y-51889210D01*
X142240000Y-63934790D01*
X140388790Y-65786000D01*
X139661505Y-65786000D01*
X139812559Y-65559932D01*
X139873991Y-65251091D01*
X139873991Y-65251087D01*
X139894733Y-65146810D01*
X139873991Y-65042532D01*
X139873991Y-62211473D01*
X139894734Y-62107191D01*
X139812559Y-61694067D01*
X139716878Y-61550872D01*
X139584800Y-61353203D01*
X139584800Y-60933772D01*
X139370323Y-60415979D01*
X138974021Y-60019677D01*
X138456228Y-59805200D01*
X137895772Y-59805200D01*
X137377979Y-60019677D01*
X136981677Y-60415979D01*
X136767200Y-60933772D01*
X136767200Y-61494228D01*
X136981677Y-62012021D01*
X137377979Y-62408323D01*
X137756391Y-62565067D01*
X137756392Y-64708239D01*
X136975431Y-65489200D01*
X127679633Y-65489200D01*
X127790872Y-65414872D01*
X127914378Y-65230033D01*
X127945255Y-65074800D01*
X130455956Y-65074800D01*
X130646979Y-65265823D01*
X131164772Y-65480300D01*
X131725228Y-65480300D01*
X132243021Y-65265823D01*
X132639323Y-64869521D01*
X132853800Y-64351728D01*
X132853800Y-63791272D01*
X132639323Y-63273479D01*
X132243021Y-62877177D01*
X131725228Y-62662700D01*
X131164772Y-62662700D01*
X130646979Y-62877177D01*
X130250677Y-63273479D01*
X130177891Y-63449200D01*
X127945255Y-63449200D01*
X127914378Y-63293967D01*
X127790872Y-63109128D01*
X127606033Y-62985622D01*
X127388000Y-62942253D01*
X126390030Y-62942253D01*
X126490872Y-62874872D01*
X126614378Y-62690033D01*
X126657747Y-62472000D01*
X126657747Y-60972000D01*
X126614378Y-60753967D01*
X126490872Y-60569128D01*
X126306033Y-60445622D01*
X126088000Y-60402253D01*
X125088000Y-60402253D01*
X124869967Y-60445622D01*
X124685128Y-60569128D01*
X124561622Y-60753967D01*
X124518253Y-60972000D01*
X124518253Y-61784274D01*
X123869328Y-62433200D01*
X119388003Y-62433200D01*
X119518800Y-62117428D01*
X119518800Y-61706852D01*
X119521170Y-61703305D01*
X119576800Y-61423634D01*
X119576800Y-61423630D01*
X119595583Y-61329201D01*
X119576800Y-61234772D01*
X119576800Y-58441928D01*
X119595583Y-58347499D01*
X119576800Y-58253070D01*
X119576800Y-58253066D01*
X119521170Y-57973395D01*
X119309256Y-57656244D01*
X119229198Y-57602751D01*
X119153990Y-57527543D01*
X119208872Y-57490872D01*
X119332378Y-57306033D01*
X119375747Y-57088000D01*
X119375747Y-55688000D01*
X119332378Y-55469967D01*
X119208872Y-55285128D01*
X119024033Y-55161622D01*
X118921665Y-55141260D01*
X118965547Y-55097378D01*
X119164800Y-54616339D01*
X119164800Y-54134240D01*
X119173381Y-54121398D01*
X119220541Y-53884309D01*
X119220541Y-53884308D01*
X119236464Y-53804259D01*
X119227445Y-53758919D01*
X119234847Y-53721709D01*
X119220541Y-53649788D01*
X119220541Y-52467924D01*
X119234847Y-52396003D01*
X119227445Y-52358792D01*
X119236464Y-52313452D01*
X119173381Y-51996314D01*
X119162838Y-51980535D01*
X119162838Y-51499413D01*
X118963585Y-51018374D01*
X118595414Y-50650203D01*
X118114375Y-50450950D01*
X117593701Y-50450950D01*
X117112662Y-50650203D01*
X116744491Y-51018374D01*
X116545238Y-51499413D01*
X116545238Y-52020087D01*
X116744491Y-52501126D01*
X117112662Y-52869297D01*
X117568913Y-53058282D01*
X117114624Y-53246455D01*
X116746453Y-53614626D01*
X116547200Y-54095665D01*
X116547200Y-54616339D01*
X116746453Y-55097378D01*
X117038463Y-55389388D01*
X116984622Y-55469967D01*
X116941253Y-55688000D01*
X116941253Y-57088000D01*
X116984622Y-57306033D01*
X117108128Y-57490872D01*
X117199701Y-57552059D01*
X117199701Y-57783213D01*
X117114624Y-57818453D01*
X116746453Y-58186624D01*
X116547200Y-58667663D01*
X116547200Y-59188337D01*
X116746453Y-59669376D01*
X117114624Y-60037547D01*
X117595663Y-60236800D01*
X117659200Y-60236800D01*
X117659200Y-60499053D01*
X117311979Y-60642877D01*
X116915677Y-61039179D01*
X116701200Y-61556972D01*
X116701200Y-62117428D01*
X116831997Y-62433200D01*
X116414673Y-62433200D01*
X115925590Y-61944118D01*
X115925588Y-54607386D01*
X115941512Y-54527331D01*
X115878429Y-54210193D01*
X115744129Y-54009198D01*
X115744127Y-54009196D01*
X115698784Y-53941335D01*
X115630922Y-53895991D01*
X114658401Y-52923471D01*
X114613054Y-52855604D01*
X114344197Y-52675960D01*
X114107108Y-52628800D01*
X114027058Y-52612877D01*
X113980800Y-52622078D01*
X113980800Y-52505427D01*
X113758711Y-51969256D01*
X113348344Y-51558889D01*
X112812173Y-51336800D01*
X112716474Y-51336800D01*
X114193075Y-49860200D01*
X120950281Y-49860200D01*
X121332849Y-50018665D01*
G36*
X247575000Y-42638210D02*
X247575000Y-63787790D01*
X245068790Y-66294000D01*
X188673523Y-66294000D01*
X188685856Y-66232000D01*
X188685856Y-64832000D01*
X188567576Y-64237365D01*
X188230742Y-63733258D01*
X187726635Y-63396424D01*
X187132000Y-63278144D01*
X185837000Y-63278144D01*
X185242365Y-63396424D01*
X184738258Y-63733258D01*
X184481034Y-64118221D01*
X184175400Y-63812587D01*
X184175400Y-54499271D01*
X184211477Y-54317900D01*
X184068555Y-53599382D01*
X183661547Y-52990253D01*
X183214075Y-52691261D01*
X178610814Y-48088000D01*
X227175983Y-48088000D01*
X227643517Y-50438448D01*
X228638854Y-51928076D01*
X234171220Y-57460443D01*
X234671220Y-58667549D01*
X236506451Y-60502780D01*
X238904296Y-61496000D01*
X241499704Y-61496000D01*
X243897549Y-60502780D01*
X245732780Y-58667549D01*
X246726000Y-56269704D01*
X246726000Y-53674296D01*
X245732780Y-51276451D01*
X243897549Y-49441220D01*
X242690443Y-48941220D01*
X237158076Y-43408854D01*
X235668448Y-42413517D01*
X233318000Y-41945983D01*
X230967552Y-42413517D01*
X228974939Y-43744939D01*
X227643517Y-45737552D01*
X227175983Y-48088000D01*
X178610814Y-48088000D01*
X177393027Y-46870214D01*
X177290287Y-46716453D01*
X176681158Y-46309445D01*
X176144011Y-46202600D01*
X176144007Y-46202600D01*
X175962640Y-46166524D01*
X175781273Y-46202600D01*
X123190000Y-46202600D01*
X123190000Y-43221210D01*
X126279210Y-40132000D01*
X245068790Y-40132000D01*
X247575000Y-42638210D01*
X247575000Y-42638210D01*
G37*
X247575000Y-42638210D02*
X247575000Y-63787790D01*
X245068790Y-66294000D01*
X188673523Y-66294000D01*
X188685856Y-66232000D01*
X188685856Y-64832000D01*
X188567576Y-64237365D01*
X188230742Y-63733258D01*
X187726635Y-63396424D01*
X187132000Y-63278144D01*
X185837000Y-63278144D01*
X185242365Y-63396424D01*
X184738258Y-63733258D01*
X184481034Y-64118221D01*
X184175400Y-63812587D01*
X184175400Y-54499271D01*
X184211477Y-54317900D01*
X184068555Y-53599382D01*
X183661547Y-52990253D01*
X183214075Y-52691261D01*
X178610814Y-48088000D01*
X227175983Y-48088000D01*
X227643517Y-50438448D01*
X228638854Y-51928076D01*
X234171220Y-57460443D01*
X234671220Y-58667549D01*
X236506451Y-60502780D01*
X238904296Y-61496000D01*
X241499704Y-61496000D01*
X243897549Y-60502780D01*
X245732780Y-58667549D01*
X246726000Y-56269704D01*
X246726000Y-53674296D01*
X245732780Y-51276451D01*
X243897549Y-49441220D01*
X242690443Y-48941220D01*
X237158076Y-43408854D01*
X235668448Y-42413517D01*
X233318000Y-41945983D01*
X230967552Y-42413517D01*
X228974939Y-43744939D01*
X227643517Y-45737552D01*
X227175983Y-48088000D01*
X178610814Y-48088000D01*
X177393027Y-46870214D01*
X177290287Y-46716453D01*
X176681158Y-46309445D01*
X176144011Y-46202600D01*
X176144007Y-46202600D01*
X175962640Y-46166524D01*
X175781273Y-46202600D01*
X123190000Y-46202600D01*
X123190000Y-43221210D01*
X126279210Y-40132000D01*
X245068790Y-40132000D01*
X247575000Y-42638210D01*
G36*
X182651974Y-68826788D02*
X182754713Y-68980547D01*
X183363842Y-69387555D01*
X183900989Y-69494400D01*
X183900992Y-69494400D01*
X184082360Y-69530476D01*
X184263727Y-69494400D01*
X184283144Y-69494400D01*
X184283144Y-69534000D01*
X184401424Y-70128635D01*
X184738258Y-70632742D01*
X185242365Y-70969576D01*
X185837000Y-71087856D01*
X187132000Y-71087856D01*
X187726635Y-70969576D01*
X188230742Y-70632742D01*
X188567576Y-70128635D01*
X188685856Y-69534000D01*
X188685856Y-68134000D01*
X188673523Y-68072000D01*
X245068790Y-68072000D01*
X247575000Y-70578210D01*
X247575000Y-87917790D01*
X245068790Y-90424000D01*
X185188621Y-90424000D01*
X180312329Y-86660363D01*
X178811126Y-80928497D01*
X178767795Y-80839365D01*
X178720607Y-80791776D01*
X177447194Y-79808926D01*
X177380124Y-79771777D01*
X175635369Y-79126350D01*
X175594525Y-79091341D01*
X174752000Y-77259507D01*
X174752000Y-74632420D01*
X174732665Y-74535218D01*
X174224665Y-73308798D01*
X174169605Y-73226395D01*
X174087202Y-73171335D01*
X173414333Y-72892623D01*
X173025222Y-72310278D01*
X172856227Y-72197359D01*
X172379856Y-71720988D01*
X172379856Y-71432000D01*
X172358743Y-71325856D01*
X172990000Y-71325856D01*
X173584635Y-71207576D01*
X174088742Y-70870742D01*
X174425576Y-70366635D01*
X174543856Y-69772000D01*
X174543856Y-68072000D01*
X181897186Y-68072000D01*
X182651974Y-68826788D01*
X182651974Y-68826788D01*
G37*
X182651974Y-68826788D02*
X182754713Y-68980547D01*
X183363842Y-69387555D01*
X183900989Y-69494400D01*
X183900992Y-69494400D01*
X184082360Y-69530476D01*
X184263727Y-69494400D01*
X184283144Y-69494400D01*
X184283144Y-69534000D01*
X184401424Y-70128635D01*
X184738258Y-70632742D01*
X185242365Y-70969576D01*
X185837000Y-71087856D01*
X187132000Y-71087856D01*
X187726635Y-70969576D01*
X188230742Y-70632742D01*
X188567576Y-70128635D01*
X188685856Y-69534000D01*
X188685856Y-68134000D01*
X188673523Y-68072000D01*
X245068790Y-68072000D01*
X247575000Y-70578210D01*
X247575000Y-87917790D01*
X245068790Y-90424000D01*
X185188621Y-90424000D01*
X180312329Y-86660363D01*
X178811126Y-80928497D01*
X178767795Y-80839365D01*
X178720607Y-80791776D01*
X177447194Y-79808926D01*
X177380124Y-79771777D01*
X175635369Y-79126350D01*
X175594525Y-79091341D01*
X174752000Y-77259507D01*
X174752000Y-74632420D01*
X174732665Y-74535218D01*
X174224665Y-73308798D01*
X174169605Y-73226395D01*
X174087202Y-73171335D01*
X173414333Y-72892623D01*
X173025222Y-72310278D01*
X172856227Y-72197359D01*
X172379856Y-71720988D01*
X172379856Y-71432000D01*
X172358743Y-71325856D01*
X172990000Y-71325856D01*
X173584635Y-71207576D01*
X174088742Y-70870742D01*
X174425576Y-70366635D01*
X174543856Y-69772000D01*
X174543856Y-68072000D01*
X181897186Y-68072000D01*
X182651974Y-68826788D01*
G36*
X167472144Y-68397000D02*
X167472144Y-69792000D01*
X167590424Y-70386635D01*
X167741008Y-70612000D01*
X167590424Y-70837365D01*
X167472144Y-71432000D01*
X167472144Y-72827000D01*
X167590424Y-73421635D01*
X167927258Y-73925742D01*
X168431365Y-74262576D01*
X168692368Y-74314492D01*
X168421335Y-74968824D01*
X168402000Y-75066026D01*
X168402000Y-76475790D01*
X166179500Y-78698290D01*
X163830000Y-76348790D01*
X163830000Y-71923210D01*
X167500931Y-68252279D01*
X167472144Y-68397000D01*
X167472144Y-68397000D01*
G37*
X167472144Y-68397000D02*
X167472144Y-69792000D01*
X167590424Y-70386635D01*
X167741008Y-70612000D01*
X167590424Y-70837365D01*
X167472144Y-71432000D01*
X167472144Y-72827000D01*
X167590424Y-73421635D01*
X167927258Y-73925742D01*
X168431365Y-74262576D01*
X168692368Y-74314492D01*
X168421335Y-74968824D01*
X168402000Y-75066026D01*
X168402000Y-76475790D01*
X166179500Y-78698290D01*
X163830000Y-76348790D01*
X163830000Y-71923210D01*
X167500931Y-68252279D01*
X167472144Y-68397000D01*
G36*
X187385114Y-92455984D02*
X187388000Y-92456000D01*
X245068790Y-92456000D01*
X247575001Y-94962211D01*
X247575001Y-118397789D01*
X245068790Y-120904000D01*
X188722023Y-120904000D01*
X188734356Y-120842000D01*
X188734356Y-119442000D01*
X188616076Y-118847365D01*
X188279242Y-118343258D01*
X187775135Y-118006424D01*
X187180500Y-117888144D01*
X185885500Y-117888144D01*
X185290865Y-118006424D01*
X184786758Y-118343258D01*
X184449924Y-118847365D01*
X184331644Y-119442000D01*
X184331644Y-119505850D01*
X183809060Y-119505850D01*
X181356000Y-117052790D01*
X181356000Y-104267000D01*
X181336665Y-104169798D01*
X181281605Y-104087395D01*
X179923447Y-102729237D01*
X179923447Y-102398000D01*
X179797281Y-101763722D01*
X179437992Y-101226008D01*
X178900278Y-100866719D01*
X178266000Y-100740553D01*
X177934763Y-100740553D01*
X177852605Y-100658395D01*
X177770202Y-100603335D01*
X177673000Y-100584000D01*
X174927916Y-100584000D01*
X174830714Y-100603335D01*
X174785516Y-100627671D01*
X173847600Y-101262671D01*
X173777950Y-101333175D01*
X173740583Y-101424967D01*
X173486583Y-102743883D01*
X173482000Y-102791916D01*
X173482000Y-104669790D01*
X171577000Y-106574790D01*
X169672000Y-104669790D01*
X169672000Y-100947856D01*
X170054000Y-100947856D01*
X170648635Y-100829576D01*
X171152742Y-100492742D01*
X171489576Y-99988635D01*
X171607856Y-99394000D01*
X171607856Y-96694000D01*
X171489576Y-96099365D01*
X171152742Y-95595258D01*
X170648635Y-95258424D01*
X170324100Y-95193870D01*
X170718788Y-94241009D01*
X170839365Y-94321576D01*
X171434000Y-94439856D01*
X172929000Y-94439856D01*
X173523635Y-94321576D01*
X174027742Y-93984742D01*
X174364576Y-93480635D01*
X174482856Y-92886000D01*
X174482856Y-92703500D01*
X174589258Y-92862742D01*
X175093365Y-93199576D01*
X175688000Y-93317856D01*
X178388000Y-93317856D01*
X178982635Y-93199576D01*
X179486742Y-92862742D01*
X179815994Y-92369982D01*
X187385114Y-92455984D01*
X187385114Y-92455984D01*
G37*
X187385114Y-92455984D02*
X187388000Y-92456000D01*
X245068790Y-92456000D01*
X247575001Y-94962211D01*
X247575001Y-118397789D01*
X245068790Y-120904000D01*
X188722023Y-120904000D01*
X188734356Y-120842000D01*
X188734356Y-119442000D01*
X188616076Y-118847365D01*
X188279242Y-118343258D01*
X187775135Y-118006424D01*
X187180500Y-117888144D01*
X185885500Y-117888144D01*
X185290865Y-118006424D01*
X184786758Y-118343258D01*
X184449924Y-118847365D01*
X184331644Y-119442000D01*
X184331644Y-119505850D01*
X183809060Y-119505850D01*
X181356000Y-117052790D01*
X181356000Y-104267000D01*
X181336665Y-104169798D01*
X181281605Y-104087395D01*
X179923447Y-102729237D01*
X179923447Y-102398000D01*
X179797281Y-101763722D01*
X179437992Y-101226008D01*
X178900278Y-100866719D01*
X178266000Y-100740553D01*
X177934763Y-100740553D01*
X177852605Y-100658395D01*
X177770202Y-100603335D01*
X177673000Y-100584000D01*
X174927916Y-100584000D01*
X174830714Y-100603335D01*
X174785516Y-100627671D01*
X173847600Y-101262671D01*
X173777950Y-101333175D01*
X173740583Y-101424967D01*
X173486583Y-102743883D01*
X173482000Y-102791916D01*
X173482000Y-104669790D01*
X171577000Y-106574790D01*
X169672000Y-104669790D01*
X169672000Y-100947856D01*
X170054000Y-100947856D01*
X170648635Y-100829576D01*
X171152742Y-100492742D01*
X171489576Y-99988635D01*
X171607856Y-99394000D01*
X171607856Y-96694000D01*
X171489576Y-96099365D01*
X171152742Y-95595258D01*
X170648635Y-95258424D01*
X170324100Y-95193870D01*
X170718788Y-94241009D01*
X170839365Y-94321576D01*
X171434000Y-94439856D01*
X172929000Y-94439856D01*
X173523635Y-94321576D01*
X174027742Y-93984742D01*
X174364576Y-93480635D01*
X174482856Y-92886000D01*
X174482856Y-92703500D01*
X174589258Y-92862742D01*
X175093365Y-93199576D01*
X175688000Y-93317856D01*
X178388000Y-93317856D01*
X178982635Y-93199576D01*
X179486742Y-92862742D01*
X179815994Y-92369982D01*
X187385114Y-92455984D01*
G36*
X247575001Y-125188211D02*
X247575001Y-144305789D01*
X245068790Y-146812000D01*
X141973416Y-146812000D01*
X135278205Y-143985607D01*
X131378830Y-139979400D01*
X179591273Y-139979400D01*
X179772640Y-140015476D01*
X179954007Y-139979400D01*
X179954011Y-139979400D01*
X180491158Y-139872555D01*
X181100287Y-139465547D01*
X181203027Y-139311786D01*
X183507791Y-137007024D01*
X183661547Y-136904287D01*
X183764283Y-136750532D01*
X183764286Y-136750529D01*
X184068555Y-136295158D01*
X184145987Y-135905878D01*
X184175400Y-135758011D01*
X184175400Y-135758008D01*
X184211476Y-135576640D01*
X184175400Y-135395273D01*
X184175400Y-124655413D01*
X184350117Y-124480696D01*
X184401424Y-124738635D01*
X184738258Y-125242742D01*
X185242365Y-125579576D01*
X185837000Y-125697856D01*
X187132000Y-125697856D01*
X187726635Y-125579576D01*
X188230742Y-125242742D01*
X188567576Y-124738635D01*
X188685856Y-124144000D01*
X188685856Y-122744000D01*
X188673523Y-122682000D01*
X245068790Y-122682000D01*
X247575001Y-125188211D01*
X247575001Y-125188211D01*
G37*
X247575001Y-125188211D02*
X247575001Y-144305789D01*
X245068790Y-146812000D01*
X141973416Y-146812000D01*
X135278205Y-143985607D01*
X131378830Y-139979400D01*
X179591273Y-139979400D01*
X179772640Y-140015476D01*
X179954007Y-139979400D01*
X179954011Y-139979400D01*
X180491158Y-139872555D01*
X181100287Y-139465547D01*
X181203027Y-139311786D01*
X183507791Y-137007024D01*
X183661547Y-136904287D01*
X183764283Y-136750532D01*
X183764286Y-136750529D01*
X184068555Y-136295158D01*
X184145987Y-135905878D01*
X184175400Y-135758011D01*
X184175400Y-135758008D01*
X184211476Y-135576640D01*
X184175400Y-135395273D01*
X184175400Y-124655413D01*
X184350117Y-124480696D01*
X184401424Y-124738635D01*
X184738258Y-125242742D01*
X185242365Y-125579576D01*
X185837000Y-125697856D01*
X187132000Y-125697856D01*
X187726635Y-125579576D01*
X188230742Y-125242742D01*
X188567576Y-124738635D01*
X188685856Y-124144000D01*
X188685856Y-122744000D01*
X188673523Y-122682000D01*
X245068790Y-122682000D01*
X247575001Y-125188211D01*
G36*
X130302000Y-97196210D02*
X130302000Y-107696000D01*
X120741262Y-107696000D01*
X119634000Y-106588738D01*
X119634000Y-97196210D01*
X123485210Y-93345000D01*
X126450790Y-93345000D01*
X130302000Y-97196210D01*
X130302000Y-97196210D01*
G37*
X130302000Y-97196210D02*
X130302000Y-107696000D01*
X120741262Y-107696000D01*
X119634000Y-106588738D01*
X119634000Y-97196210D01*
X123485210Y-93345000D01*
X126450790Y-93345000D01*
X130302000Y-97196210D01*
G36*
X175196036Y-51541592D02*
X178308000Y-54667296D01*
X178308000Y-62548000D01*
X178424008Y-63131210D01*
X178754369Y-63625631D01*
X179552600Y-64423862D01*
X179552600Y-64783272D01*
X179525847Y-64917768D01*
X179025000Y-64818144D01*
X177530000Y-64818144D01*
X176935365Y-64936424D01*
X176431258Y-65273258D01*
X176094424Y-65777365D01*
X175991659Y-66294000D01*
X174528341Y-66294000D01*
X174425576Y-65777365D01*
X174088742Y-65273258D01*
X173584635Y-64936424D01*
X172990000Y-64818144D01*
X171495000Y-64818144D01*
X170900365Y-64936424D01*
X170396258Y-65273258D01*
X170059424Y-65777365D01*
X169956659Y-66294000D01*
X167576000Y-66294000D01*
X166992790Y-66410008D01*
X166498369Y-66740369D01*
X162498369Y-70740369D01*
X162168008Y-71234790D01*
X162052000Y-71818000D01*
X162052000Y-76454000D01*
X162168008Y-77037210D01*
X162498369Y-77531631D01*
X163208553Y-78241815D01*
X163208553Y-78704000D01*
X163334719Y-79338278D01*
X163694008Y-79875992D01*
X164231722Y-80235281D01*
X164358255Y-80260450D01*
X164530345Y-80518000D01*
X164656779Y-80707222D01*
X164825774Y-80820141D01*
X166163633Y-82158000D01*
X166070144Y-82628000D01*
X166070144Y-86028000D01*
X166188424Y-86622635D01*
X166525258Y-87126742D01*
X167029365Y-87463576D01*
X167624000Y-87581856D01*
X169119000Y-87581856D01*
X169713635Y-87463576D01*
X170217742Y-87126742D01*
X170344517Y-86937010D01*
X170384424Y-87137635D01*
X170696000Y-87603942D01*
X170696001Y-88146217D01*
X170335258Y-88387258D01*
X169998424Y-88891365D01*
X169880144Y-89486000D01*
X169880144Y-92173139D01*
X169737369Y-92267369D01*
X169497190Y-92626823D01*
X168447856Y-91577489D01*
X168447856Y-89486000D01*
X168329576Y-88891365D01*
X167992742Y-88387258D01*
X167488635Y-88050424D01*
X166894000Y-87932144D01*
X165399000Y-87932144D01*
X164804365Y-88050424D01*
X164300258Y-88387258D01*
X164091240Y-88700075D01*
X164091240Y-87187882D01*
X164182742Y-87126742D01*
X164519576Y-86622635D01*
X164637856Y-86028000D01*
X164637856Y-82628000D01*
X164519576Y-82033365D01*
X164182742Y-81529258D01*
X163678635Y-81192424D01*
X163084000Y-81074144D01*
X161589000Y-81074144D01*
X160994365Y-81192424D01*
X160490258Y-81529258D01*
X160153424Y-82033365D01*
X160035144Y-82628000D01*
X160035144Y-84438622D01*
X160003589Y-84597260D01*
X160035144Y-84755898D01*
X160035144Y-86028000D01*
X160043241Y-86068705D01*
X160043240Y-91479416D01*
X160043240Y-92979441D01*
X160003589Y-93178780D01*
X160043240Y-93378119D01*
X160043240Y-93378123D01*
X160043241Y-93378126D01*
X160043240Y-96191420D01*
X160003589Y-96390760D01*
X160043240Y-96590099D01*
X160043240Y-96590103D01*
X160160674Y-97180484D01*
X160432370Y-97587106D01*
X160478424Y-97818635D01*
X160815258Y-98322742D01*
X161319365Y-98659576D01*
X161914000Y-98777856D01*
X163372427Y-98777856D01*
X163378498Y-98786942D01*
X163547496Y-98899863D01*
X163981857Y-99334224D01*
X164094778Y-99503222D01*
X164764275Y-99950566D01*
X165143373Y-100025973D01*
X165455258Y-100492742D01*
X165959365Y-100829576D01*
X166554000Y-100947856D01*
X167894000Y-100947856D01*
X167894000Y-104775000D01*
X168010008Y-105358210D01*
X168340369Y-105852631D01*
X168757800Y-106270062D01*
X168857244Y-106770002D01*
X169492808Y-107721191D01*
X170443997Y-108356756D01*
X171007169Y-108468778D01*
X170650258Y-108707258D01*
X170313424Y-109211365D01*
X170195144Y-109806000D01*
X170195144Y-110290230D01*
X170064000Y-110264144D01*
X168264000Y-110264144D01*
X167669365Y-110382424D01*
X167165258Y-110719258D01*
X166828424Y-111223365D01*
X166710144Y-111818000D01*
X166710144Y-113213000D01*
X166828424Y-113807635D01*
X167165258Y-114311742D01*
X167669365Y-114648576D01*
X168264000Y-114766856D01*
X170064000Y-114766856D01*
X170658635Y-114648576D01*
X170821879Y-114539500D01*
X171001598Y-114539500D01*
X171154365Y-114641576D01*
X171749000Y-114759856D01*
X173244000Y-114759856D01*
X173838635Y-114641576D01*
X174342742Y-114304742D01*
X174679576Y-113800635D01*
X174797856Y-113206000D01*
X174797856Y-110860075D01*
X174845999Y-110869651D01*
X175045338Y-110830000D01*
X175945633Y-110830000D01*
X176230144Y-111114512D01*
X176230144Y-113206000D01*
X176348424Y-113800635D01*
X176685258Y-114304742D01*
X177189365Y-114641576D01*
X177784000Y-114759856D01*
X179279000Y-114759856D01*
X179578000Y-114700381D01*
X179578000Y-123194295D01*
X179552600Y-123321990D01*
X179552600Y-123321993D01*
X179516524Y-123503360D01*
X179552600Y-123684728D01*
X179552601Y-134318189D01*
X178514190Y-135356600D01*
X162701165Y-135356600D01*
X162951992Y-134981210D01*
X163068000Y-134398000D01*
X163068000Y-124508000D01*
X168073289Y-124508000D01*
X168339156Y-125844603D01*
X169096280Y-126977720D01*
X170229397Y-127734844D01*
X171228610Y-127933600D01*
X171903390Y-127933600D01*
X172902603Y-127734844D01*
X174035720Y-126977720D01*
X174792844Y-125844603D01*
X175058711Y-124508000D01*
X174792844Y-123171397D01*
X174035720Y-122038280D01*
X172902603Y-121281156D01*
X171903390Y-121082400D01*
X171228610Y-121082400D01*
X170229397Y-121281156D01*
X169096280Y-122038280D01*
X168339156Y-123171397D01*
X168073289Y-124508000D01*
X163068000Y-124508000D01*
X163068000Y-111220000D01*
X162951992Y-110636790D01*
X162621631Y-110142369D01*
X160621631Y-108142369D01*
X160127210Y-107812008D01*
X159544000Y-107696000D01*
X120741262Y-107696000D01*
X119634000Y-106588738D01*
X119634000Y-100037577D01*
X120182000Y-100037577D01*
X120182000Y-101638423D01*
X120794617Y-103117413D01*
X121926587Y-104249383D01*
X123405577Y-104862000D01*
X125006423Y-104862000D01*
X126485413Y-104249383D01*
X127617383Y-103117413D01*
X128230000Y-101638423D01*
X128230000Y-100037577D01*
X127617383Y-98558587D01*
X126485413Y-97426617D01*
X125006423Y-96814000D01*
X123405577Y-96814000D01*
X121926587Y-97426617D01*
X120794617Y-98558587D01*
X120182000Y-100037577D01*
X119634000Y-100037577D01*
X119634000Y-69876810D01*
X120628425Y-69876810D01*
X120182000Y-70954577D01*
X120182000Y-72555423D01*
X120794617Y-74034413D01*
X121926587Y-75166383D01*
X123405577Y-75779000D01*
X125006423Y-75779000D01*
X126485413Y-75166383D01*
X127617383Y-74034413D01*
X128230000Y-72555423D01*
X128230000Y-70954577D01*
X127783575Y-69876810D01*
X137755130Y-69876810D01*
X137954469Y-69916461D01*
X138153808Y-69876810D01*
X138153813Y-69876810D01*
X138744194Y-69759376D01*
X139413691Y-69312032D01*
X139526612Y-69143034D01*
X141410228Y-67259419D01*
X141579223Y-67146500D01*
X141652644Y-67036618D01*
X143571631Y-65117631D01*
X143901992Y-64623210D01*
X144018000Y-64040000D01*
X144018000Y-56594000D01*
X168073289Y-56594000D01*
X168339156Y-57930603D01*
X169096280Y-59063720D01*
X170229397Y-59820844D01*
X171228610Y-60019600D01*
X171903390Y-60019600D01*
X172902603Y-59820844D01*
X174035720Y-59063720D01*
X174792844Y-57930603D01*
X175058711Y-56594000D01*
X174792844Y-55257397D01*
X174035720Y-54124280D01*
X172902603Y-53367156D01*
X171903390Y-53168400D01*
X171228610Y-53168400D01*
X170229397Y-53367156D01*
X169096280Y-54124280D01*
X168339156Y-55257397D01*
X168073289Y-56594000D01*
X144018000Y-56594000D01*
X144018000Y-51784000D01*
X143942395Y-51403911D01*
X175196036Y-51541592D01*
X175196036Y-51541592D01*
G37*
X175196036Y-51541592D02*
X178308000Y-54667296D01*
X178308000Y-62548000D01*
X178424008Y-63131210D01*
X178754369Y-63625631D01*
X179552600Y-64423862D01*
X179552600Y-64783272D01*
X179525847Y-64917768D01*
X179025000Y-64818144D01*
X177530000Y-64818144D01*
X176935365Y-64936424D01*
X176431258Y-65273258D01*
X176094424Y-65777365D01*
X175991659Y-66294000D01*
X174528341Y-66294000D01*
X174425576Y-65777365D01*
X174088742Y-65273258D01*
X173584635Y-64936424D01*
X172990000Y-64818144D01*
X171495000Y-64818144D01*
X170900365Y-64936424D01*
X170396258Y-65273258D01*
X170059424Y-65777365D01*
X169956659Y-66294000D01*
X167576000Y-66294000D01*
X166992790Y-66410008D01*
X166498369Y-66740369D01*
X162498369Y-70740369D01*
X162168008Y-71234790D01*
X162052000Y-71818000D01*
X162052000Y-76454000D01*
X162168008Y-77037210D01*
X162498369Y-77531631D01*
X163208553Y-78241815D01*
X163208553Y-78704000D01*
X163334719Y-79338278D01*
X163694008Y-79875992D01*
X164231722Y-80235281D01*
X164358255Y-80260450D01*
X164530345Y-80518000D01*
X164656779Y-80707222D01*
X164825774Y-80820141D01*
X166163633Y-82158000D01*
X166070144Y-82628000D01*
X166070144Y-86028000D01*
X166188424Y-86622635D01*
X166525258Y-87126742D01*
X167029365Y-87463576D01*
X167624000Y-87581856D01*
X169119000Y-87581856D01*
X169713635Y-87463576D01*
X170217742Y-87126742D01*
X170344517Y-86937010D01*
X170384424Y-87137635D01*
X170696000Y-87603942D01*
X170696001Y-88146217D01*
X170335258Y-88387258D01*
X169998424Y-88891365D01*
X169880144Y-89486000D01*
X169880144Y-92173139D01*
X169737369Y-92267369D01*
X169497190Y-92626823D01*
X168447856Y-91577489D01*
X168447856Y-89486000D01*
X168329576Y-88891365D01*
X167992742Y-88387258D01*
X167488635Y-88050424D01*
X166894000Y-87932144D01*
X165399000Y-87932144D01*
X164804365Y-88050424D01*
X164300258Y-88387258D01*
X164091240Y-88700075D01*
X164091240Y-87187882D01*
X164182742Y-87126742D01*
X164519576Y-86622635D01*
X164637856Y-86028000D01*
X164637856Y-82628000D01*
X164519576Y-82033365D01*
X164182742Y-81529258D01*
X163678635Y-81192424D01*
X163084000Y-81074144D01*
X161589000Y-81074144D01*
X160994365Y-81192424D01*
X160490258Y-81529258D01*
X160153424Y-82033365D01*
X160035144Y-82628000D01*
X160035144Y-84438622D01*
X160003589Y-84597260D01*
X160035144Y-84755898D01*
X160035144Y-86028000D01*
X160043241Y-86068705D01*
X160043240Y-91479416D01*
X160043240Y-92979441D01*
X160003589Y-93178780D01*
X160043240Y-93378119D01*
X160043240Y-93378123D01*
X160043241Y-93378126D01*
X160043240Y-96191420D01*
X160003589Y-96390760D01*
X160043240Y-96590099D01*
X160043240Y-96590103D01*
X160160674Y-97180484D01*
X160432370Y-97587106D01*
X160478424Y-97818635D01*
X160815258Y-98322742D01*
X161319365Y-98659576D01*
X161914000Y-98777856D01*
X163372427Y-98777856D01*
X163378498Y-98786942D01*
X163547496Y-98899863D01*
X163981857Y-99334224D01*
X164094778Y-99503222D01*
X164764275Y-99950566D01*
X165143373Y-100025973D01*
X165455258Y-100492742D01*
X165959365Y-100829576D01*
X166554000Y-100947856D01*
X167894000Y-100947856D01*
X167894000Y-104775000D01*
X168010008Y-105358210D01*
X168340369Y-105852631D01*
X168757800Y-106270062D01*
X168857244Y-106770002D01*
X169492808Y-107721191D01*
X170443997Y-108356756D01*
X171007169Y-108468778D01*
X170650258Y-108707258D01*
X170313424Y-109211365D01*
X170195144Y-109806000D01*
X170195144Y-110290230D01*
X170064000Y-110264144D01*
X168264000Y-110264144D01*
X167669365Y-110382424D01*
X167165258Y-110719258D01*
X166828424Y-111223365D01*
X166710144Y-111818000D01*
X166710144Y-113213000D01*
X166828424Y-113807635D01*
X167165258Y-114311742D01*
X167669365Y-114648576D01*
X168264000Y-114766856D01*
X170064000Y-114766856D01*
X170658635Y-114648576D01*
X170821879Y-114539500D01*
X171001598Y-114539500D01*
X171154365Y-114641576D01*
X171749000Y-114759856D01*
X173244000Y-114759856D01*
X173838635Y-114641576D01*
X174342742Y-114304742D01*
X174679576Y-113800635D01*
X174797856Y-113206000D01*
X174797856Y-110860075D01*
X174845999Y-110869651D01*
X175045338Y-110830000D01*
X175945633Y-110830000D01*
X176230144Y-111114512D01*
X176230144Y-113206000D01*
X176348424Y-113800635D01*
X176685258Y-114304742D01*
X177189365Y-114641576D01*
X177784000Y-114759856D01*
X179279000Y-114759856D01*
X179578000Y-114700381D01*
X179578000Y-123194295D01*
X179552600Y-123321990D01*
X179552600Y-123321993D01*
X179516524Y-123503360D01*
X179552600Y-123684728D01*
X179552601Y-134318189D01*
X178514190Y-135356600D01*
X162701165Y-135356600D01*
X162951992Y-134981210D01*
X163068000Y-134398000D01*
X163068000Y-124508000D01*
X168073289Y-124508000D01*
X168339156Y-125844603D01*
X169096280Y-126977720D01*
X170229397Y-127734844D01*
X171228610Y-127933600D01*
X171903390Y-127933600D01*
X172902603Y-127734844D01*
X174035720Y-126977720D01*
X174792844Y-125844603D01*
X175058711Y-124508000D01*
X174792844Y-123171397D01*
X174035720Y-122038280D01*
X172902603Y-121281156D01*
X171903390Y-121082400D01*
X171228610Y-121082400D01*
X170229397Y-121281156D01*
X169096280Y-122038280D01*
X168339156Y-123171397D01*
X168073289Y-124508000D01*
X163068000Y-124508000D01*
X163068000Y-111220000D01*
X162951992Y-110636790D01*
X162621631Y-110142369D01*
X160621631Y-108142369D01*
X160127210Y-107812008D01*
X159544000Y-107696000D01*
X120741262Y-107696000D01*
X119634000Y-106588738D01*
X119634000Y-100037577D01*
X120182000Y-100037577D01*
X120182000Y-101638423D01*
X120794617Y-103117413D01*
X121926587Y-104249383D01*
X123405577Y-104862000D01*
X125006423Y-104862000D01*
X126485413Y-104249383D01*
X127617383Y-103117413D01*
X128230000Y-101638423D01*
X128230000Y-100037577D01*
X127617383Y-98558587D01*
X126485413Y-97426617D01*
X125006423Y-96814000D01*
X123405577Y-96814000D01*
X121926587Y-97426617D01*
X120794617Y-98558587D01*
X120182000Y-100037577D01*
X119634000Y-100037577D01*
X119634000Y-69876810D01*
X120628425Y-69876810D01*
X120182000Y-70954577D01*
X120182000Y-72555423D01*
X120794617Y-74034413D01*
X121926587Y-75166383D01*
X123405577Y-75779000D01*
X125006423Y-75779000D01*
X126485413Y-75166383D01*
X127617383Y-74034413D01*
X128230000Y-72555423D01*
X128230000Y-70954577D01*
X127783575Y-69876810D01*
X137755130Y-69876810D01*
X137954469Y-69916461D01*
X138153808Y-69876810D01*
X138153813Y-69876810D01*
X138744194Y-69759376D01*
X139413691Y-69312032D01*
X139526612Y-69143034D01*
X141410228Y-67259419D01*
X141579223Y-67146500D01*
X141652644Y-67036618D01*
X143571631Y-65117631D01*
X143901992Y-64623210D01*
X144018000Y-64040000D01*
X144018000Y-56594000D01*
X168073289Y-56594000D01*
X168339156Y-57930603D01*
X169096280Y-59063720D01*
X170229397Y-59820844D01*
X171228610Y-60019600D01*
X171903390Y-60019600D01*
X172902603Y-59820844D01*
X174035720Y-59063720D01*
X174792844Y-57930603D01*
X175058711Y-56594000D01*
X174792844Y-55257397D01*
X174035720Y-54124280D01*
X172902603Y-53367156D01*
X171903390Y-53168400D01*
X171228610Y-53168400D01*
X170229397Y-53367156D01*
X169096280Y-54124280D01*
X168339156Y-55257397D01*
X168073289Y-56594000D01*
X144018000Y-56594000D01*
X144018000Y-51784000D01*
X143942395Y-51403911D01*
X175196036Y-51541592D01*
G36*
X172823581Y-74572419D02*
X172974000Y-74935562D01*
X172974000Y-77315118D01*
X173113426Y-77951932D01*
X174002426Y-79884814D01*
X174395192Y-80405106D01*
X174501657Y-80496362D01*
X174252424Y-80869365D01*
X174134144Y-81464000D01*
X174134144Y-83696413D01*
X173620000Y-83594144D01*
X171820000Y-83594144D01*
X171225365Y-83712424D01*
X170721258Y-84049258D01*
X170672856Y-84121697D01*
X170672856Y-82628000D01*
X170554576Y-82033365D01*
X170395500Y-81795291D01*
X170395500Y-81702839D01*
X170435151Y-81503500D01*
X170395500Y-81304161D01*
X170395500Y-81304156D01*
X170278066Y-80713775D01*
X169830722Y-80044278D01*
X169661727Y-79931359D01*
X168925712Y-79195345D01*
X169023447Y-78704000D01*
X169023447Y-78368815D01*
X169733631Y-77658631D01*
X170063992Y-77164210D01*
X170180000Y-76581000D01*
X170180000Y-75369167D01*
X170457419Y-74699419D01*
X171127167Y-74422000D01*
X172460438Y-74422000D01*
X172823581Y-74572419D01*
X172823581Y-74572419D01*
G37*
X172823581Y-74572419D02*
X172974000Y-74935562D01*
X172974000Y-77315118D01*
X173113426Y-77951932D01*
X174002426Y-79884814D01*
X174395192Y-80405106D01*
X174501657Y-80496362D01*
X174252424Y-80869365D01*
X174134144Y-81464000D01*
X174134144Y-83696413D01*
X173620000Y-83594144D01*
X171820000Y-83594144D01*
X171225365Y-83712424D01*
X170721258Y-84049258D01*
X170672856Y-84121697D01*
X170672856Y-82628000D01*
X170554576Y-82033365D01*
X170395500Y-81795291D01*
X170395500Y-81702839D01*
X170435151Y-81503500D01*
X170395500Y-81304161D01*
X170395500Y-81304156D01*
X170278066Y-80713775D01*
X169830722Y-80044278D01*
X169661727Y-79931359D01*
X168925712Y-79195345D01*
X169023447Y-78704000D01*
X169023447Y-78368815D01*
X169733631Y-77658631D01*
X170063992Y-77164210D01*
X170180000Y-76581000D01*
X170180000Y-75369167D01*
X170457419Y-74699419D01*
X171127167Y-74422000D01*
X172460438Y-74422000D01*
X172823581Y-74572419D01*
G36*
X121412000Y-41983210D02*
X121412000Y-47167800D01*
X116574201Y-47167800D01*
X115511793Y-46727736D01*
X115297949Y-46685200D01*
X97132462Y-46685200D01*
X96485729Y-46038467D01*
X96125400Y-45168556D01*
X96125400Y-45144365D01*
X96071261Y-44872188D01*
X95965063Y-44615803D01*
X95810887Y-44385062D01*
X95614658Y-44188833D01*
X95383917Y-44034657D01*
X95127532Y-43928459D01*
X94855355Y-43874320D01*
X94707190Y-43874320D01*
X93624212Y-43425736D01*
X93410369Y-43383200D01*
X89630000Y-43383200D01*
X89416156Y-43425736D01*
X89234869Y-43546869D01*
X87234869Y-45546869D01*
X87113736Y-45728156D01*
X87071200Y-45942000D01*
X87071200Y-66326000D01*
X87113736Y-66539844D01*
X87234869Y-66721131D01*
X89234869Y-68721131D01*
X89416156Y-68842264D01*
X89630000Y-68884800D01*
X91595612Y-68884800D01*
X92984988Y-69460298D01*
X92912918Y-69453200D01*
X91999082Y-69453200D01*
X91828836Y-69469968D01*
X91610401Y-69536229D01*
X91409091Y-69643832D01*
X91232641Y-69788641D01*
X91087832Y-69965091D01*
X90980229Y-70166401D01*
X90913968Y-70384836D01*
X90891594Y-70612000D01*
X90913968Y-70839164D01*
X90980229Y-71057599D01*
X91087832Y-71258909D01*
X91232641Y-71435359D01*
X91409091Y-71580168D01*
X91610401Y-71687771D01*
X91828836Y-71754032D01*
X91999082Y-71770800D01*
X92912918Y-71770800D01*
X93083164Y-71754032D01*
X93301599Y-71687771D01*
X93502909Y-71580168D01*
X93679359Y-71435359D01*
X93824168Y-71258909D01*
X93931771Y-71057599D01*
X93965429Y-70946642D01*
X94183200Y-71472388D01*
X94183200Y-75978000D01*
X94225736Y-76191844D01*
X95639950Y-79606058D01*
X95707200Y-79706704D01*
X95707201Y-102236019D01*
X95642755Y-102223200D01*
X95365245Y-102223200D01*
X95093068Y-102277339D01*
X94836683Y-102383537D01*
X94605942Y-102537713D01*
X94409713Y-102733942D01*
X94255537Y-102964683D01*
X94149339Y-103221068D01*
X94095200Y-103493245D01*
X94095200Y-103770755D01*
X94149339Y-104042932D01*
X94255537Y-104299317D01*
X94409713Y-104530058D01*
X94605942Y-104726287D01*
X94836683Y-104880463D01*
X95093068Y-104986661D01*
X95365245Y-105040800D01*
X95642755Y-105040800D01*
X95914932Y-104986661D01*
X96171317Y-104880463D01*
X96402058Y-104726287D01*
X96598287Y-104530058D01*
X96752463Y-104299317D01*
X96858661Y-104042932D01*
X96912800Y-103770755D01*
X96912800Y-103493245D01*
X96892796Y-103392677D01*
X97066506Y-103218967D01*
X97097517Y-103193517D01*
X97199088Y-103069752D01*
X97274562Y-102928550D01*
X97321039Y-102775337D01*
X97332800Y-102655923D01*
X97332800Y-102655921D01*
X97336732Y-102616000D01*
X97332800Y-102576080D01*
X97332800Y-82664017D01*
X97687200Y-83519615D01*
X97687201Y-115793326D01*
X95949055Y-117531473D01*
X95914932Y-117517339D01*
X95642755Y-117463200D01*
X95365245Y-117463200D01*
X95093068Y-117517339D01*
X94836683Y-117623537D01*
X94605942Y-117777713D01*
X94409713Y-117973942D01*
X94255537Y-118204683D01*
X94149339Y-118461068D01*
X94095200Y-118733245D01*
X94095200Y-119010755D01*
X94149339Y-119282932D01*
X94255537Y-119539317D01*
X94409713Y-119770058D01*
X94605942Y-119966287D01*
X94836683Y-120120463D01*
X95093068Y-120226661D01*
X95365245Y-120280800D01*
X95642755Y-120280800D01*
X95914932Y-120226661D01*
X96171317Y-120120463D01*
X96402058Y-119966287D01*
X96598287Y-119770058D01*
X96752463Y-119539317D01*
X96858661Y-119282932D01*
X96912800Y-119010755D01*
X96912800Y-118866672D01*
X99046506Y-116732967D01*
X99077517Y-116707517D01*
X99179088Y-116583752D01*
X99254562Y-116442550D01*
X99301039Y-116289337D01*
X99312800Y-116169923D01*
X99316732Y-116130000D01*
X99312800Y-116090077D01*
X99312800Y-92284108D01*
X100279200Y-94617204D01*
X100279200Y-103156000D01*
X100321736Y-103369844D01*
X100442869Y-103551131D01*
X102442869Y-105551131D01*
X102624156Y-105672264D01*
X102838000Y-105714800D01*
X103895279Y-105714800D01*
X103881144Y-105726401D01*
X103787364Y-105803364D01*
X103759919Y-105836807D01*
X103246926Y-106349800D01*
X102972407Y-106349800D01*
X102929359Y-106345560D01*
X102886311Y-106349800D01*
X102886310Y-106349800D01*
X102757575Y-106362479D01*
X102592392Y-106412587D01*
X102521528Y-106450465D01*
X102440157Y-106493958D01*
X102380908Y-106542583D01*
X102306724Y-106603464D01*
X102279281Y-106636904D01*
X101302907Y-107613279D01*
X101269465Y-107640724D01*
X101208261Y-107715302D01*
X101159958Y-107774159D01*
X101105428Y-107876178D01*
X101078588Y-107926392D01*
X101029043Y-108089721D01*
X101028480Y-108091576D01*
X101011560Y-108263360D01*
X101015801Y-108306417D01*
X101015800Y-110133592D01*
X101011560Y-110176640D01*
X101015800Y-110219688D01*
X101015800Y-110219689D01*
X101028479Y-110348424D01*
X101078587Y-110513607D01*
X101159958Y-110665841D01*
X101269464Y-110799276D01*
X101302912Y-110826726D01*
X102787279Y-112311094D01*
X102814724Y-112344536D01*
X102948158Y-112454042D01*
X103100392Y-112535413D01*
X103265575Y-112585521D01*
X103394310Y-112598200D01*
X103394312Y-112598200D01*
X103437360Y-112602440D01*
X103480408Y-112598200D01*
X107085592Y-112598200D01*
X107128640Y-112602440D01*
X107171688Y-112598200D01*
X107171690Y-112598200D01*
X107300425Y-112585521D01*
X107465608Y-112535413D01*
X107617842Y-112454042D01*
X107751276Y-112344536D01*
X107778726Y-112311088D01*
X109517094Y-110572721D01*
X109550536Y-110545276D01*
X109660042Y-110411842D01*
X109741413Y-110259608D01*
X109791521Y-110094425D01*
X109804200Y-109965690D01*
X109804200Y-109965688D01*
X109808440Y-109922640D01*
X109804200Y-109879592D01*
X109804200Y-107745614D01*
X111429801Y-106120014D01*
X111429800Y-135787592D01*
X111425560Y-135830640D01*
X111429800Y-135873688D01*
X111429800Y-135873689D01*
X111442479Y-136002424D01*
X111492587Y-136167607D01*
X111573958Y-136319841D01*
X111683464Y-136453276D01*
X111716912Y-136480726D01*
X113963279Y-138727094D01*
X113990724Y-138760536D01*
X114064908Y-138821417D01*
X114124157Y-138870042D01*
X114205528Y-138913535D01*
X114276392Y-138951413D01*
X114441575Y-139001521D01*
X114570310Y-139014200D01*
X114570311Y-139014200D01*
X114613359Y-139018440D01*
X114656407Y-139014200D01*
X125701724Y-139014200D01*
X128515724Y-141777501D01*
X128517379Y-141779111D01*
X132626625Y-145741600D01*
X132194608Y-146812000D01*
X52143210Y-146812000D01*
X50671800Y-145340590D01*
X50671800Y-143002000D01*
X90891594Y-143002000D01*
X90913968Y-143229164D01*
X90980229Y-143447599D01*
X91087832Y-143648909D01*
X91232641Y-143825359D01*
X91409091Y-143970168D01*
X91610401Y-144077771D01*
X91828836Y-144144032D01*
X91999082Y-144160800D01*
X92912918Y-144160800D01*
X93083164Y-144144032D01*
X93301599Y-144077771D01*
X93502909Y-143970168D01*
X93679359Y-143825359D01*
X93824168Y-143648909D01*
X93931771Y-143447599D01*
X93998032Y-143229164D01*
X94020406Y-143002000D01*
X93998032Y-142774836D01*
X93931771Y-142556401D01*
X93824168Y-142355091D01*
X93679359Y-142178641D01*
X93502909Y-142033832D01*
X93301599Y-141926229D01*
X93083164Y-141859968D01*
X92912918Y-141843200D01*
X91999082Y-141843200D01*
X91828836Y-141859968D01*
X91610401Y-141926229D01*
X91409091Y-142033832D01*
X91232641Y-142178641D01*
X91087832Y-142355091D01*
X90980229Y-142556401D01*
X90913968Y-142774836D01*
X90891594Y-143002000D01*
X50671800Y-143002000D01*
X50671800Y-140462000D01*
X90891594Y-140462000D01*
X90913968Y-140689164D01*
X90980229Y-140907599D01*
X91087832Y-141108909D01*
X91232641Y-141285359D01*
X91409091Y-141430168D01*
X91610401Y-141537771D01*
X91828836Y-141604032D01*
X91999082Y-141620800D01*
X92912918Y-141620800D01*
X93083164Y-141604032D01*
X93301599Y-141537771D01*
X93502909Y-141430168D01*
X93679359Y-141285359D01*
X93824168Y-141108909D01*
X93931771Y-140907599D01*
X93998032Y-140689164D01*
X94020406Y-140462000D01*
X93998032Y-140234836D01*
X93931771Y-140016401D01*
X93824168Y-139815091D01*
X93679359Y-139638641D01*
X93502909Y-139493832D01*
X93301599Y-139386229D01*
X93083164Y-139319968D01*
X92912918Y-139303200D01*
X91999082Y-139303200D01*
X91828836Y-139319968D01*
X91610401Y-139386229D01*
X91409091Y-139493832D01*
X91232641Y-139638641D01*
X91087832Y-139815091D01*
X90980229Y-140016401D01*
X90913968Y-140234836D01*
X90891594Y-140462000D01*
X50671800Y-140462000D01*
X50671800Y-135382000D01*
X90891594Y-135382000D01*
X90913968Y-135609164D01*
X90980229Y-135827599D01*
X91087832Y-136028909D01*
X91232641Y-136205359D01*
X91409091Y-136350168D01*
X91610401Y-136457771D01*
X91828836Y-136524032D01*
X91999082Y-136540800D01*
X92912918Y-136540800D01*
X93083164Y-136524032D01*
X93301599Y-136457771D01*
X93502909Y-136350168D01*
X93679359Y-136205359D01*
X93824168Y-136028909D01*
X93931771Y-135827599D01*
X93998032Y-135609164D01*
X94020406Y-135382000D01*
X93998032Y-135154836D01*
X93931771Y-134936401D01*
X93824168Y-134735091D01*
X93679359Y-134558641D01*
X93502909Y-134413832D01*
X93301599Y-134306229D01*
X93083164Y-134239968D01*
X92912918Y-134223200D01*
X91999082Y-134223200D01*
X91828836Y-134239968D01*
X91610401Y-134306229D01*
X91409091Y-134413832D01*
X91232641Y-134558641D01*
X91087832Y-134735091D01*
X90980229Y-134936401D01*
X90913968Y-135154836D01*
X90891594Y-135382000D01*
X50671800Y-135382000D01*
X50671800Y-132842000D01*
X90891594Y-132842000D01*
X90913968Y-133069164D01*
X90980229Y-133287599D01*
X91087832Y-133488909D01*
X91232641Y-133665359D01*
X91409091Y-133810168D01*
X91610401Y-133917771D01*
X91828836Y-133984032D01*
X91999082Y-134000800D01*
X92912918Y-134000800D01*
X93083164Y-133984032D01*
X93301599Y-133917771D01*
X93502909Y-133810168D01*
X93679359Y-133665359D01*
X93824168Y-133488909D01*
X93931771Y-133287599D01*
X93998032Y-133069164D01*
X94020406Y-132842000D01*
X93998032Y-132614836D01*
X93931771Y-132396401D01*
X93824168Y-132195091D01*
X93679359Y-132018641D01*
X93502909Y-131873832D01*
X93301599Y-131766229D01*
X93083164Y-131699968D01*
X92912918Y-131683200D01*
X91999082Y-131683200D01*
X91828836Y-131699968D01*
X91610401Y-131766229D01*
X91409091Y-131873832D01*
X91232641Y-132018641D01*
X91087832Y-132195091D01*
X90980229Y-132396401D01*
X90913968Y-132614836D01*
X90891594Y-132842000D01*
X50671800Y-132842000D01*
X50671800Y-130302000D01*
X90891594Y-130302000D01*
X90913968Y-130529164D01*
X90980229Y-130747599D01*
X91087832Y-130948909D01*
X91232641Y-131125359D01*
X91409091Y-131270168D01*
X91610401Y-131377771D01*
X91828836Y-131444032D01*
X91999082Y-131460800D01*
X92912918Y-131460800D01*
X93083164Y-131444032D01*
X93301599Y-131377771D01*
X93502909Y-131270168D01*
X93679359Y-131125359D01*
X93824168Y-130948909D01*
X93931771Y-130747599D01*
X93998032Y-130529164D01*
X94020406Y-130302000D01*
X93998032Y-130074836D01*
X93931771Y-129856401D01*
X93824168Y-129655091D01*
X93679359Y-129478641D01*
X93502909Y-129333832D01*
X93301599Y-129226229D01*
X93083164Y-129159968D01*
X92912918Y-129143200D01*
X91999082Y-129143200D01*
X91828836Y-129159968D01*
X91610401Y-129226229D01*
X91409091Y-129333832D01*
X91232641Y-129478641D01*
X91087832Y-129655091D01*
X90980229Y-129856401D01*
X90913968Y-130074836D01*
X90891594Y-130302000D01*
X50671800Y-130302000D01*
X50671800Y-125222000D01*
X90891594Y-125222000D01*
X90913968Y-125449164D01*
X90980229Y-125667599D01*
X91087832Y-125868909D01*
X91232641Y-126045359D01*
X91409091Y-126190168D01*
X91610401Y-126297771D01*
X91828836Y-126364032D01*
X91999082Y-126380800D01*
X92912918Y-126380800D01*
X93083164Y-126364032D01*
X93301599Y-126297771D01*
X93502909Y-126190168D01*
X93679359Y-126045359D01*
X93824168Y-125868909D01*
X93931771Y-125667599D01*
X93998032Y-125449164D01*
X94020406Y-125222000D01*
X93998032Y-124994836D01*
X93931771Y-124776401D01*
X93824168Y-124575091D01*
X93679359Y-124398641D01*
X93502909Y-124253832D01*
X93301599Y-124146229D01*
X93083164Y-124079968D01*
X92912918Y-124063200D01*
X91999082Y-124063200D01*
X91828836Y-124079968D01*
X91610401Y-124146229D01*
X91409091Y-124253832D01*
X91232641Y-124398641D01*
X91087832Y-124575091D01*
X90980229Y-124776401D01*
X90913968Y-124994836D01*
X90891594Y-125222000D01*
X50671800Y-125222000D01*
X50671800Y-118872000D01*
X90891594Y-118872000D01*
X90913968Y-119099164D01*
X90980229Y-119317599D01*
X91087832Y-119518909D01*
X91232641Y-119695359D01*
X91409091Y-119840168D01*
X91610401Y-119947771D01*
X91828836Y-120014032D01*
X91999082Y-120030800D01*
X92912918Y-120030800D01*
X93083164Y-120014032D01*
X93301599Y-119947771D01*
X93502909Y-119840168D01*
X93679359Y-119695359D01*
X93824168Y-119518909D01*
X93931771Y-119317599D01*
X93998032Y-119099164D01*
X94020406Y-118872000D01*
X93998032Y-118644836D01*
X93931771Y-118426401D01*
X93824168Y-118225091D01*
X93679359Y-118048641D01*
X93502909Y-117903832D01*
X93301599Y-117796229D01*
X93083164Y-117729968D01*
X92912918Y-117713200D01*
X91999082Y-117713200D01*
X91828836Y-117729968D01*
X91610401Y-117796229D01*
X91409091Y-117903832D01*
X91232641Y-118048641D01*
X91087832Y-118225091D01*
X90980229Y-118426401D01*
X90913968Y-118644836D01*
X90891594Y-118872000D01*
X50671800Y-118872000D01*
X50671800Y-114662282D01*
X59598200Y-114662282D01*
X59598200Y-115205718D01*
X59704219Y-115738712D01*
X59912183Y-116240782D01*
X60214100Y-116692633D01*
X60598367Y-117076900D01*
X61050218Y-117378817D01*
X61552288Y-117586781D01*
X62085282Y-117692800D01*
X62628718Y-117692800D01*
X63161712Y-117586781D01*
X63663782Y-117378817D01*
X64115633Y-117076900D01*
X64499900Y-116692633D01*
X64740867Y-116332000D01*
X90891594Y-116332000D01*
X90913968Y-116559164D01*
X90980229Y-116777599D01*
X91087832Y-116978909D01*
X91232641Y-117155359D01*
X91409091Y-117300168D01*
X91610401Y-117407771D01*
X91828836Y-117474032D01*
X91999082Y-117490800D01*
X92912918Y-117490800D01*
X93083164Y-117474032D01*
X93301599Y-117407771D01*
X93502909Y-117300168D01*
X93679359Y-117155359D01*
X93824168Y-116978909D01*
X93931771Y-116777599D01*
X93998032Y-116559164D01*
X94020406Y-116332000D01*
X93998032Y-116104836D01*
X93931771Y-115886401D01*
X93824168Y-115685091D01*
X93679359Y-115508641D01*
X93502909Y-115363832D01*
X93301599Y-115256229D01*
X93083164Y-115189968D01*
X92912918Y-115173200D01*
X91999082Y-115173200D01*
X91828836Y-115189968D01*
X91610401Y-115256229D01*
X91409091Y-115363832D01*
X91232641Y-115508641D01*
X91087832Y-115685091D01*
X90980229Y-115886401D01*
X90913968Y-116104836D01*
X90891594Y-116332000D01*
X64740867Y-116332000D01*
X64801817Y-116240782D01*
X65009781Y-115738712D01*
X65115800Y-115205718D01*
X65115800Y-114662282D01*
X65009781Y-114129288D01*
X64870072Y-113792000D01*
X90891594Y-113792000D01*
X90913968Y-114019164D01*
X90980229Y-114237599D01*
X91087832Y-114438909D01*
X91232641Y-114615359D01*
X91409091Y-114760168D01*
X91610401Y-114867771D01*
X91828836Y-114934032D01*
X91999082Y-114950800D01*
X92912918Y-114950800D01*
X93083164Y-114934032D01*
X93301599Y-114867771D01*
X93502909Y-114760168D01*
X93679359Y-114615359D01*
X93824168Y-114438909D01*
X93931771Y-114237599D01*
X93998032Y-114019164D01*
X94020406Y-113792000D01*
X93998032Y-113564836D01*
X93931771Y-113346401D01*
X93824168Y-113145091D01*
X93679359Y-112968641D01*
X93502909Y-112823832D01*
X93301599Y-112716229D01*
X93083164Y-112649968D01*
X92912918Y-112633200D01*
X91999082Y-112633200D01*
X91828836Y-112649968D01*
X91610401Y-112716229D01*
X91409091Y-112823832D01*
X91232641Y-112968641D01*
X91087832Y-113145091D01*
X90980229Y-113346401D01*
X90913968Y-113564836D01*
X90891594Y-113792000D01*
X64870072Y-113792000D01*
X64801817Y-113627218D01*
X64499900Y-113175367D01*
X64115633Y-112791100D01*
X63663782Y-112489183D01*
X63161712Y-112281219D01*
X62628718Y-112175200D01*
X62085282Y-112175200D01*
X61552288Y-112281219D01*
X61050218Y-112489183D01*
X60598367Y-112791100D01*
X60214100Y-113175367D01*
X59912183Y-113627218D01*
X59704219Y-114129288D01*
X59598200Y-114662282D01*
X50671800Y-114662282D01*
X50671800Y-111252000D01*
X90891594Y-111252000D01*
X90913968Y-111479164D01*
X90980229Y-111697599D01*
X91087832Y-111898909D01*
X91232641Y-112075359D01*
X91409091Y-112220168D01*
X91610401Y-112327771D01*
X91828836Y-112394032D01*
X91999082Y-112410800D01*
X92912918Y-112410800D01*
X93083164Y-112394032D01*
X93301599Y-112327771D01*
X93502909Y-112220168D01*
X93679359Y-112075359D01*
X93824168Y-111898909D01*
X93931771Y-111697599D01*
X93998032Y-111479164D01*
X94020406Y-111252000D01*
X93998032Y-111024836D01*
X93931771Y-110806401D01*
X93824168Y-110605091D01*
X93679359Y-110428641D01*
X93502909Y-110283832D01*
X93301599Y-110176229D01*
X93083164Y-110109968D01*
X92912918Y-110093200D01*
X91999082Y-110093200D01*
X91828836Y-110109968D01*
X91610401Y-110176229D01*
X91409091Y-110283832D01*
X91232641Y-110428641D01*
X91087832Y-110605091D01*
X90980229Y-110806401D01*
X90913968Y-111024836D01*
X90891594Y-111252000D01*
X50671800Y-111252000D01*
X50671800Y-108712000D01*
X90891594Y-108712000D01*
X90913968Y-108939164D01*
X90980229Y-109157599D01*
X91087832Y-109358909D01*
X91232641Y-109535359D01*
X91409091Y-109680168D01*
X91610401Y-109787771D01*
X91828836Y-109854032D01*
X91999082Y-109870800D01*
X92912918Y-109870800D01*
X93083164Y-109854032D01*
X93301599Y-109787771D01*
X93502909Y-109680168D01*
X93679359Y-109535359D01*
X93824168Y-109358909D01*
X93931771Y-109157599D01*
X93998032Y-108939164D01*
X94020406Y-108712000D01*
X93998032Y-108484836D01*
X93931771Y-108266401D01*
X93824168Y-108065091D01*
X93679359Y-107888641D01*
X93502909Y-107743832D01*
X93301599Y-107636229D01*
X93083164Y-107569968D01*
X92912918Y-107553200D01*
X91999082Y-107553200D01*
X91828836Y-107569968D01*
X91610401Y-107636229D01*
X91409091Y-107743832D01*
X91232641Y-107888641D01*
X91087832Y-108065091D01*
X90980229Y-108266401D01*
X90913968Y-108484836D01*
X90891594Y-108712000D01*
X50671800Y-108712000D01*
X50671800Y-106172000D01*
X90891594Y-106172000D01*
X90913968Y-106399164D01*
X90980229Y-106617599D01*
X91087832Y-106818909D01*
X91232641Y-106995359D01*
X91409091Y-107140168D01*
X91610401Y-107247771D01*
X91828836Y-107314032D01*
X91999082Y-107330800D01*
X92912918Y-107330800D01*
X93083164Y-107314032D01*
X93301599Y-107247771D01*
X93502909Y-107140168D01*
X93679359Y-106995359D01*
X93824168Y-106818909D01*
X93931771Y-106617599D01*
X93998032Y-106399164D01*
X94020406Y-106172000D01*
X93998032Y-105944836D01*
X93931771Y-105726401D01*
X93824168Y-105525091D01*
X93679359Y-105348641D01*
X93502909Y-105203832D01*
X93301599Y-105096229D01*
X93083164Y-105029968D01*
X92912918Y-105013200D01*
X91999082Y-105013200D01*
X91828836Y-105029968D01*
X91610401Y-105096229D01*
X91409091Y-105203832D01*
X91232641Y-105348641D01*
X91087832Y-105525091D01*
X90980229Y-105726401D01*
X90913968Y-105944836D01*
X90891594Y-106172000D01*
X50671800Y-106172000D01*
X50671800Y-103632000D01*
X90891594Y-103632000D01*
X90913968Y-103859164D01*
X90980229Y-104077599D01*
X91087832Y-104278909D01*
X91232641Y-104455359D01*
X91409091Y-104600168D01*
X91610401Y-104707771D01*
X91828836Y-104774032D01*
X91999082Y-104790800D01*
X92912918Y-104790800D01*
X93083164Y-104774032D01*
X93301599Y-104707771D01*
X93502909Y-104600168D01*
X93679359Y-104455359D01*
X93824168Y-104278909D01*
X93931771Y-104077599D01*
X93998032Y-103859164D01*
X94020406Y-103632000D01*
X93998032Y-103404836D01*
X93931771Y-103186401D01*
X93824168Y-102985091D01*
X93679359Y-102808641D01*
X93502909Y-102663832D01*
X93301599Y-102556229D01*
X93083164Y-102489968D01*
X92912918Y-102473200D01*
X91999082Y-102473200D01*
X91828836Y-102489968D01*
X91610401Y-102556229D01*
X91409091Y-102663832D01*
X91232641Y-102808641D01*
X91087832Y-102985091D01*
X90980229Y-103186401D01*
X90913968Y-103404836D01*
X90891594Y-103632000D01*
X50671800Y-103632000D01*
X50671800Y-101092000D01*
X90891594Y-101092000D01*
X90913968Y-101319164D01*
X90980229Y-101537599D01*
X91087832Y-101738909D01*
X91232641Y-101915359D01*
X91409091Y-102060168D01*
X91610401Y-102167771D01*
X91828836Y-102234032D01*
X91999082Y-102250800D01*
X92912918Y-102250800D01*
X93083164Y-102234032D01*
X93301599Y-102167771D01*
X93502909Y-102060168D01*
X93679359Y-101915359D01*
X93824168Y-101738909D01*
X93931771Y-101537599D01*
X93998032Y-101319164D01*
X94020406Y-101092000D01*
X93998032Y-100864836D01*
X93931771Y-100646401D01*
X93824168Y-100445091D01*
X93679359Y-100268641D01*
X93502909Y-100123832D01*
X93301599Y-100016229D01*
X93083164Y-99949968D01*
X92912918Y-99933200D01*
X91999082Y-99933200D01*
X91828836Y-99949968D01*
X91610401Y-100016229D01*
X91409091Y-100123832D01*
X91232641Y-100268641D01*
X91087832Y-100445091D01*
X90980229Y-100646401D01*
X90913968Y-100864836D01*
X90891594Y-101092000D01*
X50671800Y-101092000D01*
X50671800Y-98552000D01*
X90891594Y-98552000D01*
X90913968Y-98779164D01*
X90980229Y-98997599D01*
X91087832Y-99198909D01*
X91232641Y-99375359D01*
X91409091Y-99520168D01*
X91610401Y-99627771D01*
X91828836Y-99694032D01*
X91999082Y-99710800D01*
X92912918Y-99710800D01*
X93083164Y-99694032D01*
X93301599Y-99627771D01*
X93502909Y-99520168D01*
X93679359Y-99375359D01*
X93824168Y-99198909D01*
X93931771Y-98997599D01*
X93998032Y-98779164D01*
X94020406Y-98552000D01*
X93998032Y-98324836D01*
X93931771Y-98106401D01*
X93824168Y-97905091D01*
X93679359Y-97728641D01*
X93502909Y-97583832D01*
X93301599Y-97476229D01*
X93083164Y-97409968D01*
X92912918Y-97393200D01*
X91999082Y-97393200D01*
X91828836Y-97409968D01*
X91610401Y-97476229D01*
X91409091Y-97583832D01*
X91232641Y-97728641D01*
X91087832Y-97905091D01*
X90980229Y-98106401D01*
X90913968Y-98324836D01*
X90891594Y-98552000D01*
X50671800Y-98552000D01*
X50671800Y-90660282D01*
X82509000Y-90660282D01*
X82509000Y-91203718D01*
X82615019Y-91736712D01*
X82822983Y-92238782D01*
X83124900Y-92690633D01*
X83509167Y-93074900D01*
X83961018Y-93376817D01*
X84463088Y-93584781D01*
X84996082Y-93690800D01*
X85539518Y-93690800D01*
X86072512Y-93584781D01*
X86344789Y-93472000D01*
X90891594Y-93472000D01*
X90913968Y-93699164D01*
X90980229Y-93917599D01*
X91087832Y-94118909D01*
X91232641Y-94295359D01*
X91409091Y-94440168D01*
X91610401Y-94547771D01*
X91828836Y-94614032D01*
X91999082Y-94630800D01*
X92912918Y-94630800D01*
X93083164Y-94614032D01*
X93301599Y-94547771D01*
X93502909Y-94440168D01*
X93679359Y-94295359D01*
X93824168Y-94118909D01*
X93931771Y-93917599D01*
X93998032Y-93699164D01*
X94020406Y-93472000D01*
X93998032Y-93244836D01*
X93931771Y-93026401D01*
X93824168Y-92825091D01*
X93679359Y-92648641D01*
X93502909Y-92503832D01*
X93301599Y-92396229D01*
X93083164Y-92329968D01*
X92912918Y-92313200D01*
X91999082Y-92313200D01*
X91828836Y-92329968D01*
X91610401Y-92396229D01*
X91409091Y-92503832D01*
X91232641Y-92648641D01*
X91087832Y-92825091D01*
X90980229Y-93026401D01*
X90913968Y-93244836D01*
X90891594Y-93472000D01*
X86344789Y-93472000D01*
X86574582Y-93376817D01*
X87026433Y-93074900D01*
X87410700Y-92690633D01*
X87712617Y-92238782D01*
X87920581Y-91736712D01*
X88026600Y-91203718D01*
X88026600Y-90932000D01*
X90891594Y-90932000D01*
X90913968Y-91159164D01*
X90980229Y-91377599D01*
X91087832Y-91578909D01*
X91232641Y-91755359D01*
X91409091Y-91900168D01*
X91610401Y-92007771D01*
X91828836Y-92074032D01*
X91999082Y-92090800D01*
X92912918Y-92090800D01*
X93083164Y-92074032D01*
X93301599Y-92007771D01*
X93502909Y-91900168D01*
X93679359Y-91755359D01*
X93824168Y-91578909D01*
X93931771Y-91377599D01*
X93998032Y-91159164D01*
X94020406Y-90932000D01*
X93998032Y-90704836D01*
X93931771Y-90486401D01*
X93824168Y-90285091D01*
X93679359Y-90108641D01*
X93502909Y-89963832D01*
X93301599Y-89856229D01*
X93083164Y-89789968D01*
X92912918Y-89773200D01*
X91999082Y-89773200D01*
X91828836Y-89789968D01*
X91610401Y-89856229D01*
X91409091Y-89963832D01*
X91232641Y-90108641D01*
X91087832Y-90285091D01*
X90980229Y-90486401D01*
X90913968Y-90704836D01*
X90891594Y-90932000D01*
X88026600Y-90932000D01*
X88026600Y-90660282D01*
X87920581Y-90127288D01*
X87712617Y-89625218D01*
X87410700Y-89173367D01*
X87026433Y-88789100D01*
X86574582Y-88487183D01*
X86344790Y-88392000D01*
X90891594Y-88392000D01*
X90913968Y-88619164D01*
X90980229Y-88837599D01*
X91087832Y-89038909D01*
X91232641Y-89215359D01*
X91409091Y-89360168D01*
X91610401Y-89467771D01*
X91828836Y-89534032D01*
X91999082Y-89550800D01*
X92912918Y-89550800D01*
X93083164Y-89534032D01*
X93301599Y-89467771D01*
X93502909Y-89360168D01*
X93679359Y-89215359D01*
X93824168Y-89038909D01*
X93931771Y-88837599D01*
X93998032Y-88619164D01*
X94020406Y-88392000D01*
X93998032Y-88164836D01*
X93931771Y-87946401D01*
X93824168Y-87745091D01*
X93679359Y-87568641D01*
X93502909Y-87423832D01*
X93301599Y-87316229D01*
X93083164Y-87249968D01*
X92912918Y-87233200D01*
X91999082Y-87233200D01*
X91828836Y-87249968D01*
X91610401Y-87316229D01*
X91409091Y-87423832D01*
X91232641Y-87568641D01*
X91087832Y-87745091D01*
X90980229Y-87946401D01*
X90913968Y-88164836D01*
X90891594Y-88392000D01*
X86344790Y-88392000D01*
X86072512Y-88279219D01*
X85539518Y-88173200D01*
X84996082Y-88173200D01*
X84463088Y-88279219D01*
X83961018Y-88487183D01*
X83509167Y-88789100D01*
X83124900Y-89173367D01*
X82822983Y-89625218D01*
X82615019Y-90127288D01*
X82509000Y-90660282D01*
X50671800Y-90660282D01*
X50671800Y-85852000D01*
X90891594Y-85852000D01*
X90913968Y-86079164D01*
X90980229Y-86297599D01*
X91087832Y-86498909D01*
X91232641Y-86675359D01*
X91409091Y-86820168D01*
X91610401Y-86927771D01*
X91828836Y-86994032D01*
X91999082Y-87010800D01*
X92912918Y-87010800D01*
X93083164Y-86994032D01*
X93301599Y-86927771D01*
X93502909Y-86820168D01*
X93679359Y-86675359D01*
X93824168Y-86498909D01*
X93931771Y-86297599D01*
X93998032Y-86079164D01*
X94020406Y-85852000D01*
X93998032Y-85624836D01*
X93931771Y-85406401D01*
X93824168Y-85205091D01*
X93679359Y-85028641D01*
X93502909Y-84883832D01*
X93301599Y-84776229D01*
X93083164Y-84709968D01*
X92912918Y-84693200D01*
X91999082Y-84693200D01*
X91828836Y-84709968D01*
X91610401Y-84776229D01*
X91409091Y-84883832D01*
X91232641Y-85028641D01*
X91087832Y-85205091D01*
X90980229Y-85406401D01*
X90913968Y-85624836D01*
X90891594Y-85852000D01*
X50671800Y-85852000D01*
X50671800Y-83312000D01*
X90891594Y-83312000D01*
X90913968Y-83539164D01*
X90980229Y-83757599D01*
X91087832Y-83958909D01*
X91232641Y-84135359D01*
X91409091Y-84280168D01*
X91610401Y-84387771D01*
X91828836Y-84454032D01*
X91999082Y-84470800D01*
X92912918Y-84470800D01*
X93083164Y-84454032D01*
X93301599Y-84387771D01*
X93502909Y-84280168D01*
X93679359Y-84135359D01*
X93824168Y-83958909D01*
X93931771Y-83757599D01*
X93998032Y-83539164D01*
X94020406Y-83312000D01*
X93998032Y-83084836D01*
X93931771Y-82866401D01*
X93824168Y-82665091D01*
X93679359Y-82488641D01*
X93502909Y-82343832D01*
X93301599Y-82236229D01*
X93083164Y-82169968D01*
X92912918Y-82153200D01*
X91999082Y-82153200D01*
X91828836Y-82169968D01*
X91610401Y-82236229D01*
X91409091Y-82343832D01*
X91232641Y-82488641D01*
X91087832Y-82665091D01*
X90980229Y-82866401D01*
X90913968Y-83084836D01*
X90891594Y-83312000D01*
X50671800Y-83312000D01*
X50671800Y-80772000D01*
X90891594Y-80772000D01*
X90913968Y-80999164D01*
X90980229Y-81217599D01*
X91087832Y-81418909D01*
X91232641Y-81595359D01*
X91409091Y-81740168D01*
X91610401Y-81847771D01*
X91828836Y-81914032D01*
X91999082Y-81930800D01*
X92912918Y-81930800D01*
X93083164Y-81914032D01*
X93301599Y-81847771D01*
X93502909Y-81740168D01*
X93679359Y-81595359D01*
X93824168Y-81418909D01*
X93931771Y-81217599D01*
X93998032Y-80999164D01*
X94020406Y-80772000D01*
X93998032Y-80544836D01*
X93931771Y-80326401D01*
X93824168Y-80125091D01*
X93679359Y-79948641D01*
X93502909Y-79803832D01*
X93301599Y-79696229D01*
X93083164Y-79629968D01*
X92912918Y-79613200D01*
X91999082Y-79613200D01*
X91828836Y-79629968D01*
X91610401Y-79696229D01*
X91409091Y-79803832D01*
X91232641Y-79948641D01*
X91087832Y-80125091D01*
X90980229Y-80326401D01*
X90913968Y-80544836D01*
X90891594Y-80772000D01*
X50671800Y-80772000D01*
X50671800Y-78232000D01*
X90891594Y-78232000D01*
X90913968Y-78459164D01*
X90980229Y-78677599D01*
X91087832Y-78878909D01*
X91232641Y-79055359D01*
X91409091Y-79200168D01*
X91610401Y-79307771D01*
X91828836Y-79374032D01*
X91999082Y-79390800D01*
X92912918Y-79390800D01*
X93083164Y-79374032D01*
X93301599Y-79307771D01*
X93502909Y-79200168D01*
X93679359Y-79055359D01*
X93824168Y-78878909D01*
X93931771Y-78677599D01*
X93998032Y-78459164D01*
X94020406Y-78232000D01*
X93998032Y-78004836D01*
X93931771Y-77786401D01*
X93824168Y-77585091D01*
X93679359Y-77408641D01*
X93502909Y-77263832D01*
X93301599Y-77156229D01*
X93083164Y-77089968D01*
X92912918Y-77073200D01*
X91999082Y-77073200D01*
X91828836Y-77089968D01*
X91610401Y-77156229D01*
X91409091Y-77263832D01*
X91232641Y-77408641D01*
X91087832Y-77585091D01*
X90980229Y-77786401D01*
X90913968Y-78004836D01*
X90891594Y-78232000D01*
X50671800Y-78232000D01*
X50671800Y-75692000D01*
X90891594Y-75692000D01*
X90913968Y-75919164D01*
X90980229Y-76137599D01*
X91087832Y-76338909D01*
X91232641Y-76515359D01*
X91409091Y-76660168D01*
X91610401Y-76767771D01*
X91828836Y-76834032D01*
X91999082Y-76850800D01*
X92912918Y-76850800D01*
X93083164Y-76834032D01*
X93301599Y-76767771D01*
X93502909Y-76660168D01*
X93679359Y-76515359D01*
X93824168Y-76338909D01*
X93931771Y-76137599D01*
X93998032Y-75919164D01*
X94020406Y-75692000D01*
X93998032Y-75464836D01*
X93931771Y-75246401D01*
X93824168Y-75045091D01*
X93679359Y-74868641D01*
X93502909Y-74723832D01*
X93301599Y-74616229D01*
X93083164Y-74549968D01*
X92912918Y-74533200D01*
X91999082Y-74533200D01*
X91828836Y-74549968D01*
X91610401Y-74616229D01*
X91409091Y-74723832D01*
X91232641Y-74868641D01*
X91087832Y-75045091D01*
X90980229Y-75246401D01*
X90913968Y-75464836D01*
X90891594Y-75692000D01*
X50671800Y-75692000D01*
X50671800Y-70975282D01*
X84466474Y-70975282D01*
X84466474Y-71518718D01*
X84572493Y-72051712D01*
X84780457Y-72553782D01*
X85082374Y-73005633D01*
X85466641Y-73389900D01*
X85918492Y-73691817D01*
X86420562Y-73899781D01*
X86953556Y-74005800D01*
X87496992Y-74005800D01*
X88029986Y-73899781D01*
X88532056Y-73691817D01*
X88983907Y-73389900D01*
X89221807Y-73152000D01*
X90891594Y-73152000D01*
X90913968Y-73379164D01*
X90980229Y-73597599D01*
X91087832Y-73798909D01*
X91232641Y-73975359D01*
X91409091Y-74120168D01*
X91610401Y-74227771D01*
X91828836Y-74294032D01*
X91999082Y-74310800D01*
X92912918Y-74310800D01*
X93083164Y-74294032D01*
X93301599Y-74227771D01*
X93502909Y-74120168D01*
X93679359Y-73975359D01*
X93824168Y-73798909D01*
X93931771Y-73597599D01*
X93998032Y-73379164D01*
X94020406Y-73152000D01*
X93998032Y-72924836D01*
X93931771Y-72706401D01*
X93824168Y-72505091D01*
X93679359Y-72328641D01*
X93502909Y-72183832D01*
X93301599Y-72076229D01*
X93083164Y-72009968D01*
X92912918Y-71993200D01*
X91999082Y-71993200D01*
X91828836Y-72009968D01*
X91610401Y-72076229D01*
X91409091Y-72183832D01*
X91232641Y-72328641D01*
X91087832Y-72505091D01*
X90980229Y-72706401D01*
X90913968Y-72924836D01*
X90891594Y-73152000D01*
X89221807Y-73152000D01*
X89368174Y-73005633D01*
X89670091Y-72553782D01*
X89878055Y-72051712D01*
X89984074Y-71518718D01*
X89984074Y-70975282D01*
X89878055Y-70442288D01*
X89670091Y-69940218D01*
X89368174Y-69488367D01*
X88983907Y-69104100D01*
X88532056Y-68802183D01*
X88029986Y-68594219D01*
X87496992Y-68488200D01*
X86953556Y-68488200D01*
X86420562Y-68594219D01*
X85918492Y-68802183D01*
X85466641Y-69104100D01*
X85082374Y-69488367D01*
X84780457Y-69940218D01*
X84572493Y-70442288D01*
X84466474Y-70975282D01*
X50671800Y-70975282D01*
X50671800Y-46083282D01*
X70266200Y-46083282D01*
X70266200Y-46626718D01*
X70372219Y-47159712D01*
X70580183Y-47661782D01*
X70882100Y-48113633D01*
X71266367Y-48497900D01*
X71718218Y-48799817D01*
X72220288Y-49007781D01*
X72753282Y-49113800D01*
X73296718Y-49113800D01*
X73829712Y-49007781D01*
X74331782Y-48799817D01*
X74783633Y-48497900D01*
X75167900Y-48113633D01*
X75469817Y-47661782D01*
X75677781Y-47159712D01*
X75783800Y-46626718D01*
X75783800Y-46083282D01*
X75677781Y-45550288D01*
X75469817Y-45048218D01*
X75167900Y-44596367D01*
X74783633Y-44212100D01*
X74331782Y-43910183D01*
X73829712Y-43702219D01*
X73296718Y-43596200D01*
X72753282Y-43596200D01*
X72220288Y-43702219D01*
X71718218Y-43910183D01*
X71266367Y-44212100D01*
X70882100Y-44596367D01*
X70580183Y-45048218D01*
X70372219Y-45550288D01*
X70266200Y-46083282D01*
X50671800Y-46083282D01*
X50671800Y-41603410D01*
X52143210Y-40132000D01*
X119560790Y-40132000D01*
X121412000Y-41983210D01*
X121412000Y-41983210D01*
G37*
X121412000Y-41983210D02*
X121412000Y-47167800D01*
X116574201Y-47167800D01*
X115511793Y-46727736D01*
X115297949Y-46685200D01*
X97132462Y-46685200D01*
X96485729Y-46038467D01*
X96125400Y-45168556D01*
X96125400Y-45144365D01*
X96071261Y-44872188D01*
X95965063Y-44615803D01*
X95810887Y-44385062D01*
X95614658Y-44188833D01*
X95383917Y-44034657D01*
X95127532Y-43928459D01*
X94855355Y-43874320D01*
X94707190Y-43874320D01*
X93624212Y-43425736D01*
X93410369Y-43383200D01*
X89630000Y-43383200D01*
X89416156Y-43425736D01*
X89234869Y-43546869D01*
X87234869Y-45546869D01*
X87113736Y-45728156D01*
X87071200Y-45942000D01*
X87071200Y-66326000D01*
X87113736Y-66539844D01*
X87234869Y-66721131D01*
X89234869Y-68721131D01*
X89416156Y-68842264D01*
X89630000Y-68884800D01*
X91595612Y-68884800D01*
X92984988Y-69460298D01*
X92912918Y-69453200D01*
X91999082Y-69453200D01*
X91828836Y-69469968D01*
X91610401Y-69536229D01*
X91409091Y-69643832D01*
X91232641Y-69788641D01*
X91087832Y-69965091D01*
X90980229Y-70166401D01*
X90913968Y-70384836D01*
X90891594Y-70612000D01*
X90913968Y-70839164D01*
X90980229Y-71057599D01*
X91087832Y-71258909D01*
X91232641Y-71435359D01*
X91409091Y-71580168D01*
X91610401Y-71687771D01*
X91828836Y-71754032D01*
X91999082Y-71770800D01*
X92912918Y-71770800D01*
X93083164Y-71754032D01*
X93301599Y-71687771D01*
X93502909Y-71580168D01*
X93679359Y-71435359D01*
X93824168Y-71258909D01*
X93931771Y-71057599D01*
X93965429Y-70946642D01*
X94183200Y-71472388D01*
X94183200Y-75978000D01*
X94225736Y-76191844D01*
X95639950Y-79606058D01*
X95707200Y-79706704D01*
X95707201Y-102236019D01*
X95642755Y-102223200D01*
X95365245Y-102223200D01*
X95093068Y-102277339D01*
X94836683Y-102383537D01*
X94605942Y-102537713D01*
X94409713Y-102733942D01*
X94255537Y-102964683D01*
X94149339Y-103221068D01*
X94095200Y-103493245D01*
X94095200Y-103770755D01*
X94149339Y-104042932D01*
X94255537Y-104299317D01*
X94409713Y-104530058D01*
X94605942Y-104726287D01*
X94836683Y-104880463D01*
X95093068Y-104986661D01*
X95365245Y-105040800D01*
X95642755Y-105040800D01*
X95914932Y-104986661D01*
X96171317Y-104880463D01*
X96402058Y-104726287D01*
X96598287Y-104530058D01*
X96752463Y-104299317D01*
X96858661Y-104042932D01*
X96912800Y-103770755D01*
X96912800Y-103493245D01*
X96892796Y-103392677D01*
X97066506Y-103218967D01*
X97097517Y-103193517D01*
X97199088Y-103069752D01*
X97274562Y-102928550D01*
X97321039Y-102775337D01*
X97332800Y-102655923D01*
X97332800Y-102655921D01*
X97336732Y-102616000D01*
X97332800Y-102576080D01*
X97332800Y-82664017D01*
X97687200Y-83519615D01*
X97687201Y-115793326D01*
X95949055Y-117531473D01*
X95914932Y-117517339D01*
X95642755Y-117463200D01*
X95365245Y-117463200D01*
X95093068Y-117517339D01*
X94836683Y-117623537D01*
X94605942Y-117777713D01*
X94409713Y-117973942D01*
X94255537Y-118204683D01*
X94149339Y-118461068D01*
X94095200Y-118733245D01*
X94095200Y-119010755D01*
X94149339Y-119282932D01*
X94255537Y-119539317D01*
X94409713Y-119770058D01*
X94605942Y-119966287D01*
X94836683Y-120120463D01*
X95093068Y-120226661D01*
X95365245Y-120280800D01*
X95642755Y-120280800D01*
X95914932Y-120226661D01*
X96171317Y-120120463D01*
X96402058Y-119966287D01*
X96598287Y-119770058D01*
X96752463Y-119539317D01*
X96858661Y-119282932D01*
X96912800Y-119010755D01*
X96912800Y-118866672D01*
X99046506Y-116732967D01*
X99077517Y-116707517D01*
X99179088Y-116583752D01*
X99254562Y-116442550D01*
X99301039Y-116289337D01*
X99312800Y-116169923D01*
X99316732Y-116130000D01*
X99312800Y-116090077D01*
X99312800Y-92284108D01*
X100279200Y-94617204D01*
X100279200Y-103156000D01*
X100321736Y-103369844D01*
X100442869Y-103551131D01*
X102442869Y-105551131D01*
X102624156Y-105672264D01*
X102838000Y-105714800D01*
X103895279Y-105714800D01*
X103881144Y-105726401D01*
X103787364Y-105803364D01*
X103759919Y-105836807D01*
X103246926Y-106349800D01*
X102972407Y-106349800D01*
X102929359Y-106345560D01*
X102886311Y-106349800D01*
X102886310Y-106349800D01*
X102757575Y-106362479D01*
X102592392Y-106412587D01*
X102521528Y-106450465D01*
X102440157Y-106493958D01*
X102380908Y-106542583D01*
X102306724Y-106603464D01*
X102279281Y-106636904D01*
X101302907Y-107613279D01*
X101269465Y-107640724D01*
X101208261Y-107715302D01*
X101159958Y-107774159D01*
X101105428Y-107876178D01*
X101078588Y-107926392D01*
X101029043Y-108089721D01*
X101028480Y-108091576D01*
X101011560Y-108263360D01*
X101015801Y-108306417D01*
X101015800Y-110133592D01*
X101011560Y-110176640D01*
X101015800Y-110219688D01*
X101015800Y-110219689D01*
X101028479Y-110348424D01*
X101078587Y-110513607D01*
X101159958Y-110665841D01*
X101269464Y-110799276D01*
X101302912Y-110826726D01*
X102787279Y-112311094D01*
X102814724Y-112344536D01*
X102948158Y-112454042D01*
X103100392Y-112535413D01*
X103265575Y-112585521D01*
X103394310Y-112598200D01*
X103394312Y-112598200D01*
X103437360Y-112602440D01*
X103480408Y-112598200D01*
X107085592Y-112598200D01*
X107128640Y-112602440D01*
X107171688Y-112598200D01*
X107171690Y-112598200D01*
X107300425Y-112585521D01*
X107465608Y-112535413D01*
X107617842Y-112454042D01*
X107751276Y-112344536D01*
X107778726Y-112311088D01*
X109517094Y-110572721D01*
X109550536Y-110545276D01*
X109660042Y-110411842D01*
X109741413Y-110259608D01*
X109791521Y-110094425D01*
X109804200Y-109965690D01*
X109804200Y-109965688D01*
X109808440Y-109922640D01*
X109804200Y-109879592D01*
X109804200Y-107745614D01*
X111429801Y-106120014D01*
X111429800Y-135787592D01*
X111425560Y-135830640D01*
X111429800Y-135873688D01*
X111429800Y-135873689D01*
X111442479Y-136002424D01*
X111492587Y-136167607D01*
X111573958Y-136319841D01*
X111683464Y-136453276D01*
X111716912Y-136480726D01*
X113963279Y-138727094D01*
X113990724Y-138760536D01*
X114064908Y-138821417D01*
X114124157Y-138870042D01*
X114205528Y-138913535D01*
X114276392Y-138951413D01*
X114441575Y-139001521D01*
X114570310Y-139014200D01*
X114570311Y-139014200D01*
X114613359Y-139018440D01*
X114656407Y-139014200D01*
X125701724Y-139014200D01*
X128515724Y-141777501D01*
X128517379Y-141779111D01*
X132626625Y-145741600D01*
X132194608Y-146812000D01*
X52143210Y-146812000D01*
X50671800Y-145340590D01*
X50671800Y-143002000D01*
X90891594Y-143002000D01*
X90913968Y-143229164D01*
X90980229Y-143447599D01*
X91087832Y-143648909D01*
X91232641Y-143825359D01*
X91409091Y-143970168D01*
X91610401Y-144077771D01*
X91828836Y-144144032D01*
X91999082Y-144160800D01*
X92912918Y-144160800D01*
X93083164Y-144144032D01*
X93301599Y-144077771D01*
X93502909Y-143970168D01*
X93679359Y-143825359D01*
X93824168Y-143648909D01*
X93931771Y-143447599D01*
X93998032Y-143229164D01*
X94020406Y-143002000D01*
X93998032Y-142774836D01*
X93931771Y-142556401D01*
X93824168Y-142355091D01*
X93679359Y-142178641D01*
X93502909Y-142033832D01*
X93301599Y-141926229D01*
X93083164Y-141859968D01*
X92912918Y-141843200D01*
X91999082Y-141843200D01*
X91828836Y-141859968D01*
X91610401Y-141926229D01*
X91409091Y-142033832D01*
X91232641Y-142178641D01*
X91087832Y-142355091D01*
X90980229Y-142556401D01*
X90913968Y-142774836D01*
X90891594Y-143002000D01*
X50671800Y-143002000D01*
X50671800Y-140462000D01*
X90891594Y-140462000D01*
X90913968Y-140689164D01*
X90980229Y-140907599D01*
X91087832Y-141108909D01*
X91232641Y-141285359D01*
X91409091Y-141430168D01*
X91610401Y-141537771D01*
X91828836Y-141604032D01*
X91999082Y-141620800D01*
X92912918Y-141620800D01*
X93083164Y-141604032D01*
X93301599Y-141537771D01*
X93502909Y-141430168D01*
X93679359Y-141285359D01*
X93824168Y-141108909D01*
X93931771Y-140907599D01*
X93998032Y-140689164D01*
X94020406Y-140462000D01*
X93998032Y-140234836D01*
X93931771Y-140016401D01*
X93824168Y-139815091D01*
X93679359Y-139638641D01*
X93502909Y-139493832D01*
X93301599Y-139386229D01*
X93083164Y-139319968D01*
X92912918Y-139303200D01*
X91999082Y-139303200D01*
X91828836Y-139319968D01*
X91610401Y-139386229D01*
X91409091Y-139493832D01*
X91232641Y-139638641D01*
X91087832Y-139815091D01*
X90980229Y-140016401D01*
X90913968Y-140234836D01*
X90891594Y-140462000D01*
X50671800Y-140462000D01*
X50671800Y-135382000D01*
X90891594Y-135382000D01*
X90913968Y-135609164D01*
X90980229Y-135827599D01*
X91087832Y-136028909D01*
X91232641Y-136205359D01*
X91409091Y-136350168D01*
X91610401Y-136457771D01*
X91828836Y-136524032D01*
X91999082Y-136540800D01*
X92912918Y-136540800D01*
X93083164Y-136524032D01*
X93301599Y-136457771D01*
X93502909Y-136350168D01*
X93679359Y-136205359D01*
X93824168Y-136028909D01*
X93931771Y-135827599D01*
X93998032Y-135609164D01*
X94020406Y-135382000D01*
X93998032Y-135154836D01*
X93931771Y-134936401D01*
X93824168Y-134735091D01*
X93679359Y-134558641D01*
X93502909Y-134413832D01*
X93301599Y-134306229D01*
X93083164Y-134239968D01*
X92912918Y-134223200D01*
X91999082Y-134223200D01*
X91828836Y-134239968D01*
X91610401Y-134306229D01*
X91409091Y-134413832D01*
X91232641Y-134558641D01*
X91087832Y-134735091D01*
X90980229Y-134936401D01*
X90913968Y-135154836D01*
X90891594Y-135382000D01*
X50671800Y-135382000D01*
X50671800Y-132842000D01*
X90891594Y-132842000D01*
X90913968Y-133069164D01*
X90980229Y-133287599D01*
X91087832Y-133488909D01*
X91232641Y-133665359D01*
X91409091Y-133810168D01*
X91610401Y-133917771D01*
X91828836Y-133984032D01*
X91999082Y-134000800D01*
X92912918Y-134000800D01*
X93083164Y-133984032D01*
X93301599Y-133917771D01*
X93502909Y-133810168D01*
X93679359Y-133665359D01*
X93824168Y-133488909D01*
X93931771Y-133287599D01*
X93998032Y-133069164D01*
X94020406Y-132842000D01*
X93998032Y-132614836D01*
X93931771Y-132396401D01*
X93824168Y-132195091D01*
X93679359Y-132018641D01*
X93502909Y-131873832D01*
X93301599Y-131766229D01*
X93083164Y-131699968D01*
X92912918Y-131683200D01*
X91999082Y-131683200D01*
X91828836Y-131699968D01*
X91610401Y-131766229D01*
X91409091Y-131873832D01*
X91232641Y-132018641D01*
X91087832Y-132195091D01*
X90980229Y-132396401D01*
X90913968Y-132614836D01*
X90891594Y-132842000D01*
X50671800Y-132842000D01*
X50671800Y-130302000D01*
X90891594Y-130302000D01*
X90913968Y-130529164D01*
X90980229Y-130747599D01*
X91087832Y-130948909D01*
X91232641Y-131125359D01*
X91409091Y-131270168D01*
X91610401Y-131377771D01*
X91828836Y-131444032D01*
X91999082Y-131460800D01*
X92912918Y-131460800D01*
X93083164Y-131444032D01*
X93301599Y-131377771D01*
X93502909Y-131270168D01*
X93679359Y-131125359D01*
X93824168Y-130948909D01*
X93931771Y-130747599D01*
X93998032Y-130529164D01*
X94020406Y-130302000D01*
X93998032Y-130074836D01*
X93931771Y-129856401D01*
X93824168Y-129655091D01*
X93679359Y-129478641D01*
X93502909Y-129333832D01*
X93301599Y-129226229D01*
X93083164Y-129159968D01*
X92912918Y-129143200D01*
X91999082Y-129143200D01*
X91828836Y-129159968D01*
X91610401Y-129226229D01*
X91409091Y-129333832D01*
X91232641Y-129478641D01*
X91087832Y-129655091D01*
X90980229Y-129856401D01*
X90913968Y-130074836D01*
X90891594Y-130302000D01*
X50671800Y-130302000D01*
X50671800Y-125222000D01*
X90891594Y-125222000D01*
X90913968Y-125449164D01*
X90980229Y-125667599D01*
X91087832Y-125868909D01*
X91232641Y-126045359D01*
X91409091Y-126190168D01*
X91610401Y-126297771D01*
X91828836Y-126364032D01*
X91999082Y-126380800D01*
X92912918Y-126380800D01*
X93083164Y-126364032D01*
X93301599Y-126297771D01*
X93502909Y-126190168D01*
X93679359Y-126045359D01*
X93824168Y-125868909D01*
X93931771Y-125667599D01*
X93998032Y-125449164D01*
X94020406Y-125222000D01*
X93998032Y-124994836D01*
X93931771Y-124776401D01*
X93824168Y-124575091D01*
X93679359Y-124398641D01*
X93502909Y-124253832D01*
X93301599Y-124146229D01*
X93083164Y-124079968D01*
X92912918Y-124063200D01*
X91999082Y-124063200D01*
X91828836Y-124079968D01*
X91610401Y-124146229D01*
X91409091Y-124253832D01*
X91232641Y-124398641D01*
X91087832Y-124575091D01*
X90980229Y-124776401D01*
X90913968Y-124994836D01*
X90891594Y-125222000D01*
X50671800Y-125222000D01*
X50671800Y-118872000D01*
X90891594Y-118872000D01*
X90913968Y-119099164D01*
X90980229Y-119317599D01*
X91087832Y-119518909D01*
X91232641Y-119695359D01*
X91409091Y-119840168D01*
X91610401Y-119947771D01*
X91828836Y-120014032D01*
X91999082Y-120030800D01*
X92912918Y-120030800D01*
X93083164Y-120014032D01*
X93301599Y-119947771D01*
X93502909Y-119840168D01*
X93679359Y-119695359D01*
X93824168Y-119518909D01*
X93931771Y-119317599D01*
X93998032Y-119099164D01*
X94020406Y-118872000D01*
X93998032Y-118644836D01*
X93931771Y-118426401D01*
X93824168Y-118225091D01*
X93679359Y-118048641D01*
X93502909Y-117903832D01*
X93301599Y-117796229D01*
X93083164Y-117729968D01*
X92912918Y-117713200D01*
X91999082Y-117713200D01*
X91828836Y-117729968D01*
X91610401Y-117796229D01*
X91409091Y-117903832D01*
X91232641Y-118048641D01*
X91087832Y-118225091D01*
X90980229Y-118426401D01*
X90913968Y-118644836D01*
X90891594Y-118872000D01*
X50671800Y-118872000D01*
X50671800Y-114662282D01*
X59598200Y-114662282D01*
X59598200Y-115205718D01*
X59704219Y-115738712D01*
X59912183Y-116240782D01*
X60214100Y-116692633D01*
X60598367Y-117076900D01*
X61050218Y-117378817D01*
X61552288Y-117586781D01*
X62085282Y-117692800D01*
X62628718Y-117692800D01*
X63161712Y-117586781D01*
X63663782Y-117378817D01*
X64115633Y-117076900D01*
X64499900Y-116692633D01*
X64740867Y-116332000D01*
X90891594Y-116332000D01*
X90913968Y-116559164D01*
X90980229Y-116777599D01*
X91087832Y-116978909D01*
X91232641Y-117155359D01*
X91409091Y-117300168D01*
X91610401Y-117407771D01*
X91828836Y-117474032D01*
X91999082Y-117490800D01*
X92912918Y-117490800D01*
X93083164Y-117474032D01*
X93301599Y-117407771D01*
X93502909Y-117300168D01*
X93679359Y-117155359D01*
X93824168Y-116978909D01*
X93931771Y-116777599D01*
X93998032Y-116559164D01*
X94020406Y-116332000D01*
X93998032Y-116104836D01*
X93931771Y-115886401D01*
X93824168Y-115685091D01*
X93679359Y-115508641D01*
X93502909Y-115363832D01*
X93301599Y-115256229D01*
X93083164Y-115189968D01*
X92912918Y-115173200D01*
X91999082Y-115173200D01*
X91828836Y-115189968D01*
X91610401Y-115256229D01*
X91409091Y-115363832D01*
X91232641Y-115508641D01*
X91087832Y-115685091D01*
X90980229Y-115886401D01*
X90913968Y-116104836D01*
X90891594Y-116332000D01*
X64740867Y-116332000D01*
X64801817Y-116240782D01*
X65009781Y-115738712D01*
X65115800Y-115205718D01*
X65115800Y-114662282D01*
X65009781Y-114129288D01*
X64870072Y-113792000D01*
X90891594Y-113792000D01*
X90913968Y-114019164D01*
X90980229Y-114237599D01*
X91087832Y-114438909D01*
X91232641Y-114615359D01*
X91409091Y-114760168D01*
X91610401Y-114867771D01*
X91828836Y-114934032D01*
X91999082Y-114950800D01*
X92912918Y-114950800D01*
X93083164Y-114934032D01*
X93301599Y-114867771D01*
X93502909Y-114760168D01*
X93679359Y-114615359D01*
X93824168Y-114438909D01*
X93931771Y-114237599D01*
X93998032Y-114019164D01*
X94020406Y-113792000D01*
X93998032Y-113564836D01*
X93931771Y-113346401D01*
X93824168Y-113145091D01*
X93679359Y-112968641D01*
X93502909Y-112823832D01*
X93301599Y-112716229D01*
X93083164Y-112649968D01*
X92912918Y-112633200D01*
X91999082Y-112633200D01*
X91828836Y-112649968D01*
X91610401Y-112716229D01*
X91409091Y-112823832D01*
X91232641Y-112968641D01*
X91087832Y-113145091D01*
X90980229Y-113346401D01*
X90913968Y-113564836D01*
X90891594Y-113792000D01*
X64870072Y-113792000D01*
X64801817Y-113627218D01*
X64499900Y-113175367D01*
X64115633Y-112791100D01*
X63663782Y-112489183D01*
X63161712Y-112281219D01*
X62628718Y-112175200D01*
X62085282Y-112175200D01*
X61552288Y-112281219D01*
X61050218Y-112489183D01*
X60598367Y-112791100D01*
X60214100Y-113175367D01*
X59912183Y-113627218D01*
X59704219Y-114129288D01*
X59598200Y-114662282D01*
X50671800Y-114662282D01*
X50671800Y-111252000D01*
X90891594Y-111252000D01*
X90913968Y-111479164D01*
X90980229Y-111697599D01*
X91087832Y-111898909D01*
X91232641Y-112075359D01*
X91409091Y-112220168D01*
X91610401Y-112327771D01*
X91828836Y-112394032D01*
X91999082Y-112410800D01*
X92912918Y-112410800D01*
X93083164Y-112394032D01*
X93301599Y-112327771D01*
X93502909Y-112220168D01*
X93679359Y-112075359D01*
X93824168Y-111898909D01*
X93931771Y-111697599D01*
X93998032Y-111479164D01*
X94020406Y-111252000D01*
X93998032Y-111024836D01*
X93931771Y-110806401D01*
X93824168Y-110605091D01*
X93679359Y-110428641D01*
X93502909Y-110283832D01*
X93301599Y-110176229D01*
X93083164Y-110109968D01*
X92912918Y-110093200D01*
X91999082Y-110093200D01*
X91828836Y-110109968D01*
X91610401Y-110176229D01*
X91409091Y-110283832D01*
X91232641Y-110428641D01*
X91087832Y-110605091D01*
X90980229Y-110806401D01*
X90913968Y-111024836D01*
X90891594Y-111252000D01*
X50671800Y-111252000D01*
X50671800Y-108712000D01*
X90891594Y-108712000D01*
X90913968Y-108939164D01*
X90980229Y-109157599D01*
X91087832Y-109358909D01*
X91232641Y-109535359D01*
X91409091Y-109680168D01*
X91610401Y-109787771D01*
X91828836Y-109854032D01*
X91999082Y-109870800D01*
X92912918Y-109870800D01*
X93083164Y-109854032D01*
X93301599Y-109787771D01*
X93502909Y-109680168D01*
X93679359Y-109535359D01*
X93824168Y-109358909D01*
X93931771Y-109157599D01*
X93998032Y-108939164D01*
X94020406Y-108712000D01*
X93998032Y-108484836D01*
X93931771Y-108266401D01*
X93824168Y-108065091D01*
X93679359Y-107888641D01*
X93502909Y-107743832D01*
X93301599Y-107636229D01*
X93083164Y-107569968D01*
X92912918Y-107553200D01*
X91999082Y-107553200D01*
X91828836Y-107569968D01*
X91610401Y-107636229D01*
X91409091Y-107743832D01*
X91232641Y-107888641D01*
X91087832Y-108065091D01*
X90980229Y-108266401D01*
X90913968Y-108484836D01*
X90891594Y-108712000D01*
X50671800Y-108712000D01*
X50671800Y-106172000D01*
X90891594Y-106172000D01*
X90913968Y-106399164D01*
X90980229Y-106617599D01*
X91087832Y-106818909D01*
X91232641Y-106995359D01*
X91409091Y-107140168D01*
X91610401Y-107247771D01*
X91828836Y-107314032D01*
X91999082Y-107330800D01*
X92912918Y-107330800D01*
X93083164Y-107314032D01*
X93301599Y-107247771D01*
X93502909Y-107140168D01*
X93679359Y-106995359D01*
X93824168Y-106818909D01*
X93931771Y-106617599D01*
X93998032Y-106399164D01*
X94020406Y-106172000D01*
X93998032Y-105944836D01*
X93931771Y-105726401D01*
X93824168Y-105525091D01*
X93679359Y-105348641D01*
X93502909Y-105203832D01*
X93301599Y-105096229D01*
X93083164Y-105029968D01*
X92912918Y-105013200D01*
X91999082Y-105013200D01*
X91828836Y-105029968D01*
X91610401Y-105096229D01*
X91409091Y-105203832D01*
X91232641Y-105348641D01*
X91087832Y-105525091D01*
X90980229Y-105726401D01*
X90913968Y-105944836D01*
X90891594Y-106172000D01*
X50671800Y-106172000D01*
X50671800Y-103632000D01*
X90891594Y-103632000D01*
X90913968Y-103859164D01*
X90980229Y-104077599D01*
X91087832Y-104278909D01*
X91232641Y-104455359D01*
X91409091Y-104600168D01*
X91610401Y-104707771D01*
X91828836Y-104774032D01*
X91999082Y-104790800D01*
X92912918Y-104790800D01*
X93083164Y-104774032D01*
X93301599Y-104707771D01*
X93502909Y-104600168D01*
X93679359Y-104455359D01*
X93824168Y-104278909D01*
X93931771Y-104077599D01*
X93998032Y-103859164D01*
X94020406Y-103632000D01*
X93998032Y-103404836D01*
X93931771Y-103186401D01*
X93824168Y-102985091D01*
X93679359Y-102808641D01*
X93502909Y-102663832D01*
X93301599Y-102556229D01*
X93083164Y-102489968D01*
X92912918Y-102473200D01*
X91999082Y-102473200D01*
X91828836Y-102489968D01*
X91610401Y-102556229D01*
X91409091Y-102663832D01*
X91232641Y-102808641D01*
X91087832Y-102985091D01*
X90980229Y-103186401D01*
X90913968Y-103404836D01*
X90891594Y-103632000D01*
X50671800Y-103632000D01*
X50671800Y-101092000D01*
X90891594Y-101092000D01*
X90913968Y-101319164D01*
X90980229Y-101537599D01*
X91087832Y-101738909D01*
X91232641Y-101915359D01*
X91409091Y-102060168D01*
X91610401Y-102167771D01*
X91828836Y-102234032D01*
X91999082Y-102250800D01*
X92912918Y-102250800D01*
X93083164Y-102234032D01*
X93301599Y-102167771D01*
X93502909Y-102060168D01*
X93679359Y-101915359D01*
X93824168Y-101738909D01*
X93931771Y-101537599D01*
X93998032Y-101319164D01*
X94020406Y-101092000D01*
X93998032Y-100864836D01*
X93931771Y-100646401D01*
X93824168Y-100445091D01*
X93679359Y-100268641D01*
X93502909Y-100123832D01*
X93301599Y-100016229D01*
X93083164Y-99949968D01*
X92912918Y-99933200D01*
X91999082Y-99933200D01*
X91828836Y-99949968D01*
X91610401Y-100016229D01*
X91409091Y-100123832D01*
X91232641Y-100268641D01*
X91087832Y-100445091D01*
X90980229Y-100646401D01*
X90913968Y-100864836D01*
X90891594Y-101092000D01*
X50671800Y-101092000D01*
X50671800Y-98552000D01*
X90891594Y-98552000D01*
X90913968Y-98779164D01*
X90980229Y-98997599D01*
X91087832Y-99198909D01*
X91232641Y-99375359D01*
X91409091Y-99520168D01*
X91610401Y-99627771D01*
X91828836Y-99694032D01*
X91999082Y-99710800D01*
X92912918Y-99710800D01*
X93083164Y-99694032D01*
X93301599Y-99627771D01*
X93502909Y-99520168D01*
X93679359Y-99375359D01*
X93824168Y-99198909D01*
X93931771Y-98997599D01*
X93998032Y-98779164D01*
X94020406Y-98552000D01*
X93998032Y-98324836D01*
X93931771Y-98106401D01*
X93824168Y-97905091D01*
X93679359Y-97728641D01*
X93502909Y-97583832D01*
X93301599Y-97476229D01*
X93083164Y-97409968D01*
X92912918Y-97393200D01*
X91999082Y-97393200D01*
X91828836Y-97409968D01*
X91610401Y-97476229D01*
X91409091Y-97583832D01*
X91232641Y-97728641D01*
X91087832Y-97905091D01*
X90980229Y-98106401D01*
X90913968Y-98324836D01*
X90891594Y-98552000D01*
X50671800Y-98552000D01*
X50671800Y-90660282D01*
X82509000Y-90660282D01*
X82509000Y-91203718D01*
X82615019Y-91736712D01*
X82822983Y-92238782D01*
X83124900Y-92690633D01*
X83509167Y-93074900D01*
X83961018Y-93376817D01*
X84463088Y-93584781D01*
X84996082Y-93690800D01*
X85539518Y-93690800D01*
X86072512Y-93584781D01*
X86344789Y-93472000D01*
X90891594Y-93472000D01*
X90913968Y-93699164D01*
X90980229Y-93917599D01*
X91087832Y-94118909D01*
X91232641Y-94295359D01*
X91409091Y-94440168D01*
X91610401Y-94547771D01*
X91828836Y-94614032D01*
X91999082Y-94630800D01*
X92912918Y-94630800D01*
X93083164Y-94614032D01*
X93301599Y-94547771D01*
X93502909Y-94440168D01*
X93679359Y-94295359D01*
X93824168Y-94118909D01*
X93931771Y-93917599D01*
X93998032Y-93699164D01*
X94020406Y-93472000D01*
X93998032Y-93244836D01*
X93931771Y-93026401D01*
X93824168Y-92825091D01*
X93679359Y-92648641D01*
X93502909Y-92503832D01*
X93301599Y-92396229D01*
X93083164Y-92329968D01*
X92912918Y-92313200D01*
X91999082Y-92313200D01*
X91828836Y-92329968D01*
X91610401Y-92396229D01*
X91409091Y-92503832D01*
X91232641Y-92648641D01*
X91087832Y-92825091D01*
X90980229Y-93026401D01*
X90913968Y-93244836D01*
X90891594Y-93472000D01*
X86344789Y-93472000D01*
X86574582Y-93376817D01*
X87026433Y-93074900D01*
X87410700Y-92690633D01*
X87712617Y-92238782D01*
X87920581Y-91736712D01*
X88026600Y-91203718D01*
X88026600Y-90932000D01*
X90891594Y-90932000D01*
X90913968Y-91159164D01*
X90980229Y-91377599D01*
X91087832Y-91578909D01*
X91232641Y-91755359D01*
X91409091Y-91900168D01*
X91610401Y-92007771D01*
X91828836Y-92074032D01*
X91999082Y-92090800D01*
X92912918Y-92090800D01*
X93083164Y-92074032D01*
X93301599Y-92007771D01*
X93502909Y-91900168D01*
X93679359Y-91755359D01*
X93824168Y-91578909D01*
X93931771Y-91377599D01*
X93998032Y-91159164D01*
X94020406Y-90932000D01*
X93998032Y-90704836D01*
X93931771Y-90486401D01*
X93824168Y-90285091D01*
X93679359Y-90108641D01*
X93502909Y-89963832D01*
X93301599Y-89856229D01*
X93083164Y-89789968D01*
X92912918Y-89773200D01*
X91999082Y-89773200D01*
X91828836Y-89789968D01*
X91610401Y-89856229D01*
X91409091Y-89963832D01*
X91232641Y-90108641D01*
X91087832Y-90285091D01*
X90980229Y-90486401D01*
X90913968Y-90704836D01*
X90891594Y-90932000D01*
X88026600Y-90932000D01*
X88026600Y-90660282D01*
X87920581Y-90127288D01*
X87712617Y-89625218D01*
X87410700Y-89173367D01*
X87026433Y-88789100D01*
X86574582Y-88487183D01*
X86344790Y-88392000D01*
X90891594Y-88392000D01*
X90913968Y-88619164D01*
X90980229Y-88837599D01*
X91087832Y-89038909D01*
X91232641Y-89215359D01*
X91409091Y-89360168D01*
X91610401Y-89467771D01*
X91828836Y-89534032D01*
X91999082Y-89550800D01*
X92912918Y-89550800D01*
X93083164Y-89534032D01*
X93301599Y-89467771D01*
X93502909Y-89360168D01*
X93679359Y-89215359D01*
X93824168Y-89038909D01*
X93931771Y-88837599D01*
X93998032Y-88619164D01*
X94020406Y-88392000D01*
X93998032Y-88164836D01*
X93931771Y-87946401D01*
X93824168Y-87745091D01*
X93679359Y-87568641D01*
X93502909Y-87423832D01*
X93301599Y-87316229D01*
X93083164Y-87249968D01*
X92912918Y-87233200D01*
X91999082Y-87233200D01*
X91828836Y-87249968D01*
X91610401Y-87316229D01*
X91409091Y-87423832D01*
X91232641Y-87568641D01*
X91087832Y-87745091D01*
X90980229Y-87946401D01*
X90913968Y-88164836D01*
X90891594Y-88392000D01*
X86344790Y-88392000D01*
X86072512Y-88279219D01*
X85539518Y-88173200D01*
X84996082Y-88173200D01*
X84463088Y-88279219D01*
X83961018Y-88487183D01*
X83509167Y-88789100D01*
X83124900Y-89173367D01*
X82822983Y-89625218D01*
X82615019Y-90127288D01*
X82509000Y-90660282D01*
X50671800Y-90660282D01*
X50671800Y-85852000D01*
X90891594Y-85852000D01*
X90913968Y-86079164D01*
X90980229Y-86297599D01*
X91087832Y-86498909D01*
X91232641Y-86675359D01*
X91409091Y-86820168D01*
X91610401Y-86927771D01*
X91828836Y-86994032D01*
X91999082Y-87010800D01*
X92912918Y-87010800D01*
X93083164Y-86994032D01*
X93301599Y-86927771D01*
X93502909Y-86820168D01*
X93679359Y-86675359D01*
X93824168Y-86498909D01*
X93931771Y-86297599D01*
X93998032Y-86079164D01*
X94020406Y-85852000D01*
X93998032Y-85624836D01*
X93931771Y-85406401D01*
X93824168Y-85205091D01*
X93679359Y-85028641D01*
X93502909Y-84883832D01*
X93301599Y-84776229D01*
X93083164Y-84709968D01*
X92912918Y-84693200D01*
X91999082Y-84693200D01*
X91828836Y-84709968D01*
X91610401Y-84776229D01*
X91409091Y-84883832D01*
X91232641Y-85028641D01*
X91087832Y-85205091D01*
X90980229Y-85406401D01*
X90913968Y-85624836D01*
X90891594Y-85852000D01*
X50671800Y-85852000D01*
X50671800Y-83312000D01*
X90891594Y-83312000D01*
X90913968Y-83539164D01*
X90980229Y-83757599D01*
X91087832Y-83958909D01*
X91232641Y-84135359D01*
X91409091Y-84280168D01*
X91610401Y-84387771D01*
X91828836Y-84454032D01*
X91999082Y-84470800D01*
X92912918Y-84470800D01*
X93083164Y-84454032D01*
X93301599Y-84387771D01*
X93502909Y-84280168D01*
X93679359Y-84135359D01*
X93824168Y-83958909D01*
X93931771Y-83757599D01*
X93998032Y-83539164D01*
X94020406Y-83312000D01*
X93998032Y-83084836D01*
X93931771Y-82866401D01*
X93824168Y-82665091D01*
X93679359Y-82488641D01*
X93502909Y-82343832D01*
X93301599Y-82236229D01*
X93083164Y-82169968D01*
X92912918Y-82153200D01*
X91999082Y-82153200D01*
X91828836Y-82169968D01*
X91610401Y-82236229D01*
X91409091Y-82343832D01*
X91232641Y-82488641D01*
X91087832Y-82665091D01*
X90980229Y-82866401D01*
X90913968Y-83084836D01*
X90891594Y-83312000D01*
X50671800Y-83312000D01*
X50671800Y-80772000D01*
X90891594Y-80772000D01*
X90913968Y-80999164D01*
X90980229Y-81217599D01*
X91087832Y-81418909D01*
X91232641Y-81595359D01*
X91409091Y-81740168D01*
X91610401Y-81847771D01*
X91828836Y-81914032D01*
X91999082Y-81930800D01*
X92912918Y-81930800D01*
X93083164Y-81914032D01*
X93301599Y-81847771D01*
X93502909Y-81740168D01*
X93679359Y-81595359D01*
X93824168Y-81418909D01*
X93931771Y-81217599D01*
X93998032Y-80999164D01*
X94020406Y-80772000D01*
X93998032Y-80544836D01*
X93931771Y-80326401D01*
X93824168Y-80125091D01*
X93679359Y-79948641D01*
X93502909Y-79803832D01*
X93301599Y-79696229D01*
X93083164Y-79629968D01*
X92912918Y-79613200D01*
X91999082Y-79613200D01*
X91828836Y-79629968D01*
X91610401Y-79696229D01*
X91409091Y-79803832D01*
X91232641Y-79948641D01*
X91087832Y-80125091D01*
X90980229Y-80326401D01*
X90913968Y-80544836D01*
X90891594Y-80772000D01*
X50671800Y-80772000D01*
X50671800Y-78232000D01*
X90891594Y-78232000D01*
X90913968Y-78459164D01*
X90980229Y-78677599D01*
X91087832Y-78878909D01*
X91232641Y-79055359D01*
X91409091Y-79200168D01*
X91610401Y-79307771D01*
X91828836Y-79374032D01*
X91999082Y-79390800D01*
X92912918Y-79390800D01*
X93083164Y-79374032D01*
X93301599Y-79307771D01*
X93502909Y-79200168D01*
X93679359Y-79055359D01*
X93824168Y-78878909D01*
X93931771Y-78677599D01*
X93998032Y-78459164D01*
X94020406Y-78232000D01*
X93998032Y-78004836D01*
X93931771Y-77786401D01*
X93824168Y-77585091D01*
X93679359Y-77408641D01*
X93502909Y-77263832D01*
X93301599Y-77156229D01*
X93083164Y-77089968D01*
X92912918Y-77073200D01*
X91999082Y-77073200D01*
X91828836Y-77089968D01*
X91610401Y-77156229D01*
X91409091Y-77263832D01*
X91232641Y-77408641D01*
X91087832Y-77585091D01*
X90980229Y-77786401D01*
X90913968Y-78004836D01*
X90891594Y-78232000D01*
X50671800Y-78232000D01*
X50671800Y-75692000D01*
X90891594Y-75692000D01*
X90913968Y-75919164D01*
X90980229Y-76137599D01*
X91087832Y-76338909D01*
X91232641Y-76515359D01*
X91409091Y-76660168D01*
X91610401Y-76767771D01*
X91828836Y-76834032D01*
X91999082Y-76850800D01*
X92912918Y-76850800D01*
X93083164Y-76834032D01*
X93301599Y-76767771D01*
X93502909Y-76660168D01*
X93679359Y-76515359D01*
X93824168Y-76338909D01*
X93931771Y-76137599D01*
X93998032Y-75919164D01*
X94020406Y-75692000D01*
X93998032Y-75464836D01*
X93931771Y-75246401D01*
X93824168Y-75045091D01*
X93679359Y-74868641D01*
X93502909Y-74723832D01*
X93301599Y-74616229D01*
X93083164Y-74549968D01*
X92912918Y-74533200D01*
X91999082Y-74533200D01*
X91828836Y-74549968D01*
X91610401Y-74616229D01*
X91409091Y-74723832D01*
X91232641Y-74868641D01*
X91087832Y-75045091D01*
X90980229Y-75246401D01*
X90913968Y-75464836D01*
X90891594Y-75692000D01*
X50671800Y-75692000D01*
X50671800Y-70975282D01*
X84466474Y-70975282D01*
X84466474Y-71518718D01*
X84572493Y-72051712D01*
X84780457Y-72553782D01*
X85082374Y-73005633D01*
X85466641Y-73389900D01*
X85918492Y-73691817D01*
X86420562Y-73899781D01*
X86953556Y-74005800D01*
X87496992Y-74005800D01*
X88029986Y-73899781D01*
X88532056Y-73691817D01*
X88983907Y-73389900D01*
X89221807Y-73152000D01*
X90891594Y-73152000D01*
X90913968Y-73379164D01*
X90980229Y-73597599D01*
X91087832Y-73798909D01*
X91232641Y-73975359D01*
X91409091Y-74120168D01*
X91610401Y-74227771D01*
X91828836Y-74294032D01*
X91999082Y-74310800D01*
X92912918Y-74310800D01*
X93083164Y-74294032D01*
X93301599Y-74227771D01*
X93502909Y-74120168D01*
X93679359Y-73975359D01*
X93824168Y-73798909D01*
X93931771Y-73597599D01*
X93998032Y-73379164D01*
X94020406Y-73152000D01*
X93998032Y-72924836D01*
X93931771Y-72706401D01*
X93824168Y-72505091D01*
X93679359Y-72328641D01*
X93502909Y-72183832D01*
X93301599Y-72076229D01*
X93083164Y-72009968D01*
X92912918Y-71993200D01*
X91999082Y-71993200D01*
X91828836Y-72009968D01*
X91610401Y-72076229D01*
X91409091Y-72183832D01*
X91232641Y-72328641D01*
X91087832Y-72505091D01*
X90980229Y-72706401D01*
X90913968Y-72924836D01*
X90891594Y-73152000D01*
X89221807Y-73152000D01*
X89368174Y-73005633D01*
X89670091Y-72553782D01*
X89878055Y-72051712D01*
X89984074Y-71518718D01*
X89984074Y-70975282D01*
X89878055Y-70442288D01*
X89670091Y-69940218D01*
X89368174Y-69488367D01*
X88983907Y-69104100D01*
X88532056Y-68802183D01*
X88029986Y-68594219D01*
X87496992Y-68488200D01*
X86953556Y-68488200D01*
X86420562Y-68594219D01*
X85918492Y-68802183D01*
X85466641Y-69104100D01*
X85082374Y-69488367D01*
X84780457Y-69940218D01*
X84572493Y-70442288D01*
X84466474Y-70975282D01*
X50671800Y-70975282D01*
X50671800Y-46083282D01*
X70266200Y-46083282D01*
X70266200Y-46626718D01*
X70372219Y-47159712D01*
X70580183Y-47661782D01*
X70882100Y-48113633D01*
X71266367Y-48497900D01*
X71718218Y-48799817D01*
X72220288Y-49007781D01*
X72753282Y-49113800D01*
X73296718Y-49113800D01*
X73829712Y-49007781D01*
X74331782Y-48799817D01*
X74783633Y-48497900D01*
X75167900Y-48113633D01*
X75469817Y-47661782D01*
X75677781Y-47159712D01*
X75783800Y-46626718D01*
X75783800Y-46083282D01*
X75677781Y-45550288D01*
X75469817Y-45048218D01*
X75167900Y-44596367D01*
X74783633Y-44212100D01*
X74331782Y-43910183D01*
X73829712Y-43702219D01*
X73296718Y-43596200D01*
X72753282Y-43596200D01*
X72220288Y-43702219D01*
X71718218Y-43910183D01*
X71266367Y-44212100D01*
X70882100Y-44596367D01*
X70580183Y-45048218D01*
X70372219Y-45550288D01*
X70266200Y-46083282D01*
X50671800Y-46083282D01*
X50671800Y-41603410D01*
X52143210Y-40132000D01*
X119560790Y-40132000D01*
X121412000Y-41983210D01*
G36*
X111871844Y-68613733D02*
X111978042Y-68870118D01*
X112132218Y-69100859D01*
X112328447Y-69297088D01*
X112559188Y-69451264D01*
X112815573Y-69557462D01*
X113087750Y-69611601D01*
X113365260Y-69611601D01*
X113637437Y-69557462D01*
X113893822Y-69451264D01*
X114124563Y-69297088D01*
X114320792Y-69100859D01*
X114447244Y-68911610D01*
X117856000Y-68911610D01*
X117856000Y-107220000D01*
X117860881Y-107269553D01*
X117875335Y-107317202D01*
X117898807Y-107361115D01*
X117930395Y-107399605D01*
X119930395Y-109399605D01*
X119968885Y-109431193D01*
X120012798Y-109454665D01*
X120060447Y-109469119D01*
X120110000Y-109474000D01*
X159438790Y-109474000D01*
X161290000Y-111325210D01*
X161290000Y-134292790D01*
X159438790Y-136144000D01*
X125444000Y-136144000D01*
X125394447Y-136148881D01*
X125346798Y-136163335D01*
X125302885Y-136186807D01*
X125264395Y-136218395D01*
X125232807Y-136256885D01*
X125209335Y-136300798D01*
X125200636Y-136321800D01*
X115365615Y-136321800D01*
X114122200Y-135078386D01*
X114122200Y-132986815D01*
X119648596Y-132986815D01*
X119648596Y-133264325D01*
X119702735Y-133536502D01*
X119808933Y-133792887D01*
X119963109Y-134023628D01*
X120159338Y-134219857D01*
X120390079Y-134374033D01*
X120646464Y-134480231D01*
X120918641Y-134534370D01*
X121196151Y-134534370D01*
X121468328Y-134480231D01*
X121724713Y-134374033D01*
X121955454Y-134219857D01*
X122151683Y-134023628D01*
X122305859Y-133792887D01*
X122412057Y-133536502D01*
X122466196Y-133264325D01*
X122466196Y-133214138D01*
X127621535Y-128058800D01*
X142576455Y-128058800D01*
X142611942Y-128094287D01*
X142842683Y-128248463D01*
X143099068Y-128354661D01*
X143371245Y-128408800D01*
X143648755Y-128408800D01*
X143920932Y-128354661D01*
X144177317Y-128248463D01*
X144408058Y-128094287D01*
X144604287Y-127898058D01*
X144758463Y-127667317D01*
X144864661Y-127410932D01*
X144918800Y-127138755D01*
X144918800Y-126861245D01*
X144864661Y-126589068D01*
X144758463Y-126332683D01*
X144604287Y-126101942D01*
X144408058Y-125905713D01*
X144177317Y-125751537D01*
X143920932Y-125645339D01*
X143652777Y-125592000D01*
X158304497Y-125592000D01*
X158304497Y-127392000D01*
X158315286Y-127501544D01*
X158347239Y-127606878D01*
X158399127Y-127703954D01*
X158468957Y-127789043D01*
X158554046Y-127858873D01*
X158651122Y-127910761D01*
X158756456Y-127942714D01*
X158866000Y-127953503D01*
X160666000Y-127953503D01*
X160775544Y-127942714D01*
X160880878Y-127910761D01*
X160977954Y-127858873D01*
X161063043Y-127789043D01*
X161132873Y-127703954D01*
X161184761Y-127606878D01*
X161216714Y-127501544D01*
X161227503Y-127392000D01*
X161227503Y-125592000D01*
X161216714Y-125482456D01*
X161184761Y-125377122D01*
X161132873Y-125280046D01*
X161063043Y-125194957D01*
X160977954Y-125125127D01*
X160880878Y-125073239D01*
X160775544Y-125041286D01*
X160742977Y-125038078D01*
X160899124Y-124881931D01*
X161058772Y-124643001D01*
X161168740Y-124377516D01*
X161224800Y-124095679D01*
X161224800Y-123808321D01*
X161168740Y-123526484D01*
X161058772Y-123260999D01*
X160899124Y-123022069D01*
X160695931Y-122818876D01*
X160491082Y-122682000D01*
X160695931Y-122545124D01*
X160899124Y-122341931D01*
X161058772Y-122103001D01*
X161168740Y-121837516D01*
X161224800Y-121555679D01*
X161224800Y-121268321D01*
X161168740Y-120986484D01*
X161058772Y-120720999D01*
X160899124Y-120482069D01*
X160695931Y-120278876D01*
X160457001Y-120119228D01*
X160191516Y-120009260D01*
X159909679Y-119953200D01*
X159622321Y-119953200D01*
X159340484Y-120009260D01*
X159074999Y-120119228D01*
X158836069Y-120278876D01*
X158632876Y-120482069D01*
X158473228Y-120720999D01*
X158363260Y-120986484D01*
X158307200Y-121268321D01*
X158307200Y-121555679D01*
X158363260Y-121837516D01*
X158473228Y-122103001D01*
X158632876Y-122341931D01*
X158836069Y-122545124D01*
X159040918Y-122682000D01*
X158836069Y-122818876D01*
X158632876Y-123022069D01*
X158473228Y-123260999D01*
X158363260Y-123526484D01*
X158307200Y-123808321D01*
X158307200Y-124095679D01*
X158363260Y-124377516D01*
X158473228Y-124643001D01*
X158632876Y-124881931D01*
X158789023Y-125038078D01*
X158756456Y-125041286D01*
X158651122Y-125073239D01*
X158554046Y-125125127D01*
X158468957Y-125194957D01*
X158399127Y-125280046D01*
X158347239Y-125377122D01*
X158315286Y-125482456D01*
X158304497Y-125592000D01*
X143652777Y-125592000D01*
X143648755Y-125591200D01*
X143371245Y-125591200D01*
X143099068Y-125645339D01*
X142842683Y-125751537D01*
X142611942Y-125905713D01*
X142576455Y-125941200D01*
X127234972Y-125941200D01*
X127182965Y-125936078D01*
X127130958Y-125941200D01*
X127130951Y-125941200D01*
X126994890Y-125954601D01*
X126975404Y-125956520D01*
X126928952Y-125970611D01*
X126775820Y-126017063D01*
X126591882Y-126115380D01*
X126430659Y-126247693D01*
X126397501Y-126288096D01*
X120968828Y-131716770D01*
X120918641Y-131716770D01*
X120646464Y-131770909D01*
X120390079Y-131877107D01*
X120159338Y-132031283D01*
X119963109Y-132227512D01*
X119808933Y-132458253D01*
X119702735Y-132714638D01*
X119648596Y-132986815D01*
X114122200Y-132986815D01*
X114122200Y-116586000D01*
X124530029Y-116586000D01*
X124574607Y-117038604D01*
X124706626Y-117473814D01*
X124921015Y-117874907D01*
X125209533Y-118226467D01*
X125561093Y-118514985D01*
X125962186Y-118729374D01*
X126397396Y-118861393D01*
X126736580Y-118894800D01*
X126963420Y-118894800D01*
X127302604Y-118861393D01*
X127737814Y-118729374D01*
X128138907Y-118514985D01*
X128490467Y-118226467D01*
X128533935Y-118173500D01*
X141948497Y-118173500D01*
X141948497Y-120078500D01*
X141959286Y-120188044D01*
X141991239Y-120293378D01*
X142043127Y-120390454D01*
X142112957Y-120475543D01*
X142198046Y-120545373D01*
X142295122Y-120597261D01*
X142400456Y-120629214D01*
X142510000Y-120640003D01*
X144510000Y-120640003D01*
X144619544Y-120629214D01*
X144724878Y-120597261D01*
X144821954Y-120545373D01*
X144907043Y-120475543D01*
X144976873Y-120390454D01*
X145028761Y-120293378D01*
X145060714Y-120188044D01*
X145071503Y-120078500D01*
X145071503Y-118173500D01*
X145060714Y-118063956D01*
X145028761Y-117958622D01*
X144976873Y-117861546D01*
X144907043Y-117776457D01*
X144821954Y-117706627D01*
X144724878Y-117654739D01*
X144619544Y-117622786D01*
X144510000Y-117611997D01*
X142510000Y-117611997D01*
X142400456Y-117622786D01*
X142295122Y-117654739D01*
X142198046Y-117706627D01*
X142112957Y-117776457D01*
X142043127Y-117861546D01*
X141991239Y-117958622D01*
X141959286Y-118063956D01*
X141948497Y-118173500D01*
X128533935Y-118173500D01*
X128778985Y-117874907D01*
X128993374Y-117473814D01*
X129125393Y-117038604D01*
X129169971Y-116586000D01*
X129125393Y-116133396D01*
X128993374Y-115698186D01*
X128778985Y-115297093D01*
X128490467Y-114945533D01*
X128138907Y-114657015D01*
X127737814Y-114442626D01*
X127302604Y-114310607D01*
X126963420Y-114277200D01*
X126736580Y-114277200D01*
X126397396Y-114310607D01*
X125962186Y-114442626D01*
X125561093Y-114657015D01*
X125209533Y-114945533D01*
X124921015Y-115297093D01*
X124706626Y-115698186D01*
X124574607Y-116133396D01*
X124530029Y-116586000D01*
X114122200Y-116586000D01*
X114122200Y-114046000D01*
X141943888Y-114046000D01*
X141973068Y-114342267D01*
X142059485Y-114627148D01*
X142199820Y-114889696D01*
X142388679Y-115119821D01*
X142618804Y-115308680D01*
X142881352Y-115449015D01*
X143166233Y-115535432D01*
X143388261Y-115557300D01*
X143631739Y-115557300D01*
X143853767Y-115535432D01*
X144138648Y-115449015D01*
X144401196Y-115308680D01*
X144631321Y-115119821D01*
X144820180Y-114889696D01*
X144960515Y-114627148D01*
X145046932Y-114342267D01*
X145076112Y-114046000D01*
X145046932Y-113749733D01*
X144960515Y-113464852D01*
X144820180Y-113202304D01*
X144631321Y-112972179D01*
X144401196Y-112783320D01*
X144138648Y-112642985D01*
X143853767Y-112556568D01*
X143631739Y-112534700D01*
X143388261Y-112534700D01*
X143166233Y-112556568D01*
X142881352Y-112642985D01*
X142618804Y-112783320D01*
X142388679Y-112972179D01*
X142199820Y-113202304D01*
X142059485Y-113464852D01*
X141973068Y-113749733D01*
X141943888Y-114046000D01*
X114122200Y-114046000D01*
X114122200Y-112763126D01*
X114221713Y-112912058D01*
X114417942Y-113108287D01*
X114648683Y-113262463D01*
X114905068Y-113368661D01*
X115177245Y-113422800D01*
X115454755Y-113422800D01*
X115726932Y-113368661D01*
X115983317Y-113262463D01*
X116214058Y-113108287D01*
X116410287Y-112912058D01*
X116467254Y-112826800D01*
X116478161Y-112826800D01*
X116518081Y-112830732D01*
X116558001Y-112826800D01*
X116558004Y-112826800D01*
X116677418Y-112815039D01*
X116830631Y-112768562D01*
X116971833Y-112693088D01*
X117095598Y-112591517D01*
X117121053Y-112560500D01*
X117362752Y-112318800D01*
X154603328Y-112318800D01*
X155837204Y-113552677D01*
X155817200Y-113653245D01*
X155817200Y-113930755D01*
X155871339Y-114202932D01*
X155977537Y-114459317D01*
X156131713Y-114690058D01*
X156327942Y-114886287D01*
X156558683Y-115040463D01*
X156815068Y-115146661D01*
X157087245Y-115200800D01*
X157364755Y-115200800D01*
X157636932Y-115146661D01*
X157893317Y-115040463D01*
X158124058Y-114886287D01*
X158320287Y-114690058D01*
X158467645Y-114469521D01*
X158473228Y-114483001D01*
X158632876Y-114721931D01*
X158836069Y-114925124D01*
X159040918Y-115062000D01*
X158836069Y-115198876D01*
X158632876Y-115402069D01*
X158473228Y-115640999D01*
X158363260Y-115906484D01*
X158307200Y-116188321D01*
X158307200Y-116475679D01*
X158363260Y-116757516D01*
X158473228Y-117023001D01*
X158632876Y-117261931D01*
X158836069Y-117465124D01*
X159074999Y-117624772D01*
X159340484Y-117734740D01*
X159622321Y-117790800D01*
X159909679Y-117790800D01*
X160191516Y-117734740D01*
X160457001Y-117624772D01*
X160695931Y-117465124D01*
X160899124Y-117261931D01*
X161058772Y-117023001D01*
X161168740Y-116757516D01*
X161224800Y-116475679D01*
X161224800Y-116188321D01*
X161168740Y-115906484D01*
X161058772Y-115640999D01*
X160899124Y-115402069D01*
X160695931Y-115198876D01*
X160491082Y-115062000D01*
X160695931Y-114925124D01*
X160899124Y-114721931D01*
X161058772Y-114483001D01*
X161168740Y-114217516D01*
X161224800Y-113935679D01*
X161224800Y-113648321D01*
X161168740Y-113366484D01*
X161058772Y-113100999D01*
X160899124Y-112862069D01*
X160695931Y-112658876D01*
X160457001Y-112499228D01*
X160191516Y-112389260D01*
X159909679Y-112333200D01*
X159622321Y-112333200D01*
X159340484Y-112389260D01*
X159074999Y-112499228D01*
X158836069Y-112658876D01*
X158632876Y-112862069D01*
X158473228Y-113100999D01*
X158467645Y-113114479D01*
X158320287Y-112893942D01*
X158124058Y-112697713D01*
X157893317Y-112543537D01*
X157636932Y-112437339D01*
X157364755Y-112383200D01*
X157087245Y-112383200D01*
X156986677Y-112403204D01*
X155542971Y-110959499D01*
X155517517Y-110928483D01*
X155393752Y-110826912D01*
X155252550Y-110751438D01*
X155099337Y-110704961D01*
X154979923Y-110693200D01*
X154979920Y-110693200D01*
X154940000Y-110689268D01*
X154900080Y-110693200D01*
X117066001Y-110693200D01*
X117026080Y-110689268D01*
X116986160Y-110693200D01*
X116986158Y-110693200D01*
X116866744Y-110704961D01*
X116713531Y-110751438D01*
X116648382Y-110786261D01*
X116572328Y-110826912D01*
X116545266Y-110849122D01*
X116448564Y-110928483D01*
X116423105Y-110959505D01*
X116338477Y-111044132D01*
X116214058Y-110919713D01*
X115983317Y-110765537D01*
X115726932Y-110659339D01*
X115454755Y-110605200D01*
X115177245Y-110605200D01*
X114905068Y-110659339D01*
X114648683Y-110765537D01*
X114417942Y-110919713D01*
X114221713Y-111115942D01*
X114122200Y-111264874D01*
X114122200Y-89203614D01*
X116375100Y-86950716D01*
X116408536Y-86923276D01*
X116445049Y-86878785D01*
X116518042Y-86789843D01*
X116561535Y-86708472D01*
X116599413Y-86637608D01*
X116649521Y-86472425D01*
X116662200Y-86343690D01*
X116662200Y-86343681D01*
X116666439Y-86300641D01*
X116662200Y-86257601D01*
X116662200Y-82906407D01*
X116666440Y-82863359D01*
X116662200Y-82820310D01*
X116649521Y-82691575D01*
X116599413Y-82526392D01*
X116552769Y-82439127D01*
X116518042Y-82374157D01*
X116452428Y-82294207D01*
X116408536Y-82240724D01*
X116375094Y-82213279D01*
X115398725Y-81236911D01*
X115371276Y-81203464D01*
X115237842Y-81093958D01*
X115085608Y-81012587D01*
X114920425Y-80962479D01*
X114791690Y-80949800D01*
X114791688Y-80949800D01*
X114748640Y-80945560D01*
X114705592Y-80949800D01*
X113890014Y-80949800D01*
X113876661Y-80882668D01*
X113770463Y-80626283D01*
X113616287Y-80395542D01*
X113420058Y-80199313D01*
X113189317Y-80045137D01*
X112932932Y-79938939D01*
X112660755Y-79884800D01*
X112383245Y-79884800D01*
X112111068Y-79938939D01*
X111854683Y-80045137D01*
X111836200Y-80057487D01*
X111836200Y-68434537D01*
X111871844Y-68613733D01*
X111871844Y-68613733D01*
G37*
X111871844Y-68613733D02*
X111978042Y-68870118D01*
X112132218Y-69100859D01*
X112328447Y-69297088D01*
X112559188Y-69451264D01*
X112815573Y-69557462D01*
X113087750Y-69611601D01*
X113365260Y-69611601D01*
X113637437Y-69557462D01*
X113893822Y-69451264D01*
X114124563Y-69297088D01*
X114320792Y-69100859D01*
X114447244Y-68911610D01*
X117856000Y-68911610D01*
X117856000Y-107220000D01*
X117860881Y-107269553D01*
X117875335Y-107317202D01*
X117898807Y-107361115D01*
X117930395Y-107399605D01*
X119930395Y-109399605D01*
X119968885Y-109431193D01*
X120012798Y-109454665D01*
X120060447Y-109469119D01*
X120110000Y-109474000D01*
X159438790Y-109474000D01*
X161290000Y-111325210D01*
X161290000Y-134292790D01*
X159438790Y-136144000D01*
X125444000Y-136144000D01*
X125394447Y-136148881D01*
X125346798Y-136163335D01*
X125302885Y-136186807D01*
X125264395Y-136218395D01*
X125232807Y-136256885D01*
X125209335Y-136300798D01*
X125200636Y-136321800D01*
X115365615Y-136321800D01*
X114122200Y-135078386D01*
X114122200Y-132986815D01*
X119648596Y-132986815D01*
X119648596Y-133264325D01*
X119702735Y-133536502D01*
X119808933Y-133792887D01*
X119963109Y-134023628D01*
X120159338Y-134219857D01*
X120390079Y-134374033D01*
X120646464Y-134480231D01*
X120918641Y-134534370D01*
X121196151Y-134534370D01*
X121468328Y-134480231D01*
X121724713Y-134374033D01*
X121955454Y-134219857D01*
X122151683Y-134023628D01*
X122305859Y-133792887D01*
X122412057Y-133536502D01*
X122466196Y-133264325D01*
X122466196Y-133214138D01*
X127621535Y-128058800D01*
X142576455Y-128058800D01*
X142611942Y-128094287D01*
X142842683Y-128248463D01*
X143099068Y-128354661D01*
X143371245Y-128408800D01*
X143648755Y-128408800D01*
X143920932Y-128354661D01*
X144177317Y-128248463D01*
X144408058Y-128094287D01*
X144604287Y-127898058D01*
X144758463Y-127667317D01*
X144864661Y-127410932D01*
X144918800Y-127138755D01*
X144918800Y-126861245D01*
X144864661Y-126589068D01*
X144758463Y-126332683D01*
X144604287Y-126101942D01*
X144408058Y-125905713D01*
X144177317Y-125751537D01*
X143920932Y-125645339D01*
X143652777Y-125592000D01*
X158304497Y-125592000D01*
X158304497Y-127392000D01*
X158315286Y-127501544D01*
X158347239Y-127606878D01*
X158399127Y-127703954D01*
X158468957Y-127789043D01*
X158554046Y-127858873D01*
X158651122Y-127910761D01*
X158756456Y-127942714D01*
X158866000Y-127953503D01*
X160666000Y-127953503D01*
X160775544Y-127942714D01*
X160880878Y-127910761D01*
X160977954Y-127858873D01*
X161063043Y-127789043D01*
X161132873Y-127703954D01*
X161184761Y-127606878D01*
X161216714Y-127501544D01*
X161227503Y-127392000D01*
X161227503Y-125592000D01*
X161216714Y-125482456D01*
X161184761Y-125377122D01*
X161132873Y-125280046D01*
X161063043Y-125194957D01*
X160977954Y-125125127D01*
X160880878Y-125073239D01*
X160775544Y-125041286D01*
X160742977Y-125038078D01*
X160899124Y-124881931D01*
X161058772Y-124643001D01*
X161168740Y-124377516D01*
X161224800Y-124095679D01*
X161224800Y-123808321D01*
X161168740Y-123526484D01*
X161058772Y-123260999D01*
X160899124Y-123022069D01*
X160695931Y-122818876D01*
X160491082Y-122682000D01*
X160695931Y-122545124D01*
X160899124Y-122341931D01*
X161058772Y-122103001D01*
X161168740Y-121837516D01*
X161224800Y-121555679D01*
X161224800Y-121268321D01*
X161168740Y-120986484D01*
X161058772Y-120720999D01*
X160899124Y-120482069D01*
X160695931Y-120278876D01*
X160457001Y-120119228D01*
X160191516Y-120009260D01*
X159909679Y-119953200D01*
X159622321Y-119953200D01*
X159340484Y-120009260D01*
X159074999Y-120119228D01*
X158836069Y-120278876D01*
X158632876Y-120482069D01*
X158473228Y-120720999D01*
X158363260Y-120986484D01*
X158307200Y-121268321D01*
X158307200Y-121555679D01*
X158363260Y-121837516D01*
X158473228Y-122103001D01*
X158632876Y-122341931D01*
X158836069Y-122545124D01*
X159040918Y-122682000D01*
X158836069Y-122818876D01*
X158632876Y-123022069D01*
X158473228Y-123260999D01*
X158363260Y-123526484D01*
X158307200Y-123808321D01*
X158307200Y-124095679D01*
X158363260Y-124377516D01*
X158473228Y-124643001D01*
X158632876Y-124881931D01*
X158789023Y-125038078D01*
X158756456Y-125041286D01*
X158651122Y-125073239D01*
X158554046Y-125125127D01*
X158468957Y-125194957D01*
X158399127Y-125280046D01*
X158347239Y-125377122D01*
X158315286Y-125482456D01*
X158304497Y-125592000D01*
X143652777Y-125592000D01*
X143648755Y-125591200D01*
X143371245Y-125591200D01*
X143099068Y-125645339D01*
X142842683Y-125751537D01*
X142611942Y-125905713D01*
X142576455Y-125941200D01*
X127234972Y-125941200D01*
X127182965Y-125936078D01*
X127130958Y-125941200D01*
X127130951Y-125941200D01*
X126994890Y-125954601D01*
X126975404Y-125956520D01*
X126928952Y-125970611D01*
X126775820Y-126017063D01*
X126591882Y-126115380D01*
X126430659Y-126247693D01*
X126397501Y-126288096D01*
X120968828Y-131716770D01*
X120918641Y-131716770D01*
X120646464Y-131770909D01*
X120390079Y-131877107D01*
X120159338Y-132031283D01*
X119963109Y-132227512D01*
X119808933Y-132458253D01*
X119702735Y-132714638D01*
X119648596Y-132986815D01*
X114122200Y-132986815D01*
X114122200Y-116586000D01*
X124530029Y-116586000D01*
X124574607Y-117038604D01*
X124706626Y-117473814D01*
X124921015Y-117874907D01*
X125209533Y-118226467D01*
X125561093Y-118514985D01*
X125962186Y-118729374D01*
X126397396Y-118861393D01*
X126736580Y-118894800D01*
X126963420Y-118894800D01*
X127302604Y-118861393D01*
X127737814Y-118729374D01*
X128138907Y-118514985D01*
X128490467Y-118226467D01*
X128533935Y-118173500D01*
X141948497Y-118173500D01*
X141948497Y-120078500D01*
X141959286Y-120188044D01*
X141991239Y-120293378D01*
X142043127Y-120390454D01*
X142112957Y-120475543D01*
X142198046Y-120545373D01*
X142295122Y-120597261D01*
X142400456Y-120629214D01*
X142510000Y-120640003D01*
X144510000Y-120640003D01*
X144619544Y-120629214D01*
X144724878Y-120597261D01*
X144821954Y-120545373D01*
X144907043Y-120475543D01*
X144976873Y-120390454D01*
X145028761Y-120293378D01*
X145060714Y-120188044D01*
X145071503Y-120078500D01*
X145071503Y-118173500D01*
X145060714Y-118063956D01*
X145028761Y-117958622D01*
X144976873Y-117861546D01*
X144907043Y-117776457D01*
X144821954Y-117706627D01*
X144724878Y-117654739D01*
X144619544Y-117622786D01*
X144510000Y-117611997D01*
X142510000Y-117611997D01*
X142400456Y-117622786D01*
X142295122Y-117654739D01*
X142198046Y-117706627D01*
X142112957Y-117776457D01*
X142043127Y-117861546D01*
X141991239Y-117958622D01*
X141959286Y-118063956D01*
X141948497Y-118173500D01*
X128533935Y-118173500D01*
X128778985Y-117874907D01*
X128993374Y-117473814D01*
X129125393Y-117038604D01*
X129169971Y-116586000D01*
X129125393Y-116133396D01*
X128993374Y-115698186D01*
X128778985Y-115297093D01*
X128490467Y-114945533D01*
X128138907Y-114657015D01*
X127737814Y-114442626D01*
X127302604Y-114310607D01*
X126963420Y-114277200D01*
X126736580Y-114277200D01*
X126397396Y-114310607D01*
X125962186Y-114442626D01*
X125561093Y-114657015D01*
X125209533Y-114945533D01*
X124921015Y-115297093D01*
X124706626Y-115698186D01*
X124574607Y-116133396D01*
X124530029Y-116586000D01*
X114122200Y-116586000D01*
X114122200Y-114046000D01*
X141943888Y-114046000D01*
X141973068Y-114342267D01*
X142059485Y-114627148D01*
X142199820Y-114889696D01*
X142388679Y-115119821D01*
X142618804Y-115308680D01*
X142881352Y-115449015D01*
X143166233Y-115535432D01*
X143388261Y-115557300D01*
X143631739Y-115557300D01*
X143853767Y-115535432D01*
X144138648Y-115449015D01*
X144401196Y-115308680D01*
X144631321Y-115119821D01*
X144820180Y-114889696D01*
X144960515Y-114627148D01*
X145046932Y-114342267D01*
X145076112Y-114046000D01*
X145046932Y-113749733D01*
X144960515Y-113464852D01*
X144820180Y-113202304D01*
X144631321Y-112972179D01*
X144401196Y-112783320D01*
X144138648Y-112642985D01*
X143853767Y-112556568D01*
X143631739Y-112534700D01*
X143388261Y-112534700D01*
X143166233Y-112556568D01*
X142881352Y-112642985D01*
X142618804Y-112783320D01*
X142388679Y-112972179D01*
X142199820Y-113202304D01*
X142059485Y-113464852D01*
X141973068Y-113749733D01*
X141943888Y-114046000D01*
X114122200Y-114046000D01*
X114122200Y-112763126D01*
X114221713Y-112912058D01*
X114417942Y-113108287D01*
X114648683Y-113262463D01*
X114905068Y-113368661D01*
X115177245Y-113422800D01*
X115454755Y-113422800D01*
X115726932Y-113368661D01*
X115983317Y-113262463D01*
X116214058Y-113108287D01*
X116410287Y-112912058D01*
X116467254Y-112826800D01*
X116478161Y-112826800D01*
X116518081Y-112830732D01*
X116558001Y-112826800D01*
X116558004Y-112826800D01*
X116677418Y-112815039D01*
X116830631Y-112768562D01*
X116971833Y-112693088D01*
X117095598Y-112591517D01*
X117121053Y-112560500D01*
X117362752Y-112318800D01*
X154603328Y-112318800D01*
X155837204Y-113552677D01*
X155817200Y-113653245D01*
X155817200Y-113930755D01*
X155871339Y-114202932D01*
X155977537Y-114459317D01*
X156131713Y-114690058D01*
X156327942Y-114886287D01*
X156558683Y-115040463D01*
X156815068Y-115146661D01*
X157087245Y-115200800D01*
X157364755Y-115200800D01*
X157636932Y-115146661D01*
X157893317Y-115040463D01*
X158124058Y-114886287D01*
X158320287Y-114690058D01*
X158467645Y-114469521D01*
X158473228Y-114483001D01*
X158632876Y-114721931D01*
X158836069Y-114925124D01*
X159040918Y-115062000D01*
X158836069Y-115198876D01*
X158632876Y-115402069D01*
X158473228Y-115640999D01*
X158363260Y-115906484D01*
X158307200Y-116188321D01*
X158307200Y-116475679D01*
X158363260Y-116757516D01*
X158473228Y-117023001D01*
X158632876Y-117261931D01*
X158836069Y-117465124D01*
X159074999Y-117624772D01*
X159340484Y-117734740D01*
X159622321Y-117790800D01*
X159909679Y-117790800D01*
X160191516Y-117734740D01*
X160457001Y-117624772D01*
X160695931Y-117465124D01*
X160899124Y-117261931D01*
X161058772Y-117023001D01*
X161168740Y-116757516D01*
X161224800Y-116475679D01*
X161224800Y-116188321D01*
X161168740Y-115906484D01*
X161058772Y-115640999D01*
X160899124Y-115402069D01*
X160695931Y-115198876D01*
X160491082Y-115062000D01*
X160695931Y-114925124D01*
X160899124Y-114721931D01*
X161058772Y-114483001D01*
X161168740Y-114217516D01*
X161224800Y-113935679D01*
X161224800Y-113648321D01*
X161168740Y-113366484D01*
X161058772Y-113100999D01*
X160899124Y-112862069D01*
X160695931Y-112658876D01*
X160457001Y-112499228D01*
X160191516Y-112389260D01*
X159909679Y-112333200D01*
X159622321Y-112333200D01*
X159340484Y-112389260D01*
X159074999Y-112499228D01*
X158836069Y-112658876D01*
X158632876Y-112862069D01*
X158473228Y-113100999D01*
X158467645Y-113114479D01*
X158320287Y-112893942D01*
X158124058Y-112697713D01*
X157893317Y-112543537D01*
X157636932Y-112437339D01*
X157364755Y-112383200D01*
X157087245Y-112383200D01*
X156986677Y-112403204D01*
X155542971Y-110959499D01*
X155517517Y-110928483D01*
X155393752Y-110826912D01*
X155252550Y-110751438D01*
X155099337Y-110704961D01*
X154979923Y-110693200D01*
X154979920Y-110693200D01*
X154940000Y-110689268D01*
X154900080Y-110693200D01*
X117066001Y-110693200D01*
X117026080Y-110689268D01*
X116986160Y-110693200D01*
X116986158Y-110693200D01*
X116866744Y-110704961D01*
X116713531Y-110751438D01*
X116648382Y-110786261D01*
X116572328Y-110826912D01*
X116545266Y-110849122D01*
X116448564Y-110928483D01*
X116423105Y-110959505D01*
X116338477Y-111044132D01*
X116214058Y-110919713D01*
X115983317Y-110765537D01*
X115726932Y-110659339D01*
X115454755Y-110605200D01*
X115177245Y-110605200D01*
X114905068Y-110659339D01*
X114648683Y-110765537D01*
X114417942Y-110919713D01*
X114221713Y-111115942D01*
X114122200Y-111264874D01*
X114122200Y-89203614D01*
X116375100Y-86950716D01*
X116408536Y-86923276D01*
X116445049Y-86878785D01*
X116518042Y-86789843D01*
X116561535Y-86708472D01*
X116599413Y-86637608D01*
X116649521Y-86472425D01*
X116662200Y-86343690D01*
X116662200Y-86343681D01*
X116666439Y-86300641D01*
X116662200Y-86257601D01*
X116662200Y-82906407D01*
X116666440Y-82863359D01*
X116662200Y-82820310D01*
X116649521Y-82691575D01*
X116599413Y-82526392D01*
X116552769Y-82439127D01*
X116518042Y-82374157D01*
X116452428Y-82294207D01*
X116408536Y-82240724D01*
X116375094Y-82213279D01*
X115398725Y-81236911D01*
X115371276Y-81203464D01*
X115237842Y-81093958D01*
X115085608Y-81012587D01*
X114920425Y-80962479D01*
X114791690Y-80949800D01*
X114791688Y-80949800D01*
X114748640Y-80945560D01*
X114705592Y-80949800D01*
X113890014Y-80949800D01*
X113876661Y-80882668D01*
X113770463Y-80626283D01*
X113616287Y-80395542D01*
X113420058Y-80199313D01*
X113189317Y-80045137D01*
X112932932Y-79938939D01*
X112660755Y-79884800D01*
X112383245Y-79884800D01*
X112111068Y-79938939D01*
X111854683Y-80045137D01*
X111836200Y-80057487D01*
X111836200Y-68434537D01*
X111871844Y-68613733D01*
G36*
X109143801Y-80057487D02*
X109125317Y-80045137D01*
X108868932Y-79938939D01*
X108596755Y-79884800D01*
X108319245Y-79884800D01*
X108254800Y-79897619D01*
X108254800Y-68271462D01*
X109143800Y-67382462D01*
X109143801Y-80057487D01*
X109143801Y-80057487D01*
G37*
X109143801Y-80057487D02*
X109125317Y-80045137D01*
X108868932Y-79938939D01*
X108596755Y-79884800D01*
X108319245Y-79884800D01*
X108254800Y-79897619D01*
X108254800Y-68271462D01*
X109143800Y-67382462D01*
X109143801Y-80057487D01*
G36*
X141329291Y-148470020D02*
X141922000Y-148590000D01*
X245174000Y-148590000D01*
X245757210Y-148473992D01*
X246251631Y-148143631D01*
X247075262Y-147320000D01*
X247575001Y-147320000D01*
X247575000Y-151055000D01*
X51637000Y-151055000D01*
X51637000Y-148510236D01*
X52038000Y-148590000D01*
X132366000Y-148590000D01*
X132961984Y-148468633D01*
X133453382Y-148133791D01*
X133779236Y-147636387D01*
X133906931Y-147320000D01*
X138605103Y-147320000D01*
X141329291Y-148470020D01*
X141329291Y-148470020D01*
G37*
X141329291Y-148470020D02*
X141922000Y-148590000D01*
X245174000Y-148590000D01*
X245757210Y-148473992D01*
X246251631Y-148143631D01*
X247075262Y-147320000D01*
X247575001Y-147320000D01*
X247575000Y-151055000D01*
X51637000Y-151055000D01*
X51637000Y-148510236D01*
X52038000Y-148590000D01*
X132366000Y-148590000D01*
X132961984Y-148468633D01*
X133453382Y-148133791D01*
X133779236Y-147636387D01*
X133906931Y-147320000D01*
X138605103Y-147320000D01*
X141329291Y-148470020D01*
G36*
X247575001Y-38323789D02*
X246675026Y-39223764D01*
X246251631Y-38800369D01*
X245757210Y-38470008D01*
X245174000Y-38354000D01*
X126174000Y-38354000D01*
X125590790Y-38470008D01*
X125096369Y-38800369D01*
X124272738Y-39624000D01*
X121567262Y-39624000D01*
X120743631Y-38800369D01*
X120249210Y-38470008D01*
X119666000Y-38354000D01*
X52038000Y-38354000D01*
X51728728Y-38415518D01*
X51637000Y-38323790D01*
X51637000Y-35889000D01*
X247575000Y-35889000D01*
X247575001Y-38323789D01*
X247575001Y-38323789D01*
G37*
X247575001Y-38323789D02*
X246675026Y-39223764D01*
X246251631Y-38800369D01*
X245757210Y-38470008D01*
X245174000Y-38354000D01*
X126174000Y-38354000D01*
X125590790Y-38470008D01*
X125096369Y-38800369D01*
X124272738Y-39624000D01*
X121567262Y-39624000D01*
X120743631Y-38800369D01*
X120249210Y-38470008D01*
X119666000Y-38354000D01*
X52038000Y-38354000D01*
X51728728Y-38415518D01*
X51637000Y-38323790D01*
X51637000Y-35889000D01*
X247575000Y-35889000D01*
X247575001Y-38323789D01*
M02*
