  0
SECTION
  2
HEADER
  9
$ANGBASE
  50
0.0
  9
$ANGDIR
  70
  1
  9
$MEASUREMENT
  70
0
  0
ENDSEC
  0
SECTION
  2
TABLES
  0
TABLE
  2
LTYPE
  70
4
  0
LTYPE
  5
40F
  2
CONTINUOUS
  70
0
  3
Solid line
  72
65
  73
0
  40
0.0
  0
LTYPE
  5
410
  2
DASHDOT
 70
0
  3
Dash Dot ____ _ ____ _
 72
65
 73
4
 40
2.0
 49
1.25
 49
-0.25
 49
0.25
 49
-0.25
  0
LTYPE
  5
411
  2
DASHED
 70
0
  3
Dashed __ __ __ __ __
 72
65
 73
2
 40
0.75
 49
0.5
 49
-0.25
  0
LTYPE
  5
43B
  2
DOTTED
 70
0
  3
Dotted .  .  .  .
 72
65
 73
2
 40
0.2
 49
0.0
 49
-0.2
  0
ENDTAB
  0
TABLE
  2
STYLE
  70
4
  0
STYLE
  2
KICAD
  70
0
  40
0
  41
1
  42
1
  50
0
  71
0
  3
isocp.shx
  0
STYLE
  2
KICADB
  70
0
  40
0
  41
1
  42
1
  50
0
  71
0
  3
isocp.shx
  0
STYLE
  2
KICADI
  70
0
  40
0
  41
1
  42
1
  50
15
  71
0
  3
isocp.shx
  0
STYLE
  2
KICADBI
  70
0
  40
0
  41
1
  42
1
  50
15
  71
0
  3
isocp.shx
  0
ENDTAB
  0
TABLE
  2
LAYER
  70
30
  0
LAYER
  2
BLACK
  70
0
  62
7
  6
CONTINUOUS
  0
LAYER
  2
GRAY1
  70
0
  62
251
  6
CONTINUOUS
  0
LAYER
  2
GRAY2
  70
0
  62
8
  6
CONTINUOUS
  0
LAYER
  2
GRAY3
  70
0
  62
9
  6
CONTINUOUS
  0
LAYER
  2
WHITE
  70
0
  62
7
  6
CONTINUOUS
  0
LAYER
  2
LYELLOW
  70
0
  62
51
  6
CONTINUOUS
  0
LAYER
  2
BLUE1
  70
0
  62
178
  6
CONTINUOUS
  0
LAYER
  2
GREEN1
  70
0
  62
98
  6
CONTINUOUS
  0
LAYER
  2
CYAN1
  70
0
  62
138
  6
CONTINUOUS
  0
LAYER
  2
RED1
  70
0
  62
18
  6
CONTINUOUS
  0
LAYER
  2
MAGENTA1
  70
0
  62
228
  6
CONTINUOUS
  0
LAYER
  2
BROWN1
  70
0
  62
58
  6
CONTINUOUS
  0
LAYER
  2
BLUE2
  70
0
  62
5
  6
CONTINUOUS
  0
LAYER
  2
GREEN2
  70
0
  62
3
  6
CONTINUOUS
  0
LAYER
  2
CYAN2
  70
0
  62
4
  6
CONTINUOUS
  0
LAYER
  2
RED2
  70
0
  62
1
  6
CONTINUOUS
  0
LAYER
  2
MAGENTA2
  70
0
  62
6
  6
CONTINUOUS
  0
LAYER
  2
BROWN2
  70
0
  62
54
  6
CONTINUOUS
  0
LAYER
  2
BLUE3
  70
0
  62
171
  6
CONTINUOUS
  0
LAYER
  2
GREEN3
  70
0
  62
91
  6
CONTINUOUS
  0
LAYER
  2
CYAN3
  70
0
  62
131
  6
CONTINUOUS
  0
LAYER
  2
RED3
  70
0
  62
11
  6
CONTINUOUS
  0
LAYER
  2
MAGENTA3
  70
0
  62
221
  6
CONTINUOUS
  0
LAYER
  2
YELLOW3
  70
0
  62
2
  6
CONTINUOUS
  0
LAYER
  2
BLUE4
  70
0
  62
5
  6
CONTINUOUS
  0
LAYER
  2
GREEN4
  70
0
  62
3
  6
CONTINUOUS
  0
LAYER
  2
CYAN4
  70
0
  62
4
  6
CONTINUOUS
  0
LAYER
  2
RED4
  70
0
  62
1
  6
CONTINUOUS
  0
LAYER
  2
MAGENTA4
  70
0
  62
6
  6
CONTINUOUS
  0
LAYER
  2
YELLOW4
  70
0
  62
2
  6
CONTINUOUS
  0
ENDTAB
  0
ENDSEC
  0
SECTION
  2
ENTITIES
0
LINE
8
BLACK
6
CONTINUOUS
10
129.311
20
-54.8408
11
129.317
21
-54.8408
0
LINE
8
BLACK
6
CONTINUOUS
10
129.317
20
-54.8408
11
129.324
21
-54.8431
0
LINE
8
BLACK
6
CONTINUOUS
10
129.324
20
-54.8431
11
129.33
21
-54.8443
0
LINE
8
BLACK
6
CONTINUOUS
10
129.33
20
-54.8443
11
129.336
21
-54.8477
0
LINE
8
BLACK
6
CONTINUOUS
10
129.336
20
-54.8477
11
129.343
21
-54.85
0
LINE
8
BLACK
6
CONTINUOUS
10
129.343
20
-54.85
11
129.348
21
-54.8543
0
LINE
8
BLACK
6
CONTINUOUS
10
129.348
20
-54.8543
11
129.354
21
-54.8577
0
LINE
8
BLACK
6
CONTINUOUS
10
129.354
20
-54.8577
11
129.358
21
-54.8629
0
LINE
8
BLACK
6
CONTINUOUS
10
129.358
20
-54.8629
11
129.363
21
-54.8673
0
LINE
8
BLACK
6
CONTINUOUS
10
129.363
20
-54.8673
11
129.367
21
-54.8731
0
LINE
8
BLACK
6
CONTINUOUS
10
129.367
20
-54.8731
11
129.371
21
-54.8783
0
LINE
8
BLACK
6
CONTINUOUS
10
129.371
20
-54.8783
11
129.373
21
-54.8847
0
LINE
8
BLACK
6
CONTINUOUS
10
129.373
20
-54.8847
11
129.377
21
-54.8905
0
LINE
8
BLACK
6
CONTINUOUS
10
129.377
20
-54.8905
11
129.378
21
-54.8972
0
LINE
8
BLACK
6
CONTINUOUS
10
129.378
20
-54.8972
11
129.38
21
-54.9036
0
LINE
8
BLACK
6
CONTINUOUS
10
129.38
20
-54.9036
11
129.38
21
-54.9103
0
LINE
8
BLACK
6
CONTINUOUS
10
129.38
20
-54.9103
11
129.38
21
-54.9103
0
LINE
8
BLACK
6
CONTINUOUS
10
129.38
20
-54.9103
11
129.38
21
-58.3737
0
LINE
8
BLACK
6
CONTINUOUS
10
129.38
20
-58.3737
11
129.38
21
-58.3737
0
LINE
8
BLACK
6
CONTINUOUS
10
129.38
20
-58.3737
11
129.38
21
-58.3804
0
LINE
8
BLACK
6
CONTINUOUS
10
129.38
20
-58.3804
11
129.378
21
-58.3868
0
LINE
8
BLACK
6
CONTINUOUS
10
129.378
20
-58.3868
11
129.377
21
-58.3935
0
LINE
8
BLACK
6
CONTINUOUS
10
129.377
20
-58.3935
11
129.373
21
-58.3993
0
LINE
8
BLACK
6
CONTINUOUS
10
129.373
20
-58.3993
11
129.371
21
-58.4057
0
LINE
8
BLACK
6
CONTINUOUS
10
129.371
20
-58.4057
11
129.367
21
-58.4109
0
LINE
8
BLACK
6
CONTINUOUS
10
129.367
20
-58.4109
11
129.363
21
-58.4167
0
LINE
8
BLACK
6
CONTINUOUS
10
129.363
20
-58.4167
11
129.358
21
-58.4211
0
LINE
8
BLACK
6
CONTINUOUS
10
129.358
20
-58.4211
11
129.354
21
-58.4263
0
LINE
8
BLACK
6
CONTINUOUS
10
129.354
20
-58.4263
11
129.348
21
-58.4297
0
LINE
8
BLACK
6
CONTINUOUS
10
129.348
20
-58.4297
11
129.343
21
-58.434
0
LINE
8
BLACK
6
CONTINUOUS
10
129.343
20
-58.434
11
129.336
21
-58.4363
0
LINE
8
BLACK
6
CONTINUOUS
10
129.336
20
-58.4363
11
129.33
21
-58.4397
0
LINE
8
BLACK
6
CONTINUOUS
10
129.33
20
-58.4397
11
129.324
21
-58.4409
0
LINE
8
BLACK
6
CONTINUOUS
10
129.324
20
-58.4409
11
129.317
21
-58.4432
0
LINE
8
BLACK
6
CONTINUOUS
10
129.317
20
-58.4432
11
129.311
21
-58.4432
0
LINE
8
BLACK
6
CONTINUOUS
10
129.311
20
-58.4432
11
129.311
21
-58.4432
0
LINE
8
BLACK
6
CONTINUOUS
10
129.311
20
-58.4432
11
126.312
21
-58.4432
0
LINE
8
BLACK
6
CONTINUOUS
10
126.312
20
-58.4432
11
126.133
21
-58.5082
0
LINE
8
BLACK
6
CONTINUOUS
10
126.133
20
-58.5082
11
125.835
21
-58.5082
0
LINE
8
BLACK
6
CONTINUOUS
10
125.835
20
-58.5082
11
125.656
21
-58.4432
0
LINE
8
BLACK
6
CONTINUOUS
10
125.656
20
-58.4432
11
122.657
21
-58.4432
0
LINE
8
BLACK
6
CONTINUOUS
10
122.657
20
-58.4432
11
122.657
21
-58.4432
0
LINE
8
BLACK
6
CONTINUOUS
10
122.657
20
-58.4432
11
122.651
21
-58.4432
0
LINE
8
BLACK
6
CONTINUOUS
10
122.651
20
-58.4432
11
122.644
21
-58.4409
0
LINE
8
BLACK
6
CONTINUOUS
10
122.644
20
-58.4409
11
122.638
21
-58.4397
0
LINE
8
BLACK
6
CONTINUOUS
10
122.638
20
-58.4397
11
122.632
21
-58.4363
0
LINE
8
BLACK
6
CONTINUOUS
10
122.632
20
-58.4363
11
122.625
21
-58.434
0
LINE
8
BLACK
6
CONTINUOUS
10
122.625
20
-58.434
11
122.62
21
-58.4297
0
LINE
8
BLACK
6
CONTINUOUS
10
122.62
20
-58.4297
11
122.614
21
-58.4263
0
LINE
8
BLACK
6
CONTINUOUS
10
122.614
20
-58.4263
11
122.61
21
-58.4211
0
LINE
8
BLACK
6
CONTINUOUS
10
122.61
20
-58.4211
11
122.605
21
-58.4167
0
LINE
8
BLACK
6
CONTINUOUS
10
122.605
20
-58.4167
11
122.601
21
-58.4109
0
LINE
8
BLACK
6
CONTINUOUS
10
122.601
20
-58.4109
11
122.597
21
-58.4057
0
LINE
8
BLACK
6
CONTINUOUS
10
122.597
20
-58.4057
11
122.595
21
-58.3993
0
LINE
8
BLACK
6
CONTINUOUS
10
122.595
20
-58.3993
11
122.591
21
-58.3935
0
LINE
8
BLACK
6
CONTINUOUS
10
122.591
20
-58.3935
11
122.59
21
-58.3868
0
LINE
8
BLACK
6
CONTINUOUS
10
122.59
20
-58.3868
11
122.588
21
-58.3804
0
LINE
8
BLACK
6
CONTINUOUS
10
122.588
20
-58.3804
11
122.588
21
-58.3737
0
LINE
8
BLACK
6
CONTINUOUS
10
122.588
20
-58.3737
11
122.588
21
-58.3737
0
LINE
8
BLACK
6
CONTINUOUS
10
122.588
20
-58.3737
11
122.588
21
-55.8237
0
LINE
8
BLACK
6
CONTINUOUS
10
122.588
20
-55.8237
11
122.588
21
-55.8237
0
LINE
8
BLACK
6
CONTINUOUS
10
122.588
20
-55.8237
11
122.588
21
-54.9103
0
LINE
8
BLACK
6
CONTINUOUS
10
122.588
20
-54.9103
11
122.588
21
-54.9036
0
LINE
8
BLACK
6
CONTINUOUS
10
122.588
20
-54.9036
11
122.59
21
-54.8972
0
LINE
8
BLACK
6
CONTINUOUS
10
122.59
20
-54.8972
11
122.591
21
-54.8905
0
LINE
8
BLACK
6
CONTINUOUS
10
122.591
20
-54.8905
11
122.595
21
-54.8847
0
LINE
8
BLACK
6
CONTINUOUS
10
122.595
20
-54.8847
11
122.597
21
-54.8783
0
LINE
8
BLACK
6
CONTINUOUS
10
122.597
20
-54.8783
11
122.601
21
-54.8731
0
LINE
8
BLACK
6
CONTINUOUS
10
122.601
20
-54.8731
11
122.605
21
-54.8673
0
LINE
8
BLACK
6
CONTINUOUS
10
122.605
20
-54.8673
11
122.61
21
-54.8629
0
LINE
8
BLACK
6
CONTINUOUS
10
122.61
20
-54.8629
11
122.614
21
-54.8577
0
LINE
8
BLACK
6
CONTINUOUS
10
122.614
20
-54.8577
11
122.62
21
-54.8543
0
LINE
8
BLACK
6
CONTINUOUS
10
122.62
20
-54.8543
11
122.625
21
-54.85
0
LINE
8
BLACK
6
CONTINUOUS
10
122.625
20
-54.85
11
122.632
21
-54.8477
0
LINE
8
BLACK
6
CONTINUOUS
10
122.632
20
-54.8477
11
122.638
21
-54.8443
0
LINE
8
BLACK
6
CONTINUOUS
10
122.638
20
-54.8443
11
122.644
21
-54.8431
0
LINE
8
BLACK
6
CONTINUOUS
10
122.644
20
-54.8431
11
122.651
21
-54.8408
0
LINE
8
BLACK
6
CONTINUOUS
10
122.651
20
-54.8408
11
122.657
21
-54.8408
0
LINE
8
BLACK
6
CONTINUOUS
10
122.657
20
-54.8408
11
122.657
21
-54.8408
0
LINE
8
BLACK
6
CONTINUOUS
10
122.657
20
-54.8408
11
129.311
21
-54.8408
0
LINE
8
BLACK
6
CONTINUOUS
10
129.311
20
-54.8408
11
129.311
21
-54.8408
0
LINE
8
BLACK
6
CONTINUOUS
10
122.74
20
-57.5432
11
122.74
21
-58.2908
0
LINE
8
BLACK
6
CONTINUOUS
10
122.74
20
-58.2908
11
125.417
21
-58.2908
0
LINE
8
BLACK
6
CONTINUOUS
10
125.417
20
-58.2908
11
125.327
21
-58.2146
0
LINE
8
BLACK
6
CONTINUOUS
10
125.327
20
-58.2146
11
125.178
21
-57.9565
0
LINE
8
BLACK
6
CONTINUOUS
10
125.178
20
-57.9565
11
125.126
21
-57.663
0
LINE
8
BLACK
6
CONTINUOUS
10
125.126
20
-57.663
11
125.147
21
-57.5432
0
LINE
8
BLACK
6
CONTINUOUS
10
125.147
20
-57.5432
11
122.74
21
-57.5432
0
LINE
8
BLACK
6
CONTINUOUS
10
126.641
20
-58.2146
11
126.551
21
-58.2908
0
LINE
8
BLACK
6
CONTINUOUS
10
126.551
20
-58.2908
11
129.228
21
-58.2908
0
LINE
8
BLACK
6
CONTINUOUS
10
129.228
20
-58.2908
11
129.228
21
-57.9565
0
LINE
8
BLACK
6
CONTINUOUS
10
129.228
20
-57.9565
11
129.228
21
-57.5432
0
LINE
8
BLACK
6
CONTINUOUS
10
129.228
20
-57.5432
11
126.821
21
-57.5432
0
LINE
8
BLACK
6
CONTINUOUS
10
126.821
20
-57.5432
11
126.842
21
-57.663
0
LINE
8
BLACK
6
CONTINUOUS
10
126.842
20
-57.663
11
126.79
21
-57.9565
0
LINE
8
BLACK
6
CONTINUOUS
10
126.79
20
-57.9565
11
126.641
21
-58.2146
0
LINE
8
BLACK
6
CONTINUOUS
10
122.74
20
-55.8932
11
122.74
21
-57.3908
0
LINE
8
BLACK
6
CONTINUOUS
10
122.74
20
-57.3908
11
125.174
21
-57.3908
0
LINE
8
BLACK
6
CONTINUOUS
10
125.174
20
-57.3908
11
125.178
21
-57.3695
0
LINE
8
BLACK
6
CONTINUOUS
10
125.178
20
-57.3695
11
125.327
21
-57.1114
0
LINE
8
BLACK
6
CONTINUOUS
10
125.327
20
-57.1114
11
125.555
21
-56.9198
0
LINE
8
BLACK
6
CONTINUOUS
10
125.555
20
-56.9198
11
125.835
21
-56.8178
0
LINE
8
BLACK
6
CONTINUOUS
10
125.835
20
-56.8178
11
126.133
21
-56.8178
0
LINE
8
BLACK
6
CONTINUOUS
10
126.133
20
-56.8178
11
126.413
21
-56.9198
0
LINE
8
BLACK
6
CONTINUOUS
10
126.413
20
-56.9198
11
126.641
21
-57.1114
0
LINE
8
BLACK
6
CONTINUOUS
10
126.641
20
-57.1114
11
126.79
21
-57.3695
0
LINE
8
BLACK
6
CONTINUOUS
10
126.79
20
-57.3695
11
126.794
21
-57.3908
0
LINE
8
BLACK
6
CONTINUOUS
10
126.794
20
-57.3908
11
129.228
21
-57.3908
0
LINE
8
BLACK
6
CONTINUOUS
10
129.228
20
-57.3908
11
129.228
21
-55.8932
0
LINE
8
BLACK
6
CONTINUOUS
10
129.228
20
-55.8932
11
122.74
21
-55.8932
0
LINE
8
BLACK
6
CONTINUOUS
10
125.865
20
-56.9876
11
125.641
21
-57.0691
0
LINE
8
BLACK
6
CONTINUOUS
10
125.641
20
-57.0691
11
125.459
21
-57.2222
0
LINE
8
BLACK
6
CONTINUOUS
10
125.459
20
-57.2222
11
125.361
21
-57.3908
0
LINE
8
BLACK
6
CONTINUOUS
10
125.361
20
-57.3908
11
126.607
21
-57.3908
0
LINE
8
BLACK
6
CONTINUOUS
10
126.607
20
-57.3908
11
126.509
21
-57.2222
0
LINE
8
BLACK
6
CONTINUOUS
10
126.509
20
-57.2222
11
126.327
21
-57.0691
0
LINE
8
BLACK
6
CONTINUOUS
10
126.327
20
-57.0691
11
126.103
21
-56.9876
0
LINE
8
BLACK
6
CONTINUOUS
10
126.103
20
-56.9876
11
125.865
21
-56.9876
0
LINE
8
BLACK
6
CONTINUOUS
10
122.74
20
-54.9932
11
122.74
21
-55.7408
0
LINE
8
BLACK
6
CONTINUOUS
10
122.74
20
-55.7408
11
129.228
21
-55.7408
0
LINE
8
BLACK
6
CONTINUOUS
10
129.228
20
-55.7408
11
129.228
21
-54.9932
0
LINE
8
BLACK
6
CONTINUOUS
10
129.228
20
-54.9932
11
122.74
21
-54.9932
0
LINE
8
BLACK
6
CONTINUOUS
10
125.319
20
-57.5432
11
125.298
21
-57.663
0
LINE
8
BLACK
6
CONTINUOUS
10
125.298
20
-57.663
11
125.34
21
-57.8976
0
LINE
8
BLACK
6
CONTINUOUS
10
125.34
20
-57.8976
11
125.459
21
-58.1038
0
LINE
8
BLACK
6
CONTINUOUS
10
125.459
20
-58.1038
11
125.641
21
-58.2569
0
LINE
8
BLACK
6
CONTINUOUS
10
125.641
20
-58.2569
11
125.734
21
-58.2908
0
LINE
8
BLACK
6
CONTINUOUS
10
125.734
20
-58.2908
11
126.234
21
-58.2908
0
LINE
8
BLACK
6
CONTINUOUS
10
126.234
20
-58.2908
11
126.327
21
-58.2569
0
LINE
8
BLACK
6
CONTINUOUS
10
126.327
20
-58.2569
11
126.509
21
-58.1038
0
LINE
8
BLACK
6
CONTINUOUS
10
126.509
20
-58.1038
11
126.628
21
-57.8976
0
LINE
8
BLACK
6
CONTINUOUS
10
126.628
20
-57.8976
11
126.67
21
-57.663
0
LINE
8
BLACK
6
CONTINUOUS
10
126.67
20
-57.663
11
126.649
21
-57.5432
0
LINE
8
BLACK
6
CONTINUOUS
10
126.649
20
-57.5432
11
125.319
21
-57.5432
0
LINE
8
BLACK
6
CONTINUOUS
10
118.087
20
-55.2887
11
118.088
21
-55.282
0
LINE
8
BLACK
6
CONTINUOUS
10
118.088
20
-55.282
11
118.091
21
-55.2762
0
LINE
8
BLACK
6
CONTINUOUS
10
118.091
20
-55.2762
11
118.094
21
-55.2698
0
LINE
8
BLACK
6
CONTINUOUS
10
118.094
20
-55.2698
11
118.098
21
-55.2646
0
LINE
8
BLACK
6
CONTINUOUS
10
118.098
20
-55.2646
11
118.102
21
-55.2588
0
LINE
8
BLACK
6
CONTINUOUS
10
118.102
20
-55.2588
11
118.107
21
-55.2544
0
LINE
8
BLACK
6
CONTINUOUS
10
118.107
20
-55.2544
11
118.111
21
-55.2492
0
LINE
8
BLACK
6
CONTINUOUS
10
118.111
20
-55.2492
11
118.117
21
-55.2458
0
LINE
8
BLACK
6
CONTINUOUS
10
118.117
20
-55.2458
11
118.122
21
-55.2415
0
LINE
8
BLACK
6
CONTINUOUS
10
118.122
20
-55.2415
11
118.128
21
-55.2392
0
LINE
8
BLACK
6
CONTINUOUS
10
118.128
20
-55.2392
11
118.134
21
-55.2358
0
LINE
8
BLACK
6
CONTINUOUS
10
118.134
20
-55.2358
11
118.141
21
-55.2346
0
LINE
8
BLACK
6
CONTINUOUS
10
118.141
20
-55.2346
11
118.147
21
-55.2323
0
LINE
8
BLACK
6
CONTINUOUS
10
118.147
20
-55.2323
11
118.154
21
-55.2323
0
LINE
8
BLACK
6
CONTINUOUS
10
118.154
20
-55.2323
11
118.154
21
-55.2323
0
LINE
8
BLACK
6
CONTINUOUS
10
118.154
20
-55.2323
11
119.59
21
-55.2323
0
LINE
8
BLACK
6
CONTINUOUS
10
119.59
20
-55.2323
11
119.59
21
-55.2323
0
LINE
8
BLACK
6
CONTINUOUS
10
119.59
20
-55.2323
11
119.597
21
-55.2323
0
LINE
8
BLACK
6
CONTINUOUS
10
119.597
20
-55.2323
11
119.603
21
-55.2346
0
LINE
8
BLACK
6
CONTINUOUS
10
119.603
20
-55.2346
11
119.61
21
-55.2358
0
LINE
8
BLACK
6
CONTINUOUS
10
119.61
20
-55.2358
11
119.616
21
-55.2392
0
LINE
8
BLACK
6
CONTINUOUS
10
119.616
20
-55.2392
11
119.622
21
-55.2415
0
LINE
8
BLACK
6
CONTINUOUS
10
119.622
20
-55.2415
11
119.627
21
-55.2458
0
LINE
8
BLACK
6
CONTINUOUS
10
119.627
20
-55.2458
11
119.633
21
-55.2492
0
LINE
8
BLACK
6
CONTINUOUS
10
119.633
20
-55.2492
11
119.637
21
-55.2544
0
LINE
8
BLACK
6
CONTINUOUS
10
119.637
20
-55.2544
11
119.642
21
-55.2588
0
LINE
8
BLACK
6
CONTINUOUS
10
119.642
20
-55.2588
11
119.646
21
-55.2646
0
LINE
8
BLACK
6
CONTINUOUS
10
119.646
20
-55.2646
11
119.65
21
-55.2698
0
LINE
8
BLACK
6
CONTINUOUS
10
119.65
20
-55.2698
11
119.653
21
-55.2762
0
LINE
8
BLACK
6
CONTINUOUS
10
119.653
20
-55.2762
11
119.656
21
-55.282
0
LINE
8
BLACK
6
CONTINUOUS
10
119.656
20
-55.282
11
119.657
21
-55.2887
0
LINE
8
BLACK
6
CONTINUOUS
10
119.657
20
-55.2887
11
119.659
21
-55.2951
0
LINE
8
BLACK
6
CONTINUOUS
10
119.659
20
-55.2951
11
119.659
21
-55.3018
0
LINE
8
BLACK
6
CONTINUOUS
10
119.659
20
-55.3018
11
119.659
21
-55.3018
0
LINE
8
BLACK
6
CONTINUOUS
10
119.659
20
-55.3018
11
119.659
21
-55.5094
0
LINE
8
BLACK
6
CONTINUOUS
10
119.659
20
-55.5094
11
120.085
21
-55.5094
0
LINE
8
BLACK
6
CONTINUOUS
10
120.085
20
-55.5094
11
120.085
21
-55.5094
0
LINE
8
BLACK
6
CONTINUOUS
10
120.085
20
-55.5094
11
120.092
21
-55.5094
0
LINE
8
BLACK
6
CONTINUOUS
10
120.092
20
-55.5094
11
120.098
21
-55.5117
0
LINE
8
BLACK
6
CONTINUOUS
10
120.098
20
-55.5117
11
120.105
21
-55.5129
0
LINE
8
BLACK
6
CONTINUOUS
10
120.105
20
-55.5129
11
120.111
21
-55.5163
0
LINE
8
BLACK
6
CONTINUOUS
10
120.111
20
-55.5163
11
120.117
21
-55.5186
0
LINE
8
BLACK
6
CONTINUOUS
10
120.117
20
-55.5186
11
120.122
21
-55.5229
0
LINE
8
BLACK
6
CONTINUOUS
10
120.122
20
-55.5229
11
120.128
21
-55.5263
0
LINE
8
BLACK
6
CONTINUOUS
10
120.128
20
-55.5263
11
120.133
21
-55.5315
0
LINE
8
BLACK
6
CONTINUOUS
10
120.133
20
-55.5315
11
120.138
21
-55.5359
0
LINE
8
BLACK
6
CONTINUOUS
10
120.138
20
-55.5359
11
120.141
21
-55.5417
0
LINE
8
BLACK
6
CONTINUOUS
10
120.141
20
-55.5417
11
120.146
21
-55.5469
0
LINE
8
BLACK
6
CONTINUOUS
10
120.146
20
-55.5469
11
120.148
21
-55.5533
0
LINE
8
BLACK
6
CONTINUOUS
10
120.148
20
-55.5533
11
120.151
21
-55.5591
0
LINE
8
BLACK
6
CONTINUOUS
10
120.151
20
-55.5591
11
120.152
21
-55.5658
0
LINE
8
BLACK
6
CONTINUOUS
10
120.152
20
-55.5658
11
120.155
21
-55.5722
0
LINE
8
BLACK
6
CONTINUOUS
10
120.155
20
-55.5722
11
120.155
21
-55.5789
0
LINE
8
BLACK
6
CONTINUOUS
10
120.155
20
-55.5789
11
120.155
21
-55.5789
0
LINE
8
BLACK
6
CONTINUOUS
10
120.155
20
-55.5789
11
120.155
21
-55.8971
0
LINE
8
BLACK
6
CONTINUOUS
10
120.155
20
-55.8971
11
120.155
21
-55.8971
0
LINE
8
BLACK
6
CONTINUOUS
10
120.155
20
-55.8971
11
120.155
21
-55.9038
0
LINE
8
BLACK
6
CONTINUOUS
10
120.155
20
-55.9038
11
120.152
21
-55.9102
0
LINE
8
BLACK
6
CONTINUOUS
10
120.152
20
-55.9102
11
120.151
21
-55.9169
0
LINE
8
BLACK
6
CONTINUOUS
10
120.151
20
-55.9169
11
120.148
21
-55.9227
0
LINE
8
BLACK
6
CONTINUOUS
10
120.148
20
-55.9227
11
120.146
21
-55.9291
0
LINE
8
BLACK
6
CONTINUOUS
10
120.146
20
-55.9291
11
120.141
21
-55.9343
0
LINE
8
BLACK
6
CONTINUOUS
10
120.141
20
-55.9343
11
120.138
21
-55.9401
0
LINE
8
BLACK
6
CONTINUOUS
10
120.138
20
-55.9401
11
120.133
21
-55.9445
0
LINE
8
BLACK
6
CONTINUOUS
10
120.133
20
-55.9445
11
120.128
21
-55.9497
0
LINE
8
BLACK
6
CONTINUOUS
10
120.128
20
-55.9497
11
120.122
21
-55.9531
0
LINE
8
BLACK
6
CONTINUOUS
10
120.122
20
-55.9531
11
120.117
21
-55.9574
0
LINE
8
BLACK
6
CONTINUOUS
10
120.117
20
-55.9574
11
120.111
21
-55.9597
0
LINE
8
BLACK
6
CONTINUOUS
10
120.111
20
-55.9597
11
120.105
21
-55.9631
0
LINE
8
BLACK
6
CONTINUOUS
10
120.105
20
-55.9631
11
120.098
21
-55.9643
0
LINE
8
BLACK
6
CONTINUOUS
10
120.098
20
-55.9643
11
120.092
21
-55.9666
0
LINE
8
BLACK
6
CONTINUOUS
10
120.092
20
-55.9666
11
120.085
21
-55.9666
0
LINE
8
BLACK
6
CONTINUOUS
10
120.085
20
-55.9666
11
120.085
21
-55.9666
0
LINE
8
BLACK
6
CONTINUOUS
10
120.085
20
-55.9666
11
119.659
21
-55.9666
0
LINE
8
BLACK
6
CONTINUOUS
10
119.659
20
-55.9666
11
119.659
21
-56.1594
0
LINE
8
BLACK
6
CONTINUOUS
10
119.659
20
-56.1594
11
120.085
21
-56.1594
0
LINE
8
BLACK
6
CONTINUOUS
10
120.085
20
-56.1594
11
120.085
21
-56.1594
0
LINE
8
BLACK
6
CONTINUOUS
10
120.085
20
-56.1594
11
120.092
21
-56.1594
0
LINE
8
BLACK
6
CONTINUOUS
10
120.092
20
-56.1594
11
120.098
21
-56.1617
0
LINE
8
BLACK
6
CONTINUOUS
10
120.098
20
-56.1617
11
120.105
21
-56.1629
0
LINE
8
BLACK
6
CONTINUOUS
10
120.105
20
-56.1629
11
120.111
21
-56.1663
0
LINE
8
BLACK
6
CONTINUOUS
10
120.111
20
-56.1663
11
120.117
21
-56.1686
0
LINE
8
BLACK
6
CONTINUOUS
10
120.117
20
-56.1686
11
120.122
21
-56.1729
0
LINE
8
BLACK
6
CONTINUOUS
10
120.122
20
-56.1729
11
120.128
21
-56.1763
0
LINE
8
BLACK
6
CONTINUOUS
10
120.128
20
-56.1763
11
120.133
21
-56.1815
0
LINE
8
BLACK
6
CONTINUOUS
10
120.133
20
-56.1815
11
120.138
21
-56.1859
0
LINE
8
BLACK
6
CONTINUOUS
10
120.138
20
-56.1859
11
120.141
21
-56.1917
0
LINE
8
BLACK
6
CONTINUOUS
10
120.141
20
-56.1917
11
120.146
21
-56.1969
0
LINE
8
BLACK
6
CONTINUOUS
10
120.146
20
-56.1969
11
120.148
21
-56.2033
0
LINE
8
BLACK
6
CONTINUOUS
10
120.148
20
-56.2033
11
120.151
21
-56.2091
0
LINE
8
BLACK
6
CONTINUOUS
10
120.151
20
-56.2091
11
120.152
21
-56.2158
0
LINE
8
BLACK
6
CONTINUOUS
10
120.152
20
-56.2158
11
120.155
21
-56.2222
0
LINE
8
BLACK
6
CONTINUOUS
10
120.155
20
-56.2222
11
120.155
21
-56.2289
0
LINE
8
BLACK
6
CONTINUOUS
10
120.155
20
-56.2289
11
120.155
21
-56.2289
0
LINE
8
BLACK
6
CONTINUOUS
10
120.155
20
-56.2289
11
120.155
21
-56.5471
0
LINE
8
BLACK
6
CONTINUOUS
10
120.155
20
-56.5471
11
120.155
21
-56.5471
0
LINE
8
BLACK
6
CONTINUOUS
10
120.155
20
-56.5471
11
120.155
21
-56.5538
0
LINE
8
BLACK
6
CONTINUOUS
10
120.155
20
-56.5538
11
120.152
21
-56.5602
0
LINE
8
BLACK
6
CONTINUOUS
10
120.152
20
-56.5602
11
120.151
21
-56.5669
0
LINE
8
BLACK
6
CONTINUOUS
10
120.151
20
-56.5669
11
120.148
21
-56.5727
0
LINE
8
BLACK
6
CONTINUOUS
10
120.148
20
-56.5727
11
120.146
21
-56.5791
0
LINE
8
BLACK
6
CONTINUOUS
10
120.146
20
-56.5791
11
120.141
21
-56.5843
0
LINE
8
BLACK
6
CONTINUOUS
10
120.141
20
-56.5843
11
120.138
21
-56.5901
0
LINE
8
BLACK
6
CONTINUOUS
10
120.138
20
-56.5901
11
120.133
21
-56.5945
0
LINE
8
BLACK
6
CONTINUOUS
10
120.133
20
-56.5945
11
120.128
21
-56.5997
0
LINE
8
BLACK
6
CONTINUOUS
10
120.128
20
-56.5997
11
120.122
21
-56.6031
0
LINE
8
BLACK
6
CONTINUOUS
10
120.122
20
-56.6031
11
120.117
21
-56.6074
0
LINE
8
BLACK
6
CONTINUOUS
10
120.117
20
-56.6074
11
120.111
21
-56.6097
0
LINE
8
BLACK
6
CONTINUOUS
10
120.111
20
-56.6097
11
120.105
21
-56.6131
0
LINE
8
BLACK
6
CONTINUOUS
10
120.105
20
-56.6131
11
120.098
21
-56.6143
0
LINE
8
BLACK
6
CONTINUOUS
10
120.098
20
-56.6143
11
120.092
21
-56.6166
0
LINE
8
BLACK
6
CONTINUOUS
10
120.092
20
-56.6166
11
120.085
21
-56.6166
0
LINE
8
BLACK
6
CONTINUOUS
10
120.085
20
-56.6166
11
120.085
21
-56.6166
0
LINE
8
BLACK
6
CONTINUOUS
10
120.085
20
-56.6166
11
119.659
21
-56.6166
0
LINE
8
BLACK
6
CONTINUOUS
10
119.659
20
-56.6166
11
119.659
21
-56.8094
0
LINE
8
BLACK
6
CONTINUOUS
10
119.659
20
-56.8094
11
120.085
21
-56.8094
0
LINE
8
BLACK
6
CONTINUOUS
10
120.085
20
-56.8094
11
120.085
21
-56.8094
0
LINE
8
BLACK
6
CONTINUOUS
10
120.085
20
-56.8094
11
120.092
21
-56.8094
0
LINE
8
BLACK
6
CONTINUOUS
10
120.092
20
-56.8094
11
120.098
21
-56.8117
0
LINE
8
BLACK
6
CONTINUOUS
10
120.098
20
-56.8117
11
120.105
21
-56.8129
0
LINE
8
BLACK
6
CONTINUOUS
10
120.105
20
-56.8129
11
120.111
21
-56.8163
0
LINE
8
BLACK
6
CONTINUOUS
10
120.111
20
-56.8163
11
120.117
21
-56.8186
0
LINE
8
BLACK
6
CONTINUOUS
10
120.117
20
-56.8186
11
120.122
21
-56.8229
0
LINE
8
BLACK
6
CONTINUOUS
10
120.122
20
-56.8229
11
120.128
21
-56.8263
0
LINE
8
BLACK
6
CONTINUOUS
10
120.128
20
-56.8263
11
120.133
21
-56.8315
0
LINE
8
BLACK
6
CONTINUOUS
10
120.133
20
-56.8315
11
120.138
21
-56.8359
0
LINE
8
BLACK
6
CONTINUOUS
10
120.138
20
-56.8359
11
120.141
21
-56.8417
0
LINE
8
BLACK
6
CONTINUOUS
10
120.141
20
-56.8417
11
120.146
21
-56.8469
0
LINE
8
BLACK
6
CONTINUOUS
10
120.146
20
-56.8469
11
120.148
21
-56.8533
0
LINE
8
BLACK
6
CONTINUOUS
10
120.148
20
-56.8533
11
120.151
21
-56.8591
0
LINE
8
BLACK
6
CONTINUOUS
10
120.151
20
-56.8591
11
120.152
21
-56.8658
0
LINE
8
BLACK
6
CONTINUOUS
10
120.152
20
-56.8658
11
120.155
21
-56.8722
0
LINE
8
BLACK
6
CONTINUOUS
10
120.155
20
-56.8722
11
120.155
21
-56.8789
0
LINE
8
BLACK
6
CONTINUOUS
10
120.155
20
-56.8789
11
120.155
21
-56.8789
0
LINE
8
BLACK
6
CONTINUOUS
10
120.155
20
-56.8789
11
120.155
21
-57.1971
0
LINE
8
BLACK
6
CONTINUOUS
10
120.155
20
-57.1971
11
120.155
21
-57.1971
0
LINE
8
BLACK
6
CONTINUOUS
10
120.155
20
-57.1971
11
120.155
21
-57.2038
0
LINE
8
BLACK
6
CONTINUOUS
10
120.155
20
-57.2038
11
120.152
21
-57.2102
0
LINE
8
BLACK
6
CONTINUOUS
10
120.152
20
-57.2102
11
120.151
21
-57.2169
0
LINE
8
BLACK
6
CONTINUOUS
10
120.151
20
-57.2169
11
120.148
21
-57.2227
0
LINE
8
BLACK
6
CONTINUOUS
10
120.148
20
-57.2227
11
120.146
21
-57.2291
0
LINE
8
BLACK
6
CONTINUOUS
10
120.146
20
-57.2291
11
120.141
21
-57.2343
0
LINE
8
BLACK
6
CONTINUOUS
10
120.141
20
-57.2343
11
120.138
21
-57.2401
0
LINE
8
BLACK
6
CONTINUOUS
10
120.138
20
-57.2401
11
120.133
21
-57.2445
0
LINE
8
BLACK
6
CONTINUOUS
10
120.133
20
-57.2445
11
120.128
21
-57.2497
0
LINE
8
BLACK
6
CONTINUOUS
10
120.128
20
-57.2497
11
120.122
21
-57.2531
0
LINE
8
BLACK
6
CONTINUOUS
10
120.122
20
-57.2531
11
120.117
21
-57.2574
0
LINE
8
BLACK
6
CONTINUOUS
10
120.117
20
-57.2574
11
120.111
21
-57.2597
0
LINE
8
BLACK
6
CONTINUOUS
10
120.111
20
-57.2597
11
120.105
21
-57.2631
0
LINE
8
BLACK
6
CONTINUOUS
10
120.105
20
-57.2631
11
120.098
21
-57.2643
0
LINE
8
BLACK
6
CONTINUOUS
10
120.098
20
-57.2643
11
120.092
21
-57.2666
0
LINE
8
BLACK
6
CONTINUOUS
10
120.092
20
-57.2666
11
120.085
21
-57.2666
0
LINE
8
BLACK
6
CONTINUOUS
10
120.085
20
-57.2666
11
120.085
21
-57.2666
0
LINE
8
BLACK
6
CONTINUOUS
10
120.085
20
-57.2666
11
119.659
21
-57.2666
0
LINE
8
BLACK
6
CONTINUOUS
10
119.659
20
-57.2666
11
119.659
21
-57.4742
0
LINE
8
BLACK
6
CONTINUOUS
10
119.659
20
-57.4742
11
119.659
21
-57.4742
0
LINE
8
BLACK
6
CONTINUOUS
10
119.659
20
-57.4742
11
119.659
21
-57.4809
0
LINE
8
BLACK
6
CONTINUOUS
10
119.659
20
-57.4809
11
119.657
21
-57.4873
0
LINE
8
BLACK
6
CONTINUOUS
10
119.657
20
-57.4873
11
119.656
21
-57.494
0
LINE
8
BLACK
6
CONTINUOUS
10
119.656
20
-57.494
11
119.653
21
-57.4998
0
LINE
8
BLACK
6
CONTINUOUS
10
119.653
20
-57.4998
11
119.65
21
-57.5062
0
LINE
8
BLACK
6
CONTINUOUS
10
119.65
20
-57.5062
11
119.646
21
-57.5114
0
LINE
8
BLACK
6
CONTINUOUS
10
119.646
20
-57.5114
11
119.642
21
-57.5172
0
LINE
8
BLACK
6
CONTINUOUS
10
119.642
20
-57.5172
11
119.637
21
-57.5216
0
LINE
8
BLACK
6
CONTINUOUS
10
119.637
20
-57.5216
11
119.633
21
-57.5268
0
LINE
8
BLACK
6
CONTINUOUS
10
119.633
20
-57.5268
11
119.627
21
-57.5302
0
LINE
8
BLACK
6
CONTINUOUS
10
119.627
20
-57.5302
11
119.622
21
-57.5345
0
LINE
8
BLACK
6
CONTINUOUS
10
119.622
20
-57.5345
11
119.616
21
-57.5368
0
LINE
8
BLACK
6
CONTINUOUS
10
119.616
20
-57.5368
11
119.61
21
-57.5402
0
LINE
8
BLACK
6
CONTINUOUS
10
119.61
20
-57.5402
11
119.603
21
-57.5414
0
LINE
8
BLACK
6
CONTINUOUS
10
119.603
20
-57.5414
11
119.597
21
-57.5437
0
LINE
8
BLACK
6
CONTINUOUS
10
119.597
20
-57.5437
11
119.59
21
-57.5437
0
LINE
8
BLACK
6
CONTINUOUS
10
119.59
20
-57.5437
11
119.59
21
-57.5437
0
LINE
8
BLACK
6
CONTINUOUS
10
119.59
20
-57.5437
11
118.154
21
-57.5437
0
LINE
8
BLACK
6
CONTINUOUS
10
118.154
20
-57.5437
11
118.154
21
-57.5437
0
LINE
8
BLACK
6
CONTINUOUS
10
118.154
20
-57.5437
11
118.147
21
-57.5437
0
LINE
8
BLACK
6
CONTINUOUS
10
118.147
20
-57.5437
11
118.141
21
-57.5414
0
LINE
8
BLACK
6
CONTINUOUS
10
118.141
20
-57.5414
11
118.134
21
-57.5402
0
LINE
8
BLACK
6
CONTINUOUS
10
118.134
20
-57.5402
11
118.128
21
-57.5368
0
LINE
8
BLACK
6
CONTINUOUS
10
118.128
20
-57.5368
11
118.122
21
-57.5345
0
LINE
8
BLACK
6
CONTINUOUS
10
118.122
20
-57.5345
11
118.117
21
-57.5302
0
LINE
8
BLACK
6
CONTINUOUS
10
118.117
20
-57.5302
11
118.111
21
-57.5268
0
LINE
8
BLACK
6
CONTINUOUS
10
118.111
20
-57.5268
11
118.107
21
-57.5216
0
LINE
8
BLACK
6
CONTINUOUS
10
118.107
20
-57.5216
11
118.102
21
-57.5172
0
LINE
8
BLACK
6
CONTINUOUS
10
118.102
20
-57.5172
11
118.098
21
-57.5114
0
LINE
8
BLACK
6
CONTINUOUS
10
118.098
20
-57.5114
11
118.094
21
-57.5062
0
LINE
8
BLACK
6
CONTINUOUS
10
118.094
20
-57.5062
11
118.091
21
-57.4998
0
LINE
8
BLACK
6
CONTINUOUS
10
118.091
20
-57.4998
11
118.088
21
-57.494
0
LINE
8
BLACK
6
CONTINUOUS
10
118.088
20
-57.494
11
118.087
21
-57.4873
0
LINE
8
BLACK
6
CONTINUOUS
10
118.087
20
-57.4873
11
118.085
21
-57.4809
0
LINE
8
BLACK
6
CONTINUOUS
10
118.085
20
-57.4809
11
118.085
21
-57.4742
0
LINE
8
BLACK
6
CONTINUOUS
10
118.085
20
-57.4742
11
118.085
21
-57.4742
0
LINE
8
BLACK
6
CONTINUOUS
10
118.085
20
-57.4742
11
118.085
21
-57.2666
0
LINE
8
BLACK
6
CONTINUOUS
10
118.085
20
-57.2666
11
117.659
21
-57.2666
0
LINE
8
BLACK
6
CONTINUOUS
10
117.659
20
-57.2666
11
117.659
21
-57.2666
0
LINE
8
BLACK
6
CONTINUOUS
10
117.659
20
-57.2666
11
117.652
21
-57.2666
0
LINE
8
BLACK
6
CONTINUOUS
10
117.652
20
-57.2666
11
117.646
21
-57.2643
0
LINE
8
BLACK
6
CONTINUOUS
10
117.646
20
-57.2643
11
117.639
21
-57.2631
0
LINE
8
BLACK
6
CONTINUOUS
10
117.639
20
-57.2631
11
117.633
21
-57.2597
0
LINE
8
BLACK
6
CONTINUOUS
10
117.633
20
-57.2597
11
117.627
21
-57.2574
0
LINE
8
BLACK
6
CONTINUOUS
10
117.627
20
-57.2574
11
117.622
21
-57.2531
0
LINE
8
BLACK
6
CONTINUOUS
10
117.622
20
-57.2531
11
117.616
21
-57.2497
0
LINE
8
BLACK
6
CONTINUOUS
10
117.616
20
-57.2497
11
117.611
21
-57.2445
0
LINE
8
BLACK
6
CONTINUOUS
10
117.611
20
-57.2445
11
117.606
21
-57.2401
0
LINE
8
BLACK
6
CONTINUOUS
10
117.606
20
-57.2401
11
117.603
21
-57.2343
0
LINE
8
BLACK
6
CONTINUOUS
10
117.603
20
-57.2343
11
117.598
21
-57.2291
0
LINE
8
BLACK
6
CONTINUOUS
10
117.598
20
-57.2291
11
117.596
21
-57.2227
0
LINE
8
BLACK
6
CONTINUOUS
10
117.596
20
-57.2227
11
117.593
21
-57.2169
0
LINE
8
BLACK
6
CONTINUOUS
10
117.593
20
-57.2169
11
117.592
21
-57.2102
0
LINE
8
BLACK
6
CONTINUOUS
10
117.592
20
-57.2102
11
117.589
21
-57.2038
0
LINE
8
BLACK
6
CONTINUOUS
10
117.589
20
-57.2038
11
117.589
21
-57.1971
0
LINE
8
BLACK
6
CONTINUOUS
10
117.589
20
-57.1971
11
117.589
21
-57.1971
0
LINE
8
BLACK
6
CONTINUOUS
10
117.589
20
-57.1971
11
117.589
21
-56.8789
0
LINE
8
BLACK
6
CONTINUOUS
10
117.589
20
-56.8789
11
117.589
21
-56.8722
0
LINE
8
BLACK
6
CONTINUOUS
10
117.589
20
-56.8722
11
117.592
21
-56.8658
0
LINE
8
BLACK
6
CONTINUOUS
10
117.592
20
-56.8658
11
117.593
21
-56.8591
0
LINE
8
BLACK
6
CONTINUOUS
10
117.593
20
-56.8591
11
117.596
21
-56.8533
0
LINE
8
BLACK
6
CONTINUOUS
10
117.596
20
-56.8533
11
117.598
21
-56.8469
0
LINE
8
BLACK
6
CONTINUOUS
10
117.598
20
-56.8469
11
117.603
21
-56.8417
0
LINE
8
BLACK
6
CONTINUOUS
10
117.603
20
-56.8417
11
117.606
21
-56.8359
0
LINE
8
BLACK
6
CONTINUOUS
10
117.606
20
-56.8359
11
117.611
21
-56.8315
0
LINE
8
BLACK
6
CONTINUOUS
10
117.611
20
-56.8315
11
117.616
21
-56.8263
0
LINE
8
BLACK
6
CONTINUOUS
10
117.616
20
-56.8263
11
117.622
21
-56.8229
0
LINE
8
BLACK
6
CONTINUOUS
10
117.622
20
-56.8229
11
117.627
21
-56.8186
0
LINE
8
BLACK
6
CONTINUOUS
10
117.627
20
-56.8186
11
117.633
21
-56.8163
0
LINE
8
BLACK
6
CONTINUOUS
10
117.633
20
-56.8163
11
117.639
21
-56.8129
0
LINE
8
BLACK
6
CONTINUOUS
10
117.639
20
-56.8129
11
117.646
21
-56.8117
0
LINE
8
BLACK
6
CONTINUOUS
10
117.646
20
-56.8117
11
117.652
21
-56.8094
0
LINE
8
BLACK
6
CONTINUOUS
10
117.652
20
-56.8094
11
117.659
21
-56.8094
0
LINE
8
BLACK
6
CONTINUOUS
10
117.659
20
-56.8094
11
117.659
21
-56.8094
0
LINE
8
BLACK
6
CONTINUOUS
10
117.659
20
-56.8094
11
118.085
21
-56.8094
0
LINE
8
BLACK
6
CONTINUOUS
10
118.085
20
-56.8094
11
118.085
21
-56.6166
0
LINE
8
BLACK
6
CONTINUOUS
10
118.085
20
-56.6166
11
117.659
21
-56.6166
0
LINE
8
BLACK
6
CONTINUOUS
10
117.659
20
-56.6166
11
117.659
21
-56.6166
0
LINE
8
BLACK
6
CONTINUOUS
10
117.659
20
-56.6166
11
117.652
21
-56.6166
0
LINE
8
BLACK
6
CONTINUOUS
10
117.652
20
-56.6166
11
117.646
21
-56.6143
0
LINE
8
BLACK
6
CONTINUOUS
10
117.646
20
-56.6143
11
117.639
21
-56.6131
0
LINE
8
BLACK
6
CONTINUOUS
10
117.639
20
-56.6131
11
117.633
21
-56.6097
0
LINE
8
BLACK
6
CONTINUOUS
10
117.633
20
-56.6097
11
117.627
21
-56.6074
0
LINE
8
BLACK
6
CONTINUOUS
10
117.627
20
-56.6074
11
117.622
21
-56.6031
0
LINE
8
BLACK
6
CONTINUOUS
10
117.622
20
-56.6031
11
117.616
21
-56.5997
0
LINE
8
BLACK
6
CONTINUOUS
10
117.616
20
-56.5997
11
117.611
21
-56.5945
0
LINE
8
BLACK
6
CONTINUOUS
10
117.611
20
-56.5945
11
117.606
21
-56.5901
0
LINE
8
BLACK
6
CONTINUOUS
10
117.606
20
-56.5901
11
117.603
21
-56.5843
0
LINE
8
BLACK
6
CONTINUOUS
10
117.603
20
-56.5843
11
117.598
21
-56.5791
0
LINE
8
BLACK
6
CONTINUOUS
10
117.598
20
-56.5791
11
117.596
21
-56.5727
0
LINE
8
BLACK
6
CONTINUOUS
10
117.596
20
-56.5727
11
117.593
21
-56.5669
0
LINE
8
BLACK
6
CONTINUOUS
10
117.593
20
-56.5669
11
117.592
21
-56.5602
0
LINE
8
BLACK
6
CONTINUOUS
10
117.592
20
-56.5602
11
117.589
21
-56.5538
0
LINE
8
BLACK
6
CONTINUOUS
10
117.589
20
-56.5538
11
117.589
21
-56.5471
0
LINE
8
BLACK
6
CONTINUOUS
10
117.589
20
-56.5471
11
117.589
21
-56.5471
0
LINE
8
BLACK
6
CONTINUOUS
10
117.589
20
-56.5471
11
117.589
21
-56.2289
0
LINE
8
BLACK
6
CONTINUOUS
10
117.589
20
-56.2289
11
117.589
21
-56.2222
0
LINE
8
BLACK
6
CONTINUOUS
10
117.589
20
-56.2222
11
117.592
21
-56.2158
0
LINE
8
BLACK
6
CONTINUOUS
10
117.592
20
-56.2158
11
117.593
21
-56.2091
0
LINE
8
BLACK
6
CONTINUOUS
10
117.593
20
-56.2091
11
117.596
21
-56.2033
0
LINE
8
BLACK
6
CONTINUOUS
10
117.596
20
-56.2033
11
117.598
21
-56.1969
0
LINE
8
BLACK
6
CONTINUOUS
10
117.598
20
-56.1969
11
117.603
21
-56.1917
0
LINE
8
BLACK
6
CONTINUOUS
10
117.603
20
-56.1917
11
117.606
21
-56.1859
0
LINE
8
BLACK
6
CONTINUOUS
10
117.606
20
-56.1859
11
117.611
21
-56.1815
0
LINE
8
BLACK
6
CONTINUOUS
10
117.611
20
-56.1815
11
117.616
21
-56.1763
0
LINE
8
BLACK
6
CONTINUOUS
10
117.616
20
-56.1763
11
117.622
21
-56.1729
0
LINE
8
BLACK
6
CONTINUOUS
10
117.622
20
-56.1729
11
117.627
21
-56.1686
0
LINE
8
BLACK
6
CONTINUOUS
10
117.627
20
-56.1686
11
117.633
21
-56.1663
0
LINE
8
BLACK
6
CONTINUOUS
10
117.633
20
-56.1663
11
117.639
21
-56.1629
0
LINE
8
BLACK
6
CONTINUOUS
10
117.639
20
-56.1629
11
117.646
21
-56.1617
0
LINE
8
BLACK
6
CONTINUOUS
10
117.646
20
-56.1617
11
117.652
21
-56.1594
0
LINE
8
BLACK
6
CONTINUOUS
10
117.652
20
-56.1594
11
117.659
21
-56.1594
0
LINE
8
BLACK
6
CONTINUOUS
10
117.659
20
-56.1594
11
117.659
21
-56.1594
0
LINE
8
BLACK
6
CONTINUOUS
10
117.659
20
-56.1594
11
118.085
21
-56.1594
0
LINE
8
BLACK
6
CONTINUOUS
10
118.085
20
-56.1594
11
118.085
21
-55.9666
0
LINE
8
BLACK
6
CONTINUOUS
10
118.085
20
-55.9666
11
117.659
21
-55.9666
0
LINE
8
BLACK
6
CONTINUOUS
10
117.659
20
-55.9666
11
117.659
21
-55.9666
0
LINE
8
BLACK
6
CONTINUOUS
10
117.659
20
-55.9666
11
117.652
21
-55.9666
0
LINE
8
BLACK
6
CONTINUOUS
10
117.652
20
-55.9666
11
117.646
21
-55.9643
0
LINE
8
BLACK
6
CONTINUOUS
10
117.646
20
-55.9643
11
117.639
21
-55.9631
0
LINE
8
BLACK
6
CONTINUOUS
10
117.639
20
-55.9631
11
117.633
21
-55.9597
0
LINE
8
BLACK
6
CONTINUOUS
10
117.633
20
-55.9597
11
117.627
21
-55.9574
0
LINE
8
BLACK
6
CONTINUOUS
10
117.627
20
-55.9574
11
117.622
21
-55.9531
0
LINE
8
BLACK
6
CONTINUOUS
10
117.622
20
-55.9531
11
117.616
21
-55.9497
0
LINE
8
BLACK
6
CONTINUOUS
10
117.616
20
-55.9497
11
117.611
21
-55.9445
0
LINE
8
BLACK
6
CONTINUOUS
10
117.611
20
-55.9445
11
117.606
21
-55.9401
0
LINE
8
BLACK
6
CONTINUOUS
10
117.606
20
-55.9401
11
117.603
21
-55.9343
0
LINE
8
BLACK
6
CONTINUOUS
10
117.603
20
-55.9343
11
117.598
21
-55.9291
0
LINE
8
BLACK
6
CONTINUOUS
10
117.598
20
-55.9291
11
117.596
21
-55.9227
0
LINE
8
BLACK
6
CONTINUOUS
10
117.596
20
-55.9227
11
117.593
21
-55.9169
0
LINE
8
BLACK
6
CONTINUOUS
10
117.593
20
-55.9169
11
117.592
21
-55.9102
0
LINE
8
BLACK
6
CONTINUOUS
10
117.592
20
-55.9102
11
117.589
21
-55.9038
0
LINE
8
BLACK
6
CONTINUOUS
10
117.589
20
-55.9038
11
117.589
21
-55.8971
0
LINE
8
BLACK
6
CONTINUOUS
10
117.589
20
-55.8971
11
117.589
21
-55.8971
0
LINE
8
BLACK
6
CONTINUOUS
10
117.589
20
-55.8971
11
117.589
21
-55.5789
0
LINE
8
BLACK
6
CONTINUOUS
10
117.589
20
-55.5789
11
117.589
21
-55.5722
0
LINE
8
BLACK
6
CONTINUOUS
10
117.589
20
-55.5722
11
117.592
21
-55.5658
0
LINE
8
BLACK
6
CONTINUOUS
10
117.592
20
-55.5658
11
117.593
21
-55.5591
0
LINE
8
BLACK
6
CONTINUOUS
10
117.593
20
-55.5591
11
117.596
21
-55.5533
0
LINE
8
BLACK
6
CONTINUOUS
10
117.596
20
-55.5533
11
117.598
21
-55.5469
0
LINE
8
BLACK
6
CONTINUOUS
10
117.598
20
-55.5469
11
117.603
21
-55.5417
0
LINE
8
BLACK
6
CONTINUOUS
10
117.603
20
-55.5417
11
117.606
21
-55.5359
0
LINE
8
BLACK
6
CONTINUOUS
10
117.606
20
-55.5359
11
117.611
21
-55.5315
0
LINE
8
BLACK
6
CONTINUOUS
10
117.611
20
-55.5315
11
117.616
21
-55.5263
0
LINE
8
BLACK
6
CONTINUOUS
10
117.616
20
-55.5263
11
117.622
21
-55.5229
0
LINE
8
BLACK
6
CONTINUOUS
10
117.622
20
-55.5229
11
117.627
21
-55.5186
0
LINE
8
BLACK
6
CONTINUOUS
10
117.627
20
-55.5186
11
117.633
21
-55.5163
0
LINE
8
BLACK
6
CONTINUOUS
10
117.633
20
-55.5163
11
117.639
21
-55.5129
0
LINE
8
BLACK
6
CONTINUOUS
10
117.639
20
-55.5129
11
117.646
21
-55.5117
0
LINE
8
BLACK
6
CONTINUOUS
10
117.646
20
-55.5117
11
117.652
21
-55.5094
0
LINE
8
BLACK
6
CONTINUOUS
10
117.652
20
-55.5094
11
117.659
21
-55.5094
0
LINE
8
BLACK
6
CONTINUOUS
10
117.659
20
-55.5094
11
117.659
21
-55.5094
0
LINE
8
BLACK
6
CONTINUOUS
10
117.659
20
-55.5094
11
118.085
21
-55.5094
0
LINE
8
BLACK
6
CONTINUOUS
10
118.085
20
-55.5094
11
118.085
21
-55.2951
0
LINE
8
BLACK
6
CONTINUOUS
10
118.085
20
-55.2951
11
118.087
21
-55.2887
0
LINE
8
BLACK
6
CONTINUOUS
10
118.819
20
-55.6849
11
118.798
21
-55.6811
0
LINE
8
BLACK
6
CONTINUOUS
10
118.798
20
-55.6811
11
118.793
21
-55.6803
0
LINE
8
BLACK
6
CONTINUOUS
10
118.793
20
-55.6803
11
118.793
21
-55.6803
0
LINE
8
BLACK
6
CONTINUOUS
10
118.793
20
-55.6803
11
118.694
21
-55.6441
0
LINE
8
BLACK
6
CONTINUOUS
10
118.694
20
-55.6441
11
118.694
21
-55.6441
0
LINE
8
BLACK
6
CONTINUOUS
10
118.694
20
-55.6441
11
118.671
21
-55.6308
0
LINE
8
BLACK
6
CONTINUOUS
10
118.671
20
-55.6308
11
118.59
21
-55.5628
0
LINE
8
BLACK
6
CONTINUOUS
10
118.59
20
-55.5628
11
118.59
21
-55.5628
0
LINE
8
BLACK
6
CONTINUOUS
10
118.59
20
-55.5628
11
118.582
21
-55.5535
0
LINE
8
BLACK
6
CONTINUOUS
10
118.582
20
-55.5535
11
118.573
21
-55.5425
0
LINE
8
BLACK
6
CONTINUOUS
10
118.573
20
-55.5425
11
118.573
21
-55.5425
0
LINE
8
BLACK
6
CONTINUOUS
10
118.573
20
-55.5425
11
118.52
21
-55.4508
0
LINE
8
BLACK
6
CONTINUOUS
10
118.52
20
-55.4508
11
118.511
21
-55.426
0
LINE
8
BLACK
6
CONTINUOUS
10
118.511
20
-55.426
11
118.511
21
-55.426
0
LINE
8
BLACK
6
CONTINUOUS
10
118.511
20
-55.426
11
118.503
21
-55.3847
0
LINE
8
BLACK
6
CONTINUOUS
10
118.503
20
-55.3847
11
118.237
21
-55.3847
0
LINE
8
BLACK
6
CONTINUOUS
10
118.237
20
-55.3847
11
118.237
21
-57.3913
0
LINE
8
BLACK
6
CONTINUOUS
10
118.237
20
-57.3913
11
119.507
21
-57.3913
0
LINE
8
BLACK
6
CONTINUOUS
10
119.507
20
-57.3913
11
119.507
21
-57.1971
0
LINE
8
BLACK
6
CONTINUOUS
10
119.507
20
-57.1971
11
119.507
21
-57.1971
0
LINE
8
BLACK
6
CONTINUOUS
10
119.507
20
-57.1971
11
119.507
21
-56.8789
0
LINE
8
BLACK
6
CONTINUOUS
10
119.507
20
-56.8789
11
119.507
21
-56.5471
0
LINE
8
BLACK
6
CONTINUOUS
10
119.507
20
-56.5471
11
119.507
21
-56.5471
0
LINE
8
BLACK
6
CONTINUOUS
10
119.507
20
-56.5471
11
119.507
21
-55.3847
0
LINE
8
BLACK
6
CONTINUOUS
10
119.507
20
-55.3847
11
119.241
21
-55.3847
0
LINE
8
BLACK
6
CONTINUOUS
10
119.241
20
-55.3847
11
119.233
21
-55.426
0
LINE
8
BLACK
6
CONTINUOUS
10
119.233
20
-55.426
11
119.233
21
-55.426
0
LINE
8
BLACK
6
CONTINUOUS
10
119.233
20
-55.426
11
119.224
21
-55.4508
0
LINE
8
BLACK
6
CONTINUOUS
10
119.224
20
-55.4508
11
119.171
21
-55.5425
0
LINE
8
BLACK
6
CONTINUOUS
10
119.171
20
-55.5425
11
119.171
21
-55.5425
0
LINE
8
BLACK
6
CONTINUOUS
10
119.171
20
-55.5425
11
119.162
21
-55.5535
0
LINE
8
BLACK
6
CONTINUOUS
10
119.162
20
-55.5535
11
119.154
21
-55.5628
0
LINE
8
BLACK
6
CONTINUOUS
10
119.154
20
-55.5628
11
119.154
21
-55.5628
0
LINE
8
BLACK
6
CONTINUOUS
10
119.154
20
-55.5628
11
119.073
21
-55.6308
0
LINE
8
BLACK
6
CONTINUOUS
10
119.073
20
-55.6308
11
119.073
21
-55.6308
0
LINE
8
BLACK
6
CONTINUOUS
10
119.073
20
-55.6308
11
119.05
21
-55.6441
0
LINE
8
BLACK
6
CONTINUOUS
10
119.05
20
-55.6441
11
118.951
21
-55.6803
0
LINE
8
BLACK
6
CONTINUOUS
10
118.951
20
-55.6803
11
118.951
21
-55.6803
0
LINE
8
BLACK
6
CONTINUOUS
10
118.951
20
-55.6803
11
118.925
21
-55.6849
0
LINE
8
BLACK
6
CONTINUOUS
10
118.925
20
-55.6849
11
118.819
21
-55.6849
0
LINE
8
BLACK
6
CONTINUOUS
10
118.819
20
-55.6849
11
118.819
21
-55.6849
0
LINE
8
BLACK
6
CONTINUOUS
10
119.659
20
-56.9618
11
119.659
21
-57.1142
0
LINE
8
BLACK
6
CONTINUOUS
10
119.659
20
-57.1142
11
120.002
21
-57.1142
0
LINE
8
BLACK
6
CONTINUOUS
10
120.002
20
-57.1142
11
120.002
21
-56.9618
0
LINE
8
BLACK
6
CONTINUOUS
10
120.002
20
-56.9618
11
119.659
21
-56.9618
0
LINE
8
BLACK
6
CONTINUOUS
10
117.742
20
-56.9618
11
117.742
21
-57.1142
0
LINE
8
BLACK
6
CONTINUOUS
10
117.742
20
-57.1142
11
118.085
21
-57.1142
0
LINE
8
BLACK
6
CONTINUOUS
10
118.085
20
-57.1142
11
118.085
21
-56.9618
0
LINE
8
BLACK
6
CONTINUOUS
10
118.085
20
-56.9618
11
117.742
21
-56.9618
0
LINE
8
BLACK
6
CONTINUOUS
10
119.659
20
-56.3118
11
119.659
21
-56.4642
0
LINE
8
BLACK
6
CONTINUOUS
10
119.659
20
-56.4642
11
120.002
21
-56.4642
0
LINE
8
BLACK
6
CONTINUOUS
10
120.002
20
-56.4642
11
120.002
21
-56.3118
0
LINE
8
BLACK
6
CONTINUOUS
10
120.002
20
-56.3118
11
119.659
21
-56.3118
0
LINE
8
BLACK
6
CONTINUOUS
10
117.742
20
-56.3118
11
117.742
21
-56.4642
0
LINE
8
BLACK
6
CONTINUOUS
10
117.742
20
-56.4642
11
118.085
21
-56.4642
0
LINE
8
BLACK
6
CONTINUOUS
10
118.085
20
-56.4642
11
118.085
21
-56.3118
0
LINE
8
BLACK
6
CONTINUOUS
10
118.085
20
-56.3118
11
117.742
21
-56.3118
0
LINE
8
BLACK
6
CONTINUOUS
10
119.659
20
-55.6618
11
119.659
21
-55.8142
0
LINE
8
BLACK
6
CONTINUOUS
10
119.659
20
-55.8142
11
120.002
21
-55.8142
0
LINE
8
BLACK
6
CONTINUOUS
10
120.002
20
-55.8142
11
120.002
21
-55.6618
0
LINE
8
BLACK
6
CONTINUOUS
10
120.002
20
-55.6618
11
119.659
21
-55.6618
0
LINE
8
BLACK
6
CONTINUOUS
10
117.742
20
-55.6618
11
117.742
21
-55.8142
0
LINE
8
BLACK
6
CONTINUOUS
10
117.742
20
-55.8142
11
118.085
21
-55.8142
0
LINE
8
BLACK
6
CONTINUOUS
10
118.085
20
-55.8142
11
118.085
21
-55.7408
0
LINE
8
BLACK
6
CONTINUOUS
10
118.085
20
-55.7408
11
118.085
21
-55.6618
0
LINE
8
BLACK
6
CONTINUOUS
10
118.085
20
-55.6618
11
117.742
21
-55.6618
0
LINE
8
BLACK
6
CONTINUOUS
10
118.658
20
-55.3847
11
118.658
21
-55.3863
0
LINE
8
BLACK
6
CONTINUOUS
10
118.658
20
-55.3863
11
118.698
21
-55.4547
0
LINE
8
BLACK
6
CONTINUOUS
10
118.698
20
-55.4547
11
118.758
21
-55.5055
0
LINE
8
BLACK
6
CONTINUOUS
10
118.758
20
-55.5055
11
118.833
21
-55.5325
0
LINE
8
BLACK
6
CONTINUOUS
10
118.833
20
-55.5325
11
118.911
21
-55.5325
0
LINE
8
BLACK
6
CONTINUOUS
10
118.911
20
-55.5325
11
118.986
21
-55.5055
0
LINE
8
BLACK
6
CONTINUOUS
10
118.986
20
-55.5055
11
119.046
21
-55.4547
0
LINE
8
BLACK
6
CONTINUOUS
10
119.046
20
-55.4547
11
119.086
21
-55.3863
0
LINE
8
BLACK
6
CONTINUOUS
10
119.086
20
-55.3863
11
119.086
21
-55.3847
0
LINE
8
BLACK
6
CONTINUOUS
10
119.086
20
-55.3847
11
118.658
21
-55.3847
  0
ENDSEC
  0
EOF
