  0
SECTION
  2
HEADER
  9
$ANGBASE
  50
0.0
  9
$ANGDIR
  70
  1
  9
$MEASUREMENT
  70
0
  0
ENDSEC
  0
SECTION
  2
TABLES
  0
TABLE
  2
LTYPE
  70
4
  0
LTYPE
  5
40F
  2
CONTINUOUS
  70
0
  3
Solid line
  72
65
  73
0
  40
0.0
  0
LTYPE
  5
410
  2
DASHDOT
 70
0
  3
Dash Dot ____ _ ____ _
 72
65
 73
4
 40
2.0
 49
1.25
 49
-0.25
 49
0.25
 49
-0.25
  0
LTYPE
  5
411
  2
DASHED
 70
0
  3
Dashed __ __ __ __ __
 72
65
 73
2
 40
0.75
 49
0.5
 49
-0.25
  0
LTYPE
  5
43B
  2
DOTTED
 70
0
  3
Dotted .  .  .  .
 72
65
 73
2
 40
0.2
 49
0.0
 49
-0.2
  0
ENDTAB
  0
TABLE
  2
STYLE
  70
4
  0
STYLE
  2
KICAD
  70
0
  40
0
  41
1
  42
1
  50
0
  71
0
  3
isocp.shx
  0
STYLE
  2
KICADB
  70
0
  40
0
  41
1
  42
1
  50
0
  71
0
  3
isocp.shx
  0
STYLE
  2
KICADI
  70
0
  40
0
  41
1
  42
1
  50
15
  71
0
  3
isocp.shx
  0
STYLE
  2
KICADBI
  70
0
  40
0
  41
1
  42
1
  50
15
  71
0
  3
isocp.shx
  0
ENDTAB
  0
TABLE
  2
LAYER
  70
30
  0
LAYER
  2
BLACK
  70
0
  62
7
  6
CONTINUOUS
  0
LAYER
  2
GRAY1
  70
0
  62
251
  6
CONTINUOUS
  0
LAYER
  2
GRAY2
  70
0
  62
8
  6
CONTINUOUS
  0
LAYER
  2
GRAY3
  70
0
  62
9
  6
CONTINUOUS
  0
LAYER
  2
WHITE
  70
0
  62
7
  6
CONTINUOUS
  0
LAYER
  2
LYELLOW
  70
0
  62
51
  6
CONTINUOUS
  0
LAYER
  2
BLUE1
  70
0
  62
178
  6
CONTINUOUS
  0
LAYER
  2
GREEN1
  70
0
  62
98
  6
CONTINUOUS
  0
LAYER
  2
CYAN1
  70
0
  62
138
  6
CONTINUOUS
  0
LAYER
  2
RED1
  70
0
  62
18
  6
CONTINUOUS
  0
LAYER
  2
MAGENTA1
  70
0
  62
228
  6
CONTINUOUS
  0
LAYER
  2
BROWN1
  70
0
  62
58
  6
CONTINUOUS
  0
LAYER
  2
BLUE2
  70
0
  62
5
  6
CONTINUOUS
  0
LAYER
  2
GREEN2
  70
0
  62
3
  6
CONTINUOUS
  0
LAYER
  2
CYAN2
  70
0
  62
4
  6
CONTINUOUS
  0
LAYER
  2
RED2
  70
0
  62
1
  6
CONTINUOUS
  0
LAYER
  2
MAGENTA2
  70
0
  62
6
  6
CONTINUOUS
  0
LAYER
  2
BROWN2
  70
0
  62
54
  6
CONTINUOUS
  0
LAYER
  2
BLUE3
  70
0
  62
171
  6
CONTINUOUS
  0
LAYER
  2
GREEN3
  70
0
  62
91
  6
CONTINUOUS
  0
LAYER
  2
CYAN3
  70
0
  62
131
  6
CONTINUOUS
  0
LAYER
  2
RED3
  70
0
  62
11
  6
CONTINUOUS
  0
LAYER
  2
MAGENTA3
  70
0
  62
221
  6
CONTINUOUS
  0
LAYER
  2
YELLOW3
  70
0
  62
2
  6
CONTINUOUS
  0
LAYER
  2
BLUE4
  70
0
  62
5
  6
CONTINUOUS
  0
LAYER
  2
GREEN4
  70
0
  62
3
  6
CONTINUOUS
  0
LAYER
  2
CYAN4
  70
0
  62
4
  6
CONTINUOUS
  0
LAYER
  2
RED4
  70
0
  62
1
  6
CONTINUOUS
  0
LAYER
  2
MAGENTA4
  70
0
  62
6
  6
CONTINUOUS
  0
LAYER
  2
YELLOW4
  70
0
  62
2
  6
CONTINUOUS
  0
ENDTAB
  0
ENDSEC
  0
SECTION
  2
ENTITIES
0
LINE
8
BLACK
6
CONTINUOUS
10
249.249
20
-152.661
11
249.249
21
-152.667
0
LINE
8
BLACK
6
CONTINUOUS
10
249.249
20
-152.667
11
249.247
21
-152.673
0
LINE
8
BLACK
6
CONTINUOUS
10
249.247
20
-152.673
11
249.246
21
-152.68
0
LINE
8
BLACK
6
CONTINUOUS
10
249.246
20
-152.68
11
249.242
21
-152.686
0
LINE
8
BLACK
6
CONTINUOUS
10
249.242
20
-152.686
11
249.24
21
-152.692
0
LINE
8
BLACK
6
CONTINUOUS
10
249.24
20
-152.692
11
249.236
21
-152.697
0
LINE
8
BLACK
6
CONTINUOUS
10
249.236
20
-152.697
11
249.232
21
-152.703
0
LINE
8
BLACK
6
CONTINUOUS
10
249.232
20
-152.703
11
249.227
21
-152.707
0
LINE
8
BLACK
6
CONTINUOUS
10
249.227
20
-152.707
11
249.223
21
-152.712
0
LINE
8
BLACK
6
CONTINUOUS
10
249.223
20
-152.712
11
249.217
21
-152.716
0
LINE
8
BLACK
6
CONTINUOUS
10
249.217
20
-152.716
11
249.212
21
-152.72
0
LINE
8
BLACK
6
CONTINUOUS
10
249.212
20
-152.72
11
249.206
21
-152.722
0
LINE
8
BLACK
6
CONTINUOUS
10
249.206
20
-152.722
11
249.2
21
-152.726
0
LINE
8
BLACK
6
CONTINUOUS
10
249.2
20
-152.726
11
249.193
21
-152.727
0
LINE
8
BLACK
6
CONTINUOUS
10
249.193
20
-152.727
11
249.187
21
-152.729
0
LINE
8
BLACK
6
CONTINUOUS
10
249.187
20
-152.729
11
249.181
21
-152.729
0
LINE
8
BLACK
6
CONTINUOUS
10
249.181
20
-152.729
11
249.181
21
-152.729
0
LINE
8
BLACK
6
CONTINUOUS
10
249.181
20
-152.729
11
50.0314
21
-152.729
0
LINE
8
BLACK
6
CONTINUOUS
10
50.0314
20
-152.729
11
50.0314
21
-152.729
0
LINE
8
BLACK
6
CONTINUOUS
10
50.0314
20
-152.729
11
50.0248
21
-152.729
0
LINE
8
BLACK
6
CONTINUOUS
10
50.0248
20
-152.729
11
50.0185
21
-152.727
0
LINE
8
BLACK
6
CONTINUOUS
10
50.0185
20
-152.727
11
50.012
21
-152.726
0
LINE
8
BLACK
6
CONTINUOUS
10
50.012
20
-152.726
11
50.0062
21
-152.722
0
LINE
8
BLACK
6
CONTINUOUS
10
50.0062
20
-152.722
11
49.9999
21
-152.72
0
LINE
8
BLACK
6
CONTINUOUS
10
49.9999
20
-152.72
11
49.9948
21
-152.716
0
LINE
8
BLACK
6
CONTINUOUS
10
49.9948
20
-152.716
11
49.989
21
-152.712
0
LINE
8
BLACK
6
CONTINUOUS
10
49.989
20
-152.712
11
49.9848
21
-152.707
0
LINE
8
BLACK
6
CONTINUOUS
10
49.9848
20
-152.707
11
49.9797
21
-152.703
0
LINE
8
BLACK
6
CONTINUOUS
10
49.9797
20
-152.703
11
49.9763
21
-152.697
0
LINE
8
BLACK
6
CONTINUOUS
10
49.9763
20
-152.697
11
49.972
21
-152.692
0
LINE
8
BLACK
6
CONTINUOUS
10
49.972
20
-152.692
11
49.9698
21
-152.686
0
LINE
8
BLACK
6
CONTINUOUS
10
49.9698
20
-152.686
11
49.9664
21
-152.68
0
LINE
8
BLACK
6
CONTINUOUS
10
49.9664
20
-152.68
11
49.9653
21
-152.673
0
LINE
8
BLACK
6
CONTINUOUS
10
49.9653
20
-152.673
11
49.963
21
-152.667
0
LINE
8
BLACK
6
CONTINUOUS
10
49.963
20
-152.667
11
49.963
21
-152.641
0
LINE
8
BLACK
6
CONTINUOUS
10
49.963
20
-152.641
11
49.963
21
-147.059
0
LINE
8
BLACK
6
CONTINUOUS
10
49.963
20
-147.059
11
49.963
21
-147.059
0
LINE
8
BLACK
6
CONTINUOUS
10
49.963
20
-147.059
11
49.963
21
-39.8846
0
LINE
8
BLACK
6
CONTINUOUS
10
49.963
20
-39.8846
11
49.963
21
-39.8846
0
LINE
8
BLACK
6
CONTINUOUS
10
49.963
20
-39.8846
11
49.963
21
-34.2834
0
LINE
8
BLACK
6
CONTINUOUS
10
49.963
20
-34.2834
11
49.963
21
-34.2768
0
LINE
8
BLACK
6
CONTINUOUS
10
49.963
20
-34.2768
11
49.9653
21
-34.2705
0
LINE
8
BLACK
6
CONTINUOUS
10
49.9653
20
-34.2705
11
49.9664
21
-34.264
0
LINE
8
BLACK
6
CONTINUOUS
10
49.9664
20
-34.264
11
49.9698
21
-34.2582
0
LINE
8
BLACK
6
CONTINUOUS
10
49.9698
20
-34.2582
11
49.972
21
-34.2519
0
LINE
8
BLACK
6
CONTINUOUS
10
49.972
20
-34.2519
11
49.9763
21
-34.2468
0
LINE
8
BLACK
6
CONTINUOUS
10
49.9763
20
-34.2468
11
49.9797
21
-34.241
0
LINE
8
BLACK
6
CONTINUOUS
10
49.9797
20
-34.241
11
49.9848
21
-34.2368
0
LINE
8
BLACK
6
CONTINUOUS
10
49.9848
20
-34.2368
11
49.989
21
-34.2317
0
LINE
8
BLACK
6
CONTINUOUS
10
49.989
20
-34.2317
11
49.9948
21
-34.2283
0
LINE
8
BLACK
6
CONTINUOUS
10
49.9948
20
-34.2283
11
49.9999
21
-34.224
0
LINE
8
BLACK
6
CONTINUOUS
10
49.9999
20
-34.224
11
50.0062
21
-34.2218
0
LINE
8
BLACK
6
CONTINUOUS
10
50.0062
20
-34.2218
11
50.012
21
-34.2184
0
LINE
8
BLACK
6
CONTINUOUS
10
50.012
20
-34.2184
11
50.0185
21
-34.2173
0
LINE
8
BLACK
6
CONTINUOUS
10
50.0185
20
-34.2173
11
50.0248
21
-34.215
0
LINE
8
BLACK
6
CONTINUOUS
10
50.0248
20
-34.215
11
50.0314
21
-34.215
0
LINE
8
BLACK
6
CONTINUOUS
10
50.0314
20
-34.215
11
50.0314
21
-34.215
0
LINE
8
BLACK
6
CONTINUOUS
10
50.0314
20
-34.215
11
249.181
21
-34.215
0
LINE
8
BLACK
6
CONTINUOUS
10
249.181
20
-34.215
11
249.181
21
-34.215
0
LINE
8
BLACK
6
CONTINUOUS
10
249.181
20
-34.215
11
249.187
21
-34.215
0
LINE
8
BLACK
6
CONTINUOUS
10
249.187
20
-34.215
11
249.193
21
-34.2173
0
LINE
8
BLACK
6
CONTINUOUS
10
249.193
20
-34.2173
11
249.2
21
-34.2184
0
LINE
8
BLACK
6
CONTINUOUS
10
249.2
20
-34.2184
11
249.206
21
-34.2218
0
LINE
8
BLACK
6
CONTINUOUS
10
249.206
20
-34.2218
11
249.212
21
-34.224
0
LINE
8
BLACK
6
CONTINUOUS
10
249.212
20
-34.224
11
249.217
21
-34.2283
0
LINE
8
BLACK
6
CONTINUOUS
10
249.217
20
-34.2283
11
249.223
21
-34.2317
0
LINE
8
BLACK
6
CONTINUOUS
10
249.223
20
-34.2317
11
249.227
21
-34.2368
0
LINE
8
BLACK
6
CONTINUOUS
10
249.227
20
-34.2368
11
249.232
21
-34.241
0
LINE
8
BLACK
6
CONTINUOUS
10
249.232
20
-34.241
11
249.236
21
-34.2468
0
LINE
8
BLACK
6
CONTINUOUS
10
249.236
20
-34.2468
11
249.24
21
-34.2519
0
LINE
8
BLACK
6
CONTINUOUS
10
249.24
20
-34.2519
11
249.242
21
-34.2582
0
LINE
8
BLACK
6
CONTINUOUS
10
249.242
20
-34.2582
11
249.246
21
-34.264
0
LINE
8
BLACK
6
CONTINUOUS
10
249.246
20
-34.264
11
249.247
21
-34.2705
0
LINE
8
BLACK
6
CONTINUOUS
10
249.247
20
-34.2705
11
249.249
21
-34.2768
0
LINE
8
BLACK
6
CONTINUOUS
10
249.249
20
-34.2768
11
249.249
21
-34.2834
0
LINE
8
BLACK
6
CONTINUOUS
10
249.249
20
-34.2834
11
249.249
21
-34.2834
0
LINE
8
BLACK
6
CONTINUOUS
10
249.249
20
-34.2834
11
249.249
21
-152.661
0
LINE
8
BLACK
6
CONTINUOUS
10
249.249
20
-152.661
11
249.249
21
-152.661
0
LINE
8
BLACK
6
CONTINUOUS
10
249.099
20
-152.579
11
249.099
21
-147.059
0
LINE
8
BLACK
6
CONTINUOUS
10
249.099
20
-147.059
11
249.099
21
-39.8714
0
LINE
8
BLACK
6
CONTINUOUS
10
249.099
20
-39.8714
11
249.099
21
-39.8714
0
LINE
8
BLACK
6
CONTINUOUS
10
249.099
20
-39.8714
11
249.099
21
-34.365
0
LINE
8
BLACK
6
CONTINUOUS
10
249.099
20
-34.365
11
50.113
21
-34.365
0
LINE
8
BLACK
6
CONTINUOUS
10
50.113
20
-34.365
11
50.113
21
-152.579
0
LINE
8
BLACK
6
CONTINUOUS
10
50.113
20
-152.579
11
249.099
21
-152.579
  0
ENDSEC
  0
EOF
