  0
SECTION
  2
HEADER
  9
$ANGBASE
  50
0.0
  9
$ANGDIR
  70
  1
  9
$MEASUREMENT
  70
0
  0
ENDSEC
  0
SECTION
  2
TABLES
  0
TABLE
  2
LTYPE
  70
4
  0
LTYPE
  5
40F
  2
CONTINUOUS
  70
0
  3
Solid line
  72
65
  73
0
  40
0.0
  0
LTYPE
  5
410
  2
DASHDOT
 70
0
  3
Dash Dot ____ _ ____ _
 72
65
 73
4
 40
2.0
 49
1.25
 49
-0.25
 49
0.25
 49
-0.25
  0
LTYPE
  5
411
  2
DASHED
 70
0
  3
Dashed __ __ __ __ __
 72
65
 73
2
 40
0.75
 49
0.5
 49
-0.25
  0
LTYPE
  5
43B
  2
DOTTED
 70
0
  3
Dotted .  .  .  .
 72
65
 73
2
 40
0.2
 49
0.0
 49
-0.2
  0
ENDTAB
  0
TABLE
  2
STYLE
  70
4
  0
STYLE
  2
KICAD
  70
0
  40
0
  41
1
  42
1
  50
0
  71
0
  3
isocp.shx
  0
STYLE
  2
KICADB
  70
0
  40
0
  41
1
  42
1
  50
0
  71
0
  3
isocp.shx
  0
STYLE
  2
KICADI
  70
0
  40
0
  41
1
  42
1
  50
15
  71
0
  3
isocp.shx
  0
STYLE
  2
KICADBI
  70
0
  40
0
  41
1
  42
1
  50
15
  71
0
  3
isocp.shx
  0
ENDTAB
  0
TABLE
  2
LAYER
  70
30
  0
LAYER
  2
BLACK
  70
0
  62
7
  6
CONTINUOUS
  0
LAYER
  2
GRAY1
  70
0
  62
251
  6
CONTINUOUS
  0
LAYER
  2
GRAY2
  70
0
  62
8
  6
CONTINUOUS
  0
LAYER
  2
GRAY3
  70
0
  62
9
  6
CONTINUOUS
  0
LAYER
  2
WHITE
  70
0
  62
7
  6
CONTINUOUS
  0
LAYER
  2
LYELLOW
  70
0
  62
51
  6
CONTINUOUS
  0
LAYER
  2
BLUE1
  70
0
  62
178
  6
CONTINUOUS
  0
LAYER
  2
GREEN1
  70
0
  62
98
  6
CONTINUOUS
  0
LAYER
  2
CYAN1
  70
0
  62
138
  6
CONTINUOUS
  0
LAYER
  2
RED1
  70
0
  62
18
  6
CONTINUOUS
  0
LAYER
  2
MAGENTA1
  70
0
  62
228
  6
CONTINUOUS
  0
LAYER
  2
BROWN1
  70
0
  62
58
  6
CONTINUOUS
  0
LAYER
  2
BLUE2
  70
0
  62
5
  6
CONTINUOUS
  0
LAYER
  2
GREEN2
  70
0
  62
3
  6
CONTINUOUS
  0
LAYER
  2
CYAN2
  70
0
  62
4
  6
CONTINUOUS
  0
LAYER
  2
RED2
  70
0
  62
1
  6
CONTINUOUS
  0
LAYER
  2
MAGENTA2
  70
0
  62
6
  6
CONTINUOUS
  0
LAYER
  2
BROWN2
  70
0
  62
54
  6
CONTINUOUS
  0
LAYER
  2
BLUE3
  70
0
  62
171
  6
CONTINUOUS
  0
LAYER
  2
GREEN3
  70
0
  62
91
  6
CONTINUOUS
  0
LAYER
  2
CYAN3
  70
0
  62
131
  6
CONTINUOUS
  0
LAYER
  2
RED3
  70
0
  62
11
  6
CONTINUOUS
  0
LAYER
  2
MAGENTA3
  70
0
  62
221
  6
CONTINUOUS
  0
LAYER
  2
YELLOW3
  70
0
  62
2
  6
CONTINUOUS
  0
LAYER
  2
BLUE4
  70
0
  62
5
  6
CONTINUOUS
  0
LAYER
  2
GREEN4
  70
0
  62
3
  6
CONTINUOUS
  0
LAYER
  2
CYAN4
  70
0
  62
4
  6
CONTINUOUS
  0
LAYER
  2
RED4
  70
0
  62
1
  6
CONTINUOUS
  0
LAYER
  2
MAGENTA4
  70
0
  62
6
  6
CONTINUOUS
  0
LAYER
  2
YELLOW4
  70
0
  62
2
  6
CONTINUOUS
  0
ENDTAB
  0
ENDSEC
  0
SECTION
  2
ENTITIES
0
LINE
8
BLACK
6
CONTINUOUS
10
157.418
20
-126.837
11
156.018
21
-126.837
0
LINE
8
BLACK
6
CONTINUOUS
10
156.018
20
-126.837
11
156.018
21
-125.542
0
LINE
8
BLACK
6
CONTINUOUS
10
156.018
20
-125.542
11
157.418
21
-125.542
0
LINE
8
BLACK
6
CONTINUOUS
10
157.418
20
-125.542
11
157.418
21
-126.837
0
LINE
8
BLACK
6
CONTINUOUS
10
145.427
20
-125.16
11
144.132
21
-125.16
0
LINE
8
BLACK
6
CONTINUOUS
10
144.132
20
-125.16
11
144.132
21
-123.76
0
LINE
8
BLACK
6
CONTINUOUS
10
144.132
20
-123.76
11
145.427
21
-123.76
0
LINE
8
BLACK
6
CONTINUOUS
10
145.427
20
-123.76
11
145.427
21
-125.16
0
LINE
8
BLACK
6
CONTINUOUS
10
147.362
20
-125.16
11
146.067
21
-125.16
0
LINE
8
BLACK
6
CONTINUOUS
10
146.067
20
-125.16
11
146.067
21
-123.76
0
LINE
8
BLACK
6
CONTINUOUS
10
146.067
20
-123.76
11
147.362
21
-123.76
0
LINE
8
BLACK
6
CONTINUOUS
10
147.362
20
-123.76
11
147.362
21
-125.16
0
LINE
8
BLACK
6
CONTINUOUS
10
157.418
20
-124.902
11
156.018
21
-124.902
0
LINE
8
BLACK
6
CONTINUOUS
10
156.018
20
-124.902
11
156.018
21
-123.607
0
LINE
8
BLACK
6
CONTINUOUS
10
156.018
20
-123.607
11
157.418
21
-123.607
0
LINE
8
BLACK
6
CONTINUOUS
10
157.418
20
-123.607
11
157.418
21
-124.902
0
LINE
8
BLACK
6
CONTINUOUS
10
145.427
20
-122.62
11
144.132
21
-122.62
0
LINE
8
BLACK
6
CONTINUOUS
10
144.132
20
-122.62
11
144.132
21
-121.22
0
LINE
8
BLACK
6
CONTINUOUS
10
144.132
20
-121.22
11
145.427
21
-121.22
0
LINE
8
BLACK
6
CONTINUOUS
10
145.427
20
-121.22
11
145.427
21
-122.62
0
LINE
8
BLACK
6
CONTINUOUS
10
147.362
20
-122.62
11
146.067
21
-122.62
0
LINE
8
BLACK
6
CONTINUOUS
10
146.067
20
-122.62
11
146.067
21
-121.22
0
LINE
8
BLACK
6
CONTINUOUS
10
146.067
20
-121.22
11
147.362
21
-121.22
0
LINE
8
BLACK
6
CONTINUOUS
10
147.362
20
-121.22
11
147.362
21
-122.62
0
LINE
8
BLACK
6
CONTINUOUS
10
155.64
20
-119.265
11
154.24
21
-119.265
0
LINE
8
BLACK
6
CONTINUOUS
10
154.24
20
-119.265
11
154.24
21
-117.971
0
LINE
8
BLACK
6
CONTINUOUS
10
154.24
20
-117.971
11
155.64
21
-117.971
0
LINE
8
BLACK
6
CONTINUOUS
10
155.64
20
-117.971
11
155.64
21
-119.265
0
LINE
8
BLACK
6
CONTINUOUS
10
157.926
20
-119.265
11
156.526
21
-119.265
0
LINE
8
BLACK
6
CONTINUOUS
10
156.526
20
-119.265
11
156.526
21
-117.971
0
LINE
8
BLACK
6
CONTINUOUS
10
156.526
20
-117.971
11
157.926
21
-117.971
0
LINE
8
BLACK
6
CONTINUOUS
10
157.926
20
-117.971
11
157.926
21
-119.265
0
LINE
8
BLACK
6
CONTINUOUS
10
151.83
20
-117.644
11
150.43
21
-117.644
0
LINE
8
BLACK
6
CONTINUOUS
10
150.43
20
-117.644
11
150.43
21
-116.349
0
LINE
8
BLACK
6
CONTINUOUS
10
150.43
20
-116.349
11
151.83
21
-116.349
0
LINE
8
BLACK
6
CONTINUOUS
10
151.83
20
-116.349
11
151.83
21
-117.644
0
LINE
8
BLACK
6
CONTINUOUS
10
149.544
20
-117.644
11
148.144
21
-117.644
0
LINE
8
BLACK
6
CONTINUOUS
10
148.144
20
-117.644
11
148.144
21
-116.349
0
LINE
8
BLACK
6
CONTINUOUS
10
148.144
20
-116.349
11
149.544
21
-116.349
0
LINE
8
BLACK
6
CONTINUOUS
10
149.544
20
-116.349
11
149.544
21
-117.644
0
LINE
8
BLACK
6
CONTINUOUS
10
147.258
20
-117.644
11
145.858
21
-117.644
0
LINE
8
BLACK
6
CONTINUOUS
10
145.858
20
-117.644
11
145.858
21
-116.349
0
LINE
8
BLACK
6
CONTINUOUS
10
145.858
20
-116.349
11
147.258
21
-116.349
0
LINE
8
BLACK
6
CONTINUOUS
10
147.258
20
-116.349
11
147.258
21
-117.644
0
LINE
8
BLACK
6
CONTINUOUS
10
155.64
20
-117.331
11
154.24
21
-117.331
0
LINE
8
BLACK
6
CONTINUOUS
10
154.24
20
-117.331
11
154.24
21
-116.035
0
LINE
8
BLACK
6
CONTINUOUS
10
154.24
20
-116.035
11
155.64
21
-116.035
0
LINE
8
BLACK
6
CONTINUOUS
10
155.64
20
-116.035
11
155.64
21
-117.331
0
LINE
8
BLACK
6
CONTINUOUS
10
157.926
20
-117.331
11
156.526
21
-117.331
0
LINE
8
BLACK
6
CONTINUOUS
10
156.526
20
-117.331
11
156.526
21
-116.035
0
LINE
8
BLACK
6
CONTINUOUS
10
156.526
20
-116.035
11
157.926
21
-116.035
0
LINE
8
BLACK
6
CONTINUOUS
10
157.926
20
-116.035
11
157.926
21
-117.331
0
LINE
8
BLACK
6
CONTINUOUS
10
151.83
20
-115.709
11
150.43
21
-115.709
0
LINE
8
BLACK
6
CONTINUOUS
10
150.43
20
-115.709
11
150.43
21
-114.414
0
LINE
8
BLACK
6
CONTINUOUS
10
150.43
20
-114.414
11
151.83
21
-114.414
0
LINE
8
BLACK
6
CONTINUOUS
10
151.83
20
-114.414
11
151.83
21
-115.709
0
LINE
8
BLACK
6
CONTINUOUS
10
149.544
20
-115.709
11
148.144
21
-115.709
0
LINE
8
BLACK
6
CONTINUOUS
10
148.144
20
-115.709
11
148.144
21
-114.414
0
LINE
8
BLACK
6
CONTINUOUS
10
148.144
20
-114.414
11
149.544
21
-114.414
0
LINE
8
BLACK
6
CONTINUOUS
10
149.544
20
-114.414
11
149.544
21
-115.709
0
LINE
8
BLACK
6
CONTINUOUS
10
147.258
20
-115.709
11
145.858
21
-115.709
0
LINE
8
BLACK
6
CONTINUOUS
10
145.858
20
-115.709
11
145.858
21
-114.414
0
LINE
8
BLACK
6
CONTINUOUS
10
145.858
20
-114.414
11
147.258
21
-114.414
0
LINE
8
BLACK
6
CONTINUOUS
10
147.258
20
-114.414
11
147.258
21
-115.709
0
LINE
8
BLACK
6
CONTINUOUS
10
153.858
20
-114.746
11
152.563
21
-114.746
0
LINE
8
BLACK
6
CONTINUOUS
10
152.563
20
-114.746
11
152.563
21
-113.346
0
LINE
8
BLACK
6
CONTINUOUS
10
152.563
20
-113.346
11
153.858
21
-113.346
0
LINE
8
BLACK
6
CONTINUOUS
10
153.858
20
-113.346
11
153.858
21
-114.746
0
LINE
8
BLACK
6
CONTINUOUS
10
155.793
20
-114.746
11
154.498
21
-114.746
0
LINE
8
BLACK
6
CONTINUOUS
10
154.498
20
-114.746
11
154.498
21
-113.346
0
LINE
8
BLACK
6
CONTINUOUS
10
154.498
20
-113.346
11
155.793
21
-113.346
0
LINE
8
BLACK
6
CONTINUOUS
10
155.793
20
-113.346
11
155.793
21
-114.746
0
LINE
8
BLACK
6
CONTINUOUS
10
129.304
20
-60.399
11
122.664
21
-60.399
0
LINE
8
BLACK
6
CONTINUOUS
10
122.664
20
-60.399
11
122.664
21
-57.467
0
LINE
8
BLACK
6
CONTINUOUS
10
122.664
20
-57.467
11
129.304
21
-57.467
0
LINE
8
BLACK
6
CONTINUOUS
10
129.304
20
-57.467
11
129.304
21
-60.399
0
LINE
8
BLACK
6
CONTINUOUS
10
133.523
20
-60.183
11
132.923
21
-60.183
0
LINE
8
BLACK
6
CONTINUOUS
10
132.923
20
-60.183
11
132.923
21
-58.633
0
LINE
8
BLACK
6
CONTINUOUS
10
132.923
20
-58.633
11
133.523
21
-58.633
0
LINE
8
BLACK
6
CONTINUOUS
10
133.523
20
-58.633
11
133.523
21
-60.183
0
LINE
8
BLACK
6
CONTINUOUS
10
130.983
20
-60.183
11
130.383
21
-60.183
0
LINE
8
BLACK
6
CONTINUOUS
10
130.383
20
-60.183
11
130.383
21
-58.633
0
LINE
8
BLACK
6
CONTINUOUS
10
130.383
20
-58.633
11
130.983
21
-58.633
0
LINE
8
BLACK
6
CONTINUOUS
10
130.983
20
-58.633
11
130.983
21
-60.183
0
LINE
8
BLACK
6
CONTINUOUS
10
132.253
20
-60.183
11
131.653
21
-60.183
0
LINE
8
BLACK
6
CONTINUOUS
10
131.653
20
-60.183
11
131.653
21
-58.633
0
LINE
8
BLACK
6
CONTINUOUS
10
131.653
20
-58.633
11
132.253
21
-58.633
0
LINE
8
BLACK
6
CONTINUOUS
10
132.253
20
-58.633
11
132.253
21
-60.183
0
LINE
8
BLACK
6
CONTINUOUS
10
134.793
20
-60.183
11
134.193
21
-60.183
0
LINE
8
BLACK
6
CONTINUOUS
10
134.193
20
-60.183
11
134.193
21
-58.633
0
LINE
8
BLACK
6
CONTINUOUS
10
134.193
20
-58.633
11
134.793
21
-58.633
0
LINE
8
BLACK
6
CONTINUOUS
10
134.793
20
-58.633
11
134.793
21
-60.183
0
LINE
8
BLACK
6
CONTINUOUS
10
137.352
20
-58.511
11
135.952
21
-58.511
0
LINE
8
BLACK
6
CONTINUOUS
10
135.952
20
-58.511
11
135.952
21
-57.216
0
LINE
8
BLACK
6
CONTINUOUS
10
135.952
20
-57.216
11
137.352
21
-57.216
0
LINE
8
BLACK
6
CONTINUOUS
10
137.352
20
-57.216
11
137.352
21
-58.511
0
LINE
8
BLACK
6
CONTINUOUS
10
118.478
20
-57.2094
11
117.31
21
-57.2094
0
LINE
8
BLACK
6
CONTINUOUS
10
117.31
20
-57.2094
11
117.31
21
-56.8665
0
LINE
8
BLACK
6
CONTINUOUS
10
117.31
20
-56.8665
11
118.478
21
-56.8665
0
LINE
8
BLACK
6
CONTINUOUS
10
118.478
20
-56.8665
11
118.478
21
-57.2094
0
LINE
8
BLACK
6
CONTINUOUS
10
120.434
20
-57.2094
11
119.266
21
-57.2094
0
LINE
8
BLACK
6
CONTINUOUS
10
119.266
20
-57.2094
11
119.266
21
-56.8665
0
LINE
8
BLACK
6
CONTINUOUS
10
119.266
20
-56.8665
11
120.434
21
-56.8665
0
LINE
8
BLACK
6
CONTINUOUS
10
120.434
20
-56.8665
11
120.434
21
-57.2094
0
LINE
8
BLACK
6
CONTINUOUS
10
137.352
20
-56.576
11
135.952
21
-56.576
0
LINE
8
BLACK
6
CONTINUOUS
10
135.952
20
-56.576
11
135.952
21
-55.281
0
LINE
8
BLACK
6
CONTINUOUS
10
135.952
20
-55.281
11
137.352
21
-55.281
0
LINE
8
BLACK
6
CONTINUOUS
10
137.352
20
-55.281
11
137.352
21
-56.576
0
LINE
8
BLACK
6
CONTINUOUS
10
118.478
20
-56.5594
11
117.31
21
-56.5594
0
LINE
8
BLACK
6
CONTINUOUS
10
117.31
20
-56.5594
11
117.31
21
-56.2165
0
LINE
8
BLACK
6
CONTINUOUS
10
117.31
20
-56.2165
11
118.478
21
-56.2165
0
LINE
8
BLACK
6
CONTINUOUS
10
118.478
20
-56.2165
11
118.478
21
-56.5594
0
LINE
8
BLACK
6
CONTINUOUS
10
120.434
20
-56.5594
11
119.266
21
-56.5594
0
LINE
8
BLACK
6
CONTINUOUS
10
119.266
20
-56.5594
11
119.266
21
-56.2165
0
LINE
8
BLACK
6
CONTINUOUS
10
119.266
20
-56.2165
11
120.434
21
-56.2165
0
LINE
8
BLACK
6
CONTINUOUS
10
120.434
20
-56.2165
11
120.434
21
-56.5594
0
LINE
8
BLACK
6
CONTINUOUS
10
120.434
20
-55.9095
11
119.266
21
-55.9095
0
LINE
8
BLACK
6
CONTINUOUS
10
119.266
20
-55.9095
11
119.266
21
-55.5666
0
LINE
8
BLACK
6
CONTINUOUS
10
119.266
20
-55.5666
11
120.434
21
-55.5666
0
LINE
8
BLACK
6
CONTINUOUS
10
120.434
20
-55.5666
11
120.434
21
-55.9095
0
LINE
8
BLACK
6
CONTINUOUS
10
118.478
20
-55.9095
11
117.31
21
-55.9095
0
LINE
8
BLACK
6
CONTINUOUS
10
117.31
20
-55.9095
11
117.31
21
-55.5666
0
LINE
8
BLACK
6
CONTINUOUS
10
117.31
20
-55.5666
11
118.478
21
-55.5666
0
LINE
8
BLACK
6
CONTINUOUS
10
118.478
20
-55.5666
11
118.478
21
-55.9095
0
LINE
8
BLACK
6
CONTINUOUS
10
129.304
20
-55.817
11
122.664
21
-55.817
0
LINE
8
BLACK
6
CONTINUOUS
10
122.664
20
-55.817
11
122.664
21
-52.885
0
LINE
8
BLACK
6
CONTINUOUS
10
122.664
20
-52.885
11
129.304
21
-52.885
0
LINE
8
BLACK
6
CONTINUOUS
10
129.304
20
-52.885
11
129.304
21
-55.817
0
LINE
8
BLACK
6
CONTINUOUS
10
130.983
20
-54.783
11
130.383
21
-54.783
0
LINE
8
BLACK
6
CONTINUOUS
10
130.383
20
-54.783
11
130.383
21
-53.233
0
LINE
8
BLACK
6
CONTINUOUS
10
130.383
20
-53.233
11
130.983
21
-53.233
0
LINE
8
BLACK
6
CONTINUOUS
10
130.983
20
-53.233
11
130.983
21
-54.783
0
LINE
8
BLACK
6
CONTINUOUS
10
132.253
20
-54.783
11
131.653
21
-54.783
0
LINE
8
BLACK
6
CONTINUOUS
10
131.653
20
-54.783
11
131.653
21
-53.233
0
LINE
8
BLACK
6
CONTINUOUS
10
131.653
20
-53.233
11
132.253
21
-53.233
0
LINE
8
BLACK
6
CONTINUOUS
10
132.253
20
-53.233
11
132.253
21
-54.783
0
LINE
8
BLACK
6
CONTINUOUS
10
133.523
20
-54.783
11
132.923
21
-54.783
0
LINE
8
BLACK
6
CONTINUOUS
10
132.923
20
-54.783
11
132.923
21
-53.233
0
LINE
8
BLACK
6
CONTINUOUS
10
132.923
20
-53.233
11
133.523
21
-53.233
0
LINE
8
BLACK
6
CONTINUOUS
10
133.523
20
-53.233
11
133.523
21
-54.783
0
LINE
8
BLACK
6
CONTINUOUS
10
134.793
20
-54.783
11
134.193
21
-54.783
0
LINE
8
BLACK
6
CONTINUOUS
10
134.193
20
-54.783
11
134.193
21
-53.233
0
LINE
8
BLACK
6
CONTINUOUS
10
134.193
20
-53.233
11
134.793
21
-53.233
0
LINE
8
BLACK
6
CONTINUOUS
10
134.793
20
-53.233
11
134.793
21
-54.783
0
LINE
8
BLACK
6
CONTINUOUS
10
105.501
20
-53.278
11
104.206
21
-53.278
0
LINE
8
BLACK
6
CONTINUOUS
10
104.206
20
-53.278
11
104.206
21
-51.878
0
LINE
8
BLACK
6
CONTINUOUS
10
104.206
20
-51.878
11
105.501
21
-51.878
0
LINE
8
BLACK
6
CONTINUOUS
10
105.501
20
-51.878
11
105.501
21
-53.278
0
LINE
8
BLACK
6
CONTINUOUS
10
103.566
20
-53.278
11
102.271
21
-53.278
0
LINE
8
BLACK
6
CONTINUOUS
10
102.271
20
-53.278
11
102.271
21
-51.878
0
LINE
8
BLACK
6
CONTINUOUS
10
102.271
20
-51.878
11
103.566
21
-51.878
0
LINE
8
BLACK
6
CONTINUOUS
10
103.566
20
-51.878
11
103.566
21
-53.278
0
LINE
8
BLACK
6
CONTINUOUS
10
101.538
20
-52.923
11
100.138
21
-52.923
0
LINE
8
BLACK
6
CONTINUOUS
10
100.138
20
-52.923
11
100.138
21
-51.628
0
LINE
8
BLACK
6
CONTINUOUS
10
100.138
20
-51.628
11
101.538
21
-51.628
0
LINE
8
BLACK
6
CONTINUOUS
10
101.538
20
-51.628
11
101.538
21
-52.923
0
LINE
8
BLACK
6
CONTINUOUS
10
103.566
20
-50.992
11
102.271
21
-50.992
0
LINE
8
BLACK
6
CONTINUOUS
10
102.271
20
-50.992
11
102.271
21
-49.592
0
LINE
8
BLACK
6
CONTINUOUS
10
102.271
20
-49.592
11
103.566
21
-49.592
0
LINE
8
BLACK
6
CONTINUOUS
10
103.566
20
-49.592
11
103.566
21
-50.992
0
LINE
8
BLACK
6
CONTINUOUS
10
105.501
20
-50.992
11
104.206
21
-50.992
0
LINE
8
BLACK
6
CONTINUOUS
10
104.206
20
-50.992
11
104.206
21
-49.592
0
LINE
8
BLACK
6
CONTINUOUS
10
104.206
20
-49.592
11
105.501
21
-49.592
0
LINE
8
BLACK
6
CONTINUOUS
10
105.501
20
-49.592
11
105.501
21
-50.992
0
LINE
8
BLACK
6
CONTINUOUS
10
101.538
20
-50.988
11
100.138
21
-50.988
0
LINE
8
BLACK
6
CONTINUOUS
10
100.138
20
-50.988
11
100.138
21
-49.693
0
LINE
8
BLACK
6
CONTINUOUS
10
100.138
20
-49.693
11
101.538
21
-49.693
0
LINE
8
BLACK
6
CONTINUOUS
10
101.538
20
-49.693
11
101.538
21
-50.988
  0
ENDSEC
  0
EOF
