  0
SECTION
  2
HEADER
  9
$ANGBASE
  50
0.0
  9
$ANGDIR
  70
  1
  9
$MEASUREMENT
  70
0
  0
ENDSEC
  0
SECTION
  2
TABLES
  0
TABLE
  2
LTYPE
  70
4
  0
LTYPE
  5
40F
  2
CONTINUOUS
  70
0
  3
Solid line
  72
65
  73
0
  40
0.0
  0
LTYPE
  5
410
  2
DASHDOT
 70
0
  3
Dash Dot ____ _ ____ _
 72
65
 73
4
 40
2.0
 49
1.25
 49
-0.25
 49
0.25
 49
-0.25
  0
LTYPE
  5
411
  2
DASHED
 70
0
  3
Dashed __ __ __ __ __
 72
65
 73
2
 40
0.75
 49
0.5
 49
-0.25
  0
LTYPE
  5
43B
  2
DOTTED
 70
0
  3
Dotted .  .  .  .
 72
65
 73
2
 40
0.2
 49
0.0
 49
-0.2
  0
ENDTAB
  0
TABLE
  2
STYLE
  70
4
  0
STYLE
  2
KICAD
  70
0
  40
0
  41
1
  42
1
  50
0
  71
0
  3
isocp.shx
  0
STYLE
  2
KICADB
  70
0
  40
0
  41
1
  42
1
  50
0
  71
0
  3
isocp.shx
  0
STYLE
  2
KICADI
  70
0
  40
0
  41
1
  42
1
  50
15
  71
0
  3
isocp.shx
  0
STYLE
  2
KICADBI
  70
0
  40
0
  41
1
  42
1
  50
15
  71
0
  3
isocp.shx
  0
ENDTAB
  0
TABLE
  2
LAYER
  70
30
  0
LAYER
  2
BLACK
  70
0
  62
7
  6
CONTINUOUS
  0
LAYER
  2
GRAY1
  70
0
  62
251
  6
CONTINUOUS
  0
LAYER
  2
GRAY2
  70
0
  62
8
  6
CONTINUOUS
  0
LAYER
  2
GRAY3
  70
0
  62
9
  6
CONTINUOUS
  0
LAYER
  2
WHITE
  70
0
  62
7
  6
CONTINUOUS
  0
LAYER
  2
LYELLOW
  70
0
  62
51
  6
CONTINUOUS
  0
LAYER
  2
BLUE1
  70
0
  62
178
  6
CONTINUOUS
  0
LAYER
  2
GREEN1
  70
0
  62
98
  6
CONTINUOUS
  0
LAYER
  2
CYAN1
  70
0
  62
138
  6
CONTINUOUS
  0
LAYER
  2
RED1
  70
0
  62
18
  6
CONTINUOUS
  0
LAYER
  2
MAGENTA1
  70
0
  62
228
  6
CONTINUOUS
  0
LAYER
  2
BROWN1
  70
0
  62
58
  6
CONTINUOUS
  0
LAYER
  2
BLUE2
  70
0
  62
5
  6
CONTINUOUS
  0
LAYER
  2
GREEN2
  70
0
  62
3
  6
CONTINUOUS
  0
LAYER
  2
CYAN2
  70
0
  62
4
  6
CONTINUOUS
  0
LAYER
  2
RED2
  70
0
  62
1
  6
CONTINUOUS
  0
LAYER
  2
MAGENTA2
  70
0
  62
6
  6
CONTINUOUS
  0
LAYER
  2
BROWN2
  70
0
  62
54
  6
CONTINUOUS
  0
LAYER
  2
BLUE3
  70
0
  62
171
  6
CONTINUOUS
  0
LAYER
  2
GREEN3
  70
0
  62
91
  6
CONTINUOUS
  0
LAYER
  2
CYAN3
  70
0
  62
131
  6
CONTINUOUS
  0
LAYER
  2
RED3
  70
0
  62
11
  6
CONTINUOUS
  0
LAYER
  2
MAGENTA3
  70
0
  62
221
  6
CONTINUOUS
  0
LAYER
  2
YELLOW3
  70
0
  62
2
  6
CONTINUOUS
  0
LAYER
  2
BLUE4
  70
0
  62
5
  6
CONTINUOUS
  0
LAYER
  2
GREEN4
  70
0
  62
3
  6
CONTINUOUS
  0
LAYER
  2
CYAN4
  70
0
  62
4
  6
CONTINUOUS
  0
LAYER
  2
RED4
  70
0
  62
1
  6
CONTINUOUS
  0
LAYER
  2
MAGENTA4
  70
0
  62
6
  6
CONTINUOUS
  0
LAYER
  2
YELLOW4
  70
0
  62
2
  6
CONTINUOUS
  0
ENDTAB
  0
ENDSEC
  0
SECTION
  2
ENTITIES
0
LINE
8
BLACK
6
CONTINUOUS
10
187.132
20
-124.144
11
185.837
21
-124.144
0
LINE
8
BLACK
6
CONTINUOUS
10
185.837
20
-124.144
11
185.837
21
-122.744
0
LINE
8
BLACK
6
CONTINUOUS
10
185.837
20
-122.744
11
187.132
21
-122.744
0
LINE
8
BLACK
6
CONTINUOUS
10
187.132
20
-122.744
11
187.132
21
-124.144
0
LINE
8
BLACK
6
CONTINUOUS
10
189.067
20
-124.144
11
187.772
21
-124.144
0
LINE
8
BLACK
6
CONTINUOUS
10
187.772
20
-124.144
11
187.772
21
-122.744
0
LINE
8
BLACK
6
CONTINUOUS
10
187.772
20
-122.744
11
189.067
21
-122.744
0
LINE
8
BLACK
6
CONTINUOUS
10
189.067
20
-122.744
11
189.067
21
-124.144
0
LINE
8
BLACK
6
CONTINUOUS
10
187.18
20
-120.842
11
185.885
21
-120.842
0
LINE
8
BLACK
6
CONTINUOUS
10
185.885
20
-120.842
11
185.885
21
-119.442
0
LINE
8
BLACK
6
CONTINUOUS
10
185.885
20
-119.442
11
187.18
21
-119.442
0
LINE
8
BLACK
6
CONTINUOUS
10
187.18
20
-119.442
11
187.18
21
-120.842
0
LINE
8
BLACK
6
CONTINUOUS
10
189.115
20
-120.842
11
187.82
21
-120.842
0
LINE
8
BLACK
6
CONTINUOUS
10
187.82
20
-120.842
11
187.82
21
-119.442
0
LINE
8
BLACK
6
CONTINUOUS
10
187.82
20
-119.442
11
189.115
21
-119.442
0
LINE
8
BLACK
6
CONTINUOUS
10
189.115
20
-119.442
11
189.115
21
-120.842
0
LINE
8
BLACK
6
CONTINUOUS
10
127.458
20
-114.916
11
127.992
21
-115.225
0
LINE
8
BLACK
6
CONTINUOUS
10
127.992
20
-115.225
11
128.389
21
-115.698
0
LINE
8
BLACK
6
CONTINUOUS
10
128.389
20
-115.698
11
128.6
21
-116.277
0
LINE
8
BLACK
6
CONTINUOUS
10
128.6
20
-116.277
11
128.6
21
-116.895
0
LINE
8
BLACK
6
CONTINUOUS
10
128.6
20
-116.895
11
128.389
21
-117.474
0
LINE
8
BLACK
6
CONTINUOUS
10
128.389
20
-117.474
11
127.992
21
-117.947
0
LINE
8
BLACK
6
CONTINUOUS
10
127.992
20
-117.947
11
127.458
21
-118.256
0
LINE
8
BLACK
6
CONTINUOUS
10
127.458
20
-118.256
11
127.003
21
-118.336
0
LINE
8
BLACK
6
CONTINUOUS
10
127.003
20
-118.336
11
126.697
21
-118.336
0
LINE
8
BLACK
6
CONTINUOUS
10
126.697
20
-118.336
11
126.242
21
-118.256
0
LINE
8
BLACK
6
CONTINUOUS
10
126.242
20
-118.256
11
125.708
21
-117.947
0
LINE
8
BLACK
6
CONTINUOUS
10
125.708
20
-117.947
11
125.311
21
-117.474
0
LINE
8
BLACK
6
CONTINUOUS
10
125.311
20
-117.474
11
125.1
21
-116.895
0
LINE
8
BLACK
6
CONTINUOUS
10
125.1
20
-116.895
11
125.1
21
-116.277
0
LINE
8
BLACK
6
CONTINUOUS
10
125.1
20
-116.277
11
125.311
21
-115.698
0
LINE
8
BLACK
6
CONTINUOUS
10
125.311
20
-115.698
11
125.708
21
-115.225
0
LINE
8
BLACK
6
CONTINUOUS
10
125.708
20
-115.225
11
126.242
21
-114.916
0
LINE
8
BLACK
6
CONTINUOUS
10
126.242
20
-114.916
11
126.697
21
-114.836
0
LINE
8
BLACK
6
CONTINUOUS
10
126.697
20
-114.836
11
127.003
21
-114.836
0
LINE
8
BLACK
6
CONTINUOUS
10
127.003
20
-114.836
11
127.458
21
-114.916
0
LINE
8
BLACK
6
CONTINUOUS
10
170.064
20
-113.213
11
168.264
21
-113.213
0
LINE
8
BLACK
6
CONTINUOUS
10
168.264
20
-113.213
11
168.264
21
-111.818
0
LINE
8
BLACK
6
CONTINUOUS
10
168.264
20
-111.818
11
170.064
21
-111.818
0
LINE
8
BLACK
6
CONTINUOUS
10
170.064
20
-111.818
11
170.064
21
-113.213
0
LINE
8
BLACK
6
CONTINUOUS
10
173.244
20
-113.206
11
171.749
21
-113.206
0
LINE
8
BLACK
6
CONTINUOUS
10
171.749
20
-113.206
11
171.749
21
-109.806
0
LINE
8
BLACK
6
CONTINUOUS
10
171.749
20
-109.806
11
173.244
21
-109.806
0
LINE
8
BLACK
6
CONTINUOUS
10
173.244
20
-109.806
11
173.244
21
-113.206
0
LINE
8
BLACK
6
CONTINUOUS
10
179.279
20
-113.206
11
177.784
21
-113.206
0
LINE
8
BLACK
6
CONTINUOUS
10
177.784
20
-113.206
11
177.784
21
-109.806
0
LINE
8
BLACK
6
CONTINUOUS
10
177.784
20
-109.806
11
179.279
21
-109.806
0
LINE
8
BLACK
6
CONTINUOUS
10
179.279
20
-109.806
11
179.279
21
-113.206
0
LINE
8
BLACK
6
CONTINUOUS
10
170.064
20
-110.178
11
168.264
21
-110.178
0
LINE
8
BLACK
6
CONTINUOUS
10
168.264
20
-110.178
11
168.264
21
-108.783
0
LINE
8
BLACK
6
CONTINUOUS
10
168.264
20
-108.783
11
170.064
21
-108.783
0
LINE
8
BLACK
6
CONTINUOUS
10
170.064
20
-108.783
11
170.064
21
-110.178
0
LINE
8
BLACK
6
CONTINUOUS
10
163.714
20
-100.259
11
161.914
21
-100.259
0
LINE
8
BLACK
6
CONTINUOUS
10
161.914
20
-100.259
11
161.914
21
-98.864
0
LINE
8
BLACK
6
CONTINUOUS
10
161.914
20
-98.864
11
163.714
21
-98.864
0
LINE
8
BLACK
6
CONTINUOUS
10
163.714
20
-98.864
11
163.714
21
-100.259
0
LINE
8
BLACK
6
CONTINUOUS
10
176.854
20
-99.394
11
173.354
21
-99.394
0
LINE
8
BLACK
6
CONTINUOUS
10
173.354
20
-99.394
11
173.354
21
-96.694
0
LINE
8
BLACK
6
CONTINUOUS
10
173.354
20
-96.694
11
176.854
21
-96.694
0
LINE
8
BLACK
6
CONTINUOUS
10
176.854
20
-96.694
11
176.854
21
-99.394
0
LINE
8
BLACK
6
CONTINUOUS
10
170.054
20
-99.394
11
166.554
21
-99.394
0
LINE
8
BLACK
6
CONTINUOUS
10
166.554
20
-99.394
11
166.554
21
-96.694
0
LINE
8
BLACK
6
CONTINUOUS
10
166.554
20
-96.694
11
170.054
21
-96.694
0
LINE
8
BLACK
6
CONTINUOUS
10
170.054
20
-96.694
11
170.054
21
-99.394
0
LINE
8
BLACK
6
CONTINUOUS
10
163.714
20
-97.224
11
161.914
21
-97.224
0
LINE
8
BLACK
6
CONTINUOUS
10
161.914
20
-97.224
11
161.914
21
-95.829
0
LINE
8
BLACK
6
CONTINUOUS
10
161.914
20
-95.829
11
163.714
21
-95.829
0
LINE
8
BLACK
6
CONTINUOUS
10
163.714
20
-95.829
11
163.714
21
-97.224
0
LINE
8
BLACK
6
CONTINUOUS
10
172.929
20
-92.886
11
171.434
21
-92.886
0
LINE
8
BLACK
6
CONTINUOUS
10
171.434
20
-92.886
11
171.434
21
-89.486
0
LINE
8
BLACK
6
CONTINUOUS
10
171.434
20
-89.486
11
172.929
21
-89.486
0
LINE
8
BLACK
6
CONTINUOUS
10
172.929
20
-89.486
11
172.929
21
-92.886
0
LINE
8
BLACK
6
CONTINUOUS
10
166.894
20
-92.886
11
165.399
21
-92.886
0
LINE
8
BLACK
6
CONTINUOUS
10
165.399
20
-92.886
11
165.399
21
-89.486
0
LINE
8
BLACK
6
CONTINUOUS
10
165.399
20
-89.486
11
166.894
21
-89.486
0
LINE
8
BLACK
6
CONTINUOUS
10
166.894
20
-89.486
11
166.894
21
-92.886
0
LINE
8
BLACK
6
CONTINUOUS
10
178.388
20
-91.764
11
175.688
21
-91.764
0
LINE
8
BLACK
6
CONTINUOUS
10
175.688
20
-91.764
11
175.688
21
-88.264
0
LINE
8
BLACK
6
CONTINUOUS
10
175.688
20
-88.264
11
178.388
21
-88.264
0
LINE
8
BLACK
6
CONTINUOUS
10
178.388
20
-88.264
11
178.388
21
-91.764
0
LINE
8
BLACK
6
CONTINUOUS
10
173.62
20
-86.543
11
171.82
21
-86.543
0
LINE
8
BLACK
6
CONTINUOUS
10
171.82
20
-86.543
11
171.82
21
-85.148
0
LINE
8
BLACK
6
CONTINUOUS
10
171.82
20
-85.148
11
173.62
21
-85.148
0
LINE
8
BLACK
6
CONTINUOUS
10
173.62
20
-85.148
11
173.62
21
-86.543
0
LINE
8
BLACK
6
CONTINUOUS
10
169.119
20
-86.028
11
167.624
21
-86.028
0
LINE
8
BLACK
6
CONTINUOUS
10
167.624
20
-86.028
11
167.624
21
-82.628
0
LINE
8
BLACK
6
CONTINUOUS
10
167.624
20
-82.628
11
169.119
21
-82.628
0
LINE
8
BLACK
6
CONTINUOUS
10
169.119
20
-82.628
11
169.119
21
-86.028
0
LINE
8
BLACK
6
CONTINUOUS
10
163.084
20
-86.028
11
161.589
21
-86.028
0
LINE
8
BLACK
6
CONTINUOUS
10
161.589
20
-86.028
11
161.589
21
-82.628
0
LINE
8
BLACK
6
CONTINUOUS
10
161.589
20
-82.628
11
163.084
21
-82.628
0
LINE
8
BLACK
6
CONTINUOUS
10
163.084
20
-82.628
11
163.084
21
-86.028
0
LINE
8
BLACK
6
CONTINUOUS
10
178.388
20
-84.964
11
175.688
21
-84.964
0
LINE
8
BLACK
6
CONTINUOUS
10
175.688
20
-84.964
11
175.688
21
-81.464
0
LINE
8
BLACK
6
CONTINUOUS
10
175.688
20
-81.464
11
178.388
21
-81.464
0
LINE
8
BLACK
6
CONTINUOUS
10
178.388
20
-81.464
11
178.388
21
-84.964
0
LINE
8
BLACK
6
CONTINUOUS
10
173.62
20
-83.508
11
171.82
21
-83.508
0
LINE
8
BLACK
6
CONTINUOUS
10
171.82
20
-83.508
11
171.82
21
-82.113
0
LINE
8
BLACK
6
CONTINUOUS
10
171.82
20
-82.113
11
173.62
21
-82.113
0
LINE
8
BLACK
6
CONTINUOUS
10
173.62
20
-82.113
11
173.62
21
-83.508
0
LINE
8
BLACK
6
CONTINUOUS
10
170.826
20
-72.827
11
169.026
21
-72.827
0
LINE
8
BLACK
6
CONTINUOUS
10
169.026
20
-72.827
11
169.026
21
-71.432
0
LINE
8
BLACK
6
CONTINUOUS
10
169.026
20
-71.432
11
170.826
21
-71.432
0
LINE
8
BLACK
6
CONTINUOUS
10
170.826
20
-71.432
11
170.826
21
-72.827
0
LINE
8
BLACK
6
CONTINUOUS
10
170.826
20
-69.792
11
169.026
21
-69.792
0
LINE
8
BLACK
6
CONTINUOUS
10
169.026
20
-69.792
11
169.026
21
-68.397
0
LINE
8
BLACK
6
CONTINUOUS
10
169.026
20
-68.397
11
170.826
21
-68.397
0
LINE
8
BLACK
6
CONTINUOUS
10
170.826
20
-68.397
11
170.826
21
-69.792
0
LINE
8
BLACK
6
CONTINUOUS
10
179.025
20
-69.772
11
177.53
21
-69.772
0
LINE
8
BLACK
6
CONTINUOUS
10
177.53
20
-69.772
11
177.53
21
-66.372
0
LINE
8
BLACK
6
CONTINUOUS
10
177.53
20
-66.372
11
179.025
21
-66.372
0
LINE
8
BLACK
6
CONTINUOUS
10
179.025
20
-66.372
11
179.025
21
-69.772
0
LINE
8
BLACK
6
CONTINUOUS
10
172.99
20
-69.772
11
171.495
21
-69.772
0
LINE
8
BLACK
6
CONTINUOUS
10
171.495
20
-69.772
11
171.495
21
-66.372
0
LINE
8
BLACK
6
CONTINUOUS
10
171.495
20
-66.372
11
172.99
21
-66.372
0
LINE
8
BLACK
6
CONTINUOUS
10
172.99
20
-66.372
11
172.99
21
-69.772
0
LINE
8
BLACK
6
CONTINUOUS
10
187.132
20
-69.534
11
185.837
21
-69.534
0
LINE
8
BLACK
6
CONTINUOUS
10
185.837
20
-69.534
11
185.837
21
-68.134
0
LINE
8
BLACK
6
CONTINUOUS
10
185.837
20
-68.134
11
187.132
21
-68.134
0
LINE
8
BLACK
6
CONTINUOUS
10
187.132
20
-68.134
11
187.132
21
-69.534
0
LINE
8
BLACK
6
CONTINUOUS
10
189.067
20
-69.534
11
187.772
21
-69.534
0
LINE
8
BLACK
6
CONTINUOUS
10
187.772
20
-69.534
11
187.772
21
-68.134
0
LINE
8
BLACK
6
CONTINUOUS
10
187.772
20
-68.134
11
189.067
21
-68.134
0
LINE
8
BLACK
6
CONTINUOUS
10
189.067
20
-68.134
11
189.067
21
-69.534
0
LINE
8
BLACK
6
CONTINUOUS
10
103.316
20
-67.401
11
101.916
21
-67.401
0
LINE
8
BLACK
6
CONTINUOUS
10
101.916
20
-67.401
11
101.916
21
-66.106
0
LINE
8
BLACK
6
CONTINUOUS
10
101.916
20
-66.106
11
103.316
21
-66.106
0
LINE
8
BLACK
6
CONTINUOUS
10
103.316
20
-66.106
11
103.316
21
-67.401
0
LINE
8
BLACK
6
CONTINUOUS
10
189.067
20
-66.232
11
187.772
21
-66.232
0
LINE
8
BLACK
6
CONTINUOUS
10
187.772
20
-66.232
11
187.772
21
-64.832
0
LINE
8
BLACK
6
CONTINUOUS
10
187.772
20
-64.832
11
189.067
21
-64.832
0
LINE
8
BLACK
6
CONTINUOUS
10
189.067
20
-64.832
11
189.067
21
-66.232
0
LINE
8
BLACK
6
CONTINUOUS
10
187.132
20
-66.232
11
185.837
21
-66.232
0
LINE
8
BLACK
6
CONTINUOUS
10
185.837
20
-66.232
11
185.837
21
-64.832
0
LINE
8
BLACK
6
CONTINUOUS
10
185.837
20
-64.832
11
187.132
21
-64.832
0
LINE
8
BLACK
6
CONTINUOUS
10
187.132
20
-64.832
11
187.132
21
-66.232
0
LINE
8
BLACK
6
CONTINUOUS
10
103.316
20
-65.466
11
101.916
21
-65.466
0
LINE
8
BLACK
6
CONTINUOUS
10
101.916
20
-65.466
11
101.916
21
-64.171
0
LINE
8
BLACK
6
CONTINUOUS
10
101.916
20
-64.171
11
103.316
21
-64.171
0
LINE
8
BLACK
6
CONTINUOUS
10
103.316
20
-64.171
11
103.316
21
-65.466
0
LINE
8
BLACK
6
CONTINUOUS
10
103.316
20
-63.083
11
101.916
21
-63.083
0
LINE
8
BLACK
6
CONTINUOUS
10
101.916
20
-63.083
11
101.916
21
-61.788
0
LINE
8
BLACK
6
CONTINUOUS
10
101.916
20
-61.788
11
103.316
21
-61.788
0
LINE
8
BLACK
6
CONTINUOUS
10
103.316
20
-61.788
11
103.316
21
-63.083
0
LINE
8
BLACK
6
CONTINUOUS
10
103.316
20
-61.148
11
101.916
21
-61.148
0
LINE
8
BLACK
6
CONTINUOUS
10
101.916
20
-61.148
11
101.916
21
-59.853
0
LINE
8
BLACK
6
CONTINUOUS
10
101.916
20
-59.853
11
103.316
21
-59.853
0
LINE
8
BLACK
6
CONTINUOUS
10
103.316
20
-59.853
11
103.316
21
-61.148
0
LINE
8
BLACK
6
CONTINUOUS
10
103.316
20
-58.765
11
101.916
21
-58.765
0
LINE
8
BLACK
6
CONTINUOUS
10
101.916
20
-58.765
11
101.916
21
-57.47
0
LINE
8
BLACK
6
CONTINUOUS
10
101.916
20
-57.47
11
103.316
21
-57.47
0
LINE
8
BLACK
6
CONTINUOUS
10
103.316
20
-57.47
11
103.316
21
-58.765
0
LINE
8
BLACK
6
CONTINUOUS
10
120.741
20
-57.088
11
119.446
21
-57.088
0
LINE
8
BLACK
6
CONTINUOUS
10
119.446
20
-57.088
11
119.446
21
-55.688
0
LINE
8
BLACK
6
CONTINUOUS
10
119.446
20
-55.688
11
120.741
21
-55.688
0
LINE
8
BLACK
6
CONTINUOUS
10
120.741
20
-55.688
11
120.741
21
-57.088
0
LINE
8
BLACK
6
CONTINUOUS
10
118.806
20
-57.088
11
117.511
21
-57.088
0
LINE
8
BLACK
6
CONTINUOUS
10
117.511
20
-57.088
11
117.511
21
-55.688
0
LINE
8
BLACK
6
CONTINUOUS
10
117.511
20
-55.688
11
118.806
21
-55.688
0
LINE
8
BLACK
6
CONTINUOUS
10
118.806
20
-55.688
11
118.806
21
-57.088
0
LINE
8
BLACK
6
CONTINUOUS
10
103.316
20
-56.83
11
101.916
21
-56.83
0
LINE
8
BLACK
6
CONTINUOUS
10
101.916
20
-56.83
11
101.916
21
-55.535
0
LINE
8
BLACK
6
CONTINUOUS
10
101.916
20
-55.535
11
103.316
21
-55.535
0
LINE
8
BLACK
6
CONTINUOUS
10
103.316
20
-55.535
11
103.316
21
-56.83
  0
ENDSEC
  0
EOF
