  0
SECTION
  2
HEADER
  9
$ANGBASE
  50
0.0
  9
$ANGDIR
  70
  1
  9
$MEASUREMENT
  70
0
  0
ENDSEC
  0
SECTION
  2
TABLES
  0
TABLE
  2
LTYPE
  70
4
  0
LTYPE
  5
40F
  2
CONTINUOUS
  70
0
  3
Solid line
  72
65
  73
0
  40
0.0
  0
LTYPE
  5
410
  2
DASHDOT
 70
0
  3
Dash Dot ____ _ ____ _
 72
65
 73
4
 40
2.0
 49
1.25
 49
-0.25
 49
0.25
 49
-0.25
  0
LTYPE
  5
411
  2
DASHED
 70
0
  3
Dashed __ __ __ __ __
 72
65
 73
2
 40
0.75
 49
0.5
 49
-0.25
  0
LTYPE
  5
43B
  2
DOTTED
 70
0
  3
Dotted .  .  .  .
 72
65
 73
2
 40
0.2
 49
0.0
 49
-0.2
  0
ENDTAB
  0
TABLE
  2
STYLE
  70
4
  0
STYLE
  2
KICAD
  70
0
  40
0
  41
1
  42
1
  50
0
  71
0
  3
isocp.shx
  0
STYLE
  2
KICADB
  70
0
  40
0
  41
1
  42
1
  50
0
  71
0
  3
isocp.shx
  0
STYLE
  2
KICADI
  70
0
  40
0
  41
1
  42
1
  50
15
  71
0
  3
isocp.shx
  0
STYLE
  2
KICADBI
  70
0
  40
0
  41
1
  42
1
  50
15
  71
0
  3
isocp.shx
  0
ENDTAB
  0
TABLE
  2
LAYER
  70
30
  0
LAYER
  2
BLACK
  70
0
  62
7
  6
CONTINUOUS
  0
LAYER
  2
GRAY1
  70
0
  62
251
  6
CONTINUOUS
  0
LAYER
  2
GRAY2
  70
0
  62
8
  6
CONTINUOUS
  0
LAYER
  2
GRAY3
  70
0
  62
9
  6
CONTINUOUS
  0
LAYER
  2
WHITE
  70
0
  62
7
  6
CONTINUOUS
  0
LAYER
  2
LYELLOW
  70
0
  62
51
  6
CONTINUOUS
  0
LAYER
  2
BLUE1
  70
0
  62
178
  6
CONTINUOUS
  0
LAYER
  2
GREEN1
  70
0
  62
98
  6
CONTINUOUS
  0
LAYER
  2
CYAN1
  70
0
  62
138
  6
CONTINUOUS
  0
LAYER
  2
RED1
  70
0
  62
18
  6
CONTINUOUS
  0
LAYER
  2
MAGENTA1
  70
0
  62
228
  6
CONTINUOUS
  0
LAYER
  2
BROWN1
  70
0
  62
58
  6
CONTINUOUS
  0
LAYER
  2
BLUE2
  70
0
  62
5
  6
CONTINUOUS
  0
LAYER
  2
GREEN2
  70
0
  62
3
  6
CONTINUOUS
  0
LAYER
  2
CYAN2
  70
0
  62
4
  6
CONTINUOUS
  0
LAYER
  2
RED2
  70
0
  62
1
  6
CONTINUOUS
  0
LAYER
  2
MAGENTA2
  70
0
  62
6
  6
CONTINUOUS
  0
LAYER
  2
BROWN2
  70
0
  62
54
  6
CONTINUOUS
  0
LAYER
  2
BLUE3
  70
0
  62
171
  6
CONTINUOUS
  0
LAYER
  2
GREEN3
  70
0
  62
91
  6
CONTINUOUS
  0
LAYER
  2
CYAN3
  70
0
  62
131
  6
CONTINUOUS
  0
LAYER
  2
RED3
  70
0
  62
11
  6
CONTINUOUS
  0
LAYER
  2
MAGENTA3
  70
0
  62
221
  6
CONTINUOUS
  0
LAYER
  2
YELLOW3
  70
0
  62
2
  6
CONTINUOUS
  0
LAYER
  2
BLUE4
  70
0
  62
5
  6
CONTINUOUS
  0
LAYER
  2
GREEN4
  70
0
  62
3
  6
CONTINUOUS
  0
LAYER
  2
CYAN4
  70
0
  62
4
  6
CONTINUOUS
  0
LAYER
  2
RED4
  70
0
  62
1
  6
CONTINUOUS
  0
LAYER
  2
MAGENTA4
  70
0
  62
6
  6
CONTINUOUS
  0
LAYER
  2
YELLOW4
  70
0
  62
2
  6
CONTINUOUS
  0
ENDTAB
  0
ENDSEC
  0
SECTION
  2
ENTITIES
0
LINE
8
BLACK
6
CONTINUOUS
10
179.768
20
-102.123
11
179.77
21
-102.123
0
LINE
8
BLACK
6
CONTINUOUS
10
179.77
20
-102.123
11
179.772
21
-102.124
0
LINE
8
BLACK
6
CONTINUOUS
10
179.772
20
-102.124
11
179.775
21
-102.124
0
LINE
8
BLACK
6
CONTINUOUS
10
179.775
20
-102.124
11
179.777
21
-102.125
0
LINE
8
BLACK
6
CONTINUOUS
10
179.777
20
-102.125
11
179.779
21
-102.126
0
LINE
8
BLACK
6
CONTINUOUS
10
179.779
20
-102.126
11
179.78
21
-102.127
0
LINE
8
BLACK
6
CONTINUOUS
10
179.78
20
-102.127
11
179.782
21
-102.129
0
LINE
8
BLACK
6
CONTINUOUS
10
179.782
20
-102.129
11
179.784
21
-102.13
0
LINE
8
BLACK
6
CONTINUOUS
10
179.784
20
-102.13
11
179.785
21
-102.132
0
LINE
8
BLACK
6
CONTINUOUS
10
179.785
20
-102.132
11
179.787
21
-102.134
0
LINE
8
BLACK
6
CONTINUOUS
10
179.787
20
-102.134
11
179.788
21
-102.135
0
LINE
8
BLACK
6
CONTINUOUS
10
179.788
20
-102.135
11
179.789
21
-102.137
0
LINE
8
BLACK
6
CONTINUOUS
10
179.789
20
-102.137
11
179.79
21
-102.139
0
LINE
8
BLACK
6
CONTINUOUS
10
179.79
20
-102.139
11
179.79
21
-102.142
0
LINE
8
BLACK
6
CONTINUOUS
10
179.79
20
-102.142
11
179.791
21
-102.144
0
LINE
8
BLACK
6
CONTINUOUS
10
179.791
20
-102.144
11
179.791
21
-102.146
0
LINE
8
BLACK
6
CONTINUOUS
10
179.791
20
-102.146
11
179.791
21
-102.146
0
LINE
8
BLACK
6
CONTINUOUS
10
179.791
20
-102.146
11
179.791
21
-130.93
0
LINE
8
BLACK
6
CONTINUOUS
10
179.791
20
-130.93
11
179.791
21
-130.93
0
LINE
8
BLACK
6
CONTINUOUS
10
179.791
20
-130.93
11
179.791
21
-130.932
0
LINE
8
BLACK
6
CONTINUOUS
10
179.791
20
-130.932
11
179.79
21
-130.934
0
LINE
8
BLACK
6
CONTINUOUS
10
179.79
20
-130.934
11
179.79
21
-130.937
0
LINE
8
BLACK
6
CONTINUOUS
10
179.79
20
-130.937
11
179.789
21
-130.939
0
LINE
8
BLACK
6
CONTINUOUS
10
179.789
20
-130.939
11
179.788
21
-130.941
0
LINE
8
BLACK
6
CONTINUOUS
10
179.788
20
-130.941
11
179.787
21
-130.942
0
LINE
8
BLACK
6
CONTINUOUS
10
179.787
20
-130.942
11
179.785
21
-130.944
0
LINE
8
BLACK
6
CONTINUOUS
10
179.785
20
-130.944
11
179.784
21
-130.946
0
LINE
8
BLACK
6
CONTINUOUS
10
179.784
20
-130.946
11
179.782
21
-130.947
0
LINE
8
BLACK
6
CONTINUOUS
10
179.782
20
-130.947
11
179.78
21
-130.949
0
LINE
8
BLACK
6
CONTINUOUS
10
179.78
20
-130.949
11
179.779
21
-130.95
0
LINE
8
BLACK
6
CONTINUOUS
10
179.779
20
-130.95
11
179.777
21
-130.951
0
LINE
8
BLACK
6
CONTINUOUS
10
179.777
20
-130.951
11
179.775
21
-130.952
0
LINE
8
BLACK
6
CONTINUOUS
10
179.775
20
-130.952
11
179.772
21
-130.952
0
LINE
8
BLACK
6
CONTINUOUS
10
179.772
20
-130.952
11
179.77
21
-130.953
0
LINE
8
BLACK
6
CONTINUOUS
10
179.77
20
-130.953
11
179.768
21
-130.953
0
LINE
8
BLACK
6
CONTINUOUS
10
179.768
20
-130.953
11
179.768
21
-130.953
0
LINE
8
BLACK
6
CONTINUOUS
10
179.768
20
-130.953
11
163.364
21
-130.953
0
LINE
8
BLACK
6
CONTINUOUS
10
163.364
20
-130.953
11
163.364
21
-130.953
0
LINE
8
BLACK
6
CONTINUOUS
10
163.364
20
-130.953
11
163.362
21
-130.953
0
LINE
8
BLACK
6
CONTINUOUS
10
163.362
20
-130.953
11
163.36
21
-130.952
0
LINE
8
BLACK
6
CONTINUOUS
10
163.36
20
-130.952
11
163.357
21
-130.952
0
LINE
8
BLACK
6
CONTINUOUS
10
163.357
20
-130.952
11
163.355
21
-130.951
0
LINE
8
BLACK
6
CONTINUOUS
10
163.355
20
-130.951
11
163.353
21
-130.95
0
LINE
8
BLACK
6
CONTINUOUS
10
163.353
20
-130.95
11
163.352
21
-130.949
0
LINE
8
BLACK
6
CONTINUOUS
10
163.352
20
-130.949
11
163.35
21
-130.947
0
LINE
8
BLACK
6
CONTINUOUS
10
163.35
20
-130.947
11
163.348
21
-130.946
0
LINE
8
BLACK
6
CONTINUOUS
10
163.348
20
-130.946
11
163.347
21
-130.944
0
LINE
8
BLACK
6
CONTINUOUS
10
163.347
20
-130.944
11
163.345
21
-130.942
0
LINE
8
BLACK
6
CONTINUOUS
10
163.345
20
-130.942
11
163.344
21
-130.941
0
LINE
8
BLACK
6
CONTINUOUS
10
163.344
20
-130.941
11
163.343
21
-130.939
0
LINE
8
BLACK
6
CONTINUOUS
10
163.343
20
-130.939
11
163.342
21
-130.937
0
LINE
8
BLACK
6
CONTINUOUS
10
163.342
20
-130.937
11
163.342
21
-130.934
0
LINE
8
BLACK
6
CONTINUOUS
10
163.342
20
-130.934
11
163.341
21
-130.932
0
LINE
8
BLACK
6
CONTINUOUS
10
163.341
20
-130.932
11
163.341
21
-130.93
0
LINE
8
BLACK
6
CONTINUOUS
10
163.341
20
-130.93
11
163.341
21
-130.93
0
LINE
8
BLACK
6
CONTINUOUS
10
163.341
20
-130.93
11
163.341
21
-102.146
0
LINE
8
BLACK
6
CONTINUOUS
10
163.341
20
-102.146
11
163.341
21
-102.144
0
LINE
8
BLACK
6
CONTINUOUS
10
163.341
20
-102.144
11
163.342
21
-102.141
0
LINE
8
BLACK
6
CONTINUOUS
10
163.342
20
-102.141
11
163.342
21
-102.139
0
LINE
8
BLACK
6
CONTINUOUS
10
163.342
20
-102.139
11
163.343
21
-102.137
0
LINE
8
BLACK
6
CONTINUOUS
10
163.343
20
-102.137
11
163.344
21
-102.135
0
LINE
8
BLACK
6
CONTINUOUS
10
163.344
20
-102.135
11
163.345
21
-102.134
0
LINE
8
BLACK
6
CONTINUOUS
10
163.345
20
-102.134
11
163.347
21
-102.132
0
LINE
8
BLACK
6
CONTINUOUS
10
163.347
20
-102.132
11
163.348
21
-102.13
0
LINE
8
BLACK
6
CONTINUOUS
10
163.348
20
-102.13
11
163.35
21
-102.129
0
LINE
8
BLACK
6
CONTINUOUS
10
163.35
20
-102.129
11
163.352
21
-102.127
0
LINE
8
BLACK
6
CONTINUOUS
10
163.352
20
-102.127
11
163.353
21
-102.126
0
LINE
8
BLACK
6
CONTINUOUS
10
163.353
20
-102.126
11
163.355
21
-102.125
0
LINE
8
BLACK
6
CONTINUOUS
10
163.355
20
-102.125
11
163.357
21
-102.124
0
LINE
8
BLACK
6
CONTINUOUS
10
163.357
20
-102.124
11
163.36
21
-102.124
0
LINE
8
BLACK
6
CONTINUOUS
10
163.36
20
-102.124
11
163.362
21
-102.123
0
LINE
8
BLACK
6
CONTINUOUS
10
163.362
20
-102.123
11
163.364
21
-102.123
0
LINE
8
BLACK
6
CONTINUOUS
10
163.364
20
-102.123
11
163.364
21
-102.123
0
LINE
8
BLACK
6
CONTINUOUS
10
163.364
20
-102.123
11
179.768
21
-102.123
0
LINE
8
BLACK
6
CONTINUOUS
10
179.768
20
-102.123
11
179.768
21
-102.123
0
LINE
8
BLACK
6
CONTINUOUS
10
163.391
20
-102.173
11
163.391
21
-130.903
0
LINE
8
BLACK
6
CONTINUOUS
10
163.391
20
-130.903
11
179.741
21
-130.903
0
LINE
8
BLACK
6
CONTINUOUS
10
179.741
20
-130.903
11
179.741
21
-102.173
0
LINE
8
BLACK
6
CONTINUOUS
10
179.741
20
-102.173
11
163.391
21
-102.173
0
LINE
8
BLACK
6
CONTINUOUS
10
157.67
20
-123.337
11
157.672
21
-123.337
0
LINE
8
BLACK
6
CONTINUOUS
10
157.672
20
-123.337
11
157.674
21
-123.338
0
LINE
8
BLACK
6
CONTINUOUS
10
157.674
20
-123.338
11
157.677
21
-123.338
0
LINE
8
BLACK
6
CONTINUOUS
10
157.677
20
-123.338
11
157.679
21
-123.339
0
LINE
8
BLACK
6
CONTINUOUS
10
157.679
20
-123.339
11
157.681
21
-123.34
0
LINE
8
BLACK
6
CONTINUOUS
10
157.681
20
-123.34
11
157.682
21
-123.341
0
LINE
8
BLACK
6
CONTINUOUS
10
157.682
20
-123.341
11
157.684
21
-123.343
0
LINE
8
BLACK
6
CONTINUOUS
10
157.684
20
-123.343
11
157.686
21
-123.344
0
LINE
8
BLACK
6
CONTINUOUS
10
157.686
20
-123.344
11
157.687
21
-123.346
0
LINE
8
BLACK
6
CONTINUOUS
10
157.687
20
-123.346
11
157.689
21
-123.348
0
LINE
8
BLACK
6
CONTINUOUS
10
157.689
20
-123.348
11
157.69
21
-123.349
0
LINE
8
BLACK
6
CONTINUOUS
10
157.69
20
-123.349
11
157.691
21
-123.351
0
LINE
8
BLACK
6
CONTINUOUS
10
157.691
20
-123.351
11
157.692
21
-123.353
0
LINE
8
BLACK
6
CONTINUOUS
10
157.692
20
-123.353
11
157.692
21
-123.356
0
LINE
8
BLACK
6
CONTINUOUS
10
157.692
20
-123.356
11
157.693
21
-123.358
0
LINE
8
BLACK
6
CONTINUOUS
10
157.693
20
-123.358
11
157.693
21
-123.36
0
LINE
8
BLACK
6
CONTINUOUS
10
157.693
20
-123.36
11
157.693
21
-123.36
0
LINE
8
BLACK
6
CONTINUOUS
10
157.693
20
-123.36
11
157.693
21
-127.084
0
LINE
8
BLACK
6
CONTINUOUS
10
157.693
20
-127.084
11
157.693
21
-127.084
0
LINE
8
BLACK
6
CONTINUOUS
10
157.693
20
-127.084
11
157.693
21
-127.086
0
LINE
8
BLACK
6
CONTINUOUS
10
157.693
20
-127.086
11
157.692
21
-127.088
0
LINE
8
BLACK
6
CONTINUOUS
10
157.692
20
-127.088
11
157.692
21
-127.091
0
LINE
8
BLACK
6
CONTINUOUS
10
157.692
20
-127.091
11
157.691
21
-127.093
0
LINE
8
BLACK
6
CONTINUOUS
10
157.691
20
-127.093
11
157.69
21
-127.095
0
LINE
8
BLACK
6
CONTINUOUS
10
157.69
20
-127.095
11
157.689
21
-127.096
0
LINE
8
BLACK
6
CONTINUOUS
10
157.689
20
-127.096
11
157.687
21
-127.098
0
LINE
8
BLACK
6
CONTINUOUS
10
157.687
20
-127.098
11
157.686
21
-127.1
0
LINE
8
BLACK
6
CONTINUOUS
10
157.686
20
-127.1
11
157.684
21
-127.101
0
LINE
8
BLACK
6
CONTINUOUS
10
157.684
20
-127.101
11
157.682
21
-127.103
0
LINE
8
BLACK
6
CONTINUOUS
10
157.682
20
-127.103
11
157.681
21
-127.104
0
LINE
8
BLACK
6
CONTINUOUS
10
157.681
20
-127.104
11
157.679
21
-127.105
0
LINE
8
BLACK
6
CONTINUOUS
10
157.679
20
-127.105
11
157.677
21
-127.106
0
LINE
8
BLACK
6
CONTINUOUS
10
157.677
20
-127.106
11
157.674
21
-127.106
0
LINE
8
BLACK
6
CONTINUOUS
10
157.674
20
-127.106
11
157.672
21
-127.107
0
LINE
8
BLACK
6
CONTINUOUS
10
157.672
20
-127.107
11
157.67
21
-127.107
0
LINE
8
BLACK
6
CONTINUOUS
10
157.67
20
-127.107
11
157.67
21
-127.107
0
LINE
8
BLACK
6
CONTINUOUS
10
157.67
20
-127.107
11
155.766
21
-127.107
0
LINE
8
BLACK
6
CONTINUOUS
10
155.766
20
-127.107
11
155.766
21
-127.107
0
LINE
8
BLACK
6
CONTINUOUS
10
155.766
20
-127.107
11
155.764
21
-127.107
0
LINE
8
BLACK
6
CONTINUOUS
10
155.764
20
-127.107
11
155.762
21
-127.106
0
LINE
8
BLACK
6
CONTINUOUS
10
155.762
20
-127.106
11
155.759
21
-127.106
0
LINE
8
BLACK
6
CONTINUOUS
10
155.759
20
-127.106
11
155.757
21
-127.105
0
LINE
8
BLACK
6
CONTINUOUS
10
155.757
20
-127.105
11
155.755
21
-127.104
0
LINE
8
BLACK
6
CONTINUOUS
10
155.755
20
-127.104
11
155.754
21
-127.103
0
LINE
8
BLACK
6
CONTINUOUS
10
155.754
20
-127.103
11
155.752
21
-127.101
0
LINE
8
BLACK
6
CONTINUOUS
10
155.752
20
-127.101
11
155.75
21
-127.1
0
LINE
8
BLACK
6
CONTINUOUS
10
155.75
20
-127.1
11
155.749
21
-127.098
0
LINE
8
BLACK
6
CONTINUOUS
10
155.749
20
-127.098
11
155.747
21
-127.096
0
LINE
8
BLACK
6
CONTINUOUS
10
155.747
20
-127.096
11
155.746
21
-127.095
0
LINE
8
BLACK
6
CONTINUOUS
10
155.746
20
-127.095
11
155.745
21
-127.093
0
LINE
8
BLACK
6
CONTINUOUS
10
155.745
20
-127.093
11
155.744
21
-127.091
0
LINE
8
BLACK
6
CONTINUOUS
10
155.744
20
-127.091
11
155.744
21
-127.088
0
LINE
8
BLACK
6
CONTINUOUS
10
155.744
20
-127.088
11
155.743
21
-127.086
0
LINE
8
BLACK
6
CONTINUOUS
10
155.743
20
-127.086
11
155.743
21
-127.078
0
LINE
8
BLACK
6
CONTINUOUS
10
155.743
20
-127.078
11
155.743
21
-123.36
0
LINE
8
BLACK
6
CONTINUOUS
10
155.743
20
-123.36
11
155.743
21
-123.36
0
LINE
8
BLACK
6
CONTINUOUS
10
155.743
20
-123.36
11
155.743
21
-123.358
0
LINE
8
BLACK
6
CONTINUOUS
10
155.743
20
-123.358
11
155.744
21
-123.356
0
LINE
8
BLACK
6
CONTINUOUS
10
155.744
20
-123.356
11
155.744
21
-123.353
0
LINE
8
BLACK
6
CONTINUOUS
10
155.744
20
-123.353
11
155.745
21
-123.351
0
LINE
8
BLACK
6
CONTINUOUS
10
155.745
20
-123.351
11
155.746
21
-123.349
0
LINE
8
BLACK
6
CONTINUOUS
10
155.746
20
-123.349
11
155.747
21
-123.348
0
LINE
8
BLACK
6
CONTINUOUS
10
155.747
20
-123.348
11
155.749
21
-123.346
0
LINE
8
BLACK
6
CONTINUOUS
10
155.749
20
-123.346
11
155.75
21
-123.344
0
LINE
8
BLACK
6
CONTINUOUS
10
155.75
20
-123.344
11
155.752
21
-123.343
0
LINE
8
BLACK
6
CONTINUOUS
10
155.752
20
-123.343
11
155.754
21
-123.341
0
LINE
8
BLACK
6
CONTINUOUS
10
155.754
20
-123.341
11
155.755
21
-123.34
0
LINE
8
BLACK
6
CONTINUOUS
10
155.755
20
-123.34
11
155.757
21
-123.339
0
LINE
8
BLACK
6
CONTINUOUS
10
155.757
20
-123.339
11
155.759
21
-123.338
0
LINE
8
BLACK
6
CONTINUOUS
10
155.759
20
-123.338
11
155.762
21
-123.338
0
LINE
8
BLACK
6
CONTINUOUS
10
155.762
20
-123.338
11
155.764
21
-123.337
0
LINE
8
BLACK
6
CONTINUOUS
10
155.764
20
-123.337
11
155.766
21
-123.337
0
LINE
8
BLACK
6
CONTINUOUS
10
155.766
20
-123.337
11
155.766
21
-123.337
0
LINE
8
BLACK
6
CONTINUOUS
10
155.766
20
-123.337
11
157.67
21
-123.337
0
LINE
8
BLACK
6
CONTINUOUS
10
157.67
20
-123.337
11
157.67
21
-123.337
0
LINE
8
BLACK
6
CONTINUOUS
10
155.793
20
-123.387
11
155.793
21
-127.057
0
LINE
8
BLACK
6
CONTINUOUS
10
155.793
20
-127.057
11
157.643
21
-127.057
0
LINE
8
BLACK
6
CONTINUOUS
10
157.643
20
-127.057
11
157.643
21
-123.387
0
LINE
8
BLACK
6
CONTINUOUS
10
157.643
20
-123.387
11
155.793
21
-123.387
0
LINE
8
BLACK
6
CONTINUOUS
10
147.61
20
-123.485
11
147.612
21
-123.485
0
LINE
8
BLACK
6
CONTINUOUS
10
147.612
20
-123.485
11
147.614
21
-123.486
0
LINE
8
BLACK
6
CONTINUOUS
10
147.614
20
-123.486
11
147.616
21
-123.486
0
LINE
8
BLACK
6
CONTINUOUS
10
147.616
20
-123.486
11
147.618
21
-123.487
0
LINE
8
BLACK
6
CONTINUOUS
10
147.618
20
-123.487
11
147.62
21
-123.488
0
LINE
8
BLACK
6
CONTINUOUS
10
147.62
20
-123.488
11
147.622
21
-123.489
0
LINE
8
BLACK
6
CONTINUOUS
10
147.622
20
-123.489
11
147.624
21
-123.491
0
LINE
8
BLACK
6
CONTINUOUS
10
147.624
20
-123.491
11
147.625
21
-123.492
0
LINE
8
BLACK
6
CONTINUOUS
10
147.625
20
-123.492
11
147.627
21
-123.494
0
LINE
8
BLACK
6
CONTINUOUS
10
147.627
20
-123.494
11
147.628
21
-123.496
0
LINE
8
BLACK
6
CONTINUOUS
10
147.628
20
-123.496
11
147.629
21
-123.497
0
LINE
8
BLACK
6
CONTINUOUS
10
147.629
20
-123.497
11
147.63
21
-123.499
0
LINE
8
BLACK
6
CONTINUOUS
10
147.63
20
-123.499
11
147.631
21
-123.501
0
LINE
8
BLACK
6
CONTINUOUS
10
147.631
20
-123.501
11
147.632
21
-123.504
0
LINE
8
BLACK
6
CONTINUOUS
10
147.632
20
-123.504
11
147.632
21
-123.506
0
LINE
8
BLACK
6
CONTINUOUS
10
147.632
20
-123.506
11
147.632
21
-123.508
0
LINE
8
BLACK
6
CONTINUOUS
10
147.632
20
-123.508
11
147.632
21
-123.508
0
LINE
8
BLACK
6
CONTINUOUS
10
147.632
20
-123.508
11
147.632
21
-125.412
0
LINE
8
BLACK
6
CONTINUOUS
10
147.632
20
-125.412
11
147.632
21
-125.412
0
LINE
8
BLACK
6
CONTINUOUS
10
147.632
20
-125.412
11
147.632
21
-125.414
0
LINE
8
BLACK
6
CONTINUOUS
10
147.632
20
-125.414
11
147.632
21
-125.416
0
LINE
8
BLACK
6
CONTINUOUS
10
147.632
20
-125.416
11
147.631
21
-125.419
0
LINE
8
BLACK
6
CONTINUOUS
10
147.631
20
-125.419
11
147.63
21
-125.421
0
LINE
8
BLACK
6
CONTINUOUS
10
147.63
20
-125.421
11
147.629
21
-125.423
0
LINE
8
BLACK
6
CONTINUOUS
10
147.629
20
-125.423
11
147.628
21
-125.424
0
LINE
8
BLACK
6
CONTINUOUS
10
147.628
20
-125.424
11
147.627
21
-125.426
0
LINE
8
BLACK
6
CONTINUOUS
10
147.627
20
-125.426
11
147.625
21
-125.428
0
LINE
8
BLACK
6
CONTINUOUS
10
147.625
20
-125.428
11
147.624
21
-125.429
0
LINE
8
BLACK
6
CONTINUOUS
10
147.624
20
-125.429
11
147.622
21
-125.431
0
LINE
8
BLACK
6
CONTINUOUS
10
147.622
20
-125.431
11
147.62
21
-125.432
0
LINE
8
BLACK
6
CONTINUOUS
10
147.62
20
-125.432
11
147.618
21
-125.433
0
LINE
8
BLACK
6
CONTINUOUS
10
147.618
20
-125.433
11
147.616
21
-125.434
0
LINE
8
BLACK
6
CONTINUOUS
10
147.616
20
-125.434
11
147.614
21
-125.434
0
LINE
8
BLACK
6
CONTINUOUS
10
147.614
20
-125.434
11
147.612
21
-125.435
0
LINE
8
BLACK
6
CONTINUOUS
10
147.612
20
-125.435
11
147.61
21
-125.435
0
LINE
8
BLACK
6
CONTINUOUS
10
147.61
20
-125.435
11
147.61
21
-125.435
0
LINE
8
BLACK
6
CONTINUOUS
10
147.61
20
-125.435
11
143.885
21
-125.435
0
LINE
8
BLACK
6
CONTINUOUS
10
143.885
20
-125.435
11
143.885
21
-125.435
0
LINE
8
BLACK
6
CONTINUOUS
10
143.885
20
-125.435
11
143.883
21
-125.435
0
LINE
8
BLACK
6
CONTINUOUS
10
143.883
20
-125.435
11
143.881
21
-125.434
0
LINE
8
BLACK
6
CONTINUOUS
10
143.881
20
-125.434
11
143.879
21
-125.434
0
LINE
8
BLACK
6
CONTINUOUS
10
143.879
20
-125.434
11
143.877
21
-125.433
0
LINE
8
BLACK
6
CONTINUOUS
10
143.877
20
-125.433
11
143.875
21
-125.432
0
LINE
8
BLACK
6
CONTINUOUS
10
143.875
20
-125.432
11
143.873
21
-125.431
0
LINE
8
BLACK
6
CONTINUOUS
10
143.873
20
-125.431
11
143.871
21
-125.429
0
LINE
8
BLACK
6
CONTINUOUS
10
143.871
20
-125.429
11
143.87
21
-125.428
0
LINE
8
BLACK
6
CONTINUOUS
10
143.87
20
-125.428
11
143.868
21
-125.426
0
LINE
8
BLACK
6
CONTINUOUS
10
143.868
20
-125.426
11
143.867
21
-125.424
0
LINE
8
BLACK
6
CONTINUOUS
10
143.867
20
-125.424
11
143.866
21
-125.423
0
LINE
8
BLACK
6
CONTINUOUS
10
143.866
20
-125.423
11
143.865
21
-125.421
0
LINE
8
BLACK
6
CONTINUOUS
10
143.865
20
-125.421
11
143.864
21
-125.419
0
LINE
8
BLACK
6
CONTINUOUS
10
143.864
20
-125.419
11
143.863
21
-125.416
0
LINE
8
BLACK
6
CONTINUOUS
10
143.863
20
-125.416
11
143.863
21
-125.414
0
LINE
8
BLACK
6
CONTINUOUS
10
143.863
20
-125.414
11
143.863
21
-125.406
0
LINE
8
BLACK
6
CONTINUOUS
10
143.863
20
-125.406
11
143.862
21
-123.508
0
LINE
8
BLACK
6
CONTINUOUS
10
143.862
20
-123.508
11
143.863
21
-123.508
0
LINE
8
BLACK
6
CONTINUOUS
10
143.863
20
-123.508
11
143.863
21
-123.506
0
LINE
8
BLACK
6
CONTINUOUS
10
143.863
20
-123.506
11
143.863
21
-123.504
0
LINE
8
BLACK
6
CONTINUOUS
10
143.863
20
-123.504
11
143.864
21
-123.501
0
LINE
8
BLACK
6
CONTINUOUS
10
143.864
20
-123.501
11
143.865
21
-123.499
0
LINE
8
BLACK
6
CONTINUOUS
10
143.865
20
-123.499
11
143.866
21
-123.497
0
LINE
8
BLACK
6
CONTINUOUS
10
143.866
20
-123.497
11
143.867
21
-123.496
0
LINE
8
BLACK
6
CONTINUOUS
10
143.867
20
-123.496
11
143.868
21
-123.494
0
LINE
8
BLACK
6
CONTINUOUS
10
143.868
20
-123.494
11
143.87
21
-123.492
0
LINE
8
BLACK
6
CONTINUOUS
10
143.87
20
-123.492
11
143.871
21
-123.491
0
LINE
8
BLACK
6
CONTINUOUS
10
143.871
20
-123.491
11
143.873
21
-123.489
0
LINE
8
BLACK
6
CONTINUOUS
10
143.873
20
-123.489
11
143.875
21
-123.488
0
LINE
8
BLACK
6
CONTINUOUS
10
143.875
20
-123.488
11
143.877
21
-123.487
0
LINE
8
BLACK
6
CONTINUOUS
10
143.877
20
-123.487
11
143.879
21
-123.486
0
LINE
8
BLACK
6
CONTINUOUS
10
143.879
20
-123.486
11
143.881
21
-123.486
0
LINE
8
BLACK
6
CONTINUOUS
10
143.881
20
-123.486
11
143.883
21
-123.485
0
LINE
8
BLACK
6
CONTINUOUS
10
143.883
20
-123.485
11
143.885
21
-123.485
0
LINE
8
BLACK
6
CONTINUOUS
10
143.885
20
-123.485
11
143.885
21
-123.485
0
LINE
8
BLACK
6
CONTINUOUS
10
143.885
20
-123.485
11
147.61
21
-123.485
0
LINE
8
BLACK
6
CONTINUOUS
10
147.61
20
-123.485
11
147.61
21
-123.485
0
LINE
8
BLACK
6
CONTINUOUS
10
143.912
20
-123.535
11
143.912
21
-125.385
0
LINE
8
BLACK
6
CONTINUOUS
10
143.912
20
-125.385
11
147.582
21
-125.385
0
LINE
8
BLACK
6
CONTINUOUS
10
147.582
20
-125.385
11
147.583
21
-123.535
0
LINE
8
BLACK
6
CONTINUOUS
10
147.583
20
-123.535
11
143.912
21
-123.535
0
LINE
8
BLACK
6
CONTINUOUS
10
147.61
20
-120.945
11
147.612
21
-120.945
0
LINE
8
BLACK
6
CONTINUOUS
10
147.612
20
-120.945
11
147.614
21
-120.946
0
LINE
8
BLACK
6
CONTINUOUS
10
147.614
20
-120.946
11
147.616
21
-120.946
0
LINE
8
BLACK
6
CONTINUOUS
10
147.616
20
-120.946
11
147.618
21
-120.947
0
LINE
8
BLACK
6
CONTINUOUS
10
147.618
20
-120.947
11
147.62
21
-120.948
0
LINE
8
BLACK
6
CONTINUOUS
10
147.62
20
-120.948
11
147.622
21
-120.949
0
LINE
8
BLACK
6
CONTINUOUS
10
147.622
20
-120.949
11
147.624
21
-120.951
0
LINE
8
BLACK
6
CONTINUOUS
10
147.624
20
-120.951
11
147.625
21
-120.952
0
LINE
8
BLACK
6
CONTINUOUS
10
147.625
20
-120.952
11
147.627
21
-120.954
0
LINE
8
BLACK
6
CONTINUOUS
10
147.627
20
-120.954
11
147.628
21
-120.956
0
LINE
8
BLACK
6
CONTINUOUS
10
147.628
20
-120.956
11
147.629
21
-120.957
0
LINE
8
BLACK
6
CONTINUOUS
10
147.629
20
-120.957
11
147.63
21
-120.959
0
LINE
8
BLACK
6
CONTINUOUS
10
147.63
20
-120.959
11
147.631
21
-120.961
0
LINE
8
BLACK
6
CONTINUOUS
10
147.631
20
-120.961
11
147.632
21
-120.964
0
LINE
8
BLACK
6
CONTINUOUS
10
147.632
20
-120.964
11
147.632
21
-120.966
0
LINE
8
BLACK
6
CONTINUOUS
10
147.632
20
-120.966
11
147.632
21
-120.968
0
LINE
8
BLACK
6
CONTINUOUS
10
147.632
20
-120.968
11
147.632
21
-120.968
0
LINE
8
BLACK
6
CONTINUOUS
10
147.632
20
-120.968
11
147.632
21
-122.872
0
LINE
8
BLACK
6
CONTINUOUS
10
147.632
20
-122.872
11
147.632
21
-122.872
0
LINE
8
BLACK
6
CONTINUOUS
10
147.632
20
-122.872
11
147.632
21
-122.874
0
LINE
8
BLACK
6
CONTINUOUS
10
147.632
20
-122.874
11
147.632
21
-122.876
0
LINE
8
BLACK
6
CONTINUOUS
10
147.632
20
-122.876
11
147.631
21
-122.879
0
LINE
8
BLACK
6
CONTINUOUS
10
147.631
20
-122.879
11
147.63
21
-122.881
0
LINE
8
BLACK
6
CONTINUOUS
10
147.63
20
-122.881
11
147.629
21
-122.883
0
LINE
8
BLACK
6
CONTINUOUS
10
147.629
20
-122.883
11
147.628
21
-122.884
0
LINE
8
BLACK
6
CONTINUOUS
10
147.628
20
-122.884
11
147.627
21
-122.886
0
LINE
8
BLACK
6
CONTINUOUS
10
147.627
20
-122.886
11
147.625
21
-122.888
0
LINE
8
BLACK
6
CONTINUOUS
10
147.625
20
-122.888
11
147.624
21
-122.889
0
LINE
8
BLACK
6
CONTINUOUS
10
147.624
20
-122.889
11
147.622
21
-122.891
0
LINE
8
BLACK
6
CONTINUOUS
10
147.622
20
-122.891
11
147.62
21
-122.892
0
LINE
8
BLACK
6
CONTINUOUS
10
147.62
20
-122.892
11
147.618
21
-122.893
0
LINE
8
BLACK
6
CONTINUOUS
10
147.618
20
-122.893
11
147.616
21
-122.894
0
LINE
8
BLACK
6
CONTINUOUS
10
147.616
20
-122.894
11
147.614
21
-122.894
0
LINE
8
BLACK
6
CONTINUOUS
10
147.614
20
-122.894
11
147.612
21
-122.895
0
LINE
8
BLACK
6
CONTINUOUS
10
147.612
20
-122.895
11
147.61
21
-122.895
0
LINE
8
BLACK
6
CONTINUOUS
10
147.61
20
-122.895
11
147.61
21
-122.895
0
LINE
8
BLACK
6
CONTINUOUS
10
147.61
20
-122.895
11
143.885
21
-122.895
0
LINE
8
BLACK
6
CONTINUOUS
10
143.885
20
-122.895
11
143.885
21
-122.895
0
LINE
8
BLACK
6
CONTINUOUS
10
143.885
20
-122.895
11
143.883
21
-122.895
0
LINE
8
BLACK
6
CONTINUOUS
10
143.883
20
-122.895
11
143.881
21
-122.894
0
LINE
8
BLACK
6
CONTINUOUS
10
143.881
20
-122.894
11
143.879
21
-122.894
0
LINE
8
BLACK
6
CONTINUOUS
10
143.879
20
-122.894
11
143.877
21
-122.893
0
LINE
8
BLACK
6
CONTINUOUS
10
143.877
20
-122.893
11
143.875
21
-122.892
0
LINE
8
BLACK
6
CONTINUOUS
10
143.875
20
-122.892
11
143.873
21
-122.891
0
LINE
8
BLACK
6
CONTINUOUS
10
143.873
20
-122.891
11
143.871
21
-122.889
0
LINE
8
BLACK
6
CONTINUOUS
10
143.871
20
-122.889
11
143.87
21
-122.888
0
LINE
8
BLACK
6
CONTINUOUS
10
143.87
20
-122.888
11
143.868
21
-122.886
0
LINE
8
BLACK
6
CONTINUOUS
10
143.868
20
-122.886
11
143.867
21
-122.884
0
LINE
8
BLACK
6
CONTINUOUS
10
143.867
20
-122.884
11
143.866
21
-122.883
0
LINE
8
BLACK
6
CONTINUOUS
10
143.866
20
-122.883
11
143.865
21
-122.881
0
LINE
8
BLACK
6
CONTINUOUS
10
143.865
20
-122.881
11
143.864
21
-122.879
0
LINE
8
BLACK
6
CONTINUOUS
10
143.864
20
-122.879
11
143.863
21
-122.876
0
LINE
8
BLACK
6
CONTINUOUS
10
143.863
20
-122.876
11
143.863
21
-122.874
0
LINE
8
BLACK
6
CONTINUOUS
10
143.863
20
-122.874
11
143.863
21
-122.866
0
LINE
8
BLACK
6
CONTINUOUS
10
143.863
20
-122.866
11
143.862
21
-120.968
0
LINE
8
BLACK
6
CONTINUOUS
10
143.862
20
-120.968
11
143.863
21
-120.968
0
LINE
8
BLACK
6
CONTINUOUS
10
143.863
20
-120.968
11
143.863
21
-120.966
0
LINE
8
BLACK
6
CONTINUOUS
10
143.863
20
-120.966
11
143.863
21
-120.964
0
LINE
8
BLACK
6
CONTINUOUS
10
143.863
20
-120.964
11
143.864
21
-120.961
0
LINE
8
BLACK
6
CONTINUOUS
10
143.864
20
-120.961
11
143.865
21
-120.959
0
LINE
8
BLACK
6
CONTINUOUS
10
143.865
20
-120.959
11
143.866
21
-120.957
0
LINE
8
BLACK
6
CONTINUOUS
10
143.866
20
-120.957
11
143.867
21
-120.956
0
LINE
8
BLACK
6
CONTINUOUS
10
143.867
20
-120.956
11
143.868
21
-120.954
0
LINE
8
BLACK
6
CONTINUOUS
10
143.868
20
-120.954
11
143.87
21
-120.952
0
LINE
8
BLACK
6
CONTINUOUS
10
143.87
20
-120.952
11
143.871
21
-120.951
0
LINE
8
BLACK
6
CONTINUOUS
10
143.871
20
-120.951
11
143.873
21
-120.949
0
LINE
8
BLACK
6
CONTINUOUS
10
143.873
20
-120.949
11
143.875
21
-120.948
0
LINE
8
BLACK
6
CONTINUOUS
10
143.875
20
-120.948
11
143.877
21
-120.947
0
LINE
8
BLACK
6
CONTINUOUS
10
143.877
20
-120.947
11
143.879
21
-120.946
0
LINE
8
BLACK
6
CONTINUOUS
10
143.879
20
-120.946
11
143.881
21
-120.946
0
LINE
8
BLACK
6
CONTINUOUS
10
143.881
20
-120.946
11
143.883
21
-120.945
0
LINE
8
BLACK
6
CONTINUOUS
10
143.883
20
-120.945
11
143.885
21
-120.945
0
LINE
8
BLACK
6
CONTINUOUS
10
143.885
20
-120.945
11
143.885
21
-120.945
0
LINE
8
BLACK
6
CONTINUOUS
10
143.885
20
-120.945
11
147.61
21
-120.945
0
LINE
8
BLACK
6
CONTINUOUS
10
147.61
20
-120.945
11
147.61
21
-120.945
0
LINE
8
BLACK
6
CONTINUOUS
10
143.912
20
-120.995
11
143.912
21
-122.845
0
LINE
8
BLACK
6
CONTINUOUS
10
143.912
20
-122.845
11
147.582
21
-122.845
0
LINE
8
BLACK
6
CONTINUOUS
10
147.582
20
-122.845
11
147.583
21
-120.995
0
LINE
8
BLACK
6
CONTINUOUS
10
147.583
20
-120.995
11
143.912
21
-120.995
0
LINE
8
BLACK
6
CONTINUOUS
10
155.892
20
-115.766
11
155.894
21
-115.766
0
LINE
8
BLACK
6
CONTINUOUS
10
155.894
20
-115.766
11
155.896
21
-115.766
0
LINE
8
BLACK
6
CONTINUOUS
10
155.896
20
-115.766
11
155.899
21
-115.767
0
LINE
8
BLACK
6
CONTINUOUS
10
155.899
20
-115.767
11
155.901
21
-115.768
0
LINE
8
BLACK
6
CONTINUOUS
10
155.901
20
-115.768
11
155.903
21
-115.769
0
LINE
8
BLACK
6
CONTINUOUS
10
155.903
20
-115.769
11
155.904
21
-115.77
0
LINE
8
BLACK
6
CONTINUOUS
10
155.904
20
-115.77
11
155.906
21
-115.771
0
LINE
8
BLACK
6
CONTINUOUS
10
155.906
20
-115.771
11
155.908
21
-115.773
0
LINE
8
BLACK
6
CONTINUOUS
10
155.908
20
-115.773
11
155.909
21
-115.774
0
LINE
8
BLACK
6
CONTINUOUS
10
155.909
20
-115.774
11
155.911
21
-115.776
0
LINE
8
BLACK
6
CONTINUOUS
10
155.911
20
-115.776
11
155.912
21
-115.778
0
LINE
8
BLACK
6
CONTINUOUS
10
155.912
20
-115.778
11
155.913
21
-115.78
0
LINE
8
BLACK
6
CONTINUOUS
10
155.913
20
-115.78
11
155.914
21
-115.782
0
LINE
8
BLACK
6
CONTINUOUS
10
155.914
20
-115.782
11
155.914
21
-115.784
0
LINE
8
BLACK
6
CONTINUOUS
10
155.914
20
-115.784
11
155.915
21
-115.786
0
LINE
8
BLACK
6
CONTINUOUS
10
155.915
20
-115.786
11
155.915
21
-115.788
0
LINE
8
BLACK
6
CONTINUOUS
10
155.915
20
-115.788
11
155.915
21
-115.788
0
LINE
8
BLACK
6
CONTINUOUS
10
155.915
20
-115.788
11
155.915
21
-119.513
0
LINE
8
BLACK
6
CONTINUOUS
10
155.915
20
-119.513
11
155.915
21
-119.513
0
LINE
8
BLACK
6
CONTINUOUS
10
155.915
20
-119.513
11
155.915
21
-119.515
0
LINE
8
BLACK
6
CONTINUOUS
10
155.915
20
-119.515
11
155.914
21
-119.517
0
LINE
8
BLACK
6
CONTINUOUS
10
155.914
20
-119.517
11
155.914
21
-119.519
0
LINE
8
BLACK
6
CONTINUOUS
10
155.914
20
-119.519
11
155.913
21
-119.521
0
LINE
8
BLACK
6
CONTINUOUS
10
155.913
20
-119.521
11
155.912
21
-119.523
0
LINE
8
BLACK
6
CONTINUOUS
10
155.912
20
-119.523
11
155.911
21
-119.525
0
LINE
8
BLACK
6
CONTINUOUS
10
155.911
20
-119.525
11
155.909
21
-119.527
0
LINE
8
BLACK
6
CONTINUOUS
10
155.909
20
-119.527
11
155.908
21
-119.528
0
LINE
8
BLACK
6
CONTINUOUS
10
155.908
20
-119.528
11
155.906
21
-119.53
0
LINE
8
BLACK
6
CONTINUOUS
10
155.906
20
-119.53
11
155.904
21
-119.531
0
LINE
8
BLACK
6
CONTINUOUS
10
155.904
20
-119.531
11
155.903
21
-119.532
0
LINE
8
BLACK
6
CONTINUOUS
10
155.903
20
-119.532
11
155.901
21
-119.533
0
LINE
8
BLACK
6
CONTINUOUS
10
155.901
20
-119.533
11
155.899
21
-119.534
0
LINE
8
BLACK
6
CONTINUOUS
10
155.899
20
-119.534
11
155.896
21
-119.535
0
LINE
8
BLACK
6
CONTINUOUS
10
155.896
20
-119.535
11
155.894
21
-119.535
0
LINE
8
BLACK
6
CONTINUOUS
10
155.894
20
-119.535
11
155.892
21
-119.535
0
LINE
8
BLACK
6
CONTINUOUS
10
155.892
20
-119.535
11
155.892
21
-119.535
0
LINE
8
BLACK
6
CONTINUOUS
10
155.892
20
-119.535
11
153.988
21
-119.535
0
LINE
8
BLACK
6
CONTINUOUS
10
153.988
20
-119.535
11
153.988
21
-119.535
0
LINE
8
BLACK
6
CONTINUOUS
10
153.988
20
-119.535
11
153.986
21
-119.535
0
LINE
8
BLACK
6
CONTINUOUS
10
153.986
20
-119.535
11
153.984
21
-119.535
0
LINE
8
BLACK
6
CONTINUOUS
10
153.984
20
-119.535
11
153.981
21
-119.534
0
LINE
8
BLACK
6
CONTINUOUS
10
153.981
20
-119.534
11
153.979
21
-119.533
0
LINE
8
BLACK
6
CONTINUOUS
10
153.979
20
-119.533
11
153.977
21
-119.532
0
LINE
8
BLACK
6
CONTINUOUS
10
153.977
20
-119.532
11
153.976
21
-119.531
0
LINE
8
BLACK
6
CONTINUOUS
10
153.976
20
-119.531
11
153.974
21
-119.53
0
LINE
8
BLACK
6
CONTINUOUS
10
153.974
20
-119.53
11
153.972
21
-119.528
0
LINE
8
BLACK
6
CONTINUOUS
10
153.972
20
-119.528
11
153.971
21
-119.527
0
LINE
8
BLACK
6
CONTINUOUS
10
153.971
20
-119.527
11
153.969
21
-119.525
0
LINE
8
BLACK
6
CONTINUOUS
10
153.969
20
-119.525
11
153.968
21
-119.523
0
LINE
8
BLACK
6
CONTINUOUS
10
153.968
20
-119.523
11
153.967
21
-119.521
0
LINE
8
BLACK
6
CONTINUOUS
10
153.967
20
-119.521
11
153.966
21
-119.519
0
LINE
8
BLACK
6
CONTINUOUS
10
153.966
20
-119.519
11
153.966
21
-119.517
0
LINE
8
BLACK
6
CONTINUOUS
10
153.966
20
-119.517
11
153.965
21
-119.515
0
LINE
8
BLACK
6
CONTINUOUS
10
153.965
20
-119.515
11
153.965
21
-119.506
0
LINE
8
BLACK
6
CONTINUOUS
10
153.965
20
-119.506
11
153.965
21
-115.788
0
LINE
8
BLACK
6
CONTINUOUS
10
153.965
20
-115.788
11
153.965
21
-115.788
0
LINE
8
BLACK
6
CONTINUOUS
10
153.965
20
-115.788
11
153.965
21
-115.786
0
LINE
8
BLACK
6
CONTINUOUS
10
153.965
20
-115.786
11
153.966
21
-115.784
0
LINE
8
BLACK
6
CONTINUOUS
10
153.966
20
-115.784
11
153.966
21
-115.782
0
LINE
8
BLACK
6
CONTINUOUS
10
153.966
20
-115.782
11
153.967
21
-115.78
0
LINE
8
BLACK
6
CONTINUOUS
10
153.967
20
-115.78
11
153.968
21
-115.778
0
LINE
8
BLACK
6
CONTINUOUS
10
153.968
20
-115.778
11
153.969
21
-115.776
0
LINE
8
BLACK
6
CONTINUOUS
10
153.969
20
-115.776
11
153.971
21
-115.774
0
LINE
8
BLACK
6
CONTINUOUS
10
153.971
20
-115.774
11
153.972
21
-115.773
0
LINE
8
BLACK
6
CONTINUOUS
10
153.972
20
-115.773
11
153.974
21
-115.771
0
LINE
8
BLACK
6
CONTINUOUS
10
153.974
20
-115.771
11
153.976
21
-115.77
0
LINE
8
BLACK
6
CONTINUOUS
10
153.976
20
-115.77
11
153.977
21
-115.769
0
LINE
8
BLACK
6
CONTINUOUS
10
153.977
20
-115.769
11
153.979
21
-115.768
0
LINE
8
BLACK
6
CONTINUOUS
10
153.979
20
-115.768
11
153.981
21
-115.767
0
LINE
8
BLACK
6
CONTINUOUS
10
153.981
20
-115.767
11
153.984
21
-115.766
0
LINE
8
BLACK
6
CONTINUOUS
10
153.984
20
-115.766
11
153.986
21
-115.766
0
LINE
8
BLACK
6
CONTINUOUS
10
153.986
20
-115.766
11
153.988
21
-115.766
0
LINE
8
BLACK
6
CONTINUOUS
10
153.988
20
-115.766
11
153.988
21
-115.765
0
LINE
8
BLACK
6
CONTINUOUS
10
153.988
20
-115.765
11
155.892
21
-115.765
0
LINE
8
BLACK
6
CONTINUOUS
10
155.892
20
-115.765
11
155.892
21
-115.766
0
LINE
8
BLACK
6
CONTINUOUS
10
154.015
20
-115.816
11
154.015
21
-119.485
0
LINE
8
BLACK
6
CONTINUOUS
10
154.015
20
-119.485
11
155.865
21
-119.485
0
LINE
8
BLACK
6
CONTINUOUS
10
155.865
20
-119.485
11
155.865
21
-115.816
0
LINE
8
BLACK
6
CONTINUOUS
10
155.865
20
-115.816
11
154.015
21
-115.816
0
LINE
8
BLACK
6
CONTINUOUS
10
158.178
20
-115.766
11
158.18
21
-115.766
0
LINE
8
BLACK
6
CONTINUOUS
10
158.18
20
-115.766
11
158.182
21
-115.766
0
LINE
8
BLACK
6
CONTINUOUS
10
158.182
20
-115.766
11
158.185
21
-115.767
0
LINE
8
BLACK
6
CONTINUOUS
10
158.185
20
-115.767
11
158.187
21
-115.768
0
LINE
8
BLACK
6
CONTINUOUS
10
158.187
20
-115.768
11
158.189
21
-115.769
0
LINE
8
BLACK
6
CONTINUOUS
10
158.189
20
-115.769
11
158.19
21
-115.77
0
LINE
8
BLACK
6
CONTINUOUS
10
158.19
20
-115.77
11
158.192
21
-115.771
0
LINE
8
BLACK
6
CONTINUOUS
10
158.192
20
-115.771
11
158.194
21
-115.773
0
LINE
8
BLACK
6
CONTINUOUS
10
158.194
20
-115.773
11
158.195
21
-115.774
0
LINE
8
BLACK
6
CONTINUOUS
10
158.195
20
-115.774
11
158.197
21
-115.776
0
LINE
8
BLACK
6
CONTINUOUS
10
158.197
20
-115.776
11
158.198
21
-115.778
0
LINE
8
BLACK
6
CONTINUOUS
10
158.198
20
-115.778
11
158.199
21
-115.78
0
LINE
8
BLACK
6
CONTINUOUS
10
158.199
20
-115.78
11
158.2
21
-115.782
0
LINE
8
BLACK
6
CONTINUOUS
10
158.2
20
-115.782
11
158.2
21
-115.784
0
LINE
8
BLACK
6
CONTINUOUS
10
158.2
20
-115.784
11
158.201
21
-115.786
0
LINE
8
BLACK
6
CONTINUOUS
10
158.201
20
-115.786
11
158.201
21
-115.788
0
LINE
8
BLACK
6
CONTINUOUS
10
158.201
20
-115.788
11
158.201
21
-115.788
0
LINE
8
BLACK
6
CONTINUOUS
10
158.201
20
-115.788
11
158.201
21
-119.513
0
LINE
8
BLACK
6
CONTINUOUS
10
158.201
20
-119.513
11
158.201
21
-119.513
0
LINE
8
BLACK
6
CONTINUOUS
10
158.201
20
-119.513
11
158.201
21
-119.515
0
LINE
8
BLACK
6
CONTINUOUS
10
158.201
20
-119.515
11
158.2
21
-119.517
0
LINE
8
BLACK
6
CONTINUOUS
10
158.2
20
-119.517
11
158.2
21
-119.519
0
LINE
8
BLACK
6
CONTINUOUS
10
158.2
20
-119.519
11
158.199
21
-119.521
0
LINE
8
BLACK
6
CONTINUOUS
10
158.199
20
-119.521
11
158.198
21
-119.523
0
LINE
8
BLACK
6
CONTINUOUS
10
158.198
20
-119.523
11
158.197
21
-119.525
0
LINE
8
BLACK
6
CONTINUOUS
10
158.197
20
-119.525
11
158.195
21
-119.527
0
LINE
8
BLACK
6
CONTINUOUS
10
158.195
20
-119.527
11
158.194
21
-119.528
0
LINE
8
BLACK
6
CONTINUOUS
10
158.194
20
-119.528
11
158.192
21
-119.53
0
LINE
8
BLACK
6
CONTINUOUS
10
158.192
20
-119.53
11
158.19
21
-119.531
0
LINE
8
BLACK
6
CONTINUOUS
10
158.19
20
-119.531
11
158.189
21
-119.532
0
LINE
8
BLACK
6
CONTINUOUS
10
158.189
20
-119.532
11
158.187
21
-119.533
0
LINE
8
BLACK
6
CONTINUOUS
10
158.187
20
-119.533
11
158.185
21
-119.534
0
LINE
8
BLACK
6
CONTINUOUS
10
158.185
20
-119.534
11
158.182
21
-119.535
0
LINE
8
BLACK
6
CONTINUOUS
10
158.182
20
-119.535
11
158.18
21
-119.535
0
LINE
8
BLACK
6
CONTINUOUS
10
158.18
20
-119.535
11
158.178
21
-119.535
0
LINE
8
BLACK
6
CONTINUOUS
10
158.178
20
-119.535
11
158.178
21
-119.535
0
LINE
8
BLACK
6
CONTINUOUS
10
158.178
20
-119.535
11
156.274
21
-119.535
0
LINE
8
BLACK
6
CONTINUOUS
10
156.274
20
-119.535
11
156.274
21
-119.535
0
LINE
8
BLACK
6
CONTINUOUS
10
156.274
20
-119.535
11
156.272
21
-119.535
0
LINE
8
BLACK
6
CONTINUOUS
10
156.272
20
-119.535
11
156.27
21
-119.535
0
LINE
8
BLACK
6
CONTINUOUS
10
156.27
20
-119.535
11
156.267
21
-119.534
0
LINE
8
BLACK
6
CONTINUOUS
10
156.267
20
-119.534
11
156.265
21
-119.533
0
LINE
8
BLACK
6
CONTINUOUS
10
156.265
20
-119.533
11
156.263
21
-119.532
0
LINE
8
BLACK
6
CONTINUOUS
10
156.263
20
-119.532
11
156.262
21
-119.531
0
LINE
8
BLACK
6
CONTINUOUS
10
156.262
20
-119.531
11
156.26
21
-119.53
0
LINE
8
BLACK
6
CONTINUOUS
10
156.26
20
-119.53
11
156.258
21
-119.528
0
LINE
8
BLACK
6
CONTINUOUS
10
156.258
20
-119.528
11
156.257
21
-119.527
0
LINE
8
BLACK
6
CONTINUOUS
10
156.257
20
-119.527
11
156.255
21
-119.525
0
LINE
8
BLACK
6
CONTINUOUS
10
156.255
20
-119.525
11
156.254
21
-119.523
0
LINE
8
BLACK
6
CONTINUOUS
10
156.254
20
-119.523
11
156.253
21
-119.521
0
LINE
8
BLACK
6
CONTINUOUS
10
156.253
20
-119.521
11
156.252
21
-119.519
0
LINE
8
BLACK
6
CONTINUOUS
10
156.252
20
-119.519
11
156.252
21
-119.517
0
LINE
8
BLACK
6
CONTINUOUS
10
156.252
20
-119.517
11
156.251
21
-119.515
0
LINE
8
BLACK
6
CONTINUOUS
10
156.251
20
-119.515
11
156.251
21
-119.506
0
LINE
8
BLACK
6
CONTINUOUS
10
156.251
20
-119.506
11
156.251
21
-115.788
0
LINE
8
BLACK
6
CONTINUOUS
10
156.251
20
-115.788
11
156.251
21
-115.788
0
LINE
8
BLACK
6
CONTINUOUS
10
156.251
20
-115.788
11
156.251
21
-115.786
0
LINE
8
BLACK
6
CONTINUOUS
10
156.251
20
-115.786
11
156.252
21
-115.784
0
LINE
8
BLACK
6
CONTINUOUS
10
156.252
20
-115.784
11
156.252
21
-115.782
0
LINE
8
BLACK
6
CONTINUOUS
10
156.252
20
-115.782
11
156.253
21
-115.78
0
LINE
8
BLACK
6
CONTINUOUS
10
156.253
20
-115.78
11
156.254
21
-115.778
0
LINE
8
BLACK
6
CONTINUOUS
10
156.254
20
-115.778
11
156.255
21
-115.776
0
LINE
8
BLACK
6
CONTINUOUS
10
156.255
20
-115.776
11
156.257
21
-115.774
0
LINE
8
BLACK
6
CONTINUOUS
10
156.257
20
-115.774
11
156.258
21
-115.773
0
LINE
8
BLACK
6
CONTINUOUS
10
156.258
20
-115.773
11
156.26
21
-115.771
0
LINE
8
BLACK
6
CONTINUOUS
10
156.26
20
-115.771
11
156.262
21
-115.77
0
LINE
8
BLACK
6
CONTINUOUS
10
156.262
20
-115.77
11
156.263
21
-115.769
0
LINE
8
BLACK
6
CONTINUOUS
10
156.263
20
-115.769
11
156.265
21
-115.768
0
LINE
8
BLACK
6
CONTINUOUS
10
156.265
20
-115.768
11
156.267
21
-115.767
0
LINE
8
BLACK
6
CONTINUOUS
10
156.267
20
-115.767
11
156.27
21
-115.766
0
LINE
8
BLACK
6
CONTINUOUS
10
156.27
20
-115.766
11
156.272
21
-115.766
0
LINE
8
BLACK
6
CONTINUOUS
10
156.272
20
-115.766
11
156.274
21
-115.766
0
LINE
8
BLACK
6
CONTINUOUS
10
156.274
20
-115.766
11
156.274
21
-115.765
0
LINE
8
BLACK
6
CONTINUOUS
10
156.274
20
-115.765
11
158.178
21
-115.765
0
LINE
8
BLACK
6
CONTINUOUS
10
158.178
20
-115.765
11
158.178
21
-115.766
0
LINE
8
BLACK
6
CONTINUOUS
10
156.301
20
-115.816
11
156.301
21
-119.485
0
LINE
8
BLACK
6
CONTINUOUS
10
156.301
20
-119.485
11
158.151
21
-119.485
0
LINE
8
BLACK
6
CONTINUOUS
10
158.151
20
-119.485
11
158.151
21
-115.816
0
LINE
8
BLACK
6
CONTINUOUS
10
158.151
20
-115.816
11
156.301
21
-115.816
0
LINE
8
BLACK
6
CONTINUOUS
10
147.51
20
-114.145
11
147.512
21
-114.145
0
LINE
8
BLACK
6
CONTINUOUS
10
147.512
20
-114.145
11
147.514
21
-114.145
0
LINE
8
BLACK
6
CONTINUOUS
10
147.514
20
-114.145
11
147.517
21
-114.146
0
LINE
8
BLACK
6
CONTINUOUS
10
147.517
20
-114.146
11
147.519
21
-114.147
0
LINE
8
BLACK
6
CONTINUOUS
10
147.519
20
-114.147
11
147.521
21
-114.148
0
LINE
8
BLACK
6
CONTINUOUS
10
147.521
20
-114.148
11
147.522
21
-114.149
0
LINE
8
BLACK
6
CONTINUOUS
10
147.522
20
-114.149
11
147.524
21
-114.15
0
LINE
8
BLACK
6
CONTINUOUS
10
147.524
20
-114.15
11
147.526
21
-114.152
0
LINE
8
BLACK
6
CONTINUOUS
10
147.526
20
-114.152
11
147.527
21
-114.153
0
LINE
8
BLACK
6
CONTINUOUS
10
147.527
20
-114.153
11
147.529
21
-114.155
0
LINE
8
BLACK
6
CONTINUOUS
10
147.529
20
-114.155
11
147.53
21
-114.157
0
LINE
8
BLACK
6
CONTINUOUS
10
147.53
20
-114.157
11
147.531
21
-114.159
0
LINE
8
BLACK
6
CONTINUOUS
10
147.531
20
-114.159
11
147.532
21
-114.161
0
LINE
8
BLACK
6
CONTINUOUS
10
147.532
20
-114.161
11
147.532
21
-114.163
0
LINE
8
BLACK
6
CONTINUOUS
10
147.532
20
-114.163
11
147.533
21
-114.165
0
LINE
8
BLACK
6
CONTINUOUS
10
147.533
20
-114.165
11
147.533
21
-114.167
0
LINE
8
BLACK
6
CONTINUOUS
10
147.533
20
-114.167
11
147.533
21
-114.167
0
LINE
8
BLACK
6
CONTINUOUS
10
147.533
20
-114.167
11
147.533
21
-117.892
0
LINE
8
BLACK
6
CONTINUOUS
10
147.533
20
-117.892
11
147.533
21
-117.892
0
LINE
8
BLACK
6
CONTINUOUS
10
147.533
20
-117.892
11
147.533
21
-117.894
0
LINE
8
BLACK
6
CONTINUOUS
10
147.533
20
-117.894
11
147.532
21
-117.896
0
LINE
8
BLACK
6
CONTINUOUS
10
147.532
20
-117.896
11
147.532
21
-117.898
0
LINE
8
BLACK
6
CONTINUOUS
10
147.532
20
-117.898
11
147.531
21
-117.9
0
LINE
8
BLACK
6
CONTINUOUS
10
147.531
20
-117.9
11
147.53
21
-117.902
0
LINE
8
BLACK
6
CONTINUOUS
10
147.53
20
-117.902
11
147.529
21
-117.904
0
LINE
8
BLACK
6
CONTINUOUS
10
147.529
20
-117.904
11
147.527
21
-117.906
0
LINE
8
BLACK
6
CONTINUOUS
10
147.527
20
-117.906
11
147.526
21
-117.907
0
LINE
8
BLACK
6
CONTINUOUS
10
147.526
20
-117.907
11
147.524
21
-117.909
0
LINE
8
BLACK
6
CONTINUOUS
10
147.524
20
-117.909
11
147.522
21
-117.91
0
LINE
8
BLACK
6
CONTINUOUS
10
147.522
20
-117.91
11
147.521
21
-117.911
0
LINE
8
BLACK
6
CONTINUOUS
10
147.521
20
-117.911
11
147.519
21
-117.912
0
LINE
8
BLACK
6
CONTINUOUS
10
147.519
20
-117.912
11
147.517
21
-117.913
0
LINE
8
BLACK
6
CONTINUOUS
10
147.517
20
-117.913
11
147.514
21
-117.914
0
LINE
8
BLACK
6
CONTINUOUS
10
147.514
20
-117.914
11
147.512
21
-117.914
0
LINE
8
BLACK
6
CONTINUOUS
10
147.512
20
-117.914
11
147.51
21
-117.914
0
LINE
8
BLACK
6
CONTINUOUS
10
147.51
20
-117.914
11
147.51
21
-117.914
0
LINE
8
BLACK
6
CONTINUOUS
10
147.51
20
-117.914
11
145.606
21
-117.914
0
LINE
8
BLACK
6
CONTINUOUS
10
145.606
20
-117.914
11
145.606
21
-117.914
0
LINE
8
BLACK
6
CONTINUOUS
10
145.606
20
-117.914
11
145.604
21
-117.914
0
LINE
8
BLACK
6
CONTINUOUS
10
145.604
20
-117.914
11
145.602
21
-117.914
0
LINE
8
BLACK
6
CONTINUOUS
10
145.602
20
-117.914
11
145.599
21
-117.913
0
LINE
8
BLACK
6
CONTINUOUS
10
145.599
20
-117.913
11
145.597
21
-117.912
0
LINE
8
BLACK
6
CONTINUOUS
10
145.597
20
-117.912
11
145.595
21
-117.911
0
LINE
8
BLACK
6
CONTINUOUS
10
145.595
20
-117.911
11
145.594
21
-117.91
0
LINE
8
BLACK
6
CONTINUOUS
10
145.594
20
-117.91
11
145.592
21
-117.909
0
LINE
8
BLACK
6
CONTINUOUS
10
145.592
20
-117.909
11
145.59
21
-117.907
0
LINE
8
BLACK
6
CONTINUOUS
10
145.59
20
-117.907
11
145.589
21
-117.906
0
LINE
8
BLACK
6
CONTINUOUS
10
145.589
20
-117.906
11
145.587
21
-117.904
0
LINE
8
BLACK
6
CONTINUOUS
10
145.587
20
-117.904
11
145.586
21
-117.902
0
LINE
8
BLACK
6
CONTINUOUS
10
145.586
20
-117.902
11
145.585
21
-117.9
0
LINE
8
BLACK
6
CONTINUOUS
10
145.585
20
-117.9
11
145.584
21
-117.898
0
LINE
8
BLACK
6
CONTINUOUS
10
145.584
20
-117.898
11
145.584
21
-117.896
0
LINE
8
BLACK
6
CONTINUOUS
10
145.584
20
-117.896
11
145.583
21
-117.894
0
LINE
8
BLACK
6
CONTINUOUS
10
145.583
20
-117.894
11
145.583
21
-117.885
0
LINE
8
BLACK
6
CONTINUOUS
10
145.583
20
-117.885
11
145.583
21
-114.167
0
LINE
8
BLACK
6
CONTINUOUS
10
145.583
20
-114.167
11
145.583
21
-114.167
0
LINE
8
BLACK
6
CONTINUOUS
10
145.583
20
-114.167
11
145.583
21
-114.165
0
LINE
8
BLACK
6
CONTINUOUS
10
145.583
20
-114.165
11
145.584
21
-114.163
0
LINE
8
BLACK
6
CONTINUOUS
10
145.584
20
-114.163
11
145.584
21
-114.161
0
LINE
8
BLACK
6
CONTINUOUS
10
145.584
20
-114.161
11
145.585
21
-114.159
0
LINE
8
BLACK
6
CONTINUOUS
10
145.585
20
-114.159
11
145.586
21
-114.157
0
LINE
8
BLACK
6
CONTINUOUS
10
145.586
20
-114.157
11
145.587
21
-114.155
0
LINE
8
BLACK
6
CONTINUOUS
10
145.587
20
-114.155
11
145.589
21
-114.153
0
LINE
8
BLACK
6
CONTINUOUS
10
145.589
20
-114.153
11
145.59
21
-114.152
0
LINE
8
BLACK
6
CONTINUOUS
10
145.59
20
-114.152
11
145.592
21
-114.15
0
LINE
8
BLACK
6
CONTINUOUS
10
145.592
20
-114.15
11
145.594
21
-114.149
0
LINE
8
BLACK
6
CONTINUOUS
10
145.594
20
-114.149
11
145.595
21
-114.148
0
LINE
8
BLACK
6
CONTINUOUS
10
145.595
20
-114.148
11
145.597
21
-114.147
0
LINE
8
BLACK
6
CONTINUOUS
10
145.597
20
-114.147
11
145.599
21
-114.146
0
LINE
8
BLACK
6
CONTINUOUS
10
145.599
20
-114.146
11
145.602
21
-114.145
0
LINE
8
BLACK
6
CONTINUOUS
10
145.602
20
-114.145
11
145.604
21
-114.145
0
LINE
8
BLACK
6
CONTINUOUS
10
145.604
20
-114.145
11
145.606
21
-114.145
0
LINE
8
BLACK
6
CONTINUOUS
10
145.606
20
-114.145
11
145.606
21
-114.144
0
LINE
8
BLACK
6
CONTINUOUS
10
145.606
20
-114.144
11
147.51
21
-114.144
0
LINE
8
BLACK
6
CONTINUOUS
10
147.51
20
-114.144
11
147.51
21
-114.145
0
LINE
8
BLACK
6
CONTINUOUS
10
145.633
20
-114.194
11
145.633
21
-117.864
0
LINE
8
BLACK
6
CONTINUOUS
10
145.633
20
-117.864
11
147.483
21
-117.864
0
LINE
8
BLACK
6
CONTINUOUS
10
147.483
20
-117.864
11
147.483
21
-114.194
0
LINE
8
BLACK
6
CONTINUOUS
10
147.483
20
-114.194
11
145.633
21
-114.194
0
LINE
8
BLACK
6
CONTINUOUS
10
152.082
20
-114.145
11
152.084
21
-114.145
0
LINE
8
BLACK
6
CONTINUOUS
10
152.084
20
-114.145
11
152.086
21
-114.145
0
LINE
8
BLACK
6
CONTINUOUS
10
152.086
20
-114.145
11
152.089
21
-114.146
0
LINE
8
BLACK
6
CONTINUOUS
10
152.089
20
-114.146
11
152.091
21
-114.147
0
LINE
8
BLACK
6
CONTINUOUS
10
152.091
20
-114.147
11
152.093
21
-114.148
0
LINE
8
BLACK
6
CONTINUOUS
10
152.093
20
-114.148
11
152.094
21
-114.149
0
LINE
8
BLACK
6
CONTINUOUS
10
152.094
20
-114.149
11
152.096
21
-114.15
0
LINE
8
BLACK
6
CONTINUOUS
10
152.096
20
-114.15
11
152.098
21
-114.152
0
LINE
8
BLACK
6
CONTINUOUS
10
152.098
20
-114.152
11
152.099
21
-114.153
0
LINE
8
BLACK
6
CONTINUOUS
10
152.099
20
-114.153
11
152.101
21
-114.155
0
LINE
8
BLACK
6
CONTINUOUS
10
152.101
20
-114.155
11
152.102
21
-114.157
0
LINE
8
BLACK
6
CONTINUOUS
10
152.102
20
-114.157
11
152.103
21
-114.159
0
LINE
8
BLACK
6
CONTINUOUS
10
152.103
20
-114.159
11
152.104
21
-114.161
0
LINE
8
BLACK
6
CONTINUOUS
10
152.104
20
-114.161
11
152.104
21
-114.163
0
LINE
8
BLACK
6
CONTINUOUS
10
152.104
20
-114.163
11
152.105
21
-114.165
0
LINE
8
BLACK
6
CONTINUOUS
10
152.105
20
-114.165
11
152.105
21
-114.167
0
LINE
8
BLACK
6
CONTINUOUS
10
152.105
20
-114.167
11
152.105
21
-114.167
0
LINE
8
BLACK
6
CONTINUOUS
10
152.105
20
-114.167
11
152.105
21
-117.892
0
LINE
8
BLACK
6
CONTINUOUS
10
152.105
20
-117.892
11
152.105
21
-117.892
0
LINE
8
BLACK
6
CONTINUOUS
10
152.105
20
-117.892
11
152.105
21
-117.894
0
LINE
8
BLACK
6
CONTINUOUS
10
152.105
20
-117.894
11
152.104
21
-117.896
0
LINE
8
BLACK
6
CONTINUOUS
10
152.104
20
-117.896
11
152.104
21
-117.898
0
LINE
8
BLACK
6
CONTINUOUS
10
152.104
20
-117.898
11
152.103
21
-117.9
0
LINE
8
BLACK
6
CONTINUOUS
10
152.103
20
-117.9
11
152.102
21
-117.902
0
LINE
8
BLACK
6
CONTINUOUS
10
152.102
20
-117.902
11
152.101
21
-117.904
0
LINE
8
BLACK
6
CONTINUOUS
10
152.101
20
-117.904
11
152.099
21
-117.906
0
LINE
8
BLACK
6
CONTINUOUS
10
152.099
20
-117.906
11
152.098
21
-117.907
0
LINE
8
BLACK
6
CONTINUOUS
10
152.098
20
-117.907
11
152.096
21
-117.909
0
LINE
8
BLACK
6
CONTINUOUS
10
152.096
20
-117.909
11
152.094
21
-117.91
0
LINE
8
BLACK
6
CONTINUOUS
10
152.094
20
-117.91
11
152.093
21
-117.911
0
LINE
8
BLACK
6
CONTINUOUS
10
152.093
20
-117.911
11
152.091
21
-117.912
0
LINE
8
BLACK
6
CONTINUOUS
10
152.091
20
-117.912
11
152.089
21
-117.913
0
LINE
8
BLACK
6
CONTINUOUS
10
152.089
20
-117.913
11
152.086
21
-117.914
0
LINE
8
BLACK
6
CONTINUOUS
10
152.086
20
-117.914
11
152.084
21
-117.914
0
LINE
8
BLACK
6
CONTINUOUS
10
152.084
20
-117.914
11
152.082
21
-117.914
0
LINE
8
BLACK
6
CONTINUOUS
10
152.082
20
-117.914
11
152.082
21
-117.914
0
LINE
8
BLACK
6
CONTINUOUS
10
152.082
20
-117.914
11
150.178
21
-117.914
0
LINE
8
BLACK
6
CONTINUOUS
10
150.178
20
-117.914
11
150.178
21
-117.914
0
LINE
8
BLACK
6
CONTINUOUS
10
150.178
20
-117.914
11
150.176
21
-117.914
0
LINE
8
BLACK
6
CONTINUOUS
10
150.176
20
-117.914
11
150.174
21
-117.914
0
LINE
8
BLACK
6
CONTINUOUS
10
150.174
20
-117.914
11
150.171
21
-117.913
0
LINE
8
BLACK
6
CONTINUOUS
10
150.171
20
-117.913
11
150.169
21
-117.912
0
LINE
8
BLACK
6
CONTINUOUS
10
150.169
20
-117.912
11
150.167
21
-117.911
0
LINE
8
BLACK
6
CONTINUOUS
10
150.167
20
-117.911
11
150.166
21
-117.91
0
LINE
8
BLACK
6
CONTINUOUS
10
150.166
20
-117.91
11
150.164
21
-117.909
0
LINE
8
BLACK
6
CONTINUOUS
10
150.164
20
-117.909
11
150.162
21
-117.907
0
LINE
8
BLACK
6
CONTINUOUS
10
150.162
20
-117.907
11
150.161
21
-117.906
0
LINE
8
BLACK
6
CONTINUOUS
10
150.161
20
-117.906
11
150.159
21
-117.904
0
LINE
8
BLACK
6
CONTINUOUS
10
150.159
20
-117.904
11
150.158
21
-117.902
0
LINE
8
BLACK
6
CONTINUOUS
10
150.158
20
-117.902
11
150.157
21
-117.9
0
LINE
8
BLACK
6
CONTINUOUS
10
150.157
20
-117.9
11
150.156
21
-117.898
0
LINE
8
BLACK
6
CONTINUOUS
10
150.156
20
-117.898
11
150.156
21
-117.896
0
LINE
8
BLACK
6
CONTINUOUS
10
150.156
20
-117.896
11
150.155
21
-117.894
0
LINE
8
BLACK
6
CONTINUOUS
10
150.155
20
-117.894
11
150.155
21
-117.885
0
LINE
8
BLACK
6
CONTINUOUS
10
150.155
20
-117.885
11
150.155
21
-114.167
0
LINE
8
BLACK
6
CONTINUOUS
10
150.155
20
-114.167
11
150.155
21
-114.167
0
LINE
8
BLACK
6
CONTINUOUS
10
150.155
20
-114.167
11
150.155
21
-114.165
0
LINE
8
BLACK
6
CONTINUOUS
10
150.155
20
-114.165
11
150.156
21
-114.163
0
LINE
8
BLACK
6
CONTINUOUS
10
150.156
20
-114.163
11
150.156
21
-114.161
0
LINE
8
BLACK
6
CONTINUOUS
10
150.156
20
-114.161
11
150.157
21
-114.159
0
LINE
8
BLACK
6
CONTINUOUS
10
150.157
20
-114.159
11
150.158
21
-114.157
0
LINE
8
BLACK
6
CONTINUOUS
10
150.158
20
-114.157
11
150.159
21
-114.155
0
LINE
8
BLACK
6
CONTINUOUS
10
150.159
20
-114.155
11
150.161
21
-114.153
0
LINE
8
BLACK
6
CONTINUOUS
10
150.161
20
-114.153
11
150.162
21
-114.152
0
LINE
8
BLACK
6
CONTINUOUS
10
150.162
20
-114.152
11
150.164
21
-114.15
0
LINE
8
BLACK
6
CONTINUOUS
10
150.164
20
-114.15
11
150.166
21
-114.149
0
LINE
8
BLACK
6
CONTINUOUS
10
150.166
20
-114.149
11
150.167
21
-114.148
0
LINE
8
BLACK
6
CONTINUOUS
10
150.167
20
-114.148
11
150.169
21
-114.147
0
LINE
8
BLACK
6
CONTINUOUS
10
150.169
20
-114.147
11
150.171
21
-114.146
0
LINE
8
BLACK
6
CONTINUOUS
10
150.171
20
-114.146
11
150.174
21
-114.145
0
LINE
8
BLACK
6
CONTINUOUS
10
150.174
20
-114.145
11
150.176
21
-114.145
0
LINE
8
BLACK
6
CONTINUOUS
10
150.176
20
-114.145
11
150.178
21
-114.145
0
LINE
8
BLACK
6
CONTINUOUS
10
150.178
20
-114.145
11
150.178
21
-114.144
0
LINE
8
BLACK
6
CONTINUOUS
10
150.178
20
-114.144
11
152.082
21
-114.144
0
LINE
8
BLACK
6
CONTINUOUS
10
152.082
20
-114.144
11
152.082
21
-114.145
0
LINE
8
BLACK
6
CONTINUOUS
10
150.205
20
-114.194
11
150.205
21
-117.864
0
LINE
8
BLACK
6
CONTINUOUS
10
150.205
20
-117.864
11
152.055
21
-117.864
0
LINE
8
BLACK
6
CONTINUOUS
10
152.055
20
-117.864
11
152.055
21
-114.194
0
LINE
8
BLACK
6
CONTINUOUS
10
152.055
20
-114.194
11
150.205
21
-114.194
0
LINE
8
BLACK
6
CONTINUOUS
10
149.796
20
-114.145
11
149.798
21
-114.145
0
LINE
8
BLACK
6
CONTINUOUS
10
149.798
20
-114.145
11
149.8
21
-114.145
0
LINE
8
BLACK
6
CONTINUOUS
10
149.8
20
-114.145
11
149.803
21
-114.146
0
LINE
8
BLACK
6
CONTINUOUS
10
149.803
20
-114.146
11
149.805
21
-114.147
0
LINE
8
BLACK
6
CONTINUOUS
10
149.805
20
-114.147
11
149.807
21
-114.148
0
LINE
8
BLACK
6
CONTINUOUS
10
149.807
20
-114.148
11
149.808
21
-114.149
0
LINE
8
BLACK
6
CONTINUOUS
10
149.808
20
-114.149
11
149.81
21
-114.15
0
LINE
8
BLACK
6
CONTINUOUS
10
149.81
20
-114.15
11
149.812
21
-114.152
0
LINE
8
BLACK
6
CONTINUOUS
10
149.812
20
-114.152
11
149.813
21
-114.153
0
LINE
8
BLACK
6
CONTINUOUS
10
149.813
20
-114.153
11
149.815
21
-114.155
0
LINE
8
BLACK
6
CONTINUOUS
10
149.815
20
-114.155
11
149.816
21
-114.157
0
LINE
8
BLACK
6
CONTINUOUS
10
149.816
20
-114.157
11
149.817
21
-114.159
0
LINE
8
BLACK
6
CONTINUOUS
10
149.817
20
-114.159
11
149.818
21
-114.161
0
LINE
8
BLACK
6
CONTINUOUS
10
149.818
20
-114.161
11
149.818
21
-114.163
0
LINE
8
BLACK
6
CONTINUOUS
10
149.818
20
-114.163
11
149.819
21
-114.165
0
LINE
8
BLACK
6
CONTINUOUS
10
149.819
20
-114.165
11
149.819
21
-114.167
0
LINE
8
BLACK
6
CONTINUOUS
10
149.819
20
-114.167
11
149.819
21
-114.167
0
LINE
8
BLACK
6
CONTINUOUS
10
149.819
20
-114.167
11
149.819
21
-117.892
0
LINE
8
BLACK
6
CONTINUOUS
10
149.819
20
-117.892
11
149.819
21
-117.892
0
LINE
8
BLACK
6
CONTINUOUS
10
149.819
20
-117.892
11
149.819
21
-117.894
0
LINE
8
BLACK
6
CONTINUOUS
10
149.819
20
-117.894
11
149.818
21
-117.896
0
LINE
8
BLACK
6
CONTINUOUS
10
149.818
20
-117.896
11
149.818
21
-117.898
0
LINE
8
BLACK
6
CONTINUOUS
10
149.818
20
-117.898
11
149.817
21
-117.9
0
LINE
8
BLACK
6
CONTINUOUS
10
149.817
20
-117.9
11
149.816
21
-117.902
0
LINE
8
BLACK
6
CONTINUOUS
10
149.816
20
-117.902
11
149.815
21
-117.904
0
LINE
8
BLACK
6
CONTINUOUS
10
149.815
20
-117.904
11
149.813
21
-117.906
0
LINE
8
BLACK
6
CONTINUOUS
10
149.813
20
-117.906
11
149.812
21
-117.907
0
LINE
8
BLACK
6
CONTINUOUS
10
149.812
20
-117.907
11
149.81
21
-117.909
0
LINE
8
BLACK
6
CONTINUOUS
10
149.81
20
-117.909
11
149.808
21
-117.91
0
LINE
8
BLACK
6
CONTINUOUS
10
149.808
20
-117.91
11
149.807
21
-117.911
0
LINE
8
BLACK
6
CONTINUOUS
10
149.807
20
-117.911
11
149.805
21
-117.912
0
LINE
8
BLACK
6
CONTINUOUS
10
149.805
20
-117.912
11
149.803
21
-117.913
0
LINE
8
BLACK
6
CONTINUOUS
10
149.803
20
-117.913
11
149.8
21
-117.914
0
LINE
8
BLACK
6
CONTINUOUS
10
149.8
20
-117.914
11
149.798
21
-117.914
0
LINE
8
BLACK
6
CONTINUOUS
10
149.798
20
-117.914
11
149.796
21
-117.914
0
LINE
8
BLACK
6
CONTINUOUS
10
149.796
20
-117.914
11
149.796
21
-117.914
0
LINE
8
BLACK
6
CONTINUOUS
10
149.796
20
-117.914
11
147.892
21
-117.914
0
LINE
8
BLACK
6
CONTINUOUS
10
147.892
20
-117.914
11
147.892
21
-117.914
0
LINE
8
BLACK
6
CONTINUOUS
10
147.892
20
-117.914
11
147.89
21
-117.914
0
LINE
8
BLACK
6
CONTINUOUS
10
147.89
20
-117.914
11
147.888
21
-117.914
0
LINE
8
BLACK
6
CONTINUOUS
10
147.888
20
-117.914
11
147.885
21
-117.913
0
LINE
8
BLACK
6
CONTINUOUS
10
147.885
20
-117.913
11
147.883
21
-117.912
0
LINE
8
BLACK
6
CONTINUOUS
10
147.883
20
-117.912
11
147.881
21
-117.911
0
LINE
8
BLACK
6
CONTINUOUS
10
147.881
20
-117.911
11
147.88
21
-117.91
0
LINE
8
BLACK
6
CONTINUOUS
10
147.88
20
-117.91
11
147.878
21
-117.909
0
LINE
8
BLACK
6
CONTINUOUS
10
147.878
20
-117.909
11
147.876
21
-117.907
0
LINE
8
BLACK
6
CONTINUOUS
10
147.876
20
-117.907
11
147.875
21
-117.906
0
LINE
8
BLACK
6
CONTINUOUS
10
147.875
20
-117.906
11
147.873
21
-117.904
0
LINE
8
BLACK
6
CONTINUOUS
10
147.873
20
-117.904
11
147.872
21
-117.902
0
LINE
8
BLACK
6
CONTINUOUS
10
147.872
20
-117.902
11
147.871
21
-117.9
0
LINE
8
BLACK
6
CONTINUOUS
10
147.871
20
-117.9
11
147.87
21
-117.898
0
LINE
8
BLACK
6
CONTINUOUS
10
147.87
20
-117.898
11
147.87
21
-117.896
0
LINE
8
BLACK
6
CONTINUOUS
10
147.87
20
-117.896
11
147.869
21
-117.894
0
LINE
8
BLACK
6
CONTINUOUS
10
147.869
20
-117.894
11
147.869
21
-117.885
0
LINE
8
BLACK
6
CONTINUOUS
10
147.869
20
-117.885
11
147.869
21
-114.167
0
LINE
8
BLACK
6
CONTINUOUS
10
147.869
20
-114.167
11
147.869
21
-114.167
0
LINE
8
BLACK
6
CONTINUOUS
10
147.869
20
-114.167
11
147.869
21
-114.165
0
LINE
8
BLACK
6
CONTINUOUS
10
147.869
20
-114.165
11
147.87
21
-114.163
0
LINE
8
BLACK
6
CONTINUOUS
10
147.87
20
-114.163
11
147.87
21
-114.161
0
LINE
8
BLACK
6
CONTINUOUS
10
147.87
20
-114.161
11
147.871
21
-114.159
0
LINE
8
BLACK
6
CONTINUOUS
10
147.871
20
-114.159
11
147.872
21
-114.157
0
LINE
8
BLACK
6
CONTINUOUS
10
147.872
20
-114.157
11
147.873
21
-114.155
0
LINE
8
BLACK
6
CONTINUOUS
10
147.873
20
-114.155
11
147.875
21
-114.153
0
LINE
8
BLACK
6
CONTINUOUS
10
147.875
20
-114.153
11
147.876
21
-114.152
0
LINE
8
BLACK
6
CONTINUOUS
10
147.876
20
-114.152
11
147.878
21
-114.15
0
LINE
8
BLACK
6
CONTINUOUS
10
147.878
20
-114.15
11
147.88
21
-114.149
0
LINE
8
BLACK
6
CONTINUOUS
10
147.88
20
-114.149
11
147.881
21
-114.148
0
LINE
8
BLACK
6
CONTINUOUS
10
147.881
20
-114.148
11
147.883
21
-114.147
0
LINE
8
BLACK
6
CONTINUOUS
10
147.883
20
-114.147
11
147.885
21
-114.146
0
LINE
8
BLACK
6
CONTINUOUS
10
147.885
20
-114.146
11
147.888
21
-114.145
0
LINE
8
BLACK
6
CONTINUOUS
10
147.888
20
-114.145
11
147.89
21
-114.145
0
LINE
8
BLACK
6
CONTINUOUS
10
147.89
20
-114.145
11
147.892
21
-114.145
0
LINE
8
BLACK
6
CONTINUOUS
10
147.892
20
-114.145
11
147.892
21
-114.144
0
LINE
8
BLACK
6
CONTINUOUS
10
147.892
20
-114.144
11
149.796
21
-114.144
0
LINE
8
BLACK
6
CONTINUOUS
10
149.796
20
-114.144
11
149.796
21
-114.145
0
LINE
8
BLACK
6
CONTINUOUS
10
147.919
20
-114.194
11
147.919
21
-117.864
0
LINE
8
BLACK
6
CONTINUOUS
10
147.919
20
-117.864
11
149.769
21
-117.864
0
LINE
8
BLACK
6
CONTINUOUS
10
149.769
20
-117.864
11
149.769
21
-114.194
0
LINE
8
BLACK
6
CONTINUOUS
10
149.769
20
-114.194
11
147.919
21
-114.194
0
LINE
8
BLACK
6
CONTINUOUS
10
156.04
20
-113.071
11
156.042
21
-113.071
0
LINE
8
BLACK
6
CONTINUOUS
10
156.042
20
-113.071
11
156.044
21
-113.072
0
LINE
8
BLACK
6
CONTINUOUS
10
156.044
20
-113.072
11
156.047
21
-113.072
0
LINE
8
BLACK
6
CONTINUOUS
10
156.047
20
-113.072
11
156.049
21
-113.073
0
LINE
8
BLACK
6
CONTINUOUS
10
156.049
20
-113.073
11
156.051
21
-113.074
0
LINE
8
BLACK
6
CONTINUOUS
10
156.051
20
-113.074
11
156.052
21
-113.075
0
LINE
8
BLACK
6
CONTINUOUS
10
156.052
20
-113.075
11
156.054
21
-113.077
0
LINE
8
BLACK
6
CONTINUOUS
10
156.054
20
-113.077
11
156.056
21
-113.078
0
LINE
8
BLACK
6
CONTINUOUS
10
156.056
20
-113.078
11
156.057
21
-113.08
0
LINE
8
BLACK
6
CONTINUOUS
10
156.057
20
-113.08
11
156.059
21
-113.082
0
LINE
8
BLACK
6
CONTINUOUS
10
156.059
20
-113.082
11
156.06
21
-113.083
0
LINE
8
BLACK
6
CONTINUOUS
10
156.06
20
-113.083
11
156.061
21
-113.085
0
LINE
8
BLACK
6
CONTINUOUS
10
156.061
20
-113.085
11
156.062
21
-113.087
0
LINE
8
BLACK
6
CONTINUOUS
10
156.062
20
-113.087
11
156.062
21
-113.09
0
LINE
8
BLACK
6
CONTINUOUS
10
156.062
20
-113.09
11
156.063
21
-113.092
0
LINE
8
BLACK
6
CONTINUOUS
10
156.063
20
-113.092
11
156.063
21
-113.094
0
LINE
8
BLACK
6
CONTINUOUS
10
156.063
20
-113.094
11
156.063
21
-113.094
0
LINE
8
BLACK
6
CONTINUOUS
10
156.063
20
-113.094
11
156.063
21
-114.998
0
LINE
8
BLACK
6
CONTINUOUS
10
156.063
20
-114.998
11
156.063
21
-114.998
0
LINE
8
BLACK
6
CONTINUOUS
10
156.063
20
-114.998
11
156.063
21
-115
0
LINE
8
BLACK
6
CONTINUOUS
10
156.063
20
-115
11
156.062
21
-115.002
0
LINE
8
BLACK
6
CONTINUOUS
10
156.062
20
-115.002
11
156.062
21
-115.005
0
LINE
8
BLACK
6
CONTINUOUS
10
156.062
20
-115.005
11
156.061
21
-115.007
0
LINE
8
BLACK
6
CONTINUOUS
10
156.061
20
-115.007
11
156.06
21
-115.009
0
LINE
8
BLACK
6
CONTINUOUS
10
156.06
20
-115.009
11
156.059
21
-115.01
0
LINE
8
BLACK
6
CONTINUOUS
10
156.059
20
-115.01
11
156.057
21
-115.012
0
LINE
8
BLACK
6
CONTINUOUS
10
156.057
20
-115.012
11
156.056
21
-115.014
0
LINE
8
BLACK
6
CONTINUOUS
10
156.056
20
-115.014
11
156.054
21
-115.015
0
LINE
8
BLACK
6
CONTINUOUS
10
156.054
20
-115.015
11
156.052
21
-115.017
0
LINE
8
BLACK
6
CONTINUOUS
10
156.052
20
-115.017
11
156.051
21
-115.018
0
LINE
8
BLACK
6
CONTINUOUS
10
156.051
20
-115.018
11
156.049
21
-115.019
0
LINE
8
BLACK
6
CONTINUOUS
10
156.049
20
-115.019
11
156.047
21
-115.02
0
LINE
8
BLACK
6
CONTINUOUS
10
156.047
20
-115.02
11
156.044
21
-115.02
0
LINE
8
BLACK
6
CONTINUOUS
10
156.044
20
-115.02
11
156.042
21
-115.021
0
LINE
8
BLACK
6
CONTINUOUS
10
156.042
20
-115.021
11
156.04
21
-115.021
0
LINE
8
BLACK
6
CONTINUOUS
10
156.04
20
-115.021
11
156.04
21
-115.021
0
LINE
8
BLACK
6
CONTINUOUS
10
156.04
20
-115.021
11
152.316
21
-115.021
0
LINE
8
BLACK
6
CONTINUOUS
10
152.316
20
-115.021
11
152.316
21
-115.021
0
LINE
8
BLACK
6
CONTINUOUS
10
152.316
20
-115.021
11
152.314
21
-115.021
0
LINE
8
BLACK
6
CONTINUOUS
10
152.314
20
-115.021
11
152.312
21
-115.02
0
LINE
8
BLACK
6
CONTINUOUS
10
152.312
20
-115.02
11
152.309
21
-115.02
0
LINE
8
BLACK
6
CONTINUOUS
10
152.309
20
-115.02
11
152.307
21
-115.019
0
LINE
8
BLACK
6
CONTINUOUS
10
152.307
20
-115.019
11
152.305
21
-115.018
0
LINE
8
BLACK
6
CONTINUOUS
10
152.305
20
-115.018
11
152.304
21
-115.017
0
LINE
8
BLACK
6
CONTINUOUS
10
152.304
20
-115.017
11
152.302
21
-115.015
0
LINE
8
BLACK
6
CONTINUOUS
10
152.302
20
-115.015
11
152.3
21
-115.014
0
LINE
8
BLACK
6
CONTINUOUS
10
152.3
20
-115.014
11
152.299
21
-115.012
0
LINE
8
BLACK
6
CONTINUOUS
10
152.299
20
-115.012
11
152.297
21
-115.01
0
LINE
8
BLACK
6
CONTINUOUS
10
152.297
20
-115.01
11
152.296
21
-115.009
0
LINE
8
BLACK
6
CONTINUOUS
10
152.296
20
-115.009
11
152.295
21
-115.007
0
LINE
8
BLACK
6
CONTINUOUS
10
152.295
20
-115.007
11
152.294
21
-115.005
0
LINE
8
BLACK
6
CONTINUOUS
10
152.294
20
-115.005
11
152.294
21
-115.002
0
LINE
8
BLACK
6
CONTINUOUS
10
152.294
20
-115.002
11
152.293
21
-115
0
LINE
8
BLACK
6
CONTINUOUS
10
152.293
20
-115
11
152.293
21
-114.992
0
LINE
8
BLACK
6
CONTINUOUS
10
152.293
20
-114.992
11
152.293
21
-113.094
0
LINE
8
BLACK
6
CONTINUOUS
10
152.293
20
-113.094
11
152.293
21
-113.094
0
LINE
8
BLACK
6
CONTINUOUS
10
152.293
20
-113.094
11
152.293
21
-113.092
0
LINE
8
BLACK
6
CONTINUOUS
10
152.293
20
-113.092
11
152.294
21
-113.09
0
LINE
8
BLACK
6
CONTINUOUS
10
152.294
20
-113.09
11
152.294
21
-113.087
0
LINE
8
BLACK
6
CONTINUOUS
10
152.294
20
-113.087
11
152.295
21
-113.085
0
LINE
8
BLACK
6
CONTINUOUS
10
152.295
20
-113.085
11
152.296
21
-113.083
0
LINE
8
BLACK
6
CONTINUOUS
10
152.296
20
-113.083
11
152.297
21
-113.082
0
LINE
8
BLACK
6
CONTINUOUS
10
152.297
20
-113.082
11
152.299
21
-113.08
0
LINE
8
BLACK
6
CONTINUOUS
10
152.299
20
-113.08
11
152.3
21
-113.078
0
LINE
8
BLACK
6
CONTINUOUS
10
152.3
20
-113.078
11
152.302
21
-113.077
0
LINE
8
BLACK
6
CONTINUOUS
10
152.302
20
-113.077
11
152.304
21
-113.075
0
LINE
8
BLACK
6
CONTINUOUS
10
152.304
20
-113.075
11
152.305
21
-113.074
0
LINE
8
BLACK
6
CONTINUOUS
10
152.305
20
-113.074
11
152.307
21
-113.073
0
LINE
8
BLACK
6
CONTINUOUS
10
152.307
20
-113.073
11
152.309
21
-113.072
0
LINE
8
BLACK
6
CONTINUOUS
10
152.309
20
-113.072
11
152.312
21
-113.072
0
LINE
8
BLACK
6
CONTINUOUS
10
152.312
20
-113.072
11
152.314
21
-113.071
0
LINE
8
BLACK
6
CONTINUOUS
10
152.314
20
-113.071
11
152.316
21
-113.071
0
LINE
8
BLACK
6
CONTINUOUS
10
152.316
20
-113.071
11
152.316
21
-113.071
0
LINE
8
BLACK
6
CONTINUOUS
10
152.316
20
-113.071
11
156.04
21
-113.071
0
LINE
8
BLACK
6
CONTINUOUS
10
156.04
20
-113.071
11
156.04
21
-113.071
0
LINE
8
BLACK
6
CONTINUOUS
10
152.343
20
-113.121
11
152.343
21
-114.971
0
LINE
8
BLACK
6
CONTINUOUS
10
152.343
20
-114.971
11
156.013
21
-114.971
0
LINE
8
BLACK
6
CONTINUOUS
10
156.013
20
-114.971
11
156.013
21
-113.121
0
LINE
8
BLACK
6
CONTINUOUS
10
156.013
20
-113.121
11
152.343
21
-113.121
0
LINE
8
BLACK
6
CONTINUOUS
10
179.768
20
-50.149
11
179.77
21
-50.149
0
LINE
8
BLACK
6
CONTINUOUS
10
179.77
20
-50.149
11
179.772
21
-50.1498
0
LINE
8
BLACK
6
CONTINUOUS
10
179.772
20
-50.1498
11
179.775
21
-50.1501
0
LINE
8
BLACK
6
CONTINUOUS
10
179.775
20
-50.1501
11
179.777
21
-50.1513
0
LINE
8
BLACK
6
CONTINUOUS
10
179.777
20
-50.1513
11
179.779
21
-50.152
0
LINE
8
BLACK
6
CONTINUOUS
10
179.779
20
-50.152
11
179.78
21
-50.1534
0
LINE
8
BLACK
6
CONTINUOUS
10
179.78
20
-50.1534
11
179.782
21
-50.1546
0
LINE
8
BLACK
6
CONTINUOUS
10
179.782
20
-50.1546
11
179.784
21
-50.1563
0
LINE
8
BLACK
6
CONTINUOUS
10
179.784
20
-50.1563
11
179.785
21
-50.1577
0
LINE
8
BLACK
6
CONTINUOUS
10
179.785
20
-50.1577
11
179.787
21
-50.1596
0
LINE
8
BLACK
6
CONTINUOUS
10
179.787
20
-50.1596
11
179.788
21
-50.1613
0
LINE
8
BLACK
6
CONTINUOUS
10
179.788
20
-50.1613
11
179.789
21
-50.1634
0
LINE
8
BLACK
6
CONTINUOUS
10
179.789
20
-50.1634
11
179.79
21
-50.1653
0
LINE
8
BLACK
6
CONTINUOUS
10
179.79
20
-50.1653
11
179.79
21
-50.1675
0
LINE
8
BLACK
6
CONTINUOUS
10
179.79
20
-50.1675
11
179.791
21
-50.1696
0
LINE
8
BLACK
6
CONTINUOUS
10
179.791
20
-50.1696
11
179.791
21
-50.1718
0
LINE
8
BLACK
6
CONTINUOUS
10
179.791
20
-50.1718
11
179.791
21
-50.1718
0
LINE
8
BLACK
6
CONTINUOUS
10
179.791
20
-50.1718
11
179.791
21
-78.9562
0
LINE
8
BLACK
6
CONTINUOUS
10
179.791
20
-78.9562
11
179.791
21
-78.9562
0
LINE
8
BLACK
6
CONTINUOUS
10
179.791
20
-78.9562
11
179.791
21
-78.9584
0
LINE
8
BLACK
6
CONTINUOUS
10
179.791
20
-78.9584
11
179.79
21
-78.9605
0
LINE
8
BLACK
6
CONTINUOUS
10
179.79
20
-78.9605
11
179.79
21
-78.9627
0
LINE
8
BLACK
6
CONTINUOUS
10
179.79
20
-78.9627
11
179.789
21
-78.9646
0
LINE
8
BLACK
6
CONTINUOUS
10
179.789
20
-78.9646
11
179.788
21
-78.9667
0
LINE
8
BLACK
6
CONTINUOUS
10
179.788
20
-78.9667
11
179.787
21
-78.9684
0
LINE
8
BLACK
6
CONTINUOUS
10
179.787
20
-78.9684
11
179.785
21
-78.9703
0
LINE
8
BLACK
6
CONTINUOUS
10
179.785
20
-78.9703
11
179.784
21
-78.9717
0
LINE
8
BLACK
6
CONTINUOUS
10
179.784
20
-78.9717
11
179.782
21
-78.9734
0
LINE
8
BLACK
6
CONTINUOUS
10
179.782
20
-78.9734
11
179.78
21
-78.9746
0
LINE
8
BLACK
6
CONTINUOUS
10
179.78
20
-78.9746
11
179.779
21
-78.976
0
LINE
8
BLACK
6
CONTINUOUS
10
179.779
20
-78.976
11
179.777
21
-78.9767
0
LINE
8
BLACK
6
CONTINUOUS
10
179.777
20
-78.9767
11
179.775
21
-78.9779
0
LINE
8
BLACK
6
CONTINUOUS
10
179.775
20
-78.9779
11
179.772
21
-78.9782
0
LINE
8
BLACK
6
CONTINUOUS
10
179.772
20
-78.9782
11
179.77
21
-78.979
0
LINE
8
BLACK
6
CONTINUOUS
10
179.77
20
-78.979
11
179.768
21
-78.979
0
LINE
8
BLACK
6
CONTINUOUS
10
179.768
20
-78.979
11
179.768
21
-78.979
0
LINE
8
BLACK
6
CONTINUOUS
10
179.768
20
-78.979
11
163.364
21
-78.979
0
LINE
8
BLACK
6
CONTINUOUS
10
163.364
20
-78.979
11
163.364
21
-78.979
0
LINE
8
BLACK
6
CONTINUOUS
10
163.364
20
-78.979
11
163.362
21
-78.979
0
LINE
8
BLACK
6
CONTINUOUS
10
163.362
20
-78.979
11
163.36
21
-78.9782
0
LINE
8
BLACK
6
CONTINUOUS
10
163.36
20
-78.9782
11
163.357
21
-78.9779
0
LINE
8
BLACK
6
CONTINUOUS
10
163.357
20
-78.9779
11
163.355
21
-78.9767
0
LINE
8
BLACK
6
CONTINUOUS
10
163.355
20
-78.9767
11
163.353
21
-78.976
0
LINE
8
BLACK
6
CONTINUOUS
10
163.353
20
-78.976
11
163.352
21
-78.9746
0
LINE
8
BLACK
6
CONTINUOUS
10
163.352
20
-78.9746
11
163.35
21
-78.9734
0
LINE
8
BLACK
6
CONTINUOUS
10
163.35
20
-78.9734
11
163.348
21
-78.9717
0
LINE
8
BLACK
6
CONTINUOUS
10
163.348
20
-78.9717
11
163.347
21
-78.9703
0
LINE
8
BLACK
6
CONTINUOUS
10
163.347
20
-78.9703
11
163.345
21
-78.9684
0
LINE
8
BLACK
6
CONTINUOUS
10
163.345
20
-78.9684
11
163.344
21
-78.9667
0
LINE
8
BLACK
6
CONTINUOUS
10
163.344
20
-78.9667
11
163.343
21
-78.9646
0
LINE
8
BLACK
6
CONTINUOUS
10
163.343
20
-78.9646
11
163.342
21
-78.9627
0
LINE
8
BLACK
6
CONTINUOUS
10
163.342
20
-78.9627
11
163.342
21
-78.9605
0
LINE
8
BLACK
6
CONTINUOUS
10
163.342
20
-78.9605
11
163.341
21
-78.9584
0
LINE
8
BLACK
6
CONTINUOUS
10
163.341
20
-78.9584
11
163.341
21
-78.9562
0
LINE
8
BLACK
6
CONTINUOUS
10
163.341
20
-78.9562
11
163.341
21
-78.9562
0
LINE
8
BLACK
6
CONTINUOUS
10
163.341
20
-78.9562
11
163.341
21
-50.1718
0
LINE
8
BLACK
6
CONTINUOUS
10
163.341
20
-50.1718
11
163.341
21
-50.1696
0
LINE
8
BLACK
6
CONTINUOUS
10
163.341
20
-50.1696
11
163.342
21
-50.1675
0
LINE
8
BLACK
6
CONTINUOUS
10
163.342
20
-50.1675
11
163.342
21
-50.1653
0
LINE
8
BLACK
6
CONTINUOUS
10
163.342
20
-50.1653
11
163.343
21
-50.1634
0
LINE
8
BLACK
6
CONTINUOUS
10
163.343
20
-50.1634
11
163.344
21
-50.1613
0
LINE
8
BLACK
6
CONTINUOUS
10
163.344
20
-50.1613
11
163.345
21
-50.1596
0
LINE
8
BLACK
6
CONTINUOUS
10
163.345
20
-50.1596
11
163.347
21
-50.1577
0
LINE
8
BLACK
6
CONTINUOUS
10
163.347
20
-50.1577
11
163.348
21
-50.1563
0
LINE
8
BLACK
6
CONTINUOUS
10
163.348
20
-50.1563
11
163.35
21
-50.1546
0
LINE
8
BLACK
6
CONTINUOUS
10
163.35
20
-50.1546
11
163.352
21
-50.1534
0
LINE
8
BLACK
6
CONTINUOUS
10
163.352
20
-50.1534
11
163.353
21
-50.152
0
LINE
8
BLACK
6
CONTINUOUS
10
163.353
20
-50.152
11
163.355
21
-50.1513
0
LINE
8
BLACK
6
CONTINUOUS
10
163.355
20
-50.1513
11
163.357
21
-50.1501
0
LINE
8
BLACK
6
CONTINUOUS
10
163.357
20
-50.1501
11
163.36
21
-50.1498
0
LINE
8
BLACK
6
CONTINUOUS
10
163.36
20
-50.1498
11
163.362
21
-50.149
0
LINE
8
BLACK
6
CONTINUOUS
10
163.362
20
-50.149
11
163.364
21
-50.149
0
LINE
8
BLACK
6
CONTINUOUS
10
163.364
20
-50.149
11
163.364
21
-50.149
0
LINE
8
BLACK
6
CONTINUOUS
10
163.364
20
-50.149
11
179.768
21
-50.149
0
LINE
8
BLACK
6
CONTINUOUS
10
179.768
20
-50.149
11
179.768
21
-50.149
0
LINE
8
BLACK
6
CONTINUOUS
10
163.391
20
-50.199
11
163.391
21
-78.929
0
LINE
8
BLACK
6
CONTINUOUS
10
163.391
20
-78.929
11
179.741
21
-78.929
0
LINE
8
BLACK
6
CONTINUOUS
10
179.741
20
-78.929
11
179.741
21
-50.199
0
LINE
8
BLACK
6
CONTINUOUS
10
179.741
20
-50.199
11
163.391
21
-50.199
0
LINE
8
BLACK
6
CONTINUOUS
10
135.29
20
-52.953
11
135.292
21
-52.953
0
LINE
8
BLACK
6
CONTINUOUS
10
135.292
20
-52.953
11
135.294
21
-52.9538
0
LINE
8
BLACK
6
CONTINUOUS
10
135.294
20
-52.9538
11
135.297
21
-52.9542
0
LINE
8
BLACK
6
CONTINUOUS
10
135.297
20
-52.9542
11
135.299
21
-52.9553
0
LINE
8
BLACK
6
CONTINUOUS
10
135.299
20
-52.9553
11
135.301
21
-52.9561
0
LINE
8
BLACK
6
CONTINUOUS
10
135.301
20
-52.9561
11
135.302
21
-52.9575
0
LINE
8
BLACK
6
CONTINUOUS
10
135.302
20
-52.9575
11
135.304
21
-52.9586
0
LINE
8
BLACK
6
CONTINUOUS
10
135.304
20
-52.9586
11
135.306
21
-52.9603
0
LINE
8
BLACK
6
CONTINUOUS
10
135.306
20
-52.9603
11
135.307
21
-52.9617
0
LINE
8
BLACK
6
CONTINUOUS
10
135.307
20
-52.9617
11
135.309
21
-52.9636
0
LINE
8
BLACK
6
CONTINUOUS
10
135.309
20
-52.9636
11
135.31
21
-52.9653
0
LINE
8
BLACK
6
CONTINUOUS
10
135.31
20
-52.9653
11
135.311
21
-52.9674
0
LINE
8
BLACK
6
CONTINUOUS
10
135.311
20
-52.9674
11
135.312
21
-52.9694
0
LINE
8
BLACK
6
CONTINUOUS
10
135.312
20
-52.9694
11
135.312
21
-52.9715
0
LINE
8
BLACK
6
CONTINUOUS
10
135.312
20
-52.9715
11
135.313
21
-52.9736
0
LINE
8
BLACK
6
CONTINUOUS
10
135.313
20
-52.9736
11
135.313
21
-52.9759
0
LINE
8
BLACK
6
CONTINUOUS
10
135.313
20
-52.9759
11
135.313
21
-52.9759
0
LINE
8
BLACK
6
CONTINUOUS
10
135.313
20
-52.9759
11
135.313
21
-60.4402
0
LINE
8
BLACK
6
CONTINUOUS
10
135.313
20
-60.4402
11
135.313
21
-60.4402
0
LINE
8
BLACK
6
CONTINUOUS
10
135.313
20
-60.4402
11
135.313
21
-60.4424
0
LINE
8
BLACK
6
CONTINUOUS
10
135.313
20
-60.4424
11
135.312
21
-60.4445
0
LINE
8
BLACK
6
CONTINUOUS
10
135.312
20
-60.4445
11
135.312
21
-60.4467
0
LINE
8
BLACK
6
CONTINUOUS
10
135.312
20
-60.4467
11
135.311
21
-60.4486
0
LINE
8
BLACK
6
CONTINUOUS
10
135.311
20
-60.4486
11
135.31
21
-60.4507
0
LINE
8
BLACK
6
CONTINUOUS
10
135.31
20
-60.4507
11
135.309
21
-60.4524
0
LINE
8
BLACK
6
CONTINUOUS
10
135.309
20
-60.4524
11
135.307
21
-60.4544
0
LINE
8
BLACK
6
CONTINUOUS
10
135.307
20
-60.4544
11
135.306
21
-60.4558
0
LINE
8
BLACK
6
CONTINUOUS
10
135.306
20
-60.4558
11
135.304
21
-60.4575
0
LINE
8
BLACK
6
CONTINUOUS
10
135.304
20
-60.4575
11
135.302
21
-60.4586
0
LINE
8
BLACK
6
CONTINUOUS
10
135.302
20
-60.4586
11
135.301
21
-60.46
0
LINE
8
BLACK
6
CONTINUOUS
10
135.301
20
-60.46
11
135.299
21
-60.4608
0
LINE
8
BLACK
6
CONTINUOUS
10
135.299
20
-60.4608
11
135.297
21
-60.4619
0
LINE
8
BLACK
6
CONTINUOUS
10
135.297
20
-60.4619
11
135.294
21
-60.4623
0
LINE
8
BLACK
6
CONTINUOUS
10
135.294
20
-60.4623
11
135.292
21
-60.463
0
LINE
8
BLACK
6
CONTINUOUS
10
135.292
20
-60.463
11
135.29
21
-60.463
0
LINE
8
BLACK
6
CONTINUOUS
10
135.29
20
-60.463
11
135.29
21
-60.463
0
LINE
8
BLACK
6
CONTINUOUS
10
135.29
20
-60.463
11
129.886
21
-60.463
0
LINE
8
BLACK
6
CONTINUOUS
10
129.886
20
-60.463
11
129.886
21
-60.463
0
LINE
8
BLACK
6
CONTINUOUS
10
129.886
20
-60.463
11
129.884
21
-60.463
0
LINE
8
BLACK
6
CONTINUOUS
10
129.884
20
-60.463
11
129.882
21
-60.4623
0
LINE
8
BLACK
6
CONTINUOUS
10
129.882
20
-60.4623
11
129.879
21
-60.4619
0
LINE
8
BLACK
6
CONTINUOUS
10
129.879
20
-60.4619
11
129.877
21
-60.4608
0
LINE
8
BLACK
6
CONTINUOUS
10
129.877
20
-60.4608
11
129.875
21
-60.46
0
LINE
8
BLACK
6
CONTINUOUS
10
129.875
20
-60.46
11
129.874
21
-60.4586
0
LINE
8
BLACK
6
CONTINUOUS
10
129.874
20
-60.4586
11
129.872
21
-60.4575
0
LINE
8
BLACK
6
CONTINUOUS
10
129.872
20
-60.4575
11
129.87
21
-60.4558
0
LINE
8
BLACK
6
CONTINUOUS
10
129.87
20
-60.4558
11
129.869
21
-60.4544
0
LINE
8
BLACK
6
CONTINUOUS
10
129.869
20
-60.4544
11
129.867
21
-60.4524
0
LINE
8
BLACK
6
CONTINUOUS
10
129.867
20
-60.4524
11
129.866
21
-60.4507
0
LINE
8
BLACK
6
CONTINUOUS
10
129.866
20
-60.4507
11
129.865
21
-60.4486
0
LINE
8
BLACK
6
CONTINUOUS
10
129.865
20
-60.4486
11
129.864
21
-60.4467
0
LINE
8
BLACK
6
CONTINUOUS
10
129.864
20
-60.4467
11
129.864
21
-60.4445
0
LINE
8
BLACK
6
CONTINUOUS
10
129.864
20
-60.4445
11
129.863
21
-60.4424
0
LINE
8
BLACK
6
CONTINUOUS
10
129.863
20
-60.4424
11
129.863
21
-60.4336
0
LINE
8
BLACK
6
CONTINUOUS
10
129.863
20
-60.4336
11
129.863
21
-52.9759
0
LINE
8
BLACK
6
CONTINUOUS
10
129.863
20
-52.9759
11
129.863
21
-52.9759
0
LINE
8
BLACK
6
CONTINUOUS
10
129.863
20
-52.9759
11
129.863
21
-52.9736
0
LINE
8
BLACK
6
CONTINUOUS
10
129.863
20
-52.9736
11
129.864
21
-52.9715
0
LINE
8
BLACK
6
CONTINUOUS
10
129.864
20
-52.9715
11
129.864
21
-52.9694
0
LINE
8
BLACK
6
CONTINUOUS
10
129.864
20
-52.9694
11
129.865
21
-52.9674
0
LINE
8
BLACK
6
CONTINUOUS
10
129.865
20
-52.9674
11
129.866
21
-52.9653
0
LINE
8
BLACK
6
CONTINUOUS
10
129.866
20
-52.9653
11
129.867
21
-52.9636
0
LINE
8
BLACK
6
CONTINUOUS
10
129.867
20
-52.9636
11
129.869
21
-52.9617
0
LINE
8
BLACK
6
CONTINUOUS
10
129.869
20
-52.9617
11
129.87
21
-52.9603
0
LINE
8
BLACK
6
CONTINUOUS
10
129.87
20
-52.9603
11
129.872
21
-52.9586
0
LINE
8
BLACK
6
CONTINUOUS
10
129.872
20
-52.9586
11
129.874
21
-52.9575
0
LINE
8
BLACK
6
CONTINUOUS
10
129.874
20
-52.9575
11
129.875
21
-52.9561
0
LINE
8
BLACK
6
CONTINUOUS
10
129.875
20
-52.9561
11
129.877
21
-52.9553
0
LINE
8
BLACK
6
CONTINUOUS
10
129.877
20
-52.9553
11
129.879
21
-52.9542
0
LINE
8
BLACK
6
CONTINUOUS
10
129.879
20
-52.9542
11
129.882
21
-52.9538
0
LINE
8
BLACK
6
CONTINUOUS
10
129.882
20
-52.9538
11
129.884
21
-52.953
0
LINE
8
BLACK
6
CONTINUOUS
10
129.884
20
-52.953
11
129.886
21
-52.953
0
LINE
8
BLACK
6
CONTINUOUS
10
129.886
20
-52.953
11
129.886
21
-52.953
0
LINE
8
BLACK
6
CONTINUOUS
10
129.886
20
-52.953
11
135.29
21
-52.953
0
LINE
8
BLACK
6
CONTINUOUS
10
135.29
20
-52.953
11
135.29
21
-52.953
0
LINE
8
BLACK
6
CONTINUOUS
10
129.913
20
-53.003
11
129.913
21
-60.413
0
LINE
8
BLACK
6
CONTINUOUS
10
129.913
20
-60.413
11
135.263
21
-60.413
0
LINE
8
BLACK
6
CONTINUOUS
10
135.263
20
-60.413
11
135.263
21
-53.003
0
LINE
8
BLACK
6
CONTINUOUS
10
135.263
20
-53.003
11
129.913
21
-53.003
0
LINE
8
BLACK
6
CONTINUOUS
10
137.604
20
-55.011
11
137.606
21
-55.011
0
LINE
8
BLACK
6
CONTINUOUS
10
137.606
20
-55.011
11
137.608
21
-55.0118
0
LINE
8
BLACK
6
CONTINUOUS
10
137.608
20
-55.0118
11
137.611
21
-55.0121
0
LINE
8
BLACK
6
CONTINUOUS
10
137.611
20
-55.0121
11
137.613
21
-55.0133
0
LINE
8
BLACK
6
CONTINUOUS
10
137.613
20
-55.0133
11
137.615
21
-55.014
0
LINE
8
BLACK
6
CONTINUOUS
10
137.615
20
-55.014
11
137.616
21
-55.0154
0
LINE
8
BLACK
6
CONTINUOUS
10
137.616
20
-55.0154
11
137.618
21
-55.0166
0
LINE
8
BLACK
6
CONTINUOUS
10
137.618
20
-55.0166
11
137.62
21
-55.0183
0
LINE
8
BLACK
6
CONTINUOUS
10
137.62
20
-55.0183
11
137.621
21
-55.0197
0
LINE
8
BLACK
6
CONTINUOUS
10
137.621
20
-55.0197
11
137.623
21
-55.0216
0
LINE
8
BLACK
6
CONTINUOUS
10
137.623
20
-55.0216
11
137.624
21
-55.0233
0
LINE
8
BLACK
6
CONTINUOUS
10
137.624
20
-55.0233
11
137.625
21
-55.0254
0
LINE
8
BLACK
6
CONTINUOUS
10
137.625
20
-55.0254
11
137.626
21
-55.0273
0
LINE
8
BLACK
6
CONTINUOUS
10
137.626
20
-55.0273
11
137.626
21
-55.0295
0
LINE
8
BLACK
6
CONTINUOUS
10
137.626
20
-55.0295
11
137.627
21
-55.0316
0
LINE
8
BLACK
6
CONTINUOUS
10
137.627
20
-55.0316
11
137.627
21
-55.0338
0
LINE
8
BLACK
6
CONTINUOUS
10
137.627
20
-55.0338
11
137.627
21
-55.0338
0
LINE
8
BLACK
6
CONTINUOUS
10
137.627
20
-55.0338
11
137.627
21
-58.7582
0
LINE
8
BLACK
6
CONTINUOUS
10
137.627
20
-58.7582
11
137.627
21
-58.7582
0
LINE
8
BLACK
6
CONTINUOUS
10
137.627
20
-58.7582
11
137.627
21
-58.7604
0
LINE
8
BLACK
6
CONTINUOUS
10
137.627
20
-58.7604
11
137.626
21
-58.7625
0
LINE
8
BLACK
6
CONTINUOUS
10
137.626
20
-58.7625
11
137.626
21
-58.7647
0
LINE
8
BLACK
6
CONTINUOUS
10
137.626
20
-58.7647
11
137.625
21
-58.7666
0
LINE
8
BLACK
6
CONTINUOUS
10
137.625
20
-58.7666
11
137.624
21
-58.7687
0
LINE
8
BLACK
6
CONTINUOUS
10
137.624
20
-58.7687
11
137.623
21
-58.7704
0
LINE
8
BLACK
6
CONTINUOUS
10
137.623
20
-58.7704
11
137.621
21
-58.7723
0
LINE
8
BLACK
6
CONTINUOUS
10
137.621
20
-58.7723
11
137.62
21
-58.7737
0
LINE
8
BLACK
6
CONTINUOUS
10
137.62
20
-58.7737
11
137.618
21
-58.7754
0
LINE
8
BLACK
6
CONTINUOUS
10
137.618
20
-58.7754
11
137.616
21
-58.7766
0
LINE
8
BLACK
6
CONTINUOUS
10
137.616
20
-58.7766
11
137.615
21
-58.778
0
LINE
8
BLACK
6
CONTINUOUS
10
137.615
20
-58.778
11
137.613
21
-58.7787
0
LINE
8
BLACK
6
CONTINUOUS
10
137.613
20
-58.7787
11
137.611
21
-58.7799
0
LINE
8
BLACK
6
CONTINUOUS
10
137.611
20
-58.7799
11
137.608
21
-58.7802
0
LINE
8
BLACK
6
CONTINUOUS
10
137.608
20
-58.7802
11
137.606
21
-58.781
0
LINE
8
BLACK
6
CONTINUOUS
10
137.606
20
-58.781
11
137.604
21
-58.781
0
LINE
8
BLACK
6
CONTINUOUS
10
137.604
20
-58.781
11
137.604
21
-58.781
0
LINE
8
BLACK
6
CONTINUOUS
10
137.604
20
-58.781
11
135.7
21
-58.781
0
LINE
8
BLACK
6
CONTINUOUS
10
135.7
20
-58.781
11
135.7
21
-58.781
0
LINE
8
BLACK
6
CONTINUOUS
10
135.7
20
-58.781
11
135.698
21
-58.781
0
LINE
8
BLACK
6
CONTINUOUS
10
135.698
20
-58.781
11
135.696
21
-58.7802
0
LINE
8
BLACK
6
CONTINUOUS
10
135.696
20
-58.7802
11
135.693
21
-58.7799
0
LINE
8
BLACK
6
CONTINUOUS
10
135.693
20
-58.7799
11
135.691
21
-58.7787
0
LINE
8
BLACK
6
CONTINUOUS
10
135.691
20
-58.7787
11
135.689
21
-58.778
0
LINE
8
BLACK
6
CONTINUOUS
10
135.689
20
-58.778
11
135.688
21
-58.7766
0
LINE
8
BLACK
6
CONTINUOUS
10
135.688
20
-58.7766
11
135.686
21
-58.7754
0
LINE
8
BLACK
6
CONTINUOUS
10
135.686
20
-58.7754
11
135.684
21
-58.7737
0
LINE
8
BLACK
6
CONTINUOUS
10
135.684
20
-58.7737
11
135.683
21
-58.7723
0
LINE
8
BLACK
6
CONTINUOUS
10
135.683
20
-58.7723
11
135.681
21
-58.7704
0
LINE
8
BLACK
6
CONTINUOUS
10
135.681
20
-58.7704
11
135.68
21
-58.7687
0
LINE
8
BLACK
6
CONTINUOUS
10
135.68
20
-58.7687
11
135.679
21
-58.7666
0
LINE
8
BLACK
6
CONTINUOUS
10
135.679
20
-58.7666
11
135.678
21
-58.7647
0
LINE
8
BLACK
6
CONTINUOUS
10
135.678
20
-58.7647
11
135.678
21
-58.7625
0
LINE
8
BLACK
6
CONTINUOUS
10
135.678
20
-58.7625
11
135.677
21
-58.7604
0
LINE
8
BLACK
6
CONTINUOUS
10
135.677
20
-58.7604
11
135.677
21
-58.7516
0
LINE
8
BLACK
6
CONTINUOUS
10
135.677
20
-58.7516
11
135.677
21
-55.0338
0
LINE
8
BLACK
6
CONTINUOUS
10
135.677
20
-55.0338
11
135.677
21
-55.0338
0
LINE
8
BLACK
6
CONTINUOUS
10
135.677
20
-55.0338
11
135.677
21
-55.0316
0
LINE
8
BLACK
6
CONTINUOUS
10
135.677
20
-55.0316
11
135.678
21
-55.0295
0
LINE
8
BLACK
6
CONTINUOUS
10
135.678
20
-55.0295
11
135.678
21
-55.0273
0
LINE
8
BLACK
6
CONTINUOUS
10
135.678
20
-55.0273
11
135.679
21
-55.0254
0
LINE
8
BLACK
6
CONTINUOUS
10
135.679
20
-55.0254
11
135.68
21
-55.0233
0
LINE
8
BLACK
6
CONTINUOUS
10
135.68
20
-55.0233
11
135.681
21
-55.0216
0
LINE
8
BLACK
6
CONTINUOUS
10
135.681
20
-55.0216
11
135.683
21
-55.0197
0
LINE
8
BLACK
6
CONTINUOUS
10
135.683
20
-55.0197
11
135.684
21
-55.0183
0
LINE
8
BLACK
6
CONTINUOUS
10
135.684
20
-55.0183
11
135.686
21
-55.0166
0
LINE
8
BLACK
6
CONTINUOUS
10
135.686
20
-55.0166
11
135.688
21
-55.0154
0
LINE
8
BLACK
6
CONTINUOUS
10
135.688
20
-55.0154
11
135.689
21
-55.014
0
LINE
8
BLACK
6
CONTINUOUS
10
135.689
20
-55.014
11
135.691
21
-55.0133
0
LINE
8
BLACK
6
CONTINUOUS
10
135.691
20
-55.0133
11
135.693
21
-55.0121
0
LINE
8
BLACK
6
CONTINUOUS
10
135.693
20
-55.0121
11
135.696
21
-55.0118
0
LINE
8
BLACK
6
CONTINUOUS
10
135.696
20
-55.0118
11
135.698
21
-55.011
0
LINE
8
BLACK
6
CONTINUOUS
10
135.698
20
-55.011
11
135.7
21
-55.011
0
LINE
8
BLACK
6
CONTINUOUS
10
135.7
20
-55.011
11
135.7
21
-55.011
0
LINE
8
BLACK
6
CONTINUOUS
10
135.7
20
-55.011
11
137.604
21
-55.011
0
LINE
8
BLACK
6
CONTINUOUS
10
137.604
20
-55.011
11
137.604
21
-55.011
0
LINE
8
BLACK
6
CONTINUOUS
10
135.727
20
-55.061
11
135.727
21
-58.731
0
LINE
8
BLACK
6
CONTINUOUS
10
135.727
20
-58.731
11
137.577
21
-58.731
0
LINE
8
BLACK
6
CONTINUOUS
10
137.577
20
-58.731
11
137.577
21
-55.061
0
LINE
8
BLACK
6
CONTINUOUS
10
137.577
20
-55.061
11
135.727
21
-55.061
0
LINE
8
BLACK
6
CONTINUOUS
10
105.748
20
-51.603
11
105.75
21
-51.603
0
LINE
8
BLACK
6
CONTINUOUS
10
105.75
20
-51.603
11
105.752
21
-51.6038
0
LINE
8
BLACK
6
CONTINUOUS
10
105.752
20
-51.6038
11
105.755
21
-51.6041
0
LINE
8
BLACK
6
CONTINUOUS
10
105.755
20
-51.6041
11
105.757
21
-51.6053
0
LINE
8
BLACK
6
CONTINUOUS
10
105.757
20
-51.6053
11
105.759
21
-51.606
0
LINE
8
BLACK
6
CONTINUOUS
10
105.759
20
-51.606
11
105.76
21
-51.6074
0
LINE
8
BLACK
6
CONTINUOUS
10
105.76
20
-51.6074
11
105.762
21
-51.6086
0
LINE
8
BLACK
6
CONTINUOUS
10
105.762
20
-51.6086
11
105.764
21
-51.6103
0
LINE
8
BLACK
6
CONTINUOUS
10
105.764
20
-51.6103
11
105.765
21
-51.6117
0
LINE
8
BLACK
6
CONTINUOUS
10
105.765
20
-51.6117
11
105.767
21
-51.6136
0
LINE
8
BLACK
6
CONTINUOUS
10
105.767
20
-51.6136
11
105.768
21
-51.6153
0
LINE
8
BLACK
6
CONTINUOUS
10
105.768
20
-51.6153
11
105.769
21
-51.6174
0
LINE
8
BLACK
6
CONTINUOUS
10
105.769
20
-51.6174
11
105.77
21
-51.6193
0
LINE
8
BLACK
6
CONTINUOUS
10
105.77
20
-51.6193
11
105.77
21
-51.6215
0
LINE
8
BLACK
6
CONTINUOUS
10
105.77
20
-51.6215
11
105.771
21
-51.6236
0
LINE
8
BLACK
6
CONTINUOUS
10
105.771
20
-51.6236
11
105.771
21
-51.6258
0
LINE
8
BLACK
6
CONTINUOUS
10
105.771
20
-51.6258
11
105.771
21
-51.6258
0
LINE
8
BLACK
6
CONTINUOUS
10
105.771
20
-51.6258
11
105.771
21
-53.5302
0
LINE
8
BLACK
6
CONTINUOUS
10
105.771
20
-53.5302
11
105.771
21
-53.5302
0
LINE
8
BLACK
6
CONTINUOUS
10
105.771
20
-53.5302
11
105.771
21
-53.5324
0
LINE
8
BLACK
6
CONTINUOUS
10
105.771
20
-53.5324
11
105.77
21
-53.5345
0
LINE
8
BLACK
6
CONTINUOUS
10
105.77
20
-53.5345
11
105.77
21
-53.5367
0
LINE
8
BLACK
6
CONTINUOUS
10
105.77
20
-53.5367
11
105.769
21
-53.5386
0
LINE
8
BLACK
6
CONTINUOUS
10
105.769
20
-53.5386
11
105.768
21
-53.5407
0
LINE
8
BLACK
6
CONTINUOUS
10
105.768
20
-53.5407
11
105.767
21
-53.5424
0
LINE
8
BLACK
6
CONTINUOUS
10
105.767
20
-53.5424
11
105.765
21
-53.5443
0
LINE
8
BLACK
6
CONTINUOUS
10
105.765
20
-53.5443
11
105.764
21
-53.5457
0
LINE
8
BLACK
6
CONTINUOUS
10
105.764
20
-53.5457
11
105.762
21
-53.5474
0
LINE
8
BLACK
6
CONTINUOUS
10
105.762
20
-53.5474
11
105.76
21
-53.5486
0
LINE
8
BLACK
6
CONTINUOUS
10
105.76
20
-53.5486
11
105.759
21
-53.55
0
LINE
8
BLACK
6
CONTINUOUS
10
105.759
20
-53.55
11
105.757
21
-53.5507
0
LINE
8
BLACK
6
CONTINUOUS
10
105.757
20
-53.5507
11
105.755
21
-53.5519
0
LINE
8
BLACK
6
CONTINUOUS
10
105.755
20
-53.5519
11
105.752
21
-53.5522
0
LINE
8
BLACK
6
CONTINUOUS
10
105.752
20
-53.5522
11
105.75
21
-53.553
0
LINE
8
BLACK
6
CONTINUOUS
10
105.75
20
-53.553
11
105.748
21
-53.553
0
LINE
8
BLACK
6
CONTINUOUS
10
105.748
20
-53.553
11
105.748
21
-53.553
0
LINE
8
BLACK
6
CONTINUOUS
10
105.748
20
-53.553
11
102.024
21
-53.553
0
LINE
8
BLACK
6
CONTINUOUS
10
102.024
20
-53.553
11
102.024
21
-53.553
0
LINE
8
BLACK
6
CONTINUOUS
10
102.024
20
-53.553
11
102.022
21
-53.553
0
LINE
8
BLACK
6
CONTINUOUS
10
102.022
20
-53.553
11
102.02
21
-53.5522
0
LINE
8
BLACK
6
CONTINUOUS
10
102.02
20
-53.5522
11
102.017
21
-53.5519
0
LINE
8
BLACK
6
CONTINUOUS
10
102.017
20
-53.5519
11
102.015
21
-53.5507
0
LINE
8
BLACK
6
CONTINUOUS
10
102.015
20
-53.5507
11
102.013
21
-53.55
0
LINE
8
BLACK
6
CONTINUOUS
10
102.013
20
-53.55
11
102.012
21
-53.5486
0
LINE
8
BLACK
6
CONTINUOUS
10
102.012
20
-53.5486
11
102.01
21
-53.5474
0
LINE
8
BLACK
6
CONTINUOUS
10
102.01
20
-53.5474
11
102.008
21
-53.5457
0
LINE
8
BLACK
6
CONTINUOUS
10
102.008
20
-53.5457
11
102.007
21
-53.5443
0
LINE
8
BLACK
6
CONTINUOUS
10
102.007
20
-53.5443
11
102.005
21
-53.5424
0
LINE
8
BLACK
6
CONTINUOUS
10
102.005
20
-53.5424
11
102.004
21
-53.5407
0
LINE
8
BLACK
6
CONTINUOUS
10
102.004
20
-53.5407
11
102.003
21
-53.5386
0
LINE
8
BLACK
6
CONTINUOUS
10
102.003
20
-53.5386
11
102.002
21
-53.5367
0
LINE
8
BLACK
6
CONTINUOUS
10
102.002
20
-53.5367
11
102.002
21
-53.5345
0
LINE
8
BLACK
6
CONTINUOUS
10
102.002
20
-53.5345
11
102.001
21
-53.5324
0
LINE
8
BLACK
6
CONTINUOUS
10
102.001
20
-53.5324
11
102.001
21
-53.5236
0
LINE
8
BLACK
6
CONTINUOUS
10
102.001
20
-53.5236
11
102.001
21
-51.6258
0
LINE
8
BLACK
6
CONTINUOUS
10
102.001
20
-51.6258
11
102.001
21
-51.6258
0
LINE
8
BLACK
6
CONTINUOUS
10
102.001
20
-51.6258
11
102.001
21
-51.6236
0
LINE
8
BLACK
6
CONTINUOUS
10
102.001
20
-51.6236
11
102.002
21
-51.6215
0
LINE
8
BLACK
6
CONTINUOUS
10
102.002
20
-51.6215
11
102.002
21
-51.6193
0
LINE
8
BLACK
6
CONTINUOUS
10
102.002
20
-51.6193
11
102.003
21
-51.6174
0
LINE
8
BLACK
6
CONTINUOUS
10
102.003
20
-51.6174
11
102.004
21
-51.6153
0
LINE
8
BLACK
6
CONTINUOUS
10
102.004
20
-51.6153
11
102.005
21
-51.6136
0
LINE
8
BLACK
6
CONTINUOUS
10
102.005
20
-51.6136
11
102.007
21
-51.6117
0
LINE
8
BLACK
6
CONTINUOUS
10
102.007
20
-51.6117
11
102.008
21
-51.6103
0
LINE
8
BLACK
6
CONTINUOUS
10
102.008
20
-51.6103
11
102.01
21
-51.6086
0
LINE
8
BLACK
6
CONTINUOUS
10
102.01
20
-51.6086
11
102.012
21
-51.6074
0
LINE
8
BLACK
6
CONTINUOUS
10
102.012
20
-51.6074
11
102.013
21
-51.606
0
LINE
8
BLACK
6
CONTINUOUS
10
102.013
20
-51.606
11
102.015
21
-51.6053
0
LINE
8
BLACK
6
CONTINUOUS
10
102.015
20
-51.6053
11
102.017
21
-51.6041
0
LINE
8
BLACK
6
CONTINUOUS
10
102.017
20
-51.6041
11
102.02
21
-51.6038
0
LINE
8
BLACK
6
CONTINUOUS
10
102.02
20
-51.6038
11
102.022
21
-51.603
0
LINE
8
BLACK
6
CONTINUOUS
10
102.022
20
-51.603
11
102.024
21
-51.603
0
LINE
8
BLACK
6
CONTINUOUS
10
102.024
20
-51.603
11
102.024
21
-51.603
0
LINE
8
BLACK
6
CONTINUOUS
10
102.024
20
-51.603
11
105.748
21
-51.603
0
LINE
8
BLACK
6
CONTINUOUS
10
105.748
20
-51.603
11
105.748
21
-51.603
0
LINE
8
BLACK
6
CONTINUOUS
10
102.051
20
-51.653
11
102.051
21
-53.503
0
LINE
8
BLACK
6
CONTINUOUS
10
102.051
20
-53.503
11
105.721
21
-53.503
0
LINE
8
BLACK
6
CONTINUOUS
10
105.721
20
-53.503
11
105.721
21
-51.653
0
LINE
8
BLACK
6
CONTINUOUS
10
105.721
20
-51.653
11
102.051
21
-51.653
0
LINE
8
BLACK
6
CONTINUOUS
10
101.79
20
-49.423
11
101.792
21
-49.423
0
LINE
8
BLACK
6
CONTINUOUS
10
101.792
20
-49.423
11
101.794
21
-49.4238
0
LINE
8
BLACK
6
CONTINUOUS
10
101.794
20
-49.4238
11
101.797
21
-49.4241
0
LINE
8
BLACK
6
CONTINUOUS
10
101.797
20
-49.4241
11
101.799
21
-49.4253
0
LINE
8
BLACK
6
CONTINUOUS
10
101.799
20
-49.4253
11
101.801
21
-49.426
0
LINE
8
BLACK
6
CONTINUOUS
10
101.801
20
-49.426
11
101.802
21
-49.4274
0
LINE
8
BLACK
6
CONTINUOUS
10
101.802
20
-49.4274
11
101.804
21
-49.4286
0
LINE
8
BLACK
6
CONTINUOUS
10
101.804
20
-49.4286
11
101.806
21
-49.4303
0
LINE
8
BLACK
6
CONTINUOUS
10
101.806
20
-49.4303
11
101.807
21
-49.4317
0
LINE
8
BLACK
6
CONTINUOUS
10
101.807
20
-49.4317
11
101.809
21
-49.4336
0
LINE
8
BLACK
6
CONTINUOUS
10
101.809
20
-49.4336
11
101.81
21
-49.4353
0
LINE
8
BLACK
6
CONTINUOUS
10
101.81
20
-49.4353
11
101.811
21
-49.4374
0
LINE
8
BLACK
6
CONTINUOUS
10
101.811
20
-49.4374
11
101.812
21
-49.4393
0
LINE
8
BLACK
6
CONTINUOUS
10
101.812
20
-49.4393
11
101.812
21
-49.4415
0
LINE
8
BLACK
6
CONTINUOUS
10
101.812
20
-49.4415
11
101.813
21
-49.4436
0
LINE
8
BLACK
6
CONTINUOUS
10
101.813
20
-49.4436
11
101.813
21
-49.4458
0
LINE
8
BLACK
6
CONTINUOUS
10
101.813
20
-49.4458
11
101.813
21
-49.4458
0
LINE
8
BLACK
6
CONTINUOUS
10
101.813
20
-49.4458
11
101.813
21
-53.1702
0
LINE
8
BLACK
6
CONTINUOUS
10
101.813
20
-53.1702
11
101.813
21
-53.1702
0
LINE
8
BLACK
6
CONTINUOUS
10
101.813
20
-53.1702
11
101.813
21
-53.1724
0
LINE
8
BLACK
6
CONTINUOUS
10
101.813
20
-53.1724
11
101.812
21
-53.1745
0
LINE
8
BLACK
6
CONTINUOUS
10
101.812
20
-53.1745
11
101.812
21
-53.1767
0
LINE
8
BLACK
6
CONTINUOUS
10
101.812
20
-53.1767
11
101.811
21
-53.1786
0
LINE
8
BLACK
6
CONTINUOUS
10
101.811
20
-53.1786
11
101.81
21
-53.1807
0
LINE
8
BLACK
6
CONTINUOUS
10
101.81
20
-53.1807
11
101.809
21
-53.1824
0
LINE
8
BLACK
6
CONTINUOUS
10
101.809
20
-53.1824
11
101.807
21
-53.1843
0
LINE
8
BLACK
6
CONTINUOUS
10
101.807
20
-53.1843
11
101.806
21
-53.1857
0
LINE
8
BLACK
6
CONTINUOUS
10
101.806
20
-53.1857
11
101.804
21
-53.1874
0
LINE
8
BLACK
6
CONTINUOUS
10
101.804
20
-53.1874
11
101.802
21
-53.1886
0
LINE
8
BLACK
6
CONTINUOUS
10
101.802
20
-53.1886
11
101.801
21
-53.19
0
LINE
8
BLACK
6
CONTINUOUS
10
101.801
20
-53.19
11
101.799
21
-53.1907
0
LINE
8
BLACK
6
CONTINUOUS
10
101.799
20
-53.1907
11
101.797
21
-53.1919
0
LINE
8
BLACK
6
CONTINUOUS
10
101.797
20
-53.1919
11
101.794
21
-53.1922
0
LINE
8
BLACK
6
CONTINUOUS
10
101.794
20
-53.1922
11
101.792
21
-53.193
0
LINE
8
BLACK
6
CONTINUOUS
10
101.792
20
-53.193
11
101.79
21
-53.193
0
LINE
8
BLACK
6
CONTINUOUS
10
101.79
20
-53.193
11
101.79
21
-53.193
0
LINE
8
BLACK
6
CONTINUOUS
10
101.79
20
-53.193
11
99.8858
21
-53.193
0
LINE
8
BLACK
6
CONTINUOUS
10
99.8858
20
-53.193
11
99.8858
21
-53.193
0
LINE
8
BLACK
6
CONTINUOUS
10
99.8858
20
-53.193
11
99.8836
21
-53.193
0
LINE
8
BLACK
6
CONTINUOUS
10
99.8836
20
-53.193
11
99.8815
21
-53.1922
0
LINE
8
BLACK
6
CONTINUOUS
10
99.8815
20
-53.1922
11
99.8793
21
-53.1919
0
LINE
8
BLACK
6
CONTINUOUS
10
99.8793
20
-53.1919
11
99.8774
21
-53.1907
0
LINE
8
BLACK
6
CONTINUOUS
10
99.8774
20
-53.1907
11
99.8753
21
-53.19
0
LINE
8
BLACK
6
CONTINUOUS
10
99.8753
20
-53.19
11
99.8736
21
-53.1886
0
LINE
8
BLACK
6
CONTINUOUS
10
99.8736
20
-53.1886
11
99.8717
21
-53.1874
0
LINE
8
BLACK
6
CONTINUOUS
10
99.8717
20
-53.1874
11
99.8703
21
-53.1857
0
LINE
8
BLACK
6
CONTINUOUS
10
99.8703
20
-53.1857
11
99.8686
21
-53.1843
0
LINE
8
BLACK
6
CONTINUOUS
10
99.8686
20
-53.1843
11
99.8674
21
-53.1824
0
LINE
8
BLACK
6
CONTINUOUS
10
99.8674
20
-53.1824
11
99.866
21
-53.1807
0
LINE
8
BLACK
6
CONTINUOUS
10
99.866
20
-53.1807
11
99.8653
21
-53.1786
0
LINE
8
BLACK
6
CONTINUOUS
10
99.8653
20
-53.1786
11
99.8641
21
-53.1767
0
LINE
8
BLACK
6
CONTINUOUS
10
99.8641
20
-53.1767
11
99.8638
21
-53.1745
0
LINE
8
BLACK
6
CONTINUOUS
10
99.8638
20
-53.1745
11
99.863
21
-53.1724
0
LINE
8
BLACK
6
CONTINUOUS
10
99.863
20
-53.1724
11
99.863
21
-53.1636
0
LINE
8
BLACK
6
CONTINUOUS
10
99.863
20
-53.1636
11
99.863
21
-49.4458
0
LINE
8
BLACK
6
CONTINUOUS
10
99.863
20
-49.4458
11
99.863
21
-49.4458
0
LINE
8
BLACK
6
CONTINUOUS
10
99.863
20
-49.4458
11
99.863
21
-49.4436
0
LINE
8
BLACK
6
CONTINUOUS
10
99.863
20
-49.4436
11
99.8638
21
-49.4415
0
LINE
8
BLACK
6
CONTINUOUS
10
99.8638
20
-49.4415
11
99.8641
21
-49.4393
0
LINE
8
BLACK
6
CONTINUOUS
10
99.8641
20
-49.4393
11
99.8653
21
-49.4374
0
LINE
8
BLACK
6
CONTINUOUS
10
99.8653
20
-49.4374
11
99.866
21
-49.4353
0
LINE
8
BLACK
6
CONTINUOUS
10
99.866
20
-49.4353
11
99.8674
21
-49.4336
0
LINE
8
BLACK
6
CONTINUOUS
10
99.8674
20
-49.4336
11
99.8686
21
-49.4317
0
LINE
8
BLACK
6
CONTINUOUS
10
99.8686
20
-49.4317
11
99.8703
21
-49.4303
0
LINE
8
BLACK
6
CONTINUOUS
10
99.8703
20
-49.4303
11
99.8717
21
-49.4286
0
LINE
8
BLACK
6
CONTINUOUS
10
99.8717
20
-49.4286
11
99.8736
21
-49.4274
0
LINE
8
BLACK
6
CONTINUOUS
10
99.8736
20
-49.4274
11
99.8753
21
-49.426
0
LINE
8
BLACK
6
CONTINUOUS
10
99.8753
20
-49.426
11
99.8774
21
-49.4253
0
LINE
8
BLACK
6
CONTINUOUS
10
99.8774
20
-49.4253
11
99.8793
21
-49.4241
0
LINE
8
BLACK
6
CONTINUOUS
10
99.8793
20
-49.4241
11
99.8815
21
-49.4238
0
LINE
8
BLACK
6
CONTINUOUS
10
99.8815
20
-49.4238
11
99.8836
21
-49.423
0
LINE
8
BLACK
6
CONTINUOUS
10
99.8836
20
-49.423
11
99.8858
21
-49.423
0
LINE
8
BLACK
6
CONTINUOUS
10
99.8858
20
-49.423
11
99.8858
21
-49.423
0
LINE
8
BLACK
6
CONTINUOUS
10
99.8858
20
-49.423
11
101.79
21
-49.423
0
LINE
8
BLACK
6
CONTINUOUS
10
101.79
20
-49.423
11
101.79
21
-49.423
0
LINE
8
BLACK
6
CONTINUOUS
10
99.913
20
-49.473
11
99.913
21
-53.143
0
LINE
8
BLACK
6
CONTINUOUS
10
99.913
20
-53.143
11
101.763
21
-53.143
0
LINE
8
BLACK
6
CONTINUOUS
10
101.763
20
-53.143
11
101.763
21
-49.473
0
LINE
8
BLACK
6
CONTINUOUS
10
101.763
20
-49.473
11
99.913
21
-49.473
0
LINE
8
BLACK
6
CONTINUOUS
10
117.222
20
-47.747
11
117.224
21
-47.747
0
LINE
8
BLACK
6
CONTINUOUS
10
117.224
20
-47.747
11
117.226
21
-47.7478
0
LINE
8
BLACK
6
CONTINUOUS
10
117.226
20
-47.7478
11
117.229
21
-47.7481
0
LINE
8
BLACK
6
CONTINUOUS
10
117.229
20
-47.7481
11
117.231
21
-47.7493
0
LINE
8
BLACK
6
CONTINUOUS
10
117.231
20
-47.7493
11
117.233
21
-47.75
0
LINE
8
BLACK
6
CONTINUOUS
10
117.233
20
-47.75
11
117.234
21
-47.7514
0
LINE
8
BLACK
6
CONTINUOUS
10
117.234
20
-47.7514
11
117.236
21
-47.7526
0
LINE
8
BLACK
6
CONTINUOUS
10
117.236
20
-47.7526
11
117.238
21
-47.7543
0
LINE
8
BLACK
6
CONTINUOUS
10
117.238
20
-47.7543
11
117.239
21
-47.7557
0
LINE
8
BLACK
6
CONTINUOUS
10
117.239
20
-47.7557
11
117.241
21
-47.7576
0
LINE
8
BLACK
6
CONTINUOUS
10
117.241
20
-47.7576
11
117.242
21
-47.7593
0
LINE
8
BLACK
6
CONTINUOUS
10
117.242
20
-47.7593
11
117.243
21
-47.7614
0
LINE
8
BLACK
6
CONTINUOUS
10
117.243
20
-47.7614
11
117.244
21
-47.7633
0
LINE
8
BLACK
6
CONTINUOUS
10
117.244
20
-47.7633
11
117.244
21
-47.7655
0
LINE
8
BLACK
6
CONTINUOUS
10
117.244
20
-47.7655
11
117.245
21
-47.7676
0
LINE
8
BLACK
6
CONTINUOUS
10
117.245
20
-47.7676
11
117.245
21
-47.7698
0
LINE
8
BLACK
6
CONTINUOUS
10
117.245
20
-47.7698
11
117.245
21
-47.7698
0
LINE
8
BLACK
6
CONTINUOUS
10
117.245
20
-47.7698
11
117.245
21
-50.2742
0
LINE
8
BLACK
6
CONTINUOUS
10
117.245
20
-50.2742
11
117.245
21
-50.2742
0
LINE
8
BLACK
6
CONTINUOUS
10
117.245
20
-50.2742
11
117.245
21
-50.2764
0
LINE
8
BLACK
6
CONTINUOUS
10
117.245
20
-50.2764
11
117.244
21
-50.2785
0
LINE
8
BLACK
6
CONTINUOUS
10
117.244
20
-50.2785
11
117.244
21
-50.2807
0
LINE
8
BLACK
6
CONTINUOUS
10
117.244
20
-50.2807
11
117.243
21
-50.2826
0
LINE
8
BLACK
6
CONTINUOUS
10
117.243
20
-50.2826
11
117.242
21
-50.2847
0
LINE
8
BLACK
6
CONTINUOUS
10
117.242
20
-50.2847
11
117.241
21
-50.2864
0
LINE
8
BLACK
6
CONTINUOUS
10
117.241
20
-50.2864
11
117.239
21
-50.2883
0
LINE
8
BLACK
6
CONTINUOUS
10
117.239
20
-50.2883
11
117.238
21
-50.2897
0
LINE
8
BLACK
6
CONTINUOUS
10
117.238
20
-50.2897
11
117.236
21
-50.2914
0
LINE
8
BLACK
6
CONTINUOUS
10
117.236
20
-50.2914
11
117.235
21
-50.292
0
LINE
8
BLACK
6
CONTINUOUS
10
117.235
20
-50.292
11
117.236
21
-50.2926
0
LINE
8
BLACK
6
CONTINUOUS
10
117.236
20
-50.2926
11
117.238
21
-50.2943
0
LINE
8
BLACK
6
CONTINUOUS
10
117.238
20
-50.2943
11
117.239
21
-50.2957
0
LINE
8
BLACK
6
CONTINUOUS
10
117.239
20
-50.2957
11
117.241
21
-50.2976
0
LINE
8
BLACK
6
CONTINUOUS
10
117.241
20
-50.2976
11
117.242
21
-50.2993
0
LINE
8
BLACK
6
CONTINUOUS
10
117.242
20
-50.2993
11
117.243
21
-50.3014
0
LINE
8
BLACK
6
CONTINUOUS
10
117.243
20
-50.3014
11
117.244
21
-50.3033
0
LINE
8
BLACK
6
CONTINUOUS
10
117.244
20
-50.3033
11
117.244
21
-50.3055
0
LINE
8
BLACK
6
CONTINUOUS
10
117.244
20
-50.3055
11
117.245
21
-50.3076
0
LINE
8
BLACK
6
CONTINUOUS
10
117.245
20
-50.3076
11
117.245
21
-50.3098
0
LINE
8
BLACK
6
CONTINUOUS
10
117.245
20
-50.3098
11
117.245
21
-50.3098
0
LINE
8
BLACK
6
CONTINUOUS
10
117.245
20
-50.3098
11
117.245
21
-52.8142
0
LINE
8
BLACK
6
CONTINUOUS
10
117.245
20
-52.8142
11
117.245
21
-52.8142
0
LINE
8
BLACK
6
CONTINUOUS
10
117.245
20
-52.8142
11
117.245
21
-52.8164
0
LINE
8
BLACK
6
CONTINUOUS
10
117.245
20
-52.8164
11
117.244
21
-52.8185
0
LINE
8
BLACK
6
CONTINUOUS
10
117.244
20
-52.8185
11
117.244
21
-52.8207
0
LINE
8
BLACK
6
CONTINUOUS
10
117.244
20
-52.8207
11
117.243
21
-52.8226
0
LINE
8
BLACK
6
CONTINUOUS
10
117.243
20
-52.8226
11
117.242
21
-52.8247
0
LINE
8
BLACK
6
CONTINUOUS
10
117.242
20
-52.8247
11
117.241
21
-52.8264
0
LINE
8
BLACK
6
CONTINUOUS
10
117.241
20
-52.8264
11
117.239
21
-52.8283
0
LINE
8
BLACK
6
CONTINUOUS
10
117.239
20
-52.8283
11
117.238
21
-52.8297
0
LINE
8
BLACK
6
CONTINUOUS
10
117.238
20
-52.8297
11
117.236
21
-52.8314
0
LINE
8
BLACK
6
CONTINUOUS
10
117.236
20
-52.8314
11
117.234
21
-52.8326
0
LINE
8
BLACK
6
CONTINUOUS
10
117.234
20
-52.8326
11
117.233
21
-52.834
0
LINE
8
BLACK
6
CONTINUOUS
10
117.233
20
-52.834
11
117.231
21
-52.8347
0
LINE
8
BLACK
6
CONTINUOUS
10
117.231
20
-52.8347
11
117.229
21
-52.8359
0
LINE
8
BLACK
6
CONTINUOUS
10
117.229
20
-52.8359
11
117.226
21
-52.8362
0
LINE
8
BLACK
6
CONTINUOUS
10
117.226
20
-52.8362
11
117.224
21
-52.837
0
LINE
8
BLACK
6
CONTINUOUS
10
117.224
20
-52.837
11
117.222
21
-52.837
0
LINE
8
BLACK
6
CONTINUOUS
10
117.222
20
-52.837
11
117.222
21
-52.837
0
LINE
8
BLACK
6
CONTINUOUS
10
117.222
20
-52.837
11
113.918
21
-52.837
0
LINE
8
BLACK
6
CONTINUOUS
10
113.918
20
-52.837
11
113.918
21
-52.837
0
LINE
8
BLACK
6
CONTINUOUS
10
113.918
20
-52.837
11
113.916
21
-52.837
0
LINE
8
BLACK
6
CONTINUOUS
10
113.916
20
-52.837
11
113.914
21
-52.8362
0
LINE
8
BLACK
6
CONTINUOUS
10
113.914
20
-52.8362
11
113.911
21
-52.8359
0
LINE
8
BLACK
6
CONTINUOUS
10
113.911
20
-52.8359
11
113.909
21
-52.8347
0
LINE
8
BLACK
6
CONTINUOUS
10
113.909
20
-52.8347
11
113.907
21
-52.834
0
LINE
8
BLACK
6
CONTINUOUS
10
113.907
20
-52.834
11
113.906
21
-52.8326
0
LINE
8
BLACK
6
CONTINUOUS
10
113.906
20
-52.8326
11
113.904
21
-52.8314
0
LINE
8
BLACK
6
CONTINUOUS
10
113.904
20
-52.8314
11
113.902
21
-52.8297
0
LINE
8
BLACK
6
CONTINUOUS
10
113.902
20
-52.8297
11
113.901
21
-52.8283
0
LINE
8
BLACK
6
CONTINUOUS
10
113.901
20
-52.8283
11
113.899
21
-52.8264
0
LINE
8
BLACK
6
CONTINUOUS
10
113.899
20
-52.8264
11
113.898
21
-52.8247
0
LINE
8
BLACK
6
CONTINUOUS
10
113.898
20
-52.8247
11
113.897
21
-52.8226
0
LINE
8
BLACK
6
CONTINUOUS
10
113.897
20
-52.8226
11
113.896
21
-52.8207
0
LINE
8
BLACK
6
CONTINUOUS
10
113.896
20
-52.8207
11
113.896
21
-52.8185
0
LINE
8
BLACK
6
CONTINUOUS
10
113.896
20
-52.8185
11
113.895
21
-52.8164
0
LINE
8
BLACK
6
CONTINUOUS
10
113.895
20
-52.8164
11
113.895
21
-52.8142
0
LINE
8
BLACK
6
CONTINUOUS
10
113.895
20
-52.8142
11
113.895
21
-52.8142
0
LINE
8
BLACK
6
CONTINUOUS
10
113.895
20
-52.8142
11
113.895
21
-50.3098
0
LINE
8
BLACK
6
CONTINUOUS
10
113.895
20
-50.3098
11
113.895
21
-50.3076
0
LINE
8
BLACK
6
CONTINUOUS
10
113.895
20
-50.3076
11
113.896
21
-50.3055
0
LINE
8
BLACK
6
CONTINUOUS
10
113.896
20
-50.3055
11
113.896
21
-50.3033
0
LINE
8
BLACK
6
CONTINUOUS
10
113.896
20
-50.3033
11
113.897
21
-50.3014
0
LINE
8
BLACK
6
CONTINUOUS
10
113.897
20
-50.3014
11
113.898
21
-50.2993
0
LINE
8
BLACK
6
CONTINUOUS
10
113.898
20
-50.2993
11
113.899
21
-50.2976
0
LINE
8
BLACK
6
CONTINUOUS
10
113.899
20
-50.2976
11
113.901
21
-50.2957
0
LINE
8
BLACK
6
CONTINUOUS
10
113.901
20
-50.2957
11
113.902
21
-50.2943
0
LINE
8
BLACK
6
CONTINUOUS
10
113.902
20
-50.2943
11
113.904
21
-50.2926
0
LINE
8
BLACK
6
CONTINUOUS
10
113.904
20
-50.2926
11
113.905
21
-50.292
0
LINE
8
BLACK
6
CONTINUOUS
10
113.905
20
-50.292
11
113.904
21
-50.2914
0
LINE
8
BLACK
6
CONTINUOUS
10
113.904
20
-50.2914
11
113.902
21
-50.2897
0
LINE
8
BLACK
6
CONTINUOUS
10
113.902
20
-50.2897
11
113.901
21
-50.2883
0
LINE
8
BLACK
6
CONTINUOUS
10
113.901
20
-50.2883
11
113.899
21
-50.2864
0
LINE
8
BLACK
6
CONTINUOUS
10
113.899
20
-50.2864
11
113.898
21
-50.2847
0
LINE
8
BLACK
6
CONTINUOUS
10
113.898
20
-50.2847
11
113.897
21
-50.2826
0
LINE
8
BLACK
6
CONTINUOUS
10
113.897
20
-50.2826
11
113.896
21
-50.2807
0
LINE
8
BLACK
6
CONTINUOUS
10
113.896
20
-50.2807
11
113.896
21
-50.2785
0
LINE
8
BLACK
6
CONTINUOUS
10
113.896
20
-50.2785
11
113.895
21
-50.2764
0
LINE
8
BLACK
6
CONTINUOUS
10
113.895
20
-50.2764
11
113.895
21
-50.2742
0
LINE
8
BLACK
6
CONTINUOUS
10
113.895
20
-50.2742
11
113.895
21
-50.2742
0
LINE
8
BLACK
6
CONTINUOUS
10
113.895
20
-50.2742
11
113.895
21
-47.7698
0
LINE
8
BLACK
6
CONTINUOUS
10
113.895
20
-47.7698
11
113.895
21
-47.7676
0
LINE
8
BLACK
6
CONTINUOUS
10
113.895
20
-47.7676
11
113.896
21
-47.7655
0
LINE
8
BLACK
6
CONTINUOUS
10
113.896
20
-47.7655
11
113.896
21
-47.7633
0
LINE
8
BLACK
6
CONTINUOUS
10
113.896
20
-47.7633
11
113.897
21
-47.7614
0
LINE
8
BLACK
6
CONTINUOUS
10
113.897
20
-47.7614
11
113.898
21
-47.7593
0
LINE
8
BLACK
6
CONTINUOUS
10
113.898
20
-47.7593
11
113.899
21
-47.7576
0
LINE
8
BLACK
6
CONTINUOUS
10
113.899
20
-47.7576
11
113.901
21
-47.7557
0
LINE
8
BLACK
6
CONTINUOUS
10
113.901
20
-47.7557
11
113.902
21
-47.7543
0
LINE
8
BLACK
6
CONTINUOUS
10
113.902
20
-47.7543
11
113.904
21
-47.7526
0
LINE
8
BLACK
6
CONTINUOUS
10
113.904
20
-47.7526
11
113.906
21
-47.7514
0
LINE
8
BLACK
6
CONTINUOUS
10
113.906
20
-47.7514
11
113.907
21
-47.75
0
LINE
8
BLACK
6
CONTINUOUS
10
113.907
20
-47.75
11
113.909
21
-47.7493
0
LINE
8
BLACK
6
CONTINUOUS
10
113.909
20
-47.7493
11
113.911
21
-47.7481
0
LINE
8
BLACK
6
CONTINUOUS
10
113.911
20
-47.7481
11
113.914
21
-47.7478
0
LINE
8
BLACK
6
CONTINUOUS
10
113.914
20
-47.7478
11
113.916
21
-47.747
0
LINE
8
BLACK
6
CONTINUOUS
10
113.916
20
-47.747
11
113.918
21
-47.747
0
LINE
8
BLACK
6
CONTINUOUS
10
113.918
20
-47.747
11
113.918
21
-47.747
0
LINE
8
BLACK
6
CONTINUOUS
10
113.918
20
-47.747
11
117.222
21
-47.747
0
LINE
8
BLACK
6
CONTINUOUS
10
117.222
20
-47.747
11
117.222
21
-47.747
0
LINE
8
BLACK
6
CONTINUOUS
10
113.945
20
-50.337
11
113.945
21
-52.787
0
LINE
8
BLACK
6
CONTINUOUS
10
113.945
20
-52.787
11
117.195
21
-52.787
0
LINE
8
BLACK
6
CONTINUOUS
10
117.195
20
-52.787
11
117.195
21
-50.337
0
LINE
8
BLACK
6
CONTINUOUS
10
117.195
20
-50.337
11
113.945
21
-50.337
0
LINE
8
BLACK
6
CONTINUOUS
10
113.945
20
-47.797
11
113.945
21
-50.247
0
LINE
8
BLACK
6
CONTINUOUS
10
113.945
20
-50.247
11
117.195
21
-50.247
0
LINE
8
BLACK
6
CONTINUOUS
10
117.195
20
-50.247
11
117.195
21
-47.797
0
LINE
8
BLACK
6
CONTINUOUS
10
117.195
20
-47.797
11
113.945
21
-47.797
0
LINE
8
BLACK
6
CONTINUOUS
10
105.748
20
-49.317
11
105.75
21
-49.317
0
LINE
8
BLACK
6
CONTINUOUS
10
105.75
20
-49.317
11
105.752
21
-49.3178
0
LINE
8
BLACK
6
CONTINUOUS
10
105.752
20
-49.3178
11
105.755
21
-49.3181
0
LINE
8
BLACK
6
CONTINUOUS
10
105.755
20
-49.3181
11
105.757
21
-49.3193
0
LINE
8
BLACK
6
CONTINUOUS
10
105.757
20
-49.3193
11
105.759
21
-49.32
0
LINE
8
BLACK
6
CONTINUOUS
10
105.759
20
-49.32
11
105.76
21
-49.3214
0
LINE
8
BLACK
6
CONTINUOUS
10
105.76
20
-49.3214
11
105.762
21
-49.3226
0
LINE
8
BLACK
6
CONTINUOUS
10
105.762
20
-49.3226
11
105.764
21
-49.3243
0
LINE
8
BLACK
6
CONTINUOUS
10
105.764
20
-49.3243
11
105.765
21
-49.3257
0
LINE
8
BLACK
6
CONTINUOUS
10
105.765
20
-49.3257
11
105.767
21
-49.3276
0
LINE
8
BLACK
6
CONTINUOUS
10
105.767
20
-49.3276
11
105.768
21
-49.3293
0
LINE
8
BLACK
6
CONTINUOUS
10
105.768
20
-49.3293
11
105.769
21
-49.3314
0
LINE
8
BLACK
6
CONTINUOUS
10
105.769
20
-49.3314
11
105.77
21
-49.3333
0
LINE
8
BLACK
6
CONTINUOUS
10
105.77
20
-49.3333
11
105.77
21
-49.3355
0
LINE
8
BLACK
6
CONTINUOUS
10
105.77
20
-49.3355
11
105.771
21
-49.3376
0
LINE
8
BLACK
6
CONTINUOUS
10
105.771
20
-49.3376
11
105.771
21
-49.3398
0
LINE
8
BLACK
6
CONTINUOUS
10
105.771
20
-49.3398
11
105.771
21
-49.3398
0
LINE
8
BLACK
6
CONTINUOUS
10
105.771
20
-49.3398
11
105.771
21
-51.2442
0
LINE
8
BLACK
6
CONTINUOUS
10
105.771
20
-51.2442
11
105.771
21
-51.2442
0
LINE
8
BLACK
6
CONTINUOUS
10
105.771
20
-51.2442
11
105.771
21
-51.2464
0
LINE
8
BLACK
6
CONTINUOUS
10
105.771
20
-51.2464
11
105.77
21
-51.2485
0
LINE
8
BLACK
6
CONTINUOUS
10
105.77
20
-51.2485
11
105.77
21
-51.2507
0
LINE
8
BLACK
6
CONTINUOUS
10
105.77
20
-51.2507
11
105.769
21
-51.2526
0
LINE
8
BLACK
6
CONTINUOUS
10
105.769
20
-51.2526
11
105.768
21
-51.2547
0
LINE
8
BLACK
6
CONTINUOUS
10
105.768
20
-51.2547
11
105.767
21
-51.2564
0
LINE
8
BLACK
6
CONTINUOUS
10
105.767
20
-51.2564
11
105.765
21
-51.2583
0
LINE
8
BLACK
6
CONTINUOUS
10
105.765
20
-51.2583
11
105.764
21
-51.2597
0
LINE
8
BLACK
6
CONTINUOUS
10
105.764
20
-51.2597
11
105.762
21
-51.2614
0
LINE
8
BLACK
6
CONTINUOUS
10
105.762
20
-51.2614
11
105.76
21
-51.2626
0
LINE
8
BLACK
6
CONTINUOUS
10
105.76
20
-51.2626
11
105.759
21
-51.264
0
LINE
8
BLACK
6
CONTINUOUS
10
105.759
20
-51.264
11
105.757
21
-51.2647
0
LINE
8
BLACK
6
CONTINUOUS
10
105.757
20
-51.2647
11
105.755
21
-51.2659
0
LINE
8
BLACK
6
CONTINUOUS
10
105.755
20
-51.2659
11
105.752
21
-51.2662
0
LINE
8
BLACK
6
CONTINUOUS
10
105.752
20
-51.2662
11
105.75
21
-51.267
0
LINE
8
BLACK
6
CONTINUOUS
10
105.75
20
-51.267
11
105.748
21
-51.267
0
LINE
8
BLACK
6
CONTINUOUS
10
105.748
20
-51.267
11
105.748
21
-51.267
0
LINE
8
BLACK
6
CONTINUOUS
10
105.748
20
-51.267
11
102.024
21
-51.267
0
LINE
8
BLACK
6
CONTINUOUS
10
102.024
20
-51.267
11
102.024
21
-51.267
0
LINE
8
BLACK
6
CONTINUOUS
10
102.024
20
-51.267
11
102.022
21
-51.267
0
LINE
8
BLACK
6
CONTINUOUS
10
102.022
20
-51.267
11
102.02
21
-51.2662
0
LINE
8
BLACK
6
CONTINUOUS
10
102.02
20
-51.2662
11
102.017
21
-51.2659
0
LINE
8
BLACK
6
CONTINUOUS
10
102.017
20
-51.2659
11
102.015
21
-51.2647
0
LINE
8
BLACK
6
CONTINUOUS
10
102.015
20
-51.2647
11
102.013
21
-51.264
0
LINE
8
BLACK
6
CONTINUOUS
10
102.013
20
-51.264
11
102.012
21
-51.2626
0
LINE
8
BLACK
6
CONTINUOUS
10
102.012
20
-51.2626
11
102.01
21
-51.2614
0
LINE
8
BLACK
6
CONTINUOUS
10
102.01
20
-51.2614
11
102.008
21
-51.2597
0
LINE
8
BLACK
6
CONTINUOUS
10
102.008
20
-51.2597
11
102.007
21
-51.2583
0
LINE
8
BLACK
6
CONTINUOUS
10
102.007
20
-51.2583
11
102.005
21
-51.2564
0
LINE
8
BLACK
6
CONTINUOUS
10
102.005
20
-51.2564
11
102.004
21
-51.2547
0
LINE
8
BLACK
6
CONTINUOUS
10
102.004
20
-51.2547
11
102.003
21
-51.2526
0
LINE
8
BLACK
6
CONTINUOUS
10
102.003
20
-51.2526
11
102.002
21
-51.2507
0
LINE
8
BLACK
6
CONTINUOUS
10
102.002
20
-51.2507
11
102.002
21
-51.2485
0
LINE
8
BLACK
6
CONTINUOUS
10
102.002
20
-51.2485
11
102.001
21
-51.2464
0
LINE
8
BLACK
6
CONTINUOUS
10
102.001
20
-51.2464
11
102.001
21
-51.2376
0
LINE
8
BLACK
6
CONTINUOUS
10
102.001
20
-51.2376
11
102.001
21
-49.3398
0
LINE
8
BLACK
6
CONTINUOUS
10
102.001
20
-49.3398
11
102.001
21
-49.3398
0
LINE
8
BLACK
6
CONTINUOUS
10
102.001
20
-49.3398
11
102.001
21
-49.3376
0
LINE
8
BLACK
6
CONTINUOUS
10
102.001
20
-49.3376
11
102.002
21
-49.3355
0
LINE
8
BLACK
6
CONTINUOUS
10
102.002
20
-49.3355
11
102.002
21
-49.3333
0
LINE
8
BLACK
6
CONTINUOUS
10
102.002
20
-49.3333
11
102.003
21
-49.3314
0
LINE
8
BLACK
6
CONTINUOUS
10
102.003
20
-49.3314
11
102.004
21
-49.3293
0
LINE
8
BLACK
6
CONTINUOUS
10
102.004
20
-49.3293
11
102.005
21
-49.3276
0
LINE
8
BLACK
6
CONTINUOUS
10
102.005
20
-49.3276
11
102.007
21
-49.3257
0
LINE
8
BLACK
6
CONTINUOUS
10
102.007
20
-49.3257
11
102.008
21
-49.3243
0
LINE
8
BLACK
6
CONTINUOUS
10
102.008
20
-49.3243
11
102.01
21
-49.3226
0
LINE
8
BLACK
6
CONTINUOUS
10
102.01
20
-49.3226
11
102.012
21
-49.3214
0
LINE
8
BLACK
6
CONTINUOUS
10
102.012
20
-49.3214
11
102.013
21
-49.32
0
LINE
8
BLACK
6
CONTINUOUS
10
102.013
20
-49.32
11
102.015
21
-49.3193
0
LINE
8
BLACK
6
CONTINUOUS
10
102.015
20
-49.3193
11
102.017
21
-49.3181
0
LINE
8
BLACK
6
CONTINUOUS
10
102.017
20
-49.3181
11
102.02
21
-49.3178
0
LINE
8
BLACK
6
CONTINUOUS
10
102.02
20
-49.3178
11
102.022
21
-49.317
0
LINE
8
BLACK
6
CONTINUOUS
10
102.022
20
-49.317
11
102.024
21
-49.317
0
LINE
8
BLACK
6
CONTINUOUS
10
102.024
20
-49.317
11
102.024
21
-49.317
0
LINE
8
BLACK
6
CONTINUOUS
10
102.024
20
-49.317
11
105.748
21
-49.317
0
LINE
8
BLACK
6
CONTINUOUS
10
105.748
20
-49.317
11
105.748
21
-49.317
0
LINE
8
BLACK
6
CONTINUOUS
10
102.051
20
-49.367
11
102.051
21
-51.217
0
LINE
8
BLACK
6
CONTINUOUS
10
102.051
20
-51.217
11
105.721
21
-51.217
0
LINE
8
BLACK
6
CONTINUOUS
10
105.721
20
-51.217
11
105.721
21
-49.367
0
LINE
8
BLACK
6
CONTINUOUS
10
105.721
20
-49.367
11
102.051
21
-49.367
  0
ENDSEC
  0
EOF
