  0
SECTION
  2
HEADER
  9
$ANGBASE
  50
0.0
  9
$ANGDIR
  70
  1
  9
$MEASUREMENT
  70
0
  0
ENDSEC
  0
SECTION
  2
TABLES
  0
TABLE
  2
LTYPE
  70
4
  0
LTYPE
  5
40F
  2
CONTINUOUS
  70
0
  3
Solid line
  72
65
  73
0
  40
0.0
  0
LTYPE
  5
410
  2
DASHDOT
 70
0
  3
Dash Dot ____ _ ____ _
 72
65
 73
4
 40
2.0
 49
1.25
 49
-0.25
 49
0.25
 49
-0.25
  0
LTYPE
  5
411
  2
DASHED
 70
0
  3
Dashed __ __ __ __ __
 72
65
 73
2
 40
0.75
 49
0.5
 49
-0.25
  0
LTYPE
  5
43B
  2
DOTTED
 70
0
  3
Dotted .  .  .  .
 72
65
 73
2
 40
0.2
 49
0.0
 49
-0.2
  0
ENDTAB
  0
TABLE
  2
STYLE
  70
4
  0
STYLE
  2
KICAD
  70
0
  40
0
  41
1
  42
1
  50
0
  71
0
  3
isocp.shx
  0
STYLE
  2
KICADB
  70
0
  40
0
  41
1
  42
1
  50
0
  71
0
  3
isocp.shx
  0
STYLE
  2
KICADI
  70
0
  40
0
  41
1
  42
1
  50
15
  71
0
  3
isocp.shx
  0
STYLE
  2
KICADBI
  70
0
  40
0
  41
1
  42
1
  50
15
  71
0
  3
isocp.shx
  0
ENDTAB
  0
TABLE
  2
LAYER
  70
30
  0
LAYER
  2
BLACK
  70
0
  62
7
  6
CONTINUOUS
  0
LAYER
  2
GRAY1
  70
0
  62
251
  6
CONTINUOUS
  0
LAYER
  2
GRAY2
  70
0
  62
8
  6
CONTINUOUS
  0
LAYER
  2
GRAY3
  70
0
  62
9
  6
CONTINUOUS
  0
LAYER
  2
WHITE
  70
0
  62
7
  6
CONTINUOUS
  0
LAYER
  2
LYELLOW
  70
0
  62
51
  6
CONTINUOUS
  0
LAYER
  2
BLUE1
  70
0
  62
178
  6
CONTINUOUS
  0
LAYER
  2
GREEN1
  70
0
  62
98
  6
CONTINUOUS
  0
LAYER
  2
CYAN1
  70
0
  62
138
  6
CONTINUOUS
  0
LAYER
  2
RED1
  70
0
  62
18
  6
CONTINUOUS
  0
LAYER
  2
MAGENTA1
  70
0
  62
228
  6
CONTINUOUS
  0
LAYER
  2
BROWN1
  70
0
  62
58
  6
CONTINUOUS
  0
LAYER
  2
BLUE2
  70
0
  62
5
  6
CONTINUOUS
  0
LAYER
  2
GREEN2
  70
0
  62
3
  6
CONTINUOUS
  0
LAYER
  2
CYAN2
  70
0
  62
4
  6
CONTINUOUS
  0
LAYER
  2
RED2
  70
0
  62
1
  6
CONTINUOUS
  0
LAYER
  2
MAGENTA2
  70
0
  62
6
  6
CONTINUOUS
  0
LAYER
  2
BROWN2
  70
0
  62
54
  6
CONTINUOUS
  0
LAYER
  2
BLUE3
  70
0
  62
171
  6
CONTINUOUS
  0
LAYER
  2
GREEN3
  70
0
  62
91
  6
CONTINUOUS
  0
LAYER
  2
CYAN3
  70
0
  62
131
  6
CONTINUOUS
  0
LAYER
  2
RED3
  70
0
  62
11
  6
CONTINUOUS
  0
LAYER
  2
MAGENTA3
  70
0
  62
221
  6
CONTINUOUS
  0
LAYER
  2
YELLOW3
  70
0
  62
2
  6
CONTINUOUS
  0
LAYER
  2
BLUE4
  70
0
  62
5
  6
CONTINUOUS
  0
LAYER
  2
GREEN4
  70
0
  62
3
  6
CONTINUOUS
  0
LAYER
  2
CYAN4
  70
0
  62
4
  6
CONTINUOUS
  0
LAYER
  2
RED4
  70
0
  62
1
  6
CONTINUOUS
  0
LAYER
  2
MAGENTA4
  70
0
  62
6
  6
CONTINUOUS
  0
LAYER
  2
YELLOW4
  70
0
  62
2
  6
CONTINUOUS
  0
ENDTAB
  0
ENDSEC
  0
SECTION
  2
ENTITIES
0
LINE
8
BLACK
6
CONTINUOUS
10
93.1338
20
-142.239
11
93.3782
21
-142.38
0
LINE
8
BLACK
6
CONTINUOUS
10
93.3782
20
-142.38
11
93.5595
21
-142.596
0
LINE
8
BLACK
6
CONTINUOUS
10
93.5595
20
-142.596
11
93.656
21
-142.861
0
LINE
8
BLACK
6
CONTINUOUS
10
93.656
20
-142.861
11
93.656
21
-143.143
0
LINE
8
BLACK
6
CONTINUOUS
10
93.656
20
-143.143
11
93.5595
21
-143.408
0
LINE
8
BLACK
6
CONTINUOUS
10
93.5595
20
-143.408
11
93.3782
21
-143.624
0
LINE
8
BLACK
6
CONTINUOUS
10
93.3782
20
-143.624
11
93.1338
21
-143.765
0
LINE
8
BLACK
6
CONTINUOUS
10
93.1338
20
-143.765
11
92.926
21
-143.802
0
LINE
8
BLACK
6
CONTINUOUS
10
92.926
20
-143.802
11
91.986
21
-143.802
0
LINE
8
BLACK
6
CONTINUOUS
10
91.986
20
-143.802
11
91.7782
21
-143.765
0
LINE
8
BLACK
6
CONTINUOUS
10
91.7782
20
-143.765
11
91.5338
21
-143.624
0
LINE
8
BLACK
6
CONTINUOUS
10
91.5338
20
-143.624
11
91.3525
21
-143.408
0
LINE
8
BLACK
6
CONTINUOUS
10
91.3525
20
-143.408
11
91.256
21
-143.143
0
LINE
8
BLACK
6
CONTINUOUS
10
91.256
20
-143.143
11
91.256
21
-142.861
0
LINE
8
BLACK
6
CONTINUOUS
10
91.256
20
-142.861
11
91.3525
21
-142.596
0
LINE
8
BLACK
6
CONTINUOUS
10
91.3525
20
-142.596
11
91.5338
21
-142.38
0
LINE
8
BLACK
6
CONTINUOUS
10
91.5338
20
-142.38
11
91.7782
21
-142.239
0
LINE
8
BLACK
6
CONTINUOUS
10
91.7782
20
-142.239
11
91.986
21
-142.202
0
LINE
8
BLACK
6
CONTINUOUS
10
91.986
20
-142.202
11
92.926
21
-142.202
0
LINE
8
BLACK
6
CONTINUOUS
10
92.926
20
-142.202
11
93.1338
21
-142.239
0
LINE
8
BLACK
6
CONTINUOUS
10
93.1338
20
-139.699
11
93.3782
21
-139.84
0
LINE
8
BLACK
6
CONTINUOUS
10
93.3782
20
-139.84
11
93.5595
21
-140.056
0
LINE
8
BLACK
6
CONTINUOUS
10
93.5595
20
-140.056
11
93.656
21
-140.321
0
LINE
8
BLACK
6
CONTINUOUS
10
93.656
20
-140.321
11
93.656
21
-140.603
0
LINE
8
BLACK
6
CONTINUOUS
10
93.656
20
-140.603
11
93.5595
21
-140.868
0
LINE
8
BLACK
6
CONTINUOUS
10
93.5595
20
-140.868
11
93.3782
21
-141.084
0
LINE
8
BLACK
6
CONTINUOUS
10
93.3782
20
-141.084
11
93.1338
21
-141.225
0
LINE
8
BLACK
6
CONTINUOUS
10
93.1338
20
-141.225
11
92.926
21
-141.262
0
LINE
8
BLACK
6
CONTINUOUS
10
92.926
20
-141.262
11
91.986
21
-141.262
0
LINE
8
BLACK
6
CONTINUOUS
10
91.986
20
-141.262
11
91.7782
21
-141.225
0
LINE
8
BLACK
6
CONTINUOUS
10
91.7782
20
-141.225
11
91.5338
21
-141.084
0
LINE
8
BLACK
6
CONTINUOUS
10
91.5338
20
-141.084
11
91.3525
21
-140.868
0
LINE
8
BLACK
6
CONTINUOUS
10
91.3525
20
-140.868
11
91.256
21
-140.603
0
LINE
8
BLACK
6
CONTINUOUS
10
91.256
20
-140.603
11
91.256
21
-140.321
0
LINE
8
BLACK
6
CONTINUOUS
10
91.256
20
-140.321
11
91.3525
21
-140.056
0
LINE
8
BLACK
6
CONTINUOUS
10
91.3525
20
-140.056
11
91.5338
21
-139.84
0
LINE
8
BLACK
6
CONTINUOUS
10
91.5338
20
-139.84
11
91.7782
21
-139.699
0
LINE
8
BLACK
6
CONTINUOUS
10
91.7782
20
-139.699
11
91.986
21
-139.662
0
LINE
8
BLACK
6
CONTINUOUS
10
91.986
20
-139.662
11
92.926
21
-139.662
0
LINE
8
BLACK
6
CONTINUOUS
10
92.926
20
-139.662
11
93.1338
21
-139.699
0
LINE
8
BLACK
6
CONTINUOUS
10
93.1338
20
-137.159
11
93.3782
21
-137.3
0
LINE
8
BLACK
6
CONTINUOUS
10
93.3782
20
-137.3
11
93.5595
21
-137.516
0
LINE
8
BLACK
6
CONTINUOUS
10
93.5595
20
-137.516
11
93.656
21
-137.781
0
LINE
8
BLACK
6
CONTINUOUS
10
93.656
20
-137.781
11
93.656
21
-138.063
0
LINE
8
BLACK
6
CONTINUOUS
10
93.656
20
-138.063
11
93.5595
21
-138.328
0
LINE
8
BLACK
6
CONTINUOUS
10
93.5595
20
-138.328
11
93.3782
21
-138.544
0
LINE
8
BLACK
6
CONTINUOUS
10
93.3782
20
-138.544
11
93.1338
21
-138.685
0
LINE
8
BLACK
6
CONTINUOUS
10
93.1338
20
-138.685
11
92.926
21
-138.722
0
LINE
8
BLACK
6
CONTINUOUS
10
92.926
20
-138.722
11
91.986
21
-138.722
0
LINE
8
BLACK
6
CONTINUOUS
10
91.986
20
-138.722
11
91.7782
21
-138.685
0
LINE
8
BLACK
6
CONTINUOUS
10
91.7782
20
-138.685
11
91.5338
21
-138.544
0
LINE
8
BLACK
6
CONTINUOUS
10
91.5338
20
-138.544
11
91.3525
21
-138.328
0
LINE
8
BLACK
6
CONTINUOUS
10
91.3525
20
-138.328
11
91.256
21
-138.063
0
LINE
8
BLACK
6
CONTINUOUS
10
91.256
20
-138.063
11
91.256
21
-137.781
0
LINE
8
BLACK
6
CONTINUOUS
10
91.256
20
-137.781
11
91.3525
21
-137.516
0
LINE
8
BLACK
6
CONTINUOUS
10
91.3525
20
-137.516
11
91.5338
21
-137.3
0
LINE
8
BLACK
6
CONTINUOUS
10
91.5338
20
-137.3
11
91.7782
21
-137.159
0
LINE
8
BLACK
6
CONTINUOUS
10
91.7782
20
-137.159
11
91.986
21
-137.122
0
LINE
8
BLACK
6
CONTINUOUS
10
91.986
20
-137.122
11
92.926
21
-137.122
0
LINE
8
BLACK
6
CONTINUOUS
10
92.926
20
-137.122
11
93.1338
21
-137.159
0
LINE
8
BLACK
6
CONTINUOUS
10
202.416
20
-133.792
11
202.844
21
-134.039
0
LINE
8
BLACK
6
CONTINUOUS
10
202.844
20
-134.039
11
203.161
21
-134.417
0
LINE
8
BLACK
6
CONTINUOUS
10
203.161
20
-134.417
11
203.33
21
-134.881
0
LINE
8
BLACK
6
CONTINUOUS
10
203.33
20
-134.881
11
203.33
21
-135.375
0
LINE
8
BLACK
6
CONTINUOUS
10
203.33
20
-135.375
11
203.161
21
-135.839
0
LINE
8
BLACK
6
CONTINUOUS
10
203.161
20
-135.839
11
202.844
21
-136.217
0
LINE
8
BLACK
6
CONTINUOUS
10
202.844
20
-136.217
11
202.416
21
-136.464
0
LINE
8
BLACK
6
CONTINUOUS
10
202.416
20
-136.464
11
201.93
21
-136.55
0
LINE
8
BLACK
6
CONTINUOUS
10
201.93
20
-136.55
11
201.444
21
-136.464
0
LINE
8
BLACK
6
CONTINUOUS
10
201.444
20
-136.464
11
201.016
21
-136.217
0
LINE
8
BLACK
6
CONTINUOUS
10
201.016
20
-136.217
11
200.699
21
-135.839
0
LINE
8
BLACK
6
CONTINUOUS
10
200.699
20
-135.839
11
200.53
21
-135.375
0
LINE
8
BLACK
6
CONTINUOUS
10
200.53
20
-135.375
11
200.53
21
-134.881
0
LINE
8
BLACK
6
CONTINUOUS
10
200.53
20
-134.881
11
200.699
21
-134.417
0
LINE
8
BLACK
6
CONTINUOUS
10
200.699
20
-134.417
11
201.016
21
-134.039
0
LINE
8
BLACK
6
CONTINUOUS
10
201.016
20
-134.039
11
201.444
21
-133.792
0
LINE
8
BLACK
6
CONTINUOUS
10
201.444
20
-133.792
11
201.93
21
-133.706
0
LINE
8
BLACK
6
CONTINUOUS
10
201.93
20
-133.706
11
202.416
21
-133.792
0
LINE
8
BLACK
6
CONTINUOUS
10
227.816
20
-133.792
11
228.244
21
-134.039
0
LINE
8
BLACK
6
CONTINUOUS
10
228.244
20
-134.039
11
228.561
21
-134.417
0
LINE
8
BLACK
6
CONTINUOUS
10
228.561
20
-134.417
11
228.73
21
-134.881
0
LINE
8
BLACK
6
CONTINUOUS
10
228.73
20
-134.881
11
228.73
21
-135.375
0
LINE
8
BLACK
6
CONTINUOUS
10
228.73
20
-135.375
11
228.561
21
-135.839
0
LINE
8
BLACK
6
CONTINUOUS
10
228.561
20
-135.839
11
228.244
21
-136.217
0
LINE
8
BLACK
6
CONTINUOUS
10
228.244
20
-136.217
11
227.816
21
-136.464
0
LINE
8
BLACK
6
CONTINUOUS
10
227.816
20
-136.464
11
227.33
21
-136.55
0
LINE
8
BLACK
6
CONTINUOUS
10
227.33
20
-136.55
11
226.844
21
-136.464
0
LINE
8
BLACK
6
CONTINUOUS
10
226.844
20
-136.464
11
226.416
21
-136.217
0
LINE
8
BLACK
6
CONTINUOUS
10
226.416
20
-136.217
11
226.099
21
-135.839
0
LINE
8
BLACK
6
CONTINUOUS
10
226.099
20
-135.839
11
225.93
21
-135.375
0
LINE
8
BLACK
6
CONTINUOUS
10
225.93
20
-135.375
11
225.93
21
-134.881
0
LINE
8
BLACK
6
CONTINUOUS
10
225.93
20
-134.881
11
226.099
21
-134.417
0
LINE
8
BLACK
6
CONTINUOUS
10
226.099
20
-134.417
11
226.416
21
-134.039
0
LINE
8
BLACK
6
CONTINUOUS
10
226.416
20
-134.039
11
226.844
21
-133.792
0
LINE
8
BLACK
6
CONTINUOUS
10
226.844
20
-133.792
11
227.33
21
-133.706
0
LINE
8
BLACK
6
CONTINUOUS
10
227.33
20
-133.706
11
227.816
21
-133.792
0
LINE
8
BLACK
6
CONTINUOUS
10
215.116
20
-133.792
11
215.544
21
-134.039
0
LINE
8
BLACK
6
CONTINUOUS
10
215.544
20
-134.039
11
215.861
21
-134.417
0
LINE
8
BLACK
6
CONTINUOUS
10
215.861
20
-134.417
11
216.03
21
-134.881
0
LINE
8
BLACK
6
CONTINUOUS
10
216.03
20
-134.881
11
216.03
21
-135.375
0
LINE
8
BLACK
6
CONTINUOUS
10
216.03
20
-135.375
11
215.861
21
-135.839
0
LINE
8
BLACK
6
CONTINUOUS
10
215.861
20
-135.839
11
215.544
21
-136.217
0
LINE
8
BLACK
6
CONTINUOUS
10
215.544
20
-136.217
11
215.116
21
-136.464
0
LINE
8
BLACK
6
CONTINUOUS
10
215.116
20
-136.464
11
214.63
21
-136.55
0
LINE
8
BLACK
6
CONTINUOUS
10
214.63
20
-136.55
11
214.144
21
-136.464
0
LINE
8
BLACK
6
CONTINUOUS
10
214.144
20
-136.464
11
213.716
21
-136.217
0
LINE
8
BLACK
6
CONTINUOUS
10
213.716
20
-136.217
11
213.399
21
-135.839
0
LINE
8
BLACK
6
CONTINUOUS
10
213.399
20
-135.839
11
213.23
21
-135.375
0
LINE
8
BLACK
6
CONTINUOUS
10
213.23
20
-135.375
11
213.23
21
-134.881
0
LINE
8
BLACK
6
CONTINUOUS
10
213.23
20
-134.881
11
213.399
21
-134.417
0
LINE
8
BLACK
6
CONTINUOUS
10
213.399
20
-134.417
11
213.716
21
-134.039
0
LINE
8
BLACK
6
CONTINUOUS
10
213.716
20
-134.039
11
214.144
21
-133.792
0
LINE
8
BLACK
6
CONTINUOUS
10
214.144
20
-133.792
11
214.63
21
-133.706
0
LINE
8
BLACK
6
CONTINUOUS
10
214.63
20
-133.706
11
215.116
21
-133.792
0
LINE
8
BLACK
6
CONTINUOUS
10
93.1338
20
-134.619
11
93.3782
21
-134.76
0
LINE
8
BLACK
6
CONTINUOUS
10
93.3782
20
-134.76
11
93.5595
21
-134.976
0
LINE
8
BLACK
6
CONTINUOUS
10
93.5595
20
-134.976
11
93.656
21
-135.241
0
LINE
8
BLACK
6
CONTINUOUS
10
93.656
20
-135.241
11
93.656
21
-135.523
0
LINE
8
BLACK
6
CONTINUOUS
10
93.656
20
-135.523
11
93.5595
21
-135.788
0
LINE
8
BLACK
6
CONTINUOUS
10
93.5595
20
-135.788
11
93.3782
21
-136.004
0
LINE
8
BLACK
6
CONTINUOUS
10
93.3782
20
-136.004
11
93.1338
21
-136.145
0
LINE
8
BLACK
6
CONTINUOUS
10
93.1338
20
-136.145
11
92.926
21
-136.182
0
LINE
8
BLACK
6
CONTINUOUS
10
92.926
20
-136.182
11
91.986
21
-136.182
0
LINE
8
BLACK
6
CONTINUOUS
10
91.986
20
-136.182
11
91.7782
21
-136.145
0
LINE
8
BLACK
6
CONTINUOUS
10
91.7782
20
-136.145
11
91.5338
21
-136.004
0
LINE
8
BLACK
6
CONTINUOUS
10
91.5338
20
-136.004
11
91.3525
21
-135.788
0
LINE
8
BLACK
6
CONTINUOUS
10
91.3525
20
-135.788
11
91.256
21
-135.523
0
LINE
8
BLACK
6
CONTINUOUS
10
91.256
20
-135.523
11
91.256
21
-135.241
0
LINE
8
BLACK
6
CONTINUOUS
10
91.256
20
-135.241
11
91.3525
21
-134.976
0
LINE
8
BLACK
6
CONTINUOUS
10
91.3525
20
-134.976
11
91.5338
21
-134.76
0
LINE
8
BLACK
6
CONTINUOUS
10
91.5338
20
-134.76
11
91.7782
21
-134.619
0
LINE
8
BLACK
6
CONTINUOUS
10
91.7782
20
-134.619
11
91.986
21
-134.582
0
LINE
8
BLACK
6
CONTINUOUS
10
91.986
20
-134.582
11
92.926
21
-134.582
0
LINE
8
BLACK
6
CONTINUOUS
10
92.926
20
-134.582
11
93.1338
21
-134.619
0
LINE
8
BLACK
6
CONTINUOUS
10
242.008
20
-125.01
11
243.596
21
-125.927
0
LINE
8
BLACK
6
CONTINUOUS
10
243.596
20
-125.927
11
244.775
21
-127.332
0
LINE
8
BLACK
6
CONTINUOUS
10
244.775
20
-127.332
11
245.402
21
-129.055
0
LINE
8
BLACK
6
CONTINUOUS
10
245.402
20
-129.055
11
245.402
21
-130.889
0
LINE
8
BLACK
6
CONTINUOUS
10
245.402
20
-130.889
11
244.775
21
-132.612
0
LINE
8
BLACK
6
CONTINUOUS
10
244.775
20
-132.612
11
243.596
21
-134.017
0
LINE
8
BLACK
6
CONTINUOUS
10
243.596
20
-134.017
11
242.008
21
-134.934
0
LINE
8
BLACK
6
CONTINUOUS
10
242.008
20
-134.934
11
240.202
21
-135.252
0
LINE
8
BLACK
6
CONTINUOUS
10
240.202
20
-135.252
11
238.396
21
-134.934
0
LINE
8
BLACK
6
CONTINUOUS
10
238.396
20
-134.934
11
236.808
21
-134.017
0
LINE
8
BLACK
6
CONTINUOUS
10
236.808
20
-134.017
11
235.629
21
-132.612
0
LINE
8
BLACK
6
CONTINUOUS
10
235.629
20
-132.612
11
235.002
21
-130.889
0
LINE
8
BLACK
6
CONTINUOUS
10
235.002
20
-130.889
11
235.002
21
-129.055
0
LINE
8
BLACK
6
CONTINUOUS
10
235.002
20
-129.055
11
235.629
21
-127.332
0
LINE
8
BLACK
6
CONTINUOUS
10
235.629
20
-127.332
11
236.808
21
-125.927
0
LINE
8
BLACK
6
CONTINUOUS
10
236.808
20
-125.927
11
238.396
21
-125.01
0
LINE
8
BLACK
6
CONTINUOUS
10
238.396
20
-125.01
11
240.202
21
-124.692
0
LINE
8
BLACK
6
CONTINUOUS
10
240.202
20
-124.692
11
242.008
21
-125.01
0
LINE
8
BLACK
6
CONTINUOUS
10
93.1338
20
-132.079
11
93.3782
21
-132.22
0
LINE
8
BLACK
6
CONTINUOUS
10
93.3782
20
-132.22
11
93.5595
21
-132.436
0
LINE
8
BLACK
6
CONTINUOUS
10
93.5595
20
-132.436
11
93.656
21
-132.701
0
LINE
8
BLACK
6
CONTINUOUS
10
93.656
20
-132.701
11
93.656
21
-132.983
0
LINE
8
BLACK
6
CONTINUOUS
10
93.656
20
-132.983
11
93.5595
21
-133.248
0
LINE
8
BLACK
6
CONTINUOUS
10
93.5595
20
-133.248
11
93.3782
21
-133.464
0
LINE
8
BLACK
6
CONTINUOUS
10
93.3782
20
-133.464
11
93.1338
21
-133.605
0
LINE
8
BLACK
6
CONTINUOUS
10
93.1338
20
-133.605
11
92.926
21
-133.642
0
LINE
8
BLACK
6
CONTINUOUS
10
92.926
20
-133.642
11
91.986
21
-133.642
0
LINE
8
BLACK
6
CONTINUOUS
10
91.986
20
-133.642
11
91.7782
21
-133.605
0
LINE
8
BLACK
6
CONTINUOUS
10
91.7782
20
-133.605
11
91.5338
21
-133.464
0
LINE
8
BLACK
6
CONTINUOUS
10
91.5338
20
-133.464
11
91.3525
21
-133.248
0
LINE
8
BLACK
6
CONTINUOUS
10
91.3525
20
-133.248
11
91.256
21
-132.983
0
LINE
8
BLACK
6
CONTINUOUS
10
91.256
20
-132.983
11
91.256
21
-132.701
0
LINE
8
BLACK
6
CONTINUOUS
10
91.256
20
-132.701
11
91.3525
21
-132.436
0
LINE
8
BLACK
6
CONTINUOUS
10
91.3525
20
-132.436
11
91.5338
21
-132.22
0
LINE
8
BLACK
6
CONTINUOUS
10
91.5338
20
-132.22
11
91.7782
21
-132.079
0
LINE
8
BLACK
6
CONTINUOUS
10
91.7782
20
-132.079
11
91.986
21
-132.042
0
LINE
8
BLACK
6
CONTINUOUS
10
91.986
20
-132.042
11
92.926
21
-132.042
0
LINE
8
BLACK
6
CONTINUOUS
10
92.926
20
-132.042
11
93.1338
21
-132.079
0
LINE
8
BLACK
6
CONTINUOUS
10
93.1338
20
-129.539
11
93.3782
21
-129.68
0
LINE
8
BLACK
6
CONTINUOUS
10
93.3782
20
-129.68
11
93.5595
21
-129.896
0
LINE
8
BLACK
6
CONTINUOUS
10
93.5595
20
-129.896
11
93.656
21
-130.161
0
LINE
8
BLACK
6
CONTINUOUS
10
93.656
20
-130.161
11
93.656
21
-130.443
0
LINE
8
BLACK
6
CONTINUOUS
10
93.656
20
-130.443
11
93.5595
21
-130.708
0
LINE
8
BLACK
6
CONTINUOUS
10
93.5595
20
-130.708
11
93.3782
21
-130.924
0
LINE
8
BLACK
6
CONTINUOUS
10
93.3782
20
-130.924
11
93.1338
21
-131.065
0
LINE
8
BLACK
6
CONTINUOUS
10
93.1338
20
-131.065
11
92.926
21
-131.102
0
LINE
8
BLACK
6
CONTINUOUS
10
92.926
20
-131.102
11
91.986
21
-131.102
0
LINE
8
BLACK
6
CONTINUOUS
10
91.986
20
-131.102
11
91.7782
21
-131.065
0
LINE
8
BLACK
6
CONTINUOUS
10
91.7782
20
-131.065
11
91.5338
21
-130.924
0
LINE
8
BLACK
6
CONTINUOUS
10
91.5338
20
-130.924
11
91.3525
21
-130.708
0
LINE
8
BLACK
6
CONTINUOUS
10
91.3525
20
-130.708
11
91.256
21
-130.443
0
LINE
8
BLACK
6
CONTINUOUS
10
91.256
20
-130.443
11
91.256
21
-130.161
0
LINE
8
BLACK
6
CONTINUOUS
10
91.256
20
-130.161
11
91.3525
21
-129.896
0
LINE
8
BLACK
6
CONTINUOUS
10
91.3525
20
-129.896
11
91.5338
21
-129.68
0
LINE
8
BLACK
6
CONTINUOUS
10
91.5338
20
-129.68
11
91.7782
21
-129.539
0
LINE
8
BLACK
6
CONTINUOUS
10
91.7782
20
-129.539
11
91.986
21
-129.502
0
LINE
8
BLACK
6
CONTINUOUS
10
91.986
20
-129.502
11
92.926
21
-129.502
0
LINE
8
BLACK
6
CONTINUOUS
10
92.926
20
-129.502
11
93.1338
21
-129.539
0
LINE
8
BLACK
6
CONTINUOUS
10
93.1338
20
-126.999
11
93.3782
21
-127.14
0
LINE
8
BLACK
6
CONTINUOUS
10
93.3782
20
-127.14
11
93.5595
21
-127.356
0
LINE
8
BLACK
6
CONTINUOUS
10
93.5595
20
-127.356
11
93.656
21
-127.621
0
LINE
8
BLACK
6
CONTINUOUS
10
93.656
20
-127.621
11
93.656
21
-127.903
0
LINE
8
BLACK
6
CONTINUOUS
10
93.656
20
-127.903
11
93.5595
21
-128.168
0
LINE
8
BLACK
6
CONTINUOUS
10
93.5595
20
-128.168
11
93.3782
21
-128.384
0
LINE
8
BLACK
6
CONTINUOUS
10
93.3782
20
-128.384
11
93.1338
21
-128.525
0
LINE
8
BLACK
6
CONTINUOUS
10
93.1338
20
-128.525
11
92.926
21
-128.562
0
LINE
8
BLACK
6
CONTINUOUS
10
92.926
20
-128.562
11
91.986
21
-128.562
0
LINE
8
BLACK
6
CONTINUOUS
10
91.986
20
-128.562
11
91.7782
21
-128.525
0
LINE
8
BLACK
6
CONTINUOUS
10
91.7782
20
-128.525
11
91.5338
21
-128.384
0
LINE
8
BLACK
6
CONTINUOUS
10
91.5338
20
-128.384
11
91.3525
21
-128.168
0
LINE
8
BLACK
6
CONTINUOUS
10
91.3525
20
-128.168
11
91.256
21
-127.903
0
LINE
8
BLACK
6
CONTINUOUS
10
91.256
20
-127.903
11
91.256
21
-127.621
0
LINE
8
BLACK
6
CONTINUOUS
10
91.256
20
-127.621
11
91.3525
21
-127.356
0
LINE
8
BLACK
6
CONTINUOUS
10
91.3525
20
-127.356
11
91.5338
21
-127.14
0
LINE
8
BLACK
6
CONTINUOUS
10
91.5338
20
-127.14
11
91.7782
21
-126.999
0
LINE
8
BLACK
6
CONTINUOUS
10
91.7782
20
-126.999
11
91.986
21
-126.962
0
LINE
8
BLACK
6
CONTINUOUS
10
91.986
20
-126.962
11
92.926
21
-126.962
0
LINE
8
BLACK
6
CONTINUOUS
10
92.926
20
-126.962
11
93.1338
21
-126.999
0
LINE
8
BLACK
6
CONTINUOUS
10
160.866
20
-127.592
11
158.666
21
-127.592
0
LINE
8
BLACK
6
CONTINUOUS
10
158.666
20
-127.592
11
158.666
21
-125.392
0
LINE
8
BLACK
6
CONTINUOUS
10
158.666
20
-125.392
11
160.866
21
-125.392
0
LINE
8
BLACK
6
CONTINUOUS
10
160.866
20
-125.392
11
160.866
21
-127.592
0
LINE
8
BLACK
6
CONTINUOUS
10
172.261
20
-122.6
11
172.871
21
-122.952
0
LINE
8
BLACK
6
CONTINUOUS
10
172.871
20
-122.952
11
173.325
21
-123.493
0
LINE
8
BLACK
6
CONTINUOUS
10
173.325
20
-123.493
11
173.566
21
-124.155
0
LINE
8
BLACK
6
CONTINUOUS
10
173.566
20
-124.155
11
173.566
21
-124.861
0
LINE
8
BLACK
6
CONTINUOUS
10
173.566
20
-124.861
11
173.325
21
-125.523
0
LINE
8
BLACK
6
CONTINUOUS
10
173.325
20
-125.523
11
172.871
21
-126.064
0
LINE
8
BLACK
6
CONTINUOUS
10
172.871
20
-126.064
11
172.261
21
-126.416
0
LINE
8
BLACK
6
CONTINUOUS
10
172.261
20
-126.416
11
171.741
21
-126.508
0
LINE
8
BLACK
6
CONTINUOUS
10
171.741
20
-126.508
11
171.391
21
-126.508
0
LINE
8
BLACK
6
CONTINUOUS
10
171.391
20
-126.508
11
170.871
21
-126.416
0
LINE
8
BLACK
6
CONTINUOUS
10
170.871
20
-126.416
11
170.261
21
-126.064
0
LINE
8
BLACK
6
CONTINUOUS
10
170.261
20
-126.064
11
169.807
21
-125.523
0
LINE
8
BLACK
6
CONTINUOUS
10
169.807
20
-125.523
11
169.566
21
-124.861
0
LINE
8
BLACK
6
CONTINUOUS
10
169.566
20
-124.861
11
169.566
21
-124.155
0
LINE
8
BLACK
6
CONTINUOUS
10
169.566
20
-124.155
11
169.807
21
-123.493
0
LINE
8
BLACK
6
CONTINUOUS
10
169.807
20
-123.493
11
170.261
21
-122.952
0
LINE
8
BLACK
6
CONTINUOUS
10
170.261
20
-122.952
11
170.871
21
-122.6
0
LINE
8
BLACK
6
CONTINUOUS
10
170.871
20
-122.6
11
171.391
21
-122.508
0
LINE
8
BLACK
6
CONTINUOUS
10
171.391
20
-122.508
11
171.741
21
-122.508
0
LINE
8
BLACK
6
CONTINUOUS
10
171.741
20
-122.508
11
172.261
21
-122.6
0
LINE
8
BLACK
6
CONTINUOUS
10
93.1338
20
-124.459
11
93.3782
21
-124.6
0
LINE
8
BLACK
6
CONTINUOUS
10
93.3782
20
-124.6
11
93.5595
21
-124.816
0
LINE
8
BLACK
6
CONTINUOUS
10
93.5595
20
-124.816
11
93.656
21
-125.081
0
LINE
8
BLACK
6
CONTINUOUS
10
93.656
20
-125.081
11
93.656
21
-125.363
0
LINE
8
BLACK
6
CONTINUOUS
10
93.656
20
-125.363
11
93.5595
21
-125.628
0
LINE
8
BLACK
6
CONTINUOUS
10
93.5595
20
-125.628
11
93.3782
21
-125.844
0
LINE
8
BLACK
6
CONTINUOUS
10
93.3782
20
-125.844
11
93.1338
21
-125.985
0
LINE
8
BLACK
6
CONTINUOUS
10
93.1338
20
-125.985
11
92.926
21
-126.022
0
LINE
8
BLACK
6
CONTINUOUS
10
92.926
20
-126.022
11
91.986
21
-126.022
0
LINE
8
BLACK
6
CONTINUOUS
10
91.986
20
-126.022
11
91.7782
21
-125.985
0
LINE
8
BLACK
6
CONTINUOUS
10
91.7782
20
-125.985
11
91.5338
21
-125.844
0
LINE
8
BLACK
6
CONTINUOUS
10
91.5338
20
-125.844
11
91.3525
21
-125.628
0
LINE
8
BLACK
6
CONTINUOUS
10
91.3525
20
-125.628
11
91.256
21
-125.363
0
LINE
8
BLACK
6
CONTINUOUS
10
91.256
20
-125.363
11
91.256
21
-125.081
0
LINE
8
BLACK
6
CONTINUOUS
10
91.256
20
-125.081
11
91.3525
21
-124.816
0
LINE
8
BLACK
6
CONTINUOUS
10
91.3525
20
-124.816
11
91.5338
21
-124.6
0
LINE
8
BLACK
6
CONTINUOUS
10
91.5338
20
-124.6
11
91.7782
21
-124.459
0
LINE
8
BLACK
6
CONTINUOUS
10
91.7782
20
-124.459
11
91.986
21
-124.422
0
LINE
8
BLACK
6
CONTINUOUS
10
91.986
20
-124.422
11
92.926
21
-124.422
0
LINE
8
BLACK
6
CONTINUOUS
10
92.926
20
-124.422
11
93.1338
21
-124.459
0
LINE
8
BLACK
6
CONTINUOUS
10
160.148
20
-122.902
11
160.484
21
-123.096
0
LINE
8
BLACK
6
CONTINUOUS
10
160.484
20
-123.096
11
160.733
21
-123.394
0
LINE
8
BLACK
6
CONTINUOUS
10
160.733
20
-123.394
11
160.866
21
-123.758
0
LINE
8
BLACK
6
CONTINUOUS
10
160.866
20
-123.758
11
160.866
21
-124.146
0
LINE
8
BLACK
6
CONTINUOUS
10
160.866
20
-124.146
11
160.733
21
-124.51
0
LINE
8
BLACK
6
CONTINUOUS
10
160.733
20
-124.51
11
160.484
21
-124.808
0
LINE
8
BLACK
6
CONTINUOUS
10
160.484
20
-124.808
11
160.148
21
-125.002
0
LINE
8
BLACK
6
CONTINUOUS
10
160.148
20
-125.002
11
159.766
21
-125.069
0
LINE
8
BLACK
6
CONTINUOUS
10
159.766
20
-125.069
11
159.384
21
-125.002
0
LINE
8
BLACK
6
CONTINUOUS
10
159.384
20
-125.002
11
159.048
21
-124.808
0
LINE
8
BLACK
6
CONTINUOUS
10
159.048
20
-124.808
11
158.799
21
-124.51
0
LINE
8
BLACK
6
CONTINUOUS
10
158.799
20
-124.51
11
158.666
21
-124.146
0
LINE
8
BLACK
6
CONTINUOUS
10
158.666
20
-124.146
11
158.666
21
-123.758
0
LINE
8
BLACK
6
CONTINUOUS
10
158.666
20
-123.758
11
158.799
21
-123.394
0
LINE
8
BLACK
6
CONTINUOUS
10
158.799
20
-123.394
11
159.048
21
-123.096
0
LINE
8
BLACK
6
CONTINUOUS
10
159.048
20
-123.096
11
159.384
21
-122.902
0
LINE
8
BLACK
6
CONTINUOUS
10
159.384
20
-122.902
11
159.766
21
-122.835
0
LINE
8
BLACK
6
CONTINUOUS
10
159.766
20
-122.835
11
160.148
21
-122.902
0
LINE
8
BLACK
6
CONTINUOUS
10
187.332
20
-124.344
11
185.637
21
-124.344
0
LINE
8
BLACK
6
CONTINUOUS
10
185.637
20
-124.344
11
185.637
21
-122.544
0
LINE
8
BLACK
6
CONTINUOUS
10
185.637
20
-122.544
11
187.332
21
-122.544
0
LINE
8
BLACK
6
CONTINUOUS
10
187.332
20
-122.544
11
187.332
21
-124.344
0
LINE
8
BLACK
6
CONTINUOUS
10
189.267
20
-124.344
11
187.572
21
-124.344
0
LINE
8
BLACK
6
CONTINUOUS
10
187.572
20
-124.344
11
187.572
21
-122.544
0
LINE
8
BLACK
6
CONTINUOUS
10
187.572
20
-122.544
11
189.267
21
-122.544
0
LINE
8
BLACK
6
CONTINUOUS
10
189.267
20
-122.544
11
189.267
21
-124.344
0
LINE
8
BLACK
6
CONTINUOUS
10
160.148
20
-120.362
11
160.484
21
-120.556
0
LINE
8
BLACK
6
CONTINUOUS
10
160.484
20
-120.556
11
160.733
21
-120.854
0
LINE
8
BLACK
6
CONTINUOUS
10
160.733
20
-120.854
11
160.866
21
-121.218
0
LINE
8
BLACK
6
CONTINUOUS
10
160.866
20
-121.218
11
160.866
21
-121.606
0
LINE
8
BLACK
6
CONTINUOUS
10
160.866
20
-121.606
11
160.733
21
-121.97
0
LINE
8
BLACK
6
CONTINUOUS
10
160.733
20
-121.97
11
160.484
21
-122.268
0
LINE
8
BLACK
6
CONTINUOUS
10
160.484
20
-122.268
11
160.148
21
-122.462
0
LINE
8
BLACK
6
CONTINUOUS
10
160.148
20
-122.462
11
159.766
21
-122.529
0
LINE
8
BLACK
6
CONTINUOUS
10
159.766
20
-122.529
11
159.384
21
-122.462
0
LINE
8
BLACK
6
CONTINUOUS
10
159.384
20
-122.462
11
159.048
21
-122.268
0
LINE
8
BLACK
6
CONTINUOUS
10
159.048
20
-122.268
11
158.799
21
-121.97
0
LINE
8
BLACK
6
CONTINUOUS
10
158.799
20
-121.97
11
158.666
21
-121.606
0
LINE
8
BLACK
6
CONTINUOUS
10
158.666
20
-121.606
11
158.666
21
-121.218
0
LINE
8
BLACK
6
CONTINUOUS
10
158.666
20
-121.218
11
158.799
21
-120.854
0
LINE
8
BLACK
6
CONTINUOUS
10
158.799
20
-120.854
11
159.048
21
-120.556
0
LINE
8
BLACK
6
CONTINUOUS
10
159.048
20
-120.556
11
159.384
21
-120.362
0
LINE
8
BLACK
6
CONTINUOUS
10
159.384
20
-120.362
11
159.766
21
-120.295
0
LINE
8
BLACK
6
CONTINUOUS
10
159.766
20
-120.295
11
160.148
21
-120.362
0
LINE
8
BLACK
6
CONTINUOUS
10
189.315
20
-121.042
11
187.62
21
-121.042
0
LINE
8
BLACK
6
CONTINUOUS
10
187.62
20
-121.042
11
187.62
21
-119.242
0
LINE
8
BLACK
6
CONTINUOUS
10
187.62
20
-119.242
11
189.315
21
-119.242
0
LINE
8
BLACK
6
CONTINUOUS
10
189.315
20
-119.242
11
189.315
21
-121.042
0
LINE
8
BLACK
6
CONTINUOUS
10
187.38
20
-121.042
11
185.685
21
-121.042
0
LINE
8
BLACK
6
CONTINUOUS
10
185.685
20
-121.042
11
185.685
21
-119.242
0
LINE
8
BLACK
6
CONTINUOUS
10
185.685
20
-119.242
11
187.38
21
-119.242
0
LINE
8
BLACK
6
CONTINUOUS
10
187.38
20
-119.242
11
187.38
21
-121.042
0
LINE
8
BLACK
6
CONTINUOUS
10
144.71
20
-120.278
11
142.31
21
-120.278
0
LINE
8
BLACK
6
CONTINUOUS
10
142.31
20
-120.278
11
142.31
21
-117.974
0
LINE
8
BLACK
6
CONTINUOUS
10
142.31
20
-117.974
11
144.71
21
-117.974
0
LINE
8
BLACK
6
CONTINUOUS
10
144.71
20
-117.974
11
144.71
21
-120.278
0
LINE
8
BLACK
6
CONTINUOUS
10
160.148
20
-117.822
11
160.484
21
-118.016
0
LINE
8
BLACK
6
CONTINUOUS
10
160.484
20
-118.016
11
160.733
21
-118.314
0
LINE
8
BLACK
6
CONTINUOUS
10
160.733
20
-118.314
11
160.866
21
-118.678
0
LINE
8
BLACK
6
CONTINUOUS
10
160.866
20
-118.678
11
160.866
21
-119.066
0
LINE
8
BLACK
6
CONTINUOUS
10
160.866
20
-119.066
11
160.733
21
-119.43
0
LINE
8
BLACK
6
CONTINUOUS
10
160.733
20
-119.43
11
160.484
21
-119.728
0
LINE
8
BLACK
6
CONTINUOUS
10
160.484
20
-119.728
11
160.148
21
-119.922
0
LINE
8
BLACK
6
CONTINUOUS
10
160.148
20
-119.922
11
159.766
21
-119.989
0
LINE
8
BLACK
6
CONTINUOUS
10
159.766
20
-119.989
11
159.384
21
-119.922
0
LINE
8
BLACK
6
CONTINUOUS
10
159.384
20
-119.922
11
159.048
21
-119.728
0
LINE
8
BLACK
6
CONTINUOUS
10
159.048
20
-119.728
11
158.799
21
-119.43
0
LINE
8
BLACK
6
CONTINUOUS
10
158.799
20
-119.43
11
158.666
21
-119.066
0
LINE
8
BLACK
6
CONTINUOUS
10
158.666
20
-119.066
11
158.666
21
-118.678
0
LINE
8
BLACK
6
CONTINUOUS
10
158.666
20
-118.678
11
158.799
21
-118.314
0
LINE
8
BLACK
6
CONTINUOUS
10
158.799
20
-118.314
11
159.048
21
-118.016
0
LINE
8
BLACK
6
CONTINUOUS
10
159.048
20
-118.016
11
159.384
21
-117.822
0
LINE
8
BLACK
6
CONTINUOUS
10
159.384
20
-117.822
11
159.766
21
-117.755
0
LINE
8
BLACK
6
CONTINUOUS
10
159.766
20
-117.755
11
160.148
21
-117.822
0
LINE
8
BLACK
6
CONTINUOUS
10
93.1338
20
-118.109
11
93.3782
21
-118.25
0
LINE
8
BLACK
6
CONTINUOUS
10
93.3782
20
-118.25
11
93.5595
21
-118.466
0
LINE
8
BLACK
6
CONTINUOUS
10
93.5595
20
-118.466
11
93.656
21
-118.731
0
LINE
8
BLACK
6
CONTINUOUS
10
93.656
20
-118.731
11
93.656
21
-119.013
0
LINE
8
BLACK
6
CONTINUOUS
10
93.656
20
-119.013
11
93.5595
21
-119.278
0
LINE
8
BLACK
6
CONTINUOUS
10
93.5595
20
-119.278
11
93.3782
21
-119.494
0
LINE
8
BLACK
6
CONTINUOUS
10
93.3782
20
-119.494
11
93.1338
21
-119.635
0
LINE
8
BLACK
6
CONTINUOUS
10
93.1338
20
-119.635
11
92.926
21
-119.672
0
LINE
8
BLACK
6
CONTINUOUS
10
92.926
20
-119.672
11
91.986
21
-119.672
0
LINE
8
BLACK
6
CONTINUOUS
10
91.986
20
-119.672
11
91.7782
21
-119.635
0
LINE
8
BLACK
6
CONTINUOUS
10
91.7782
20
-119.635
11
91.5338
21
-119.494
0
LINE
8
BLACK
6
CONTINUOUS
10
91.5338
20
-119.494
11
91.3525
21
-119.278
0
LINE
8
BLACK
6
CONTINUOUS
10
91.3525
20
-119.278
11
91.256
21
-119.013
0
LINE
8
BLACK
6
CONTINUOUS
10
91.256
20
-119.013
11
91.256
21
-118.731
0
LINE
8
BLACK
6
CONTINUOUS
10
91.256
20
-118.731
11
91.3525
21
-118.466
0
LINE
8
BLACK
6
CONTINUOUS
10
91.3525
20
-118.466
11
91.5338
21
-118.25
0
LINE
8
BLACK
6
CONTINUOUS
10
91.5338
20
-118.25
11
91.7782
21
-118.109
0
LINE
8
BLACK
6
CONTINUOUS
10
91.7782
20
-118.109
11
91.986
21
-118.072
0
LINE
8
BLACK
6
CONTINUOUS
10
91.986
20
-118.072
11
92.926
21
-118.072
0
LINE
8
BLACK
6
CONTINUOUS
10
92.926
20
-118.072
11
93.1338
21
-118.109
0
LINE
8
BLACK
6
CONTINUOUS
10
127.527
20
-114.725
11
128.123
21
-115.069
0
LINE
8
BLACK
6
CONTINUOUS
10
128.123
20
-115.069
11
128.565
21
-115.596
0
LINE
8
BLACK
6
CONTINUOUS
10
128.565
20
-115.596
11
128.8
21
-116.242
0
LINE
8
BLACK
6
CONTINUOUS
10
128.8
20
-116.242
11
128.8
21
-116.93
0
LINE
8
BLACK
6
CONTINUOUS
10
128.8
20
-116.93
11
128.565
21
-117.576
0
LINE
8
BLACK
6
CONTINUOUS
10
128.565
20
-117.576
11
128.123
21
-118.103
0
LINE
8
BLACK
6
CONTINUOUS
10
128.123
20
-118.103
11
127.527
21
-118.447
0
LINE
8
BLACK
6
CONTINUOUS
10
127.527
20
-118.447
11
127.021
21
-118.536
0
LINE
8
BLACK
6
CONTINUOUS
10
127.021
20
-118.536
11
126.679
21
-118.536
0
LINE
8
BLACK
6
CONTINUOUS
10
126.679
20
-118.536
11
126.173
21
-118.447
0
LINE
8
BLACK
6
CONTINUOUS
10
126.173
20
-118.447
11
125.577
21
-118.103
0
LINE
8
BLACK
6
CONTINUOUS
10
125.577
20
-118.103
11
125.135
21
-117.576
0
LINE
8
BLACK
6
CONTINUOUS
10
125.135
20
-117.576
11
124.9
21
-116.93
0
LINE
8
BLACK
6
CONTINUOUS
10
124.9
20
-116.93
11
124.9
21
-116.242
0
LINE
8
BLACK
6
CONTINUOUS
10
124.9
20
-116.242
11
125.135
21
-115.596
0
LINE
8
BLACK
6
CONTINUOUS
10
125.135
20
-115.596
11
125.577
21
-115.069
0
LINE
8
BLACK
6
CONTINUOUS
10
125.577
20
-115.069
11
126.173
21
-114.725
0
LINE
8
BLACK
6
CONTINUOUS
10
126.173
20
-114.725
11
126.679
21
-114.636
0
LINE
8
BLACK
6
CONTINUOUS
10
126.679
20
-114.636
11
127.021
21
-114.636
0
LINE
8
BLACK
6
CONTINUOUS
10
127.021
20
-114.636
11
127.527
21
-114.725
0
LINE
8
BLACK
6
CONTINUOUS
10
143.958
20
-115.486
11
144.31
21
-115.69
0
LINE
8
BLACK
6
CONTINUOUS
10
144.31
20
-115.69
11
144.571
21
-116.001
0
LINE
8
BLACK
6
CONTINUOUS
10
144.571
20
-116.001
11
144.71
21
-116.383
0
LINE
8
BLACK
6
CONTINUOUS
10
144.71
20
-116.383
11
144.71
21
-116.789
0
LINE
8
BLACK
6
CONTINUOUS
10
144.71
20
-116.789
11
144.571
21
-117.171
0
LINE
8
BLACK
6
CONTINUOUS
10
144.571
20
-117.171
11
144.31
21
-117.482
0
LINE
8
BLACK
6
CONTINUOUS
10
144.31
20
-117.482
11
143.958
21
-117.686
0
LINE
8
BLACK
6
CONTINUOUS
10
143.958
20
-117.686
11
143.658
21
-117.738
0
LINE
8
BLACK
6
CONTINUOUS
10
143.658
20
-117.738
11
143.362
21
-117.738
0
LINE
8
BLACK
6
CONTINUOUS
10
143.362
20
-117.738
11
143.062
21
-117.686
0
LINE
8
BLACK
6
CONTINUOUS
10
143.062
20
-117.686
11
142.71
21
-117.482
0
LINE
8
BLACK
6
CONTINUOUS
10
142.71
20
-117.482
11
142.449
21
-117.171
0
LINE
8
BLACK
6
CONTINUOUS
10
142.449
20
-117.171
11
142.31
21
-116.789
0
LINE
8
BLACK
6
CONTINUOUS
10
142.31
20
-116.789
11
142.31
21
-116.383
0
LINE
8
BLACK
6
CONTINUOUS
10
142.31
20
-116.383
11
142.449
21
-116.001
0
LINE
8
BLACK
6
CONTINUOUS
10
142.449
20
-116.001
11
142.71
21
-115.69
0
LINE
8
BLACK
6
CONTINUOUS
10
142.71
20
-115.69
11
143.062
21
-115.486
0
LINE
8
BLACK
6
CONTINUOUS
10
143.062
20
-115.486
11
143.362
21
-115.433
0
LINE
8
BLACK
6
CONTINUOUS
10
143.362
20
-115.433
11
143.658
21
-115.433
0
LINE
8
BLACK
6
CONTINUOUS
10
143.658
20
-115.433
11
143.958
21
-115.486
0
LINE
8
BLACK
6
CONTINUOUS
10
160.148
20
-115.282
11
160.484
21
-115.476
0
LINE
8
BLACK
6
CONTINUOUS
10
160.484
20
-115.476
11
160.733
21
-115.774
0
LINE
8
BLACK
6
CONTINUOUS
10
160.733
20
-115.774
11
160.866
21
-116.138
0
LINE
8
BLACK
6
CONTINUOUS
10
160.866
20
-116.138
11
160.866
21
-116.526
0
LINE
8
BLACK
6
CONTINUOUS
10
160.866
20
-116.526
11
160.733
21
-116.89
0
LINE
8
BLACK
6
CONTINUOUS
10
160.733
20
-116.89
11
160.484
21
-117.188
0
LINE
8
BLACK
6
CONTINUOUS
10
160.484
20
-117.188
11
160.148
21
-117.382
0
LINE
8
BLACK
6
CONTINUOUS
10
160.148
20
-117.382
11
159.766
21
-117.449
0
LINE
8
BLACK
6
CONTINUOUS
10
159.766
20
-117.449
11
159.384
21
-117.382
0
LINE
8
BLACK
6
CONTINUOUS
10
159.384
20
-117.382
11
159.048
21
-117.188
0
LINE
8
BLACK
6
CONTINUOUS
10
159.048
20
-117.188
11
158.799
21
-116.89
0
LINE
8
BLACK
6
CONTINUOUS
10
158.799
20
-116.89
11
158.666
21
-116.526
0
LINE
8
BLACK
6
CONTINUOUS
10
158.666
20
-116.526
11
158.666
21
-116.138
0
LINE
8
BLACK
6
CONTINUOUS
10
158.666
20
-116.138
11
158.799
21
-115.774
0
LINE
8
BLACK
6
CONTINUOUS
10
158.799
20
-115.774
11
159.048
21
-115.476
0
LINE
8
BLACK
6
CONTINUOUS
10
159.048
20
-115.476
11
159.384
21
-115.282
0
LINE
8
BLACK
6
CONTINUOUS
10
159.384
20
-115.282
11
159.766
21
-115.215
0
LINE
8
BLACK
6
CONTINUOUS
10
159.766
20
-115.215
11
160.148
21
-115.282
0
LINE
8
BLACK
6
CONTINUOUS
10
63.1905
20
-112.644
11
63.9235
21
-113.067
0
LINE
8
BLACK
6
CONTINUOUS
10
63.9235
20
-113.067
11
64.4675
21
-113.715
0
LINE
8
BLACK
6
CONTINUOUS
10
64.4675
20
-113.715
11
64.757
21
-114.511
0
LINE
8
BLACK
6
CONTINUOUS
10
64.757
20
-114.511
11
64.757
21
-115.357
0
LINE
8
BLACK
6
CONTINUOUS
10
64.757
20
-115.357
11
64.4675
21
-116.153
0
LINE
8
BLACK
6
CONTINUOUS
10
64.4675
20
-116.153
11
63.9235
21
-116.801
0
LINE
8
BLACK
6
CONTINUOUS
10
63.9235
20
-116.801
11
63.1905
21
-117.224
0
LINE
8
BLACK
6
CONTINUOUS
10
63.1905
20
-117.224
11
62.357
21
-117.371
0
LINE
8
BLACK
6
CONTINUOUS
10
62.357
20
-117.371
11
61.5235
21
-117.224
0
LINE
8
BLACK
6
CONTINUOUS
10
61.5235
20
-117.224
11
60.7905
21
-116.801
0
LINE
8
BLACK
6
CONTINUOUS
10
60.7905
20
-116.801
11
60.2465
21
-116.153
0
LINE
8
BLACK
6
CONTINUOUS
10
60.2465
20
-116.153
11
59.957
21
-115.357
0
LINE
8
BLACK
6
CONTINUOUS
10
59.957
20
-115.357
11
59.957
21
-114.511
0
LINE
8
BLACK
6
CONTINUOUS
10
59.957
20
-114.511
11
60.2465
21
-113.715
0
LINE
8
BLACK
6
CONTINUOUS
10
60.2465
20
-113.715
11
60.7905
21
-113.067
0
LINE
8
BLACK
6
CONTINUOUS
10
60.7905
20
-113.067
11
61.5235
21
-112.644
0
LINE
8
BLACK
6
CONTINUOUS
10
61.5235
20
-112.644
11
62.357
21
-112.497
0
LINE
8
BLACK
6
CONTINUOUS
10
62.357
20
-112.497
11
63.1905
21
-112.644
0
LINE
8
BLACK
6
CONTINUOUS
10
93.1338
20
-115.569
11
93.3782
21
-115.71
0
LINE
8
BLACK
6
CONTINUOUS
10
93.3782
20
-115.71
11
93.5595
21
-115.926
0
LINE
8
BLACK
6
CONTINUOUS
10
93.5595
20
-115.926
11
93.656
21
-116.191
0
LINE
8
BLACK
6
CONTINUOUS
10
93.656
20
-116.191
11
93.656
21
-116.473
0
LINE
8
BLACK
6
CONTINUOUS
10
93.656
20
-116.473
11
93.5595
21
-116.738
0
LINE
8
BLACK
6
CONTINUOUS
10
93.5595
20
-116.738
11
93.3782
21
-116.954
0
LINE
8
BLACK
6
CONTINUOUS
10
93.3782
20
-116.954
11
93.1338
21
-117.095
0
LINE
8
BLACK
6
CONTINUOUS
10
93.1338
20
-117.095
11
92.926
21
-117.132
0
LINE
8
BLACK
6
CONTINUOUS
10
92.926
20
-117.132
11
91.986
21
-117.132
0
LINE
8
BLACK
6
CONTINUOUS
10
91.986
20
-117.132
11
91.7782
21
-117.095
0
LINE
8
BLACK
6
CONTINUOUS
10
91.7782
20
-117.095
11
91.5338
21
-116.954
0
LINE
8
BLACK
6
CONTINUOUS
10
91.5338
20
-116.954
11
91.3525
21
-116.738
0
LINE
8
BLACK
6
CONTINUOUS
10
91.3525
20
-116.738
11
91.256
21
-116.473
0
LINE
8
BLACK
6
CONTINUOUS
10
91.256
20
-116.473
11
91.256
21
-116.191
0
LINE
8
BLACK
6
CONTINUOUS
10
91.256
20
-116.191
11
91.3525
21
-115.926
0
LINE
8
BLACK
6
CONTINUOUS
10
91.3525
20
-115.926
11
91.5338
21
-115.71
0
LINE
8
BLACK
6
CONTINUOUS
10
91.5338
20
-115.71
11
91.7782
21
-115.569
0
LINE
8
BLACK
6
CONTINUOUS
10
91.7782
20
-115.569
11
91.986
21
-115.532
0
LINE
8
BLACK
6
CONTINUOUS
10
91.986
20
-115.532
11
92.926
21
-115.532
0
LINE
8
BLACK
6
CONTINUOUS
10
92.926
20
-115.532
11
93.1338
21
-115.569
0
LINE
8
BLACK
6
CONTINUOUS
10
143.958
20
-112.946
11
144.31
21
-113.15
0
LINE
8
BLACK
6
CONTINUOUS
10
144.31
20
-113.15
11
144.571
21
-113.461
0
LINE
8
BLACK
6
CONTINUOUS
10
144.571
20
-113.461
11
144.71
21
-113.843
0
LINE
8
BLACK
6
CONTINUOUS
10
144.71
20
-113.843
11
144.71
21
-114.249
0
LINE
8
BLACK
6
CONTINUOUS
10
144.71
20
-114.249
11
144.571
21
-114.631
0
LINE
8
BLACK
6
CONTINUOUS
10
144.571
20
-114.631
11
144.31
21
-114.942
0
LINE
8
BLACK
6
CONTINUOUS
10
144.31
20
-114.942
11
143.958
21
-115.146
0
LINE
8
BLACK
6
CONTINUOUS
10
143.958
20
-115.146
11
143.658
21
-115.198
0
LINE
8
BLACK
6
CONTINUOUS
10
143.658
20
-115.198
11
143.362
21
-115.198
0
LINE
8
BLACK
6
CONTINUOUS
10
143.362
20
-115.198
11
143.062
21
-115.146
0
LINE
8
BLACK
6
CONTINUOUS
10
143.062
20
-115.146
11
142.71
21
-114.942
0
LINE
8
BLACK
6
CONTINUOUS
10
142.71
20
-114.942
11
142.449
21
-114.631
0
LINE
8
BLACK
6
CONTINUOUS
10
142.449
20
-114.631
11
142.31
21
-114.249
0
LINE
8
BLACK
6
CONTINUOUS
10
142.31
20
-114.249
11
142.31
21
-113.843
0
LINE
8
BLACK
6
CONTINUOUS
10
142.31
20
-113.843
11
142.449
21
-113.461
0
LINE
8
BLACK
6
CONTINUOUS
10
142.449
20
-113.461
11
142.71
21
-113.15
0
LINE
8
BLACK
6
CONTINUOUS
10
142.71
20
-113.15
11
143.062
21
-112.946
0
LINE
8
BLACK
6
CONTINUOUS
10
143.062
20
-112.946
11
143.362
21
-112.893
0
LINE
8
BLACK
6
CONTINUOUS
10
143.362
20
-112.893
11
143.658
21
-112.893
0
LINE
8
BLACK
6
CONTINUOUS
10
143.658
20
-112.893
11
143.958
21
-112.946
0
LINE
8
BLACK
6
CONTINUOUS
10
160.148
20
-112.742
11
160.484
21
-112.936
0
LINE
8
BLACK
6
CONTINUOUS
10
160.484
20
-112.936
11
160.733
21
-113.234
0
LINE
8
BLACK
6
CONTINUOUS
10
160.733
20
-113.234
11
160.866
21
-113.598
0
LINE
8
BLACK
6
CONTINUOUS
10
160.866
20
-113.598
11
160.866
21
-113.986
0
LINE
8
BLACK
6
CONTINUOUS
10
160.866
20
-113.986
11
160.733
21
-114.35
0
LINE
8
BLACK
6
CONTINUOUS
10
160.733
20
-114.35
11
160.484
21
-114.648
0
LINE
8
BLACK
6
CONTINUOUS
10
160.484
20
-114.648
11
160.148
21
-114.842
0
LINE
8
BLACK
6
CONTINUOUS
10
160.148
20
-114.842
11
159.766
21
-114.909
0
LINE
8
BLACK
6
CONTINUOUS
10
159.766
20
-114.909
11
159.384
21
-114.842
0
LINE
8
BLACK
6
CONTINUOUS
10
159.384
20
-114.842
11
159.048
21
-114.648
0
LINE
8
BLACK
6
CONTINUOUS
10
159.048
20
-114.648
11
158.799
21
-114.35
0
LINE
8
BLACK
6
CONTINUOUS
10
158.799
20
-114.35
11
158.666
21
-113.986
0
LINE
8
BLACK
6
CONTINUOUS
10
158.666
20
-113.986
11
158.666
21
-113.598
0
LINE
8
BLACK
6
CONTINUOUS
10
158.666
20
-113.598
11
158.799
21
-113.234
0
LINE
8
BLACK
6
CONTINUOUS
10
158.799
20
-113.234
11
159.048
21
-112.936
0
LINE
8
BLACK
6
CONTINUOUS
10
159.048
20
-112.936
11
159.384
21
-112.742
0
LINE
8
BLACK
6
CONTINUOUS
10
159.384
20
-112.742
11
159.766
21
-112.675
0
LINE
8
BLACK
6
CONTINUOUS
10
159.766
20
-112.675
11
160.148
21
-112.742
0
LINE
8
BLACK
6
CONTINUOUS
10
93.1338
20
-113.029
11
93.3782
21
-113.17
0
LINE
8
BLACK
6
CONTINUOUS
10
93.3782
20
-113.17
11
93.5595
21
-113.386
0
LINE
8
BLACK
6
CONTINUOUS
10
93.5595
20
-113.386
11
93.656
21
-113.651
0
LINE
8
BLACK
6
CONTINUOUS
10
93.656
20
-113.651
11
93.656
21
-113.933
0
LINE
8
BLACK
6
CONTINUOUS
10
93.656
20
-113.933
11
93.5595
21
-114.198
0
LINE
8
BLACK
6
CONTINUOUS
10
93.5595
20
-114.198
11
93.3782
21
-114.414
0
LINE
8
BLACK
6
CONTINUOUS
10
93.3782
20
-114.414
11
93.1338
21
-114.555
0
LINE
8
BLACK
6
CONTINUOUS
10
93.1338
20
-114.555
11
92.926
21
-114.592
0
LINE
8
BLACK
6
CONTINUOUS
10
92.926
20
-114.592
11
91.986
21
-114.592
0
LINE
8
BLACK
6
CONTINUOUS
10
91.986
20
-114.592
11
91.7782
21
-114.555
0
LINE
8
BLACK
6
CONTINUOUS
10
91.7782
20
-114.555
11
91.5338
21
-114.414
0
LINE
8
BLACK
6
CONTINUOUS
10
91.5338
20
-114.414
11
91.3525
21
-114.198
0
LINE
8
BLACK
6
CONTINUOUS
10
91.3525
20
-114.198
11
91.256
21
-113.933
0
LINE
8
BLACK
6
CONTINUOUS
10
91.256
20
-113.933
11
91.256
21
-113.651
0
LINE
8
BLACK
6
CONTINUOUS
10
91.256
20
-113.651
11
91.3525
21
-113.386
0
LINE
8
BLACK
6
CONTINUOUS
10
91.3525
20
-113.386
11
91.5338
21
-113.17
0
LINE
8
BLACK
6
CONTINUOUS
10
91.5338
20
-113.17
11
91.7782
21
-113.029
0
LINE
8
BLACK
6
CONTINUOUS
10
91.7782
20
-113.029
11
91.986
21
-112.992
0
LINE
8
BLACK
6
CONTINUOUS
10
91.986
20
-112.992
11
92.926
21
-112.992
0
LINE
8
BLACK
6
CONTINUOUS
10
92.926
20
-112.992
11
93.1338
21
-113.029
0
LINE
8
BLACK
6
CONTINUOUS
10
170.264
20
-113.413
11
168.064
21
-113.413
0
LINE
8
BLACK
6
CONTINUOUS
10
168.064
20
-113.413
11
168.064
21
-111.618
0
LINE
8
BLACK
6
CONTINUOUS
10
168.064
20
-111.618
11
170.264
21
-111.618
0
LINE
8
BLACK
6
CONTINUOUS
10
170.264
20
-111.618
11
170.264
21
-113.413
0
LINE
8
BLACK
6
CONTINUOUS
10
173.444
20
-113.406
11
171.549
21
-113.406
0
LINE
8
BLACK
6
CONTINUOUS
10
171.549
20
-113.406
11
171.549
21
-109.606
0
LINE
8
BLACK
6
CONTINUOUS
10
171.549
20
-109.606
11
173.444
21
-109.606
0
LINE
8
BLACK
6
CONTINUOUS
10
173.444
20
-109.606
11
173.444
21
-113.406
0
LINE
8
BLACK
6
CONTINUOUS
10
179.479
20
-113.406
11
177.584
21
-113.406
0
LINE
8
BLACK
6
CONTINUOUS
10
177.584
20
-113.406
11
177.584
21
-109.606
0
LINE
8
BLACK
6
CONTINUOUS
10
177.584
20
-109.606
11
179.479
21
-109.606
0
LINE
8
BLACK
6
CONTINUOUS
10
179.479
20
-109.606
11
179.479
21
-113.406
0
LINE
8
BLACK
6
CONTINUOUS
10
160.148
20
-110.202
11
160.484
21
-110.396
0
LINE
8
BLACK
6
CONTINUOUS
10
160.484
20
-110.396
11
160.733
21
-110.694
0
LINE
8
BLACK
6
CONTINUOUS
10
160.733
20
-110.694
11
160.866
21
-111.058
0
LINE
8
BLACK
6
CONTINUOUS
10
160.866
20
-111.058
11
160.866
21
-111.446
0
LINE
8
BLACK
6
CONTINUOUS
10
160.866
20
-111.446
11
160.733
21
-111.81
0
LINE
8
BLACK
6
CONTINUOUS
10
160.733
20
-111.81
11
160.484
21
-112.108
0
LINE
8
BLACK
6
CONTINUOUS
10
160.484
20
-112.108
11
160.148
21
-112.302
0
LINE
8
BLACK
6
CONTINUOUS
10
160.148
20
-112.302
11
159.766
21
-112.369
0
LINE
8
BLACK
6
CONTINUOUS
10
159.766
20
-112.369
11
159.384
21
-112.302
0
LINE
8
BLACK
6
CONTINUOUS
10
159.384
20
-112.302
11
159.048
21
-112.108
0
LINE
8
BLACK
6
CONTINUOUS
10
159.048
20
-112.108
11
158.799
21
-111.81
0
LINE
8
BLACK
6
CONTINUOUS
10
158.799
20
-111.81
11
158.666
21
-111.446
0
LINE
8
BLACK
6
CONTINUOUS
10
158.666
20
-111.446
11
158.666
21
-111.058
0
LINE
8
BLACK
6
CONTINUOUS
10
158.666
20
-111.058
11
158.799
21
-110.694
0
LINE
8
BLACK
6
CONTINUOUS
10
158.799
20
-110.694
11
159.048
21
-110.396
0
LINE
8
BLACK
6
CONTINUOUS
10
159.048
20
-110.396
11
159.384
21
-110.202
0
LINE
8
BLACK
6
CONTINUOUS
10
159.384
20
-110.202
11
159.766
21
-110.135
0
LINE
8
BLACK
6
CONTINUOUS
10
159.766
20
-110.135
11
160.148
21
-110.202
0
LINE
8
BLACK
6
CONTINUOUS
10
93.1338
20
-110.489
11
93.3782
21
-110.63
0
LINE
8
BLACK
6
CONTINUOUS
10
93.3782
20
-110.63
11
93.5595
21
-110.846
0
LINE
8
BLACK
6
CONTINUOUS
10
93.5595
20
-110.846
11
93.656
21
-111.111
0
LINE
8
BLACK
6
CONTINUOUS
10
93.656
20
-111.111
11
93.656
21
-111.393
0
LINE
8
BLACK
6
CONTINUOUS
10
93.656
20
-111.393
11
93.5595
21
-111.658
0
LINE
8
BLACK
6
CONTINUOUS
10
93.5595
20
-111.658
11
93.3782
21
-111.874
0
LINE
8
BLACK
6
CONTINUOUS
10
93.3782
20
-111.874
11
93.1338
21
-112.015
0
LINE
8
BLACK
6
CONTINUOUS
10
93.1338
20
-112.015
11
92.926
21
-112.052
0
LINE
8
BLACK
6
CONTINUOUS
10
92.926
20
-112.052
11
91.986
21
-112.052
0
LINE
8
BLACK
6
CONTINUOUS
10
91.986
20
-112.052
11
91.7782
21
-112.015
0
LINE
8
BLACK
6
CONTINUOUS
10
91.7782
20
-112.015
11
91.5338
21
-111.874
0
LINE
8
BLACK
6
CONTINUOUS
10
91.5338
20
-111.874
11
91.3525
21
-111.658
0
LINE
8
BLACK
6
CONTINUOUS
10
91.3525
20
-111.658
11
91.256
21
-111.393
0
LINE
8
BLACK
6
CONTINUOUS
10
91.256
20
-111.393
11
91.256
21
-111.111
0
LINE
8
BLACK
6
CONTINUOUS
10
91.256
20
-111.111
11
91.3525
21
-110.846
0
LINE
8
BLACK
6
CONTINUOUS
10
91.3525
20
-110.846
11
91.5338
21
-110.63
0
LINE
8
BLACK
6
CONTINUOUS
10
91.5338
20
-110.63
11
91.7782
21
-110.489
0
LINE
8
BLACK
6
CONTINUOUS
10
91.7782
20
-110.489
11
91.986
21
-110.452
0
LINE
8
BLACK
6
CONTINUOUS
10
91.986
20
-110.452
11
92.926
21
-110.452
0
LINE
8
BLACK
6
CONTINUOUS
10
92.926
20
-110.452
11
93.1338
21
-110.489
0
LINE
8
BLACK
6
CONTINUOUS
10
170.264
20
-110.378
11
168.064
21
-110.378
0
LINE
8
BLACK
6
CONTINUOUS
10
168.064
20
-110.378
11
168.064
21
-108.583
0
LINE
8
BLACK
6
CONTINUOUS
10
168.064
20
-108.583
11
170.264
21
-108.583
0
LINE
8
BLACK
6
CONTINUOUS
10
170.264
20
-108.583
11
170.264
21
-110.378
0
LINE
8
BLACK
6
CONTINUOUS
10
242.008
20
-100.01
11
243.596
21
-100.927
0
LINE
8
BLACK
6
CONTINUOUS
10
243.596
20
-100.927
11
244.775
21
-102.332
0
LINE
8
BLACK
6
CONTINUOUS
10
244.775
20
-102.332
11
245.402
21
-104.055
0
LINE
8
BLACK
6
CONTINUOUS
10
245.402
20
-104.055
11
245.402
21
-105.889
0
LINE
8
BLACK
6
CONTINUOUS
10
245.402
20
-105.889
11
244.775
21
-107.612
0
LINE
8
BLACK
6
CONTINUOUS
10
244.775
20
-107.612
11
243.596
21
-109.017
0
LINE
8
BLACK
6
CONTINUOUS
10
243.596
20
-109.017
11
242.008
21
-109.934
0
LINE
8
BLACK
6
CONTINUOUS
10
242.008
20
-109.934
11
240.202
21
-110.252
0
LINE
8
BLACK
6
CONTINUOUS
10
240.202
20
-110.252
11
238.396
21
-109.934
0
LINE
8
BLACK
6
CONTINUOUS
10
238.396
20
-109.934
11
236.808
21
-109.017
0
LINE
8
BLACK
6
CONTINUOUS
10
236.808
20
-109.017
11
235.629
21
-107.612
0
LINE
8
BLACK
6
CONTINUOUS
10
235.629
20
-107.612
11
235.002
21
-105.889
0
LINE
8
BLACK
6
CONTINUOUS
10
235.002
20
-105.889
11
235.002
21
-104.055
0
LINE
8
BLACK
6
CONTINUOUS
10
235.002
20
-104.055
11
235.629
21
-102.332
0
LINE
8
BLACK
6
CONTINUOUS
10
235.629
20
-102.332
11
236.808
21
-100.927
0
LINE
8
BLACK
6
CONTINUOUS
10
236.808
20
-100.927
11
238.396
21
-100.01
0
LINE
8
BLACK
6
CONTINUOUS
10
238.396
20
-100.01
11
240.202
21
-99.6918
0
LINE
8
BLACK
6
CONTINUOUS
10
240.202
20
-99.6918
11
242.008
21
-100.01
0
LINE
8
BLACK
6
CONTINUOUS
10
105.744
20
-108.048
11
106.038
21
-108.218
0
LINE
8
BLACK
6
CONTINUOUS
10
106.038
20
-108.218
11
106.256
21
-108.478
0
LINE
8
BLACK
6
CONTINUOUS
10
106.256
20
-108.478
11
106.372
21
-108.796
0
LINE
8
BLACK
6
CONTINUOUS
10
106.372
20
-108.796
11
106.372
21
-109.136
0
LINE
8
BLACK
6
CONTINUOUS
10
106.372
20
-109.136
11
106.256
21
-109.454
0
LINE
8
BLACK
6
CONTINUOUS
10
106.256
20
-109.454
11
106.038
21
-109.714
0
LINE
8
BLACK
6
CONTINUOUS
10
106.038
20
-109.714
11
105.744
21
-109.884
0
LINE
8
BLACK
6
CONTINUOUS
10
105.744
20
-109.884
11
105.41
21
-109.943
0
LINE
8
BLACK
6
CONTINUOUS
10
105.41
20
-109.943
11
105.076
21
-109.884
0
LINE
8
BLACK
6
CONTINUOUS
10
105.076
20
-109.884
11
104.782
21
-109.714
0
LINE
8
BLACK
6
CONTINUOUS
10
104.782
20
-109.714
11
104.564
21
-109.454
0
LINE
8
BLACK
6
CONTINUOUS
10
104.564
20
-109.454
11
104.448
21
-109.136
0
LINE
8
BLACK
6
CONTINUOUS
10
104.448
20
-109.136
11
104.448
21
-108.796
0
LINE
8
BLACK
6
CONTINUOUS
10
104.448
20
-108.796
11
104.564
21
-108.478
0
LINE
8
BLACK
6
CONTINUOUS
10
104.564
20
-108.478
11
104.782
21
-108.218
0
LINE
8
BLACK
6
CONTINUOUS
10
104.782
20
-108.218
11
105.076
21
-108.048
0
LINE
8
BLACK
6
CONTINUOUS
10
105.076
20
-108.048
11
105.41
21
-107.989
0
LINE
8
BLACK
6
CONTINUOUS
10
105.41
20
-107.989
11
105.744
21
-108.048
0
LINE
8
BLACK
6
CONTINUOUS
10
93.1338
20
-107.949
11
93.3782
21
-108.09
0
LINE
8
BLACK
6
CONTINUOUS
10
93.3782
20
-108.09
11
93.5595
21
-108.306
0
LINE
8
BLACK
6
CONTINUOUS
10
93.5595
20
-108.306
11
93.656
21
-108.571
0
LINE
8
BLACK
6
CONTINUOUS
10
93.656
20
-108.571
11
93.656
21
-108.853
0
LINE
8
BLACK
6
CONTINUOUS
10
93.656
20
-108.853
11
93.5595
21
-109.118
0
LINE
8
BLACK
6
CONTINUOUS
10
93.5595
20
-109.118
11
93.3782
21
-109.334
0
LINE
8
BLACK
6
CONTINUOUS
10
93.3782
20
-109.334
11
93.1338
21
-109.475
0
LINE
8
BLACK
6
CONTINUOUS
10
93.1338
20
-109.475
11
92.926
21
-109.512
0
LINE
8
BLACK
6
CONTINUOUS
10
92.926
20
-109.512
11
91.986
21
-109.512
0
LINE
8
BLACK
6
CONTINUOUS
10
91.986
20
-109.512
11
91.7782
21
-109.475
0
LINE
8
BLACK
6
CONTINUOUS
10
91.7782
20
-109.475
11
91.5338
21
-109.334
0
LINE
8
BLACK
6
CONTINUOUS
10
91.5338
20
-109.334
11
91.3525
21
-109.118
0
LINE
8
BLACK
6
CONTINUOUS
10
91.3525
20
-109.118
11
91.256
21
-108.853
0
LINE
8
BLACK
6
CONTINUOUS
10
91.256
20
-108.853
11
91.256
21
-108.571
0
LINE
8
BLACK
6
CONTINUOUS
10
91.256
20
-108.571
11
91.3525
21
-108.306
0
LINE
8
BLACK
6
CONTINUOUS
10
91.3525
20
-108.306
11
91.5338
21
-108.09
0
LINE
8
BLACK
6
CONTINUOUS
10
91.5338
20
-108.09
11
91.7782
21
-107.949
0
LINE
8
BLACK
6
CONTINUOUS
10
91.7782
20
-107.949
11
91.986
21
-107.912
0
LINE
8
BLACK
6
CONTINUOUS
10
91.986
20
-107.912
11
92.926
21
-107.912
0
LINE
8
BLACK
6
CONTINUOUS
10
92.926
20
-107.912
11
93.1338
21
-107.949
0
LINE
8
BLACK
6
CONTINUOUS
10
227.816
20
-106.292
11
228.244
21
-106.539
0
LINE
8
BLACK
6
CONTINUOUS
10
228.244
20
-106.539
11
228.561
21
-106.917
0
LINE
8
BLACK
6
CONTINUOUS
10
228.561
20
-106.917
11
228.73
21
-107.381
0
LINE
8
BLACK
6
CONTINUOUS
10
228.73
20
-107.381
11
228.73
21
-107.875
0
LINE
8
BLACK
6
CONTINUOUS
10
228.73
20
-107.875
11
228.561
21
-108.339
0
LINE
8
BLACK
6
CONTINUOUS
10
228.561
20
-108.339
11
228.244
21
-108.717
0
LINE
8
BLACK
6
CONTINUOUS
10
228.244
20
-108.717
11
227.816
21
-108.964
0
LINE
8
BLACK
6
CONTINUOUS
10
227.816
20
-108.964
11
227.33
21
-109.05
0
LINE
8
BLACK
6
CONTINUOUS
10
227.33
20
-109.05
11
226.844
21
-108.964
0
LINE
8
BLACK
6
CONTINUOUS
10
226.844
20
-108.964
11
226.416
21
-108.717
0
LINE
8
BLACK
6
CONTINUOUS
10
226.416
20
-108.717
11
226.099
21
-108.339
0
LINE
8
BLACK
6
CONTINUOUS
10
226.099
20
-108.339
11
225.93
21
-107.875
0
LINE
8
BLACK
6
CONTINUOUS
10
225.93
20
-107.875
11
225.93
21
-107.381
0
LINE
8
BLACK
6
CONTINUOUS
10
225.93
20
-107.381
11
226.099
21
-106.917
0
LINE
8
BLACK
6
CONTINUOUS
10
226.099
20
-106.917
11
226.416
21
-106.539
0
LINE
8
BLACK
6
CONTINUOUS
10
226.416
20
-106.539
11
226.844
21
-106.292
0
LINE
8
BLACK
6
CONTINUOUS
10
226.844
20
-106.292
11
227.33
21
-106.206
0
LINE
8
BLACK
6
CONTINUOUS
10
227.33
20
-106.206
11
227.816
21
-106.292
0
LINE
8
BLACK
6
CONTINUOUS
10
202.416
20
-106.292
11
202.844
21
-106.539
0
LINE
8
BLACK
6
CONTINUOUS
10
202.844
20
-106.539
11
203.161
21
-106.917
0
LINE
8
BLACK
6
CONTINUOUS
10
203.161
20
-106.917
11
203.33
21
-107.381
0
LINE
8
BLACK
6
CONTINUOUS
10
203.33
20
-107.381
11
203.33
21
-107.875
0
LINE
8
BLACK
6
CONTINUOUS
10
203.33
20
-107.875
11
203.161
21
-108.339
0
LINE
8
BLACK
6
CONTINUOUS
10
203.161
20
-108.339
11
202.844
21
-108.717
0
LINE
8
BLACK
6
CONTINUOUS
10
202.844
20
-108.717
11
202.416
21
-108.964
0
LINE
8
BLACK
6
CONTINUOUS
10
202.416
20
-108.964
11
201.93
21
-109.05
0
LINE
8
BLACK
6
CONTINUOUS
10
201.93
20
-109.05
11
201.444
21
-108.964
0
LINE
8
BLACK
6
CONTINUOUS
10
201.444
20
-108.964
11
201.016
21
-108.717
0
LINE
8
BLACK
6
CONTINUOUS
10
201.016
20
-108.717
11
200.699
21
-108.339
0
LINE
8
BLACK
6
CONTINUOUS
10
200.699
20
-108.339
11
200.53
21
-107.875
0
LINE
8
BLACK
6
CONTINUOUS
10
200.53
20
-107.875
11
200.53
21
-107.381
0
LINE
8
BLACK
6
CONTINUOUS
10
200.53
20
-107.381
11
200.699
21
-106.917
0
LINE
8
BLACK
6
CONTINUOUS
10
200.699
20
-106.917
11
201.016
21
-106.539
0
LINE
8
BLACK
6
CONTINUOUS
10
201.016
20
-106.539
11
201.444
21
-106.292
0
LINE
8
BLACK
6
CONTINUOUS
10
201.444
20
-106.292
11
201.93
21
-106.206
0
LINE
8
BLACK
6
CONTINUOUS
10
201.93
20
-106.206
11
202.416
21
-106.292
0
LINE
8
BLACK
6
CONTINUOUS
10
215.116
20
-106.292
11
215.544
21
-106.539
0
LINE
8
BLACK
6
CONTINUOUS
10
215.544
20
-106.539
11
215.861
21
-106.917
0
LINE
8
BLACK
6
CONTINUOUS
10
215.861
20
-106.917
11
216.03
21
-107.381
0
LINE
8
BLACK
6
CONTINUOUS
10
216.03
20
-107.381
11
216.03
21
-107.875
0
LINE
8
BLACK
6
CONTINUOUS
10
216.03
20
-107.875
11
215.861
21
-108.339
0
LINE
8
BLACK
6
CONTINUOUS
10
215.861
20
-108.339
11
215.544
21
-108.717
0
LINE
8
BLACK
6
CONTINUOUS
10
215.544
20
-108.717
11
215.116
21
-108.964
0
LINE
8
BLACK
6
CONTINUOUS
10
215.116
20
-108.964
11
214.63
21
-109.05
0
LINE
8
BLACK
6
CONTINUOUS
10
214.63
20
-109.05
11
214.144
21
-108.964
0
LINE
8
BLACK
6
CONTINUOUS
10
214.144
20
-108.964
11
213.716
21
-108.717
0
LINE
8
BLACK
6
CONTINUOUS
10
213.716
20
-108.717
11
213.399
21
-108.339
0
LINE
8
BLACK
6
CONTINUOUS
10
213.399
20
-108.339
11
213.23
21
-107.875
0
LINE
8
BLACK
6
CONTINUOUS
10
213.23
20
-107.875
11
213.23
21
-107.381
0
LINE
8
BLACK
6
CONTINUOUS
10
213.23
20
-107.381
11
213.399
21
-106.917
0
LINE
8
BLACK
6
CONTINUOUS
10
213.399
20
-106.917
11
213.716
21
-106.539
0
LINE
8
BLACK
6
CONTINUOUS
10
213.716
20
-106.539
11
214.144
21
-106.292
0
LINE
8
BLACK
6
CONTINUOUS
10
214.144
20
-106.292
11
214.63
21
-106.206
0
LINE
8
BLACK
6
CONTINUOUS
10
214.63
20
-106.206
11
215.116
21
-106.292
0
LINE
8
BLACK
6
CONTINUOUS
10
105.744
20
-105.508
11
106.038
21
-105.678
0
LINE
8
BLACK
6
CONTINUOUS
10
106.038
20
-105.678
11
106.256
21
-105.938
0
LINE
8
BLACK
6
CONTINUOUS
10
106.256
20
-105.938
11
106.372
21
-106.256
0
LINE
8
BLACK
6
CONTINUOUS
10
106.372
20
-106.256
11
106.372
21
-106.596
0
LINE
8
BLACK
6
CONTINUOUS
10
106.372
20
-106.596
11
106.256
21
-106.914
0
LINE
8
BLACK
6
CONTINUOUS
10
106.256
20
-106.914
11
106.038
21
-107.174
0
LINE
8
BLACK
6
CONTINUOUS
10
106.038
20
-107.174
11
105.744
21
-107.344
0
LINE
8
BLACK
6
CONTINUOUS
10
105.744
20
-107.344
11
105.41
21
-107.403
0
LINE
8
BLACK
6
CONTINUOUS
10
105.41
20
-107.403
11
105.076
21
-107.344
0
LINE
8
BLACK
6
CONTINUOUS
10
105.076
20
-107.344
11
104.782
21
-107.174
0
LINE
8
BLACK
6
CONTINUOUS
10
104.782
20
-107.174
11
104.564
21
-106.914
0
LINE
8
BLACK
6
CONTINUOUS
10
104.564
20
-106.914
11
104.448
21
-106.596
0
LINE
8
BLACK
6
CONTINUOUS
10
104.448
20
-106.596
11
104.448
21
-106.256
0
LINE
8
BLACK
6
CONTINUOUS
10
104.448
20
-106.256
11
104.564
21
-105.938
0
LINE
8
BLACK
6
CONTINUOUS
10
104.564
20
-105.938
11
104.782
21
-105.678
0
LINE
8
BLACK
6
CONTINUOUS
10
104.782
20
-105.678
11
105.076
21
-105.508
0
LINE
8
BLACK
6
CONTINUOUS
10
105.076
20
-105.508
11
105.41
21
-105.449
0
LINE
8
BLACK
6
CONTINUOUS
10
105.41
20
-105.449
11
105.744
21
-105.508
0
LINE
8
BLACK
6
CONTINUOUS
10
178.466
20
-107.098
11
175.566
21
-107.098
0
LINE
8
BLACK
6
CONTINUOUS
10
175.566
20
-107.098
11
175.566
21
-102.198
0
LINE
8
BLACK
6
CONTINUOUS
10
175.566
20
-102.198
11
178.466
21
-102.198
0
LINE
8
BLACK
6
CONTINUOUS
10
178.466
20
-102.198
11
178.466
21
-107.098
0
LINE
8
BLACK
6
CONTINUOUS
10
172.302
20
-102.373
11
172.694
21
-102.702
0
LINE
8
BLACK
6
CONTINUOUS
10
172.694
20
-102.702
11
172.95
21
-103.144
0
LINE
8
BLACK
6
CONTINUOUS
10
172.95
20
-103.144
11
173.016
21
-103.521
0
LINE
8
BLACK
6
CONTINUOUS
10
173.016
20
-103.521
11
173.016
21
-105.775
0
LINE
8
BLACK
6
CONTINUOUS
10
173.016
20
-105.775
11
172.95
21
-106.152
0
LINE
8
BLACK
6
CONTINUOUS
10
172.95
20
-106.152
11
172.694
21
-106.594
0
LINE
8
BLACK
6
CONTINUOUS
10
172.694
20
-106.594
11
172.302
21
-106.923
0
LINE
8
BLACK
6
CONTINUOUS
10
172.302
20
-106.923
11
171.822
21
-107.098
0
LINE
8
BLACK
6
CONTINUOUS
10
171.822
20
-107.098
11
171.31
21
-107.098
0
LINE
8
BLACK
6
CONTINUOUS
10
171.31
20
-107.098
11
170.83
21
-106.923
0
LINE
8
BLACK
6
CONTINUOUS
10
170.83
20
-106.923
11
170.438
21
-106.594
0
LINE
8
BLACK
6
CONTINUOUS
10
170.438
20
-106.594
11
170.182
21
-106.152
0
LINE
8
BLACK
6
CONTINUOUS
10
170.182
20
-106.152
11
170.116
21
-105.775
0
LINE
8
BLACK
6
CONTINUOUS
10
170.116
20
-105.775
11
170.116
21
-103.521
0
LINE
8
BLACK
6
CONTINUOUS
10
170.116
20
-103.521
11
170.182
21
-103.144
0
LINE
8
BLACK
6
CONTINUOUS
10
170.182
20
-103.144
11
170.438
21
-102.702
0
LINE
8
BLACK
6
CONTINUOUS
10
170.438
20
-102.702
11
170.83
21
-102.373
0
LINE
8
BLACK
6
CONTINUOUS
10
170.83
20
-102.373
11
171.31
21
-102.198
0
LINE
8
BLACK
6
CONTINUOUS
10
171.31
20
-102.198
11
171.822
21
-102.198
0
LINE
8
BLACK
6
CONTINUOUS
10
171.822
20
-102.198
11
172.302
21
-102.373
0
LINE
8
BLACK
6
CONTINUOUS
10
166.852
20
-102.373
11
167.244
21
-102.702
0
LINE
8
BLACK
6
CONTINUOUS
10
167.244
20
-102.702
11
167.5
21
-103.144
0
LINE
8
BLACK
6
CONTINUOUS
10
167.5
20
-103.144
11
167.566
21
-103.521
0
LINE
8
BLACK
6
CONTINUOUS
10
167.566
20
-103.521
11
167.566
21
-105.775
0
LINE
8
BLACK
6
CONTINUOUS
10
167.566
20
-105.775
11
167.5
21
-106.152
0
LINE
8
BLACK
6
CONTINUOUS
10
167.5
20
-106.152
11
167.244
21
-106.594
0
LINE
8
BLACK
6
CONTINUOUS
10
167.244
20
-106.594
11
166.852
21
-106.923
0
LINE
8
BLACK
6
CONTINUOUS
10
166.852
20
-106.923
11
166.372
21
-107.098
0
LINE
8
BLACK
6
CONTINUOUS
10
166.372
20
-107.098
11
165.86
21
-107.098
0
LINE
8
BLACK
6
CONTINUOUS
10
165.86
20
-107.098
11
165.38
21
-106.923
0
LINE
8
BLACK
6
CONTINUOUS
10
165.38
20
-106.923
11
164.988
21
-106.594
0
LINE
8
BLACK
6
CONTINUOUS
10
164.988
20
-106.594
11
164.732
21
-106.152
0
LINE
8
BLACK
6
CONTINUOUS
10
164.732
20
-106.152
11
164.666
21
-105.775
0
LINE
8
BLACK
6
CONTINUOUS
10
164.666
20
-105.775
11
164.666
21
-103.521
0
LINE
8
BLACK
6
CONTINUOUS
10
164.666
20
-103.521
11
164.732
21
-103.144
0
LINE
8
BLACK
6
CONTINUOUS
10
164.732
20
-103.144
11
164.988
21
-102.702
0
LINE
8
BLACK
6
CONTINUOUS
10
164.988
20
-102.702
11
165.38
21
-102.373
0
LINE
8
BLACK
6
CONTINUOUS
10
165.38
20
-102.373
11
165.86
21
-102.198
0
LINE
8
BLACK
6
CONTINUOUS
10
165.86
20
-102.198
11
166.372
21
-102.198
0
LINE
8
BLACK
6
CONTINUOUS
10
166.372
20
-102.198
11
166.852
21
-102.373
0
LINE
8
BLACK
6
CONTINUOUS
10
93.1338
20
-105.409
11
93.3782
21
-105.55
0
LINE
8
BLACK
6
CONTINUOUS
10
93.3782
20
-105.55
11
93.5595
21
-105.766
0
LINE
8
BLACK
6
CONTINUOUS
10
93.5595
20
-105.766
11
93.656
21
-106.031
0
LINE
8
BLACK
6
CONTINUOUS
10
93.656
20
-106.031
11
93.656
21
-106.313
0
LINE
8
BLACK
6
CONTINUOUS
10
93.656
20
-106.313
11
93.5595
21
-106.578
0
LINE
8
BLACK
6
CONTINUOUS
10
93.5595
20
-106.578
11
93.3782
21
-106.794
0
LINE
8
BLACK
6
CONTINUOUS
10
93.3782
20
-106.794
11
93.1338
21
-106.935
0
LINE
8
BLACK
6
CONTINUOUS
10
93.1338
20
-106.935
11
92.926
21
-106.972
0
LINE
8
BLACK
6
CONTINUOUS
10
92.926
20
-106.972
11
91.986
21
-106.972
0
LINE
8
BLACK
6
CONTINUOUS
10
91.986
20
-106.972
11
91.7782
21
-106.935
0
LINE
8
BLACK
6
CONTINUOUS
10
91.7782
20
-106.935
11
91.5338
21
-106.794
0
LINE
8
BLACK
6
CONTINUOUS
10
91.5338
20
-106.794
11
91.3525
21
-106.578
0
LINE
8
BLACK
6
CONTINUOUS
10
91.3525
20
-106.578
11
91.256
21
-106.313
0
LINE
8
BLACK
6
CONTINUOUS
10
91.256
20
-106.313
11
91.256
21
-106.031
0
LINE
8
BLACK
6
CONTINUOUS
10
91.256
20
-106.031
11
91.3525
21
-105.766
0
LINE
8
BLACK
6
CONTINUOUS
10
91.3525
20
-105.766
11
91.5338
21
-105.55
0
LINE
8
BLACK
6
CONTINUOUS
10
91.5338
20
-105.55
11
91.7782
21
-105.409
0
LINE
8
BLACK
6
CONTINUOUS
10
91.7782
20
-105.409
11
91.986
21
-105.372
0
LINE
8
BLACK
6
CONTINUOUS
10
91.986
20
-105.372
11
92.926
21
-105.372
0
LINE
8
BLACK
6
CONTINUOUS
10
92.926
20
-105.372
11
93.1338
21
-105.409
0
LINE
8
BLACK
6
CONTINUOUS
10
227.816
20
-103.312
11
228.244
21
-103.559
0
LINE
8
BLACK
6
CONTINUOUS
10
228.244
20
-103.559
11
228.561
21
-103.937
0
LINE
8
BLACK
6
CONTINUOUS
10
228.561
20
-103.937
11
228.73
21
-104.401
0
LINE
8
BLACK
6
CONTINUOUS
10
228.73
20
-104.401
11
228.73
21
-104.895
0
LINE
8
BLACK
6
CONTINUOUS
10
228.73
20
-104.895
11
228.561
21
-105.359
0
LINE
8
BLACK
6
CONTINUOUS
10
228.561
20
-105.359
11
228.244
21
-105.737
0
LINE
8
BLACK
6
CONTINUOUS
10
228.244
20
-105.737
11
227.816
21
-105.984
0
LINE
8
BLACK
6
CONTINUOUS
10
227.816
20
-105.984
11
227.33
21
-106.07
0
LINE
8
BLACK
6
CONTINUOUS
10
227.33
20
-106.07
11
226.844
21
-105.984
0
LINE
8
BLACK
6
CONTINUOUS
10
226.844
20
-105.984
11
226.416
21
-105.737
0
LINE
8
BLACK
6
CONTINUOUS
10
226.416
20
-105.737
11
226.099
21
-105.359
0
LINE
8
BLACK
6
CONTINUOUS
10
226.099
20
-105.359
11
225.93
21
-104.895
0
LINE
8
BLACK
6
CONTINUOUS
10
225.93
20
-104.895
11
225.93
21
-104.401
0
LINE
8
BLACK
6
CONTINUOUS
10
225.93
20
-104.401
11
226.099
21
-103.937
0
LINE
8
BLACK
6
CONTINUOUS
10
226.099
20
-103.937
11
226.416
21
-103.559
0
LINE
8
BLACK
6
CONTINUOUS
10
226.416
20
-103.559
11
226.844
21
-103.312
0
LINE
8
BLACK
6
CONTINUOUS
10
226.844
20
-103.312
11
227.33
21
-103.226
0
LINE
8
BLACK
6
CONTINUOUS
10
227.33
20
-103.226
11
227.816
21
-103.312
0
LINE
8
BLACK
6
CONTINUOUS
10
215.116
20
-103.312
11
215.544
21
-103.559
0
LINE
8
BLACK
6
CONTINUOUS
10
215.544
20
-103.559
11
215.861
21
-103.937
0
LINE
8
BLACK
6
CONTINUOUS
10
215.861
20
-103.937
11
216.03
21
-104.401
0
LINE
8
BLACK
6
CONTINUOUS
10
216.03
20
-104.401
11
216.03
21
-104.895
0
LINE
8
BLACK
6
CONTINUOUS
10
216.03
20
-104.895
11
215.861
21
-105.359
0
LINE
8
BLACK
6
CONTINUOUS
10
215.861
20
-105.359
11
215.544
21
-105.737
0
LINE
8
BLACK
6
CONTINUOUS
10
215.544
20
-105.737
11
215.116
21
-105.984
0
LINE
8
BLACK
6
CONTINUOUS
10
215.116
20
-105.984
11
214.63
21
-106.07
0
LINE
8
BLACK
6
CONTINUOUS
10
214.63
20
-106.07
11
214.144
21
-105.984
0
LINE
8
BLACK
6
CONTINUOUS
10
214.144
20
-105.984
11
213.716
21
-105.737
0
LINE
8
BLACK
6
CONTINUOUS
10
213.716
20
-105.737
11
213.399
21
-105.359
0
LINE
8
BLACK
6
CONTINUOUS
10
213.399
20
-105.359
11
213.23
21
-104.895
0
LINE
8
BLACK
6
CONTINUOUS
10
213.23
20
-104.895
11
213.23
21
-104.401
0
LINE
8
BLACK
6
CONTINUOUS
10
213.23
20
-104.401
11
213.399
21
-103.937
0
LINE
8
BLACK
6
CONTINUOUS
10
213.399
20
-103.937
11
213.716
21
-103.559
0
LINE
8
BLACK
6
CONTINUOUS
10
213.716
20
-103.559
11
214.144
21
-103.312
0
LINE
8
BLACK
6
CONTINUOUS
10
214.144
20
-103.312
11
214.63
21
-103.226
0
LINE
8
BLACK
6
CONTINUOUS
10
214.63
20
-103.226
11
215.116
21
-103.312
0
LINE
8
BLACK
6
CONTINUOUS
10
189.716
20
-103.312
11
190.144
21
-103.559
0
LINE
8
BLACK
6
CONTINUOUS
10
190.144
20
-103.559
11
190.461
21
-103.937
0
LINE
8
BLACK
6
CONTINUOUS
10
190.461
20
-103.937
11
190.63
21
-104.401
0
LINE
8
BLACK
6
CONTINUOUS
10
190.63
20
-104.401
11
190.63
21
-104.895
0
LINE
8
BLACK
6
CONTINUOUS
10
190.63
20
-104.895
11
190.461
21
-105.359
0
LINE
8
BLACK
6
CONTINUOUS
10
190.461
20
-105.359
11
190.144
21
-105.737
0
LINE
8
BLACK
6
CONTINUOUS
10
190.144
20
-105.737
11
189.716
21
-105.984
0
LINE
8
BLACK
6
CONTINUOUS
10
189.716
20
-105.984
11
189.23
21
-106.07
0
LINE
8
BLACK
6
CONTINUOUS
10
189.23
20
-106.07
11
188.744
21
-105.984
0
LINE
8
BLACK
6
CONTINUOUS
10
188.744
20
-105.984
11
188.316
21
-105.737
0
LINE
8
BLACK
6
CONTINUOUS
10
188.316
20
-105.737
11
187.999
21
-105.359
0
LINE
8
BLACK
6
CONTINUOUS
10
187.999
20
-105.359
11
187.83
21
-104.895
0
LINE
8
BLACK
6
CONTINUOUS
10
187.83
20
-104.895
11
187.83
21
-104.401
0
LINE
8
BLACK
6
CONTINUOUS
10
187.83
20
-104.401
11
187.999
21
-103.937
0
LINE
8
BLACK
6
CONTINUOUS
10
187.999
20
-103.937
11
188.316
21
-103.559
0
LINE
8
BLACK
6
CONTINUOUS
10
188.316
20
-103.559
11
188.744
21
-103.312
0
LINE
8
BLACK
6
CONTINUOUS
10
188.744
20
-103.312
11
189.23
21
-103.226
0
LINE
8
BLACK
6
CONTINUOUS
10
189.23
20
-103.226
11
189.716
21
-103.312
0
LINE
8
BLACK
6
CONTINUOUS
10
202.416
20
-103.312
11
202.844
21
-103.559
0
LINE
8
BLACK
6
CONTINUOUS
10
202.844
20
-103.559
11
203.161
21
-103.937
0
LINE
8
BLACK
6
CONTINUOUS
10
203.161
20
-103.937
11
203.33
21
-104.401
0
LINE
8
BLACK
6
CONTINUOUS
10
203.33
20
-104.401
11
203.33
21
-104.895
0
LINE
8
BLACK
6
CONTINUOUS
10
203.33
20
-104.895
11
203.161
21
-105.359
0
LINE
8
BLACK
6
CONTINUOUS
10
203.161
20
-105.359
11
202.844
21
-105.737
0
LINE
8
BLACK
6
CONTINUOUS
10
202.844
20
-105.737
11
202.416
21
-105.984
0
LINE
8
BLACK
6
CONTINUOUS
10
202.416
20
-105.984
11
201.93
21
-106.07
0
LINE
8
BLACK
6
CONTINUOUS
10
201.93
20
-106.07
11
201.444
21
-105.984
0
LINE
8
BLACK
6
CONTINUOUS
10
201.444
20
-105.984
11
201.016
21
-105.737
0
LINE
8
BLACK
6
CONTINUOUS
10
201.016
20
-105.737
11
200.699
21
-105.359
0
LINE
8
BLACK
6
CONTINUOUS
10
200.699
20
-105.359
11
200.53
21
-104.895
0
LINE
8
BLACK
6
CONTINUOUS
10
200.53
20
-104.895
11
200.53
21
-104.401
0
LINE
8
BLACK
6
CONTINUOUS
10
200.53
20
-104.401
11
200.699
21
-103.937
0
LINE
8
BLACK
6
CONTINUOUS
10
200.699
20
-103.937
11
201.016
21
-103.559
0
LINE
8
BLACK
6
CONTINUOUS
10
201.016
20
-103.559
11
201.444
21
-103.312
0
LINE
8
BLACK
6
CONTINUOUS
10
201.444
20
-103.312
11
201.93
21
-103.226
0
LINE
8
BLACK
6
CONTINUOUS
10
201.93
20
-103.226
11
202.416
21
-103.312
0
LINE
8
BLACK
6
CONTINUOUS
10
105.744
20
-102.968
11
106.038
21
-103.138
0
LINE
8
BLACK
6
CONTINUOUS
10
106.038
20
-103.138
11
106.256
21
-103.398
0
LINE
8
BLACK
6
CONTINUOUS
10
106.256
20
-103.398
11
106.372
21
-103.716
0
LINE
8
BLACK
6
CONTINUOUS
10
106.372
20
-103.716
11
106.372
21
-104.056
0
LINE
8
BLACK
6
CONTINUOUS
10
106.372
20
-104.056
11
106.256
21
-104.374
0
LINE
8
BLACK
6
CONTINUOUS
10
106.256
20
-104.374
11
106.038
21
-104.634
0
LINE
8
BLACK
6
CONTINUOUS
10
106.038
20
-104.634
11
105.744
21
-104.804
0
LINE
8
BLACK
6
CONTINUOUS
10
105.744
20
-104.804
11
105.41
21
-104.863
0
LINE
8
BLACK
6
CONTINUOUS
10
105.41
20
-104.863
11
105.076
21
-104.804
0
LINE
8
BLACK
6
CONTINUOUS
10
105.076
20
-104.804
11
104.782
21
-104.634
0
LINE
8
BLACK
6
CONTINUOUS
10
104.782
20
-104.634
11
104.564
21
-104.374
0
LINE
8
BLACK
6
CONTINUOUS
10
104.564
20
-104.374
11
104.448
21
-104.056
0
LINE
8
BLACK
6
CONTINUOUS
10
104.448
20
-104.056
11
104.448
21
-103.716
0
LINE
8
BLACK
6
CONTINUOUS
10
104.448
20
-103.716
11
104.564
21
-103.398
0
LINE
8
BLACK
6
CONTINUOUS
10
104.564
20
-103.398
11
104.782
21
-103.138
0
LINE
8
BLACK
6
CONTINUOUS
10
104.782
20
-103.138
11
105.076
21
-102.968
0
LINE
8
BLACK
6
CONTINUOUS
10
105.076
20
-102.968
11
105.41
21
-102.909
0
LINE
8
BLACK
6
CONTINUOUS
10
105.41
20
-102.909
11
105.744
21
-102.968
0
LINE
8
BLACK
6
CONTINUOUS
10
93.1338
20
-102.869
11
93.3782
21
-103.01
0
LINE
8
BLACK
6
CONTINUOUS
10
93.3782
20
-103.01
11
93.5595
21
-103.226
0
LINE
8
BLACK
6
CONTINUOUS
10
93.5595
20
-103.226
11
93.656
21
-103.491
0
LINE
8
BLACK
6
CONTINUOUS
10
93.656
20
-103.491
11
93.656
21
-103.773
0
LINE
8
BLACK
6
CONTINUOUS
10
93.656
20
-103.773
11
93.5595
21
-104.038
0
LINE
8
BLACK
6
CONTINUOUS
10
93.5595
20
-104.038
11
93.3782
21
-104.254
0
LINE
8
BLACK
6
CONTINUOUS
10
93.3782
20
-104.254
11
93.1338
21
-104.395
0
LINE
8
BLACK
6
CONTINUOUS
10
93.1338
20
-104.395
11
92.926
21
-104.432
0
LINE
8
BLACK
6
CONTINUOUS
10
92.926
20
-104.432
11
91.986
21
-104.432
0
LINE
8
BLACK
6
CONTINUOUS
10
91.986
20
-104.432
11
91.7782
21
-104.395
0
LINE
8
BLACK
6
CONTINUOUS
10
91.7782
20
-104.395
11
91.5338
21
-104.254
0
LINE
8
BLACK
6
CONTINUOUS
10
91.5338
20
-104.254
11
91.3525
21
-104.038
0
LINE
8
BLACK
6
CONTINUOUS
10
91.3525
20
-104.038
11
91.256
21
-103.773
0
LINE
8
BLACK
6
CONTINUOUS
10
91.256
20
-103.773
11
91.256
21
-103.491
0
LINE
8
BLACK
6
CONTINUOUS
10
91.256
20
-103.491
11
91.3525
21
-103.226
0
LINE
8
BLACK
6
CONTINUOUS
10
91.3525
20
-103.226
11
91.5338
21
-103.01
0
LINE
8
BLACK
6
CONTINUOUS
10
91.5338
20
-103.01
11
91.7782
21
-102.869
0
LINE
8
BLACK
6
CONTINUOUS
10
91.7782
20
-102.869
11
91.986
21
-102.832
0
LINE
8
BLACK
6
CONTINUOUS
10
91.986
20
-102.832
11
92.926
21
-102.832
0
LINE
8
BLACK
6
CONTINUOUS
10
92.926
20
-102.832
11
93.1338
21
-102.869
0
LINE
8
BLACK
6
CONTINUOUS
10
154.227
20
-98.2617
11
155.051
21
-98.7378
0
LINE
8
BLACK
6
CONTINUOUS
10
155.051
20
-98.7378
11
155.663
21
-99.4672
0
LINE
8
BLACK
6
CONTINUOUS
10
155.663
20
-99.4672
11
155.989
21
-100.362
0
LINE
8
BLACK
6
CONTINUOUS
10
155.989
20
-100.362
11
155.989
21
-101.314
0
LINE
8
BLACK
6
CONTINUOUS
10
155.989
20
-101.314
11
155.663
21
-102.209
0
LINE
8
BLACK
6
CONTINUOUS
10
155.663
20
-102.209
11
155.051
21
-102.938
0
LINE
8
BLACK
6
CONTINUOUS
10
155.051
20
-102.938
11
154.227
21
-103.414
0
LINE
8
BLACK
6
CONTINUOUS
10
154.227
20
-103.414
11
153.289
21
-103.58
0
LINE
8
BLACK
6
CONTINUOUS
10
153.289
20
-103.58
11
152.351
21
-103.414
0
LINE
8
BLACK
6
CONTINUOUS
10
152.351
20
-103.414
11
151.527
21
-102.938
0
LINE
8
BLACK
6
CONTINUOUS
10
151.527
20
-102.938
11
150.915
21
-102.209
0
LINE
8
BLACK
6
CONTINUOUS
10
150.915
20
-102.209
11
150.589
21
-101.314
0
LINE
8
BLACK
6
CONTINUOUS
10
150.589
20
-101.314
11
150.589
21
-100.362
0
LINE
8
BLACK
6
CONTINUOUS
10
150.589
20
-100.362
11
150.915
21
-99.4672
0
LINE
8
BLACK
6
CONTINUOUS
10
150.915
20
-99.4672
11
151.527
21
-98.7378
0
LINE
8
BLACK
6
CONTINUOUS
10
151.527
20
-98.7378
11
152.351
21
-98.2617
0
LINE
8
BLACK
6
CONTINUOUS
10
152.351
20
-98.2617
11
153.289
21
-98.0963
0
LINE
8
BLACK
6
CONTINUOUS
10
153.289
20
-98.0963
11
154.227
21
-98.2617
0
LINE
8
BLACK
6
CONTINUOUS
10
125.144
20
-98.2617
11
125.968
21
-98.7378
0
LINE
8
BLACK
6
CONTINUOUS
10
125.968
20
-98.7378
11
126.58
21
-99.4672
0
LINE
8
BLACK
6
CONTINUOUS
10
126.58
20
-99.4672
11
126.906
21
-100.362
0
LINE
8
BLACK
6
CONTINUOUS
10
126.906
20
-100.362
11
126.906
21
-101.314
0
LINE
8
BLACK
6
CONTINUOUS
10
126.906
20
-101.314
11
126.58
21
-102.209
0
LINE
8
BLACK
6
CONTINUOUS
10
126.58
20
-102.209
11
125.968
21
-102.938
0
LINE
8
BLACK
6
CONTINUOUS
10
125.968
20
-102.938
11
125.144
21
-103.414
0
LINE
8
BLACK
6
CONTINUOUS
10
125.144
20
-103.414
11
124.206
21
-103.58
0
LINE
8
BLACK
6
CONTINUOUS
10
124.206
20
-103.58
11
123.268
21
-103.414
0
LINE
8
BLACK
6
CONTINUOUS
10
123.268
20
-103.414
11
122.444
21
-102.938
0
LINE
8
BLACK
6
CONTINUOUS
10
122.444
20
-102.938
11
121.832
21
-102.209
0
LINE
8
BLACK
6
CONTINUOUS
10
121.832
20
-102.209
11
121.506
21
-101.314
0
LINE
8
BLACK
6
CONTINUOUS
10
121.506
20
-101.314
11
121.506
21
-100.362
0
LINE
8
BLACK
6
CONTINUOUS
10
121.506
20
-100.362
11
121.832
21
-99.4672
0
LINE
8
BLACK
6
CONTINUOUS
10
121.832
20
-99.4672
11
122.444
21
-98.7378
0
LINE
8
BLACK
6
CONTINUOUS
10
122.444
20
-98.7378
11
123.268
21
-98.2617
0
LINE
8
BLACK
6
CONTINUOUS
10
123.268
20
-98.2617
11
124.206
21
-98.0963
0
LINE
8
BLACK
6
CONTINUOUS
10
124.206
20
-98.0963
11
125.144
21
-98.2617
0
LINE
8
BLACK
6
CONTINUOUS
10
105.744
20
-100.428
11
106.038
21
-100.598
0
LINE
8
BLACK
6
CONTINUOUS
10
106.038
20
-100.598
11
106.256
21
-100.858
0
LINE
8
BLACK
6
CONTINUOUS
10
106.256
20
-100.858
11
106.372
21
-101.176
0
LINE
8
BLACK
6
CONTINUOUS
10
106.372
20
-101.176
11
106.372
21
-101.516
0
LINE
8
BLACK
6
CONTINUOUS
10
106.372
20
-101.516
11
106.256
21
-101.834
0
LINE
8
BLACK
6
CONTINUOUS
10
106.256
20
-101.834
11
106.038
21
-102.094
0
LINE
8
BLACK
6
CONTINUOUS
10
106.038
20
-102.094
11
105.744
21
-102.264
0
LINE
8
BLACK
6
CONTINUOUS
10
105.744
20
-102.264
11
105.41
21
-102.323
0
LINE
8
BLACK
6
CONTINUOUS
10
105.41
20
-102.323
11
105.076
21
-102.264
0
LINE
8
BLACK
6
CONTINUOUS
10
105.076
20
-102.264
11
104.782
21
-102.094
0
LINE
8
BLACK
6
CONTINUOUS
10
104.782
20
-102.094
11
104.564
21
-101.834
0
LINE
8
BLACK
6
CONTINUOUS
10
104.564
20
-101.834
11
104.448
21
-101.516
0
LINE
8
BLACK
6
CONTINUOUS
10
104.448
20
-101.516
11
104.448
21
-101.176
0
LINE
8
BLACK
6
CONTINUOUS
10
104.448
20
-101.176
11
104.564
21
-100.858
0
LINE
8
BLACK
6
CONTINUOUS
10
104.564
20
-100.858
11
104.782
21
-100.598
0
LINE
8
BLACK
6
CONTINUOUS
10
104.782
20
-100.598
11
105.076
21
-100.428
0
LINE
8
BLACK
6
CONTINUOUS
10
105.076
20
-100.428
11
105.41
21
-100.369
0
LINE
8
BLACK
6
CONTINUOUS
10
105.41
20
-100.369
11
105.744
21
-100.428
0
LINE
8
BLACK
6
CONTINUOUS
10
93.1338
20
-100.329
11
93.3782
21
-100.47
0
LINE
8
BLACK
6
CONTINUOUS
10
93.3782
20
-100.47
11
93.5595
21
-100.686
0
LINE
8
BLACK
6
CONTINUOUS
10
93.5595
20
-100.686
11
93.656
21
-100.951
0
LINE
8
BLACK
6
CONTINUOUS
10
93.656
20
-100.951
11
93.656
21
-101.233
0
LINE
8
BLACK
6
CONTINUOUS
10
93.656
20
-101.233
11
93.5595
21
-101.498
0
LINE
8
BLACK
6
CONTINUOUS
10
93.5595
20
-101.498
11
93.3782
21
-101.714
0
LINE
8
BLACK
6
CONTINUOUS
10
93.3782
20
-101.714
11
93.1338
21
-101.855
0
LINE
8
BLACK
6
CONTINUOUS
10
93.1338
20
-101.855
11
92.926
21
-101.892
0
LINE
8
BLACK
6
CONTINUOUS
10
92.926
20
-101.892
11
91.986
21
-101.892
0
LINE
8
BLACK
6
CONTINUOUS
10
91.986
20
-101.892
11
91.7782
21
-101.855
0
LINE
8
BLACK
6
CONTINUOUS
10
91.7782
20
-101.855
11
91.5338
21
-101.714
0
LINE
8
BLACK
6
CONTINUOUS
10
91.5338
20
-101.714
11
91.3525
21
-101.498
0
LINE
8
BLACK
6
CONTINUOUS
10
91.3525
20
-101.498
11
91.256
21
-101.233
0
LINE
8
BLACK
6
CONTINUOUS
10
91.256
20
-101.233
11
91.256
21
-100.951
0
LINE
8
BLACK
6
CONTINUOUS
10
91.256
20
-100.951
11
91.3525
21
-100.686
0
LINE
8
BLACK
6
CONTINUOUS
10
91.3525
20
-100.686
11
91.5338
21
-100.47
0
LINE
8
BLACK
6
CONTINUOUS
10
91.5338
20
-100.47
11
91.7782
21
-100.329
0
LINE
8
BLACK
6
CONTINUOUS
10
91.7782
20
-100.329
11
91.986
21
-100.292
0
LINE
8
BLACK
6
CONTINUOUS
10
91.986
20
-100.292
11
92.926
21
-100.292
0
LINE
8
BLACK
6
CONTINUOUS
10
92.926
20
-100.292
11
93.1338
21
-100.329
0
LINE
8
BLACK
6
CONTINUOUS
10
163.914
20
-100.459
11
161.714
21
-100.459
0
LINE
8
BLACK
6
CONTINUOUS
10
161.714
20
-100.459
11
161.714
21
-98.664
0
LINE
8
BLACK
6
CONTINUOUS
10
161.714
20
-98.664
11
163.914
21
-98.664
0
LINE
8
BLACK
6
CONTINUOUS
10
163.914
20
-98.664
11
163.914
21
-100.459
0
LINE
8
BLACK
6
CONTINUOUS
10
170.254
20
-99.594
11
166.354
21
-99.594
0
LINE
8
BLACK
6
CONTINUOUS
10
166.354
20
-99.594
11
166.354
21
-96.494
0
LINE
8
BLACK
6
CONTINUOUS
10
166.354
20
-96.494
11
170.254
21
-96.494
0
LINE
8
BLACK
6
CONTINUOUS
10
170.254
20
-96.494
11
170.254
21
-99.594
0
LINE
8
BLACK
6
CONTINUOUS
10
177.054
20
-99.594
11
173.154
21
-99.594
0
LINE
8
BLACK
6
CONTINUOUS
10
173.154
20
-99.594
11
173.154
21
-96.494
0
LINE
8
BLACK
6
CONTINUOUS
10
173.154
20
-96.494
11
177.054
21
-96.494
0
LINE
8
BLACK
6
CONTINUOUS
10
177.054
20
-96.494
11
177.054
21
-99.594
0
LINE
8
BLACK
6
CONTINUOUS
10
93.1338
20
-97.7886
11
93.3782
21
-97.9297
0
LINE
8
BLACK
6
CONTINUOUS
10
93.3782
20
-97.9297
11
93.5595
21
-98.1458
0
LINE
8
BLACK
6
CONTINUOUS
10
93.5595
20
-98.1458
11
93.656
21
-98.4109
0
LINE
8
BLACK
6
CONTINUOUS
10
93.656
20
-98.4109
11
93.656
21
-98.6931
0
LINE
8
BLACK
6
CONTINUOUS
10
93.656
20
-98.6931
11
93.5595
21
-98.9582
0
LINE
8
BLACK
6
CONTINUOUS
10
93.5595
20
-98.9582
11
93.3782
21
-99.1743
0
LINE
8
BLACK
6
CONTINUOUS
10
93.3782
20
-99.1743
11
93.1338
21
-99.3154
0
LINE
8
BLACK
6
CONTINUOUS
10
93.1338
20
-99.3154
11
92.926
21
-99.352
0
LINE
8
BLACK
6
CONTINUOUS
10
92.926
20
-99.352
11
91.986
21
-99.352
0
LINE
8
BLACK
6
CONTINUOUS
10
91.986
20
-99.352
11
91.7782
21
-99.3154
0
LINE
8
BLACK
6
CONTINUOUS
10
91.7782
20
-99.3154
11
91.5338
21
-99.1743
0
LINE
8
BLACK
6
CONTINUOUS
10
91.5338
20
-99.1743
11
91.3525
21
-98.9582
0
LINE
8
BLACK
6
CONTINUOUS
10
91.3525
20
-98.9582
11
91.256
21
-98.6931
0
LINE
8
BLACK
6
CONTINUOUS
10
91.256
20
-98.6931
11
91.256
21
-98.4109
0
LINE
8
BLACK
6
CONTINUOUS
10
91.256
20
-98.4109
11
91.3525
21
-98.1458
0
LINE
8
BLACK
6
CONTINUOUS
10
91.3525
20
-98.1458
11
91.5338
21
-97.9297
0
LINE
8
BLACK
6
CONTINUOUS
10
91.5338
20
-97.9297
11
91.7782
21
-97.7886
0
LINE
8
BLACK
6
CONTINUOUS
10
91.7782
20
-97.7886
11
91.986
21
-97.752
0
LINE
8
BLACK
6
CONTINUOUS
10
91.986
20
-97.752
11
92.926
21
-97.752
0
LINE
8
BLACK
6
CONTINUOUS
10
92.926
20
-97.752
11
93.1338
21
-97.7886
0
LINE
8
BLACK
6
CONTINUOUS
10
105.744
20
-96.6181
11
106.038
21
-96.7877
0
LINE
8
BLACK
6
CONTINUOUS
10
106.038
20
-96.7877
11
106.256
21
-97.0476
0
LINE
8
BLACK
6
CONTINUOUS
10
106.256
20
-97.0476
11
106.372
21
-97.3664
0
LINE
8
BLACK
6
CONTINUOUS
10
106.372
20
-97.3664
11
106.372
21
-97.7056
0
LINE
8
BLACK
6
CONTINUOUS
10
106.372
20
-97.7056
11
106.256
21
-98.0244
0
LINE
8
BLACK
6
CONTINUOUS
10
106.256
20
-98.0244
11
106.038
21
-98.2843
0
LINE
8
BLACK
6
CONTINUOUS
10
106.038
20
-98.2843
11
105.744
21
-98.4539
0
LINE
8
BLACK
6
CONTINUOUS
10
105.744
20
-98.4539
11
105.41
21
-98.5128
0
LINE
8
BLACK
6
CONTINUOUS
10
105.41
20
-98.5128
11
105.076
21
-98.4539
0
LINE
8
BLACK
6
CONTINUOUS
10
105.076
20
-98.4539
11
104.782
21
-98.2843
0
LINE
8
BLACK
6
CONTINUOUS
10
104.782
20
-98.2843
11
104.564
21
-98.0244
0
LINE
8
BLACK
6
CONTINUOUS
10
104.564
20
-98.0244
11
104.448
21
-97.7056
0
LINE
8
BLACK
6
CONTINUOUS
10
104.448
20
-97.7056
11
104.448
21
-97.3664
0
LINE
8
BLACK
6
CONTINUOUS
10
104.448
20
-97.3664
11
104.564
21
-97.0476
0
LINE
8
BLACK
6
CONTINUOUS
10
104.564
20
-97.0476
11
104.782
21
-96.7877
0
LINE
8
BLACK
6
CONTINUOUS
10
104.782
20
-96.7877
11
105.076
21
-96.6181
0
LINE
8
BLACK
6
CONTINUOUS
10
105.076
20
-96.6181
11
105.41
21
-96.5592
0
LINE
8
BLACK
6
CONTINUOUS
10
105.41
20
-96.5592
11
105.744
21
-96.6181
0
LINE
8
BLACK
6
CONTINUOUS
10
163.914
20
-97.424
11
161.714
21
-97.424
0
LINE
8
BLACK
6
CONTINUOUS
10
161.714
20
-97.424
11
161.714
21
-95.629
0
LINE
8
BLACK
6
CONTINUOUS
10
161.714
20
-95.629
11
163.914
21
-95.629
0
LINE
8
BLACK
6
CONTINUOUS
10
163.914
20
-95.629
11
163.914
21
-97.424
0
LINE
8
BLACK
6
CONTINUOUS
10
93.1338
20
-95.2486
11
93.3782
21
-95.3897
0
LINE
8
BLACK
6
CONTINUOUS
10
93.3782
20
-95.3897
11
93.5595
21
-95.6058
0
LINE
8
BLACK
6
CONTINUOUS
10
93.5595
20
-95.6058
11
93.656
21
-95.8709
0
LINE
8
BLACK
6
CONTINUOUS
10
93.656
20
-95.8709
11
93.656
21
-96.1531
0
LINE
8
BLACK
6
CONTINUOUS
10
93.656
20
-96.1531
11
93.5595
21
-96.4182
0
LINE
8
BLACK
6
CONTINUOUS
10
93.5595
20
-96.4182
11
93.3782
21
-96.6343
0
LINE
8
BLACK
6
CONTINUOUS
10
93.3782
20
-96.6343
11
93.1338
21
-96.7754
0
LINE
8
BLACK
6
CONTINUOUS
10
93.1338
20
-96.7754
11
92.926
21
-96.812
0
LINE
8
BLACK
6
CONTINUOUS
10
92.926
20
-96.812
11
91.986
21
-96.812
0
LINE
8
BLACK
6
CONTINUOUS
10
91.986
20
-96.812
11
91.7782
21
-96.7754
0
LINE
8
BLACK
6
CONTINUOUS
10
91.7782
20
-96.7754
11
91.5338
21
-96.6343
0
LINE
8
BLACK
6
CONTINUOUS
10
91.5338
20
-96.6343
11
91.3525
21
-96.4182
0
LINE
8
BLACK
6
CONTINUOUS
10
91.3525
20
-96.4182
11
91.256
21
-96.1531
0
LINE
8
BLACK
6
CONTINUOUS
10
91.256
20
-96.1531
11
91.256
21
-95.8709
0
LINE
8
BLACK
6
CONTINUOUS
10
91.256
20
-95.8709
11
91.3525
21
-95.6058
0
LINE
8
BLACK
6
CONTINUOUS
10
91.3525
20
-95.6058
11
91.5338
21
-95.3897
0
LINE
8
BLACK
6
CONTINUOUS
10
91.5338
20
-95.3897
11
91.7782
21
-95.2486
0
LINE
8
BLACK
6
CONTINUOUS
10
91.7782
20
-95.2486
11
91.986
21
-95.212
0
LINE
8
BLACK
6
CONTINUOUS
10
91.986
20
-95.212
11
92.926
21
-95.212
0
LINE
8
BLACK
6
CONTINUOUS
10
92.926
20
-95.212
11
93.1338
21
-95.2486
0
LINE
8
BLACK
6
CONTINUOUS
10
105.744
20
-94.0781
11
106.038
21
-94.2477
0
LINE
8
BLACK
6
CONTINUOUS
10
106.038
20
-94.2477
11
106.256
21
-94.5076
0
LINE
8
BLACK
6
CONTINUOUS
10
106.256
20
-94.5076
11
106.372
21
-94.8264
0
LINE
8
BLACK
6
CONTINUOUS
10
106.372
20
-94.8264
11
106.372
21
-95.1656
0
LINE
8
BLACK
6
CONTINUOUS
10
106.372
20
-95.1656
11
106.256
21
-95.4844
0
LINE
8
BLACK
6
CONTINUOUS
10
106.256
20
-95.4844
11
106.038
21
-95.7443
0
LINE
8
BLACK
6
CONTINUOUS
10
106.038
20
-95.7443
11
105.744
21
-95.9139
0
LINE
8
BLACK
6
CONTINUOUS
10
105.744
20
-95.9139
11
105.41
21
-95.9728
0
LINE
8
BLACK
6
CONTINUOUS
10
105.41
20
-95.9728
11
105.076
21
-95.9139
0
LINE
8
BLACK
6
CONTINUOUS
10
105.076
20
-95.9139
11
104.782
21
-95.7443
0
LINE
8
BLACK
6
CONTINUOUS
10
104.782
20
-95.7443
11
104.564
21
-95.4844
0
LINE
8
BLACK
6
CONTINUOUS
10
104.564
20
-95.4844
11
104.448
21
-95.1656
0
LINE
8
BLACK
6
CONTINUOUS
10
104.448
20
-95.1656
11
104.448
21
-94.8264
0
LINE
8
BLACK
6
CONTINUOUS
10
104.448
20
-94.8264
11
104.564
21
-94.5076
0
LINE
8
BLACK
6
CONTINUOUS
10
104.564
20
-94.5076
11
104.782
21
-94.2477
0
LINE
8
BLACK
6
CONTINUOUS
10
104.782
20
-94.2477
11
105.076
21
-94.0781
0
LINE
8
BLACK
6
CONTINUOUS
10
105.076
20
-94.0781
11
105.41
21
-94.0192
0
LINE
8
BLACK
6
CONTINUOUS
10
105.41
20
-94.0192
11
105.744
21
-94.0781
0
LINE
8
BLACK
6
CONTINUOUS
10
93.1338
20
-92.7086
11
93.3782
21
-92.8497
0
LINE
8
BLACK
6
CONTINUOUS
10
93.3782
20
-92.8497
11
93.5595
21
-93.0658
0
LINE
8
BLACK
6
CONTINUOUS
10
93.5595
20
-93.0658
11
93.656
21
-93.3309
0
LINE
8
BLACK
6
CONTINUOUS
10
93.656
20
-93.3309
11
93.656
21
-93.6131
0
LINE
8
BLACK
6
CONTINUOUS
10
93.656
20
-93.6131
11
93.5595
21
-93.8782
0
LINE
8
BLACK
6
CONTINUOUS
10
93.5595
20
-93.8782
11
93.3782
21
-94.0943
0
LINE
8
BLACK
6
CONTINUOUS
10
93.3782
20
-94.0943
11
93.1338
21
-94.2354
0
LINE
8
BLACK
6
CONTINUOUS
10
93.1338
20
-94.2354
11
92.926
21
-94.272
0
LINE
8
BLACK
6
CONTINUOUS
10
92.926
20
-94.272
11
91.986
21
-94.272
0
LINE
8
BLACK
6
CONTINUOUS
10
91.986
20
-94.272
11
91.7782
21
-94.2354
0
LINE
8
BLACK
6
CONTINUOUS
10
91.7782
20
-94.2354
11
91.5338
21
-94.0943
0
LINE
8
BLACK
6
CONTINUOUS
10
91.5338
20
-94.0943
11
91.3525
21
-93.8782
0
LINE
8
BLACK
6
CONTINUOUS
10
91.3525
20
-93.8782
11
91.256
21
-93.6131
0
LINE
8
BLACK
6
CONTINUOUS
10
91.256
20
-93.6131
11
91.256
21
-93.3309
0
LINE
8
BLACK
6
CONTINUOUS
10
91.256
20
-93.3309
11
91.3525
21
-93.0658
0
LINE
8
BLACK
6
CONTINUOUS
10
91.3525
20
-93.0658
11
91.5338
21
-92.8497
0
LINE
8
BLACK
6
CONTINUOUS
10
91.5338
20
-92.8497
11
91.7782
21
-92.7086
0
LINE
8
BLACK
6
CONTINUOUS
10
91.7782
20
-92.7086
11
91.986
21
-92.672
0
LINE
8
BLACK
6
CONTINUOUS
10
91.986
20
-92.672
11
92.926
21
-92.672
0
LINE
8
BLACK
6
CONTINUOUS
10
92.926
20
-92.672
11
93.1338
21
-92.7086
0
LINE
8
BLACK
6
CONTINUOUS
10
105.744
20
-91.5381
11
106.038
21
-91.7077
0
LINE
8
BLACK
6
CONTINUOUS
10
106.038
20
-91.7077
11
106.256
21
-91.9676
0
LINE
8
BLACK
6
CONTINUOUS
10
106.256
20
-91.9676
11
106.372
21
-92.2864
0
LINE
8
BLACK
6
CONTINUOUS
10
106.372
20
-92.2864
11
106.372
21
-92.6256
0
LINE
8
BLACK
6
CONTINUOUS
10
106.372
20
-92.6256
11
106.256
21
-92.9444
0
LINE
8
BLACK
6
CONTINUOUS
10
106.256
20
-92.9444
11
106.038
21
-93.2043
0
LINE
8
BLACK
6
CONTINUOUS
10
106.038
20
-93.2043
11
105.744
21
-93.3739
0
LINE
8
BLACK
6
CONTINUOUS
10
105.744
20
-93.3739
11
105.41
21
-93.4328
0
LINE
8
BLACK
6
CONTINUOUS
10
105.41
20
-93.4328
11
105.076
21
-93.3739
0
LINE
8
BLACK
6
CONTINUOUS
10
105.076
20
-93.3739
11
104.782
21
-93.2043
0
LINE
8
BLACK
6
CONTINUOUS
10
104.782
20
-93.2043
11
104.564
21
-92.9444
0
LINE
8
BLACK
6
CONTINUOUS
10
104.564
20
-92.9444
11
104.448
21
-92.6256
0
LINE
8
BLACK
6
CONTINUOUS
10
104.448
20
-92.6256
11
104.448
21
-92.2864
0
LINE
8
BLACK
6
CONTINUOUS
10
104.448
20
-92.2864
11
104.564
21
-91.9676
0
LINE
8
BLACK
6
CONTINUOUS
10
104.564
20
-91.9676
11
104.782
21
-91.7077
0
LINE
8
BLACK
6
CONTINUOUS
10
104.782
20
-91.7077
11
105.076
21
-91.5381
0
LINE
8
BLACK
6
CONTINUOUS
10
105.076
20
-91.5381
11
105.41
21
-91.4792
0
LINE
8
BLACK
6
CONTINUOUS
10
105.41
20
-91.4792
11
105.744
21
-91.5381
0
LINE
8
BLACK
6
CONTINUOUS
10
86.1013
20
-88.6419
11
86.8343
21
-89.0651
0
LINE
8
BLACK
6
CONTINUOUS
10
86.8343
20
-89.0651
11
87.3783
21
-89.7135
0
LINE
8
BLACK
6
CONTINUOUS
10
87.3783
20
-89.7135
11
87.6678
21
-90.5088
0
LINE
8
BLACK
6
CONTINUOUS
10
87.6678
20
-90.5088
11
87.6678
21
-91.3552
0
LINE
8
BLACK
6
CONTINUOUS
10
87.6678
20
-91.3552
11
87.3783
21
-92.1505
0
LINE
8
BLACK
6
CONTINUOUS
10
87.3783
20
-92.1505
11
86.8343
21
-92.7989
0
LINE
8
BLACK
6
CONTINUOUS
10
86.8343
20
-92.7989
11
86.1013
21
-93.2221
0
LINE
8
BLACK
6
CONTINUOUS
10
86.1013
20
-93.2221
11
85.2678
21
-93.369
0
LINE
8
BLACK
6
CONTINUOUS
10
85.2678
20
-93.369
11
84.4343
21
-93.2221
0
LINE
8
BLACK
6
CONTINUOUS
10
84.4343
20
-93.2221
11
83.7013
21
-92.7989
0
LINE
8
BLACK
6
CONTINUOUS
10
83.7013
20
-92.7989
11
83.1573
21
-92.1505
0
LINE
8
BLACK
6
CONTINUOUS
10
83.1573
20
-92.1505
11
82.8678
21
-91.3552
0
LINE
8
BLACK
6
CONTINUOUS
10
82.8678
20
-91.3552
11
82.8678
21
-90.5088
0
LINE
8
BLACK
6
CONTINUOUS
10
82.8678
20
-90.5088
11
83.1573
21
-89.7135
0
LINE
8
BLACK
6
CONTINUOUS
10
83.1573
20
-89.7135
11
83.7013
21
-89.0651
0
LINE
8
BLACK
6
CONTINUOUS
10
83.7013
20
-89.0651
11
84.4343
21
-88.6419
0
LINE
8
BLACK
6
CONTINUOUS
10
84.4343
20
-88.6419
11
85.2678
21
-88.495
0
LINE
8
BLACK
6
CONTINUOUS
10
85.2678
20
-88.495
11
86.1013
21
-88.6419
0
LINE
8
BLACK
6
CONTINUOUS
10
173.129
20
-93.086
11
171.234
21
-93.086
0
LINE
8
BLACK
6
CONTINUOUS
10
171.234
20
-93.086
11
171.234
21
-89.286
0
LINE
8
BLACK
6
CONTINUOUS
10
171.234
20
-89.286
11
173.129
21
-89.286
0
LINE
8
BLACK
6
CONTINUOUS
10
173.129
20
-89.286
11
173.129
21
-93.086
0
LINE
8
BLACK
6
CONTINUOUS
10
167.094
20
-93.086
11
165.199
21
-93.086
0
LINE
8
BLACK
6
CONTINUOUS
10
165.199
20
-93.086
11
165.199
21
-89.286
0
LINE
8
BLACK
6
CONTINUOUS
10
165.199
20
-89.286
11
167.094
21
-89.286
0
LINE
8
BLACK
6
CONTINUOUS
10
167.094
20
-89.286
11
167.094
21
-93.086
0
LINE
8
BLACK
6
CONTINUOUS
10
178.588
20
-91.964
11
175.488
21
-91.964
0
LINE
8
BLACK
6
CONTINUOUS
10
175.488
20
-91.964
11
175.488
21
-88.064
0
LINE
8
BLACK
6
CONTINUOUS
10
175.488
20
-88.064
11
178.588
21
-88.064
0
LINE
8
BLACK
6
CONTINUOUS
10
178.588
20
-88.064
11
178.588
21
-91.964
0
LINE
8
BLACK
6
CONTINUOUS
10
93.1338
20
-90.1686
11
93.3782
21
-90.3097
0
LINE
8
BLACK
6
CONTINUOUS
10
93.3782
20
-90.3097
11
93.5595
21
-90.5258
0
LINE
8
BLACK
6
CONTINUOUS
10
93.5595
20
-90.5258
11
93.656
21
-90.7909
0
LINE
8
BLACK
6
CONTINUOUS
10
93.656
20
-90.7909
11
93.656
21
-91.0731
0
LINE
8
BLACK
6
CONTINUOUS
10
93.656
20
-91.0731
11
93.5595
21
-91.3382
0
LINE
8
BLACK
6
CONTINUOUS
10
93.5595
20
-91.3382
11
93.3782
21
-91.5543
0
LINE
8
BLACK
6
CONTINUOUS
10
93.3782
20
-91.5543
11
93.1338
21
-91.6954
0
LINE
8
BLACK
6
CONTINUOUS
10
93.1338
20
-91.6954
11
92.926
21
-91.732
0
LINE
8
BLACK
6
CONTINUOUS
10
92.926
20
-91.732
11
91.986
21
-91.732
0
LINE
8
BLACK
6
CONTINUOUS
10
91.986
20
-91.732
11
91.7782
21
-91.6954
0
LINE
8
BLACK
6
CONTINUOUS
10
91.7782
20
-91.6954
11
91.5338
21
-91.5543
0
LINE
8
BLACK
6
CONTINUOUS
10
91.5338
20
-91.5543
11
91.3525
21
-91.3382
0
LINE
8
BLACK
6
CONTINUOUS
10
91.3525
20
-91.3382
11
91.256
21
-91.0731
0
LINE
8
BLACK
6
CONTINUOUS
10
91.256
20
-91.0731
11
91.256
21
-90.7909
0
LINE
8
BLACK
6
CONTINUOUS
10
91.256
20
-90.7909
11
91.3525
21
-90.5258
0
LINE
8
BLACK
6
CONTINUOUS
10
91.3525
20
-90.5258
11
91.5338
21
-90.3097
0
LINE
8
BLACK
6
CONTINUOUS
10
91.5338
20
-90.3097
11
91.7782
21
-90.1686
0
LINE
8
BLACK
6
CONTINUOUS
10
91.7782
20
-90.1686
11
91.986
21
-90.132
0
LINE
8
BLACK
6
CONTINUOUS
10
91.986
20
-90.132
11
92.926
21
-90.132
0
LINE
8
BLACK
6
CONTINUOUS
10
92.926
20
-90.132
11
93.1338
21
-90.1686
0
LINE
8
BLACK
6
CONTINUOUS
10
105.744
20
-88.9981
11
106.038
21
-89.1677
0
LINE
8
BLACK
6
CONTINUOUS
10
106.038
20
-89.1677
11
106.256
21
-89.4276
0
LINE
8
BLACK
6
CONTINUOUS
10
106.256
20
-89.4276
11
106.372
21
-89.7464
0
LINE
8
BLACK
6
CONTINUOUS
10
106.372
20
-89.7464
11
106.372
21
-90.0856
0
LINE
8
BLACK
6
CONTINUOUS
10
106.372
20
-90.0856
11
106.256
21
-90.4044
0
LINE
8
BLACK
6
CONTINUOUS
10
106.256
20
-90.4044
11
106.038
21
-90.6643
0
LINE
8
BLACK
6
CONTINUOUS
10
106.038
20
-90.6643
11
105.744
21
-90.8339
0
LINE
8
BLACK
6
CONTINUOUS
10
105.744
20
-90.8339
11
105.41
21
-90.8928
0
LINE
8
BLACK
6
CONTINUOUS
10
105.41
20
-90.8928
11
105.076
21
-90.8339
0
LINE
8
BLACK
6
CONTINUOUS
10
105.076
20
-90.8339
11
104.782
21
-90.6643
0
LINE
8
BLACK
6
CONTINUOUS
10
104.782
20
-90.6643
11
104.564
21
-90.4044
0
LINE
8
BLACK
6
CONTINUOUS
10
104.564
20
-90.4044
11
104.448
21
-90.0856
0
LINE
8
BLACK
6
CONTINUOUS
10
104.448
20
-90.0856
11
104.448
21
-89.7464
0
LINE
8
BLACK
6
CONTINUOUS
10
104.448
20
-89.7464
11
104.564
21
-89.4276
0
LINE
8
BLACK
6
CONTINUOUS
10
104.564
20
-89.4276
11
104.782
21
-89.1677
0
LINE
8
BLACK
6
CONTINUOUS
10
104.782
20
-89.1677
11
105.076
21
-88.9981
0
LINE
8
BLACK
6
CONTINUOUS
10
105.076
20
-88.9981
11
105.41
21
-88.9392
0
LINE
8
BLACK
6
CONTINUOUS
10
105.41
20
-88.9392
11
105.744
21
-88.9981
0
LINE
8
BLACK
6
CONTINUOUS
10
93.1338
20
-87.6286
11
93.3782
21
-87.7697
0
LINE
8
BLACK
6
CONTINUOUS
10
93.3782
20
-87.7697
11
93.5595
21
-87.9858
0
LINE
8
BLACK
6
CONTINUOUS
10
93.5595
20
-87.9858
11
93.656
21
-88.2509
0
LINE
8
BLACK
6
CONTINUOUS
10
93.656
20
-88.2509
11
93.656
21
-88.5331
0
LINE
8
BLACK
6
CONTINUOUS
10
93.656
20
-88.5331
11
93.5595
21
-88.7982
0
LINE
8
BLACK
6
CONTINUOUS
10
93.5595
20
-88.7982
11
93.3782
21
-89.0143
0
LINE
8
BLACK
6
CONTINUOUS
10
93.3782
20
-89.0143
11
93.1338
21
-89.1554
0
LINE
8
BLACK
6
CONTINUOUS
10
93.1338
20
-89.1554
11
92.926
21
-89.192
0
LINE
8
BLACK
6
CONTINUOUS
10
92.926
20
-89.192
11
91.986
21
-89.192
0
LINE
8
BLACK
6
CONTINUOUS
10
91.986
20
-89.192
11
91.7782
21
-89.1554
0
LINE
8
BLACK
6
CONTINUOUS
10
91.7782
20
-89.1554
11
91.5338
21
-89.0143
0
LINE
8
BLACK
6
CONTINUOUS
10
91.5338
20
-89.0143
11
91.3525
21
-88.7982
0
LINE
8
BLACK
6
CONTINUOUS
10
91.3525
20
-88.7982
11
91.256
21
-88.5331
0
LINE
8
BLACK
6
CONTINUOUS
10
91.256
20
-88.5331
11
91.256
21
-88.2509
0
LINE
8
BLACK
6
CONTINUOUS
10
91.256
20
-88.2509
11
91.3525
21
-87.9858
0
LINE
8
BLACK
6
CONTINUOUS
10
91.3525
20
-87.9858
11
91.5338
21
-87.7697
0
LINE
8
BLACK
6
CONTINUOUS
10
91.5338
20
-87.7697
11
91.7782
21
-87.6286
0
LINE
8
BLACK
6
CONTINUOUS
10
91.7782
20
-87.6286
11
91.986
21
-87.592
0
LINE
8
BLACK
6
CONTINUOUS
10
91.986
20
-87.592
11
92.926
21
-87.592
0
LINE
8
BLACK
6
CONTINUOUS
10
92.926
20
-87.592
11
93.1338
21
-87.6286
0
LINE
8
BLACK
6
CONTINUOUS
10
105.744
20
-86.4581
11
106.038
21
-86.6277
0
LINE
8
BLACK
6
CONTINUOUS
10
106.038
20
-86.6277
11
106.256
21
-86.8876
0
LINE
8
BLACK
6
CONTINUOUS
10
106.256
20
-86.8876
11
106.372
21
-87.2064
0
LINE
8
BLACK
6
CONTINUOUS
10
106.372
20
-87.2064
11
106.372
21
-87.5456
0
LINE
8
BLACK
6
CONTINUOUS
10
106.372
20
-87.5456
11
106.256
21
-87.8644
0
LINE
8
BLACK
6
CONTINUOUS
10
106.256
20
-87.8644
11
106.038
21
-88.1243
0
LINE
8
BLACK
6
CONTINUOUS
10
106.038
20
-88.1243
11
105.744
21
-88.2939
0
LINE
8
BLACK
6
CONTINUOUS
10
105.744
20
-88.2939
11
105.41
21
-88.3528
0
LINE
8
BLACK
6
CONTINUOUS
10
105.41
20
-88.3528
11
105.076
21
-88.2939
0
LINE
8
BLACK
6
CONTINUOUS
10
105.076
20
-88.2939
11
104.782
21
-88.1243
0
LINE
8
BLACK
6
CONTINUOUS
10
104.782
20
-88.1243
11
104.564
21
-87.8644
0
LINE
8
BLACK
6
CONTINUOUS
10
104.564
20
-87.8644
11
104.448
21
-87.5456
0
LINE
8
BLACK
6
CONTINUOUS
10
104.448
20
-87.5456
11
104.448
21
-87.2064
0
LINE
8
BLACK
6
CONTINUOUS
10
104.448
20
-87.2064
11
104.564
21
-86.8876
0
LINE
8
BLACK
6
CONTINUOUS
10
104.564
20
-86.8876
11
104.782
21
-86.6277
0
LINE
8
BLACK
6
CONTINUOUS
10
104.782
20
-86.6277
11
105.076
21
-86.4581
0
LINE
8
BLACK
6
CONTINUOUS
10
105.076
20
-86.4581
11
105.41
21
-86.3992
0
LINE
8
BLACK
6
CONTINUOUS
10
105.41
20
-86.3992
11
105.744
21
-86.4581
0
LINE
8
BLACK
6
CONTINUOUS
10
173.82
20
-86.743
11
171.62
21
-86.743
0
LINE
8
BLACK
6
CONTINUOUS
10
171.62
20
-86.743
11
171.62
21
-84.948
0
LINE
8
BLACK
6
CONTINUOUS
10
171.62
20
-84.948
11
173.82
21
-84.948
0
LINE
8
BLACK
6
CONTINUOUS
10
173.82
20
-84.948
11
173.82
21
-86.743
0
LINE
8
BLACK
6
CONTINUOUS
10
93.1338
20
-85.0886
11
93.3782
21
-85.2297
0
LINE
8
BLACK
6
CONTINUOUS
10
93.3782
20
-85.2297
11
93.5595
21
-85.4458
0
LINE
8
BLACK
6
CONTINUOUS
10
93.5595
20
-85.4458
11
93.656
21
-85.7109
0
LINE
8
BLACK
6
CONTINUOUS
10
93.656
20
-85.7109
11
93.656
21
-85.9931
0
LINE
8
BLACK
6
CONTINUOUS
10
93.656
20
-85.9931
11
93.5595
21
-86.2582
0
LINE
8
BLACK
6
CONTINUOUS
10
93.5595
20
-86.2582
11
93.3782
21
-86.4743
0
LINE
8
BLACK
6
CONTINUOUS
10
93.3782
20
-86.4743
11
93.1338
21
-86.6154
0
LINE
8
BLACK
6
CONTINUOUS
10
93.1338
20
-86.6154
11
92.926
21
-86.652
0
LINE
8
BLACK
6
CONTINUOUS
10
92.926
20
-86.652
11
91.986
21
-86.652
0
LINE
8
BLACK
6
CONTINUOUS
10
91.986
20
-86.652
11
91.7782
21
-86.6154
0
LINE
8
BLACK
6
CONTINUOUS
10
91.7782
20
-86.6154
11
91.5338
21
-86.4743
0
LINE
8
BLACK
6
CONTINUOUS
10
91.5338
20
-86.4743
11
91.3525
21
-86.2582
0
LINE
8
BLACK
6
CONTINUOUS
10
91.3525
20
-86.2582
11
91.256
21
-85.9931
0
LINE
8
BLACK
6
CONTINUOUS
10
91.256
20
-85.9931
11
91.256
21
-85.7109
0
LINE
8
BLACK
6
CONTINUOUS
10
91.256
20
-85.7109
11
91.3525
21
-85.4458
0
LINE
8
BLACK
6
CONTINUOUS
10
91.3525
20
-85.4458
11
91.5338
21
-85.2297
0
LINE
8
BLACK
6
CONTINUOUS
10
91.5338
20
-85.2297
11
91.7782
21
-85.0886
0
LINE
8
BLACK
6
CONTINUOUS
10
91.7782
20
-85.0886
11
91.986
21
-85.052
0
LINE
8
BLACK
6
CONTINUOUS
10
91.986
20
-85.052
11
92.926
21
-85.052
0
LINE
8
BLACK
6
CONTINUOUS
10
92.926
20
-85.052
11
93.1338
21
-85.0886
0
LINE
8
BLACK
6
CONTINUOUS
10
169.319
20
-86.228
11
167.424
21
-86.228
0
LINE
8
BLACK
6
CONTINUOUS
10
167.424
20
-86.228
11
167.424
21
-82.428
0
LINE
8
BLACK
6
CONTINUOUS
10
167.424
20
-82.428
11
169.319
21
-82.428
0
LINE
8
BLACK
6
CONTINUOUS
10
169.319
20
-82.428
11
169.319
21
-86.228
0
LINE
8
BLACK
6
CONTINUOUS
10
163.284
20
-86.228
11
161.389
21
-86.228
0
LINE
8
BLACK
6
CONTINUOUS
10
161.389
20
-86.228
11
161.389
21
-82.428
0
LINE
8
BLACK
6
CONTINUOUS
10
161.389
20
-82.428
11
163.284
21
-82.428
0
LINE
8
BLACK
6
CONTINUOUS
10
163.284
20
-82.428
11
163.284
21
-86.228
0
LINE
8
BLACK
6
CONTINUOUS
10
242.008
20
-75.0102
11
243.596
21
-75.9271
0
LINE
8
BLACK
6
CONTINUOUS
10
243.596
20
-75.9271
11
244.775
21
-77.3319
0
LINE
8
BLACK
6
CONTINUOUS
10
244.775
20
-77.3319
11
245.402
21
-79.0551
0
LINE
8
BLACK
6
CONTINUOUS
10
245.402
20
-79.0551
11
245.402
21
-80.8889
0
LINE
8
BLACK
6
CONTINUOUS
10
245.402
20
-80.8889
11
244.775
21
-82.6121
0
LINE
8
BLACK
6
CONTINUOUS
10
244.775
20
-82.6121
11
243.596
21
-84.0169
0
LINE
8
BLACK
6
CONTINUOUS
10
243.596
20
-84.0169
11
242.008
21
-84.9338
0
LINE
8
BLACK
6
CONTINUOUS
10
242.008
20
-84.9338
11
240.202
21
-85.2522
0
LINE
8
BLACK
6
CONTINUOUS
10
240.202
20
-85.2522
11
238.396
21
-84.9338
0
LINE
8
BLACK
6
CONTINUOUS
10
238.396
20
-84.9338
11
236.808
21
-84.0169
0
LINE
8
BLACK
6
CONTINUOUS
10
236.808
20
-84.0169
11
235.629
21
-82.6121
0
LINE
8
BLACK
6
CONTINUOUS
10
235.629
20
-82.6121
11
235.002
21
-80.8889
0
LINE
8
BLACK
6
CONTINUOUS
10
235.002
20
-80.8889
11
235.002
21
-79.0551
0
LINE
8
BLACK
6
CONTINUOUS
10
235.002
20
-79.0551
11
235.629
21
-77.3319
0
LINE
8
BLACK
6
CONTINUOUS
10
235.629
20
-77.3319
11
236.808
21
-75.9271
0
LINE
8
BLACK
6
CONTINUOUS
10
236.808
20
-75.9271
11
238.396
21
-75.0102
0
LINE
8
BLACK
6
CONTINUOUS
10
238.396
20
-75.0102
11
240.202
21
-74.6918
0
LINE
8
BLACK
6
CONTINUOUS
10
240.202
20
-74.6918
11
242.008
21
-75.0102
0
LINE
8
BLACK
6
CONTINUOUS
10
178.588
20
-85.164
11
175.488
21
-85.164
0
LINE
8
BLACK
6
CONTINUOUS
10
175.488
20
-85.164
11
175.488
21
-81.264
0
LINE
8
BLACK
6
CONTINUOUS
10
175.488
20
-81.264
11
178.588
21
-81.264
0
LINE
8
BLACK
6
CONTINUOUS
10
178.588
20
-81.264
11
178.588
21
-85.164
0
LINE
8
BLACK
6
CONTINUOUS
10
105.744
20
-82.6481
11
106.038
21
-82.8177
0
LINE
8
BLACK
6
CONTINUOUS
10
106.038
20
-82.8177
11
106.256
21
-83.0776
0
LINE
8
BLACK
6
CONTINUOUS
10
106.256
20
-83.0776
11
106.372
21
-83.3964
0
LINE
8
BLACK
6
CONTINUOUS
10
106.372
20
-83.3964
11
106.372
21
-83.7356
0
LINE
8
BLACK
6
CONTINUOUS
10
106.372
20
-83.7356
11
106.256
21
-84.0544
0
LINE
8
BLACK
6
CONTINUOUS
10
106.256
20
-84.0544
11
106.038
21
-84.3143
0
LINE
8
BLACK
6
CONTINUOUS
10
106.038
20
-84.3143
11
105.744
21
-84.4839
0
LINE
8
BLACK
6
CONTINUOUS
10
105.744
20
-84.4839
11
105.41
21
-84.5428
0
LINE
8
BLACK
6
CONTINUOUS
10
105.41
20
-84.5428
11
105.076
21
-84.4839
0
LINE
8
BLACK
6
CONTINUOUS
10
105.076
20
-84.4839
11
104.782
21
-84.3143
0
LINE
8
BLACK
6
CONTINUOUS
10
104.782
20
-84.3143
11
104.564
21
-84.0544
0
LINE
8
BLACK
6
CONTINUOUS
10
104.564
20
-84.0544
11
104.448
21
-83.7356
0
LINE
8
BLACK
6
CONTINUOUS
10
104.448
20
-83.7356
11
104.448
21
-83.3964
0
LINE
8
BLACK
6
CONTINUOUS
10
104.448
20
-83.3964
11
104.564
21
-83.0776
0
LINE
8
BLACK
6
CONTINUOUS
10
104.564
20
-83.0776
11
104.782
21
-82.8177
0
LINE
8
BLACK
6
CONTINUOUS
10
104.782
20
-82.8177
11
105.076
21
-82.6481
0
LINE
8
BLACK
6
CONTINUOUS
10
105.076
20
-82.6481
11
105.41
21
-82.5892
0
LINE
8
BLACK
6
CONTINUOUS
10
105.41
20
-82.5892
11
105.744
21
-82.6481
0
LINE
8
BLACK
6
CONTINUOUS
10
93.1338
20
-82.5486
11
93.3782
21
-82.6897
0
LINE
8
BLACK
6
CONTINUOUS
10
93.3782
20
-82.6897
11
93.5595
21
-82.9058
0
LINE
8
BLACK
6
CONTINUOUS
10
93.5595
20
-82.9058
11
93.656
21
-83.1709
0
LINE
8
BLACK
6
CONTINUOUS
10
93.656
20
-83.1709
11
93.656
21
-83.4531
0
LINE
8
BLACK
6
CONTINUOUS
10
93.656
20
-83.4531
11
93.5595
21
-83.7182
0
LINE
8
BLACK
6
CONTINUOUS
10
93.5595
20
-83.7182
11
93.3782
21
-83.9343
0
LINE
8
BLACK
6
CONTINUOUS
10
93.3782
20
-83.9343
11
93.1338
21
-84.0754
0
LINE
8
BLACK
6
CONTINUOUS
10
93.1338
20
-84.0754
11
92.926
21
-84.112
0
LINE
8
BLACK
6
CONTINUOUS
10
92.926
20
-84.112
11
91.986
21
-84.112
0
LINE
8
BLACK
6
CONTINUOUS
10
91.986
20
-84.112
11
91.7782
21
-84.0754
0
LINE
8
BLACK
6
CONTINUOUS
10
91.7782
20
-84.0754
11
91.5338
21
-83.9343
0
LINE
8
BLACK
6
CONTINUOUS
10
91.5338
20
-83.9343
11
91.3525
21
-83.7182
0
LINE
8
BLACK
6
CONTINUOUS
10
91.3525
20
-83.7182
11
91.256
21
-83.4531
0
LINE
8
BLACK
6
CONTINUOUS
10
91.256
20
-83.4531
11
91.256
21
-83.1709
0
LINE
8
BLACK
6
CONTINUOUS
10
91.256
20
-83.1709
11
91.3525
21
-82.9058
0
LINE
8
BLACK
6
CONTINUOUS
10
91.3525
20
-82.9058
11
91.5338
21
-82.6897
0
LINE
8
BLACK
6
CONTINUOUS
10
91.5338
20
-82.6897
11
91.7782
21
-82.5486
0
LINE
8
BLACK
6
CONTINUOUS
10
91.7782
20
-82.5486
11
91.986
21
-82.512
0
LINE
8
BLACK
6
CONTINUOUS
10
91.986
20
-82.512
11
92.926
21
-82.512
0
LINE
8
BLACK
6
CONTINUOUS
10
92.926
20
-82.512
11
93.1338
21
-82.5486
0
LINE
8
BLACK
6
CONTINUOUS
10
173.82
20
-83.708
11
171.62
21
-83.708
0
LINE
8
BLACK
6
CONTINUOUS
10
171.62
20
-83.708
11
171.62
21
-81.913
0
LINE
8
BLACK
6
CONTINUOUS
10
171.62
20
-81.913
11
173.82
21
-81.913
0
LINE
8
BLACK
6
CONTINUOUS
10
173.82
20
-81.913
11
173.82
21
-83.708
0
LINE
8
BLACK
6
CONTINUOUS
10
105.744
20
-80.1081
11
106.038
21
-80.2777
0
LINE
8
BLACK
6
CONTINUOUS
10
106.038
20
-80.2777
11
106.256
21
-80.5376
0
LINE
8
BLACK
6
CONTINUOUS
10
106.256
20
-80.5376
11
106.372
21
-80.8564
0
LINE
8
BLACK
6
CONTINUOUS
10
106.372
20
-80.8564
11
106.372
21
-81.1956
0
LINE
8
BLACK
6
CONTINUOUS
10
106.372
20
-81.1956
11
106.256
21
-81.5144
0
LINE
8
BLACK
6
CONTINUOUS
10
106.256
20
-81.5144
11
106.038
21
-81.7743
0
LINE
8
BLACK
6
CONTINUOUS
10
106.038
20
-81.7743
11
105.744
21
-81.9439
0
LINE
8
BLACK
6
CONTINUOUS
10
105.744
20
-81.9439
11
105.41
21
-82.0028
0
LINE
8
BLACK
6
CONTINUOUS
10
105.41
20
-82.0028
11
105.076
21
-81.9439
0
LINE
8
BLACK
6
CONTINUOUS
10
105.076
20
-81.9439
11
104.782
21
-81.7743
0
LINE
8
BLACK
6
CONTINUOUS
10
104.782
20
-81.7743
11
104.564
21
-81.5144
0
LINE
8
BLACK
6
CONTINUOUS
10
104.564
20
-81.5144
11
104.448
21
-81.1956
0
LINE
8
BLACK
6
CONTINUOUS
10
104.448
20
-81.1956
11
104.448
21
-80.8564
0
LINE
8
BLACK
6
CONTINUOUS
10
104.448
20
-80.8564
11
104.564
21
-80.5376
0
LINE
8
BLACK
6
CONTINUOUS
10
104.564
20
-80.5376
11
104.782
21
-80.2777
0
LINE
8
BLACK
6
CONTINUOUS
10
104.782
20
-80.2777
11
105.076
21
-80.1081
0
LINE
8
BLACK
6
CONTINUOUS
10
105.076
20
-80.1081
11
105.41
21
-80.0492
0
LINE
8
BLACK
6
CONTINUOUS
10
105.41
20
-80.0492
11
105.744
21
-80.1081
0
LINE
8
BLACK
6
CONTINUOUS
10
93.1338
20
-80.0086
11
93.3782
21
-80.1497
0
LINE
8
BLACK
6
CONTINUOUS
10
93.3782
20
-80.1497
11
93.5595
21
-80.3658
0
LINE
8
BLACK
6
CONTINUOUS
10
93.5595
20
-80.3658
11
93.656
21
-80.6309
0
LINE
8
BLACK
6
CONTINUOUS
10
93.656
20
-80.6309
11
93.656
21
-80.9131
0
LINE
8
BLACK
6
CONTINUOUS
10
93.656
20
-80.9131
11
93.5595
21
-81.1782
0
LINE
8
BLACK
6
CONTINUOUS
10
93.5595
20
-81.1782
11
93.3782
21
-81.3943
0
LINE
8
BLACK
6
CONTINUOUS
10
93.3782
20
-81.3943
11
93.1338
21
-81.5354
0
LINE
8
BLACK
6
CONTINUOUS
10
93.1338
20
-81.5354
11
92.926
21
-81.572
0
LINE
8
BLACK
6
CONTINUOUS
10
92.926
20
-81.572
11
91.986
21
-81.572
0
LINE
8
BLACK
6
CONTINUOUS
10
91.986
20
-81.572
11
91.7782
21
-81.5354
0
LINE
8
BLACK
6
CONTINUOUS
10
91.7782
20
-81.5354
11
91.5338
21
-81.3943
0
LINE
8
BLACK
6
CONTINUOUS
10
91.5338
20
-81.3943
11
91.3525
21
-81.1782
0
LINE
8
BLACK
6
CONTINUOUS
10
91.3525
20
-81.1782
11
91.256
21
-80.9131
0
LINE
8
BLACK
6
CONTINUOUS
10
91.256
20
-80.9131
11
91.256
21
-80.6309
0
LINE
8
BLACK
6
CONTINUOUS
10
91.256
20
-80.6309
11
91.3525
21
-80.3658
0
LINE
8
BLACK
6
CONTINUOUS
10
91.3525
20
-80.3658
11
91.5338
21
-80.1497
0
LINE
8
BLACK
6
CONTINUOUS
10
91.5338
20
-80.1497
11
91.7782
21
-80.0086
0
LINE
8
BLACK
6
CONTINUOUS
10
91.7782
20
-80.0086
11
91.986
21
-79.972
0
LINE
8
BLACK
6
CONTINUOUS
10
91.986
20
-79.972
11
92.926
21
-79.972
0
LINE
8
BLACK
6
CONTINUOUS
10
92.926
20
-79.972
11
93.1338
21
-80.0086
0
LINE
8
BLACK
6
CONTINUOUS
10
105.744
20
-77.5681
11
106.038
21
-77.7377
0
LINE
8
BLACK
6
CONTINUOUS
10
106.038
20
-77.7377
11
106.256
21
-77.9976
0
LINE
8
BLACK
6
CONTINUOUS
10
106.256
20
-77.9976
11
106.372
21
-78.3164
0
LINE
8
BLACK
6
CONTINUOUS
10
106.372
20
-78.3164
11
106.372
21
-78.6556
0
LINE
8
BLACK
6
CONTINUOUS
10
106.372
20
-78.6556
11
106.256
21
-78.9744
0
LINE
8
BLACK
6
CONTINUOUS
10
106.256
20
-78.9744
11
106.038
21
-79.2343
0
LINE
8
BLACK
6
CONTINUOUS
10
106.038
20
-79.2343
11
105.744
21
-79.4039
0
LINE
8
BLACK
6
CONTINUOUS
10
105.744
20
-79.4039
11
105.41
21
-79.4628
0
LINE
8
BLACK
6
CONTINUOUS
10
105.41
20
-79.4628
11
105.076
21
-79.4039
0
LINE
8
BLACK
6
CONTINUOUS
10
105.076
20
-79.4039
11
104.782
21
-79.2343
0
LINE
8
BLACK
6
CONTINUOUS
10
104.782
20
-79.2343
11
104.564
21
-78.9744
0
LINE
8
BLACK
6
CONTINUOUS
10
104.564
20
-78.9744
11
104.448
21
-78.6556
0
LINE
8
BLACK
6
CONTINUOUS
10
104.448
20
-78.6556
11
104.448
21
-78.3164
0
LINE
8
BLACK
6
CONTINUOUS
10
104.448
20
-78.3164
11
104.564
21
-77.9976
0
LINE
8
BLACK
6
CONTINUOUS
10
104.564
20
-77.9976
11
104.782
21
-77.7377
0
LINE
8
BLACK
6
CONTINUOUS
10
104.782
20
-77.7377
11
105.076
21
-77.5681
0
LINE
8
BLACK
6
CONTINUOUS
10
105.076
20
-77.5681
11
105.41
21
-77.5092
0
LINE
8
BLACK
6
CONTINUOUS
10
105.41
20
-77.5092
11
105.744
21
-77.5681
0
LINE
8
BLACK
6
CONTINUOUS
10
93.1338
20
-77.4686
11
93.3782
21
-77.6097
0
LINE
8
BLACK
6
CONTINUOUS
10
93.3782
20
-77.6097
11
93.5595
21
-77.8258
0
LINE
8
BLACK
6
CONTINUOUS
10
93.5595
20
-77.8258
11
93.656
21
-78.0909
0
LINE
8
BLACK
6
CONTINUOUS
10
93.656
20
-78.0909
11
93.656
21
-78.3731
0
LINE
8
BLACK
6
CONTINUOUS
10
93.656
20
-78.3731
11
93.5595
21
-78.6382
0
LINE
8
BLACK
6
CONTINUOUS
10
93.5595
20
-78.6382
11
93.3782
21
-78.8543
0
LINE
8
BLACK
6
CONTINUOUS
10
93.3782
20
-78.8543
11
93.1338
21
-78.9954
0
LINE
8
BLACK
6
CONTINUOUS
10
93.1338
20
-78.9954
11
92.926
21
-79.032
0
LINE
8
BLACK
6
CONTINUOUS
10
92.926
20
-79.032
11
91.986
21
-79.032
0
LINE
8
BLACK
6
CONTINUOUS
10
91.986
20
-79.032
11
91.7782
21
-78.9954
0
LINE
8
BLACK
6
CONTINUOUS
10
91.7782
20
-78.9954
11
91.5338
21
-78.8543
0
LINE
8
BLACK
6
CONTINUOUS
10
91.5338
20
-78.8543
11
91.3525
21
-78.6382
0
LINE
8
BLACK
6
CONTINUOUS
10
91.3525
20
-78.6382
11
91.256
21
-78.3731
0
LINE
8
BLACK
6
CONTINUOUS
10
91.256
20
-78.3731
11
91.256
21
-78.0909
0
LINE
8
BLACK
6
CONTINUOUS
10
91.256
20
-78.0909
11
91.3525
21
-77.8258
0
LINE
8
BLACK
6
CONTINUOUS
10
91.3525
20
-77.8258
11
91.5338
21
-77.6097
0
LINE
8
BLACK
6
CONTINUOUS
10
91.5338
20
-77.6097
11
91.7782
21
-77.4686
0
LINE
8
BLACK
6
CONTINUOUS
10
91.7782
20
-77.4686
11
91.986
21
-77.432
0
LINE
8
BLACK
6
CONTINUOUS
10
91.986
20
-77.432
11
92.926
21
-77.432
0
LINE
8
BLACK
6
CONTINUOUS
10
92.926
20
-77.432
11
93.1338
21
-77.4686
0
LINE
8
BLACK
6
CONTINUOUS
10
167.566
20
-78.904
11
164.666
21
-78.904
0
LINE
8
BLACK
6
CONTINUOUS
10
164.666
20
-78.904
11
164.666
21
-74.004
0
LINE
8
BLACK
6
CONTINUOUS
10
164.666
20
-74.004
11
167.566
21
-74.004
0
LINE
8
BLACK
6
CONTINUOUS
10
167.566
20
-74.004
11
167.566
21
-78.904
0
LINE
8
BLACK
6
CONTINUOUS
10
172.302
20
-74.1789
11
172.694
21
-74.5076
0
LINE
8
BLACK
6
CONTINUOUS
10
172.694
20
-74.5076
11
172.95
21
-74.9504
0
LINE
8
BLACK
6
CONTINUOUS
10
172.95
20
-74.9504
11
173.016
21
-75.3271
0
LINE
8
BLACK
6
CONTINUOUS
10
173.016
20
-75.3271
11
173.016
21
-77.5809
0
LINE
8
BLACK
6
CONTINUOUS
10
173.016
20
-77.5809
11
172.95
21
-77.9576
0
LINE
8
BLACK
6
CONTINUOUS
10
172.95
20
-77.9576
11
172.694
21
-78.4004
0
LINE
8
BLACK
6
CONTINUOUS
10
172.694
20
-78.4004
11
172.302
21
-78.7291
0
LINE
8
BLACK
6
CONTINUOUS
10
172.302
20
-78.7291
11
171.822
21
-78.904
0
LINE
8
BLACK
6
CONTINUOUS
10
171.822
20
-78.904
11
171.31
21
-78.904
0
LINE
8
BLACK
6
CONTINUOUS
10
171.31
20
-78.904
11
170.83
21
-78.7291
0
LINE
8
BLACK
6
CONTINUOUS
10
170.83
20
-78.7291
11
170.438
21
-78.4004
0
LINE
8
BLACK
6
CONTINUOUS
10
170.438
20
-78.4004
11
170.182
21
-77.9576
0
LINE
8
BLACK
6
CONTINUOUS
10
170.182
20
-77.9576
11
170.116
21
-77.5809
0
LINE
8
BLACK
6
CONTINUOUS
10
170.116
20
-77.5809
11
170.116
21
-75.3271
0
LINE
8
BLACK
6
CONTINUOUS
10
170.116
20
-75.3271
11
170.182
21
-74.9504
0
LINE
8
BLACK
6
CONTINUOUS
10
170.182
20
-74.9504
11
170.438
21
-74.5076
0
LINE
8
BLACK
6
CONTINUOUS
10
170.438
20
-74.5076
11
170.83
21
-74.1789
0
LINE
8
BLACK
6
CONTINUOUS
10
170.83
20
-74.1789
11
171.31
21
-74.004
0
LINE
8
BLACK
6
CONTINUOUS
10
171.31
20
-74.004
11
171.822
21
-74.004
0
LINE
8
BLACK
6
CONTINUOUS
10
171.822
20
-74.004
11
172.302
21
-74.1789
0
LINE
8
BLACK
6
CONTINUOUS
10
177.752
20
-74.1789
11
178.144
21
-74.5076
0
LINE
8
BLACK
6
CONTINUOUS
10
178.144
20
-74.5076
11
178.4
21
-74.9504
0
LINE
8
BLACK
6
CONTINUOUS
10
178.4
20
-74.9504
11
178.466
21
-75.3271
0
LINE
8
BLACK
6
CONTINUOUS
10
178.466
20
-75.3271
11
178.466
21
-77.5809
0
LINE
8
BLACK
6
CONTINUOUS
10
178.466
20
-77.5809
11
178.4
21
-77.9576
0
LINE
8
BLACK
6
CONTINUOUS
10
178.4
20
-77.9576
11
178.144
21
-78.4004
0
LINE
8
BLACK
6
CONTINUOUS
10
178.144
20
-78.4004
11
177.752
21
-78.7291
0
LINE
8
BLACK
6
CONTINUOUS
10
177.752
20
-78.7291
11
177.272
21
-78.904
0
LINE
8
BLACK
6
CONTINUOUS
10
177.272
20
-78.904
11
176.76
21
-78.904
0
LINE
8
BLACK
6
CONTINUOUS
10
176.76
20
-78.904
11
176.28
21
-78.7291
0
LINE
8
BLACK
6
CONTINUOUS
10
176.28
20
-78.7291
11
175.888
21
-78.4004
0
LINE
8
BLACK
6
CONTINUOUS
10
175.888
20
-78.4004
11
175.632
21
-77.9576
0
LINE
8
BLACK
6
CONTINUOUS
10
175.632
20
-77.9576
11
175.566
21
-77.5809
0
LINE
8
BLACK
6
CONTINUOUS
10
175.566
20
-77.5809
11
175.566
21
-75.3271
0
LINE
8
BLACK
6
CONTINUOUS
10
175.566
20
-75.3271
11
175.632
21
-74.9504
0
LINE
8
BLACK
6
CONTINUOUS
10
175.632
20
-74.9504
11
175.888
21
-74.5076
0
LINE
8
BLACK
6
CONTINUOUS
10
175.888
20
-74.5076
11
176.28
21
-74.1789
0
LINE
8
BLACK
6
CONTINUOUS
10
176.28
20
-74.1789
11
176.76
21
-74.004
0
LINE
8
BLACK
6
CONTINUOUS
10
176.76
20
-74.004
11
177.272
21
-74.004
0
LINE
8
BLACK
6
CONTINUOUS
10
177.272
20
-74.004
11
177.752
21
-74.1789
0
LINE
8
BLACK
6
CONTINUOUS
10
227.816
20
-75.8121
11
228.244
21
-76.059
0
LINE
8
BLACK
6
CONTINUOUS
10
228.244
20
-76.059
11
228.561
21
-76.4372
0
LINE
8
BLACK
6
CONTINUOUS
10
228.561
20
-76.4372
11
228.73
21
-76.9011
0
LINE
8
BLACK
6
CONTINUOUS
10
228.73
20
-76.9011
11
228.73
21
-77.3949
0
LINE
8
BLACK
6
CONTINUOUS
10
228.73
20
-77.3949
11
228.561
21
-77.8588
0
LINE
8
BLACK
6
CONTINUOUS
10
228.561
20
-77.8588
11
228.244
21
-78.237
0
LINE
8
BLACK
6
CONTINUOUS
10
228.244
20
-78.237
11
227.816
21
-78.4839
0
LINE
8
BLACK
6
CONTINUOUS
10
227.816
20
-78.4839
11
227.33
21
-78.5696
0
LINE
8
BLACK
6
CONTINUOUS
10
227.33
20
-78.5696
11
226.844
21
-78.4839
0
LINE
8
BLACK
6
CONTINUOUS
10
226.844
20
-78.4839
11
226.416
21
-78.237
0
LINE
8
BLACK
6
CONTINUOUS
10
226.416
20
-78.237
11
226.099
21
-77.8588
0
LINE
8
BLACK
6
CONTINUOUS
10
226.099
20
-77.8588
11
225.93
21
-77.3949
0
LINE
8
BLACK
6
CONTINUOUS
10
225.93
20
-77.3949
11
225.93
21
-76.9011
0
LINE
8
BLACK
6
CONTINUOUS
10
225.93
20
-76.9011
11
226.099
21
-76.4372
0
LINE
8
BLACK
6
CONTINUOUS
10
226.099
20
-76.4372
11
226.416
21
-76.059
0
LINE
8
BLACK
6
CONTINUOUS
10
226.416
20
-76.059
11
226.844
21
-75.8121
0
LINE
8
BLACK
6
CONTINUOUS
10
226.844
20
-75.8121
11
227.33
21
-75.7264
0
LINE
8
BLACK
6
CONTINUOUS
10
227.33
20
-75.7264
11
227.816
21
-75.8121
0
LINE
8
BLACK
6
CONTINUOUS
10
215.116
20
-75.8121
11
215.544
21
-76.059
0
LINE
8
BLACK
6
CONTINUOUS
10
215.544
20
-76.059
11
215.861
21
-76.4372
0
LINE
8
BLACK
6
CONTINUOUS
10
215.861
20
-76.4372
11
216.03
21
-76.9011
0
LINE
8
BLACK
6
CONTINUOUS
10
216.03
20
-76.9011
11
216.03
21
-77.3949
0
LINE
8
BLACK
6
CONTINUOUS
10
216.03
20
-77.3949
11
215.861
21
-77.8588
0
LINE
8
BLACK
6
CONTINUOUS
10
215.861
20
-77.8588
11
215.544
21
-78.237
0
LINE
8
BLACK
6
CONTINUOUS
10
215.544
20
-78.237
11
215.116
21
-78.4839
0
LINE
8
BLACK
6
CONTINUOUS
10
215.116
20
-78.4839
11
214.63
21
-78.5696
0
LINE
8
BLACK
6
CONTINUOUS
10
214.63
20
-78.5696
11
214.144
21
-78.4839
0
LINE
8
BLACK
6
CONTINUOUS
10
214.144
20
-78.4839
11
213.716
21
-78.237
0
LINE
8
BLACK
6
CONTINUOUS
10
213.716
20
-78.237
11
213.399
21
-77.8588
0
LINE
8
BLACK
6
CONTINUOUS
10
213.399
20
-77.8588
11
213.23
21
-77.3949
0
LINE
8
BLACK
6
CONTINUOUS
10
213.23
20
-77.3949
11
213.23
21
-76.9011
0
LINE
8
BLACK
6
CONTINUOUS
10
213.23
20
-76.9011
11
213.399
21
-76.4372
0
LINE
8
BLACK
6
CONTINUOUS
10
213.399
20
-76.4372
11
213.716
21
-76.059
0
LINE
8
BLACK
6
CONTINUOUS
10
213.716
20
-76.059
11
214.144
21
-75.8121
0
LINE
8
BLACK
6
CONTINUOUS
10
214.144
20
-75.8121
11
214.63
21
-75.7264
0
LINE
8
BLACK
6
CONTINUOUS
10
214.63
20
-75.7264
11
215.116
21
-75.8121
0
LINE
8
BLACK
6
CONTINUOUS
10
189.716
20
-75.8121
11
190.144
21
-76.059
0
LINE
8
BLACK
6
CONTINUOUS
10
190.144
20
-76.059
11
190.461
21
-76.4372
0
LINE
8
BLACK
6
CONTINUOUS
10
190.461
20
-76.4372
11
190.63
21
-76.9011
0
LINE
8
BLACK
6
CONTINUOUS
10
190.63
20
-76.9011
11
190.63
21
-77.3949
0
LINE
8
BLACK
6
CONTINUOUS
10
190.63
20
-77.3949
11
190.461
21
-77.8588
0
LINE
8
BLACK
6
CONTINUOUS
10
190.461
20
-77.8588
11
190.144
21
-78.237
0
LINE
8
BLACK
6
CONTINUOUS
10
190.144
20
-78.237
11
189.716
21
-78.4839
0
LINE
8
BLACK
6
CONTINUOUS
10
189.716
20
-78.4839
11
189.23
21
-78.5696
0
LINE
8
BLACK
6
CONTINUOUS
10
189.23
20
-78.5696
11
188.744
21
-78.4839
0
LINE
8
BLACK
6
CONTINUOUS
10
188.744
20
-78.4839
11
188.316
21
-78.237
0
LINE
8
BLACK
6
CONTINUOUS
10
188.316
20
-78.237
11
187.999
21
-77.8588
0
LINE
8
BLACK
6
CONTINUOUS
10
187.999
20
-77.8588
11
187.83
21
-77.3949
0
LINE
8
BLACK
6
CONTINUOUS
10
187.83
20
-77.3949
11
187.83
21
-76.9011
0
LINE
8
BLACK
6
CONTINUOUS
10
187.83
20
-76.9011
11
187.999
21
-76.4372
0
LINE
8
BLACK
6
CONTINUOUS
10
187.999
20
-76.4372
11
188.316
21
-76.059
0
LINE
8
BLACK
6
CONTINUOUS
10
188.316
20
-76.059
11
188.744
21
-75.8121
0
LINE
8
BLACK
6
CONTINUOUS
10
188.744
20
-75.8121
11
189.23
21
-75.7264
0
LINE
8
BLACK
6
CONTINUOUS
10
189.23
20
-75.7264
11
189.716
21
-75.8121
0
LINE
8
BLACK
6
CONTINUOUS
10
202.416
20
-75.8121
11
202.844
21
-76.059
0
LINE
8
BLACK
6
CONTINUOUS
10
202.844
20
-76.059
11
203.161
21
-76.4372
0
LINE
8
BLACK
6
CONTINUOUS
10
203.161
20
-76.4372
11
203.33
21
-76.9011
0
LINE
8
BLACK
6
CONTINUOUS
10
203.33
20
-76.9011
11
203.33
21
-77.3949
0
LINE
8
BLACK
6
CONTINUOUS
10
203.33
20
-77.3949
11
203.161
21
-77.8588
0
LINE
8
BLACK
6
CONTINUOUS
10
203.161
20
-77.8588
11
202.844
21
-78.237
0
LINE
8
BLACK
6
CONTINUOUS
10
202.844
20
-78.237
11
202.416
21
-78.4839
0
LINE
8
BLACK
6
CONTINUOUS
10
202.416
20
-78.4839
11
201.93
21
-78.5696
0
LINE
8
BLACK
6
CONTINUOUS
10
201.93
20
-78.5696
11
201.444
21
-78.4839
0
LINE
8
BLACK
6
CONTINUOUS
10
201.444
20
-78.4839
11
201.016
21
-78.237
0
LINE
8
BLACK
6
CONTINUOUS
10
201.016
20
-78.237
11
200.699
21
-77.8588
0
LINE
8
BLACK
6
CONTINUOUS
10
200.699
20
-77.8588
11
200.53
21
-77.3949
0
LINE
8
BLACK
6
CONTINUOUS
10
200.53
20
-77.3949
11
200.53
21
-76.9011
0
LINE
8
BLACK
6
CONTINUOUS
10
200.53
20
-76.9011
11
200.699
21
-76.4372
0
LINE
8
BLACK
6
CONTINUOUS
10
200.699
20
-76.4372
11
201.016
21
-76.059
0
LINE
8
BLACK
6
CONTINUOUS
10
201.016
20
-76.059
11
201.444
21
-75.8121
0
LINE
8
BLACK
6
CONTINUOUS
10
201.444
20
-75.8121
11
201.93
21
-75.7264
0
LINE
8
BLACK
6
CONTINUOUS
10
201.93
20
-75.7264
11
202.416
21
-75.8121
0
LINE
8
BLACK
6
CONTINUOUS
10
105.744
20
-75.0281
11
106.038
21
-75.1977
0
LINE
8
BLACK
6
CONTINUOUS
10
106.038
20
-75.1977
11
106.256
21
-75.4576
0
LINE
8
BLACK
6
CONTINUOUS
10
106.256
20
-75.4576
11
106.372
21
-75.7764
0
LINE
8
BLACK
6
CONTINUOUS
10
106.372
20
-75.7764
11
106.372
21
-76.1156
0
LINE
8
BLACK
6
CONTINUOUS
10
106.372
20
-76.1156
11
106.256
21
-76.4344
0
LINE
8
BLACK
6
CONTINUOUS
10
106.256
20
-76.4344
11
106.038
21
-76.6943
0
LINE
8
BLACK
6
CONTINUOUS
10
106.038
20
-76.6943
11
105.744
21
-76.8639
0
LINE
8
BLACK
6
CONTINUOUS
10
105.744
20
-76.8639
11
105.41
21
-76.9228
0
LINE
8
BLACK
6
CONTINUOUS
10
105.41
20
-76.9228
11
105.076
21
-76.8639
0
LINE
8
BLACK
6
CONTINUOUS
10
105.076
20
-76.8639
11
104.782
21
-76.6943
0
LINE
8
BLACK
6
CONTINUOUS
10
104.782
20
-76.6943
11
104.564
21
-76.4344
0
LINE
8
BLACK
6
CONTINUOUS
10
104.564
20
-76.4344
11
104.448
21
-76.1156
0
LINE
8
BLACK
6
CONTINUOUS
10
104.448
20
-76.1156
11
104.448
21
-75.7764
0
LINE
8
BLACK
6
CONTINUOUS
10
104.448
20
-75.7764
11
104.564
21
-75.4576
0
LINE
8
BLACK
6
CONTINUOUS
10
104.564
20
-75.4576
11
104.782
21
-75.1977
0
LINE
8
BLACK
6
CONTINUOUS
10
104.782
20
-75.1977
11
105.076
21
-75.0281
0
LINE
8
BLACK
6
CONTINUOUS
10
105.076
20
-75.0281
11
105.41
21
-74.9692
0
LINE
8
BLACK
6
CONTINUOUS
10
105.41
20
-74.9692
11
105.744
21
-75.0281
0
LINE
8
BLACK
6
CONTINUOUS
10
93.1338
20
-74.9286
11
93.3782
21
-75.0697
0
LINE
8
BLACK
6
CONTINUOUS
10
93.3782
20
-75.0697
11
93.5595
21
-75.2858
0
LINE
8
BLACK
6
CONTINUOUS
10
93.5595
20
-75.2858
11
93.656
21
-75.5509
0
LINE
8
BLACK
6
CONTINUOUS
10
93.656
20
-75.5509
11
93.656
21
-75.8331
0
LINE
8
BLACK
6
CONTINUOUS
10
93.656
20
-75.8331
11
93.5595
21
-76.0982
0
LINE
8
BLACK
6
CONTINUOUS
10
93.5595
20
-76.0982
11
93.3782
21
-76.3143
0
LINE
8
BLACK
6
CONTINUOUS
10
93.3782
20
-76.3143
11
93.1338
21
-76.4554
0
LINE
8
BLACK
6
CONTINUOUS
10
93.1338
20
-76.4554
11
92.926
21
-76.492
0
LINE
8
BLACK
6
CONTINUOUS
10
92.926
20
-76.492
11
91.986
21
-76.492
0
LINE
8
BLACK
6
CONTINUOUS
10
91.986
20
-76.492
11
91.7782
21
-76.4554
0
LINE
8
BLACK
6
CONTINUOUS
10
91.7782
20
-76.4554
11
91.5338
21
-76.3143
0
LINE
8
BLACK
6
CONTINUOUS
10
91.5338
20
-76.3143
11
91.3525
21
-76.0982
0
LINE
8
BLACK
6
CONTINUOUS
10
91.3525
20
-76.0982
11
91.256
21
-75.8331
0
LINE
8
BLACK
6
CONTINUOUS
10
91.256
20
-75.8331
11
91.256
21
-75.5509
0
LINE
8
BLACK
6
CONTINUOUS
10
91.256
20
-75.5509
11
91.3525
21
-75.2858
0
LINE
8
BLACK
6
CONTINUOUS
10
91.3525
20
-75.2858
11
91.5338
21
-75.0697
0
LINE
8
BLACK
6
CONTINUOUS
10
91.5338
20
-75.0697
11
91.7782
21
-74.9286
0
LINE
8
BLACK
6
CONTINUOUS
10
91.7782
20
-74.9286
11
91.986
21
-74.892
0
LINE
8
BLACK
6
CONTINUOUS
10
91.986
20
-74.892
11
92.926
21
-74.892
0
LINE
8
BLACK
6
CONTINUOUS
10
92.926
20
-74.892
11
93.1338
21
-74.9286
0
LINE
8
BLACK
6
CONTINUOUS
10
220.669
20
-72.9416
11
221.067
21
-73.1708
0
LINE
8
BLACK
6
CONTINUOUS
10
221.067
20
-73.1708
11
221.361
21
-73.522
0
LINE
8
BLACK
6
CONTINUOUS
10
221.361
20
-73.522
11
221.518
21
-73.9528
0
LINE
8
BLACK
6
CONTINUOUS
10
221.518
20
-73.9528
11
221.518
21
-74.4112
0
LINE
8
BLACK
6
CONTINUOUS
10
221.518
20
-74.4112
11
221.361
21
-74.842
0
LINE
8
BLACK
6
CONTINUOUS
10
221.361
20
-74.842
11
221.067
21
-75.1932
0
LINE
8
BLACK
6
CONTINUOUS
10
221.067
20
-75.1932
11
220.669
21
-75.4224
0
LINE
8
BLACK
6
CONTINUOUS
10
220.669
20
-75.4224
11
220.218
21
-75.5021
0
LINE
8
BLACK
6
CONTINUOUS
10
220.218
20
-75.5021
11
219.767
21
-75.4224
0
LINE
8
BLACK
6
CONTINUOUS
10
219.767
20
-75.4224
11
219.369
21
-75.1932
0
LINE
8
BLACK
6
CONTINUOUS
10
219.369
20
-75.1932
11
219.075
21
-74.842
0
LINE
8
BLACK
6
CONTINUOUS
10
219.075
20
-74.842
11
218.918
21
-74.4112
0
LINE
8
BLACK
6
CONTINUOUS
10
218.918
20
-74.4112
11
218.918
21
-73.9528
0
LINE
8
BLACK
6
CONTINUOUS
10
218.918
20
-73.9528
11
219.075
21
-73.522
0
LINE
8
BLACK
6
CONTINUOUS
10
219.075
20
-73.522
11
219.369
21
-73.1708
0
LINE
8
BLACK
6
CONTINUOUS
10
219.369
20
-73.1708
11
219.767
21
-72.9416
0
LINE
8
BLACK
6
CONTINUOUS
10
219.767
20
-72.9416
11
220.218
21
-72.8619
0
LINE
8
BLACK
6
CONTINUOUS
10
220.218
20
-72.8619
11
220.669
21
-72.9416
0
LINE
8
BLACK
6
CONTINUOUS
10
230.829
20
-72.9416
11
231.227
21
-73.1708
0
LINE
8
BLACK
6
CONTINUOUS
10
231.227
20
-73.1708
11
231.521
21
-73.522
0
LINE
8
BLACK
6
CONTINUOUS
10
231.521
20
-73.522
11
231.678
21
-73.9528
0
LINE
8
BLACK
6
CONTINUOUS
10
231.678
20
-73.9528
11
231.678
21
-74.4112
0
LINE
8
BLACK
6
CONTINUOUS
10
231.678
20
-74.4112
11
231.521
21
-74.842
0
LINE
8
BLACK
6
CONTINUOUS
10
231.521
20
-74.842
11
231.227
21
-75.1932
0
LINE
8
BLACK
6
CONTINUOUS
10
231.227
20
-75.1932
11
230.829
21
-75.4224
0
LINE
8
BLACK
6
CONTINUOUS
10
230.829
20
-75.4224
11
230.378
21
-75.5021
0
LINE
8
BLACK
6
CONTINUOUS
10
230.378
20
-75.5021
11
229.927
21
-75.4224
0
LINE
8
BLACK
6
CONTINUOUS
10
229.927
20
-75.4224
11
229.529
21
-75.1932
0
LINE
8
BLACK
6
CONTINUOUS
10
229.529
20
-75.1932
11
229.235
21
-74.842
0
LINE
8
BLACK
6
CONTINUOUS
10
229.235
20
-74.842
11
229.078
21
-74.4112
0
LINE
8
BLACK
6
CONTINUOUS
10
229.078
20
-74.4112
11
229.078
21
-73.9528
0
LINE
8
BLACK
6
CONTINUOUS
10
229.078
20
-73.9528
11
229.235
21
-73.522
0
LINE
8
BLACK
6
CONTINUOUS
10
229.235
20
-73.522
11
229.529
21
-73.1708
0
LINE
8
BLACK
6
CONTINUOUS
10
229.529
20
-73.1708
11
229.927
21
-72.9416
0
LINE
8
BLACK
6
CONTINUOUS
10
229.927
20
-72.9416
11
230.378
21
-72.8619
0
LINE
8
BLACK
6
CONTINUOUS
10
230.378
20
-72.8619
11
230.829
21
-72.9416
0
LINE
8
BLACK
6
CONTINUOUS
10
210.509
20
-72.9416
11
210.907
21
-73.1708
0
LINE
8
BLACK
6
CONTINUOUS
10
210.907
20
-73.1708
11
211.201
21
-73.522
0
LINE
8
BLACK
6
CONTINUOUS
10
211.201
20
-73.522
11
211.358
21
-73.9528
0
LINE
8
BLACK
6
CONTINUOUS
10
211.358
20
-73.9528
11
211.358
21
-74.4112
0
LINE
8
BLACK
6
CONTINUOUS
10
211.358
20
-74.4112
11
211.201
21
-74.842
0
LINE
8
BLACK
6
CONTINUOUS
10
211.201
20
-74.842
11
210.907
21
-75.1932
0
LINE
8
BLACK
6
CONTINUOUS
10
210.907
20
-75.1932
11
210.509
21
-75.4224
0
LINE
8
BLACK
6
CONTINUOUS
10
210.509
20
-75.4224
11
210.058
21
-75.5021
0
LINE
8
BLACK
6
CONTINUOUS
10
210.058
20
-75.5021
11
209.607
21
-75.4224
0
LINE
8
BLACK
6
CONTINUOUS
10
209.607
20
-75.4224
11
209.209
21
-75.1932
0
LINE
8
BLACK
6
CONTINUOUS
10
209.209
20
-75.1932
11
208.915
21
-74.842
0
LINE
8
BLACK
6
CONTINUOUS
10
208.915
20
-74.842
11
208.758
21
-74.4112
0
LINE
8
BLACK
6
CONTINUOUS
10
208.758
20
-74.4112
11
208.758
21
-73.9528
0
LINE
8
BLACK
6
CONTINUOUS
10
208.758
20
-73.9528
11
208.915
21
-73.522
0
LINE
8
BLACK
6
CONTINUOUS
10
208.915
20
-73.522
11
209.209
21
-73.1708
0
LINE
8
BLACK
6
CONTINUOUS
10
209.209
20
-73.1708
11
209.607
21
-72.9416
0
LINE
8
BLACK
6
CONTINUOUS
10
209.607
20
-72.9416
11
210.058
21
-72.8619
0
LINE
8
BLACK
6
CONTINUOUS
10
210.058
20
-72.8619
11
210.509
21
-72.9416
0
LINE
8
BLACK
6
CONTINUOUS
10
125.144
20
-69.1787
11
125.968
21
-69.6548
0
LINE
8
BLACK
6
CONTINUOUS
10
125.968
20
-69.6548
11
126.58
21
-70.3842
0
LINE
8
BLACK
6
CONTINUOUS
10
126.58
20
-70.3842
11
126.906
21
-71.2789
0
LINE
8
BLACK
6
CONTINUOUS
10
126.906
20
-71.2789
11
126.906
21
-72.2311
0
LINE
8
BLACK
6
CONTINUOUS
10
126.906
20
-72.2311
11
126.58
21
-73.1258
0
LINE
8
BLACK
6
CONTINUOUS
10
126.58
20
-73.1258
11
125.968
21
-73.8552
0
LINE
8
BLACK
6
CONTINUOUS
10
125.968
20
-73.8552
11
125.144
21
-74.3313
0
LINE
8
BLACK
6
CONTINUOUS
10
125.144
20
-74.3313
11
124.206
21
-74.4967
0
LINE
8
BLACK
6
CONTINUOUS
10
124.206
20
-74.4967
11
123.268
21
-74.3313
0
LINE
8
BLACK
6
CONTINUOUS
10
123.268
20
-74.3313
11
122.444
21
-73.8552
0
LINE
8
BLACK
6
CONTINUOUS
10
122.444
20
-73.8552
11
121.832
21
-73.1258
0
LINE
8
BLACK
6
CONTINUOUS
10
121.832
20
-73.1258
11
121.506
21
-72.2311
0
LINE
8
BLACK
6
CONTINUOUS
10
121.506
20
-72.2311
11
121.506
21
-71.2789
0
LINE
8
BLACK
6
CONTINUOUS
10
121.506
20
-71.2789
11
121.832
21
-70.3842
0
LINE
8
BLACK
6
CONTINUOUS
10
121.832
20
-70.3842
11
122.444
21
-69.6548
0
LINE
8
BLACK
6
CONTINUOUS
10
122.444
20
-69.6548
11
123.268
21
-69.1787
0
LINE
8
BLACK
6
CONTINUOUS
10
123.268
20
-69.1787
11
124.206
21
-69.0133
0
LINE
8
BLACK
6
CONTINUOUS
10
124.206
20
-69.0133
11
125.144
21
-69.1787
0
LINE
8
BLACK
6
CONTINUOUS
10
154.227
20
-69.1787
11
155.051
21
-69.6548
0
LINE
8
BLACK
6
CONTINUOUS
10
155.051
20
-69.6548
11
155.663
21
-70.3842
0
LINE
8
BLACK
6
CONTINUOUS
10
155.663
20
-70.3842
11
155.989
21
-71.2789
0
LINE
8
BLACK
6
CONTINUOUS
10
155.989
20
-71.2789
11
155.989
21
-72.2311
0
LINE
8
BLACK
6
CONTINUOUS
10
155.989
20
-72.2311
11
155.663
21
-73.1258
0
LINE
8
BLACK
6
CONTINUOUS
10
155.663
20
-73.1258
11
155.051
21
-73.8552
0
LINE
8
BLACK
6
CONTINUOUS
10
155.051
20
-73.8552
11
154.227
21
-74.3313
0
LINE
8
BLACK
6
CONTINUOUS
10
154.227
20
-74.3313
11
153.289
21
-74.4967
0
LINE
8
BLACK
6
CONTINUOUS
10
153.289
20
-74.4967
11
152.351
21
-74.3313
0
LINE
8
BLACK
6
CONTINUOUS
10
152.351
20
-74.3313
11
151.527
21
-73.8552
0
LINE
8
BLACK
6
CONTINUOUS
10
151.527
20
-73.8552
11
150.915
21
-73.1258
0
LINE
8
BLACK
6
CONTINUOUS
10
150.915
20
-73.1258
11
150.589
21
-72.2311
0
LINE
8
BLACK
6
CONTINUOUS
10
150.589
20
-72.2311
11
150.589
21
-71.2789
0
LINE
8
BLACK
6
CONTINUOUS
10
150.589
20
-71.2789
11
150.915
21
-70.3842
0
LINE
8
BLACK
6
CONTINUOUS
10
150.915
20
-70.3842
11
151.527
21
-69.6548
0
LINE
8
BLACK
6
CONTINUOUS
10
151.527
20
-69.6548
11
152.351
21
-69.1787
0
LINE
8
BLACK
6
CONTINUOUS
10
152.351
20
-69.1787
11
153.289
21
-69.0133
0
LINE
8
BLACK
6
CONTINUOUS
10
153.289
20
-69.0133
11
154.227
21
-69.1787
0
LINE
8
BLACK
6
CONTINUOUS
10
93.1338
20
-72.3886
11
93.3782
21
-72.5297
0
LINE
8
BLACK
6
CONTINUOUS
10
93.3782
20
-72.5297
11
93.5595
21
-72.7458
0
LINE
8
BLACK
6
CONTINUOUS
10
93.5595
20
-72.7458
11
93.656
21
-73.0109
0
LINE
8
BLACK
6
CONTINUOUS
10
93.656
20
-73.0109
11
93.656
21
-73.2931
0
LINE
8
BLACK
6
CONTINUOUS
10
93.656
20
-73.2931
11
93.5595
21
-73.5582
0
LINE
8
BLACK
6
CONTINUOUS
10
93.5595
20
-73.5582
11
93.3782
21
-73.7743
0
LINE
8
BLACK
6
CONTINUOUS
10
93.3782
20
-73.7743
11
93.1338
21
-73.9154
0
LINE
8
BLACK
6
CONTINUOUS
10
93.1338
20
-73.9154
11
92.926
21
-73.952
0
LINE
8
BLACK
6
CONTINUOUS
10
92.926
20
-73.952
11
91.986
21
-73.952
0
LINE
8
BLACK
6
CONTINUOUS
10
91.986
20
-73.952
11
91.7782
21
-73.9154
0
LINE
8
BLACK
6
CONTINUOUS
10
91.7782
20
-73.9154
11
91.5338
21
-73.7743
0
LINE
8
BLACK
6
CONTINUOUS
10
91.5338
20
-73.7743
11
91.3525
21
-73.5582
0
LINE
8
BLACK
6
CONTINUOUS
10
91.3525
20
-73.5582
11
91.256
21
-73.2931
0
LINE
8
BLACK
6
CONTINUOUS
10
91.256
20
-73.2931
11
91.256
21
-73.0109
0
LINE
8
BLACK
6
CONTINUOUS
10
91.256
20
-73.0109
11
91.3525
21
-72.7458
0
LINE
8
BLACK
6
CONTINUOUS
10
91.3525
20
-72.7458
11
91.5338
21
-72.5297
0
LINE
8
BLACK
6
CONTINUOUS
10
91.5338
20
-72.5297
11
91.7782
21
-72.3886
0
LINE
8
BLACK
6
CONTINUOUS
10
91.7782
20
-72.3886
11
91.986
21
-72.352
0
LINE
8
BLACK
6
CONTINUOUS
10
91.986
20
-72.352
11
92.926
21
-72.352
0
LINE
8
BLACK
6
CONTINUOUS
10
92.926
20
-72.352
11
93.1338
21
-72.3886
0
LINE
8
BLACK
6
CONTINUOUS
10
88.0588
20
-68.9569
11
88.7918
21
-69.3801
0
LINE
8
BLACK
6
CONTINUOUS
10
88.7918
20
-69.3801
11
89.3358
21
-70.0285
0
LINE
8
BLACK
6
CONTINUOUS
10
89.3358
20
-70.0285
11
89.6253
21
-70.8238
0
LINE
8
BLACK
6
CONTINUOUS
10
89.6253
20
-70.8238
11
89.6253
21
-71.6702
0
LINE
8
BLACK
6
CONTINUOUS
10
89.6253
20
-71.6702
11
89.3358
21
-72.4655
0
LINE
8
BLACK
6
CONTINUOUS
10
89.3358
20
-72.4655
11
88.7918
21
-73.1139
0
LINE
8
BLACK
6
CONTINUOUS
10
88.7918
20
-73.1139
11
88.0588
21
-73.5371
0
LINE
8
BLACK
6
CONTINUOUS
10
88.0588
20
-73.5371
11
87.2253
21
-73.684
0
LINE
8
BLACK
6
CONTINUOUS
10
87.2253
20
-73.684
11
86.3918
21
-73.5371
0
LINE
8
BLACK
6
CONTINUOUS
10
86.3918
20
-73.5371
11
85.6588
21
-73.1139
0
LINE
8
BLACK
6
CONTINUOUS
10
85.6588
20
-73.1139
11
85.1147
21
-72.4655
0
LINE
8
BLACK
6
CONTINUOUS
10
85.1147
20
-72.4655
11
84.8253
21
-71.6702
0
LINE
8
BLACK
6
CONTINUOUS
10
84.8253
20
-71.6702
11
84.8253
21
-70.8238
0
LINE
8
BLACK
6
CONTINUOUS
10
84.8253
20
-70.8238
11
85.1147
21
-70.0285
0
LINE
8
BLACK
6
CONTINUOUS
10
85.1147
20
-70.0285
11
85.6588
21
-69.3801
0
LINE
8
BLACK
6
CONTINUOUS
10
85.6588
20
-69.3801
11
86.3918
21
-68.9569
0
LINE
8
BLACK
6
CONTINUOUS
10
86.3918
20
-68.9569
11
87.2253
21
-68.81
0
LINE
8
BLACK
6
CONTINUOUS
10
87.2253
20
-68.81
11
88.0588
21
-68.9569
0
LINE
8
BLACK
6
CONTINUOUS
10
105.744
20
-71.2181
11
106.038
21
-71.3877
0
LINE
8
BLACK
6
CONTINUOUS
10
106.038
20
-71.3877
11
106.256
21
-71.6476
0
LINE
8
BLACK
6
CONTINUOUS
10
106.256
20
-71.6476
11
106.372
21
-71.9664
0
LINE
8
BLACK
6
CONTINUOUS
10
106.372
20
-71.9664
11
106.372
21
-72.3056
0
LINE
8
BLACK
6
CONTINUOUS
10
106.372
20
-72.3056
11
106.256
21
-72.6244
0
LINE
8
BLACK
6
CONTINUOUS
10
106.256
20
-72.6244
11
106.038
21
-72.8843
0
LINE
8
BLACK
6
CONTINUOUS
10
106.038
20
-72.8843
11
105.744
21
-73.0539
0
LINE
8
BLACK
6
CONTINUOUS
10
105.744
20
-73.0539
11
105.41
21
-73.1128
0
LINE
8
BLACK
6
CONTINUOUS
10
105.41
20
-73.1128
11
105.076
21
-73.0539
0
LINE
8
BLACK
6
CONTINUOUS
10
105.076
20
-73.0539
11
104.782
21
-72.8843
0
LINE
8
BLACK
6
CONTINUOUS
10
104.782
20
-72.8843
11
104.564
21
-72.6244
0
LINE
8
BLACK
6
CONTINUOUS
10
104.564
20
-72.6244
11
104.448
21
-72.3056
0
LINE
8
BLACK
6
CONTINUOUS
10
104.448
20
-72.3056
11
104.448
21
-71.9664
0
LINE
8
BLACK
6
CONTINUOUS
10
104.448
20
-71.9664
11
104.564
21
-71.6476
0
LINE
8
BLACK
6
CONTINUOUS
10
104.564
20
-71.6476
11
104.782
21
-71.3877
0
LINE
8
BLACK
6
CONTINUOUS
10
104.782
20
-71.3877
11
105.076
21
-71.2181
0
LINE
8
BLACK
6
CONTINUOUS
10
105.076
20
-71.2181
11
105.41
21
-71.1592
0
LINE
8
BLACK
6
CONTINUOUS
10
105.41
20
-71.1592
11
105.744
21
-71.2181
0
LINE
8
BLACK
6
CONTINUOUS
10
171.026
20
-73.027
11
168.826
21
-73.027
0
LINE
8
BLACK
6
CONTINUOUS
10
168.826
20
-73.027
11
168.826
21
-71.232
0
LINE
8
BLACK
6
CONTINUOUS
10
168.826
20
-71.232
11
171.026
21
-71.232
0
LINE
8
BLACK
6
CONTINUOUS
10
171.026
20
-71.232
11
171.026
21
-73.027
0
LINE
8
BLACK
6
CONTINUOUS
10
93.1338
20
-69.8486
11
93.3782
21
-69.9897
0
LINE
8
BLACK
6
CONTINUOUS
10
93.3782
20
-69.9897
11
93.5595
21
-70.2058
0
LINE
8
BLACK
6
CONTINUOUS
10
93.5595
20
-70.2058
11
93.656
21
-70.4709
0
LINE
8
BLACK
6
CONTINUOUS
10
93.656
20
-70.4709
11
93.656
21
-70.7531
0
LINE
8
BLACK
6
CONTINUOUS
10
93.656
20
-70.7531
11
93.5595
21
-71.0182
0
LINE
8
BLACK
6
CONTINUOUS
10
93.5595
20
-71.0182
11
93.3782
21
-71.2343
0
LINE
8
BLACK
6
CONTINUOUS
10
93.3782
20
-71.2343
11
93.1338
21
-71.3754
0
LINE
8
BLACK
6
CONTINUOUS
10
93.1338
20
-71.3754
11
92.926
21
-71.412
0
LINE
8
BLACK
6
CONTINUOUS
10
92.926
20
-71.412
11
91.986
21
-71.412
0
LINE
8
BLACK
6
CONTINUOUS
10
91.986
20
-71.412
11
91.7782
21
-71.3754
0
LINE
8
BLACK
6
CONTINUOUS
10
91.7782
20
-71.3754
11
91.5338
21
-71.2343
0
LINE
8
BLACK
6
CONTINUOUS
10
91.5338
20
-71.2343
11
91.3525
21
-71.0182
0
LINE
8
BLACK
6
CONTINUOUS
10
91.3525
20
-71.0182
11
91.256
21
-70.7531
0
LINE
8
BLACK
6
CONTINUOUS
10
91.256
20
-70.7531
11
91.256
21
-70.4709
0
LINE
8
BLACK
6
CONTINUOUS
10
91.256
20
-70.4709
11
91.3525
21
-70.2058
0
LINE
8
BLACK
6
CONTINUOUS
10
91.3525
20
-70.2058
11
91.5338
21
-69.9897
0
LINE
8
BLACK
6
CONTINUOUS
10
91.5338
20
-69.9897
11
91.7782
21
-69.8486
0
LINE
8
BLACK
6
CONTINUOUS
10
91.7782
20
-69.8486
11
91.986
21
-69.812
0
LINE
8
BLACK
6
CONTINUOUS
10
91.986
20
-69.812
11
92.926
21
-69.812
0
LINE
8
BLACK
6
CONTINUOUS
10
92.926
20
-69.812
11
93.1338
21
-69.8486
0
LINE
8
BLACK
6
CONTINUOUS
10
105.744
20
-68.6781
11
106.038
21
-68.8477
0
LINE
8
BLACK
6
CONTINUOUS
10
106.038
20
-68.8477
11
106.256
21
-69.1076
0
LINE
8
BLACK
6
CONTINUOUS
10
106.256
20
-69.1076
11
106.372
21
-69.4264
0
LINE
8
BLACK
6
CONTINUOUS
10
106.372
20
-69.4264
11
106.372
21
-69.7656
0
LINE
8
BLACK
6
CONTINUOUS
10
106.372
20
-69.7656
11
106.256
21
-70.0844
0
LINE
8
BLACK
6
CONTINUOUS
10
106.256
20
-70.0844
11
106.038
21
-70.3443
0
LINE
8
BLACK
6
CONTINUOUS
10
106.038
20
-70.3443
11
105.744
21
-70.5139
0
LINE
8
BLACK
6
CONTINUOUS
10
105.744
20
-70.5139
11
105.41
21
-70.5728
0
LINE
8
BLACK
6
CONTINUOUS
10
105.41
20
-70.5728
11
105.076
21
-70.5139
0
LINE
8
BLACK
6
CONTINUOUS
10
105.076
20
-70.5139
11
104.782
21
-70.3443
0
LINE
8
BLACK
6
CONTINUOUS
10
104.782
20
-70.3443
11
104.564
21
-70.0844
0
LINE
8
BLACK
6
CONTINUOUS
10
104.564
20
-70.0844
11
104.448
21
-69.7656
0
LINE
8
BLACK
6
CONTINUOUS
10
104.448
20
-69.7656
11
104.448
21
-69.4264
0
LINE
8
BLACK
6
CONTINUOUS
10
104.448
20
-69.4264
11
104.564
21
-69.1076
0
LINE
8
BLACK
6
CONTINUOUS
10
104.564
20
-69.1076
11
104.782
21
-68.8477
0
LINE
8
BLACK
6
CONTINUOUS
10
104.782
20
-68.8477
11
105.076
21
-68.6781
0
LINE
8
BLACK
6
CONTINUOUS
10
105.076
20
-68.6781
11
105.41
21
-68.6192
0
LINE
8
BLACK
6
CONTINUOUS
10
105.41
20
-68.6192
11
105.744
21
-68.6781
0
LINE
8
BLACK
6
CONTINUOUS
10
171.026
20
-69.992
11
168.826
21
-69.992
0
LINE
8
BLACK
6
CONTINUOUS
10
168.826
20
-69.992
11
168.826
21
-68.197
0
LINE
8
BLACK
6
CONTINUOUS
10
168.826
20
-68.197
11
171.026
21
-68.197
0
LINE
8
BLACK
6
CONTINUOUS
10
171.026
20
-68.197
11
171.026
21
-69.992
0
LINE
8
BLACK
6
CONTINUOUS
10
179.225
20
-69.972
11
177.33
21
-69.972
0
LINE
8
BLACK
6
CONTINUOUS
10
177.33
20
-69.972
11
177.33
21
-66.172
0
LINE
8
BLACK
6
CONTINUOUS
10
177.33
20
-66.172
11
179.225
21
-66.172
0
LINE
8
BLACK
6
CONTINUOUS
10
179.225
20
-66.172
11
179.225
21
-69.972
0
LINE
8
BLACK
6
CONTINUOUS
10
173.19
20
-69.972
11
171.295
21
-69.972
0
LINE
8
BLACK
6
CONTINUOUS
10
171.295
20
-69.972
11
171.295
21
-66.172
0
LINE
8
BLACK
6
CONTINUOUS
10
171.295
20
-66.172
11
173.19
21
-66.172
0
LINE
8
BLACK
6
CONTINUOUS
10
173.19
20
-66.172
11
173.19
21
-69.972
0
LINE
8
BLACK
6
CONTINUOUS
10
187.332
20
-69.734
11
185.637
21
-69.734
0
LINE
8
BLACK
6
CONTINUOUS
10
185.637
20
-69.734
11
185.637
21
-67.934
0
LINE
8
BLACK
6
CONTINUOUS
10
185.637
20
-67.934
11
187.332
21
-67.934
0
LINE
8
BLACK
6
CONTINUOUS
10
187.332
20
-67.934
11
187.332
21
-69.734
0
LINE
8
BLACK
6
CONTINUOUS
10
189.267
20
-69.734
11
187.572
21
-69.734
0
LINE
8
BLACK
6
CONTINUOUS
10
187.572
20
-69.734
11
187.572
21
-67.934
0
LINE
8
BLACK
6
CONTINUOUS
10
187.572
20
-67.934
11
189.267
21
-67.934
0
LINE
8
BLACK
6
CONTINUOUS
10
189.267
20
-67.934
11
189.267
21
-69.734
0
LINE
8
BLACK
6
CONTINUOUS
10
105.744
20
-66.1381
11
106.038
21
-66.3077
0
LINE
8
BLACK
6
CONTINUOUS
10
106.038
20
-66.3077
11
106.256
21
-66.5676
0
LINE
8
BLACK
6
CONTINUOUS
10
106.256
20
-66.5676
11
106.372
21
-66.8864
0
LINE
8
BLACK
6
CONTINUOUS
10
106.372
20
-66.8864
11
106.372
21
-67.2256
0
LINE
8
BLACK
6
CONTINUOUS
10
106.372
20
-67.2256
11
106.256
21
-67.5444
0
LINE
8
BLACK
6
CONTINUOUS
10
106.256
20
-67.5444
11
106.038
21
-67.8043
0
LINE
8
BLACK
6
CONTINUOUS
10
106.038
20
-67.8043
11
105.744
21
-67.9739
0
LINE
8
BLACK
6
CONTINUOUS
10
105.744
20
-67.9739
11
105.41
21
-68.0328
0
LINE
8
BLACK
6
CONTINUOUS
10
105.41
20
-68.0328
11
105.076
21
-67.9739
0
LINE
8
BLACK
6
CONTINUOUS
10
105.076
20
-67.9739
11
104.782
21
-67.8043
0
LINE
8
BLACK
6
CONTINUOUS
10
104.782
20
-67.8043
11
104.564
21
-67.5444
0
LINE
8
BLACK
6
CONTINUOUS
10
104.564
20
-67.5444
11
104.448
21
-67.2256
0
LINE
8
BLACK
6
CONTINUOUS
10
104.448
20
-67.2256
11
104.448
21
-66.8864
0
LINE
8
BLACK
6
CONTINUOUS
10
104.448
20
-66.8864
11
104.564
21
-66.5676
0
LINE
8
BLACK
6
CONTINUOUS
10
104.564
20
-66.5676
11
104.782
21
-66.3077
0
LINE
8
BLACK
6
CONTINUOUS
10
104.782
20
-66.3077
11
105.076
21
-66.1381
0
LINE
8
BLACK
6
CONTINUOUS
10
105.076
20
-66.1381
11
105.41
21
-66.0792
0
LINE
8
BLACK
6
CONTINUOUS
10
105.41
20
-66.0792
11
105.744
21
-66.1381
0
LINE
8
BLACK
6
CONTINUOUS
10
103.516
20
-67.601
11
101.716
21
-67.601
0
LINE
8
BLACK
6
CONTINUOUS
10
101.716
20
-67.601
11
101.716
21
-65.906
0
LINE
8
BLACK
6
CONTINUOUS
10
101.716
20
-65.906
11
103.516
21
-65.906
0
LINE
8
BLACK
6
CONTINUOUS
10
103.516
20
-65.906
11
103.516
21
-67.601
0
LINE
8
BLACK
6
CONTINUOUS
10
187.332
20
-66.432
11
185.637
21
-66.432
0
LINE
8
BLACK
6
CONTINUOUS
10
185.637
20
-66.432
11
185.637
21
-64.632
0
LINE
8
BLACK
6
CONTINUOUS
10
185.637
20
-64.632
11
187.332
21
-64.632
0
LINE
8
BLACK
6
CONTINUOUS
10
187.332
20
-64.632
11
187.332
21
-66.432
0
LINE
8
BLACK
6
CONTINUOUS
10
189.267
20
-66.432
11
187.572
21
-66.432
0
LINE
8
BLACK
6
CONTINUOUS
10
187.572
20
-66.432
11
187.572
21
-64.632
0
LINE
8
BLACK
6
CONTINUOUS
10
187.572
20
-64.632
11
189.267
21
-64.632
0
LINE
8
BLACK
6
CONTINUOUS
10
189.267
20
-64.632
11
189.267
21
-66.432
0
LINE
8
BLACK
6
CONTINUOUS
10
93.1338
20
-64.7686
11
93.3782
21
-64.9097
0
LINE
8
BLACK
6
CONTINUOUS
10
93.3782
20
-64.9097
11
93.5595
21
-65.1258
0
LINE
8
BLACK
6
CONTINUOUS
10
93.5595
20
-65.1258
11
93.656
21
-65.3909
0
LINE
8
BLACK
6
CONTINUOUS
10
93.656
20
-65.3909
11
93.656
21
-65.6731
0
LINE
8
BLACK
6
CONTINUOUS
10
93.656
20
-65.6731
11
93.5595
21
-65.9382
0
LINE
8
BLACK
6
CONTINUOUS
10
93.5595
20
-65.9382
11
93.3782
21
-66.1543
0
LINE
8
BLACK
6
CONTINUOUS
10
93.3782
20
-66.1543
11
93.1338
21
-66.2954
0
LINE
8
BLACK
6
CONTINUOUS
10
93.1338
20
-66.2954
11
92.926
21
-66.332
0
LINE
8
BLACK
6
CONTINUOUS
10
92.926
20
-66.332
11
91.986
21
-66.332
0
LINE
8
BLACK
6
CONTINUOUS
10
91.986
20
-66.332
11
91.7782
21
-66.2954
0
LINE
8
BLACK
6
CONTINUOUS
10
91.7782
20
-66.2954
11
91.5338
21
-66.1543
0
LINE
8
BLACK
6
CONTINUOUS
10
91.5338
20
-66.1543
11
91.3525
21
-65.9382
0
LINE
8
BLACK
6
CONTINUOUS
10
91.3525
20
-65.9382
11
91.256
21
-65.6731
0
LINE
8
BLACK
6
CONTINUOUS
10
91.256
20
-65.6731
11
91.256
21
-65.3909
0
LINE
8
BLACK
6
CONTINUOUS
10
91.256
20
-65.3909
11
91.3525
21
-65.1258
0
LINE
8
BLACK
6
CONTINUOUS
10
91.3525
20
-65.1258
11
91.5338
21
-64.9097
0
LINE
8
BLACK
6
CONTINUOUS
10
91.5338
20
-64.9097
11
91.7782
21
-64.7686
0
LINE
8
BLACK
6
CONTINUOUS
10
91.7782
20
-64.7686
11
91.986
21
-64.732
0
LINE
8
BLACK
6
CONTINUOUS
10
91.986
20
-64.732
11
92.926
21
-64.732
0
LINE
8
BLACK
6
CONTINUOUS
10
92.926
20
-64.732
11
93.1338
21
-64.7686
0
LINE
8
BLACK
6
CONTINUOUS
10
103.516
20
-65.666
11
101.716
21
-65.666
0
LINE
8
BLACK
6
CONTINUOUS
10
101.716
20
-65.666
11
101.716
21
-63.971
0
LINE
8
BLACK
6
CONTINUOUS
10
101.716
20
-63.971
11
103.516
21
-63.971
0
LINE
8
BLACK
6
CONTINUOUS
10
103.516
20
-63.971
11
103.516
21
-65.666
0
LINE
8
BLACK
6
CONTINUOUS
10
105.744
20
-63.5981
11
106.038
21
-63.7677
0
LINE
8
BLACK
6
CONTINUOUS
10
106.038
20
-63.7677
11
106.256
21
-64.0276
0
LINE
8
BLACK
6
CONTINUOUS
10
106.256
20
-64.0276
11
106.372
21
-64.3464
0
LINE
8
BLACK
6
CONTINUOUS
10
106.372
20
-64.3464
11
106.372
21
-64.6856
0
LINE
8
BLACK
6
CONTINUOUS
10
106.372
20
-64.6856
11
106.256
21
-65.0044
0
LINE
8
BLACK
6
CONTINUOUS
10
106.256
20
-65.0044
11
106.038
21
-65.2643
0
LINE
8
BLACK
6
CONTINUOUS
10
106.038
20
-65.2643
11
105.744
21
-65.4339
0
LINE
8
BLACK
6
CONTINUOUS
10
105.744
20
-65.4339
11
105.41
21
-65.4928
0
LINE
8
BLACK
6
CONTINUOUS
10
105.41
20
-65.4928
11
105.076
21
-65.4339
0
LINE
8
BLACK
6
CONTINUOUS
10
105.076
20
-65.4339
11
104.782
21
-65.2643
0
LINE
8
BLACK
6
CONTINUOUS
10
104.782
20
-65.2643
11
104.564
21
-65.0044
0
LINE
8
BLACK
6
CONTINUOUS
10
104.564
20
-65.0044
11
104.448
21
-64.6856
0
LINE
8
BLACK
6
CONTINUOUS
10
104.448
20
-64.6856
11
104.448
21
-64.3464
0
LINE
8
BLACK
6
CONTINUOUS
10
104.448
20
-64.3464
11
104.564
21
-64.0276
0
LINE
8
BLACK
6
CONTINUOUS
10
104.564
20
-64.0276
11
104.782
21
-63.7677
0
LINE
8
BLACK
6
CONTINUOUS
10
104.782
20
-63.7677
11
105.076
21
-63.5981
0
LINE
8
BLACK
6
CONTINUOUS
10
105.076
20
-63.5981
11
105.41
21
-63.5392
0
LINE
8
BLACK
6
CONTINUOUS
10
105.41
20
-63.5392
11
105.744
21
-63.5981
0
LINE
8
BLACK
6
CONTINUOUS
10
124.888
20
-63.312
11
127.588
21
-63.312
0
LINE
8
BLACK
6
CONTINUOUS
10
127.588
20
-63.312
11
127.588
21
-65.212
0
LINE
8
BLACK
6
CONTINUOUS
10
127.588
20
-65.212
11
124.888
21
-65.212
0
LINE
8
BLACK
6
CONTINUOUS
10
124.888
20
-65.212
11
124.888
21
-63.312
0
LINE
8
BLACK
6
CONTINUOUS
10
93.1338
20
-62.2286
11
93.3782
21
-62.3697
0
LINE
8
BLACK
6
CONTINUOUS
10
93.3782
20
-62.3697
11
93.5595
21
-62.5858
0
LINE
8
BLACK
6
CONTINUOUS
10
93.5595
20
-62.5858
11
93.656
21
-62.8509
0
LINE
8
BLACK
6
CONTINUOUS
10
93.656
20
-62.8509
11
93.656
21
-63.1331
0
LINE
8
BLACK
6
CONTINUOUS
10
93.656
20
-63.1331
11
93.5595
21
-63.3982
0
LINE
8
BLACK
6
CONTINUOUS
10
93.5595
20
-63.3982
11
93.3782
21
-63.6143
0
LINE
8
BLACK
6
CONTINUOUS
10
93.3782
20
-63.6143
11
93.1338
21
-63.7554
0
LINE
8
BLACK
6
CONTINUOUS
10
93.1338
20
-63.7554
11
92.926
21
-63.792
0
LINE
8
BLACK
6
CONTINUOUS
10
92.926
20
-63.792
11
91.986
21
-63.792
0
LINE
8
BLACK
6
CONTINUOUS
10
91.986
20
-63.792
11
91.7782
21
-63.7554
0
LINE
8
BLACK
6
CONTINUOUS
10
91.7782
20
-63.7554
11
91.5338
21
-63.6143
0
LINE
8
BLACK
6
CONTINUOUS
10
91.5338
20
-63.6143
11
91.3525
21
-63.3982
0
LINE
8
BLACK
6
CONTINUOUS
10
91.3525
20
-63.3982
11
91.256
21
-63.1331
0
LINE
8
BLACK
6
CONTINUOUS
10
91.256
20
-63.1331
11
91.256
21
-62.8509
0
LINE
8
BLACK
6
CONTINUOUS
10
91.256
20
-62.8509
11
91.3525
21
-62.5858
0
LINE
8
BLACK
6
CONTINUOUS
10
91.3525
20
-62.5858
11
91.5338
21
-62.3697
0
LINE
8
BLACK
6
CONTINUOUS
10
91.5338
20
-62.3697
11
91.7782
21
-62.2286
0
LINE
8
BLACK
6
CONTINUOUS
10
91.7782
20
-62.2286
11
91.986
21
-62.192
0
LINE
8
BLACK
6
CONTINUOUS
10
91.986
20
-62.192
11
92.926
21
-62.192
0
LINE
8
BLACK
6
CONTINUOUS
10
92.926
20
-62.192
11
93.1338
21
-62.2286
0
LINE
8
BLACK
6
CONTINUOUS
10
103.516
20
-63.283
11
101.716
21
-63.283
0
LINE
8
BLACK
6
CONTINUOUS
10
101.716
20
-63.283
11
101.716
21
-61.588
0
LINE
8
BLACK
6
CONTINUOUS
10
101.716
20
-61.588
11
103.516
21
-61.588
0
LINE
8
BLACK
6
CONTINUOUS
10
103.516
20
-61.588
11
103.516
21
-63.283
0
LINE
8
BLACK
6
CONTINUOUS
10
124.888
20
-60.772
11
127.588
21
-60.772
0
LINE
8
BLACK
6
CONTINUOUS
10
127.588
20
-60.772
11
127.588
21
-62.672
0
LINE
8
BLACK
6
CONTINUOUS
10
127.588
20
-62.672
11
124.888
21
-62.672
0
LINE
8
BLACK
6
CONTINUOUS
10
124.888
20
-62.672
11
124.888
21
-60.772
0
LINE
8
BLACK
6
CONTINUOUS
10
103.516
20
-61.348
11
101.716
21
-61.348
0
LINE
8
BLACK
6
CONTINUOUS
10
101.716
20
-61.348
11
101.716
21
-59.653
0
LINE
8
BLACK
6
CONTINUOUS
10
101.716
20
-59.653
11
103.516
21
-59.653
0
LINE
8
BLACK
6
CONTINUOUS
10
103.516
20
-59.653
11
103.516
21
-61.348
0
LINE
8
BLACK
6
CONTINUOUS
10
93.1338
20
-59.6886
11
93.3782
21
-59.8297
0
LINE
8
BLACK
6
CONTINUOUS
10
93.3782
20
-59.8297
11
93.5595
21
-60.0458
0
LINE
8
BLACK
6
CONTINUOUS
10
93.5595
20
-60.0458
11
93.656
21
-60.3109
0
LINE
8
BLACK
6
CONTINUOUS
10
93.656
20
-60.3109
11
93.656
21
-60.5931
0
LINE
8
BLACK
6
CONTINUOUS
10
93.656
20
-60.5931
11
93.5595
21
-60.8582
0
LINE
8
BLACK
6
CONTINUOUS
10
93.5595
20
-60.8582
11
93.3782
21
-61.0743
0
LINE
8
BLACK
6
CONTINUOUS
10
93.3782
20
-61.0743
11
93.1338
21
-61.2154
0
LINE
8
BLACK
6
CONTINUOUS
10
93.1338
20
-61.2154
11
92.926
21
-61.252
0
LINE
8
BLACK
6
CONTINUOUS
10
92.926
20
-61.252
11
91.986
21
-61.252
0
LINE
8
BLACK
6
CONTINUOUS
10
91.986
20
-61.252
11
91.7782
21
-61.2154
0
LINE
8
BLACK
6
CONTINUOUS
10
91.7782
20
-61.2154
11
91.5338
21
-61.0743
0
LINE
8
BLACK
6
CONTINUOUS
10
91.5338
20
-61.0743
11
91.3525
21
-60.8582
0
LINE
8
BLACK
6
CONTINUOUS
10
91.3525
20
-60.8582
11
91.256
21
-60.5931
0
LINE
8
BLACK
6
CONTINUOUS
10
91.256
20
-60.5931
11
91.256
21
-60.3109
0
LINE
8
BLACK
6
CONTINUOUS
10
91.256
20
-60.3109
11
91.3525
21
-60.0458
0
LINE
8
BLACK
6
CONTINUOUS
10
91.3525
20
-60.0458
11
91.5338
21
-59.8297
0
LINE
8
BLACK
6
CONTINUOUS
10
91.5338
20
-59.8297
11
91.7782
21
-59.6886
0
LINE
8
BLACK
6
CONTINUOUS
10
91.7782
20
-59.6886
11
91.986
21
-59.652
0
LINE
8
BLACK
6
CONTINUOUS
10
91.986
20
-59.652
11
92.926
21
-59.652
0
LINE
8
BLACK
6
CONTINUOUS
10
92.926
20
-59.652
11
93.1338
21
-59.6886
0
LINE
8
BLACK
6
CONTINUOUS
10
210.509
20
-57.9416
11
210.907
21
-58.1708
0
LINE
8
BLACK
6
CONTINUOUS
10
210.907
20
-58.1708
11
211.201
21
-58.522
0
LINE
8
BLACK
6
CONTINUOUS
10
211.201
20
-58.522
11
211.358
21
-58.9528
0
LINE
8
BLACK
6
CONTINUOUS
10
211.358
20
-58.9528
11
211.358
21
-59.4112
0
LINE
8
BLACK
6
CONTINUOUS
10
211.358
20
-59.4112
11
211.201
21
-59.842
0
LINE
8
BLACK
6
CONTINUOUS
10
211.201
20
-59.842
11
210.907
21
-60.1932
0
LINE
8
BLACK
6
CONTINUOUS
10
210.907
20
-60.1932
11
210.509
21
-60.4224
0
LINE
8
BLACK
6
CONTINUOUS
10
210.509
20
-60.4224
11
210.058
21
-60.5021
0
LINE
8
BLACK
6
CONTINUOUS
10
210.058
20
-60.5021
11
209.607
21
-60.4224
0
LINE
8
BLACK
6
CONTINUOUS
10
209.607
20
-60.4224
11
209.209
21
-60.1932
0
LINE
8
BLACK
6
CONTINUOUS
10
209.209
20
-60.1932
11
208.915
21
-59.842
0
LINE
8
BLACK
6
CONTINUOUS
10
208.915
20
-59.842
11
208.758
21
-59.4112
0
LINE
8
BLACK
6
CONTINUOUS
10
208.758
20
-59.4112
11
208.758
21
-58.9528
0
LINE
8
BLACK
6
CONTINUOUS
10
208.758
20
-58.9528
11
208.915
21
-58.522
0
LINE
8
BLACK
6
CONTINUOUS
10
208.915
20
-58.522
11
209.209
21
-58.1708
0
LINE
8
BLACK
6
CONTINUOUS
10
209.209
20
-58.1708
11
209.607
21
-57.9416
0
LINE
8
BLACK
6
CONTINUOUS
10
209.607
20
-57.9416
11
210.058
21
-57.8619
0
LINE
8
BLACK
6
CONTINUOUS
10
210.058
20
-57.8619
11
210.509
21
-57.9416
0
LINE
8
BLACK
6
CONTINUOUS
10
220.669
20
-57.9416
11
221.067
21
-58.1708
0
LINE
8
BLACK
6
CONTINUOUS
10
221.067
20
-58.1708
11
221.361
21
-58.522
0
LINE
8
BLACK
6
CONTINUOUS
10
221.361
20
-58.522
11
221.518
21
-58.9528
0
LINE
8
BLACK
6
CONTINUOUS
10
221.518
20
-58.9528
11
221.518
21
-59.4112
0
LINE
8
BLACK
6
CONTINUOUS
10
221.518
20
-59.4112
11
221.361
21
-59.842
0
LINE
8
BLACK
6
CONTINUOUS
10
221.361
20
-59.842
11
221.067
21
-60.1932
0
LINE
8
BLACK
6
CONTINUOUS
10
221.067
20
-60.1932
11
220.669
21
-60.4224
0
LINE
8
BLACK
6
CONTINUOUS
10
220.669
20
-60.4224
11
220.218
21
-60.5021
0
LINE
8
BLACK
6
CONTINUOUS
10
220.218
20
-60.5021
11
219.767
21
-60.4224
0
LINE
8
BLACK
6
CONTINUOUS
10
219.767
20
-60.4224
11
219.369
21
-60.1932
0
LINE
8
BLACK
6
CONTINUOUS
10
219.369
20
-60.1932
11
219.075
21
-59.842
0
LINE
8
BLACK
6
CONTINUOUS
10
219.075
20
-59.842
11
218.918
21
-59.4112
0
LINE
8
BLACK
6
CONTINUOUS
10
218.918
20
-59.4112
11
218.918
21
-58.9528
0
LINE
8
BLACK
6
CONTINUOUS
10
218.918
20
-58.9528
11
219.075
21
-58.522
0
LINE
8
BLACK
6
CONTINUOUS
10
219.075
20
-58.522
11
219.369
21
-58.1708
0
LINE
8
BLACK
6
CONTINUOUS
10
219.369
20
-58.1708
11
219.767
21
-57.9416
0
LINE
8
BLACK
6
CONTINUOUS
10
219.767
20
-57.9416
11
220.218
21
-57.8619
0
LINE
8
BLACK
6
CONTINUOUS
10
220.218
20
-57.8619
11
220.669
21
-57.9416
0
LINE
8
BLACK
6
CONTINUOUS
10
230.829
20
-57.9416
11
231.227
21
-58.1708
0
LINE
8
BLACK
6
CONTINUOUS
10
231.227
20
-58.1708
11
231.521
21
-58.522
0
LINE
8
BLACK
6
CONTINUOUS
10
231.521
20
-58.522
11
231.678
21
-58.9528
0
LINE
8
BLACK
6
CONTINUOUS
10
231.678
20
-58.9528
11
231.678
21
-59.4112
0
LINE
8
BLACK
6
CONTINUOUS
10
231.678
20
-59.4112
11
231.521
21
-59.842
0
LINE
8
BLACK
6
CONTINUOUS
10
231.521
20
-59.842
11
231.227
21
-60.1932
0
LINE
8
BLACK
6
CONTINUOUS
10
231.227
20
-60.1932
11
230.829
21
-60.4224
0
LINE
8
BLACK
6
CONTINUOUS
10
230.829
20
-60.4224
11
230.378
21
-60.5021
0
LINE
8
BLACK
6
CONTINUOUS
10
230.378
20
-60.5021
11
229.927
21
-60.4224
0
LINE
8
BLACK
6
CONTINUOUS
10
229.927
20
-60.4224
11
229.529
21
-60.1932
0
LINE
8
BLACK
6
CONTINUOUS
10
229.529
20
-60.1932
11
229.235
21
-59.842
0
LINE
8
BLACK
6
CONTINUOUS
10
229.235
20
-59.842
11
229.078
21
-59.4112
0
LINE
8
BLACK
6
CONTINUOUS
10
229.078
20
-59.4112
11
229.078
21
-58.9528
0
LINE
8
BLACK
6
CONTINUOUS
10
229.078
20
-58.9528
11
229.235
21
-58.522
0
LINE
8
BLACK
6
CONTINUOUS
10
229.235
20
-58.522
11
229.529
21
-58.1708
0
LINE
8
BLACK
6
CONTINUOUS
10
229.529
20
-58.1708
11
229.927
21
-57.9416
0
LINE
8
BLACK
6
CONTINUOUS
10
229.927
20
-57.9416
11
230.378
21
-57.8619
0
LINE
8
BLACK
6
CONTINUOUS
10
230.378
20
-57.8619
11
230.829
21
-57.9416
0
LINE
8
BLACK
6
CONTINUOUS
10
242.008
20
-50.0102
11
243.596
21
-50.9271
0
LINE
8
BLACK
6
CONTINUOUS
10
243.596
20
-50.9271
11
244.775
21
-52.3319
0
LINE
8
BLACK
6
CONTINUOUS
10
244.775
20
-52.3319
11
245.402
21
-54.0551
0
LINE
8
BLACK
6
CONTINUOUS
10
245.402
20
-54.0551
11
245.402
21
-55.8889
0
LINE
8
BLACK
6
CONTINUOUS
10
245.402
20
-55.8889
11
244.775
21
-57.6121
0
LINE
8
BLACK
6
CONTINUOUS
10
244.775
20
-57.6121
11
243.596
21
-59.0169
0
LINE
8
BLACK
6
CONTINUOUS
10
243.596
20
-59.0169
11
242.008
21
-59.9338
0
LINE
8
BLACK
6
CONTINUOUS
10
242.008
20
-59.9338
11
240.202
21
-60.2522
0
LINE
8
BLACK
6
CONTINUOUS
10
240.202
20
-60.2522
11
238.396
21
-59.9338
0
LINE
8
BLACK
6
CONTINUOUS
10
238.396
20
-59.9338
11
236.808
21
-59.0169
0
LINE
8
BLACK
6
CONTINUOUS
10
236.808
20
-59.0169
11
235.629
21
-57.6121
0
LINE
8
BLACK
6
CONTINUOUS
10
235.629
20
-57.6121
11
235.002
21
-55.8889
0
LINE
8
BLACK
6
CONTINUOUS
10
235.002
20
-55.8889
11
235.002
21
-54.0551
0
LINE
8
BLACK
6
CONTINUOUS
10
235.002
20
-54.0551
11
235.629
21
-52.3319
0
LINE
8
BLACK
6
CONTINUOUS
10
235.629
20
-52.3319
11
236.808
21
-50.9271
0
LINE
8
BLACK
6
CONTINUOUS
10
236.808
20
-50.9271
11
238.396
21
-50.0102
0
LINE
8
BLACK
6
CONTINUOUS
10
238.396
20
-50.0102
11
240.202
21
-49.6918
0
LINE
8
BLACK
6
CONTINUOUS
10
240.202
20
-49.6918
11
242.008
21
-50.0102
0
LINE
8
BLACK
6
CONTINUOUS
10
103.516
20
-58.965
11
101.716
21
-58.965
0
LINE
8
BLACK
6
CONTINUOUS
10
101.716
20
-58.965
11
101.716
21
-57.27
0
LINE
8
BLACK
6
CONTINUOUS
10
101.716
20
-57.27
11
103.516
21
-57.27
0
LINE
8
BLACK
6
CONTINUOUS
10
103.516
20
-57.27
11
103.516
21
-58.965
0
LINE
8
BLACK
6
CONTINUOUS
10
93.1338
20
-57.1486
11
93.3782
21
-57.2897
0
LINE
8
BLACK
6
CONTINUOUS
10
93.3782
20
-57.2897
11
93.5595
21
-57.5058
0
LINE
8
BLACK
6
CONTINUOUS
10
93.5595
20
-57.5058
11
93.656
21
-57.7709
0
LINE
8
BLACK
6
CONTINUOUS
10
93.656
20
-57.7709
11
93.656
21
-58.0531
0
LINE
8
BLACK
6
CONTINUOUS
10
93.656
20
-58.0531
11
93.5595
21
-58.3182
0
LINE
8
BLACK
6
CONTINUOUS
10
93.5595
20
-58.3182
11
93.3782
21
-58.5343
0
LINE
8
BLACK
6
CONTINUOUS
10
93.3782
20
-58.5343
11
93.1338
21
-58.6754
0
LINE
8
BLACK
6
CONTINUOUS
10
93.1338
20
-58.6754
11
92.926
21
-58.712
0
LINE
8
BLACK
6
CONTINUOUS
10
92.926
20
-58.712
11
91.986
21
-58.712
0
LINE
8
BLACK
6
CONTINUOUS
10
91.986
20
-58.712
11
91.7782
21
-58.6754
0
LINE
8
BLACK
6
CONTINUOUS
10
91.7782
20
-58.6754
11
91.5338
21
-58.5343
0
LINE
8
BLACK
6
CONTINUOUS
10
91.5338
20
-58.5343
11
91.3525
21
-58.3182
0
LINE
8
BLACK
6
CONTINUOUS
10
91.3525
20
-58.3182
11
91.256
21
-58.0531
0
LINE
8
BLACK
6
CONTINUOUS
10
91.256
20
-58.0531
11
91.256
21
-57.7709
0
LINE
8
BLACK
6
CONTINUOUS
10
91.256
20
-57.7709
11
91.3525
21
-57.5058
0
LINE
8
BLACK
6
CONTINUOUS
10
91.3525
20
-57.5058
11
91.5338
21
-57.2897
0
LINE
8
BLACK
6
CONTINUOUS
10
91.5338
20
-57.2897
11
91.7782
21
-57.1486
0
LINE
8
BLACK
6
CONTINUOUS
10
91.7782
20
-57.1486
11
91.986
21
-57.112
0
LINE
8
BLACK
6
CONTINUOUS
10
91.986
20
-57.112
11
92.926
21
-57.112
0
LINE
8
BLACK
6
CONTINUOUS
10
92.926
20
-57.112
11
93.1338
21
-57.1486
0
LINE
8
BLACK
6
CONTINUOUS
10
172.261
20
-54.6856
11
172.871
21
-55.0383
0
LINE
8
BLACK
6
CONTINUOUS
10
172.871
20
-55.0383
11
173.325
21
-55.5786
0
LINE
8
BLACK
6
CONTINUOUS
10
173.325
20
-55.5786
11
173.566
21
-56.2413
0
LINE
8
BLACK
6
CONTINUOUS
10
173.566
20
-56.2413
11
173.566
21
-56.9467
0
LINE
8
BLACK
6
CONTINUOUS
10
173.566
20
-56.9467
11
173.325
21
-57.6094
0
LINE
8
BLACK
6
CONTINUOUS
10
173.325
20
-57.6094
11
172.871
21
-58.1497
0
LINE
8
BLACK
6
CONTINUOUS
10
172.871
20
-58.1497
11
172.261
21
-58.5024
0
LINE
8
BLACK
6
CONTINUOUS
10
172.261
20
-58.5024
11
171.741
21
-58.594
0
LINE
8
BLACK
6
CONTINUOUS
10
171.741
20
-58.594
11
171.391
21
-58.594
0
LINE
8
BLACK
6
CONTINUOUS
10
171.391
20
-58.594
11
170.871
21
-58.5024
0
LINE
8
BLACK
6
CONTINUOUS
10
170.871
20
-58.5024
11
170.261
21
-58.1497
0
LINE
8
BLACK
6
CONTINUOUS
10
170.261
20
-58.1497
11
169.807
21
-57.6094
0
LINE
8
BLACK
6
CONTINUOUS
10
169.807
20
-57.6094
11
169.566
21
-56.9467
0
LINE
8
BLACK
6
CONTINUOUS
10
169.566
20
-56.9467
11
169.566
21
-56.2413
0
LINE
8
BLACK
6
CONTINUOUS
10
169.566
20
-56.2413
11
169.807
21
-55.5786
0
LINE
8
BLACK
6
CONTINUOUS
10
169.807
20
-55.5786
11
170.261
21
-55.0383
0
LINE
8
BLACK
6
CONTINUOUS
10
170.261
20
-55.0383
11
170.871
21
-54.6856
0
LINE
8
BLACK
6
CONTINUOUS
10
170.871
20
-54.6856
11
171.391
21
-54.594
0
LINE
8
BLACK
6
CONTINUOUS
10
171.391
20
-54.594
11
171.741
21
-54.594
0
LINE
8
BLACK
6
CONTINUOUS
10
171.741
20
-54.594
11
172.261
21
-54.6856
0
LINE
8
BLACK
6
CONTINUOUS
10
120.941
20
-57.288
11
119.246
21
-57.288
0
LINE
8
BLACK
6
CONTINUOUS
10
119.246
20
-57.288
11
119.246
21
-55.488
0
LINE
8
BLACK
6
CONTINUOUS
10
119.246
20
-55.488
11
120.941
21
-55.488
0
LINE
8
BLACK
6
CONTINUOUS
10
120.941
20
-55.488
11
120.941
21
-57.288
0
LINE
8
BLACK
6
CONTINUOUS
10
119.006
20
-57.288
11
117.311
21
-57.288
0
LINE
8
BLACK
6
CONTINUOUS
10
117.311
20
-57.288
11
117.311
21
-55.488
0
LINE
8
BLACK
6
CONTINUOUS
10
117.311
20
-55.488
11
119.006
21
-55.488
0
LINE
8
BLACK
6
CONTINUOUS
10
119.006
20
-55.488
11
119.006
21
-57.288
0
LINE
8
BLACK
6
CONTINUOUS
10
103.516
20
-57.03
11
101.716
21
-57.03
0
LINE
8
BLACK
6
CONTINUOUS
10
101.716
20
-57.03
11
101.716
21
-55.335
0
LINE
8
BLACK
6
CONTINUOUS
10
101.716
20
-55.335
11
103.516
21
-55.335
0
LINE
8
BLACK
6
CONTINUOUS
10
103.516
20
-55.335
11
103.516
21
-57.03
0
LINE
8
BLACK
6
CONTINUOUS
10
93.1338
20
-54.6086
11
93.3782
21
-54.7497
0
LINE
8
BLACK
6
CONTINUOUS
10
93.3782
20
-54.7497
11
93.5595
21
-54.9658
0
LINE
8
BLACK
6
CONTINUOUS
10
93.5595
20
-54.9658
11
93.656
21
-55.2309
0
LINE
8
BLACK
6
CONTINUOUS
10
93.656
20
-55.2309
11
93.656
21
-55.5131
0
LINE
8
BLACK
6
CONTINUOUS
10
93.656
20
-55.5131
11
93.5595
21
-55.7782
0
LINE
8
BLACK
6
CONTINUOUS
10
93.5595
20
-55.7782
11
93.3782
21
-55.9943
0
LINE
8
BLACK
6
CONTINUOUS
10
93.3782
20
-55.9943
11
93.1338
21
-56.1354
0
LINE
8
BLACK
6
CONTINUOUS
10
93.1338
20
-56.1354
11
92.926
21
-56.172
0
LINE
8
BLACK
6
CONTINUOUS
10
92.926
20
-56.172
11
91.986
21
-56.172
0
LINE
8
BLACK
6
CONTINUOUS
10
91.986
20
-56.172
11
91.7782
21
-56.1354
0
LINE
8
BLACK
6
CONTINUOUS
10
91.7782
20
-56.1354
11
91.5338
21
-55.9943
0
LINE
8
BLACK
6
CONTINUOUS
10
91.5338
20
-55.9943
11
91.3525
21
-55.7782
0
LINE
8
BLACK
6
CONTINUOUS
10
91.3525
20
-55.7782
11
91.256
21
-55.5131
0
LINE
8
BLACK
6
CONTINUOUS
10
91.256
20
-55.5131
11
91.256
21
-55.2309
0
LINE
8
BLACK
6
CONTINUOUS
10
91.256
20
-55.2309
11
91.3525
21
-54.9658
0
LINE
8
BLACK
6
CONTINUOUS
10
91.3525
20
-54.9658
11
91.5338
21
-54.7497
0
LINE
8
BLACK
6
CONTINUOUS
10
91.5338
20
-54.7497
11
91.7782
21
-54.6086
0
LINE
8
BLACK
6
CONTINUOUS
10
91.7782
20
-54.6086
11
91.986
21
-54.572
0
LINE
8
BLACK
6
CONTINUOUS
10
91.986
20
-54.572
11
92.926
21
-54.572
0
LINE
8
BLACK
6
CONTINUOUS
10
92.926
20
-54.572
11
93.1338
21
-54.6086
0
LINE
8
BLACK
6
CONTINUOUS
10
93.1338
20
-52.0686
11
93.3782
21
-52.2097
0
LINE
8
BLACK
6
CONTINUOUS
10
93.3782
20
-52.2097
11
93.5595
21
-52.4258
0
LINE
8
BLACK
6
CONTINUOUS
10
93.5595
20
-52.4258
11
93.656
21
-52.6909
0
LINE
8
BLACK
6
CONTINUOUS
10
93.656
20
-52.6909
11
93.656
21
-52.9731
0
LINE
8
BLACK
6
CONTINUOUS
10
93.656
20
-52.9731
11
93.5595
21
-53.2382
0
LINE
8
BLACK
6
CONTINUOUS
10
93.5595
20
-53.2382
11
93.3782
21
-53.4543
0
LINE
8
BLACK
6
CONTINUOUS
10
93.3782
20
-53.4543
11
93.1338
21
-53.5954
0
LINE
8
BLACK
6
CONTINUOUS
10
93.1338
20
-53.5954
11
92.926
21
-53.632
0
LINE
8
BLACK
6
CONTINUOUS
10
92.926
20
-53.632
11
91.986
21
-53.632
0
LINE
8
BLACK
6
CONTINUOUS
10
91.986
20
-53.632
11
91.7782
21
-53.5954
0
LINE
8
BLACK
6
CONTINUOUS
10
91.7782
20
-53.5954
11
91.5338
21
-53.4543
0
LINE
8
BLACK
6
CONTINUOUS
10
91.5338
20
-53.4543
11
91.3525
21
-53.2382
0
LINE
8
BLACK
6
CONTINUOUS
10
91.3525
20
-53.2382
11
91.256
21
-52.9731
0
LINE
8
BLACK
6
CONTINUOUS
10
91.256
20
-52.9731
11
91.256
21
-52.6909
0
LINE
8
BLACK
6
CONTINUOUS
10
91.256
20
-52.6909
11
91.3525
21
-52.4258
0
LINE
8
BLACK
6
CONTINUOUS
10
91.3525
20
-52.4258
11
91.5338
21
-52.2097
0
LINE
8
BLACK
6
CONTINUOUS
10
91.5338
20
-52.2097
11
91.7782
21
-52.0686
0
LINE
8
BLACK
6
CONTINUOUS
10
91.7782
20
-52.0686
11
91.986
21
-52.032
0
LINE
8
BLACK
6
CONTINUOUS
10
91.986
20
-52.032
11
92.926
21
-52.032
0
LINE
8
BLACK
6
CONTINUOUS
10
92.926
20
-52.032
11
93.1338
21
-52.0686
0
LINE
8
BLACK
6
CONTINUOUS
10
93.1338
20
-49.5286
11
93.3782
21
-49.6697
0
LINE
8
BLACK
6
CONTINUOUS
10
93.3782
20
-49.6697
11
93.5595
21
-49.8858
0
LINE
8
BLACK
6
CONTINUOUS
10
93.5595
20
-49.8858
11
93.656
21
-50.1509
0
LINE
8
BLACK
6
CONTINUOUS
10
93.656
20
-50.1509
11
93.656
21
-50.4331
0
LINE
8
BLACK
6
CONTINUOUS
10
93.656
20
-50.4331
11
93.5595
21
-50.6982
0
LINE
8
BLACK
6
CONTINUOUS
10
93.5595
20
-50.6982
11
93.3782
21
-50.9143
0
LINE
8
BLACK
6
CONTINUOUS
10
93.3782
20
-50.9143
11
93.1338
21
-51.0554
0
LINE
8
BLACK
6
CONTINUOUS
10
93.1338
20
-51.0554
11
92.926
21
-51.092
0
LINE
8
BLACK
6
CONTINUOUS
10
92.926
20
-51.092
11
91.986
21
-51.092
0
LINE
8
BLACK
6
CONTINUOUS
10
91.986
20
-51.092
11
91.7782
21
-51.0554
0
LINE
8
BLACK
6
CONTINUOUS
10
91.7782
20
-51.0554
11
91.5338
21
-50.9143
0
LINE
8
BLACK
6
CONTINUOUS
10
91.5338
20
-50.9143
11
91.3525
21
-50.6982
0
LINE
8
BLACK
6
CONTINUOUS
10
91.3525
20
-50.6982
11
91.256
21
-50.4331
0
LINE
8
BLACK
6
CONTINUOUS
10
91.256
20
-50.4331
11
91.256
21
-50.1509
0
LINE
8
BLACK
6
CONTINUOUS
10
91.256
20
-50.1509
11
91.3525
21
-49.8858
0
LINE
8
BLACK
6
CONTINUOUS
10
91.3525
20
-49.8858
11
91.5338
21
-49.6697
0
LINE
8
BLACK
6
CONTINUOUS
10
91.5338
20
-49.6697
11
91.7782
21
-49.5286
0
LINE
8
BLACK
6
CONTINUOUS
10
91.7782
20
-49.5286
11
91.986
21
-49.492
0
LINE
8
BLACK
6
CONTINUOUS
10
91.986
20
-49.492
11
92.926
21
-49.492
0
LINE
8
BLACK
6
CONTINUOUS
10
92.926
20
-49.492
11
93.1338
21
-49.5286
0
LINE
8
BLACK
6
CONTINUOUS
10
233.864
20
-45.7489
11
234.383
21
-46.0486
0
LINE
8
BLACK
6
CONTINUOUS
10
234.383
20
-46.0486
11
234.769
21
-46.5079
0
LINE
8
BLACK
6
CONTINUOUS
10
234.769
20
-46.5079
11
234.974
21
-47.0712
0
LINE
8
BLACK
6
CONTINUOUS
10
234.974
20
-47.0712
11
234.974
21
-47.6708
0
LINE
8
BLACK
6
CONTINUOUS
10
234.974
20
-47.6708
11
234.769
21
-48.2341
0
LINE
8
BLACK
6
CONTINUOUS
10
234.769
20
-48.2341
11
234.383
21
-48.6934
0
LINE
8
BLACK
6
CONTINUOUS
10
234.383
20
-48.6934
11
233.864
21
-48.9931
0
LINE
8
BLACK
6
CONTINUOUS
10
233.864
20
-48.9931
11
233.274
21
-49.0972
0
LINE
8
BLACK
6
CONTINUOUS
10
233.274
20
-49.0972
11
232.683
21
-48.9931
0
LINE
8
BLACK
6
CONTINUOUS
10
232.683
20
-48.9931
11
232.164
21
-48.6934
0
LINE
8
BLACK
6
CONTINUOUS
10
232.164
20
-48.6934
11
231.779
21
-48.2341
0
LINE
8
BLACK
6
CONTINUOUS
10
231.779
20
-48.2341
11
231.574
21
-47.6708
0
LINE
8
BLACK
6
CONTINUOUS
10
231.574
20
-47.6708
11
231.574
21
-47.0712
0
LINE
8
BLACK
6
CONTINUOUS
10
231.574
20
-47.0712
11
231.779
21
-46.5079
0
LINE
8
BLACK
6
CONTINUOUS
10
231.779
20
-46.5079
11
232.164
21
-46.0486
0
LINE
8
BLACK
6
CONTINUOUS
10
232.164
20
-46.0486
11
232.683
21
-45.7489
0
LINE
8
BLACK
6
CONTINUOUS
10
232.683
20
-45.7489
11
233.274
21
-45.6448
0
LINE
8
BLACK
6
CONTINUOUS
10
233.274
20
-45.6448
11
233.864
21
-45.7489
0
LINE
8
BLACK
6
CONTINUOUS
10
211.41
20
-45.7489
11
211.93
21
-46.0486
0
LINE
8
BLACK
6
CONTINUOUS
10
211.93
20
-46.0486
11
212.315
21
-46.5079
0
LINE
8
BLACK
6
CONTINUOUS
10
212.315
20
-46.5079
11
212.52
21
-47.0712
0
LINE
8
BLACK
6
CONTINUOUS
10
212.52
20
-47.0712
11
212.52
21
-47.6708
0
LINE
8
BLACK
6
CONTINUOUS
10
212.52
20
-47.6708
11
212.315
21
-48.2341
0
LINE
8
BLACK
6
CONTINUOUS
10
212.315
20
-48.2341
11
211.93
21
-48.6934
0
LINE
8
BLACK
6
CONTINUOUS
10
211.93
20
-48.6934
11
211.41
21
-48.9931
0
LINE
8
BLACK
6
CONTINUOUS
10
211.41
20
-48.9931
11
210.82
21
-49.0972
0
LINE
8
BLACK
6
CONTINUOUS
10
210.82
20
-49.0972
11
210.23
21
-48.9931
0
LINE
8
BLACK
6
CONTINUOUS
10
210.23
20
-48.9931
11
209.71
21
-48.6934
0
LINE
8
BLACK
6
CONTINUOUS
10
209.71
20
-48.6934
11
209.325
21
-48.2341
0
LINE
8
BLACK
6
CONTINUOUS
10
209.325
20
-48.2341
11
209.12
21
-47.6708
0
LINE
8
BLACK
6
CONTINUOUS
10
209.12
20
-47.6708
11
209.12
21
-47.0712
0
LINE
8
BLACK
6
CONTINUOUS
10
209.12
20
-47.0712
11
209.325
21
-46.5079
0
LINE
8
BLACK
6
CONTINUOUS
10
209.325
20
-46.5079
11
209.71
21
-46.0486
0
LINE
8
BLACK
6
CONTINUOUS
10
209.71
20
-46.0486
11
210.23
21
-45.7489
0
LINE
8
BLACK
6
CONTINUOUS
10
210.23
20
-45.7489
11
210.82
21
-45.6448
0
LINE
8
BLACK
6
CONTINUOUS
10
210.82
20
-45.6448
11
211.41
21
-45.7489
0
LINE
8
BLACK
6
CONTINUOUS
10
73.8585
20
-44.0649
11
74.5915
21
-44.4881
0
LINE
8
BLACK
6
CONTINUOUS
10
74.5915
20
-44.4881
11
75.1355
21
-45.1365
0
LINE
8
BLACK
6
CONTINUOUS
10
75.1355
20
-45.1365
11
75.425
21
-45.9318
0
LINE
8
BLACK
6
CONTINUOUS
10
75.425
20
-45.9318
11
75.425
21
-46.7782
0
LINE
8
BLACK
6
CONTINUOUS
10
75.425
20
-46.7782
11
75.1355
21
-47.5735
0
LINE
8
BLACK
6
CONTINUOUS
10
75.1355
20
-47.5735
11
74.5915
21
-48.2219
0
LINE
8
BLACK
6
CONTINUOUS
10
74.5915
20
-48.2219
11
73.8585
21
-48.6451
0
LINE
8
BLACK
6
CONTINUOUS
10
73.8585
20
-48.6451
11
73.025
21
-48.792
0
LINE
8
BLACK
6
CONTINUOUS
10
73.025
20
-48.792
11
72.1915
21
-48.6451
0
LINE
8
BLACK
6
CONTINUOUS
10
72.1915
20
-48.6451
11
71.4585
21
-48.2219
0
LINE
8
BLACK
6
CONTINUOUS
10
71.4585
20
-48.2219
11
70.9145
21
-47.5735
0
LINE
8
BLACK
6
CONTINUOUS
10
70.9145
20
-47.5735
11
70.625
21
-46.7782
0
LINE
8
BLACK
6
CONTINUOUS
10
70.625
20
-46.7782
11
70.625
21
-45.9318
0
LINE
8
BLACK
6
CONTINUOUS
10
70.625
20
-45.9318
11
70.9145
21
-45.1365
0
LINE
8
BLACK
6
CONTINUOUS
10
70.9145
20
-45.1365
11
71.4585
21
-44.4881
0
LINE
8
BLACK
6
CONTINUOUS
10
71.4585
20
-44.4881
11
72.1915
21
-44.0649
0
LINE
8
BLACK
6
CONTINUOUS
10
72.1915
20
-44.0649
11
73.025
21
-43.918
0
LINE
8
BLACK
6
CONTINUOUS
10
73.025
20
-43.918
11
73.8585
21
-44.0649
0
LINE
8
BLACK
6
CONTINUOUS
10
93.1338
20
-46.9886
11
93.3782
21
-47.1297
0
LINE
8
BLACK
6
CONTINUOUS
10
93.3782
20
-47.1297
11
93.5595
21
-47.3458
0
LINE
8
BLACK
6
CONTINUOUS
10
93.5595
20
-47.3458
11
93.656
21
-47.6109
0
LINE
8
BLACK
6
CONTINUOUS
10
93.656
20
-47.6109
11
93.656
21
-47.8931
0
LINE
8
BLACK
6
CONTINUOUS
10
93.656
20
-47.8931
11
93.5595
21
-48.1582
0
LINE
8
BLACK
6
CONTINUOUS
10
93.5595
20
-48.1582
11
93.3782
21
-48.3743
0
LINE
8
BLACK
6
CONTINUOUS
10
93.3782
20
-48.3743
11
93.1338
21
-48.5154
0
LINE
8
BLACK
6
CONTINUOUS
10
93.1338
20
-48.5154
11
92.926
21
-48.552
0
LINE
8
BLACK
6
CONTINUOUS
10
92.926
20
-48.552
11
91.986
21
-48.552
0
LINE
8
BLACK
6
CONTINUOUS
10
91.986
20
-48.552
11
91.7782
21
-48.5154
0
LINE
8
BLACK
6
CONTINUOUS
10
91.7782
20
-48.5154
11
91.5338
21
-48.3743
0
LINE
8
BLACK
6
CONTINUOUS
10
91.5338
20
-48.3743
11
91.3525
21
-48.1582
0
LINE
8
BLACK
6
CONTINUOUS
10
91.3525
20
-48.1582
11
91.256
21
-47.8931
0
LINE
8
BLACK
6
CONTINUOUS
10
91.256
20
-47.8931
11
91.256
21
-47.6109
0
LINE
8
BLACK
6
CONTINUOUS
10
91.256
20
-47.6109
11
91.3525
21
-47.3458
0
LINE
8
BLACK
6
CONTINUOUS
10
91.3525
20
-47.3458
11
91.5338
21
-47.1297
0
LINE
8
BLACK
6
CONTINUOUS
10
91.5338
20
-47.1297
11
91.7782
21
-46.9886
0
LINE
8
BLACK
6
CONTINUOUS
10
91.7782
20
-46.9886
11
91.986
21
-46.952
0
LINE
8
BLACK
6
CONTINUOUS
10
91.986
20
-46.952
11
92.926
21
-46.952
0
LINE
8
BLACK
6
CONTINUOUS
10
92.926
20
-46.952
11
93.1338
21
-46.9886
0
LINE
8
BLACK
6
CONTINUOUS
10
93.1338
20
-44.4486
11
93.3782
21
-44.5897
0
LINE
8
BLACK
6
CONTINUOUS
10
93.3782
20
-44.5897
11
93.5595
21
-44.8058
0
LINE
8
BLACK
6
CONTINUOUS
10
93.5595
20
-44.8058
11
93.656
21
-45.0709
0
LINE
8
BLACK
6
CONTINUOUS
10
93.656
20
-45.0709
11
93.656
21
-45.3531
0
LINE
8
BLACK
6
CONTINUOUS
10
93.656
20
-45.3531
11
93.5595
21
-45.6182
0
LINE
8
BLACK
6
CONTINUOUS
10
93.5595
20
-45.6182
11
93.3782
21
-45.8343
0
LINE
8
BLACK
6
CONTINUOUS
10
93.3782
20
-45.8343
11
93.1338
21
-45.9754
0
LINE
8
BLACK
6
CONTINUOUS
10
93.1338
20
-45.9754
11
92.926
21
-46.012
0
LINE
8
BLACK
6
CONTINUOUS
10
92.926
20
-46.012
11
91.986
21
-46.012
0
LINE
8
BLACK
6
CONTINUOUS
10
91.986
20
-46.012
11
91.7782
21
-45.9754
0
LINE
8
BLACK
6
CONTINUOUS
10
91.7782
20
-45.9754
11
91.5338
21
-45.8343
0
LINE
8
BLACK
6
CONTINUOUS
10
91.5338
20
-45.8343
11
91.3525
21
-45.6182
0
LINE
8
BLACK
6
CONTINUOUS
10
91.3525
20
-45.6182
11
91.256
21
-45.3531
0
LINE
8
BLACK
6
CONTINUOUS
10
91.256
20
-45.3531
11
91.256
21
-45.0709
0
LINE
8
BLACK
6
CONTINUOUS
10
91.256
20
-45.0709
11
91.3525
21
-44.8058
0
LINE
8
BLACK
6
CONTINUOUS
10
91.3525
20
-44.8058
11
91.5338
21
-44.5897
0
LINE
8
BLACK
6
CONTINUOUS
10
91.5338
20
-44.5897
11
91.7782
21
-44.4486
0
LINE
8
BLACK
6
CONTINUOUS
10
91.7782
20
-44.4486
11
91.986
21
-44.412
0
LINE
8
BLACK
6
CONTINUOUS
10
91.986
20
-44.412
11
92.926
21
-44.412
0
LINE
8
BLACK
6
CONTINUOUS
10
92.926
20
-44.412
11
93.1338
21
-44.4486
  0
ENDSEC
  0
EOF
