G04 #@! TF.GenerationSoftware,KiCad,Pcbnew,(5.0.0-rc2-39-ga12b9db58)*
G04 #@! TF.CreationDate,2018-05-30T14:35:49-03:00*
G04 #@! TF.ProjectId,Mcc18,4D636331382E6B696361645F70636200,rev?*
G04 #@! TF.SameCoordinates,Original*
G04 #@! TF.FileFunction,Soldermask,Bot*
G04 #@! TF.FilePolarity,Negative*
%FSLAX46Y46*%
G04 Gerber Fmt 4.6, Leading zero omitted, Abs format (unit mm)*
G04 Created by KiCad (PCBNEW (5.0.0-rc2-39-ga12b9db58)) date Wed May 30 14:35:49 2018*
%MOMM*%
%LPD*%
G01*
G04 APERTURE LIST*
%ADD10O,2.100000X2.940000*%
%ADD11O,2.700000X1.700000*%
%ADD12O,5.400000X1.700000*%
%ADD13O,2.400000X1.600000*%
%ADD14O,4.000000X4.000000*%
%ADD15R,2.500000X4.500000*%
%ADD16O,2.900000X4.900000*%
%ADD17C,2.200000*%
%ADD18R,1.800000X1.800000*%
%ADD19C,5.400000*%
%ADD20C,4.800000*%
%ADD21R,1.400000X1.295000*%
%ADD22O,2.400000X2.305000*%
%ADD23R,2.000000X1.905000*%
%ADD24C,2.600000*%
%ADD25R,1.295000X1.400000*%
%ADD26C,2.800000*%
%ADD27C,10.400000*%
%ADD28C,3.400000*%
G04 APERTURE END LIST*
D10*
G04 #@! TO.C,U1*
X123952000Y-49530000D03*
X121412000Y-49530000D03*
X126492000Y-49530000D03*
D11*
X134112000Y-58826400D03*
D12*
X134112000Y-56896000D03*
D11*
X134112000Y-54965600D03*
X134112000Y-53035200D03*
D10*
X126492000Y-62230000D03*
X121412000Y-62230000D03*
X123952000Y-62230000D03*
G04 #@! TD*
D13*
G04 #@! TO.C,U4*
X105410000Y-64516000D03*
X105410000Y-108966000D03*
X105410000Y-106426000D03*
X105410000Y-103886000D03*
X105410000Y-101346000D03*
X105410000Y-97536000D03*
X105410000Y-94996000D03*
X105410000Y-92456000D03*
X105410000Y-89916000D03*
X105410000Y-87376000D03*
X105410000Y-83566000D03*
X105410000Y-81026000D03*
X105410000Y-78486000D03*
X105410000Y-75946000D03*
X105410000Y-72136000D03*
X105410000Y-69596000D03*
X105410000Y-67056000D03*
G04 #@! TD*
D14*
G04 #@! TO.C,Q1*
X171566000Y-124508000D03*
D15*
X177016000Y-104648000D03*
D16*
X171566000Y-104648000D03*
X166116000Y-104648000D03*
G04 #@! TD*
G04 #@! TO.C,D1*
X177016000Y-76454000D03*
X171566000Y-76454000D03*
D15*
X166116000Y-76454000D03*
D14*
X171566000Y-56594000D03*
G04 #@! TD*
D17*
G04 #@! TO.C,U2*
X159766000Y-123952000D03*
D18*
X159766000Y-126492000D03*
D17*
X159766000Y-111252000D03*
X159766000Y-121412000D03*
X159766000Y-118872000D03*
X159766000Y-113792000D03*
X159766000Y-116332000D03*
G04 #@! TD*
D19*
G04 #@! TO.C,L1*
X124206000Y-100838000D03*
X124206000Y-71755000D03*
X153289000Y-100838000D03*
X153289000Y-71755000D03*
G04 #@! TD*
D20*
G04 #@! TO.C,U5*
X62357000Y-114934000D03*
X73025000Y-46355000D03*
X87225274Y-71247000D03*
D13*
X92456000Y-45212000D03*
X92456000Y-47752000D03*
X92456000Y-50292000D03*
X92456000Y-52832000D03*
X92456000Y-55372000D03*
X92456000Y-57912000D03*
X92456000Y-60452000D03*
X92456000Y-62992000D03*
X92456000Y-65532000D03*
X92456000Y-70612000D03*
X92456000Y-73152000D03*
X92456000Y-75692000D03*
X92456000Y-78232000D03*
X92456000Y-80772000D03*
X92456000Y-83312000D03*
X92456000Y-85852000D03*
X92456000Y-88392000D03*
X92456000Y-90932000D03*
X92456000Y-93472000D03*
X92456000Y-96012000D03*
X92456000Y-98552000D03*
X92456000Y-101092000D03*
X92456000Y-103632000D03*
X92456000Y-106172000D03*
X92456000Y-108712000D03*
X92456000Y-111252000D03*
X92456000Y-113792000D03*
X92456000Y-116332000D03*
X92456000Y-118872000D03*
X92456000Y-125222000D03*
X92456000Y-127762000D03*
X92456000Y-130302000D03*
X92456000Y-132842000D03*
X92456000Y-135382000D03*
X92456000Y-137922000D03*
X92456000Y-140462000D03*
X92456000Y-143002000D03*
G04 #@! TD*
D21*
G04 #@! TO.C,C4*
X146558000Y-115062000D03*
X146558000Y-116997000D03*
G04 #@! TD*
D22*
G04 #@! TO.C,U3*
X143510000Y-114046000D03*
X143510000Y-116586000D03*
D23*
X143510000Y-119126000D03*
G04 #@! TD*
D24*
G04 #@! TO.C,Ci2*
X220218000Y-74182000D03*
X220218000Y-59182000D03*
G04 #@! TD*
G04 #@! TO.C,Ci1*
X230378000Y-74182000D03*
X230378000Y-59182000D03*
G04 #@! TD*
G04 #@! TO.C,Ci3*
X210058000Y-74182000D03*
X210058000Y-59182000D03*
G04 #@! TD*
D25*
G04 #@! TO.C,L3*
X155145500Y-114046000D03*
X153210500Y-114046000D03*
G04 #@! TD*
D21*
G04 #@! TO.C,C5*
X148844000Y-116997000D03*
X148844000Y-115062000D03*
G04 #@! TD*
D25*
G04 #@! TO.C,C2*
X144780000Y-124460000D03*
X146715000Y-124460000D03*
G04 #@! TD*
D21*
G04 #@! TO.C,C10*
X154940000Y-118618000D03*
X154940000Y-116683000D03*
G04 #@! TD*
G04 #@! TO.C,C8*
X151130000Y-115062000D03*
X151130000Y-116997000D03*
G04 #@! TD*
G04 #@! TO.C,C9*
X157226000Y-118618000D03*
X157226000Y-116683000D03*
G04 #@! TD*
G04 #@! TO.C,C1*
X137668000Y-58928000D03*
X137668000Y-56993000D03*
G04 #@! TD*
D25*
G04 #@! TO.C,C3*
X146715000Y-121920000D03*
X144780000Y-121920000D03*
G04 #@! TD*
D26*
G04 #@! TO.C,Co2*
X214630000Y-107628000D03*
X214630000Y-135128000D03*
G04 #@! TD*
G04 #@! TO.C,Cc1*
X227330000Y-104648000D03*
X227330000Y-77148000D03*
G04 #@! TD*
G04 #@! TO.C,Cc2*
X214630000Y-77148000D03*
X214630000Y-104648000D03*
G04 #@! TD*
G04 #@! TO.C,Cc3*
X201930000Y-104648000D03*
X201930000Y-77148000D03*
G04 #@! TD*
G04 #@! TO.C,Co1*
X227330000Y-107628000D03*
X227330000Y-135128000D03*
G04 #@! TD*
G04 #@! TO.C,Cc4*
X189230000Y-104648000D03*
X189230000Y-77148000D03*
G04 #@! TD*
G04 #@! TO.C,Co3*
X201930000Y-107628000D03*
X201930000Y-135128000D03*
G04 #@! TD*
D27*
G04 #@! TO.C,Screw4*
X240202000Y-129972000D03*
G04 #@! TD*
G04 #@! TO.C,Screw3*
X240202000Y-104972000D03*
G04 #@! TD*
G04 #@! TO.C,Screw2*
X240202000Y-79972000D03*
G04 #@! TD*
G04 #@! TO.C,Screw1*
X240202000Y-54972000D03*
G04 #@! TD*
D28*
G04 #@! TO.C,F1*
X233273600Y-47371000D03*
X210820000Y-47371000D03*
G04 #@! TD*
D21*
G04 #@! TO.C,R1*
X156718000Y-126189500D03*
X156718000Y-124254500D03*
G04 #@! TD*
D25*
G04 #@! TO.C,R105*
X142191500Y-54864000D03*
X140256500Y-54864000D03*
G04 #@! TD*
G04 #@! TO.C,R106*
X140256500Y-56896000D03*
X142191500Y-56896000D03*
G04 #@! TD*
M02*
