M48
;DRILL file {KiCad (5.0.0-rc2-39-ga12b9db58)} date Wed May 30 01:27:53 2018
;FORMAT={-:-/ absolute / inch / decimal}
FMAT,2
INCH,TZ
T1C0.0236
T2C0.0300
T3C0.0315
T4C0.0394
T5C0.0433
T6C0.0472
T7C0.0512
T8C0.0591
T9C0.0866
T10C0.1181
T11C0.1969
T12C0.1417
%
G90
G05
M72
T1
X1.79Y-2.51
X1.79Y-3.11
X2.07Y-1.42
X2.07Y-1.87
X2.07Y-2.42
X2.19Y-0.7
X2.19Y-0.81
X2.3Y-1.14
X2.3Y-1.6305
X2.3Y-1.7095
X2.3Y-2.0805
X2.3Y-2.1595
X2.46Y-1.04
X2.46Y-1.13
X2.46Y-1.22
X2.46Y-1.6305
X2.46Y-1.7095
X2.5105Y-0.89
X2.57Y-2.76
X2.57Y-2.84
X2.57Y-2.94
X2.5895Y-0.89
X2.59Y-3.7
X2.796Y-3.6712
X3.45Y-0.83
X3.55Y-0.75
X3.68Y-3.43
X3.7384Y-0.5905
X3.7384Y-0.6695
X3.8862Y-3.15
X4.22Y-2.81
X4.22Y-2.91
X5.56Y-1.01
X5.56Y-1.14
X5.56Y-3.16
X5.56Y-3.29
T2
X1.67Y-0.21
X1.67Y-0.31
X1.67Y-0.41
X1.67Y-0.51
X1.67Y-0.61
X1.67Y-0.71
X1.67Y-0.81
X1.67Y-0.91
X1.67Y-1.01
X1.67Y-1.21
X1.67Y-1.31
X1.67Y-1.41
X1.67Y-1.51
X1.67Y-1.61
X1.67Y-1.71
X1.67Y-1.81
X1.67Y-1.91
X1.67Y-2.01
X1.67Y-2.11
X1.67Y-2.21
X1.67Y-2.31
X1.67Y-2.41
X1.67Y-2.51
X1.67Y-2.61
X1.67Y-2.71
X1.67Y-2.81
X1.67Y-2.91
X1.67Y-3.01
X1.67Y-3.11
X1.67Y-3.36
X1.67Y-3.46
X1.67Y-3.56
X1.67Y-3.66
X1.67Y-3.76
X1.67Y-3.86
X1.67Y-3.96
X1.67Y-4.06
X4.32Y-2.81
X4.32Y-2.91
X4.32Y-3.01
X4.32Y-3.11
X4.32Y-3.21
X4.32Y-3.31
X4.32Y-3.41
X2.18Y-0.97
X2.18Y-1.07
X2.18Y-1.17
X2.18Y-1.27
X2.18Y-1.42
X2.18Y-1.52
X2.18Y-1.62
X2.18Y-1.72
X2.18Y-1.87
X2.18Y-1.97
X2.18Y-2.07
X2.18Y-2.17
X2.18Y-2.27
X2.18Y-2.42
X2.18Y-2.52
X2.18Y-2.62
X2.18Y-2.72
T3
X3.31Y-0.518
X3.31Y-0.594
X3.31Y-0.67
X3.31Y-0.746
T4
X6.33Y-0.295
X7.214Y-0.295
T5
X6.7Y-0.76
X6.7Y-1.3506
X3.68Y-2.92
X3.68Y-3.02
X3.68Y-3.12
X6.3Y-0.76
X6.3Y-1.3506
X7.1Y-0.76
X7.1Y-1.3506
T6
X6.98Y-2.6673
X6.98Y-3.75
X5.98Y-2.6673
X5.98Y-3.75
X6.48Y-1.4673
X6.48Y-2.55
X6.48Y-2.6673
X6.48Y-3.75
X5.48Y-1.4673
X5.48Y-2.55
X5.98Y-1.4673
X5.98Y-2.55
X6.98Y-1.4673
X6.98Y-2.55
T7
X2.81Y-0.38
X2.81Y-0.88
X2.91Y-0.38
X2.91Y-0.88
X3.01Y-0.38
X3.01Y-0.88
T8
X4.57Y-1.44
X4.7846Y-1.44
X4.9991Y-1.44
X4.57Y-2.55
X4.7846Y-2.55
X4.9991Y-2.55
T9
X0.485Y-2.955
X0.905Y-0.255
X1.4641Y-1.235
T10
X2.92Y-1.255
X2.92Y-2.4
X4.065Y-1.255
X4.065Y-2.4
T11
X7.4868Y-2.5628
X7.4868Y-1.5785
X7.4868Y-3.547
X7.4868Y-0.5943
T12
X4.7846Y-0.6581
X4.7846Y-3.3319
T0
M30
