G04 #@! TF.GenerationSoftware,KiCad,Pcbnew,(5.0.0-rc2-39-ga12b9db58)*
G04 #@! TF.CreationDate,2018-05-30T01:03:46-03:00*
G04 #@! TF.ProjectId,Mcc18,4D636331382E6B696361645F70636200,rev?*
G04 #@! TF.SameCoordinates,PX2fb84f0PY2607d70*
G04 #@! TF.FileFunction,Other,Fab,Top*
%FSLAX46Y46*%
G04 Gerber Fmt 4.6, Leading zero omitted, Abs format (unit mm)*
G04 Created by KiCad (PCBNEW (5.0.0-rc2-39-ga12b9db58)) date Wed May 30 01:03:46 2018*
%MOMM*%
%LPD*%
G01*
G04 APERTURE LIST*
%ADD10C,0.100000*%
%ADD11C,0.150000*%
%ADD12C,0.080000*%
%ADD13C,0.120000*%
G04 APERTURE END LIST*
D10*
G04 #@! TO.C,R101*
X136414000Y-25054000D02*
X138414000Y-25054000D01*
X136414000Y-26254000D02*
X136414000Y-25054000D01*
X138414000Y-26254000D02*
X136414000Y-26254000D01*
X138414000Y-25054000D02*
X138414000Y-26254000D01*
G04 #@! TO.C,Cs4*
X116878000Y-69266000D02*
X116878000Y-72466000D01*
X115278000Y-69266000D02*
X116878000Y-69266000D01*
X115278000Y-72466000D02*
X115278000Y-69266000D01*
X116878000Y-72466000D02*
X115278000Y-72466000D01*
G04 #@! TO.C,Cs3*
X111976000Y-56566000D02*
X113576000Y-56566000D01*
X113576000Y-56566000D02*
X113576000Y-59766000D01*
X113576000Y-59766000D02*
X111976000Y-59766000D01*
X111976000Y-59766000D02*
X111976000Y-56566000D01*
G04 #@! TO.C,Cs2*
X123482000Y-42850000D02*
X123482000Y-46050000D01*
X121882000Y-42850000D02*
X123482000Y-42850000D01*
X121882000Y-46050000D02*
X121882000Y-42850000D01*
X123482000Y-46050000D02*
X121882000Y-46050000D01*
G04 #@! TO.C,Cs1*
X119088000Y-29134000D02*
X120688000Y-29134000D01*
X120688000Y-29134000D02*
X120688000Y-32334000D01*
X120688000Y-32334000D02*
X119088000Y-32334000D01*
X119088000Y-32334000D02*
X119088000Y-29134000D01*
G04 #@! TO.C,U3*
X89662000Y-74168000D02*
X93472000Y-74168000D01*
X89662000Y-76708000D02*
X93472000Y-76708000D01*
X89662000Y-79248000D02*
X93472000Y-79248000D01*
X89662000Y-71708000D02*
X89662000Y-81708000D01*
X80412000Y-71708000D02*
X89662000Y-71708000D01*
X80412000Y-81708000D02*
X80412000Y-71708000D01*
X89662000Y-81708000D02*
X80412000Y-81708000D01*
X80412000Y-71708000D02*
X80412000Y-81708000D01*
X74012000Y-71708000D02*
X80412000Y-71708000D01*
X74012000Y-81708000D02*
X74012000Y-71708000D01*
X80412000Y-81708000D02*
X74012000Y-81708000D01*
X78662000Y-76708000D02*
G75*
G03X78662000Y-76708000I-1850000J0D01*
G01*
G04 #@! TO.C,Ci2*
X174780000Y-35054000D02*
X174780000Y-18554000D01*
X165580000Y-35054000D02*
X174780000Y-35054000D01*
X165580000Y-18554000D02*
X165580000Y-35054000D01*
X174780000Y-18554000D02*
X165580000Y-18554000D01*
G04 #@! TO.C,Ci1*
X184940000Y-35054000D02*
X184940000Y-18554000D01*
X175740000Y-35054000D02*
X184940000Y-35054000D01*
X175740000Y-18554000D02*
X175740000Y-35054000D01*
X184940000Y-18554000D02*
X175740000Y-18554000D01*
G04 #@! TO.C,Ci3*
X164620000Y-35054000D02*
X164620000Y-18554000D01*
X155420000Y-35054000D02*
X164620000Y-35054000D01*
X155420000Y-18554000D02*
X155420000Y-35054000D01*
X164620000Y-18554000D02*
X155420000Y-18554000D01*
G04 #@! TO.C,Ds2*
X121016560Y-58167020D02*
X122167180Y-57366920D01*
X121016560Y-58167020D02*
X122167180Y-58916320D01*
X122167180Y-58916320D02*
X122167180Y-57366920D01*
X121016560Y-57366920D02*
X121016560Y-58967120D01*
X122167180Y-58167020D02*
X123165400Y-58167020D01*
X121016560Y-58167020D02*
X120114860Y-58167020D01*
X124266000Y-59466000D02*
X124266000Y-56866000D01*
X119066000Y-59466000D02*
X124266000Y-59466000D01*
X119066000Y-56866000D02*
X119066000Y-59466000D01*
X124266000Y-56866000D02*
X119066000Y-56866000D01*
G04 #@! TO.C,Ds1*
X127001020Y-47385440D02*
X126200920Y-46234820D01*
X127001020Y-47385440D02*
X127750320Y-46234820D01*
X127750320Y-46234820D02*
X126200920Y-46234820D01*
X126200920Y-47385440D02*
X127801120Y-47385440D01*
X127001020Y-46234820D02*
X127001020Y-45236600D01*
X127001020Y-47385440D02*
X127001020Y-48287140D01*
X128300000Y-44136000D02*
X125700000Y-44136000D01*
X128300000Y-49336000D02*
X128300000Y-44136000D01*
X125700000Y-49336000D02*
X128300000Y-49336000D01*
X125700000Y-44136000D02*
X125700000Y-49336000D01*
G04 #@! TO.C,L2*
X53178000Y-20590000D02*
X53178000Y-22590000D01*
X51978000Y-20590000D02*
X53178000Y-20590000D01*
X51978000Y-22590000D02*
X51978000Y-20590000D01*
X53178000Y-22590000D02*
X51978000Y-22590000D01*
G04 #@! TO.C,Rs4*
X125578000Y-73228000D02*
X119278000Y-73228000D01*
X125578000Y-70028000D02*
X125578000Y-73228000D01*
X119278000Y-70028000D02*
X125578000Y-70028000D01*
X119278000Y-73228000D02*
X119278000Y-70028000D01*
G04 #@! TO.C,Rs3*
X118466000Y-46050000D02*
X112166000Y-46050000D01*
X118466000Y-42850000D02*
X118466000Y-46050000D01*
X112166000Y-42850000D02*
X118466000Y-42850000D01*
X112166000Y-46050000D02*
X112166000Y-42850000D01*
G04 #@! TO.C,Rs2*
X115976000Y-49708000D02*
X122276000Y-49708000D01*
X115976000Y-52908000D02*
X115976000Y-49708000D01*
X122276000Y-52908000D02*
X115976000Y-52908000D01*
X122276000Y-49708000D02*
X122276000Y-52908000D01*
G04 #@! TO.C,Rs1*
X128372000Y-29794000D02*
X122072000Y-29794000D01*
X128372000Y-26594000D02*
X128372000Y-29794000D01*
X122072000Y-26594000D02*
X128372000Y-26594000D01*
X122072000Y-29794000D02*
X122072000Y-26594000D01*
G04 #@! TO.C,C6*
X51978000Y-24908000D02*
X53178000Y-24908000D01*
X53178000Y-24908000D02*
X53178000Y-26908000D01*
X53178000Y-26908000D02*
X51978000Y-26908000D01*
X51978000Y-26908000D02*
X51978000Y-24908000D01*
G04 #@! TO.C,C7*
X53178000Y-16272000D02*
X53178000Y-18272000D01*
X51978000Y-16272000D02*
X53178000Y-16272000D01*
X51978000Y-18272000D02*
X51978000Y-16272000D01*
X53178000Y-18272000D02*
X51978000Y-18272000D01*
G04 #@! TO.C,Co2*
X158642000Y-67000000D02*
X158642000Y-96000000D01*
X170542000Y-67000000D02*
X158642000Y-67000000D01*
X170542000Y-96000000D02*
X170542000Y-67000000D01*
X158642000Y-96000000D02*
X170542000Y-96000000D01*
G04 #@! TO.C,Cc1*
X171342000Y-65520000D02*
X183242000Y-65520000D01*
X183242000Y-65520000D02*
X183242000Y-36520000D01*
X183242000Y-36520000D02*
X171342000Y-36520000D01*
X171342000Y-36520000D02*
X171342000Y-65520000D01*
G04 #@! TO.C,Cc2*
X158642000Y-36520000D02*
X158642000Y-65520000D01*
X170542000Y-36520000D02*
X158642000Y-36520000D01*
X170542000Y-65520000D02*
X170542000Y-36520000D01*
X158642000Y-65520000D02*
X170542000Y-65520000D01*
G04 #@! TO.C,Cc3*
X145942000Y-65520000D02*
X157842000Y-65520000D01*
X157842000Y-65520000D02*
X157842000Y-36520000D01*
X157842000Y-36520000D02*
X145942000Y-36520000D01*
X145942000Y-36520000D02*
X145942000Y-65520000D01*
G04 #@! TO.C,Co1*
X171342000Y-67000000D02*
X171342000Y-96000000D01*
X183242000Y-67000000D02*
X171342000Y-67000000D01*
X183242000Y-96000000D02*
X183242000Y-67000000D01*
X171342000Y-96000000D02*
X183242000Y-96000000D01*
G04 #@! TO.C,Cc4*
X133242000Y-65520000D02*
X145142000Y-65520000D01*
X145142000Y-65520000D02*
X145142000Y-36520000D01*
X145142000Y-36520000D02*
X133242000Y-36520000D01*
X133242000Y-36520000D02*
X133242000Y-65520000D01*
G04 #@! TO.C,Co3*
X145942000Y-67000000D02*
X145942000Y-96000000D01*
X157842000Y-67000000D02*
X145942000Y-67000000D01*
X157842000Y-96000000D02*
X157842000Y-67000000D01*
X145942000Y-96000000D02*
X157842000Y-96000000D01*
G04 #@! TO.C,R102*
X138414000Y-28356000D02*
X138414000Y-29556000D01*
X138414000Y-29556000D02*
X136414000Y-29556000D01*
X136414000Y-29556000D02*
X136414000Y-28356000D01*
X136414000Y-28356000D02*
X138414000Y-28356000D01*
G04 #@! TO.C,R103*
X136414000Y-82966000D02*
X138414000Y-82966000D01*
X136414000Y-84166000D02*
X136414000Y-82966000D01*
X138414000Y-84166000D02*
X136414000Y-84166000D01*
X138414000Y-82966000D02*
X138414000Y-84166000D01*
G04 #@! TO.C,R104*
X138462500Y-79664000D02*
X138462500Y-80864000D01*
X138462500Y-80864000D02*
X136462500Y-80864000D01*
X136462500Y-80864000D02*
X136462500Y-79664000D01*
X136462500Y-79664000D02*
X138462500Y-79664000D01*
G04 #@! TD*
G04 #@! TO.C,U1*
D11*
X81828190Y-24574380D02*
X81352000Y-24574380D01*
X81352000Y-23574380D01*
X82018666Y-23574380D02*
X82590095Y-23574380D01*
X82304380Y-24574380D02*
X82304380Y-23574380D01*
X82875809Y-24526761D02*
X83018666Y-24574380D01*
X83256761Y-24574380D01*
X83352000Y-24526761D01*
X83399619Y-24479142D01*
X83447238Y-24383904D01*
X83447238Y-24288666D01*
X83399619Y-24193428D01*
X83352000Y-24145809D01*
X83256761Y-24098190D01*
X83066285Y-24050571D01*
X82971047Y-24002952D01*
X82923428Y-23955333D01*
X82875809Y-23860095D01*
X82875809Y-23764857D01*
X82923428Y-23669619D01*
X82971047Y-23622000D01*
X83066285Y-23574380D01*
X83304380Y-23574380D01*
X83447238Y-23622000D01*
X83875809Y-24574380D02*
X83875809Y-23574380D01*
X84256761Y-23574380D01*
X84352000Y-23622000D01*
X84399619Y-23669619D01*
X84447238Y-23764857D01*
X84447238Y-23907714D01*
X84399619Y-24002952D01*
X84352000Y-24050571D01*
X84256761Y-24098190D01*
X83875809Y-24098190D01*
X84637714Y-24669619D02*
X85399619Y-24669619D01*
X85590095Y-23669619D02*
X85637714Y-23622000D01*
X85732952Y-23574380D01*
X85971047Y-23574380D01*
X86066285Y-23622000D01*
X86113904Y-23669619D01*
X86161523Y-23764857D01*
X86161523Y-23860095D01*
X86113904Y-24002952D01*
X85542476Y-24574380D01*
X86161523Y-24574380D01*
X87066285Y-23574380D02*
X86590095Y-23574380D01*
X86542476Y-24050571D01*
X86590095Y-24002952D01*
X86685333Y-23955333D01*
X86923428Y-23955333D01*
X87018666Y-24002952D01*
X87066285Y-24050571D01*
X87113904Y-24145809D01*
X87113904Y-24383904D01*
X87066285Y-24479142D01*
X87018666Y-24526761D01*
X86923428Y-24574380D01*
X86685333Y-24574380D01*
X86590095Y-24526761D01*
X86542476Y-24479142D01*
X87542476Y-24193428D02*
X88304380Y-24193428D01*
X88780571Y-24574380D02*
X88780571Y-23574380D01*
X89352000Y-24574380D01*
X89352000Y-23574380D01*
X89828190Y-24574380D02*
X89828190Y-23574380D01*
X90209142Y-23574380D01*
X90304380Y-23622000D01*
X90352000Y-23669619D01*
X90399619Y-23764857D01*
X90399619Y-23907714D01*
X90352000Y-24002952D01*
X90304380Y-24050571D01*
X90209142Y-24098190D01*
X89828190Y-24098190D01*
G04 #@! TO.C,R101*
X136937809Y-24361142D02*
X136985428Y-24408761D01*
X136937809Y-24456380D01*
X136890190Y-24408761D01*
X136937809Y-24361142D01*
X136937809Y-24456380D01*
X136747333Y-23504000D02*
X136842571Y-23456380D01*
X137080666Y-23456380D01*
X137175904Y-23504000D01*
X137223523Y-23599238D01*
X137223523Y-23694476D01*
X137175904Y-23789714D01*
X137128285Y-23837333D01*
X137033047Y-23884952D01*
X136985428Y-23932571D01*
X136937809Y-24027809D01*
X136937809Y-24075428D01*
X137794952Y-24361142D02*
X137842571Y-24408761D01*
X137794952Y-24456380D01*
X137747333Y-24408761D01*
X137794952Y-24361142D01*
X137794952Y-24456380D01*
X137604476Y-23504000D02*
X137699714Y-23456380D01*
X137937809Y-23456380D01*
X138033047Y-23504000D01*
X138080666Y-23599238D01*
X138080666Y-23694476D01*
X138033047Y-23789714D01*
X137985428Y-23837333D01*
X137890190Y-23884952D01*
X137842571Y-23932571D01*
X137794952Y-24027809D01*
X137794952Y-24075428D01*
D12*
X136854476Y-25880190D02*
X136687809Y-25642095D01*
X136568761Y-25880190D02*
X136568761Y-25380190D01*
X136759238Y-25380190D01*
X136806857Y-25404000D01*
X136830666Y-25427809D01*
X136854476Y-25475428D01*
X136854476Y-25546857D01*
X136830666Y-25594476D01*
X136806857Y-25618285D01*
X136759238Y-25642095D01*
X136568761Y-25642095D01*
X137330666Y-25880190D02*
X137044952Y-25880190D01*
X137187809Y-25880190D02*
X137187809Y-25380190D01*
X137140190Y-25451619D01*
X137092571Y-25499238D01*
X137044952Y-25523047D01*
X137640190Y-25380190D02*
X137687809Y-25380190D01*
X137735428Y-25404000D01*
X137759238Y-25427809D01*
X137783047Y-25475428D01*
X137806857Y-25570666D01*
X137806857Y-25689714D01*
X137783047Y-25784952D01*
X137759238Y-25832571D01*
X137735428Y-25856380D01*
X137687809Y-25880190D01*
X137640190Y-25880190D01*
X137592571Y-25856380D01*
X137568761Y-25832571D01*
X137544952Y-25784952D01*
X137521142Y-25689714D01*
X137521142Y-25570666D01*
X137544952Y-25475428D01*
X137568761Y-25427809D01*
X137592571Y-25404000D01*
X137640190Y-25380190D01*
X138283047Y-25880190D02*
X137997333Y-25880190D01*
X138140190Y-25880190D02*
X138140190Y-25380190D01*
X138092571Y-25451619D01*
X138044952Y-25499238D01*
X137997333Y-25523047D01*
G04 #@! TO.C,U2*
D11*
X76406380Y-95566857D02*
X75406380Y-95566857D01*
X75406380Y-95328761D01*
X75454000Y-95185904D01*
X75549238Y-95090666D01*
X75644476Y-95043047D01*
X75834952Y-94995428D01*
X75977809Y-94995428D01*
X76168285Y-95043047D01*
X76263523Y-95090666D01*
X76358761Y-95185904D01*
X76406380Y-95328761D01*
X76406380Y-95566857D01*
X76406380Y-93995428D02*
X75930190Y-94328761D01*
X76406380Y-94566857D02*
X75406380Y-94566857D01*
X75406380Y-94185904D01*
X75454000Y-94090666D01*
X75501619Y-94043047D01*
X75596857Y-93995428D01*
X75739714Y-93995428D01*
X75834952Y-94043047D01*
X75882571Y-94090666D01*
X75930190Y-94185904D01*
X75930190Y-94566857D01*
X76406380Y-93566857D02*
X75406380Y-93566857D01*
X75406380Y-93233523D02*
X76406380Y-92900190D01*
X75406380Y-92566857D01*
X75882571Y-92233523D02*
X75882571Y-91900190D01*
X76406380Y-91757333D02*
X76406380Y-92233523D01*
X75406380Y-92233523D01*
X75406380Y-91757333D01*
X76406380Y-90757333D02*
X75930190Y-91090666D01*
X76406380Y-91328761D02*
X75406380Y-91328761D01*
X75406380Y-90947809D01*
X75454000Y-90852571D01*
X75501619Y-90804952D01*
X75596857Y-90757333D01*
X75739714Y-90757333D01*
X75834952Y-90804952D01*
X75882571Y-90852571D01*
X75930190Y-90947809D01*
X75930190Y-91328761D01*
X76501619Y-90566857D02*
X76501619Y-89804952D01*
X76787333Y-89281142D02*
X76739714Y-89328761D01*
X76596857Y-89424000D01*
X76501619Y-89471619D01*
X76358761Y-89519238D01*
X76120666Y-89566857D01*
X75930190Y-89566857D01*
X75692095Y-89519238D01*
X75549238Y-89471619D01*
X75454000Y-89424000D01*
X75311142Y-89328761D01*
X75263523Y-89281142D01*
X76406380Y-88900190D02*
X75406380Y-88900190D01*
X76406380Y-88424000D02*
X75406380Y-88424000D01*
X76406380Y-87852571D01*
X75406380Y-87852571D01*
X75882571Y-87376380D02*
X75882571Y-87043047D01*
X76406380Y-86900190D02*
X76406380Y-87376380D01*
X75406380Y-87376380D01*
X75406380Y-86900190D01*
X76406380Y-86471619D02*
X75406380Y-86471619D01*
X75406380Y-86090666D01*
X75454000Y-85995428D01*
X75501619Y-85947809D01*
X75596857Y-85900190D01*
X75739714Y-85900190D01*
X75834952Y-85947809D01*
X75882571Y-85995428D01*
X75930190Y-86090666D01*
X75930190Y-86471619D01*
X76787333Y-85566857D02*
X76739714Y-85519238D01*
X76596857Y-85424000D01*
X76501619Y-85376380D01*
X76358761Y-85328761D01*
X76120666Y-85281142D01*
X75930190Y-85281142D01*
X75692095Y-85328761D01*
X75549238Y-85376380D01*
X75454000Y-85424000D01*
X75311142Y-85519238D01*
X75263523Y-85566857D01*
G04 #@! TO.C,L1*
X110188380Y-28558666D02*
X110188380Y-29034857D01*
X110664571Y-29082476D01*
X110616952Y-29034857D01*
X110569333Y-28939619D01*
X110569333Y-28701523D01*
X110616952Y-28606285D01*
X110664571Y-28558666D01*
X110759809Y-28511047D01*
X110997904Y-28511047D01*
X111093142Y-28558666D01*
X111140761Y-28606285D01*
X111188380Y-28701523D01*
X111188380Y-28939619D01*
X111140761Y-29034857D01*
X111093142Y-29082476D01*
X110188380Y-27892000D02*
X110188380Y-27796761D01*
X110236000Y-27701523D01*
X110283619Y-27653904D01*
X110378857Y-27606285D01*
X110569333Y-27558666D01*
X110807428Y-27558666D01*
X110997904Y-27606285D01*
X111093142Y-27653904D01*
X111140761Y-27701523D01*
X111188380Y-27796761D01*
X111188380Y-27892000D01*
X111140761Y-27987238D01*
X111093142Y-28034857D01*
X110997904Y-28082476D01*
X110807428Y-28130095D01*
X110569333Y-28130095D01*
X110378857Y-28082476D01*
X110283619Y-28034857D01*
X110236000Y-27987238D01*
X110188380Y-27892000D01*
X110521714Y-26701523D02*
X111188380Y-26701523D01*
X110521714Y-27130095D02*
X111045523Y-27130095D01*
X111140761Y-27082476D01*
X111188380Y-26987238D01*
X111188380Y-26844380D01*
X111140761Y-26749142D01*
X111093142Y-26701523D01*
X111188380Y-26225333D02*
X110188380Y-26225333D01*
X110664571Y-26225333D02*
X110664571Y-25653904D01*
X111188380Y-25653904D02*
X110188380Y-25653904D01*
X110140761Y-24463428D02*
X111426476Y-25320571D01*
X110188380Y-23653904D02*
X110188380Y-24130095D01*
X110664571Y-24177714D01*
X110616952Y-24130095D01*
X110569333Y-24034857D01*
X110569333Y-23796761D01*
X110616952Y-23701523D01*
X110664571Y-23653904D01*
X110759809Y-23606285D01*
X110997904Y-23606285D01*
X111093142Y-23653904D01*
X111140761Y-23701523D01*
X111188380Y-23796761D01*
X111188380Y-24034857D01*
X111140761Y-24130095D01*
X111093142Y-24177714D01*
X110188380Y-22987238D02*
X110188380Y-22892000D01*
X110236000Y-22796761D01*
X110283619Y-22749142D01*
X110378857Y-22701523D01*
X110569333Y-22653904D01*
X110807428Y-22653904D01*
X110997904Y-22701523D01*
X111093142Y-22749142D01*
X111140761Y-22796761D01*
X111188380Y-22892000D01*
X111188380Y-22987238D01*
X111140761Y-23082476D01*
X111093142Y-23130095D01*
X110997904Y-23177714D01*
X110807428Y-23225333D01*
X110569333Y-23225333D01*
X110378857Y-23177714D01*
X110283619Y-23130095D01*
X110236000Y-23082476D01*
X110188380Y-22987238D01*
X110521714Y-21796761D02*
X111188380Y-21796761D01*
X110521714Y-22225333D02*
X111045523Y-22225333D01*
X111140761Y-22177714D01*
X111188380Y-22082476D01*
X111188380Y-21939619D01*
X111140761Y-21844380D01*
X111093142Y-21796761D01*
X111188380Y-21320571D02*
X110188380Y-21320571D01*
X110664571Y-21320571D02*
X110664571Y-20749142D01*
X111188380Y-20749142D02*
X110188380Y-20749142D01*
G04 #@! TO.C,U5*
X-539620Y-106973523D02*
X-539620Y-106306857D01*
X460380Y-106973523D01*
X460380Y-106306857D01*
X365142Y-105354476D02*
X412761Y-105402095D01*
X460380Y-105544952D01*
X460380Y-105640190D01*
X412761Y-105783047D01*
X317523Y-105878285D01*
X222285Y-105925904D01*
X31809Y-105973523D01*
X-111048Y-105973523D01*
X-301524Y-105925904D01*
X-396762Y-105878285D01*
X-492000Y-105783047D01*
X-539620Y-105640190D01*
X-539620Y-105544952D01*
X-492000Y-105402095D01*
X-444381Y-105354476D01*
X412761Y-104973523D02*
X460380Y-104830666D01*
X460380Y-104592571D01*
X412761Y-104497333D01*
X365142Y-104449714D01*
X269904Y-104402095D01*
X174666Y-104402095D01*
X79428Y-104449714D01*
X31809Y-104497333D01*
X-15810Y-104592571D01*
X-63429Y-104783047D01*
X-111048Y-104878285D01*
X-158667Y-104925904D01*
X-253905Y-104973523D01*
X-349143Y-104973523D01*
X-444381Y-104925904D01*
X-492000Y-104878285D01*
X-539620Y-104783047D01*
X-539620Y-104544952D01*
X-492000Y-104402095D01*
G04 #@! TO.C,Cs4*
X118285142Y-71342190D02*
X118332761Y-71294571D01*
X118380380Y-71342190D01*
X118332761Y-71389809D01*
X118285142Y-71342190D01*
X118380380Y-71342190D01*
X117428000Y-71532666D02*
X117380380Y-71437428D01*
X117380380Y-71199333D01*
X117428000Y-71104095D01*
X117523238Y-71056476D01*
X117618476Y-71056476D01*
X117713714Y-71104095D01*
X117761333Y-71151714D01*
X117808952Y-71246952D01*
X117856571Y-71294571D01*
X117951809Y-71342190D01*
X117999428Y-71342190D01*
X118285142Y-70485047D02*
X118332761Y-70437428D01*
X118380380Y-70485047D01*
X118332761Y-70532666D01*
X118285142Y-70485047D01*
X118380380Y-70485047D01*
X117428000Y-70675523D02*
X117380380Y-70580285D01*
X117380380Y-70342190D01*
X117428000Y-70246952D01*
X117523238Y-70199333D01*
X117618476Y-70199333D01*
X117713714Y-70246952D01*
X117761333Y-70294571D01*
X117808952Y-70389809D01*
X117856571Y-70437428D01*
X117951809Y-70485047D01*
X117999428Y-70485047D01*
D13*
X116363714Y-71323142D02*
X116401809Y-71361238D01*
X116439904Y-71475523D01*
X116439904Y-71551714D01*
X116401809Y-71666000D01*
X116325619Y-71742190D01*
X116249428Y-71780285D01*
X116097047Y-71818380D01*
X115982761Y-71818380D01*
X115830380Y-71780285D01*
X115754190Y-71742190D01*
X115678000Y-71666000D01*
X115639904Y-71551714D01*
X115639904Y-71475523D01*
X115678000Y-71361238D01*
X115716095Y-71323142D01*
X116401809Y-71018380D02*
X116439904Y-70942190D01*
X116439904Y-70789809D01*
X116401809Y-70713619D01*
X116325619Y-70675523D01*
X116287523Y-70675523D01*
X116211333Y-70713619D01*
X116173238Y-70789809D01*
X116173238Y-70904095D01*
X116135142Y-70980285D01*
X116058952Y-71018380D01*
X116020857Y-71018380D01*
X115944666Y-70980285D01*
X115906571Y-70904095D01*
X115906571Y-70789809D01*
X115944666Y-70713619D01*
X115906571Y-69989809D02*
X116439904Y-69989809D01*
X115601809Y-70180285D02*
X116173238Y-70370761D01*
X116173238Y-69875523D01*
G04 #@! TO.C,Cs3*
D11*
X111283142Y-58642190D02*
X111330761Y-58594571D01*
X111378380Y-58642190D01*
X111330761Y-58689809D01*
X111283142Y-58642190D01*
X111378380Y-58642190D01*
X110426000Y-58832666D02*
X110378380Y-58737428D01*
X110378380Y-58499333D01*
X110426000Y-58404095D01*
X110521238Y-58356476D01*
X110616476Y-58356476D01*
X110711714Y-58404095D01*
X110759333Y-58451714D01*
X110806952Y-58546952D01*
X110854571Y-58594571D01*
X110949809Y-58642190D01*
X110997428Y-58642190D01*
X111283142Y-57785047D02*
X111330761Y-57737428D01*
X111378380Y-57785047D01*
X111330761Y-57832666D01*
X111283142Y-57785047D01*
X111378380Y-57785047D01*
X110426000Y-57975523D02*
X110378380Y-57880285D01*
X110378380Y-57642190D01*
X110426000Y-57546952D01*
X110521238Y-57499333D01*
X110616476Y-57499333D01*
X110711714Y-57546952D01*
X110759333Y-57594571D01*
X110806952Y-57689809D01*
X110854571Y-57737428D01*
X110949809Y-57785047D01*
X110997428Y-57785047D01*
D13*
X113061714Y-58623142D02*
X113099809Y-58661238D01*
X113137904Y-58775523D01*
X113137904Y-58851714D01*
X113099809Y-58966000D01*
X113023619Y-59042190D01*
X112947428Y-59080285D01*
X112795047Y-59118380D01*
X112680761Y-59118380D01*
X112528380Y-59080285D01*
X112452190Y-59042190D01*
X112376000Y-58966000D01*
X112337904Y-58851714D01*
X112337904Y-58775523D01*
X112376000Y-58661238D01*
X112414095Y-58623142D01*
X113099809Y-58318380D02*
X113137904Y-58242190D01*
X113137904Y-58089809D01*
X113099809Y-58013619D01*
X113023619Y-57975523D01*
X112985523Y-57975523D01*
X112909333Y-58013619D01*
X112871238Y-58089809D01*
X112871238Y-58204095D01*
X112833142Y-58280285D01*
X112756952Y-58318380D01*
X112718857Y-58318380D01*
X112642666Y-58280285D01*
X112604571Y-58204095D01*
X112604571Y-58089809D01*
X112642666Y-58013619D01*
X112337904Y-57708857D02*
X112337904Y-57213619D01*
X112642666Y-57480285D01*
X112642666Y-57366000D01*
X112680761Y-57289809D01*
X112718857Y-57251714D01*
X112795047Y-57213619D01*
X112985523Y-57213619D01*
X113061714Y-57251714D01*
X113099809Y-57289809D01*
X113137904Y-57366000D01*
X113137904Y-57594571D01*
X113099809Y-57670761D01*
X113061714Y-57708857D01*
G04 #@! TO.C,Cs2*
D11*
X124889142Y-44926190D02*
X124936761Y-44878571D01*
X124984380Y-44926190D01*
X124936761Y-44973809D01*
X124889142Y-44926190D01*
X124984380Y-44926190D01*
X124032000Y-45116666D02*
X123984380Y-45021428D01*
X123984380Y-44783333D01*
X124032000Y-44688095D01*
X124127238Y-44640476D01*
X124222476Y-44640476D01*
X124317714Y-44688095D01*
X124365333Y-44735714D01*
X124412952Y-44830952D01*
X124460571Y-44878571D01*
X124555809Y-44926190D01*
X124603428Y-44926190D01*
X124889142Y-44069047D02*
X124936761Y-44021428D01*
X124984380Y-44069047D01*
X124936761Y-44116666D01*
X124889142Y-44069047D01*
X124984380Y-44069047D01*
X124032000Y-44259523D02*
X123984380Y-44164285D01*
X123984380Y-43926190D01*
X124032000Y-43830952D01*
X124127238Y-43783333D01*
X124222476Y-43783333D01*
X124317714Y-43830952D01*
X124365333Y-43878571D01*
X124412952Y-43973809D01*
X124460571Y-44021428D01*
X124555809Y-44069047D01*
X124603428Y-44069047D01*
D13*
X122967714Y-44907142D02*
X123005809Y-44945238D01*
X123043904Y-45059523D01*
X123043904Y-45135714D01*
X123005809Y-45250000D01*
X122929619Y-45326190D01*
X122853428Y-45364285D01*
X122701047Y-45402380D01*
X122586761Y-45402380D01*
X122434380Y-45364285D01*
X122358190Y-45326190D01*
X122282000Y-45250000D01*
X122243904Y-45135714D01*
X122243904Y-45059523D01*
X122282000Y-44945238D01*
X122320095Y-44907142D01*
X123005809Y-44602380D02*
X123043904Y-44526190D01*
X123043904Y-44373809D01*
X123005809Y-44297619D01*
X122929619Y-44259523D01*
X122891523Y-44259523D01*
X122815333Y-44297619D01*
X122777238Y-44373809D01*
X122777238Y-44488095D01*
X122739142Y-44564285D01*
X122662952Y-44602380D01*
X122624857Y-44602380D01*
X122548666Y-44564285D01*
X122510571Y-44488095D01*
X122510571Y-44373809D01*
X122548666Y-44297619D01*
X122320095Y-43954761D02*
X122282000Y-43916666D01*
X122243904Y-43840476D01*
X122243904Y-43650000D01*
X122282000Y-43573809D01*
X122320095Y-43535714D01*
X122396285Y-43497619D01*
X122472476Y-43497619D01*
X122586761Y-43535714D01*
X123043904Y-43992857D01*
X123043904Y-43497619D01*
G04 #@! TO.C,Cs1*
D11*
X118395142Y-31210190D02*
X118442761Y-31162571D01*
X118490380Y-31210190D01*
X118442761Y-31257809D01*
X118395142Y-31210190D01*
X118490380Y-31210190D01*
X117538000Y-31400666D02*
X117490380Y-31305428D01*
X117490380Y-31067333D01*
X117538000Y-30972095D01*
X117633238Y-30924476D01*
X117728476Y-30924476D01*
X117823714Y-30972095D01*
X117871333Y-31019714D01*
X117918952Y-31114952D01*
X117966571Y-31162571D01*
X118061809Y-31210190D01*
X118109428Y-31210190D01*
X118395142Y-30353047D02*
X118442761Y-30305428D01*
X118490380Y-30353047D01*
X118442761Y-30400666D01*
X118395142Y-30353047D01*
X118490380Y-30353047D01*
X117538000Y-30543523D02*
X117490380Y-30448285D01*
X117490380Y-30210190D01*
X117538000Y-30114952D01*
X117633238Y-30067333D01*
X117728476Y-30067333D01*
X117823714Y-30114952D01*
X117871333Y-30162571D01*
X117918952Y-30257809D01*
X117966571Y-30305428D01*
X118061809Y-30353047D01*
X118109428Y-30353047D01*
D13*
X120173714Y-31191142D02*
X120211809Y-31229238D01*
X120249904Y-31343523D01*
X120249904Y-31419714D01*
X120211809Y-31534000D01*
X120135619Y-31610190D01*
X120059428Y-31648285D01*
X119907047Y-31686380D01*
X119792761Y-31686380D01*
X119640380Y-31648285D01*
X119564190Y-31610190D01*
X119488000Y-31534000D01*
X119449904Y-31419714D01*
X119449904Y-31343523D01*
X119488000Y-31229238D01*
X119526095Y-31191142D01*
X120211809Y-30886380D02*
X120249904Y-30810190D01*
X120249904Y-30657809D01*
X120211809Y-30581619D01*
X120135619Y-30543523D01*
X120097523Y-30543523D01*
X120021333Y-30581619D01*
X119983238Y-30657809D01*
X119983238Y-30772095D01*
X119945142Y-30848285D01*
X119868952Y-30886380D01*
X119830857Y-30886380D01*
X119754666Y-30848285D01*
X119716571Y-30772095D01*
X119716571Y-30657809D01*
X119754666Y-30581619D01*
X120249904Y-29781619D02*
X120249904Y-30238761D01*
X120249904Y-30010190D02*
X119449904Y-30010190D01*
X119564190Y-30086380D01*
X119640380Y-30162571D01*
X119678476Y-30238761D01*
G04 #@! TO.C,U3*
D11*
X95924380Y-81588952D02*
X95924380Y-82065142D01*
X94924380Y-82065142D01*
X95924380Y-81255619D02*
X94924380Y-81255619D01*
X95638666Y-80922285D01*
X94924380Y-80588952D01*
X95924380Y-80588952D01*
X94924380Y-80208000D02*
X94924380Y-79541333D01*
X95924380Y-79969904D01*
X95352952Y-79017523D02*
X95305333Y-79112761D01*
X95257714Y-79160380D01*
X95162476Y-79208000D01*
X95114857Y-79208000D01*
X95019619Y-79160380D01*
X94972000Y-79112761D01*
X94924380Y-79017523D01*
X94924380Y-78827047D01*
X94972000Y-78731809D01*
X95019619Y-78684190D01*
X95114857Y-78636571D01*
X95162476Y-78636571D01*
X95257714Y-78684190D01*
X95305333Y-78731809D01*
X95352952Y-78827047D01*
X95352952Y-79017523D01*
X95400571Y-79112761D01*
X95448190Y-79160380D01*
X95543428Y-79208000D01*
X95733904Y-79208000D01*
X95829142Y-79160380D01*
X95876761Y-79112761D01*
X95924380Y-79017523D01*
X95924380Y-78827047D01*
X95876761Y-78731809D01*
X95829142Y-78684190D01*
X95733904Y-78636571D01*
X95543428Y-78636571D01*
X95448190Y-78684190D01*
X95400571Y-78731809D01*
X95352952Y-78827047D01*
X95924380Y-77684190D02*
X95924380Y-78255619D01*
X95924380Y-77969904D02*
X94924380Y-77969904D01*
X95067238Y-78065142D01*
X95162476Y-78160380D01*
X95210095Y-78255619D01*
X95019619Y-77303238D02*
X94972000Y-77255619D01*
X94924380Y-77160380D01*
X94924380Y-76922285D01*
X94972000Y-76827047D01*
X95019619Y-76779428D01*
X95114857Y-76731809D01*
X95210095Y-76731809D01*
X95352952Y-76779428D01*
X95924380Y-77350857D01*
X95924380Y-76731809D01*
X96019619Y-76541333D02*
X96019619Y-75779428D01*
X94924380Y-75684190D02*
X94924380Y-75112761D01*
X95924380Y-75398476D02*
X94924380Y-75398476D01*
X94924380Y-74588952D02*
X94924380Y-74398476D01*
X94972000Y-74303238D01*
X95067238Y-74208000D01*
X95257714Y-74160380D01*
X95591047Y-74160380D01*
X95781523Y-74208000D01*
X95876761Y-74303238D01*
X95924380Y-74398476D01*
X95924380Y-74588952D01*
X95876761Y-74684190D01*
X95781523Y-74779428D01*
X95591047Y-74827047D01*
X95257714Y-74827047D01*
X95067238Y-74779428D01*
X94972000Y-74684190D01*
X94924380Y-74588952D01*
X95019619Y-73779428D02*
X94972000Y-73731809D01*
X94924380Y-73636571D01*
X94924380Y-73398476D01*
X94972000Y-73303238D01*
X95019619Y-73255619D01*
X95114857Y-73208000D01*
X95210095Y-73208000D01*
X95352952Y-73255619D01*
X95924380Y-73827047D01*
X95924380Y-73208000D01*
X95019619Y-72827047D02*
X94972000Y-72779428D01*
X94924380Y-72684190D01*
X94924380Y-72446095D01*
X94972000Y-72350857D01*
X95019619Y-72303238D01*
X95114857Y-72255619D01*
X95210095Y-72255619D01*
X95352952Y-72303238D01*
X95924380Y-72874666D01*
X95924380Y-72255619D01*
X94924380Y-71636571D02*
X94924380Y-71541333D01*
X94972000Y-71446095D01*
X95019619Y-71398476D01*
X95114857Y-71350857D01*
X95305333Y-71303238D01*
X95543428Y-71303238D01*
X95733904Y-71350857D01*
X95829142Y-71398476D01*
X95876761Y-71446095D01*
X95924380Y-71541333D01*
X95924380Y-71636571D01*
X95876761Y-71731809D01*
X95829142Y-71779428D01*
X95733904Y-71827047D01*
X95543428Y-71874666D01*
X95305333Y-71874666D01*
X95114857Y-71827047D01*
X95019619Y-71779428D01*
X94972000Y-71731809D01*
X94924380Y-71636571D01*
X72344380Y-77469904D02*
X73153904Y-77469904D01*
X73249142Y-77422285D01*
X73296761Y-77374666D01*
X73344380Y-77279428D01*
X73344380Y-77088952D01*
X73296761Y-76993714D01*
X73249142Y-76946095D01*
X73153904Y-76898476D01*
X72344380Y-76898476D01*
X72344380Y-76517523D02*
X72344380Y-75898476D01*
X72725333Y-76231809D01*
X72725333Y-76088952D01*
X72772952Y-75993714D01*
X72820571Y-75946095D01*
X72915809Y-75898476D01*
X73153904Y-75898476D01*
X73249142Y-75946095D01*
X73296761Y-75993714D01*
X73344380Y-76088952D01*
X73344380Y-76374666D01*
X73296761Y-76469904D01*
X73249142Y-76517523D01*
G04 #@! TO.C,Ci2*
X164055714Y-28208761D02*
X164722380Y-28208761D01*
X163674761Y-28446857D02*
X164389047Y-28684952D01*
X164389047Y-28065904D01*
X164627142Y-27684952D02*
X164674761Y-27637333D01*
X164722380Y-27684952D01*
X164674761Y-27732571D01*
X164627142Y-27684952D01*
X164722380Y-27684952D01*
X163722380Y-27304000D02*
X163722380Y-26637333D01*
X164722380Y-27065904D01*
X164055714Y-25827809D02*
X164722380Y-25827809D01*
X164055714Y-26256380D02*
X164579523Y-26256380D01*
X164674761Y-26208761D01*
X164722380Y-26113523D01*
X164722380Y-25970666D01*
X164674761Y-25875428D01*
X164627142Y-25827809D01*
X164198571Y-25018285D02*
X164198571Y-25351619D01*
X164722380Y-25351619D02*
X163722380Y-25351619D01*
X163722380Y-24875428D01*
X170537142Y-27208761D02*
X170584761Y-27256380D01*
X170632380Y-27399238D01*
X170632380Y-27494476D01*
X170584761Y-27637333D01*
X170489523Y-27732571D01*
X170394285Y-27780190D01*
X170203809Y-27827809D01*
X170060952Y-27827809D01*
X169870476Y-27780190D01*
X169775238Y-27732571D01*
X169680000Y-27637333D01*
X169632380Y-27494476D01*
X169632380Y-27399238D01*
X169680000Y-27256380D01*
X169727619Y-27208761D01*
X170632380Y-26780190D02*
X169965714Y-26780190D01*
X169632380Y-26780190D02*
X169680000Y-26827809D01*
X169727619Y-26780190D01*
X169680000Y-26732571D01*
X169632380Y-26780190D01*
X169727619Y-26780190D01*
X169727619Y-26351619D02*
X169680000Y-26304000D01*
X169632380Y-26208761D01*
X169632380Y-25970666D01*
X169680000Y-25875428D01*
X169727619Y-25827809D01*
X169822857Y-25780190D01*
X169918095Y-25780190D01*
X170060952Y-25827809D01*
X170632380Y-26399238D01*
X170632380Y-25780190D01*
G04 #@! TO.C,Ci1*
X174215714Y-28208761D02*
X174882380Y-28208761D01*
X173834761Y-28446857D02*
X174549047Y-28684952D01*
X174549047Y-28065904D01*
X174787142Y-27684952D02*
X174834761Y-27637333D01*
X174882380Y-27684952D01*
X174834761Y-27732571D01*
X174787142Y-27684952D01*
X174882380Y-27684952D01*
X173882380Y-27304000D02*
X173882380Y-26637333D01*
X174882380Y-27065904D01*
X174215714Y-25827809D02*
X174882380Y-25827809D01*
X174215714Y-26256380D02*
X174739523Y-26256380D01*
X174834761Y-26208761D01*
X174882380Y-26113523D01*
X174882380Y-25970666D01*
X174834761Y-25875428D01*
X174787142Y-25827809D01*
X174358571Y-25018285D02*
X174358571Y-25351619D01*
X174882380Y-25351619D02*
X173882380Y-25351619D01*
X173882380Y-24875428D01*
X180697142Y-27208761D02*
X180744761Y-27256380D01*
X180792380Y-27399238D01*
X180792380Y-27494476D01*
X180744761Y-27637333D01*
X180649523Y-27732571D01*
X180554285Y-27780190D01*
X180363809Y-27827809D01*
X180220952Y-27827809D01*
X180030476Y-27780190D01*
X179935238Y-27732571D01*
X179840000Y-27637333D01*
X179792380Y-27494476D01*
X179792380Y-27399238D01*
X179840000Y-27256380D01*
X179887619Y-27208761D01*
X180792380Y-26780190D02*
X180125714Y-26780190D01*
X179792380Y-26780190D02*
X179840000Y-26827809D01*
X179887619Y-26780190D01*
X179840000Y-26732571D01*
X179792380Y-26780190D01*
X179887619Y-26780190D01*
X180792380Y-25780190D02*
X180792380Y-26351619D01*
X180792380Y-26065904D02*
X179792380Y-26065904D01*
X179935238Y-26161142D01*
X180030476Y-26256380D01*
X180078095Y-26351619D01*
G04 #@! TO.C,Ci3*
X153895714Y-28208761D02*
X154562380Y-28208761D01*
X153514761Y-28446857D02*
X154229047Y-28684952D01*
X154229047Y-28065904D01*
X154467142Y-27684952D02*
X154514761Y-27637333D01*
X154562380Y-27684952D01*
X154514761Y-27732571D01*
X154467142Y-27684952D01*
X154562380Y-27684952D01*
X153562380Y-27304000D02*
X153562380Y-26637333D01*
X154562380Y-27065904D01*
X153895714Y-25827809D02*
X154562380Y-25827809D01*
X153895714Y-26256380D02*
X154419523Y-26256380D01*
X154514761Y-26208761D01*
X154562380Y-26113523D01*
X154562380Y-25970666D01*
X154514761Y-25875428D01*
X154467142Y-25827809D01*
X154038571Y-25018285D02*
X154038571Y-25351619D01*
X154562380Y-25351619D02*
X153562380Y-25351619D01*
X153562380Y-24875428D01*
X160377142Y-27208761D02*
X160424761Y-27256380D01*
X160472380Y-27399238D01*
X160472380Y-27494476D01*
X160424761Y-27637333D01*
X160329523Y-27732571D01*
X160234285Y-27780190D01*
X160043809Y-27827809D01*
X159900952Y-27827809D01*
X159710476Y-27780190D01*
X159615238Y-27732571D01*
X159520000Y-27637333D01*
X159472380Y-27494476D01*
X159472380Y-27399238D01*
X159520000Y-27256380D01*
X159567619Y-27208761D01*
X160472380Y-26780190D02*
X159805714Y-26780190D01*
X159472380Y-26780190D02*
X159520000Y-26827809D01*
X159567619Y-26780190D01*
X159520000Y-26732571D01*
X159472380Y-26780190D01*
X159567619Y-26780190D01*
X159472380Y-26399238D02*
X159472380Y-25780190D01*
X159853333Y-26113523D01*
X159853333Y-25970666D01*
X159900952Y-25875428D01*
X159948571Y-25827809D01*
X160043809Y-25780190D01*
X160281904Y-25780190D01*
X160377142Y-25827809D01*
X160424761Y-25875428D01*
X160472380Y-25970666D01*
X160472380Y-26256380D01*
X160424761Y-26351619D01*
X160377142Y-26399238D01*
G04 #@! TO.C,Ds2*
X119856476Y-60344571D02*
X119999333Y-60392190D01*
X120046952Y-60439809D01*
X120094571Y-60535047D01*
X120094571Y-60677904D01*
X120046952Y-60773142D01*
X119999333Y-60820761D01*
X119904095Y-60868380D01*
X119523142Y-60868380D01*
X119523142Y-59868380D01*
X119856476Y-59868380D01*
X119951714Y-59916000D01*
X119999333Y-59963619D01*
X120046952Y-60058857D01*
X120046952Y-60154095D01*
X119999333Y-60249333D01*
X119951714Y-60296952D01*
X119856476Y-60344571D01*
X119523142Y-60344571D01*
X120713619Y-60392190D02*
X120713619Y-60868380D01*
X120380285Y-59868380D02*
X120713619Y-60392190D01*
X121046952Y-59868380D01*
X121380285Y-60868380D02*
X121380285Y-59868380D01*
X121618380Y-59868380D01*
X121761238Y-59916000D01*
X121856476Y-60011238D01*
X121904095Y-60106476D01*
X121951714Y-60296952D01*
X121951714Y-60439809D01*
X121904095Y-60630285D01*
X121856476Y-60725523D01*
X121761238Y-60820761D01*
X121618380Y-60868380D01*
X121380285Y-60868380D01*
X122285047Y-59868380D02*
X122951714Y-59868380D01*
X122523142Y-60868380D01*
X123237428Y-59868380D02*
X123904095Y-59868380D01*
X123475523Y-60868380D01*
X120523142Y-56368380D02*
X120523142Y-55368380D01*
X120761238Y-55368380D01*
X120904095Y-55416000D01*
X120999333Y-55511238D01*
X121046952Y-55606476D01*
X121094571Y-55796952D01*
X121094571Y-55939809D01*
X121046952Y-56130285D01*
X120999333Y-56225523D01*
X120904095Y-56320761D01*
X120761238Y-56368380D01*
X120523142Y-56368380D01*
X121475523Y-56320761D02*
X121570761Y-56368380D01*
X121761238Y-56368380D01*
X121856476Y-56320761D01*
X121904095Y-56225523D01*
X121904095Y-56177904D01*
X121856476Y-56082666D01*
X121761238Y-56035047D01*
X121618380Y-56035047D01*
X121523142Y-55987428D01*
X121475523Y-55892190D01*
X121475523Y-55844571D01*
X121523142Y-55749333D01*
X121618380Y-55701714D01*
X121761238Y-55701714D01*
X121856476Y-55749333D01*
X122285047Y-55463619D02*
X122332666Y-55416000D01*
X122427904Y-55368380D01*
X122666000Y-55368380D01*
X122761238Y-55416000D01*
X122808857Y-55463619D01*
X122856476Y-55558857D01*
X122856476Y-55654095D01*
X122808857Y-55796952D01*
X122237428Y-56368380D01*
X122856476Y-56368380D01*
G04 #@! TO.C,Ds1*
X129178571Y-48545523D02*
X129226190Y-48402666D01*
X129273809Y-48355047D01*
X129369047Y-48307428D01*
X129511904Y-48307428D01*
X129607142Y-48355047D01*
X129654761Y-48402666D01*
X129702380Y-48497904D01*
X129702380Y-48878857D01*
X128702380Y-48878857D01*
X128702380Y-48545523D01*
X128750000Y-48450285D01*
X128797619Y-48402666D01*
X128892857Y-48355047D01*
X128988095Y-48355047D01*
X129083333Y-48402666D01*
X129130952Y-48450285D01*
X129178571Y-48545523D01*
X129178571Y-48878857D01*
X129226190Y-47688380D02*
X129702380Y-47688380D01*
X128702380Y-48021714D02*
X129226190Y-47688380D01*
X128702380Y-47355047D01*
X129702380Y-47021714D02*
X128702380Y-47021714D01*
X128702380Y-46783619D01*
X128750000Y-46640761D01*
X128845238Y-46545523D01*
X128940476Y-46497904D01*
X129130952Y-46450285D01*
X129273809Y-46450285D01*
X129464285Y-46497904D01*
X129559523Y-46545523D01*
X129654761Y-46640761D01*
X129702380Y-46783619D01*
X129702380Y-47021714D01*
X128702380Y-46116952D02*
X128702380Y-45450285D01*
X129702380Y-45878857D01*
X128702380Y-45164571D02*
X128702380Y-44497904D01*
X129702380Y-44926476D01*
X125202380Y-47878857D02*
X124202380Y-47878857D01*
X124202380Y-47640761D01*
X124250000Y-47497904D01*
X124345238Y-47402666D01*
X124440476Y-47355047D01*
X124630952Y-47307428D01*
X124773809Y-47307428D01*
X124964285Y-47355047D01*
X125059523Y-47402666D01*
X125154761Y-47497904D01*
X125202380Y-47640761D01*
X125202380Y-47878857D01*
X125154761Y-46926476D02*
X125202380Y-46831238D01*
X125202380Y-46640761D01*
X125154761Y-46545523D01*
X125059523Y-46497904D01*
X125011904Y-46497904D01*
X124916666Y-46545523D01*
X124869047Y-46640761D01*
X124869047Y-46783619D01*
X124821428Y-46878857D01*
X124726190Y-46926476D01*
X124678571Y-46926476D01*
X124583333Y-46878857D01*
X124535714Y-46783619D01*
X124535714Y-46640761D01*
X124583333Y-46545523D01*
X125202380Y-45545523D02*
X125202380Y-46116952D01*
X125202380Y-45831238D02*
X124202380Y-45831238D01*
X124345238Y-45926476D01*
X124440476Y-46021714D01*
X124488095Y-46116952D01*
G04 #@! TO.C,L2*
X54680380Y-23780476D02*
X54680380Y-24256666D01*
X53680380Y-24256666D01*
X54775619Y-23685238D02*
X54775619Y-22923333D01*
X54632761Y-22732857D02*
X54680380Y-22590000D01*
X54680380Y-22351904D01*
X54632761Y-22256666D01*
X54585142Y-22209047D01*
X54489904Y-22161428D01*
X54394666Y-22161428D01*
X54299428Y-22209047D01*
X54251809Y-22256666D01*
X54204190Y-22351904D01*
X54156571Y-22542380D01*
X54108952Y-22637619D01*
X54061333Y-22685238D01*
X53966095Y-22732857D01*
X53870857Y-22732857D01*
X53775619Y-22685238D01*
X53728000Y-22637619D01*
X53680380Y-22542380D01*
X53680380Y-22304285D01*
X53728000Y-22161428D01*
X54680380Y-21732857D02*
X54013714Y-21732857D01*
X54108952Y-21732857D02*
X54061333Y-21685238D01*
X54013714Y-21590000D01*
X54013714Y-21447142D01*
X54061333Y-21351904D01*
X54156571Y-21304285D01*
X54680380Y-21304285D01*
X54156571Y-21304285D02*
X54061333Y-21256666D01*
X54013714Y-21161428D01*
X54013714Y-21018571D01*
X54061333Y-20923333D01*
X54156571Y-20875714D01*
X54680380Y-20875714D01*
X54680380Y-19970952D02*
X54156571Y-19970952D01*
X54061333Y-20018571D01*
X54013714Y-20113809D01*
X54013714Y-20304285D01*
X54061333Y-20399523D01*
X54632761Y-19970952D02*
X54680380Y-20066190D01*
X54680380Y-20304285D01*
X54632761Y-20399523D01*
X54537523Y-20447142D01*
X54442285Y-20447142D01*
X54347047Y-20399523D01*
X54299428Y-20304285D01*
X54299428Y-20066190D01*
X54251809Y-19970952D01*
X54680380Y-19351904D02*
X54632761Y-19447142D01*
X54537523Y-19494761D01*
X53680380Y-19494761D01*
X54680380Y-18828095D02*
X54632761Y-18923333D01*
X54537523Y-18970952D01*
X53680380Y-18970952D01*
D12*
X52804190Y-21673333D02*
X52804190Y-21911428D01*
X52304190Y-21911428D01*
X52351809Y-21530476D02*
X52328000Y-21506666D01*
X52304190Y-21459047D01*
X52304190Y-21340000D01*
X52328000Y-21292380D01*
X52351809Y-21268571D01*
X52399428Y-21244761D01*
X52447047Y-21244761D01*
X52518476Y-21268571D01*
X52804190Y-21554285D01*
X52804190Y-21244761D01*
G04 #@! TO.C,Rs4*
D11*
X121951809Y-74635142D02*
X121999428Y-74682761D01*
X121951809Y-74730380D01*
X121904190Y-74682761D01*
X121951809Y-74635142D01*
X121951809Y-74730380D01*
X121761333Y-73778000D02*
X121856571Y-73730380D01*
X122094666Y-73730380D01*
X122189904Y-73778000D01*
X122237523Y-73873238D01*
X122237523Y-73968476D01*
X122189904Y-74063714D01*
X122142285Y-74111333D01*
X122047047Y-74158952D01*
X121999428Y-74206571D01*
X121951809Y-74301809D01*
X121951809Y-74349428D01*
X122808952Y-74635142D02*
X122856571Y-74682761D01*
X122808952Y-74730380D01*
X122761333Y-74682761D01*
X122808952Y-74635142D01*
X122808952Y-74730380D01*
X122618476Y-73778000D02*
X122713714Y-73730380D01*
X122951809Y-73730380D01*
X123047047Y-73778000D01*
X123094666Y-73873238D01*
X123094666Y-73968476D01*
X123047047Y-74063714D01*
X122999428Y-74111333D01*
X122904190Y-74158952D01*
X122856571Y-74206571D01*
X122808952Y-74301809D01*
X122808952Y-74349428D01*
X121856571Y-72080380D02*
X121523238Y-71604190D01*
X121285142Y-72080380D02*
X121285142Y-71080380D01*
X121666095Y-71080380D01*
X121761333Y-71128000D01*
X121808952Y-71175619D01*
X121856571Y-71270857D01*
X121856571Y-71413714D01*
X121808952Y-71508952D01*
X121761333Y-71556571D01*
X121666095Y-71604190D01*
X121285142Y-71604190D01*
X122237523Y-72032761D02*
X122332761Y-72080380D01*
X122523238Y-72080380D01*
X122618476Y-72032761D01*
X122666095Y-71937523D01*
X122666095Y-71889904D01*
X122618476Y-71794666D01*
X122523238Y-71747047D01*
X122380380Y-71747047D01*
X122285142Y-71699428D01*
X122237523Y-71604190D01*
X122237523Y-71556571D01*
X122285142Y-71461333D01*
X122380380Y-71413714D01*
X122523238Y-71413714D01*
X122618476Y-71461333D01*
X123523238Y-71413714D02*
X123523238Y-72080380D01*
X123285142Y-71032761D02*
X123047047Y-71747047D01*
X123666095Y-71747047D01*
G04 #@! TO.C,Rs3*
X114839809Y-47457142D02*
X114887428Y-47504761D01*
X114839809Y-47552380D01*
X114792190Y-47504761D01*
X114839809Y-47457142D01*
X114839809Y-47552380D01*
X114649333Y-46600000D02*
X114744571Y-46552380D01*
X114982666Y-46552380D01*
X115077904Y-46600000D01*
X115125523Y-46695238D01*
X115125523Y-46790476D01*
X115077904Y-46885714D01*
X115030285Y-46933333D01*
X114935047Y-46980952D01*
X114887428Y-47028571D01*
X114839809Y-47123809D01*
X114839809Y-47171428D01*
X115696952Y-47457142D02*
X115744571Y-47504761D01*
X115696952Y-47552380D01*
X115649333Y-47504761D01*
X115696952Y-47457142D01*
X115696952Y-47552380D01*
X115506476Y-46600000D02*
X115601714Y-46552380D01*
X115839809Y-46552380D01*
X115935047Y-46600000D01*
X115982666Y-46695238D01*
X115982666Y-46790476D01*
X115935047Y-46885714D01*
X115887428Y-46933333D01*
X115792190Y-46980952D01*
X115744571Y-47028571D01*
X115696952Y-47123809D01*
X115696952Y-47171428D01*
X114744571Y-44902380D02*
X114411238Y-44426190D01*
X114173142Y-44902380D02*
X114173142Y-43902380D01*
X114554095Y-43902380D01*
X114649333Y-43950000D01*
X114696952Y-43997619D01*
X114744571Y-44092857D01*
X114744571Y-44235714D01*
X114696952Y-44330952D01*
X114649333Y-44378571D01*
X114554095Y-44426190D01*
X114173142Y-44426190D01*
X115125523Y-44854761D02*
X115220761Y-44902380D01*
X115411238Y-44902380D01*
X115506476Y-44854761D01*
X115554095Y-44759523D01*
X115554095Y-44711904D01*
X115506476Y-44616666D01*
X115411238Y-44569047D01*
X115268380Y-44569047D01*
X115173142Y-44521428D01*
X115125523Y-44426190D01*
X115125523Y-44378571D01*
X115173142Y-44283333D01*
X115268380Y-44235714D01*
X115411238Y-44235714D01*
X115506476Y-44283333D01*
X115887428Y-43902380D02*
X116506476Y-43902380D01*
X116173142Y-44283333D01*
X116316000Y-44283333D01*
X116411238Y-44330952D01*
X116458857Y-44378571D01*
X116506476Y-44473809D01*
X116506476Y-44711904D01*
X116458857Y-44807142D01*
X116411238Y-44854761D01*
X116316000Y-44902380D01*
X116030285Y-44902380D01*
X115935047Y-44854761D01*
X115887428Y-44807142D01*
G04 #@! TO.C,Rs2*
X118649809Y-49015142D02*
X118697428Y-49062761D01*
X118649809Y-49110380D01*
X118602190Y-49062761D01*
X118649809Y-49015142D01*
X118649809Y-49110380D01*
X118459333Y-48158000D02*
X118554571Y-48110380D01*
X118792666Y-48110380D01*
X118887904Y-48158000D01*
X118935523Y-48253238D01*
X118935523Y-48348476D01*
X118887904Y-48443714D01*
X118840285Y-48491333D01*
X118745047Y-48538952D01*
X118697428Y-48586571D01*
X118649809Y-48681809D01*
X118649809Y-48729428D01*
X119506952Y-49015142D02*
X119554571Y-49062761D01*
X119506952Y-49110380D01*
X119459333Y-49062761D01*
X119506952Y-49015142D01*
X119506952Y-49110380D01*
X119316476Y-48158000D02*
X119411714Y-48110380D01*
X119649809Y-48110380D01*
X119745047Y-48158000D01*
X119792666Y-48253238D01*
X119792666Y-48348476D01*
X119745047Y-48443714D01*
X119697428Y-48491333D01*
X119602190Y-48538952D01*
X119554571Y-48586571D01*
X119506952Y-48681809D01*
X119506952Y-48729428D01*
X118554571Y-51760380D02*
X118221238Y-51284190D01*
X117983142Y-51760380D02*
X117983142Y-50760380D01*
X118364095Y-50760380D01*
X118459333Y-50808000D01*
X118506952Y-50855619D01*
X118554571Y-50950857D01*
X118554571Y-51093714D01*
X118506952Y-51188952D01*
X118459333Y-51236571D01*
X118364095Y-51284190D01*
X117983142Y-51284190D01*
X118935523Y-51712761D02*
X119030761Y-51760380D01*
X119221238Y-51760380D01*
X119316476Y-51712761D01*
X119364095Y-51617523D01*
X119364095Y-51569904D01*
X119316476Y-51474666D01*
X119221238Y-51427047D01*
X119078380Y-51427047D01*
X118983142Y-51379428D01*
X118935523Y-51284190D01*
X118935523Y-51236571D01*
X118983142Y-51141333D01*
X119078380Y-51093714D01*
X119221238Y-51093714D01*
X119316476Y-51141333D01*
X119745047Y-50855619D02*
X119792666Y-50808000D01*
X119887904Y-50760380D01*
X120126000Y-50760380D01*
X120221238Y-50808000D01*
X120268857Y-50855619D01*
X120316476Y-50950857D01*
X120316476Y-51046095D01*
X120268857Y-51188952D01*
X119697428Y-51760380D01*
X120316476Y-51760380D01*
G04 #@! TO.C,Rs1*
X124745809Y-31201142D02*
X124793428Y-31248761D01*
X124745809Y-31296380D01*
X124698190Y-31248761D01*
X124745809Y-31201142D01*
X124745809Y-31296380D01*
X124555333Y-30344000D02*
X124650571Y-30296380D01*
X124888666Y-30296380D01*
X124983904Y-30344000D01*
X125031523Y-30439238D01*
X125031523Y-30534476D01*
X124983904Y-30629714D01*
X124936285Y-30677333D01*
X124841047Y-30724952D01*
X124793428Y-30772571D01*
X124745809Y-30867809D01*
X124745809Y-30915428D01*
X125602952Y-31201142D02*
X125650571Y-31248761D01*
X125602952Y-31296380D01*
X125555333Y-31248761D01*
X125602952Y-31201142D01*
X125602952Y-31296380D01*
X125412476Y-30344000D02*
X125507714Y-30296380D01*
X125745809Y-30296380D01*
X125841047Y-30344000D01*
X125888666Y-30439238D01*
X125888666Y-30534476D01*
X125841047Y-30629714D01*
X125793428Y-30677333D01*
X125698190Y-30724952D01*
X125650571Y-30772571D01*
X125602952Y-30867809D01*
X125602952Y-30915428D01*
X124650571Y-28646380D02*
X124317238Y-28170190D01*
X124079142Y-28646380D02*
X124079142Y-27646380D01*
X124460095Y-27646380D01*
X124555333Y-27694000D01*
X124602952Y-27741619D01*
X124650571Y-27836857D01*
X124650571Y-27979714D01*
X124602952Y-28074952D01*
X124555333Y-28122571D01*
X124460095Y-28170190D01*
X124079142Y-28170190D01*
X125031523Y-28598761D02*
X125126761Y-28646380D01*
X125317238Y-28646380D01*
X125412476Y-28598761D01*
X125460095Y-28503523D01*
X125460095Y-28455904D01*
X125412476Y-28360666D01*
X125317238Y-28313047D01*
X125174380Y-28313047D01*
X125079142Y-28265428D01*
X125031523Y-28170190D01*
X125031523Y-28122571D01*
X125079142Y-28027333D01*
X125174380Y-27979714D01*
X125317238Y-27979714D01*
X125412476Y-28027333D01*
X126412476Y-28646380D02*
X125841047Y-28646380D01*
X126126761Y-28646380D02*
X126126761Y-27646380D01*
X126031523Y-27789238D01*
X125936285Y-27884476D01*
X125841047Y-27932095D01*
G04 #@! TO.C,C6*
X51380380Y-27455619D02*
X51380380Y-28027047D01*
X51380380Y-27741333D02*
X50380380Y-27741333D01*
X50523238Y-27836571D01*
X50618476Y-27931809D01*
X50666095Y-28027047D01*
X50380380Y-26836571D02*
X50380380Y-26741333D01*
X50428000Y-26646095D01*
X50475619Y-26598476D01*
X50570857Y-26550857D01*
X50761333Y-26503238D01*
X50999428Y-26503238D01*
X51189904Y-26550857D01*
X51285142Y-26598476D01*
X51332761Y-26646095D01*
X51380380Y-26741333D01*
X51380380Y-26836571D01*
X51332761Y-26931809D01*
X51285142Y-26979428D01*
X51189904Y-27027047D01*
X50999428Y-27074666D01*
X50761333Y-27074666D01*
X50570857Y-27027047D01*
X50475619Y-26979428D01*
X50428000Y-26931809D01*
X50380380Y-26836571D01*
X50380380Y-25884190D02*
X50380380Y-25788952D01*
X50428000Y-25693714D01*
X50475619Y-25646095D01*
X50570857Y-25598476D01*
X50761333Y-25550857D01*
X50999428Y-25550857D01*
X51189904Y-25598476D01*
X51285142Y-25646095D01*
X51332761Y-25693714D01*
X51380380Y-25788952D01*
X51380380Y-25884190D01*
X51332761Y-25979428D01*
X51285142Y-26027047D01*
X51189904Y-26074666D01*
X50999428Y-26122285D01*
X50761333Y-26122285D01*
X50570857Y-26074666D01*
X50475619Y-26027047D01*
X50428000Y-25979428D01*
X50380380Y-25884190D01*
X50713714Y-25122285D02*
X51380380Y-25122285D01*
X50808952Y-25122285D02*
X50761333Y-25074666D01*
X50713714Y-24979428D01*
X50713714Y-24836571D01*
X50761333Y-24741333D01*
X50856571Y-24693714D01*
X51380380Y-24693714D01*
X50856571Y-23884190D02*
X50856571Y-24217523D01*
X51380380Y-24217523D02*
X50380380Y-24217523D01*
X50380380Y-23741333D01*
D12*
X52756571Y-25991333D02*
X52780380Y-26015142D01*
X52804190Y-26086571D01*
X52804190Y-26134190D01*
X52780380Y-26205619D01*
X52732761Y-26253238D01*
X52685142Y-26277047D01*
X52589904Y-26300857D01*
X52518476Y-26300857D01*
X52423238Y-26277047D01*
X52375619Y-26253238D01*
X52328000Y-26205619D01*
X52304190Y-26134190D01*
X52304190Y-26086571D01*
X52328000Y-26015142D01*
X52351809Y-25991333D01*
X52304190Y-25562761D02*
X52304190Y-25658000D01*
X52328000Y-25705619D01*
X52351809Y-25729428D01*
X52423238Y-25777047D01*
X52518476Y-25800857D01*
X52708952Y-25800857D01*
X52756571Y-25777047D01*
X52780380Y-25753238D01*
X52804190Y-25705619D01*
X52804190Y-25610380D01*
X52780380Y-25562761D01*
X52756571Y-25538952D01*
X52708952Y-25515142D01*
X52589904Y-25515142D01*
X52542285Y-25538952D01*
X52518476Y-25562761D01*
X52494666Y-25610380D01*
X52494666Y-25705619D01*
X52518476Y-25753238D01*
X52542285Y-25777047D01*
X52589904Y-25800857D01*
G04 #@! TO.C,C7*
D11*
X54680380Y-18819619D02*
X54680380Y-19391047D01*
X54680380Y-19105333D02*
X53680380Y-19105333D01*
X53823238Y-19200571D01*
X53918476Y-19295809D01*
X53966095Y-19391047D01*
X53680380Y-18200571D02*
X53680380Y-18105333D01*
X53728000Y-18010095D01*
X53775619Y-17962476D01*
X53870857Y-17914857D01*
X54061333Y-17867238D01*
X54299428Y-17867238D01*
X54489904Y-17914857D01*
X54585142Y-17962476D01*
X54632761Y-18010095D01*
X54680380Y-18105333D01*
X54680380Y-18200571D01*
X54632761Y-18295809D01*
X54585142Y-18343428D01*
X54489904Y-18391047D01*
X54299428Y-18438666D01*
X54061333Y-18438666D01*
X53870857Y-18391047D01*
X53775619Y-18343428D01*
X53728000Y-18295809D01*
X53680380Y-18200571D01*
X53680380Y-17248190D02*
X53680380Y-17152952D01*
X53728000Y-17057714D01*
X53775619Y-17010095D01*
X53870857Y-16962476D01*
X54061333Y-16914857D01*
X54299428Y-16914857D01*
X54489904Y-16962476D01*
X54585142Y-17010095D01*
X54632761Y-17057714D01*
X54680380Y-17152952D01*
X54680380Y-17248190D01*
X54632761Y-17343428D01*
X54585142Y-17391047D01*
X54489904Y-17438666D01*
X54299428Y-17486285D01*
X54061333Y-17486285D01*
X53870857Y-17438666D01*
X53775619Y-17391047D01*
X53728000Y-17343428D01*
X53680380Y-17248190D01*
X54013714Y-16486285D02*
X54680380Y-16486285D01*
X54108952Y-16486285D02*
X54061333Y-16438666D01*
X54013714Y-16343428D01*
X54013714Y-16200571D01*
X54061333Y-16105333D01*
X54156571Y-16057714D01*
X54680380Y-16057714D01*
X54156571Y-15248190D02*
X54156571Y-15581523D01*
X54680380Y-15581523D02*
X53680380Y-15581523D01*
X53680380Y-15105333D01*
D12*
X52756571Y-17355333D02*
X52780380Y-17379142D01*
X52804190Y-17450571D01*
X52804190Y-17498190D01*
X52780380Y-17569619D01*
X52732761Y-17617238D01*
X52685142Y-17641047D01*
X52589904Y-17664857D01*
X52518476Y-17664857D01*
X52423238Y-17641047D01*
X52375619Y-17617238D01*
X52328000Y-17569619D01*
X52304190Y-17498190D01*
X52304190Y-17450571D01*
X52328000Y-17379142D01*
X52351809Y-17355333D01*
X52304190Y-17188666D02*
X52304190Y-16855333D01*
X52804190Y-17069619D01*
G04 #@! TO.C,Co2*
D11*
X171637714Y-82904761D02*
X172304380Y-82904761D01*
X171256761Y-83142857D02*
X171971047Y-83380952D01*
X171971047Y-82761904D01*
X172209142Y-82380952D02*
X172256761Y-82333333D01*
X172304380Y-82380952D01*
X172256761Y-82428571D01*
X172209142Y-82380952D01*
X172304380Y-82380952D01*
X171304380Y-82000000D02*
X171304380Y-81333333D01*
X172304380Y-81761904D01*
X171637714Y-80523809D02*
X172304380Y-80523809D01*
X171637714Y-80952380D02*
X172161523Y-80952380D01*
X172256761Y-80904761D01*
X172304380Y-80809523D01*
X172304380Y-80666666D01*
X172256761Y-80571428D01*
X172209142Y-80523809D01*
X171780571Y-79714285D02*
X171780571Y-80047619D01*
X172304380Y-80047619D02*
X171304380Y-80047619D01*
X171304380Y-79571428D01*
X164949142Y-82119047D02*
X164996761Y-82166666D01*
X165044380Y-82309523D01*
X165044380Y-82404761D01*
X164996761Y-82547619D01*
X164901523Y-82642857D01*
X164806285Y-82690476D01*
X164615809Y-82738095D01*
X164472952Y-82738095D01*
X164282476Y-82690476D01*
X164187238Y-82642857D01*
X164092000Y-82547619D01*
X164044380Y-82404761D01*
X164044380Y-82309523D01*
X164092000Y-82166666D01*
X164139619Y-82119047D01*
X165044380Y-81547619D02*
X164996761Y-81642857D01*
X164949142Y-81690476D01*
X164853904Y-81738095D01*
X164568190Y-81738095D01*
X164472952Y-81690476D01*
X164425333Y-81642857D01*
X164377714Y-81547619D01*
X164377714Y-81404761D01*
X164425333Y-81309523D01*
X164472952Y-81261904D01*
X164568190Y-81214285D01*
X164853904Y-81214285D01*
X164949142Y-81261904D01*
X164996761Y-81309523D01*
X165044380Y-81404761D01*
X165044380Y-81547619D01*
X164139619Y-80833333D02*
X164092000Y-80785714D01*
X164044380Y-80690476D01*
X164044380Y-80452380D01*
X164092000Y-80357142D01*
X164139619Y-80309523D01*
X164234857Y-80261904D01*
X164330095Y-80261904D01*
X164472952Y-80309523D01*
X165044380Y-80880952D01*
X165044380Y-80261904D01*
G04 #@! TO.C,Cc1*
X184004380Y-52424761D02*
X184004380Y-52615238D01*
X184052000Y-52710476D01*
X184099619Y-52758095D01*
X184242476Y-52853333D01*
X184432952Y-52900952D01*
X184813904Y-52900952D01*
X184909142Y-52853333D01*
X184956761Y-52805714D01*
X185004380Y-52710476D01*
X185004380Y-52520000D01*
X184956761Y-52424761D01*
X184909142Y-52377142D01*
X184813904Y-52329523D01*
X184575809Y-52329523D01*
X184480571Y-52377142D01*
X184432952Y-52424761D01*
X184385333Y-52520000D01*
X184385333Y-52710476D01*
X184432952Y-52805714D01*
X184480571Y-52853333D01*
X184575809Y-52900952D01*
X184909142Y-51900952D02*
X184956761Y-51853333D01*
X185004380Y-51900952D01*
X184956761Y-51948571D01*
X184909142Y-51900952D01*
X185004380Y-51900952D01*
X184432952Y-51281904D02*
X184385333Y-51377142D01*
X184337714Y-51424761D01*
X184242476Y-51472380D01*
X184194857Y-51472380D01*
X184099619Y-51424761D01*
X184052000Y-51377142D01*
X184004380Y-51281904D01*
X184004380Y-51091428D01*
X184052000Y-50996190D01*
X184099619Y-50948571D01*
X184194857Y-50900952D01*
X184242476Y-50900952D01*
X184337714Y-50948571D01*
X184385333Y-50996190D01*
X184432952Y-51091428D01*
X184432952Y-51281904D01*
X184480571Y-51377142D01*
X184528190Y-51424761D01*
X184623428Y-51472380D01*
X184813904Y-51472380D01*
X184909142Y-51424761D01*
X184956761Y-51377142D01*
X185004380Y-51281904D01*
X185004380Y-51091428D01*
X184956761Y-50996190D01*
X184909142Y-50948571D01*
X184813904Y-50900952D01*
X184623428Y-50900952D01*
X184528190Y-50948571D01*
X184480571Y-50996190D01*
X184432952Y-51091428D01*
X184337714Y-50043809D02*
X185004380Y-50043809D01*
X184337714Y-50472380D02*
X184861523Y-50472380D01*
X184956761Y-50424761D01*
X185004380Y-50329523D01*
X185004380Y-50186666D01*
X184956761Y-50091428D01*
X184909142Y-50043809D01*
X184480571Y-49234285D02*
X184480571Y-49567619D01*
X185004380Y-49567619D02*
X184004380Y-49567619D01*
X184004380Y-49091428D01*
X177649142Y-51615238D02*
X177696761Y-51662857D01*
X177744380Y-51805714D01*
X177744380Y-51900952D01*
X177696761Y-52043809D01*
X177601523Y-52139047D01*
X177506285Y-52186666D01*
X177315809Y-52234285D01*
X177172952Y-52234285D01*
X176982476Y-52186666D01*
X176887238Y-52139047D01*
X176792000Y-52043809D01*
X176744380Y-51900952D01*
X176744380Y-51805714D01*
X176792000Y-51662857D01*
X176839619Y-51615238D01*
X177696761Y-50758095D02*
X177744380Y-50853333D01*
X177744380Y-51043809D01*
X177696761Y-51139047D01*
X177649142Y-51186666D01*
X177553904Y-51234285D01*
X177268190Y-51234285D01*
X177172952Y-51186666D01*
X177125333Y-51139047D01*
X177077714Y-51043809D01*
X177077714Y-50853333D01*
X177125333Y-50758095D01*
X177744380Y-49805714D02*
X177744380Y-50377142D01*
X177744380Y-50091428D02*
X176744380Y-50091428D01*
X176887238Y-50186666D01*
X176982476Y-50281904D01*
X177030095Y-50377142D01*
G04 #@! TO.C,Cc2*
X171304380Y-52424761D02*
X171304380Y-52615238D01*
X171352000Y-52710476D01*
X171399619Y-52758095D01*
X171542476Y-52853333D01*
X171732952Y-52900952D01*
X172113904Y-52900952D01*
X172209142Y-52853333D01*
X172256761Y-52805714D01*
X172304380Y-52710476D01*
X172304380Y-52520000D01*
X172256761Y-52424761D01*
X172209142Y-52377142D01*
X172113904Y-52329523D01*
X171875809Y-52329523D01*
X171780571Y-52377142D01*
X171732952Y-52424761D01*
X171685333Y-52520000D01*
X171685333Y-52710476D01*
X171732952Y-52805714D01*
X171780571Y-52853333D01*
X171875809Y-52900952D01*
X172209142Y-51900952D02*
X172256761Y-51853333D01*
X172304380Y-51900952D01*
X172256761Y-51948571D01*
X172209142Y-51900952D01*
X172304380Y-51900952D01*
X171732952Y-51281904D02*
X171685333Y-51377142D01*
X171637714Y-51424761D01*
X171542476Y-51472380D01*
X171494857Y-51472380D01*
X171399619Y-51424761D01*
X171352000Y-51377142D01*
X171304380Y-51281904D01*
X171304380Y-51091428D01*
X171352000Y-50996190D01*
X171399619Y-50948571D01*
X171494857Y-50900952D01*
X171542476Y-50900952D01*
X171637714Y-50948571D01*
X171685333Y-50996190D01*
X171732952Y-51091428D01*
X171732952Y-51281904D01*
X171780571Y-51377142D01*
X171828190Y-51424761D01*
X171923428Y-51472380D01*
X172113904Y-51472380D01*
X172209142Y-51424761D01*
X172256761Y-51377142D01*
X172304380Y-51281904D01*
X172304380Y-51091428D01*
X172256761Y-50996190D01*
X172209142Y-50948571D01*
X172113904Y-50900952D01*
X171923428Y-50900952D01*
X171828190Y-50948571D01*
X171780571Y-50996190D01*
X171732952Y-51091428D01*
X171637714Y-50043809D02*
X172304380Y-50043809D01*
X171637714Y-50472380D02*
X172161523Y-50472380D01*
X172256761Y-50424761D01*
X172304380Y-50329523D01*
X172304380Y-50186666D01*
X172256761Y-50091428D01*
X172209142Y-50043809D01*
X171780571Y-49234285D02*
X171780571Y-49567619D01*
X172304380Y-49567619D02*
X171304380Y-49567619D01*
X171304380Y-49091428D01*
X164949142Y-51615238D02*
X164996761Y-51662857D01*
X165044380Y-51805714D01*
X165044380Y-51900952D01*
X164996761Y-52043809D01*
X164901523Y-52139047D01*
X164806285Y-52186666D01*
X164615809Y-52234285D01*
X164472952Y-52234285D01*
X164282476Y-52186666D01*
X164187238Y-52139047D01*
X164092000Y-52043809D01*
X164044380Y-51900952D01*
X164044380Y-51805714D01*
X164092000Y-51662857D01*
X164139619Y-51615238D01*
X164996761Y-50758095D02*
X165044380Y-50853333D01*
X165044380Y-51043809D01*
X164996761Y-51139047D01*
X164949142Y-51186666D01*
X164853904Y-51234285D01*
X164568190Y-51234285D01*
X164472952Y-51186666D01*
X164425333Y-51139047D01*
X164377714Y-51043809D01*
X164377714Y-50853333D01*
X164425333Y-50758095D01*
X164139619Y-50377142D02*
X164092000Y-50329523D01*
X164044380Y-50234285D01*
X164044380Y-49996190D01*
X164092000Y-49900952D01*
X164139619Y-49853333D01*
X164234857Y-49805714D01*
X164330095Y-49805714D01*
X164472952Y-49853333D01*
X165044380Y-50424761D01*
X165044380Y-49805714D01*
G04 #@! TO.C,Cc3*
X158604380Y-52424761D02*
X158604380Y-52615238D01*
X158652000Y-52710476D01*
X158699619Y-52758095D01*
X158842476Y-52853333D01*
X159032952Y-52900952D01*
X159413904Y-52900952D01*
X159509142Y-52853333D01*
X159556761Y-52805714D01*
X159604380Y-52710476D01*
X159604380Y-52520000D01*
X159556761Y-52424761D01*
X159509142Y-52377142D01*
X159413904Y-52329523D01*
X159175809Y-52329523D01*
X159080571Y-52377142D01*
X159032952Y-52424761D01*
X158985333Y-52520000D01*
X158985333Y-52710476D01*
X159032952Y-52805714D01*
X159080571Y-52853333D01*
X159175809Y-52900952D01*
X159509142Y-51900952D02*
X159556761Y-51853333D01*
X159604380Y-51900952D01*
X159556761Y-51948571D01*
X159509142Y-51900952D01*
X159604380Y-51900952D01*
X159032952Y-51281904D02*
X158985333Y-51377142D01*
X158937714Y-51424761D01*
X158842476Y-51472380D01*
X158794857Y-51472380D01*
X158699619Y-51424761D01*
X158652000Y-51377142D01*
X158604380Y-51281904D01*
X158604380Y-51091428D01*
X158652000Y-50996190D01*
X158699619Y-50948571D01*
X158794857Y-50900952D01*
X158842476Y-50900952D01*
X158937714Y-50948571D01*
X158985333Y-50996190D01*
X159032952Y-51091428D01*
X159032952Y-51281904D01*
X159080571Y-51377142D01*
X159128190Y-51424761D01*
X159223428Y-51472380D01*
X159413904Y-51472380D01*
X159509142Y-51424761D01*
X159556761Y-51377142D01*
X159604380Y-51281904D01*
X159604380Y-51091428D01*
X159556761Y-50996190D01*
X159509142Y-50948571D01*
X159413904Y-50900952D01*
X159223428Y-50900952D01*
X159128190Y-50948571D01*
X159080571Y-50996190D01*
X159032952Y-51091428D01*
X158937714Y-50043809D02*
X159604380Y-50043809D01*
X158937714Y-50472380D02*
X159461523Y-50472380D01*
X159556761Y-50424761D01*
X159604380Y-50329523D01*
X159604380Y-50186666D01*
X159556761Y-50091428D01*
X159509142Y-50043809D01*
X159080571Y-49234285D02*
X159080571Y-49567619D01*
X159604380Y-49567619D02*
X158604380Y-49567619D01*
X158604380Y-49091428D01*
X152249142Y-51615238D02*
X152296761Y-51662857D01*
X152344380Y-51805714D01*
X152344380Y-51900952D01*
X152296761Y-52043809D01*
X152201523Y-52139047D01*
X152106285Y-52186666D01*
X151915809Y-52234285D01*
X151772952Y-52234285D01*
X151582476Y-52186666D01*
X151487238Y-52139047D01*
X151392000Y-52043809D01*
X151344380Y-51900952D01*
X151344380Y-51805714D01*
X151392000Y-51662857D01*
X151439619Y-51615238D01*
X152296761Y-50758095D02*
X152344380Y-50853333D01*
X152344380Y-51043809D01*
X152296761Y-51139047D01*
X152249142Y-51186666D01*
X152153904Y-51234285D01*
X151868190Y-51234285D01*
X151772952Y-51186666D01*
X151725333Y-51139047D01*
X151677714Y-51043809D01*
X151677714Y-50853333D01*
X151725333Y-50758095D01*
X151344380Y-50424761D02*
X151344380Y-49805714D01*
X151725333Y-50139047D01*
X151725333Y-49996190D01*
X151772952Y-49900952D01*
X151820571Y-49853333D01*
X151915809Y-49805714D01*
X152153904Y-49805714D01*
X152249142Y-49853333D01*
X152296761Y-49900952D01*
X152344380Y-49996190D01*
X152344380Y-50281904D01*
X152296761Y-50377142D01*
X152249142Y-50424761D01*
G04 #@! TO.C,Co1*
X184337714Y-82904761D02*
X185004380Y-82904761D01*
X183956761Y-83142857D02*
X184671047Y-83380952D01*
X184671047Y-82761904D01*
X184909142Y-82380952D02*
X184956761Y-82333333D01*
X185004380Y-82380952D01*
X184956761Y-82428571D01*
X184909142Y-82380952D01*
X185004380Y-82380952D01*
X184004380Y-82000000D02*
X184004380Y-81333333D01*
X185004380Y-81761904D01*
X184337714Y-80523809D02*
X185004380Y-80523809D01*
X184337714Y-80952380D02*
X184861523Y-80952380D01*
X184956761Y-80904761D01*
X185004380Y-80809523D01*
X185004380Y-80666666D01*
X184956761Y-80571428D01*
X184909142Y-80523809D01*
X184480571Y-79714285D02*
X184480571Y-80047619D01*
X185004380Y-80047619D02*
X184004380Y-80047619D01*
X184004380Y-79571428D01*
X177649142Y-82119047D02*
X177696761Y-82166666D01*
X177744380Y-82309523D01*
X177744380Y-82404761D01*
X177696761Y-82547619D01*
X177601523Y-82642857D01*
X177506285Y-82690476D01*
X177315809Y-82738095D01*
X177172952Y-82738095D01*
X176982476Y-82690476D01*
X176887238Y-82642857D01*
X176792000Y-82547619D01*
X176744380Y-82404761D01*
X176744380Y-82309523D01*
X176792000Y-82166666D01*
X176839619Y-82119047D01*
X177744380Y-81547619D02*
X177696761Y-81642857D01*
X177649142Y-81690476D01*
X177553904Y-81738095D01*
X177268190Y-81738095D01*
X177172952Y-81690476D01*
X177125333Y-81642857D01*
X177077714Y-81547619D01*
X177077714Y-81404761D01*
X177125333Y-81309523D01*
X177172952Y-81261904D01*
X177268190Y-81214285D01*
X177553904Y-81214285D01*
X177649142Y-81261904D01*
X177696761Y-81309523D01*
X177744380Y-81404761D01*
X177744380Y-81547619D01*
X177744380Y-80261904D02*
X177744380Y-80833333D01*
X177744380Y-80547619D02*
X176744380Y-80547619D01*
X176887238Y-80642857D01*
X176982476Y-80738095D01*
X177030095Y-80833333D01*
G04 #@! TO.C,Cc4*
X145904380Y-52424761D02*
X145904380Y-52615238D01*
X145952000Y-52710476D01*
X145999619Y-52758095D01*
X146142476Y-52853333D01*
X146332952Y-52900952D01*
X146713904Y-52900952D01*
X146809142Y-52853333D01*
X146856761Y-52805714D01*
X146904380Y-52710476D01*
X146904380Y-52520000D01*
X146856761Y-52424761D01*
X146809142Y-52377142D01*
X146713904Y-52329523D01*
X146475809Y-52329523D01*
X146380571Y-52377142D01*
X146332952Y-52424761D01*
X146285333Y-52520000D01*
X146285333Y-52710476D01*
X146332952Y-52805714D01*
X146380571Y-52853333D01*
X146475809Y-52900952D01*
X146809142Y-51900952D02*
X146856761Y-51853333D01*
X146904380Y-51900952D01*
X146856761Y-51948571D01*
X146809142Y-51900952D01*
X146904380Y-51900952D01*
X146332952Y-51281904D02*
X146285333Y-51377142D01*
X146237714Y-51424761D01*
X146142476Y-51472380D01*
X146094857Y-51472380D01*
X145999619Y-51424761D01*
X145952000Y-51377142D01*
X145904380Y-51281904D01*
X145904380Y-51091428D01*
X145952000Y-50996190D01*
X145999619Y-50948571D01*
X146094857Y-50900952D01*
X146142476Y-50900952D01*
X146237714Y-50948571D01*
X146285333Y-50996190D01*
X146332952Y-51091428D01*
X146332952Y-51281904D01*
X146380571Y-51377142D01*
X146428190Y-51424761D01*
X146523428Y-51472380D01*
X146713904Y-51472380D01*
X146809142Y-51424761D01*
X146856761Y-51377142D01*
X146904380Y-51281904D01*
X146904380Y-51091428D01*
X146856761Y-50996190D01*
X146809142Y-50948571D01*
X146713904Y-50900952D01*
X146523428Y-50900952D01*
X146428190Y-50948571D01*
X146380571Y-50996190D01*
X146332952Y-51091428D01*
X146237714Y-50043809D02*
X146904380Y-50043809D01*
X146237714Y-50472380D02*
X146761523Y-50472380D01*
X146856761Y-50424761D01*
X146904380Y-50329523D01*
X146904380Y-50186666D01*
X146856761Y-50091428D01*
X146809142Y-50043809D01*
X146380571Y-49234285D02*
X146380571Y-49567619D01*
X146904380Y-49567619D02*
X145904380Y-49567619D01*
X145904380Y-49091428D01*
X139549142Y-51615238D02*
X139596761Y-51662857D01*
X139644380Y-51805714D01*
X139644380Y-51900952D01*
X139596761Y-52043809D01*
X139501523Y-52139047D01*
X139406285Y-52186666D01*
X139215809Y-52234285D01*
X139072952Y-52234285D01*
X138882476Y-52186666D01*
X138787238Y-52139047D01*
X138692000Y-52043809D01*
X138644380Y-51900952D01*
X138644380Y-51805714D01*
X138692000Y-51662857D01*
X138739619Y-51615238D01*
X139596761Y-50758095D02*
X139644380Y-50853333D01*
X139644380Y-51043809D01*
X139596761Y-51139047D01*
X139549142Y-51186666D01*
X139453904Y-51234285D01*
X139168190Y-51234285D01*
X139072952Y-51186666D01*
X139025333Y-51139047D01*
X138977714Y-51043809D01*
X138977714Y-50853333D01*
X139025333Y-50758095D01*
X138977714Y-49900952D02*
X139644380Y-49900952D01*
X138596761Y-50139047D02*
X139311047Y-50377142D01*
X139311047Y-49758095D01*
G04 #@! TO.C,Co3*
X158937714Y-82904761D02*
X159604380Y-82904761D01*
X158556761Y-83142857D02*
X159271047Y-83380952D01*
X159271047Y-82761904D01*
X159509142Y-82380952D02*
X159556761Y-82333333D01*
X159604380Y-82380952D01*
X159556761Y-82428571D01*
X159509142Y-82380952D01*
X159604380Y-82380952D01*
X158604380Y-82000000D02*
X158604380Y-81333333D01*
X159604380Y-81761904D01*
X158937714Y-80523809D02*
X159604380Y-80523809D01*
X158937714Y-80952380D02*
X159461523Y-80952380D01*
X159556761Y-80904761D01*
X159604380Y-80809523D01*
X159604380Y-80666666D01*
X159556761Y-80571428D01*
X159509142Y-80523809D01*
X159080571Y-79714285D02*
X159080571Y-80047619D01*
X159604380Y-80047619D02*
X158604380Y-80047619D01*
X158604380Y-79571428D01*
X152249142Y-82119047D02*
X152296761Y-82166666D01*
X152344380Y-82309523D01*
X152344380Y-82404761D01*
X152296761Y-82547619D01*
X152201523Y-82642857D01*
X152106285Y-82690476D01*
X151915809Y-82738095D01*
X151772952Y-82738095D01*
X151582476Y-82690476D01*
X151487238Y-82642857D01*
X151392000Y-82547619D01*
X151344380Y-82404761D01*
X151344380Y-82309523D01*
X151392000Y-82166666D01*
X151439619Y-82119047D01*
X152344380Y-81547619D02*
X152296761Y-81642857D01*
X152249142Y-81690476D01*
X152153904Y-81738095D01*
X151868190Y-81738095D01*
X151772952Y-81690476D01*
X151725333Y-81642857D01*
X151677714Y-81547619D01*
X151677714Y-81404761D01*
X151725333Y-81309523D01*
X151772952Y-81261904D01*
X151868190Y-81214285D01*
X152153904Y-81214285D01*
X152249142Y-81261904D01*
X152296761Y-81309523D01*
X152344380Y-81404761D01*
X152344380Y-81547619D01*
X151344380Y-80880952D02*
X151344380Y-80261904D01*
X151725333Y-80595238D01*
X151725333Y-80452380D01*
X151772952Y-80357142D01*
X151820571Y-80309523D01*
X151915809Y-80261904D01*
X152153904Y-80261904D01*
X152249142Y-80309523D01*
X152296761Y-80357142D01*
X152344380Y-80452380D01*
X152344380Y-80738095D01*
X152296761Y-80833333D01*
X152249142Y-80880952D01*
G04 #@! TO.C,Screw4*
X189283047Y-96165428D02*
X190044952Y-96165428D01*
X189664000Y-96546380D02*
X189664000Y-95784476D01*
X190854476Y-96022571D02*
X190997333Y-96070190D01*
X191044952Y-96117809D01*
X191092571Y-96213047D01*
X191092571Y-96355904D01*
X191044952Y-96451142D01*
X190997333Y-96498761D01*
X190902095Y-96546380D01*
X190521142Y-96546380D01*
X190521142Y-95546380D01*
X190854476Y-95546380D01*
X190949714Y-95594000D01*
X190997333Y-95641619D01*
X191044952Y-95736857D01*
X191044952Y-95832095D01*
X190997333Y-95927333D01*
X190949714Y-95974952D01*
X190854476Y-96022571D01*
X190521142Y-96022571D01*
X188011619Y-90498761D02*
X188154476Y-90546380D01*
X188392571Y-90546380D01*
X188487809Y-90498761D01*
X188535428Y-90451142D01*
X188583047Y-90355904D01*
X188583047Y-90260666D01*
X188535428Y-90165428D01*
X188487809Y-90117809D01*
X188392571Y-90070190D01*
X188202095Y-90022571D01*
X188106857Y-89974952D01*
X188059238Y-89927333D01*
X188011619Y-89832095D01*
X188011619Y-89736857D01*
X188059238Y-89641619D01*
X188106857Y-89594000D01*
X188202095Y-89546380D01*
X188440190Y-89546380D01*
X188583047Y-89594000D01*
X189440190Y-90498761D02*
X189344952Y-90546380D01*
X189154476Y-90546380D01*
X189059238Y-90498761D01*
X189011619Y-90451142D01*
X188964000Y-90355904D01*
X188964000Y-90070190D01*
X189011619Y-89974952D01*
X189059238Y-89927333D01*
X189154476Y-89879714D01*
X189344952Y-89879714D01*
X189440190Y-89927333D01*
X189868761Y-90546380D02*
X189868761Y-89879714D01*
X189868761Y-90070190D02*
X189916380Y-89974952D01*
X189964000Y-89927333D01*
X190059238Y-89879714D01*
X190154476Y-89879714D01*
X190868761Y-90498761D02*
X190773523Y-90546380D01*
X190583047Y-90546380D01*
X190487809Y-90498761D01*
X190440190Y-90403523D01*
X190440190Y-90022571D01*
X190487809Y-89927333D01*
X190583047Y-89879714D01*
X190773523Y-89879714D01*
X190868761Y-89927333D01*
X190916380Y-90022571D01*
X190916380Y-90117809D01*
X190440190Y-90213047D01*
X191249714Y-89879714D02*
X191440190Y-90546380D01*
X191630666Y-90070190D01*
X191821142Y-90546380D01*
X192011619Y-89879714D01*
X192821142Y-89879714D02*
X192821142Y-90546380D01*
X192583047Y-89498761D02*
X192344952Y-90213047D01*
X192964000Y-90213047D01*
G04 #@! TO.C,Screw3*
X189283047Y-71165428D02*
X190044952Y-71165428D01*
X190854476Y-71022571D02*
X190997333Y-71070190D01*
X191044952Y-71117809D01*
X191092571Y-71213047D01*
X191092571Y-71355904D01*
X191044952Y-71451142D01*
X190997333Y-71498761D01*
X190902095Y-71546380D01*
X190521142Y-71546380D01*
X190521142Y-70546380D01*
X190854476Y-70546380D01*
X190949714Y-70594000D01*
X190997333Y-70641619D01*
X191044952Y-70736857D01*
X191044952Y-70832095D01*
X190997333Y-70927333D01*
X190949714Y-70974952D01*
X190854476Y-71022571D01*
X190521142Y-71022571D01*
X188011619Y-65498761D02*
X188154476Y-65546380D01*
X188392571Y-65546380D01*
X188487809Y-65498761D01*
X188535428Y-65451142D01*
X188583047Y-65355904D01*
X188583047Y-65260666D01*
X188535428Y-65165428D01*
X188487809Y-65117809D01*
X188392571Y-65070190D01*
X188202095Y-65022571D01*
X188106857Y-64974952D01*
X188059238Y-64927333D01*
X188011619Y-64832095D01*
X188011619Y-64736857D01*
X188059238Y-64641619D01*
X188106857Y-64594000D01*
X188202095Y-64546380D01*
X188440190Y-64546380D01*
X188583047Y-64594000D01*
X189440190Y-65498761D02*
X189344952Y-65546380D01*
X189154476Y-65546380D01*
X189059238Y-65498761D01*
X189011619Y-65451142D01*
X188964000Y-65355904D01*
X188964000Y-65070190D01*
X189011619Y-64974952D01*
X189059238Y-64927333D01*
X189154476Y-64879714D01*
X189344952Y-64879714D01*
X189440190Y-64927333D01*
X189868761Y-65546380D02*
X189868761Y-64879714D01*
X189868761Y-65070190D02*
X189916380Y-64974952D01*
X189964000Y-64927333D01*
X190059238Y-64879714D01*
X190154476Y-64879714D01*
X190868761Y-65498761D02*
X190773523Y-65546380D01*
X190583047Y-65546380D01*
X190487809Y-65498761D01*
X190440190Y-65403523D01*
X190440190Y-65022571D01*
X190487809Y-64927333D01*
X190583047Y-64879714D01*
X190773523Y-64879714D01*
X190868761Y-64927333D01*
X190916380Y-65022571D01*
X190916380Y-65117809D01*
X190440190Y-65213047D01*
X191249714Y-64879714D02*
X191440190Y-65546380D01*
X191630666Y-65070190D01*
X191821142Y-65546380D01*
X192011619Y-64879714D01*
X192297333Y-64546380D02*
X192916380Y-64546380D01*
X192583047Y-64927333D01*
X192725904Y-64927333D01*
X192821142Y-64974952D01*
X192868761Y-65022571D01*
X192916380Y-65117809D01*
X192916380Y-65355904D01*
X192868761Y-65451142D01*
X192821142Y-65498761D01*
X192725904Y-65546380D01*
X192440190Y-65546380D01*
X192344952Y-65498761D01*
X192297333Y-65451142D01*
G04 #@! TO.C,Screw2*
X189283047Y-46165428D02*
X190044952Y-46165428D01*
X189664000Y-46546380D02*
X189664000Y-45784476D01*
X190521142Y-46546380D02*
X190521142Y-45546380D01*
X190902095Y-45546380D01*
X190997333Y-45594000D01*
X191044952Y-45641619D01*
X191092571Y-45736857D01*
X191092571Y-45879714D01*
X191044952Y-45974952D01*
X190997333Y-46022571D01*
X190902095Y-46070190D01*
X190521142Y-46070190D01*
X188011619Y-40498761D02*
X188154476Y-40546380D01*
X188392571Y-40546380D01*
X188487809Y-40498761D01*
X188535428Y-40451142D01*
X188583047Y-40355904D01*
X188583047Y-40260666D01*
X188535428Y-40165428D01*
X188487809Y-40117809D01*
X188392571Y-40070190D01*
X188202095Y-40022571D01*
X188106857Y-39974952D01*
X188059238Y-39927333D01*
X188011619Y-39832095D01*
X188011619Y-39736857D01*
X188059238Y-39641619D01*
X188106857Y-39594000D01*
X188202095Y-39546380D01*
X188440190Y-39546380D01*
X188583047Y-39594000D01*
X189440190Y-40498761D02*
X189344952Y-40546380D01*
X189154476Y-40546380D01*
X189059238Y-40498761D01*
X189011619Y-40451142D01*
X188964000Y-40355904D01*
X188964000Y-40070190D01*
X189011619Y-39974952D01*
X189059238Y-39927333D01*
X189154476Y-39879714D01*
X189344952Y-39879714D01*
X189440190Y-39927333D01*
X189868761Y-40546380D02*
X189868761Y-39879714D01*
X189868761Y-40070190D02*
X189916380Y-39974952D01*
X189964000Y-39927333D01*
X190059238Y-39879714D01*
X190154476Y-39879714D01*
X190868761Y-40498761D02*
X190773523Y-40546380D01*
X190583047Y-40546380D01*
X190487809Y-40498761D01*
X190440190Y-40403523D01*
X190440190Y-40022571D01*
X190487809Y-39927333D01*
X190583047Y-39879714D01*
X190773523Y-39879714D01*
X190868761Y-39927333D01*
X190916380Y-40022571D01*
X190916380Y-40117809D01*
X190440190Y-40213047D01*
X191249714Y-39879714D02*
X191440190Y-40546380D01*
X191630666Y-40070190D01*
X191821142Y-40546380D01*
X192011619Y-39879714D01*
X192344952Y-39641619D02*
X192392571Y-39594000D01*
X192487809Y-39546380D01*
X192725904Y-39546380D01*
X192821142Y-39594000D01*
X192868761Y-39641619D01*
X192916380Y-39736857D01*
X192916380Y-39832095D01*
X192868761Y-39974952D01*
X192297333Y-40546380D01*
X192916380Y-40546380D01*
G04 #@! TO.C,Screw1*
X189283047Y-21165428D02*
X190044952Y-21165428D01*
X190521142Y-21546380D02*
X190521142Y-20546380D01*
X190902095Y-20546380D01*
X190997333Y-20594000D01*
X191044952Y-20641619D01*
X191092571Y-20736857D01*
X191092571Y-20879714D01*
X191044952Y-20974952D01*
X190997333Y-21022571D01*
X190902095Y-21070190D01*
X190521142Y-21070190D01*
X188011619Y-15498761D02*
X188154476Y-15546380D01*
X188392571Y-15546380D01*
X188487809Y-15498761D01*
X188535428Y-15451142D01*
X188583047Y-15355904D01*
X188583047Y-15260666D01*
X188535428Y-15165428D01*
X188487809Y-15117809D01*
X188392571Y-15070190D01*
X188202095Y-15022571D01*
X188106857Y-14974952D01*
X188059238Y-14927333D01*
X188011619Y-14832095D01*
X188011619Y-14736857D01*
X188059238Y-14641619D01*
X188106857Y-14594000D01*
X188202095Y-14546380D01*
X188440190Y-14546380D01*
X188583047Y-14594000D01*
X189440190Y-15498761D02*
X189344952Y-15546380D01*
X189154476Y-15546380D01*
X189059238Y-15498761D01*
X189011619Y-15451142D01*
X188964000Y-15355904D01*
X188964000Y-15070190D01*
X189011619Y-14974952D01*
X189059238Y-14927333D01*
X189154476Y-14879714D01*
X189344952Y-14879714D01*
X189440190Y-14927333D01*
X189868761Y-15546380D02*
X189868761Y-14879714D01*
X189868761Y-15070190D02*
X189916380Y-14974952D01*
X189964000Y-14927333D01*
X190059238Y-14879714D01*
X190154476Y-14879714D01*
X190868761Y-15498761D02*
X190773523Y-15546380D01*
X190583047Y-15546380D01*
X190487809Y-15498761D01*
X190440190Y-15403523D01*
X190440190Y-15022571D01*
X190487809Y-14927333D01*
X190583047Y-14879714D01*
X190773523Y-14879714D01*
X190868761Y-14927333D01*
X190916380Y-15022571D01*
X190916380Y-15117809D01*
X190440190Y-15213047D01*
X191249714Y-14879714D02*
X191440190Y-15546380D01*
X191630666Y-15070190D01*
X191821142Y-15546380D01*
X192011619Y-14879714D01*
X192916380Y-15546380D02*
X192344952Y-15546380D01*
X192630666Y-15546380D02*
X192630666Y-14546380D01*
X192535428Y-14689238D01*
X192440190Y-14784476D01*
X192344952Y-14832095D01*
G04 #@! TO.C,F1*
X158369142Y-1968571D02*
X158035809Y-1968571D01*
X158035809Y-2492380D02*
X158035809Y-1492380D01*
X158512000Y-1492380D01*
X159321523Y-1825714D02*
X159321523Y-2492380D01*
X158892952Y-1825714D02*
X158892952Y-2349523D01*
X158940571Y-2444761D01*
X159035809Y-2492380D01*
X159178666Y-2492380D01*
X159273904Y-2444761D01*
X159321523Y-2397142D01*
X159750095Y-2444761D02*
X159845333Y-2492380D01*
X160035809Y-2492380D01*
X160131047Y-2444761D01*
X160178666Y-2349523D01*
X160178666Y-2301904D01*
X160131047Y-2206666D01*
X160035809Y-2159047D01*
X159892952Y-2159047D01*
X159797714Y-2111428D01*
X159750095Y-2016190D01*
X159750095Y-1968571D01*
X159797714Y-1873333D01*
X159892952Y-1825714D01*
X160035809Y-1825714D01*
X160131047Y-1873333D01*
X160988190Y-2444761D02*
X160892952Y-2492380D01*
X160702476Y-2492380D01*
X160607238Y-2444761D01*
X160559619Y-2349523D01*
X160559619Y-1968571D01*
X160607238Y-1873333D01*
X160702476Y-1825714D01*
X160892952Y-1825714D01*
X160988190Y-1873333D01*
X161035809Y-1968571D01*
X161035809Y-2063809D01*
X160559619Y-2159047D01*
G04 #@! TO.C,R1*
D12*
X124884666Y-69568190D02*
X124718000Y-69330095D01*
X124598952Y-69568190D02*
X124598952Y-69068190D01*
X124789428Y-69068190D01*
X124837047Y-69092000D01*
X124860857Y-69115809D01*
X124884666Y-69163428D01*
X124884666Y-69234857D01*
X124860857Y-69282476D01*
X124837047Y-69306285D01*
X124789428Y-69330095D01*
X124598952Y-69330095D01*
X125360857Y-69568190D02*
X125075142Y-69568190D01*
X125218000Y-69568190D02*
X125218000Y-69068190D01*
X125170380Y-69139619D01*
X125122761Y-69187238D01*
X125075142Y-69211047D01*
G04 #@! TO.C,R102*
D11*
X136937809Y-27663142D02*
X136985428Y-27710761D01*
X136937809Y-27758380D01*
X136890190Y-27710761D01*
X136937809Y-27663142D01*
X136937809Y-27758380D01*
X136747333Y-26806000D02*
X136842571Y-26758380D01*
X137080666Y-26758380D01*
X137175904Y-26806000D01*
X137223523Y-26901238D01*
X137223523Y-26996476D01*
X137175904Y-27091714D01*
X137128285Y-27139333D01*
X137033047Y-27186952D01*
X136985428Y-27234571D01*
X136937809Y-27329809D01*
X136937809Y-27377428D01*
X137794952Y-27663142D02*
X137842571Y-27710761D01*
X137794952Y-27758380D01*
X137747333Y-27710761D01*
X137794952Y-27663142D01*
X137794952Y-27758380D01*
X137604476Y-26806000D02*
X137699714Y-26758380D01*
X137937809Y-26758380D01*
X138033047Y-26806000D01*
X138080666Y-26901238D01*
X138080666Y-26996476D01*
X138033047Y-27091714D01*
X137985428Y-27139333D01*
X137890190Y-27186952D01*
X137842571Y-27234571D01*
X137794952Y-27329809D01*
X137794952Y-27377428D01*
D12*
X136854476Y-29182190D02*
X136687809Y-28944095D01*
X136568761Y-29182190D02*
X136568761Y-28682190D01*
X136759238Y-28682190D01*
X136806857Y-28706000D01*
X136830666Y-28729809D01*
X136854476Y-28777428D01*
X136854476Y-28848857D01*
X136830666Y-28896476D01*
X136806857Y-28920285D01*
X136759238Y-28944095D01*
X136568761Y-28944095D01*
X137330666Y-29182190D02*
X137044952Y-29182190D01*
X137187809Y-29182190D02*
X137187809Y-28682190D01*
X137140190Y-28753619D01*
X137092571Y-28801238D01*
X137044952Y-28825047D01*
X137640190Y-28682190D02*
X137687809Y-28682190D01*
X137735428Y-28706000D01*
X137759238Y-28729809D01*
X137783047Y-28777428D01*
X137806857Y-28872666D01*
X137806857Y-28991714D01*
X137783047Y-29086952D01*
X137759238Y-29134571D01*
X137735428Y-29158380D01*
X137687809Y-29182190D01*
X137640190Y-29182190D01*
X137592571Y-29158380D01*
X137568761Y-29134571D01*
X137544952Y-29086952D01*
X137521142Y-28991714D01*
X137521142Y-28872666D01*
X137544952Y-28777428D01*
X137568761Y-28729809D01*
X137592571Y-28706000D01*
X137640190Y-28682190D01*
X137997333Y-28729809D02*
X138021142Y-28706000D01*
X138068761Y-28682190D01*
X138187809Y-28682190D01*
X138235428Y-28706000D01*
X138259238Y-28729809D01*
X138283047Y-28777428D01*
X138283047Y-28825047D01*
X138259238Y-28896476D01*
X137973523Y-29182190D01*
X138283047Y-29182190D01*
G04 #@! TO.C,R103*
D11*
X136937809Y-82273142D02*
X136985428Y-82320761D01*
X136937809Y-82368380D01*
X136890190Y-82320761D01*
X136937809Y-82273142D01*
X136937809Y-82368380D01*
X136747333Y-81416000D02*
X136842571Y-81368380D01*
X137080666Y-81368380D01*
X137175904Y-81416000D01*
X137223523Y-81511238D01*
X137223523Y-81606476D01*
X137175904Y-81701714D01*
X137128285Y-81749333D01*
X137033047Y-81796952D01*
X136985428Y-81844571D01*
X136937809Y-81939809D01*
X136937809Y-81987428D01*
X137794952Y-82273142D02*
X137842571Y-82320761D01*
X137794952Y-82368380D01*
X137747333Y-82320761D01*
X137794952Y-82273142D01*
X137794952Y-82368380D01*
X137604476Y-81416000D02*
X137699714Y-81368380D01*
X137937809Y-81368380D01*
X138033047Y-81416000D01*
X138080666Y-81511238D01*
X138080666Y-81606476D01*
X138033047Y-81701714D01*
X137985428Y-81749333D01*
X137890190Y-81796952D01*
X137842571Y-81844571D01*
X137794952Y-81939809D01*
X137794952Y-81987428D01*
D12*
X136854476Y-83792190D02*
X136687809Y-83554095D01*
X136568761Y-83792190D02*
X136568761Y-83292190D01*
X136759238Y-83292190D01*
X136806857Y-83316000D01*
X136830666Y-83339809D01*
X136854476Y-83387428D01*
X136854476Y-83458857D01*
X136830666Y-83506476D01*
X136806857Y-83530285D01*
X136759238Y-83554095D01*
X136568761Y-83554095D01*
X137330666Y-83792190D02*
X137044952Y-83792190D01*
X137187809Y-83792190D02*
X137187809Y-83292190D01*
X137140190Y-83363619D01*
X137092571Y-83411238D01*
X137044952Y-83435047D01*
X137640190Y-83292190D02*
X137687809Y-83292190D01*
X137735428Y-83316000D01*
X137759238Y-83339809D01*
X137783047Y-83387428D01*
X137806857Y-83482666D01*
X137806857Y-83601714D01*
X137783047Y-83696952D01*
X137759238Y-83744571D01*
X137735428Y-83768380D01*
X137687809Y-83792190D01*
X137640190Y-83792190D01*
X137592571Y-83768380D01*
X137568761Y-83744571D01*
X137544952Y-83696952D01*
X137521142Y-83601714D01*
X137521142Y-83482666D01*
X137544952Y-83387428D01*
X137568761Y-83339809D01*
X137592571Y-83316000D01*
X137640190Y-83292190D01*
X137973523Y-83292190D02*
X138283047Y-83292190D01*
X138116380Y-83482666D01*
X138187809Y-83482666D01*
X138235428Y-83506476D01*
X138259238Y-83530285D01*
X138283047Y-83577904D01*
X138283047Y-83696952D01*
X138259238Y-83744571D01*
X138235428Y-83768380D01*
X138187809Y-83792190D01*
X138044952Y-83792190D01*
X137997333Y-83768380D01*
X137973523Y-83744571D01*
G04 #@! TO.C,R104*
D11*
X136986309Y-78971142D02*
X137033928Y-79018761D01*
X136986309Y-79066380D01*
X136938690Y-79018761D01*
X136986309Y-78971142D01*
X136986309Y-79066380D01*
X136795833Y-78114000D02*
X136891071Y-78066380D01*
X137129166Y-78066380D01*
X137224404Y-78114000D01*
X137272023Y-78209238D01*
X137272023Y-78304476D01*
X137224404Y-78399714D01*
X137176785Y-78447333D01*
X137081547Y-78494952D01*
X137033928Y-78542571D01*
X136986309Y-78637809D01*
X136986309Y-78685428D01*
X137843452Y-78971142D02*
X137891071Y-79018761D01*
X137843452Y-79066380D01*
X137795833Y-79018761D01*
X137843452Y-78971142D01*
X137843452Y-79066380D01*
X137652976Y-78114000D02*
X137748214Y-78066380D01*
X137986309Y-78066380D01*
X138081547Y-78114000D01*
X138129166Y-78209238D01*
X138129166Y-78304476D01*
X138081547Y-78399714D01*
X138033928Y-78447333D01*
X137938690Y-78494952D01*
X137891071Y-78542571D01*
X137843452Y-78637809D01*
X137843452Y-78685428D01*
D12*
X136902976Y-80490190D02*
X136736309Y-80252095D01*
X136617261Y-80490190D02*
X136617261Y-79990190D01*
X136807738Y-79990190D01*
X136855357Y-80014000D01*
X136879166Y-80037809D01*
X136902976Y-80085428D01*
X136902976Y-80156857D01*
X136879166Y-80204476D01*
X136855357Y-80228285D01*
X136807738Y-80252095D01*
X136617261Y-80252095D01*
X137379166Y-80490190D02*
X137093452Y-80490190D01*
X137236309Y-80490190D02*
X137236309Y-79990190D01*
X137188690Y-80061619D01*
X137141071Y-80109238D01*
X137093452Y-80133047D01*
X137688690Y-79990190D02*
X137736309Y-79990190D01*
X137783928Y-80014000D01*
X137807738Y-80037809D01*
X137831547Y-80085428D01*
X137855357Y-80180666D01*
X137855357Y-80299714D01*
X137831547Y-80394952D01*
X137807738Y-80442571D01*
X137783928Y-80466380D01*
X137736309Y-80490190D01*
X137688690Y-80490190D01*
X137641071Y-80466380D01*
X137617261Y-80442571D01*
X137593452Y-80394952D01*
X137569642Y-80299714D01*
X137569642Y-80180666D01*
X137593452Y-80085428D01*
X137617261Y-80037809D01*
X137641071Y-80014000D01*
X137688690Y-79990190D01*
X138283928Y-80156857D02*
X138283928Y-80490190D01*
X138164880Y-79966380D02*
X138045833Y-80323523D01*
X138355357Y-80323523D01*
G04 #@! TD*
M02*
