G04 #@! TF.GenerationSoftware,KiCad,Pcbnew,(5.0.0-rc2-dev-586-g888c43477)*
G04 #@! TF.CreationDate,2018-06-03T13:58:00-03:00*
G04 #@! TF.ProjectId,Mcc18,4D636331382E6B696361645F70636200,rev?*
G04 #@! TF.SameCoordinates,Original*
G04 #@! TF.FileFunction,Other,User*
%FSLAX46Y46*%
G04 Gerber Fmt 4.6, Leading zero omitted, Abs format (unit mm)*
G04 Created by KiCad (PCBNEW (5.0.0-rc2-dev-586-g888c43477)) date 06/03/18 13:58:00*
%MOMM*%
%LPD*%
G01*
G04 APERTURE LIST*
%ADD10C,0.050000*%
G04 APERTURE END LIST*
D10*
X179766000Y-102148000D02*
X179766000Y-130928000D01*
X179766000Y-130928000D02*
X163366000Y-130928000D01*
X163366000Y-130928000D02*
X163366000Y-102148000D01*
X163366000Y-102148000D02*
X179766000Y-102148000D01*
X179766000Y-78954000D02*
X163366000Y-78954000D01*
X179766000Y-50174000D02*
X179766000Y-78954000D01*
X163366000Y-50174000D02*
X179766000Y-50174000D01*
X163366000Y-78954000D02*
X163366000Y-50174000D01*
X147508000Y-114169500D02*
X145608000Y-114169500D01*
X145608000Y-114169500D02*
X145608000Y-117889500D01*
X145608000Y-117889500D02*
X147508000Y-117889500D01*
X147508000Y-117889500D02*
X147508000Y-114169500D01*
X156038000Y-113096000D02*
X152318000Y-113096000D01*
X156038000Y-114996000D02*
X156038000Y-113096000D01*
X152318000Y-114996000D02*
X156038000Y-114996000D01*
X152318000Y-113096000D02*
X152318000Y-114996000D01*
X149794000Y-117889500D02*
X149794000Y-114169500D01*
X147894000Y-117889500D02*
X149794000Y-117889500D01*
X147894000Y-114169500D02*
X147894000Y-117889500D01*
X149794000Y-114169500D02*
X147894000Y-114169500D01*
X143887500Y-123510000D02*
X143887500Y-125410000D01*
X143887500Y-125410000D02*
X147607500Y-125410000D01*
X147607500Y-125410000D02*
X147607500Y-123510000D01*
X147607500Y-123510000D02*
X143887500Y-123510000D01*
X155890000Y-119510500D02*
X155890000Y-115790500D01*
X153990000Y-119510500D02*
X155890000Y-119510500D01*
X153990000Y-115790500D02*
X153990000Y-119510500D01*
X155890000Y-115790500D02*
X153990000Y-115790500D01*
X152080000Y-114169500D02*
X150180000Y-114169500D01*
X150180000Y-114169500D02*
X150180000Y-117889500D01*
X150180000Y-117889500D02*
X152080000Y-117889500D01*
X152080000Y-117889500D02*
X152080000Y-114169500D01*
X158176000Y-119510500D02*
X158176000Y-115790500D01*
X156276000Y-119510500D02*
X158176000Y-119510500D01*
X156276000Y-115790500D02*
X156276000Y-119510500D01*
X158176000Y-115790500D02*
X156276000Y-115790500D01*
X138618000Y-59820500D02*
X138618000Y-56100500D01*
X136718000Y-59820500D02*
X138618000Y-59820500D01*
X136718000Y-56100500D02*
X136718000Y-59820500D01*
X138618000Y-56100500D02*
X136718000Y-56100500D01*
X147607500Y-120970000D02*
X143887500Y-120970000D01*
X147607500Y-122870000D02*
X147607500Y-120970000D01*
X143887500Y-122870000D02*
X147607500Y-122870000D01*
X143887500Y-120970000D02*
X143887500Y-122870000D01*
X157668000Y-127082000D02*
X157668000Y-123362000D01*
X155768000Y-127082000D02*
X157668000Y-127082000D01*
X155768000Y-123362000D02*
X155768000Y-127082000D01*
X157668000Y-123362000D02*
X155768000Y-123362000D01*
X143084000Y-53914000D02*
X139364000Y-53914000D01*
X143084000Y-55814000D02*
X143084000Y-53914000D01*
X139364000Y-55814000D02*
X143084000Y-55814000D01*
X139364000Y-53914000D02*
X139364000Y-55814000D01*
X139364000Y-55946000D02*
X139364000Y-57846000D01*
X139364000Y-57846000D02*
X143084000Y-57846000D01*
X143084000Y-57846000D02*
X143084000Y-55946000D01*
X143084000Y-55946000D02*
X139364000Y-55946000D01*
M02*
