G04 #@! TF.GenerationSoftware,KiCad,Pcbnew,(5.0.0-rc2-39-ga12b9db58)*
G04 #@! TF.CreationDate,2018-05-30T01:27:49-03:00*
G04 #@! TF.ProjectId,Mcc18,4D636331382E6B696361645F70636200,rev?*
G04 #@! TF.SameCoordinates,PX2fb84f0PY2607d70*
G04 #@! TF.FileFunction,Drawing*
%FSLAX46Y46*%
G04 Gerber Fmt 4.6, Leading zero omitted, Abs format (unit mm)*
G04 Created by KiCad (PCBNEW (5.0.0-rc2-39-ga12b9db58)) date Wed May 30 01:27:49 2018*
%MOMM*%
%LPD*%
G01*
G04 APERTURE LIST*
%ADD10C,0.300000*%
G04 APERTURE END LIST*
D10*
X95770571Y-114562571D02*
X96770571Y-114562571D01*
X96127714Y-116062571D01*
X97342000Y-115919714D02*
X97413428Y-115991142D01*
X97342000Y-116062571D01*
X97270571Y-115991142D01*
X97342000Y-115919714D01*
X97342000Y-116062571D01*
X98127714Y-116062571D02*
X98413428Y-116062571D01*
X98556285Y-115991142D01*
X98627714Y-115919714D01*
X98770571Y-115705428D01*
X98842000Y-115419714D01*
X98842000Y-114848285D01*
X98770571Y-114705428D01*
X98699142Y-114634000D01*
X98556285Y-114562571D01*
X98270571Y-114562571D01*
X98127714Y-114634000D01*
X98056285Y-114705428D01*
X97984857Y-114848285D01*
X97984857Y-115205428D01*
X98056285Y-115348285D01*
X98127714Y-115419714D01*
X98270571Y-115491142D01*
X98556285Y-115491142D01*
X98699142Y-115419714D01*
X98770571Y-115348285D01*
X98842000Y-115205428D01*
X100127714Y-114562571D02*
X99842000Y-114562571D01*
X99699142Y-114634000D01*
X99627714Y-114705428D01*
X99484857Y-114919714D01*
X99413428Y-115205428D01*
X99413428Y-115776857D01*
X99484857Y-115919714D01*
X99556285Y-115991142D01*
X99699142Y-116062571D01*
X99984857Y-116062571D01*
X100127714Y-115991142D01*
X100199142Y-115919714D01*
X100270571Y-115776857D01*
X100270571Y-115419714D01*
X100199142Y-115276857D01*
X100127714Y-115205428D01*
X99984857Y-115134000D01*
X99699142Y-115134000D01*
X99556285Y-115205428D01*
X99484857Y-115276857D01*
X99413428Y-115419714D01*
X101199142Y-114562571D02*
X101342000Y-114562571D01*
X101484857Y-114634000D01*
X101556285Y-114705428D01*
X101627714Y-114848285D01*
X101699142Y-115134000D01*
X101699142Y-115491142D01*
X101627714Y-115776857D01*
X101556285Y-115919714D01*
X101484857Y-115991142D01*
X101342000Y-116062571D01*
X101199142Y-116062571D01*
X101056285Y-115991142D01*
X100984857Y-115919714D01*
X100913428Y-115776857D01*
X100842000Y-115491142D01*
X100842000Y-115134000D01*
X100913428Y-114848285D01*
X100984857Y-114705428D01*
X101056285Y-114634000D01*
X101199142Y-114562571D01*
X102627714Y-114562571D02*
X102770571Y-114562571D01*
X102913428Y-114634000D01*
X102984857Y-114705428D01*
X103056285Y-114848285D01*
X103127714Y-115134000D01*
X103127714Y-115491142D01*
X103056285Y-115776857D01*
X102984857Y-115919714D01*
X102913428Y-115991142D01*
X102770571Y-116062571D01*
X102627714Y-116062571D01*
X102484857Y-115991142D01*
X102413428Y-115919714D01*
X102342000Y-115776857D01*
X102270571Y-115491142D01*
X102270571Y-115134000D01*
X102342000Y-114848285D01*
X102413428Y-114705428D01*
X102484857Y-114634000D01*
X102627714Y-114562571D01*
X104913428Y-116062571D02*
X104913428Y-115062571D01*
X104913428Y-114562571D02*
X104842000Y-114634000D01*
X104913428Y-114705428D01*
X104984857Y-114634000D01*
X104913428Y-114562571D01*
X104913428Y-114705428D01*
X105627714Y-115062571D02*
X105627714Y-116062571D01*
X105627714Y-115205428D02*
X105699142Y-115134000D01*
X105842000Y-115062571D01*
X106056285Y-115062571D01*
X106199142Y-115134000D01*
X106270571Y-115276857D01*
X106270571Y-116062571D01*
X0Y-113284000D02*
X202184000Y-113284000D01*
X0Y-107188000D02*
X0Y-113870421D01*
X202184000Y-107188000D02*
X202184000Y-113870421D01*
X202184000Y-113284000D02*
X201057496Y-113870421D01*
X202184000Y-113284000D02*
X201057496Y-112697579D01*
X0Y-113284000D02*
X1126504Y-113870421D01*
X0Y-113284000D02*
X1126504Y-112697579D01*
X94180854Y-121190472D02*
X94252193Y-121118954D01*
X94394960Y-121047346D01*
X94752103Y-121046897D01*
X94895049Y-121118146D01*
X94966568Y-121189485D01*
X95038176Y-121332252D01*
X95038355Y-121475109D01*
X94967196Y-121689484D01*
X94111130Y-122547703D01*
X95039701Y-122546537D01*
X95966387Y-121045371D02*
X96109245Y-121045192D01*
X96252191Y-121116441D01*
X96323710Y-121187780D01*
X96395317Y-121330547D01*
X96467105Y-121616171D01*
X96467554Y-121973314D01*
X96396484Y-122259118D01*
X96325235Y-122402065D01*
X96253896Y-122473583D01*
X96111129Y-122545191D01*
X95968272Y-122545370D01*
X95825325Y-122474121D01*
X95753807Y-122402782D01*
X95682199Y-122260015D01*
X95610411Y-121974391D01*
X95609963Y-121617248D01*
X95681032Y-121331444D01*
X95752281Y-121188498D01*
X95823620Y-121116979D01*
X95966387Y-121045371D01*
X97037995Y-121186882D02*
X97109333Y-121115364D01*
X97252101Y-121043756D01*
X97609243Y-121043308D01*
X97752190Y-121114557D01*
X97823708Y-121185895D01*
X97895316Y-121328663D01*
X97895496Y-121471520D01*
X97824336Y-121685895D01*
X96968271Y-122544114D01*
X97896842Y-122542947D01*
X98539519Y-122399283D02*
X98611037Y-122470622D01*
X98539698Y-122542140D01*
X98468180Y-122470801D01*
X98539519Y-122399283D01*
X98539698Y-122542140D01*
X100039697Y-122540255D02*
X99182555Y-122541332D01*
X99611126Y-122540794D02*
X99609242Y-121040795D01*
X99466654Y-121255260D01*
X99323976Y-121398297D01*
X99181209Y-121469904D01*
X100895763Y-121682036D02*
X100752816Y-121610787D01*
X100681298Y-121539449D01*
X100609690Y-121396681D01*
X100609600Y-121325253D01*
X100680849Y-121182306D01*
X100752188Y-121110788D01*
X100894955Y-121039180D01*
X101180669Y-121038821D01*
X101323616Y-121110070D01*
X101395134Y-121181409D01*
X101466742Y-121324176D01*
X101466832Y-121395604D01*
X101395583Y-121538551D01*
X101324244Y-121610069D01*
X101181477Y-121681677D01*
X100895763Y-121682036D01*
X100752995Y-121753644D01*
X100681657Y-121825163D01*
X100610407Y-121968109D01*
X100610766Y-122253823D01*
X100682374Y-122396591D01*
X100753893Y-122467930D01*
X100896839Y-122539179D01*
X101182553Y-122538820D01*
X101325321Y-122467212D01*
X101396660Y-122395693D01*
X101467909Y-122252747D01*
X101467550Y-121967033D01*
X101395942Y-121824265D01*
X101324423Y-121752927D01*
X101181477Y-121681677D01*
X102752725Y-121536846D02*
X102753981Y-122536846D01*
X102394864Y-120965867D02*
X102039068Y-122037743D01*
X102967638Y-122036577D01*
X104682551Y-122534423D02*
X104681294Y-121534423D01*
X104681474Y-121677280D02*
X104752813Y-121605762D01*
X104895580Y-121534154D01*
X105109866Y-121533885D01*
X105252812Y-121605134D01*
X105324420Y-121747901D01*
X105325407Y-122533615D01*
X105324420Y-121747901D02*
X105395669Y-121604955D01*
X105538437Y-121533347D01*
X105752722Y-121533077D01*
X105895669Y-121604326D01*
X105967277Y-121747094D01*
X105968264Y-122532807D01*
X106682549Y-122531910D02*
X106681293Y-121531911D01*
X106681472Y-121674768D02*
X106752811Y-121603250D01*
X106895578Y-121531642D01*
X107109864Y-121531372D01*
X107252811Y-121602622D01*
X107324419Y-121745389D01*
X107325406Y-122531103D01*
X107324419Y-121745389D02*
X107395668Y-121602442D01*
X107538435Y-121530834D01*
X107752721Y-121530565D01*
X107895667Y-121601814D01*
X107967275Y-121744581D01*
X107968262Y-122530295D01*
X202199635Y-119633341D02*
X15635Y-119887341D01*
X202184000Y-107188000D02*
X202200372Y-120219761D01*
X0Y-107442000D02*
X16372Y-120473761D01*
X15635Y-119887341D02*
X1141401Y-119299506D01*
X15635Y-119887341D02*
X1142875Y-120472346D01*
X202199635Y-119633341D02*
X201072395Y-119048336D01*
X202199635Y-119633341D02*
X201073869Y-120221176D01*
X-8516063Y-49078753D02*
X-9516060Y-49081123D01*
X-7945482Y-48720257D02*
X-9017754Y-48365654D01*
X-9015554Y-49294223D01*
X-9371342Y-49866496D02*
X-9442601Y-49938094D01*
X-9514198Y-49866835D01*
X-9442939Y-49795237D01*
X-9371342Y-49866496D01*
X-9514198Y-49866835D01*
X-8155536Y-50506474D02*
X-8083938Y-50577733D01*
X-8012171Y-50720421D01*
X-8011325Y-51077563D01*
X-8082415Y-51220589D01*
X-8153674Y-51292186D01*
X-8296361Y-51363953D01*
X-8439218Y-51364292D01*
X-8653673Y-51293371D01*
X-9512844Y-50438262D01*
X-9510644Y-51366831D01*
X-8152151Y-51935042D02*
X-8080553Y-52006301D01*
X-8008786Y-52148988D01*
X-8007940Y-52506130D01*
X-8079030Y-52649156D01*
X-8150289Y-52720754D01*
X-8292976Y-52792521D01*
X-8435833Y-52792859D01*
X-8650287Y-52721939D01*
X-9509459Y-51866829D01*
X-9507259Y-52795398D01*
X-8005062Y-53720413D02*
X-8004724Y-53863269D01*
X-8075814Y-54006295D01*
X-8147073Y-54077893D01*
X-8289760Y-54149660D01*
X-8575304Y-54221765D01*
X-8932446Y-54222612D01*
X-9218329Y-54151860D01*
X-9361355Y-54080770D01*
X-9432953Y-54009511D01*
X-9504720Y-53866824D01*
X-9505058Y-53723967D01*
X-9433968Y-53580941D01*
X-9362709Y-53509343D01*
X-9220022Y-53437577D01*
X-8934477Y-53365471D01*
X-8577336Y-53364625D01*
X-8291453Y-53435376D01*
X-8148427Y-53506466D01*
X-8076829Y-53577725D01*
X-8005062Y-53720413D01*
X-8001677Y-55148980D02*
X-8001339Y-55291837D01*
X-8072428Y-55434863D01*
X-8143688Y-55506460D01*
X-8286375Y-55578227D01*
X-8571919Y-55650333D01*
X-8929061Y-55651179D01*
X-9214944Y-55580428D01*
X-9357970Y-55509338D01*
X-9429567Y-55438079D01*
X-9501334Y-55295391D01*
X-9501673Y-55152534D01*
X-9430583Y-55009508D01*
X-9359324Y-54937911D01*
X-9216636Y-54866144D01*
X-8931092Y-54794039D01*
X-8573950Y-54793192D01*
X-8288068Y-54863944D01*
X-8145042Y-54935033D01*
X-8073444Y-55006292D01*
X-8001677Y-55148980D01*
X-9496257Y-57438242D02*
X-8496259Y-57435873D01*
X-7996261Y-57434688D02*
X-8067858Y-57363429D01*
X-8139117Y-57435026D01*
X-8067520Y-57506285D01*
X-7996261Y-57434688D01*
X-8139117Y-57435026D01*
X-8494567Y-58150156D02*
X-9494564Y-58152526D01*
X-8637423Y-58150495D02*
X-8565826Y-58221754D01*
X-8494059Y-58364441D01*
X-8493551Y-58578727D01*
X-8564641Y-58721753D01*
X-8707328Y-58793519D01*
X-9493041Y-58795381D01*
X-6853748Y-16241D02*
X-6599748Y-107204241D01*
X0Y0D02*
X-7440167Y-17631D01*
X254000Y-107188000D02*
X-7186167Y-107205631D01*
X-6599748Y-107204241D02*
X-7188837Y-106079130D01*
X-6599748Y-107204241D02*
X-6015998Y-106076351D01*
X-6853748Y-16241D02*
X-7437498Y-1144131D01*
X-6853748Y-16241D02*
X-6264659Y-1141352D01*
X-14208572Y-47522571D02*
X-14208572Y-46665428D01*
X-14208572Y-47094000D02*
X-12708572Y-47094000D01*
X-12922858Y-46951142D01*
X-13065715Y-46808285D01*
X-13137143Y-46665428D01*
X-12708572Y-48451142D02*
X-12708572Y-48594000D01*
X-12780000Y-48736857D01*
X-12851429Y-48808285D01*
X-12994286Y-48879714D01*
X-13280000Y-48951142D01*
X-13637143Y-48951142D01*
X-13922858Y-48879714D01*
X-14065715Y-48808285D01*
X-14137143Y-48736857D01*
X-14208572Y-48594000D01*
X-14208572Y-48451142D01*
X-14137143Y-48308285D01*
X-14065715Y-48236857D01*
X-13922858Y-48165428D01*
X-13637143Y-48094000D01*
X-13280000Y-48094000D01*
X-12994286Y-48165428D01*
X-12851429Y-48236857D01*
X-12780000Y-48308285D01*
X-12708572Y-48451142D01*
X-12708572Y-49451142D02*
X-12708572Y-50451142D01*
X-14208572Y-49808285D01*
X-14065715Y-51022571D02*
X-14137143Y-51094000D01*
X-14208572Y-51022571D01*
X-14137143Y-50951142D01*
X-14065715Y-51022571D01*
X-14208572Y-51022571D01*
X-14208572Y-52522571D02*
X-14208572Y-51665428D01*
X-14208572Y-52094000D02*
X-12708572Y-52094000D01*
X-12922858Y-51951142D01*
X-13065715Y-51808285D01*
X-13137143Y-51665428D01*
X-13351429Y-53379714D02*
X-13280000Y-53236857D01*
X-13208572Y-53165428D01*
X-13065715Y-53094000D01*
X-12994286Y-53094000D01*
X-12851429Y-53165428D01*
X-12780000Y-53236857D01*
X-12708572Y-53379714D01*
X-12708572Y-53665428D01*
X-12780000Y-53808285D01*
X-12851429Y-53879714D01*
X-12994286Y-53951142D01*
X-13065715Y-53951142D01*
X-13208572Y-53879714D01*
X-13280000Y-53808285D01*
X-13351429Y-53665428D01*
X-13351429Y-53379714D01*
X-13422858Y-53236857D01*
X-13494286Y-53165428D01*
X-13637143Y-53094000D01*
X-13922858Y-53094000D01*
X-14065715Y-53165428D01*
X-14137143Y-53236857D01*
X-14208572Y-53379714D01*
X-14208572Y-53665428D01*
X-14137143Y-53808285D01*
X-14065715Y-53879714D01*
X-13922858Y-53951142D01*
X-13637143Y-53951142D01*
X-13494286Y-53879714D01*
X-13422858Y-53808285D01*
X-13351429Y-53665428D01*
X-13351429Y-54808285D02*
X-13280000Y-54665428D01*
X-13208572Y-54594000D01*
X-13065715Y-54522571D01*
X-12994286Y-54522571D01*
X-12851429Y-54594000D01*
X-12780000Y-54665428D01*
X-12708572Y-54808285D01*
X-12708572Y-55094000D01*
X-12780000Y-55236857D01*
X-12851429Y-55308285D01*
X-12994286Y-55379714D01*
X-13065715Y-55379714D01*
X-13208572Y-55308285D01*
X-13280000Y-55236857D01*
X-13351429Y-55094000D01*
X-13351429Y-54808285D01*
X-13422858Y-54665428D01*
X-13494286Y-54594000D01*
X-13637143Y-54522571D01*
X-13922858Y-54522571D01*
X-14065715Y-54594000D01*
X-14137143Y-54665428D01*
X-14208572Y-54808285D01*
X-14208572Y-55094000D01*
X-14137143Y-55236857D01*
X-14065715Y-55308285D01*
X-13922858Y-55379714D01*
X-13637143Y-55379714D01*
X-13494286Y-55308285D01*
X-13422858Y-55236857D01*
X-13351429Y-55094000D01*
X-14208572Y-57165428D02*
X-13208572Y-57165428D01*
X-13351429Y-57165428D02*
X-13280000Y-57236857D01*
X-13208572Y-57379714D01*
X-13208572Y-57594000D01*
X-13280000Y-57736857D01*
X-13422858Y-57808285D01*
X-14208572Y-57808285D01*
X-13422858Y-57808285D02*
X-13280000Y-57879714D01*
X-13208572Y-58022571D01*
X-13208572Y-58236857D01*
X-13280000Y-58379714D01*
X-13422858Y-58451142D01*
X-14208572Y-58451142D01*
X-14208572Y-59165428D02*
X-13208572Y-59165428D01*
X-13351429Y-59165428D02*
X-13280000Y-59236857D01*
X-13208572Y-59379714D01*
X-13208572Y-59594000D01*
X-13280000Y-59736857D01*
X-13422858Y-59808285D01*
X-14208572Y-59808285D01*
X-13422858Y-59808285D02*
X-13280000Y-59879714D01*
X-13208572Y-60022571D01*
X-13208572Y-60236857D01*
X-13280000Y-60379714D01*
X-13422858Y-60451142D01*
X-14208572Y-60451142D01*
X-11430000Y0D02*
X-11430000Y-107188000D01*
X0Y0D02*
X-12016421Y0D01*
X0Y-107188000D02*
X-12016421Y-107188000D01*
X-11430000Y-107188000D02*
X-12016421Y-106061496D01*
X-11430000Y-107188000D02*
X-10843579Y-106061496D01*
X-11430000Y0D02*
X-12016421Y-1126504D01*
X-11430000Y0D02*
X-10843579Y-1126504D01*
M02*
