G04 #@! TF.GenerationSoftware,KiCad,Pcbnew,(5.0.0-rc2-39-ga12b9db58)*
G04 #@! TF.CreationDate,2018-05-30T01:27:49-03:00*
G04 #@! TF.ProjectId,Mcc18,4D636331382E6B696361645F70636200,rev?*
G04 #@! TF.SameCoordinates,PX2fb84f0PY2607d70*
G04 #@! TF.FileFunction,Legend,Top*
G04 #@! TF.FilePolarity,Positive*
%FSLAX46Y46*%
G04 Gerber Fmt 4.6, Leading zero omitted, Abs format (unit mm)*
G04 Created by KiCad (PCBNEW (5.0.0-rc2-39-ga12b9db58)) date Wed May 30 01:27:49 2018*
%MOMM*%
%LPD*%
G01*
G04 APERTURE LIST*
%ADD10C,0.150000*%
%ADD11C,0.120000*%
%ADD12O,2.100000X2.940000*%
%ADD13O,2.700000X1.700000*%
%ADD14O,2.400000X1.600000*%
%ADD15R,1.295000X1.400000*%
%ADD16O,4.000000X4.000000*%
%ADD17R,2.500000X4.500000*%
%ADD18O,2.900000X4.900000*%
%ADD19C,2.200000*%
%ADD20R,1.800000X1.800000*%
%ADD21C,5.400000*%
%ADD22C,4.800000*%
%ADD23R,1.800000X1.395000*%
%ADD24O,2.400000X2.305000*%
%ADD25R,2.000000X1.905000*%
%ADD26O,3.900000X3.900000*%
%ADD27C,2.600000*%
%ADD28R,3.500000X2.700000*%
%ADD29R,2.700000X3.500000*%
%ADD30R,1.400000X1.295000*%
%ADD31R,1.495000X3.400000*%
%ADD32C,2.800000*%
%ADD33C,10.400000*%
%ADD34C,3.400000*%
G04 APERTURE END LIST*
D10*
G04 #@! TO.C,U1*
X65532000Y-17272000D02*
X66802000Y-18542000D01*
X68072000Y-17272000D02*
X65532000Y-17272000D01*
X66802000Y-18542000D02*
X68072000Y-17272000D01*
X66802000Y-13462000D02*
X66802000Y-18542000D01*
X85852000Y-10922000D02*
X63754000Y-10922000D01*
X63754000Y-21082000D02*
X63754000Y-10922000D01*
X85852000Y-21082000D02*
X85852000Y-10922000D01*
X85852000Y-21082000D02*
X63754000Y-21082000D01*
G04 #@! TO.C,U2*
X111506000Y-90424000D02*
X111506000Y-69342000D01*
X76454000Y-69342000D02*
X111506000Y-69342000D01*
X76454000Y-90424000D02*
X111506000Y-90424000D01*
X76454000Y-90424000D02*
X76454000Y-69342000D01*
G04 #@! TO.C,L1*
X80645000Y-33274000D02*
G75*
G03X80645000Y-33274000I-254000J0D01*
G01*
X80772000Y-62484000D02*
G75*
G03X80772000Y-62484000I-254000J0D01*
G01*
X79629000Y-32512000D02*
X82169000Y-32512000D01*
X96139000Y-32512000D02*
X97409000Y-32512000D01*
X94869000Y-32512000D02*
X96139000Y-32512000D01*
X92329000Y-32512000D02*
G75*
G02X89789000Y-32512000I-1270000J0D01*
G01*
X84709000Y-32512000D02*
G75*
G02X82169000Y-32512000I-1270000J0D01*
G01*
X87249000Y-32512000D02*
G75*
G02X84709000Y-32512000I-1270000J0D01*
G01*
X89789000Y-32512000D02*
G75*
G02X87249000Y-32512000I-1270000J0D01*
G01*
X94869000Y-32512000D02*
G75*
G02X92329000Y-32512000I-1270000J0D01*
G01*
X96266000Y-61722000D02*
X97536000Y-61722000D01*
X94996000Y-61722000D02*
X96266000Y-61722000D01*
X94996000Y-61722000D02*
G75*
G02X92456000Y-61722000I-1270000J0D01*
G01*
X92456000Y-61722000D02*
G75*
G02X89916000Y-61722000I-1270000J0D01*
G01*
X89916000Y-61722000D02*
G75*
G02X87376000Y-61722000I-1270000J0D01*
G01*
X87376000Y-61722000D02*
G75*
G02X84836000Y-61722000I-1270000J0D01*
G01*
X84836000Y-61722000D02*
G75*
G02X82296000Y-61722000I-1270000J0D01*
G01*
X79756000Y-61722000D02*
X82296000Y-61722000D01*
X67183000Y-24892000D02*
X67183000Y-67945000D01*
X110236000Y-67945000D02*
X67183000Y-67945000D01*
X110236000Y-24892000D02*
X110236000Y-67945000D01*
X110236000Y-24892000D02*
X67183000Y-24892000D01*
G04 #@! TO.C,U5*
X41148000Y-4064000D02*
X41148000Y-26924000D01*
X43688000Y-4064000D02*
X41148000Y-4064000D01*
X43688000Y-26924000D02*
X43688000Y-4064000D01*
X41148000Y-26924000D02*
X43688000Y-26924000D01*
X41148000Y-29464000D02*
X41148000Y-37084000D01*
X43688000Y-29464000D02*
X41148000Y-29464000D01*
X43688000Y-37084000D02*
X43688000Y-29464000D01*
X41148000Y-37084000D02*
X41148000Y-44704000D01*
X43688000Y-37084000D02*
X41148000Y-37084000D01*
X43688000Y-44704000D02*
X43688000Y-37084000D01*
X41148000Y-44704000D02*
X41148000Y-54864000D01*
X43688000Y-44704000D02*
X41148000Y-44704000D01*
X43688000Y-54864000D02*
X43688000Y-44704000D01*
X41148000Y-54864000D02*
X41148000Y-80264000D01*
X43688000Y-54864000D02*
X41148000Y-54864000D01*
X43688000Y-80264000D02*
X43688000Y-54864000D01*
X41148000Y-80264000D02*
X43688000Y-80264000D01*
X41148000Y-84074000D02*
X41148000Y-104394000D01*
X43688000Y-84074000D02*
X41148000Y-84074000D01*
X43688000Y-104394000D02*
X43688000Y-84074000D01*
X41148000Y-104394000D02*
X43688000Y-104394000D01*
X508000Y-2794000D02*
X46228000Y-2794000D01*
X46228000Y-105664000D02*
X46228000Y-2794000D01*
X508000Y-105664000D02*
X508000Y-2794000D01*
X508000Y-105664000D02*
X46228000Y-105664000D01*
D11*
G04 #@! TO.C,Cs4*
X120036000Y-71620000D02*
X120036000Y-70620000D01*
X118216000Y-71620000D02*
X118216000Y-70620000D01*
G04 #@! TO.C,Cs3*
X113686000Y-57666000D02*
X113686000Y-58666000D01*
X111866000Y-57666000D02*
X111866000Y-58666000D01*
G04 #@! TO.C,Cs2*
X123592000Y-44950000D02*
X123592000Y-43950000D01*
X121772000Y-44950000D02*
X121772000Y-43950000D01*
G04 #@! TO.C,Cs1*
X120798000Y-30234000D02*
X120798000Y-31234000D01*
X118978000Y-30234000D02*
X118978000Y-31234000D01*
G04 #@! TO.C,U3*
X89782000Y-74168000D02*
X92322000Y-74168000D01*
X89782000Y-76708000D02*
X92322000Y-76708000D01*
X89782000Y-79248000D02*
X92322000Y-79248000D01*
X73892000Y-71588000D02*
X89782000Y-71588000D01*
X73892000Y-81828000D02*
X89782000Y-81828000D01*
X73892000Y-81828000D02*
X73892000Y-71588000D01*
X89782000Y-81828000D02*
X89782000Y-71588000D01*
G04 #@! TO.C,Ci2*
X168884000Y-35114000D02*
X165520000Y-35114000D01*
X174840000Y-35114000D02*
X171476000Y-35114000D01*
X168884000Y-18494000D02*
X165520000Y-18494000D01*
X174840000Y-18494000D02*
X171476000Y-18494000D01*
X165520000Y-18494000D02*
X165520000Y-35114000D01*
X174840000Y-18494000D02*
X174840000Y-35114000D01*
G04 #@! TO.C,Ci1*
X179044000Y-35114000D02*
X175680000Y-35114000D01*
X185000000Y-35114000D02*
X181636000Y-35114000D01*
X179044000Y-18494000D02*
X175680000Y-18494000D01*
X185000000Y-18494000D02*
X181636000Y-18494000D01*
X175680000Y-18494000D02*
X175680000Y-35114000D01*
X185000000Y-18494000D02*
X185000000Y-35114000D01*
G04 #@! TO.C,Ci3*
X158724000Y-35114000D02*
X155360000Y-35114000D01*
X164680000Y-35114000D02*
X161316000Y-35114000D01*
X158724000Y-18494000D02*
X155360000Y-18494000D01*
X164680000Y-18494000D02*
X161316000Y-18494000D01*
X155360000Y-18494000D02*
X155360000Y-35114000D01*
X164680000Y-18494000D02*
X164680000Y-35114000D01*
G04 #@! TO.C,Ds2*
X116366000Y-59666000D02*
X125066000Y-59666000D01*
X116366000Y-56666000D02*
X116366000Y-59666000D01*
X125066000Y-56666000D02*
X116366000Y-56666000D01*
G04 #@! TO.C,Ds1*
X128500000Y-52036000D02*
X128500000Y-43336000D01*
X125500000Y-52036000D02*
X128500000Y-52036000D01*
X125500000Y-43336000D02*
X125500000Y-52036000D01*
G04 #@! TO.C,Rs4*
X123526000Y-73338000D02*
X127426000Y-73338000D01*
X123526000Y-69918000D02*
X127426000Y-69918000D01*
G04 #@! TO.C,Rs3*
X113366000Y-46160000D02*
X117266000Y-46160000D01*
X113366000Y-42740000D02*
X117266000Y-42740000D01*
G04 #@! TO.C,Rs2*
X121076000Y-49598000D02*
X117176000Y-49598000D01*
X121076000Y-53018000D02*
X117176000Y-53018000D01*
G04 #@! TO.C,Rs1*
X123272000Y-29904000D02*
X127172000Y-29904000D01*
X123272000Y-26484000D02*
X127172000Y-26484000D01*
G04 #@! TO.C,Co2*
X165987000Y-66940000D02*
X170602000Y-66940000D01*
X158582000Y-66940000D02*
X163197000Y-66940000D01*
X165987000Y-96060000D02*
X170602000Y-96060000D01*
X158582000Y-96060000D02*
X163197000Y-96060000D01*
X170602000Y-96060000D02*
X170602000Y-66940000D01*
X158582000Y-96060000D02*
X158582000Y-66940000D01*
G04 #@! TO.C,Cc1*
X171282000Y-65580000D02*
X171282000Y-36460000D01*
X183302000Y-65580000D02*
X183302000Y-36460000D01*
X171282000Y-65580000D02*
X175897000Y-65580000D01*
X178687000Y-65580000D02*
X183302000Y-65580000D01*
X171282000Y-36460000D02*
X175897000Y-36460000D01*
X178687000Y-36460000D02*
X183302000Y-36460000D01*
G04 #@! TO.C,Cc2*
X165987000Y-36460000D02*
X170602000Y-36460000D01*
X158582000Y-36460000D02*
X163197000Y-36460000D01*
X165987000Y-65580000D02*
X170602000Y-65580000D01*
X158582000Y-65580000D02*
X163197000Y-65580000D01*
X170602000Y-65580000D02*
X170602000Y-36460000D01*
X158582000Y-65580000D02*
X158582000Y-36460000D01*
G04 #@! TO.C,Cc3*
X145882000Y-65580000D02*
X145882000Y-36460000D01*
X157902000Y-65580000D02*
X157902000Y-36460000D01*
X145882000Y-65580000D02*
X150497000Y-65580000D01*
X153287000Y-65580000D02*
X157902000Y-65580000D01*
X145882000Y-36460000D02*
X150497000Y-36460000D01*
X153287000Y-36460000D02*
X157902000Y-36460000D01*
G04 #@! TO.C,Co1*
X178687000Y-66940000D02*
X183302000Y-66940000D01*
X171282000Y-66940000D02*
X175897000Y-66940000D01*
X178687000Y-96060000D02*
X183302000Y-96060000D01*
X171282000Y-96060000D02*
X175897000Y-96060000D01*
X183302000Y-96060000D02*
X183302000Y-66940000D01*
X171282000Y-96060000D02*
X171282000Y-66940000D01*
G04 #@! TO.C,Cc4*
X133182000Y-65580000D02*
X133182000Y-36460000D01*
X145202000Y-65580000D02*
X145202000Y-36460000D01*
X133182000Y-65580000D02*
X137797000Y-65580000D01*
X140587000Y-65580000D02*
X145202000Y-65580000D01*
X133182000Y-36460000D02*
X137797000Y-36460000D01*
X140587000Y-36460000D02*
X145202000Y-36460000D01*
G04 #@! TO.C,Co3*
X153287000Y-66940000D02*
X157902000Y-66940000D01*
X145882000Y-66940000D02*
X150497000Y-66940000D01*
X153287000Y-96060000D02*
X157902000Y-96060000D01*
X145882000Y-96060000D02*
X150497000Y-96060000D01*
X157902000Y-96060000D02*
X157902000Y-66940000D01*
X145882000Y-96060000D02*
X145882000Y-66940000D01*
D10*
G04 #@! TO.C,F1*
X184531000Y-2540000D02*
X184531000Y-12446000D01*
X159512000Y-12446000D02*
X184531000Y-12446000D01*
X159512000Y-2540000D02*
X184531000Y-2540000D01*
X159512000Y-2540000D02*
X159512000Y-12446000D01*
G04 #@! TO.C,U1*
X85090095Y-22574380D02*
X85090095Y-23383904D01*
X85137714Y-23479142D01*
X85185333Y-23526761D01*
X85280571Y-23574380D01*
X85471047Y-23574380D01*
X85566285Y-23526761D01*
X85613904Y-23479142D01*
X85661523Y-23383904D01*
X85661523Y-22574380D01*
X86661523Y-23574380D02*
X86090095Y-23574380D01*
X86375809Y-23574380D02*
X86375809Y-22574380D01*
X86280571Y-22717238D01*
X86185333Y-22812476D01*
X86090095Y-22860095D01*
X72914000Y-19264380D02*
X73104476Y-19264380D01*
X73199714Y-19312000D01*
X73294952Y-19407238D01*
X73342571Y-19597714D01*
X73342571Y-19931047D01*
X73294952Y-20121523D01*
X73199714Y-20216761D01*
X73104476Y-20264380D01*
X72914000Y-20264380D01*
X72818761Y-20216761D01*
X72723523Y-20121523D01*
X72675904Y-19931047D01*
X72675904Y-19597714D01*
X72723523Y-19407238D01*
X72818761Y-19312000D01*
X72914000Y-19264380D01*
X73771142Y-19264380D02*
X73771142Y-20073904D01*
X73818761Y-20169142D01*
X73866380Y-20216761D01*
X73961619Y-20264380D01*
X74152095Y-20264380D01*
X74247333Y-20216761D01*
X74294952Y-20169142D01*
X74342571Y-20073904D01*
X74342571Y-19264380D01*
X74675904Y-19264380D02*
X75247333Y-19264380D01*
X74961619Y-20264380D02*
X74961619Y-19264380D01*
X73390190Y-13152380D02*
X73390190Y-12152380D01*
X73866380Y-13152380D02*
X73866380Y-12152380D01*
X74437809Y-13152380D01*
X74437809Y-12152380D01*
X81129238Y-13660380D02*
X80795904Y-13184190D01*
X80557809Y-13660380D02*
X80557809Y-12660380D01*
X80938761Y-12660380D01*
X81034000Y-12708000D01*
X81081619Y-12755619D01*
X81129238Y-12850857D01*
X81129238Y-12993714D01*
X81081619Y-13088952D01*
X81034000Y-13136571D01*
X80938761Y-13184190D01*
X80557809Y-13184190D01*
X81938761Y-13612761D02*
X81843523Y-13660380D01*
X81653047Y-13660380D01*
X81557809Y-13612761D01*
X81510190Y-13517523D01*
X81510190Y-13136571D01*
X81557809Y-13041333D01*
X81653047Y-12993714D01*
X81843523Y-12993714D01*
X81938761Y-13041333D01*
X81986380Y-13136571D01*
X81986380Y-13231809D01*
X81510190Y-13327047D01*
X82272095Y-12993714D02*
X82653047Y-12993714D01*
X82414952Y-13660380D02*
X82414952Y-12803238D01*
X82462571Y-12708000D01*
X82557809Y-12660380D01*
X82653047Y-12660380D01*
X81708666Y-15438380D02*
X81708666Y-14438380D01*
X82042000Y-15152666D01*
X82375333Y-14438380D01*
X82375333Y-15438380D01*
X81946761Y-16470380D02*
X82137238Y-16470380D01*
X82232476Y-16518000D01*
X82327714Y-16613238D01*
X82375333Y-16803714D01*
X82375333Y-17137047D01*
X82327714Y-17327523D01*
X82232476Y-17422761D01*
X82137238Y-17470380D01*
X81946761Y-17470380D01*
X81851523Y-17422761D01*
X81756285Y-17327523D01*
X81708666Y-17137047D01*
X81708666Y-16803714D01*
X81756285Y-16613238D01*
X81851523Y-16518000D01*
X81946761Y-16470380D01*
X81661047Y-19121428D02*
X82422952Y-19121428D01*
X82042000Y-19502380D02*
X82042000Y-18740476D01*
G04 #@! TO.C,R101*
X136294952Y-27756380D02*
X135961619Y-27280190D01*
X135723523Y-27756380D02*
X135723523Y-26756380D01*
X136104476Y-26756380D01*
X136199714Y-26804000D01*
X136247333Y-26851619D01*
X136294952Y-26946857D01*
X136294952Y-27089714D01*
X136247333Y-27184952D01*
X136199714Y-27232571D01*
X136104476Y-27280190D01*
X135723523Y-27280190D01*
X137247333Y-27756380D02*
X136675904Y-27756380D01*
X136961619Y-27756380D02*
X136961619Y-26756380D01*
X136866380Y-26899238D01*
X136771142Y-26994476D01*
X136675904Y-27042095D01*
X137866380Y-26756380D02*
X137961619Y-26756380D01*
X138056857Y-26804000D01*
X138104476Y-26851619D01*
X138152095Y-26946857D01*
X138199714Y-27137333D01*
X138199714Y-27375428D01*
X138152095Y-27565904D01*
X138104476Y-27661142D01*
X138056857Y-27708761D01*
X137961619Y-27756380D01*
X137866380Y-27756380D01*
X137771142Y-27708761D01*
X137723523Y-27661142D01*
X137675904Y-27565904D01*
X137628285Y-27375428D01*
X137628285Y-27137333D01*
X137675904Y-26946857D01*
X137723523Y-26851619D01*
X137771142Y-26804000D01*
X137866380Y-26756380D01*
X139152095Y-27756380D02*
X138580666Y-27756380D01*
X138866380Y-27756380D02*
X138866380Y-26756380D01*
X138771142Y-26899238D01*
X138675904Y-26994476D01*
X138580666Y-27042095D01*
G04 #@! TO.C,U2*
X76406380Y-91185904D02*
X77215904Y-91185904D01*
X77311142Y-91138285D01*
X77358761Y-91090666D01*
X77406380Y-90995428D01*
X77406380Y-90804952D01*
X77358761Y-90709714D01*
X77311142Y-90662095D01*
X77215904Y-90614476D01*
X76406380Y-90614476D01*
X76501619Y-90185904D02*
X76454000Y-90138285D01*
X76406380Y-90043047D01*
X76406380Y-89804952D01*
X76454000Y-89709714D01*
X76501619Y-89662095D01*
X76596857Y-89614476D01*
X76692095Y-89614476D01*
X76834952Y-89662095D01*
X77406380Y-90233523D01*
X77406380Y-89614476D01*
G04 #@! TO.C,L1*
X110188380Y-25058666D02*
X110188380Y-25534857D01*
X109188380Y-25534857D01*
X110188380Y-24201523D02*
X110188380Y-24772952D01*
X110188380Y-24487238D02*
X109188380Y-24487238D01*
X109331238Y-24582476D01*
X109426476Y-24677714D01*
X109474095Y-24772952D01*
G04 #@! TO.C,U5*
X460380Y-106425904D02*
X1269904Y-106425904D01*
X1365142Y-106378285D01*
X1412761Y-106330666D01*
X1460380Y-106235428D01*
X1460380Y-106044952D01*
X1412761Y-105949714D01*
X1365142Y-105902095D01*
X1269904Y-105854476D01*
X460380Y-105854476D01*
X460380Y-104902095D02*
X460380Y-105378285D01*
X936571Y-105425904D01*
X888952Y-105378285D01*
X841333Y-105283047D01*
X841333Y-105044952D01*
X888952Y-104949714D01*
X936571Y-104902095D01*
X1031809Y-104854476D01*
X1269904Y-104854476D01*
X1365142Y-104902095D01*
X1412761Y-104949714D01*
X1460380Y-105044952D01*
X1460380Y-105283047D01*
X1412761Y-105378285D01*
X1365142Y-105425904D01*
X45124666Y-16843047D02*
X45124666Y-16366857D01*
X45410380Y-16938285D02*
X44410380Y-16604952D01*
X45410380Y-16271619D01*
X45410380Y-15938285D02*
X44410380Y-15938285D01*
X45410380Y-15366857D01*
X44410380Y-15366857D01*
X45124666Y-14938285D02*
X45124666Y-14462095D01*
X45410380Y-15033523D02*
X44410380Y-14700190D01*
X45410380Y-14366857D01*
X45410380Y-13557333D02*
X45410380Y-14033523D01*
X44410380Y-14033523D01*
X44410380Y-13033523D02*
X44410380Y-12843047D01*
X44458000Y-12747809D01*
X44553238Y-12652571D01*
X44743714Y-12604952D01*
X45077047Y-12604952D01*
X45267523Y-12652571D01*
X45362761Y-12747809D01*
X45410380Y-12843047D01*
X45410380Y-13033523D01*
X45362761Y-13128761D01*
X45267523Y-13224000D01*
X45077047Y-13271619D01*
X44743714Y-13271619D01*
X44553238Y-13224000D01*
X44458000Y-13128761D01*
X44410380Y-13033523D01*
X44458000Y-11652571D02*
X44410380Y-11747809D01*
X44410380Y-11890666D01*
X44458000Y-12033523D01*
X44553238Y-12128761D01*
X44648476Y-12176380D01*
X44838952Y-12224000D01*
X44981809Y-12224000D01*
X45172285Y-12176380D01*
X45267523Y-12128761D01*
X45362761Y-12033523D01*
X45410380Y-11890666D01*
X45410380Y-11795428D01*
X45362761Y-11652571D01*
X45315142Y-11604952D01*
X44981809Y-11604952D01*
X44981809Y-11795428D01*
X44410380Y-34869238D02*
X45219904Y-34869238D01*
X45315142Y-34821619D01*
X45362761Y-34774000D01*
X45410380Y-34678761D01*
X45410380Y-34488285D01*
X45362761Y-34393047D01*
X45315142Y-34345428D01*
X45219904Y-34297809D01*
X44410380Y-34297809D01*
X45124666Y-33869238D02*
X45124666Y-33393047D01*
X45410380Y-33964476D02*
X44410380Y-33631142D01*
X45410380Y-33297809D01*
X45410380Y-32393047D02*
X44934190Y-32726380D01*
X45410380Y-32964476D02*
X44410380Y-32964476D01*
X44410380Y-32583523D01*
X44458000Y-32488285D01*
X44505619Y-32440666D01*
X44600857Y-32393047D01*
X44743714Y-32393047D01*
X44838952Y-32440666D01*
X44886571Y-32488285D01*
X44934190Y-32583523D01*
X44934190Y-32964476D01*
X44410380Y-32107333D02*
X44410380Y-31535904D01*
X45410380Y-31821619D02*
X44410380Y-31821619D01*
X-39620Y-107259238D02*
X769904Y-107259238D01*
X865142Y-107211619D01*
X912761Y-107164000D01*
X960380Y-107068761D01*
X960380Y-106878285D01*
X912761Y-106783047D01*
X865142Y-106735428D01*
X769904Y-106687809D01*
X-39620Y-106687809D01*
X674666Y-106259238D02*
X674666Y-105783047D01*
X960380Y-106354476D02*
X-39620Y-106021142D01*
X960380Y-105687809D01*
X960380Y-104783047D02*
X484190Y-105116380D01*
X960380Y-105354476D02*
X-39620Y-105354476D01*
X-39620Y-104973523D01*
X8000Y-104878285D01*
X55619Y-104830666D01*
X150857Y-104783047D01*
X293714Y-104783047D01*
X388952Y-104830666D01*
X436571Y-104878285D01*
X484190Y-104973523D01*
X484190Y-105354476D01*
X-39620Y-104497333D02*
X-39620Y-103925904D01*
X960380Y-104211619D02*
X-39620Y-104211619D01*
X45410380Y-41870190D02*
X44410380Y-41870190D01*
X44505619Y-41441619D02*
X44458000Y-41394000D01*
X44410380Y-41298761D01*
X44410380Y-41060666D01*
X44458000Y-40965428D01*
X44505619Y-40917809D01*
X44600857Y-40870190D01*
X44696095Y-40870190D01*
X44838952Y-40917809D01*
X45410380Y-41489238D01*
X45410380Y-40870190D01*
X45315142Y-39870190D02*
X45362761Y-39917809D01*
X45410380Y-40060666D01*
X45410380Y-40155904D01*
X45362761Y-40298761D01*
X45267523Y-40394000D01*
X45172285Y-40441619D01*
X44981809Y-40489238D01*
X44838952Y-40489238D01*
X44648476Y-40441619D01*
X44553238Y-40394000D01*
X44458000Y-40298761D01*
X44410380Y-40155904D01*
X44410380Y-40060666D01*
X44458000Y-39917809D01*
X44505619Y-39870190D01*
X45362761Y-50807809D02*
X45410380Y-50664952D01*
X45410380Y-50426857D01*
X45362761Y-50331619D01*
X45315142Y-50284000D01*
X45219904Y-50236380D01*
X45124666Y-50236380D01*
X45029428Y-50284000D01*
X44981809Y-50331619D01*
X44934190Y-50426857D01*
X44886571Y-50617333D01*
X44838952Y-50712571D01*
X44791333Y-50760190D01*
X44696095Y-50807809D01*
X44600857Y-50807809D01*
X44505619Y-50760190D01*
X44458000Y-50712571D01*
X44410380Y-50617333D01*
X44410380Y-50379238D01*
X44458000Y-50236380D01*
X45410380Y-49807809D02*
X44410380Y-49807809D01*
X44410380Y-49426857D01*
X44458000Y-49331619D01*
X44505619Y-49284000D01*
X44600857Y-49236380D01*
X44743714Y-49236380D01*
X44838952Y-49284000D01*
X44886571Y-49331619D01*
X44934190Y-49426857D01*
X44934190Y-49807809D01*
X45410380Y-48807809D02*
X44410380Y-48807809D01*
X912761Y-106687809D02*
X960380Y-106544952D01*
X960380Y-106306857D01*
X912761Y-106211619D01*
X865142Y-106164000D01*
X769904Y-106116380D01*
X674666Y-106116380D01*
X579428Y-106164000D01*
X531809Y-106211619D01*
X484190Y-106306857D01*
X436571Y-106497333D01*
X388952Y-106592571D01*
X341333Y-106640190D01*
X246095Y-106687809D01*
X150857Y-106687809D01*
X55619Y-106640190D01*
X8000Y-106592571D01*
X-39620Y-106497333D01*
X-39620Y-106259238D01*
X8000Y-106116380D01*
X960380Y-105687809D02*
X-39620Y-105687809D01*
X-39620Y-105306857D01*
X8000Y-105211619D01*
X55619Y-105164000D01*
X150857Y-105116380D01*
X293714Y-105116380D01*
X388952Y-105164000D01*
X436571Y-105211619D01*
X484190Y-105306857D01*
X484190Y-105687809D01*
X960380Y-104687809D02*
X-39620Y-104687809D01*
X45410380Y-70016380D02*
X44410380Y-70016380D01*
X44410380Y-69778285D01*
X44458000Y-69635428D01*
X44553238Y-69540190D01*
X44648476Y-69492571D01*
X44838952Y-69444952D01*
X44981809Y-69444952D01*
X45172285Y-69492571D01*
X45267523Y-69540190D01*
X45362761Y-69635428D01*
X45410380Y-69778285D01*
X45410380Y-70016380D01*
X45410380Y-69016380D02*
X44410380Y-69016380D01*
X44458000Y-68016380D02*
X44410380Y-68111619D01*
X44410380Y-68254476D01*
X44458000Y-68397333D01*
X44553238Y-68492571D01*
X44648476Y-68540190D01*
X44838952Y-68587809D01*
X44981809Y-68587809D01*
X45172285Y-68540190D01*
X45267523Y-68492571D01*
X45362761Y-68397333D01*
X45410380Y-68254476D01*
X45410380Y-68159238D01*
X45362761Y-68016380D01*
X45315142Y-67968761D01*
X44981809Y-67968761D01*
X44981809Y-68159238D01*
X45410380Y-67540190D02*
X44410380Y-67540190D01*
X44410380Y-67206857D02*
X44410380Y-66635428D01*
X45410380Y-66921142D02*
X44410380Y-66921142D01*
X45124666Y-66349714D02*
X45124666Y-65873523D01*
X45410380Y-66444952D02*
X44410380Y-66111619D01*
X45410380Y-65778285D01*
X45410380Y-64968761D02*
X45410380Y-65444952D01*
X44410380Y-65444952D01*
X45410380Y-96543523D02*
X44410380Y-96543523D01*
X44410380Y-96162571D01*
X44458000Y-96067333D01*
X44505619Y-96019714D01*
X44600857Y-95972095D01*
X44743714Y-95972095D01*
X44838952Y-96019714D01*
X44886571Y-96067333D01*
X44934190Y-96162571D01*
X44934190Y-96543523D01*
X44410380Y-95353047D02*
X44410380Y-95162571D01*
X44458000Y-95067333D01*
X44553238Y-94972095D01*
X44743714Y-94924476D01*
X45077047Y-94924476D01*
X45267523Y-94972095D01*
X45362761Y-95067333D01*
X45410380Y-95162571D01*
X45410380Y-95353047D01*
X45362761Y-95448285D01*
X45267523Y-95543523D01*
X45077047Y-95591142D01*
X44743714Y-95591142D01*
X44553238Y-95543523D01*
X44458000Y-95448285D01*
X44410380Y-95353047D01*
X44410380Y-94591142D02*
X45410380Y-94353047D01*
X44696095Y-94162571D01*
X45410380Y-93972095D01*
X44410380Y-93734000D01*
X44886571Y-93353047D02*
X44886571Y-93019714D01*
X45410380Y-92876857D02*
X45410380Y-93353047D01*
X44410380Y-93353047D01*
X44410380Y-92876857D01*
X45410380Y-91876857D02*
X44934190Y-92210190D01*
X45410380Y-92448285D02*
X44410380Y-92448285D01*
X44410380Y-92067333D01*
X44458000Y-91972095D01*
X44505619Y-91924476D01*
X44600857Y-91876857D01*
X44743714Y-91876857D01*
X44838952Y-91924476D01*
X44886571Y-91972095D01*
X44934190Y-92067333D01*
X44934190Y-92448285D01*
G04 #@! TO.C,Cs4*
X117633142Y-71691428D02*
X117680761Y-71739047D01*
X117728380Y-71881904D01*
X117728380Y-71977142D01*
X117680761Y-72120000D01*
X117585523Y-72215238D01*
X117490285Y-72262857D01*
X117299809Y-72310476D01*
X117156952Y-72310476D01*
X116966476Y-72262857D01*
X116871238Y-72215238D01*
X116776000Y-72120000D01*
X116728380Y-71977142D01*
X116728380Y-71881904D01*
X116776000Y-71739047D01*
X116823619Y-71691428D01*
X117680761Y-71310476D02*
X117728380Y-71215238D01*
X117728380Y-71024761D01*
X117680761Y-70929523D01*
X117585523Y-70881904D01*
X117537904Y-70881904D01*
X117442666Y-70929523D01*
X117395047Y-71024761D01*
X117395047Y-71167619D01*
X117347428Y-71262857D01*
X117252190Y-71310476D01*
X117204571Y-71310476D01*
X117109333Y-71262857D01*
X117061714Y-71167619D01*
X117061714Y-71024761D01*
X117109333Y-70929523D01*
X117061714Y-70024761D02*
X117728380Y-70024761D01*
X116680761Y-70262857D02*
X117395047Y-70500952D01*
X117395047Y-69881904D01*
G04 #@! TO.C,Cs3*
X114983142Y-58737428D02*
X115030761Y-58785047D01*
X115078380Y-58927904D01*
X115078380Y-59023142D01*
X115030761Y-59166000D01*
X114935523Y-59261238D01*
X114840285Y-59308857D01*
X114649809Y-59356476D01*
X114506952Y-59356476D01*
X114316476Y-59308857D01*
X114221238Y-59261238D01*
X114126000Y-59166000D01*
X114078380Y-59023142D01*
X114078380Y-58927904D01*
X114126000Y-58785047D01*
X114173619Y-58737428D01*
X115030761Y-58356476D02*
X115078380Y-58261238D01*
X115078380Y-58070761D01*
X115030761Y-57975523D01*
X114935523Y-57927904D01*
X114887904Y-57927904D01*
X114792666Y-57975523D01*
X114745047Y-58070761D01*
X114745047Y-58213619D01*
X114697428Y-58308857D01*
X114602190Y-58356476D01*
X114554571Y-58356476D01*
X114459333Y-58308857D01*
X114411714Y-58213619D01*
X114411714Y-58070761D01*
X114459333Y-57975523D01*
X114078380Y-57594571D02*
X114078380Y-56975523D01*
X114459333Y-57308857D01*
X114459333Y-57166000D01*
X114506952Y-57070761D01*
X114554571Y-57023142D01*
X114649809Y-56975523D01*
X114887904Y-56975523D01*
X114983142Y-57023142D01*
X115030761Y-57070761D01*
X115078380Y-57166000D01*
X115078380Y-57451714D01*
X115030761Y-57546952D01*
X114983142Y-57594571D01*
G04 #@! TO.C,Cs2*
X121189142Y-45021428D02*
X121236761Y-45069047D01*
X121284380Y-45211904D01*
X121284380Y-45307142D01*
X121236761Y-45450000D01*
X121141523Y-45545238D01*
X121046285Y-45592857D01*
X120855809Y-45640476D01*
X120712952Y-45640476D01*
X120522476Y-45592857D01*
X120427238Y-45545238D01*
X120332000Y-45450000D01*
X120284380Y-45307142D01*
X120284380Y-45211904D01*
X120332000Y-45069047D01*
X120379619Y-45021428D01*
X121236761Y-44640476D02*
X121284380Y-44545238D01*
X121284380Y-44354761D01*
X121236761Y-44259523D01*
X121141523Y-44211904D01*
X121093904Y-44211904D01*
X120998666Y-44259523D01*
X120951047Y-44354761D01*
X120951047Y-44497619D01*
X120903428Y-44592857D01*
X120808190Y-44640476D01*
X120760571Y-44640476D01*
X120665333Y-44592857D01*
X120617714Y-44497619D01*
X120617714Y-44354761D01*
X120665333Y-44259523D01*
X120379619Y-43830952D02*
X120332000Y-43783333D01*
X120284380Y-43688095D01*
X120284380Y-43450000D01*
X120332000Y-43354761D01*
X120379619Y-43307142D01*
X120474857Y-43259523D01*
X120570095Y-43259523D01*
X120712952Y-43307142D01*
X121284380Y-43878571D01*
X121284380Y-43259523D01*
G04 #@! TO.C,Cs1*
X122095142Y-31305428D02*
X122142761Y-31353047D01*
X122190380Y-31495904D01*
X122190380Y-31591142D01*
X122142761Y-31734000D01*
X122047523Y-31829238D01*
X121952285Y-31876857D01*
X121761809Y-31924476D01*
X121618952Y-31924476D01*
X121428476Y-31876857D01*
X121333238Y-31829238D01*
X121238000Y-31734000D01*
X121190380Y-31591142D01*
X121190380Y-31495904D01*
X121238000Y-31353047D01*
X121285619Y-31305428D01*
X122142761Y-30924476D02*
X122190380Y-30829238D01*
X122190380Y-30638761D01*
X122142761Y-30543523D01*
X122047523Y-30495904D01*
X121999904Y-30495904D01*
X121904666Y-30543523D01*
X121857047Y-30638761D01*
X121857047Y-30781619D01*
X121809428Y-30876857D01*
X121714190Y-30924476D01*
X121666571Y-30924476D01*
X121571333Y-30876857D01*
X121523714Y-30781619D01*
X121523714Y-30638761D01*
X121571333Y-30543523D01*
X122190380Y-29543523D02*
X122190380Y-30114952D01*
X122190380Y-29829238D02*
X121190380Y-29829238D01*
X121333238Y-29924476D01*
X121428476Y-30019714D01*
X121476095Y-30114952D01*
G04 #@! TO.C,U3*
X72344380Y-77469904D02*
X73153904Y-77469904D01*
X73249142Y-77422285D01*
X73296761Y-77374666D01*
X73344380Y-77279428D01*
X73344380Y-77088952D01*
X73296761Y-76993714D01*
X73249142Y-76946095D01*
X73153904Y-76898476D01*
X72344380Y-76898476D01*
X72344380Y-76517523D02*
X72344380Y-75898476D01*
X72725333Y-76231809D01*
X72725333Y-76088952D01*
X72772952Y-75993714D01*
X72820571Y-75946095D01*
X72915809Y-75898476D01*
X73153904Y-75898476D01*
X73249142Y-75946095D01*
X73296761Y-75993714D01*
X73344380Y-76088952D01*
X73344380Y-76374666D01*
X73296761Y-76469904D01*
X73249142Y-76517523D01*
G04 #@! TO.C,Ci2*
X176447142Y-27208761D02*
X176494761Y-27256380D01*
X176542380Y-27399238D01*
X176542380Y-27494476D01*
X176494761Y-27637333D01*
X176399523Y-27732571D01*
X176304285Y-27780190D01*
X176113809Y-27827809D01*
X175970952Y-27827809D01*
X175780476Y-27780190D01*
X175685238Y-27732571D01*
X175590000Y-27637333D01*
X175542380Y-27494476D01*
X175542380Y-27399238D01*
X175590000Y-27256380D01*
X175637619Y-27208761D01*
X176542380Y-26780190D02*
X175875714Y-26780190D01*
X175542380Y-26780190D02*
X175590000Y-26827809D01*
X175637619Y-26780190D01*
X175590000Y-26732571D01*
X175542380Y-26780190D01*
X175637619Y-26780190D01*
X175637619Y-26351619D02*
X175590000Y-26304000D01*
X175542380Y-26208761D01*
X175542380Y-25970666D01*
X175590000Y-25875428D01*
X175637619Y-25827809D01*
X175732857Y-25780190D01*
X175828095Y-25780190D01*
X175970952Y-25827809D01*
X176542380Y-26399238D01*
X176542380Y-25780190D01*
G04 #@! TO.C,Ci1*
X186607142Y-27208761D02*
X186654761Y-27256380D01*
X186702380Y-27399238D01*
X186702380Y-27494476D01*
X186654761Y-27637333D01*
X186559523Y-27732571D01*
X186464285Y-27780190D01*
X186273809Y-27827809D01*
X186130952Y-27827809D01*
X185940476Y-27780190D01*
X185845238Y-27732571D01*
X185750000Y-27637333D01*
X185702380Y-27494476D01*
X185702380Y-27399238D01*
X185750000Y-27256380D01*
X185797619Y-27208761D01*
X186702380Y-26780190D02*
X186035714Y-26780190D01*
X185702380Y-26780190D02*
X185750000Y-26827809D01*
X185797619Y-26780190D01*
X185750000Y-26732571D01*
X185702380Y-26780190D01*
X185797619Y-26780190D01*
X186702380Y-25780190D02*
X186702380Y-26351619D01*
X186702380Y-26065904D02*
X185702380Y-26065904D01*
X185845238Y-26161142D01*
X185940476Y-26256380D01*
X185988095Y-26351619D01*
G04 #@! TO.C,Ci3*
X166287142Y-27208761D02*
X166334761Y-27256380D01*
X166382380Y-27399238D01*
X166382380Y-27494476D01*
X166334761Y-27637333D01*
X166239523Y-27732571D01*
X166144285Y-27780190D01*
X165953809Y-27827809D01*
X165810952Y-27827809D01*
X165620476Y-27780190D01*
X165525238Y-27732571D01*
X165430000Y-27637333D01*
X165382380Y-27494476D01*
X165382380Y-27399238D01*
X165430000Y-27256380D01*
X165477619Y-27208761D01*
X166382380Y-26780190D02*
X165715714Y-26780190D01*
X165382380Y-26780190D02*
X165430000Y-26827809D01*
X165477619Y-26780190D01*
X165430000Y-26732571D01*
X165382380Y-26780190D01*
X165477619Y-26780190D01*
X165382380Y-26399238D02*
X165382380Y-25780190D01*
X165763333Y-26113523D01*
X165763333Y-25970666D01*
X165810952Y-25875428D01*
X165858571Y-25827809D01*
X165953809Y-25780190D01*
X166191904Y-25780190D01*
X166287142Y-25827809D01*
X166334761Y-25875428D01*
X166382380Y-25970666D01*
X166382380Y-26256380D01*
X166334761Y-26351619D01*
X166287142Y-26399238D01*
G04 #@! TO.C,Ds2*
X120523142Y-56368380D02*
X120523142Y-55368380D01*
X120761238Y-55368380D01*
X120904095Y-55416000D01*
X120999333Y-55511238D01*
X121046952Y-55606476D01*
X121094571Y-55796952D01*
X121094571Y-55939809D01*
X121046952Y-56130285D01*
X120999333Y-56225523D01*
X120904095Y-56320761D01*
X120761238Y-56368380D01*
X120523142Y-56368380D01*
X121475523Y-56320761D02*
X121570761Y-56368380D01*
X121761238Y-56368380D01*
X121856476Y-56320761D01*
X121904095Y-56225523D01*
X121904095Y-56177904D01*
X121856476Y-56082666D01*
X121761238Y-56035047D01*
X121618380Y-56035047D01*
X121523142Y-55987428D01*
X121475523Y-55892190D01*
X121475523Y-55844571D01*
X121523142Y-55749333D01*
X121618380Y-55701714D01*
X121761238Y-55701714D01*
X121856476Y-55749333D01*
X122285047Y-55463619D02*
X122332666Y-55416000D01*
X122427904Y-55368380D01*
X122666000Y-55368380D01*
X122761238Y-55416000D01*
X122808857Y-55463619D01*
X122856476Y-55558857D01*
X122856476Y-55654095D01*
X122808857Y-55796952D01*
X122237428Y-56368380D01*
X122856476Y-56368380D01*
G04 #@! TO.C,Ds1*
X125202380Y-47878857D02*
X124202380Y-47878857D01*
X124202380Y-47640761D01*
X124250000Y-47497904D01*
X124345238Y-47402666D01*
X124440476Y-47355047D01*
X124630952Y-47307428D01*
X124773809Y-47307428D01*
X124964285Y-47355047D01*
X125059523Y-47402666D01*
X125154761Y-47497904D01*
X125202380Y-47640761D01*
X125202380Y-47878857D01*
X125154761Y-46926476D02*
X125202380Y-46831238D01*
X125202380Y-46640761D01*
X125154761Y-46545523D01*
X125059523Y-46497904D01*
X125011904Y-46497904D01*
X124916666Y-46545523D01*
X124869047Y-46640761D01*
X124869047Y-46783619D01*
X124821428Y-46878857D01*
X124726190Y-46926476D01*
X124678571Y-46926476D01*
X124583333Y-46878857D01*
X124535714Y-46783619D01*
X124535714Y-46640761D01*
X124583333Y-46545523D01*
X125202380Y-45545523D02*
X125202380Y-46116952D01*
X125202380Y-45831238D02*
X124202380Y-45831238D01*
X124345238Y-45926476D01*
X124440476Y-46021714D01*
X124488095Y-46116952D01*
G04 #@! TO.C,L2*
X51380380Y-21756666D02*
X51380380Y-22232857D01*
X50380380Y-22232857D01*
X50475619Y-21470952D02*
X50428000Y-21423333D01*
X50380380Y-21328095D01*
X50380380Y-21090000D01*
X50428000Y-20994761D01*
X50475619Y-20947142D01*
X50570857Y-20899523D01*
X50666095Y-20899523D01*
X50808952Y-20947142D01*
X51380380Y-21518571D01*
X51380380Y-20899523D01*
G04 #@! TO.C,Rs4*
X124904571Y-69430380D02*
X124571238Y-68954190D01*
X124333142Y-69430380D02*
X124333142Y-68430380D01*
X124714095Y-68430380D01*
X124809333Y-68478000D01*
X124856952Y-68525619D01*
X124904571Y-68620857D01*
X124904571Y-68763714D01*
X124856952Y-68858952D01*
X124809333Y-68906571D01*
X124714095Y-68954190D01*
X124333142Y-68954190D01*
X125285523Y-69382761D02*
X125380761Y-69430380D01*
X125571238Y-69430380D01*
X125666476Y-69382761D01*
X125714095Y-69287523D01*
X125714095Y-69239904D01*
X125666476Y-69144666D01*
X125571238Y-69097047D01*
X125428380Y-69097047D01*
X125333142Y-69049428D01*
X125285523Y-68954190D01*
X125285523Y-68906571D01*
X125333142Y-68811333D01*
X125428380Y-68763714D01*
X125571238Y-68763714D01*
X125666476Y-68811333D01*
X126571238Y-68763714D02*
X126571238Y-69430380D01*
X126333142Y-68382761D02*
X126095047Y-69097047D01*
X126714095Y-69097047D01*
G04 #@! TO.C,Rs3*
X114744571Y-42252380D02*
X114411238Y-41776190D01*
X114173142Y-42252380D02*
X114173142Y-41252380D01*
X114554095Y-41252380D01*
X114649333Y-41300000D01*
X114696952Y-41347619D01*
X114744571Y-41442857D01*
X114744571Y-41585714D01*
X114696952Y-41680952D01*
X114649333Y-41728571D01*
X114554095Y-41776190D01*
X114173142Y-41776190D01*
X115125523Y-42204761D02*
X115220761Y-42252380D01*
X115411238Y-42252380D01*
X115506476Y-42204761D01*
X115554095Y-42109523D01*
X115554095Y-42061904D01*
X115506476Y-41966666D01*
X115411238Y-41919047D01*
X115268380Y-41919047D01*
X115173142Y-41871428D01*
X115125523Y-41776190D01*
X115125523Y-41728571D01*
X115173142Y-41633333D01*
X115268380Y-41585714D01*
X115411238Y-41585714D01*
X115506476Y-41633333D01*
X115887428Y-41252380D02*
X116506476Y-41252380D01*
X116173142Y-41633333D01*
X116316000Y-41633333D01*
X116411238Y-41680952D01*
X116458857Y-41728571D01*
X116506476Y-41823809D01*
X116506476Y-42061904D01*
X116458857Y-42157142D01*
X116411238Y-42204761D01*
X116316000Y-42252380D01*
X116030285Y-42252380D01*
X115935047Y-42204761D01*
X115887428Y-42157142D01*
G04 #@! TO.C,Rs2*
X118554571Y-54410380D02*
X118221238Y-53934190D01*
X117983142Y-54410380D02*
X117983142Y-53410380D01*
X118364095Y-53410380D01*
X118459333Y-53458000D01*
X118506952Y-53505619D01*
X118554571Y-53600857D01*
X118554571Y-53743714D01*
X118506952Y-53838952D01*
X118459333Y-53886571D01*
X118364095Y-53934190D01*
X117983142Y-53934190D01*
X118935523Y-54362761D02*
X119030761Y-54410380D01*
X119221238Y-54410380D01*
X119316476Y-54362761D01*
X119364095Y-54267523D01*
X119364095Y-54219904D01*
X119316476Y-54124666D01*
X119221238Y-54077047D01*
X119078380Y-54077047D01*
X118983142Y-54029428D01*
X118935523Y-53934190D01*
X118935523Y-53886571D01*
X118983142Y-53791333D01*
X119078380Y-53743714D01*
X119221238Y-53743714D01*
X119316476Y-53791333D01*
X119745047Y-53505619D02*
X119792666Y-53458000D01*
X119887904Y-53410380D01*
X120126000Y-53410380D01*
X120221238Y-53458000D01*
X120268857Y-53505619D01*
X120316476Y-53600857D01*
X120316476Y-53696095D01*
X120268857Y-53838952D01*
X119697428Y-54410380D01*
X120316476Y-54410380D01*
G04 #@! TO.C,Rs1*
X124650571Y-25996380D02*
X124317238Y-25520190D01*
X124079142Y-25996380D02*
X124079142Y-24996380D01*
X124460095Y-24996380D01*
X124555333Y-25044000D01*
X124602952Y-25091619D01*
X124650571Y-25186857D01*
X124650571Y-25329714D01*
X124602952Y-25424952D01*
X124555333Y-25472571D01*
X124460095Y-25520190D01*
X124079142Y-25520190D01*
X125031523Y-25948761D02*
X125126761Y-25996380D01*
X125317238Y-25996380D01*
X125412476Y-25948761D01*
X125460095Y-25853523D01*
X125460095Y-25805904D01*
X125412476Y-25710666D01*
X125317238Y-25663047D01*
X125174380Y-25663047D01*
X125079142Y-25615428D01*
X125031523Y-25520190D01*
X125031523Y-25472571D01*
X125079142Y-25377333D01*
X125174380Y-25329714D01*
X125317238Y-25329714D01*
X125412476Y-25377333D01*
X126412476Y-25996380D02*
X125841047Y-25996380D01*
X126126761Y-25996380D02*
X126126761Y-24996380D01*
X126031523Y-25139238D01*
X125936285Y-25234476D01*
X125841047Y-25282095D01*
G04 #@! TO.C,C6*
X54585142Y-26074666D02*
X54632761Y-26122285D01*
X54680380Y-26265142D01*
X54680380Y-26360380D01*
X54632761Y-26503238D01*
X54537523Y-26598476D01*
X54442285Y-26646095D01*
X54251809Y-26693714D01*
X54108952Y-26693714D01*
X53918476Y-26646095D01*
X53823238Y-26598476D01*
X53728000Y-26503238D01*
X53680380Y-26360380D01*
X53680380Y-26265142D01*
X53728000Y-26122285D01*
X53775619Y-26074666D01*
X53680380Y-25217523D02*
X53680380Y-25408000D01*
X53728000Y-25503238D01*
X53775619Y-25550857D01*
X53918476Y-25646095D01*
X54108952Y-25693714D01*
X54489904Y-25693714D01*
X54585142Y-25646095D01*
X54632761Y-25598476D01*
X54680380Y-25503238D01*
X54680380Y-25312761D01*
X54632761Y-25217523D01*
X54585142Y-25169904D01*
X54489904Y-25122285D01*
X54251809Y-25122285D01*
X54156571Y-25169904D01*
X54108952Y-25217523D01*
X54061333Y-25312761D01*
X54061333Y-25503238D01*
X54108952Y-25598476D01*
X54156571Y-25646095D01*
X54251809Y-25693714D01*
G04 #@! TO.C,C7*
X51285142Y-17438666D02*
X51332761Y-17486285D01*
X51380380Y-17629142D01*
X51380380Y-17724380D01*
X51332761Y-17867238D01*
X51237523Y-17962476D01*
X51142285Y-18010095D01*
X50951809Y-18057714D01*
X50808952Y-18057714D01*
X50618476Y-18010095D01*
X50523238Y-17962476D01*
X50428000Y-17867238D01*
X50380380Y-17724380D01*
X50380380Y-17629142D01*
X50428000Y-17486285D01*
X50475619Y-17438666D01*
X50380380Y-17105333D02*
X50380380Y-16438666D01*
X51380380Y-16867238D01*
G04 #@! TO.C,Co2*
X157689142Y-82119047D02*
X157736761Y-82166666D01*
X157784380Y-82309523D01*
X157784380Y-82404761D01*
X157736761Y-82547619D01*
X157641523Y-82642857D01*
X157546285Y-82690476D01*
X157355809Y-82738095D01*
X157212952Y-82738095D01*
X157022476Y-82690476D01*
X156927238Y-82642857D01*
X156832000Y-82547619D01*
X156784380Y-82404761D01*
X156784380Y-82309523D01*
X156832000Y-82166666D01*
X156879619Y-82119047D01*
X157784380Y-81547619D02*
X157736761Y-81642857D01*
X157689142Y-81690476D01*
X157593904Y-81738095D01*
X157308190Y-81738095D01*
X157212952Y-81690476D01*
X157165333Y-81642857D01*
X157117714Y-81547619D01*
X157117714Y-81404761D01*
X157165333Y-81309523D01*
X157212952Y-81261904D01*
X157308190Y-81214285D01*
X157593904Y-81214285D01*
X157689142Y-81261904D01*
X157736761Y-81309523D01*
X157784380Y-81404761D01*
X157784380Y-81547619D01*
X156879619Y-80833333D02*
X156832000Y-80785714D01*
X156784380Y-80690476D01*
X156784380Y-80452380D01*
X156832000Y-80357142D01*
X156879619Y-80309523D01*
X156974857Y-80261904D01*
X157070095Y-80261904D01*
X157212952Y-80309523D01*
X157784380Y-80880952D01*
X157784380Y-80261904D01*
G04 #@! TO.C,Cc1*
X170389142Y-51615238D02*
X170436761Y-51662857D01*
X170484380Y-51805714D01*
X170484380Y-51900952D01*
X170436761Y-52043809D01*
X170341523Y-52139047D01*
X170246285Y-52186666D01*
X170055809Y-52234285D01*
X169912952Y-52234285D01*
X169722476Y-52186666D01*
X169627238Y-52139047D01*
X169532000Y-52043809D01*
X169484380Y-51900952D01*
X169484380Y-51805714D01*
X169532000Y-51662857D01*
X169579619Y-51615238D01*
X170436761Y-50758095D02*
X170484380Y-50853333D01*
X170484380Y-51043809D01*
X170436761Y-51139047D01*
X170389142Y-51186666D01*
X170293904Y-51234285D01*
X170008190Y-51234285D01*
X169912952Y-51186666D01*
X169865333Y-51139047D01*
X169817714Y-51043809D01*
X169817714Y-50853333D01*
X169865333Y-50758095D01*
X170484380Y-49805714D02*
X170484380Y-50377142D01*
X170484380Y-50091428D02*
X169484380Y-50091428D01*
X169627238Y-50186666D01*
X169722476Y-50281904D01*
X169770095Y-50377142D01*
G04 #@! TO.C,Cc2*
X157689142Y-51615238D02*
X157736761Y-51662857D01*
X157784380Y-51805714D01*
X157784380Y-51900952D01*
X157736761Y-52043809D01*
X157641523Y-52139047D01*
X157546285Y-52186666D01*
X157355809Y-52234285D01*
X157212952Y-52234285D01*
X157022476Y-52186666D01*
X156927238Y-52139047D01*
X156832000Y-52043809D01*
X156784380Y-51900952D01*
X156784380Y-51805714D01*
X156832000Y-51662857D01*
X156879619Y-51615238D01*
X157736761Y-50758095D02*
X157784380Y-50853333D01*
X157784380Y-51043809D01*
X157736761Y-51139047D01*
X157689142Y-51186666D01*
X157593904Y-51234285D01*
X157308190Y-51234285D01*
X157212952Y-51186666D01*
X157165333Y-51139047D01*
X157117714Y-51043809D01*
X157117714Y-50853333D01*
X157165333Y-50758095D01*
X156879619Y-50377142D02*
X156832000Y-50329523D01*
X156784380Y-50234285D01*
X156784380Y-49996190D01*
X156832000Y-49900952D01*
X156879619Y-49853333D01*
X156974857Y-49805714D01*
X157070095Y-49805714D01*
X157212952Y-49853333D01*
X157784380Y-50424761D01*
X157784380Y-49805714D01*
G04 #@! TO.C,Cc3*
X144989142Y-51615238D02*
X145036761Y-51662857D01*
X145084380Y-51805714D01*
X145084380Y-51900952D01*
X145036761Y-52043809D01*
X144941523Y-52139047D01*
X144846285Y-52186666D01*
X144655809Y-52234285D01*
X144512952Y-52234285D01*
X144322476Y-52186666D01*
X144227238Y-52139047D01*
X144132000Y-52043809D01*
X144084380Y-51900952D01*
X144084380Y-51805714D01*
X144132000Y-51662857D01*
X144179619Y-51615238D01*
X145036761Y-50758095D02*
X145084380Y-50853333D01*
X145084380Y-51043809D01*
X145036761Y-51139047D01*
X144989142Y-51186666D01*
X144893904Y-51234285D01*
X144608190Y-51234285D01*
X144512952Y-51186666D01*
X144465333Y-51139047D01*
X144417714Y-51043809D01*
X144417714Y-50853333D01*
X144465333Y-50758095D01*
X144084380Y-50424761D02*
X144084380Y-49805714D01*
X144465333Y-50139047D01*
X144465333Y-49996190D01*
X144512952Y-49900952D01*
X144560571Y-49853333D01*
X144655809Y-49805714D01*
X144893904Y-49805714D01*
X144989142Y-49853333D01*
X145036761Y-49900952D01*
X145084380Y-49996190D01*
X145084380Y-50281904D01*
X145036761Y-50377142D01*
X144989142Y-50424761D01*
G04 #@! TO.C,Co1*
X170389142Y-82119047D02*
X170436761Y-82166666D01*
X170484380Y-82309523D01*
X170484380Y-82404761D01*
X170436761Y-82547619D01*
X170341523Y-82642857D01*
X170246285Y-82690476D01*
X170055809Y-82738095D01*
X169912952Y-82738095D01*
X169722476Y-82690476D01*
X169627238Y-82642857D01*
X169532000Y-82547619D01*
X169484380Y-82404761D01*
X169484380Y-82309523D01*
X169532000Y-82166666D01*
X169579619Y-82119047D01*
X170484380Y-81547619D02*
X170436761Y-81642857D01*
X170389142Y-81690476D01*
X170293904Y-81738095D01*
X170008190Y-81738095D01*
X169912952Y-81690476D01*
X169865333Y-81642857D01*
X169817714Y-81547619D01*
X169817714Y-81404761D01*
X169865333Y-81309523D01*
X169912952Y-81261904D01*
X170008190Y-81214285D01*
X170293904Y-81214285D01*
X170389142Y-81261904D01*
X170436761Y-81309523D01*
X170484380Y-81404761D01*
X170484380Y-81547619D01*
X170484380Y-80261904D02*
X170484380Y-80833333D01*
X170484380Y-80547619D02*
X169484380Y-80547619D01*
X169627238Y-80642857D01*
X169722476Y-80738095D01*
X169770095Y-80833333D01*
G04 #@! TO.C,Cc4*
X132289142Y-51615238D02*
X132336761Y-51662857D01*
X132384380Y-51805714D01*
X132384380Y-51900952D01*
X132336761Y-52043809D01*
X132241523Y-52139047D01*
X132146285Y-52186666D01*
X131955809Y-52234285D01*
X131812952Y-52234285D01*
X131622476Y-52186666D01*
X131527238Y-52139047D01*
X131432000Y-52043809D01*
X131384380Y-51900952D01*
X131384380Y-51805714D01*
X131432000Y-51662857D01*
X131479619Y-51615238D01*
X132336761Y-50758095D02*
X132384380Y-50853333D01*
X132384380Y-51043809D01*
X132336761Y-51139047D01*
X132289142Y-51186666D01*
X132193904Y-51234285D01*
X131908190Y-51234285D01*
X131812952Y-51186666D01*
X131765333Y-51139047D01*
X131717714Y-51043809D01*
X131717714Y-50853333D01*
X131765333Y-50758095D01*
X131717714Y-49900952D02*
X132384380Y-49900952D01*
X131336761Y-50139047D02*
X132051047Y-50377142D01*
X132051047Y-49758095D01*
G04 #@! TO.C,Co3*
X144989142Y-82119047D02*
X145036761Y-82166666D01*
X145084380Y-82309523D01*
X145084380Y-82404761D01*
X145036761Y-82547619D01*
X144941523Y-82642857D01*
X144846285Y-82690476D01*
X144655809Y-82738095D01*
X144512952Y-82738095D01*
X144322476Y-82690476D01*
X144227238Y-82642857D01*
X144132000Y-82547619D01*
X144084380Y-82404761D01*
X144084380Y-82309523D01*
X144132000Y-82166666D01*
X144179619Y-82119047D01*
X145084380Y-81547619D02*
X145036761Y-81642857D01*
X144989142Y-81690476D01*
X144893904Y-81738095D01*
X144608190Y-81738095D01*
X144512952Y-81690476D01*
X144465333Y-81642857D01*
X144417714Y-81547619D01*
X144417714Y-81404761D01*
X144465333Y-81309523D01*
X144512952Y-81261904D01*
X144608190Y-81214285D01*
X144893904Y-81214285D01*
X144989142Y-81261904D01*
X145036761Y-81309523D01*
X145084380Y-81404761D01*
X145084380Y-81547619D01*
X144084380Y-80880952D02*
X144084380Y-80261904D01*
X144465333Y-80595238D01*
X144465333Y-80452380D01*
X144512952Y-80357142D01*
X144560571Y-80309523D01*
X144655809Y-80261904D01*
X144893904Y-80261904D01*
X144989142Y-80309523D01*
X145036761Y-80357142D01*
X145084380Y-80452380D01*
X145084380Y-80738095D01*
X145036761Y-80833333D01*
X144989142Y-80880952D01*
G04 #@! TO.C,Screw4*
X187711619Y-84498761D02*
X187854476Y-84546380D01*
X188092571Y-84546380D01*
X188187809Y-84498761D01*
X188235428Y-84451142D01*
X188283047Y-84355904D01*
X188283047Y-84260666D01*
X188235428Y-84165428D01*
X188187809Y-84117809D01*
X188092571Y-84070190D01*
X187902095Y-84022571D01*
X187806857Y-83974952D01*
X187759238Y-83927333D01*
X187711619Y-83832095D01*
X187711619Y-83736857D01*
X187759238Y-83641619D01*
X187806857Y-83594000D01*
X187902095Y-83546380D01*
X188140190Y-83546380D01*
X188283047Y-83594000D01*
X189140190Y-84498761D02*
X189044952Y-84546380D01*
X188854476Y-84546380D01*
X188759238Y-84498761D01*
X188711619Y-84451142D01*
X188664000Y-84355904D01*
X188664000Y-84070190D01*
X188711619Y-83974952D01*
X188759238Y-83927333D01*
X188854476Y-83879714D01*
X189044952Y-83879714D01*
X189140190Y-83927333D01*
X189568761Y-84546380D02*
X189568761Y-83879714D01*
X189568761Y-84070190D02*
X189616380Y-83974952D01*
X189664000Y-83927333D01*
X189759238Y-83879714D01*
X189854476Y-83879714D01*
X190568761Y-84498761D02*
X190473523Y-84546380D01*
X190283047Y-84546380D01*
X190187809Y-84498761D01*
X190140190Y-84403523D01*
X190140190Y-84022571D01*
X190187809Y-83927333D01*
X190283047Y-83879714D01*
X190473523Y-83879714D01*
X190568761Y-83927333D01*
X190616380Y-84022571D01*
X190616380Y-84117809D01*
X190140190Y-84213047D01*
X190949714Y-83879714D02*
X191140190Y-84546380D01*
X191330666Y-84070190D01*
X191521142Y-84546380D01*
X191711619Y-83879714D01*
X192521142Y-83879714D02*
X192521142Y-84546380D01*
X192283047Y-83498761D02*
X192044952Y-84213047D01*
X192664000Y-84213047D01*
G04 #@! TO.C,Screw3*
X187711619Y-59498761D02*
X187854476Y-59546380D01*
X188092571Y-59546380D01*
X188187809Y-59498761D01*
X188235428Y-59451142D01*
X188283047Y-59355904D01*
X188283047Y-59260666D01*
X188235428Y-59165428D01*
X188187809Y-59117809D01*
X188092571Y-59070190D01*
X187902095Y-59022571D01*
X187806857Y-58974952D01*
X187759238Y-58927333D01*
X187711619Y-58832095D01*
X187711619Y-58736857D01*
X187759238Y-58641619D01*
X187806857Y-58594000D01*
X187902095Y-58546380D01*
X188140190Y-58546380D01*
X188283047Y-58594000D01*
X189140190Y-59498761D02*
X189044952Y-59546380D01*
X188854476Y-59546380D01*
X188759238Y-59498761D01*
X188711619Y-59451142D01*
X188664000Y-59355904D01*
X188664000Y-59070190D01*
X188711619Y-58974952D01*
X188759238Y-58927333D01*
X188854476Y-58879714D01*
X189044952Y-58879714D01*
X189140190Y-58927333D01*
X189568761Y-59546380D02*
X189568761Y-58879714D01*
X189568761Y-59070190D02*
X189616380Y-58974952D01*
X189664000Y-58927333D01*
X189759238Y-58879714D01*
X189854476Y-58879714D01*
X190568761Y-59498761D02*
X190473523Y-59546380D01*
X190283047Y-59546380D01*
X190187809Y-59498761D01*
X190140190Y-59403523D01*
X190140190Y-59022571D01*
X190187809Y-58927333D01*
X190283047Y-58879714D01*
X190473523Y-58879714D01*
X190568761Y-58927333D01*
X190616380Y-59022571D01*
X190616380Y-59117809D01*
X190140190Y-59213047D01*
X190949714Y-58879714D02*
X191140190Y-59546380D01*
X191330666Y-59070190D01*
X191521142Y-59546380D01*
X191711619Y-58879714D01*
X191997333Y-58546380D02*
X192616380Y-58546380D01*
X192283047Y-58927333D01*
X192425904Y-58927333D01*
X192521142Y-58974952D01*
X192568761Y-59022571D01*
X192616380Y-59117809D01*
X192616380Y-59355904D01*
X192568761Y-59451142D01*
X192521142Y-59498761D01*
X192425904Y-59546380D01*
X192140190Y-59546380D01*
X192044952Y-59498761D01*
X191997333Y-59451142D01*
G04 #@! TO.C,Screw2*
X187711619Y-34498761D02*
X187854476Y-34546380D01*
X188092571Y-34546380D01*
X188187809Y-34498761D01*
X188235428Y-34451142D01*
X188283047Y-34355904D01*
X188283047Y-34260666D01*
X188235428Y-34165428D01*
X188187809Y-34117809D01*
X188092571Y-34070190D01*
X187902095Y-34022571D01*
X187806857Y-33974952D01*
X187759238Y-33927333D01*
X187711619Y-33832095D01*
X187711619Y-33736857D01*
X187759238Y-33641619D01*
X187806857Y-33594000D01*
X187902095Y-33546380D01*
X188140190Y-33546380D01*
X188283047Y-33594000D01*
X189140190Y-34498761D02*
X189044952Y-34546380D01*
X188854476Y-34546380D01*
X188759238Y-34498761D01*
X188711619Y-34451142D01*
X188664000Y-34355904D01*
X188664000Y-34070190D01*
X188711619Y-33974952D01*
X188759238Y-33927333D01*
X188854476Y-33879714D01*
X189044952Y-33879714D01*
X189140190Y-33927333D01*
X189568761Y-34546380D02*
X189568761Y-33879714D01*
X189568761Y-34070190D02*
X189616380Y-33974952D01*
X189664000Y-33927333D01*
X189759238Y-33879714D01*
X189854476Y-33879714D01*
X190568761Y-34498761D02*
X190473523Y-34546380D01*
X190283047Y-34546380D01*
X190187809Y-34498761D01*
X190140190Y-34403523D01*
X190140190Y-34022571D01*
X190187809Y-33927333D01*
X190283047Y-33879714D01*
X190473523Y-33879714D01*
X190568761Y-33927333D01*
X190616380Y-34022571D01*
X190616380Y-34117809D01*
X190140190Y-34213047D01*
X190949714Y-33879714D02*
X191140190Y-34546380D01*
X191330666Y-34070190D01*
X191521142Y-34546380D01*
X191711619Y-33879714D01*
X192044952Y-33641619D02*
X192092571Y-33594000D01*
X192187809Y-33546380D01*
X192425904Y-33546380D01*
X192521142Y-33594000D01*
X192568761Y-33641619D01*
X192616380Y-33736857D01*
X192616380Y-33832095D01*
X192568761Y-33974952D01*
X191997333Y-34546380D01*
X192616380Y-34546380D01*
G04 #@! TO.C,Screw1*
X187711619Y-9498761D02*
X187854476Y-9546380D01*
X188092571Y-9546380D01*
X188187809Y-9498761D01*
X188235428Y-9451142D01*
X188283047Y-9355904D01*
X188283047Y-9260666D01*
X188235428Y-9165428D01*
X188187809Y-9117809D01*
X188092571Y-9070190D01*
X187902095Y-9022571D01*
X187806857Y-8974952D01*
X187759238Y-8927333D01*
X187711619Y-8832095D01*
X187711619Y-8736857D01*
X187759238Y-8641619D01*
X187806857Y-8594000D01*
X187902095Y-8546380D01*
X188140190Y-8546380D01*
X188283047Y-8594000D01*
X189140190Y-9498761D02*
X189044952Y-9546380D01*
X188854476Y-9546380D01*
X188759238Y-9498761D01*
X188711619Y-9451142D01*
X188664000Y-9355904D01*
X188664000Y-9070190D01*
X188711619Y-8974952D01*
X188759238Y-8927333D01*
X188854476Y-8879714D01*
X189044952Y-8879714D01*
X189140190Y-8927333D01*
X189568761Y-9546380D02*
X189568761Y-8879714D01*
X189568761Y-9070190D02*
X189616380Y-8974952D01*
X189664000Y-8927333D01*
X189759238Y-8879714D01*
X189854476Y-8879714D01*
X190568761Y-9498761D02*
X190473523Y-9546380D01*
X190283047Y-9546380D01*
X190187809Y-9498761D01*
X190140190Y-9403523D01*
X190140190Y-9022571D01*
X190187809Y-8927333D01*
X190283047Y-8879714D01*
X190473523Y-8879714D01*
X190568761Y-8927333D01*
X190616380Y-9022571D01*
X190616380Y-9117809D01*
X190140190Y-9213047D01*
X190949714Y-8879714D02*
X191140190Y-9546380D01*
X191330666Y-9070190D01*
X191521142Y-9546380D01*
X191711619Y-8879714D01*
X192616380Y-9546380D02*
X192044952Y-9546380D01*
X192330666Y-9546380D02*
X192330666Y-8546380D01*
X192235428Y-8689238D01*
X192140190Y-8784476D01*
X192044952Y-8832095D01*
G04 #@! TO.C,F1*
X159178666Y-2968571D02*
X158845333Y-2968571D01*
X158845333Y-3492380D02*
X158845333Y-2492380D01*
X159321523Y-2492380D01*
X160226285Y-3492380D02*
X159654857Y-3492380D01*
X159940571Y-3492380D02*
X159940571Y-2492380D01*
X159845333Y-2635238D01*
X159750095Y-2730476D01*
X159654857Y-2778095D01*
G04 #@! TO.C,R102*
X136294952Y-31058380D02*
X135961619Y-30582190D01*
X135723523Y-31058380D02*
X135723523Y-30058380D01*
X136104476Y-30058380D01*
X136199714Y-30106000D01*
X136247333Y-30153619D01*
X136294952Y-30248857D01*
X136294952Y-30391714D01*
X136247333Y-30486952D01*
X136199714Y-30534571D01*
X136104476Y-30582190D01*
X135723523Y-30582190D01*
X137247333Y-31058380D02*
X136675904Y-31058380D01*
X136961619Y-31058380D02*
X136961619Y-30058380D01*
X136866380Y-30201238D01*
X136771142Y-30296476D01*
X136675904Y-30344095D01*
X137866380Y-30058380D02*
X137961619Y-30058380D01*
X138056857Y-30106000D01*
X138104476Y-30153619D01*
X138152095Y-30248857D01*
X138199714Y-30439333D01*
X138199714Y-30677428D01*
X138152095Y-30867904D01*
X138104476Y-30963142D01*
X138056857Y-31010761D01*
X137961619Y-31058380D01*
X137866380Y-31058380D01*
X137771142Y-31010761D01*
X137723523Y-30963142D01*
X137675904Y-30867904D01*
X137628285Y-30677428D01*
X137628285Y-30439333D01*
X137675904Y-30248857D01*
X137723523Y-30153619D01*
X137771142Y-30106000D01*
X137866380Y-30058380D01*
X138580666Y-30153619D02*
X138628285Y-30106000D01*
X138723523Y-30058380D01*
X138961619Y-30058380D01*
X139056857Y-30106000D01*
X139104476Y-30153619D01*
X139152095Y-30248857D01*
X139152095Y-30344095D01*
X139104476Y-30486952D01*
X138533047Y-31058380D01*
X139152095Y-31058380D01*
G04 #@! TO.C,R103*
X136294952Y-85668380D02*
X135961619Y-85192190D01*
X135723523Y-85668380D02*
X135723523Y-84668380D01*
X136104476Y-84668380D01*
X136199714Y-84716000D01*
X136247333Y-84763619D01*
X136294952Y-84858857D01*
X136294952Y-85001714D01*
X136247333Y-85096952D01*
X136199714Y-85144571D01*
X136104476Y-85192190D01*
X135723523Y-85192190D01*
X137247333Y-85668380D02*
X136675904Y-85668380D01*
X136961619Y-85668380D02*
X136961619Y-84668380D01*
X136866380Y-84811238D01*
X136771142Y-84906476D01*
X136675904Y-84954095D01*
X137866380Y-84668380D02*
X137961619Y-84668380D01*
X138056857Y-84716000D01*
X138104476Y-84763619D01*
X138152095Y-84858857D01*
X138199714Y-85049333D01*
X138199714Y-85287428D01*
X138152095Y-85477904D01*
X138104476Y-85573142D01*
X138056857Y-85620761D01*
X137961619Y-85668380D01*
X137866380Y-85668380D01*
X137771142Y-85620761D01*
X137723523Y-85573142D01*
X137675904Y-85477904D01*
X137628285Y-85287428D01*
X137628285Y-85049333D01*
X137675904Y-84858857D01*
X137723523Y-84763619D01*
X137771142Y-84716000D01*
X137866380Y-84668380D01*
X138533047Y-84668380D02*
X139152095Y-84668380D01*
X138818761Y-85049333D01*
X138961619Y-85049333D01*
X139056857Y-85096952D01*
X139104476Y-85144571D01*
X139152095Y-85239809D01*
X139152095Y-85477904D01*
X139104476Y-85573142D01*
X139056857Y-85620761D01*
X138961619Y-85668380D01*
X138675904Y-85668380D01*
X138580666Y-85620761D01*
X138533047Y-85573142D01*
G04 #@! TO.C,R104*
X136343452Y-82366380D02*
X136010119Y-81890190D01*
X135772023Y-82366380D02*
X135772023Y-81366380D01*
X136152976Y-81366380D01*
X136248214Y-81414000D01*
X136295833Y-81461619D01*
X136343452Y-81556857D01*
X136343452Y-81699714D01*
X136295833Y-81794952D01*
X136248214Y-81842571D01*
X136152976Y-81890190D01*
X135772023Y-81890190D01*
X137295833Y-82366380D02*
X136724404Y-82366380D01*
X137010119Y-82366380D02*
X137010119Y-81366380D01*
X136914880Y-81509238D01*
X136819642Y-81604476D01*
X136724404Y-81652095D01*
X137914880Y-81366380D02*
X138010119Y-81366380D01*
X138105357Y-81414000D01*
X138152976Y-81461619D01*
X138200595Y-81556857D01*
X138248214Y-81747333D01*
X138248214Y-81985428D01*
X138200595Y-82175904D01*
X138152976Y-82271142D01*
X138105357Y-82318761D01*
X138010119Y-82366380D01*
X137914880Y-82366380D01*
X137819642Y-82318761D01*
X137772023Y-82271142D01*
X137724404Y-82175904D01*
X137676785Y-81985428D01*
X137676785Y-81747333D01*
X137724404Y-81556857D01*
X137772023Y-81461619D01*
X137819642Y-81414000D01*
X137914880Y-81366380D01*
X139105357Y-81699714D02*
X139105357Y-82366380D01*
X138867261Y-81318761D02*
X138629166Y-82033047D01*
X139248214Y-82033047D01*
G04 #@! TD*
%LPC*%
D12*
G04 #@! TO.C,U1*
X73914000Y-9652000D03*
X71374000Y-9652000D03*
X76454000Y-9652000D03*
D13*
X84074000Y-18948400D03*
X84074000Y-17018000D03*
X84074000Y-15087600D03*
X84074000Y-13157200D03*
D12*
X76454000Y-22352000D03*
X71374000Y-22352000D03*
X73914000Y-22352000D03*
G04 #@! TD*
D14*
G04 #@! TO.C,U4*
X55372000Y-24638000D03*
X55372000Y-69088000D03*
X55372000Y-66548000D03*
X55372000Y-64008000D03*
X55372000Y-61468000D03*
X55372000Y-57658000D03*
X55372000Y-55118000D03*
X55372000Y-52578000D03*
X55372000Y-50038000D03*
X55372000Y-47498000D03*
X55372000Y-43688000D03*
X55372000Y-41148000D03*
X55372000Y-38608000D03*
X55372000Y-36068000D03*
X55372000Y-32258000D03*
X55372000Y-29718000D03*
X55372000Y-27178000D03*
G04 #@! TD*
D15*
G04 #@! TO.C,R101*
X136446500Y-25654000D03*
X138381500Y-25654000D03*
G04 #@! TD*
D16*
G04 #@! TO.C,Q1*
X121528000Y-84630000D03*
D17*
X126978000Y-64770000D03*
D18*
X121528000Y-64770000D03*
X116078000Y-64770000D03*
G04 #@! TD*
G04 #@! TO.C,D1*
X126978000Y-36576000D03*
X121528000Y-36576000D03*
D17*
X116078000Y-36576000D03*
D16*
X121528000Y-16716000D03*
G04 #@! TD*
D19*
G04 #@! TO.C,U2*
X109728000Y-84074000D03*
D20*
X109728000Y-86614000D03*
D19*
X109728000Y-71374000D03*
X109728000Y-81534000D03*
X109728000Y-78994000D03*
X109728000Y-73914000D03*
X109728000Y-76454000D03*
G04 #@! TD*
D21*
G04 #@! TO.C,L1*
X74168000Y-60960000D03*
X74168000Y-31877000D03*
X103251000Y-60960000D03*
X103251000Y-31877000D03*
G04 #@! TD*
D22*
G04 #@! TO.C,U5*
X12319000Y-75056000D03*
X22987000Y-6477000D03*
X37187274Y-31369000D03*
D14*
X42418000Y-5334000D03*
X42418000Y-7874000D03*
X42418000Y-10414000D03*
X42418000Y-12954000D03*
X42418000Y-15494000D03*
X42418000Y-18034000D03*
X42418000Y-20574000D03*
X42418000Y-23114000D03*
X42418000Y-25654000D03*
X42418000Y-30734000D03*
X42418000Y-33274000D03*
X42418000Y-35814000D03*
X42418000Y-38354000D03*
X42418000Y-40894000D03*
X42418000Y-43434000D03*
X42418000Y-45974000D03*
X42418000Y-48514000D03*
X42418000Y-51054000D03*
X42418000Y-53594000D03*
X42418000Y-56134000D03*
X42418000Y-58674000D03*
X42418000Y-61214000D03*
X42418000Y-63754000D03*
X42418000Y-66294000D03*
X42418000Y-68834000D03*
X42418000Y-71374000D03*
X42418000Y-73914000D03*
X42418000Y-76454000D03*
X42418000Y-78994000D03*
X42418000Y-85344000D03*
X42418000Y-87884000D03*
X42418000Y-90424000D03*
X42418000Y-92964000D03*
X42418000Y-95504000D03*
X42418000Y-98044000D03*
X42418000Y-100584000D03*
X42418000Y-103124000D03*
G04 #@! TD*
D23*
G04 #@! TO.C,Cs4*
X119126000Y-69602500D03*
X119126000Y-72637500D03*
G04 #@! TD*
G04 #@! TO.C,Cs3*
X112776000Y-56648500D03*
X112776000Y-59683500D03*
G04 #@! TD*
G04 #@! TO.C,Cs2*
X122682000Y-42932500D03*
X122682000Y-45967500D03*
G04 #@! TD*
G04 #@! TO.C,Cs1*
X119888000Y-29216500D03*
X119888000Y-32251500D03*
G04 #@! TD*
D24*
G04 #@! TO.C,U3*
X93472000Y-74168000D03*
X93472000Y-76708000D03*
D25*
X93472000Y-79248000D03*
D26*
X76812000Y-76708000D03*
G04 #@! TD*
D27*
G04 #@! TO.C,Ci2*
X170180000Y-34304000D03*
X170180000Y-19304000D03*
G04 #@! TD*
G04 #@! TO.C,Ci1*
X180340000Y-34304000D03*
X180340000Y-19304000D03*
G04 #@! TD*
G04 #@! TO.C,Ci3*
X160020000Y-34304000D03*
X160020000Y-19304000D03*
G04 #@! TD*
D28*
G04 #@! TO.C,Ds2*
X125066000Y-58166000D03*
X118266000Y-58166000D03*
G04 #@! TD*
D29*
G04 #@! TO.C,Ds1*
X127000000Y-43336000D03*
X127000000Y-50136000D03*
G04 #@! TD*
D30*
G04 #@! TO.C,L2*
X52578000Y-20622500D03*
X52578000Y-22557500D03*
G04 #@! TD*
D31*
G04 #@! TO.C,Rs4*
X128493500Y-71628000D03*
X122458500Y-71628000D03*
G04 #@! TD*
G04 #@! TO.C,Rs3*
X118333500Y-44450000D03*
X112298500Y-44450000D03*
G04 #@! TD*
G04 #@! TO.C,Rs2*
X116108500Y-51308000D03*
X122143500Y-51308000D03*
G04 #@! TD*
G04 #@! TO.C,Rs1*
X128239500Y-28194000D03*
X122204500Y-28194000D03*
G04 #@! TD*
D30*
G04 #@! TO.C,C6*
X52578000Y-24940500D03*
X52578000Y-26875500D03*
G04 #@! TD*
G04 #@! TO.C,C7*
X52578000Y-16304500D03*
X52578000Y-18239500D03*
G04 #@! TD*
D32*
G04 #@! TO.C,Co2*
X164592000Y-67750000D03*
X164592000Y-95250000D03*
G04 #@! TD*
G04 #@! TO.C,Cc1*
X177292000Y-64770000D03*
X177292000Y-37270000D03*
G04 #@! TD*
G04 #@! TO.C,Cc2*
X164592000Y-37270000D03*
X164592000Y-64770000D03*
G04 #@! TD*
G04 #@! TO.C,Cc3*
X151892000Y-64770000D03*
X151892000Y-37270000D03*
G04 #@! TD*
G04 #@! TO.C,Co1*
X177292000Y-67750000D03*
X177292000Y-95250000D03*
G04 #@! TD*
G04 #@! TO.C,Cc4*
X139192000Y-64770000D03*
X139192000Y-37270000D03*
G04 #@! TD*
G04 #@! TO.C,Co3*
X151892000Y-67750000D03*
X151892000Y-95250000D03*
G04 #@! TD*
D33*
G04 #@! TO.C,Screw4*
X190164000Y-90094000D03*
G04 #@! TD*
G04 #@! TO.C,Screw3*
X190164000Y-65094000D03*
G04 #@! TD*
G04 #@! TO.C,Screw2*
X190164000Y-40094000D03*
G04 #@! TD*
G04 #@! TO.C,Screw1*
X190164000Y-15094000D03*
G04 #@! TD*
D34*
G04 #@! TO.C,F1*
X183235600Y-7493000D03*
X160782000Y-7493000D03*
G04 #@! TD*
D15*
G04 #@! TO.C,R102*
X138381500Y-28956000D03*
X136446500Y-28956000D03*
G04 #@! TD*
G04 #@! TO.C,R103*
X136446500Y-83566000D03*
X138381500Y-83566000D03*
G04 #@! TD*
G04 #@! TO.C,R104*
X138430000Y-80264000D03*
X136495000Y-80264000D03*
G04 #@! TD*
M02*
