G04 #@! TF.GenerationSoftware,KiCad,Pcbnew,(5.0.0-rc2-39-ga12b9db58)*
G04 #@! TF.CreationDate,2018-05-30T14:35:49-03:00*
G04 #@! TF.ProjectId,Mcc18,4D636331382E6B696361645F70636200,rev?*
G04 #@! TF.SameCoordinates,Original*
G04 #@! TF.FileFunction,Other,User*
%FSLAX46Y46*%
G04 Gerber Fmt 4.6, Leading zero omitted, Abs format (unit mm)*
G04 Created by KiCad (PCBNEW (5.0.0-rc2-39-ga12b9db58)) date Wed May 30 14:35:49 2018*
%MOMM*%
%LPD*%
G01*
G04 APERTURE LIST*
%ADD10C,0.050000*%
G04 APERTURE END LIST*
D10*
G04 #@! TO.C,R101*
X185592000Y-64582000D02*
X189312000Y-64582000D01*
X185592000Y-66482000D02*
X185592000Y-64582000D01*
X189312000Y-66482000D02*
X185592000Y-66482000D01*
X189312000Y-64582000D02*
X189312000Y-66482000D01*
G04 #@! TO.C,Cs4*
X170314000Y-108538000D02*
X170314000Y-113458000D01*
X168014000Y-108538000D02*
X170314000Y-108538000D01*
X168014000Y-113458000D02*
X168014000Y-108538000D01*
X170314000Y-113458000D02*
X168014000Y-113458000D01*
G04 #@! TO.C,Cs3*
X161664000Y-95584000D02*
X163964000Y-95584000D01*
X163964000Y-95584000D02*
X163964000Y-100504000D01*
X163964000Y-100504000D02*
X161664000Y-100504000D01*
X161664000Y-100504000D02*
X161664000Y-95584000D01*
G04 #@! TO.C,Cs2*
X173870000Y-81868000D02*
X173870000Y-86788000D01*
X171570000Y-81868000D02*
X173870000Y-81868000D01*
X171570000Y-86788000D02*
X171570000Y-81868000D01*
X173870000Y-86788000D02*
X171570000Y-86788000D01*
G04 #@! TO.C,Cs1*
X168776000Y-68152000D02*
X171076000Y-68152000D01*
X171076000Y-68152000D02*
X171076000Y-73072000D01*
X171076000Y-73072000D02*
X168776000Y-73072000D01*
X168776000Y-73072000D02*
X168776000Y-68152000D01*
G04 #@! TO.C,U3*
X123800000Y-111336000D02*
X123800000Y-121836000D01*
X144760000Y-111336000D02*
X123800000Y-111336000D01*
X144760000Y-121836000D02*
X144760000Y-111336000D01*
X123800000Y-121836000D02*
X144760000Y-121836000D01*
G04 #@! TO.C,Ci2*
X225168000Y-75532000D02*
X225168000Y-57832000D01*
X215268000Y-75532000D02*
X225168000Y-75532000D01*
X215268000Y-57832000D02*
X215268000Y-75532000D01*
X225168000Y-57832000D02*
X215268000Y-57832000D01*
G04 #@! TO.C,Ci1*
X235328000Y-75532000D02*
X235328000Y-57832000D01*
X225428000Y-75532000D02*
X235328000Y-75532000D01*
X225428000Y-57832000D02*
X225428000Y-75532000D01*
X235328000Y-57832000D02*
X225428000Y-57832000D01*
G04 #@! TO.C,Ci3*
X215008000Y-75532000D02*
X215008000Y-57832000D01*
X205108000Y-75532000D02*
X215008000Y-75532000D01*
X205108000Y-57832000D02*
X205108000Y-75532000D01*
X215008000Y-57832000D02*
X205108000Y-57832000D01*
G04 #@! TO.C,Ds2*
X166304000Y-99644000D02*
X166304000Y-96444000D01*
X177104000Y-99644000D02*
X166304000Y-99644000D01*
X177104000Y-96444000D02*
X177104000Y-99644000D01*
X166304000Y-96444000D02*
X177104000Y-96444000D01*
G04 #@! TO.C,Ds1*
X178638000Y-92014000D02*
X175438000Y-92014000D01*
X178638000Y-81214000D02*
X178638000Y-92014000D01*
X175438000Y-81214000D02*
X178638000Y-81214000D01*
X175438000Y-92014000D02*
X175438000Y-81214000D01*
G04 #@! TO.C,L2*
X103566000Y-59608000D02*
X103566000Y-63328000D01*
X101666000Y-59608000D02*
X103566000Y-59608000D01*
X101666000Y-63328000D02*
X101666000Y-59608000D01*
X103566000Y-63328000D02*
X101666000Y-63328000D01*
G04 #@! TO.C,Rs4*
X179524000Y-113456000D02*
X171504000Y-113456000D01*
X179524000Y-109556000D02*
X179524000Y-113456000D01*
X171504000Y-109556000D02*
X179524000Y-109556000D01*
X171504000Y-113456000D02*
X171504000Y-109556000D01*
G04 #@! TO.C,Rs3*
X169364000Y-86278000D02*
X161344000Y-86278000D01*
X169364000Y-82378000D02*
X169364000Y-86278000D01*
X161344000Y-82378000D02*
X169364000Y-82378000D01*
X161344000Y-86278000D02*
X161344000Y-82378000D01*
G04 #@! TO.C,Rs2*
X165154000Y-89236000D02*
X173174000Y-89236000D01*
X165154000Y-93136000D02*
X165154000Y-89236000D01*
X173174000Y-93136000D02*
X165154000Y-93136000D01*
X173174000Y-89236000D02*
X173174000Y-93136000D01*
G04 #@! TO.C,Rs1*
X179270000Y-70022000D02*
X171250000Y-70022000D01*
X179270000Y-66122000D02*
X179270000Y-70022000D01*
X171250000Y-66122000D02*
X179270000Y-66122000D01*
X171250000Y-70022000D02*
X171250000Y-66122000D01*
G04 #@! TO.C,C6*
X101666000Y-63926000D02*
X103566000Y-63926000D01*
X103566000Y-63926000D02*
X103566000Y-67646000D01*
X103566000Y-67646000D02*
X101666000Y-67646000D01*
X101666000Y-67646000D02*
X101666000Y-63926000D01*
G04 #@! TO.C,C7*
X103566000Y-55290000D02*
X103566000Y-59010000D01*
X101666000Y-55290000D02*
X103566000Y-55290000D01*
X101666000Y-59010000D02*
X101666000Y-55290000D01*
X103566000Y-59010000D02*
X101666000Y-59010000D01*
G04 #@! TO.C,Co2*
X208330000Y-106178000D02*
X208330000Y-136578000D01*
X220930000Y-106178000D02*
X208330000Y-106178000D01*
X220930000Y-136578000D02*
X220930000Y-106178000D01*
X208330000Y-136578000D02*
X220930000Y-136578000D01*
G04 #@! TO.C,Cc1*
X221030000Y-106098000D02*
X233630000Y-106098000D01*
X233630000Y-106098000D02*
X233630000Y-75698000D01*
X233630000Y-75698000D02*
X221030000Y-75698000D01*
X221030000Y-75698000D02*
X221030000Y-106098000D01*
G04 #@! TO.C,Cc2*
X208330000Y-75698000D02*
X208330000Y-106098000D01*
X220930000Y-75698000D02*
X208330000Y-75698000D01*
X220930000Y-106098000D02*
X220930000Y-75698000D01*
X208330000Y-106098000D02*
X220930000Y-106098000D01*
G04 #@! TO.C,Cc3*
X195630000Y-106098000D02*
X208230000Y-106098000D01*
X208230000Y-106098000D02*
X208230000Y-75698000D01*
X208230000Y-75698000D02*
X195630000Y-75698000D01*
X195630000Y-75698000D02*
X195630000Y-106098000D01*
G04 #@! TO.C,Co1*
X221030000Y-106178000D02*
X221030000Y-136578000D01*
X233630000Y-106178000D02*
X221030000Y-106178000D01*
X233630000Y-136578000D02*
X233630000Y-106178000D01*
X221030000Y-136578000D02*
X233630000Y-136578000D01*
G04 #@! TO.C,Cc4*
X182930000Y-106098000D02*
X195530000Y-106098000D01*
X195530000Y-106098000D02*
X195530000Y-75698000D01*
X195530000Y-75698000D02*
X182930000Y-75698000D01*
X182930000Y-75698000D02*
X182930000Y-106098000D01*
G04 #@! TO.C,Co3*
X195630000Y-106178000D02*
X195630000Y-136578000D01*
X208230000Y-106178000D02*
X195630000Y-106178000D01*
X208230000Y-136578000D02*
X208230000Y-106178000D01*
X195630000Y-136578000D02*
X208230000Y-136578000D01*
G04 #@! TO.C,Screw4*
X245452000Y-129972000D02*
G75*
G03X245452000Y-129972000I-5250000J0D01*
G01*
G04 #@! TO.C,Screw3*
X245452000Y-104972000D02*
G75*
G03X245452000Y-104972000I-5250000J0D01*
G01*
G04 #@! TO.C,Screw2*
X245452000Y-79972000D02*
G75*
G03X245452000Y-79972000I-5250000J0D01*
G01*
G04 #@! TO.C,Screw1*
X245452000Y-54972000D02*
G75*
G03X245452000Y-54972000I-5250000J0D01*
G01*
G04 #@! TO.C,R102*
X189312000Y-67884000D02*
X189312000Y-69784000D01*
X189312000Y-69784000D02*
X185592000Y-69784000D01*
X185592000Y-69784000D02*
X185592000Y-67884000D01*
X185592000Y-67884000D02*
X189312000Y-67884000D01*
G04 #@! TO.C,R103*
X185592000Y-122494000D02*
X189312000Y-122494000D01*
X185592000Y-124394000D02*
X185592000Y-122494000D01*
X189312000Y-124394000D02*
X185592000Y-124394000D01*
X189312000Y-122494000D02*
X189312000Y-124394000D01*
G04 #@! TO.C,R104*
X189360500Y-119192000D02*
X189360500Y-121092000D01*
X189360500Y-121092000D02*
X185640500Y-121092000D01*
X185640500Y-121092000D02*
X185640500Y-119192000D01*
X185640500Y-119192000D02*
X189360500Y-119192000D01*
G04 #@! TD*
M02*
