G04 #@! TF.GenerationSoftware,KiCad,Pcbnew,(5.0.0-rc2-39-ga12b9db58)*
G04 #@! TF.CreationDate,2018-05-30T01:27:49-03:00*
G04 #@! TF.ProjectId,Mcc18,4D636331382E6B696361645F70636200,rev?*
G04 #@! TF.SameCoordinates,PX2fb84f0PY2607d70*
G04 #@! TF.FileFunction,Other,User*
%FSLAX46Y46*%
G04 Gerber Fmt 4.6, Leading zero omitted, Abs format (unit mm)*
G04 Created by KiCad (PCBNEW (5.0.0-rc2-39-ga12b9db58)) date Wed May 30 01:27:49 2018*
%MOMM*%
%LPD*%
G01*
G04 APERTURE LIST*
%ADD10C,0.050000*%
G04 APERTURE END LIST*
D10*
G04 #@! TO.C,Q1*
X129728000Y-62270000D02*
X129728000Y-91050000D01*
X129728000Y-91050000D02*
X113328000Y-91050000D01*
X113328000Y-91050000D02*
X113328000Y-62270000D01*
X113328000Y-62270000D02*
X129728000Y-62270000D01*
G04 #@! TO.C,D1*
X129728000Y-39076000D02*
X113328000Y-39076000D01*
X129728000Y-10296000D02*
X129728000Y-39076000D01*
X113328000Y-10296000D02*
X129728000Y-10296000D01*
X113328000Y-39076000D02*
X113328000Y-10296000D01*
G04 #@! TO.C,C4*
X97470000Y-74291500D02*
X95570000Y-74291500D01*
X95570000Y-74291500D02*
X95570000Y-78011500D01*
X95570000Y-78011500D02*
X97470000Y-78011500D01*
X97470000Y-78011500D02*
X97470000Y-74291500D01*
G04 #@! TO.C,L3*
X106000000Y-73218000D02*
X102280000Y-73218000D01*
X106000000Y-75118000D02*
X106000000Y-73218000D01*
X102280000Y-75118000D02*
X106000000Y-75118000D01*
X102280000Y-73218000D02*
X102280000Y-75118000D01*
G04 #@! TO.C,C5*
X99756000Y-78011500D02*
X99756000Y-74291500D01*
X97856000Y-78011500D02*
X99756000Y-78011500D01*
X97856000Y-74291500D02*
X97856000Y-78011500D01*
X99756000Y-74291500D02*
X97856000Y-74291500D01*
G04 #@! TO.C,C2*
X93849500Y-83632000D02*
X93849500Y-85532000D01*
X93849500Y-85532000D02*
X97569500Y-85532000D01*
X97569500Y-85532000D02*
X97569500Y-83632000D01*
X97569500Y-83632000D02*
X93849500Y-83632000D01*
G04 #@! TO.C,C10*
X105852000Y-79632500D02*
X105852000Y-75912500D01*
X103952000Y-79632500D02*
X105852000Y-79632500D01*
X103952000Y-75912500D02*
X103952000Y-79632500D01*
X105852000Y-75912500D02*
X103952000Y-75912500D01*
G04 #@! TO.C,C8*
X102042000Y-74291500D02*
X100142000Y-74291500D01*
X100142000Y-74291500D02*
X100142000Y-78011500D01*
X100142000Y-78011500D02*
X102042000Y-78011500D01*
X102042000Y-78011500D02*
X102042000Y-74291500D01*
G04 #@! TO.C,C9*
X108138000Y-79632500D02*
X108138000Y-75912500D01*
X106238000Y-79632500D02*
X108138000Y-79632500D01*
X106238000Y-75912500D02*
X106238000Y-79632500D01*
X108138000Y-75912500D02*
X106238000Y-75912500D01*
G04 #@! TO.C,C1*
X88580000Y-19942500D02*
X88580000Y-16222500D01*
X86680000Y-19942500D02*
X88580000Y-19942500D01*
X86680000Y-16222500D02*
X86680000Y-19942500D01*
X88580000Y-16222500D02*
X86680000Y-16222500D01*
G04 #@! TO.C,C3*
X97569500Y-81092000D02*
X93849500Y-81092000D01*
X97569500Y-82992000D02*
X97569500Y-81092000D01*
X93849500Y-82992000D02*
X97569500Y-82992000D01*
X93849500Y-81092000D02*
X93849500Y-82992000D01*
G04 #@! TO.C,R1*
X107630000Y-87204000D02*
X107630000Y-83484000D01*
X105730000Y-87204000D02*
X107630000Y-87204000D01*
X105730000Y-83484000D02*
X105730000Y-87204000D01*
X107630000Y-83484000D02*
X105730000Y-83484000D01*
G04 #@! TO.C,R105*
X93046000Y-14036000D02*
X89326000Y-14036000D01*
X93046000Y-15936000D02*
X93046000Y-14036000D01*
X89326000Y-15936000D02*
X93046000Y-15936000D01*
X89326000Y-14036000D02*
X89326000Y-15936000D01*
G04 #@! TO.C,R106*
X89326000Y-16068000D02*
X89326000Y-17968000D01*
X89326000Y-17968000D02*
X93046000Y-17968000D01*
X93046000Y-17968000D02*
X93046000Y-16068000D01*
X93046000Y-16068000D02*
X89326000Y-16068000D01*
G04 #@! TD*
M02*
