G04 #@! TF.GenerationSoftware,KiCad,Pcbnew,(5.0.0-rc2-39-ga12b9db58)*
G04 #@! TF.CreationDate,2018-05-30T01:03:46-03:00*
G04 #@! TF.ProjectId,Mcc18,4D636331382E6B696361645F70636200,rev?*
G04 #@! TF.SameCoordinates,PX2fb84f0PY2607d70*
G04 #@! TF.FileFunction,Legend,Bot*
G04 #@! TF.FilePolarity,Positive*
%FSLAX46Y46*%
G04 Gerber Fmt 4.6, Leading zero omitted, Abs format (unit mm)*
G04 Created by KiCad (PCBNEW (5.0.0-rc2-39-ga12b9db58)) date Wed May 30 01:03:46 2018*
%MOMM*%
%LPD*%
G01*
G04 APERTURE LIST*
%ADD10C,0.150000*%
%ADD11C,0.120000*%
%ADD12O,2.100000X2.940000*%
%ADD13O,2.700000X1.700000*%
%ADD14O,2.400000X1.600000*%
%ADD15O,4.000000X4.000000*%
%ADD16R,2.500000X4.500000*%
%ADD17O,2.900000X4.900000*%
%ADD18C,2.200000*%
%ADD19R,1.800000X1.800000*%
%ADD20C,5.400000*%
%ADD21C,4.800000*%
%ADD22R,1.400000X1.295000*%
%ADD23O,2.400000X2.305000*%
%ADD24R,2.000000X1.905000*%
%ADD25C,2.600000*%
%ADD26R,1.295000X1.400000*%
%ADD27C,2.800000*%
%ADD28C,10.400000*%
%ADD29C,3.400000*%
G04 APERTURE END LIST*
D10*
G04 #@! TO.C,U4*
X56642000Y-23368000D02*
X56642000Y-33528000D01*
X54102000Y-23368000D02*
X56642000Y-23368000D01*
X54102000Y-33528000D02*
X54102000Y-23368000D01*
X56642000Y-33528000D02*
X54102000Y-33528000D01*
X56642000Y-34798000D02*
X56642000Y-44958000D01*
X54102000Y-34798000D02*
X56642000Y-34798000D01*
X54102000Y-44958000D02*
X54102000Y-34798000D01*
X56642000Y-44958000D02*
X54102000Y-44958000D01*
X56642000Y-44704000D02*
X56642000Y-44958000D01*
X56642000Y-70358000D02*
X56642000Y-60198000D01*
X54102000Y-70358000D02*
X56642000Y-70358000D01*
X54102000Y-60198000D02*
X54102000Y-70358000D01*
X56642000Y-60198000D02*
X54102000Y-60198000D01*
X56642000Y-46228000D02*
X56642000Y-58928000D01*
X56388000Y-46228000D02*
X56642000Y-46228000D01*
X54102000Y-46228000D02*
X56388000Y-46228000D01*
X54102000Y-58928000D02*
X54102000Y-46228000D01*
X56642000Y-58928000D02*
X54102000Y-58928000D01*
G04 #@! TO.C,HS1*
X97028000Y-1346000D02*
X147028000Y-1346000D01*
X147028000Y-101346000D02*
X147028000Y-1346000D01*
X97028000Y-101346000D02*
X147028000Y-101346000D01*
X97028000Y-101346000D02*
X97028000Y-1346000D01*
D11*
G04 #@! TO.C,Q1*
X129598000Y-69730000D02*
X113458000Y-69730000D01*
X129598000Y-90920000D02*
X113458000Y-90920000D01*
X129598000Y-69730000D02*
X129598000Y-90920000D01*
X113458000Y-69730000D02*
X113458000Y-90920000D01*
X126978000Y-67170000D02*
X126978000Y-69730000D01*
X121528000Y-67170000D02*
X121528000Y-69730000D01*
X116078000Y-67170000D02*
X116078000Y-69730000D01*
G04 #@! TO.C,D1*
X126978000Y-34176000D02*
X126978000Y-31616000D01*
X121528000Y-34176000D02*
X121528000Y-31616000D01*
X116078000Y-34176000D02*
X116078000Y-31616000D01*
X129598000Y-31616000D02*
X129598000Y-10426000D01*
X113458000Y-31616000D02*
X113458000Y-10426000D01*
X113458000Y-10426000D02*
X129598000Y-10426000D01*
X113458000Y-31616000D02*
X129598000Y-31616000D01*
G04 #@! TO.C,U4*
D10*
X67024380Y-69596095D02*
X67833904Y-69596095D01*
X67929142Y-69643714D01*
X67976761Y-69691333D01*
X68024380Y-69786571D01*
X68024380Y-69977047D01*
X67976761Y-70072285D01*
X67929142Y-70119904D01*
X67833904Y-70167523D01*
X67024380Y-70167523D01*
X67357714Y-71072285D02*
X68024380Y-71072285D01*
X66976761Y-70834190D02*
X67691047Y-70596095D01*
X67691047Y-71215142D01*
G04 #@! TO.C,HS1*
X98266095Y-101298380D02*
X98266095Y-100298380D01*
X98266095Y-100774571D02*
X97694666Y-100774571D01*
X97694666Y-101298380D02*
X97694666Y-100298380D01*
X97266095Y-101250761D02*
X97123238Y-101298380D01*
X96885142Y-101298380D01*
X96789904Y-101250761D01*
X96742285Y-101203142D01*
X96694666Y-101107904D01*
X96694666Y-101012666D01*
X96742285Y-100917428D01*
X96789904Y-100869809D01*
X96885142Y-100822190D01*
X97075619Y-100774571D01*
X97170857Y-100726952D01*
X97218476Y-100679333D01*
X97266095Y-100584095D01*
X97266095Y-100488857D01*
X97218476Y-100393619D01*
X97170857Y-100346000D01*
X97075619Y-100298380D01*
X96837523Y-100298380D01*
X96694666Y-100346000D01*
X95742285Y-101298380D02*
X96313714Y-101298380D01*
X96028000Y-101298380D02*
X96028000Y-100298380D01*
X96123238Y-100441238D01*
X96218476Y-100536476D01*
X96313714Y-100584095D01*
G04 #@! TO.C,Q1*
X121623238Y-92467619D02*
X121718476Y-92420000D01*
X121813714Y-92324761D01*
X121956571Y-92181904D01*
X122051809Y-92134285D01*
X122147047Y-92134285D01*
X122099428Y-92372380D02*
X122194666Y-92324761D01*
X122289904Y-92229523D01*
X122337523Y-92039047D01*
X122337523Y-91705714D01*
X122289904Y-91515238D01*
X122194666Y-91420000D01*
X122099428Y-91372380D01*
X121908952Y-91372380D01*
X121813714Y-91420000D01*
X121718476Y-91515238D01*
X121670857Y-91705714D01*
X121670857Y-92039047D01*
X121718476Y-92229523D01*
X121813714Y-92324761D01*
X121908952Y-92372380D01*
X122099428Y-92372380D01*
X120718476Y-92372380D02*
X121289904Y-92372380D01*
X121004190Y-92372380D02*
X121004190Y-91372380D01*
X121099428Y-91515238D01*
X121194666Y-91610476D01*
X121289904Y-91658095D01*
G04 #@! TO.C,D1*
X122266095Y-9878380D02*
X122266095Y-8878380D01*
X122028000Y-8878380D01*
X121885142Y-8926000D01*
X121789904Y-9021238D01*
X121742285Y-9116476D01*
X121694666Y-9306952D01*
X121694666Y-9449809D01*
X121742285Y-9640285D01*
X121789904Y-9735523D01*
X121885142Y-9830761D01*
X122028000Y-9878380D01*
X122266095Y-9878380D01*
X120742285Y-9878380D02*
X121313714Y-9878380D01*
X121028000Y-9878380D02*
X121028000Y-8878380D01*
X121123238Y-9021238D01*
X121218476Y-9116476D01*
X121313714Y-9164095D01*
G04 #@! TO.C,C4*
X95227142Y-75984833D02*
X95274761Y-75937214D01*
X95322380Y-75794357D01*
X95322380Y-75699119D01*
X95274761Y-75556261D01*
X95179523Y-75461023D01*
X95084285Y-75413404D01*
X94893809Y-75365785D01*
X94750952Y-75365785D01*
X94560476Y-75413404D01*
X94465238Y-75461023D01*
X94370000Y-75556261D01*
X94322380Y-75699119D01*
X94322380Y-75794357D01*
X94370000Y-75937214D01*
X94417619Y-75984833D01*
X94655714Y-76841976D02*
X95322380Y-76841976D01*
X94274761Y-76603880D02*
X94989047Y-76365785D01*
X94989047Y-76984833D01*
G04 #@! TO.C,L3*
X104306666Y-76270380D02*
X104782857Y-76270380D01*
X104782857Y-75270380D01*
X104068571Y-75270380D02*
X103449523Y-75270380D01*
X103782857Y-75651333D01*
X103640000Y-75651333D01*
X103544761Y-75698952D01*
X103497142Y-75746571D01*
X103449523Y-75841809D01*
X103449523Y-76079904D01*
X103497142Y-76175142D01*
X103544761Y-76222761D01*
X103640000Y-76270380D01*
X103925714Y-76270380D01*
X104020952Y-76222761D01*
X104068571Y-76175142D01*
G04 #@! TO.C,C5*
X97513142Y-75984833D02*
X97560761Y-75937214D01*
X97608380Y-75794357D01*
X97608380Y-75699119D01*
X97560761Y-75556261D01*
X97465523Y-75461023D01*
X97370285Y-75413404D01*
X97179809Y-75365785D01*
X97036952Y-75365785D01*
X96846476Y-75413404D01*
X96751238Y-75461023D01*
X96656000Y-75556261D01*
X96608380Y-75699119D01*
X96608380Y-75794357D01*
X96656000Y-75937214D01*
X96703619Y-75984833D01*
X96608380Y-76889595D02*
X96608380Y-76413404D01*
X97084571Y-76365785D01*
X97036952Y-76413404D01*
X96989333Y-76508642D01*
X96989333Y-76746738D01*
X97036952Y-76841976D01*
X97084571Y-76889595D01*
X97179809Y-76937214D01*
X97417904Y-76937214D01*
X97513142Y-76889595D01*
X97560761Y-76841976D01*
X97608380Y-76746738D01*
X97608380Y-76508642D01*
X97560761Y-76413404D01*
X97513142Y-76365785D01*
G04 #@! TO.C,C2*
X95876166Y-86589142D02*
X95923785Y-86636761D01*
X96066642Y-86684380D01*
X96161880Y-86684380D01*
X96304738Y-86636761D01*
X96399976Y-86541523D01*
X96447595Y-86446285D01*
X96495214Y-86255809D01*
X96495214Y-86112952D01*
X96447595Y-85922476D01*
X96399976Y-85827238D01*
X96304738Y-85732000D01*
X96161880Y-85684380D01*
X96066642Y-85684380D01*
X95923785Y-85732000D01*
X95876166Y-85779619D01*
X95495214Y-85779619D02*
X95447595Y-85732000D01*
X95352357Y-85684380D01*
X95114261Y-85684380D01*
X95019023Y-85732000D01*
X94971404Y-85779619D01*
X94923785Y-85874857D01*
X94923785Y-85970095D01*
X94971404Y-86112952D01*
X95542833Y-86684380D01*
X94923785Y-86684380D01*
G04 #@! TO.C,C10*
X103609142Y-77129642D02*
X103656761Y-77082023D01*
X103704380Y-76939166D01*
X103704380Y-76843928D01*
X103656761Y-76701071D01*
X103561523Y-76605833D01*
X103466285Y-76558214D01*
X103275809Y-76510595D01*
X103132952Y-76510595D01*
X102942476Y-76558214D01*
X102847238Y-76605833D01*
X102752000Y-76701071D01*
X102704380Y-76843928D01*
X102704380Y-76939166D01*
X102752000Y-77082023D01*
X102799619Y-77129642D01*
X103704380Y-78082023D02*
X103704380Y-77510595D01*
X103704380Y-77796309D02*
X102704380Y-77796309D01*
X102847238Y-77701071D01*
X102942476Y-77605833D01*
X102990095Y-77510595D01*
X102704380Y-78701071D02*
X102704380Y-78796309D01*
X102752000Y-78891547D01*
X102799619Y-78939166D01*
X102894857Y-78986785D01*
X103085333Y-79034404D01*
X103323428Y-79034404D01*
X103513904Y-78986785D01*
X103609142Y-78939166D01*
X103656761Y-78891547D01*
X103704380Y-78796309D01*
X103704380Y-78701071D01*
X103656761Y-78605833D01*
X103609142Y-78558214D01*
X103513904Y-78510595D01*
X103323428Y-78462976D01*
X103085333Y-78462976D01*
X102894857Y-78510595D01*
X102799619Y-78558214D01*
X102752000Y-78605833D01*
X102704380Y-78701071D01*
G04 #@! TO.C,C8*
X99799142Y-75984833D02*
X99846761Y-75937214D01*
X99894380Y-75794357D01*
X99894380Y-75699119D01*
X99846761Y-75556261D01*
X99751523Y-75461023D01*
X99656285Y-75413404D01*
X99465809Y-75365785D01*
X99322952Y-75365785D01*
X99132476Y-75413404D01*
X99037238Y-75461023D01*
X98942000Y-75556261D01*
X98894380Y-75699119D01*
X98894380Y-75794357D01*
X98942000Y-75937214D01*
X98989619Y-75984833D01*
X99322952Y-76556261D02*
X99275333Y-76461023D01*
X99227714Y-76413404D01*
X99132476Y-76365785D01*
X99084857Y-76365785D01*
X98989619Y-76413404D01*
X98942000Y-76461023D01*
X98894380Y-76556261D01*
X98894380Y-76746738D01*
X98942000Y-76841976D01*
X98989619Y-76889595D01*
X99084857Y-76937214D01*
X99132476Y-76937214D01*
X99227714Y-76889595D01*
X99275333Y-76841976D01*
X99322952Y-76746738D01*
X99322952Y-76556261D01*
X99370571Y-76461023D01*
X99418190Y-76413404D01*
X99513428Y-76365785D01*
X99703904Y-76365785D01*
X99799142Y-76413404D01*
X99846761Y-76461023D01*
X99894380Y-76556261D01*
X99894380Y-76746738D01*
X99846761Y-76841976D01*
X99799142Y-76889595D01*
X99703904Y-76937214D01*
X99513428Y-76937214D01*
X99418190Y-76889595D01*
X99370571Y-76841976D01*
X99322952Y-76746738D01*
G04 #@! TO.C,C9*
X105895142Y-77605833D02*
X105942761Y-77558214D01*
X105990380Y-77415357D01*
X105990380Y-77320119D01*
X105942761Y-77177261D01*
X105847523Y-77082023D01*
X105752285Y-77034404D01*
X105561809Y-76986785D01*
X105418952Y-76986785D01*
X105228476Y-77034404D01*
X105133238Y-77082023D01*
X105038000Y-77177261D01*
X104990380Y-77320119D01*
X104990380Y-77415357D01*
X105038000Y-77558214D01*
X105085619Y-77605833D01*
X105990380Y-78082023D02*
X105990380Y-78272500D01*
X105942761Y-78367738D01*
X105895142Y-78415357D01*
X105752285Y-78510595D01*
X105561809Y-78558214D01*
X105180857Y-78558214D01*
X105085619Y-78510595D01*
X105038000Y-78462976D01*
X104990380Y-78367738D01*
X104990380Y-78177261D01*
X105038000Y-78082023D01*
X105085619Y-78034404D01*
X105180857Y-77986785D01*
X105418952Y-77986785D01*
X105514190Y-78034404D01*
X105561809Y-78082023D01*
X105609428Y-78177261D01*
X105609428Y-78367738D01*
X105561809Y-78462976D01*
X105514190Y-78510595D01*
X105418952Y-78558214D01*
G04 #@! TO.C,C1*
X86337142Y-17915833D02*
X86384761Y-17868214D01*
X86432380Y-17725357D01*
X86432380Y-17630119D01*
X86384761Y-17487261D01*
X86289523Y-17392023D01*
X86194285Y-17344404D01*
X86003809Y-17296785D01*
X85860952Y-17296785D01*
X85670476Y-17344404D01*
X85575238Y-17392023D01*
X85480000Y-17487261D01*
X85432380Y-17630119D01*
X85432380Y-17725357D01*
X85480000Y-17868214D01*
X85527619Y-17915833D01*
X86432380Y-18868214D02*
X86432380Y-18296785D01*
X86432380Y-18582500D02*
X85432380Y-18582500D01*
X85575238Y-18487261D01*
X85670476Y-18392023D01*
X85718095Y-18296785D01*
G04 #@! TO.C,C3*
X95876166Y-84049142D02*
X95923785Y-84096761D01*
X96066642Y-84144380D01*
X96161880Y-84144380D01*
X96304738Y-84096761D01*
X96399976Y-84001523D01*
X96447595Y-83906285D01*
X96495214Y-83715809D01*
X96495214Y-83572952D01*
X96447595Y-83382476D01*
X96399976Y-83287238D01*
X96304738Y-83192000D01*
X96161880Y-83144380D01*
X96066642Y-83144380D01*
X95923785Y-83192000D01*
X95876166Y-83239619D01*
X95542833Y-83144380D02*
X94923785Y-83144380D01*
X95257119Y-83525333D01*
X95114261Y-83525333D01*
X95019023Y-83572952D01*
X94971404Y-83620571D01*
X94923785Y-83715809D01*
X94923785Y-83953904D01*
X94971404Y-84049142D01*
X95019023Y-84096761D01*
X95114261Y-84144380D01*
X95399976Y-84144380D01*
X95495214Y-84096761D01*
X95542833Y-84049142D01*
G04 #@! TO.C,R1*
X125134666Y-71444380D02*
X125468000Y-70968190D01*
X125706095Y-71444380D02*
X125706095Y-70444380D01*
X125325142Y-70444380D01*
X125229904Y-70492000D01*
X125182285Y-70539619D01*
X125134666Y-70634857D01*
X125134666Y-70777714D01*
X125182285Y-70872952D01*
X125229904Y-70920571D01*
X125325142Y-70968190D01*
X125706095Y-70968190D01*
X124182285Y-71444380D02*
X124753714Y-71444380D01*
X124468000Y-71444380D02*
X124468000Y-70444380D01*
X124563238Y-70587238D01*
X124658476Y-70682476D01*
X124753714Y-70730095D01*
G04 #@! TO.C,R105*
X92305047Y-17088380D02*
X92638380Y-16612190D01*
X92876476Y-17088380D02*
X92876476Y-16088380D01*
X92495523Y-16088380D01*
X92400285Y-16136000D01*
X92352666Y-16183619D01*
X92305047Y-16278857D01*
X92305047Y-16421714D01*
X92352666Y-16516952D01*
X92400285Y-16564571D01*
X92495523Y-16612190D01*
X92876476Y-16612190D01*
X91352666Y-17088380D02*
X91924095Y-17088380D01*
X91638380Y-17088380D02*
X91638380Y-16088380D01*
X91733619Y-16231238D01*
X91828857Y-16326476D01*
X91924095Y-16374095D01*
X90733619Y-16088380D02*
X90638380Y-16088380D01*
X90543142Y-16136000D01*
X90495523Y-16183619D01*
X90447904Y-16278857D01*
X90400285Y-16469333D01*
X90400285Y-16707428D01*
X90447904Y-16897904D01*
X90495523Y-16993142D01*
X90543142Y-17040761D01*
X90638380Y-17088380D01*
X90733619Y-17088380D01*
X90828857Y-17040761D01*
X90876476Y-16993142D01*
X90924095Y-16897904D01*
X90971714Y-16707428D01*
X90971714Y-16469333D01*
X90924095Y-16278857D01*
X90876476Y-16183619D01*
X90828857Y-16136000D01*
X90733619Y-16088380D01*
X89495523Y-16088380D02*
X89971714Y-16088380D01*
X90019333Y-16564571D01*
X89971714Y-16516952D01*
X89876476Y-16469333D01*
X89638380Y-16469333D01*
X89543142Y-16516952D01*
X89495523Y-16564571D01*
X89447904Y-16659809D01*
X89447904Y-16897904D01*
X89495523Y-16993142D01*
X89543142Y-17040761D01*
X89638380Y-17088380D01*
X89876476Y-17088380D01*
X89971714Y-17040761D01*
X90019333Y-16993142D01*
G04 #@! TO.C,R106*
X92305047Y-19120380D02*
X92638380Y-18644190D01*
X92876476Y-19120380D02*
X92876476Y-18120380D01*
X92495523Y-18120380D01*
X92400285Y-18168000D01*
X92352666Y-18215619D01*
X92305047Y-18310857D01*
X92305047Y-18453714D01*
X92352666Y-18548952D01*
X92400285Y-18596571D01*
X92495523Y-18644190D01*
X92876476Y-18644190D01*
X91352666Y-19120380D02*
X91924095Y-19120380D01*
X91638380Y-19120380D02*
X91638380Y-18120380D01*
X91733619Y-18263238D01*
X91828857Y-18358476D01*
X91924095Y-18406095D01*
X90733619Y-18120380D02*
X90638380Y-18120380D01*
X90543142Y-18168000D01*
X90495523Y-18215619D01*
X90447904Y-18310857D01*
X90400285Y-18501333D01*
X90400285Y-18739428D01*
X90447904Y-18929904D01*
X90495523Y-19025142D01*
X90543142Y-19072761D01*
X90638380Y-19120380D01*
X90733619Y-19120380D01*
X90828857Y-19072761D01*
X90876476Y-19025142D01*
X90924095Y-18929904D01*
X90971714Y-18739428D01*
X90971714Y-18501333D01*
X90924095Y-18310857D01*
X90876476Y-18215619D01*
X90828857Y-18168000D01*
X90733619Y-18120380D01*
X89543142Y-18120380D02*
X89733619Y-18120380D01*
X89828857Y-18168000D01*
X89876476Y-18215619D01*
X89971714Y-18358476D01*
X90019333Y-18548952D01*
X90019333Y-18929904D01*
X89971714Y-19025142D01*
X89924095Y-19072761D01*
X89828857Y-19120380D01*
X89638380Y-19120380D01*
X89543142Y-19072761D01*
X89495523Y-19025142D01*
X89447904Y-18929904D01*
X89447904Y-18691809D01*
X89495523Y-18596571D01*
X89543142Y-18548952D01*
X89638380Y-18501333D01*
X89828857Y-18501333D01*
X89924095Y-18548952D01*
X89971714Y-18596571D01*
X90019333Y-18691809D01*
G04 #@! TD*
%LPC*%
D12*
G04 #@! TO.C,U1*
X73914000Y-9652000D03*
X71374000Y-9652000D03*
X76454000Y-9652000D03*
D13*
X84074000Y-18948400D03*
X84074000Y-17018000D03*
X84074000Y-15087600D03*
X84074000Y-13157200D03*
D12*
X76454000Y-22352000D03*
X71374000Y-22352000D03*
X73914000Y-22352000D03*
G04 #@! TD*
D14*
G04 #@! TO.C,U4*
X55372000Y-24638000D03*
X55372000Y-69088000D03*
X55372000Y-66548000D03*
X55372000Y-64008000D03*
X55372000Y-61468000D03*
X55372000Y-57658000D03*
X55372000Y-55118000D03*
X55372000Y-52578000D03*
X55372000Y-50038000D03*
X55372000Y-47498000D03*
X55372000Y-43688000D03*
X55372000Y-41148000D03*
X55372000Y-38608000D03*
X55372000Y-36068000D03*
X55372000Y-32258000D03*
X55372000Y-29718000D03*
X55372000Y-27178000D03*
G04 #@! TD*
D15*
G04 #@! TO.C,Q1*
X121528000Y-84630000D03*
D16*
X126978000Y-64770000D03*
D17*
X121528000Y-64770000D03*
X116078000Y-64770000D03*
G04 #@! TD*
G04 #@! TO.C,D1*
X126978000Y-36576000D03*
X121528000Y-36576000D03*
D16*
X116078000Y-36576000D03*
D15*
X121528000Y-16716000D03*
G04 #@! TD*
D18*
G04 #@! TO.C,U2*
X109728000Y-84074000D03*
D19*
X109728000Y-86614000D03*
D18*
X109728000Y-71374000D03*
X109728000Y-81534000D03*
X109728000Y-78994000D03*
X109728000Y-73914000D03*
X109728000Y-76454000D03*
G04 #@! TD*
D20*
G04 #@! TO.C,L1*
X74168000Y-60960000D03*
X74168000Y-31877000D03*
X103251000Y-60960000D03*
X103251000Y-31877000D03*
G04 #@! TD*
D21*
G04 #@! TO.C,U5*
X12319000Y-75056000D03*
X22987000Y-6477000D03*
X37187274Y-31369000D03*
D14*
X42418000Y-5334000D03*
X42418000Y-7874000D03*
X42418000Y-10414000D03*
X42418000Y-12954000D03*
X42418000Y-15494000D03*
X42418000Y-18034000D03*
X42418000Y-20574000D03*
X42418000Y-23114000D03*
X42418000Y-25654000D03*
X42418000Y-30734000D03*
X42418000Y-33274000D03*
X42418000Y-35814000D03*
X42418000Y-38354000D03*
X42418000Y-40894000D03*
X42418000Y-43434000D03*
X42418000Y-45974000D03*
X42418000Y-48514000D03*
X42418000Y-51054000D03*
X42418000Y-53594000D03*
X42418000Y-56134000D03*
X42418000Y-58674000D03*
X42418000Y-61214000D03*
X42418000Y-63754000D03*
X42418000Y-66294000D03*
X42418000Y-68834000D03*
X42418000Y-71374000D03*
X42418000Y-73914000D03*
X42418000Y-76454000D03*
X42418000Y-78994000D03*
X42418000Y-85344000D03*
X42418000Y-87884000D03*
X42418000Y-90424000D03*
X42418000Y-92964000D03*
X42418000Y-95504000D03*
X42418000Y-98044000D03*
X42418000Y-100584000D03*
X42418000Y-103124000D03*
G04 #@! TD*
D22*
G04 #@! TO.C,C4*
X96520000Y-75184000D03*
X96520000Y-77119000D03*
G04 #@! TD*
D23*
G04 #@! TO.C,U3*
X93472000Y-74168000D03*
X93472000Y-76708000D03*
D24*
X93472000Y-79248000D03*
G04 #@! TD*
D25*
G04 #@! TO.C,Ci2*
X170180000Y-34304000D03*
X170180000Y-19304000D03*
G04 #@! TD*
G04 #@! TO.C,Ci1*
X180340000Y-34304000D03*
X180340000Y-19304000D03*
G04 #@! TD*
G04 #@! TO.C,Ci3*
X160020000Y-34304000D03*
X160020000Y-19304000D03*
G04 #@! TD*
D26*
G04 #@! TO.C,L3*
X105107500Y-74168000D03*
X103172500Y-74168000D03*
G04 #@! TD*
D22*
G04 #@! TO.C,C5*
X98806000Y-77119000D03*
X98806000Y-75184000D03*
G04 #@! TD*
D26*
G04 #@! TO.C,C2*
X94742000Y-84582000D03*
X96677000Y-84582000D03*
G04 #@! TD*
D22*
G04 #@! TO.C,C10*
X104902000Y-78740000D03*
X104902000Y-76805000D03*
G04 #@! TD*
G04 #@! TO.C,C8*
X101092000Y-75184000D03*
X101092000Y-77119000D03*
G04 #@! TD*
G04 #@! TO.C,C9*
X107188000Y-78740000D03*
X107188000Y-76805000D03*
G04 #@! TD*
G04 #@! TO.C,C1*
X87630000Y-19050000D03*
X87630000Y-17115000D03*
G04 #@! TD*
D26*
G04 #@! TO.C,C3*
X96677000Y-82042000D03*
X94742000Y-82042000D03*
G04 #@! TD*
D27*
G04 #@! TO.C,Co2*
X164592000Y-67750000D03*
X164592000Y-95250000D03*
G04 #@! TD*
G04 #@! TO.C,Cc1*
X177292000Y-64770000D03*
X177292000Y-37270000D03*
G04 #@! TD*
G04 #@! TO.C,Cc2*
X164592000Y-37270000D03*
X164592000Y-64770000D03*
G04 #@! TD*
G04 #@! TO.C,Cc3*
X151892000Y-64770000D03*
X151892000Y-37270000D03*
G04 #@! TD*
G04 #@! TO.C,Co1*
X177292000Y-67750000D03*
X177292000Y-95250000D03*
G04 #@! TD*
G04 #@! TO.C,Cc4*
X139192000Y-64770000D03*
X139192000Y-37270000D03*
G04 #@! TD*
G04 #@! TO.C,Co3*
X151892000Y-67750000D03*
X151892000Y-95250000D03*
G04 #@! TD*
D28*
G04 #@! TO.C,Screw4*
X190164000Y-90094000D03*
G04 #@! TD*
G04 #@! TO.C,Screw3*
X190164000Y-65094000D03*
G04 #@! TD*
G04 #@! TO.C,Screw2*
X190164000Y-40094000D03*
G04 #@! TD*
G04 #@! TO.C,Screw1*
X190164000Y-15094000D03*
G04 #@! TD*
D29*
G04 #@! TO.C,F1*
X183235600Y-7493000D03*
X160782000Y-7493000D03*
G04 #@! TD*
D26*
G04 #@! TO.C,R1*
X125935500Y-69342000D03*
X124000500Y-69342000D03*
G04 #@! TD*
G04 #@! TO.C,R105*
X92153500Y-14986000D03*
X90218500Y-14986000D03*
G04 #@! TD*
G04 #@! TO.C,R106*
X90218500Y-17018000D03*
X92153500Y-17018000D03*
G04 #@! TD*
M02*
