G04 #@! TF.GenerationSoftware,KiCad,Pcbnew,(5.0.0-rc2-39-ga12b9db58)*
G04 #@! TF.CreationDate,2018-05-30T01:03:46-03:00*
G04 #@! TF.ProjectId,Mcc18,4D636331382E6B696361645F70636200,rev?*
G04 #@! TF.SameCoordinates,PX2fb84f0PY2607d70*
G04 #@! TF.FileFunction,Copper,L2,Bot,Signal*
G04 #@! TF.FilePolarity,Positive*
%FSLAX46Y46*%
G04 Gerber Fmt 4.6, Leading zero omitted, Abs format (unit mm)*
G04 Created by KiCad (PCBNEW (5.0.0-rc2-39-ga12b9db58)) date Wed May 30 01:03:46 2018*
%MOMM*%
%LPD*%
G01*
G04 APERTURE LIST*
G04 #@! TA.AperFunction,ComponentPad*
%ADD10O,1.700000X2.540000*%
G04 #@! TD*
G04 #@! TA.AperFunction,ComponentPad*
%ADD11O,2.300000X1.300000*%
G04 #@! TD*
G04 #@! TA.AperFunction,ComponentPad*
%ADD12O,2.000000X1.200000*%
G04 #@! TD*
G04 #@! TA.AperFunction,ComponentPad*
%ADD13R,2.500000X4.500000*%
G04 #@! TD*
G04 #@! TA.AperFunction,ComponentPad*
%ADD14O,2.500000X4.500000*%
G04 #@! TD*
G04 #@! TA.AperFunction,ComponentPad*
%ADD15C,1.800000*%
G04 #@! TD*
G04 #@! TA.AperFunction,ComponentPad*
%ADD16R,1.800000X1.800000*%
G04 #@! TD*
G04 #@! TA.AperFunction,ComponentPad*
%ADD17C,5.000000*%
G04 #@! TD*
G04 #@! TA.AperFunction,ComponentPad*
%ADD18C,4.400000*%
G04 #@! TD*
G04 #@! TA.AperFunction,SMDPad,CuDef*
%ADD19R,1.400000X1.295000*%
G04 #@! TD*
G04 #@! TA.AperFunction,ComponentPad*
%ADD20O,2.000000X1.905000*%
G04 #@! TD*
G04 #@! TA.AperFunction,ComponentPad*
%ADD21R,2.000000X1.905000*%
G04 #@! TD*
G04 #@! TA.AperFunction,ComponentPad*
%ADD22C,2.200000*%
G04 #@! TD*
G04 #@! TA.AperFunction,SMDPad,CuDef*
%ADD23R,1.295000X1.400000*%
G04 #@! TD*
G04 #@! TA.AperFunction,ComponentPad*
%ADD24C,2.400000*%
G04 #@! TD*
G04 #@! TA.AperFunction,ComponentPad*
%ADD25C,10.000000*%
G04 #@! TD*
G04 #@! TA.AperFunction,ComponentPad*
%ADD26C,3.000000*%
G04 #@! TD*
G04 #@! TA.AperFunction,ViaPad*
%ADD27C,1.700000*%
G04 #@! TD*
G04 #@! TA.AperFunction,Conductor*
%ADD28C,1.000000*%
G04 #@! TD*
G04 #@! TA.AperFunction,Conductor*
%ADD29C,9.000000*%
G04 #@! TD*
G04 #@! TA.AperFunction,Conductor*
%ADD30C,0.508000*%
G04 #@! TD*
G04 #@! TA.AperFunction,Conductor*
%ADD31C,0.800000*%
G04 #@! TD*
G04 #@! TA.AperFunction,Conductor*
%ADD32C,0.635000*%
G04 #@! TD*
G04 #@! TA.AperFunction,Conductor*
%ADD33C,0.254000*%
G04 #@! TD*
G04 APERTURE END LIST*
D10*
G04 #@! TO.P,U1,5*
G04 #@! TO.N,Net-(U1-Pad3)*
X73914000Y-9652000D03*
G04 #@! TO.P,U1,4*
G04 #@! TO.N,/-Vp*
X71374000Y-9652000D03*
G04 #@! TO.P,U1,6*
G04 #@! TO.N,Net-(U1-Pad3)*
X76454000Y-9652000D03*
D11*
G04 #@! TO.P,U1,7*
G04 #@! TO.N,+5V*
X84074000Y-18948400D03*
G04 #@! TO.P,U1,8*
G04 #@! TO.N,GND*
X84074000Y-17018000D03*
G04 #@! TO.P,U1,9*
G04 #@! TO.N,/+Ip*
X84074000Y-15087600D03*
G04 #@! TO.P,U1,10*
G04 #@! TO.N,Net-(U1-Pad10)*
X84074000Y-13157200D03*
D10*
G04 #@! TO.P,U1,1*
G04 #@! TO.N,Net-(L1-Pad1)*
X76454000Y-22352000D03*
G04 #@! TO.P,U1,3*
G04 #@! TO.N,Net-(U1-Pad3)*
X71374000Y-22352000D03*
G04 #@! TO.P,U1,2*
G04 #@! TO.N,Net-(L1-Pad1)*
X73914000Y-22352000D03*
G04 #@! TD*
D12*
G04 #@! TO.P,U4,17*
G04 #@! TO.N,+5VA*
X55372000Y-24638000D03*
G04 #@! TO.P,U4,1*
G04 #@! TO.N,/Vp_sen-*
X55372000Y-69088000D03*
G04 #@! TO.P,U4,2*
G04 #@! TO.N,/Vp_sen+*
X55372000Y-66548000D03*
G04 #@! TO.P,U4,3*
G04 #@! TO.N,GNDA*
X55372000Y-64008000D03*
G04 #@! TO.P,U4,4*
G04 #@! TO.N,/Vpanel_adc+*
X55372000Y-61468000D03*
G04 #@! TO.P,U4,5*
G04 #@! TO.N,GNDA*
X55372000Y-57658000D03*
G04 #@! TO.P,U4,6*
G04 #@! TO.N,/Ip_sen+*
X55372000Y-55118000D03*
G04 #@! TO.P,U4,7*
G04 #@! TO.N,/Ip_sen-*
X55372000Y-52578000D03*
G04 #@! TO.P,U4,8*
G04 #@! TO.N,GNDA*
X55372000Y-50038000D03*
G04 #@! TO.P,U4,9*
G04 #@! TO.N,/Ipanel_adc+*
X55372000Y-47498000D03*
G04 #@! TO.P,U4,10*
G04 #@! TO.N,/Vb_sen+*
X55372000Y-43688000D03*
G04 #@! TO.P,U4,11*
G04 #@! TO.N,/Vb_sen-*
X55372000Y-41148000D03*
G04 #@! TO.P,U4,12*
G04 #@! TO.N,GNDA*
X55372000Y-38608000D03*
G04 #@! TO.P,U4,13*
G04 #@! TO.N,/Vbat_adc+*
X55372000Y-36068000D03*
G04 #@! TO.P,U4,14*
G04 #@! TO.N,/BatOVInterrupt*
X55372000Y-32258000D03*
G04 #@! TO.P,U4,15*
G04 #@! TO.N,/PWM*
X55372000Y-29718000D03*
G04 #@! TO.P,U4,16*
G04 #@! TO.N,GNDA*
X55372000Y-27178000D03*
G04 #@! TD*
D13*
G04 #@! TO.P,Q1,1*
G04 #@! TO.N,/Gate*
X126978000Y-64770000D03*
D14*
G04 #@! TO.P,Q1,2*
G04 #@! TO.N,/-B*
X121528000Y-64770000D03*
G04 #@! TO.P,Q1,3*
G04 #@! TO.N,/Source*
X116078000Y-64770000D03*
G04 #@! TD*
G04 #@! TO.P,D1,3*
G04 #@! TO.N,/+Vp*
X126978000Y-36576000D03*
G04 #@! TO.P,D1,2*
G04 #@! TO.N,/Source*
X121528000Y-36576000D03*
D13*
G04 #@! TO.P,D1,1*
G04 #@! TO.N,/+Vp*
X116078000Y-36576000D03*
G04 #@! TD*
D15*
G04 #@! TO.P,U2,2*
G04 #@! TO.N,/Source*
X109728000Y-84074000D03*
D16*
G04 #@! TO.P,U2,1*
G04 #@! TO.N,/Gate*
X109728000Y-86614000D03*
D15*
G04 #@! TO.P,U2,7*
G04 #@! TO.N,GND*
X109728000Y-71374000D03*
G04 #@! TO.P,U2,3*
G04 #@! TO.N,Net-(U2-Pad3)*
X109728000Y-81534000D03*
G04 #@! TO.P,U2,4*
G04 #@! TO.N,GND*
X109728000Y-78994000D03*
G04 #@! TO.P,U2,6*
G04 #@! TO.N,/PWM*
X109728000Y-73914000D03*
G04 #@! TO.P,U2,5*
G04 #@! TO.N,Net-(C10-Pad1)*
X109728000Y-76454000D03*
G04 #@! TD*
D17*
G04 #@! TO.P,L1,3*
G04 #@! TO.N,/+B*
X74168000Y-60960000D03*
G04 #@! TO.P,L1,1*
G04 #@! TO.N,Net-(L1-Pad1)*
X74168000Y-31877000D03*
G04 #@! TO.P,L1,4*
G04 #@! TO.N,/Source*
X103251000Y-60960000D03*
G04 #@! TO.P,L1,2*
X103251000Y-31877000D03*
G04 #@! TD*
D18*
G04 #@! TO.P,U5,40*
G04 #@! TO.N,N/C*
X12319000Y-75056000D03*
G04 #@! TO.P,U5,39*
X22987000Y-6477000D03*
G04 #@! TO.P,U5,38*
X37187274Y-31369000D03*
D12*
G04 #@! TO.P,U5,37*
G04 #@! TO.N,GNDA*
X42418000Y-5334000D03*
G04 #@! TO.P,U5,36*
G04 #@! TO.N,Net-(U5-Pad36)*
X42418000Y-7874000D03*
G04 #@! TO.P,U5,35*
G04 #@! TO.N,Net-(U5-Pad35)*
X42418000Y-10414000D03*
G04 #@! TO.P,U5,34*
G04 #@! TO.N,Net-(U5-Pad34)*
X42418000Y-12954000D03*
G04 #@! TO.P,U5,33*
G04 #@! TO.N,/Vbat_adc+*
X42418000Y-15494000D03*
G04 #@! TO.P,U5,32*
G04 #@! TO.N,/Ipanel_adc+*
X42418000Y-18034000D03*
G04 #@! TO.P,U5,31*
G04 #@! TO.N,/Vpanel_adc+*
X42418000Y-20574000D03*
G04 #@! TO.P,U5,30*
G04 #@! TO.N,Net-(U5-Pad30)*
X42418000Y-23114000D03*
G04 #@! TO.P,U5,29*
G04 #@! TO.N,Net-(U5-Pad29)*
X42418000Y-25654000D03*
G04 #@! TO.P,U5,28*
G04 #@! TO.N,Net-(U5-Pad28)*
X42418000Y-30734000D03*
G04 #@! TO.P,U5,27*
G04 #@! TO.N,Net-(U5-Pad27)*
X42418000Y-33274000D03*
G04 #@! TO.P,U5,26*
G04 #@! TO.N,Net-(U5-Pad26)*
X42418000Y-35814000D03*
G04 #@! TO.P,U5,25*
G04 #@! TO.N,Net-(U5-Pad25)*
X42418000Y-38354000D03*
G04 #@! TO.P,U5,24*
G04 #@! TO.N,Net-(U5-Pad24)*
X42418000Y-40894000D03*
G04 #@! TO.P,U5,23*
G04 #@! TO.N,Net-(U5-Pad23)*
X42418000Y-43434000D03*
G04 #@! TO.P,U5,22*
G04 #@! TO.N,Net-(U5-Pad22)*
X42418000Y-45974000D03*
G04 #@! TO.P,U5,21*
G04 #@! TO.N,Net-(U5-Pad21)*
X42418000Y-48514000D03*
G04 #@! TO.P,U5,20*
G04 #@! TO.N,Net-(U5-Pad20)*
X42418000Y-51054000D03*
G04 #@! TO.P,U5,19*
G04 #@! TO.N,Net-(U5-Pad19)*
X42418000Y-53594000D03*
G04 #@! TO.P,U5,18*
G04 #@! TO.N,GND*
X42418000Y-56134000D03*
G04 #@! TO.P,U5,17*
G04 #@! TO.N,Net-(U5-Pad17)*
X42418000Y-58674000D03*
G04 #@! TO.P,U5,16*
G04 #@! TO.N,Net-(U5-Pad16)*
X42418000Y-61214000D03*
G04 #@! TO.P,U5,15*
G04 #@! TO.N,/PWM*
X42418000Y-63754000D03*
G04 #@! TO.P,U5,14*
G04 #@! TO.N,Net-(U5-Pad14)*
X42418000Y-66294000D03*
G04 #@! TO.P,U5,13*
G04 #@! TO.N,Net-(U5-Pad13)*
X42418000Y-68834000D03*
G04 #@! TO.P,U5,12*
G04 #@! TO.N,Net-(U5-Pad12)*
X42418000Y-71374000D03*
G04 #@! TO.P,U5,11*
G04 #@! TO.N,Net-(U5-Pad11)*
X42418000Y-73914000D03*
G04 #@! TO.P,U5,10*
G04 #@! TO.N,Net-(U5-Pad10)*
X42418000Y-76454000D03*
G04 #@! TO.P,U5,9*
G04 #@! TO.N,/BatOVInterrupt*
X42418000Y-78994000D03*
G04 #@! TO.P,U5,8*
G04 #@! TO.N,Net-(U5-Pad8)*
X42418000Y-85344000D03*
G04 #@! TO.P,U5,7*
G04 #@! TO.N,GND*
X42418000Y-87884000D03*
G04 #@! TO.P,U5,6*
G04 #@! TO.N,Net-(U5-Pad6)*
X42418000Y-90424000D03*
G04 #@! TO.P,U5,5*
G04 #@! TO.N,+5V*
X42418000Y-92964000D03*
G04 #@! TO.P,U5,4*
G04 #@! TO.N,Net-(U5-Pad4)*
X42418000Y-95504000D03*
G04 #@! TO.P,U5,3*
G04 #@! TO.N,GND*
X42418000Y-98044000D03*
G04 #@! TO.P,U5,2*
G04 #@! TO.N,Net-(U5-Pad2)*
X42418000Y-100584000D03*
G04 #@! TO.P,U5,1*
G04 #@! TO.N,/+18V_OUT*
X42418000Y-103124000D03*
G04 #@! TD*
D19*
G04 #@! TO.P,C4,1*
G04 #@! TO.N,+12V*
X96520000Y-75184000D03*
G04 #@! TO.P,C4,2*
G04 #@! TO.N,GND*
X96520000Y-77119000D03*
G04 #@! TD*
D20*
G04 #@! TO.P,U3,3*
G04 #@! TO.N,+12V*
X93472000Y-74168000D03*
G04 #@! TO.P,U3,2*
G04 #@! TO.N,GND*
X93472000Y-76708000D03*
D21*
G04 #@! TO.P,U3,1*
G04 #@! TO.N,/+18V_OUT*
X93472000Y-79248000D03*
G04 #@! TD*
D22*
G04 #@! TO.P,Ci2,2*
G04 #@! TO.N,/+Vp*
X170180000Y-34304000D03*
G04 #@! TO.P,Ci2,1*
G04 #@! TO.N,/-Vp*
X170180000Y-19304000D03*
G04 #@! TD*
G04 #@! TO.P,Ci1,2*
G04 #@! TO.N,/+Vp*
X180340000Y-34304000D03*
G04 #@! TO.P,Ci1,1*
G04 #@! TO.N,/-Vp*
X180340000Y-19304000D03*
G04 #@! TD*
G04 #@! TO.P,Ci3,2*
G04 #@! TO.N,/+Vp*
X160020000Y-34304000D03*
G04 #@! TO.P,Ci3,1*
G04 #@! TO.N,/-Vp*
X160020000Y-19304000D03*
G04 #@! TD*
D23*
G04 #@! TO.P,L3,2*
G04 #@! TO.N,Net-(C10-Pad1)*
X105107500Y-74168000D03*
G04 #@! TO.P,L3,1*
G04 #@! TO.N,+12V*
X103172500Y-74168000D03*
G04 #@! TD*
D19*
G04 #@! TO.P,C5,2*
G04 #@! TO.N,GND*
X98806000Y-77119000D03*
G04 #@! TO.P,C5,1*
G04 #@! TO.N,+12V*
X98806000Y-75184000D03*
G04 #@! TD*
D23*
G04 #@! TO.P,C2,1*
G04 #@! TO.N,/+18V_OUT*
X94742000Y-84582000D03*
G04 #@! TO.P,C2,2*
G04 #@! TO.N,GND*
X96677000Y-84582000D03*
G04 #@! TD*
D19*
G04 #@! TO.P,C10,2*
G04 #@! TO.N,GND*
X104902000Y-78740000D03*
G04 #@! TO.P,C10,1*
G04 #@! TO.N,Net-(C10-Pad1)*
X104902000Y-76805000D03*
G04 #@! TD*
G04 #@! TO.P,C8,1*
G04 #@! TO.N,+12V*
X101092000Y-75184000D03*
G04 #@! TO.P,C8,2*
G04 #@! TO.N,GND*
X101092000Y-77119000D03*
G04 #@! TD*
G04 #@! TO.P,C9,2*
G04 #@! TO.N,GND*
X107188000Y-78740000D03*
G04 #@! TO.P,C9,1*
G04 #@! TO.N,Net-(C10-Pad1)*
X107188000Y-76805000D03*
G04 #@! TD*
G04 #@! TO.P,C1,2*
G04 #@! TO.N,+5V*
X87630000Y-19050000D03*
G04 #@! TO.P,C1,1*
G04 #@! TO.N,GND*
X87630000Y-17115000D03*
G04 #@! TD*
D23*
G04 #@! TO.P,C3,2*
G04 #@! TO.N,GND*
X96677000Y-82042000D03*
G04 #@! TO.P,C3,1*
G04 #@! TO.N,/+18V_OUT*
X94742000Y-82042000D03*
G04 #@! TD*
D24*
G04 #@! TO.P,Co2,2*
G04 #@! TO.N,/-B*
X164592000Y-67750000D03*
G04 #@! TO.P,Co2,1*
G04 #@! TO.N,/+B*
X164592000Y-95250000D03*
G04 #@! TD*
G04 #@! TO.P,Cc1,1*
G04 #@! TO.N,/-B*
X177292000Y-64770000D03*
G04 #@! TO.P,Cc1,2*
G04 #@! TO.N,/+Vp*
X177292000Y-37270000D03*
G04 #@! TD*
G04 #@! TO.P,Cc2,2*
G04 #@! TO.N,/+Vp*
X164592000Y-37270000D03*
G04 #@! TO.P,Cc2,1*
G04 #@! TO.N,/-B*
X164592000Y-64770000D03*
G04 #@! TD*
G04 #@! TO.P,Cc3,1*
G04 #@! TO.N,/-B*
X151892000Y-64770000D03*
G04 #@! TO.P,Cc3,2*
G04 #@! TO.N,/+Vp*
X151892000Y-37270000D03*
G04 #@! TD*
G04 #@! TO.P,Co1,2*
G04 #@! TO.N,/-B*
X177292000Y-67750000D03*
G04 #@! TO.P,Co1,1*
G04 #@! TO.N,/+B*
X177292000Y-95250000D03*
G04 #@! TD*
G04 #@! TO.P,Cc4,1*
G04 #@! TO.N,/-B*
X139192000Y-64770000D03*
G04 #@! TO.P,Cc4,2*
G04 #@! TO.N,/+Vp*
X139192000Y-37270000D03*
G04 #@! TD*
G04 #@! TO.P,Co3,2*
G04 #@! TO.N,/-B*
X151892000Y-67750000D03*
G04 #@! TO.P,Co3,1*
G04 #@! TO.N,/+B*
X151892000Y-95250000D03*
G04 #@! TD*
D25*
G04 #@! TO.P,Screw4,1*
G04 #@! TO.N,/+B*
X190164000Y-90094000D03*
G04 #@! TD*
G04 #@! TO.P,Screw3,1*
G04 #@! TO.N,/-B*
X190164000Y-65094000D03*
G04 #@! TD*
G04 #@! TO.P,Screw2,1*
G04 #@! TO.N,/+Vp*
X190164000Y-40094000D03*
G04 #@! TD*
G04 #@! TO.P,Screw1,1*
G04 #@! TO.N,/-P_unfused*
X190164000Y-15094000D03*
G04 #@! TD*
D26*
G04 #@! TO.P,F1,2*
G04 #@! TO.N,/-P_unfused*
X183235600Y-7493000D03*
G04 #@! TO.P,F1,1*
G04 #@! TO.N,/-Vp*
X160782000Y-7493000D03*
G04 #@! TD*
D23*
G04 #@! TO.P,R1,2*
G04 #@! TO.N,/Gate*
X125935500Y-69342000D03*
G04 #@! TO.P,R1,1*
G04 #@! TO.N,/Source*
X124000500Y-69342000D03*
G04 #@! TD*
G04 #@! TO.P,R105,2*
G04 #@! TO.N,/Ip_sen+*
X92153500Y-14986000D03*
G04 #@! TO.P,R105,1*
G04 #@! TO.N,/+Ip*
X90218500Y-14986000D03*
G04 #@! TD*
G04 #@! TO.P,R106,1*
G04 #@! TO.N,GND*
X90218500Y-17018000D03*
G04 #@! TO.P,R106,2*
G04 #@! TO.N,/Ip_sen-*
X92153500Y-17018000D03*
G04 #@! TD*
D27*
G04 #@! TO.N,+5V*
X87630000Y-21082002D03*
X55626000Y-20574000D03*
X62484000Y-28702000D03*
G04 #@! TO.N,/+Vp*
X141224000Y-28956000D03*
G04 #@! TO.N,/-B*
X141224000Y-80264000D03*
G04 #@! TO.N,GND*
X90170000Y-19050000D03*
X62484000Y-26416000D03*
X98709000Y-80010000D03*
X107188000Y-71374000D03*
X55626000Y-17780000D03*
X65786000Y-93980000D03*
X65278000Y-70104000D03*
X65278000Y-74676000D03*
X58420000Y-28956000D03*
X62484000Y-30988000D03*
G04 #@! TO.N,/+18V_OUT*
X93472000Y-87122000D03*
X71019396Y-93247570D03*
G04 #@! TO.N,/Vbat_adc+*
X52578000Y-36068000D03*
G04 #@! TO.N,/Vpanel_adc+*
X52578000Y-61468000D03*
G04 #@! TO.N,/Ipanel_adc+*
X52578000Y-47498000D03*
G04 #@! TO.N,/PWM*
X45466000Y-63754000D03*
X107188000Y-73914000D03*
X65278000Y-72136000D03*
G04 #@! TO.N,/BatOVInterrupt*
X45466000Y-78994000D03*
G04 #@! TO.N,/+B*
X141224000Y-83566000D03*
G04 #@! TO.N,/-Vp*
X141224000Y-25654000D03*
G04 #@! TO.N,/Vb_sen+*
X58420000Y-43420400D03*
X62484000Y-43420400D03*
G04 #@! TO.N,/Vb_sen-*
X58420000Y-41415600D03*
X62484000Y-41415600D03*
G04 #@! TO.N,/Ip_sen+*
X94956186Y-14999600D03*
X58420000Y-54850400D03*
X65772400Y-22606000D03*
G04 #@! TO.N,/Ip_sen-*
X94956186Y-17004400D03*
X58420000Y-52845600D03*
X63767600Y-22606000D03*
G04 #@! TD*
D28*
G04 #@! TO.N,+5V*
X84175600Y-19050000D02*
X84074000Y-18948400D01*
X87630000Y-19050000D02*
X84175600Y-19050000D01*
X87630000Y-19050000D02*
X87630000Y-21082002D01*
X38862000Y-91408000D02*
X40418000Y-92964000D01*
X38862000Y-40132000D02*
X38862000Y-91408000D01*
X40418000Y-92964000D02*
X42418000Y-92964000D01*
X32766000Y-34036000D02*
X38862000Y-40132000D01*
X36830000Y-5334000D02*
X36830000Y-25146000D01*
X54102000Y-20574000D02*
X46736000Y-13208000D01*
X36830000Y-25146000D02*
X32766000Y-29210000D01*
X55626000Y-20574000D02*
X54102000Y-20574000D01*
X46736000Y-13208000D02*
X46736000Y-5080000D01*
X46736000Y-5080000D02*
X44958000Y-3302000D01*
X44958000Y-3302000D02*
X38862000Y-3302000D01*
X32766000Y-29210000D02*
X32766000Y-34036000D01*
X38862000Y-3302000D02*
X36830000Y-5334000D01*
X59944000Y-24892000D02*
X55626000Y-20574000D01*
X59944000Y-27364081D02*
X59944000Y-24892000D01*
X61281919Y-28702000D02*
X59944000Y-27364081D01*
X62484000Y-28702000D02*
X61281919Y-28702000D01*
G04 #@! TO.N,+12V*
X96520000Y-75184000D02*
X98806000Y-75184000D01*
X102156500Y-75184000D02*
X103172500Y-74168000D01*
X101092000Y-75184000D02*
X102156500Y-75184000D01*
X95504000Y-74168000D02*
X96520000Y-75184000D01*
X93472000Y-74168000D02*
X95504000Y-74168000D01*
X96520000Y-75184000D02*
X97536000Y-74168000D01*
X97790000Y-74168000D02*
X98806000Y-75184000D01*
X97536000Y-74168000D02*
X97790000Y-74168000D01*
X99568000Y-75184000D02*
X99568000Y-74676000D01*
X97536000Y-74168000D02*
X100076000Y-74168000D01*
X99568000Y-74676000D02*
X100076000Y-74168000D01*
X99568000Y-75184000D02*
X101092000Y-75184000D01*
X98806000Y-75184000D02*
X99568000Y-75184000D01*
X101092000Y-75184000D02*
X100076000Y-74168000D01*
X101092000Y-75184000D02*
X102108000Y-74168000D01*
X100076000Y-74168000D02*
X102108000Y-74168000D01*
X102108000Y-74168000D02*
X103172500Y-74168000D01*
X96520000Y-75184000D02*
X95504000Y-75184000D01*
X95504000Y-75184000D02*
X94488000Y-74168000D01*
X93472000Y-74168000D02*
X94488000Y-74168000D01*
X94488000Y-74168000D02*
X97536000Y-74168000D01*
G04 #@! TO.N,Net-(C10-Pad1)*
X105107500Y-76599500D02*
X104902000Y-76805000D01*
X105107500Y-74168000D02*
X105107500Y-76599500D01*
X109377000Y-76805000D02*
X109728000Y-76454000D01*
X107188000Y-76805000D02*
X109377000Y-76805000D01*
X107188000Y-76805000D02*
X104902000Y-76805000D01*
D29*
G04 #@! TO.N,/-P_unfused*
X190164000Y-15094000D02*
X190164000Y-14421400D01*
X190316400Y-14802400D02*
X183388000Y-7874000D01*
D30*
G04 #@! TO.N,/Gate*
X126978000Y-67528000D02*
X126978000Y-64770000D01*
X126978000Y-67528000D02*
X125926000Y-68580000D01*
D28*
X126978000Y-70358000D02*
X126978000Y-64770000D01*
X125935500Y-69315500D02*
X126978000Y-70358000D01*
X125935500Y-69088000D02*
X125935500Y-69315500D01*
D31*
X126978000Y-68299500D02*
X125935500Y-69342000D01*
X126978000Y-64770000D02*
X126978000Y-68299500D01*
X125935500Y-69342000D02*
X125962000Y-69342000D01*
X126978000Y-70358000D02*
X126978000Y-68299500D01*
D28*
X126978000Y-64770000D02*
X126978000Y-70634000D01*
X109728000Y-86614000D02*
X113538000Y-86614000D01*
X115570000Y-84582000D02*
X115570000Y-82042000D01*
X113538000Y-86614000D02*
X115570000Y-84582000D01*
X126978000Y-70634000D02*
X115570000Y-82042000D01*
D30*
G04 #@! TO.N,Net-(U5-Pad2)*
X42037000Y-100838000D02*
X41910000Y-100965000D01*
D28*
G04 #@! TO.N,GND*
X87533000Y-17018000D02*
X87630000Y-17115000D01*
X84074000Y-17018000D02*
X87533000Y-17018000D01*
X90121500Y-17115000D02*
X90218500Y-17018000D01*
X87630000Y-17115000D02*
X90121500Y-17115000D01*
X96677000Y-84582000D02*
X96677000Y-82042000D01*
X96520000Y-81885000D02*
X96677000Y-82042000D01*
X96520000Y-77119000D02*
X96520000Y-81885000D01*
X93883000Y-77119000D02*
X93472000Y-76708000D01*
X107442000Y-78994000D02*
X107188000Y-78740000D01*
X109728000Y-78994000D02*
X107442000Y-78994000D01*
X107188000Y-78740000D02*
X104902000Y-78740000D01*
X102713000Y-78740000D02*
X101092000Y-77119000D01*
X104902000Y-78740000D02*
X102713000Y-78740000D01*
X99979000Y-78740000D02*
X98709000Y-80010000D01*
X96677000Y-79248000D02*
X98806000Y-77119000D01*
X96677000Y-82042000D02*
X96677000Y-79248000D01*
X96520000Y-77119000D02*
X97536000Y-77119000D01*
X96677000Y-77978000D02*
X97536000Y-77119000D01*
X97536000Y-77119000D02*
X101092000Y-77119000D01*
X96800500Y-80772000D02*
X96677000Y-80772000D01*
X96677000Y-82042000D02*
X96677000Y-80772000D01*
X98806000Y-78766500D02*
X96800500Y-80772000D01*
X96677000Y-80772000D02*
X96677000Y-77978000D01*
X97536000Y-79248000D02*
X98806000Y-77978000D01*
X96677000Y-79248000D02*
X97536000Y-79248000D01*
X98806000Y-77119000D02*
X98806000Y-77978000D01*
X98806000Y-77978000D02*
X98806000Y-78766500D01*
X98806000Y-78766500D02*
X98806000Y-78740000D01*
X98806000Y-78740000D02*
X99568000Y-77978000D01*
X99568000Y-77978000D02*
X101346000Y-77978000D01*
X96520000Y-78389000D02*
X95250000Y-77119000D01*
X96520000Y-79091000D02*
X96520000Y-78389000D01*
X96520000Y-77119000D02*
X95250000Y-77119000D01*
X96677000Y-79248000D02*
X96520000Y-79091000D01*
X95250000Y-77119000D02*
X93883000Y-77119000D01*
X101092000Y-77119000D02*
X102011000Y-77119000D01*
X102011000Y-77119000D02*
X103632000Y-78740000D01*
X104902000Y-78740000D02*
X103632000Y-78740000D01*
X103632000Y-78740000D02*
X99979000Y-78740000D01*
X100819000Y-78740000D02*
X104902000Y-78740000D01*
X96677000Y-82882000D02*
X100819000Y-78740000D01*
X96677000Y-84582000D02*
X98324500Y-84582000D01*
X103632000Y-79248000D02*
X104140000Y-78740000D01*
X103632000Y-79274500D02*
X103632000Y-79248000D01*
X97028000Y-84582000D02*
X96677000Y-84582000D01*
X102362000Y-79248000D02*
X97028000Y-84582000D01*
X96677000Y-83820000D02*
X96774000Y-83820000D01*
X96677000Y-83820000D02*
X96677000Y-82882000D01*
X101346000Y-79248000D02*
X102362000Y-79248000D01*
X96774000Y-83820000D02*
X101346000Y-79248000D01*
X103634304Y-79248000D02*
X102362000Y-79248000D01*
X98324500Y-84582000D02*
X103634304Y-79248000D01*
X103634304Y-79248000D02*
X104140000Y-78740000D01*
X90218500Y-19001500D02*
X90170000Y-19050000D01*
X90218500Y-17018000D02*
X90218500Y-19001500D01*
X98709000Y-80010000D02*
X96677000Y-82042000D01*
X62484000Y-26416000D02*
X61634001Y-25566001D01*
X61634001Y-23788001D02*
X55626000Y-17780000D01*
X61634001Y-25566001D02*
X61634001Y-23788001D01*
D30*
X44958000Y-56134000D02*
X42418000Y-56134000D01*
X47498000Y-58674000D02*
X44958000Y-56134000D01*
X53848000Y-71628000D02*
X47498000Y-65278000D01*
X47498000Y-65278000D02*
X47498000Y-58674000D01*
X65278000Y-70104000D02*
X64008000Y-70104000D01*
X62484000Y-71628000D02*
X53848000Y-71628000D01*
X64008000Y-70104000D02*
X62484000Y-71628000D01*
D28*
X107188000Y-71374000D02*
X109728000Y-71374000D01*
G04 #@! TO.N,/+18V_OUT*
X94742000Y-85852000D02*
X94742000Y-83312000D01*
X94742000Y-83312000D02*
X93472000Y-83312000D01*
X93472000Y-83312000D02*
X93472000Y-79248000D01*
X94742000Y-85852000D02*
X93472000Y-87122000D01*
X93472000Y-87122000D02*
X93472000Y-83312000D01*
X93980000Y-85090000D02*
X94742000Y-85852000D01*
X93472000Y-79248000D02*
X94742000Y-80518000D01*
X94742000Y-80518000D02*
X94742000Y-83312000D01*
X93472000Y-79248000D02*
X93472000Y-80264000D01*
X93472000Y-80264000D02*
X93980000Y-80772000D01*
X94742000Y-82042000D02*
X93980000Y-82042000D01*
X93980000Y-80772000D02*
X93980000Y-82042000D01*
X94234000Y-84582000D02*
X93980000Y-84328000D01*
X94742000Y-84582000D02*
X94234000Y-84582000D01*
X93980000Y-84328000D02*
X93980000Y-85090000D01*
X93980000Y-83820000D02*
X93980000Y-84328000D01*
X93980000Y-82042000D02*
X93980000Y-82550000D01*
X93980000Y-85852000D02*
X94742000Y-85852000D01*
X61142966Y-103124000D02*
X71019396Y-93247570D01*
X42418000Y-103124000D02*
X61142966Y-103124000D01*
D30*
G04 #@! TO.N,/Vbat_adc+*
X45466000Y-15494000D02*
X42418000Y-15494000D01*
X50292000Y-20320000D02*
X45466000Y-15494000D01*
X50292000Y-34984081D02*
X50292000Y-20320000D01*
X52578000Y-36068000D02*
X51375919Y-36068000D01*
X51375919Y-36068000D02*
X50292000Y-34984081D01*
G04 #@! TO.N,/Vpanel_adc+*
X44704000Y-20574000D02*
X42418000Y-20574000D01*
X52578000Y-51816000D02*
X50038000Y-49276000D01*
X52578000Y-61468000D02*
X52578000Y-51816000D01*
X50038000Y-49276000D02*
X50038000Y-40386000D01*
X50038000Y-40386000D02*
X46228000Y-36576000D01*
X46228000Y-36576000D02*
X46228000Y-22098000D01*
X46228000Y-22098000D02*
X44704000Y-20574000D01*
G04 #@! TO.N,/Ipanel_adc+*
X44958000Y-18034000D02*
X42418000Y-18034000D01*
X48260000Y-21336000D02*
X44958000Y-18034000D01*
X48260000Y-35814000D02*
X48260000Y-21336000D01*
X52578000Y-47498000D02*
X52578000Y-40132000D01*
X52578000Y-40132000D02*
X48260000Y-35814000D01*
G04 #@! TO.N,/PWM*
X45466000Y-63754000D02*
X45466000Y-64956081D01*
X45466000Y-64956081D02*
X53495918Y-72985999D01*
X64428001Y-72985999D02*
X65278000Y-72136000D01*
X53495918Y-72985999D02*
X64428001Y-72985999D01*
D28*
X44418000Y-63754000D02*
X42418000Y-63754000D01*
X42418000Y-63754000D02*
X45466000Y-63754000D01*
X109728000Y-73914000D02*
X107188000Y-73914000D01*
G04 #@! TO.N,/BatOVInterrupt*
X42418000Y-78994000D02*
X45466000Y-78994000D01*
D32*
G04 #@! TO.N,/Vb_sen+*
X58420000Y-43420400D02*
X58952500Y-42887900D01*
X61951500Y-42887900D02*
X62484000Y-43420400D01*
X58952500Y-42887900D02*
X61951500Y-42887900D01*
G04 #@! TO.N,/Vb_sen-*
X58420000Y-41415600D02*
X58952500Y-41948100D01*
X58952500Y-41948100D02*
X61951500Y-41948100D01*
X61951500Y-41948100D02*
X62484000Y-41415600D01*
G04 #@! TO.N,/Ip_sen+*
X93749601Y-15532100D02*
X94423686Y-15532100D01*
X93203501Y-14986000D02*
X93749601Y-15532100D01*
X92153500Y-14986000D02*
X93203501Y-14986000D01*
X94423686Y-15532100D02*
X94956186Y-14999600D01*
X63207900Y-47946640D02*
X65239900Y-45914640D01*
X65239900Y-45914640D02*
X65239900Y-23138500D01*
X58952500Y-54317900D02*
X61916640Y-54317900D01*
X65239900Y-23138500D02*
X65772400Y-22606000D01*
X61916640Y-54317900D02*
X63207900Y-53026640D01*
X58420000Y-54850400D02*
X58952500Y-54317900D01*
X63207900Y-53026640D02*
X63207900Y-47946640D01*
D28*
G04 #@! TO.N,/+Ip*
X90116900Y-15087600D02*
X90218500Y-14986000D01*
X84074000Y-15087600D02*
X90116900Y-15087600D01*
D32*
G04 #@! TO.N,/Ip_sen-*
X93749601Y-16471900D02*
X94423686Y-16471900D01*
X92153500Y-17018000D02*
X93203501Y-17018000D01*
X94423686Y-16471900D02*
X94956186Y-17004400D01*
X93203501Y-17018000D02*
X93749601Y-16471900D01*
X64300100Y-23138500D02*
X63767600Y-22606000D01*
X64300100Y-45525360D02*
X64300100Y-23138500D01*
X62268100Y-47557360D02*
X64300100Y-45525360D01*
X62268100Y-52637360D02*
X62268100Y-47557360D01*
X58420000Y-52845600D02*
X58952500Y-53378100D01*
X61527360Y-53378100D02*
X62268100Y-52637360D01*
X58952500Y-53378100D02*
X61527360Y-53378100D01*
G04 #@! TD*
D30*
G04 #@! TO.N,/Source*
G36*
X81526137Y-12308947D02*
X81357409Y-13157200D01*
X81526137Y-14005453D01*
X81604278Y-14122400D01*
X81526137Y-14239347D01*
X81357409Y-15087600D01*
X81526137Y-15935853D01*
X81604278Y-16052800D01*
X81526137Y-16169747D01*
X81357409Y-17018000D01*
X81526137Y-17866253D01*
X81604278Y-17983200D01*
X81526137Y-18100147D01*
X81357409Y-18948400D01*
X81526137Y-19796653D01*
X82006633Y-20515767D01*
X82725747Y-20996263D01*
X83359881Y-21122400D01*
X84788119Y-21122400D01*
X85031442Y-21074000D01*
X85256000Y-21074000D01*
X85256000Y-21554220D01*
X85617420Y-22426765D01*
X86285237Y-23094582D01*
X87157782Y-23456002D01*
X88102218Y-23456002D01*
X88974763Y-23094582D01*
X89642580Y-22426765D01*
X90004000Y-21554220D01*
X90004000Y-21424000D01*
X90642218Y-21424000D01*
X91514763Y-21062580D01*
X92182580Y-20394763D01*
X92544000Y-19522218D01*
X92544000Y-19271856D01*
X92801000Y-19271856D01*
X93395635Y-19153576D01*
X93606874Y-19012431D01*
X93611423Y-19016980D01*
X94483968Y-19378400D01*
X95428404Y-19378400D01*
X96300949Y-19016980D01*
X96968766Y-18349163D01*
X97330186Y-17476618D01*
X97330186Y-16716000D01*
X118035289Y-16716000D01*
X118301156Y-18052603D01*
X119058280Y-19185720D01*
X120191397Y-19942844D01*
X121190610Y-20141600D01*
X121865390Y-20141600D01*
X122864603Y-19942844D01*
X123997720Y-19185720D01*
X124754844Y-18052603D01*
X125020711Y-16716000D01*
X124754844Y-15379397D01*
X123997720Y-14246280D01*
X122864603Y-13489156D01*
X121865390Y-13290400D01*
X121190610Y-13290400D01*
X120191397Y-13489156D01*
X119058280Y-14246280D01*
X118301156Y-15379397D01*
X118035289Y-16716000D01*
X97330186Y-16716000D01*
X97330186Y-16532182D01*
X97110577Y-16002000D01*
X97330186Y-15471818D01*
X97330186Y-14527382D01*
X96968766Y-13654837D01*
X96300949Y-12987020D01*
X95428404Y-12625600D01*
X94483968Y-12625600D01*
X93611423Y-12987020D01*
X93606874Y-12991569D01*
X93395635Y-12850424D01*
X92801000Y-12732144D01*
X91506000Y-12732144D01*
X91186000Y-12795796D01*
X90866000Y-12732144D01*
X89571000Y-12732144D01*
X88976365Y-12850424D01*
X88657325Y-13063600D01*
X86771973Y-13063600D01*
X86621863Y-12308947D01*
X86204287Y-11684000D01*
X121484570Y-11684000D01*
X122496365Y-11756365D01*
X123434244Y-11960388D01*
X124333545Y-12295810D01*
X125175948Y-12755797D01*
X125944316Y-13330990D01*
X126623010Y-14009684D01*
X127198203Y-14778052D01*
X127658190Y-15620455D01*
X127993612Y-16519756D01*
X128197635Y-17457635D01*
X128357907Y-19698530D01*
X128388852Y-19913759D01*
X128639214Y-21064652D01*
X128700474Y-21273285D01*
X129112076Y-22376834D01*
X129202405Y-22574626D01*
X129540000Y-23192885D01*
X129540000Y-26416000D01*
X119126000Y-26416000D01*
X118993175Y-26421799D01*
X118022829Y-26506693D01*
X117761213Y-26552823D01*
X116820350Y-26804927D01*
X116570721Y-26895785D01*
X115687930Y-27307437D01*
X115457869Y-27440263D01*
X114659972Y-27998957D01*
X114456472Y-28169713D01*
X113767713Y-28858472D01*
X113596957Y-29061972D01*
X113038263Y-29859869D01*
X112905437Y-30089930D01*
X112493785Y-30972721D01*
X112402927Y-31222350D01*
X112150823Y-32163213D01*
X112104693Y-32424829D01*
X112019799Y-33395175D01*
X112014000Y-33528000D01*
X112014000Y-36576000D01*
X112027038Y-36774921D01*
X112113586Y-37432321D01*
X112216555Y-37816609D01*
X112470302Y-38429209D01*
X112669225Y-38773754D01*
X113072879Y-39299805D01*
X113354195Y-39581121D01*
X113401947Y-39617762D01*
X113656008Y-39997992D01*
X114193722Y-40357281D01*
X114828000Y-40483447D01*
X115009074Y-40483447D01*
X115221679Y-40540414D01*
X115879079Y-40626962D01*
X116078000Y-40640000D01*
X116205000Y-40640000D01*
X116403922Y-40626962D01*
X117028452Y-40544741D01*
X117257204Y-40483447D01*
X117328000Y-40483447D01*
X117962278Y-40357281D01*
X118499992Y-39997992D01*
X118663909Y-39752673D01*
X118839000Y-39618321D01*
X119120321Y-39337000D01*
X119503791Y-38837251D01*
X119702711Y-38492710D01*
X119943771Y-37910740D01*
X120046741Y-37526452D01*
X120128962Y-36901922D01*
X120142000Y-36703000D01*
X120142000Y-35287916D01*
X120176648Y-35024742D01*
X120239672Y-34872588D01*
X120339930Y-34741930D01*
X120470588Y-34641672D01*
X120622742Y-34578648D01*
X120885916Y-34544000D01*
X122625691Y-34544000D01*
X122776636Y-34563872D01*
X122824216Y-34583580D01*
X122865071Y-34614929D01*
X122896420Y-34655784D01*
X122916128Y-34703364D01*
X122936000Y-34854309D01*
X122936000Y-37437118D01*
X122951707Y-37655356D01*
X123056116Y-38376951D01*
X123179836Y-38795527D01*
X123484500Y-39457933D01*
X123721790Y-39824273D01*
X124201717Y-40373154D01*
X124357192Y-40527106D01*
X124474787Y-40627902D01*
X124618040Y-40736707D01*
X125155672Y-41097088D01*
X125475482Y-41260514D01*
X126082521Y-41485072D01*
X126431692Y-41569118D01*
X127039430Y-41641231D01*
X127092163Y-41649975D01*
X128192725Y-45852120D01*
X128224830Y-45958669D01*
X128561878Y-46945295D01*
X128648947Y-47149961D01*
X129126012Y-48077021D01*
X129241942Y-48266833D01*
X129540000Y-48683162D01*
X129540000Y-50713015D01*
X124183773Y-50591283D01*
X124029952Y-50595558D01*
X123100919Y-50668442D01*
X122798475Y-50723261D01*
X121902962Y-50981082D01*
X121617670Y-51095474D01*
X120792105Y-51527744D01*
X120535569Y-51697056D01*
X119813534Y-52286191D01*
X119598932Y-52500184D01*
X119005764Y-53222961D01*
X118839784Y-53471368D01*
X118399020Y-54295979D01*
X118284690Y-54571996D01*
X118013270Y-55466751D01*
X117954987Y-55759764D01*
X117863339Y-56690277D01*
X117856000Y-56839656D01*
X117856000Y-64897000D01*
X117869038Y-65095922D01*
X117942604Y-65654712D01*
X118045573Y-66038999D01*
X118261258Y-66559709D01*
X118460180Y-66904251D01*
X118803285Y-67351395D01*
X119084605Y-67632715D01*
X119531749Y-67975820D01*
X119876291Y-68174742D01*
X120072871Y-68256168D01*
X120405997Y-68478756D01*
X121528000Y-68701936D01*
X122650002Y-68478756D01*
X122947246Y-68280144D01*
X123201709Y-68174742D01*
X123546251Y-67975820D01*
X123993395Y-67632715D01*
X124159408Y-67466702D01*
X124177990Y-67560122D01*
X123852424Y-68047365D01*
X123734144Y-68642000D01*
X123734144Y-70042000D01*
X123852424Y-70636635D01*
X123956795Y-70792837D01*
X114279774Y-80469859D01*
X114110779Y-80582778D01*
X113997860Y-80751773D01*
X113997859Y-80751774D01*
X113663435Y-81252275D01*
X113506349Y-82042000D01*
X113546001Y-82241343D01*
X113546000Y-83743632D01*
X112699633Y-84590000D01*
X111688941Y-84590000D01*
X111222635Y-84278424D01*
X110628000Y-84160144D01*
X108828000Y-84160144D01*
X108233365Y-84278424D01*
X107729258Y-84615258D01*
X107392424Y-85119365D01*
X107274144Y-85714000D01*
X107274144Y-87514000D01*
X107392424Y-88108635D01*
X107729258Y-88612742D01*
X108233365Y-88949576D01*
X108828000Y-89067856D01*
X110628000Y-89067856D01*
X111222635Y-88949576D01*
X111688941Y-88638000D01*
X113338661Y-88638000D01*
X113538000Y-88677651D01*
X113737339Y-88638000D01*
X113737344Y-88638000D01*
X114327725Y-88520566D01*
X114997222Y-88073222D01*
X115110143Y-87904224D01*
X116860227Y-86154141D01*
X117029222Y-86041222D01*
X117476566Y-85371725D01*
X117594000Y-84781344D01*
X117594000Y-84781339D01*
X117633651Y-84582000D01*
X117594000Y-84382661D01*
X117594000Y-82880367D01*
X128268227Y-72206141D01*
X128437222Y-72093222D01*
X128609635Y-71835188D01*
X128884565Y-71423727D01*
X128884565Y-71423726D01*
X128884566Y-71423725D01*
X129002000Y-70833344D01*
X129002000Y-70833340D01*
X129041651Y-70634001D01*
X129014201Y-70496000D01*
X129041651Y-70358000D01*
X129002000Y-70158661D01*
X129002000Y-68457922D01*
X129399992Y-68191992D01*
X129540000Y-67982455D01*
X129540000Y-81905943D01*
X129335075Y-81979831D01*
X129142206Y-82064868D01*
X127898690Y-82719339D01*
X127807125Y-82771653D01*
X124996650Y-84509038D01*
X124754844Y-83293397D01*
X123997720Y-82160280D01*
X122864603Y-81403156D01*
X121865390Y-81204400D01*
X121190610Y-81204400D01*
X120191397Y-81403156D01*
X119058280Y-82160280D01*
X118301156Y-83293397D01*
X118035289Y-84630000D01*
X118301156Y-85966603D01*
X119058280Y-87099720D01*
X119898100Y-87660869D01*
X118839687Y-88315161D01*
X117716129Y-88904740D01*
X116571627Y-89312653D01*
X115381183Y-89555831D01*
X114114658Y-89632718D01*
X95180016Y-89447084D01*
X94226791Y-89378954D01*
X94816763Y-89134580D01*
X95484580Y-88466763D01*
X95834581Y-87621786D01*
X96032224Y-87424143D01*
X96201222Y-87311222D01*
X96518852Y-86835856D01*
X97324500Y-86835856D01*
X97919135Y-86717576D01*
X98086120Y-86606000D01*
X98127483Y-86606000D01*
X98329191Y-86645646D01*
X98721300Y-86566724D01*
X99114225Y-86488566D01*
X99116215Y-86487236D01*
X99118557Y-86486765D01*
X99450750Y-86263707D01*
X99783722Y-86041222D01*
X99897932Y-85870295D01*
X104804513Y-80941356D01*
X105602000Y-80941356D01*
X106045000Y-80853238D01*
X106488000Y-80941356D01*
X106857340Y-80941356D01*
X107242656Y-81018000D01*
X107242660Y-81018000D01*
X107312279Y-81031848D01*
X107304000Y-81051836D01*
X107304000Y-82016164D01*
X107673032Y-82907086D01*
X108354914Y-83588968D01*
X109245836Y-83958000D01*
X110210164Y-83958000D01*
X111101086Y-83588968D01*
X111782968Y-82907086D01*
X112152000Y-82016164D01*
X112152000Y-81051836D01*
X111825668Y-80264000D01*
X112152000Y-79476164D01*
X112152000Y-78511836D01*
X111825668Y-77724000D01*
X112152000Y-76936164D01*
X112152000Y-75971836D01*
X111825668Y-75184000D01*
X112152000Y-74396164D01*
X112152000Y-73431836D01*
X111825668Y-72644000D01*
X112152000Y-71856164D01*
X112152000Y-70891836D01*
X111782968Y-70000914D01*
X111101086Y-69319032D01*
X110210164Y-68950000D01*
X109245836Y-68950000D01*
X108392672Y-69303392D01*
X107660218Y-69000000D01*
X106715782Y-69000000D01*
X105843237Y-69361420D01*
X105175420Y-70029237D01*
X104814000Y-70901782D01*
X104814000Y-71846218D01*
X104842136Y-71914144D01*
X104460000Y-71914144D01*
X104140000Y-71977796D01*
X103820000Y-71914144D01*
X102525000Y-71914144D01*
X101930365Y-72032424D01*
X101763380Y-72144000D01*
X100275339Y-72144000D01*
X100076000Y-72104349D01*
X100075999Y-72104349D01*
X99876660Y-72144000D01*
X97989339Y-72144000D01*
X97790000Y-72104349D01*
X97663000Y-72129611D01*
X97536000Y-72104349D01*
X97336661Y-72144000D01*
X95703339Y-72144000D01*
X95504000Y-72104349D01*
X95304661Y-72144000D01*
X94947952Y-72144000D01*
X94485782Y-71835188D01*
X93763412Y-71691500D01*
X93180588Y-71691500D01*
X92458218Y-71835188D01*
X91639043Y-72382543D01*
X91091688Y-73201718D01*
X90899483Y-74168000D01*
X91091688Y-75134282D01*
X91294626Y-75438000D01*
X91091688Y-75741718D01*
X90899483Y-76708000D01*
X91083085Y-77631032D01*
X91036424Y-77700865D01*
X90918144Y-78295500D01*
X90918144Y-80200500D01*
X91036424Y-80795135D01*
X91373258Y-81299242D01*
X91448000Y-81349183D01*
X91448000Y-83112655D01*
X91408348Y-83312000D01*
X91448001Y-83511349D01*
X91448000Y-85804806D01*
X91098000Y-86649782D01*
X91098000Y-87594218D01*
X91459420Y-88466763D01*
X91646285Y-88653628D01*
X91062286Y-88378237D01*
X90164589Y-87810745D01*
X89307015Y-87107516D01*
X84834443Y-82954414D01*
X84102337Y-82189788D01*
X83491916Y-81380428D01*
X82980584Y-80505114D01*
X82575372Y-79575876D01*
X82281880Y-78605556D01*
X82104150Y-77607521D01*
X82042000Y-76550762D01*
X82042000Y-58801000D01*
X82036201Y-58668175D01*
X81951307Y-57697829D01*
X81905177Y-57436213D01*
X81653073Y-56495350D01*
X81562215Y-56245721D01*
X81150563Y-55362930D01*
X81017737Y-55132869D01*
X80459043Y-54334972D01*
X80288287Y-54131472D01*
X79599528Y-53442713D01*
X79396028Y-53271957D01*
X78598131Y-52713263D01*
X78368070Y-52580437D01*
X77485279Y-52168785D01*
X77235650Y-52077927D01*
X76294787Y-51825823D01*
X76033171Y-51779693D01*
X75062825Y-51694799D01*
X74797175Y-51694799D01*
X73826829Y-51779693D01*
X73565213Y-51825823D01*
X72624350Y-52077927D01*
X72374721Y-52168785D01*
X71491930Y-52580437D01*
X71261869Y-52713263D01*
X70463972Y-53271957D01*
X70260472Y-53442713D01*
X69571713Y-54131472D01*
X69400957Y-54334972D01*
X68842263Y-55132869D01*
X68709437Y-55362930D01*
X68326000Y-56185214D01*
X68326000Y-33648996D01*
X68342155Y-33667417D01*
X70726583Y-36051845D01*
X70876461Y-36183284D01*
X71290674Y-36501121D01*
X71635217Y-36700043D01*
X72117579Y-36899844D01*
X72501868Y-37002814D01*
X73019506Y-37070962D01*
X73218427Y-37084000D01*
X75625573Y-37084000D01*
X75824494Y-37070962D01*
X76342132Y-37002814D01*
X76726421Y-36899844D01*
X77208783Y-36700043D01*
X77553326Y-36501121D01*
X77967539Y-36183284D01*
X78117417Y-36051845D01*
X79739845Y-34429417D01*
X79871284Y-34279539D01*
X80189121Y-33865326D01*
X80388043Y-33520783D01*
X80587844Y-33038421D01*
X80690814Y-32654132D01*
X80758962Y-32136494D01*
X80772000Y-31937573D01*
X80772000Y-23336000D01*
X80758962Y-23137079D01*
X80690814Y-22619441D01*
X80587844Y-22235152D01*
X80388043Y-21752790D01*
X80189122Y-21408249D01*
X79871285Y-20994035D01*
X79589965Y-20712715D01*
X79194465Y-20409237D01*
X79491539Y-20181284D01*
X79641417Y-20049845D01*
X79739845Y-19951417D01*
X79871284Y-19801539D01*
X80189121Y-19387326D01*
X80388043Y-19042783D01*
X80587844Y-18560421D01*
X80690814Y-18176132D01*
X80758962Y-17658494D01*
X80772000Y-17459573D01*
X80772000Y-11684000D01*
X81943713Y-11684000D01*
X81526137Y-12308947D01*
X81526137Y-12308947D01*
G37*
X81526137Y-12308947D02*
X81357409Y-13157200D01*
X81526137Y-14005453D01*
X81604278Y-14122400D01*
X81526137Y-14239347D01*
X81357409Y-15087600D01*
X81526137Y-15935853D01*
X81604278Y-16052800D01*
X81526137Y-16169747D01*
X81357409Y-17018000D01*
X81526137Y-17866253D01*
X81604278Y-17983200D01*
X81526137Y-18100147D01*
X81357409Y-18948400D01*
X81526137Y-19796653D01*
X82006633Y-20515767D01*
X82725747Y-20996263D01*
X83359881Y-21122400D01*
X84788119Y-21122400D01*
X85031442Y-21074000D01*
X85256000Y-21074000D01*
X85256000Y-21554220D01*
X85617420Y-22426765D01*
X86285237Y-23094582D01*
X87157782Y-23456002D01*
X88102218Y-23456002D01*
X88974763Y-23094582D01*
X89642580Y-22426765D01*
X90004000Y-21554220D01*
X90004000Y-21424000D01*
X90642218Y-21424000D01*
X91514763Y-21062580D01*
X92182580Y-20394763D01*
X92544000Y-19522218D01*
X92544000Y-19271856D01*
X92801000Y-19271856D01*
X93395635Y-19153576D01*
X93606874Y-19012431D01*
X93611423Y-19016980D01*
X94483968Y-19378400D01*
X95428404Y-19378400D01*
X96300949Y-19016980D01*
X96968766Y-18349163D01*
X97330186Y-17476618D01*
X97330186Y-16716000D01*
X118035289Y-16716000D01*
X118301156Y-18052603D01*
X119058280Y-19185720D01*
X120191397Y-19942844D01*
X121190610Y-20141600D01*
X121865390Y-20141600D01*
X122864603Y-19942844D01*
X123997720Y-19185720D01*
X124754844Y-18052603D01*
X125020711Y-16716000D01*
X124754844Y-15379397D01*
X123997720Y-14246280D01*
X122864603Y-13489156D01*
X121865390Y-13290400D01*
X121190610Y-13290400D01*
X120191397Y-13489156D01*
X119058280Y-14246280D01*
X118301156Y-15379397D01*
X118035289Y-16716000D01*
X97330186Y-16716000D01*
X97330186Y-16532182D01*
X97110577Y-16002000D01*
X97330186Y-15471818D01*
X97330186Y-14527382D01*
X96968766Y-13654837D01*
X96300949Y-12987020D01*
X95428404Y-12625600D01*
X94483968Y-12625600D01*
X93611423Y-12987020D01*
X93606874Y-12991569D01*
X93395635Y-12850424D01*
X92801000Y-12732144D01*
X91506000Y-12732144D01*
X91186000Y-12795796D01*
X90866000Y-12732144D01*
X89571000Y-12732144D01*
X88976365Y-12850424D01*
X88657325Y-13063600D01*
X86771973Y-13063600D01*
X86621863Y-12308947D01*
X86204287Y-11684000D01*
X121484570Y-11684000D01*
X122496365Y-11756365D01*
X123434244Y-11960388D01*
X124333545Y-12295810D01*
X125175948Y-12755797D01*
X125944316Y-13330990D01*
X126623010Y-14009684D01*
X127198203Y-14778052D01*
X127658190Y-15620455D01*
X127993612Y-16519756D01*
X128197635Y-17457635D01*
X128357907Y-19698530D01*
X128388852Y-19913759D01*
X128639214Y-21064652D01*
X128700474Y-21273285D01*
X129112076Y-22376834D01*
X129202405Y-22574626D01*
X129540000Y-23192885D01*
X129540000Y-26416000D01*
X119126000Y-26416000D01*
X118993175Y-26421799D01*
X118022829Y-26506693D01*
X117761213Y-26552823D01*
X116820350Y-26804927D01*
X116570721Y-26895785D01*
X115687930Y-27307437D01*
X115457869Y-27440263D01*
X114659972Y-27998957D01*
X114456472Y-28169713D01*
X113767713Y-28858472D01*
X113596957Y-29061972D01*
X113038263Y-29859869D01*
X112905437Y-30089930D01*
X112493785Y-30972721D01*
X112402927Y-31222350D01*
X112150823Y-32163213D01*
X112104693Y-32424829D01*
X112019799Y-33395175D01*
X112014000Y-33528000D01*
X112014000Y-36576000D01*
X112027038Y-36774921D01*
X112113586Y-37432321D01*
X112216555Y-37816609D01*
X112470302Y-38429209D01*
X112669225Y-38773754D01*
X113072879Y-39299805D01*
X113354195Y-39581121D01*
X113401947Y-39617762D01*
X113656008Y-39997992D01*
X114193722Y-40357281D01*
X114828000Y-40483447D01*
X115009074Y-40483447D01*
X115221679Y-40540414D01*
X115879079Y-40626962D01*
X116078000Y-40640000D01*
X116205000Y-40640000D01*
X116403922Y-40626962D01*
X117028452Y-40544741D01*
X117257204Y-40483447D01*
X117328000Y-40483447D01*
X117962278Y-40357281D01*
X118499992Y-39997992D01*
X118663909Y-39752673D01*
X118839000Y-39618321D01*
X119120321Y-39337000D01*
X119503791Y-38837251D01*
X119702711Y-38492710D01*
X119943771Y-37910740D01*
X120046741Y-37526452D01*
X120128962Y-36901922D01*
X120142000Y-36703000D01*
X120142000Y-35287916D01*
X120176648Y-35024742D01*
X120239672Y-34872588D01*
X120339930Y-34741930D01*
X120470588Y-34641672D01*
X120622742Y-34578648D01*
X120885916Y-34544000D01*
X122625691Y-34544000D01*
X122776636Y-34563872D01*
X122824216Y-34583580D01*
X122865071Y-34614929D01*
X122896420Y-34655784D01*
X122916128Y-34703364D01*
X122936000Y-34854309D01*
X122936000Y-37437118D01*
X122951707Y-37655356D01*
X123056116Y-38376951D01*
X123179836Y-38795527D01*
X123484500Y-39457933D01*
X123721790Y-39824273D01*
X124201717Y-40373154D01*
X124357192Y-40527106D01*
X124474787Y-40627902D01*
X124618040Y-40736707D01*
X125155672Y-41097088D01*
X125475482Y-41260514D01*
X126082521Y-41485072D01*
X126431692Y-41569118D01*
X127039430Y-41641231D01*
X127092163Y-41649975D01*
X128192725Y-45852120D01*
X128224830Y-45958669D01*
X128561878Y-46945295D01*
X128648947Y-47149961D01*
X129126012Y-48077021D01*
X129241942Y-48266833D01*
X129540000Y-48683162D01*
X129540000Y-50713015D01*
X124183773Y-50591283D01*
X124029952Y-50595558D01*
X123100919Y-50668442D01*
X122798475Y-50723261D01*
X121902962Y-50981082D01*
X121617670Y-51095474D01*
X120792105Y-51527744D01*
X120535569Y-51697056D01*
X119813534Y-52286191D01*
X119598932Y-52500184D01*
X119005764Y-53222961D01*
X118839784Y-53471368D01*
X118399020Y-54295979D01*
X118284690Y-54571996D01*
X118013270Y-55466751D01*
X117954987Y-55759764D01*
X117863339Y-56690277D01*
X117856000Y-56839656D01*
X117856000Y-64897000D01*
X117869038Y-65095922D01*
X117942604Y-65654712D01*
X118045573Y-66038999D01*
X118261258Y-66559709D01*
X118460180Y-66904251D01*
X118803285Y-67351395D01*
X119084605Y-67632715D01*
X119531749Y-67975820D01*
X119876291Y-68174742D01*
X120072871Y-68256168D01*
X120405997Y-68478756D01*
X121528000Y-68701936D01*
X122650002Y-68478756D01*
X122947246Y-68280144D01*
X123201709Y-68174742D01*
X123546251Y-67975820D01*
X123993395Y-67632715D01*
X124159408Y-67466702D01*
X124177990Y-67560122D01*
X123852424Y-68047365D01*
X123734144Y-68642000D01*
X123734144Y-70042000D01*
X123852424Y-70636635D01*
X123956795Y-70792837D01*
X114279774Y-80469859D01*
X114110779Y-80582778D01*
X113997860Y-80751773D01*
X113997859Y-80751774D01*
X113663435Y-81252275D01*
X113506349Y-82042000D01*
X113546001Y-82241343D01*
X113546000Y-83743632D01*
X112699633Y-84590000D01*
X111688941Y-84590000D01*
X111222635Y-84278424D01*
X110628000Y-84160144D01*
X108828000Y-84160144D01*
X108233365Y-84278424D01*
X107729258Y-84615258D01*
X107392424Y-85119365D01*
X107274144Y-85714000D01*
X107274144Y-87514000D01*
X107392424Y-88108635D01*
X107729258Y-88612742D01*
X108233365Y-88949576D01*
X108828000Y-89067856D01*
X110628000Y-89067856D01*
X111222635Y-88949576D01*
X111688941Y-88638000D01*
X113338661Y-88638000D01*
X113538000Y-88677651D01*
X113737339Y-88638000D01*
X113737344Y-88638000D01*
X114327725Y-88520566D01*
X114997222Y-88073222D01*
X115110143Y-87904224D01*
X116860227Y-86154141D01*
X117029222Y-86041222D01*
X117476566Y-85371725D01*
X117594000Y-84781344D01*
X117594000Y-84781339D01*
X117633651Y-84582000D01*
X117594000Y-84382661D01*
X117594000Y-82880367D01*
X128268227Y-72206141D01*
X128437222Y-72093222D01*
X128609635Y-71835188D01*
X128884565Y-71423727D01*
X128884565Y-71423726D01*
X128884566Y-71423725D01*
X129002000Y-70833344D01*
X129002000Y-70833340D01*
X129041651Y-70634001D01*
X129014201Y-70496000D01*
X129041651Y-70358000D01*
X129002000Y-70158661D01*
X129002000Y-68457922D01*
X129399992Y-68191992D01*
X129540000Y-67982455D01*
X129540000Y-81905943D01*
X129335075Y-81979831D01*
X129142206Y-82064868D01*
X127898690Y-82719339D01*
X127807125Y-82771653D01*
X124996650Y-84509038D01*
X124754844Y-83293397D01*
X123997720Y-82160280D01*
X122864603Y-81403156D01*
X121865390Y-81204400D01*
X121190610Y-81204400D01*
X120191397Y-81403156D01*
X119058280Y-82160280D01*
X118301156Y-83293397D01*
X118035289Y-84630000D01*
X118301156Y-85966603D01*
X119058280Y-87099720D01*
X119898100Y-87660869D01*
X118839687Y-88315161D01*
X117716129Y-88904740D01*
X116571627Y-89312653D01*
X115381183Y-89555831D01*
X114114658Y-89632718D01*
X95180016Y-89447084D01*
X94226791Y-89378954D01*
X94816763Y-89134580D01*
X95484580Y-88466763D01*
X95834581Y-87621786D01*
X96032224Y-87424143D01*
X96201222Y-87311222D01*
X96518852Y-86835856D01*
X97324500Y-86835856D01*
X97919135Y-86717576D01*
X98086120Y-86606000D01*
X98127483Y-86606000D01*
X98329191Y-86645646D01*
X98721300Y-86566724D01*
X99114225Y-86488566D01*
X99116215Y-86487236D01*
X99118557Y-86486765D01*
X99450750Y-86263707D01*
X99783722Y-86041222D01*
X99897932Y-85870295D01*
X104804513Y-80941356D01*
X105602000Y-80941356D01*
X106045000Y-80853238D01*
X106488000Y-80941356D01*
X106857340Y-80941356D01*
X107242656Y-81018000D01*
X107242660Y-81018000D01*
X107312279Y-81031848D01*
X107304000Y-81051836D01*
X107304000Y-82016164D01*
X107673032Y-82907086D01*
X108354914Y-83588968D01*
X109245836Y-83958000D01*
X110210164Y-83958000D01*
X111101086Y-83588968D01*
X111782968Y-82907086D01*
X112152000Y-82016164D01*
X112152000Y-81051836D01*
X111825668Y-80264000D01*
X112152000Y-79476164D01*
X112152000Y-78511836D01*
X111825668Y-77724000D01*
X112152000Y-76936164D01*
X112152000Y-75971836D01*
X111825668Y-75184000D01*
X112152000Y-74396164D01*
X112152000Y-73431836D01*
X111825668Y-72644000D01*
X112152000Y-71856164D01*
X112152000Y-70891836D01*
X111782968Y-70000914D01*
X111101086Y-69319032D01*
X110210164Y-68950000D01*
X109245836Y-68950000D01*
X108392672Y-69303392D01*
X107660218Y-69000000D01*
X106715782Y-69000000D01*
X105843237Y-69361420D01*
X105175420Y-70029237D01*
X104814000Y-70901782D01*
X104814000Y-71846218D01*
X104842136Y-71914144D01*
X104460000Y-71914144D01*
X104140000Y-71977796D01*
X103820000Y-71914144D01*
X102525000Y-71914144D01*
X101930365Y-72032424D01*
X101763380Y-72144000D01*
X100275339Y-72144000D01*
X100076000Y-72104349D01*
X100075999Y-72104349D01*
X99876660Y-72144000D01*
X97989339Y-72144000D01*
X97790000Y-72104349D01*
X97663000Y-72129611D01*
X97536000Y-72104349D01*
X97336661Y-72144000D01*
X95703339Y-72144000D01*
X95504000Y-72104349D01*
X95304661Y-72144000D01*
X94947952Y-72144000D01*
X94485782Y-71835188D01*
X93763412Y-71691500D01*
X93180588Y-71691500D01*
X92458218Y-71835188D01*
X91639043Y-72382543D01*
X91091688Y-73201718D01*
X90899483Y-74168000D01*
X91091688Y-75134282D01*
X91294626Y-75438000D01*
X91091688Y-75741718D01*
X90899483Y-76708000D01*
X91083085Y-77631032D01*
X91036424Y-77700865D01*
X90918144Y-78295500D01*
X90918144Y-80200500D01*
X91036424Y-80795135D01*
X91373258Y-81299242D01*
X91448000Y-81349183D01*
X91448000Y-83112655D01*
X91408348Y-83312000D01*
X91448001Y-83511349D01*
X91448000Y-85804806D01*
X91098000Y-86649782D01*
X91098000Y-87594218D01*
X91459420Y-88466763D01*
X91646285Y-88653628D01*
X91062286Y-88378237D01*
X90164589Y-87810745D01*
X89307015Y-87107516D01*
X84834443Y-82954414D01*
X84102337Y-82189788D01*
X83491916Y-81380428D01*
X82980584Y-80505114D01*
X82575372Y-79575876D01*
X82281880Y-78605556D01*
X82104150Y-77607521D01*
X82042000Y-76550762D01*
X82042000Y-58801000D01*
X82036201Y-58668175D01*
X81951307Y-57697829D01*
X81905177Y-57436213D01*
X81653073Y-56495350D01*
X81562215Y-56245721D01*
X81150563Y-55362930D01*
X81017737Y-55132869D01*
X80459043Y-54334972D01*
X80288287Y-54131472D01*
X79599528Y-53442713D01*
X79396028Y-53271957D01*
X78598131Y-52713263D01*
X78368070Y-52580437D01*
X77485279Y-52168785D01*
X77235650Y-52077927D01*
X76294787Y-51825823D01*
X76033171Y-51779693D01*
X75062825Y-51694799D01*
X74797175Y-51694799D01*
X73826829Y-51779693D01*
X73565213Y-51825823D01*
X72624350Y-52077927D01*
X72374721Y-52168785D01*
X71491930Y-52580437D01*
X71261869Y-52713263D01*
X70463972Y-53271957D01*
X70260472Y-53442713D01*
X69571713Y-54131472D01*
X69400957Y-54334972D01*
X68842263Y-55132869D01*
X68709437Y-55362930D01*
X68326000Y-56185214D01*
X68326000Y-33648996D01*
X68342155Y-33667417D01*
X70726583Y-36051845D01*
X70876461Y-36183284D01*
X71290674Y-36501121D01*
X71635217Y-36700043D01*
X72117579Y-36899844D01*
X72501868Y-37002814D01*
X73019506Y-37070962D01*
X73218427Y-37084000D01*
X75625573Y-37084000D01*
X75824494Y-37070962D01*
X76342132Y-37002814D01*
X76726421Y-36899844D01*
X77208783Y-36700043D01*
X77553326Y-36501121D01*
X77967539Y-36183284D01*
X78117417Y-36051845D01*
X79739845Y-34429417D01*
X79871284Y-34279539D01*
X80189121Y-33865326D01*
X80388043Y-33520783D01*
X80587844Y-33038421D01*
X80690814Y-32654132D01*
X80758962Y-32136494D01*
X80772000Y-31937573D01*
X80772000Y-23336000D01*
X80758962Y-23137079D01*
X80690814Y-22619441D01*
X80587844Y-22235152D01*
X80388043Y-21752790D01*
X80189122Y-21408249D01*
X79871285Y-20994035D01*
X79589965Y-20712715D01*
X79194465Y-20409237D01*
X79491539Y-20181284D01*
X79641417Y-20049845D01*
X79739845Y-19951417D01*
X79871284Y-19801539D01*
X80189121Y-19387326D01*
X80388043Y-19042783D01*
X80587844Y-18560421D01*
X80690814Y-18176132D01*
X80758962Y-17658494D01*
X80772000Y-17459573D01*
X80772000Y-11684000D01*
X81943713Y-11684000D01*
X81526137Y-12308947D01*
G04 #@! TO.N,/-B*
G36*
X133228819Y-52575311D02*
X133231704Y-52575361D01*
X133462554Y-52577984D01*
X133465440Y-52578000D01*
X188968318Y-52578000D01*
X190169987Y-52650688D01*
X191346547Y-52866300D01*
X192488548Y-53222162D01*
X193579337Y-53713087D01*
X194602980Y-54331900D01*
X195544589Y-55069604D01*
X196390396Y-55915411D01*
X197128100Y-56857020D01*
X197537001Y-57533425D01*
X197537001Y-76070575D01*
X197128100Y-76746980D01*
X196390396Y-77688589D01*
X195544589Y-78534396D01*
X194602980Y-79272100D01*
X193579337Y-79890913D01*
X192488548Y-80381838D01*
X191346547Y-80737700D01*
X190169987Y-80953312D01*
X188968318Y-81026000D01*
X141231682Y-81026000D01*
X140030013Y-80953312D01*
X138853453Y-80737700D01*
X137711452Y-80381838D01*
X136620663Y-79890913D01*
X135597020Y-79272100D01*
X134655411Y-78534396D01*
X133809604Y-77688589D01*
X133071900Y-76746980D01*
X132453087Y-75723337D01*
X131962162Y-74632548D01*
X131606300Y-73490547D01*
X131390688Y-72313987D01*
X131318000Y-71112318D01*
X131318000Y-64389000D01*
X131316403Y-64360561D01*
X131230431Y-63597537D01*
X131217774Y-63542085D01*
X130964168Y-62817322D01*
X130939490Y-62766077D01*
X130530968Y-62115917D01*
X130495505Y-62071448D01*
X129952552Y-61528495D01*
X129908083Y-61493032D01*
X129257923Y-61084510D01*
X129206678Y-61059832D01*
X128481915Y-60806226D01*
X128426463Y-60793569D01*
X127663439Y-60707597D01*
X127635000Y-60706000D01*
X124889916Y-60706000D01*
X124839857Y-60710982D01*
X124449493Y-60789455D01*
X124357152Y-60828144D01*
X124027438Y-61051372D01*
X123957222Y-61122739D01*
X123739384Y-61456038D01*
X123708273Y-61523493D01*
X123518351Y-62170833D01*
X123509226Y-62218214D01*
X123445148Y-62889790D01*
X123444000Y-62913916D01*
X123444000Y-64880352D01*
X123376972Y-65389484D01*
X123186881Y-65848404D01*
X122884489Y-66242489D01*
X122490404Y-66544881D01*
X122031484Y-66734972D01*
X121539000Y-66799808D01*
X121046516Y-66734972D01*
X120587596Y-66544881D01*
X120193511Y-66242489D01*
X119891119Y-65848404D01*
X119701028Y-65389484D01*
X119634000Y-64880352D01*
X119634000Y-56852135D01*
X119721973Y-55958936D01*
X119978869Y-55112060D01*
X120396047Y-54331576D01*
X120957242Y-53647757D01*
X121639667Y-53090941D01*
X122419616Y-52682557D01*
X123265643Y-52438983D01*
X124156216Y-52369116D01*
X133228819Y-52575311D01*
X133228819Y-52575311D01*
G37*
X133228819Y-52575311D02*
X133231704Y-52575361D01*
X133462554Y-52577984D01*
X133465440Y-52578000D01*
X188968318Y-52578000D01*
X190169987Y-52650688D01*
X191346547Y-52866300D01*
X192488548Y-53222162D01*
X193579337Y-53713087D01*
X194602980Y-54331900D01*
X195544589Y-55069604D01*
X196390396Y-55915411D01*
X197128100Y-56857020D01*
X197537001Y-57533425D01*
X197537001Y-76070575D01*
X197128100Y-76746980D01*
X196390396Y-77688589D01*
X195544589Y-78534396D01*
X194602980Y-79272100D01*
X193579337Y-79890913D01*
X192488548Y-80381838D01*
X191346547Y-80737700D01*
X190169987Y-80953312D01*
X188968318Y-81026000D01*
X141231682Y-81026000D01*
X140030013Y-80953312D01*
X138853453Y-80737700D01*
X137711452Y-80381838D01*
X136620663Y-79890913D01*
X135597020Y-79272100D01*
X134655411Y-78534396D01*
X133809604Y-77688589D01*
X133071900Y-76746980D01*
X132453087Y-75723337D01*
X131962162Y-74632548D01*
X131606300Y-73490547D01*
X131390688Y-72313987D01*
X131318000Y-71112318D01*
X131318000Y-64389000D01*
X131316403Y-64360561D01*
X131230431Y-63597537D01*
X131217774Y-63542085D01*
X130964168Y-62817322D01*
X130939490Y-62766077D01*
X130530968Y-62115917D01*
X130495505Y-62071448D01*
X129952552Y-61528495D01*
X129908083Y-61493032D01*
X129257923Y-61084510D01*
X129206678Y-61059832D01*
X128481915Y-60806226D01*
X128426463Y-60793569D01*
X127663439Y-60707597D01*
X127635000Y-60706000D01*
X124889916Y-60706000D01*
X124839857Y-60710982D01*
X124449493Y-60789455D01*
X124357152Y-60828144D01*
X124027438Y-61051372D01*
X123957222Y-61122739D01*
X123739384Y-61456038D01*
X123708273Y-61523493D01*
X123518351Y-62170833D01*
X123509226Y-62218214D01*
X123445148Y-62889790D01*
X123444000Y-62913916D01*
X123444000Y-64880352D01*
X123376972Y-65389484D01*
X123186881Y-65848404D01*
X122884489Y-66242489D01*
X122490404Y-66544881D01*
X122031484Y-66734972D01*
X121539000Y-66799808D01*
X121046516Y-66734972D01*
X120587596Y-66544881D01*
X120193511Y-66242489D01*
X119891119Y-65848404D01*
X119701028Y-65389484D01*
X119634000Y-64880352D01*
X119634000Y-56852135D01*
X119721973Y-55958936D01*
X119978869Y-55112060D01*
X120396047Y-54331576D01*
X120957242Y-53647757D01*
X121639667Y-53090941D01*
X122419616Y-52682557D01*
X123265643Y-52438983D01*
X124156216Y-52369116D01*
X133228819Y-52575311D01*
G04 #@! TO.N,/-Vp*
G36*
X194602980Y-2007900D02*
X195544589Y-2745604D01*
X196390396Y-3591411D01*
X197128100Y-4533020D01*
X197537000Y-5209424D01*
X197537000Y-21460576D01*
X197128100Y-22136980D01*
X196390396Y-23078589D01*
X195544589Y-23924396D01*
X194602980Y-24662100D01*
X193579337Y-25280913D01*
X192488548Y-25771838D01*
X191346547Y-26127700D01*
X190169987Y-26343312D01*
X188968318Y-26416000D01*
X138058074Y-26416000D01*
X136910429Y-26333919D01*
X135795041Y-26091281D01*
X134725532Y-25692375D01*
X133723686Y-25145326D01*
X132809884Y-24461262D01*
X132002738Y-23654116D01*
X131318674Y-22740314D01*
X130771625Y-21738468D01*
X130372719Y-20668959D01*
X130130081Y-19553571D01*
X129963329Y-17222071D01*
X129958171Y-17186199D01*
X129707809Y-16035306D01*
X129697599Y-16000534D01*
X129285997Y-14896985D01*
X129270942Y-14864020D01*
X128706478Y-13830281D01*
X128686885Y-13799793D01*
X127981050Y-12856908D01*
X127957318Y-12829520D01*
X127124480Y-11996682D01*
X127097092Y-11972950D01*
X126154207Y-11267115D01*
X126123719Y-11247522D01*
X125089980Y-10683058D01*
X125057015Y-10668003D01*
X123953466Y-10256401D01*
X123918694Y-10246191D01*
X122767801Y-9995829D01*
X122731929Y-9990671D01*
X121557120Y-9906647D01*
X121539000Y-9906000D01*
X80755924Y-9906000D01*
X80690814Y-9411441D01*
X80587844Y-9027152D01*
X80388043Y-8544790D01*
X80189122Y-8200249D01*
X79938783Y-7874000D01*
X177245983Y-7874000D01*
X177713517Y-10224448D01*
X178708854Y-11714076D01*
X183819265Y-16824487D01*
X184633220Y-18789549D01*
X186468451Y-20624780D01*
X188866296Y-21618000D01*
X191461704Y-21618000D01*
X193859549Y-20624780D01*
X195694780Y-18789549D01*
X196688000Y-16391704D01*
X196688000Y-13796296D01*
X195694780Y-11398451D01*
X194773661Y-10477332D01*
X194507062Y-10078338D01*
X194108067Y-9811738D01*
X193859549Y-9563220D01*
X193534844Y-9428723D01*
X193315152Y-9281929D01*
X187228076Y-3194854D01*
X185738448Y-2199517D01*
X183388000Y-1731983D01*
X181037552Y-2199517D01*
X179044939Y-3530939D01*
X177713517Y-5523552D01*
X177245983Y-7874000D01*
X79938783Y-7874000D01*
X79871285Y-7786035D01*
X79589965Y-7504715D01*
X79175751Y-7186878D01*
X78831210Y-6987957D01*
X78348848Y-6788156D01*
X77964559Y-6685186D01*
X77446921Y-6617038D01*
X77248000Y-6604000D01*
X74422000Y-6604000D01*
X74183594Y-6622763D01*
X73712652Y-6697353D01*
X73259177Y-6844696D01*
X72834334Y-7061164D01*
X72448584Y-7341427D01*
X72404739Y-7385272D01*
X72202443Y-7520442D01*
X71929024Y-7929641D01*
X71831164Y-8064334D01*
X71805920Y-8113879D01*
X71677741Y-8305711D01*
X71658251Y-8403696D01*
X71614696Y-8489177D01*
X71467353Y-8942652D01*
X71405632Y-9332344D01*
X71247486Y-9258599D01*
X70558530Y-8776187D01*
X69963813Y-8181470D01*
X69481401Y-7492514D01*
X69125955Y-6730257D01*
X68908273Y-5917857D01*
X68834970Y-5080000D01*
X68908273Y-4242143D01*
X69125955Y-3429743D01*
X69481401Y-2667486D01*
X69963813Y-1978530D01*
X70343343Y-1599000D01*
X193926576Y-1599000D01*
X194602980Y-2007900D01*
X194602980Y-2007900D01*
G37*
X194602980Y-2007900D02*
X195544589Y-2745604D01*
X196390396Y-3591411D01*
X197128100Y-4533020D01*
X197537000Y-5209424D01*
X197537000Y-21460576D01*
X197128100Y-22136980D01*
X196390396Y-23078589D01*
X195544589Y-23924396D01*
X194602980Y-24662100D01*
X193579337Y-25280913D01*
X192488548Y-25771838D01*
X191346547Y-26127700D01*
X190169987Y-26343312D01*
X188968318Y-26416000D01*
X138058074Y-26416000D01*
X136910429Y-26333919D01*
X135795041Y-26091281D01*
X134725532Y-25692375D01*
X133723686Y-25145326D01*
X132809884Y-24461262D01*
X132002738Y-23654116D01*
X131318674Y-22740314D01*
X130771625Y-21738468D01*
X130372719Y-20668959D01*
X130130081Y-19553571D01*
X129963329Y-17222071D01*
X129958171Y-17186199D01*
X129707809Y-16035306D01*
X129697599Y-16000534D01*
X129285997Y-14896985D01*
X129270942Y-14864020D01*
X128706478Y-13830281D01*
X128686885Y-13799793D01*
X127981050Y-12856908D01*
X127957318Y-12829520D01*
X127124480Y-11996682D01*
X127097092Y-11972950D01*
X126154207Y-11267115D01*
X126123719Y-11247522D01*
X125089980Y-10683058D01*
X125057015Y-10668003D01*
X123953466Y-10256401D01*
X123918694Y-10246191D01*
X122767801Y-9995829D01*
X122731929Y-9990671D01*
X121557120Y-9906647D01*
X121539000Y-9906000D01*
X80755924Y-9906000D01*
X80690814Y-9411441D01*
X80587844Y-9027152D01*
X80388043Y-8544790D01*
X80189122Y-8200249D01*
X79938783Y-7874000D01*
X177245983Y-7874000D01*
X177713517Y-10224448D01*
X178708854Y-11714076D01*
X183819265Y-16824487D01*
X184633220Y-18789549D01*
X186468451Y-20624780D01*
X188866296Y-21618000D01*
X191461704Y-21618000D01*
X193859549Y-20624780D01*
X195694780Y-18789549D01*
X196688000Y-16391704D01*
X196688000Y-13796296D01*
X195694780Y-11398451D01*
X194773661Y-10477332D01*
X194507062Y-10078338D01*
X194108067Y-9811738D01*
X193859549Y-9563220D01*
X193534844Y-9428723D01*
X193315152Y-9281929D01*
X187228076Y-3194854D01*
X185738448Y-2199517D01*
X183388000Y-1731983D01*
X181037552Y-2199517D01*
X179044939Y-3530939D01*
X177713517Y-5523552D01*
X177245983Y-7874000D01*
X79938783Y-7874000D01*
X79871285Y-7786035D01*
X79589965Y-7504715D01*
X79175751Y-7186878D01*
X78831210Y-6987957D01*
X78348848Y-6788156D01*
X77964559Y-6685186D01*
X77446921Y-6617038D01*
X77248000Y-6604000D01*
X74422000Y-6604000D01*
X74183594Y-6622763D01*
X73712652Y-6697353D01*
X73259177Y-6844696D01*
X72834334Y-7061164D01*
X72448584Y-7341427D01*
X72404739Y-7385272D01*
X72202443Y-7520442D01*
X71929024Y-7929641D01*
X71831164Y-8064334D01*
X71805920Y-8113879D01*
X71677741Y-8305711D01*
X71658251Y-8403696D01*
X71614696Y-8489177D01*
X71467353Y-8942652D01*
X71405632Y-9332344D01*
X71247486Y-9258599D01*
X70558530Y-8776187D01*
X69963813Y-8181470D01*
X69481401Y-7492514D01*
X69125955Y-6730257D01*
X68908273Y-5917857D01*
X68834970Y-5080000D01*
X68908273Y-4242143D01*
X69125955Y-3429743D01*
X69481401Y-2667486D01*
X69963813Y-1978530D01*
X70343343Y-1599000D01*
X193926576Y-1599000D01*
X194602980Y-2007900D01*
G04 #@! TO.N,GND*
G36*
X67214962Y-680952D02*
X67391048Y-857038D01*
X67540281Y-1056389D01*
X67659629Y-1274958D01*
X67746653Y-1508278D01*
X67799586Y-1751608D01*
X67818000Y-2009074D01*
X67818000Y-2027554D01*
X67505148Y-2698467D01*
X67414290Y-2948099D01*
X67185106Y-3803428D01*
X67138976Y-4065041D01*
X67061799Y-4947174D01*
X67061799Y-5212826D01*
X67138976Y-6094959D01*
X67185106Y-6356572D01*
X67414290Y-7211901D01*
X67505148Y-7461533D01*
X67818000Y-8132446D01*
X67818000Y-8686524D01*
X67488790Y-8752008D01*
X66994369Y-9082369D01*
X66664008Y-9576790D01*
X66548000Y-10160000D01*
X66548000Y-21429889D01*
X66439717Y-21357537D01*
X66183332Y-21251339D01*
X65911155Y-21197200D01*
X65633645Y-21197200D01*
X65361468Y-21251339D01*
X65105083Y-21357537D01*
X64874342Y-21511713D01*
X64770000Y-21616055D01*
X64665658Y-21511713D01*
X64434917Y-21357537D01*
X64178532Y-21251339D01*
X63906355Y-21197200D01*
X63628845Y-21197200D01*
X63356668Y-21251339D01*
X63100283Y-21357537D01*
X62869542Y-21511713D01*
X62673313Y-21707942D01*
X62519137Y-21938683D01*
X62412939Y-22195068D01*
X62358800Y-22467245D01*
X62358800Y-22744755D01*
X62412939Y-23016932D01*
X62519137Y-23273317D01*
X62673313Y-23504058D01*
X62869542Y-23700287D01*
X63100283Y-23854463D01*
X63356668Y-23960661D01*
X63423801Y-23974014D01*
X63423801Y-27649456D01*
X63382058Y-27607713D01*
X63151317Y-27453537D01*
X62894932Y-27347339D01*
X62622755Y-27293200D01*
X62345245Y-27293200D01*
X62073068Y-27347339D01*
X61816683Y-27453537D01*
X61645323Y-27568036D01*
X61002800Y-26925513D01*
X61002800Y-24944006D01*
X61007922Y-24891999D01*
X61002800Y-24839992D01*
X61002800Y-24839985D01*
X60987480Y-24684439D01*
X60926937Y-24484854D01*
X60828620Y-24300916D01*
X60696307Y-24139693D01*
X60655904Y-24106535D01*
X58216800Y-21667432D01*
X58216800Y-21590000D01*
X58174264Y-21376156D01*
X58053131Y-21194869D01*
X57871844Y-21073736D01*
X57658000Y-21031200D01*
X57580568Y-21031200D01*
X57034800Y-20485432D01*
X57034800Y-20435245D01*
X56980661Y-20163068D01*
X56874463Y-19906683D01*
X56720287Y-19675942D01*
X56524058Y-19479713D01*
X56293317Y-19325537D01*
X56036932Y-19219339D01*
X55764755Y-19165200D01*
X55487245Y-19165200D01*
X55215068Y-19219339D01*
X54958683Y-19325537D01*
X54727942Y-19479713D01*
X54692455Y-19515200D01*
X54540569Y-19515200D01*
X47794800Y-12769432D01*
X47794800Y-5132007D01*
X47799922Y-5080000D01*
X47794800Y-5027993D01*
X47794800Y-5027985D01*
X47779480Y-4872439D01*
X47718937Y-4672854D01*
X47620620Y-4488916D01*
X47564257Y-4420238D01*
X47521465Y-4368095D01*
X47521461Y-4368091D01*
X47488307Y-4327693D01*
X47447909Y-4294539D01*
X45743470Y-2590101D01*
X45710307Y-2549693D01*
X45549084Y-2417380D01*
X45365146Y-2319063D01*
X45165561Y-2258520D01*
X45010015Y-2243200D01*
X45010007Y-2243200D01*
X44958000Y-2238078D01*
X44905993Y-2243200D01*
X38914007Y-2243200D01*
X38862000Y-2238078D01*
X38809993Y-2243200D01*
X38809985Y-2243200D01*
X38672251Y-2256766D01*
X38654438Y-2258520D01*
X38454854Y-2319063D01*
X38270916Y-2417380D01*
X38109693Y-2549693D01*
X38076534Y-2590097D01*
X36118102Y-4548530D01*
X36077693Y-4581693D01*
X35945380Y-4742916D01*
X35876149Y-4872439D01*
X35847063Y-4926855D01*
X35792467Y-5106836D01*
X35786520Y-5126440D01*
X35771200Y-5281986D01*
X35771200Y-5281993D01*
X35766078Y-5334000D01*
X35771200Y-5386007D01*
X35771201Y-24707430D01*
X32054102Y-28424530D01*
X32013693Y-28457693D01*
X31881380Y-28618916D01*
X31783064Y-28802854D01*
X31783063Y-28802855D01*
X31722520Y-29002439D01*
X31720601Y-29021925D01*
X31707200Y-29157986D01*
X31707200Y-29157993D01*
X31702078Y-29210000D01*
X31707200Y-29262007D01*
X31707201Y-33983983D01*
X31702078Y-34036000D01*
X31722520Y-34243561D01*
X31783063Y-34443145D01*
X31783064Y-34443146D01*
X31881381Y-34627084D01*
X32013694Y-34788307D01*
X32054097Y-34821465D01*
X37803200Y-40570569D01*
X37803201Y-91355983D01*
X37798078Y-91408000D01*
X37818520Y-91615561D01*
X37879063Y-91815145D01*
X37879064Y-91815146D01*
X37977381Y-91999084D01*
X38109694Y-92160307D01*
X38150097Y-92193465D01*
X39632534Y-93675903D01*
X39665693Y-93716307D01*
X39826916Y-93848620D01*
X40010854Y-93946937D01*
X40163986Y-93993389D01*
X40210438Y-94007480D01*
X40229924Y-94009399D01*
X40365985Y-94022800D01*
X40365992Y-94022800D01*
X40417999Y-94027922D01*
X40470006Y-94022800D01*
X41540651Y-94022800D01*
X41572401Y-94039771D01*
X41790836Y-94106032D01*
X41961082Y-94122800D01*
X42874918Y-94122800D01*
X43045164Y-94106032D01*
X43263599Y-94039771D01*
X43464909Y-93932168D01*
X43641359Y-93787359D01*
X43786168Y-93610909D01*
X43893771Y-93409599D01*
X43960032Y-93191164D01*
X43982406Y-92964000D01*
X43960032Y-92736836D01*
X43893771Y-92518401D01*
X43786168Y-92317091D01*
X43641359Y-92140641D01*
X43464909Y-91995832D01*
X43263599Y-91888229D01*
X43045164Y-91821968D01*
X42874918Y-91805200D01*
X41961082Y-91805200D01*
X41790836Y-91821968D01*
X41572401Y-91888229D01*
X41540651Y-91905200D01*
X40856569Y-91905200D01*
X39920800Y-90969432D01*
X39920800Y-90424000D01*
X40853594Y-90424000D01*
X40875968Y-90651164D01*
X40942229Y-90869599D01*
X41049832Y-91070909D01*
X41194641Y-91247359D01*
X41371091Y-91392168D01*
X41572401Y-91499771D01*
X41790836Y-91566032D01*
X41961082Y-91582800D01*
X42874918Y-91582800D01*
X43045164Y-91566032D01*
X43263599Y-91499771D01*
X43464909Y-91392168D01*
X43641359Y-91247359D01*
X43786168Y-91070909D01*
X43893771Y-90869599D01*
X43960032Y-90651164D01*
X43982406Y-90424000D01*
X43960032Y-90196836D01*
X43893771Y-89978401D01*
X43786168Y-89777091D01*
X43641359Y-89600641D01*
X43464909Y-89455832D01*
X43263599Y-89348229D01*
X43045164Y-89281968D01*
X42874918Y-89265200D01*
X41961082Y-89265200D01*
X41790836Y-89281968D01*
X41572401Y-89348229D01*
X41371091Y-89455832D01*
X41194641Y-89600641D01*
X41049832Y-89777091D01*
X40942229Y-89978401D01*
X40875968Y-90196836D01*
X40853594Y-90424000D01*
X39920800Y-90424000D01*
X39920800Y-85344000D01*
X40853594Y-85344000D01*
X40875968Y-85571164D01*
X40942229Y-85789599D01*
X41049832Y-85990909D01*
X41194641Y-86167359D01*
X41371091Y-86312168D01*
X41572401Y-86419771D01*
X41790836Y-86486032D01*
X41961082Y-86502800D01*
X42874918Y-86502800D01*
X43045164Y-86486032D01*
X43263599Y-86419771D01*
X43464909Y-86312168D01*
X43641359Y-86167359D01*
X43786168Y-85990909D01*
X43893771Y-85789599D01*
X43960032Y-85571164D01*
X43982406Y-85344000D01*
X43960032Y-85116836D01*
X43893771Y-84898401D01*
X43786168Y-84697091D01*
X43641359Y-84520641D01*
X43464909Y-84375832D01*
X43263599Y-84268229D01*
X43045164Y-84201968D01*
X42874918Y-84185200D01*
X41961082Y-84185200D01*
X41790836Y-84201968D01*
X41572401Y-84268229D01*
X41371091Y-84375832D01*
X41194641Y-84520641D01*
X41049832Y-84697091D01*
X40942229Y-84898401D01*
X40875968Y-85116836D01*
X40853594Y-85344000D01*
X39920800Y-85344000D01*
X39920800Y-78994000D01*
X40853594Y-78994000D01*
X40875968Y-79221164D01*
X40942229Y-79439599D01*
X41049832Y-79640909D01*
X41194641Y-79817359D01*
X41371091Y-79962168D01*
X41572401Y-80069771D01*
X41790836Y-80136032D01*
X41961082Y-80152800D01*
X42874918Y-80152800D01*
X43045164Y-80136032D01*
X43263599Y-80069771D01*
X43295349Y-80052800D01*
X44532455Y-80052800D01*
X44567942Y-80088287D01*
X44798683Y-80242463D01*
X45055068Y-80348661D01*
X45327245Y-80402800D01*
X45604755Y-80402800D01*
X45876932Y-80348661D01*
X46133317Y-80242463D01*
X46364058Y-80088287D01*
X46560287Y-79892058D01*
X46714463Y-79661317D01*
X46820661Y-79404932D01*
X46874800Y-79132755D01*
X46874800Y-78855245D01*
X46820661Y-78583068D01*
X46714463Y-78326683D01*
X46560287Y-78095942D01*
X46364058Y-77899713D01*
X46133317Y-77745537D01*
X45876932Y-77639339D01*
X45604755Y-77585200D01*
X45327245Y-77585200D01*
X45055068Y-77639339D01*
X44798683Y-77745537D01*
X44567942Y-77899713D01*
X44532455Y-77935200D01*
X43295349Y-77935200D01*
X43263599Y-77918229D01*
X43045164Y-77851968D01*
X42874918Y-77835200D01*
X41961082Y-77835200D01*
X41790836Y-77851968D01*
X41572401Y-77918229D01*
X41371091Y-78025832D01*
X41194641Y-78170641D01*
X41049832Y-78347091D01*
X40942229Y-78548401D01*
X40875968Y-78766836D01*
X40853594Y-78994000D01*
X39920800Y-78994000D01*
X39920800Y-76454000D01*
X40853594Y-76454000D01*
X40875968Y-76681164D01*
X40942229Y-76899599D01*
X41049832Y-77100909D01*
X41194641Y-77277359D01*
X41371091Y-77422168D01*
X41572401Y-77529771D01*
X41790836Y-77596032D01*
X41961082Y-77612800D01*
X42874918Y-77612800D01*
X43045164Y-77596032D01*
X43263599Y-77529771D01*
X43464909Y-77422168D01*
X43641359Y-77277359D01*
X43786168Y-77100909D01*
X43893771Y-76899599D01*
X43960032Y-76681164D01*
X43982406Y-76454000D01*
X43960032Y-76226836D01*
X43893771Y-76008401D01*
X43786168Y-75807091D01*
X43641359Y-75630641D01*
X43464909Y-75485832D01*
X43263599Y-75378229D01*
X43045164Y-75311968D01*
X42874918Y-75295200D01*
X41961082Y-75295200D01*
X41790836Y-75311968D01*
X41572401Y-75378229D01*
X41371091Y-75485832D01*
X41194641Y-75630641D01*
X41049832Y-75807091D01*
X40942229Y-76008401D01*
X40875968Y-76226836D01*
X40853594Y-76454000D01*
X39920800Y-76454000D01*
X39920800Y-73914000D01*
X40853594Y-73914000D01*
X40875968Y-74141164D01*
X40942229Y-74359599D01*
X41049832Y-74560909D01*
X41194641Y-74737359D01*
X41371091Y-74882168D01*
X41572401Y-74989771D01*
X41790836Y-75056032D01*
X41961082Y-75072800D01*
X42874918Y-75072800D01*
X43045164Y-75056032D01*
X43263599Y-74989771D01*
X43464909Y-74882168D01*
X43641359Y-74737359D01*
X43786168Y-74560909D01*
X43893771Y-74359599D01*
X43960032Y-74141164D01*
X43982406Y-73914000D01*
X43960032Y-73686836D01*
X43893771Y-73468401D01*
X43786168Y-73267091D01*
X43641359Y-73090641D01*
X43464909Y-72945832D01*
X43263599Y-72838229D01*
X43045164Y-72771968D01*
X42874918Y-72755200D01*
X41961082Y-72755200D01*
X41790836Y-72771968D01*
X41572401Y-72838229D01*
X41371091Y-72945832D01*
X41194641Y-73090641D01*
X41049832Y-73267091D01*
X40942229Y-73468401D01*
X40875968Y-73686836D01*
X40853594Y-73914000D01*
X39920800Y-73914000D01*
X39920800Y-71374000D01*
X40853594Y-71374000D01*
X40875968Y-71601164D01*
X40942229Y-71819599D01*
X41049832Y-72020909D01*
X41194641Y-72197359D01*
X41371091Y-72342168D01*
X41572401Y-72449771D01*
X41790836Y-72516032D01*
X41961082Y-72532800D01*
X42874918Y-72532800D01*
X43045164Y-72516032D01*
X43263599Y-72449771D01*
X43464909Y-72342168D01*
X43641359Y-72197359D01*
X43786168Y-72020909D01*
X43893771Y-71819599D01*
X43960032Y-71601164D01*
X43982406Y-71374000D01*
X43960032Y-71146836D01*
X43893771Y-70928401D01*
X43786168Y-70727091D01*
X43641359Y-70550641D01*
X43464909Y-70405832D01*
X43263599Y-70298229D01*
X43045164Y-70231968D01*
X42874918Y-70215200D01*
X41961082Y-70215200D01*
X41790836Y-70231968D01*
X41572401Y-70298229D01*
X41371091Y-70405832D01*
X41194641Y-70550641D01*
X41049832Y-70727091D01*
X40942229Y-70928401D01*
X40875968Y-71146836D01*
X40853594Y-71374000D01*
X39920800Y-71374000D01*
X39920800Y-68834000D01*
X40853594Y-68834000D01*
X40875968Y-69061164D01*
X40942229Y-69279599D01*
X41049832Y-69480909D01*
X41194641Y-69657359D01*
X41371091Y-69802168D01*
X41572401Y-69909771D01*
X41790836Y-69976032D01*
X41961082Y-69992800D01*
X42874918Y-69992800D01*
X43045164Y-69976032D01*
X43263599Y-69909771D01*
X43464909Y-69802168D01*
X43641359Y-69657359D01*
X43786168Y-69480909D01*
X43893771Y-69279599D01*
X43960032Y-69061164D01*
X43982406Y-68834000D01*
X43960032Y-68606836D01*
X43893771Y-68388401D01*
X43786168Y-68187091D01*
X43641359Y-68010641D01*
X43464909Y-67865832D01*
X43263599Y-67758229D01*
X43045164Y-67691968D01*
X42874918Y-67675200D01*
X41961082Y-67675200D01*
X41790836Y-67691968D01*
X41572401Y-67758229D01*
X41371091Y-67865832D01*
X41194641Y-68010641D01*
X41049832Y-68187091D01*
X40942229Y-68388401D01*
X40875968Y-68606836D01*
X40853594Y-68834000D01*
X39920800Y-68834000D01*
X39920800Y-66294000D01*
X40853594Y-66294000D01*
X40875968Y-66521164D01*
X40942229Y-66739599D01*
X41049832Y-66940909D01*
X41194641Y-67117359D01*
X41371091Y-67262168D01*
X41572401Y-67369771D01*
X41790836Y-67436032D01*
X41961082Y-67452800D01*
X42874918Y-67452800D01*
X43045164Y-67436032D01*
X43263599Y-67369771D01*
X43464909Y-67262168D01*
X43641359Y-67117359D01*
X43786168Y-66940909D01*
X43893771Y-66739599D01*
X43960032Y-66521164D01*
X43982406Y-66294000D01*
X43960032Y-66066836D01*
X43893771Y-65848401D01*
X43786168Y-65647091D01*
X43641359Y-65470641D01*
X43464909Y-65325832D01*
X43263599Y-65218229D01*
X43045164Y-65151968D01*
X42874918Y-65135200D01*
X41961082Y-65135200D01*
X41790836Y-65151968D01*
X41572401Y-65218229D01*
X41371091Y-65325832D01*
X41194641Y-65470641D01*
X41049832Y-65647091D01*
X40942229Y-65848401D01*
X40875968Y-66066836D01*
X40853594Y-66294000D01*
X39920800Y-66294000D01*
X39920800Y-61214000D01*
X40853594Y-61214000D01*
X40875968Y-61441164D01*
X40942229Y-61659599D01*
X41049832Y-61860909D01*
X41194641Y-62037359D01*
X41371091Y-62182168D01*
X41572401Y-62289771D01*
X41790836Y-62356032D01*
X41961082Y-62372800D01*
X42874918Y-62372800D01*
X43045164Y-62356032D01*
X43263599Y-62289771D01*
X43464909Y-62182168D01*
X43641359Y-62037359D01*
X43786168Y-61860909D01*
X43893771Y-61659599D01*
X43960032Y-61441164D01*
X43982406Y-61214000D01*
X43960032Y-60986836D01*
X43893771Y-60768401D01*
X43786168Y-60567091D01*
X43641359Y-60390641D01*
X43464909Y-60245832D01*
X43263599Y-60138229D01*
X43045164Y-60071968D01*
X42874918Y-60055200D01*
X41961082Y-60055200D01*
X41790836Y-60071968D01*
X41572401Y-60138229D01*
X41371091Y-60245832D01*
X41194641Y-60390641D01*
X41049832Y-60567091D01*
X40942229Y-60768401D01*
X40875968Y-60986836D01*
X40853594Y-61214000D01*
X39920800Y-61214000D01*
X39920800Y-58674000D01*
X40853594Y-58674000D01*
X40875968Y-58901164D01*
X40942229Y-59119599D01*
X41049832Y-59320909D01*
X41194641Y-59497359D01*
X41371091Y-59642168D01*
X41572401Y-59749771D01*
X41790836Y-59816032D01*
X41961082Y-59832800D01*
X42874918Y-59832800D01*
X43045164Y-59816032D01*
X43263599Y-59749771D01*
X43464909Y-59642168D01*
X43641359Y-59497359D01*
X43786168Y-59320909D01*
X43893771Y-59119599D01*
X43960032Y-58901164D01*
X43982406Y-58674000D01*
X43960032Y-58446836D01*
X43893771Y-58228401D01*
X43786168Y-58027091D01*
X43641359Y-57850641D01*
X43464909Y-57705832D01*
X43263599Y-57598229D01*
X43045164Y-57531968D01*
X42874918Y-57515200D01*
X41961082Y-57515200D01*
X41790836Y-57531968D01*
X41572401Y-57598229D01*
X41371091Y-57705832D01*
X41194641Y-57850641D01*
X41049832Y-58027091D01*
X40942229Y-58228401D01*
X40875968Y-58446836D01*
X40853594Y-58674000D01*
X39920800Y-58674000D01*
X39920800Y-53594000D01*
X40853594Y-53594000D01*
X40875968Y-53821164D01*
X40942229Y-54039599D01*
X41049832Y-54240909D01*
X41194641Y-54417359D01*
X41371091Y-54562168D01*
X41572401Y-54669771D01*
X41790836Y-54736032D01*
X41961082Y-54752800D01*
X42874918Y-54752800D01*
X43045164Y-54736032D01*
X43263599Y-54669771D01*
X43464909Y-54562168D01*
X43641359Y-54417359D01*
X43786168Y-54240909D01*
X43893771Y-54039599D01*
X43960032Y-53821164D01*
X43982406Y-53594000D01*
X43960032Y-53366836D01*
X43893771Y-53148401D01*
X43786168Y-52947091D01*
X43641359Y-52770641D01*
X43464909Y-52625832D01*
X43263599Y-52518229D01*
X43045164Y-52451968D01*
X42874918Y-52435200D01*
X41961082Y-52435200D01*
X41790836Y-52451968D01*
X41572401Y-52518229D01*
X41371091Y-52625832D01*
X41194641Y-52770641D01*
X41049832Y-52947091D01*
X40942229Y-53148401D01*
X40875968Y-53366836D01*
X40853594Y-53594000D01*
X39920800Y-53594000D01*
X39920800Y-51054000D01*
X40853594Y-51054000D01*
X40875968Y-51281164D01*
X40942229Y-51499599D01*
X41049832Y-51700909D01*
X41194641Y-51877359D01*
X41371091Y-52022168D01*
X41572401Y-52129771D01*
X41790836Y-52196032D01*
X41961082Y-52212800D01*
X42874918Y-52212800D01*
X43045164Y-52196032D01*
X43263599Y-52129771D01*
X43464909Y-52022168D01*
X43641359Y-51877359D01*
X43786168Y-51700909D01*
X43893771Y-51499599D01*
X43960032Y-51281164D01*
X43982406Y-51054000D01*
X43960032Y-50826836D01*
X43893771Y-50608401D01*
X43786168Y-50407091D01*
X43641359Y-50230641D01*
X43464909Y-50085832D01*
X43263599Y-49978229D01*
X43045164Y-49911968D01*
X42874918Y-49895200D01*
X41961082Y-49895200D01*
X41790836Y-49911968D01*
X41572401Y-49978229D01*
X41371091Y-50085832D01*
X41194641Y-50230641D01*
X41049832Y-50407091D01*
X40942229Y-50608401D01*
X40875968Y-50826836D01*
X40853594Y-51054000D01*
X39920800Y-51054000D01*
X39920800Y-48514000D01*
X40853594Y-48514000D01*
X40875968Y-48741164D01*
X40942229Y-48959599D01*
X41049832Y-49160909D01*
X41194641Y-49337359D01*
X41371091Y-49482168D01*
X41572401Y-49589771D01*
X41790836Y-49656032D01*
X41961082Y-49672800D01*
X42874918Y-49672800D01*
X43045164Y-49656032D01*
X43263599Y-49589771D01*
X43464909Y-49482168D01*
X43641359Y-49337359D01*
X43786168Y-49160909D01*
X43893771Y-48959599D01*
X43960032Y-48741164D01*
X43982406Y-48514000D01*
X43960032Y-48286836D01*
X43893771Y-48068401D01*
X43786168Y-47867091D01*
X43641359Y-47690641D01*
X43464909Y-47545832D01*
X43263599Y-47438229D01*
X43045164Y-47371968D01*
X42874918Y-47355200D01*
X41961082Y-47355200D01*
X41790836Y-47371968D01*
X41572401Y-47438229D01*
X41371091Y-47545832D01*
X41194641Y-47690641D01*
X41049832Y-47867091D01*
X40942229Y-48068401D01*
X40875968Y-48286836D01*
X40853594Y-48514000D01*
X39920800Y-48514000D01*
X39920800Y-45974000D01*
X40853594Y-45974000D01*
X40875968Y-46201164D01*
X40942229Y-46419599D01*
X41049832Y-46620909D01*
X41194641Y-46797359D01*
X41371091Y-46942168D01*
X41572401Y-47049771D01*
X41790836Y-47116032D01*
X41961082Y-47132800D01*
X42874918Y-47132800D01*
X43045164Y-47116032D01*
X43263599Y-47049771D01*
X43464909Y-46942168D01*
X43641359Y-46797359D01*
X43786168Y-46620909D01*
X43893771Y-46419599D01*
X43960032Y-46201164D01*
X43982406Y-45974000D01*
X43960032Y-45746836D01*
X43893771Y-45528401D01*
X43786168Y-45327091D01*
X43641359Y-45150641D01*
X43464909Y-45005832D01*
X43263599Y-44898229D01*
X43045164Y-44831968D01*
X42874918Y-44815200D01*
X41961082Y-44815200D01*
X41790836Y-44831968D01*
X41572401Y-44898229D01*
X41371091Y-45005832D01*
X41194641Y-45150641D01*
X41049832Y-45327091D01*
X40942229Y-45528401D01*
X40875968Y-45746836D01*
X40853594Y-45974000D01*
X39920800Y-45974000D01*
X39920800Y-43434000D01*
X40853594Y-43434000D01*
X40875968Y-43661164D01*
X40942229Y-43879599D01*
X41049832Y-44080909D01*
X41194641Y-44257359D01*
X41371091Y-44402168D01*
X41572401Y-44509771D01*
X41790836Y-44576032D01*
X41961082Y-44592800D01*
X42874918Y-44592800D01*
X43045164Y-44576032D01*
X43263599Y-44509771D01*
X43464909Y-44402168D01*
X43641359Y-44257359D01*
X43786168Y-44080909D01*
X43893771Y-43879599D01*
X43960032Y-43661164D01*
X43982406Y-43434000D01*
X43960032Y-43206836D01*
X43893771Y-42988401D01*
X43786168Y-42787091D01*
X43641359Y-42610641D01*
X43464909Y-42465832D01*
X43263599Y-42358229D01*
X43045164Y-42291968D01*
X42874918Y-42275200D01*
X41961082Y-42275200D01*
X41790836Y-42291968D01*
X41572401Y-42358229D01*
X41371091Y-42465832D01*
X41194641Y-42610641D01*
X41049832Y-42787091D01*
X40942229Y-42988401D01*
X40875968Y-43206836D01*
X40853594Y-43434000D01*
X39920800Y-43434000D01*
X39920800Y-40894000D01*
X40853594Y-40894000D01*
X40875968Y-41121164D01*
X40942229Y-41339599D01*
X41049832Y-41540909D01*
X41194641Y-41717359D01*
X41371091Y-41862168D01*
X41572401Y-41969771D01*
X41790836Y-42036032D01*
X41961082Y-42052800D01*
X42874918Y-42052800D01*
X43045164Y-42036032D01*
X43263599Y-41969771D01*
X43464909Y-41862168D01*
X43641359Y-41717359D01*
X43786168Y-41540909D01*
X43893771Y-41339599D01*
X43960032Y-41121164D01*
X43982406Y-40894000D01*
X43960032Y-40666836D01*
X43893771Y-40448401D01*
X43786168Y-40247091D01*
X43641359Y-40070641D01*
X43464909Y-39925832D01*
X43263599Y-39818229D01*
X43045164Y-39751968D01*
X42874918Y-39735200D01*
X41961082Y-39735200D01*
X41790836Y-39751968D01*
X41572401Y-39818229D01*
X41371091Y-39925832D01*
X41194641Y-40070641D01*
X41049832Y-40247091D01*
X40942229Y-40448401D01*
X40875968Y-40666836D01*
X40853594Y-40894000D01*
X39920800Y-40894000D01*
X39920800Y-40184007D01*
X39925922Y-40132000D01*
X39920800Y-40079993D01*
X39920800Y-40079985D01*
X39905480Y-39924439D01*
X39870306Y-39808483D01*
X39844937Y-39724854D01*
X39835347Y-39706912D01*
X39746620Y-39540916D01*
X39614307Y-39379693D01*
X39573904Y-39346535D01*
X38581369Y-38354000D01*
X40853594Y-38354000D01*
X40875968Y-38581164D01*
X40942229Y-38799599D01*
X41049832Y-39000909D01*
X41194641Y-39177359D01*
X41371091Y-39322168D01*
X41572401Y-39429771D01*
X41790836Y-39496032D01*
X41961082Y-39512800D01*
X42874918Y-39512800D01*
X43045164Y-39496032D01*
X43263599Y-39429771D01*
X43464909Y-39322168D01*
X43641359Y-39177359D01*
X43786168Y-39000909D01*
X43893771Y-38799599D01*
X43960032Y-38581164D01*
X43982406Y-38354000D01*
X43960032Y-38126836D01*
X43893771Y-37908401D01*
X43786168Y-37707091D01*
X43641359Y-37530641D01*
X43464909Y-37385832D01*
X43263599Y-37278229D01*
X43045164Y-37211968D01*
X42874918Y-37195200D01*
X41961082Y-37195200D01*
X41790836Y-37211968D01*
X41572401Y-37278229D01*
X41371091Y-37385832D01*
X41194641Y-37530641D01*
X41049832Y-37707091D01*
X40942229Y-37908401D01*
X40875968Y-38126836D01*
X40853594Y-38354000D01*
X38581369Y-38354000D01*
X36041369Y-35814000D01*
X40853594Y-35814000D01*
X40875968Y-36041164D01*
X40942229Y-36259599D01*
X41049832Y-36460909D01*
X41194641Y-36637359D01*
X41371091Y-36782168D01*
X41572401Y-36889771D01*
X41790836Y-36956032D01*
X41961082Y-36972800D01*
X42874918Y-36972800D01*
X43045164Y-36956032D01*
X43263599Y-36889771D01*
X43464909Y-36782168D01*
X43641359Y-36637359D01*
X43786168Y-36460909D01*
X43893771Y-36259599D01*
X43960032Y-36041164D01*
X43982406Y-35814000D01*
X43960032Y-35586836D01*
X43893771Y-35368401D01*
X43786168Y-35167091D01*
X43641359Y-34990641D01*
X43464909Y-34845832D01*
X43263599Y-34738229D01*
X43045164Y-34671968D01*
X42874918Y-34655200D01*
X41961082Y-34655200D01*
X41790836Y-34671968D01*
X41572401Y-34738229D01*
X41371091Y-34845832D01*
X41194641Y-34990641D01*
X41049832Y-35167091D01*
X40942229Y-35368401D01*
X40875968Y-35586836D01*
X40853594Y-35814000D01*
X36041369Y-35814000D01*
X33824800Y-33597432D01*
X33824800Y-29648568D01*
X37033200Y-26440169D01*
X37033200Y-28448000D01*
X37065463Y-28610200D01*
X36915556Y-28610200D01*
X36382562Y-28716219D01*
X35880492Y-28924183D01*
X35428641Y-29226100D01*
X35044374Y-29610367D01*
X34742457Y-30062218D01*
X34534493Y-30564288D01*
X34428474Y-31097282D01*
X34428474Y-31640718D01*
X34534493Y-32173712D01*
X34742457Y-32675782D01*
X35044374Y-33127633D01*
X35428641Y-33511900D01*
X35880492Y-33813817D01*
X36382562Y-34021781D01*
X36915556Y-34127800D01*
X37458992Y-34127800D01*
X37991986Y-34021781D01*
X38494056Y-33813817D01*
X38945907Y-33511900D01*
X39183807Y-33274000D01*
X40853594Y-33274000D01*
X40875968Y-33501164D01*
X40942229Y-33719599D01*
X41049832Y-33920909D01*
X41194641Y-34097359D01*
X41371091Y-34242168D01*
X41572401Y-34349771D01*
X41790836Y-34416032D01*
X41961082Y-34432800D01*
X42874918Y-34432800D01*
X43045164Y-34416032D01*
X43263599Y-34349771D01*
X43464909Y-34242168D01*
X43641359Y-34097359D01*
X43786168Y-33920909D01*
X43893771Y-33719599D01*
X43960032Y-33501164D01*
X43982406Y-33274000D01*
X43960032Y-33046836D01*
X43893771Y-32828401D01*
X43786168Y-32627091D01*
X43641359Y-32450641D01*
X43464909Y-32305832D01*
X43263599Y-32198229D01*
X43045164Y-32131968D01*
X42874918Y-32115200D01*
X41961082Y-32115200D01*
X41790836Y-32131968D01*
X41572401Y-32198229D01*
X41371091Y-32305832D01*
X41194641Y-32450641D01*
X41049832Y-32627091D01*
X40942229Y-32828401D01*
X40875968Y-33046836D01*
X40853594Y-33274000D01*
X39183807Y-33274000D01*
X39330174Y-33127633D01*
X39632091Y-32675782D01*
X39840055Y-32173712D01*
X39946074Y-31640718D01*
X39946074Y-31097282D01*
X39840055Y-30564288D01*
X39632091Y-30062218D01*
X39330174Y-29610367D01*
X38945907Y-29226100D01*
X38617701Y-29006800D01*
X42694538Y-29006800D01*
X43440550Y-29752812D01*
X43263599Y-29658229D01*
X43045164Y-29591968D01*
X42874918Y-29575200D01*
X41961082Y-29575200D01*
X41790836Y-29591968D01*
X41572401Y-29658229D01*
X41371091Y-29765832D01*
X41194641Y-29910641D01*
X41049832Y-30087091D01*
X40942229Y-30288401D01*
X40875968Y-30506836D01*
X40853594Y-30734000D01*
X40875968Y-30961164D01*
X40942229Y-31179599D01*
X41049832Y-31380909D01*
X41194641Y-31557359D01*
X41371091Y-31702168D01*
X41572401Y-31809771D01*
X41790836Y-31876032D01*
X41961082Y-31892800D01*
X42874918Y-31892800D01*
X43045164Y-31876032D01*
X43263599Y-31809771D01*
X43464909Y-31702168D01*
X43641359Y-31557359D01*
X43786168Y-31380909D01*
X43893771Y-31179599D01*
X43960032Y-30961164D01*
X43982406Y-30734000D01*
X43960032Y-30506836D01*
X43893771Y-30288401D01*
X43799188Y-30111450D01*
X44145200Y-30457462D01*
X44145200Y-37338000D01*
X44187736Y-37551844D01*
X44308869Y-37733131D01*
X47701200Y-41125462D01*
X47701200Y-50292000D01*
X47743736Y-50505844D01*
X47864869Y-50687131D01*
X50241200Y-53063462D01*
X50241200Y-65278000D01*
X50283736Y-65491844D01*
X50404869Y-65673131D01*
X50586156Y-65794264D01*
X50800000Y-65836800D01*
X54056594Y-65836800D01*
X54003832Y-65901091D01*
X53896229Y-66102401D01*
X53829968Y-66320836D01*
X53807594Y-66548000D01*
X53829968Y-66775164D01*
X53896229Y-66993599D01*
X54003832Y-67194909D01*
X54148641Y-67371359D01*
X54325091Y-67516168D01*
X54526401Y-67623771D01*
X54744836Y-67690032D01*
X54915082Y-67706800D01*
X55828918Y-67706800D01*
X55999164Y-67690032D01*
X56217599Y-67623771D01*
X56418909Y-67516168D01*
X56595359Y-67371359D01*
X56740168Y-67194909D01*
X56847771Y-66993599D01*
X56914032Y-66775164D01*
X56936406Y-66548000D01*
X56914032Y-66320836D01*
X56847771Y-66102401D01*
X56740168Y-65901091D01*
X56687406Y-65836800D01*
X57658000Y-65836800D01*
X57871844Y-65794264D01*
X58053131Y-65673131D01*
X58174264Y-65491844D01*
X58216800Y-65278000D01*
X58216800Y-56246381D01*
X58281245Y-56259200D01*
X58558755Y-56259200D01*
X58830932Y-56205061D01*
X59087317Y-56098863D01*
X59318058Y-55944687D01*
X59514287Y-55748458D01*
X59668463Y-55517717D01*
X59774661Y-55261332D01*
X59788014Y-55194200D01*
X61873592Y-55194200D01*
X61916640Y-55198440D01*
X61959688Y-55194200D01*
X61959690Y-55194200D01*
X62088425Y-55181521D01*
X62253608Y-55131413D01*
X62405842Y-55050042D01*
X62539276Y-54940536D01*
X62566725Y-54907089D01*
X63797100Y-53676716D01*
X63830536Y-53649276D01*
X63912105Y-53549884D01*
X63940042Y-53515843D01*
X63983535Y-53434472D01*
X64021413Y-53363608D01*
X64071521Y-53198425D01*
X64084200Y-53069690D01*
X64084200Y-53069681D01*
X64088439Y-53026641D01*
X64084200Y-52983601D01*
X64084200Y-48309614D01*
X65829095Y-46564720D01*
X65862536Y-46537276D01*
X65972042Y-46403842D01*
X66053413Y-46251608D01*
X66103521Y-46086425D01*
X66116200Y-45957690D01*
X66116200Y-45957688D01*
X66120440Y-45914640D01*
X66116200Y-45871592D01*
X66116200Y-23974014D01*
X66183332Y-23960661D01*
X66439717Y-23854463D01*
X66548000Y-23782111D01*
X66548000Y-71520678D01*
X66526463Y-71468683D01*
X66372287Y-71237942D01*
X66176058Y-71041713D01*
X65945317Y-70887537D01*
X65688932Y-70781339D01*
X65416755Y-70727200D01*
X65139245Y-70727200D01*
X64867068Y-70781339D01*
X64610683Y-70887537D01*
X64379942Y-71041713D01*
X64183713Y-71237942D01*
X64029537Y-71468683D01*
X63923339Y-71725068D01*
X63869200Y-71997245D01*
X63869200Y-72173199D01*
X53832591Y-72173199D01*
X50747392Y-69088000D01*
X53807594Y-69088000D01*
X53829968Y-69315164D01*
X53896229Y-69533599D01*
X54003832Y-69734909D01*
X54148641Y-69911359D01*
X54325091Y-70056168D01*
X54526401Y-70163771D01*
X54744836Y-70230032D01*
X54915082Y-70246800D01*
X55828918Y-70246800D01*
X55999164Y-70230032D01*
X56217599Y-70163771D01*
X56418909Y-70056168D01*
X56595359Y-69911359D01*
X56740168Y-69734909D01*
X56847771Y-69533599D01*
X56914032Y-69315164D01*
X56936406Y-69088000D01*
X56914032Y-68860836D01*
X56847771Y-68642401D01*
X56740168Y-68441091D01*
X56595359Y-68264641D01*
X56418909Y-68119832D01*
X56217599Y-68012229D01*
X55999164Y-67945968D01*
X55828918Y-67929200D01*
X54915082Y-67929200D01*
X54744836Y-67945968D01*
X54526401Y-68012229D01*
X54325091Y-68119832D01*
X54148641Y-68264641D01*
X54003832Y-68441091D01*
X53896229Y-68642401D01*
X53829968Y-68860836D01*
X53807594Y-69088000D01*
X50747392Y-69088000D01*
X46435868Y-64776477D01*
X46560287Y-64652058D01*
X46714463Y-64421317D01*
X46820661Y-64164932D01*
X46874800Y-63892755D01*
X46874800Y-63615245D01*
X46820661Y-63343068D01*
X46714463Y-63086683D01*
X46560287Y-62855942D01*
X46364058Y-62659713D01*
X46133317Y-62505537D01*
X45876932Y-62399339D01*
X45604755Y-62345200D01*
X45327245Y-62345200D01*
X45055068Y-62399339D01*
X44798683Y-62505537D01*
X44567942Y-62659713D01*
X44532455Y-62695200D01*
X43295349Y-62695200D01*
X43263599Y-62678229D01*
X43045164Y-62611968D01*
X42874918Y-62595200D01*
X41961082Y-62595200D01*
X41790836Y-62611968D01*
X41572401Y-62678229D01*
X41371091Y-62785832D01*
X41194641Y-62930641D01*
X41049832Y-63107091D01*
X40942229Y-63308401D01*
X40875968Y-63526836D01*
X40853594Y-63754000D01*
X40875968Y-63981164D01*
X40942229Y-64199599D01*
X41049832Y-64400909D01*
X41194641Y-64577359D01*
X41371091Y-64722168D01*
X41572401Y-64829771D01*
X41790836Y-64896032D01*
X41961082Y-64912800D01*
X42874918Y-64912800D01*
X43045164Y-64896032D01*
X43263599Y-64829771D01*
X43295349Y-64812800D01*
X44532455Y-64812800D01*
X44567942Y-64848287D01*
X44653201Y-64905255D01*
X44653201Y-64916151D01*
X44649268Y-64956081D01*
X44664962Y-65115417D01*
X44711438Y-65268630D01*
X44775884Y-65389200D01*
X44786913Y-65409833D01*
X44888484Y-65533598D01*
X44919495Y-65559048D01*
X52892951Y-73532505D01*
X52918401Y-73563516D01*
X53042166Y-73665087D01*
X53183368Y-73740561D01*
X53336581Y-73787038D01*
X53455995Y-73798799D01*
X53455997Y-73798799D01*
X53495918Y-73802731D01*
X53535838Y-73798799D01*
X64388081Y-73798799D01*
X64428001Y-73802731D01*
X64467921Y-73798799D01*
X64467924Y-73798799D01*
X64587338Y-73787038D01*
X64740551Y-73740561D01*
X64881753Y-73665087D01*
X65005518Y-73563516D01*
X65030972Y-73532500D01*
X65038676Y-73524796D01*
X65139245Y-73544800D01*
X65416755Y-73544800D01*
X65688932Y-73490661D01*
X65945317Y-73384463D01*
X66176058Y-73230287D01*
X66372287Y-73034058D01*
X66526463Y-72803317D01*
X66548000Y-72751322D01*
X66548000Y-91186000D01*
X66664008Y-91769210D01*
X66994369Y-92263631D01*
X67488790Y-92593992D01*
X68072000Y-92710000D01*
X69199410Y-92710000D01*
X69610596Y-93132934D01*
X69610596Y-93159001D01*
X60704398Y-102065200D01*
X43295349Y-102065200D01*
X43263599Y-102048229D01*
X43045164Y-101981968D01*
X42874918Y-101965200D01*
X41961082Y-101965200D01*
X41790836Y-101981968D01*
X41572401Y-102048229D01*
X41371091Y-102155832D01*
X41194641Y-102300641D01*
X41049832Y-102477091D01*
X40942229Y-102678401D01*
X40875968Y-102896836D01*
X40853594Y-103124000D01*
X40875968Y-103351164D01*
X40942229Y-103569599D01*
X41049832Y-103770909D01*
X41194641Y-103947359D01*
X41371091Y-104092168D01*
X41572401Y-104199771D01*
X41790836Y-104266032D01*
X41961082Y-104282800D01*
X42874918Y-104282800D01*
X43045164Y-104266032D01*
X43263599Y-104199771D01*
X43295349Y-104182800D01*
X61090959Y-104182800D01*
X61142966Y-104187922D01*
X61194973Y-104182800D01*
X61194981Y-104182800D01*
X61350527Y-104167480D01*
X61550112Y-104106937D01*
X61734050Y-104008620D01*
X61895273Y-103876307D01*
X61928436Y-103835898D01*
X71099725Y-94664610D01*
X76207043Y-99917850D01*
X76385401Y-100132123D01*
X76523662Y-100362818D01*
X76624836Y-100612024D01*
X76686517Y-100873812D01*
X76708000Y-101151778D01*
X76708000Y-105178926D01*
X76689586Y-105436392D01*
X76636653Y-105679722D01*
X76549629Y-105913042D01*
X76430281Y-106131611D01*
X76281048Y-106330962D01*
X76104962Y-106507048D01*
X76041975Y-106554200D01*
X920025Y-106554200D01*
X857038Y-106507048D01*
X680952Y-106330962D01*
X633800Y-106267975D01*
X633800Y-100584000D01*
X40853594Y-100584000D01*
X40875968Y-100811164D01*
X40942229Y-101029599D01*
X41049832Y-101230909D01*
X41194641Y-101407359D01*
X41277102Y-101475033D01*
X41332484Y-101542516D01*
X41456249Y-101644088D01*
X41597451Y-101719562D01*
X41750664Y-101766038D01*
X41910000Y-101781732D01*
X42069336Y-101766038D01*
X42145943Y-101742800D01*
X42874918Y-101742800D01*
X43045164Y-101726032D01*
X43263599Y-101659771D01*
X43464909Y-101552168D01*
X43641359Y-101407359D01*
X43786168Y-101230909D01*
X43893771Y-101029599D01*
X43960032Y-100811164D01*
X43982406Y-100584000D01*
X43960032Y-100356836D01*
X43893771Y-100138401D01*
X43786168Y-99937091D01*
X43641359Y-99760641D01*
X43464909Y-99615832D01*
X43263599Y-99508229D01*
X43045164Y-99441968D01*
X42874918Y-99425200D01*
X41961082Y-99425200D01*
X41790836Y-99441968D01*
X41572401Y-99508229D01*
X41371091Y-99615832D01*
X41194641Y-99760641D01*
X41049832Y-99937091D01*
X40942229Y-100138401D01*
X40875968Y-100356836D01*
X40853594Y-100584000D01*
X633800Y-100584000D01*
X633800Y-95504000D01*
X40853594Y-95504000D01*
X40875968Y-95731164D01*
X40942229Y-95949599D01*
X41049832Y-96150909D01*
X41194641Y-96327359D01*
X41371091Y-96472168D01*
X41572401Y-96579771D01*
X41790836Y-96646032D01*
X41961082Y-96662800D01*
X42874918Y-96662800D01*
X43045164Y-96646032D01*
X43263599Y-96579771D01*
X43464909Y-96472168D01*
X43641359Y-96327359D01*
X43786168Y-96150909D01*
X43893771Y-95949599D01*
X43960032Y-95731164D01*
X43982406Y-95504000D01*
X43960032Y-95276836D01*
X43893771Y-95058401D01*
X43786168Y-94857091D01*
X43641359Y-94680641D01*
X43464909Y-94535832D01*
X43263599Y-94428229D01*
X43045164Y-94361968D01*
X42874918Y-94345200D01*
X41961082Y-94345200D01*
X41790836Y-94361968D01*
X41572401Y-94428229D01*
X41371091Y-94535832D01*
X41194641Y-94680641D01*
X41049832Y-94857091D01*
X40942229Y-95058401D01*
X40875968Y-95276836D01*
X40853594Y-95504000D01*
X633800Y-95504000D01*
X633800Y-74784282D01*
X9560200Y-74784282D01*
X9560200Y-75327718D01*
X9666219Y-75860712D01*
X9874183Y-76362782D01*
X10176100Y-76814633D01*
X10560367Y-77198900D01*
X11012218Y-77500817D01*
X11514288Y-77708781D01*
X12047282Y-77814800D01*
X12590718Y-77814800D01*
X13123712Y-77708781D01*
X13625782Y-77500817D01*
X14077633Y-77198900D01*
X14461900Y-76814633D01*
X14763817Y-76362782D01*
X14971781Y-75860712D01*
X15077800Y-75327718D01*
X15077800Y-74784282D01*
X14971781Y-74251288D01*
X14763817Y-73749218D01*
X14461900Y-73297367D01*
X14077633Y-72913100D01*
X13625782Y-72611183D01*
X13123712Y-72403219D01*
X12590718Y-72297200D01*
X12047282Y-72297200D01*
X11514288Y-72403219D01*
X11012218Y-72611183D01*
X10560367Y-72913100D01*
X10176100Y-73297367D01*
X9874183Y-73749218D01*
X9666219Y-74251288D01*
X9560200Y-74784282D01*
X633800Y-74784282D01*
X633800Y-6205282D01*
X20228200Y-6205282D01*
X20228200Y-6748718D01*
X20334219Y-7281712D01*
X20542183Y-7783782D01*
X20844100Y-8235633D01*
X21228367Y-8619900D01*
X21680218Y-8921817D01*
X22182288Y-9129781D01*
X22715282Y-9235800D01*
X23258718Y-9235800D01*
X23791712Y-9129781D01*
X24293782Y-8921817D01*
X24745633Y-8619900D01*
X25129900Y-8235633D01*
X25431817Y-7783782D01*
X25639781Y-7281712D01*
X25745800Y-6748718D01*
X25745800Y-6205282D01*
X25639781Y-5672288D01*
X25431817Y-5170218D01*
X25129900Y-4718367D01*
X24745633Y-4334100D01*
X24293782Y-4032183D01*
X23791712Y-3824219D01*
X23258718Y-3718200D01*
X22715282Y-3718200D01*
X22182288Y-3824219D01*
X21680218Y-4032183D01*
X21228367Y-4334100D01*
X20844100Y-4718367D01*
X20542183Y-5170218D01*
X20334219Y-5672288D01*
X20228200Y-6205282D01*
X633800Y-6205282D01*
X633800Y-920025D01*
X680952Y-857038D01*
X857038Y-680952D01*
X920025Y-633800D01*
X67151975Y-633800D01*
X67214962Y-680952D01*
X67214962Y-680952D01*
G37*
X67214962Y-680952D02*
X67391048Y-857038D01*
X67540281Y-1056389D01*
X67659629Y-1274958D01*
X67746653Y-1508278D01*
X67799586Y-1751608D01*
X67818000Y-2009074D01*
X67818000Y-2027554D01*
X67505148Y-2698467D01*
X67414290Y-2948099D01*
X67185106Y-3803428D01*
X67138976Y-4065041D01*
X67061799Y-4947174D01*
X67061799Y-5212826D01*
X67138976Y-6094959D01*
X67185106Y-6356572D01*
X67414290Y-7211901D01*
X67505148Y-7461533D01*
X67818000Y-8132446D01*
X67818000Y-8686524D01*
X67488790Y-8752008D01*
X66994369Y-9082369D01*
X66664008Y-9576790D01*
X66548000Y-10160000D01*
X66548000Y-21429889D01*
X66439717Y-21357537D01*
X66183332Y-21251339D01*
X65911155Y-21197200D01*
X65633645Y-21197200D01*
X65361468Y-21251339D01*
X65105083Y-21357537D01*
X64874342Y-21511713D01*
X64770000Y-21616055D01*
X64665658Y-21511713D01*
X64434917Y-21357537D01*
X64178532Y-21251339D01*
X63906355Y-21197200D01*
X63628845Y-21197200D01*
X63356668Y-21251339D01*
X63100283Y-21357537D01*
X62869542Y-21511713D01*
X62673313Y-21707942D01*
X62519137Y-21938683D01*
X62412939Y-22195068D01*
X62358800Y-22467245D01*
X62358800Y-22744755D01*
X62412939Y-23016932D01*
X62519137Y-23273317D01*
X62673313Y-23504058D01*
X62869542Y-23700287D01*
X63100283Y-23854463D01*
X63356668Y-23960661D01*
X63423801Y-23974014D01*
X63423801Y-27649456D01*
X63382058Y-27607713D01*
X63151317Y-27453537D01*
X62894932Y-27347339D01*
X62622755Y-27293200D01*
X62345245Y-27293200D01*
X62073068Y-27347339D01*
X61816683Y-27453537D01*
X61645323Y-27568036D01*
X61002800Y-26925513D01*
X61002800Y-24944006D01*
X61007922Y-24891999D01*
X61002800Y-24839992D01*
X61002800Y-24839985D01*
X60987480Y-24684439D01*
X60926937Y-24484854D01*
X60828620Y-24300916D01*
X60696307Y-24139693D01*
X60655904Y-24106535D01*
X58216800Y-21667432D01*
X58216800Y-21590000D01*
X58174264Y-21376156D01*
X58053131Y-21194869D01*
X57871844Y-21073736D01*
X57658000Y-21031200D01*
X57580568Y-21031200D01*
X57034800Y-20485432D01*
X57034800Y-20435245D01*
X56980661Y-20163068D01*
X56874463Y-19906683D01*
X56720287Y-19675942D01*
X56524058Y-19479713D01*
X56293317Y-19325537D01*
X56036932Y-19219339D01*
X55764755Y-19165200D01*
X55487245Y-19165200D01*
X55215068Y-19219339D01*
X54958683Y-19325537D01*
X54727942Y-19479713D01*
X54692455Y-19515200D01*
X54540569Y-19515200D01*
X47794800Y-12769432D01*
X47794800Y-5132007D01*
X47799922Y-5080000D01*
X47794800Y-5027993D01*
X47794800Y-5027985D01*
X47779480Y-4872439D01*
X47718937Y-4672854D01*
X47620620Y-4488916D01*
X47564257Y-4420238D01*
X47521465Y-4368095D01*
X47521461Y-4368091D01*
X47488307Y-4327693D01*
X47447909Y-4294539D01*
X45743470Y-2590101D01*
X45710307Y-2549693D01*
X45549084Y-2417380D01*
X45365146Y-2319063D01*
X45165561Y-2258520D01*
X45010015Y-2243200D01*
X45010007Y-2243200D01*
X44958000Y-2238078D01*
X44905993Y-2243200D01*
X38914007Y-2243200D01*
X38862000Y-2238078D01*
X38809993Y-2243200D01*
X38809985Y-2243200D01*
X38672251Y-2256766D01*
X38654438Y-2258520D01*
X38454854Y-2319063D01*
X38270916Y-2417380D01*
X38109693Y-2549693D01*
X38076534Y-2590097D01*
X36118102Y-4548530D01*
X36077693Y-4581693D01*
X35945380Y-4742916D01*
X35876149Y-4872439D01*
X35847063Y-4926855D01*
X35792467Y-5106836D01*
X35786520Y-5126440D01*
X35771200Y-5281986D01*
X35771200Y-5281993D01*
X35766078Y-5334000D01*
X35771200Y-5386007D01*
X35771201Y-24707430D01*
X32054102Y-28424530D01*
X32013693Y-28457693D01*
X31881380Y-28618916D01*
X31783064Y-28802854D01*
X31783063Y-28802855D01*
X31722520Y-29002439D01*
X31720601Y-29021925D01*
X31707200Y-29157986D01*
X31707200Y-29157993D01*
X31702078Y-29210000D01*
X31707200Y-29262007D01*
X31707201Y-33983983D01*
X31702078Y-34036000D01*
X31722520Y-34243561D01*
X31783063Y-34443145D01*
X31783064Y-34443146D01*
X31881381Y-34627084D01*
X32013694Y-34788307D01*
X32054097Y-34821465D01*
X37803200Y-40570569D01*
X37803201Y-91355983D01*
X37798078Y-91408000D01*
X37818520Y-91615561D01*
X37879063Y-91815145D01*
X37879064Y-91815146D01*
X37977381Y-91999084D01*
X38109694Y-92160307D01*
X38150097Y-92193465D01*
X39632534Y-93675903D01*
X39665693Y-93716307D01*
X39826916Y-93848620D01*
X40010854Y-93946937D01*
X40163986Y-93993389D01*
X40210438Y-94007480D01*
X40229924Y-94009399D01*
X40365985Y-94022800D01*
X40365992Y-94022800D01*
X40417999Y-94027922D01*
X40470006Y-94022800D01*
X41540651Y-94022800D01*
X41572401Y-94039771D01*
X41790836Y-94106032D01*
X41961082Y-94122800D01*
X42874918Y-94122800D01*
X43045164Y-94106032D01*
X43263599Y-94039771D01*
X43464909Y-93932168D01*
X43641359Y-93787359D01*
X43786168Y-93610909D01*
X43893771Y-93409599D01*
X43960032Y-93191164D01*
X43982406Y-92964000D01*
X43960032Y-92736836D01*
X43893771Y-92518401D01*
X43786168Y-92317091D01*
X43641359Y-92140641D01*
X43464909Y-91995832D01*
X43263599Y-91888229D01*
X43045164Y-91821968D01*
X42874918Y-91805200D01*
X41961082Y-91805200D01*
X41790836Y-91821968D01*
X41572401Y-91888229D01*
X41540651Y-91905200D01*
X40856569Y-91905200D01*
X39920800Y-90969432D01*
X39920800Y-90424000D01*
X40853594Y-90424000D01*
X40875968Y-90651164D01*
X40942229Y-90869599D01*
X41049832Y-91070909D01*
X41194641Y-91247359D01*
X41371091Y-91392168D01*
X41572401Y-91499771D01*
X41790836Y-91566032D01*
X41961082Y-91582800D01*
X42874918Y-91582800D01*
X43045164Y-91566032D01*
X43263599Y-91499771D01*
X43464909Y-91392168D01*
X43641359Y-91247359D01*
X43786168Y-91070909D01*
X43893771Y-90869599D01*
X43960032Y-90651164D01*
X43982406Y-90424000D01*
X43960032Y-90196836D01*
X43893771Y-89978401D01*
X43786168Y-89777091D01*
X43641359Y-89600641D01*
X43464909Y-89455832D01*
X43263599Y-89348229D01*
X43045164Y-89281968D01*
X42874918Y-89265200D01*
X41961082Y-89265200D01*
X41790836Y-89281968D01*
X41572401Y-89348229D01*
X41371091Y-89455832D01*
X41194641Y-89600641D01*
X41049832Y-89777091D01*
X40942229Y-89978401D01*
X40875968Y-90196836D01*
X40853594Y-90424000D01*
X39920800Y-90424000D01*
X39920800Y-85344000D01*
X40853594Y-85344000D01*
X40875968Y-85571164D01*
X40942229Y-85789599D01*
X41049832Y-85990909D01*
X41194641Y-86167359D01*
X41371091Y-86312168D01*
X41572401Y-86419771D01*
X41790836Y-86486032D01*
X41961082Y-86502800D01*
X42874918Y-86502800D01*
X43045164Y-86486032D01*
X43263599Y-86419771D01*
X43464909Y-86312168D01*
X43641359Y-86167359D01*
X43786168Y-85990909D01*
X43893771Y-85789599D01*
X43960032Y-85571164D01*
X43982406Y-85344000D01*
X43960032Y-85116836D01*
X43893771Y-84898401D01*
X43786168Y-84697091D01*
X43641359Y-84520641D01*
X43464909Y-84375832D01*
X43263599Y-84268229D01*
X43045164Y-84201968D01*
X42874918Y-84185200D01*
X41961082Y-84185200D01*
X41790836Y-84201968D01*
X41572401Y-84268229D01*
X41371091Y-84375832D01*
X41194641Y-84520641D01*
X41049832Y-84697091D01*
X40942229Y-84898401D01*
X40875968Y-85116836D01*
X40853594Y-85344000D01*
X39920800Y-85344000D01*
X39920800Y-78994000D01*
X40853594Y-78994000D01*
X40875968Y-79221164D01*
X40942229Y-79439599D01*
X41049832Y-79640909D01*
X41194641Y-79817359D01*
X41371091Y-79962168D01*
X41572401Y-80069771D01*
X41790836Y-80136032D01*
X41961082Y-80152800D01*
X42874918Y-80152800D01*
X43045164Y-80136032D01*
X43263599Y-80069771D01*
X43295349Y-80052800D01*
X44532455Y-80052800D01*
X44567942Y-80088287D01*
X44798683Y-80242463D01*
X45055068Y-80348661D01*
X45327245Y-80402800D01*
X45604755Y-80402800D01*
X45876932Y-80348661D01*
X46133317Y-80242463D01*
X46364058Y-80088287D01*
X46560287Y-79892058D01*
X46714463Y-79661317D01*
X46820661Y-79404932D01*
X46874800Y-79132755D01*
X46874800Y-78855245D01*
X46820661Y-78583068D01*
X46714463Y-78326683D01*
X46560287Y-78095942D01*
X46364058Y-77899713D01*
X46133317Y-77745537D01*
X45876932Y-77639339D01*
X45604755Y-77585200D01*
X45327245Y-77585200D01*
X45055068Y-77639339D01*
X44798683Y-77745537D01*
X44567942Y-77899713D01*
X44532455Y-77935200D01*
X43295349Y-77935200D01*
X43263599Y-77918229D01*
X43045164Y-77851968D01*
X42874918Y-77835200D01*
X41961082Y-77835200D01*
X41790836Y-77851968D01*
X41572401Y-77918229D01*
X41371091Y-78025832D01*
X41194641Y-78170641D01*
X41049832Y-78347091D01*
X40942229Y-78548401D01*
X40875968Y-78766836D01*
X40853594Y-78994000D01*
X39920800Y-78994000D01*
X39920800Y-76454000D01*
X40853594Y-76454000D01*
X40875968Y-76681164D01*
X40942229Y-76899599D01*
X41049832Y-77100909D01*
X41194641Y-77277359D01*
X41371091Y-77422168D01*
X41572401Y-77529771D01*
X41790836Y-77596032D01*
X41961082Y-77612800D01*
X42874918Y-77612800D01*
X43045164Y-77596032D01*
X43263599Y-77529771D01*
X43464909Y-77422168D01*
X43641359Y-77277359D01*
X43786168Y-77100909D01*
X43893771Y-76899599D01*
X43960032Y-76681164D01*
X43982406Y-76454000D01*
X43960032Y-76226836D01*
X43893771Y-76008401D01*
X43786168Y-75807091D01*
X43641359Y-75630641D01*
X43464909Y-75485832D01*
X43263599Y-75378229D01*
X43045164Y-75311968D01*
X42874918Y-75295200D01*
X41961082Y-75295200D01*
X41790836Y-75311968D01*
X41572401Y-75378229D01*
X41371091Y-75485832D01*
X41194641Y-75630641D01*
X41049832Y-75807091D01*
X40942229Y-76008401D01*
X40875968Y-76226836D01*
X40853594Y-76454000D01*
X39920800Y-76454000D01*
X39920800Y-73914000D01*
X40853594Y-73914000D01*
X40875968Y-74141164D01*
X40942229Y-74359599D01*
X41049832Y-74560909D01*
X41194641Y-74737359D01*
X41371091Y-74882168D01*
X41572401Y-74989771D01*
X41790836Y-75056032D01*
X41961082Y-75072800D01*
X42874918Y-75072800D01*
X43045164Y-75056032D01*
X43263599Y-74989771D01*
X43464909Y-74882168D01*
X43641359Y-74737359D01*
X43786168Y-74560909D01*
X43893771Y-74359599D01*
X43960032Y-74141164D01*
X43982406Y-73914000D01*
X43960032Y-73686836D01*
X43893771Y-73468401D01*
X43786168Y-73267091D01*
X43641359Y-73090641D01*
X43464909Y-72945832D01*
X43263599Y-72838229D01*
X43045164Y-72771968D01*
X42874918Y-72755200D01*
X41961082Y-72755200D01*
X41790836Y-72771968D01*
X41572401Y-72838229D01*
X41371091Y-72945832D01*
X41194641Y-73090641D01*
X41049832Y-73267091D01*
X40942229Y-73468401D01*
X40875968Y-73686836D01*
X40853594Y-73914000D01*
X39920800Y-73914000D01*
X39920800Y-71374000D01*
X40853594Y-71374000D01*
X40875968Y-71601164D01*
X40942229Y-71819599D01*
X41049832Y-72020909D01*
X41194641Y-72197359D01*
X41371091Y-72342168D01*
X41572401Y-72449771D01*
X41790836Y-72516032D01*
X41961082Y-72532800D01*
X42874918Y-72532800D01*
X43045164Y-72516032D01*
X43263599Y-72449771D01*
X43464909Y-72342168D01*
X43641359Y-72197359D01*
X43786168Y-72020909D01*
X43893771Y-71819599D01*
X43960032Y-71601164D01*
X43982406Y-71374000D01*
X43960032Y-71146836D01*
X43893771Y-70928401D01*
X43786168Y-70727091D01*
X43641359Y-70550641D01*
X43464909Y-70405832D01*
X43263599Y-70298229D01*
X43045164Y-70231968D01*
X42874918Y-70215200D01*
X41961082Y-70215200D01*
X41790836Y-70231968D01*
X41572401Y-70298229D01*
X41371091Y-70405832D01*
X41194641Y-70550641D01*
X41049832Y-70727091D01*
X40942229Y-70928401D01*
X40875968Y-71146836D01*
X40853594Y-71374000D01*
X39920800Y-71374000D01*
X39920800Y-68834000D01*
X40853594Y-68834000D01*
X40875968Y-69061164D01*
X40942229Y-69279599D01*
X41049832Y-69480909D01*
X41194641Y-69657359D01*
X41371091Y-69802168D01*
X41572401Y-69909771D01*
X41790836Y-69976032D01*
X41961082Y-69992800D01*
X42874918Y-69992800D01*
X43045164Y-69976032D01*
X43263599Y-69909771D01*
X43464909Y-69802168D01*
X43641359Y-69657359D01*
X43786168Y-69480909D01*
X43893771Y-69279599D01*
X43960032Y-69061164D01*
X43982406Y-68834000D01*
X43960032Y-68606836D01*
X43893771Y-68388401D01*
X43786168Y-68187091D01*
X43641359Y-68010641D01*
X43464909Y-67865832D01*
X43263599Y-67758229D01*
X43045164Y-67691968D01*
X42874918Y-67675200D01*
X41961082Y-67675200D01*
X41790836Y-67691968D01*
X41572401Y-67758229D01*
X41371091Y-67865832D01*
X41194641Y-68010641D01*
X41049832Y-68187091D01*
X40942229Y-68388401D01*
X40875968Y-68606836D01*
X40853594Y-68834000D01*
X39920800Y-68834000D01*
X39920800Y-66294000D01*
X40853594Y-66294000D01*
X40875968Y-66521164D01*
X40942229Y-66739599D01*
X41049832Y-66940909D01*
X41194641Y-67117359D01*
X41371091Y-67262168D01*
X41572401Y-67369771D01*
X41790836Y-67436032D01*
X41961082Y-67452800D01*
X42874918Y-67452800D01*
X43045164Y-67436032D01*
X43263599Y-67369771D01*
X43464909Y-67262168D01*
X43641359Y-67117359D01*
X43786168Y-66940909D01*
X43893771Y-66739599D01*
X43960032Y-66521164D01*
X43982406Y-66294000D01*
X43960032Y-66066836D01*
X43893771Y-65848401D01*
X43786168Y-65647091D01*
X43641359Y-65470641D01*
X43464909Y-65325832D01*
X43263599Y-65218229D01*
X43045164Y-65151968D01*
X42874918Y-65135200D01*
X41961082Y-65135200D01*
X41790836Y-65151968D01*
X41572401Y-65218229D01*
X41371091Y-65325832D01*
X41194641Y-65470641D01*
X41049832Y-65647091D01*
X40942229Y-65848401D01*
X40875968Y-66066836D01*
X40853594Y-66294000D01*
X39920800Y-66294000D01*
X39920800Y-61214000D01*
X40853594Y-61214000D01*
X40875968Y-61441164D01*
X40942229Y-61659599D01*
X41049832Y-61860909D01*
X41194641Y-62037359D01*
X41371091Y-62182168D01*
X41572401Y-62289771D01*
X41790836Y-62356032D01*
X41961082Y-62372800D01*
X42874918Y-62372800D01*
X43045164Y-62356032D01*
X43263599Y-62289771D01*
X43464909Y-62182168D01*
X43641359Y-62037359D01*
X43786168Y-61860909D01*
X43893771Y-61659599D01*
X43960032Y-61441164D01*
X43982406Y-61214000D01*
X43960032Y-60986836D01*
X43893771Y-60768401D01*
X43786168Y-60567091D01*
X43641359Y-60390641D01*
X43464909Y-60245832D01*
X43263599Y-60138229D01*
X43045164Y-60071968D01*
X42874918Y-60055200D01*
X41961082Y-60055200D01*
X41790836Y-60071968D01*
X41572401Y-60138229D01*
X41371091Y-60245832D01*
X41194641Y-60390641D01*
X41049832Y-60567091D01*
X40942229Y-60768401D01*
X40875968Y-60986836D01*
X40853594Y-61214000D01*
X39920800Y-61214000D01*
X39920800Y-58674000D01*
X40853594Y-58674000D01*
X40875968Y-58901164D01*
X40942229Y-59119599D01*
X41049832Y-59320909D01*
X41194641Y-59497359D01*
X41371091Y-59642168D01*
X41572401Y-59749771D01*
X41790836Y-59816032D01*
X41961082Y-59832800D01*
X42874918Y-59832800D01*
X43045164Y-59816032D01*
X43263599Y-59749771D01*
X43464909Y-59642168D01*
X43641359Y-59497359D01*
X43786168Y-59320909D01*
X43893771Y-59119599D01*
X43960032Y-58901164D01*
X43982406Y-58674000D01*
X43960032Y-58446836D01*
X43893771Y-58228401D01*
X43786168Y-58027091D01*
X43641359Y-57850641D01*
X43464909Y-57705832D01*
X43263599Y-57598229D01*
X43045164Y-57531968D01*
X42874918Y-57515200D01*
X41961082Y-57515200D01*
X41790836Y-57531968D01*
X41572401Y-57598229D01*
X41371091Y-57705832D01*
X41194641Y-57850641D01*
X41049832Y-58027091D01*
X40942229Y-58228401D01*
X40875968Y-58446836D01*
X40853594Y-58674000D01*
X39920800Y-58674000D01*
X39920800Y-53594000D01*
X40853594Y-53594000D01*
X40875968Y-53821164D01*
X40942229Y-54039599D01*
X41049832Y-54240909D01*
X41194641Y-54417359D01*
X41371091Y-54562168D01*
X41572401Y-54669771D01*
X41790836Y-54736032D01*
X41961082Y-54752800D01*
X42874918Y-54752800D01*
X43045164Y-54736032D01*
X43263599Y-54669771D01*
X43464909Y-54562168D01*
X43641359Y-54417359D01*
X43786168Y-54240909D01*
X43893771Y-54039599D01*
X43960032Y-53821164D01*
X43982406Y-53594000D01*
X43960032Y-53366836D01*
X43893771Y-53148401D01*
X43786168Y-52947091D01*
X43641359Y-52770641D01*
X43464909Y-52625832D01*
X43263599Y-52518229D01*
X43045164Y-52451968D01*
X42874918Y-52435200D01*
X41961082Y-52435200D01*
X41790836Y-52451968D01*
X41572401Y-52518229D01*
X41371091Y-52625832D01*
X41194641Y-52770641D01*
X41049832Y-52947091D01*
X40942229Y-53148401D01*
X40875968Y-53366836D01*
X40853594Y-53594000D01*
X39920800Y-53594000D01*
X39920800Y-51054000D01*
X40853594Y-51054000D01*
X40875968Y-51281164D01*
X40942229Y-51499599D01*
X41049832Y-51700909D01*
X41194641Y-51877359D01*
X41371091Y-52022168D01*
X41572401Y-52129771D01*
X41790836Y-52196032D01*
X41961082Y-52212800D01*
X42874918Y-52212800D01*
X43045164Y-52196032D01*
X43263599Y-52129771D01*
X43464909Y-52022168D01*
X43641359Y-51877359D01*
X43786168Y-51700909D01*
X43893771Y-51499599D01*
X43960032Y-51281164D01*
X43982406Y-51054000D01*
X43960032Y-50826836D01*
X43893771Y-50608401D01*
X43786168Y-50407091D01*
X43641359Y-50230641D01*
X43464909Y-50085832D01*
X43263599Y-49978229D01*
X43045164Y-49911968D01*
X42874918Y-49895200D01*
X41961082Y-49895200D01*
X41790836Y-49911968D01*
X41572401Y-49978229D01*
X41371091Y-50085832D01*
X41194641Y-50230641D01*
X41049832Y-50407091D01*
X40942229Y-50608401D01*
X40875968Y-50826836D01*
X40853594Y-51054000D01*
X39920800Y-51054000D01*
X39920800Y-48514000D01*
X40853594Y-48514000D01*
X40875968Y-48741164D01*
X40942229Y-48959599D01*
X41049832Y-49160909D01*
X41194641Y-49337359D01*
X41371091Y-49482168D01*
X41572401Y-49589771D01*
X41790836Y-49656032D01*
X41961082Y-49672800D01*
X42874918Y-49672800D01*
X43045164Y-49656032D01*
X43263599Y-49589771D01*
X43464909Y-49482168D01*
X43641359Y-49337359D01*
X43786168Y-49160909D01*
X43893771Y-48959599D01*
X43960032Y-48741164D01*
X43982406Y-48514000D01*
X43960032Y-48286836D01*
X43893771Y-48068401D01*
X43786168Y-47867091D01*
X43641359Y-47690641D01*
X43464909Y-47545832D01*
X43263599Y-47438229D01*
X43045164Y-47371968D01*
X42874918Y-47355200D01*
X41961082Y-47355200D01*
X41790836Y-47371968D01*
X41572401Y-47438229D01*
X41371091Y-47545832D01*
X41194641Y-47690641D01*
X41049832Y-47867091D01*
X40942229Y-48068401D01*
X40875968Y-48286836D01*
X40853594Y-48514000D01*
X39920800Y-48514000D01*
X39920800Y-45974000D01*
X40853594Y-45974000D01*
X40875968Y-46201164D01*
X40942229Y-46419599D01*
X41049832Y-46620909D01*
X41194641Y-46797359D01*
X41371091Y-46942168D01*
X41572401Y-47049771D01*
X41790836Y-47116032D01*
X41961082Y-47132800D01*
X42874918Y-47132800D01*
X43045164Y-47116032D01*
X43263599Y-47049771D01*
X43464909Y-46942168D01*
X43641359Y-46797359D01*
X43786168Y-46620909D01*
X43893771Y-46419599D01*
X43960032Y-46201164D01*
X43982406Y-45974000D01*
X43960032Y-45746836D01*
X43893771Y-45528401D01*
X43786168Y-45327091D01*
X43641359Y-45150641D01*
X43464909Y-45005832D01*
X43263599Y-44898229D01*
X43045164Y-44831968D01*
X42874918Y-44815200D01*
X41961082Y-44815200D01*
X41790836Y-44831968D01*
X41572401Y-44898229D01*
X41371091Y-45005832D01*
X41194641Y-45150641D01*
X41049832Y-45327091D01*
X40942229Y-45528401D01*
X40875968Y-45746836D01*
X40853594Y-45974000D01*
X39920800Y-45974000D01*
X39920800Y-43434000D01*
X40853594Y-43434000D01*
X40875968Y-43661164D01*
X40942229Y-43879599D01*
X41049832Y-44080909D01*
X41194641Y-44257359D01*
X41371091Y-44402168D01*
X41572401Y-44509771D01*
X41790836Y-44576032D01*
X41961082Y-44592800D01*
X42874918Y-44592800D01*
X43045164Y-44576032D01*
X43263599Y-44509771D01*
X43464909Y-44402168D01*
X43641359Y-44257359D01*
X43786168Y-44080909D01*
X43893771Y-43879599D01*
X43960032Y-43661164D01*
X43982406Y-43434000D01*
X43960032Y-43206836D01*
X43893771Y-42988401D01*
X43786168Y-42787091D01*
X43641359Y-42610641D01*
X43464909Y-42465832D01*
X43263599Y-42358229D01*
X43045164Y-42291968D01*
X42874918Y-42275200D01*
X41961082Y-42275200D01*
X41790836Y-42291968D01*
X41572401Y-42358229D01*
X41371091Y-42465832D01*
X41194641Y-42610641D01*
X41049832Y-42787091D01*
X40942229Y-42988401D01*
X40875968Y-43206836D01*
X40853594Y-43434000D01*
X39920800Y-43434000D01*
X39920800Y-40894000D01*
X40853594Y-40894000D01*
X40875968Y-41121164D01*
X40942229Y-41339599D01*
X41049832Y-41540909D01*
X41194641Y-41717359D01*
X41371091Y-41862168D01*
X41572401Y-41969771D01*
X41790836Y-42036032D01*
X41961082Y-42052800D01*
X42874918Y-42052800D01*
X43045164Y-42036032D01*
X43263599Y-41969771D01*
X43464909Y-41862168D01*
X43641359Y-41717359D01*
X43786168Y-41540909D01*
X43893771Y-41339599D01*
X43960032Y-41121164D01*
X43982406Y-40894000D01*
X43960032Y-40666836D01*
X43893771Y-40448401D01*
X43786168Y-40247091D01*
X43641359Y-40070641D01*
X43464909Y-39925832D01*
X43263599Y-39818229D01*
X43045164Y-39751968D01*
X42874918Y-39735200D01*
X41961082Y-39735200D01*
X41790836Y-39751968D01*
X41572401Y-39818229D01*
X41371091Y-39925832D01*
X41194641Y-40070641D01*
X41049832Y-40247091D01*
X40942229Y-40448401D01*
X40875968Y-40666836D01*
X40853594Y-40894000D01*
X39920800Y-40894000D01*
X39920800Y-40184007D01*
X39925922Y-40132000D01*
X39920800Y-40079993D01*
X39920800Y-40079985D01*
X39905480Y-39924439D01*
X39870306Y-39808483D01*
X39844937Y-39724854D01*
X39835347Y-39706912D01*
X39746620Y-39540916D01*
X39614307Y-39379693D01*
X39573904Y-39346535D01*
X38581369Y-38354000D01*
X40853594Y-38354000D01*
X40875968Y-38581164D01*
X40942229Y-38799599D01*
X41049832Y-39000909D01*
X41194641Y-39177359D01*
X41371091Y-39322168D01*
X41572401Y-39429771D01*
X41790836Y-39496032D01*
X41961082Y-39512800D01*
X42874918Y-39512800D01*
X43045164Y-39496032D01*
X43263599Y-39429771D01*
X43464909Y-39322168D01*
X43641359Y-39177359D01*
X43786168Y-39000909D01*
X43893771Y-38799599D01*
X43960032Y-38581164D01*
X43982406Y-38354000D01*
X43960032Y-38126836D01*
X43893771Y-37908401D01*
X43786168Y-37707091D01*
X43641359Y-37530641D01*
X43464909Y-37385832D01*
X43263599Y-37278229D01*
X43045164Y-37211968D01*
X42874918Y-37195200D01*
X41961082Y-37195200D01*
X41790836Y-37211968D01*
X41572401Y-37278229D01*
X41371091Y-37385832D01*
X41194641Y-37530641D01*
X41049832Y-37707091D01*
X40942229Y-37908401D01*
X40875968Y-38126836D01*
X40853594Y-38354000D01*
X38581369Y-38354000D01*
X36041369Y-35814000D01*
X40853594Y-35814000D01*
X40875968Y-36041164D01*
X40942229Y-36259599D01*
X41049832Y-36460909D01*
X41194641Y-36637359D01*
X41371091Y-36782168D01*
X41572401Y-36889771D01*
X41790836Y-36956032D01*
X41961082Y-36972800D01*
X42874918Y-36972800D01*
X43045164Y-36956032D01*
X43263599Y-36889771D01*
X43464909Y-36782168D01*
X43641359Y-36637359D01*
X43786168Y-36460909D01*
X43893771Y-36259599D01*
X43960032Y-36041164D01*
X43982406Y-35814000D01*
X43960032Y-35586836D01*
X43893771Y-35368401D01*
X43786168Y-35167091D01*
X43641359Y-34990641D01*
X43464909Y-34845832D01*
X43263599Y-34738229D01*
X43045164Y-34671968D01*
X42874918Y-34655200D01*
X41961082Y-34655200D01*
X41790836Y-34671968D01*
X41572401Y-34738229D01*
X41371091Y-34845832D01*
X41194641Y-34990641D01*
X41049832Y-35167091D01*
X40942229Y-35368401D01*
X40875968Y-35586836D01*
X40853594Y-35814000D01*
X36041369Y-35814000D01*
X33824800Y-33597432D01*
X33824800Y-29648568D01*
X37033200Y-26440169D01*
X37033200Y-28448000D01*
X37065463Y-28610200D01*
X36915556Y-28610200D01*
X36382562Y-28716219D01*
X35880492Y-28924183D01*
X35428641Y-29226100D01*
X35044374Y-29610367D01*
X34742457Y-30062218D01*
X34534493Y-30564288D01*
X34428474Y-31097282D01*
X34428474Y-31640718D01*
X34534493Y-32173712D01*
X34742457Y-32675782D01*
X35044374Y-33127633D01*
X35428641Y-33511900D01*
X35880492Y-33813817D01*
X36382562Y-34021781D01*
X36915556Y-34127800D01*
X37458992Y-34127800D01*
X37991986Y-34021781D01*
X38494056Y-33813817D01*
X38945907Y-33511900D01*
X39183807Y-33274000D01*
X40853594Y-33274000D01*
X40875968Y-33501164D01*
X40942229Y-33719599D01*
X41049832Y-33920909D01*
X41194641Y-34097359D01*
X41371091Y-34242168D01*
X41572401Y-34349771D01*
X41790836Y-34416032D01*
X41961082Y-34432800D01*
X42874918Y-34432800D01*
X43045164Y-34416032D01*
X43263599Y-34349771D01*
X43464909Y-34242168D01*
X43641359Y-34097359D01*
X43786168Y-33920909D01*
X43893771Y-33719599D01*
X43960032Y-33501164D01*
X43982406Y-33274000D01*
X43960032Y-33046836D01*
X43893771Y-32828401D01*
X43786168Y-32627091D01*
X43641359Y-32450641D01*
X43464909Y-32305832D01*
X43263599Y-32198229D01*
X43045164Y-32131968D01*
X42874918Y-32115200D01*
X41961082Y-32115200D01*
X41790836Y-32131968D01*
X41572401Y-32198229D01*
X41371091Y-32305832D01*
X41194641Y-32450641D01*
X41049832Y-32627091D01*
X40942229Y-32828401D01*
X40875968Y-33046836D01*
X40853594Y-33274000D01*
X39183807Y-33274000D01*
X39330174Y-33127633D01*
X39632091Y-32675782D01*
X39840055Y-32173712D01*
X39946074Y-31640718D01*
X39946074Y-31097282D01*
X39840055Y-30564288D01*
X39632091Y-30062218D01*
X39330174Y-29610367D01*
X38945907Y-29226100D01*
X38617701Y-29006800D01*
X42694538Y-29006800D01*
X43440550Y-29752812D01*
X43263599Y-29658229D01*
X43045164Y-29591968D01*
X42874918Y-29575200D01*
X41961082Y-29575200D01*
X41790836Y-29591968D01*
X41572401Y-29658229D01*
X41371091Y-29765832D01*
X41194641Y-29910641D01*
X41049832Y-30087091D01*
X40942229Y-30288401D01*
X40875968Y-30506836D01*
X40853594Y-30734000D01*
X40875968Y-30961164D01*
X40942229Y-31179599D01*
X41049832Y-31380909D01*
X41194641Y-31557359D01*
X41371091Y-31702168D01*
X41572401Y-31809771D01*
X41790836Y-31876032D01*
X41961082Y-31892800D01*
X42874918Y-31892800D01*
X43045164Y-31876032D01*
X43263599Y-31809771D01*
X43464909Y-31702168D01*
X43641359Y-31557359D01*
X43786168Y-31380909D01*
X43893771Y-31179599D01*
X43960032Y-30961164D01*
X43982406Y-30734000D01*
X43960032Y-30506836D01*
X43893771Y-30288401D01*
X43799188Y-30111450D01*
X44145200Y-30457462D01*
X44145200Y-37338000D01*
X44187736Y-37551844D01*
X44308869Y-37733131D01*
X47701200Y-41125462D01*
X47701200Y-50292000D01*
X47743736Y-50505844D01*
X47864869Y-50687131D01*
X50241200Y-53063462D01*
X50241200Y-65278000D01*
X50283736Y-65491844D01*
X50404869Y-65673131D01*
X50586156Y-65794264D01*
X50800000Y-65836800D01*
X54056594Y-65836800D01*
X54003832Y-65901091D01*
X53896229Y-66102401D01*
X53829968Y-66320836D01*
X53807594Y-66548000D01*
X53829968Y-66775164D01*
X53896229Y-66993599D01*
X54003832Y-67194909D01*
X54148641Y-67371359D01*
X54325091Y-67516168D01*
X54526401Y-67623771D01*
X54744836Y-67690032D01*
X54915082Y-67706800D01*
X55828918Y-67706800D01*
X55999164Y-67690032D01*
X56217599Y-67623771D01*
X56418909Y-67516168D01*
X56595359Y-67371359D01*
X56740168Y-67194909D01*
X56847771Y-66993599D01*
X56914032Y-66775164D01*
X56936406Y-66548000D01*
X56914032Y-66320836D01*
X56847771Y-66102401D01*
X56740168Y-65901091D01*
X56687406Y-65836800D01*
X57658000Y-65836800D01*
X57871844Y-65794264D01*
X58053131Y-65673131D01*
X58174264Y-65491844D01*
X58216800Y-65278000D01*
X58216800Y-56246381D01*
X58281245Y-56259200D01*
X58558755Y-56259200D01*
X58830932Y-56205061D01*
X59087317Y-56098863D01*
X59318058Y-55944687D01*
X59514287Y-55748458D01*
X59668463Y-55517717D01*
X59774661Y-55261332D01*
X59788014Y-55194200D01*
X61873592Y-55194200D01*
X61916640Y-55198440D01*
X61959688Y-55194200D01*
X61959690Y-55194200D01*
X62088425Y-55181521D01*
X62253608Y-55131413D01*
X62405842Y-55050042D01*
X62539276Y-54940536D01*
X62566725Y-54907089D01*
X63797100Y-53676716D01*
X63830536Y-53649276D01*
X63912105Y-53549884D01*
X63940042Y-53515843D01*
X63983535Y-53434472D01*
X64021413Y-53363608D01*
X64071521Y-53198425D01*
X64084200Y-53069690D01*
X64084200Y-53069681D01*
X64088439Y-53026641D01*
X64084200Y-52983601D01*
X64084200Y-48309614D01*
X65829095Y-46564720D01*
X65862536Y-46537276D01*
X65972042Y-46403842D01*
X66053413Y-46251608D01*
X66103521Y-46086425D01*
X66116200Y-45957690D01*
X66116200Y-45957688D01*
X66120440Y-45914640D01*
X66116200Y-45871592D01*
X66116200Y-23974014D01*
X66183332Y-23960661D01*
X66439717Y-23854463D01*
X66548000Y-23782111D01*
X66548000Y-71520678D01*
X66526463Y-71468683D01*
X66372287Y-71237942D01*
X66176058Y-71041713D01*
X65945317Y-70887537D01*
X65688932Y-70781339D01*
X65416755Y-70727200D01*
X65139245Y-70727200D01*
X64867068Y-70781339D01*
X64610683Y-70887537D01*
X64379942Y-71041713D01*
X64183713Y-71237942D01*
X64029537Y-71468683D01*
X63923339Y-71725068D01*
X63869200Y-71997245D01*
X63869200Y-72173199D01*
X53832591Y-72173199D01*
X50747392Y-69088000D01*
X53807594Y-69088000D01*
X53829968Y-69315164D01*
X53896229Y-69533599D01*
X54003832Y-69734909D01*
X54148641Y-69911359D01*
X54325091Y-70056168D01*
X54526401Y-70163771D01*
X54744836Y-70230032D01*
X54915082Y-70246800D01*
X55828918Y-70246800D01*
X55999164Y-70230032D01*
X56217599Y-70163771D01*
X56418909Y-70056168D01*
X56595359Y-69911359D01*
X56740168Y-69734909D01*
X56847771Y-69533599D01*
X56914032Y-69315164D01*
X56936406Y-69088000D01*
X56914032Y-68860836D01*
X56847771Y-68642401D01*
X56740168Y-68441091D01*
X56595359Y-68264641D01*
X56418909Y-68119832D01*
X56217599Y-68012229D01*
X55999164Y-67945968D01*
X55828918Y-67929200D01*
X54915082Y-67929200D01*
X54744836Y-67945968D01*
X54526401Y-68012229D01*
X54325091Y-68119832D01*
X54148641Y-68264641D01*
X54003832Y-68441091D01*
X53896229Y-68642401D01*
X53829968Y-68860836D01*
X53807594Y-69088000D01*
X50747392Y-69088000D01*
X46435868Y-64776477D01*
X46560287Y-64652058D01*
X46714463Y-64421317D01*
X46820661Y-64164932D01*
X46874800Y-63892755D01*
X46874800Y-63615245D01*
X46820661Y-63343068D01*
X46714463Y-63086683D01*
X46560287Y-62855942D01*
X46364058Y-62659713D01*
X46133317Y-62505537D01*
X45876932Y-62399339D01*
X45604755Y-62345200D01*
X45327245Y-62345200D01*
X45055068Y-62399339D01*
X44798683Y-62505537D01*
X44567942Y-62659713D01*
X44532455Y-62695200D01*
X43295349Y-62695200D01*
X43263599Y-62678229D01*
X43045164Y-62611968D01*
X42874918Y-62595200D01*
X41961082Y-62595200D01*
X41790836Y-62611968D01*
X41572401Y-62678229D01*
X41371091Y-62785832D01*
X41194641Y-62930641D01*
X41049832Y-63107091D01*
X40942229Y-63308401D01*
X40875968Y-63526836D01*
X40853594Y-63754000D01*
X40875968Y-63981164D01*
X40942229Y-64199599D01*
X41049832Y-64400909D01*
X41194641Y-64577359D01*
X41371091Y-64722168D01*
X41572401Y-64829771D01*
X41790836Y-64896032D01*
X41961082Y-64912800D01*
X42874918Y-64912800D01*
X43045164Y-64896032D01*
X43263599Y-64829771D01*
X43295349Y-64812800D01*
X44532455Y-64812800D01*
X44567942Y-64848287D01*
X44653201Y-64905255D01*
X44653201Y-64916151D01*
X44649268Y-64956081D01*
X44664962Y-65115417D01*
X44711438Y-65268630D01*
X44775884Y-65389200D01*
X44786913Y-65409833D01*
X44888484Y-65533598D01*
X44919495Y-65559048D01*
X52892951Y-73532505D01*
X52918401Y-73563516D01*
X53042166Y-73665087D01*
X53183368Y-73740561D01*
X53336581Y-73787038D01*
X53455995Y-73798799D01*
X53455997Y-73798799D01*
X53495918Y-73802731D01*
X53535838Y-73798799D01*
X64388081Y-73798799D01*
X64428001Y-73802731D01*
X64467921Y-73798799D01*
X64467924Y-73798799D01*
X64587338Y-73787038D01*
X64740551Y-73740561D01*
X64881753Y-73665087D01*
X65005518Y-73563516D01*
X65030972Y-73532500D01*
X65038676Y-73524796D01*
X65139245Y-73544800D01*
X65416755Y-73544800D01*
X65688932Y-73490661D01*
X65945317Y-73384463D01*
X66176058Y-73230287D01*
X66372287Y-73034058D01*
X66526463Y-72803317D01*
X66548000Y-72751322D01*
X66548000Y-91186000D01*
X66664008Y-91769210D01*
X66994369Y-92263631D01*
X67488790Y-92593992D01*
X68072000Y-92710000D01*
X69199410Y-92710000D01*
X69610596Y-93132934D01*
X69610596Y-93159001D01*
X60704398Y-102065200D01*
X43295349Y-102065200D01*
X43263599Y-102048229D01*
X43045164Y-101981968D01*
X42874918Y-101965200D01*
X41961082Y-101965200D01*
X41790836Y-101981968D01*
X41572401Y-102048229D01*
X41371091Y-102155832D01*
X41194641Y-102300641D01*
X41049832Y-102477091D01*
X40942229Y-102678401D01*
X40875968Y-102896836D01*
X40853594Y-103124000D01*
X40875968Y-103351164D01*
X40942229Y-103569599D01*
X41049832Y-103770909D01*
X41194641Y-103947359D01*
X41371091Y-104092168D01*
X41572401Y-104199771D01*
X41790836Y-104266032D01*
X41961082Y-104282800D01*
X42874918Y-104282800D01*
X43045164Y-104266032D01*
X43263599Y-104199771D01*
X43295349Y-104182800D01*
X61090959Y-104182800D01*
X61142966Y-104187922D01*
X61194973Y-104182800D01*
X61194981Y-104182800D01*
X61350527Y-104167480D01*
X61550112Y-104106937D01*
X61734050Y-104008620D01*
X61895273Y-103876307D01*
X61928436Y-103835898D01*
X71099725Y-94664610D01*
X76207043Y-99917850D01*
X76385401Y-100132123D01*
X76523662Y-100362818D01*
X76624836Y-100612024D01*
X76686517Y-100873812D01*
X76708000Y-101151778D01*
X76708000Y-105178926D01*
X76689586Y-105436392D01*
X76636653Y-105679722D01*
X76549629Y-105913042D01*
X76430281Y-106131611D01*
X76281048Y-106330962D01*
X76104962Y-106507048D01*
X76041975Y-106554200D01*
X920025Y-106554200D01*
X857038Y-106507048D01*
X680952Y-106330962D01*
X633800Y-106267975D01*
X633800Y-100584000D01*
X40853594Y-100584000D01*
X40875968Y-100811164D01*
X40942229Y-101029599D01*
X41049832Y-101230909D01*
X41194641Y-101407359D01*
X41277102Y-101475033D01*
X41332484Y-101542516D01*
X41456249Y-101644088D01*
X41597451Y-101719562D01*
X41750664Y-101766038D01*
X41910000Y-101781732D01*
X42069336Y-101766038D01*
X42145943Y-101742800D01*
X42874918Y-101742800D01*
X43045164Y-101726032D01*
X43263599Y-101659771D01*
X43464909Y-101552168D01*
X43641359Y-101407359D01*
X43786168Y-101230909D01*
X43893771Y-101029599D01*
X43960032Y-100811164D01*
X43982406Y-100584000D01*
X43960032Y-100356836D01*
X43893771Y-100138401D01*
X43786168Y-99937091D01*
X43641359Y-99760641D01*
X43464909Y-99615832D01*
X43263599Y-99508229D01*
X43045164Y-99441968D01*
X42874918Y-99425200D01*
X41961082Y-99425200D01*
X41790836Y-99441968D01*
X41572401Y-99508229D01*
X41371091Y-99615832D01*
X41194641Y-99760641D01*
X41049832Y-99937091D01*
X40942229Y-100138401D01*
X40875968Y-100356836D01*
X40853594Y-100584000D01*
X633800Y-100584000D01*
X633800Y-95504000D01*
X40853594Y-95504000D01*
X40875968Y-95731164D01*
X40942229Y-95949599D01*
X41049832Y-96150909D01*
X41194641Y-96327359D01*
X41371091Y-96472168D01*
X41572401Y-96579771D01*
X41790836Y-96646032D01*
X41961082Y-96662800D01*
X42874918Y-96662800D01*
X43045164Y-96646032D01*
X43263599Y-96579771D01*
X43464909Y-96472168D01*
X43641359Y-96327359D01*
X43786168Y-96150909D01*
X43893771Y-95949599D01*
X43960032Y-95731164D01*
X43982406Y-95504000D01*
X43960032Y-95276836D01*
X43893771Y-95058401D01*
X43786168Y-94857091D01*
X43641359Y-94680641D01*
X43464909Y-94535832D01*
X43263599Y-94428229D01*
X43045164Y-94361968D01*
X42874918Y-94345200D01*
X41961082Y-94345200D01*
X41790836Y-94361968D01*
X41572401Y-94428229D01*
X41371091Y-94535832D01*
X41194641Y-94680641D01*
X41049832Y-94857091D01*
X40942229Y-95058401D01*
X40875968Y-95276836D01*
X40853594Y-95504000D01*
X633800Y-95504000D01*
X633800Y-74784282D01*
X9560200Y-74784282D01*
X9560200Y-75327718D01*
X9666219Y-75860712D01*
X9874183Y-76362782D01*
X10176100Y-76814633D01*
X10560367Y-77198900D01*
X11012218Y-77500817D01*
X11514288Y-77708781D01*
X12047282Y-77814800D01*
X12590718Y-77814800D01*
X13123712Y-77708781D01*
X13625782Y-77500817D01*
X14077633Y-77198900D01*
X14461900Y-76814633D01*
X14763817Y-76362782D01*
X14971781Y-75860712D01*
X15077800Y-75327718D01*
X15077800Y-74784282D01*
X14971781Y-74251288D01*
X14763817Y-73749218D01*
X14461900Y-73297367D01*
X14077633Y-72913100D01*
X13625782Y-72611183D01*
X13123712Y-72403219D01*
X12590718Y-72297200D01*
X12047282Y-72297200D01*
X11514288Y-72403219D01*
X11012218Y-72611183D01*
X10560367Y-72913100D01*
X10176100Y-73297367D01*
X9874183Y-73749218D01*
X9666219Y-74251288D01*
X9560200Y-74784282D01*
X633800Y-74784282D01*
X633800Y-6205282D01*
X20228200Y-6205282D01*
X20228200Y-6748718D01*
X20334219Y-7281712D01*
X20542183Y-7783782D01*
X20844100Y-8235633D01*
X21228367Y-8619900D01*
X21680218Y-8921817D01*
X22182288Y-9129781D01*
X22715282Y-9235800D01*
X23258718Y-9235800D01*
X23791712Y-9129781D01*
X24293782Y-8921817D01*
X24745633Y-8619900D01*
X25129900Y-8235633D01*
X25431817Y-7783782D01*
X25639781Y-7281712D01*
X25745800Y-6748718D01*
X25745800Y-6205282D01*
X25639781Y-5672288D01*
X25431817Y-5170218D01*
X25129900Y-4718367D01*
X24745633Y-4334100D01*
X24293782Y-4032183D01*
X23791712Y-3824219D01*
X23258718Y-3718200D01*
X22715282Y-3718200D01*
X22182288Y-3824219D01*
X21680218Y-4032183D01*
X21228367Y-4334100D01*
X20844100Y-4718367D01*
X20542183Y-5170218D01*
X20334219Y-5672288D01*
X20228200Y-6205282D01*
X633800Y-6205282D01*
X633800Y-920025D01*
X680952Y-857038D01*
X857038Y-680952D01*
X920025Y-633800D01*
X67151975Y-633800D01*
X67214962Y-680952D01*
G36*
X58885201Y-25330570D02*
X58885200Y-27312074D01*
X58880078Y-27364081D01*
X58885200Y-27416088D01*
X58885200Y-27416095D01*
X58900520Y-27571641D01*
X58961063Y-27771226D01*
X59059380Y-27955165D01*
X59191693Y-28116388D01*
X59232102Y-28149551D01*
X60496453Y-29413903D01*
X60529612Y-29454307D01*
X60690835Y-29586620D01*
X60874773Y-29684937D01*
X61027905Y-29731389D01*
X61074357Y-29745480D01*
X61093843Y-29747399D01*
X61229904Y-29760800D01*
X61229911Y-29760800D01*
X61281918Y-29765922D01*
X61333925Y-29760800D01*
X61550455Y-29760800D01*
X61585942Y-29796287D01*
X61816683Y-29950463D01*
X62073068Y-30056661D01*
X62345245Y-30110800D01*
X62622755Y-30110800D01*
X62894932Y-30056661D01*
X63151317Y-29950463D01*
X63382058Y-29796287D01*
X63423801Y-29754544D01*
X63423800Y-40363055D01*
X63382058Y-40321313D01*
X63151317Y-40167137D01*
X62894932Y-40060939D01*
X62622755Y-40006800D01*
X62345245Y-40006800D01*
X62073068Y-40060939D01*
X61816683Y-40167137D01*
X61585942Y-40321313D01*
X61389713Y-40517542D01*
X61235537Y-40748283D01*
X61129339Y-41004668D01*
X61115986Y-41071800D01*
X59788014Y-41071800D01*
X59774661Y-41004668D01*
X59668463Y-40748283D01*
X59514287Y-40517542D01*
X59318058Y-40321313D01*
X59087317Y-40167137D01*
X58830932Y-40060939D01*
X58558755Y-40006800D01*
X58281245Y-40006800D01*
X58216800Y-40019619D01*
X58216800Y-24662169D01*
X58885201Y-25330570D01*
X58885201Y-25330570D01*
G37*
X58885201Y-25330570D02*
X58885200Y-27312074D01*
X58880078Y-27364081D01*
X58885200Y-27416088D01*
X58885200Y-27416095D01*
X58900520Y-27571641D01*
X58961063Y-27771226D01*
X59059380Y-27955165D01*
X59191693Y-28116388D01*
X59232102Y-28149551D01*
X60496453Y-29413903D01*
X60529612Y-29454307D01*
X60690835Y-29586620D01*
X60874773Y-29684937D01*
X61027905Y-29731389D01*
X61074357Y-29745480D01*
X61093843Y-29747399D01*
X61229904Y-29760800D01*
X61229911Y-29760800D01*
X61281918Y-29765922D01*
X61333925Y-29760800D01*
X61550455Y-29760800D01*
X61585942Y-29796287D01*
X61816683Y-29950463D01*
X62073068Y-30056661D01*
X62345245Y-30110800D01*
X62622755Y-30110800D01*
X62894932Y-30056661D01*
X63151317Y-29950463D01*
X63382058Y-29796287D01*
X63423801Y-29754544D01*
X63423800Y-40363055D01*
X63382058Y-40321313D01*
X63151317Y-40167137D01*
X62894932Y-40060939D01*
X62622755Y-40006800D01*
X62345245Y-40006800D01*
X62073068Y-40060939D01*
X61816683Y-40167137D01*
X61585942Y-40321313D01*
X61389713Y-40517542D01*
X61235537Y-40748283D01*
X61129339Y-41004668D01*
X61115986Y-41071800D01*
X59788014Y-41071800D01*
X59774661Y-41004668D01*
X59668463Y-40748283D01*
X59514287Y-40517542D01*
X59318058Y-40321313D01*
X59087317Y-40167137D01*
X58830932Y-40060939D01*
X58558755Y-40006800D01*
X58281245Y-40006800D01*
X58216800Y-40019619D01*
X58216800Y-24662169D01*
X58885201Y-25330570D01*
G04 #@! TO.N,/+B*
G36*
X75856069Y-53548990D02*
X76754004Y-53789591D01*
X77596511Y-54182459D01*
X78358009Y-54715666D01*
X79015334Y-55372991D01*
X79548541Y-56134489D01*
X79941409Y-56976996D01*
X80182010Y-57874931D01*
X80264000Y-58812084D01*
X80264000Y-76595534D01*
X80264438Y-76610446D01*
X80334479Y-77801383D01*
X80337975Y-77831003D01*
X80547133Y-79005520D01*
X80554077Y-79034525D01*
X80899468Y-80176428D01*
X80909764Y-80204419D01*
X81386625Y-81297963D01*
X81400131Y-81324555D01*
X82001889Y-82354665D01*
X82018419Y-82379490D01*
X82736775Y-83331960D01*
X82756101Y-83354676D01*
X83581153Y-84216377D01*
X83591782Y-84226846D01*
X88131557Y-88442351D01*
X88143333Y-88452629D01*
X89109802Y-89245154D01*
X89135137Y-89263443D01*
X90191603Y-89931303D01*
X90218992Y-89946344D01*
X91349468Y-90479432D01*
X91378496Y-90490995D01*
X92565873Y-90881244D01*
X92596101Y-90889156D01*
X93822410Y-91130660D01*
X93853381Y-91134801D01*
X95100064Y-91223905D01*
X95115682Y-91224539D01*
X114150922Y-91411159D01*
X114168803Y-91410704D01*
X115596244Y-91324049D01*
X115631689Y-91319377D01*
X117032823Y-91033160D01*
X117067261Y-91023557D01*
X118414329Y-90543447D01*
X118447078Y-90529104D01*
X119713391Y-89864615D01*
X119728927Y-89855751D01*
X128734559Y-84288633D01*
X129954709Y-83646459D01*
X131243508Y-83181771D01*
X132584099Y-82899352D01*
X133959624Y-82804000D01*
X188968318Y-82804000D01*
X190169987Y-82876688D01*
X191346547Y-83092300D01*
X192488548Y-83448162D01*
X193579337Y-83939087D01*
X194602980Y-84557900D01*
X195544589Y-85295604D01*
X196390396Y-86141411D01*
X197128100Y-87083020D01*
X197537001Y-87759426D01*
X197537001Y-101978574D01*
X197128100Y-102654980D01*
X196390396Y-103596589D01*
X195544589Y-104442396D01*
X194602980Y-105180100D01*
X193926576Y-105589000D01*
X87198146Y-105589000D01*
X87143265Y-105561396D01*
X86054902Y-104818112D01*
X85068560Y-103931260D01*
X72409090Y-90924955D01*
X71576058Y-89950987D01*
X70879339Y-88885045D01*
X70325133Y-87738533D01*
X69922596Y-86530390D01*
X69678383Y-85280598D01*
X69596000Y-84001613D01*
X69596000Y-58812084D01*
X69677990Y-57874931D01*
X69918591Y-56976996D01*
X70311459Y-56134489D01*
X70844666Y-55372991D01*
X71501991Y-54715666D01*
X72263489Y-54182459D01*
X73105996Y-53789591D01*
X74003931Y-53548990D01*
X74930000Y-53467970D01*
X75856069Y-53548990D01*
X75856069Y-53548990D01*
G37*
X75856069Y-53548990D02*
X76754004Y-53789591D01*
X77596511Y-54182459D01*
X78358009Y-54715666D01*
X79015334Y-55372991D01*
X79548541Y-56134489D01*
X79941409Y-56976996D01*
X80182010Y-57874931D01*
X80264000Y-58812084D01*
X80264000Y-76595534D01*
X80264438Y-76610446D01*
X80334479Y-77801383D01*
X80337975Y-77831003D01*
X80547133Y-79005520D01*
X80554077Y-79034525D01*
X80899468Y-80176428D01*
X80909764Y-80204419D01*
X81386625Y-81297963D01*
X81400131Y-81324555D01*
X82001889Y-82354665D01*
X82018419Y-82379490D01*
X82736775Y-83331960D01*
X82756101Y-83354676D01*
X83581153Y-84216377D01*
X83591782Y-84226846D01*
X88131557Y-88442351D01*
X88143333Y-88452629D01*
X89109802Y-89245154D01*
X89135137Y-89263443D01*
X90191603Y-89931303D01*
X90218992Y-89946344D01*
X91349468Y-90479432D01*
X91378496Y-90490995D01*
X92565873Y-90881244D01*
X92596101Y-90889156D01*
X93822410Y-91130660D01*
X93853381Y-91134801D01*
X95100064Y-91223905D01*
X95115682Y-91224539D01*
X114150922Y-91411159D01*
X114168803Y-91410704D01*
X115596244Y-91324049D01*
X115631689Y-91319377D01*
X117032823Y-91033160D01*
X117067261Y-91023557D01*
X118414329Y-90543447D01*
X118447078Y-90529104D01*
X119713391Y-89864615D01*
X119728927Y-89855751D01*
X128734559Y-84288633D01*
X129954709Y-83646459D01*
X131243508Y-83181771D01*
X132584099Y-82899352D01*
X133959624Y-82804000D01*
X188968318Y-82804000D01*
X190169987Y-82876688D01*
X191346547Y-83092300D01*
X192488548Y-83448162D01*
X193579337Y-83939087D01*
X194602980Y-84557900D01*
X195544589Y-85295604D01*
X196390396Y-86141411D01*
X197128100Y-87083020D01*
X197537001Y-87759426D01*
X197537001Y-101978574D01*
X197128100Y-102654980D01*
X196390396Y-103596589D01*
X195544589Y-104442396D01*
X194602980Y-105180100D01*
X193926576Y-105589000D01*
X87198146Y-105589000D01*
X87143265Y-105561396D01*
X86054902Y-104818112D01*
X85068560Y-103931260D01*
X72409090Y-90924955D01*
X71576058Y-89950987D01*
X70879339Y-88885045D01*
X70325133Y-87738533D01*
X69922596Y-86530390D01*
X69678383Y-85280598D01*
X69596000Y-84001613D01*
X69596000Y-58812084D01*
X69677990Y-57874931D01*
X69918591Y-56976996D01*
X70311459Y-56134489D01*
X70844666Y-55372991D01*
X71501991Y-54715666D01*
X72263489Y-54182459D01*
X73105996Y-53789591D01*
X74003931Y-53548990D01*
X74930000Y-53467970D01*
X75856069Y-53548990D01*
G04 #@! TO.N,/+Vp*
G36*
X190169987Y-28266688D02*
X191346547Y-28482300D01*
X192488548Y-28838162D01*
X193579337Y-29329087D01*
X194602980Y-29947900D01*
X195544589Y-30685604D01*
X196390396Y-31531411D01*
X197128100Y-32473020D01*
X197537000Y-33149425D01*
X197537001Y-45590575D01*
X197128100Y-46266980D01*
X196390396Y-47208589D01*
X195544589Y-48054396D01*
X194602980Y-48792100D01*
X193579337Y-49410913D01*
X192488548Y-49901838D01*
X191346547Y-50257700D01*
X190169987Y-50473312D01*
X188968318Y-50546000D01*
X136587189Y-50546000D01*
X135575144Y-50471953D01*
X134593747Y-50253413D01*
X133654605Y-49894353D01*
X132777725Y-49402422D01*
X131981789Y-48788100D01*
X131283747Y-48064470D01*
X130698458Y-47246936D01*
X130238403Y-46352931D01*
X129910361Y-45392668D01*
X128773126Y-41050497D01*
X128759288Y-41011167D01*
X128583479Y-40617991D01*
X128537601Y-40548697D01*
X128244294Y-40233312D01*
X128178506Y-40182535D01*
X127799100Y-39978704D01*
X127720443Y-39951880D01*
X127295552Y-39881422D01*
X127283929Y-39879769D01*
X126671122Y-39807055D01*
X126120618Y-39603410D01*
X125620494Y-39268172D01*
X125528181Y-39189046D01*
X125084478Y-38681594D01*
X124810528Y-38085967D01*
X124714000Y-37418839D01*
X124714000Y-34754420D01*
X124711827Y-34721266D01*
X124652728Y-34272365D01*
X124635566Y-34208318D01*
X124462297Y-33790009D01*
X124429144Y-33732584D01*
X124153512Y-33373374D01*
X124106626Y-33326488D01*
X123747416Y-33050856D01*
X123689991Y-33017703D01*
X123271682Y-32844434D01*
X123207635Y-32827272D01*
X122758734Y-32768173D01*
X122725580Y-32766000D01*
X122141014Y-32766000D01*
X121528000Y-32644064D01*
X120914986Y-32766000D01*
X120786026Y-32766000D01*
X120752872Y-32768173D01*
X120191745Y-32842047D01*
X120127698Y-32859209D01*
X119604812Y-33075795D01*
X119547388Y-33108948D01*
X119098375Y-33453488D01*
X119051488Y-33500375D01*
X118706948Y-33949388D01*
X118673795Y-34006812D01*
X118457209Y-34529698D01*
X118440047Y-34593745D01*
X118366173Y-35154872D01*
X118364000Y-35188026D01*
X118364000Y-36686352D01*
X118288317Y-37261224D01*
X118072851Y-37781404D01*
X117730094Y-38228094D01*
X117283404Y-38570851D01*
X116763224Y-38786317D01*
X116188352Y-38862000D01*
X116094648Y-38862000D01*
X115486906Y-38781990D01*
X114936099Y-38553838D01*
X114463104Y-38190896D01*
X114100162Y-37717901D01*
X113872010Y-37167094D01*
X113792000Y-36559352D01*
X113792000Y-33539084D01*
X113873990Y-32601931D01*
X114114591Y-31703996D01*
X114507459Y-30861489D01*
X115040666Y-30099991D01*
X115697991Y-29442666D01*
X116459489Y-28909459D01*
X117301996Y-28516591D01*
X118199931Y-28275990D01*
X119137084Y-28194000D01*
X188968318Y-28194000D01*
X190169987Y-28266688D01*
X190169987Y-28266688D01*
G37*
X190169987Y-28266688D02*
X191346547Y-28482300D01*
X192488548Y-28838162D01*
X193579337Y-29329087D01*
X194602980Y-29947900D01*
X195544589Y-30685604D01*
X196390396Y-31531411D01*
X197128100Y-32473020D01*
X197537000Y-33149425D01*
X197537001Y-45590575D01*
X197128100Y-46266980D01*
X196390396Y-47208589D01*
X195544589Y-48054396D01*
X194602980Y-48792100D01*
X193579337Y-49410913D01*
X192488548Y-49901838D01*
X191346547Y-50257700D01*
X190169987Y-50473312D01*
X188968318Y-50546000D01*
X136587189Y-50546000D01*
X135575144Y-50471953D01*
X134593747Y-50253413D01*
X133654605Y-49894353D01*
X132777725Y-49402422D01*
X131981789Y-48788100D01*
X131283747Y-48064470D01*
X130698458Y-47246936D01*
X130238403Y-46352931D01*
X129910361Y-45392668D01*
X128773126Y-41050497D01*
X128759288Y-41011167D01*
X128583479Y-40617991D01*
X128537601Y-40548697D01*
X128244294Y-40233312D01*
X128178506Y-40182535D01*
X127799100Y-39978704D01*
X127720443Y-39951880D01*
X127295552Y-39881422D01*
X127283929Y-39879769D01*
X126671122Y-39807055D01*
X126120618Y-39603410D01*
X125620494Y-39268172D01*
X125528181Y-39189046D01*
X125084478Y-38681594D01*
X124810528Y-38085967D01*
X124714000Y-37418839D01*
X124714000Y-34754420D01*
X124711827Y-34721266D01*
X124652728Y-34272365D01*
X124635566Y-34208318D01*
X124462297Y-33790009D01*
X124429144Y-33732584D01*
X124153512Y-33373374D01*
X124106626Y-33326488D01*
X123747416Y-33050856D01*
X123689991Y-33017703D01*
X123271682Y-32844434D01*
X123207635Y-32827272D01*
X122758734Y-32768173D01*
X122725580Y-32766000D01*
X122141014Y-32766000D01*
X121528000Y-32644064D01*
X120914986Y-32766000D01*
X120786026Y-32766000D01*
X120752872Y-32768173D01*
X120191745Y-32842047D01*
X120127698Y-32859209D01*
X119604812Y-33075795D01*
X119547388Y-33108948D01*
X119098375Y-33453488D01*
X119051488Y-33500375D01*
X118706948Y-33949388D01*
X118673795Y-34006812D01*
X118457209Y-34529698D01*
X118440047Y-34593745D01*
X118366173Y-35154872D01*
X118364000Y-35188026D01*
X118364000Y-36686352D01*
X118288317Y-37261224D01*
X118072851Y-37781404D01*
X117730094Y-38228094D01*
X117283404Y-38570851D01*
X116763224Y-38786317D01*
X116188352Y-38862000D01*
X116094648Y-38862000D01*
X115486906Y-38781990D01*
X114936099Y-38553838D01*
X114463104Y-38190896D01*
X114100162Y-37717901D01*
X113872010Y-37167094D01*
X113792000Y-36559352D01*
X113792000Y-33539084D01*
X113873990Y-32601931D01*
X114114591Y-31703996D01*
X114507459Y-30861489D01*
X115040666Y-30099991D01*
X115697991Y-29442666D01*
X116459489Y-28909459D01*
X117301996Y-28516591D01*
X118199931Y-28275990D01*
X119137084Y-28194000D01*
X188968318Y-28194000D01*
X190169987Y-28266688D01*
D33*
G04 #@! TO.N,Net-(U1-Pad3)*
G36*
X77732485Y-8319880D02*
X78183952Y-8506884D01*
X78571636Y-8804364D01*
X78869116Y-9192048D01*
X79056120Y-9643515D01*
X79121000Y-10136328D01*
X79121000Y-17451245D01*
X79056120Y-17944058D01*
X78869116Y-18395525D01*
X78566527Y-18789867D01*
X78479867Y-18876527D01*
X78085525Y-19179116D01*
X77634058Y-19366120D01*
X77141245Y-19431000D01*
X74488427Y-19431000D01*
X74471850Y-19432086D01*
X73954212Y-19500234D01*
X73922188Y-19508815D01*
X73439826Y-19708616D01*
X73411114Y-19725193D01*
X73383288Y-19746544D01*
X73037265Y-19815373D01*
X72294005Y-20312004D01*
X71797373Y-21055264D01*
X71667000Y-21710692D01*
X71667000Y-22993307D01*
X71721655Y-23268072D01*
X71484556Y-23505171D01*
X71130961Y-23685337D01*
X70729008Y-23749000D01*
X70367992Y-23749000D01*
X69848304Y-23666689D01*
X69388498Y-23432406D01*
X69023594Y-23067502D01*
X68789311Y-22607696D01*
X68707000Y-22088008D01*
X68707000Y-14552755D01*
X68771880Y-14059942D01*
X68958884Y-13608475D01*
X69261473Y-13214133D01*
X69348133Y-13127473D01*
X69742475Y-12824884D01*
X70193942Y-12637880D01*
X70686755Y-12573000D01*
X71395469Y-12573000D01*
X71417172Y-12571132D01*
X71857608Y-12494744D01*
X71898478Y-12480127D01*
X72287468Y-12259885D01*
X72321029Y-12232360D01*
X72506057Y-12018026D01*
X72993996Y-11691996D01*
X73490627Y-10948736D01*
X73621000Y-10293308D01*
X73621000Y-9010693D01*
X73536914Y-8587965D01*
X73601795Y-8523084D01*
X73990794Y-8324879D01*
X74431992Y-8255000D01*
X77239672Y-8255000D01*
X77732485Y-8319880D01*
X77732485Y-8319880D01*
G37*
X77732485Y-8319880D02*
X78183952Y-8506884D01*
X78571636Y-8804364D01*
X78869116Y-9192048D01*
X79056120Y-9643515D01*
X79121000Y-10136328D01*
X79121000Y-17451245D01*
X79056120Y-17944058D01*
X78869116Y-18395525D01*
X78566527Y-18789867D01*
X78479867Y-18876527D01*
X78085525Y-19179116D01*
X77634058Y-19366120D01*
X77141245Y-19431000D01*
X74488427Y-19431000D01*
X74471850Y-19432086D01*
X73954212Y-19500234D01*
X73922188Y-19508815D01*
X73439826Y-19708616D01*
X73411114Y-19725193D01*
X73383288Y-19746544D01*
X73037265Y-19815373D01*
X72294005Y-20312004D01*
X71797373Y-21055264D01*
X71667000Y-21710692D01*
X71667000Y-22993307D01*
X71721655Y-23268072D01*
X71484556Y-23505171D01*
X71130961Y-23685337D01*
X70729008Y-23749000D01*
X70367992Y-23749000D01*
X69848304Y-23666689D01*
X69388498Y-23432406D01*
X69023594Y-23067502D01*
X68789311Y-22607696D01*
X68707000Y-22088008D01*
X68707000Y-14552755D01*
X68771880Y-14059942D01*
X68958884Y-13608475D01*
X69261473Y-13214133D01*
X69348133Y-13127473D01*
X69742475Y-12824884D01*
X70193942Y-12637880D01*
X70686755Y-12573000D01*
X71395469Y-12573000D01*
X71417172Y-12571132D01*
X71857608Y-12494744D01*
X71898478Y-12480127D01*
X72287468Y-12259885D01*
X72321029Y-12232360D01*
X72506057Y-12018026D01*
X72993996Y-11691996D01*
X73490627Y-10948736D01*
X73621000Y-10293308D01*
X73621000Y-9010693D01*
X73536914Y-8587965D01*
X73601795Y-8523084D01*
X73990794Y-8324879D01*
X74431992Y-8255000D01*
X77239672Y-8255000D01*
X77732485Y-8319880D01*
G04 #@! TO.N,Net-(L1-Pad1)*
G36*
X77732485Y-21527880D02*
X78183952Y-21714884D01*
X78571636Y-22012364D01*
X78869116Y-22400048D01*
X79056120Y-22851515D01*
X79121000Y-23344328D01*
X79121000Y-31929245D01*
X79056120Y-32422058D01*
X78869116Y-32873525D01*
X78566527Y-33267867D01*
X76955867Y-34878527D01*
X76561525Y-35181116D01*
X76110058Y-35368120D01*
X75617245Y-35433000D01*
X73226755Y-35433000D01*
X72733942Y-35368120D01*
X72282475Y-35181116D01*
X71888133Y-34878527D01*
X69515473Y-32505867D01*
X69212884Y-32111525D01*
X69025880Y-31660058D01*
X68961000Y-31167245D01*
X68961000Y-26933992D01*
X69030879Y-26492794D01*
X69229084Y-26103795D01*
X69537795Y-25795084D01*
X69926794Y-25596879D01*
X70367992Y-25527000D01*
X71053573Y-25527000D01*
X71070150Y-25525914D01*
X71587788Y-25457766D01*
X71619812Y-25449185D01*
X72102174Y-25249384D01*
X72130886Y-25232807D01*
X72545099Y-24914970D01*
X72557589Y-24904017D01*
X72656017Y-24805589D01*
X72666970Y-24793099D01*
X72954494Y-24418390D01*
X72993996Y-24391996D01*
X73490627Y-23648736D01*
X73621000Y-22993308D01*
X73621000Y-21889273D01*
X73803444Y-21706829D01*
X74157039Y-21526663D01*
X74558992Y-21463000D01*
X77239672Y-21463000D01*
X77732485Y-21527880D01*
X77732485Y-21527880D01*
G37*
X77732485Y-21527880D02*
X78183952Y-21714884D01*
X78571636Y-22012364D01*
X78869116Y-22400048D01*
X79056120Y-22851515D01*
X79121000Y-23344328D01*
X79121000Y-31929245D01*
X79056120Y-32422058D01*
X78869116Y-32873525D01*
X78566527Y-33267867D01*
X76955867Y-34878527D01*
X76561525Y-35181116D01*
X76110058Y-35368120D01*
X75617245Y-35433000D01*
X73226755Y-35433000D01*
X72733942Y-35368120D01*
X72282475Y-35181116D01*
X71888133Y-34878527D01*
X69515473Y-32505867D01*
X69212884Y-32111525D01*
X69025880Y-31660058D01*
X68961000Y-31167245D01*
X68961000Y-26933992D01*
X69030879Y-26492794D01*
X69229084Y-26103795D01*
X69537795Y-25795084D01*
X69926794Y-25596879D01*
X70367992Y-25527000D01*
X71053573Y-25527000D01*
X71070150Y-25525914D01*
X71587788Y-25457766D01*
X71619812Y-25449185D01*
X72102174Y-25249384D01*
X72130886Y-25232807D01*
X72545099Y-24914970D01*
X72557589Y-24904017D01*
X72656017Y-24805589D01*
X72666970Y-24793099D01*
X72954494Y-24418390D01*
X72993996Y-24391996D01*
X73490627Y-23648736D01*
X73621000Y-22993308D01*
X73621000Y-21889273D01*
X73803444Y-21706829D01*
X74157039Y-21526663D01*
X74558992Y-21463000D01*
X77239672Y-21463000D01*
X77732485Y-21527880D01*
D30*
G04 #@! TO.N,GNDA*
G36*
X45677201Y-5650411D02*
X45677200Y-13103722D01*
X45656458Y-13208000D01*
X45677200Y-13312277D01*
X45677200Y-13312281D01*
X45720000Y-13527452D01*
X45720000Y-13716000D01*
X45739335Y-13813202D01*
X45797268Y-13898433D01*
X50014722Y-17984092D01*
X53279579Y-21248949D01*
X53338648Y-21337352D01*
X53427051Y-21396421D01*
X53427053Y-21396423D01*
X53590403Y-21505570D01*
X53688877Y-21571368D01*
X53725169Y-21578587D01*
X53925268Y-21772433D01*
X54008535Y-21826179D01*
X54102000Y-21844000D01*
X55010679Y-21844000D01*
X55345772Y-21982800D01*
X55537431Y-21982800D01*
X57404000Y-23849370D01*
X57404000Y-27979656D01*
X57225677Y-28157979D01*
X57011200Y-28675772D01*
X57011200Y-29236228D01*
X57225677Y-29754021D01*
X57404000Y-29932344D01*
X57404000Y-40439256D01*
X57225677Y-40617579D01*
X57011200Y-41135372D01*
X57011200Y-41695828D01*
X57225677Y-42213621D01*
X57404000Y-42391944D01*
X57404000Y-42444056D01*
X57225677Y-42622379D01*
X57011200Y-43140172D01*
X57011200Y-43700628D01*
X57225677Y-44218421D01*
X57404000Y-44396744D01*
X57404000Y-51869256D01*
X57225677Y-52047579D01*
X57011200Y-52565372D01*
X57011200Y-53125828D01*
X57225677Y-53643621D01*
X57404000Y-53821944D01*
X57404000Y-53874056D01*
X57225677Y-54052379D01*
X57011200Y-54570172D01*
X57011200Y-55130628D01*
X57225677Y-55648421D01*
X57404000Y-55826744D01*
X57404000Y-65024000D01*
X51054000Y-65024000D01*
X51054000Y-52832000D01*
X51034665Y-52734798D01*
X50979605Y-52652395D01*
X48514000Y-50186790D01*
X48514000Y-40894000D01*
X48494665Y-40796798D01*
X48439605Y-40714395D01*
X44958000Y-37232790D01*
X44958000Y-30226000D01*
X44938665Y-30128798D01*
X44883605Y-30046395D01*
X43105605Y-28268395D01*
X43023202Y-28213335D01*
X42926000Y-28194000D01*
X37846000Y-28194000D01*
X37846000Y-25654000D01*
X40836498Y-25654000D01*
X40926434Y-26106141D01*
X41182552Y-26489448D01*
X41565859Y-26745566D01*
X41903869Y-26812800D01*
X42932131Y-26812800D01*
X43270141Y-26745566D01*
X43653448Y-26489448D01*
X43909566Y-26106141D01*
X43999502Y-25654000D01*
X43909566Y-25201859D01*
X43653448Y-24818552D01*
X43270141Y-24562434D01*
X42932131Y-24495200D01*
X41903869Y-24495200D01*
X41565859Y-24562434D01*
X41182552Y-24818552D01*
X40926434Y-25201859D01*
X40836498Y-25654000D01*
X37846000Y-25654000D01*
X37846000Y-25465453D01*
X37888800Y-25250282D01*
X37888800Y-25250278D01*
X37909542Y-25146000D01*
X37888800Y-25041723D01*
X37888800Y-23114000D01*
X40836498Y-23114000D01*
X40926434Y-23566141D01*
X41182552Y-23949448D01*
X41565859Y-24205566D01*
X41903869Y-24272800D01*
X42932131Y-24272800D01*
X43270141Y-24205566D01*
X43653448Y-23949448D01*
X43909566Y-23566141D01*
X43999502Y-23114000D01*
X43909566Y-22661859D01*
X43653448Y-22278552D01*
X43270141Y-22022434D01*
X42932131Y-21955200D01*
X41903869Y-21955200D01*
X41565859Y-22022434D01*
X41182552Y-22278552D01*
X40926434Y-22661859D01*
X40836498Y-23114000D01*
X37888800Y-23114000D01*
X37888800Y-20574000D01*
X40836498Y-20574000D01*
X40926434Y-21026141D01*
X41182552Y-21409448D01*
X41565859Y-21665566D01*
X41903869Y-21732800D01*
X42932131Y-21732800D01*
X43270141Y-21665566D01*
X43653448Y-21409448D01*
X43668581Y-21386800D01*
X44367328Y-21386800D01*
X45415201Y-22434673D01*
X45415200Y-36495950D01*
X45399277Y-36576000D01*
X45415200Y-36656049D01*
X45462360Y-36893138D01*
X45642004Y-37161996D01*
X45709871Y-37207343D01*
X49225201Y-40722674D01*
X49225200Y-49195950D01*
X49209277Y-49276000D01*
X49225200Y-49356049D01*
X49272360Y-49593138D01*
X49452004Y-49861996D01*
X49519871Y-49907343D01*
X51765201Y-52152673D01*
X51765200Y-60288456D01*
X51383677Y-60669979D01*
X51169200Y-61187772D01*
X51169200Y-61748228D01*
X51383677Y-62266021D01*
X51779979Y-62662323D01*
X52297772Y-62876800D01*
X52858228Y-62876800D01*
X53376021Y-62662323D01*
X53772323Y-62266021D01*
X53902137Y-61952622D01*
X54136552Y-62303448D01*
X54519859Y-62559566D01*
X54857869Y-62626800D01*
X55886131Y-62626800D01*
X56224141Y-62559566D01*
X56607448Y-62303448D01*
X56863566Y-61920141D01*
X56953502Y-61468000D01*
X56863566Y-61015859D01*
X56607448Y-60632552D01*
X56224141Y-60376434D01*
X55886131Y-60309200D01*
X54857869Y-60309200D01*
X54519859Y-60376434D01*
X54136552Y-60632552D01*
X53902137Y-60983378D01*
X53772323Y-60669979D01*
X53390800Y-60288456D01*
X53390800Y-55118000D01*
X53790498Y-55118000D01*
X53880434Y-55570141D01*
X54136552Y-55953448D01*
X54519859Y-56209566D01*
X54857869Y-56276800D01*
X55886131Y-56276800D01*
X56224141Y-56209566D01*
X56607448Y-55953448D01*
X56863566Y-55570141D01*
X56953502Y-55118000D01*
X56863566Y-54665859D01*
X56607448Y-54282552D01*
X56224141Y-54026434D01*
X55886131Y-53959200D01*
X54857869Y-53959200D01*
X54519859Y-54026434D01*
X54136552Y-54282552D01*
X53880434Y-54665859D01*
X53790498Y-55118000D01*
X53390800Y-55118000D01*
X53390800Y-52578000D01*
X53790498Y-52578000D01*
X53880434Y-53030141D01*
X54136552Y-53413448D01*
X54519859Y-53669566D01*
X54857869Y-53736800D01*
X55886131Y-53736800D01*
X56224141Y-53669566D01*
X56607448Y-53413448D01*
X56863566Y-53030141D01*
X56953502Y-52578000D01*
X56863566Y-52125859D01*
X56607448Y-51742552D01*
X56224141Y-51486434D01*
X55886131Y-51419200D01*
X54857869Y-51419200D01*
X54519859Y-51486434D01*
X54136552Y-51742552D01*
X53880434Y-52125859D01*
X53790498Y-52578000D01*
X53390800Y-52578000D01*
X53390800Y-51896049D01*
X53406723Y-51815999D01*
X53343640Y-51498861D01*
X53163996Y-51230004D01*
X53096129Y-51184657D01*
X50850800Y-48939328D01*
X50850800Y-40466050D01*
X50866723Y-40386000D01*
X50803640Y-40068862D01*
X50803640Y-40068861D01*
X50623996Y-39800004D01*
X50556131Y-39754658D01*
X47040800Y-36239328D01*
X47040800Y-22178049D01*
X47056723Y-22097999D01*
X46993640Y-21780861D01*
X46985262Y-21768323D01*
X46813996Y-21512004D01*
X46746129Y-21466657D01*
X45335343Y-20055871D01*
X45289996Y-19988004D01*
X45021139Y-19808360D01*
X44784050Y-19761200D01*
X44704000Y-19745277D01*
X44623950Y-19761200D01*
X43668581Y-19761200D01*
X43653448Y-19738552D01*
X43270141Y-19482434D01*
X42932131Y-19415200D01*
X41903869Y-19415200D01*
X41565859Y-19482434D01*
X41182552Y-19738552D01*
X40926434Y-20121859D01*
X40836498Y-20574000D01*
X37888800Y-20574000D01*
X37888800Y-18034000D01*
X40836498Y-18034000D01*
X40926434Y-18486141D01*
X41182552Y-18869448D01*
X41565859Y-19125566D01*
X41903869Y-19192800D01*
X42932131Y-19192800D01*
X43270141Y-19125566D01*
X43653448Y-18869448D01*
X43668581Y-18846800D01*
X44621328Y-18846800D01*
X47447201Y-21672674D01*
X47447200Y-35733950D01*
X47431277Y-35814000D01*
X47447200Y-35894049D01*
X47494360Y-36131138D01*
X47674004Y-36399996D01*
X47741871Y-36445343D01*
X51765201Y-40468674D01*
X51765200Y-46318456D01*
X51383677Y-46699979D01*
X51169200Y-47217772D01*
X51169200Y-47778228D01*
X51383677Y-48296021D01*
X51779979Y-48692323D01*
X52297772Y-48906800D01*
X52858228Y-48906800D01*
X53376021Y-48692323D01*
X53772323Y-48296021D01*
X53902137Y-47982622D01*
X54136552Y-48333448D01*
X54519859Y-48589566D01*
X54857869Y-48656800D01*
X55886131Y-48656800D01*
X56224141Y-48589566D01*
X56607448Y-48333448D01*
X56863566Y-47950141D01*
X56953502Y-47498000D01*
X56863566Y-47045859D01*
X56607448Y-46662552D01*
X56224141Y-46406434D01*
X55886131Y-46339200D01*
X54857869Y-46339200D01*
X54519859Y-46406434D01*
X54136552Y-46662552D01*
X53902137Y-47013378D01*
X53772323Y-46699979D01*
X53390800Y-46318456D01*
X53390800Y-43688000D01*
X53790498Y-43688000D01*
X53880434Y-44140141D01*
X54136552Y-44523448D01*
X54519859Y-44779566D01*
X54857869Y-44846800D01*
X55886131Y-44846800D01*
X56224141Y-44779566D01*
X56607448Y-44523448D01*
X56863566Y-44140141D01*
X56953502Y-43688000D01*
X56863566Y-43235859D01*
X56607448Y-42852552D01*
X56224141Y-42596434D01*
X55886131Y-42529200D01*
X54857869Y-42529200D01*
X54519859Y-42596434D01*
X54136552Y-42852552D01*
X53880434Y-43235859D01*
X53790498Y-43688000D01*
X53390800Y-43688000D01*
X53390800Y-41148000D01*
X53790498Y-41148000D01*
X53880434Y-41600141D01*
X54136552Y-41983448D01*
X54519859Y-42239566D01*
X54857869Y-42306800D01*
X55886131Y-42306800D01*
X56224141Y-42239566D01*
X56607448Y-41983448D01*
X56863566Y-41600141D01*
X56953502Y-41148000D01*
X56863566Y-40695859D01*
X56607448Y-40312552D01*
X56224141Y-40056434D01*
X55886131Y-39989200D01*
X54857869Y-39989200D01*
X54519859Y-40056434D01*
X54136552Y-40312552D01*
X53880434Y-40695859D01*
X53790498Y-41148000D01*
X53390800Y-41148000D01*
X53390800Y-40212049D01*
X53406723Y-40131999D01*
X53343640Y-39814861D01*
X53279506Y-39718878D01*
X53163996Y-39546004D01*
X53096131Y-39500659D01*
X49072800Y-35477328D01*
X49072800Y-21416049D01*
X49088723Y-21335999D01*
X49025640Y-21018861D01*
X48980524Y-20951340D01*
X48845996Y-20750004D01*
X48778131Y-20704658D01*
X45589343Y-17515871D01*
X45543996Y-17448004D01*
X45275139Y-17268360D01*
X45038050Y-17221200D01*
X44958000Y-17205277D01*
X44877950Y-17221200D01*
X43668581Y-17221200D01*
X43653448Y-17198552D01*
X43270141Y-16942434D01*
X42932131Y-16875200D01*
X41903869Y-16875200D01*
X41565859Y-16942434D01*
X41182552Y-17198552D01*
X40926434Y-17581859D01*
X40836498Y-18034000D01*
X37888800Y-18034000D01*
X37888800Y-15494000D01*
X40836498Y-15494000D01*
X40926434Y-15946141D01*
X41182552Y-16329448D01*
X41565859Y-16585566D01*
X41903869Y-16652800D01*
X42932131Y-16652800D01*
X43270141Y-16585566D01*
X43653448Y-16329448D01*
X43668581Y-16306800D01*
X45129328Y-16306800D01*
X49479201Y-20656674D01*
X49479200Y-34904031D01*
X49463277Y-34984081D01*
X49479200Y-35064130D01*
X49526360Y-35301219D01*
X49706004Y-35570077D01*
X49773871Y-35615424D01*
X50744577Y-36586131D01*
X50789923Y-36653996D01*
X51058780Y-36833640D01*
X51375919Y-36896723D01*
X51407998Y-36890342D01*
X51779979Y-37262323D01*
X52297772Y-37476800D01*
X52858228Y-37476800D01*
X53376021Y-37262323D01*
X53772323Y-36866021D01*
X53902137Y-36552622D01*
X54136552Y-36903448D01*
X54519859Y-37159566D01*
X54857869Y-37226800D01*
X55886131Y-37226800D01*
X56224141Y-37159566D01*
X56607448Y-36903448D01*
X56863566Y-36520141D01*
X56953502Y-36068000D01*
X56863566Y-35615859D01*
X56607448Y-35232552D01*
X56224141Y-34976434D01*
X55886131Y-34909200D01*
X54857869Y-34909200D01*
X54519859Y-34976434D01*
X54136552Y-35232552D01*
X53902137Y-35583378D01*
X53772323Y-35269979D01*
X53376021Y-34873677D01*
X52858228Y-34659200D01*
X52297772Y-34659200D01*
X51779979Y-34873677D01*
X51555524Y-35098132D01*
X51104800Y-34647409D01*
X51104800Y-32258000D01*
X53790498Y-32258000D01*
X53880434Y-32710141D01*
X54136552Y-33093448D01*
X54519859Y-33349566D01*
X54857869Y-33416800D01*
X55886131Y-33416800D01*
X56224141Y-33349566D01*
X56607448Y-33093448D01*
X56863566Y-32710141D01*
X56953502Y-32258000D01*
X56863566Y-31805859D01*
X56607448Y-31422552D01*
X56224141Y-31166434D01*
X55886131Y-31099200D01*
X54857869Y-31099200D01*
X54519859Y-31166434D01*
X54136552Y-31422552D01*
X53880434Y-31805859D01*
X53790498Y-32258000D01*
X51104800Y-32258000D01*
X51104800Y-29718000D01*
X53790498Y-29718000D01*
X53880434Y-30170141D01*
X54136552Y-30553448D01*
X54519859Y-30809566D01*
X54857869Y-30876800D01*
X55886131Y-30876800D01*
X56224141Y-30809566D01*
X56607448Y-30553448D01*
X56863566Y-30170141D01*
X56953502Y-29718000D01*
X56863566Y-29265859D01*
X56607448Y-28882552D01*
X56224141Y-28626434D01*
X55886131Y-28559200D01*
X54857869Y-28559200D01*
X54519859Y-28626434D01*
X54136552Y-28882552D01*
X53880434Y-29265859D01*
X53790498Y-29718000D01*
X51104800Y-29718000D01*
X51104800Y-24638000D01*
X53790498Y-24638000D01*
X53880434Y-25090141D01*
X54136552Y-25473448D01*
X54519859Y-25729566D01*
X54857869Y-25796800D01*
X55886131Y-25796800D01*
X56224141Y-25729566D01*
X56607448Y-25473448D01*
X56863566Y-25090141D01*
X56953502Y-24638000D01*
X56863566Y-24185859D01*
X56607448Y-23802552D01*
X56224141Y-23546434D01*
X55886131Y-23479200D01*
X54857869Y-23479200D01*
X54519859Y-23546434D01*
X54136552Y-23802552D01*
X53880434Y-24185859D01*
X53790498Y-24638000D01*
X51104800Y-24638000D01*
X51104800Y-20400050D01*
X51120723Y-20320000D01*
X51057640Y-20002862D01*
X51057640Y-20002861D01*
X50877996Y-19734004D01*
X50810131Y-19688659D01*
X46097343Y-14975871D01*
X46051996Y-14908004D01*
X45783139Y-14728360D01*
X45546050Y-14681200D01*
X45466000Y-14665277D01*
X45385950Y-14681200D01*
X43668581Y-14681200D01*
X43653448Y-14658552D01*
X43270141Y-14402434D01*
X42932131Y-14335200D01*
X41903869Y-14335200D01*
X41565859Y-14402434D01*
X41182552Y-14658552D01*
X40926434Y-15041859D01*
X40836498Y-15494000D01*
X37888800Y-15494000D01*
X37888800Y-12954000D01*
X40836498Y-12954000D01*
X40926434Y-13406141D01*
X41182552Y-13789448D01*
X41565859Y-14045566D01*
X41903869Y-14112800D01*
X42932131Y-14112800D01*
X43270141Y-14045566D01*
X43653448Y-13789448D01*
X43909566Y-13406141D01*
X43999502Y-12954000D01*
X43909566Y-12501859D01*
X43653448Y-12118552D01*
X43270141Y-11862434D01*
X42932131Y-11795200D01*
X41903869Y-11795200D01*
X41565859Y-11862434D01*
X41182552Y-12118552D01*
X40926434Y-12501859D01*
X40836498Y-12954000D01*
X37888800Y-12954000D01*
X37888800Y-10414000D01*
X40836498Y-10414000D01*
X40926434Y-10866141D01*
X41182552Y-11249448D01*
X41565859Y-11505566D01*
X41903869Y-11572800D01*
X42932131Y-11572800D01*
X43270141Y-11505566D01*
X43653448Y-11249448D01*
X43909566Y-10866141D01*
X43999502Y-10414000D01*
X43909566Y-9961859D01*
X43653448Y-9578552D01*
X43270141Y-9322434D01*
X42932131Y-9255200D01*
X41903869Y-9255200D01*
X41565859Y-9322434D01*
X41182552Y-9578552D01*
X40926434Y-9961859D01*
X40836498Y-10414000D01*
X37888800Y-10414000D01*
X37888800Y-7874000D01*
X40836498Y-7874000D01*
X40926434Y-8326141D01*
X41182552Y-8709448D01*
X41565859Y-8965566D01*
X41903869Y-9032800D01*
X42932131Y-9032800D01*
X43270141Y-8965566D01*
X43653448Y-8709448D01*
X43909566Y-8326141D01*
X43999502Y-7874000D01*
X43909566Y-7421859D01*
X43653448Y-7038552D01*
X43270141Y-6782434D01*
X42932131Y-6715200D01*
X41903869Y-6715200D01*
X41565859Y-6782434D01*
X41182552Y-7038552D01*
X40926434Y-7421859D01*
X40836498Y-7874000D01*
X37888800Y-7874000D01*
X37888800Y-5772569D01*
X39300570Y-4360800D01*
X44387590Y-4360800D01*
X45677201Y-5650411D01*
X45677201Y-5650411D01*
G37*
X45677201Y-5650411D02*
X45677200Y-13103722D01*
X45656458Y-13208000D01*
X45677200Y-13312277D01*
X45677200Y-13312281D01*
X45720000Y-13527452D01*
X45720000Y-13716000D01*
X45739335Y-13813202D01*
X45797268Y-13898433D01*
X50014722Y-17984092D01*
X53279579Y-21248949D01*
X53338648Y-21337352D01*
X53427051Y-21396421D01*
X53427053Y-21396423D01*
X53590403Y-21505570D01*
X53688877Y-21571368D01*
X53725169Y-21578587D01*
X53925268Y-21772433D01*
X54008535Y-21826179D01*
X54102000Y-21844000D01*
X55010679Y-21844000D01*
X55345772Y-21982800D01*
X55537431Y-21982800D01*
X57404000Y-23849370D01*
X57404000Y-27979656D01*
X57225677Y-28157979D01*
X57011200Y-28675772D01*
X57011200Y-29236228D01*
X57225677Y-29754021D01*
X57404000Y-29932344D01*
X57404000Y-40439256D01*
X57225677Y-40617579D01*
X57011200Y-41135372D01*
X57011200Y-41695828D01*
X57225677Y-42213621D01*
X57404000Y-42391944D01*
X57404000Y-42444056D01*
X57225677Y-42622379D01*
X57011200Y-43140172D01*
X57011200Y-43700628D01*
X57225677Y-44218421D01*
X57404000Y-44396744D01*
X57404000Y-51869256D01*
X57225677Y-52047579D01*
X57011200Y-52565372D01*
X57011200Y-53125828D01*
X57225677Y-53643621D01*
X57404000Y-53821944D01*
X57404000Y-53874056D01*
X57225677Y-54052379D01*
X57011200Y-54570172D01*
X57011200Y-55130628D01*
X57225677Y-55648421D01*
X57404000Y-55826744D01*
X57404000Y-65024000D01*
X51054000Y-65024000D01*
X51054000Y-52832000D01*
X51034665Y-52734798D01*
X50979605Y-52652395D01*
X48514000Y-50186790D01*
X48514000Y-40894000D01*
X48494665Y-40796798D01*
X48439605Y-40714395D01*
X44958000Y-37232790D01*
X44958000Y-30226000D01*
X44938665Y-30128798D01*
X44883605Y-30046395D01*
X43105605Y-28268395D01*
X43023202Y-28213335D01*
X42926000Y-28194000D01*
X37846000Y-28194000D01*
X37846000Y-25654000D01*
X40836498Y-25654000D01*
X40926434Y-26106141D01*
X41182552Y-26489448D01*
X41565859Y-26745566D01*
X41903869Y-26812800D01*
X42932131Y-26812800D01*
X43270141Y-26745566D01*
X43653448Y-26489448D01*
X43909566Y-26106141D01*
X43999502Y-25654000D01*
X43909566Y-25201859D01*
X43653448Y-24818552D01*
X43270141Y-24562434D01*
X42932131Y-24495200D01*
X41903869Y-24495200D01*
X41565859Y-24562434D01*
X41182552Y-24818552D01*
X40926434Y-25201859D01*
X40836498Y-25654000D01*
X37846000Y-25654000D01*
X37846000Y-25465453D01*
X37888800Y-25250282D01*
X37888800Y-25250278D01*
X37909542Y-25146000D01*
X37888800Y-25041723D01*
X37888800Y-23114000D01*
X40836498Y-23114000D01*
X40926434Y-23566141D01*
X41182552Y-23949448D01*
X41565859Y-24205566D01*
X41903869Y-24272800D01*
X42932131Y-24272800D01*
X43270141Y-24205566D01*
X43653448Y-23949448D01*
X43909566Y-23566141D01*
X43999502Y-23114000D01*
X43909566Y-22661859D01*
X43653448Y-22278552D01*
X43270141Y-22022434D01*
X42932131Y-21955200D01*
X41903869Y-21955200D01*
X41565859Y-22022434D01*
X41182552Y-22278552D01*
X40926434Y-22661859D01*
X40836498Y-23114000D01*
X37888800Y-23114000D01*
X37888800Y-20574000D01*
X40836498Y-20574000D01*
X40926434Y-21026141D01*
X41182552Y-21409448D01*
X41565859Y-21665566D01*
X41903869Y-21732800D01*
X42932131Y-21732800D01*
X43270141Y-21665566D01*
X43653448Y-21409448D01*
X43668581Y-21386800D01*
X44367328Y-21386800D01*
X45415201Y-22434673D01*
X45415200Y-36495950D01*
X45399277Y-36576000D01*
X45415200Y-36656049D01*
X45462360Y-36893138D01*
X45642004Y-37161996D01*
X45709871Y-37207343D01*
X49225201Y-40722674D01*
X49225200Y-49195950D01*
X49209277Y-49276000D01*
X49225200Y-49356049D01*
X49272360Y-49593138D01*
X49452004Y-49861996D01*
X49519871Y-49907343D01*
X51765201Y-52152673D01*
X51765200Y-60288456D01*
X51383677Y-60669979D01*
X51169200Y-61187772D01*
X51169200Y-61748228D01*
X51383677Y-62266021D01*
X51779979Y-62662323D01*
X52297772Y-62876800D01*
X52858228Y-62876800D01*
X53376021Y-62662323D01*
X53772323Y-62266021D01*
X53902137Y-61952622D01*
X54136552Y-62303448D01*
X54519859Y-62559566D01*
X54857869Y-62626800D01*
X55886131Y-62626800D01*
X56224141Y-62559566D01*
X56607448Y-62303448D01*
X56863566Y-61920141D01*
X56953502Y-61468000D01*
X56863566Y-61015859D01*
X56607448Y-60632552D01*
X56224141Y-60376434D01*
X55886131Y-60309200D01*
X54857869Y-60309200D01*
X54519859Y-60376434D01*
X54136552Y-60632552D01*
X53902137Y-60983378D01*
X53772323Y-60669979D01*
X53390800Y-60288456D01*
X53390800Y-55118000D01*
X53790498Y-55118000D01*
X53880434Y-55570141D01*
X54136552Y-55953448D01*
X54519859Y-56209566D01*
X54857869Y-56276800D01*
X55886131Y-56276800D01*
X56224141Y-56209566D01*
X56607448Y-55953448D01*
X56863566Y-55570141D01*
X56953502Y-55118000D01*
X56863566Y-54665859D01*
X56607448Y-54282552D01*
X56224141Y-54026434D01*
X55886131Y-53959200D01*
X54857869Y-53959200D01*
X54519859Y-54026434D01*
X54136552Y-54282552D01*
X53880434Y-54665859D01*
X53790498Y-55118000D01*
X53390800Y-55118000D01*
X53390800Y-52578000D01*
X53790498Y-52578000D01*
X53880434Y-53030141D01*
X54136552Y-53413448D01*
X54519859Y-53669566D01*
X54857869Y-53736800D01*
X55886131Y-53736800D01*
X56224141Y-53669566D01*
X56607448Y-53413448D01*
X56863566Y-53030141D01*
X56953502Y-52578000D01*
X56863566Y-52125859D01*
X56607448Y-51742552D01*
X56224141Y-51486434D01*
X55886131Y-51419200D01*
X54857869Y-51419200D01*
X54519859Y-51486434D01*
X54136552Y-51742552D01*
X53880434Y-52125859D01*
X53790498Y-52578000D01*
X53390800Y-52578000D01*
X53390800Y-51896049D01*
X53406723Y-51815999D01*
X53343640Y-51498861D01*
X53163996Y-51230004D01*
X53096129Y-51184657D01*
X50850800Y-48939328D01*
X50850800Y-40466050D01*
X50866723Y-40386000D01*
X50803640Y-40068862D01*
X50803640Y-40068861D01*
X50623996Y-39800004D01*
X50556131Y-39754658D01*
X47040800Y-36239328D01*
X47040800Y-22178049D01*
X47056723Y-22097999D01*
X46993640Y-21780861D01*
X46985262Y-21768323D01*
X46813996Y-21512004D01*
X46746129Y-21466657D01*
X45335343Y-20055871D01*
X45289996Y-19988004D01*
X45021139Y-19808360D01*
X44784050Y-19761200D01*
X44704000Y-19745277D01*
X44623950Y-19761200D01*
X43668581Y-19761200D01*
X43653448Y-19738552D01*
X43270141Y-19482434D01*
X42932131Y-19415200D01*
X41903869Y-19415200D01*
X41565859Y-19482434D01*
X41182552Y-19738552D01*
X40926434Y-20121859D01*
X40836498Y-20574000D01*
X37888800Y-20574000D01*
X37888800Y-18034000D01*
X40836498Y-18034000D01*
X40926434Y-18486141D01*
X41182552Y-18869448D01*
X41565859Y-19125566D01*
X41903869Y-19192800D01*
X42932131Y-19192800D01*
X43270141Y-19125566D01*
X43653448Y-18869448D01*
X43668581Y-18846800D01*
X44621328Y-18846800D01*
X47447201Y-21672674D01*
X47447200Y-35733950D01*
X47431277Y-35814000D01*
X47447200Y-35894049D01*
X47494360Y-36131138D01*
X47674004Y-36399996D01*
X47741871Y-36445343D01*
X51765201Y-40468674D01*
X51765200Y-46318456D01*
X51383677Y-46699979D01*
X51169200Y-47217772D01*
X51169200Y-47778228D01*
X51383677Y-48296021D01*
X51779979Y-48692323D01*
X52297772Y-48906800D01*
X52858228Y-48906800D01*
X53376021Y-48692323D01*
X53772323Y-48296021D01*
X53902137Y-47982622D01*
X54136552Y-48333448D01*
X54519859Y-48589566D01*
X54857869Y-48656800D01*
X55886131Y-48656800D01*
X56224141Y-48589566D01*
X56607448Y-48333448D01*
X56863566Y-47950141D01*
X56953502Y-47498000D01*
X56863566Y-47045859D01*
X56607448Y-46662552D01*
X56224141Y-46406434D01*
X55886131Y-46339200D01*
X54857869Y-46339200D01*
X54519859Y-46406434D01*
X54136552Y-46662552D01*
X53902137Y-47013378D01*
X53772323Y-46699979D01*
X53390800Y-46318456D01*
X53390800Y-43688000D01*
X53790498Y-43688000D01*
X53880434Y-44140141D01*
X54136552Y-44523448D01*
X54519859Y-44779566D01*
X54857869Y-44846800D01*
X55886131Y-44846800D01*
X56224141Y-44779566D01*
X56607448Y-44523448D01*
X56863566Y-44140141D01*
X56953502Y-43688000D01*
X56863566Y-43235859D01*
X56607448Y-42852552D01*
X56224141Y-42596434D01*
X55886131Y-42529200D01*
X54857869Y-42529200D01*
X54519859Y-42596434D01*
X54136552Y-42852552D01*
X53880434Y-43235859D01*
X53790498Y-43688000D01*
X53390800Y-43688000D01*
X53390800Y-41148000D01*
X53790498Y-41148000D01*
X53880434Y-41600141D01*
X54136552Y-41983448D01*
X54519859Y-42239566D01*
X54857869Y-42306800D01*
X55886131Y-42306800D01*
X56224141Y-42239566D01*
X56607448Y-41983448D01*
X56863566Y-41600141D01*
X56953502Y-41148000D01*
X56863566Y-40695859D01*
X56607448Y-40312552D01*
X56224141Y-40056434D01*
X55886131Y-39989200D01*
X54857869Y-39989200D01*
X54519859Y-40056434D01*
X54136552Y-40312552D01*
X53880434Y-40695859D01*
X53790498Y-41148000D01*
X53390800Y-41148000D01*
X53390800Y-40212049D01*
X53406723Y-40131999D01*
X53343640Y-39814861D01*
X53279506Y-39718878D01*
X53163996Y-39546004D01*
X53096131Y-39500659D01*
X49072800Y-35477328D01*
X49072800Y-21416049D01*
X49088723Y-21335999D01*
X49025640Y-21018861D01*
X48980524Y-20951340D01*
X48845996Y-20750004D01*
X48778131Y-20704658D01*
X45589343Y-17515871D01*
X45543996Y-17448004D01*
X45275139Y-17268360D01*
X45038050Y-17221200D01*
X44958000Y-17205277D01*
X44877950Y-17221200D01*
X43668581Y-17221200D01*
X43653448Y-17198552D01*
X43270141Y-16942434D01*
X42932131Y-16875200D01*
X41903869Y-16875200D01*
X41565859Y-16942434D01*
X41182552Y-17198552D01*
X40926434Y-17581859D01*
X40836498Y-18034000D01*
X37888800Y-18034000D01*
X37888800Y-15494000D01*
X40836498Y-15494000D01*
X40926434Y-15946141D01*
X41182552Y-16329448D01*
X41565859Y-16585566D01*
X41903869Y-16652800D01*
X42932131Y-16652800D01*
X43270141Y-16585566D01*
X43653448Y-16329448D01*
X43668581Y-16306800D01*
X45129328Y-16306800D01*
X49479201Y-20656674D01*
X49479200Y-34904031D01*
X49463277Y-34984081D01*
X49479200Y-35064130D01*
X49526360Y-35301219D01*
X49706004Y-35570077D01*
X49773871Y-35615424D01*
X50744577Y-36586131D01*
X50789923Y-36653996D01*
X51058780Y-36833640D01*
X51375919Y-36896723D01*
X51407998Y-36890342D01*
X51779979Y-37262323D01*
X52297772Y-37476800D01*
X52858228Y-37476800D01*
X53376021Y-37262323D01*
X53772323Y-36866021D01*
X53902137Y-36552622D01*
X54136552Y-36903448D01*
X54519859Y-37159566D01*
X54857869Y-37226800D01*
X55886131Y-37226800D01*
X56224141Y-37159566D01*
X56607448Y-36903448D01*
X56863566Y-36520141D01*
X56953502Y-36068000D01*
X56863566Y-35615859D01*
X56607448Y-35232552D01*
X56224141Y-34976434D01*
X55886131Y-34909200D01*
X54857869Y-34909200D01*
X54519859Y-34976434D01*
X54136552Y-35232552D01*
X53902137Y-35583378D01*
X53772323Y-35269979D01*
X53376021Y-34873677D01*
X52858228Y-34659200D01*
X52297772Y-34659200D01*
X51779979Y-34873677D01*
X51555524Y-35098132D01*
X51104800Y-34647409D01*
X51104800Y-32258000D01*
X53790498Y-32258000D01*
X53880434Y-32710141D01*
X54136552Y-33093448D01*
X54519859Y-33349566D01*
X54857869Y-33416800D01*
X55886131Y-33416800D01*
X56224141Y-33349566D01*
X56607448Y-33093448D01*
X56863566Y-32710141D01*
X56953502Y-32258000D01*
X56863566Y-31805859D01*
X56607448Y-31422552D01*
X56224141Y-31166434D01*
X55886131Y-31099200D01*
X54857869Y-31099200D01*
X54519859Y-31166434D01*
X54136552Y-31422552D01*
X53880434Y-31805859D01*
X53790498Y-32258000D01*
X51104800Y-32258000D01*
X51104800Y-29718000D01*
X53790498Y-29718000D01*
X53880434Y-30170141D01*
X54136552Y-30553448D01*
X54519859Y-30809566D01*
X54857869Y-30876800D01*
X55886131Y-30876800D01*
X56224141Y-30809566D01*
X56607448Y-30553448D01*
X56863566Y-30170141D01*
X56953502Y-29718000D01*
X56863566Y-29265859D01*
X56607448Y-28882552D01*
X56224141Y-28626434D01*
X55886131Y-28559200D01*
X54857869Y-28559200D01*
X54519859Y-28626434D01*
X54136552Y-28882552D01*
X53880434Y-29265859D01*
X53790498Y-29718000D01*
X51104800Y-29718000D01*
X51104800Y-24638000D01*
X53790498Y-24638000D01*
X53880434Y-25090141D01*
X54136552Y-25473448D01*
X54519859Y-25729566D01*
X54857869Y-25796800D01*
X55886131Y-25796800D01*
X56224141Y-25729566D01*
X56607448Y-25473448D01*
X56863566Y-25090141D01*
X56953502Y-24638000D01*
X56863566Y-24185859D01*
X56607448Y-23802552D01*
X56224141Y-23546434D01*
X55886131Y-23479200D01*
X54857869Y-23479200D01*
X54519859Y-23546434D01*
X54136552Y-23802552D01*
X53880434Y-24185859D01*
X53790498Y-24638000D01*
X51104800Y-24638000D01*
X51104800Y-20400050D01*
X51120723Y-20320000D01*
X51057640Y-20002862D01*
X51057640Y-20002861D01*
X50877996Y-19734004D01*
X50810131Y-19688659D01*
X46097343Y-14975871D01*
X46051996Y-14908004D01*
X45783139Y-14728360D01*
X45546050Y-14681200D01*
X45466000Y-14665277D01*
X45385950Y-14681200D01*
X43668581Y-14681200D01*
X43653448Y-14658552D01*
X43270141Y-14402434D01*
X42932131Y-14335200D01*
X41903869Y-14335200D01*
X41565859Y-14402434D01*
X41182552Y-14658552D01*
X40926434Y-15041859D01*
X40836498Y-15494000D01*
X37888800Y-15494000D01*
X37888800Y-12954000D01*
X40836498Y-12954000D01*
X40926434Y-13406141D01*
X41182552Y-13789448D01*
X41565859Y-14045566D01*
X41903869Y-14112800D01*
X42932131Y-14112800D01*
X43270141Y-14045566D01*
X43653448Y-13789448D01*
X43909566Y-13406141D01*
X43999502Y-12954000D01*
X43909566Y-12501859D01*
X43653448Y-12118552D01*
X43270141Y-11862434D01*
X42932131Y-11795200D01*
X41903869Y-11795200D01*
X41565859Y-11862434D01*
X41182552Y-12118552D01*
X40926434Y-12501859D01*
X40836498Y-12954000D01*
X37888800Y-12954000D01*
X37888800Y-10414000D01*
X40836498Y-10414000D01*
X40926434Y-10866141D01*
X41182552Y-11249448D01*
X41565859Y-11505566D01*
X41903869Y-11572800D01*
X42932131Y-11572800D01*
X43270141Y-11505566D01*
X43653448Y-11249448D01*
X43909566Y-10866141D01*
X43999502Y-10414000D01*
X43909566Y-9961859D01*
X43653448Y-9578552D01*
X43270141Y-9322434D01*
X42932131Y-9255200D01*
X41903869Y-9255200D01*
X41565859Y-9322434D01*
X41182552Y-9578552D01*
X40926434Y-9961859D01*
X40836498Y-10414000D01*
X37888800Y-10414000D01*
X37888800Y-7874000D01*
X40836498Y-7874000D01*
X40926434Y-8326141D01*
X41182552Y-8709448D01*
X41565859Y-8965566D01*
X41903869Y-9032800D01*
X42932131Y-9032800D01*
X43270141Y-8965566D01*
X43653448Y-8709448D01*
X43909566Y-8326141D01*
X43999502Y-7874000D01*
X43909566Y-7421859D01*
X43653448Y-7038552D01*
X43270141Y-6782434D01*
X42932131Y-6715200D01*
X41903869Y-6715200D01*
X41565859Y-6782434D01*
X41182552Y-7038552D01*
X40926434Y-7421859D01*
X40836498Y-7874000D01*
X37888800Y-7874000D01*
X37888800Y-5772569D01*
X39300570Y-4360800D01*
X44387590Y-4360800D01*
X45677201Y-5650411D01*
G04 #@! TD*
M02*
