G04 #@! TF.GenerationSoftware,KiCad,Pcbnew,(5.0.0-rc2-39-ga12b9db58)*
G04 #@! TF.CreationDate,2018-05-30T03:55:21-03:00*
G04 #@! TF.ProjectId,Signal,5369676E616C2E6B696361645F706362,rev?*
G04 #@! TF.SameCoordinates,Original*
G04 #@! TF.FileFunction,Copper,L2,Bot,Signal*
G04 #@! TF.FilePolarity,Positive*
%FSLAX46Y46*%
G04 Gerber Fmt 4.6, Leading zero omitted, Abs format (unit mm)*
G04 Created by KiCad (PCBNEW (5.0.0-rc2-39-ga12b9db58)) date Wed May 30 03:55:21 2018*
%MOMM*%
%LPD*%
G01*
G04 APERTURE LIST*
G04 #@! TA.AperFunction,SMDPad,CuDef*
%ADD10R,0.900000X0.800000*%
G04 #@! TD*
G04 #@! TA.AperFunction,ComponentPad*
%ADD11C,1.524000*%
G04 #@! TD*
G04 #@! TA.AperFunction,SMDPad,CuDef*
%ADD12R,1.295000X1.400000*%
G04 #@! TD*
G04 #@! TA.AperFunction,SMDPad,CuDef*
%ADD13R,1.400000X1.295000*%
G04 #@! TD*
G04 #@! TA.AperFunction,SMDPad,CuDef*
%ADD14R,1.200000X0.900000*%
G04 #@! TD*
G04 #@! TA.AperFunction,SMDPad,CuDef*
%ADD15R,1.500000X0.600000*%
G04 #@! TD*
G04 #@! TA.AperFunction,ViaPad*
%ADD16C,1.524000*%
G04 #@! TD*
G04 #@! TA.AperFunction,Conductor*
%ADD17C,0.508000*%
G04 #@! TD*
G04 #@! TA.AperFunction,Conductor*
%ADD18C,0.304800*%
G04 #@! TD*
G04 APERTURE END LIST*
D10*
G04 #@! TO.P,Q1,1*
G04 #@! TO.N,Net-(Q1-Pad1)*
X73136000Y-23942000D03*
G04 #@! TO.P,Q1,2*
G04 #@! TO.N,GNDA*
X73136000Y-25842000D03*
G04 #@! TO.P,Q1,3*
G04 #@! TO.N,Net-(Q1-Pad3)*
X71136000Y-24892000D03*
G04 #@! TD*
D11*
G04 #@! TO.P,U1,16*
G04 #@! TO.N,GNDA*
X71628000Y-20320000D03*
G04 #@! TO.P,U1,15*
G04 #@! TO.N,PWM*
X69088000Y-20320000D03*
G04 #@! TO.P,U1,14*
G04 #@! TO.N,BatOVInterrupt*
X66548000Y-20320000D03*
G04 #@! TO.P,U1,13*
G04 #@! TO.N,Vbat*
X62738000Y-20320000D03*
G04 #@! TO.P,U1,12*
G04 #@! TO.N,GNDA*
X60198000Y-20320000D03*
G04 #@! TO.P,U1,11*
X57658000Y-20320000D03*
G04 #@! TO.P,U1,10*
G04 #@! TO.N,Vbat_SIG_IN*
X55118000Y-20320000D03*
G04 #@! TO.P,U1,9*
G04 #@! TO.N,Ipanel*
X51308000Y-20320000D03*
G04 #@! TO.P,U1,8*
G04 #@! TO.N,GNDA*
X48768000Y-20320000D03*
G04 #@! TO.P,U1,7*
G04 #@! TO.N,Ipanel_Ref*
X46228000Y-20320000D03*
G04 #@! TO.P,U1,6*
G04 #@! TO.N,Ipanel_SIG*
X43688000Y-20320000D03*
G04 #@! TO.P,U1,5*
G04 #@! TO.N,GNDA*
X41148000Y-20320000D03*
G04 #@! TO.P,U1,4*
G04 #@! TO.N,Vpanel*
X37338000Y-20320000D03*
G04 #@! TO.P,U1,3*
G04 #@! TO.N,GNDA*
X34798000Y-20320000D03*
G04 #@! TO.P,U1,2*
G04 #@! TO.N,Vpanel_SIG*
X32258000Y-20320000D03*
G04 #@! TO.P,U1,1*
G04 #@! TO.N,Vpanel_Ref*
X29718000Y-20320000D03*
G04 #@! TO.P,U1,17*
G04 #@! TO.N,+5VA*
X74168000Y-20320000D03*
G04 #@! TD*
D12*
G04 #@! TO.P,R18,2*
G04 #@! TO.N,Net-(R18-Pad2)*
X46179500Y-42164000D03*
G04 #@! TO.P,R18,1*
G04 #@! TO.N,Net-(R17-Pad2)*
X44244500Y-42164000D03*
G04 #@! TD*
G04 #@! TO.P,C14,2*
G04 #@! TO.N,Net-(C14-Pad2)*
X32560500Y-34544000D03*
G04 #@! TO.P,C14,1*
G04 #@! TO.N,GNDA*
X34495500Y-34544000D03*
G04 #@! TD*
D13*
G04 #@! TO.P,C13,1*
G04 #@! TO.N,GNDA*
X37084000Y-37894500D03*
G04 #@! TO.P,C13,2*
G04 #@! TO.N,Net-(C13-Pad2)*
X37084000Y-39829500D03*
G04 #@! TD*
D12*
G04 #@! TO.P,C12,2*
G04 #@! TO.N,Vpanel*
X32560500Y-29972000D03*
G04 #@! TO.P,C12,1*
G04 #@! TO.N,Net-(C12-Pad1)*
X34495500Y-29972000D03*
G04 #@! TD*
G04 #@! TO.P,C11,1*
G04 #@! TO.N,GNDA*
X28653500Y-29464000D03*
G04 #@! TO.P,C11,2*
G04 #@! TO.N,+5VA*
X26718500Y-29464000D03*
G04 #@! TD*
D13*
G04 #@! TO.P,C1,2*
G04 #@! TO.N,GNDA*
X76200000Y-32717500D03*
G04 #@! TO.P,C1,1*
G04 #@! TO.N,/+3.9V*
X76200000Y-30782500D03*
G04 #@! TD*
D12*
G04 #@! TO.P,C2,1*
G04 #@! TO.N,+5VA*
X68628500Y-38862000D03*
G04 #@! TO.P,C2,2*
G04 #@! TO.N,GNDA*
X70563500Y-38862000D03*
G04 #@! TD*
G04 #@! TO.P,C7,2*
G04 #@! TO.N,+5VA*
X51610500Y-29972000D03*
G04 #@! TO.P,C7,1*
G04 #@! TO.N,GNDA*
X53545500Y-29972000D03*
G04 #@! TD*
G04 #@! TO.P,C8,2*
G04 #@! TO.N,Net-(100k8-Pad2)*
X58625500Y-29718000D03*
G04 #@! TO.P,C8,1*
G04 #@! TO.N,Ipanel*
X56690500Y-29718000D03*
G04 #@! TD*
D13*
G04 #@! TO.P,C9,2*
G04 #@! TO.N,Net-(100k7-Pad2)*
X61516500Y-36370500D03*
G04 #@! TO.P,C9,1*
G04 #@! TO.N,GNDA*
X61516500Y-38305500D03*
G04 #@! TD*
D12*
G04 #@! TO.P,C10,1*
G04 #@! TO.N,GNDA*
X59387500Y-34290000D03*
G04 #@! TO.P,C10,2*
G04 #@! TO.N,Net-(100k9-Pad2)*
X57452500Y-34290000D03*
G04 #@! TD*
D14*
G04 #@! TO.P,D1,1*
G04 #@! TO.N,/+3.9V*
X78740000Y-30608000D03*
G04 #@! TO.P,D1,2*
G04 #@! TO.N,GNDA*
X78740000Y-33908000D03*
G04 #@! TD*
D13*
G04 #@! TO.P,R16,2*
G04 #@! TO.N,Net-(R16-Pad2)*
X41910000Y-37035500D03*
G04 #@! TO.P,R16,1*
G04 #@! TO.N,Net-(R12-Pad2)*
X41910000Y-35100500D03*
G04 #@! TD*
G04 #@! TO.P,100k7,1*
G04 #@! TO.N,Net-(100k7-Pad1)*
X59436000Y-41861500D03*
G04 #@! TO.P,100k7,2*
G04 #@! TO.N,Net-(100k7-Pad2)*
X59436000Y-39926500D03*
G04 #@! TD*
G04 #@! TO.P,R12,2*
G04 #@! TO.N,Net-(R12-Pad2)*
X44196000Y-33987500D03*
G04 #@! TO.P,R12,1*
G04 #@! TO.N,Net-(R10-Pad1)*
X44196000Y-32052500D03*
G04 #@! TD*
G04 #@! TO.P,R1,1*
G04 #@! TO.N,/+3.9V*
X75438000Y-36116500D03*
G04 #@! TO.P,R1,2*
G04 #@! TO.N,+5VA*
X75438000Y-38051500D03*
G04 #@! TD*
D12*
G04 #@! TO.P,R2,2*
G04 #@! TO.N,BatOVInterrupt*
X68120500Y-17780000D03*
G04 #@! TO.P,R2,1*
G04 #@! TO.N,GNDA*
X70055500Y-17780000D03*
G04 #@! TD*
G04 #@! TO.P,R3,1*
G04 #@! TO.N,BatOVInterrupt*
X75994500Y-28448000D03*
G04 #@! TO.P,R3,2*
G04 #@! TO.N,Net-(Q1-Pad1)*
X77929500Y-28448000D03*
G04 #@! TD*
D13*
G04 #@! TO.P,R4,2*
G04 #@! TO.N,Net-(Q1-Pad3)*
X69088000Y-24892000D03*
G04 #@! TO.P,R4,1*
G04 #@! TO.N,PWM*
X69088000Y-22957000D03*
G04 #@! TD*
D12*
G04 #@! TO.P,R10,1*
G04 #@! TO.N,Net-(R10-Pad1)*
X50594500Y-43434000D03*
G04 #@! TO.P,R10,2*
G04 #@! TO.N,Net-(R10-Pad2)*
X52529500Y-43434000D03*
G04 #@! TD*
D13*
G04 #@! TO.P,R11,2*
G04 #@! TO.N,Net-(100k7-Pad1)*
X57404000Y-41861500D03*
G04 #@! TO.P,R11,1*
G04 #@! TO.N,Net-(R10-Pad2)*
X57404000Y-39926500D03*
G04 #@! TD*
D12*
G04 #@! TO.P,R_shunt1,1*
G04 #@! TO.N,Ipanel_Ref*
X45925500Y-23114000D03*
G04 #@! TO.P,R_shunt1,2*
G04 #@! TO.N,Ipanel_SIG*
X43990500Y-23114000D03*
G04 #@! TD*
G04 #@! TO.P,R28,2*
G04 #@! TO.N,Net-(R27-Pad1)*
X19352500Y-41910000D03*
G04 #@! TO.P,R28,1*
G04 #@! TO.N,Net-(R28-Pad1)*
X21287500Y-41910000D03*
G04 #@! TD*
D13*
G04 #@! TO.P,R27,1*
G04 #@! TO.N,Net-(R27-Pad1)*
X19304000Y-39575500D03*
G04 #@! TO.P,R27,2*
G04 #@! TO.N,Net-(R26-Pad2)*
X19304000Y-37640500D03*
G04 #@! TD*
G04 #@! TO.P,100k8,2*
G04 #@! TO.N,Net-(100k8-Pad2)*
X61468000Y-32306500D03*
G04 #@! TO.P,100k8,1*
G04 #@! TO.N,Net-(100k7-Pad2)*
X61468000Y-34241500D03*
G04 #@! TD*
D12*
G04 #@! TO.P,R25,1*
G04 #@! TO.N,Net-(C14-Pad2)*
X32560500Y-32258000D03*
G04 #@! TO.P,R25,2*
G04 #@! TO.N,Net-(C12-Pad1)*
X34495500Y-32258000D03*
G04 #@! TD*
D13*
G04 #@! TO.P,R24,2*
G04 #@! TO.N,Net-(C13-Pad2)*
X37084000Y-34495500D03*
G04 #@! TO.P,R24,1*
G04 #@! TO.N,Net-(C12-Pad1)*
X37084000Y-32560500D03*
G04 #@! TD*
G04 #@! TO.P,R23,1*
G04 #@! TO.N,Net-(C13-Pad2)*
X34798000Y-39926500D03*
G04 #@! TO.P,R23,2*
G04 #@! TO.N,Net-(R21-Pad1)*
X34798000Y-41861500D03*
G04 #@! TD*
G04 #@! TO.P,R22,2*
G04 #@! TO.N,Net-(R22-Pad2)*
X19304000Y-33987500D03*
G04 #@! TO.P,R22,1*
G04 #@! TO.N,Net-(R20-Pad2)*
X19304000Y-32052500D03*
G04 #@! TD*
G04 #@! TO.P,R21,1*
G04 #@! TO.N,Net-(R21-Pad1)*
X32512000Y-41861500D03*
G04 #@! TO.P,R21,2*
G04 #@! TO.N,Net-(R20-Pad1)*
X32512000Y-39926500D03*
G04 #@! TD*
D12*
G04 #@! TO.P,R20,2*
G04 #@! TO.N,Net-(R20-Pad2)*
X25194500Y-43434000D03*
G04 #@! TO.P,R20,1*
G04 #@! TO.N,Net-(R20-Pad1)*
X27129500Y-43434000D03*
G04 #@! TD*
G04 #@! TO.P,R19,1*
G04 #@! TO.N,Net-(R18-Pad2)*
X57452500Y-37338000D03*
G04 #@! TO.P,R19,2*
G04 #@! TO.N,GNDA*
X59387500Y-37338000D03*
G04 #@! TD*
D13*
G04 #@! TO.P,R17,1*
G04 #@! TO.N,Net-(R16-Pad2)*
X44196000Y-37640500D03*
G04 #@! TO.P,R17,2*
G04 #@! TO.N,Net-(R17-Pad2)*
X44196000Y-39575500D03*
G04 #@! TD*
G04 #@! TO.P,R26,2*
G04 #@! TO.N,Net-(R26-Pad2)*
X17272000Y-37035500D03*
G04 #@! TO.P,R26,1*
G04 #@! TO.N,Net-(R22-Pad2)*
X17272000Y-35100500D03*
G04 #@! TD*
D12*
G04 #@! TO.P,100k9,1*
G04 #@! TO.N,Net-(100k8-Pad2)*
X59387500Y-32004000D03*
G04 #@! TO.P,100k9,2*
G04 #@! TO.N,Net-(100k9-Pad2)*
X57452500Y-32004000D03*
G04 #@! TD*
G04 #@! TO.P,R29,2*
G04 #@! TO.N,GNDA*
X34495500Y-37592000D03*
G04 #@! TO.P,R29,1*
G04 #@! TO.N,Net-(R28-Pad1)*
X32560500Y-37592000D03*
G04 #@! TD*
G04 #@! TO.P,R35,1*
G04 #@! TO.N,Net-(R32-Pad1)*
X25448500Y-20828000D03*
G04 #@! TO.P,R35,2*
G04 #@! TO.N,Vpanel_Ref*
X27383500Y-20828000D03*
G04 #@! TD*
D15*
G04 #@! TO.P,U3,1*
G04 #@! TO.N,Net-(R17-Pad2)*
X48608000Y-40132000D03*
G04 #@! TO.P,U3,2*
G04 #@! TO.N,Net-(R16-Pad2)*
X48608000Y-38862000D03*
G04 #@! TO.P,U3,3*
G04 #@! TO.N,Ipanel_SIG*
X48608000Y-37592000D03*
G04 #@! TO.P,U3,4*
G04 #@! TO.N,+5VA*
X48608000Y-36322000D03*
G04 #@! TO.P,U3,5*
G04 #@! TO.N,Ipanel_Ref*
X48608000Y-35052000D03*
G04 #@! TO.P,U3,6*
G04 #@! TO.N,Net-(R12-Pad2)*
X48608000Y-33782000D03*
G04 #@! TO.P,U3,7*
G04 #@! TO.N,Net-(R10-Pad1)*
X48608000Y-32512000D03*
G04 #@! TO.P,U3,8*
G04 #@! TO.N,Ipanel*
X54008000Y-32512000D03*
G04 #@! TO.P,U3,9*
X54008000Y-33782000D03*
G04 #@! TO.P,U3,10*
G04 #@! TO.N,Net-(100k9-Pad2)*
X54008000Y-35052000D03*
G04 #@! TO.P,U3,11*
G04 #@! TO.N,GNDA*
X54008000Y-36322000D03*
G04 #@! TO.P,U3,12*
G04 #@! TO.N,Net-(R18-Pad2)*
X54008000Y-37592000D03*
G04 #@! TO.P,U3,13*
G04 #@! TO.N,Net-(R10-Pad2)*
X54008000Y-38862000D03*
G04 #@! TO.P,U3,14*
G04 #@! TO.N,Net-(100k7-Pad1)*
X54008000Y-40132000D03*
G04 #@! TD*
D12*
G04 #@! TO.P,R31,2*
G04 #@! TO.N,Net-(R30-Pad1)*
X32052500Y-17780000D03*
G04 #@! TO.P,R31,1*
G04 #@! TO.N,GNDA*
X33987500Y-17780000D03*
G04 #@! TD*
G04 #@! TO.P,R30,1*
G04 #@! TO.N,Net-(R30-Pad1)*
X25448500Y-18796000D03*
G04 #@! TO.P,R30,2*
G04 #@! TO.N,Vpanel_SIG*
X27383500Y-18796000D03*
G04 #@! TD*
G04 #@! TO.P,R33,1*
G04 #@! TO.N,/Vbat_SIG*
X58976500Y-23114000D03*
G04 #@! TO.P,R33,2*
G04 #@! TO.N,GNDA*
X60911500Y-23114000D03*
G04 #@! TD*
G04 #@! TO.P,R32,2*
G04 #@! TO.N,GNDA*
X33987500Y-22606000D03*
G04 #@! TO.P,R32,1*
G04 #@! TO.N,Net-(R32-Pad1)*
X32052500Y-22606000D03*
G04 #@! TD*
G04 #@! TO.P,R34,1*
G04 #@! TO.N,Vbat_SIG_IN*
X55166500Y-23114000D03*
G04 #@! TO.P,R34,2*
G04 #@! TO.N,/Vbat_SIG*
X57101500Y-23114000D03*
G04 #@! TD*
D15*
G04 #@! TO.P,U4,14*
G04 #@! TO.N,Net-(R21-Pad1)*
X28989000Y-39751000D03*
G04 #@! TO.P,U4,13*
G04 #@! TO.N,Net-(R20-Pad1)*
X28989000Y-38481000D03*
G04 #@! TO.P,U4,12*
G04 #@! TO.N,Net-(R28-Pad1)*
X28989000Y-37211000D03*
G04 #@! TO.P,U4,11*
G04 #@! TO.N,GNDA*
X28989000Y-35941000D03*
G04 #@! TO.P,U4,10*
G04 #@! TO.N,Net-(C14-Pad2)*
X28989000Y-34671000D03*
G04 #@! TO.P,U4,9*
G04 #@! TO.N,Vpanel*
X28989000Y-33401000D03*
G04 #@! TO.P,U4,8*
X28989000Y-32131000D03*
G04 #@! TO.P,U4,7*
G04 #@! TO.N,Net-(R20-Pad2)*
X23589000Y-32131000D03*
G04 #@! TO.P,U4,6*
G04 #@! TO.N,Net-(R22-Pad2)*
X23589000Y-33401000D03*
G04 #@! TO.P,U4,5*
G04 #@! TO.N,Net-(R32-Pad1)*
X23589000Y-34671000D03*
G04 #@! TO.P,U4,4*
G04 #@! TO.N,+5VA*
X23589000Y-35941000D03*
G04 #@! TO.P,U4,3*
G04 #@! TO.N,Net-(R30-Pad1)*
X23589000Y-37211000D03*
G04 #@! TO.P,U4,2*
G04 #@! TO.N,Net-(R26-Pad2)*
X23589000Y-38481000D03*
G04 #@! TO.P,U4,1*
G04 #@! TO.N,Net-(R27-Pad1)*
X23589000Y-39751000D03*
G04 #@! TD*
G04 #@! TO.P,U2,1*
G04 #@! TO.N,Net-(U2-Pad1)*
X66896000Y-36830000D03*
G04 #@! TO.P,U2,2*
X66896000Y-35560000D03*
G04 #@! TO.P,U2,3*
G04 #@! TO.N,GNDA*
X66896000Y-34290000D03*
G04 #@! TO.P,U2,4*
G04 #@! TO.N,+5VA*
X66896000Y-33020000D03*
G04 #@! TO.P,U2,5*
G04 #@! TO.N,/Vbat_SIG*
X66896000Y-31750000D03*
G04 #@! TO.P,U2,6*
G04 #@! TO.N,Vbat*
X66896000Y-30480000D03*
G04 #@! TO.P,U2,7*
X66896000Y-29210000D03*
G04 #@! TO.P,U2,8*
G04 #@! TO.N,BatOVInterrupt*
X72296000Y-29210000D03*
G04 #@! TO.P,U2,9*
G04 #@! TO.N,/+3.9V*
X72296000Y-30480000D03*
G04 #@! TO.P,U2,10*
G04 #@! TO.N,/Vbat_SIG*
X72296000Y-31750000D03*
G04 #@! TO.P,U2,11*
G04 #@! TO.N,GNDA*
X72296000Y-33020000D03*
G04 #@! TO.P,U2,12*
X72296000Y-34290000D03*
G04 #@! TO.P,U2,13*
G04 #@! TO.N,Net-(U2-Pad13)*
X72296000Y-35560000D03*
G04 #@! TO.P,U2,14*
X72296000Y-36830000D03*
G04 #@! TD*
D16*
G04 #@! TO.N,GNDA*
X72898000Y-41441601D03*
X72898000Y-38800001D03*
X64262000Y-28448000D03*
X64262000Y-33274000D03*
X42081947Y-40722053D03*
X39878000Y-42925992D03*
G04 #@! TO.N,Ipanel_SIG*
X45974014Y-30734000D03*
X45974000Y-35560000D03*
G04 #@! TO.N,+5VA*
X51816000Y-27940000D03*
X47498008Y-27940000D03*
X57658000Y-25908000D03*
X32004000Y-25654000D03*
X37084002Y-25654000D03*
X51704309Y-26019705D03*
G04 #@! TO.N,Net-(R30-Pad1)*
X21082000Y-35560000D03*
X21082000Y-29210000D03*
G04 #@! TD*
D17*
G04 #@! TO.N,Net-(Q1-Pad3)*
X71136000Y-24892000D02*
X69088000Y-24892000D01*
G04 #@! TO.N,GNDA*
X34798000Y-20320000D02*
X34798000Y-19352500D01*
X33987500Y-17780000D02*
X34290000Y-17780000D01*
X34798000Y-18288000D02*
X34798000Y-19352500D01*
X34290000Y-17780000D02*
X34798000Y-18288000D01*
X53086000Y-36322000D02*
X54008000Y-36322000D01*
X52578000Y-35814000D02*
X53086000Y-36322000D01*
X52578000Y-31496000D02*
X52578000Y-35814000D01*
X53545500Y-29972000D02*
X53545500Y-30528500D01*
X53545500Y-30528500D02*
X52578000Y-31496000D01*
X48465500Y-20622500D02*
X48768000Y-20320000D01*
X55860486Y-35814000D02*
X59387500Y-35814000D01*
X55352486Y-36322000D02*
X55860486Y-35814000D01*
X54008000Y-36322000D02*
X55352486Y-36322000D01*
X59387500Y-35052000D02*
X59387500Y-35814000D01*
X59387500Y-35814000D02*
X59387500Y-37338000D01*
X60355000Y-38305500D02*
X61516500Y-38305500D01*
X59387500Y-37338000D02*
X60355000Y-38305500D01*
X59387500Y-35052000D02*
X59387500Y-34290000D01*
X33544500Y-35941000D02*
X34241500Y-35244000D01*
X28989000Y-35941000D02*
X28203158Y-35941000D01*
X27178000Y-34915842D02*
X27178000Y-31750000D01*
X28936000Y-29992000D02*
X28936000Y-29464000D01*
X28203158Y-35941000D02*
X27178000Y-34915842D01*
X27178000Y-31750000D02*
X28936000Y-29992000D01*
X33417500Y-36068000D02*
X33544500Y-35941000D01*
X28989000Y-35941000D02*
X29116000Y-36068000D01*
X29116000Y-36068000D02*
X33417500Y-36068000D01*
X34495500Y-37035500D02*
X34495500Y-37846000D01*
X33544500Y-35941000D02*
X33544500Y-36084500D01*
X33544500Y-36084500D02*
X34495500Y-37035500D01*
X34495500Y-37846000D02*
X37035500Y-37846000D01*
X37035500Y-37846000D02*
X37084000Y-37894500D01*
X38608000Y-17780000D02*
X41148000Y-20320000D01*
X33987500Y-17780000D02*
X38608000Y-17780000D01*
X46228000Y-17780000D02*
X48768000Y-20320000D01*
X38608000Y-17780000D02*
X46228000Y-17780000D01*
X57658000Y-17780000D02*
X60198000Y-20320000D01*
X71846000Y-33020000D02*
X72296000Y-33020000D01*
X71038000Y-33020000D02*
X72296000Y-33020000D01*
X70563500Y-33494500D02*
X71038000Y-33020000D01*
X70563500Y-38862000D02*
X70563500Y-33494500D01*
X77644500Y-33908000D02*
X76454000Y-32717500D01*
X78740000Y-33908000D02*
X77644500Y-33908000D01*
X74373500Y-33020000D02*
X72296000Y-33020000D01*
X76454000Y-32717500D02*
X76151500Y-33020000D01*
X74992000Y-32717500D02*
X76200000Y-32717500D01*
X74373500Y-33020000D02*
X74676000Y-32717500D01*
X74676000Y-32717500D02*
X74992000Y-32717500D01*
X71628000Y-19558000D02*
X71628000Y-20320000D01*
X70055500Y-17780000D02*
X70055500Y-17985500D01*
X70055500Y-17985500D02*
X71628000Y-19558000D01*
X66896000Y-34290000D02*
X65638000Y-34290000D01*
X65638000Y-34290000D02*
X65587199Y-34340801D01*
X70625499Y-38800001D02*
X70563500Y-38862000D01*
X72898000Y-38800001D02*
X70625499Y-38800001D01*
X72296000Y-34290000D02*
X72296000Y-33020000D01*
X48514000Y-20574000D02*
X48768000Y-20320000D01*
X48514000Y-20707486D02*
X48514000Y-20574000D01*
X34290000Y-20828000D02*
X34798000Y-20320000D01*
X33987500Y-22606000D02*
X34290000Y-22303500D01*
X34290000Y-22303500D02*
X34290000Y-20828000D01*
X67857601Y-41441601D02*
X72898000Y-41441601D01*
X64516000Y-38100000D02*
X67857601Y-41441601D01*
X65587199Y-34340801D02*
X64516000Y-35412000D01*
X64516000Y-35412000D02*
X64516000Y-38100000D01*
X65023999Y-34035999D02*
X64262000Y-33274000D01*
X60960000Y-22462500D02*
X60960000Y-25146000D01*
X63500001Y-27686001D02*
X64262000Y-28448000D01*
X60960000Y-25146000D02*
X63500001Y-27686001D01*
X65587199Y-34340801D02*
X65328801Y-34340801D01*
X65328801Y-34340801D02*
X65023999Y-34035999D01*
X57150000Y-17780000D02*
X57658000Y-17780000D01*
X46228000Y-17780000D02*
X57150000Y-17780000D01*
X68977500Y-15494000D02*
X70055500Y-16572000D01*
X57150000Y-17780000D02*
X59436000Y-15494000D01*
X59436000Y-15494000D02*
X68977500Y-15494000D01*
X70055500Y-16572000D02*
X70055500Y-17780000D01*
X60911500Y-21033500D02*
X60198000Y-20320000D01*
X60911500Y-23114000D02*
X60911500Y-21033500D01*
X60198000Y-20320000D02*
X57658000Y-20320000D01*
X34086807Y-23913307D02*
X33987500Y-23814000D01*
X34086807Y-26287985D02*
X34086807Y-23913307D01*
X30910786Y-29464000D02*
X34086807Y-26287985D01*
X33987500Y-23814000D02*
X33987500Y-22606000D01*
X28653500Y-29464000D02*
X30910786Y-29464000D01*
X48768000Y-20320000D02*
X49529999Y-21081999D01*
X49529999Y-21081999D02*
X49529999Y-21977487D01*
X53545500Y-28764000D02*
X53545500Y-29972000D01*
X49529999Y-21977487D02*
X53545500Y-25992988D01*
X53545500Y-25992988D02*
X53545500Y-28764000D01*
G04 #@! TO.N,Net-(Q1-Pad1)*
X77929500Y-26952712D02*
X74918788Y-23942000D01*
X77929500Y-28448000D02*
X77929500Y-26952712D01*
X74918788Y-23942000D02*
X74094000Y-23942000D01*
X74094000Y-23942000D02*
X73136000Y-23942000D01*
G04 #@! TO.N,Net-(R22-Pad2)*
X20114500Y-33987500D02*
X19304000Y-33987500D01*
X23589000Y-33401000D02*
X20701000Y-33401000D01*
X20701000Y-33401000D02*
X20114500Y-33987500D01*
X18191000Y-35100500D02*
X19304000Y-33987500D01*
X17272000Y-35100500D02*
X18191000Y-35100500D01*
G04 #@! TO.N,Net-(R20-Pad2)*
X17733000Y-32051000D02*
X15748000Y-34036000D01*
X20066000Y-32051000D02*
X17733000Y-32051000D01*
X15748000Y-34036000D02*
X15748000Y-40658842D01*
X15748000Y-40658842D02*
X18523158Y-43434000D01*
X18523158Y-43434000D02*
X23950000Y-43434000D01*
X23950000Y-43434000D02*
X24940500Y-43434000D01*
X22331000Y-32131000D02*
X23589000Y-32131000D01*
X19939000Y-32051000D02*
X20019000Y-32131000D01*
X20019000Y-32131000D02*
X22331000Y-32131000D01*
G04 #@! TO.N,Net-(R26-Pad2)*
X18699000Y-37035500D02*
X19304000Y-37640500D01*
X17272000Y-37035500D02*
X18699000Y-37035500D01*
X20876500Y-37640500D02*
X19304000Y-37640500D01*
X23589000Y-38481000D02*
X21717000Y-38481000D01*
X21717000Y-38481000D02*
X20876500Y-37640500D01*
G04 #@! TO.N,/+3.9V*
X78565500Y-30782500D02*
X78740000Y-30608000D01*
X76454000Y-30782500D02*
X78565500Y-30782500D01*
X74373500Y-30480000D02*
X72296000Y-30480000D01*
X76454000Y-30782500D02*
X76151500Y-30480000D01*
X74676000Y-30782500D02*
X76200000Y-30782500D01*
X74373500Y-30480000D02*
X74676000Y-30782500D01*
X79848000Y-30608000D02*
X80264000Y-31024000D01*
X78740000Y-30608000D02*
X79848000Y-30608000D01*
X80264000Y-31024000D02*
X80264000Y-34544000D01*
X78691500Y-36116500D02*
X75438000Y-36116500D01*
X80264000Y-34544000D02*
X78691500Y-36116500D01*
G04 #@! TO.N,BatOVInterrupt*
X70358000Y-29210000D02*
X72296000Y-29210000D01*
X66548000Y-19352500D02*
X68120500Y-17780000D01*
X66548000Y-20320000D02*
X67708808Y-21480808D01*
X66548000Y-20320000D02*
X66548000Y-19352500D01*
X67708808Y-21480808D02*
X67708808Y-26560808D01*
X67708808Y-26560808D02*
X70358000Y-29210000D01*
X73058000Y-28448000D02*
X72296000Y-29210000D01*
X74216500Y-28448000D02*
X73058000Y-28448000D01*
X74216500Y-28448000D02*
X75994500Y-28448000D01*
G04 #@! TO.N,PWM*
X69088000Y-20320000D02*
X69088000Y-22957000D01*
G04 #@! TO.N,Net-(R20-Pad1)*
X27946488Y-38481000D02*
X28989000Y-38481000D01*
X27129500Y-39297988D02*
X27946488Y-38481000D01*
X27129500Y-43434000D02*
X27129500Y-39297988D01*
X29845000Y-38481000D02*
X28989000Y-38481000D01*
X28989000Y-38481000D02*
X31066500Y-38481000D01*
X31066500Y-38481000D02*
X32512000Y-39926500D01*
G04 #@! TO.N,Net-(R21-Pad1)*
X28989000Y-39751000D02*
X29439000Y-39751000D01*
X31099500Y-41861500D02*
X32512000Y-41861500D01*
X28989000Y-39751000D02*
X31099500Y-41861500D01*
X34798000Y-41861500D02*
X32512000Y-41861500D01*
G04 #@! TO.N,Net-(C13-Pad2)*
X34895000Y-39829500D02*
X34798000Y-39926500D01*
X37084000Y-39829500D02*
X34895000Y-39829500D01*
X37543500Y-34495500D02*
X37084000Y-34495500D01*
X38608000Y-35560000D02*
X37543500Y-34495500D01*
X38608000Y-38862000D02*
X38608000Y-35560000D01*
X37084000Y-39829500D02*
X37640500Y-39829500D01*
X37640500Y-39829500D02*
X38608000Y-38862000D01*
G04 #@! TO.N,Net-(C12-Pad1)*
X34241500Y-29972000D02*
X34241500Y-32258000D01*
X36527500Y-32512000D02*
X36576000Y-32560500D01*
X34241500Y-32258000D02*
X34495500Y-32512000D01*
X34495500Y-32512000D02*
X36527500Y-32512000D01*
G04 #@! TO.N,Net-(R27-Pad1)*
X23589000Y-39751000D02*
X20066000Y-39751000D01*
X19304000Y-41861500D02*
X19352500Y-41910000D01*
X19304000Y-39321500D02*
X19304000Y-41861500D01*
X19479500Y-39751000D02*
X20066000Y-39751000D01*
X19304000Y-39575500D02*
X19479500Y-39751000D01*
G04 #@! TO.N,Ipanel_SIG*
X43608000Y-20400000D02*
X43688000Y-20320000D01*
X48608000Y-37592000D02*
X47350000Y-37592000D01*
X47350000Y-37592000D02*
X45974000Y-36216000D01*
X45974000Y-36216000D02*
X45974000Y-35560000D01*
X43688000Y-20320000D02*
X43688000Y-22731500D01*
X43688000Y-23114000D02*
X43942000Y-23368000D01*
X48006000Y-30734000D02*
X45974014Y-30734000D01*
X43990500Y-24322000D02*
X44560500Y-24892000D01*
X49022000Y-29718000D02*
X48006000Y-30734000D01*
X43990500Y-23114000D02*
X43990500Y-24322000D01*
X44560500Y-24892000D02*
X46990000Y-24892000D01*
X46990000Y-24892000D02*
X49022000Y-26924000D01*
X49022000Y-26924000D02*
X49022000Y-29718000D01*
G04 #@! TO.N,Ipanel_Ref*
X46308000Y-20400000D02*
X46228000Y-20320000D01*
X46005500Y-20542500D02*
X46228000Y-20320000D01*
X45925500Y-20622500D02*
X46228000Y-20320000D01*
X45925500Y-23114000D02*
X45925500Y-20622500D01*
X49916801Y-26548801D02*
X49916801Y-34411199D01*
X49276000Y-35052000D02*
X48608000Y-35052000D01*
X45925500Y-23114000D02*
X46482000Y-23114000D01*
X49916801Y-34411199D02*
X49276000Y-35052000D01*
X46482000Y-23114000D02*
X49916801Y-26548801D01*
G04 #@! TO.N,Net-(100k7-Pad2)*
X61516500Y-34290000D02*
X61468000Y-34241500D01*
X61516500Y-36370500D02*
X61516500Y-34290000D01*
X62248842Y-39926500D02*
X63246000Y-38929342D01*
X59436000Y-39926500D02*
X62248842Y-39926500D01*
X62724500Y-36370500D02*
X61516500Y-36370500D01*
X63246000Y-38929342D02*
X63246000Y-36892000D01*
X63246000Y-36892000D02*
X62724500Y-36370500D01*
G04 #@! TO.N,Net-(100k8-Pad2)*
X59690000Y-32306500D02*
X59387500Y-32004000D01*
X61468000Y-32306500D02*
X59690000Y-32306500D01*
X59387500Y-30480000D02*
X58625500Y-29718000D01*
X59387500Y-32004000D02*
X59387500Y-30480000D01*
G04 #@! TO.N,Net-(100k9-Pad2)*
X54008000Y-35052000D02*
X55473000Y-35052000D01*
X56235000Y-34290000D02*
X55727000Y-34798000D01*
X57452500Y-34290000D02*
X56235000Y-34290000D01*
X55473000Y-35052000D02*
X55727000Y-34798000D01*
X57452500Y-32258000D02*
X57452500Y-34290000D01*
G04 #@! TO.N,Net-(C14-Pad2)*
X28989000Y-34671000D02*
X29770158Y-34671000D01*
X32306500Y-32258000D02*
X32306500Y-34544000D01*
X32306500Y-34495500D02*
X32306500Y-34036000D01*
X28989000Y-34671000D02*
X32131000Y-34671000D01*
X32131000Y-34671000D02*
X32306500Y-34495500D01*
G04 #@! TO.N,Vbat*
X66446000Y-29210000D02*
X66896000Y-29210000D01*
X66896000Y-30480000D02*
X66896000Y-29972000D01*
X66896000Y-29972000D02*
X66896000Y-29210000D01*
X66896000Y-28288000D02*
X66896000Y-29972000D01*
X62738000Y-20320000D02*
X62738000Y-24130000D01*
X62738000Y-24130000D02*
X66896000Y-28288000D01*
G04 #@! TO.N,+5VA*
X51308000Y-30274500D02*
X51610500Y-29972000D01*
X51308000Y-34544000D02*
X51308000Y-30274500D01*
X48608000Y-36322000D02*
X49530000Y-36322000D01*
X49530000Y-36322000D02*
X51308000Y-34544000D01*
X51816000Y-29766500D02*
X51610500Y-29972000D01*
X51816000Y-27940000D02*
X51816000Y-29766500D01*
X68628500Y-37654000D02*
X68628500Y-38862000D01*
X68628500Y-33494500D02*
X68628500Y-37654000D01*
X66896000Y-33020000D02*
X68154000Y-33020000D01*
X68154000Y-33020000D02*
X68628500Y-33494500D01*
X68628500Y-39672500D02*
X68628500Y-38862000D01*
X69088000Y-40132000D02*
X68628500Y-39672500D01*
X69099199Y-40120801D02*
X69088000Y-40132000D01*
X74524199Y-40120801D02*
X73152000Y-40120801D01*
X75438000Y-39207000D02*
X74524199Y-40120801D01*
X75438000Y-38051500D02*
X75438000Y-39207000D01*
X73152000Y-40120801D02*
X69099199Y-40120801D01*
X30926370Y-25654000D02*
X32004000Y-25654000D01*
X26718500Y-28256000D02*
X29320500Y-25654000D01*
X29320500Y-25654000D02*
X30926370Y-25654000D01*
X26718500Y-29464000D02*
X26718500Y-28256000D01*
X47498008Y-27940000D02*
X39370002Y-27940000D01*
X37846001Y-26415999D02*
X37084002Y-25654000D01*
X39370002Y-27940000D02*
X37846001Y-26415999D01*
X81076810Y-23926810D02*
X77470000Y-20320000D01*
X77470000Y-20320000D02*
X74168000Y-20320000D01*
X81076810Y-34880676D02*
X81076810Y-23926810D01*
X75438000Y-38051500D02*
X77905986Y-38051500D01*
X77905986Y-38051500D02*
X81076810Y-34880676D01*
X25958811Y-30175189D02*
X26436000Y-29698000D01*
X25958811Y-34829189D02*
X25958811Y-30175189D01*
X23589000Y-35941000D02*
X24847000Y-35941000D01*
X24847000Y-35941000D02*
X25958811Y-34829189D01*
X51816000Y-26131396D02*
X51704309Y-26019705D01*
X51816000Y-27940000D02*
X51816000Y-26131396D01*
X58420000Y-25908000D02*
X57658000Y-25908000D01*
X64128512Y-31242000D02*
X63754000Y-31242000D01*
X63754000Y-31242000D02*
X58420000Y-25908000D01*
X66896000Y-33020000D02*
X65906512Y-33020000D01*
X65906512Y-33020000D02*
X64128512Y-31242000D01*
G04 #@! TO.N,Net-(U2-Pad13)*
X72296000Y-36830000D02*
X72296000Y-35560000D01*
G04 #@! TO.N,Vpanel*
X28989000Y-32131000D02*
X29337000Y-32131000D01*
X28989000Y-32131000D02*
X29511000Y-32131000D01*
X28989000Y-33401000D02*
X28989000Y-32131000D01*
X30147500Y-32131000D02*
X32306500Y-29972000D01*
X28989000Y-32131000D02*
X30147500Y-32131000D01*
X32560500Y-29972000D02*
X32560500Y-28963774D01*
X34899612Y-23836018D02*
X37338000Y-21397630D01*
X34899612Y-26624662D02*
X34899612Y-23836018D01*
X37338000Y-21397630D02*
X37338000Y-20320000D01*
X32560500Y-28963774D02*
X34899612Y-26624662D01*
G04 #@! TO.N,Vpanel_Ref*
X29210000Y-20828000D02*
X29718000Y-20320000D01*
X27383500Y-20828000D02*
X29210000Y-20828000D01*
G04 #@! TO.N,Vpanel_SIG*
X28539000Y-18796000D02*
X27383500Y-18796000D01*
X32258000Y-20320000D02*
X30734000Y-18796000D01*
X30734000Y-18796000D02*
X28539000Y-18796000D01*
G04 #@! TO.N,Ipanel*
X54008000Y-33782000D02*
X54008000Y-32512000D01*
X54008000Y-32512000D02*
X54008000Y-32400500D01*
X54658500Y-32512000D02*
X54008000Y-32512000D01*
X56642000Y-29561000D02*
X56642000Y-30528500D01*
X56642000Y-30528500D02*
X54658500Y-32512000D01*
X56690500Y-28242500D02*
X56690500Y-29718000D01*
X55118000Y-26416000D02*
X55118000Y-26670000D01*
X51308000Y-22606000D02*
X55118000Y-26416000D01*
X55118000Y-26670000D02*
X56690500Y-28242500D01*
X51308000Y-20320000D02*
X51308000Y-22606000D01*
G04 #@! TO.N,Net-(R16-Pad2)*
X42515000Y-37640500D02*
X41910000Y-37035500D01*
X43942000Y-37640500D02*
X42515000Y-37640500D01*
X48608000Y-38862000D02*
X45800000Y-38862000D01*
X45800000Y-38862000D02*
X44450000Y-37512000D01*
G04 #@! TO.N,Net-(R12-Pad2)*
X45292000Y-33782000D02*
X48608000Y-33782000D01*
X43083000Y-35100500D02*
X44196000Y-33987500D01*
X41910000Y-35100500D02*
X43083000Y-35100500D01*
X45086500Y-33987500D02*
X45292000Y-33782000D01*
X44196000Y-33987500D02*
X45086500Y-33987500D01*
G04 #@! TO.N,Net-(R10-Pad1)*
X45546000Y-32512000D02*
X44704000Y-31670000D01*
X48608000Y-32512000D02*
X45546000Y-32512000D01*
X50594500Y-43688000D02*
X50848500Y-43434000D01*
X43180000Y-43688000D02*
X50594500Y-43688000D01*
X40386000Y-40894000D02*
X43180000Y-43688000D01*
X40386000Y-33782000D02*
X40386000Y-40894000D01*
X44196000Y-32052500D02*
X42115500Y-32052500D01*
X42115500Y-32052500D02*
X40386000Y-33782000D01*
G04 #@! TO.N,Net-(R10-Pad2)*
X56339500Y-38862000D02*
X57404000Y-39926500D01*
X54008000Y-38862000D02*
X56339500Y-38862000D01*
X54008000Y-38862000D02*
X53086000Y-38862000D01*
X52578000Y-39370000D02*
X52578000Y-42926000D01*
X53086000Y-38862000D02*
X52578000Y-39370000D01*
G04 #@! TO.N,Net-(100k7-Pad1)*
X57021500Y-41861500D02*
X58420000Y-41861500D01*
X54008000Y-40132000D02*
X55292000Y-40132000D01*
X55292000Y-40132000D02*
X57021500Y-41861500D01*
X58420000Y-41861500D02*
X59436000Y-41861500D01*
G04 #@! TO.N,Net-(R17-Pad2)*
X44196000Y-39575500D02*
X44196000Y-39829500D01*
X45960500Y-40132000D02*
X47498000Y-40132000D01*
X45404000Y-39575500D02*
X45960500Y-40132000D01*
X44196000Y-39575500D02*
X45404000Y-39575500D01*
X47354500Y-40132000D02*
X47498000Y-40132000D01*
X47498000Y-40132000D02*
X48608000Y-40132000D01*
X44196000Y-39575500D02*
X44196000Y-41099500D01*
X44244500Y-39624000D02*
X44196000Y-39575500D01*
X44244500Y-42164000D02*
X44244500Y-39624000D01*
G04 #@! TO.N,Net-(R18-Pad2)*
X57198500Y-37592000D02*
X57452500Y-37338000D01*
X54008000Y-37592000D02*
X57198500Y-37592000D01*
X53086000Y-37592000D02*
X54008000Y-37592000D01*
X52750000Y-37592000D02*
X54008000Y-37592000D01*
X46179500Y-42164000D02*
X49276000Y-42164000D01*
X49276000Y-42164000D02*
X49784000Y-41656000D01*
X49784000Y-41656000D02*
X50546000Y-41656000D01*
X50546000Y-41656000D02*
X51054000Y-41148000D01*
X51054000Y-41148000D02*
X51054000Y-39288000D01*
X51054000Y-39288000D02*
X52750000Y-37592000D01*
G04 #@! TO.N,Net-(R30-Pad1)*
X31809699Y-17537199D02*
X32052500Y-17780000D01*
X26150801Y-17537199D02*
X31809699Y-17537199D01*
X25448500Y-18796000D02*
X25448500Y-18239500D01*
X25448500Y-18239500D02*
X26150801Y-17537199D01*
X23589000Y-37211000D02*
X22331000Y-37211000D01*
X22331000Y-37211000D02*
X21082000Y-35962000D01*
X21082000Y-35962000D02*
X21082000Y-35560000D01*
X21082000Y-22007000D02*
X21082000Y-28132370D01*
X21082000Y-28132370D02*
X21082000Y-29210000D01*
X25448500Y-18796000D02*
X24293000Y-18796000D01*
X24293000Y-18796000D02*
X21082000Y-22007000D01*
G04 #@! TO.N,Net-(R28-Pad1)*
X28067002Y-37211000D02*
X28989000Y-37211000D01*
X21287500Y-41910000D02*
X23368002Y-41910000D01*
X23368002Y-41910000D02*
X28067002Y-37211000D01*
X32433500Y-37211000D02*
X32560500Y-37338000D01*
X28989000Y-37211000D02*
X32433500Y-37211000D01*
G04 #@! TO.N,Net-(R32-Pad1)*
X23589000Y-34671000D02*
X24374842Y-34671000D01*
X25146000Y-31750000D02*
X25146000Y-31632158D01*
X30897000Y-22606000D02*
X32052500Y-22606000D01*
X26018500Y-22606000D02*
X30897000Y-22606000D01*
X25448500Y-20828000D02*
X25448500Y-22036000D01*
X26018500Y-22606000D02*
X25908000Y-22606000D01*
X25146000Y-31750000D02*
X25146000Y-23368000D01*
X25654000Y-22462500D02*
X25764500Y-22352000D01*
X25654000Y-22860000D02*
X25654000Y-22462500D01*
X25764500Y-22352000D02*
X26018500Y-22606000D01*
X25448500Y-22036000D02*
X25764500Y-22352000D01*
X25908000Y-22606000D02*
X25654000Y-22860000D01*
X25654000Y-22860000D02*
X25146000Y-23368000D01*
X25146000Y-21130500D02*
X25448500Y-20828000D01*
X25764500Y-22352000D02*
X25146000Y-22352000D01*
X25146000Y-23368000D02*
X25146000Y-22352000D01*
X25146000Y-22352000D02*
X25146000Y-21130500D01*
X23589000Y-34671000D02*
X24765000Y-34671000D01*
X25146000Y-34290000D02*
X25146000Y-31750000D01*
X24765000Y-34671000D02*
X25146000Y-34290000D01*
G04 #@! TO.N,Vbat_SIG_IN*
X55118000Y-20320000D02*
X55118000Y-22860000D01*
X55118000Y-22860000D02*
X55069500Y-22908500D01*
G04 #@! TO.N,/Vbat_SIG*
X72296000Y-31750000D02*
X66896000Y-31750000D01*
X57101500Y-23114000D02*
X58976500Y-23114000D01*
X58976500Y-24322000D02*
X58976500Y-23114000D01*
X58976500Y-25315012D02*
X58976500Y-24322000D01*
X64262000Y-30226000D02*
X63887488Y-30226000D01*
X66896000Y-31750000D02*
X65786000Y-31750000D01*
X63887488Y-30226000D02*
X58976500Y-25315012D01*
X65786000Y-31750000D02*
X64262000Y-30226000D01*
G04 #@! TO.N,Net-(U2-Pad1)*
X66896000Y-36830000D02*
X66896000Y-35560000D01*
G04 #@! TD*
D18*
G04 #@! TO.N,GNDA*
G36*
X84582801Y-46990800D02*
X12953200Y-46990800D01*
X12953200Y-34036000D01*
X15022868Y-34036000D01*
X15036800Y-34106041D01*
X15036801Y-40588796D01*
X15022868Y-40658842D01*
X15078065Y-40936338D01*
X15195576Y-41112206D01*
X15195579Y-41112209D01*
X15235255Y-41171588D01*
X15294634Y-41211264D01*
X17970736Y-43887367D01*
X18010412Y-43946746D01*
X18069791Y-43986422D01*
X18069793Y-43986424D01*
X18245660Y-44103935D01*
X18245661Y-44103935D01*
X18245662Y-44103936D01*
X18453112Y-44145200D01*
X18453115Y-44145200D01*
X18523157Y-44159132D01*
X18593199Y-44145200D01*
X24083071Y-44145200D01*
X24116327Y-44312391D01*
X24217377Y-44463623D01*
X24368609Y-44564673D01*
X24547000Y-44600157D01*
X25842000Y-44600157D01*
X26020391Y-44564673D01*
X26162000Y-44470053D01*
X26303609Y-44564673D01*
X26482000Y-44600157D01*
X27777000Y-44600157D01*
X27955391Y-44564673D01*
X28106623Y-44463623D01*
X28207673Y-44312391D01*
X28243157Y-44134000D01*
X28243157Y-42734000D01*
X28207673Y-42555609D01*
X28106623Y-42404377D01*
X27955391Y-42303327D01*
X27840700Y-42280514D01*
X27840700Y-40277841D01*
X27909377Y-40380623D01*
X28060609Y-40481673D01*
X28239000Y-40517157D01*
X28749369Y-40517157D01*
X30547078Y-42314867D01*
X30586754Y-42374246D01*
X30646133Y-42413922D01*
X30646135Y-42413924D01*
X30718721Y-42462424D01*
X30822004Y-42531436D01*
X31029454Y-42572700D01*
X31029458Y-42572700D01*
X31099500Y-42586632D01*
X31169542Y-42572700D01*
X31358514Y-42572700D01*
X31381327Y-42687391D01*
X31482377Y-42838623D01*
X31633609Y-42939673D01*
X31812000Y-42975157D01*
X33212000Y-42975157D01*
X33390391Y-42939673D01*
X33541623Y-42838623D01*
X33642673Y-42687391D01*
X33655000Y-42625419D01*
X33667327Y-42687391D01*
X33768377Y-42838623D01*
X33919609Y-42939673D01*
X34098000Y-42975157D01*
X35498000Y-42975157D01*
X35676391Y-42939673D01*
X35827623Y-42838623D01*
X35928673Y-42687391D01*
X35964157Y-42509000D01*
X35964157Y-41214000D01*
X35928673Y-41035609D01*
X35834053Y-40894000D01*
X35928673Y-40752391D01*
X35950647Y-40641919D01*
X35953327Y-40655391D01*
X36054377Y-40806623D01*
X36205609Y-40907673D01*
X36384000Y-40943157D01*
X37784000Y-40943157D01*
X37962391Y-40907673D01*
X38113623Y-40806623D01*
X38214673Y-40655391D01*
X38250157Y-40477000D01*
X38250157Y-40225631D01*
X39061369Y-39414420D01*
X39120745Y-39374746D01*
X39160420Y-39315369D01*
X39160424Y-39315365D01*
X39270292Y-39150936D01*
X39277936Y-39139496D01*
X39319200Y-38932046D01*
X39319200Y-38932042D01*
X39333132Y-38862000D01*
X39319200Y-38791958D01*
X39319200Y-35630041D01*
X39333132Y-35559999D01*
X39319200Y-35489955D01*
X39319200Y-35489954D01*
X39277936Y-35282504D01*
X39269002Y-35269133D01*
X39160424Y-35106635D01*
X39160422Y-35106633D01*
X39120746Y-35047254D01*
X39061367Y-35007578D01*
X38250157Y-34196369D01*
X38250157Y-33848000D01*
X38214673Y-33669609D01*
X38120053Y-33528000D01*
X38214673Y-33386391D01*
X38250157Y-33208000D01*
X38250157Y-31913000D01*
X38214673Y-31734609D01*
X38113623Y-31583377D01*
X37962391Y-31482327D01*
X37784000Y-31446843D01*
X36384000Y-31446843D01*
X36205609Y-31482327D01*
X36054377Y-31583377D01*
X35953327Y-31734609D01*
X35940161Y-31800800D01*
X35609157Y-31800800D01*
X35609157Y-31558000D01*
X35573673Y-31379609D01*
X35472623Y-31228377D01*
X35321391Y-31127327D01*
X35259419Y-31115000D01*
X35321391Y-31102673D01*
X35472623Y-31001623D01*
X35573673Y-30850391D01*
X35609157Y-30672000D01*
X35609157Y-29272000D01*
X35573673Y-29093609D01*
X35472623Y-28942377D01*
X35321391Y-28841327D01*
X35143000Y-28805843D01*
X33848000Y-28805843D01*
X33693484Y-28836578D01*
X35352981Y-27177082D01*
X35412357Y-27137408D01*
X35452032Y-27078031D01*
X35452036Y-27078027D01*
X35554953Y-26924000D01*
X35569548Y-26902158D01*
X35610812Y-26694708D01*
X35610812Y-26694704D01*
X35624744Y-26624662D01*
X35610812Y-26554620D01*
X35610812Y-25411486D01*
X35864802Y-25411486D01*
X35864802Y-25896514D01*
X36050414Y-26344622D01*
X36393380Y-26687588D01*
X36841488Y-26873200D01*
X37297413Y-26873200D01*
X37392636Y-26968423D01*
X37392639Y-26968425D01*
X38817580Y-28393367D01*
X38857256Y-28452746D01*
X38916635Y-28492422D01*
X38916637Y-28492424D01*
X39005564Y-28551843D01*
X39092506Y-28609936D01*
X39299956Y-28651200D01*
X39299960Y-28651200D01*
X39370002Y-28665132D01*
X39440044Y-28651200D01*
X46484998Y-28651200D01*
X46807386Y-28973588D01*
X47255494Y-29159200D01*
X47740522Y-29159200D01*
X48188630Y-28973588D01*
X48310801Y-28851417D01*
X48310801Y-29423410D01*
X47711412Y-30022800D01*
X46987024Y-30022800D01*
X46664636Y-29700412D01*
X46216528Y-29514800D01*
X45731500Y-29514800D01*
X45283392Y-29700412D01*
X44940426Y-30043378D01*
X44754814Y-30491486D01*
X44754814Y-30938843D01*
X43496000Y-30938843D01*
X43317609Y-30974327D01*
X43166377Y-31075377D01*
X43065327Y-31226609D01*
X43042514Y-31341300D01*
X42185541Y-31341300D01*
X42115499Y-31327368D01*
X42045457Y-31341300D01*
X42045454Y-31341300D01*
X41838004Y-31382564D01*
X41838003Y-31382565D01*
X41838002Y-31382565D01*
X41662135Y-31500076D01*
X41662133Y-31500078D01*
X41602754Y-31539754D01*
X41563078Y-31599133D01*
X39932634Y-33229578D01*
X39873254Y-33269255D01*
X39833578Y-33328634D01*
X39833576Y-33328636D01*
X39775463Y-33415609D01*
X39716064Y-33504505D01*
X39674800Y-33711955D01*
X39674800Y-33711959D01*
X39660868Y-33782000D01*
X39674800Y-33852041D01*
X39674801Y-40823954D01*
X39660868Y-40894000D01*
X39716065Y-41171496D01*
X39833576Y-41347364D01*
X39833579Y-41347367D01*
X39873255Y-41406746D01*
X39932634Y-41446422D01*
X42627578Y-44141367D01*
X42667254Y-44200746D01*
X42726633Y-44240422D01*
X42726635Y-44240424D01*
X42842336Y-44317733D01*
X42902504Y-44357936D01*
X43109954Y-44399200D01*
X43109958Y-44399200D01*
X43180000Y-44413132D01*
X43250042Y-44399200D01*
X49574331Y-44399200D01*
X49617377Y-44463623D01*
X49768609Y-44564673D01*
X49947000Y-44600157D01*
X51242000Y-44600157D01*
X51420391Y-44564673D01*
X51562000Y-44470053D01*
X51703609Y-44564673D01*
X51882000Y-44600157D01*
X53177000Y-44600157D01*
X53355391Y-44564673D01*
X53506623Y-44463623D01*
X53607673Y-44312391D01*
X53643157Y-44134000D01*
X53643157Y-42734000D01*
X53607673Y-42555609D01*
X53506623Y-42404377D01*
X53355391Y-42303327D01*
X53289200Y-42290161D01*
X53289200Y-40898157D01*
X54758000Y-40898157D01*
X54936391Y-40862673D01*
X54965534Y-40843200D01*
X54997412Y-40843200D01*
X56237843Y-42083632D01*
X56237843Y-42509000D01*
X56273327Y-42687391D01*
X56374377Y-42838623D01*
X56525609Y-42939673D01*
X56704000Y-42975157D01*
X58104000Y-42975157D01*
X58282391Y-42939673D01*
X58420000Y-42847726D01*
X58557609Y-42939673D01*
X58736000Y-42975157D01*
X60136000Y-42975157D01*
X60314391Y-42939673D01*
X60465623Y-42838623D01*
X60566673Y-42687391D01*
X60602157Y-42509000D01*
X60602157Y-41214000D01*
X60566673Y-41035609D01*
X60472053Y-40894000D01*
X60566673Y-40752391D01*
X60589486Y-40637700D01*
X62178801Y-40637700D01*
X62248842Y-40651632D01*
X62318883Y-40637700D01*
X62318888Y-40637700D01*
X62526338Y-40596436D01*
X62761588Y-40439246D01*
X62801266Y-40379864D01*
X63699369Y-39481762D01*
X63758745Y-39442088D01*
X63798420Y-39382711D01*
X63798424Y-39382707D01*
X63915935Y-39206840D01*
X63915935Y-39206839D01*
X63915936Y-39206838D01*
X63957200Y-38999388D01*
X63957200Y-38999385D01*
X63971132Y-38929343D01*
X63957200Y-38859301D01*
X63957200Y-36962041D01*
X63971132Y-36891999D01*
X63957200Y-36821957D01*
X63957200Y-36821954D01*
X63915936Y-36614504D01*
X63913552Y-36610936D01*
X63798424Y-36438635D01*
X63798422Y-36438633D01*
X63758746Y-36379254D01*
X63699366Y-36339578D01*
X63276924Y-35917136D01*
X63237246Y-35857754D01*
X63001996Y-35700564D01*
X62794546Y-35659300D01*
X62794541Y-35659300D01*
X62724500Y-35645368D01*
X62669395Y-35656329D01*
X62647173Y-35544609D01*
X62546123Y-35393377D01*
X62394891Y-35292327D01*
X62389055Y-35291166D01*
X62497623Y-35218623D01*
X62598673Y-35067391D01*
X62634157Y-34889000D01*
X62634157Y-33594000D01*
X62598673Y-33415609D01*
X62504053Y-33274000D01*
X62598673Y-33132391D01*
X62634157Y-32954000D01*
X62634157Y-31659000D01*
X62598673Y-31480609D01*
X62497623Y-31329377D01*
X62346391Y-31228327D01*
X62168000Y-31192843D01*
X60768000Y-31192843D01*
X60589609Y-31228327D01*
X60498247Y-31289373D01*
X60465673Y-31125609D01*
X60364623Y-30974377D01*
X60213391Y-30873327D01*
X60098700Y-30850514D01*
X60098700Y-30550042D01*
X60112632Y-30480000D01*
X60098700Y-30409958D01*
X60098700Y-30409954D01*
X60057436Y-30202504D01*
X59992381Y-30105143D01*
X59939924Y-30026635D01*
X59939922Y-30026633D01*
X59900246Y-29967254D01*
X59840867Y-29927578D01*
X59739157Y-29825868D01*
X59739157Y-29018000D01*
X59703673Y-28839609D01*
X59602623Y-28688377D01*
X59451391Y-28587327D01*
X59273000Y-28551843D01*
X57978000Y-28551843D01*
X57799609Y-28587327D01*
X57658000Y-28681947D01*
X57516391Y-28587327D01*
X57401700Y-28564514D01*
X57401700Y-28312542D01*
X57415632Y-28242500D01*
X57401700Y-28172458D01*
X57401700Y-28172454D01*
X57360436Y-27965004D01*
X57314045Y-27895576D01*
X57242924Y-27789135D01*
X57242920Y-27789131D01*
X57203245Y-27729754D01*
X57143869Y-27690080D01*
X55836513Y-26382725D01*
X55829200Y-26345958D01*
X55829200Y-26345954D01*
X55787936Y-26138504D01*
X55719482Y-26036056D01*
X55670424Y-25962635D01*
X55670420Y-25962631D01*
X55630745Y-25903254D01*
X55571369Y-25863580D01*
X52019200Y-22311412D01*
X52019200Y-21333010D01*
X52341588Y-21010622D01*
X52527200Y-20562514D01*
X52527200Y-20077486D01*
X53898800Y-20077486D01*
X53898800Y-20562514D01*
X54084412Y-21010622D01*
X54406800Y-21333010D01*
X54406801Y-21970161D01*
X54340609Y-21983327D01*
X54189377Y-22084377D01*
X54088327Y-22235609D01*
X54052843Y-22414000D01*
X54052843Y-23814000D01*
X54088327Y-23992391D01*
X54189377Y-24143623D01*
X54340609Y-24244673D01*
X54519000Y-24280157D01*
X55814000Y-24280157D01*
X55992391Y-24244673D01*
X56134000Y-24150053D01*
X56275609Y-24244673D01*
X56454000Y-24280157D01*
X57749000Y-24280157D01*
X57927391Y-24244673D01*
X58039000Y-24170098D01*
X58150609Y-24244673D01*
X58265300Y-24267486D01*
X58265300Y-24392045D01*
X58265301Y-24392049D01*
X58265300Y-24839899D01*
X57900514Y-24688800D01*
X57415486Y-24688800D01*
X56967378Y-24874412D01*
X56624412Y-25217378D01*
X56438800Y-25665486D01*
X56438800Y-26150514D01*
X56624412Y-26598622D01*
X56967378Y-26941588D01*
X57415486Y-27127200D01*
X57900514Y-27127200D01*
X58348622Y-26941588D01*
X58398211Y-26891999D01*
X63201578Y-31695367D01*
X63241254Y-31754746D01*
X63300633Y-31794422D01*
X63300635Y-31794424D01*
X63476502Y-31911935D01*
X63476503Y-31911935D01*
X63476504Y-31911936D01*
X63683954Y-31953200D01*
X63683957Y-31953200D01*
X63753999Y-31967132D01*
X63824041Y-31953200D01*
X63833924Y-31953200D01*
X65354090Y-33473367D01*
X65393766Y-33532746D01*
X65453145Y-33572422D01*
X65453147Y-33572424D01*
X65524447Y-33620065D01*
X65629016Y-33689936D01*
X65836466Y-33731200D01*
X65836470Y-33731200D01*
X65906512Y-33745132D01*
X65947203Y-33737038D01*
X65967609Y-33750673D01*
X66146000Y-33786157D01*
X67646000Y-33786157D01*
X67824391Y-33750673D01*
X67853534Y-33731200D01*
X67859412Y-33731200D01*
X67917300Y-33789089D01*
X67917300Y-34891407D01*
X67824391Y-34829327D01*
X67646000Y-34793843D01*
X66146000Y-34793843D01*
X65967609Y-34829327D01*
X65816377Y-34930377D01*
X65715327Y-35081609D01*
X65679843Y-35260000D01*
X65679843Y-35860000D01*
X65715327Y-36038391D01*
X65816377Y-36189623D01*
X65824424Y-36195000D01*
X65816377Y-36200377D01*
X65715327Y-36351609D01*
X65679843Y-36530000D01*
X65679843Y-37130000D01*
X65715327Y-37308391D01*
X65816377Y-37459623D01*
X65967609Y-37560673D01*
X66146000Y-37596157D01*
X67646000Y-37596157D01*
X67824391Y-37560673D01*
X67917301Y-37498593D01*
X67917301Y-37583950D01*
X67917300Y-37583955D01*
X67917300Y-37708514D01*
X67802609Y-37731327D01*
X67651377Y-37832377D01*
X67550327Y-37983609D01*
X67514843Y-38162000D01*
X67514843Y-39562000D01*
X67550327Y-39740391D01*
X67651377Y-39891623D01*
X67802609Y-39992673D01*
X67981000Y-40028157D01*
X68010790Y-40028157D01*
X68076076Y-40125864D01*
X68076078Y-40125866D01*
X68115754Y-40185245D01*
X68175133Y-40224921D01*
X68535578Y-40585367D01*
X68575254Y-40644746D01*
X68634632Y-40684421D01*
X68634635Y-40684424D01*
X68810502Y-40801935D01*
X69087999Y-40857132D01*
X69088000Y-40857132D01*
X69214343Y-40832001D01*
X74454158Y-40832001D01*
X74524199Y-40845933D01*
X74594240Y-40832001D01*
X74594245Y-40832001D01*
X74801695Y-40790737D01*
X75036945Y-40633547D01*
X75076623Y-40574165D01*
X75891367Y-39759422D01*
X75950746Y-39719746D01*
X75990422Y-39660367D01*
X75990424Y-39660365D01*
X76076238Y-39531935D01*
X76107936Y-39484496D01*
X76149200Y-39277046D01*
X76149200Y-39277042D01*
X76163132Y-39207000D01*
X76154169Y-39161941D01*
X76316391Y-39129673D01*
X76467623Y-39028623D01*
X76568673Y-38877391D01*
X76591486Y-38762700D01*
X77835945Y-38762700D01*
X77905986Y-38776632D01*
X77976027Y-38762700D01*
X77976032Y-38762700D01*
X78183482Y-38721436D01*
X78418732Y-38564246D01*
X78458410Y-38504864D01*
X81530179Y-35433096D01*
X81589555Y-35393422D01*
X81629230Y-35334045D01*
X81629234Y-35334041D01*
X81746745Y-35158174D01*
X81746745Y-35158173D01*
X81746746Y-35158172D01*
X81788010Y-34950722D01*
X81788010Y-34950719D01*
X81801942Y-34880677D01*
X81788010Y-34810635D01*
X81788010Y-23996852D01*
X81801942Y-23926810D01*
X81788010Y-23856768D01*
X81788010Y-23856764D01*
X81746746Y-23649314D01*
X81698812Y-23577576D01*
X81629234Y-23473445D01*
X81629232Y-23473443D01*
X81589556Y-23414064D01*
X81530177Y-23374388D01*
X78022423Y-19866635D01*
X77982746Y-19807254D01*
X77747496Y-19650064D01*
X77540046Y-19608800D01*
X77540041Y-19608800D01*
X77470000Y-19594868D01*
X77399959Y-19608800D01*
X75181010Y-19608800D01*
X74858622Y-19286412D01*
X74410514Y-19100800D01*
X73925486Y-19100800D01*
X73477378Y-19286412D01*
X73134412Y-19629378D01*
X72948800Y-20077486D01*
X72948800Y-20562514D01*
X73134412Y-21010622D01*
X73477378Y-21353588D01*
X73925486Y-21539200D01*
X74410514Y-21539200D01*
X74858622Y-21353588D01*
X75181010Y-21031200D01*
X77175412Y-21031200D01*
X80365611Y-24221400D01*
X80365610Y-30102534D01*
X80360746Y-30095254D01*
X80125496Y-29938064D01*
X79918046Y-29896800D01*
X79918041Y-29896800D01*
X79848000Y-29882868D01*
X79777959Y-29896800D01*
X79715342Y-29896800D01*
X79669623Y-29828377D01*
X79518391Y-29727327D01*
X79340000Y-29691843D01*
X78140000Y-29691843D01*
X77961609Y-29727327D01*
X77810377Y-29828377D01*
X77709327Y-29979609D01*
X77691089Y-30071300D01*
X77353486Y-30071300D01*
X77330673Y-29956609D01*
X77229623Y-29805377D01*
X77078391Y-29704327D01*
X76900000Y-29668843D01*
X75500000Y-29668843D01*
X75321609Y-29704327D01*
X75170377Y-29805377D01*
X75069327Y-29956609D01*
X75046514Y-30071300D01*
X74970588Y-30071300D01*
X74925923Y-30026635D01*
X74886246Y-29967254D01*
X74650996Y-29810064D01*
X74443546Y-29768800D01*
X74443541Y-29768800D01*
X74373500Y-29754868D01*
X74303459Y-29768800D01*
X73422945Y-29768800D01*
X73476673Y-29688391D01*
X73512157Y-29510000D01*
X73512157Y-29159200D01*
X74883071Y-29159200D01*
X74916327Y-29326391D01*
X75017377Y-29477623D01*
X75168609Y-29578673D01*
X75347000Y-29614157D01*
X76642000Y-29614157D01*
X76820391Y-29578673D01*
X76962000Y-29484053D01*
X77103609Y-29578673D01*
X77282000Y-29614157D01*
X78577000Y-29614157D01*
X78755391Y-29578673D01*
X78906623Y-29477623D01*
X79007673Y-29326391D01*
X79043157Y-29148000D01*
X79043157Y-27748000D01*
X79007673Y-27569609D01*
X78906623Y-27418377D01*
X78755391Y-27317327D01*
X78640700Y-27294514D01*
X78640700Y-27022754D01*
X78654632Y-26952712D01*
X78640700Y-26882670D01*
X78640700Y-26882666D01*
X78599436Y-26675216D01*
X78514967Y-26548800D01*
X78481924Y-26499347D01*
X78481922Y-26499345D01*
X78442246Y-26439966D01*
X78382867Y-26400290D01*
X75471212Y-23488636D01*
X75431534Y-23429254D01*
X75196284Y-23272064D01*
X74988834Y-23230800D01*
X74988829Y-23230800D01*
X74918788Y-23216868D01*
X74848747Y-23230800D01*
X73927933Y-23230800D01*
X73915623Y-23212377D01*
X73764391Y-23111327D01*
X73586000Y-23075843D01*
X72686000Y-23075843D01*
X72507609Y-23111327D01*
X72356377Y-23212377D01*
X72255327Y-23363609D01*
X72219843Y-23542000D01*
X72219843Y-24342000D01*
X72255327Y-24520391D01*
X72356377Y-24671623D01*
X72507609Y-24772673D01*
X72686000Y-24808157D01*
X73586000Y-24808157D01*
X73764391Y-24772673D01*
X73915623Y-24671623D01*
X73927933Y-24653200D01*
X74624200Y-24653200D01*
X77218301Y-27247302D01*
X77218301Y-27294514D01*
X77103609Y-27317327D01*
X76962000Y-27411947D01*
X76820391Y-27317327D01*
X76642000Y-27281843D01*
X75347000Y-27281843D01*
X75168609Y-27317327D01*
X75017377Y-27418377D01*
X74916327Y-27569609D01*
X74883071Y-27736800D01*
X73128042Y-27736800D01*
X73058000Y-27722868D01*
X72987958Y-27736800D01*
X72987954Y-27736800D01*
X72780504Y-27778064D01*
X72743730Y-27802636D01*
X72604635Y-27895576D01*
X72604633Y-27895578D01*
X72545254Y-27935254D01*
X72505578Y-27994633D01*
X72056369Y-28443843D01*
X71546000Y-28443843D01*
X71367609Y-28479327D01*
X71338466Y-28498800D01*
X70652589Y-28498800D01*
X68420008Y-26266220D01*
X68420008Y-26005657D01*
X69788000Y-26005657D01*
X69966391Y-25970173D01*
X70117623Y-25869123D01*
X70218673Y-25717891D01*
X70241486Y-25603200D01*
X70344067Y-25603200D01*
X70356377Y-25621623D01*
X70507609Y-25722673D01*
X70686000Y-25758157D01*
X71586000Y-25758157D01*
X71764391Y-25722673D01*
X71915623Y-25621623D01*
X72016673Y-25470391D01*
X72052157Y-25292000D01*
X72052157Y-24492000D01*
X72016673Y-24313609D01*
X71915623Y-24162377D01*
X71764391Y-24061327D01*
X71586000Y-24025843D01*
X70686000Y-24025843D01*
X70507609Y-24061327D01*
X70356377Y-24162377D01*
X70344067Y-24180800D01*
X70241486Y-24180800D01*
X70218673Y-24066109D01*
X70124053Y-23924500D01*
X70218673Y-23782891D01*
X70254157Y-23604500D01*
X70254157Y-22309500D01*
X70218673Y-22131109D01*
X70117623Y-21979877D01*
X69966391Y-21878827D01*
X69799200Y-21845571D01*
X69799200Y-21333010D01*
X70121588Y-21010622D01*
X70307200Y-20562514D01*
X70307200Y-20077486D01*
X70121588Y-19629378D01*
X69778622Y-19286412D01*
X69330514Y-19100800D01*
X68845486Y-19100800D01*
X68397378Y-19286412D01*
X68054412Y-19629378D01*
X67868800Y-20077486D01*
X67868800Y-20562514D01*
X67920063Y-20686274D01*
X67767200Y-20533411D01*
X67767200Y-20077486D01*
X67581588Y-19629378D01*
X67429249Y-19477039D01*
X67960132Y-18946157D01*
X68768000Y-18946157D01*
X68946391Y-18910673D01*
X69097623Y-18809623D01*
X69198673Y-18658391D01*
X69234157Y-18480000D01*
X69234157Y-17080000D01*
X69198673Y-16901609D01*
X69097623Y-16750377D01*
X68946391Y-16649327D01*
X68768000Y-16613843D01*
X67473000Y-16613843D01*
X67294609Y-16649327D01*
X67143377Y-16750377D01*
X67042327Y-16901609D01*
X67006843Y-17080000D01*
X67006843Y-17887868D01*
X66094634Y-18800078D01*
X66035255Y-18839754D01*
X65995579Y-18899133D01*
X65995576Y-18899136D01*
X65878065Y-19075004D01*
X65830709Y-19313081D01*
X65514412Y-19629378D01*
X65328800Y-20077486D01*
X65328800Y-20562514D01*
X65514412Y-21010622D01*
X65857378Y-21353588D01*
X66305486Y-21539200D01*
X66761411Y-21539200D01*
X66997608Y-21775397D01*
X66997609Y-26490762D01*
X66983676Y-26560808D01*
X67038873Y-26838304D01*
X67156384Y-27014172D01*
X67156387Y-27014175D01*
X67196063Y-27073554D01*
X67255442Y-27113230D01*
X69805578Y-29663367D01*
X69845254Y-29722746D01*
X69904633Y-29762422D01*
X69904635Y-29762424D01*
X70080502Y-29879935D01*
X70080503Y-29879935D01*
X70080504Y-29879936D01*
X70287954Y-29921200D01*
X70287957Y-29921200D01*
X70357999Y-29935132D01*
X70428041Y-29921200D01*
X71169055Y-29921200D01*
X71115327Y-30001609D01*
X71079843Y-30180000D01*
X71079843Y-30780000D01*
X71115327Y-30958391D01*
X71169055Y-31038800D01*
X68022945Y-31038800D01*
X68076673Y-30958391D01*
X68112157Y-30780000D01*
X68112157Y-30180000D01*
X68076673Y-30001609D01*
X67975623Y-29850377D01*
X67967576Y-29845000D01*
X67975623Y-29839623D01*
X68076673Y-29688391D01*
X68112157Y-29510000D01*
X68112157Y-28910000D01*
X68076673Y-28731609D01*
X67975623Y-28580377D01*
X67824391Y-28479327D01*
X67646000Y-28443843D01*
X67607200Y-28443843D01*
X67607200Y-28358041D01*
X67621132Y-28288000D01*
X67607200Y-28217958D01*
X67607200Y-28217954D01*
X67565936Y-28010504D01*
X67535534Y-27965005D01*
X67448424Y-27834635D01*
X67448420Y-27834631D01*
X67408745Y-27775254D01*
X67349369Y-27735580D01*
X63449200Y-23835412D01*
X63449200Y-21333010D01*
X63771588Y-21010622D01*
X63957200Y-20562514D01*
X63957200Y-20077486D01*
X63771588Y-19629378D01*
X63428622Y-19286412D01*
X62980514Y-19100800D01*
X62495486Y-19100800D01*
X62047378Y-19286412D01*
X61704412Y-19629378D01*
X61518800Y-20077486D01*
X61518800Y-20562514D01*
X61704412Y-21010622D01*
X62026800Y-21333010D01*
X62026801Y-24059954D01*
X62012868Y-24130000D01*
X62068065Y-24407496D01*
X62185576Y-24583364D01*
X62185579Y-24583367D01*
X62225255Y-24642746D01*
X62284634Y-24682422D01*
X66062636Y-28460425D01*
X65967609Y-28479327D01*
X65816377Y-28580377D01*
X65715327Y-28731609D01*
X65679843Y-28910000D01*
X65679843Y-29510000D01*
X65715327Y-29688391D01*
X65816377Y-29839623D01*
X65824424Y-29845000D01*
X65816377Y-29850377D01*
X65715327Y-30001609D01*
X65679843Y-30180000D01*
X65679843Y-30638054D01*
X64814423Y-29772635D01*
X64774746Y-29713254D01*
X64539496Y-29556064D01*
X64332046Y-29514800D01*
X64332041Y-29514800D01*
X64262000Y-29500868D01*
X64191959Y-29514800D01*
X64182077Y-29514800D01*
X59687700Y-25020424D01*
X59687700Y-24267486D01*
X59802391Y-24244673D01*
X59953623Y-24143623D01*
X60054673Y-23992391D01*
X60090157Y-23814000D01*
X60090157Y-22414000D01*
X60054673Y-22235609D01*
X59953623Y-22084377D01*
X59802391Y-21983327D01*
X59624000Y-21947843D01*
X58329000Y-21947843D01*
X58150609Y-21983327D01*
X58039000Y-22057902D01*
X57927391Y-21983327D01*
X57749000Y-21947843D01*
X56454000Y-21947843D01*
X56275609Y-21983327D01*
X56134000Y-22077947D01*
X55992391Y-21983327D01*
X55829200Y-21950866D01*
X55829200Y-21333010D01*
X56151588Y-21010622D01*
X56337200Y-20562514D01*
X56337200Y-20077486D01*
X56151588Y-19629378D01*
X55808622Y-19286412D01*
X55360514Y-19100800D01*
X54875486Y-19100800D01*
X54427378Y-19286412D01*
X54084412Y-19629378D01*
X53898800Y-20077486D01*
X52527200Y-20077486D01*
X52341588Y-19629378D01*
X51998622Y-19286412D01*
X51550514Y-19100800D01*
X51065486Y-19100800D01*
X50617378Y-19286412D01*
X50274412Y-19629378D01*
X50088800Y-20077486D01*
X50088800Y-20562514D01*
X50274412Y-21010622D01*
X50596800Y-21333010D01*
X50596801Y-22535954D01*
X50582868Y-22606000D01*
X50638065Y-22883496D01*
X50755576Y-23059364D01*
X50755579Y-23059367D01*
X50795255Y-23118746D01*
X50854634Y-23158422D01*
X54399487Y-26703276D01*
X54406800Y-26740041D01*
X54406800Y-26740046D01*
X54448064Y-26947496D01*
X54492616Y-27014172D01*
X54565576Y-27123364D01*
X54565578Y-27123366D01*
X54605255Y-27182746D01*
X54664634Y-27222422D01*
X55979300Y-28537089D01*
X55979300Y-28564514D01*
X55864609Y-28587327D01*
X55713377Y-28688377D01*
X55612327Y-28839609D01*
X55576843Y-29018000D01*
X55576843Y-30418000D01*
X55605026Y-30559685D01*
X54418869Y-31745843D01*
X54308362Y-31745843D01*
X54285496Y-31730564D01*
X54008000Y-31675367D01*
X53730505Y-31730564D01*
X53707639Y-31745843D01*
X53258000Y-31745843D01*
X53079609Y-31781327D01*
X52928377Y-31882377D01*
X52827327Y-32033609D01*
X52791843Y-32212000D01*
X52791843Y-32812000D01*
X52827327Y-32990391D01*
X52928377Y-33141623D01*
X52936424Y-33147000D01*
X52928377Y-33152377D01*
X52827327Y-33303609D01*
X52791843Y-33482000D01*
X52791843Y-34082000D01*
X52827327Y-34260391D01*
X52928377Y-34411623D01*
X52936424Y-34417000D01*
X52928377Y-34422377D01*
X52827327Y-34573609D01*
X52791843Y-34752000D01*
X52791843Y-35352000D01*
X52827327Y-35530391D01*
X52928377Y-35681623D01*
X53079609Y-35782673D01*
X53258000Y-35818157D01*
X54758000Y-35818157D01*
X54936391Y-35782673D01*
X54965534Y-35763200D01*
X55402959Y-35763200D01*
X55473000Y-35777132D01*
X55543041Y-35763200D01*
X55543046Y-35763200D01*
X55750496Y-35721936D01*
X55985746Y-35564746D01*
X56025424Y-35505364D01*
X56372348Y-35158440D01*
X56374327Y-35168391D01*
X56475377Y-35319623D01*
X56626609Y-35420673D01*
X56805000Y-35456157D01*
X58100000Y-35456157D01*
X58278391Y-35420673D01*
X58429623Y-35319623D01*
X58530673Y-35168391D01*
X58566157Y-34990000D01*
X58566157Y-33590000D01*
X58530673Y-33411609D01*
X58429623Y-33260377D01*
X58278391Y-33159327D01*
X58216419Y-33147000D01*
X58278391Y-33134673D01*
X58420000Y-33040053D01*
X58561609Y-33134673D01*
X58740000Y-33170157D01*
X60035000Y-33170157D01*
X60213391Y-33134673D01*
X60323188Y-33061309D01*
X60337327Y-33132391D01*
X60431947Y-33274000D01*
X60337327Y-33415609D01*
X60301843Y-33594000D01*
X60301843Y-34889000D01*
X60337327Y-35067391D01*
X60438377Y-35218623D01*
X60589609Y-35319673D01*
X60595445Y-35320834D01*
X60486877Y-35393377D01*
X60385827Y-35544609D01*
X60350343Y-35723000D01*
X60350343Y-37018000D01*
X60385827Y-37196391D01*
X60486877Y-37347623D01*
X60638109Y-37448673D01*
X60816500Y-37484157D01*
X62216500Y-37484157D01*
X62394891Y-37448673D01*
X62534801Y-37355188D01*
X62534800Y-38634753D01*
X61954254Y-39215300D01*
X60589486Y-39215300D01*
X60566673Y-39100609D01*
X60465623Y-38949377D01*
X60314391Y-38848327D01*
X60136000Y-38812843D01*
X58736000Y-38812843D01*
X58557609Y-38848327D01*
X58420000Y-38940274D01*
X58282391Y-38848327D01*
X58104000Y-38812843D01*
X57296131Y-38812843D01*
X56987445Y-38504157D01*
X58100000Y-38504157D01*
X58278391Y-38468673D01*
X58429623Y-38367623D01*
X58530673Y-38216391D01*
X58566157Y-38038000D01*
X58566157Y-36638000D01*
X58530673Y-36459609D01*
X58429623Y-36308377D01*
X58278391Y-36207327D01*
X58100000Y-36171843D01*
X56805000Y-36171843D01*
X56626609Y-36207327D01*
X56475377Y-36308377D01*
X56374327Y-36459609D01*
X56338843Y-36638000D01*
X56338843Y-36880800D01*
X54965534Y-36880800D01*
X54936391Y-36861327D01*
X54758000Y-36825843D01*
X53258000Y-36825843D01*
X53079609Y-36861327D01*
X53050466Y-36880800D01*
X52820041Y-36880800D01*
X52749999Y-36866868D01*
X52679957Y-36880800D01*
X52679954Y-36880800D01*
X52472504Y-36922064D01*
X52472503Y-36922065D01*
X52472502Y-36922065D01*
X52296635Y-37039576D01*
X52296633Y-37039578D01*
X52237254Y-37079254D01*
X52197578Y-37138633D01*
X50600634Y-38735578D01*
X50541255Y-38775254D01*
X50501579Y-38834633D01*
X50501576Y-38834636D01*
X50384065Y-39010504D01*
X50328868Y-39288000D01*
X50342801Y-39358046D01*
X50342800Y-40853412D01*
X50251412Y-40944800D01*
X49854041Y-40944800D01*
X49783999Y-40930868D01*
X49713957Y-40944800D01*
X49713954Y-40944800D01*
X49506504Y-40986064D01*
X49506503Y-40986065D01*
X49506502Y-40986065D01*
X49435770Y-41033327D01*
X49271254Y-41143254D01*
X49231576Y-41202636D01*
X48981412Y-41452800D01*
X47290929Y-41452800D01*
X47257673Y-41285609D01*
X47156623Y-41134377D01*
X47005391Y-41033327D01*
X46827000Y-40997843D01*
X45532000Y-40997843D01*
X45353609Y-41033327D01*
X45212000Y-41127947D01*
X45070391Y-41033327D01*
X44955700Y-41010514D01*
X44955700Y-40677282D01*
X45074391Y-40653673D01*
X45225623Y-40552623D01*
X45285589Y-40462878D01*
X45408078Y-40585366D01*
X45447754Y-40644746D01*
X45507133Y-40684422D01*
X45507135Y-40684424D01*
X45608855Y-40752391D01*
X45683004Y-40801936D01*
X45890454Y-40843200D01*
X45890458Y-40843200D01*
X45960500Y-40857132D01*
X46030542Y-40843200D01*
X47650466Y-40843200D01*
X47679609Y-40862673D01*
X47858000Y-40898157D01*
X49358000Y-40898157D01*
X49536391Y-40862673D01*
X49687623Y-40761623D01*
X49788673Y-40610391D01*
X49824157Y-40432000D01*
X49824157Y-39832000D01*
X49788673Y-39653609D01*
X49687623Y-39502377D01*
X49679576Y-39497000D01*
X49687623Y-39491623D01*
X49788673Y-39340391D01*
X49824157Y-39162000D01*
X49824157Y-38562000D01*
X49788673Y-38383609D01*
X49687623Y-38232377D01*
X49679576Y-38227000D01*
X49687623Y-38221623D01*
X49788673Y-38070391D01*
X49824157Y-37892000D01*
X49824157Y-37292000D01*
X49788673Y-37113609D01*
X49719120Y-37009515D01*
X49807496Y-36991936D01*
X50042746Y-36834746D01*
X50082424Y-36775364D01*
X51761369Y-35096420D01*
X51820745Y-35056746D01*
X51860420Y-34997369D01*
X51860424Y-34997365D01*
X51963952Y-34842424D01*
X51977936Y-34821496D01*
X52019200Y-34614046D01*
X52019200Y-34614042D01*
X52033132Y-34544000D01*
X52019200Y-34473958D01*
X52019200Y-31138157D01*
X52258000Y-31138157D01*
X52436391Y-31102673D01*
X52587623Y-31001623D01*
X52688673Y-30850391D01*
X52724157Y-30672000D01*
X52724157Y-29272000D01*
X52688673Y-29093609D01*
X52587623Y-28942377D01*
X52557776Y-28922434D01*
X52849588Y-28630622D01*
X53035200Y-28182514D01*
X53035200Y-27697486D01*
X52849588Y-27249378D01*
X52527200Y-26926990D01*
X52527200Y-26921024D01*
X52737897Y-26710327D01*
X52923509Y-26262219D01*
X52923509Y-25777191D01*
X52737897Y-25329083D01*
X52394931Y-24986117D01*
X51946823Y-24800505D01*
X51461795Y-24800505D01*
X51013687Y-24986117D01*
X50670721Y-25329083D01*
X50485109Y-25777191D01*
X50485109Y-26119208D01*
X50469225Y-26095436D01*
X50469221Y-26095432D01*
X50429546Y-26036055D01*
X50370170Y-25996381D01*
X47039157Y-22665369D01*
X47039157Y-22414000D01*
X47003673Y-22235609D01*
X46902623Y-22084377D01*
X46751391Y-21983327D01*
X46636700Y-21960514D01*
X46636700Y-21470364D01*
X46918622Y-21353588D01*
X47261588Y-21010622D01*
X47447200Y-20562514D01*
X47447200Y-20077486D01*
X47261588Y-19629378D01*
X46918622Y-19286412D01*
X46470514Y-19100800D01*
X45985486Y-19100800D01*
X45537378Y-19286412D01*
X45194412Y-19629378D01*
X45008800Y-20077486D01*
X45008800Y-20562514D01*
X45194412Y-21010622D01*
X45214301Y-21030511D01*
X45214300Y-21960514D01*
X45099609Y-21983327D01*
X44958000Y-22077947D01*
X44816391Y-21983327D01*
X44638000Y-21947843D01*
X44399200Y-21947843D01*
X44399200Y-21333010D01*
X44721588Y-21010622D01*
X44907200Y-20562514D01*
X44907200Y-20077486D01*
X44721588Y-19629378D01*
X44378622Y-19286412D01*
X43930514Y-19100800D01*
X43445486Y-19100800D01*
X42997378Y-19286412D01*
X42654412Y-19629378D01*
X42468800Y-20077486D01*
X42468800Y-20562514D01*
X42654412Y-21010622D01*
X42976800Y-21333010D01*
X42976801Y-22139117D01*
X42912327Y-22235609D01*
X42876843Y-22414000D01*
X42876843Y-23814000D01*
X42912327Y-23992391D01*
X43013377Y-24143623D01*
X43164609Y-24244673D01*
X43276329Y-24266895D01*
X43265368Y-24322000D01*
X43320565Y-24599496D01*
X43438076Y-24775364D01*
X43438079Y-24775367D01*
X43477755Y-24834746D01*
X43537134Y-24874422D01*
X44008078Y-25345366D01*
X44047754Y-25404746D01*
X44107133Y-25444422D01*
X44107135Y-25444424D01*
X44222836Y-25521733D01*
X44283004Y-25561936D01*
X44490454Y-25603200D01*
X44490458Y-25603200D01*
X44560500Y-25617132D01*
X44630542Y-25603200D01*
X46695412Y-25603200D01*
X47864269Y-26772058D01*
X47740522Y-26720800D01*
X47255494Y-26720800D01*
X46807386Y-26906412D01*
X46484998Y-27228800D01*
X39664591Y-27228800D01*
X38398427Y-25962637D01*
X38398425Y-25962634D01*
X38303202Y-25867411D01*
X38303202Y-25411486D01*
X38117590Y-24963378D01*
X37774624Y-24620412D01*
X37326516Y-24434800D01*
X36841488Y-24434800D01*
X36393380Y-24620412D01*
X36050414Y-24963378D01*
X35864802Y-25411486D01*
X35610812Y-25411486D01*
X35610812Y-24130606D01*
X37791369Y-21950050D01*
X37850745Y-21910376D01*
X37890420Y-21850999D01*
X37890424Y-21850995D01*
X38007935Y-21675128D01*
X38007935Y-21675127D01*
X38007936Y-21675126D01*
X38049200Y-21467676D01*
X38049200Y-21467673D01*
X38063132Y-21397631D01*
X38050099Y-21332111D01*
X38371588Y-21010622D01*
X38557200Y-20562514D01*
X38557200Y-20077486D01*
X38371588Y-19629378D01*
X38028622Y-19286412D01*
X37580514Y-19100800D01*
X37095486Y-19100800D01*
X36647378Y-19286412D01*
X36304412Y-19629378D01*
X36118800Y-20077486D01*
X36118800Y-20562514D01*
X36304412Y-21010622D01*
X36511816Y-21218026D01*
X34446246Y-23283596D01*
X34386867Y-23323272D01*
X34347191Y-23382651D01*
X34347188Y-23382654D01*
X34229677Y-23558522D01*
X34174480Y-23836018D01*
X34188413Y-23906064D01*
X34188412Y-26330073D01*
X32107134Y-28411352D01*
X32047755Y-28451028D01*
X32008079Y-28510407D01*
X32008076Y-28510410D01*
X31890565Y-28686278D01*
X31864878Y-28815415D01*
X31734609Y-28841327D01*
X31583377Y-28942377D01*
X31482327Y-29093609D01*
X31446843Y-29272000D01*
X31446843Y-29825868D01*
X29879852Y-31392860D01*
X29739000Y-31364843D01*
X28239000Y-31364843D01*
X28060609Y-31400327D01*
X27909377Y-31501377D01*
X27808327Y-31652609D01*
X27772843Y-31831000D01*
X27772843Y-32431000D01*
X27808327Y-32609391D01*
X27909377Y-32760623D01*
X27917424Y-32766000D01*
X27909377Y-32771377D01*
X27808327Y-32922609D01*
X27772843Y-33101000D01*
X27772843Y-33701000D01*
X27808327Y-33879391D01*
X27909377Y-34030623D01*
X27917424Y-34036000D01*
X27909377Y-34041377D01*
X27808327Y-34192609D01*
X27772843Y-34371000D01*
X27772843Y-34971000D01*
X27808327Y-35149391D01*
X27909377Y-35300623D01*
X28060609Y-35401673D01*
X28239000Y-35437157D01*
X29739000Y-35437157D01*
X29917391Y-35401673D01*
X29946534Y-35382200D01*
X31474333Y-35382200D01*
X31482327Y-35422391D01*
X31583377Y-35573623D01*
X31734609Y-35674673D01*
X31913000Y-35710157D01*
X33208000Y-35710157D01*
X33386391Y-35674673D01*
X33537623Y-35573623D01*
X33638673Y-35422391D01*
X33674157Y-35244000D01*
X33674157Y-33844000D01*
X33638673Y-33665609D01*
X33537623Y-33514377D01*
X33386391Y-33413327D01*
X33324419Y-33401000D01*
X33386391Y-33388673D01*
X33528000Y-33294053D01*
X33669609Y-33388673D01*
X33848000Y-33424157D01*
X35143000Y-33424157D01*
X35321391Y-33388673D01*
X35472623Y-33287623D01*
X35515669Y-33223200D01*
X35920866Y-33223200D01*
X35953327Y-33386391D01*
X36047947Y-33528000D01*
X35953327Y-33669609D01*
X35917843Y-33848000D01*
X35917843Y-35143000D01*
X35953327Y-35321391D01*
X36054377Y-35472623D01*
X36205609Y-35573673D01*
X36384000Y-35609157D01*
X37651368Y-35609157D01*
X37896801Y-35854590D01*
X37896800Y-38567411D01*
X37748368Y-38715843D01*
X36384000Y-38715843D01*
X36205609Y-38751327D01*
X36054377Y-38852377D01*
X35953327Y-39003609D01*
X35931353Y-39114081D01*
X35928673Y-39100609D01*
X35827623Y-38949377D01*
X35676391Y-38848327D01*
X35498000Y-38812843D01*
X34098000Y-38812843D01*
X33919609Y-38848327D01*
X33768377Y-38949377D01*
X33667327Y-39100609D01*
X33655000Y-39162581D01*
X33642673Y-39100609D01*
X33541623Y-38949377D01*
X33390391Y-38848327D01*
X33212000Y-38812843D01*
X32404132Y-38812843D01*
X32349446Y-38758157D01*
X33208000Y-38758157D01*
X33386391Y-38722673D01*
X33537623Y-38621623D01*
X33638673Y-38470391D01*
X33674157Y-38292000D01*
X33674157Y-36892000D01*
X33638673Y-36713609D01*
X33537623Y-36562377D01*
X33386391Y-36461327D01*
X33208000Y-36425843D01*
X31913000Y-36425843D01*
X31734609Y-36461327D01*
X31677030Y-36499800D01*
X29946534Y-36499800D01*
X29917391Y-36480327D01*
X29739000Y-36444843D01*
X28239000Y-36444843D01*
X28060609Y-36480327D01*
X28046091Y-36490027D01*
X27996960Y-36499800D01*
X27996956Y-36499800D01*
X27789506Y-36541064D01*
X27789504Y-36541065D01*
X27789505Y-36541065D01*
X27613637Y-36658576D01*
X27613635Y-36658578D01*
X27554256Y-36698254D01*
X27514580Y-36757633D01*
X24805157Y-39467057D01*
X24805157Y-39451000D01*
X24769673Y-39272609D01*
X24668623Y-39121377D01*
X24660576Y-39116000D01*
X24668623Y-39110623D01*
X24769673Y-38959391D01*
X24805157Y-38781000D01*
X24805157Y-38181000D01*
X24769673Y-38002609D01*
X24668623Y-37851377D01*
X24660576Y-37846000D01*
X24668623Y-37840623D01*
X24769673Y-37689391D01*
X24805157Y-37511000D01*
X24805157Y-36911000D01*
X24769673Y-36732609D01*
X24715945Y-36652200D01*
X24776959Y-36652200D01*
X24847000Y-36666132D01*
X24917041Y-36652200D01*
X24917046Y-36652200D01*
X25124496Y-36610936D01*
X25359746Y-36453746D01*
X25399424Y-36394364D01*
X26412180Y-35381609D01*
X26471556Y-35341935D01*
X26511231Y-35282558D01*
X26511235Y-35282554D01*
X26628746Y-35106687D01*
X26628746Y-35106686D01*
X26628747Y-35106685D01*
X26670011Y-34899235D01*
X26670011Y-34899232D01*
X26683943Y-34829190D01*
X26670011Y-34759148D01*
X26670011Y-30630157D01*
X27366000Y-30630157D01*
X27544391Y-30594673D01*
X27695623Y-30493623D01*
X27796673Y-30342391D01*
X27832157Y-30164000D01*
X27832157Y-28764000D01*
X27796673Y-28585609D01*
X27695623Y-28434377D01*
X27605877Y-28374411D01*
X29615089Y-26365200D01*
X30990990Y-26365200D01*
X31313378Y-26687588D01*
X31761486Y-26873200D01*
X32246514Y-26873200D01*
X32694622Y-26687588D01*
X33037588Y-26344622D01*
X33223200Y-25896514D01*
X33223200Y-25411486D01*
X33037588Y-24963378D01*
X32694622Y-24620412D01*
X32246514Y-24434800D01*
X31761486Y-24434800D01*
X31313378Y-24620412D01*
X30990990Y-24942800D01*
X29390542Y-24942800D01*
X29320500Y-24928868D01*
X29250458Y-24942800D01*
X29250454Y-24942800D01*
X29043004Y-24984064D01*
X29031223Y-24991936D01*
X28867135Y-25101576D01*
X28867133Y-25101578D01*
X28807754Y-25141254D01*
X28768078Y-25200633D01*
X26265134Y-27703578D01*
X26205755Y-27743254D01*
X26166079Y-27802633D01*
X26166076Y-27802636D01*
X26048565Y-27978504D01*
X25993368Y-28256000D01*
X26004329Y-28311105D01*
X25892609Y-28333327D01*
X25857200Y-28356987D01*
X25857200Y-23662588D01*
X26107366Y-23412422D01*
X26166745Y-23372746D01*
X26203860Y-23317200D01*
X30941071Y-23317200D01*
X30974327Y-23484391D01*
X31075377Y-23635623D01*
X31226609Y-23736673D01*
X31405000Y-23772157D01*
X32700000Y-23772157D01*
X32878391Y-23736673D01*
X33029623Y-23635623D01*
X33130673Y-23484391D01*
X33166157Y-23306000D01*
X33166157Y-21906000D01*
X33130673Y-21727609D01*
X33029623Y-21576377D01*
X32878391Y-21475327D01*
X32727282Y-21445270D01*
X32948622Y-21353588D01*
X33291588Y-21010622D01*
X33477200Y-20562514D01*
X33477200Y-20077486D01*
X33291588Y-19629378D01*
X32948622Y-19286412D01*
X32500514Y-19100800D01*
X32044589Y-19100800D01*
X31889945Y-18946157D01*
X32700000Y-18946157D01*
X32878391Y-18910673D01*
X33029623Y-18809623D01*
X33130673Y-18658391D01*
X33166157Y-18480000D01*
X33166157Y-17080000D01*
X33130673Y-16901609D01*
X33029623Y-16750377D01*
X32878391Y-16649327D01*
X32700000Y-16613843D01*
X31405000Y-16613843D01*
X31226609Y-16649327D01*
X31075377Y-16750377D01*
X31024848Y-16825999D01*
X26220843Y-16825999D01*
X26150801Y-16812067D01*
X26080759Y-16825999D01*
X26080755Y-16825999D01*
X25873305Y-16867263D01*
X25873303Y-16867264D01*
X25873304Y-16867264D01*
X25697436Y-16984775D01*
X25697434Y-16984777D01*
X25638055Y-17024453D01*
X25598379Y-17083832D01*
X25052369Y-17629843D01*
X24801000Y-17629843D01*
X24622609Y-17665327D01*
X24471377Y-17766377D01*
X24370327Y-17917609D01*
X24338059Y-18079831D01*
X24293000Y-18070868D01*
X24222958Y-18084800D01*
X24222954Y-18084800D01*
X24015504Y-18126064D01*
X24015502Y-18126065D01*
X24015503Y-18126065D01*
X23839635Y-18243576D01*
X23839633Y-18243578D01*
X23780254Y-18283254D01*
X23740578Y-18342633D01*
X20628634Y-21454578D01*
X20569254Y-21494255D01*
X20529578Y-21553634D01*
X20529576Y-21553636D01*
X20514381Y-21576377D01*
X20412064Y-21729505D01*
X20370800Y-21936955D01*
X20370800Y-21936959D01*
X20356868Y-22007000D01*
X20370800Y-22077041D01*
X20370801Y-28062320D01*
X20370800Y-28062325D01*
X20370800Y-28196990D01*
X20048412Y-28519378D01*
X19862800Y-28967486D01*
X19862800Y-29452514D01*
X20048412Y-29900622D01*
X20391378Y-30243588D01*
X20839486Y-30429200D01*
X21324514Y-30429200D01*
X21772622Y-30243588D01*
X22115588Y-29900622D01*
X22301200Y-29452514D01*
X22301200Y-28967486D01*
X22115588Y-28519378D01*
X21793200Y-28196990D01*
X21793200Y-22301588D01*
X24390383Y-19704406D01*
X24462274Y-19812000D01*
X24370327Y-19949609D01*
X24334843Y-20128000D01*
X24334843Y-21528000D01*
X24370327Y-21706391D01*
X24434800Y-21802882D01*
X24434800Y-22281953D01*
X24420867Y-22352000D01*
X24434801Y-22422051D01*
X24434800Y-23297958D01*
X24420868Y-23368000D01*
X24434800Y-23438041D01*
X24434800Y-23438045D01*
X24434801Y-23438050D01*
X24434800Y-31383899D01*
X24339000Y-31364843D01*
X22839000Y-31364843D01*
X22660609Y-31400327D01*
X22631466Y-31419800D01*
X20470157Y-31419800D01*
X20470157Y-31405000D01*
X20434673Y-31226609D01*
X20333623Y-31075377D01*
X20182391Y-30974327D01*
X20004000Y-30938843D01*
X18604000Y-30938843D01*
X18425609Y-30974327D01*
X18274377Y-31075377D01*
X18173327Y-31226609D01*
X18150812Y-31339800D01*
X17803042Y-31339800D01*
X17733000Y-31325868D01*
X17662958Y-31339800D01*
X17662954Y-31339800D01*
X17455504Y-31381064D01*
X17418384Y-31405867D01*
X17279635Y-31498576D01*
X17279633Y-31498578D01*
X17220254Y-31538254D01*
X17180578Y-31597633D01*
X15294634Y-33483578D01*
X15235254Y-33523255D01*
X15195578Y-33582634D01*
X15195576Y-33582636D01*
X15137463Y-33669609D01*
X15078064Y-33758505D01*
X15036800Y-33965955D01*
X15036800Y-33965959D01*
X15022868Y-34036000D01*
X12953200Y-34036000D01*
X12953200Y-12445200D01*
X84582800Y-12445200D01*
X84582801Y-46990800D01*
X84582801Y-46990800D01*
G37*
X84582801Y-46990800D02*
X12953200Y-46990800D01*
X12953200Y-34036000D01*
X15022868Y-34036000D01*
X15036800Y-34106041D01*
X15036801Y-40588796D01*
X15022868Y-40658842D01*
X15078065Y-40936338D01*
X15195576Y-41112206D01*
X15195579Y-41112209D01*
X15235255Y-41171588D01*
X15294634Y-41211264D01*
X17970736Y-43887367D01*
X18010412Y-43946746D01*
X18069791Y-43986422D01*
X18069793Y-43986424D01*
X18245660Y-44103935D01*
X18245661Y-44103935D01*
X18245662Y-44103936D01*
X18453112Y-44145200D01*
X18453115Y-44145200D01*
X18523157Y-44159132D01*
X18593199Y-44145200D01*
X24083071Y-44145200D01*
X24116327Y-44312391D01*
X24217377Y-44463623D01*
X24368609Y-44564673D01*
X24547000Y-44600157D01*
X25842000Y-44600157D01*
X26020391Y-44564673D01*
X26162000Y-44470053D01*
X26303609Y-44564673D01*
X26482000Y-44600157D01*
X27777000Y-44600157D01*
X27955391Y-44564673D01*
X28106623Y-44463623D01*
X28207673Y-44312391D01*
X28243157Y-44134000D01*
X28243157Y-42734000D01*
X28207673Y-42555609D01*
X28106623Y-42404377D01*
X27955391Y-42303327D01*
X27840700Y-42280514D01*
X27840700Y-40277841D01*
X27909377Y-40380623D01*
X28060609Y-40481673D01*
X28239000Y-40517157D01*
X28749369Y-40517157D01*
X30547078Y-42314867D01*
X30586754Y-42374246D01*
X30646133Y-42413922D01*
X30646135Y-42413924D01*
X30718721Y-42462424D01*
X30822004Y-42531436D01*
X31029454Y-42572700D01*
X31029458Y-42572700D01*
X31099500Y-42586632D01*
X31169542Y-42572700D01*
X31358514Y-42572700D01*
X31381327Y-42687391D01*
X31482377Y-42838623D01*
X31633609Y-42939673D01*
X31812000Y-42975157D01*
X33212000Y-42975157D01*
X33390391Y-42939673D01*
X33541623Y-42838623D01*
X33642673Y-42687391D01*
X33655000Y-42625419D01*
X33667327Y-42687391D01*
X33768377Y-42838623D01*
X33919609Y-42939673D01*
X34098000Y-42975157D01*
X35498000Y-42975157D01*
X35676391Y-42939673D01*
X35827623Y-42838623D01*
X35928673Y-42687391D01*
X35964157Y-42509000D01*
X35964157Y-41214000D01*
X35928673Y-41035609D01*
X35834053Y-40894000D01*
X35928673Y-40752391D01*
X35950647Y-40641919D01*
X35953327Y-40655391D01*
X36054377Y-40806623D01*
X36205609Y-40907673D01*
X36384000Y-40943157D01*
X37784000Y-40943157D01*
X37962391Y-40907673D01*
X38113623Y-40806623D01*
X38214673Y-40655391D01*
X38250157Y-40477000D01*
X38250157Y-40225631D01*
X39061369Y-39414420D01*
X39120745Y-39374746D01*
X39160420Y-39315369D01*
X39160424Y-39315365D01*
X39270292Y-39150936D01*
X39277936Y-39139496D01*
X39319200Y-38932046D01*
X39319200Y-38932042D01*
X39333132Y-38862000D01*
X39319200Y-38791958D01*
X39319200Y-35630041D01*
X39333132Y-35559999D01*
X39319200Y-35489955D01*
X39319200Y-35489954D01*
X39277936Y-35282504D01*
X39269002Y-35269133D01*
X39160424Y-35106635D01*
X39160422Y-35106633D01*
X39120746Y-35047254D01*
X39061367Y-35007578D01*
X38250157Y-34196369D01*
X38250157Y-33848000D01*
X38214673Y-33669609D01*
X38120053Y-33528000D01*
X38214673Y-33386391D01*
X38250157Y-33208000D01*
X38250157Y-31913000D01*
X38214673Y-31734609D01*
X38113623Y-31583377D01*
X37962391Y-31482327D01*
X37784000Y-31446843D01*
X36384000Y-31446843D01*
X36205609Y-31482327D01*
X36054377Y-31583377D01*
X35953327Y-31734609D01*
X35940161Y-31800800D01*
X35609157Y-31800800D01*
X35609157Y-31558000D01*
X35573673Y-31379609D01*
X35472623Y-31228377D01*
X35321391Y-31127327D01*
X35259419Y-31115000D01*
X35321391Y-31102673D01*
X35472623Y-31001623D01*
X35573673Y-30850391D01*
X35609157Y-30672000D01*
X35609157Y-29272000D01*
X35573673Y-29093609D01*
X35472623Y-28942377D01*
X35321391Y-28841327D01*
X35143000Y-28805843D01*
X33848000Y-28805843D01*
X33693484Y-28836578D01*
X35352981Y-27177082D01*
X35412357Y-27137408D01*
X35452032Y-27078031D01*
X35452036Y-27078027D01*
X35554953Y-26924000D01*
X35569548Y-26902158D01*
X35610812Y-26694708D01*
X35610812Y-26694704D01*
X35624744Y-26624662D01*
X35610812Y-26554620D01*
X35610812Y-25411486D01*
X35864802Y-25411486D01*
X35864802Y-25896514D01*
X36050414Y-26344622D01*
X36393380Y-26687588D01*
X36841488Y-26873200D01*
X37297413Y-26873200D01*
X37392636Y-26968423D01*
X37392639Y-26968425D01*
X38817580Y-28393367D01*
X38857256Y-28452746D01*
X38916635Y-28492422D01*
X38916637Y-28492424D01*
X39005564Y-28551843D01*
X39092506Y-28609936D01*
X39299956Y-28651200D01*
X39299960Y-28651200D01*
X39370002Y-28665132D01*
X39440044Y-28651200D01*
X46484998Y-28651200D01*
X46807386Y-28973588D01*
X47255494Y-29159200D01*
X47740522Y-29159200D01*
X48188630Y-28973588D01*
X48310801Y-28851417D01*
X48310801Y-29423410D01*
X47711412Y-30022800D01*
X46987024Y-30022800D01*
X46664636Y-29700412D01*
X46216528Y-29514800D01*
X45731500Y-29514800D01*
X45283392Y-29700412D01*
X44940426Y-30043378D01*
X44754814Y-30491486D01*
X44754814Y-30938843D01*
X43496000Y-30938843D01*
X43317609Y-30974327D01*
X43166377Y-31075377D01*
X43065327Y-31226609D01*
X43042514Y-31341300D01*
X42185541Y-31341300D01*
X42115499Y-31327368D01*
X42045457Y-31341300D01*
X42045454Y-31341300D01*
X41838004Y-31382564D01*
X41838003Y-31382565D01*
X41838002Y-31382565D01*
X41662135Y-31500076D01*
X41662133Y-31500078D01*
X41602754Y-31539754D01*
X41563078Y-31599133D01*
X39932634Y-33229578D01*
X39873254Y-33269255D01*
X39833578Y-33328634D01*
X39833576Y-33328636D01*
X39775463Y-33415609D01*
X39716064Y-33504505D01*
X39674800Y-33711955D01*
X39674800Y-33711959D01*
X39660868Y-33782000D01*
X39674800Y-33852041D01*
X39674801Y-40823954D01*
X39660868Y-40894000D01*
X39716065Y-41171496D01*
X39833576Y-41347364D01*
X39833579Y-41347367D01*
X39873255Y-41406746D01*
X39932634Y-41446422D01*
X42627578Y-44141367D01*
X42667254Y-44200746D01*
X42726633Y-44240422D01*
X42726635Y-44240424D01*
X42842336Y-44317733D01*
X42902504Y-44357936D01*
X43109954Y-44399200D01*
X43109958Y-44399200D01*
X43180000Y-44413132D01*
X43250042Y-44399200D01*
X49574331Y-44399200D01*
X49617377Y-44463623D01*
X49768609Y-44564673D01*
X49947000Y-44600157D01*
X51242000Y-44600157D01*
X51420391Y-44564673D01*
X51562000Y-44470053D01*
X51703609Y-44564673D01*
X51882000Y-44600157D01*
X53177000Y-44600157D01*
X53355391Y-44564673D01*
X53506623Y-44463623D01*
X53607673Y-44312391D01*
X53643157Y-44134000D01*
X53643157Y-42734000D01*
X53607673Y-42555609D01*
X53506623Y-42404377D01*
X53355391Y-42303327D01*
X53289200Y-42290161D01*
X53289200Y-40898157D01*
X54758000Y-40898157D01*
X54936391Y-40862673D01*
X54965534Y-40843200D01*
X54997412Y-40843200D01*
X56237843Y-42083632D01*
X56237843Y-42509000D01*
X56273327Y-42687391D01*
X56374377Y-42838623D01*
X56525609Y-42939673D01*
X56704000Y-42975157D01*
X58104000Y-42975157D01*
X58282391Y-42939673D01*
X58420000Y-42847726D01*
X58557609Y-42939673D01*
X58736000Y-42975157D01*
X60136000Y-42975157D01*
X60314391Y-42939673D01*
X60465623Y-42838623D01*
X60566673Y-42687391D01*
X60602157Y-42509000D01*
X60602157Y-41214000D01*
X60566673Y-41035609D01*
X60472053Y-40894000D01*
X60566673Y-40752391D01*
X60589486Y-40637700D01*
X62178801Y-40637700D01*
X62248842Y-40651632D01*
X62318883Y-40637700D01*
X62318888Y-40637700D01*
X62526338Y-40596436D01*
X62761588Y-40439246D01*
X62801266Y-40379864D01*
X63699369Y-39481762D01*
X63758745Y-39442088D01*
X63798420Y-39382711D01*
X63798424Y-39382707D01*
X63915935Y-39206840D01*
X63915935Y-39206839D01*
X63915936Y-39206838D01*
X63957200Y-38999388D01*
X63957200Y-38999385D01*
X63971132Y-38929343D01*
X63957200Y-38859301D01*
X63957200Y-36962041D01*
X63971132Y-36891999D01*
X63957200Y-36821957D01*
X63957200Y-36821954D01*
X63915936Y-36614504D01*
X63913552Y-36610936D01*
X63798424Y-36438635D01*
X63798422Y-36438633D01*
X63758746Y-36379254D01*
X63699366Y-36339578D01*
X63276924Y-35917136D01*
X63237246Y-35857754D01*
X63001996Y-35700564D01*
X62794546Y-35659300D01*
X62794541Y-35659300D01*
X62724500Y-35645368D01*
X62669395Y-35656329D01*
X62647173Y-35544609D01*
X62546123Y-35393377D01*
X62394891Y-35292327D01*
X62389055Y-35291166D01*
X62497623Y-35218623D01*
X62598673Y-35067391D01*
X62634157Y-34889000D01*
X62634157Y-33594000D01*
X62598673Y-33415609D01*
X62504053Y-33274000D01*
X62598673Y-33132391D01*
X62634157Y-32954000D01*
X62634157Y-31659000D01*
X62598673Y-31480609D01*
X62497623Y-31329377D01*
X62346391Y-31228327D01*
X62168000Y-31192843D01*
X60768000Y-31192843D01*
X60589609Y-31228327D01*
X60498247Y-31289373D01*
X60465673Y-31125609D01*
X60364623Y-30974377D01*
X60213391Y-30873327D01*
X60098700Y-30850514D01*
X60098700Y-30550042D01*
X60112632Y-30480000D01*
X60098700Y-30409958D01*
X60098700Y-30409954D01*
X60057436Y-30202504D01*
X59992381Y-30105143D01*
X59939924Y-30026635D01*
X59939922Y-30026633D01*
X59900246Y-29967254D01*
X59840867Y-29927578D01*
X59739157Y-29825868D01*
X59739157Y-29018000D01*
X59703673Y-28839609D01*
X59602623Y-28688377D01*
X59451391Y-28587327D01*
X59273000Y-28551843D01*
X57978000Y-28551843D01*
X57799609Y-28587327D01*
X57658000Y-28681947D01*
X57516391Y-28587327D01*
X57401700Y-28564514D01*
X57401700Y-28312542D01*
X57415632Y-28242500D01*
X57401700Y-28172458D01*
X57401700Y-28172454D01*
X57360436Y-27965004D01*
X57314045Y-27895576D01*
X57242924Y-27789135D01*
X57242920Y-27789131D01*
X57203245Y-27729754D01*
X57143869Y-27690080D01*
X55836513Y-26382725D01*
X55829200Y-26345958D01*
X55829200Y-26345954D01*
X55787936Y-26138504D01*
X55719482Y-26036056D01*
X55670424Y-25962635D01*
X55670420Y-25962631D01*
X55630745Y-25903254D01*
X55571369Y-25863580D01*
X52019200Y-22311412D01*
X52019200Y-21333010D01*
X52341588Y-21010622D01*
X52527200Y-20562514D01*
X52527200Y-20077486D01*
X53898800Y-20077486D01*
X53898800Y-20562514D01*
X54084412Y-21010622D01*
X54406800Y-21333010D01*
X54406801Y-21970161D01*
X54340609Y-21983327D01*
X54189377Y-22084377D01*
X54088327Y-22235609D01*
X54052843Y-22414000D01*
X54052843Y-23814000D01*
X54088327Y-23992391D01*
X54189377Y-24143623D01*
X54340609Y-24244673D01*
X54519000Y-24280157D01*
X55814000Y-24280157D01*
X55992391Y-24244673D01*
X56134000Y-24150053D01*
X56275609Y-24244673D01*
X56454000Y-24280157D01*
X57749000Y-24280157D01*
X57927391Y-24244673D01*
X58039000Y-24170098D01*
X58150609Y-24244673D01*
X58265300Y-24267486D01*
X58265300Y-24392045D01*
X58265301Y-24392049D01*
X58265300Y-24839899D01*
X57900514Y-24688800D01*
X57415486Y-24688800D01*
X56967378Y-24874412D01*
X56624412Y-25217378D01*
X56438800Y-25665486D01*
X56438800Y-26150514D01*
X56624412Y-26598622D01*
X56967378Y-26941588D01*
X57415486Y-27127200D01*
X57900514Y-27127200D01*
X58348622Y-26941588D01*
X58398211Y-26891999D01*
X63201578Y-31695367D01*
X63241254Y-31754746D01*
X63300633Y-31794422D01*
X63300635Y-31794424D01*
X63476502Y-31911935D01*
X63476503Y-31911935D01*
X63476504Y-31911936D01*
X63683954Y-31953200D01*
X63683957Y-31953200D01*
X63753999Y-31967132D01*
X63824041Y-31953200D01*
X63833924Y-31953200D01*
X65354090Y-33473367D01*
X65393766Y-33532746D01*
X65453145Y-33572422D01*
X65453147Y-33572424D01*
X65524447Y-33620065D01*
X65629016Y-33689936D01*
X65836466Y-33731200D01*
X65836470Y-33731200D01*
X65906512Y-33745132D01*
X65947203Y-33737038D01*
X65967609Y-33750673D01*
X66146000Y-33786157D01*
X67646000Y-33786157D01*
X67824391Y-33750673D01*
X67853534Y-33731200D01*
X67859412Y-33731200D01*
X67917300Y-33789089D01*
X67917300Y-34891407D01*
X67824391Y-34829327D01*
X67646000Y-34793843D01*
X66146000Y-34793843D01*
X65967609Y-34829327D01*
X65816377Y-34930377D01*
X65715327Y-35081609D01*
X65679843Y-35260000D01*
X65679843Y-35860000D01*
X65715327Y-36038391D01*
X65816377Y-36189623D01*
X65824424Y-36195000D01*
X65816377Y-36200377D01*
X65715327Y-36351609D01*
X65679843Y-36530000D01*
X65679843Y-37130000D01*
X65715327Y-37308391D01*
X65816377Y-37459623D01*
X65967609Y-37560673D01*
X66146000Y-37596157D01*
X67646000Y-37596157D01*
X67824391Y-37560673D01*
X67917301Y-37498593D01*
X67917301Y-37583950D01*
X67917300Y-37583955D01*
X67917300Y-37708514D01*
X67802609Y-37731327D01*
X67651377Y-37832377D01*
X67550327Y-37983609D01*
X67514843Y-38162000D01*
X67514843Y-39562000D01*
X67550327Y-39740391D01*
X67651377Y-39891623D01*
X67802609Y-39992673D01*
X67981000Y-40028157D01*
X68010790Y-40028157D01*
X68076076Y-40125864D01*
X68076078Y-40125866D01*
X68115754Y-40185245D01*
X68175133Y-40224921D01*
X68535578Y-40585367D01*
X68575254Y-40644746D01*
X68634632Y-40684421D01*
X68634635Y-40684424D01*
X68810502Y-40801935D01*
X69087999Y-40857132D01*
X69088000Y-40857132D01*
X69214343Y-40832001D01*
X74454158Y-40832001D01*
X74524199Y-40845933D01*
X74594240Y-40832001D01*
X74594245Y-40832001D01*
X74801695Y-40790737D01*
X75036945Y-40633547D01*
X75076623Y-40574165D01*
X75891367Y-39759422D01*
X75950746Y-39719746D01*
X75990422Y-39660367D01*
X75990424Y-39660365D01*
X76076238Y-39531935D01*
X76107936Y-39484496D01*
X76149200Y-39277046D01*
X76149200Y-39277042D01*
X76163132Y-39207000D01*
X76154169Y-39161941D01*
X76316391Y-39129673D01*
X76467623Y-39028623D01*
X76568673Y-38877391D01*
X76591486Y-38762700D01*
X77835945Y-38762700D01*
X77905986Y-38776632D01*
X77976027Y-38762700D01*
X77976032Y-38762700D01*
X78183482Y-38721436D01*
X78418732Y-38564246D01*
X78458410Y-38504864D01*
X81530179Y-35433096D01*
X81589555Y-35393422D01*
X81629230Y-35334045D01*
X81629234Y-35334041D01*
X81746745Y-35158174D01*
X81746745Y-35158173D01*
X81746746Y-35158172D01*
X81788010Y-34950722D01*
X81788010Y-34950719D01*
X81801942Y-34880677D01*
X81788010Y-34810635D01*
X81788010Y-23996852D01*
X81801942Y-23926810D01*
X81788010Y-23856768D01*
X81788010Y-23856764D01*
X81746746Y-23649314D01*
X81698812Y-23577576D01*
X81629234Y-23473445D01*
X81629232Y-23473443D01*
X81589556Y-23414064D01*
X81530177Y-23374388D01*
X78022423Y-19866635D01*
X77982746Y-19807254D01*
X77747496Y-19650064D01*
X77540046Y-19608800D01*
X77540041Y-19608800D01*
X77470000Y-19594868D01*
X77399959Y-19608800D01*
X75181010Y-19608800D01*
X74858622Y-19286412D01*
X74410514Y-19100800D01*
X73925486Y-19100800D01*
X73477378Y-19286412D01*
X73134412Y-19629378D01*
X72948800Y-20077486D01*
X72948800Y-20562514D01*
X73134412Y-21010622D01*
X73477378Y-21353588D01*
X73925486Y-21539200D01*
X74410514Y-21539200D01*
X74858622Y-21353588D01*
X75181010Y-21031200D01*
X77175412Y-21031200D01*
X80365611Y-24221400D01*
X80365610Y-30102534D01*
X80360746Y-30095254D01*
X80125496Y-29938064D01*
X79918046Y-29896800D01*
X79918041Y-29896800D01*
X79848000Y-29882868D01*
X79777959Y-29896800D01*
X79715342Y-29896800D01*
X79669623Y-29828377D01*
X79518391Y-29727327D01*
X79340000Y-29691843D01*
X78140000Y-29691843D01*
X77961609Y-29727327D01*
X77810377Y-29828377D01*
X77709327Y-29979609D01*
X77691089Y-30071300D01*
X77353486Y-30071300D01*
X77330673Y-29956609D01*
X77229623Y-29805377D01*
X77078391Y-29704327D01*
X76900000Y-29668843D01*
X75500000Y-29668843D01*
X75321609Y-29704327D01*
X75170377Y-29805377D01*
X75069327Y-29956609D01*
X75046514Y-30071300D01*
X74970588Y-30071300D01*
X74925923Y-30026635D01*
X74886246Y-29967254D01*
X74650996Y-29810064D01*
X74443546Y-29768800D01*
X74443541Y-29768800D01*
X74373500Y-29754868D01*
X74303459Y-29768800D01*
X73422945Y-29768800D01*
X73476673Y-29688391D01*
X73512157Y-29510000D01*
X73512157Y-29159200D01*
X74883071Y-29159200D01*
X74916327Y-29326391D01*
X75017377Y-29477623D01*
X75168609Y-29578673D01*
X75347000Y-29614157D01*
X76642000Y-29614157D01*
X76820391Y-29578673D01*
X76962000Y-29484053D01*
X77103609Y-29578673D01*
X77282000Y-29614157D01*
X78577000Y-29614157D01*
X78755391Y-29578673D01*
X78906623Y-29477623D01*
X79007673Y-29326391D01*
X79043157Y-29148000D01*
X79043157Y-27748000D01*
X79007673Y-27569609D01*
X78906623Y-27418377D01*
X78755391Y-27317327D01*
X78640700Y-27294514D01*
X78640700Y-27022754D01*
X78654632Y-26952712D01*
X78640700Y-26882670D01*
X78640700Y-26882666D01*
X78599436Y-26675216D01*
X78514967Y-26548800D01*
X78481924Y-26499347D01*
X78481922Y-26499345D01*
X78442246Y-26439966D01*
X78382867Y-26400290D01*
X75471212Y-23488636D01*
X75431534Y-23429254D01*
X75196284Y-23272064D01*
X74988834Y-23230800D01*
X74988829Y-23230800D01*
X74918788Y-23216868D01*
X74848747Y-23230800D01*
X73927933Y-23230800D01*
X73915623Y-23212377D01*
X73764391Y-23111327D01*
X73586000Y-23075843D01*
X72686000Y-23075843D01*
X72507609Y-23111327D01*
X72356377Y-23212377D01*
X72255327Y-23363609D01*
X72219843Y-23542000D01*
X72219843Y-24342000D01*
X72255327Y-24520391D01*
X72356377Y-24671623D01*
X72507609Y-24772673D01*
X72686000Y-24808157D01*
X73586000Y-24808157D01*
X73764391Y-24772673D01*
X73915623Y-24671623D01*
X73927933Y-24653200D01*
X74624200Y-24653200D01*
X77218301Y-27247302D01*
X77218301Y-27294514D01*
X77103609Y-27317327D01*
X76962000Y-27411947D01*
X76820391Y-27317327D01*
X76642000Y-27281843D01*
X75347000Y-27281843D01*
X75168609Y-27317327D01*
X75017377Y-27418377D01*
X74916327Y-27569609D01*
X74883071Y-27736800D01*
X73128042Y-27736800D01*
X73058000Y-27722868D01*
X72987958Y-27736800D01*
X72987954Y-27736800D01*
X72780504Y-27778064D01*
X72743730Y-27802636D01*
X72604635Y-27895576D01*
X72604633Y-27895578D01*
X72545254Y-27935254D01*
X72505578Y-27994633D01*
X72056369Y-28443843D01*
X71546000Y-28443843D01*
X71367609Y-28479327D01*
X71338466Y-28498800D01*
X70652589Y-28498800D01*
X68420008Y-26266220D01*
X68420008Y-26005657D01*
X69788000Y-26005657D01*
X69966391Y-25970173D01*
X70117623Y-25869123D01*
X70218673Y-25717891D01*
X70241486Y-25603200D01*
X70344067Y-25603200D01*
X70356377Y-25621623D01*
X70507609Y-25722673D01*
X70686000Y-25758157D01*
X71586000Y-25758157D01*
X71764391Y-25722673D01*
X71915623Y-25621623D01*
X72016673Y-25470391D01*
X72052157Y-25292000D01*
X72052157Y-24492000D01*
X72016673Y-24313609D01*
X71915623Y-24162377D01*
X71764391Y-24061327D01*
X71586000Y-24025843D01*
X70686000Y-24025843D01*
X70507609Y-24061327D01*
X70356377Y-24162377D01*
X70344067Y-24180800D01*
X70241486Y-24180800D01*
X70218673Y-24066109D01*
X70124053Y-23924500D01*
X70218673Y-23782891D01*
X70254157Y-23604500D01*
X70254157Y-22309500D01*
X70218673Y-22131109D01*
X70117623Y-21979877D01*
X69966391Y-21878827D01*
X69799200Y-21845571D01*
X69799200Y-21333010D01*
X70121588Y-21010622D01*
X70307200Y-20562514D01*
X70307200Y-20077486D01*
X70121588Y-19629378D01*
X69778622Y-19286412D01*
X69330514Y-19100800D01*
X68845486Y-19100800D01*
X68397378Y-19286412D01*
X68054412Y-19629378D01*
X67868800Y-20077486D01*
X67868800Y-20562514D01*
X67920063Y-20686274D01*
X67767200Y-20533411D01*
X67767200Y-20077486D01*
X67581588Y-19629378D01*
X67429249Y-19477039D01*
X67960132Y-18946157D01*
X68768000Y-18946157D01*
X68946391Y-18910673D01*
X69097623Y-18809623D01*
X69198673Y-18658391D01*
X69234157Y-18480000D01*
X69234157Y-17080000D01*
X69198673Y-16901609D01*
X69097623Y-16750377D01*
X68946391Y-16649327D01*
X68768000Y-16613843D01*
X67473000Y-16613843D01*
X67294609Y-16649327D01*
X67143377Y-16750377D01*
X67042327Y-16901609D01*
X67006843Y-17080000D01*
X67006843Y-17887868D01*
X66094634Y-18800078D01*
X66035255Y-18839754D01*
X65995579Y-18899133D01*
X65995576Y-18899136D01*
X65878065Y-19075004D01*
X65830709Y-19313081D01*
X65514412Y-19629378D01*
X65328800Y-20077486D01*
X65328800Y-20562514D01*
X65514412Y-21010622D01*
X65857378Y-21353588D01*
X66305486Y-21539200D01*
X66761411Y-21539200D01*
X66997608Y-21775397D01*
X66997609Y-26490762D01*
X66983676Y-26560808D01*
X67038873Y-26838304D01*
X67156384Y-27014172D01*
X67156387Y-27014175D01*
X67196063Y-27073554D01*
X67255442Y-27113230D01*
X69805578Y-29663367D01*
X69845254Y-29722746D01*
X69904633Y-29762422D01*
X69904635Y-29762424D01*
X70080502Y-29879935D01*
X70080503Y-29879935D01*
X70080504Y-29879936D01*
X70287954Y-29921200D01*
X70287957Y-29921200D01*
X70357999Y-29935132D01*
X70428041Y-29921200D01*
X71169055Y-29921200D01*
X71115327Y-30001609D01*
X71079843Y-30180000D01*
X71079843Y-30780000D01*
X71115327Y-30958391D01*
X71169055Y-31038800D01*
X68022945Y-31038800D01*
X68076673Y-30958391D01*
X68112157Y-30780000D01*
X68112157Y-30180000D01*
X68076673Y-30001609D01*
X67975623Y-29850377D01*
X67967576Y-29845000D01*
X67975623Y-29839623D01*
X68076673Y-29688391D01*
X68112157Y-29510000D01*
X68112157Y-28910000D01*
X68076673Y-28731609D01*
X67975623Y-28580377D01*
X67824391Y-28479327D01*
X67646000Y-28443843D01*
X67607200Y-28443843D01*
X67607200Y-28358041D01*
X67621132Y-28288000D01*
X67607200Y-28217958D01*
X67607200Y-28217954D01*
X67565936Y-28010504D01*
X67535534Y-27965005D01*
X67448424Y-27834635D01*
X67448420Y-27834631D01*
X67408745Y-27775254D01*
X67349369Y-27735580D01*
X63449200Y-23835412D01*
X63449200Y-21333010D01*
X63771588Y-21010622D01*
X63957200Y-20562514D01*
X63957200Y-20077486D01*
X63771588Y-19629378D01*
X63428622Y-19286412D01*
X62980514Y-19100800D01*
X62495486Y-19100800D01*
X62047378Y-19286412D01*
X61704412Y-19629378D01*
X61518800Y-20077486D01*
X61518800Y-20562514D01*
X61704412Y-21010622D01*
X62026800Y-21333010D01*
X62026801Y-24059954D01*
X62012868Y-24130000D01*
X62068065Y-24407496D01*
X62185576Y-24583364D01*
X62185579Y-24583367D01*
X62225255Y-24642746D01*
X62284634Y-24682422D01*
X66062636Y-28460425D01*
X65967609Y-28479327D01*
X65816377Y-28580377D01*
X65715327Y-28731609D01*
X65679843Y-28910000D01*
X65679843Y-29510000D01*
X65715327Y-29688391D01*
X65816377Y-29839623D01*
X65824424Y-29845000D01*
X65816377Y-29850377D01*
X65715327Y-30001609D01*
X65679843Y-30180000D01*
X65679843Y-30638054D01*
X64814423Y-29772635D01*
X64774746Y-29713254D01*
X64539496Y-29556064D01*
X64332046Y-29514800D01*
X64332041Y-29514800D01*
X64262000Y-29500868D01*
X64191959Y-29514800D01*
X64182077Y-29514800D01*
X59687700Y-25020424D01*
X59687700Y-24267486D01*
X59802391Y-24244673D01*
X59953623Y-24143623D01*
X60054673Y-23992391D01*
X60090157Y-23814000D01*
X60090157Y-22414000D01*
X60054673Y-22235609D01*
X59953623Y-22084377D01*
X59802391Y-21983327D01*
X59624000Y-21947843D01*
X58329000Y-21947843D01*
X58150609Y-21983327D01*
X58039000Y-22057902D01*
X57927391Y-21983327D01*
X57749000Y-21947843D01*
X56454000Y-21947843D01*
X56275609Y-21983327D01*
X56134000Y-22077947D01*
X55992391Y-21983327D01*
X55829200Y-21950866D01*
X55829200Y-21333010D01*
X56151588Y-21010622D01*
X56337200Y-20562514D01*
X56337200Y-20077486D01*
X56151588Y-19629378D01*
X55808622Y-19286412D01*
X55360514Y-19100800D01*
X54875486Y-19100800D01*
X54427378Y-19286412D01*
X54084412Y-19629378D01*
X53898800Y-20077486D01*
X52527200Y-20077486D01*
X52341588Y-19629378D01*
X51998622Y-19286412D01*
X51550514Y-19100800D01*
X51065486Y-19100800D01*
X50617378Y-19286412D01*
X50274412Y-19629378D01*
X50088800Y-20077486D01*
X50088800Y-20562514D01*
X50274412Y-21010622D01*
X50596800Y-21333010D01*
X50596801Y-22535954D01*
X50582868Y-22606000D01*
X50638065Y-22883496D01*
X50755576Y-23059364D01*
X50755579Y-23059367D01*
X50795255Y-23118746D01*
X50854634Y-23158422D01*
X54399487Y-26703276D01*
X54406800Y-26740041D01*
X54406800Y-26740046D01*
X54448064Y-26947496D01*
X54492616Y-27014172D01*
X54565576Y-27123364D01*
X54565578Y-27123366D01*
X54605255Y-27182746D01*
X54664634Y-27222422D01*
X55979300Y-28537089D01*
X55979300Y-28564514D01*
X55864609Y-28587327D01*
X55713377Y-28688377D01*
X55612327Y-28839609D01*
X55576843Y-29018000D01*
X55576843Y-30418000D01*
X55605026Y-30559685D01*
X54418869Y-31745843D01*
X54308362Y-31745843D01*
X54285496Y-31730564D01*
X54008000Y-31675367D01*
X53730505Y-31730564D01*
X53707639Y-31745843D01*
X53258000Y-31745843D01*
X53079609Y-31781327D01*
X52928377Y-31882377D01*
X52827327Y-32033609D01*
X52791843Y-32212000D01*
X52791843Y-32812000D01*
X52827327Y-32990391D01*
X52928377Y-33141623D01*
X52936424Y-33147000D01*
X52928377Y-33152377D01*
X52827327Y-33303609D01*
X52791843Y-33482000D01*
X52791843Y-34082000D01*
X52827327Y-34260391D01*
X52928377Y-34411623D01*
X52936424Y-34417000D01*
X52928377Y-34422377D01*
X52827327Y-34573609D01*
X52791843Y-34752000D01*
X52791843Y-35352000D01*
X52827327Y-35530391D01*
X52928377Y-35681623D01*
X53079609Y-35782673D01*
X53258000Y-35818157D01*
X54758000Y-35818157D01*
X54936391Y-35782673D01*
X54965534Y-35763200D01*
X55402959Y-35763200D01*
X55473000Y-35777132D01*
X55543041Y-35763200D01*
X55543046Y-35763200D01*
X55750496Y-35721936D01*
X55985746Y-35564746D01*
X56025424Y-35505364D01*
X56372348Y-35158440D01*
X56374327Y-35168391D01*
X56475377Y-35319623D01*
X56626609Y-35420673D01*
X56805000Y-35456157D01*
X58100000Y-35456157D01*
X58278391Y-35420673D01*
X58429623Y-35319623D01*
X58530673Y-35168391D01*
X58566157Y-34990000D01*
X58566157Y-33590000D01*
X58530673Y-33411609D01*
X58429623Y-33260377D01*
X58278391Y-33159327D01*
X58216419Y-33147000D01*
X58278391Y-33134673D01*
X58420000Y-33040053D01*
X58561609Y-33134673D01*
X58740000Y-33170157D01*
X60035000Y-33170157D01*
X60213391Y-33134673D01*
X60323188Y-33061309D01*
X60337327Y-33132391D01*
X60431947Y-33274000D01*
X60337327Y-33415609D01*
X60301843Y-33594000D01*
X60301843Y-34889000D01*
X60337327Y-35067391D01*
X60438377Y-35218623D01*
X60589609Y-35319673D01*
X60595445Y-35320834D01*
X60486877Y-35393377D01*
X60385827Y-35544609D01*
X60350343Y-35723000D01*
X60350343Y-37018000D01*
X60385827Y-37196391D01*
X60486877Y-37347623D01*
X60638109Y-37448673D01*
X60816500Y-37484157D01*
X62216500Y-37484157D01*
X62394891Y-37448673D01*
X62534801Y-37355188D01*
X62534800Y-38634753D01*
X61954254Y-39215300D01*
X60589486Y-39215300D01*
X60566673Y-39100609D01*
X60465623Y-38949377D01*
X60314391Y-38848327D01*
X60136000Y-38812843D01*
X58736000Y-38812843D01*
X58557609Y-38848327D01*
X58420000Y-38940274D01*
X58282391Y-38848327D01*
X58104000Y-38812843D01*
X57296131Y-38812843D01*
X56987445Y-38504157D01*
X58100000Y-38504157D01*
X58278391Y-38468673D01*
X58429623Y-38367623D01*
X58530673Y-38216391D01*
X58566157Y-38038000D01*
X58566157Y-36638000D01*
X58530673Y-36459609D01*
X58429623Y-36308377D01*
X58278391Y-36207327D01*
X58100000Y-36171843D01*
X56805000Y-36171843D01*
X56626609Y-36207327D01*
X56475377Y-36308377D01*
X56374327Y-36459609D01*
X56338843Y-36638000D01*
X56338843Y-36880800D01*
X54965534Y-36880800D01*
X54936391Y-36861327D01*
X54758000Y-36825843D01*
X53258000Y-36825843D01*
X53079609Y-36861327D01*
X53050466Y-36880800D01*
X52820041Y-36880800D01*
X52749999Y-36866868D01*
X52679957Y-36880800D01*
X52679954Y-36880800D01*
X52472504Y-36922064D01*
X52472503Y-36922065D01*
X52472502Y-36922065D01*
X52296635Y-37039576D01*
X52296633Y-37039578D01*
X52237254Y-37079254D01*
X52197578Y-37138633D01*
X50600634Y-38735578D01*
X50541255Y-38775254D01*
X50501579Y-38834633D01*
X50501576Y-38834636D01*
X50384065Y-39010504D01*
X50328868Y-39288000D01*
X50342801Y-39358046D01*
X50342800Y-40853412D01*
X50251412Y-40944800D01*
X49854041Y-40944800D01*
X49783999Y-40930868D01*
X49713957Y-40944800D01*
X49713954Y-40944800D01*
X49506504Y-40986064D01*
X49506503Y-40986065D01*
X49506502Y-40986065D01*
X49435770Y-41033327D01*
X49271254Y-41143254D01*
X49231576Y-41202636D01*
X48981412Y-41452800D01*
X47290929Y-41452800D01*
X47257673Y-41285609D01*
X47156623Y-41134377D01*
X47005391Y-41033327D01*
X46827000Y-40997843D01*
X45532000Y-40997843D01*
X45353609Y-41033327D01*
X45212000Y-41127947D01*
X45070391Y-41033327D01*
X44955700Y-41010514D01*
X44955700Y-40677282D01*
X45074391Y-40653673D01*
X45225623Y-40552623D01*
X45285589Y-40462878D01*
X45408078Y-40585366D01*
X45447754Y-40644746D01*
X45507133Y-40684422D01*
X45507135Y-40684424D01*
X45608855Y-40752391D01*
X45683004Y-40801936D01*
X45890454Y-40843200D01*
X45890458Y-40843200D01*
X45960500Y-40857132D01*
X46030542Y-40843200D01*
X47650466Y-40843200D01*
X47679609Y-40862673D01*
X47858000Y-40898157D01*
X49358000Y-40898157D01*
X49536391Y-40862673D01*
X49687623Y-40761623D01*
X49788673Y-40610391D01*
X49824157Y-40432000D01*
X49824157Y-39832000D01*
X49788673Y-39653609D01*
X49687623Y-39502377D01*
X49679576Y-39497000D01*
X49687623Y-39491623D01*
X49788673Y-39340391D01*
X49824157Y-39162000D01*
X49824157Y-38562000D01*
X49788673Y-38383609D01*
X49687623Y-38232377D01*
X49679576Y-38227000D01*
X49687623Y-38221623D01*
X49788673Y-38070391D01*
X49824157Y-37892000D01*
X49824157Y-37292000D01*
X49788673Y-37113609D01*
X49719120Y-37009515D01*
X49807496Y-36991936D01*
X50042746Y-36834746D01*
X50082424Y-36775364D01*
X51761369Y-35096420D01*
X51820745Y-35056746D01*
X51860420Y-34997369D01*
X51860424Y-34997365D01*
X51963952Y-34842424D01*
X51977936Y-34821496D01*
X52019200Y-34614046D01*
X52019200Y-34614042D01*
X52033132Y-34544000D01*
X52019200Y-34473958D01*
X52019200Y-31138157D01*
X52258000Y-31138157D01*
X52436391Y-31102673D01*
X52587623Y-31001623D01*
X52688673Y-30850391D01*
X52724157Y-30672000D01*
X52724157Y-29272000D01*
X52688673Y-29093609D01*
X52587623Y-28942377D01*
X52557776Y-28922434D01*
X52849588Y-28630622D01*
X53035200Y-28182514D01*
X53035200Y-27697486D01*
X52849588Y-27249378D01*
X52527200Y-26926990D01*
X52527200Y-26921024D01*
X52737897Y-26710327D01*
X52923509Y-26262219D01*
X52923509Y-25777191D01*
X52737897Y-25329083D01*
X52394931Y-24986117D01*
X51946823Y-24800505D01*
X51461795Y-24800505D01*
X51013687Y-24986117D01*
X50670721Y-25329083D01*
X50485109Y-25777191D01*
X50485109Y-26119208D01*
X50469225Y-26095436D01*
X50469221Y-26095432D01*
X50429546Y-26036055D01*
X50370170Y-25996381D01*
X47039157Y-22665369D01*
X47039157Y-22414000D01*
X47003673Y-22235609D01*
X46902623Y-22084377D01*
X46751391Y-21983327D01*
X46636700Y-21960514D01*
X46636700Y-21470364D01*
X46918622Y-21353588D01*
X47261588Y-21010622D01*
X47447200Y-20562514D01*
X47447200Y-20077486D01*
X47261588Y-19629378D01*
X46918622Y-19286412D01*
X46470514Y-19100800D01*
X45985486Y-19100800D01*
X45537378Y-19286412D01*
X45194412Y-19629378D01*
X45008800Y-20077486D01*
X45008800Y-20562514D01*
X45194412Y-21010622D01*
X45214301Y-21030511D01*
X45214300Y-21960514D01*
X45099609Y-21983327D01*
X44958000Y-22077947D01*
X44816391Y-21983327D01*
X44638000Y-21947843D01*
X44399200Y-21947843D01*
X44399200Y-21333010D01*
X44721588Y-21010622D01*
X44907200Y-20562514D01*
X44907200Y-20077486D01*
X44721588Y-19629378D01*
X44378622Y-19286412D01*
X43930514Y-19100800D01*
X43445486Y-19100800D01*
X42997378Y-19286412D01*
X42654412Y-19629378D01*
X42468800Y-20077486D01*
X42468800Y-20562514D01*
X42654412Y-21010622D01*
X42976800Y-21333010D01*
X42976801Y-22139117D01*
X42912327Y-22235609D01*
X42876843Y-22414000D01*
X42876843Y-23814000D01*
X42912327Y-23992391D01*
X43013377Y-24143623D01*
X43164609Y-24244673D01*
X43276329Y-24266895D01*
X43265368Y-24322000D01*
X43320565Y-24599496D01*
X43438076Y-24775364D01*
X43438079Y-24775367D01*
X43477755Y-24834746D01*
X43537134Y-24874422D01*
X44008078Y-25345366D01*
X44047754Y-25404746D01*
X44107133Y-25444422D01*
X44107135Y-25444424D01*
X44222836Y-25521733D01*
X44283004Y-25561936D01*
X44490454Y-25603200D01*
X44490458Y-25603200D01*
X44560500Y-25617132D01*
X44630542Y-25603200D01*
X46695412Y-25603200D01*
X47864269Y-26772058D01*
X47740522Y-26720800D01*
X47255494Y-26720800D01*
X46807386Y-26906412D01*
X46484998Y-27228800D01*
X39664591Y-27228800D01*
X38398427Y-25962637D01*
X38398425Y-25962634D01*
X38303202Y-25867411D01*
X38303202Y-25411486D01*
X38117590Y-24963378D01*
X37774624Y-24620412D01*
X37326516Y-24434800D01*
X36841488Y-24434800D01*
X36393380Y-24620412D01*
X36050414Y-24963378D01*
X35864802Y-25411486D01*
X35610812Y-25411486D01*
X35610812Y-24130606D01*
X37791369Y-21950050D01*
X37850745Y-21910376D01*
X37890420Y-21850999D01*
X37890424Y-21850995D01*
X38007935Y-21675128D01*
X38007935Y-21675127D01*
X38007936Y-21675126D01*
X38049200Y-21467676D01*
X38049200Y-21467673D01*
X38063132Y-21397631D01*
X38050099Y-21332111D01*
X38371588Y-21010622D01*
X38557200Y-20562514D01*
X38557200Y-20077486D01*
X38371588Y-19629378D01*
X38028622Y-19286412D01*
X37580514Y-19100800D01*
X37095486Y-19100800D01*
X36647378Y-19286412D01*
X36304412Y-19629378D01*
X36118800Y-20077486D01*
X36118800Y-20562514D01*
X36304412Y-21010622D01*
X36511816Y-21218026D01*
X34446246Y-23283596D01*
X34386867Y-23323272D01*
X34347191Y-23382651D01*
X34347188Y-23382654D01*
X34229677Y-23558522D01*
X34174480Y-23836018D01*
X34188413Y-23906064D01*
X34188412Y-26330073D01*
X32107134Y-28411352D01*
X32047755Y-28451028D01*
X32008079Y-28510407D01*
X32008076Y-28510410D01*
X31890565Y-28686278D01*
X31864878Y-28815415D01*
X31734609Y-28841327D01*
X31583377Y-28942377D01*
X31482327Y-29093609D01*
X31446843Y-29272000D01*
X31446843Y-29825868D01*
X29879852Y-31392860D01*
X29739000Y-31364843D01*
X28239000Y-31364843D01*
X28060609Y-31400327D01*
X27909377Y-31501377D01*
X27808327Y-31652609D01*
X27772843Y-31831000D01*
X27772843Y-32431000D01*
X27808327Y-32609391D01*
X27909377Y-32760623D01*
X27917424Y-32766000D01*
X27909377Y-32771377D01*
X27808327Y-32922609D01*
X27772843Y-33101000D01*
X27772843Y-33701000D01*
X27808327Y-33879391D01*
X27909377Y-34030623D01*
X27917424Y-34036000D01*
X27909377Y-34041377D01*
X27808327Y-34192609D01*
X27772843Y-34371000D01*
X27772843Y-34971000D01*
X27808327Y-35149391D01*
X27909377Y-35300623D01*
X28060609Y-35401673D01*
X28239000Y-35437157D01*
X29739000Y-35437157D01*
X29917391Y-35401673D01*
X29946534Y-35382200D01*
X31474333Y-35382200D01*
X31482327Y-35422391D01*
X31583377Y-35573623D01*
X31734609Y-35674673D01*
X31913000Y-35710157D01*
X33208000Y-35710157D01*
X33386391Y-35674673D01*
X33537623Y-35573623D01*
X33638673Y-35422391D01*
X33674157Y-35244000D01*
X33674157Y-33844000D01*
X33638673Y-33665609D01*
X33537623Y-33514377D01*
X33386391Y-33413327D01*
X33324419Y-33401000D01*
X33386391Y-33388673D01*
X33528000Y-33294053D01*
X33669609Y-33388673D01*
X33848000Y-33424157D01*
X35143000Y-33424157D01*
X35321391Y-33388673D01*
X35472623Y-33287623D01*
X35515669Y-33223200D01*
X35920866Y-33223200D01*
X35953327Y-33386391D01*
X36047947Y-33528000D01*
X35953327Y-33669609D01*
X35917843Y-33848000D01*
X35917843Y-35143000D01*
X35953327Y-35321391D01*
X36054377Y-35472623D01*
X36205609Y-35573673D01*
X36384000Y-35609157D01*
X37651368Y-35609157D01*
X37896801Y-35854590D01*
X37896800Y-38567411D01*
X37748368Y-38715843D01*
X36384000Y-38715843D01*
X36205609Y-38751327D01*
X36054377Y-38852377D01*
X35953327Y-39003609D01*
X35931353Y-39114081D01*
X35928673Y-39100609D01*
X35827623Y-38949377D01*
X35676391Y-38848327D01*
X35498000Y-38812843D01*
X34098000Y-38812843D01*
X33919609Y-38848327D01*
X33768377Y-38949377D01*
X33667327Y-39100609D01*
X33655000Y-39162581D01*
X33642673Y-39100609D01*
X33541623Y-38949377D01*
X33390391Y-38848327D01*
X33212000Y-38812843D01*
X32404132Y-38812843D01*
X32349446Y-38758157D01*
X33208000Y-38758157D01*
X33386391Y-38722673D01*
X33537623Y-38621623D01*
X33638673Y-38470391D01*
X33674157Y-38292000D01*
X33674157Y-36892000D01*
X33638673Y-36713609D01*
X33537623Y-36562377D01*
X33386391Y-36461327D01*
X33208000Y-36425843D01*
X31913000Y-36425843D01*
X31734609Y-36461327D01*
X31677030Y-36499800D01*
X29946534Y-36499800D01*
X29917391Y-36480327D01*
X29739000Y-36444843D01*
X28239000Y-36444843D01*
X28060609Y-36480327D01*
X28046091Y-36490027D01*
X27996960Y-36499800D01*
X27996956Y-36499800D01*
X27789506Y-36541064D01*
X27789504Y-36541065D01*
X27789505Y-36541065D01*
X27613637Y-36658576D01*
X27613635Y-36658578D01*
X27554256Y-36698254D01*
X27514580Y-36757633D01*
X24805157Y-39467057D01*
X24805157Y-39451000D01*
X24769673Y-39272609D01*
X24668623Y-39121377D01*
X24660576Y-39116000D01*
X24668623Y-39110623D01*
X24769673Y-38959391D01*
X24805157Y-38781000D01*
X24805157Y-38181000D01*
X24769673Y-38002609D01*
X24668623Y-37851377D01*
X24660576Y-37846000D01*
X24668623Y-37840623D01*
X24769673Y-37689391D01*
X24805157Y-37511000D01*
X24805157Y-36911000D01*
X24769673Y-36732609D01*
X24715945Y-36652200D01*
X24776959Y-36652200D01*
X24847000Y-36666132D01*
X24917041Y-36652200D01*
X24917046Y-36652200D01*
X25124496Y-36610936D01*
X25359746Y-36453746D01*
X25399424Y-36394364D01*
X26412180Y-35381609D01*
X26471556Y-35341935D01*
X26511231Y-35282558D01*
X26511235Y-35282554D01*
X26628746Y-35106687D01*
X26628746Y-35106686D01*
X26628747Y-35106685D01*
X26670011Y-34899235D01*
X26670011Y-34899232D01*
X26683943Y-34829190D01*
X26670011Y-34759148D01*
X26670011Y-30630157D01*
X27366000Y-30630157D01*
X27544391Y-30594673D01*
X27695623Y-30493623D01*
X27796673Y-30342391D01*
X27832157Y-30164000D01*
X27832157Y-28764000D01*
X27796673Y-28585609D01*
X27695623Y-28434377D01*
X27605877Y-28374411D01*
X29615089Y-26365200D01*
X30990990Y-26365200D01*
X31313378Y-26687588D01*
X31761486Y-26873200D01*
X32246514Y-26873200D01*
X32694622Y-26687588D01*
X33037588Y-26344622D01*
X33223200Y-25896514D01*
X33223200Y-25411486D01*
X33037588Y-24963378D01*
X32694622Y-24620412D01*
X32246514Y-24434800D01*
X31761486Y-24434800D01*
X31313378Y-24620412D01*
X30990990Y-24942800D01*
X29390542Y-24942800D01*
X29320500Y-24928868D01*
X29250458Y-24942800D01*
X29250454Y-24942800D01*
X29043004Y-24984064D01*
X29031223Y-24991936D01*
X28867135Y-25101576D01*
X28867133Y-25101578D01*
X28807754Y-25141254D01*
X28768078Y-25200633D01*
X26265134Y-27703578D01*
X26205755Y-27743254D01*
X26166079Y-27802633D01*
X26166076Y-27802636D01*
X26048565Y-27978504D01*
X25993368Y-28256000D01*
X26004329Y-28311105D01*
X25892609Y-28333327D01*
X25857200Y-28356987D01*
X25857200Y-23662588D01*
X26107366Y-23412422D01*
X26166745Y-23372746D01*
X26203860Y-23317200D01*
X30941071Y-23317200D01*
X30974327Y-23484391D01*
X31075377Y-23635623D01*
X31226609Y-23736673D01*
X31405000Y-23772157D01*
X32700000Y-23772157D01*
X32878391Y-23736673D01*
X33029623Y-23635623D01*
X33130673Y-23484391D01*
X33166157Y-23306000D01*
X33166157Y-21906000D01*
X33130673Y-21727609D01*
X33029623Y-21576377D01*
X32878391Y-21475327D01*
X32727282Y-21445270D01*
X32948622Y-21353588D01*
X33291588Y-21010622D01*
X33477200Y-20562514D01*
X33477200Y-20077486D01*
X33291588Y-19629378D01*
X32948622Y-19286412D01*
X32500514Y-19100800D01*
X32044589Y-19100800D01*
X31889945Y-18946157D01*
X32700000Y-18946157D01*
X32878391Y-18910673D01*
X33029623Y-18809623D01*
X33130673Y-18658391D01*
X33166157Y-18480000D01*
X33166157Y-17080000D01*
X33130673Y-16901609D01*
X33029623Y-16750377D01*
X32878391Y-16649327D01*
X32700000Y-16613843D01*
X31405000Y-16613843D01*
X31226609Y-16649327D01*
X31075377Y-16750377D01*
X31024848Y-16825999D01*
X26220843Y-16825999D01*
X26150801Y-16812067D01*
X26080759Y-16825999D01*
X26080755Y-16825999D01*
X25873305Y-16867263D01*
X25873303Y-16867264D01*
X25873304Y-16867264D01*
X25697436Y-16984775D01*
X25697434Y-16984777D01*
X25638055Y-17024453D01*
X25598379Y-17083832D01*
X25052369Y-17629843D01*
X24801000Y-17629843D01*
X24622609Y-17665327D01*
X24471377Y-17766377D01*
X24370327Y-17917609D01*
X24338059Y-18079831D01*
X24293000Y-18070868D01*
X24222958Y-18084800D01*
X24222954Y-18084800D01*
X24015504Y-18126064D01*
X24015502Y-18126065D01*
X24015503Y-18126065D01*
X23839635Y-18243576D01*
X23839633Y-18243578D01*
X23780254Y-18283254D01*
X23740578Y-18342633D01*
X20628634Y-21454578D01*
X20569254Y-21494255D01*
X20529578Y-21553634D01*
X20529576Y-21553636D01*
X20514381Y-21576377D01*
X20412064Y-21729505D01*
X20370800Y-21936955D01*
X20370800Y-21936959D01*
X20356868Y-22007000D01*
X20370800Y-22077041D01*
X20370801Y-28062320D01*
X20370800Y-28062325D01*
X20370800Y-28196990D01*
X20048412Y-28519378D01*
X19862800Y-28967486D01*
X19862800Y-29452514D01*
X20048412Y-29900622D01*
X20391378Y-30243588D01*
X20839486Y-30429200D01*
X21324514Y-30429200D01*
X21772622Y-30243588D01*
X22115588Y-29900622D01*
X22301200Y-29452514D01*
X22301200Y-28967486D01*
X22115588Y-28519378D01*
X21793200Y-28196990D01*
X21793200Y-22301588D01*
X24390383Y-19704406D01*
X24462274Y-19812000D01*
X24370327Y-19949609D01*
X24334843Y-20128000D01*
X24334843Y-21528000D01*
X24370327Y-21706391D01*
X24434800Y-21802882D01*
X24434800Y-22281953D01*
X24420867Y-22352000D01*
X24434801Y-22422051D01*
X24434800Y-23297958D01*
X24420868Y-23368000D01*
X24434800Y-23438041D01*
X24434800Y-23438045D01*
X24434801Y-23438050D01*
X24434800Y-31383899D01*
X24339000Y-31364843D01*
X22839000Y-31364843D01*
X22660609Y-31400327D01*
X22631466Y-31419800D01*
X20470157Y-31419800D01*
X20470157Y-31405000D01*
X20434673Y-31226609D01*
X20333623Y-31075377D01*
X20182391Y-30974327D01*
X20004000Y-30938843D01*
X18604000Y-30938843D01*
X18425609Y-30974327D01*
X18274377Y-31075377D01*
X18173327Y-31226609D01*
X18150812Y-31339800D01*
X17803042Y-31339800D01*
X17733000Y-31325868D01*
X17662958Y-31339800D01*
X17662954Y-31339800D01*
X17455504Y-31381064D01*
X17418384Y-31405867D01*
X17279635Y-31498576D01*
X17279633Y-31498578D01*
X17220254Y-31538254D01*
X17180578Y-31597633D01*
X15294634Y-33483578D01*
X15235254Y-33523255D01*
X15195578Y-33582634D01*
X15195576Y-33582636D01*
X15137463Y-33669609D01*
X15078064Y-33758505D01*
X15036800Y-33965955D01*
X15036800Y-33965959D01*
X15022868Y-34036000D01*
X12953200Y-34036000D01*
X12953200Y-12445200D01*
X84582800Y-12445200D01*
X84582801Y-46990800D01*
G36*
X41210000Y-38149157D02*
X41999522Y-38149157D01*
X42002254Y-38153246D01*
X42061633Y-38192922D01*
X42061635Y-38192924D01*
X42237502Y-38310435D01*
X42237503Y-38310435D01*
X42237504Y-38310436D01*
X42444954Y-38351700D01*
X42444957Y-38351700D01*
X42514999Y-38365632D01*
X42585041Y-38351700D01*
X43042514Y-38351700D01*
X43065327Y-38466391D01*
X43159947Y-38608000D01*
X43065327Y-38749609D01*
X43029843Y-38928000D01*
X43029843Y-40223000D01*
X43065327Y-40401391D01*
X43166377Y-40552623D01*
X43317609Y-40653673D01*
X43484801Y-40686929D01*
X43484801Y-41020161D01*
X43418609Y-41033327D01*
X43267377Y-41134377D01*
X43166327Y-41285609D01*
X43130843Y-41464000D01*
X43130843Y-42633054D01*
X41097200Y-40599412D01*
X41097200Y-38126720D01*
X41210000Y-38149157D01*
X41210000Y-38149157D01*
G37*
X41210000Y-38149157D02*
X41999522Y-38149157D01*
X42002254Y-38153246D01*
X42061633Y-38192922D01*
X42061635Y-38192924D01*
X42237502Y-38310435D01*
X42237503Y-38310435D01*
X42237504Y-38310436D01*
X42444954Y-38351700D01*
X42444957Y-38351700D01*
X42514999Y-38365632D01*
X42585041Y-38351700D01*
X43042514Y-38351700D01*
X43065327Y-38466391D01*
X43159947Y-38608000D01*
X43065327Y-38749609D01*
X43029843Y-38928000D01*
X43029843Y-40223000D01*
X43065327Y-40401391D01*
X43166377Y-40552623D01*
X43317609Y-40653673D01*
X43484801Y-40686929D01*
X43484801Y-41020161D01*
X43418609Y-41033327D01*
X43267377Y-41134377D01*
X43166327Y-41285609D01*
X43130843Y-41464000D01*
X43130843Y-42633054D01*
X41097200Y-40599412D01*
X41097200Y-38126720D01*
X41210000Y-38149157D01*
G36*
X74123576Y-31235864D02*
X74163254Y-31295246D01*
X74398504Y-31452436D01*
X74605954Y-31493700D01*
X74605958Y-31493700D01*
X74676000Y-31507632D01*
X74746042Y-31493700D01*
X75046514Y-31493700D01*
X75069327Y-31608391D01*
X75170377Y-31759623D01*
X75321609Y-31860673D01*
X75500000Y-31896157D01*
X76900000Y-31896157D01*
X77078391Y-31860673D01*
X77229623Y-31759623D01*
X77330673Y-31608391D01*
X77353486Y-31493700D01*
X77986882Y-31493700D01*
X78140000Y-31524157D01*
X79340000Y-31524157D01*
X79518391Y-31488673D01*
X79552800Y-31465682D01*
X79552801Y-34249410D01*
X78396912Y-35405300D01*
X76591486Y-35405300D01*
X76568673Y-35290609D01*
X76467623Y-35139377D01*
X76316391Y-35038327D01*
X76138000Y-35002843D01*
X74738000Y-35002843D01*
X74559609Y-35038327D01*
X74408377Y-35139377D01*
X74307327Y-35290609D01*
X74271843Y-35469000D01*
X74271843Y-36764000D01*
X74307327Y-36942391D01*
X74401947Y-37084000D01*
X74307327Y-37225609D01*
X74271843Y-37404000D01*
X74271843Y-38699000D01*
X74307327Y-38877391D01*
X74408377Y-39028623D01*
X74529594Y-39109618D01*
X74229611Y-39409601D01*
X69742157Y-39409601D01*
X69742157Y-38162000D01*
X69706673Y-37983609D01*
X69605623Y-37832377D01*
X69454391Y-37731327D01*
X69339700Y-37708514D01*
X69339700Y-35260000D01*
X71079843Y-35260000D01*
X71079843Y-35860000D01*
X71115327Y-36038391D01*
X71216377Y-36189623D01*
X71224424Y-36195000D01*
X71216377Y-36200377D01*
X71115327Y-36351609D01*
X71079843Y-36530000D01*
X71079843Y-37130000D01*
X71115327Y-37308391D01*
X71216377Y-37459623D01*
X71367609Y-37560673D01*
X71546000Y-37596157D01*
X73046000Y-37596157D01*
X73224391Y-37560673D01*
X73375623Y-37459623D01*
X73476673Y-37308391D01*
X73512157Y-37130000D01*
X73512157Y-36530000D01*
X73476673Y-36351609D01*
X73375623Y-36200377D01*
X73367576Y-36195000D01*
X73375623Y-36189623D01*
X73476673Y-36038391D01*
X73512157Y-35860000D01*
X73512157Y-35260000D01*
X73476673Y-35081609D01*
X73375623Y-34930377D01*
X73224391Y-34829327D01*
X73046000Y-34793843D01*
X71546000Y-34793843D01*
X71367609Y-34829327D01*
X71216377Y-34930377D01*
X71115327Y-35081609D01*
X71079843Y-35260000D01*
X69339700Y-35260000D01*
X69339700Y-33564541D01*
X69353632Y-33494499D01*
X69339700Y-33424455D01*
X69339700Y-33424454D01*
X69298436Y-33217004D01*
X69292420Y-33208000D01*
X69180924Y-33041135D01*
X69180920Y-33041131D01*
X69141245Y-32981754D01*
X69081868Y-32942080D01*
X68706423Y-32566635D01*
X68666746Y-32507254D01*
X68597822Y-32461200D01*
X71338466Y-32461200D01*
X71367609Y-32480673D01*
X71546000Y-32516157D01*
X73046000Y-32516157D01*
X73224391Y-32480673D01*
X73375623Y-32379623D01*
X73476673Y-32228391D01*
X73512157Y-32050000D01*
X73512157Y-31450000D01*
X73476673Y-31271609D01*
X73422945Y-31191200D01*
X74078912Y-31191200D01*
X74123576Y-31235864D01*
X74123576Y-31235864D01*
G37*
X74123576Y-31235864D02*
X74163254Y-31295246D01*
X74398504Y-31452436D01*
X74605954Y-31493700D01*
X74605958Y-31493700D01*
X74676000Y-31507632D01*
X74746042Y-31493700D01*
X75046514Y-31493700D01*
X75069327Y-31608391D01*
X75170377Y-31759623D01*
X75321609Y-31860673D01*
X75500000Y-31896157D01*
X76900000Y-31896157D01*
X77078391Y-31860673D01*
X77229623Y-31759623D01*
X77330673Y-31608391D01*
X77353486Y-31493700D01*
X77986882Y-31493700D01*
X78140000Y-31524157D01*
X79340000Y-31524157D01*
X79518391Y-31488673D01*
X79552800Y-31465682D01*
X79552801Y-34249410D01*
X78396912Y-35405300D01*
X76591486Y-35405300D01*
X76568673Y-35290609D01*
X76467623Y-35139377D01*
X76316391Y-35038327D01*
X76138000Y-35002843D01*
X74738000Y-35002843D01*
X74559609Y-35038327D01*
X74408377Y-35139377D01*
X74307327Y-35290609D01*
X74271843Y-35469000D01*
X74271843Y-36764000D01*
X74307327Y-36942391D01*
X74401947Y-37084000D01*
X74307327Y-37225609D01*
X74271843Y-37404000D01*
X74271843Y-38699000D01*
X74307327Y-38877391D01*
X74408377Y-39028623D01*
X74529594Y-39109618D01*
X74229611Y-39409601D01*
X69742157Y-39409601D01*
X69742157Y-38162000D01*
X69706673Y-37983609D01*
X69605623Y-37832377D01*
X69454391Y-37731327D01*
X69339700Y-37708514D01*
X69339700Y-35260000D01*
X71079843Y-35260000D01*
X71079843Y-35860000D01*
X71115327Y-36038391D01*
X71216377Y-36189623D01*
X71224424Y-36195000D01*
X71216377Y-36200377D01*
X71115327Y-36351609D01*
X71079843Y-36530000D01*
X71079843Y-37130000D01*
X71115327Y-37308391D01*
X71216377Y-37459623D01*
X71367609Y-37560673D01*
X71546000Y-37596157D01*
X73046000Y-37596157D01*
X73224391Y-37560673D01*
X73375623Y-37459623D01*
X73476673Y-37308391D01*
X73512157Y-37130000D01*
X73512157Y-36530000D01*
X73476673Y-36351609D01*
X73375623Y-36200377D01*
X73367576Y-36195000D01*
X73375623Y-36189623D01*
X73476673Y-36038391D01*
X73512157Y-35860000D01*
X73512157Y-35260000D01*
X73476673Y-35081609D01*
X73375623Y-34930377D01*
X73224391Y-34829327D01*
X73046000Y-34793843D01*
X71546000Y-34793843D01*
X71367609Y-34829327D01*
X71216377Y-34930377D01*
X71115327Y-35081609D01*
X71079843Y-35260000D01*
X69339700Y-35260000D01*
X69339700Y-33564541D01*
X69353632Y-33494499D01*
X69339700Y-33424455D01*
X69339700Y-33424454D01*
X69298436Y-33217004D01*
X69292420Y-33208000D01*
X69180924Y-33041135D01*
X69180920Y-33041131D01*
X69141245Y-32981754D01*
X69081868Y-32942080D01*
X68706423Y-32566635D01*
X68666746Y-32507254D01*
X68597822Y-32461200D01*
X71338466Y-32461200D01*
X71367609Y-32480673D01*
X71546000Y-32516157D01*
X73046000Y-32516157D01*
X73224391Y-32480673D01*
X73375623Y-32379623D01*
X73476673Y-32228391D01*
X73512157Y-32050000D01*
X73512157Y-31450000D01*
X73476673Y-31271609D01*
X73422945Y-31191200D01*
X74078912Y-31191200D01*
X74123576Y-31235864D01*
G04 #@! TD*
M02*
