M48
;DRILL file {KiCad (5.0.0-rc2-39-ga12b9db58)} date Wed May 30 03:55:24 2018
;FORMAT={-:-/ absolute / inch / decimal}
FMAT,2
INCH,TZ
T1C0.0236
T2C0.0300
%
G90
G05
M72
T1
X0.83Y-1.15
X0.83Y-1.4
X1.26Y-1.01
X1.46Y-1.01
X1.57Y-1.69
X1.6568Y-1.6032
X1.81Y-1.4
X1.81Y-1.21
X1.87Y-1.1
X2.0356Y-1.0244
X2.04Y-1.1
X2.27Y-1.02
X2.53Y-1.12
X2.53Y-1.31
X2.87Y-1.5276
X2.87Y-1.6316
T2
X1.17Y-0.8
X1.27Y-0.8
X1.37Y-0.8
X1.47Y-0.8
X1.62Y-0.8
X1.72Y-0.8
X1.82Y-0.8
X1.92Y-0.8
X2.02Y-0.8
X2.17Y-0.8
X2.27Y-0.8
X2.37Y-0.8
X2.47Y-0.8
X2.62Y-0.8
X2.72Y-0.8
X2.82Y-0.8
X2.92Y-0.8
T0
M30
