G04 #@! TF.GenerationSoftware,KiCad,Pcbnew,(5.0.0-rc2-dev-586-g888c43477)*
G04 #@! TF.CreationDate,2018-06-03T13:56:13-03:00*
G04 #@! TF.ProjectId,Signal,5369676E616C2E6B696361645F706362,rev?*
G04 #@! TF.SameCoordinates,Original*
G04 #@! TF.FileFunction,Other,Fab,Top*
%FSLAX46Y46*%
G04 Gerber Fmt 4.6, Leading zero omitted, Abs format (unit mm)*
G04 Created by KiCad (PCBNEW (5.0.0-rc2-dev-586-g888c43477)) date 06/03/18 13:56:13*
%MOMM*%
%LPD*%
G01*
G04 APERTURE LIST*
%ADD10C,0.150000*%
G04 APERTURE END LIST*
D10*
X23948000Y-7524761D02*
X24090857Y-7572380D01*
X24328952Y-7572380D01*
X24424190Y-7524761D01*
X24471809Y-7477142D01*
X24519428Y-7381904D01*
X24519428Y-7286666D01*
X24471809Y-7191428D01*
X24424190Y-7143809D01*
X24328952Y-7096190D01*
X24138476Y-7048571D01*
X24043238Y-7000952D01*
X23995619Y-6953333D01*
X23948000Y-6858095D01*
X23948000Y-6762857D01*
X23995619Y-6667619D01*
X24043238Y-6620000D01*
X24138476Y-6572380D01*
X24376571Y-6572380D01*
X24519428Y-6620000D01*
X24948000Y-7572380D02*
X24948000Y-6905714D01*
X24948000Y-6572380D02*
X24900380Y-6620000D01*
X24948000Y-6667619D01*
X24995619Y-6620000D01*
X24948000Y-6572380D01*
X24948000Y-6667619D01*
X25852761Y-6905714D02*
X25852761Y-7715238D01*
X25805142Y-7810476D01*
X25757523Y-7858095D01*
X25662285Y-7905714D01*
X25519428Y-7905714D01*
X25424190Y-7858095D01*
X25852761Y-7524761D02*
X25757523Y-7572380D01*
X25567047Y-7572380D01*
X25471809Y-7524761D01*
X25424190Y-7477142D01*
X25376571Y-7381904D01*
X25376571Y-7096190D01*
X25424190Y-7000952D01*
X25471809Y-6953333D01*
X25567047Y-6905714D01*
X25757523Y-6905714D01*
X25852761Y-6953333D01*
X26328952Y-6905714D02*
X26328952Y-7572380D01*
X26328952Y-7000952D02*
X26376571Y-6953333D01*
X26471809Y-6905714D01*
X26614666Y-6905714D01*
X26709904Y-6953333D01*
X26757523Y-7048571D01*
X26757523Y-7572380D01*
X27662285Y-7572380D02*
X27662285Y-7048571D01*
X27614666Y-6953333D01*
X27519428Y-6905714D01*
X27328952Y-6905714D01*
X27233714Y-6953333D01*
X27662285Y-7524761D02*
X27567047Y-7572380D01*
X27328952Y-7572380D01*
X27233714Y-7524761D01*
X27186095Y-7429523D01*
X27186095Y-7334285D01*
X27233714Y-7239047D01*
X27328952Y-7191428D01*
X27567047Y-7191428D01*
X27662285Y-7143809D01*
X28281333Y-7572380D02*
X28186095Y-7524761D01*
X28138476Y-7429523D01*
X28138476Y-6572380D01*
X28614666Y-7524761D02*
X28709904Y-7572380D01*
X28900380Y-7572380D01*
X28995619Y-7524761D01*
X29043238Y-7429523D01*
X29043238Y-7381904D01*
X28995619Y-7286666D01*
X28900380Y-7239047D01*
X28757523Y-7239047D01*
X28662285Y-7191428D01*
X28614666Y-7096190D01*
X28614666Y-7048571D01*
X28662285Y-6953333D01*
X28757523Y-6905714D01*
X28900380Y-6905714D01*
X28995619Y-6953333D01*
X29233714Y-7667619D02*
X29995619Y-7667619D01*
X30233714Y-7572380D02*
X30233714Y-6572380D01*
X30567047Y-7286666D01*
X30900380Y-6572380D01*
X30900380Y-7572380D01*
X31948000Y-7477142D02*
X31900380Y-7524761D01*
X31757523Y-7572380D01*
X31662285Y-7572380D01*
X31519428Y-7524761D01*
X31424190Y-7429523D01*
X31376571Y-7334285D01*
X31328952Y-7143809D01*
X31328952Y-7000952D01*
X31376571Y-6810476D01*
X31424190Y-6715238D01*
X31519428Y-6620000D01*
X31662285Y-6572380D01*
X31757523Y-6572380D01*
X31900380Y-6620000D01*
X31948000Y-6667619D01*
X32948000Y-7477142D02*
X32900380Y-7524761D01*
X32757523Y-7572380D01*
X32662285Y-7572380D01*
X32519428Y-7524761D01*
X32424190Y-7429523D01*
X32376571Y-7334285D01*
X32328952Y-7143809D01*
X32328952Y-7000952D01*
X32376571Y-6810476D01*
X32424190Y-6715238D01*
X32519428Y-6620000D01*
X32662285Y-6572380D01*
X32757523Y-6572380D01*
X32900380Y-6620000D01*
X32948000Y-6667619D01*
M02*
