G04 #@! TF.GenerationSoftware,KiCad,Pcbnew,(5.0.0-rc2-39-ga12b9db58)*
G04 #@! TF.CreationDate,2018-05-30T03:55:21-03:00*
G04 #@! TF.ProjectId,Signal,5369676E616C2E6B696361645F706362,rev?*
G04 #@! TF.SameCoordinates,Original*
G04 #@! TF.FileFunction,Copper,L1,Top,Signal*
G04 #@! TF.FilePolarity,Positive*
%FSLAX46Y46*%
G04 Gerber Fmt 4.6, Leading zero omitted, Abs format (unit mm)*
G04 Created by KiCad (PCBNEW (5.0.0-rc2-39-ga12b9db58)) date Wed May 30 03:55:21 2018*
%MOMM*%
%LPD*%
G01*
G04 APERTURE LIST*
G04 #@! TA.AperFunction,ComponentPad*
%ADD10C,1.524000*%
G04 #@! TD*
G04 #@! TA.AperFunction,ViaPad*
%ADD11C,1.524000*%
G04 #@! TD*
G04 #@! TA.AperFunction,Conductor*
%ADD12C,0.508000*%
G04 #@! TD*
G04 APERTURE END LIST*
D10*
G04 #@! TO.P,U1,16*
G04 #@! TO.N,GNDA*
X71628000Y-20320000D03*
G04 #@! TO.P,U1,15*
G04 #@! TO.N,PWM*
X69088000Y-20320000D03*
G04 #@! TO.P,U1,14*
G04 #@! TO.N,BatOVInterrupt*
X66548000Y-20320000D03*
G04 #@! TO.P,U1,13*
G04 #@! TO.N,Vbat*
X62738000Y-20320000D03*
G04 #@! TO.P,U1,12*
G04 #@! TO.N,GNDA*
X60198000Y-20320000D03*
G04 #@! TO.P,U1,11*
X57658000Y-20320000D03*
G04 #@! TO.P,U1,10*
G04 #@! TO.N,Vbat_SIG_IN*
X55118000Y-20320000D03*
G04 #@! TO.P,U1,9*
G04 #@! TO.N,Ipanel*
X51308000Y-20320000D03*
G04 #@! TO.P,U1,8*
G04 #@! TO.N,GNDA*
X48768000Y-20320000D03*
G04 #@! TO.P,U1,7*
G04 #@! TO.N,Ipanel_Ref*
X46228000Y-20320000D03*
G04 #@! TO.P,U1,6*
G04 #@! TO.N,Ipanel_SIG*
X43688000Y-20320000D03*
G04 #@! TO.P,U1,5*
G04 #@! TO.N,GNDA*
X41148000Y-20320000D03*
G04 #@! TO.P,U1,4*
G04 #@! TO.N,Vpanel*
X37338000Y-20320000D03*
G04 #@! TO.P,U1,3*
G04 #@! TO.N,GNDA*
X34798000Y-20320000D03*
G04 #@! TO.P,U1,2*
G04 #@! TO.N,Vpanel_SIG*
X32258000Y-20320000D03*
G04 #@! TO.P,U1,1*
G04 #@! TO.N,Vpanel_Ref*
X29718000Y-20320000D03*
G04 #@! TO.P,U1,17*
G04 #@! TO.N,+5VA*
X74168000Y-20320000D03*
G04 #@! TD*
D11*
G04 #@! TO.N,GNDA*
X72898000Y-41441601D03*
X72898000Y-38800001D03*
X64262000Y-28448000D03*
X64262000Y-33274000D03*
X42081947Y-40722053D03*
X39878000Y-42925992D03*
G04 #@! TO.N,Ipanel_SIG*
X45974014Y-30734000D03*
X45974000Y-35560000D03*
G04 #@! TO.N,+5VA*
X51816000Y-27940000D03*
X47498008Y-27940000D03*
X57658000Y-25908000D03*
X32004000Y-25654000D03*
X37084002Y-25654000D03*
X51704309Y-26019705D03*
G04 #@! TO.N,Net-(R30-Pad1)*
X21082000Y-35560000D03*
X21082000Y-29210000D03*
G04 #@! TD*
D12*
G04 #@! TO.N,GNDA*
X72898000Y-41441601D02*
X72898000Y-38800001D01*
X64262000Y-33274000D02*
X64262000Y-28448000D01*
X39878008Y-42925992D02*
X39878000Y-42925992D01*
X42081947Y-40722053D02*
X39878008Y-42925992D01*
G04 #@! TO.N,Ipanel_SIG*
X45974014Y-30734000D02*
X45974014Y-35559986D01*
X45974014Y-35559986D02*
X45974000Y-35560000D01*
G04 #@! TO.N,+5VA*
X51816000Y-27940000D02*
X47498008Y-27940000D01*
X32004000Y-25654000D02*
X37084002Y-25654000D01*
X57658000Y-25908000D02*
X51816014Y-25908000D01*
X51816014Y-25908000D02*
X51704309Y-26019705D01*
G04 #@! TO.N,Net-(R30-Pad1)*
X21082000Y-35560000D02*
X21082000Y-30226000D01*
X21082000Y-30226000D02*
X21082000Y-29210000D01*
G04 #@! TD*
M02*
