G04 #@! TF.GenerationSoftware,KiCad,Pcbnew,(5.0.0-rc2-39-ga12b9db58)*
G04 #@! TF.CreationDate,2018-05-30T03:55:21-03:00*
G04 #@! TF.ProjectId,Signal,5369676E616C2E6B696361645F706362,rev?*
G04 #@! TF.SameCoordinates,Original*
G04 #@! TF.FileFunction,Legend,Top*
G04 #@! TF.FilePolarity,Positive*
%FSLAX46Y46*%
G04 Gerber Fmt 4.6, Leading zero omitted, Abs format (unit mm)*
G04 Created by KiCad (PCBNEW (5.0.0-rc2-39-ga12b9db58)) date Wed May 30 03:55:21 2018*
%MOMM*%
%LPD*%
G01*
G04 APERTURE LIST*
%ADD10C,0.150000*%
G04 APERTURE END LIST*
D10*
G04 #@! TO.C,U1*
X39878000Y-19050000D02*
X39878000Y-21590000D01*
X39878000Y-21590000D02*
X52578000Y-21590000D01*
X52578000Y-21590000D02*
X52578000Y-19304000D01*
X52578000Y-19304000D02*
X52578000Y-19050000D01*
X52578000Y-19050000D02*
X39878000Y-19050000D01*
X38608000Y-19050000D02*
X38608000Y-21590000D01*
X38608000Y-21590000D02*
X28448000Y-21590000D01*
X28448000Y-21590000D02*
X28448000Y-19050000D01*
X28448000Y-19050000D02*
X38608000Y-19050000D01*
X54102000Y-19050000D02*
X53848000Y-19050000D01*
X53848000Y-19050000D02*
X53848000Y-21590000D01*
X53848000Y-21590000D02*
X64008000Y-21590000D01*
X64008000Y-21590000D02*
X64008000Y-19050000D01*
X64008000Y-19050000D02*
X53848000Y-19050000D01*
X65278000Y-19050000D02*
X65278000Y-21590000D01*
X65278000Y-21590000D02*
X75438000Y-21590000D01*
X75438000Y-21590000D02*
X75438000Y-19050000D01*
X75438000Y-19050000D02*
X65278000Y-19050000D01*
X27686095Y-6818380D02*
X27686095Y-7627904D01*
X27733714Y-7723142D01*
X27781333Y-7770761D01*
X27876571Y-7818380D01*
X28067047Y-7818380D01*
X28162285Y-7770761D01*
X28209904Y-7723142D01*
X28257523Y-7627904D01*
X28257523Y-6818380D01*
X29257523Y-7818380D02*
X28686095Y-7818380D01*
X28971809Y-7818380D02*
X28971809Y-6818380D01*
X28876571Y-6961238D01*
X28781333Y-7056476D01*
X28686095Y-7104095D01*
G04 #@! TD*
M02*
