G04 #@! TF.GenerationSoftware,KiCad,Pcbnew,(5.0.0-rc2-dev-586-g888c43477)*
G04 #@! TF.CreationDate,2018-06-04T00:56:57-03:00*
G04 #@! TF.ProjectId,Signal,5369676E616C2E6B696361645F706362,rev?*
G04 #@! TF.SameCoordinates,Original*
G04 #@! TF.FileFunction,Copper,L1,Top,Signal*
G04 #@! TF.FilePolarity,Positive*
%FSLAX46Y46*%
G04 Gerber Fmt 4.6, Leading zero omitted, Abs format (unit mm)*
G04 Created by KiCad (PCBNEW (5.0.0-rc2-dev-586-g888c43477)) date 06/04/18 00:56:57*
%MOMM*%
%LPD*%
G01*
G04 APERTURE LIST*
%ADD10C,3.800000*%
%ADD11C,1.524000*%
%ADD12C,0.508000*%
G04 APERTURE END LIST*
D10*
X48006000Y-40482000D03*
D11*
X71628000Y-19050000D03*
X69088000Y-19050000D03*
X66548000Y-19050000D03*
X62738000Y-19050000D03*
X60198000Y-19050000D03*
X57658000Y-19050000D03*
X55118000Y-19050000D03*
X51308000Y-19050000D03*
X48768000Y-19050000D03*
X46228000Y-19050000D03*
X43688000Y-19050000D03*
X41148000Y-19050000D03*
X37338000Y-19050000D03*
X34798000Y-19050000D03*
X32258000Y-19050000D03*
X29718000Y-19050000D03*
X74168000Y-19050000D03*
X69088026Y-42672000D03*
X69088000Y-39116000D03*
X60070810Y-30750000D03*
X37250000Y-31500002D03*
X41000000Y-31500000D03*
X60000000Y-35250000D03*
X37250000Y-29421187D03*
X41000000Y-29500000D03*
X73660000Y-25400000D03*
X73660000Y-22621200D03*
D12*
X69088026Y-42672000D02*
X69088026Y-39116026D01*
X69088026Y-39116026D02*
X69088000Y-39116000D01*
X59944000Y-30876810D02*
X60070810Y-30750000D01*
X37254002Y-31496000D02*
X37250000Y-31500002D01*
X37250000Y-31500002D02*
X40999998Y-31500002D01*
X40999998Y-31500002D02*
X41000000Y-31500000D01*
X60070810Y-35179190D02*
X60000000Y-35250000D01*
X60070810Y-30750000D02*
X60070810Y-35179190D01*
X37292813Y-29464000D02*
X37250000Y-29421187D01*
X37250000Y-29421187D02*
X40399613Y-29421187D01*
X40399613Y-29421187D02*
X40820800Y-29000000D01*
X37632640Y-19344640D02*
X37338000Y-19050000D01*
X73660000Y-25400000D02*
X73660000Y-22621200D01*
G36*
X78131200Y-43587200D02*
X23976800Y-43587200D01*
X23976800Y-39992914D01*
X45547200Y-39992914D01*
X45547200Y-40971086D01*
X45921530Y-41874798D01*
X46613202Y-42566470D01*
X47516914Y-42940800D01*
X48495086Y-42940800D01*
X49398798Y-42566470D01*
X50090470Y-41874798D01*
X50464800Y-40971086D01*
X50464800Y-39992914D01*
X50090470Y-39089202D01*
X49398798Y-38397530D01*
X48495086Y-38023200D01*
X47516914Y-38023200D01*
X46613202Y-38397530D01*
X45921530Y-39089202D01*
X45547200Y-39992914D01*
X23976800Y-39992914D01*
X23976800Y-29158464D01*
X35929200Y-29158464D01*
X35929200Y-29683910D01*
X36130280Y-30169360D01*
X36501827Y-30540907D01*
X36987277Y-30741987D01*
X37512723Y-30741987D01*
X37998173Y-30540907D01*
X38305093Y-30233987D01*
X39874404Y-30233987D01*
X39880280Y-30248173D01*
X40251827Y-30619720D01*
X40737277Y-30820800D01*
X41262723Y-30820800D01*
X41748173Y-30619720D01*
X42119720Y-30248173D01*
X42320800Y-29762723D01*
X42320800Y-29237277D01*
X42119720Y-28751827D01*
X41748173Y-28380280D01*
X41262723Y-28179200D01*
X40860630Y-28179200D01*
X40820799Y-28171277D01*
X40780968Y-28179200D01*
X40737277Y-28179200D01*
X40696912Y-28195920D01*
X40503661Y-28234360D01*
X40339834Y-28343826D01*
X40251827Y-28380280D01*
X40023720Y-28608387D01*
X38305093Y-28608387D01*
X37998173Y-28301467D01*
X37512723Y-28100387D01*
X36987277Y-28100387D01*
X36501827Y-28301467D01*
X36130280Y-28673014D01*
X35929200Y-29158464D01*
X23976800Y-29158464D01*
X23976800Y-18787277D01*
X28397200Y-18787277D01*
X28397200Y-19312723D01*
X28598280Y-19798173D01*
X28969827Y-20169720D01*
X29455277Y-20370800D01*
X29980723Y-20370800D01*
X30466173Y-20169720D01*
X30837720Y-19798173D01*
X30988000Y-19435365D01*
X31138280Y-19798173D01*
X31509827Y-20169720D01*
X31995277Y-20370800D01*
X32520723Y-20370800D01*
X33006173Y-20169720D01*
X33377720Y-19798173D01*
X33578800Y-19312723D01*
X33578800Y-18787277D01*
X36017200Y-18787277D01*
X36017200Y-19312723D01*
X36218280Y-19798173D01*
X36589827Y-20169720D01*
X37075277Y-20370800D01*
X37600723Y-20370800D01*
X38086173Y-20169720D01*
X38457720Y-19798173D01*
X38658800Y-19312723D01*
X38658800Y-18787277D01*
X42367200Y-18787277D01*
X42367200Y-19312723D01*
X42568280Y-19798173D01*
X42939827Y-20169720D01*
X43425277Y-20370800D01*
X43950723Y-20370800D01*
X44436173Y-20169720D01*
X44807720Y-19798173D01*
X44958000Y-19435365D01*
X45108280Y-19798173D01*
X45479827Y-20169720D01*
X45965277Y-20370800D01*
X46490723Y-20370800D01*
X46976173Y-20169720D01*
X47347720Y-19798173D01*
X47548800Y-19312723D01*
X47548800Y-18787277D01*
X49987200Y-18787277D01*
X49987200Y-19312723D01*
X50188280Y-19798173D01*
X50559827Y-20169720D01*
X51045277Y-20370800D01*
X51570723Y-20370800D01*
X52056173Y-20169720D01*
X52427720Y-19798173D01*
X52628800Y-19312723D01*
X52628800Y-18787277D01*
X53797200Y-18787277D01*
X53797200Y-19312723D01*
X53998280Y-19798173D01*
X54369827Y-20169720D01*
X54855277Y-20370800D01*
X55380723Y-20370800D01*
X55866173Y-20169720D01*
X56237720Y-19798173D01*
X56438800Y-19312723D01*
X56438800Y-18787277D01*
X61417200Y-18787277D01*
X61417200Y-19312723D01*
X61618280Y-19798173D01*
X61989827Y-20169720D01*
X62475277Y-20370800D01*
X63000723Y-20370800D01*
X63486173Y-20169720D01*
X63857720Y-19798173D01*
X64058800Y-19312723D01*
X64058800Y-18787277D01*
X65227200Y-18787277D01*
X65227200Y-19312723D01*
X65428280Y-19798173D01*
X65799827Y-20169720D01*
X66285277Y-20370800D01*
X66810723Y-20370800D01*
X67296173Y-20169720D01*
X67667720Y-19798173D01*
X67818000Y-19435365D01*
X67968280Y-19798173D01*
X68339827Y-20169720D01*
X68825277Y-20370800D01*
X69350723Y-20370800D01*
X69836173Y-20169720D01*
X70207720Y-19798173D01*
X70408800Y-19312723D01*
X70408800Y-18787277D01*
X72847200Y-18787277D01*
X72847200Y-19312723D01*
X73048280Y-19798173D01*
X73419827Y-20169720D01*
X73905277Y-20370800D01*
X74430723Y-20370800D01*
X74916173Y-20169720D01*
X75287720Y-19798173D01*
X75488800Y-19312723D01*
X75488800Y-18787277D01*
X75287720Y-18301827D01*
X74916173Y-17930280D01*
X74430723Y-17729200D01*
X73905277Y-17729200D01*
X73419827Y-17930280D01*
X73048280Y-18301827D01*
X72847200Y-18787277D01*
X70408800Y-18787277D01*
X70207720Y-18301827D01*
X69836173Y-17930280D01*
X69350723Y-17729200D01*
X68825277Y-17729200D01*
X68339827Y-17930280D01*
X67968280Y-18301827D01*
X67818000Y-18664635D01*
X67667720Y-18301827D01*
X67296173Y-17930280D01*
X66810723Y-17729200D01*
X66285277Y-17729200D01*
X65799827Y-17930280D01*
X65428280Y-18301827D01*
X65227200Y-18787277D01*
X64058800Y-18787277D01*
X63857720Y-18301827D01*
X63486173Y-17930280D01*
X63000723Y-17729200D01*
X62475277Y-17729200D01*
X61989827Y-17930280D01*
X61618280Y-18301827D01*
X61417200Y-18787277D01*
X56438800Y-18787277D01*
X56237720Y-18301827D01*
X55866173Y-17930280D01*
X55380723Y-17729200D01*
X54855277Y-17729200D01*
X54369827Y-17930280D01*
X53998280Y-18301827D01*
X53797200Y-18787277D01*
X52628800Y-18787277D01*
X52427720Y-18301827D01*
X52056173Y-17930280D01*
X51570723Y-17729200D01*
X51045277Y-17729200D01*
X50559827Y-17930280D01*
X50188280Y-18301827D01*
X49987200Y-18787277D01*
X47548800Y-18787277D01*
X47347720Y-18301827D01*
X46976173Y-17930280D01*
X46490723Y-17729200D01*
X45965277Y-17729200D01*
X45479827Y-17930280D01*
X45108280Y-18301827D01*
X44958000Y-18664635D01*
X44807720Y-18301827D01*
X44436173Y-17930280D01*
X43950723Y-17729200D01*
X43425277Y-17729200D01*
X42939827Y-17930280D01*
X42568280Y-18301827D01*
X42367200Y-18787277D01*
X38658800Y-18787277D01*
X38457720Y-18301827D01*
X38086173Y-17930280D01*
X37600723Y-17729200D01*
X37075277Y-17729200D01*
X36589827Y-17930280D01*
X36218280Y-18301827D01*
X36017200Y-18787277D01*
X33578800Y-18787277D01*
X33377720Y-18301827D01*
X33006173Y-17930280D01*
X32520723Y-17729200D01*
X31995277Y-17729200D01*
X31509827Y-17930280D01*
X31138280Y-18301827D01*
X30988000Y-18664635D01*
X30837720Y-18301827D01*
X30466173Y-17930280D01*
X29980723Y-17729200D01*
X29455277Y-17729200D01*
X28969827Y-17930280D01*
X28598280Y-18301827D01*
X28397200Y-18787277D01*
X23976800Y-18787277D01*
X23976800Y-14070800D01*
X78131201Y-14070800D01*
X78131200Y-43587200D01*
X78131200Y-43587200D01*
G37*
X78131200Y-43587200D02*
X23976800Y-43587200D01*
X23976800Y-39992914D01*
X45547200Y-39992914D01*
X45547200Y-40971086D01*
X45921530Y-41874798D01*
X46613202Y-42566470D01*
X47516914Y-42940800D01*
X48495086Y-42940800D01*
X49398798Y-42566470D01*
X50090470Y-41874798D01*
X50464800Y-40971086D01*
X50464800Y-39992914D01*
X50090470Y-39089202D01*
X49398798Y-38397530D01*
X48495086Y-38023200D01*
X47516914Y-38023200D01*
X46613202Y-38397530D01*
X45921530Y-39089202D01*
X45547200Y-39992914D01*
X23976800Y-39992914D01*
X23976800Y-29158464D01*
X35929200Y-29158464D01*
X35929200Y-29683910D01*
X36130280Y-30169360D01*
X36501827Y-30540907D01*
X36987277Y-30741987D01*
X37512723Y-30741987D01*
X37998173Y-30540907D01*
X38305093Y-30233987D01*
X39874404Y-30233987D01*
X39880280Y-30248173D01*
X40251827Y-30619720D01*
X40737277Y-30820800D01*
X41262723Y-30820800D01*
X41748173Y-30619720D01*
X42119720Y-30248173D01*
X42320800Y-29762723D01*
X42320800Y-29237277D01*
X42119720Y-28751827D01*
X41748173Y-28380280D01*
X41262723Y-28179200D01*
X40860630Y-28179200D01*
X40820799Y-28171277D01*
X40780968Y-28179200D01*
X40737277Y-28179200D01*
X40696912Y-28195920D01*
X40503661Y-28234360D01*
X40339834Y-28343826D01*
X40251827Y-28380280D01*
X40023720Y-28608387D01*
X38305093Y-28608387D01*
X37998173Y-28301467D01*
X37512723Y-28100387D01*
X36987277Y-28100387D01*
X36501827Y-28301467D01*
X36130280Y-28673014D01*
X35929200Y-29158464D01*
X23976800Y-29158464D01*
X23976800Y-18787277D01*
X28397200Y-18787277D01*
X28397200Y-19312723D01*
X28598280Y-19798173D01*
X28969827Y-20169720D01*
X29455277Y-20370800D01*
X29980723Y-20370800D01*
X30466173Y-20169720D01*
X30837720Y-19798173D01*
X30988000Y-19435365D01*
X31138280Y-19798173D01*
X31509827Y-20169720D01*
X31995277Y-20370800D01*
X32520723Y-20370800D01*
X33006173Y-20169720D01*
X33377720Y-19798173D01*
X33578800Y-19312723D01*
X33578800Y-18787277D01*
X36017200Y-18787277D01*
X36017200Y-19312723D01*
X36218280Y-19798173D01*
X36589827Y-20169720D01*
X37075277Y-20370800D01*
X37600723Y-20370800D01*
X38086173Y-20169720D01*
X38457720Y-19798173D01*
X38658800Y-19312723D01*
X38658800Y-18787277D01*
X42367200Y-18787277D01*
X42367200Y-19312723D01*
X42568280Y-19798173D01*
X42939827Y-20169720D01*
X43425277Y-20370800D01*
X43950723Y-20370800D01*
X44436173Y-20169720D01*
X44807720Y-19798173D01*
X44958000Y-19435365D01*
X45108280Y-19798173D01*
X45479827Y-20169720D01*
X45965277Y-20370800D01*
X46490723Y-20370800D01*
X46976173Y-20169720D01*
X47347720Y-19798173D01*
X47548800Y-19312723D01*
X47548800Y-18787277D01*
X49987200Y-18787277D01*
X49987200Y-19312723D01*
X50188280Y-19798173D01*
X50559827Y-20169720D01*
X51045277Y-20370800D01*
X51570723Y-20370800D01*
X52056173Y-20169720D01*
X52427720Y-19798173D01*
X52628800Y-19312723D01*
X52628800Y-18787277D01*
X53797200Y-18787277D01*
X53797200Y-19312723D01*
X53998280Y-19798173D01*
X54369827Y-20169720D01*
X54855277Y-20370800D01*
X55380723Y-20370800D01*
X55866173Y-20169720D01*
X56237720Y-19798173D01*
X56438800Y-19312723D01*
X56438800Y-18787277D01*
X61417200Y-18787277D01*
X61417200Y-19312723D01*
X61618280Y-19798173D01*
X61989827Y-20169720D01*
X62475277Y-20370800D01*
X63000723Y-20370800D01*
X63486173Y-20169720D01*
X63857720Y-19798173D01*
X64058800Y-19312723D01*
X64058800Y-18787277D01*
X65227200Y-18787277D01*
X65227200Y-19312723D01*
X65428280Y-19798173D01*
X65799827Y-20169720D01*
X66285277Y-20370800D01*
X66810723Y-20370800D01*
X67296173Y-20169720D01*
X67667720Y-19798173D01*
X67818000Y-19435365D01*
X67968280Y-19798173D01*
X68339827Y-20169720D01*
X68825277Y-20370800D01*
X69350723Y-20370800D01*
X69836173Y-20169720D01*
X70207720Y-19798173D01*
X70408800Y-19312723D01*
X70408800Y-18787277D01*
X72847200Y-18787277D01*
X72847200Y-19312723D01*
X73048280Y-19798173D01*
X73419827Y-20169720D01*
X73905277Y-20370800D01*
X74430723Y-20370800D01*
X74916173Y-20169720D01*
X75287720Y-19798173D01*
X75488800Y-19312723D01*
X75488800Y-18787277D01*
X75287720Y-18301827D01*
X74916173Y-17930280D01*
X74430723Y-17729200D01*
X73905277Y-17729200D01*
X73419827Y-17930280D01*
X73048280Y-18301827D01*
X72847200Y-18787277D01*
X70408800Y-18787277D01*
X70207720Y-18301827D01*
X69836173Y-17930280D01*
X69350723Y-17729200D01*
X68825277Y-17729200D01*
X68339827Y-17930280D01*
X67968280Y-18301827D01*
X67818000Y-18664635D01*
X67667720Y-18301827D01*
X67296173Y-17930280D01*
X66810723Y-17729200D01*
X66285277Y-17729200D01*
X65799827Y-17930280D01*
X65428280Y-18301827D01*
X65227200Y-18787277D01*
X64058800Y-18787277D01*
X63857720Y-18301827D01*
X63486173Y-17930280D01*
X63000723Y-17729200D01*
X62475277Y-17729200D01*
X61989827Y-17930280D01*
X61618280Y-18301827D01*
X61417200Y-18787277D01*
X56438800Y-18787277D01*
X56237720Y-18301827D01*
X55866173Y-17930280D01*
X55380723Y-17729200D01*
X54855277Y-17729200D01*
X54369827Y-17930280D01*
X53998280Y-18301827D01*
X53797200Y-18787277D01*
X52628800Y-18787277D01*
X52427720Y-18301827D01*
X52056173Y-17930280D01*
X51570723Y-17729200D01*
X51045277Y-17729200D01*
X50559827Y-17930280D01*
X50188280Y-18301827D01*
X49987200Y-18787277D01*
X47548800Y-18787277D01*
X47347720Y-18301827D01*
X46976173Y-17930280D01*
X46490723Y-17729200D01*
X45965277Y-17729200D01*
X45479827Y-17930280D01*
X45108280Y-18301827D01*
X44958000Y-18664635D01*
X44807720Y-18301827D01*
X44436173Y-17930280D01*
X43950723Y-17729200D01*
X43425277Y-17729200D01*
X42939827Y-17930280D01*
X42568280Y-18301827D01*
X42367200Y-18787277D01*
X38658800Y-18787277D01*
X38457720Y-18301827D01*
X38086173Y-17930280D01*
X37600723Y-17729200D01*
X37075277Y-17729200D01*
X36589827Y-17930280D01*
X36218280Y-18301827D01*
X36017200Y-18787277D01*
X33578800Y-18787277D01*
X33377720Y-18301827D01*
X33006173Y-17930280D01*
X32520723Y-17729200D01*
X31995277Y-17729200D01*
X31509827Y-17930280D01*
X31138280Y-18301827D01*
X30988000Y-18664635D01*
X30837720Y-18301827D01*
X30466173Y-17930280D01*
X29980723Y-17729200D01*
X29455277Y-17729200D01*
X28969827Y-17930280D01*
X28598280Y-18301827D01*
X28397200Y-18787277D01*
X23976800Y-18787277D01*
X23976800Y-14070800D01*
X78131201Y-14070800D01*
X78131200Y-43587200D01*
M02*
