G04 #@! TF.GenerationSoftware,KiCad,Pcbnew,(5.0.0-rc2-dev-586-g888c43477)*
G04 #@! TF.CreationDate,2018-06-04T00:56:57-03:00*
G04 #@! TF.ProjectId,Signal,5369676E616C2E6B696361645F706362,rev?*
G04 #@! TF.SameCoordinates,Original*
G04 #@! TF.FileFunction,Legend,Top*
G04 #@! TF.FilePolarity,Positive*
%FSLAX46Y46*%
G04 Gerber Fmt 4.6, Leading zero omitted, Abs format (unit mm)*
G04 Created by KiCad (PCBNEW (5.0.0-rc2-dev-586-g888c43477)) date 06/04/18 00:56:57*
%MOMM*%
%LPD*%
G01*
G04 APERTURE LIST*
%ADD10C,0.150000*%
G04 APERTURE END LIST*
D10*
X39878000Y-17780000D02*
X39878000Y-20320000D01*
X39878000Y-20320000D02*
X52578000Y-20320000D01*
X52578000Y-20320000D02*
X52578000Y-18034000D01*
X52578000Y-18034000D02*
X52578000Y-17780000D01*
X52578000Y-17780000D02*
X39878000Y-17780000D01*
X38608000Y-17780000D02*
X38608000Y-20320000D01*
X38608000Y-20320000D02*
X28448000Y-20320000D01*
X28448000Y-20320000D02*
X28448000Y-17780000D01*
X28448000Y-17780000D02*
X38608000Y-17780000D01*
X54102000Y-17780000D02*
X53848000Y-17780000D01*
X53848000Y-17780000D02*
X53848000Y-20320000D01*
X53848000Y-20320000D02*
X64008000Y-20320000D01*
X64008000Y-20320000D02*
X64008000Y-17780000D01*
X64008000Y-17780000D02*
X53848000Y-17780000D01*
X65278000Y-17780000D02*
X65278000Y-20320000D01*
X65278000Y-20320000D02*
X75438000Y-20320000D01*
X75438000Y-20320000D02*
X75438000Y-17780000D01*
X75438000Y-17780000D02*
X65278000Y-17780000D01*
X46696476Y-38034380D02*
X46696476Y-37034380D01*
X47029809Y-37748666D01*
X47363142Y-37034380D01*
X47363142Y-38034380D01*
X47839333Y-38034380D02*
X47839333Y-37034380D01*
X48410761Y-38034380D02*
X47982190Y-37462952D01*
X48410761Y-37034380D02*
X47839333Y-37605809D01*
X49363142Y-38034380D02*
X48791714Y-38034380D01*
X49077428Y-38034380D02*
X49077428Y-37034380D01*
X48982190Y-37177238D01*
X48886952Y-37272476D01*
X48791714Y-37320095D01*
X27686095Y-5548380D02*
X27686095Y-6357904D01*
X27733714Y-6453142D01*
X27781333Y-6500761D01*
X27876571Y-6548380D01*
X28067047Y-6548380D01*
X28162285Y-6500761D01*
X28209904Y-6453142D01*
X28257523Y-6357904D01*
X28257523Y-5548380D01*
X29257523Y-6548380D02*
X28686095Y-6548380D01*
X28971809Y-6548380D02*
X28971809Y-5548380D01*
X28876571Y-5691238D01*
X28781333Y-5786476D01*
X28686095Y-5834095D01*
M02*
